<?xml version="1.0" encoding="UTF-8"?>
<!DOCTYPE svg PUBLIC "-//W3C//DTD SVG 1.1//EN" "http://www.w3.org/Graphics/SVG/1.1/DTD/svg11.dtd">
<svg version="1.2" width="69.31mm" height="48.7mm" viewBox="9545 10654 6931 4870" preserveAspectRatio="xMidYMid" fill-rule="evenodd" stroke-width="28.222" stroke-linejoin="round" xmlns="http://www.w3.org/2000/svg" xmlns:ooo="http://xml.openoffice.org/svg/export" xmlns:xlink="http://www.w3.org/1999/xlink" xmlns:presentation="http://sun.com/xmlns/staroffice/presentation" xmlns:smil="http://www.w3.org/2001/SMIL20/" xmlns:anim="urn:oasis:names:tc:opendocument:xmlns:animation:1.0" xml:space="preserve">
 <defs class="ClipPathGroup">
  <clipPath id="presentation_clip_path" clipPathUnits="userSpaceOnUse">
   <rect x="9545" y="10654" width="6931" height="4870"/>
  </clipPath>
 </defs>
 <defs class="TextShapeIndex">
  <g ooo:slide="id1" ooo:id-list="id3 id4 id5 id6 id7 id8 id9 id10 id11 id12 id13 id14 id15 id16 id17 id18 id19 id20 id21 id22 id23 id24 id25 id26 id27 id28"/>
 </defs>
 <defs class="EmbeddedBulletChars">
  <g id="bullet-char-template(57356)" transform="scale(0.00048828125,-0.00048828125)">
   <path d="M 580,1141 L 1163,571 580,0 -4,571 580,1141 Z"/>
  </g>
  <g id="bullet-char-template(57354)" transform="scale(0.00048828125,-0.00048828125)">
   <path d="M 8,1128 L 1137,1128 1137,0 8,0 8,1128 Z"/>
  </g>
  <g id="bullet-char-template(10146)" transform="scale(0.00048828125,-0.00048828125)">
   <path d="M 174,0 L 602,739 174,1481 1456,739 174,0 Z M 1358,739 L 309,1346 659,739 1358,739 Z"/>
  </g>
  <g id="bullet-char-template(10132)" transform="scale(0.00048828125,-0.00048828125)">
   <path d="M 2015,739 L 1276,0 717,0 1260,543 174,543 174,936 1260,936 717,1481 1274,1481 2015,739 Z"/>
  </g>
  <g id="bullet-char-template(10007)" transform="scale(0.00048828125,-0.00048828125)">
   <path d="M 0,-2 C -7,14 -16,27 -25,37 L 356,567 C 262,823 215,952 215,954 215,979 228,992 255,992 264,992 276,990 289,987 310,991 331,999 354,1012 L 381,999 492,748 772,1049 836,1024 860,1049 C 881,1039 901,1025 922,1006 886,937 835,863 770,784 769,783 710,716 594,584 L 774,223 C 774,196 753,168 711,139 L 727,119 C 717,90 699,76 672,76 641,76 570,178 457,381 L 164,-76 C 142,-110 111,-127 72,-127 30,-127 9,-110 8,-76 1,-67 -2,-52 -2,-32 -2,-23 -1,-13 0,-2 Z"/>
  </g>
  <g id="bullet-char-template(10004)" transform="scale(0.00048828125,-0.00048828125)">
   <path d="M 285,-33 C 182,-33 111,30 74,156 52,228 41,333 41,471 41,549 55,616 82,672 116,743 169,778 240,778 293,778 328,747 346,684 L 369,508 C 377,444 397,411 428,410 L 1163,1116 C 1174,1127 1196,1133 1229,1133 1271,1133 1292,1118 1292,1087 L 1292,965 C 1292,929 1282,901 1262,881 L 442,47 C 390,-6 338,-33 285,-33 Z"/>
  </g>
  <g id="bullet-char-template(9679)" transform="scale(0.00048828125,-0.00048828125)">
   <path d="M 813,0 C 632,0 489,54 383,161 276,268 223,411 223,592 223,773 276,916 383,1023 489,1130 632,1184 813,1184 992,1184 1136,1130 1245,1023 1353,916 1407,772 1407,592 1407,412 1353,268 1245,161 1136,54 992,0 813,0 Z"/>
  </g>
  <g id="bullet-char-template(8226)" transform="scale(0.00048828125,-0.00048828125)">
   <path d="M 346,457 C 273,457 209,483 155,535 101,586 74,649 74,723 74,796 101,859 155,911 209,963 273,989 346,989 419,989 480,963 531,910 582,859 608,796 608,723 608,648 583,586 532,535 482,483 420,457 346,457 Z"/>
  </g>
  <g id="bullet-char-template(8211)" transform="scale(0.00048828125,-0.00048828125)">
   <path d="M -4,459 L 1135,459 1135,606 -4,606 -4,459 Z"/>
  </g>
 </defs>
 <defs class="TextEmbeddedBitmaps"/>
 <g class="SlideGroup">
  <g>
   <g id="id1" class="Slide" clip-path="url(#presentation_clip_path)">
    <g class="Page">
     <g class="Group">
      <g class="Group">
       <g class="com.sun.star.drawing.ClosedBezierShape">
        <g id="id3">
         <rect class="BoundingBox" stroke="none" fill="none" x="13305" y="13447" width="3173" height="2056"/>
         <path fill="rgb(221,221,221)" stroke="none" d="M 13309,15501 C 13572,15501 16476,14225 16476,13836 16476,13448 16068,13448 15804,13448 15804,13614 13213,14280 13309,15501 Z"/>
         <path fill="none" stroke="rgb(221,221,221)" d="M 13309,15501 C 13572,15501 16476,14225 16476,13836 16476,13448 16068,13448 15804,13448 15804,13614 13213,14280 13309,15501 Z"/>
        </g>
       </g>
       <g class="Group">
        <g class="com.sun.star.drawing.PolyPolygonShape">
         <g id="id4">
          <rect class="BoundingBox" stroke="none" fill="none" x="9737" y="12318" width="3400" height="3093"/>
          <g>
           <defs>
            <linearGradient id="gradient1" x1="9757" y1="13863" x2="13116" y2="13863" gradientUnits="userSpaceOnUse">
             <stop offset="0.1" style="stop-color:rgb(51,51,51)"/>
             <stop offset="1" style="stop-color:rgb(153,153,153)"/>
            </linearGradient>
           </defs>
           <path style="fill:url(#gradient1)" d="M 9757,13448 L 9757,12338 13116,14280 13116,15389 9757,13448 Z"/>
          </g>
          <path fill="none" stroke="rgb(178,178,178)" stroke-width="40" stroke-linejoin="round" d="M 9757,13448 L 9757,12338 13116,14280 13116,15389 9757,13448 Z"/>
         </g>
        </g>
        <g class="com.sun.star.drawing.PolyPolygonShape">
         <g id="id5">
          <rect class="BoundingBox" stroke="none" fill="none" x="13096" y="12595" width="2920" height="2816"/>
          <g>
           <defs>
            <pattern id="pattern1" x="13116" y="12616" width="2880" height="2775" patternUnits="userSpaceOnUse">
             <g transform="translate(-13116,-12616)">
              <path fill="rgb(51,51,51)" stroke="none" d="M 13115,12615 L 15996,12615 15996,15391 13115,15391 13115,12615 Z M 12553,12074 L 15404,12074 15404,14822 12553,14822 12553,12074 Z"/>
              <path fill="rgb(52,52,52)" stroke="none" d="M 12553,12074 L 15404,12074 15404,14822 12553,14822 12553,12074 Z M 12567,12088 L 15390,12088 15390,14808 12567,14808 12567,12088 Z"/>
              <path fill="rgb(53,53,53)" stroke="none" d="M 12567,12088 L 15390,12088 15390,14808 12567,14808 12567,12088 Z M 12581,12101 L 15376,12101 15376,14795 12581,14795 12581,12101 Z"/>
              <path fill="rgb(54,54,54)" stroke="none" d="M 12581,12101 L 15376,12101 15376,14795 12581,14795 12581,12101 Z M 12595,12115 L 15362,12115 15362,14781 12595,14781 12595,12115 Z"/>
              <path fill="rgb(55,55,55)" stroke="none" d="M 12595,12115 L 15362,12115 15362,14781 12595,14781 12595,12115 Z M 12609,12129 L 15348,12129 15348,14767 12609,14767 12609,12129 Z"/>
              <path fill="rgb(56,56,56)" stroke="none" d="M 12609,12129 L 15348,12129 15348,14767 12609,14767 12609,12129 Z M 12623,12142 L 15334,12142 15334,14754 12623,14754 12623,12142 Z"/>
              <path fill="rgb(57,57,57)" stroke="none" d="M 12623,12142 L 15334,12142 15334,14754 12623,14754 12623,12142 Z M 12637,12156 L 15320,12156 15320,14740 12637,14740 12637,12156 Z"/>
              <path fill="rgb(58,58,58)" stroke="none" d="M 12637,12156 L 15320,12156 15320,14740 12637,14740 12637,12156 Z M 12652,12169 L 15305,12169 15305,14727 12652,14727 12652,12169 Z"/>
              <path fill="rgb(59,59,59)" stroke="none" d="M 12652,12169 L 15305,12169 15305,14727 12652,14727 12652,12169 Z M 12666,12183 L 15291,12183 15291,14713 12666,14713 12666,12183 Z"/>
              <path fill="rgb(60,60,60)" stroke="none" d="M 12666,12183 L 15291,12183 15291,14713 12666,14713 12666,12183 Z M 12680,12197 L 15277,12197 15277,14699 12680,14699 12680,12197 Z"/>
              <path fill="rgb(61,61,61)" stroke="none" d="M 12680,12197 L 15277,12197 15277,14699 12680,14699 12680,12197 Z M 12694,12210 L 15263,12210 15263,14686 12694,14686 12694,12210 Z"/>
              <path fill="rgb(62,62,62)" stroke="none" d="M 12694,12210 L 15263,12210 15263,14686 12694,14686 12694,12210 Z M 12708,12224 L 15249,12224 15249,14672 12708,14672 12708,12224 Z"/>
              <path fill="rgb(63,63,63)" stroke="none" d="M 12708,12224 L 15249,12224 15249,14672 12708,14672 12708,12224 Z M 12722,12237 L 15235,12237 15235,14659 12722,14659 12722,12237 Z"/>
              <path fill="rgb(64,64,64)" stroke="none" d="M 12722,12237 L 15235,12237 15235,14659 12722,14659 12722,12237 Z M 12736,12251 L 15221,12251 15221,14645 12736,14645 12736,12251 Z"/>
              <path fill="rgb(65,65,65)" stroke="none" d="M 12736,12251 L 15221,12251 15221,14645 12736,14645 12736,12251 Z M 12750,12265 L 15207,12265 15207,14631 12750,14631 12750,12265 Z"/>
              <path fill="rgb(66,66,66)" stroke="none" d="M 12750,12265 L 15207,12265 15207,14631 12750,14631 12750,12265 Z M 12765,12278 L 15192,12278 15192,14618 12765,14618 12765,12278 Z"/>
              <path fill="rgb(67,67,67)" stroke="none" d="M 12765,12278 L 15192,12278 15192,14618 12765,14618 12765,12278 Z M 12779,12292 L 15178,12292 15178,14604 12779,14604 12779,12292 Z"/>
              <path fill="rgb(68,68,68)" stroke="none" d="M 12779,12292 L 15178,12292 15178,14604 12779,14604 12779,12292 Z M 12793,12306 L 15164,12306 15164,14590 12793,14590 12793,12306 Z"/>
              <path fill="rgb(69,69,69)" stroke="none" d="M 12793,12306 L 15164,12306 15164,14590 12793,14590 12793,12306 Z M 12807,12319 L 15150,12319 15150,14577 12807,14577 12807,12319 Z"/>
              <path fill="rgb(70,70,70)" stroke="none" d="M 12807,12319 L 15150,12319 15150,14577 12807,14577 12807,12319 Z M 12821,12333 L 15136,12333 15136,14563 12821,14563 12821,12333 Z"/>
              <path fill="rgb(71,71,71)" stroke="none" d="M 12821,12333 L 15136,12333 15136,14563 12821,14563 12821,12333 Z M 12835,12346 L 15122,12346 15122,14550 12835,14550 12835,12346 Z"/>
              <path fill="rgb(72,72,72)" stroke="none" d="M 12835,12346 L 15122,12346 15122,14550 12835,14550 12835,12346 Z M 12849,12360 L 15108,12360 15108,14536 12849,14536 12849,12360 Z"/>
              <path fill="rgb(73,73,73)" stroke="none" d="M 12849,12360 L 15108,12360 15108,14536 12849,14536 12849,12360 Z M 12863,12374 L 15094,12374 15094,14522 12863,14522 12863,12374 Z"/>
              <path fill="rgb(74,74,74)" stroke="none" d="M 12863,12374 L 15094,12374 15094,14522 12863,14522 12863,12374 Z M 12878,12387 L 15079,12387 15079,14509 12878,14509 12878,12387 Z"/>
              <path fill="rgb(75,75,75)" stroke="none" d="M 12878,12387 L 15079,12387 15079,14509 12878,14509 12878,12387 Z M 12892,12401 L 15065,12401 15065,14495 12892,14495 12892,12401 Z"/>
              <path fill="rgb(76,76,76)" stroke="none" d="M 12892,12401 L 15065,12401 15065,14495 12892,14495 12892,12401 Z M 12906,12414 L 15051,12414 15051,14482 12906,14482 12906,12414 Z"/>
              <path fill="rgb(77,77,77)" stroke="none" d="M 12906,12414 L 15051,12414 15051,14482 12906,14482 12906,12414 Z M 12920,12428 L 15037,12428 15037,14468 12920,14468 12920,12428 Z"/>
              <path fill="rgb(78,78,78)" stroke="none" d="M 12920,12428 L 15037,12428 15037,14468 12920,14468 12920,12428 Z M 12934,12442 L 15023,12442 15023,14454 12934,14454 12934,12442 Z"/>
              <path fill="rgb(79,79,79)" stroke="none" d="M 12934,12442 L 15023,12442 15023,14454 12934,14454 12934,12442 Z M 12948,12455 L 15009,12455 15009,14441 12948,14441 12948,12455 Z"/>
              <path fill="rgb(80,80,80)" stroke="none" d="M 12948,12455 L 15009,12455 15009,14441 12948,14441 12948,12455 Z M 12962,12469 L 14995,12469 14995,14427 12962,14427 12962,12469 Z"/>
              <path fill="rgb(81,81,81)" stroke="none" d="M 12962,12469 L 14995,12469 14995,14427 12962,14427 12962,12469 Z M 12976,12482 L 14981,12482 14981,14414 12976,14414 12976,12482 Z"/>
              <path fill="rgb(82,82,82)" stroke="none" d="M 12976,12482 L 14981,12482 14981,14414 12976,14414 12976,12482 Z M 12991,12496 L 14966,12496 14966,14400 12991,14400 12991,12496 Z"/>
              <path fill="rgb(83,83,83)" stroke="none" d="M 12991,12496 L 14966,12496 14966,14400 12991,14400 12991,12496 Z M 13005,12510 L 14952,12510 14952,14386 13005,14386 13005,12510 Z"/>
              <path fill="rgb(84,84,84)" stroke="none" d="M 13005,12510 L 14952,12510 14952,14386 13005,14386 13005,12510 Z M 13019,12523 L 14938,12523 14938,14373 13019,14373 13019,12523 Z"/>
              <path fill="rgb(85,85,85)" stroke="none" d="M 13019,12523 L 14938,12523 14938,14373 13019,14373 13019,12523 Z M 13033,12537 L 14924,12537 14924,14359 13033,14359 13033,12537 Z"/>
              <path fill="rgb(86,86,86)" stroke="none" d="M 13033,12537 L 14924,12537 14924,14359 13033,14359 13033,12537 Z M 13047,12551 L 14910,12551 14910,14345 13047,14345 13047,12551 Z"/>
              <path fill="rgb(87,87,87)" stroke="none" d="M 13047,12551 L 14910,12551 14910,14345 13047,14345 13047,12551 Z M 13061,12564 L 14896,12564 14896,14332 13061,14332 13061,12564 Z"/>
              <path fill="rgb(88,88,88)" stroke="none" d="M 13061,12564 L 14896,12564 14896,14332 13061,14332 13061,12564 Z M 13075,12578 L 14882,12578 14882,14318 13075,14318 13075,12578 Z"/>
              <path fill="rgb(89,89,89)" stroke="none" d="M 13075,12578 L 14882,12578 14882,14318 13075,14318 13075,12578 Z M 13089,12591 L 14868,12591 14868,14305 13089,14305 13089,12591 Z"/>
              <path fill="rgb(90,90,90)" stroke="none" d="M 13089,12591 L 14868,12591 14868,14305 13089,14305 13089,12591 Z M 13103,12604 L 14853,12604 14853,14291 13103,14291 13103,12604 Z"/>
              <path fill="rgb(91,91,91)" stroke="none" d="M 13103,12604 L 14853,12604 14853,14291 13103,14291 13103,12604 Z M 13117,12618 L 14839,12618 14839,14277 13117,14277 13117,12618 Z"/>
              <path fill="rgb(92,92,92)" stroke="none" d="M 13117,12618 L 14839,12618 14839,14277 13117,14277 13117,12618 Z M 13131,12631 L 14825,12631 14825,14264 13131,14264 13131,12631 Z"/>
              <path fill="rgb(93,93,93)" stroke="none" d="M 13131,12631 L 14825,12631 14825,14264 13131,14264 13131,12631 Z M 13145,12645 L 14811,12645 14811,14250 13145,14250 13145,12645 Z"/>
              <path fill="rgb(94,94,94)" stroke="none" d="M 13145,12645 L 14811,12645 14811,14250 13145,14250 13145,12645 Z M 13159,12658 L 14797,12658 14797,14237 13159,14237 13159,12658 Z"/>
              <path fill="rgb(95,95,95)" stroke="none" d="M 13159,12658 L 14797,12658 14797,14237 13159,14237 13159,12658 Z M 13173,12672 L 14783,12672 14783,14223 13173,14223 13173,12672 Z"/>
              <path fill="rgb(96,96,96)" stroke="none" d="M 13173,12672 L 14783,12672 14783,14223 13173,14223 13173,12672 Z M 13187,12686 L 14769,12686 14769,14209 13187,14209 13187,12686 Z"/>
              <path fill="rgb(97,97,97)" stroke="none" d="M 13187,12686 L 14769,12686 14769,14209 13187,14209 13187,12686 Z M 13201,12699 L 14755,12699 14755,14196 13201,14196 13201,12699 Z"/>
              <path fill="rgb(98,98,98)" stroke="none" d="M 13201,12699 L 14755,12699 14755,14196 13201,14196 13201,12699 Z M 13216,12713 L 14740,12713 14740,14182 13216,14182 13216,12713 Z"/>
              <path fill="rgb(99,99,99)" stroke="none" d="M 13216,12713 L 14740,12713 14740,14182 13216,14182 13216,12713 Z M 13230,12727 L 14726,12727 14726,14168 13230,14168 13230,12727 Z"/>
              <path fill="rgb(100,100,100)" stroke="none" d="M 13230,12727 L 14726,12727 14726,14168 13230,14168 13230,12727 Z M 13244,12740 L 14712,12740 14712,14155 13244,14155 13244,12740 Z"/>
              <path fill="rgb(101,101,101)" stroke="none" d="M 13244,12740 L 14712,12740 14712,14155 13244,14155 13244,12740 Z M 13258,12754 L 14698,12754 14698,14141 13258,14141 13258,12754 Z"/>
              <path fill="rgb(102,102,102)" stroke="none" d="M 13258,12754 L 14698,12754 14698,14141 13258,14141 13258,12754 Z M 13272,12767 L 14684,12767 14684,14128 13272,14128 13272,12767 Z"/>
              <path fill="rgb(103,103,103)" stroke="none" d="M 13272,12767 L 14684,12767 14684,14128 13272,14128 13272,12767 Z M 13286,12781 L 14670,12781 14670,14114 13286,14114 13286,12781 Z"/>
              <path fill="rgb(104,104,104)" stroke="none" d="M 13286,12781 L 14670,12781 14670,14114 13286,14114 13286,12781 Z M 13300,12795 L 14656,12795 14656,14100 13300,14100 13300,12795 Z"/>
              <path fill="rgb(105,105,105)" stroke="none" d="M 13300,12795 L 14656,12795 14656,14100 13300,14100 13300,12795 Z M 13315,12808 L 14641,12808 14641,14087 13315,14087 13315,12808 Z"/>
              <path fill="rgb(106,106,106)" stroke="none" d="M 13315,12808 L 14641,12808 14641,14087 13315,14087 13315,12808 Z M 13329,12822 L 14627,12822 14627,14073 13329,14073 13329,12822 Z"/>
              <path fill="rgb(107,107,107)" stroke="none" d="M 13329,12822 L 14627,12822 14627,14073 13329,14073 13329,12822 Z M 13343,12835 L 14613,12835 14613,14060 13343,14060 13343,12835 Z"/>
              <path fill="rgb(108,108,108)" stroke="none" d="M 13343,12835 L 14613,12835 14613,14060 13343,14060 13343,12835 Z M 13357,12849 L 14599,12849 14599,14046 13357,14046 13357,12849 Z"/>
              <path fill="rgb(109,109,109)" stroke="none" d="M 13357,12849 L 14599,12849 14599,14046 13357,14046 13357,12849 Z M 13371,12863 L 14585,12863 14585,14032 13371,14032 13371,12863 Z"/>
              <path fill="rgb(110,110,110)" stroke="none" d="M 13371,12863 L 14585,12863 14585,14032 13371,14032 13371,12863 Z M 13385,12876 L 14571,12876 14571,14019 13385,14019 13385,12876 Z"/>
              <path fill="rgb(111,111,111)" stroke="none" d="M 13385,12876 L 14571,12876 14571,14019 13385,14019 13385,12876 Z M 13399,12890 L 14557,12890 14557,14005 13399,14005 13399,12890 Z"/>
              <path fill="rgb(112,112,112)" stroke="none" d="M 13399,12890 L 14557,12890 14557,14005 13399,14005 13399,12890 Z M 13413,12903 L 14543,12903 14543,13992 13413,13992 13413,12903 Z"/>
              <path fill="rgb(113,113,113)" stroke="none" d="M 13413,12903 L 14543,12903 14543,13992 13413,13992 13413,12903 Z M 13428,12917 L 14528,12917 14528,13978 13428,13978 13428,12917 Z"/>
              <path fill="rgb(114,114,114)" stroke="none" d="M 13428,12917 L 14528,12917 14528,13978 13428,13978 13428,12917 Z M 13442,12931 L 14514,12931 14514,13964 13442,13964 13442,12931 Z"/>
              <path fill="rgb(115,115,115)" stroke="none" d="M 13442,12931 L 14514,12931 14514,13964 13442,13964 13442,12931 Z M 13456,12944 L 14500,12944 14500,13951 13456,13951 13456,12944 Z"/>
              <path fill="rgb(116,116,116)" stroke="none" d="M 13456,12944 L 14500,12944 14500,13951 13456,13951 13456,12944 Z M 13470,12958 L 14486,12958 14486,13937 13470,13937 13470,12958 Z"/>
              <path fill="rgb(117,117,117)" stroke="none" d="M 13470,12958 L 14486,12958 14486,13937 13470,13937 13470,12958 Z M 13484,12972 L 14472,12972 14472,13923 13484,13923 13484,12972 Z"/>
              <path fill="rgb(118,118,118)" stroke="none" d="M 13484,12972 L 14472,12972 14472,13923 13484,13923 13484,12972 Z M 13498,12985 L 14458,12985 14458,13910 13498,13910 13498,12985 Z"/>
              <path fill="rgb(119,119,119)" stroke="none" d="M 13498,12985 L 14458,12985 14458,13910 13498,13910 13498,12985 Z M 13512,12999 L 14444,12999 14444,13896 13512,13896 13512,12999 Z"/>
              <path fill="rgb(120,120,120)" stroke="none" d="M 13512,12999 L 14444,12999 14444,13896 13512,13896 13512,12999 Z M 13526,13012 L 14430,13012 14430,13883 13526,13883 13526,13012 Z"/>
              <path fill="rgb(121,121,121)" stroke="none" d="M 13526,13012 L 14430,13012 14430,13883 13526,13883 13526,13012 Z M 13541,13026 L 14415,13026 14415,13869 13541,13869 13541,13026 Z"/>
              <path fill="rgb(122,122,122)" stroke="none" d="M 13541,13026 L 14415,13026 14415,13869 13541,13869 13541,13026 Z M 13555,13040 L 14401,13040 14401,13855 13555,13855 13555,13040 Z"/>
              <path fill="rgb(123,123,123)" stroke="none" d="M 13555,13040 L 14401,13040 14401,13855 13555,13855 13555,13040 Z M 13569,13053 L 14387,13053 14387,13842 13569,13842 13569,13053 Z"/>
              <path fill="rgb(124,124,124)" stroke="none" d="M 13569,13053 L 14387,13053 14387,13842 13569,13842 13569,13053 Z M 13583,13067 L 14373,13067 14373,13828 13583,13828 13583,13067 Z"/>
              <path fill="rgb(125,125,125)" stroke="none" d="M 13583,13067 L 14373,13067 14373,13828 13583,13828 13583,13067 Z M 13597,13080 L 14359,13080 14359,13815 13597,13815 13597,13080 Z"/>
              <path fill="rgb(126,126,126)" stroke="none" d="M 13597,13080 L 14359,13080 14359,13815 13597,13815 13597,13080 Z M 13611,13094 L 14345,13094 14345,13801 13611,13801 13611,13094 Z"/>
              <path fill="rgb(127,127,127)" stroke="none" d="M 13611,13094 L 14345,13094 14345,13801 13611,13801 13611,13094 Z M 13625,13108 L 14331,13108 14331,13787 13625,13787 13625,13108 Z"/>
              <path fill="rgb(128,128,128)" stroke="none" d="M 13625,13108 L 14331,13108 14331,13787 13625,13787 13625,13108 Z M 13639,13121 L 14317,13121 14317,13774 13639,13774 13639,13121 Z"/>
              <path fill="rgb(129,129,129)" stroke="none" d="M 13639,13121 L 14317,13121 14317,13774 13639,13774 13639,13121 Z M 13654,13135 L 14302,13135 14302,13760 13654,13760 13654,13135 Z"/>
              <path fill="rgb(130,130,130)" stroke="none" d="M 13654,13135 L 14302,13135 14302,13760 13654,13760 13654,13135 Z M 13668,13149 L 14288,13149 14288,13746 13668,13746 13668,13149 Z"/>
              <path fill="rgb(131,131,131)" stroke="none" d="M 13668,13149 L 14288,13149 14288,13746 13668,13746 13668,13149 Z M 13682,13162 L 14274,13162 14274,13733 13682,13733 13682,13162 Z"/>
              <path fill="rgb(132,132,132)" stroke="none" d="M 13682,13162 L 14274,13162 14274,13733 13682,13733 13682,13162 Z M 13696,13176 L 14260,13176 14260,13719 13696,13719 13696,13176 Z"/>
              <path fill="rgb(133,133,133)" stroke="none" d="M 13696,13176 L 14260,13176 14260,13719 13696,13719 13696,13176 Z M 13710,13189 L 14246,13189 14246,13706 13710,13706 13710,13189 Z"/>
              <path fill="rgb(134,134,134)" stroke="none" d="M 13710,13189 L 14246,13189 14246,13706 13710,13706 13710,13189 Z M 13724,13203 L 14232,13203 14232,13692 13724,13692 13724,13203 Z"/>
              <path fill="rgb(135,135,135)" stroke="none" d="M 13724,13203 L 14232,13203 14232,13692 13724,13692 13724,13203 Z M 13738,13217 L 14218,13217 14218,13678 13738,13678 13738,13217 Z"/>
              <path fill="rgb(136,136,136)" stroke="none" d="M 13738,13217 L 14218,13217 14218,13678 13738,13678 13738,13217 Z M 13752,13230 L 14204,13230 14204,13665 13752,13665 13752,13230 Z"/>
              <path fill="rgb(137,137,137)" stroke="none" d="M 13752,13230 L 14204,13230 14204,13665 13752,13665 13752,13230 Z M 13767,13244 L 14189,13244 14189,13651 13767,13651 13767,13244 Z"/>
              <path fill="rgb(138,138,138)" stroke="none" d="M 13767,13244 L 14189,13244 14189,13651 13767,13651 13767,13244 Z M 13781,13257 L 14175,13257 14175,13638 13781,13638 13781,13257 Z"/>
              <path fill="rgb(139,139,139)" stroke="none" d="M 13781,13257 L 14175,13257 14175,13638 13781,13638 13781,13257 Z M 13795,13271 L 14161,13271 14161,13624 13795,13624 13795,13271 Z"/>
              <path fill="rgb(140,140,140)" stroke="none" d="M 13795,13271 L 14161,13271 14161,13624 13795,13624 13795,13271 Z M 13809,13285 L 14147,13285 14147,13610 13809,13610 13809,13285 Z"/>
              <path fill="rgb(141,141,141)" stroke="none" d="M 13809,13285 L 14147,13285 14147,13610 13809,13610 13809,13285 Z M 13823,13298 L 14133,13298 14133,13597 13823,13597 13823,13298 Z"/>
              <path fill="rgb(142,142,142)" stroke="none" d="M 13823,13298 L 14133,13298 14133,13597 13823,13597 13823,13298 Z M 13837,13312 L 14119,13312 14119,13583 13837,13583 13837,13312 Z"/>
              <path fill="rgb(143,143,143)" stroke="none" d="M 13837,13312 L 14119,13312 14119,13583 13837,13583 13837,13312 Z M 13851,13325 L 14105,13325 14105,13570 13851,13570 13851,13325 Z"/>
              <path fill="rgb(144,144,144)" stroke="none" d="M 13851,13325 L 14105,13325 14105,13570 13851,13570 13851,13325 Z M 13865,13339 L 14091,13339 14091,13556 13865,13556 13865,13339 Z"/>
              <path fill="rgb(145,145,145)" stroke="none" d="M 13865,13339 L 14091,13339 14091,13556 13865,13556 13865,13339 Z M 13880,13353 L 14076,13353 14076,13542 13880,13542 13880,13353 Z"/>
              <path fill="rgb(146,146,146)" stroke="none" d="M 13880,13353 L 14076,13353 14076,13542 13880,13542 13880,13353 Z M 13894,13366 L 14062,13366 14062,13529 13894,13529 13894,13366 Z"/>
              <path fill="rgb(147,147,147)" stroke="none" d="M 13894,13366 L 14062,13366 14062,13529 13894,13529 13894,13366 Z M 13908,13380 L 14048,13380 14048,13515 13908,13515 13908,13380 Z"/>
              <path fill="rgb(148,148,148)" stroke="none" d="M 13908,13380 L 14048,13380 14048,13515 13908,13515 13908,13380 Z M 13922,13394 L 14034,13394 14034,13501 13922,13501 13922,13394 Z"/>
              <path fill="rgb(149,149,149)" stroke="none" d="M 13922,13394 L 14034,13394 14034,13501 13922,13501 13922,13394 Z M 13936,13407 L 14020,13407 14020,13488 13936,13488 13936,13407 Z"/>
              <path fill="rgb(150,150,150)" stroke="none" d="M 13936,13407 L 14020,13407 14020,13488 13936,13488 13936,13407 Z M 13950,13421 L 14006,13421 14006,13474 13950,13474 13950,13421 Z"/>
              <path fill="rgb(151,151,151)" stroke="none" d="M 13950,13421 L 14006,13421 14006,13474 13950,13474 13950,13421 Z M 13964,13434 L 13992,13434 13992,13461 13964,13461 13964,13434 Z"/>
              <path fill="rgb(153,153,153)" stroke="none" d="M 13964,13434 L 13992,13434 13992,13461 13964,13461 13964,13434 Z"/>
             </g>
            </pattern>
           </defs>
           <path style="fill:url(#pattern1)" d="M 13116,15390 L 13116,14280 15995,12616 15995,13726 13116,15390 Z"/>
          </g>
          <path fill="none" stroke="rgb(178,178,178)" stroke-width="40" stroke-linejoin="round" d="M 13116,15390 L 13116,14280 15995,12616 15995,13726 13116,15390 Z"/>
         </g>
        </g>
        <g class="com.sun.star.drawing.PolyPolygonShape">
         <g id="id6">
          <rect class="BoundingBox" stroke="none" fill="none" x="9737" y="10654" width="6280" height="3648"/>
          <g>
           <defs>
            <linearGradient id="gradient2" x1="12876" y1="10674" x2="12876" y2="14280" gradientUnits="userSpaceOnUse">
             <stop offset="0.1" style="stop-color:rgb(51,51,51)"/>
             <stop offset="1" style="stop-color:rgb(153,153,153)"/>
            </linearGradient>
           </defs>
           <path style="fill:url(#gradient2)" d="M 13116,14280 L 9757,12338 12636,10674 15996,12616 13116,14280 Z"/>
          </g>
          <path fill="none" stroke="rgb(178,178,178)" stroke-width="40" stroke-linejoin="round" d="M 13116,14280 L 9757,12338 12636,10674 15996,12616 13116,14280 Z"/>
         </g>
        </g>
        <g class="com.sun.star.drawing.LineShape">
         <g id="id7">
          <rect class="BoundingBox" stroke="none" fill="none" x="10889" y="13206" width="41" height="707"/>
          <path fill="none" stroke="rgb(153,153,153)" stroke-width="40" stroke-linejoin="round" d="M 10909,13226 L 10909,13892"/>
         </g>
        </g>
        <g class="com.sun.star.drawing.LineShape">
         <g id="id8">
          <rect class="BoundingBox" stroke="none" fill="none" x="11465" y="13739" width="1577" height="929"/>
          <path fill="none" stroke="rgb(178,178,178)" stroke-width="40" stroke-linejoin="round" d="M 13021,14647 L 11485,13759"/>
         </g>
        </g>
        <g class="com.sun.star.drawing.LineShape">
         <g id="id9">
          <rect class="BoundingBox" stroke="none" fill="none" x="11456" y="13539" width="41" height="263"/>
          <path fill="none" stroke="rgb(178,178,178)" stroke-width="40" stroke-linejoin="round" d="M 11476,13559 L 11476,13781"/>
         </g>
        </g>
        <g class="com.sun.star.drawing.LineShape">
         <g id="id10">
          <rect class="BoundingBox" stroke="none" fill="none" x="12992" y="14427" width="41" height="263"/>
          <path fill="none" stroke="rgb(102,102,102)" stroke-width="40" stroke-linejoin="round" d="M 13012,14447 L 13012,14669"/>
         </g>
        </g>
        <g class="com.sun.star.drawing.LineShape">
         <g id="id11">
          <rect class="BoundingBox" stroke="none" fill="none" x="11456" y="13539" width="1577" height="929"/>
          <path fill="none" stroke="rgb(102,102,102)" stroke-width="40" stroke-linejoin="round" d="M 13012,14447 L 11476,13559"/>
         </g>
        </g>
        <g class="com.sun.star.drawing.PolyPolygonShape">
         <g id="id12">
          <rect class="BoundingBox" stroke="none" fill="none" x="11080" y="13317" width="234" height="374"/>
          <path fill="rgb(57,181,74)" stroke="none" d="M 11101,13559 L 11101,13337 11293,13448 11293,13670 11101,13559 Z"/>
          <path fill="none" stroke="rgb(102,102,102)" stroke-width="40" stroke-linejoin="round" d="M 11101,13559 L 11101,13337 11293,13448 11293,13670 11101,13559 Z"/>
         </g>
        </g>
        <g class="com.sun.star.drawing.LineShape">
         <g id="id13">
          <rect class="BoundingBox" stroke="none" fill="none" x="10697" y="13095" width="41" height="707"/>
          <path fill="none" stroke="rgb(153,153,153)" stroke-width="40" stroke-linejoin="round" d="M 10717,13115 L 10717,13781"/>
         </g>
        </g>
        <g class="com.sun.star.drawing.LineShape">
         <g id="id14">
          <rect class="BoundingBox" stroke="none" fill="none" x="10505" y="12984" width="41" height="707"/>
          <path fill="none" stroke="rgb(153,153,153)" stroke-width="40" stroke-linejoin="round" d="M 10525,13004 L 10525,13670"/>
         </g>
        </g>
        <g class="com.sun.star.drawing.LineShape">
         <g id="id15">
          <rect class="BoundingBox" stroke="none" fill="none" x="10313" y="12873" width="41" height="707"/>
          <path fill="none" stroke="rgb(153,153,153)" stroke-width="40" stroke-linejoin="round" d="M 10333,12893 L 10333,13559"/>
         </g>
        </g>
        <g class="com.sun.star.drawing.LineShape">
         <g id="id16">
          <rect class="BoundingBox" stroke="none" fill="none" x="10121" y="12762" width="41" height="707"/>
          <path fill="none" stroke="rgb(153,153,153)" stroke-width="40" stroke-linejoin="round" d="M 10141,12782 L 10141,13448"/>
         </g>
        </g>
        <g class="com.sun.star.drawing.LineShape">
         <g id="id17">
          <rect class="BoundingBox" stroke="none" fill="none" x="9929" y="12651" width="41" height="707"/>
          <path fill="none" stroke="rgb(153,153,153)" stroke-width="40" stroke-linejoin="round" d="M 9949,12671 L 9949,13337"/>
         </g>
        </g>
        <g class="com.sun.star.drawing.PolyPolygonShape">
         <g id="id18">
          <rect class="BoundingBox" stroke="none" fill="none" x="9544" y="12207" width="234" height="1262"/>
          <g>
           <defs>
            <linearGradient id="gradient3" x1="9565" y1="12837" x2="9758" y2="12837" gradientUnits="userSpaceOnUse">
             <stop offset="0.1" style="stop-color:rgb(51,51,51)"/>
             <stop offset="1" style="stop-color:rgb(153,153,153)"/>
            </linearGradient>
           </defs>
           <path style="fill:url(#gradient3)" d="M 9565,13337 L 9565,12227 9757,12338 9757,13448 9565,13337 Z"/>
          </g>
          <path fill="none" stroke="rgb(178,178,178)" stroke-width="40" stroke-linejoin="round" d="M 9565,13337 L 9565,12227 9757,12338 9757,13448 9565,13337 Z"/>
         </g>
        </g>
        <g class="com.sun.star.drawing.PolyPolygonShape">
         <g id="id19">
          <rect class="BoundingBox" stroke="none" fill="none" x="13096" y="14260" width="233" height="1262"/>
          <g>
           <defs>
            <linearGradient id="gradient4" x1="13116" y1="14890" x2="13309" y2="14890" gradientUnits="userSpaceOnUse">
             <stop offset="0.1" style="stop-color:rgb(51,51,51)"/>
             <stop offset="1" style="stop-color:rgb(153,153,153)"/>
            </linearGradient>
           </defs>
           <path style="fill:url(#gradient4)" d="M 13116,15390 L 13116,14280 13308,14391 13308,15501 13116,15390 Z"/>
          </g>
          <path fill="none" stroke="rgb(178,178,178)" stroke-width="40" stroke-linejoin="round" d="M 13116,15390 L 13116,14280 13308,14391 13308,15501 13116,15390 Z"/>
         </g>
        </g>
        <g class="com.sun.star.drawing.PolyPolygonShape">
         <g id="id20">
          <rect class="BoundingBox" stroke="none" fill="none" x="9545" y="10654" width="6472" height="4868"/>
          <path fill="none" stroke="rgb(0,0,0)" stroke-width="40" stroke-linejoin="round" d="M 9565,13337 L 9565,12227 9757,12338 12636,10674 15996,12616 15996,13725 13308,15279 13308,15501 9565,13337 Z"/>
         </g>
        </g>
       </g>
      </g>
      <g class="Group">
       <g class="com.sun.star.drawing.PolyPolygonShape">
        <g id="id21">
         <rect class="BoundingBox" stroke="none" fill="none" x="14005" y="14076" width="1158" height="686"/>
         <g>
          <defs>
           <linearGradient id="gradient5" x1="14583" y1="14096" x2="14583" y2="14741" gradientUnits="userSpaceOnUse">
            <stop offset="0.1" style="stop-color:rgb(222,142,150)"/>
            <stop offset="1" style="stop-color:rgb(248,232,234)"/>
           </linearGradient>
          </defs>
          <path style="fill:url(#gradient5)" d="M 14837,14741 L 15142,14565 14330,14096 14025,14272 14837,14741 Z"/>
         </g>
         <path fill="none" stroke="rgb(255,255,255)" stroke-width="40" stroke-linejoin="round" d="M 14837,14741 L 15142,14565 14330,14096 14025,14272 14837,14741 Z"/>
        </g>
       </g>
       <g class="com.sun.star.drawing.ClosedBezierShape">
        <g id="id22">
         <rect class="BoundingBox" stroke="none" fill="none" x="14208" y="13820" width="752" height="825"/>
         <g>
          <defs>
           <linearGradient id="gradient6" x1="14227" y1="14231" x2="14940" y2="14231" gradientUnits="userSpaceOnUse">
            <stop offset="0.1" style="stop-color:rgb(179,179,179)"/>
            <stop offset="1" style="stop-color:rgb(229,229,229)"/>
           </linearGradient>
          </defs>
          <path style="fill:url(#gradient6)" d="M 14939,14579 L 14931,14442 14908,14316 14873,14204 14828,14105 14774,14020 14714,13950 14682,13922 14650,13897 14617,13877 14584,13861 14550,13849 14517,13842 14485,13840 14453,13843 14422,13850 14393,13862 14365,13880 14339,13903 14315,13931 14294,13964 14275,14004 14259,14048 14246,14099 14236,14155 14228,14286 14262,14305 14289,14319 14300,14324 14310,14328 14320,14330 14330,14330 14339,14330 14349,14328 14360,14324 14371,14319 14397,14305 14431,14286 14434,14217 14444,14164 14451,14143 14459,14125 14468,14111 14479,14101 14490,14093 14502,14089 14514,14088 14528,14090 14541,14095 14555,14102 14569,14112 14584,14125 14612,14157 14639,14198 14665,14247 14688,14303 14708,14365 14723,14432 14733,14504 14736,14579 14770,14598 14796,14612 14807,14617 14818,14621 14828,14623 14837,14623 14847,14623 14857,14621 14867,14617 14878,14612 14905,14598 14939,14579 Z"/>
         </g>
         <path fill="none" stroke="rgb(255,255,255)" stroke-width="40" stroke-linejoin="round" d="M 14939,14579 C 14939,13817 14228,13523 14228,14286 14330,14345 14330,14345 14431,14286 14431,13875 14736,14169 14736,14579 14837,14638 14837,14638 14939,14579 Z"/>
        </g>
       </g>
       <g class="com.sun.star.drawing.OpenBezierShape">
        <g id="id23">
         <rect class="BoundingBox" stroke="none" fill="none" x="14310" y="13983" width="448" height="603"/>
         <path fill="none" stroke="rgb(255,255,255)" stroke-width="40" stroke-linejoin="round" d="M 14737,14565 C 14736,14037 14331,13803 14330,14213"/>
        </g>
       </g>
       <g class="com.sun.star.drawing.PolyPolygonShape">
        <g id="id24">
         <rect class="BoundingBox" stroke="none" fill="none" x="14005" y="14252" width="853" height="1274"/>
         <g>
          <defs>
           <linearGradient id="gradient7" x1="14024" y1="14888" x2="14838" y2="14888" gradientUnits="userSpaceOnUse">
            <stop offset="0.1" style="stop-color:rgb(222,142,150)"/>
            <stop offset="1" style="stop-color:rgb(248,232,234)"/>
           </linearGradient>
          </defs>
          <path style="fill:url(#gradient7)" d="M 14837,15504 L 14837,14741 14025,14272 14025,15035 14837,15504 Z"/>
         </g>
         <path fill="none" stroke="rgb(255,255,255)" stroke-width="40" stroke-linejoin="round" d="M 14837,15504 L 14837,14741 14025,14272 14025,15035 14837,15504 Z"/>
        </g>
       </g>
       <g class="com.sun.star.drawing.ClosedBezierShape">
        <g id="id25">
         <rect class="BoundingBox" stroke="none" fill="none" x="14336" y="14721" width="218" height="346"/>
         <g>
          <defs>
           <linearGradient id="gradient8" x1="14444" y1="14741" x2="14444" y2="15045" gradientUnits="userSpaceOnUse">
            <stop offset="0.1" style="stop-color:rgb(0,0,0)"/>
            <stop offset="1" style="stop-color:rgb(255,255,255)"/>
           </linearGradient>
          </defs>
          <path style="fill:url(#gradient8)" d="M 14374,14869 L 14360,14821 14358,14802 14357,14785 14359,14772 14363,14761 14365,14756 14368,14752 14371,14749 14375,14746 14379,14744 14383,14743 14393,14741 14403,14741 14414,14743 14426,14747 14438,14752 14462,14767 14485,14785 14505,14806 14514,14818 14521,14829 14526,14841 14530,14853 14532,14864 14532,14876 14530,14886 14524,14897 14517,14906 14506,14915 14492,14922 14475,14928 14475,15045 14374,14987 14374,14869 Z"/>
         </g>
         <path fill="none" stroke="rgb(255,255,255)" stroke-width="40" stroke-linejoin="round" d="M 14374,14869 C 14272,14576 14678,14869 14475,14928 L 14475,15045 14374,14987 14374,14869 Z"/>
        </g>
       </g>
       <g class="com.sun.star.drawing.PolyPolygonShape">
        <g id="id26">
         <rect class="BoundingBox" stroke="none" fill="none" x="14817" y="14545" width="346" height="981"/>
         <g>
          <defs>
           <pattern id="pattern2" x="14837" y="14565" width="306" height="940" patternUnits="userSpaceOnUse">
            <g transform="translate(-14837,-14565)">
             <path fill="rgb(222,142,150)" stroke="none" d="M 14836,14564 L 15143,14564 15143,15505 14836,15505 14836,14564 Z M 14776,14381 L 15079,14381 15079,15310 14776,15310 14776,14381 Z"/>
             <path fill="rgb(222,143,150)" stroke="none" d="M 14776,14381 L 15079,14381 15079,15310 14776,15310 14776,14381 Z M 14778,14386 L 15077,14386 15077,15305 14778,15305 14778,14386 Z"/>
             <path fill="rgb(222,144,151)" stroke="none" d="M 14778,14386 L 15077,14386 15077,15305 14778,15305 14778,14386 Z M 14780,14391 L 15075,14391 15075,15300 14780,15300 14780,14391 Z"/>
             <path fill="rgb(222,145,152)" stroke="none" d="M 14780,14391 L 15075,14391 15075,15300 14780,15300 14780,14391 Z M 14781,14396 L 15074,14396 15074,15295 14781,15295 14781,14396 Z"/>
             <path fill="rgb(223,146,153)" stroke="none" d="M 14781,14396 L 15074,14396 15074,15295 14781,15295 14781,14396 Z M 14783,14402 L 15072,14402 15072,15289 14783,15289 14783,14402 Z"/>
             <path fill="rgb(223,147,154)" stroke="none" d="M 14783,14402 L 15072,14402 15072,15289 14783,15289 14783,14402 Z M 14785,14407 L 15070,14407 15070,15284 14785,15284 14785,14407 Z"/>
             <path fill="rgb(223,148,155)" stroke="none" d="M 14785,14407 L 15070,14407 15070,15284 14785,15284 14785,14407 Z M 14786,14412 L 15069,14412 15069,15279 14786,15279 14786,14412 Z"/>
             <path fill="rgb(224,149,156)" stroke="none" d="M 14786,14412 L 15069,14412 15069,15279 14786,15279 14786,14412 Z M 14788,14417 L 15067,14417 15067,15274 14788,15274 14788,14417 Z"/>
             <path fill="rgb(224,150,157)" stroke="none" d="M 14788,14417 L 15067,14417 15067,15274 14788,15274 14788,14417 Z M 14790,14423 L 15065,14423 15065,15268 14790,15268 14790,14423 Z"/>
             <path fill="rgb(224,151,158)" stroke="none" d="M 14790,14423 L 15065,14423 15065,15268 14790,15268 14790,14423 Z M 14792,14428 L 15063,14428 15063,15263 14792,15263 14792,14428 Z"/>
             <path fill="rgb(224,152,159)" stroke="none" d="M 14792,14428 L 15063,14428 15063,15263 14792,15263 14792,14428 Z M 14793,14433 L 15062,14433 15062,15258 14793,15258 14793,14433 Z"/>
             <path fill="rgb(225,153,160)" stroke="none" d="M 14793,14433 L 15062,14433 15062,15258 14793,15258 14793,14433 Z M 14795,14438 L 15060,14438 15060,15253 14795,15253 14795,14438 Z"/>
             <path fill="rgb(225,154,161)" stroke="none" d="M 14795,14438 L 15060,14438 15060,15253 14795,15253 14795,14438 Z M 14797,14444 L 15058,14444 15058,15247 14797,15247 14797,14444 Z"/>
             <path fill="rgb(225,155,162)" stroke="none" d="M 14797,14444 L 15058,14444 15058,15247 14797,15247 14797,14444 Z M 14798,14449 L 15057,14449 15057,15242 14798,15242 14798,14449 Z"/>
             <path fill="rgb(226,156,163)" stroke="none" d="M 14798,14449 L 15057,14449 15057,15242 14798,15242 14798,14449 Z M 14800,14454 L 15055,14454 15055,15237 14800,15237 14800,14454 Z"/>
             <path fill="rgb(226,157,164)" stroke="none" d="M 14800,14454 L 15055,14454 15055,15237 14800,15237 14800,14454 Z M 14802,14459 L 15053,14459 15053,15232 14802,15232 14802,14459 Z"/>
             <path fill="rgb(226,158,164)" stroke="none" d="M 14802,14459 L 15053,14459 15053,15232 14802,15232 14802,14459 Z M 14804,14464 L 15051,14464 15051,15227 14804,15227 14804,14464 Z"/>
             <path fill="rgb(226,159,165)" stroke="none" d="M 14804,14464 L 15051,14464 15051,15227 14804,15227 14804,14464 Z M 14805,14470 L 15050,14470 15050,15221 14805,15221 14805,14470 Z"/>
             <path fill="rgb(227,160,166)" stroke="none" d="M 14805,14470 L 15050,14470 15050,15221 14805,15221 14805,14470 Z M 14807,14475 L 15048,14475 15048,15216 14807,15216 14807,14475 Z"/>
             <path fill="rgb(227,161,167)" stroke="none" d="M 14807,14475 L 15048,14475 15048,15216 14807,15216 14807,14475 Z M 14809,14480 L 15046,14480 15046,15211 14809,15211 14809,14480 Z"/>
             <path fill="rgb(227,162,168)" stroke="none" d="M 14809,14480 L 15046,14480 15046,15211 14809,15211 14809,14480 Z M 14810,14485 L 15045,14485 15045,15206 14810,15206 14810,14485 Z"/>
             <path fill="rgb(228,163,169)" stroke="none" d="M 14810,14485 L 15045,14485 15045,15206 14810,15206 14810,14485 Z M 14812,14491 L 15043,14491 15043,15200 14812,15200 14812,14491 Z"/>
             <path fill="rgb(228,164,170)" stroke="none" d="M 14812,14491 L 15043,14491 15043,15200 14812,15200 14812,14491 Z M 14814,14496 L 15041,14496 15041,15195 14814,15195 14814,14496 Z"/>
             <path fill="rgb(228,165,171)" stroke="none" d="M 14814,14496 L 15041,14496 15041,15195 14814,15195 14814,14496 Z M 14816,14501 L 15039,14501 15039,15190 14816,15190 14816,14501 Z"/>
             <path fill="rgb(228,166,172)" stroke="none" d="M 14816,14501 L 15039,14501 15039,15190 14816,15190 14816,14501 Z M 14817,14506 L 15038,14506 15038,15185 14817,15185 14817,14506 Z"/>
             <path fill="rgb(229,167,173)" stroke="none" d="M 14817,14506 L 15038,14506 15038,15185 14817,15185 14817,14506 Z M 14818,14512 L 15036,14512 15036,15179 14818,15179 14818,14512 Z"/>
             <path fill="rgb(229,168,174)" stroke="none" d="M 14818,14512 L 15036,14512 15036,15179 14818,15179 14818,14512 Z M 14820,14517 L 15034,14517 15034,15174 14820,15174 14820,14517 Z"/>
             <path fill="rgb(229,169,175)" stroke="none" d="M 14820,14517 L 15034,14517 15034,15174 14820,15174 14820,14517 Z M 14821,14522 L 15033,14522 15033,15169 14821,15169 14821,14522 Z"/>
             <path fill="rgb(230,170,176)" stroke="none" d="M 14821,14522 L 15033,14522 15033,15169 14821,15169 14821,14522 Z M 14823,14527 L 15031,14527 15031,15164 14823,15164 14823,14527 Z"/>
             <path fill="rgb(230,171,177)" stroke="none" d="M 14823,14527 L 15031,14527 15031,15164 14823,15164 14823,14527 Z M 14825,14532 L 15029,14532 15029,15158 14825,15158 14825,14532 Z"/>
             <path fill="rgb(230,172,178)" stroke="none" d="M 14825,14532 L 15029,14532 15029,15158 14825,15158 14825,14532 Z M 14827,14538 L 15027,14538 15027,15153 14827,15153 14827,14538 Z"/>
             <path fill="rgb(230,173,178)" stroke="none" d="M 14827,14538 L 15027,14538 15027,15153 14827,15153 14827,14538 Z M 14828,14543 L 15026,14543 15026,15148 14828,15148 14828,14543 Z"/>
             <path fill="rgb(231,174,179)" stroke="none" d="M 14828,14543 L 15026,14543 15026,15148 14828,15148 14828,14543 Z M 14830,14547 L 15024,14547 15024,15143 14830,15143 14830,14547 Z"/>
             <path fill="rgb(231,175,180)" stroke="none" d="M 14830,14547 L 15024,14547 15024,15143 14830,15143 14830,14547 Z M 14832,14552 L 15022,14552 15022,15138 14832,15138 14832,14552 Z"/>
             <path fill="rgb(231,176,181)" stroke="none" d="M 14832,14552 L 15022,14552 15022,15138 14832,15138 14832,14552 Z M 14833,14558 L 15021,14558 15021,15132 14833,15132 14833,14558 Z"/>
             <path fill="rgb(232,177,182)" stroke="none" d="M 14833,14558 L 15021,14558 15021,15132 14833,15132 14833,14558 Z M 14835,14563 L 15019,14563 15019,15127 14835,15127 14835,14563 Z"/>
             <path fill="rgb(232,178,183)" stroke="none" d="M 14835,14563 L 15019,14563 15019,15127 14835,15127 14835,14563 Z M 14837,14568 L 15017,14568 15017,15122 14837,15122 14837,14568 Z"/>
             <path fill="rgb(232,179,184)" stroke="none" d="M 14837,14568 L 15017,14568 15017,15122 14837,15122 14837,14568 Z M 14839,14573 L 15015,14573 15015,15117 14839,15117 14839,14573 Z"/>
             <path fill="rgb(232,180,185)" stroke="none" d="M 14839,14573 L 15015,14573 15015,15117 14839,15117 14839,14573 Z M 14840,14579 L 15014,14579 15014,15111 14840,15111 14840,14579 Z"/>
             <path fill="rgb(233,181,186)" stroke="none" d="M 14840,14579 L 15014,14579 15014,15111 14840,15111 14840,14579 Z M 14842,14584 L 15012,14584 15012,15106 14842,15106 14842,14584 Z"/>
             <path fill="rgb(233,182,187)" stroke="none" d="M 14842,14584 L 15012,14584 15012,15106 14842,15106 14842,14584 Z M 14844,14589 L 15010,14589 15010,15101 14844,15101 14844,14589 Z"/>
             <path fill="rgb(233,183,188)" stroke="none" d="M 14844,14589 L 15010,14589 15010,15101 14844,15101 14844,14589 Z M 14845,14594 L 15009,14594 15009,15096 14845,15096 14845,14594 Z"/>
             <path fill="rgb(234,184,189)" stroke="none" d="M 14845,14594 L 15009,14594 15009,15096 14845,15096 14845,14594 Z M 14847,14600 L 15007,14600 15007,15090 14847,15090 14847,14600 Z"/>
             <path fill="rgb(234,185,190)" stroke="none" d="M 14847,14600 L 15007,14600 15007,15090 14847,15090 14847,14600 Z M 14849,14605 L 15005,14605 15005,15085 14849,15085 14849,14605 Z"/>
             <path fill="rgb(234,186,191)" stroke="none" d="M 14849,14605 L 15005,14605 15005,15085 14849,15085 14849,14605 Z M 14850,14610 L 15004,14610 15004,15080 14850,15080 14850,14610 Z"/>
             <path fill="rgb(235,187,192)" stroke="none" d="M 14850,14610 L 15004,14610 15004,15080 14850,15080 14850,14610 Z M 14852,14615 L 15002,14615 15002,15075 14852,15075 14852,14615 Z"/>
             <path fill="rgb(235,188,192)" stroke="none" d="M 14852,14615 L 15002,14615 15002,15075 14852,15075 14852,14615 Z M 14854,14620 L 15000,14620 15000,15070 14854,15070 14854,14620 Z"/>
             <path fill="rgb(235,189,193)" stroke="none" d="M 14854,14620 L 15000,14620 15000,15070 14854,15070 14854,14620 Z M 14856,14626 L 14998,14626 14998,15064 14856,15064 14856,14626 Z"/>
             <path fill="rgb(235,190,194)" stroke="none" d="M 14856,14626 L 14998,14626 14998,15064 14856,15064 14856,14626 Z M 14857,14631 L 14997,14631 14997,15059 14857,15059 14857,14631 Z"/>
             <path fill="rgb(236,191,195)" stroke="none" d="M 14857,14631 L 14997,14631 14997,15059 14857,15059 14857,14631 Z M 14859,14636 L 14995,14636 14995,15054 14859,15054 14859,14636 Z"/>
             <path fill="rgb(236,192,196)" stroke="none" d="M 14859,14636 L 14995,14636 14995,15054 14859,15054 14859,14636 Z M 14861,14641 L 14993,14641 14993,15049 14861,15049 14861,14641 Z"/>
             <path fill="rgb(236,193,197)" stroke="none" d="M 14861,14641 L 14993,14641 14993,15049 14861,15049 14861,14641 Z M 14862,14647 L 14992,14647 14992,15043 14862,15043 14862,14647 Z"/>
             <path fill="rgb(237,194,198)" stroke="none" d="M 14862,14647 L 14992,14647 14992,15043 14862,15043 14862,14647 Z M 14864,14652 L 14990,14652 14990,15038 14864,15038 14864,14652 Z"/>
             <path fill="rgb(237,195,199)" stroke="none" d="M 14864,14652 L 14990,14652 14990,15038 14864,15038 14864,14652 Z M 14866,14657 L 14988,14657 14988,15033 14866,15033 14866,14657 Z"/>
             <path fill="rgb(237,196,200)" stroke="none" d="M 14866,14657 L 14988,14657 14988,15033 14866,15033 14866,14657 Z M 14868,14662 L 14986,14662 14986,15028 14868,15028 14868,14662 Z"/>
             <path fill="rgb(237,197,201)" stroke="none" d="M 14868,14662 L 14986,14662 14986,15028 14868,15028 14868,14662 Z M 14869,14668 L 14985,14668 14985,15022 14869,15022 14869,14668 Z"/>
             <path fill="rgb(238,198,202)" stroke="none" d="M 14869,14668 L 14985,14668 14985,15022 14869,15022 14869,14668 Z M 14871,14673 L 14983,14673 14983,15017 14871,15017 14871,14673 Z"/>
             <path fill="rgb(238,199,203)" stroke="none" d="M 14871,14673 L 14983,14673 14983,15017 14871,15017 14871,14673 Z M 14873,14678 L 14981,14678 14981,15012 14873,15012 14873,14678 Z"/>
             <path fill="rgb(238,200,204)" stroke="none" d="M 14873,14678 L 14981,14678 14981,15012 14873,15012 14873,14678 Z M 14874,14683 L 14980,14683 14980,15007 14874,15007 14874,14683 Z"/>
             <path fill="rgb(239,201,205)" stroke="none" d="M 14874,14683 L 14980,14683 14980,15007 14874,15007 14874,14683 Z M 14876,14688 L 14978,14688 14978,15001 14876,15001 14876,14688 Z"/>
             <path fill="rgb(239,202,206)" stroke="none" d="M 14876,14688 L 14978,14688 14978,15001 14876,15001 14876,14688 Z M 14878,14694 L 14976,14694 14976,14996 14878,14996 14878,14694 Z"/>
             <path fill="rgb(239,203,206)" stroke="none" d="M 14878,14694 L 14976,14694 14976,14996 14878,14996 14878,14694 Z M 14880,14699 L 14974,14699 14974,14991 14880,14991 14880,14699 Z"/>
             <path fill="rgb(239,204,207)" stroke="none" d="M 14880,14699 L 14974,14699 14974,14991 14880,14991 14880,14699 Z M 14881,14704 L 14973,14704 14973,14986 14881,14986 14881,14704 Z"/>
             <path fill="rgb(240,205,208)" stroke="none" d="M 14881,14704 L 14973,14704 14973,14986 14881,14986 14881,14704 Z M 14883,14709 L 14971,14709 14971,14981 14883,14981 14883,14709 Z"/>
             <path fill="rgb(240,206,209)" stroke="none" d="M 14883,14709 L 14971,14709 14971,14981 14883,14981 14883,14709 Z M 14885,14715 L 14969,14715 14969,14975 14885,14975 14885,14715 Z"/>
             <path fill="rgb(240,207,210)" stroke="none" d="M 14885,14715 L 14969,14715 14969,14975 14885,14975 14885,14715 Z M 14886,14720 L 14968,14720 14968,14970 14886,14970 14886,14720 Z"/>
             <path fill="rgb(241,208,211)" stroke="none" d="M 14886,14720 L 14968,14720 14968,14970 14886,14970 14886,14720 Z M 14888,14725 L 14966,14725 14966,14965 14888,14965 14888,14725 Z"/>
             <path fill="rgb(241,209,212)" stroke="none" d="M 14888,14725 L 14966,14725 14966,14965 14888,14965 14888,14725 Z M 14890,14730 L 14964,14730 14964,14960 14890,14960 14890,14730 Z"/>
             <path fill="rgb(241,210,213)" stroke="none" d="M 14890,14730 L 14964,14730 14964,14960 14890,14960 14890,14730 Z M 14892,14736 L 14962,14736 14962,14954 14892,14954 14892,14736 Z"/>
             <path fill="rgb(241,211,214)" stroke="none" d="M 14892,14736 L 14962,14736 14962,14954 14892,14954 14892,14736 Z M 14893,14741 L 14961,14741 14961,14949 14893,14949 14893,14741 Z"/>
             <path fill="rgb(242,212,215)" stroke="none" d="M 14893,14741 L 14961,14741 14961,14949 14893,14949 14893,14741 Z M 14895,14746 L 14959,14746 14959,14944 14895,14944 14895,14746 Z"/>
             <path fill="rgb(242,213,216)" stroke="none" d="M 14895,14746 L 14959,14746 14959,14944 14895,14944 14895,14746 Z M 14897,14751 L 14957,14751 14957,14939 14897,14939 14897,14751 Z"/>
             <path fill="rgb(242,214,217)" stroke="none" d="M 14897,14751 L 14957,14751 14957,14939 14897,14939 14897,14751 Z M 14898,14757 L 14956,14757 14956,14933 14898,14933 14898,14757 Z"/>
             <path fill="rgb(243,215,218)" stroke="none" d="M 14898,14757 L 14956,14757 14956,14933 14898,14933 14898,14757 Z M 14900,14762 L 14954,14762 14954,14928 14900,14928 14900,14762 Z"/>
             <path fill="rgb(243,216,219)" stroke="none" d="M 14900,14762 L 14954,14762 14954,14928 14900,14928 14900,14762 Z M 14902,14767 L 14952,14767 14952,14923 14902,14923 14902,14767 Z"/>
             <path fill="rgb(243,217,220)" stroke="none" d="M 14902,14767 L 14952,14767 14952,14923 14902,14923 14902,14767 Z M 14904,14772 L 14950,14772 14950,14918 14904,14918 14904,14772 Z"/>
             <path fill="rgb(243,218,220)" stroke="none" d="M 14904,14772 L 14950,14772 14950,14918 14904,14918 14904,14772 Z M 14905,14777 L 14949,14777 14949,14913 14905,14913 14905,14777 Z"/>
             <path fill="rgb(244,219,221)" stroke="none" d="M 14905,14777 L 14949,14777 14949,14913 14905,14913 14905,14777 Z M 14907,14783 L 14947,14783 14947,14907 14907,14907 14907,14783 Z"/>
             <path fill="rgb(244,220,222)" stroke="none" d="M 14907,14783 L 14947,14783 14947,14907 14907,14907 14907,14783 Z M 14909,14788 L 14945,14788 14945,14902 14909,14902 14909,14788 Z"/>
             <path fill="rgb(244,221,223)" stroke="none" d="M 14909,14788 L 14945,14788 14945,14902 14909,14902 14909,14788 Z M 14910,14793 L 14944,14793 14944,14897 14910,14897 14910,14793 Z"/>
             <path fill="rgb(245,222,224)" stroke="none" d="M 14910,14793 L 14944,14793 14944,14897 14910,14897 14910,14793 Z M 14912,14798 L 14942,14798 14942,14892 14912,14892 14912,14798 Z"/>
             <path fill="rgb(245,223,225)" stroke="none" d="M 14912,14798 L 14942,14798 14942,14892 14912,14892 14912,14798 Z M 14914,14804 L 14940,14804 14940,14886 14914,14886 14914,14804 Z"/>
             <path fill="rgb(245,224,226)" stroke="none" d="M 14914,14804 L 14940,14804 14940,14886 14914,14886 14914,14804 Z M 14916,14809 L 14938,14809 14938,14881 14916,14881 14916,14809 Z"/>
             <path fill="rgb(245,225,227)" stroke="none" d="M 14916,14809 L 14938,14809 14938,14881 14916,14881 14916,14809 Z M 14917,14814 L 14937,14814 14937,14876 14917,14876 14917,14814 Z"/>
             <path fill="rgb(246,226,228)" stroke="none" d="M 14917,14814 L 14937,14814 14937,14876 14917,14876 14917,14814 Z M 14919,14819 L 14935,14819 14935,14871 14919,14871 14919,14819 Z"/>
             <path fill="rgb(246,227,229)" stroke="none" d="M 14919,14819 L 14935,14819 14935,14871 14919,14871 14919,14819 Z M 14921,14825 L 14933,14825 14933,14865 14921,14865 14921,14825 Z"/>
             <path fill="rgb(246,228,230)" stroke="none" d="M 14921,14825 L 14933,14825 14933,14865 14921,14865 14921,14825 Z M 14922,14830 L 14932,14830 14932,14860 14922,14860 14922,14830 Z"/>
             <path fill="rgb(247,229,231)" stroke="none" d="M 14922,14830 L 14932,14830 14932,14860 14922,14860 14922,14830 Z M 14924,14835 L 14930,14835 14930,14855 14924,14855 14924,14835 Z"/>
             <path fill="rgb(247,230,232)" stroke="none" d="M 14924,14835 L 14930,14835 14930,14855 14924,14855 14924,14835 Z M 14926,14840 L 14928,14840 14928,14850 14926,14850 14926,14840 Z"/>
             <path fill="rgb(248,232,234)" stroke="none" d="M 14926,14840 L 14928,14840 14928,14850 14926,14850 14926,14840 Z"/>
            </g>
           </pattern>
          </defs>
          <path style="fill:url(#pattern2)" d="M 14837,15504 L 14837,14741 15142,14565 15142,15328 14837,15504 Z"/>
         </g>
         <path fill="none" stroke="rgb(255,255,255)" stroke-width="40" stroke-linejoin="round" d="M 14837,15504 L 14837,14741 15142,14565 15142,15328 14837,15504 Z"/>
        </g>
       </g>
       <g class="com.sun.star.drawing.ClosedBezierShape">
        <g id="id27">
         <rect class="BoundingBox" stroke="none" fill="none" x="14005" y="13804" width="1158" height="1721"/>
         <path fill="none" stroke="rgb(0,0,0)" stroke-width="40" stroke-linejoin="round" d="M 14228,14154 C 14330,13509 14939,13920 14939,14448 L 15142,14565 15142,15328 14837,15504 14025,15034 14025,14272 14228,14154 Z"/>
        </g>
       </g>
       <g class="com.sun.star.drawing.ClosedBezierShape">
        <g id="id28">
         <rect class="BoundingBox" stroke="none" fill="none" x="14435" y="14082" width="243" height="228"/>
         <path fill="none" stroke="rgb(128,128,128)" stroke-width="40" stroke-linejoin="round" d="M 14455,14163 C 14504,14013 14643,14173 14657,14289 L 14455,14163 Z"/>
        </g>
       </g>
      </g>
     </g>
    </g>
   </g>
  </g>
 </g>
</svg>