<?xml version="1.0" encoding="UTF-8"?>
<!DOCTYPE svg PUBLIC "-//W3C//DTD SVG 1.1//EN" "http://www.w3.org/Graphics/SVG/1.1/DTD/svg11.dtd">
<svg version="1.2" width="69.31mm" height="48.67mm" viewBox="-585 8707 6931 4867" preserveAspectRatio="xMidYMid" fill-rule="evenodd" stroke-width="28.222" stroke-linejoin="round" xmlns="http://www.w3.org/2000/svg" xmlns:ooo="http://xml.openoffice.org/svg/export" xmlns:xlink="http://www.w3.org/1999/xlink" xmlns:presentation="http://sun.com/xmlns/staroffice/presentation" xmlns:smil="http://www.w3.org/2001/SMIL20/" xmlns:anim="urn:oasis:names:tc:opendocument:xmlns:animation:1.0" xml:space="preserve">
 <defs class="ClipPathGroup">
  <clipPath id="presentation_clip_path" clipPathUnits="userSpaceOnUse">
   <rect x="-585" y="8707" width="6931" height="4867"/>
  </clipPath>
 </defs>
 <defs class="TextShapeIndex">
  <g ooo:slide="id1" ooo:id-list="id3 id4 id5 id6 id7 id8 id9 id10 id11 id12 id13 id14 id15 id16 id17 id18 id19 id20 id21 id22 id23 id24 id25 id26 id27 id28"/>
 </defs>
 <defs class="EmbeddedBulletChars">
  <g id="bullet-char-template(57356)" transform="scale(0.00048828125,-0.00048828125)">
   <path d="M 580,1141 L 1163,571 580,0 -4,571 580,1141 Z"/>
  </g>
  <g id="bullet-char-template(57354)" transform="scale(0.00048828125,-0.00048828125)">
   <path d="M 8,1128 L 1137,1128 1137,0 8,0 8,1128 Z"/>
  </g>
  <g id="bullet-char-template(10146)" transform="scale(0.00048828125,-0.00048828125)">
   <path d="M 174,0 L 602,739 174,1481 1456,739 174,0 Z M 1358,739 L 309,1346 659,739 1358,739 Z"/>
  </g>
  <g id="bullet-char-template(10132)" transform="scale(0.00048828125,-0.00048828125)">
   <path d="M 2015,739 L 1276,0 717,0 1260,543 174,543 174,936 1260,936 717,1481 1274,1481 2015,739 Z"/>
  </g>
  <g id="bullet-char-template(10007)" transform="scale(0.00048828125,-0.00048828125)">
   <path d="M 0,-2 C -7,14 -16,27 -25,37 L 356,567 C 262,823 215,952 215,954 215,979 228,992 255,992 264,992 276,990 289,987 310,991 331,999 354,1012 L 381,999 492,748 772,1049 836,1024 860,1049 C 881,1039 901,1025 922,1006 886,937 835,863 770,784 769,783 710,716 594,584 L 774,223 C 774,196 753,168 711,139 L 727,119 C 717,90 699,76 672,76 641,76 570,178 457,381 L 164,-76 C 142,-110 111,-127 72,-127 30,-127 9,-110 8,-76 1,-67 -2,-52 -2,-32 -2,-23 -1,-13 0,-2 Z"/>
  </g>
  <g id="bullet-char-template(10004)" transform="scale(0.00048828125,-0.00048828125)">
   <path d="M 285,-33 C 182,-33 111,30 74,156 52,228 41,333 41,471 41,549 55,616 82,672 116,743 169,778 240,778 293,778 328,747 346,684 L 369,508 C 377,444 397,411 428,410 L 1163,1116 C 1174,1127 1196,1133 1229,1133 1271,1133 1292,1118 1292,1087 L 1292,965 C 1292,929 1282,901 1262,881 L 442,47 C 390,-6 338,-33 285,-33 Z"/>
  </g>
  <g id="bullet-char-template(9679)" transform="scale(0.00048828125,-0.00048828125)">
   <path d="M 813,0 C 632,0 489,54 383,161 276,268 223,411 223,592 223,773 276,916 383,1023 489,1130 632,1184 813,1184 992,1184 1136,1130 1245,1023 1353,916 1407,772 1407,592 1407,412 1353,268 1245,161 1136,54 992,0 813,0 Z"/>
  </g>
  <g id="bullet-char-template(8226)" transform="scale(0.00048828125,-0.00048828125)">
   <path d="M 346,457 C 273,457 209,483 155,535 101,586 74,649 74,723 74,796 101,859 155,911 209,963 273,989 346,989 419,989 480,963 531,910 582,859 608,796 608,723 608,648 583,586 532,535 482,483 420,457 346,457 Z"/>
  </g>
  <g id="bullet-char-template(8211)" transform="scale(0.00048828125,-0.00048828125)">
   <path d="M -4,459 L 1135,459 1135,606 -4,606 -4,459 Z"/>
  </g>
 </defs>
 <defs class="TextEmbeddedBitmaps"/>
 <g class="SlideGroup">
  <g>
   <g id="id1" class="Slide" clip-path="url(#presentation_clip_path)">
    <g class="Page">
     <g class="Group">
      <g class="Group">
       <g class="com.sun.star.drawing.ClosedBezierShape">
        <g id="id3">
         <rect class="BoundingBox" stroke="none" fill="none" x="3175" y="11500" width="3173" height="2056"/>
         <path fill="rgb(221,221,221)" stroke="none" d="M 3179,13554 C 3442,13554 6346,12278 6346,11889 6346,11501 5938,11501 5674,11501 5674,11667 3083,12333 3179,13554 Z"/>
         <path fill="none" stroke="rgb(221,221,221)" d="M 3179,13554 C 3442,13554 6346,12278 6346,11889 6346,11501 5938,11501 5674,11501 5674,11667 3083,12333 3179,13554 Z"/>
        </g>
       </g>
       <g class="Group">
        <g class="com.sun.star.drawing.PolyPolygonShape">
         <g id="id4">
          <rect class="BoundingBox" stroke="none" fill="none" x="-393" y="10371" width="3400" height="3092"/>
          <g>
           <defs>
            <linearGradient id="gradient1" x1="-373" y1="11916" x2="2986" y2="11916" gradientUnits="userSpaceOnUse">
             <stop offset="0.1" style="stop-color:rgb(179,179,179)"/>
             <stop offset="1" style="stop-color:rgb(229,229,229)"/>
            </linearGradient>
           </defs>
           <path style="fill:url(#gradient1)" d="M -373,11501 L -373,10391 2986,12333 2986,13442 -373,11501 Z"/>
          </g>
          <path fill="none" stroke="rgb(255,255,255)" stroke-width="40" stroke-linejoin="round" d="M -373,11501 L -373,10391 2986,12333 2986,13442 -373,11501 Z"/>
         </g>
        </g>
        <g class="com.sun.star.drawing.PolyPolygonShape">
         <g id="id5">
          <rect class="BoundingBox" stroke="none" fill="none" x="2966" y="10649" width="2920" height="2815"/>
          <g>
           <defs>
            <pattern id="pattern1" x="2986" y="10669" width="2880" height="2775" patternUnits="userSpaceOnUse">
             <g transform="translate(-2986,-10669)">
              <path fill="rgb(179,179,179)" stroke="none" d="M 2985,10668 L 5866,10668 5866,13444 2985,13444 2985,10668 Z M 2437,10141 L 5260,10141 5260,12861 2437,12861 2437,10141 Z"/>
              <path fill="rgb(180,180,180)" stroke="none" d="M 2437,10141 L 5260,10141 5260,12861 2437,12861 2437,10141 Z M 2466,10169 L 5231,10169 5231,12833 2466,12833 2466,10169 Z"/>
              <path fill="rgb(181,181,181)" stroke="none" d="M 2466,10169 L 5231,10169 5231,12833 2466,12833 2466,10169 Z M 2495,10197 L 5202,10197 5202,12805 2495,12805 2495,10197 Z"/>
              <path fill="rgb(182,182,182)" stroke="none" d="M 2495,10197 L 5202,10197 5202,12805 2495,12805 2495,10197 Z M 2524,10225 L 5173,10225 5173,12777 2524,12777 2524,10225 Z"/>
              <path fill="rgb(183,183,183)" stroke="none" d="M 2524,10225 L 5173,10225 5173,12777 2524,12777 2524,10225 Z M 2553,10252 L 5144,10252 5144,12750 2553,12750 2553,10252 Z"/>
              <path fill="rgb(184,184,184)" stroke="none" d="M 2553,10252 L 5144,10252 5144,12750 2553,12750 2553,10252 Z M 2581,10280 L 5116,10280 5116,12722 2581,12722 2581,10280 Z"/>
              <path fill="rgb(185,185,185)" stroke="none" d="M 2581,10280 L 5116,10280 5116,12722 2581,12722 2581,10280 Z M 2610,10308 L 5087,10308 5087,12694 2610,12694 2610,10308 Z"/>
              <path fill="rgb(186,186,186)" stroke="none" d="M 2610,10308 L 5087,10308 5087,12694 2610,12694 2610,10308 Z M 2639,10336 L 5058,10336 5058,12666 2639,12666 2639,10336 Z"/>
              <path fill="rgb(187,187,187)" stroke="none" d="M 2639,10336 L 5058,10336 5058,12666 2639,12666 2639,10336 Z M 2668,10363 L 5029,10363 5029,12639 2668,12639 2668,10363 Z"/>
              <path fill="rgb(188,188,188)" stroke="none" d="M 2668,10363 L 5029,10363 5029,12639 2668,12639 2668,10363 Z M 2697,10391 L 5000,10391 5000,12611 2697,12611 2697,10391 Z"/>
              <path fill="rgb(189,189,189)" stroke="none" d="M 2697,10391 L 5000,10391 5000,12611 2697,12611 2697,10391 Z M 2726,10419 L 4971,10419 4971,12583 2726,12583 2726,10419 Z"/>
              <path fill="rgb(190,190,190)" stroke="none" d="M 2726,10419 L 4971,10419 4971,12583 2726,12583 2726,10419 Z M 2754,10447 L 4943,10447 4943,12555 2754,12555 2754,10447 Z"/>
              <path fill="rgb(191,191,191)" stroke="none" d="M 2754,10447 L 4943,10447 4943,12555 2754,12555 2754,10447 Z M 2783,10475 L 4914,10475 4914,12527 2783,12527 2783,10475 Z"/>
              <path fill="rgb(192,192,192)" stroke="none" d="M 2783,10475 L 4914,10475 4914,12527 2783,12527 2783,10475 Z M 2812,10502 L 4885,10502 4885,12500 2812,12500 2812,10502 Z"/>
              <path fill="rgb(193,193,193)" stroke="none" d="M 2812,10502 L 4885,10502 4885,12500 2812,12500 2812,10502 Z M 2841,10530 L 4856,10530 4856,12472 2841,12472 2841,10530 Z"/>
              <path fill="rgb(194,194,194)" stroke="none" d="M 2841,10530 L 4856,10530 4856,12472 2841,12472 2841,10530 Z M 2870,10558 L 4827,10558 4827,12444 2870,12444 2870,10558 Z"/>
              <path fill="rgb(195,195,195)" stroke="none" d="M 2870,10558 L 4827,10558 4827,12444 2870,12444 2870,10558 Z M 2898,10586 L 4799,10586 4799,12416 2898,12416 2898,10586 Z"/>
              <path fill="rgb(196,196,196)" stroke="none" d="M 2898,10586 L 4799,10586 4799,12416 2898,12416 2898,10586 Z M 2927,10613 L 4770,10613 4770,12389 2927,12389 2927,10613 Z"/>
              <path fill="rgb(197,197,197)" stroke="none" d="M 2927,10613 L 4770,10613 4770,12389 2927,12389 2927,10613 Z M 2956,10641 L 4741,10641 4741,12361 2956,12361 2956,10641 Z"/>
              <path fill="rgb(198,198,198)" stroke="none" d="M 2956,10641 L 4741,10641 4741,12361 2956,12361 2956,10641 Z M 2984,10668 L 4712,10668 4712,12333 2984,12333 2984,10668 Z"/>
              <path fill="rgb(199,199,199)" stroke="none" d="M 2984,10668 L 4712,10668 4712,12333 2984,12333 2984,10668 Z M 3013,10696 L 4683,10696 4683,12305 3013,12305 3013,10696 Z"/>
              <path fill="rgb(200,200,200)" stroke="none" d="M 3013,10696 L 4683,10696 4683,12305 3013,12305 3013,10696 Z M 3042,10723 L 4654,10723 4654,12278 3042,12278 3042,10723 Z"/>
              <path fill="rgb(201,201,201)" stroke="none" d="M 3042,10723 L 4654,10723 4654,12278 3042,12278 3042,10723 Z M 3070,10751 L 4626,10751 4626,12250 3070,12250 3070,10751 Z"/>
              <path fill="rgb(202,202,202)" stroke="none" d="M 3070,10751 L 4626,10751 4626,12250 3070,12250 3070,10751 Z M 3099,10779 L 4597,10779 4597,12222 3099,12222 3099,10779 Z"/>
              <path fill="rgb(203,203,203)" stroke="none" d="M 3099,10779 L 4597,10779 4597,12222 3099,12222 3099,10779 Z M 3128,10807 L 4568,10807 4568,12194 3128,12194 3128,10807 Z"/>
              <path fill="rgb(204,204,204)" stroke="none" d="M 3128,10807 L 4568,10807 4568,12194 3128,12194 3128,10807 Z M 3157,10835 L 4539,10835 4539,12166 3157,12166 3157,10835 Z"/>
              <path fill="rgb(205,205,205)" stroke="none" d="M 3157,10835 L 4539,10835 4539,12166 3157,12166 3157,10835 Z M 3186,10862 L 4510,10862 4510,12139 3186,12139 3186,10862 Z"/>
              <path fill="rgb(206,206,206)" stroke="none" d="M 3186,10862 L 4510,10862 4510,12139 3186,12139 3186,10862 Z M 3214,10890 L 4482,10890 4482,12111 3214,12111 3214,10890 Z"/>
              <path fill="rgb(207,207,207)" stroke="none" d="M 3214,10890 L 4482,10890 4482,12111 3214,12111 3214,10890 Z M 3243,10918 L 4453,10918 4453,12083 3243,12083 3243,10918 Z"/>
              <path fill="rgb(208,208,208)" stroke="none" d="M 3243,10918 L 4453,10918 4453,12083 3243,12083 3243,10918 Z M 3272,10946 L 4424,10946 4424,12055 3272,12055 3272,10946 Z"/>
              <path fill="rgb(209,209,209)" stroke="none" d="M 3272,10946 L 4424,10946 4424,12055 3272,12055 3272,10946 Z M 3301,10973 L 4395,10973 4395,12028 3301,12028 3301,10973 Z"/>
              <path fill="rgb(210,210,210)" stroke="none" d="M 3301,10973 L 4395,10973 4395,12028 3301,12028 3301,10973 Z M 3330,11001 L 4366,11001 4366,12000 3330,12000 3330,11001 Z"/>
              <path fill="rgb(211,211,211)" stroke="none" d="M 3330,11001 L 4366,11001 4366,12000 3330,12000 3330,11001 Z M 3359,11029 L 4337,11029 4337,11972 3359,11972 3359,11029 Z"/>
              <path fill="rgb(212,212,212)" stroke="none" d="M 3359,11029 L 4337,11029 4337,11972 3359,11972 3359,11029 Z M 3387,11057 L 4309,11057 4309,11944 3387,11944 3387,11057 Z"/>
              <path fill="rgb(213,213,213)" stroke="none" d="M 3387,11057 L 4309,11057 4309,11944 3387,11944 3387,11057 Z M 3416,11084 L 4280,11084 4280,11917 3416,11917 3416,11084 Z"/>
              <path fill="rgb(214,214,214)" stroke="none" d="M 3416,11084 L 4280,11084 4280,11917 3416,11917 3416,11084 Z M 3445,11112 L 4251,11112 4251,11889 3445,11889 3445,11112 Z"/>
              <path fill="rgb(215,215,215)" stroke="none" d="M 3445,11112 L 4251,11112 4251,11889 3445,11889 3445,11112 Z M 3474,11140 L 4222,11140 4222,11861 3474,11861 3474,11140 Z"/>
              <path fill="rgb(216,216,216)" stroke="none" d="M 3474,11140 L 4222,11140 4222,11861 3474,11861 3474,11140 Z M 3503,11168 L 4193,11168 4193,11833 3503,11833 3503,11168 Z"/>
              <path fill="rgb(217,217,217)" stroke="none" d="M 3503,11168 L 4193,11168 4193,11833 3503,11833 3503,11168 Z M 3531,11196 L 4165,11196 4165,11805 3531,11805 3531,11196 Z"/>
              <path fill="rgb(218,218,218)" stroke="none" d="M 3531,11196 L 4165,11196 4165,11805 3531,11805 3531,11196 Z M 3560,11223 L 4136,11223 4136,11778 3560,11778 3560,11223 Z"/>
              <path fill="rgb(219,219,219)" stroke="none" d="M 3560,11223 L 4136,11223 4136,11778 3560,11778 3560,11223 Z M 3589,11251 L 4107,11251 4107,11750 3589,11750 3589,11251 Z"/>
              <path fill="rgb(220,220,220)" stroke="none" d="M 3589,11251 L 4107,11251 4107,11750 3589,11750 3589,11251 Z M 3618,11279 L 4078,11279 4078,11722 3618,11722 3618,11279 Z"/>
              <path fill="rgb(221,221,221)" stroke="none" d="M 3618,11279 L 4078,11279 4078,11722 3618,11722 3618,11279 Z M 3647,11307 L 4049,11307 4049,11694 3647,11694 3647,11307 Z"/>
              <path fill="rgb(222,222,222)" stroke="none" d="M 3647,11307 L 4049,11307 4049,11694 3647,11694 3647,11307 Z M 3676,11334 L 4020,11334 4020,11667 3676,11667 3676,11334 Z"/>
              <path fill="rgb(223,223,223)" stroke="none" d="M 3676,11334 L 4020,11334 4020,11667 3676,11667 3676,11334 Z M 3704,11362 L 3992,11362 3992,11639 3704,11639 3704,11362 Z"/>
              <path fill="rgb(224,224,224)" stroke="none" d="M 3704,11362 L 3992,11362 3992,11639 3704,11639 3704,11362 Z M 3733,11390 L 3963,11390 3963,11611 3733,11611 3733,11390 Z"/>
              <path fill="rgb(225,225,225)" stroke="none" d="M 3733,11390 L 3963,11390 3963,11611 3733,11611 3733,11390 Z M 3762,11418 L 3934,11418 3934,11583 3762,11583 3762,11418 Z"/>
              <path fill="rgb(226,226,226)" stroke="none" d="M 3762,11418 L 3934,11418 3934,11583 3762,11583 3762,11418 Z M 3791,11445 L 3905,11445 3905,11556 3791,11556 3791,11445 Z"/>
              <path fill="rgb(227,227,227)" stroke="none" d="M 3791,11445 L 3905,11445 3905,11556 3791,11556 3791,11445 Z M 3820,11473 L 3876,11473 3876,11528 3820,11528 3820,11473 Z"/>
              <path fill="rgb(229,229,229)" stroke="none" d="M 3820,11473 L 3876,11473 3876,11528 3820,11528 3820,11473 Z"/>
             </g>
            </pattern>
           </defs>
           <path style="fill:url(#pattern1)" d="M 2986,13443 L 2986,12333 5865,10669 5865,11779 2986,13443 Z"/>
          </g>
          <path fill="none" stroke="rgb(255,255,255)" stroke-width="40" stroke-linejoin="round" d="M 2986,13443 L 2986,12333 5865,10669 5865,11779 2986,13443 Z"/>
         </g>
        </g>
        <g class="com.sun.star.drawing.PolyPolygonShape">
         <g id="id6">
          <rect class="BoundingBox" stroke="none" fill="none" x="-393" y="8707" width="6280" height="3648"/>
          <g>
           <defs>
            <linearGradient id="gradient2" x1="2746" y1="8727" x2="2746" y2="12333" gradientUnits="userSpaceOnUse">
             <stop offset="0.1" style="stop-color:rgb(179,179,179)"/>
             <stop offset="1" style="stop-color:rgb(229,229,229)"/>
            </linearGradient>
           </defs>
           <path style="fill:url(#gradient2)" d="M 2986,12333 L -373,10391 2506,8727 5866,10669 2986,12333 Z"/>
          </g>
          <path fill="none" stroke="rgb(255,255,255)" stroke-width="40" stroke-linejoin="round" d="M 2986,12333 L -373,10391 2506,8727 5866,10669 2986,12333 Z"/>
         </g>
        </g>
        <g class="com.sun.star.drawing.LineShape">
         <g id="id7">
          <rect class="BoundingBox" stroke="none" fill="none" x="759" y="11259" width="41" height="707"/>
          <path fill="none" stroke="rgb(127,127,127)" stroke-width="40" stroke-linejoin="round" d="M 779,11279 L 779,11945"/>
         </g>
        </g>
        <g class="com.sun.star.drawing.LineShape">
         <g id="id8">
          <rect class="BoundingBox" stroke="none" fill="none" x="1334" y="11792" width="1578" height="929"/>
          <path fill="none" stroke="rgb(255,255,255)" stroke-width="40" stroke-linejoin="round" d="M 2891,12700 L 1355,11812"/>
         </g>
        </g>
        <g class="com.sun.star.drawing.LineShape">
         <g id="id9">
          <rect class="BoundingBox" stroke="none" fill="none" x="1326" y="11592" width="41" height="263"/>
          <path fill="none" stroke="rgb(255,255,255)" stroke-width="40" stroke-linejoin="round" d="M 1346,11612 L 1346,11834"/>
         </g>
        </g>
        <g class="com.sun.star.drawing.LineShape">
         <g id="id10">
          <rect class="BoundingBox" stroke="none" fill="none" x="2862" y="12480" width="41" height="263"/>
          <path fill="none" stroke="rgb(0,0,0)" stroke-width="40" stroke-linejoin="round" d="M 2882,12500 L 2882,12722"/>
         </g>
        </g>
        <g class="com.sun.star.drawing.LineShape">
         <g id="id11">
          <rect class="BoundingBox" stroke="none" fill="none" x="1325" y="11592" width="1578" height="929"/>
          <path fill="none" stroke="rgb(0,0,0)" stroke-width="40" stroke-linejoin="round" d="M 2882,12500 L 1346,11612"/>
         </g>
        </g>
        <g class="com.sun.star.drawing.PolyPolygonShape">
         <g id="id12">
          <rect class="BoundingBox" stroke="none" fill="none" x="950" y="11370" width="234" height="374"/>
          <path fill="rgb(57,181,74)" stroke="none" d="M 971,11612 L 971,11390 1163,11501 1163,11723 971,11612 Z"/>
          <path fill="none" stroke="rgb(0,0,0)" stroke-width="40" stroke-linejoin="round" d="M 971,11612 L 971,11390 1163,11501 1163,11723 971,11612 Z"/>
         </g>
        </g>
        <g class="com.sun.star.drawing.LineShape">
         <g id="id13">
          <rect class="BoundingBox" stroke="none" fill="none" x="567" y="11148" width="41" height="707"/>
          <path fill="none" stroke="rgb(127,127,127)" stroke-width="40" stroke-linejoin="round" d="M 587,11168 L 587,11834"/>
         </g>
        </g>
        <g class="com.sun.star.drawing.LineShape">
         <g id="id14">
          <rect class="BoundingBox" stroke="none" fill="none" x="375" y="11037" width="41" height="707"/>
          <path fill="none" stroke="rgb(127,127,127)" stroke-width="40" stroke-linejoin="round" d="M 395,11057 L 395,11723"/>
         </g>
        </g>
        <g class="com.sun.star.drawing.LineShape">
         <g id="id15">
          <rect class="BoundingBox" stroke="none" fill="none" x="183" y="10926" width="41" height="707"/>
          <path fill="none" stroke="rgb(127,127,127)" stroke-width="40" stroke-linejoin="round" d="M 203,10946 L 203,11612"/>
         </g>
        </g>
        <g class="com.sun.star.drawing.LineShape">
         <g id="id16">
          <rect class="BoundingBox" stroke="none" fill="none" x="-9" y="10815" width="41" height="707"/>
          <path fill="none" stroke="rgb(127,127,127)" stroke-width="40" stroke-linejoin="round" d="M 11,10835 L 11,11501"/>
         </g>
        </g>
        <g class="com.sun.star.drawing.LineShape">
         <g id="id17">
          <rect class="BoundingBox" stroke="none" fill="none" x="-201" y="10704" width="41" height="707"/>
          <path fill="none" stroke="rgb(127,127,127)" stroke-width="40" stroke-linejoin="round" d="M -181,10724 L -181,11390"/>
         </g>
        </g>
        <g class="com.sun.star.drawing.PolyPolygonShape">
         <g id="id18">
          <rect class="BoundingBox" stroke="none" fill="none" x="-585" y="10260" width="234" height="1262"/>
          <g>
           <defs>
            <linearGradient id="gradient3" x1="-565" y1="10890" x2="-372" y2="10890" gradientUnits="userSpaceOnUse">
             <stop offset="0.1" style="stop-color:rgb(179,179,179)"/>
             <stop offset="1" style="stop-color:rgb(229,229,229)"/>
            </linearGradient>
           </defs>
           <path style="fill:url(#gradient3)" d="M -565,11390 L -565,10280 -373,10391 -373,11501 -565,11390 Z"/>
          </g>
          <path fill="none" stroke="rgb(255,255,255)" stroke-width="40" stroke-linejoin="round" d="M -565,11390 L -565,10280 -373,10391 -373,11501 -565,11390 Z"/>
         </g>
        </g>
        <g class="com.sun.star.drawing.PolyPolygonShape">
         <g id="id19">
          <rect class="BoundingBox" stroke="none" fill="none" x="2965" y="12313" width="234" height="1262"/>
          <g>
           <defs>
            <linearGradient id="gradient4" x1="2986" y1="12943" x2="3179" y2="12943" gradientUnits="userSpaceOnUse">
             <stop offset="0.1" style="stop-color:rgb(179,179,179)"/>
             <stop offset="1" style="stop-color:rgb(229,229,229)"/>
            </linearGradient>
           </defs>
           <path style="fill:url(#gradient4)" d="M 2986,13443 L 2986,12333 3178,12444 3178,13554 2986,13443 Z"/>
          </g>
          <path fill="none" stroke="rgb(255,255,255)" stroke-width="40" stroke-linejoin="round" d="M 2986,13443 L 2986,12333 3178,12444 3178,13554 2986,13443 Z"/>
         </g>
        </g>
        <g class="com.sun.star.drawing.PolyPolygonShape">
         <g id="id20">
          <rect class="BoundingBox" stroke="none" fill="none" x="-585" y="8707" width="6472" height="4868"/>
          <path fill="none" stroke="rgb(0,0,0)" stroke-width="40" stroke-linejoin="round" d="M -565,11390 L -565,10280 -373,10391 2506,8727 5866,10669 5866,11778 3178,13332 3178,13554 -565,11390 Z"/>
         </g>
        </g>
       </g>
      </g>
      <g class="Group">
       <g class="com.sun.star.drawing.PolyPolygonShape">
        <g id="id21">
         <rect class="BoundingBox" stroke="none" fill="none" x="3875" y="12126" width="1158" height="686"/>
         <g>
          <defs>
           <linearGradient id="gradient5" x1="4453" y1="12146" x2="4453" y2="12791" gradientUnits="userSpaceOnUse">
            <stop offset="0.1" style="stop-color:rgb(222,142,150)"/>
            <stop offset="1" style="stop-color:rgb(248,232,234)"/>
           </linearGradient>
          </defs>
          <path style="fill:url(#gradient5)" d="M 4707,12791 L 5012,12615 4200,12146 3895,12322 4707,12791 Z"/>
         </g>
         <path fill="none" stroke="rgb(255,255,255)" stroke-width="40" stroke-linejoin="round" d="M 4707,12791 L 5012,12615 4200,12146 3895,12322 4707,12791 Z"/>
        </g>
       </g>
       <g class="com.sun.star.drawing.ClosedBezierShape">
        <g id="id22">
         <rect class="BoundingBox" stroke="none" fill="none" x="4078" y="11870" width="752" height="825"/>
         <g>
          <defs>
           <linearGradient id="gradient6" x1="4097" y1="12281" x2="4810" y2="12281" gradientUnits="userSpaceOnUse">
            <stop offset="0.1" style="stop-color:rgb(179,179,179)"/>
            <stop offset="1" style="stop-color:rgb(229,229,229)"/>
           </linearGradient>
          </defs>
          <path style="fill:url(#gradient6)" d="M 4809,12629 L 4801,12492 4778,12366 4743,12254 4698,12155 4644,12070 4584,12000 4552,11972 4520,11947 4487,11927 4454,11911 4420,11899 4387,11892 4355,11890 4323,11893 4292,11900 4263,11912 4235,11930 4209,11953 4185,11981 4164,12014 4145,12054 4129,12098 4116,12149 4106,12205 4098,12336 4132,12355 4159,12369 4170,12374 4180,12378 4190,12380 4200,12380 4209,12380 4219,12378 4230,12374 4241,12369 4267,12355 4301,12336 4304,12267 4314,12214 4321,12193 4329,12175 4338,12161 4349,12151 4360,12143 4372,12139 4384,12138 4398,12140 4411,12145 4425,12152 4439,12162 4454,12175 4482,12207 4509,12248 4535,12297 4558,12353 4578,12415 4593,12482 4603,12554 4606,12629 4640,12648 4666,12662 4677,12667 4688,12671 4698,12673 4707,12673 4717,12673 4727,12671 4737,12667 4748,12662 4775,12648 4809,12629 Z"/>
         </g>
         <path fill="none" stroke="rgb(255,255,255)" stroke-width="40" stroke-linejoin="round" d="M 4809,12629 C 4809,11867 4098,11573 4098,12336 4200,12395 4200,12395 4301,12336 4301,11925 4606,12219 4606,12629 4707,12688 4707,12688 4809,12629 Z"/>
        </g>
       </g>
       <g class="com.sun.star.drawing.OpenBezierShape">
        <g id="id23">
         <rect class="BoundingBox" stroke="none" fill="none" x="4180" y="12033" width="448" height="603"/>
         <path fill="none" stroke="rgb(255,255,255)" stroke-width="40" stroke-linejoin="round" d="M 4607,12615 C 4606,12087 4201,11853 4200,12263"/>
        </g>
       </g>
       <g class="com.sun.star.drawing.PolyPolygonShape">
        <g id="id24">
         <rect class="BoundingBox" stroke="none" fill="none" x="3875" y="12302" width="853" height="1274"/>
         <g>
          <defs>
           <linearGradient id="gradient7" x1="3894" y1="12938" x2="4708" y2="12938" gradientUnits="userSpaceOnUse">
            <stop offset="0.1" style="stop-color:rgb(222,142,150)"/>
            <stop offset="1" style="stop-color:rgb(248,232,234)"/>
           </linearGradient>
          </defs>
          <path style="fill:url(#gradient7)" d="M 4707,13554 L 4707,12791 3895,12322 3895,13085 4707,13554 Z"/>
         </g>
         <path fill="none" stroke="rgb(255,255,255)" stroke-width="40" stroke-linejoin="round" d="M 4707,13554 L 4707,12791 3895,12322 3895,13085 4707,13554 Z"/>
        </g>
       </g>
       <g class="com.sun.star.drawing.ClosedBezierShape">
        <g id="id25">
         <rect class="BoundingBox" stroke="none" fill="none" x="4207" y="12771" width="217" height="346"/>
         <g>
          <defs>
           <linearGradient id="gradient8" x1="4314" y1="12791" x2="4314" y2="13095" gradientUnits="userSpaceOnUse">
            <stop offset="0.1" style="stop-color:rgb(0,0,0)"/>
            <stop offset="1" style="stop-color:rgb(255,255,255)"/>
           </linearGradient>
          </defs>
          <path style="fill:url(#gradient8)" d="M 4244,12919 L 4230,12871 4228,12852 4227,12835 4229,12822 4233,12811 4235,12806 4238,12802 4241,12799 4245,12796 4249,12794 4253,12793 4263,12791 4273,12791 4284,12793 4296,12797 4308,12802 4332,12817 4355,12835 4375,12856 4384,12868 4391,12879 4396,12891 4400,12903 4402,12914 4402,12926 4400,12936 4394,12947 4387,12956 4376,12965 4362,12972 4345,12978 4345,13095 4244,13037 4244,12919 Z"/>
         </g>
         <path fill="none" stroke="rgb(255,255,255)" stroke-width="40" stroke-linejoin="round" d="M 4244,12919 C 4142,12626 4548,12919 4345,12978 L 4345,13095 4244,13037 4244,12919 Z"/>
        </g>
       </g>
       <g class="com.sun.star.drawing.PolyPolygonShape">
        <g id="id26">
         <rect class="BoundingBox" stroke="none" fill="none" x="4687" y="12595" width="347" height="981"/>
         <g>
          <defs>
           <pattern id="pattern2" x="4707" y="12615" width="306" height="940" patternUnits="userSpaceOnUse">
            <g transform="translate(-4707,-12615)">
             <path fill="rgb(222,142,150)" stroke="none" d="M 4706,12614 L 5013,12614 5013,13555 4706,13555 4706,12614 Z M 4646,12431 L 4949,12431 4949,13360 4646,13360 4646,12431 Z"/>
             <path fill="rgb(222,143,150)" stroke="none" d="M 4646,12431 L 4949,12431 4949,13360 4646,13360 4646,12431 Z M 4648,12436 L 4947,12436 4947,13355 4648,13355 4648,12436 Z"/>
             <path fill="rgb(222,144,151)" stroke="none" d="M 4648,12436 L 4947,12436 4947,13355 4648,13355 4648,12436 Z M 4650,12441 L 4945,12441 4945,13350 4650,13350 4650,12441 Z"/>
             <path fill="rgb(222,145,152)" stroke="none" d="M 4650,12441 L 4945,12441 4945,13350 4650,13350 4650,12441 Z M 4651,12446 L 4944,12446 4944,13345 4651,13345 4651,12446 Z"/>
             <path fill="rgb(223,146,153)" stroke="none" d="M 4651,12446 L 4944,12446 4944,13345 4651,13345 4651,12446 Z M 4653,12452 L 4942,12452 4942,13339 4653,13339 4653,12452 Z"/>
             <path fill="rgb(223,147,154)" stroke="none" d="M 4653,12452 L 4942,12452 4942,13339 4653,13339 4653,12452 Z M 4655,12457 L 4940,12457 4940,13334 4655,13334 4655,12457 Z"/>
             <path fill="rgb(223,148,155)" stroke="none" d="M 4655,12457 L 4940,12457 4940,13334 4655,13334 4655,12457 Z M 4656,12462 L 4939,12462 4939,13329 4656,13329 4656,12462 Z"/>
             <path fill="rgb(224,149,156)" stroke="none" d="M 4656,12462 L 4939,12462 4939,13329 4656,13329 4656,12462 Z M 4658,12467 L 4937,12467 4937,13324 4658,13324 4658,12467 Z"/>
             <path fill="rgb(224,150,157)" stroke="none" d="M 4658,12467 L 4937,12467 4937,13324 4658,13324 4658,12467 Z M 4660,12473 L 4935,12473 4935,13318 4660,13318 4660,12473 Z"/>
             <path fill="rgb(224,151,158)" stroke="none" d="M 4660,12473 L 4935,12473 4935,13318 4660,13318 4660,12473 Z M 4662,12478 L 4933,12478 4933,13313 4662,13313 4662,12478 Z"/>
             <path fill="rgb(224,152,159)" stroke="none" d="M 4662,12478 L 4933,12478 4933,13313 4662,13313 4662,12478 Z M 4663,12483 L 4932,12483 4932,13308 4663,13308 4663,12483 Z"/>
             <path fill="rgb(225,153,160)" stroke="none" d="M 4663,12483 L 4932,12483 4932,13308 4663,13308 4663,12483 Z M 4665,12488 L 4930,12488 4930,13303 4665,13303 4665,12488 Z"/>
             <path fill="rgb(225,154,161)" stroke="none" d="M 4665,12488 L 4930,12488 4930,13303 4665,13303 4665,12488 Z M 4667,12494 L 4928,12494 4928,13297 4667,13297 4667,12494 Z"/>
             <path fill="rgb(225,155,162)" stroke="none" d="M 4667,12494 L 4928,12494 4928,13297 4667,13297 4667,12494 Z M 4668,12499 L 4927,12499 4927,13292 4668,13292 4668,12499 Z"/>
             <path fill="rgb(226,156,163)" stroke="none" d="M 4668,12499 L 4927,12499 4927,13292 4668,13292 4668,12499 Z M 4670,12504 L 4925,12504 4925,13287 4670,13287 4670,12504 Z"/>
             <path fill="rgb(226,157,164)" stroke="none" d="M 4670,12504 L 4925,12504 4925,13287 4670,13287 4670,12504 Z M 4672,12509 L 4923,12509 4923,13282 4672,13282 4672,12509 Z"/>
             <path fill="rgb(226,158,164)" stroke="none" d="M 4672,12509 L 4923,12509 4923,13282 4672,13282 4672,12509 Z M 4674,12514 L 4921,12514 4921,13277 4674,13277 4674,12514 Z"/>
             <path fill="rgb(226,159,165)" stroke="none" d="M 4674,12514 L 4921,12514 4921,13277 4674,13277 4674,12514 Z M 4675,12520 L 4920,12520 4920,13271 4675,13271 4675,12520 Z"/>
             <path fill="rgb(227,160,166)" stroke="none" d="M 4675,12520 L 4920,12520 4920,13271 4675,13271 4675,12520 Z M 4677,12525 L 4918,12525 4918,13266 4677,13266 4677,12525 Z"/>
             <path fill="rgb(227,161,167)" stroke="none" d="M 4677,12525 L 4918,12525 4918,13266 4677,13266 4677,12525 Z M 4679,12530 L 4916,12530 4916,13261 4679,13261 4679,12530 Z"/>
             <path fill="rgb(227,162,168)" stroke="none" d="M 4679,12530 L 4916,12530 4916,13261 4679,13261 4679,12530 Z M 4680,12535 L 4915,12535 4915,13256 4680,13256 4680,12535 Z"/>
             <path fill="rgb(228,163,169)" stroke="none" d="M 4680,12535 L 4915,12535 4915,13256 4680,13256 4680,12535 Z M 4682,12541 L 4913,12541 4913,13250 4682,13250 4682,12541 Z"/>
             <path fill="rgb(228,164,170)" stroke="none" d="M 4682,12541 L 4913,12541 4913,13250 4682,13250 4682,12541 Z M 4684,12546 L 4911,12546 4911,13245 4684,13245 4684,12546 Z"/>
             <path fill="rgb(228,165,171)" stroke="none" d="M 4684,12546 L 4911,12546 4911,13245 4684,13245 4684,12546 Z M 4686,12551 L 4909,12551 4909,13240 4686,13240 4686,12551 Z"/>
             <path fill="rgb(228,166,172)" stroke="none" d="M 4686,12551 L 4909,12551 4909,13240 4686,13240 4686,12551 Z M 4687,12556 L 4908,12556 4908,13235 4687,13235 4687,12556 Z"/>
             <path fill="rgb(229,167,173)" stroke="none" d="M 4687,12556 L 4908,12556 4908,13235 4687,13235 4687,12556 Z M 4688,12562 L 4906,12562 4906,13229 4688,13229 4688,12562 Z"/>
             <path fill="rgb(229,168,174)" stroke="none" d="M 4688,12562 L 4906,12562 4906,13229 4688,13229 4688,12562 Z M 4690,12567 L 4904,12567 4904,13224 4690,13224 4690,12567 Z"/>
             <path fill="rgb(229,169,175)" stroke="none" d="M 4690,12567 L 4904,12567 4904,13224 4690,13224 4690,12567 Z M 4691,12572 L 4903,12572 4903,13219 4691,13219 4691,12572 Z"/>
             <path fill="rgb(230,170,176)" stroke="none" d="M 4691,12572 L 4903,12572 4903,13219 4691,13219 4691,12572 Z M 4693,12577 L 4901,12577 4901,13214 4693,13214 4693,12577 Z"/>
             <path fill="rgb(230,171,177)" stroke="none" d="M 4693,12577 L 4901,12577 4901,13214 4693,13214 4693,12577 Z M 4695,12582 L 4899,12582 4899,13208 4695,13208 4695,12582 Z"/>
             <path fill="rgb(230,172,178)" stroke="none" d="M 4695,12582 L 4899,12582 4899,13208 4695,13208 4695,12582 Z M 4697,12588 L 4897,12588 4897,13203 4697,13203 4697,12588 Z"/>
             <path fill="rgb(230,173,178)" stroke="none" d="M 4697,12588 L 4897,12588 4897,13203 4697,13203 4697,12588 Z M 4698,12593 L 4896,12593 4896,13198 4698,13198 4698,12593 Z"/>
             <path fill="rgb(231,174,179)" stroke="none" d="M 4698,12593 L 4896,12593 4896,13198 4698,13198 4698,12593 Z M 4700,12597 L 4894,12597 4894,13193 4700,13193 4700,12597 Z"/>
             <path fill="rgb(231,175,180)" stroke="none" d="M 4700,12597 L 4894,12597 4894,13193 4700,13193 4700,12597 Z M 4702,12602 L 4892,12602 4892,13188 4702,13188 4702,12602 Z"/>
             <path fill="rgb(231,176,181)" stroke="none" d="M 4702,12602 L 4892,12602 4892,13188 4702,13188 4702,12602 Z M 4703,12608 L 4891,12608 4891,13182 4703,13182 4703,12608 Z"/>
             <path fill="rgb(232,177,182)" stroke="none" d="M 4703,12608 L 4891,12608 4891,13182 4703,13182 4703,12608 Z M 4705,12613 L 4889,12613 4889,13177 4705,13177 4705,12613 Z"/>
             <path fill="rgb(232,178,183)" stroke="none" d="M 4705,12613 L 4889,12613 4889,13177 4705,13177 4705,12613 Z M 4707,12618 L 4887,12618 4887,13172 4707,13172 4707,12618 Z"/>
             <path fill="rgb(232,179,184)" stroke="none" d="M 4707,12618 L 4887,12618 4887,13172 4707,13172 4707,12618 Z M 4709,12623 L 4885,12623 4885,13167 4709,13167 4709,12623 Z"/>
             <path fill="rgb(232,180,185)" stroke="none" d="M 4709,12623 L 4885,12623 4885,13167 4709,13167 4709,12623 Z M 4710,12629 L 4884,12629 4884,13161 4710,13161 4710,12629 Z"/>
             <path fill="rgb(233,181,186)" stroke="none" d="M 4710,12629 L 4884,12629 4884,13161 4710,13161 4710,12629 Z M 4712,12634 L 4882,12634 4882,13156 4712,13156 4712,12634 Z"/>
             <path fill="rgb(233,182,187)" stroke="none" d="M 4712,12634 L 4882,12634 4882,13156 4712,13156 4712,12634 Z M 4714,12639 L 4880,12639 4880,13151 4714,13151 4714,12639 Z"/>
             <path fill="rgb(233,183,188)" stroke="none" d="M 4714,12639 L 4880,12639 4880,13151 4714,13151 4714,12639 Z M 4715,12644 L 4879,12644 4879,13146 4715,13146 4715,12644 Z"/>
             <path fill="rgb(234,184,189)" stroke="none" d="M 4715,12644 L 4879,12644 4879,13146 4715,13146 4715,12644 Z M 4717,12650 L 4877,12650 4877,13140 4717,13140 4717,12650 Z"/>
             <path fill="rgb(234,185,190)" stroke="none" d="M 4717,12650 L 4877,12650 4877,13140 4717,13140 4717,12650 Z M 4719,12655 L 4875,12655 4875,13135 4719,13135 4719,12655 Z"/>
             <path fill="rgb(234,186,191)" stroke="none" d="M 4719,12655 L 4875,12655 4875,13135 4719,13135 4719,12655 Z M 4720,12660 L 4874,12660 4874,13130 4720,13130 4720,12660 Z"/>
             <path fill="rgb(235,187,192)" stroke="none" d="M 4720,12660 L 4874,12660 4874,13130 4720,13130 4720,12660 Z M 4722,12665 L 4872,12665 4872,13125 4722,13125 4722,12665 Z"/>
             <path fill="rgb(235,188,192)" stroke="none" d="M 4722,12665 L 4872,12665 4872,13125 4722,13125 4722,12665 Z M 4724,12670 L 4870,12670 4870,13120 4724,13120 4724,12670 Z"/>
             <path fill="rgb(235,189,193)" stroke="none" d="M 4724,12670 L 4870,12670 4870,13120 4724,13120 4724,12670 Z M 4726,12676 L 4868,12676 4868,13114 4726,13114 4726,12676 Z"/>
             <path fill="rgb(235,190,194)" stroke="none" d="M 4726,12676 L 4868,12676 4868,13114 4726,13114 4726,12676 Z M 4727,12681 L 4867,12681 4867,13109 4727,13109 4727,12681 Z"/>
             <path fill="rgb(236,191,195)" stroke="none" d="M 4727,12681 L 4867,12681 4867,13109 4727,13109 4727,12681 Z M 4729,12686 L 4865,12686 4865,13104 4729,13104 4729,12686 Z"/>
             <path fill="rgb(236,192,196)" stroke="none" d="M 4729,12686 L 4865,12686 4865,13104 4729,13104 4729,12686 Z M 4731,12691 L 4863,12691 4863,13099 4731,13099 4731,12691 Z"/>
             <path fill="rgb(236,193,197)" stroke="none" d="M 4731,12691 L 4863,12691 4863,13099 4731,13099 4731,12691 Z M 4732,12697 L 4862,12697 4862,13093 4732,13093 4732,12697 Z"/>
             <path fill="rgb(237,194,198)" stroke="none" d="M 4732,12697 L 4862,12697 4862,13093 4732,13093 4732,12697 Z M 4734,12702 L 4860,12702 4860,13088 4734,13088 4734,12702 Z"/>
             <path fill="rgb(237,195,199)" stroke="none" d="M 4734,12702 L 4860,12702 4860,13088 4734,13088 4734,12702 Z M 4736,12707 L 4858,12707 4858,13083 4736,13083 4736,12707 Z"/>
             <path fill="rgb(237,196,200)" stroke="none" d="M 4736,12707 L 4858,12707 4858,13083 4736,13083 4736,12707 Z M 4738,12712 L 4856,12712 4856,13078 4738,13078 4738,12712 Z"/>
             <path fill="rgb(237,197,201)" stroke="none" d="M 4738,12712 L 4856,12712 4856,13078 4738,13078 4738,12712 Z M 4739,12718 L 4855,12718 4855,13072 4739,13072 4739,12718 Z"/>
             <path fill="rgb(238,198,202)" stroke="none" d="M 4739,12718 L 4855,12718 4855,13072 4739,13072 4739,12718 Z M 4741,12723 L 4853,12723 4853,13067 4741,13067 4741,12723 Z"/>
             <path fill="rgb(238,199,203)" stroke="none" d="M 4741,12723 L 4853,12723 4853,13067 4741,13067 4741,12723 Z M 4743,12728 L 4851,12728 4851,13062 4743,13062 4743,12728 Z"/>
             <path fill="rgb(238,200,204)" stroke="none" d="M 4743,12728 L 4851,12728 4851,13062 4743,13062 4743,12728 Z M 4744,12733 L 4850,12733 4850,13057 4744,13057 4744,12733 Z"/>
             <path fill="rgb(239,201,205)" stroke="none" d="M 4744,12733 L 4850,12733 4850,13057 4744,13057 4744,12733 Z M 4746,12738 L 4848,12738 4848,13051 4746,13051 4746,12738 Z"/>
             <path fill="rgb(239,202,206)" stroke="none" d="M 4746,12738 L 4848,12738 4848,13051 4746,13051 4746,12738 Z M 4748,12744 L 4846,12744 4846,13046 4748,13046 4748,12744 Z"/>
             <path fill="rgb(239,203,206)" stroke="none" d="M 4748,12744 L 4846,12744 4846,13046 4748,13046 4748,12744 Z M 4750,12749 L 4844,12749 4844,13041 4750,13041 4750,12749 Z"/>
             <path fill="rgb(239,204,207)" stroke="none" d="M 4750,12749 L 4844,12749 4844,13041 4750,13041 4750,12749 Z M 4751,12754 L 4843,12754 4843,13036 4751,13036 4751,12754 Z"/>
             <path fill="rgb(240,205,208)" stroke="none" d="M 4751,12754 L 4843,12754 4843,13036 4751,13036 4751,12754 Z M 4753,12759 L 4841,12759 4841,13031 4753,13031 4753,12759 Z"/>
             <path fill="rgb(240,206,209)" stroke="none" d="M 4753,12759 L 4841,12759 4841,13031 4753,13031 4753,12759 Z M 4755,12765 L 4839,12765 4839,13025 4755,13025 4755,12765 Z"/>
             <path fill="rgb(240,207,210)" stroke="none" d="M 4755,12765 L 4839,12765 4839,13025 4755,13025 4755,12765 Z M 4756,12770 L 4838,12770 4838,13020 4756,13020 4756,12770 Z"/>
             <path fill="rgb(241,208,211)" stroke="none" d="M 4756,12770 L 4838,12770 4838,13020 4756,13020 4756,12770 Z M 4758,12775 L 4836,12775 4836,13015 4758,13015 4758,12775 Z"/>
             <path fill="rgb(241,209,212)" stroke="none" d="M 4758,12775 L 4836,12775 4836,13015 4758,13015 4758,12775 Z M 4760,12780 L 4834,12780 4834,13010 4760,13010 4760,12780 Z"/>
             <path fill="rgb(241,210,213)" stroke="none" d="M 4760,12780 L 4834,12780 4834,13010 4760,13010 4760,12780 Z M 4762,12786 L 4832,12786 4832,13004 4762,13004 4762,12786 Z"/>
             <path fill="rgb(241,211,214)" stroke="none" d="M 4762,12786 L 4832,12786 4832,13004 4762,13004 4762,12786 Z M 4763,12791 L 4831,12791 4831,12999 4763,12999 4763,12791 Z"/>
             <path fill="rgb(242,212,215)" stroke="none" d="M 4763,12791 L 4831,12791 4831,12999 4763,12999 4763,12791 Z M 4765,12796 L 4829,12796 4829,12994 4765,12994 4765,12796 Z"/>
             <path fill="rgb(242,213,216)" stroke="none" d="M 4765,12796 L 4829,12796 4829,12994 4765,12994 4765,12796 Z M 4767,12801 L 4827,12801 4827,12989 4767,12989 4767,12801 Z"/>
             <path fill="rgb(242,214,217)" stroke="none" d="M 4767,12801 L 4827,12801 4827,12989 4767,12989 4767,12801 Z M 4768,12807 L 4826,12807 4826,12983 4768,12983 4768,12807 Z"/>
             <path fill="rgb(243,215,218)" stroke="none" d="M 4768,12807 L 4826,12807 4826,12983 4768,12983 4768,12807 Z M 4770,12812 L 4824,12812 4824,12978 4770,12978 4770,12812 Z"/>
             <path fill="rgb(243,216,219)" stroke="none" d="M 4770,12812 L 4824,12812 4824,12978 4770,12978 4770,12812 Z M 4772,12817 L 4822,12817 4822,12973 4772,12973 4772,12817 Z"/>
             <path fill="rgb(243,217,220)" stroke="none" d="M 4772,12817 L 4822,12817 4822,12973 4772,12973 4772,12817 Z M 4774,12822 L 4820,12822 4820,12968 4774,12968 4774,12822 Z"/>
             <path fill="rgb(243,218,220)" stroke="none" d="M 4774,12822 L 4820,12822 4820,12968 4774,12968 4774,12822 Z M 4775,12827 L 4819,12827 4819,12963 4775,12963 4775,12827 Z"/>
             <path fill="rgb(244,219,221)" stroke="none" d="M 4775,12827 L 4819,12827 4819,12963 4775,12963 4775,12827 Z M 4777,12833 L 4817,12833 4817,12957 4777,12957 4777,12833 Z"/>
             <path fill="rgb(244,220,222)" stroke="none" d="M 4777,12833 L 4817,12833 4817,12957 4777,12957 4777,12833 Z M 4779,12838 L 4815,12838 4815,12952 4779,12952 4779,12838 Z"/>
             <path fill="rgb(244,221,223)" stroke="none" d="M 4779,12838 L 4815,12838 4815,12952 4779,12952 4779,12838 Z M 4780,12843 L 4814,12843 4814,12947 4780,12947 4780,12843 Z"/>
             <path fill="rgb(245,222,224)" stroke="none" d="M 4780,12843 L 4814,12843 4814,12947 4780,12947 4780,12843 Z M 4782,12848 L 4812,12848 4812,12942 4782,12942 4782,12848 Z"/>
             <path fill="rgb(245,223,225)" stroke="none" d="M 4782,12848 L 4812,12848 4812,12942 4782,12942 4782,12848 Z M 4784,12854 L 4810,12854 4810,12936 4784,12936 4784,12854 Z"/>
             <path fill="rgb(245,224,226)" stroke="none" d="M 4784,12854 L 4810,12854 4810,12936 4784,12936 4784,12854 Z M 4786,12859 L 4808,12859 4808,12931 4786,12931 4786,12859 Z"/>
             <path fill="rgb(245,225,227)" stroke="none" d="M 4786,12859 L 4808,12859 4808,12931 4786,12931 4786,12859 Z M 4787,12864 L 4807,12864 4807,12926 4787,12926 4787,12864 Z"/>
             <path fill="rgb(246,226,228)" stroke="none" d="M 4787,12864 L 4807,12864 4807,12926 4787,12926 4787,12864 Z M 4789,12869 L 4805,12869 4805,12921 4789,12921 4789,12869 Z"/>
             <path fill="rgb(246,227,229)" stroke="none" d="M 4789,12869 L 4805,12869 4805,12921 4789,12921 4789,12869 Z M 4791,12875 L 4803,12875 4803,12915 4791,12915 4791,12875 Z"/>
             <path fill="rgb(246,228,230)" stroke="none" d="M 4791,12875 L 4803,12875 4803,12915 4791,12915 4791,12875 Z M 4792,12880 L 4802,12880 4802,12910 4792,12910 4792,12880 Z"/>
             <path fill="rgb(247,229,231)" stroke="none" d="M 4792,12880 L 4802,12880 4802,12910 4792,12910 4792,12880 Z M 4794,12885 L 4800,12885 4800,12905 4794,12905 4794,12885 Z"/>
             <path fill="rgb(247,230,232)" stroke="none" d="M 4794,12885 L 4800,12885 4800,12905 4794,12905 4794,12885 Z M 4796,12890 L 4798,12890 4798,12900 4796,12900 4796,12890 Z"/>
             <path fill="rgb(248,232,234)" stroke="none" d="M 4796,12890 L 4798,12890 4798,12900 4796,12900 4796,12890 Z"/>
            </g>
           </pattern>
          </defs>
          <path style="fill:url(#pattern2)" d="M 4707,13554 L 4707,12791 5012,12615 5012,13378 4707,13554 Z"/>
         </g>
         <path fill="none" stroke="rgb(255,255,255)" stroke-width="40" stroke-linejoin="round" d="M 4707,13554 L 4707,12791 5012,12615 5012,13378 4707,13554 Z"/>
        </g>
       </g>
       <g class="com.sun.star.drawing.ClosedBezierShape">
        <g id="id27">
         <rect class="BoundingBox" stroke="none" fill="none" x="3875" y="11854" width="1158" height="1721"/>
         <path fill="none" stroke="rgb(0,0,0)" stroke-width="40" stroke-linejoin="round" d="M 4098,12204 C 4200,11559 4809,11970 4809,12498 L 5012,12615 5012,13378 4707,13554 3895,13084 3895,12322 4098,12204 Z"/>
        </g>
       </g>
       <g class="com.sun.star.drawing.ClosedBezierShape">
        <g id="id28">
         <rect class="BoundingBox" stroke="none" fill="none" x="4305" y="12132" width="243" height="228"/>
         <path fill="none" stroke="rgb(128,128,128)" stroke-width="40" stroke-linejoin="round" d="M 4325,12213 C 4374,12063 4513,12223 4527,12339 L 4325,12213 Z"/>
        </g>
       </g>
      </g>
     </g>
    </g>
   </g>
  </g>
 </g>
</svg>