<?xml version="1.0" encoding="UTF-8"?>
<!DOCTYPE svg PUBLIC "-//W3C//DTD SVG 1.1//EN" "http://www.w3.org/Graphics/SVG/1.1/DTD/svg11.dtd">
<svg version="1.2" width="69.31mm" height="48.67mm" viewBox="9162 4634 6931 4867" preserveAspectRatio="xMidYMid" fill-rule="evenodd" stroke-width="28.222" stroke-linejoin="round" xmlns="http://www.w3.org/2000/svg" xmlns:ooo="http://xml.openoffice.org/svg/export" xmlns:xlink="http://www.w3.org/1999/xlink" xmlns:presentation="http://sun.com/xmlns/staroffice/presentation" xmlns:smil="http://www.w3.org/2001/SMIL20/" xmlns:anim="urn:oasis:names:tc:opendocument:xmlns:animation:1.0" xml:space="preserve">
 <defs class="ClipPathGroup">
  <clipPath id="presentation_clip_path" clipPathUnits="userSpaceOnUse">
   <rect x="9162" y="4634" width="6931" height="4867"/>
  </clipPath>
 </defs>
 <defs class="TextShapeIndex">
  <g ooo:slide="id1" ooo:id-list="id3 id4 id5 id6 id7 id8 id9 id10 id11 id12 id13 id14 id15 id16 id17 id18 id19 id20 id21 id22 id23 id24 id25 id26 id27 id28 id29 id30 id31"/>
 </defs>
 <defs class="EmbeddedBulletChars">
  <g id="bullet-char-template(57356)" transform="scale(0.00048828125,-0.00048828125)">
   <path d="M 580,1141 L 1163,571 580,0 -4,571 580,1141 Z"/>
  </g>
  <g id="bullet-char-template(57354)" transform="scale(0.00048828125,-0.00048828125)">
   <path d="M 8,1128 L 1137,1128 1137,0 8,0 8,1128 Z"/>
  </g>
  <g id="bullet-char-template(10146)" transform="scale(0.00048828125,-0.00048828125)">
   <path d="M 174,0 L 602,739 174,1481 1456,739 174,0 Z M 1358,739 L 309,1346 659,739 1358,739 Z"/>
  </g>
  <g id="bullet-char-template(10132)" transform="scale(0.00048828125,-0.00048828125)">
   <path d="M 2015,739 L 1276,0 717,0 1260,543 174,543 174,936 1260,936 717,1481 1274,1481 2015,739 Z"/>
  </g>
  <g id="bullet-char-template(10007)" transform="scale(0.00048828125,-0.00048828125)">
   <path d="M 0,-2 C -7,14 -16,27 -25,37 L 356,567 C 262,823 215,952 215,954 215,979 228,992 255,992 264,992 276,990 289,987 310,991 331,999 354,1012 L 381,999 492,748 772,1049 836,1024 860,1049 C 881,1039 901,1025 922,1006 886,937 835,863 770,784 769,783 710,716 594,584 L 774,223 C 774,196 753,168 711,139 L 727,119 C 717,90 699,76 672,76 641,76 570,178 457,381 L 164,-76 C 142,-110 111,-127 72,-127 30,-127 9,-110 8,-76 1,-67 -2,-52 -2,-32 -2,-23 -1,-13 0,-2 Z"/>
  </g>
  <g id="bullet-char-template(10004)" transform="scale(0.00048828125,-0.00048828125)">
   <path d="M 285,-33 C 182,-33 111,30 74,156 52,228 41,333 41,471 41,549 55,616 82,672 116,743 169,778 240,778 293,778 328,747 346,684 L 369,508 C 377,444 397,411 428,410 L 1163,1116 C 1174,1127 1196,1133 1229,1133 1271,1133 1292,1118 1292,1087 L 1292,965 C 1292,929 1282,901 1262,881 L 442,47 C 390,-6 338,-33 285,-33 Z"/>
  </g>
  <g id="bullet-char-template(9679)" transform="scale(0.00048828125,-0.00048828125)">
   <path d="M 813,0 C 632,0 489,54 383,161 276,268 223,411 223,592 223,773 276,916 383,1023 489,1130 632,1184 813,1184 992,1184 1136,1130 1245,1023 1353,916 1407,772 1407,592 1407,412 1353,268 1245,161 1136,54 992,0 813,0 Z"/>
  </g>
  <g id="bullet-char-template(8226)" transform="scale(0.00048828125,-0.00048828125)">
   <path d="M 346,457 C 273,457 209,483 155,535 101,586 74,649 74,723 74,796 101,859 155,911 209,963 273,989 346,989 419,989 480,963 531,910 582,859 608,796 608,723 608,648 583,586 532,535 482,483 420,457 346,457 Z"/>
  </g>
  <g id="bullet-char-template(8211)" transform="scale(0.00048828125,-0.00048828125)">
   <path d="M -4,459 L 1135,459 1135,606 -4,606 -4,459 Z"/>
  </g>
 </defs>
 <defs class="TextEmbeddedBitmaps"/>
 <g class="SlideGroup">
  <g>
   <g id="id1" class="Slide" clip-path="url(#presentation_clip_path)">
    <g class="Page">
     <g class="Group">
      <g class="Group">
       <g class="com.sun.star.drawing.ClosedBezierShape">
        <g id="id3">
         <rect class="BoundingBox" stroke="none" fill="none" x="12922" y="7427" width="3173" height="2056"/>
         <path fill="rgb(221,221,221)" stroke="none" d="M 12926,9481 C 13189,9481 16093,8205 16093,7816 16093,7428 15685,7428 15421,7428 15421,7594 12830,8260 12926,9481 Z"/>
         <path fill="none" stroke="rgb(221,221,221)" d="M 12926,9481 C 13189,9481 16093,8205 16093,7816 16093,7428 15685,7428 15421,7428 15421,7594 12830,8260 12926,9481 Z"/>
        </g>
       </g>
       <g class="Group">
        <g class="com.sun.star.drawing.PolyPolygonShape">
         <g id="id4">
          <rect class="BoundingBox" stroke="none" fill="none" x="9354" y="6298" width="3401" height="3092"/>
          <g>
           <defs>
            <linearGradient id="gradient1" x1="9374" y1="7843" x2="12733" y2="7843" gradientUnits="userSpaceOnUse">
             <stop offset="0.1" style="stop-color:rgb(51,51,51)"/>
             <stop offset="1" style="stop-color:rgb(153,153,153)"/>
            </linearGradient>
           </defs>
           <path style="fill:url(#gradient1)" d="M 9374,7428 L 9374,6318 12733,8260 12733,9369 9374,7428 Z"/>
          </g>
          <path fill="none" stroke="rgb(178,178,178)" stroke-width="40" stroke-linejoin="round" d="M 9374,7428 L 9374,6318 12733,8260 12733,9369 9374,7428 Z"/>
         </g>
        </g>
        <g class="com.sun.star.drawing.PolyPolygonShape">
         <g id="id5">
          <rect class="BoundingBox" stroke="none" fill="none" x="12713" y="6575" width="2920" height="2816"/>
          <g>
           <defs>
            <pattern id="pattern1" x="12733" y="6596" width="2880" height="2775" patternUnits="userSpaceOnUse">
             <g transform="translate(-12733,-6596)">
              <path fill="rgb(51,51,51)" stroke="none" d="M 12732,6595 L 15613,6595 15613,9371 12732,9371 12732,6595 Z M 12170,6054 L 15021,6054 15021,8802 12170,8802 12170,6054 Z"/>
              <path fill="rgb(52,52,52)" stroke="none" d="M 12170,6054 L 15021,6054 15021,8802 12170,8802 12170,6054 Z M 12184,6068 L 15007,6068 15007,8788 12184,8788 12184,6068 Z"/>
              <path fill="rgb(53,53,53)" stroke="none" d="M 12184,6068 L 15007,6068 15007,8788 12184,8788 12184,6068 Z M 12198,6081 L 14993,6081 14993,8775 12198,8775 12198,6081 Z"/>
              <path fill="rgb(54,54,54)" stroke="none" d="M 12198,6081 L 14993,6081 14993,8775 12198,8775 12198,6081 Z M 12212,6095 L 14979,6095 14979,8761 12212,8761 12212,6095 Z"/>
              <path fill="rgb(55,55,55)" stroke="none" d="M 12212,6095 L 14979,6095 14979,8761 12212,8761 12212,6095 Z M 12226,6109 L 14965,6109 14965,8747 12226,8747 12226,6109 Z"/>
              <path fill="rgb(56,56,56)" stroke="none" d="M 12226,6109 L 14965,6109 14965,8747 12226,8747 12226,6109 Z M 12240,6122 L 14951,6122 14951,8734 12240,8734 12240,6122 Z"/>
              <path fill="rgb(57,57,57)" stroke="none" d="M 12240,6122 L 14951,6122 14951,8734 12240,8734 12240,6122 Z M 12254,6136 L 14937,6136 14937,8720 12254,8720 12254,6136 Z"/>
              <path fill="rgb(58,58,58)" stroke="none" d="M 12254,6136 L 14937,6136 14937,8720 12254,8720 12254,6136 Z M 12269,6149 L 14922,6149 14922,8707 12269,8707 12269,6149 Z"/>
              <path fill="rgb(59,59,59)" stroke="none" d="M 12269,6149 L 14922,6149 14922,8707 12269,8707 12269,6149 Z M 12283,6163 L 14908,6163 14908,8693 12283,8693 12283,6163 Z"/>
              <path fill="rgb(60,60,60)" stroke="none" d="M 12283,6163 L 14908,6163 14908,8693 12283,8693 12283,6163 Z M 12297,6177 L 14894,6177 14894,8679 12297,8679 12297,6177 Z"/>
              <path fill="rgb(61,61,61)" stroke="none" d="M 12297,6177 L 14894,6177 14894,8679 12297,8679 12297,6177 Z M 12311,6190 L 14880,6190 14880,8666 12311,8666 12311,6190 Z"/>
              <path fill="rgb(62,62,62)" stroke="none" d="M 12311,6190 L 14880,6190 14880,8666 12311,8666 12311,6190 Z M 12325,6204 L 14866,6204 14866,8652 12325,8652 12325,6204 Z"/>
              <path fill="rgb(63,63,63)" stroke="none" d="M 12325,6204 L 14866,6204 14866,8652 12325,8652 12325,6204 Z M 12339,6217 L 14852,6217 14852,8639 12339,8639 12339,6217 Z"/>
              <path fill="rgb(64,64,64)" stroke="none" d="M 12339,6217 L 14852,6217 14852,8639 12339,8639 12339,6217 Z M 12353,6231 L 14838,6231 14838,8625 12353,8625 12353,6231 Z"/>
              <path fill="rgb(65,65,65)" stroke="none" d="M 12353,6231 L 14838,6231 14838,8625 12353,8625 12353,6231 Z M 12367,6245 L 14824,6245 14824,8611 12367,8611 12367,6245 Z"/>
              <path fill="rgb(66,66,66)" stroke="none" d="M 12367,6245 L 14824,6245 14824,8611 12367,8611 12367,6245 Z M 12382,6258 L 14809,6258 14809,8598 12382,8598 12382,6258 Z"/>
              <path fill="rgb(67,67,67)" stroke="none" d="M 12382,6258 L 14809,6258 14809,8598 12382,8598 12382,6258 Z M 12396,6272 L 14795,6272 14795,8584 12396,8584 12396,6272 Z"/>
              <path fill="rgb(68,68,68)" stroke="none" d="M 12396,6272 L 14795,6272 14795,8584 12396,8584 12396,6272 Z M 12410,6286 L 14781,6286 14781,8570 12410,8570 12410,6286 Z"/>
              <path fill="rgb(69,69,69)" stroke="none" d="M 12410,6286 L 14781,6286 14781,8570 12410,8570 12410,6286 Z M 12424,6299 L 14767,6299 14767,8557 12424,8557 12424,6299 Z"/>
              <path fill="rgb(70,70,70)" stroke="none" d="M 12424,6299 L 14767,6299 14767,8557 12424,8557 12424,6299 Z M 12438,6313 L 14753,6313 14753,8543 12438,8543 12438,6313 Z"/>
              <path fill="rgb(71,71,71)" stroke="none" d="M 12438,6313 L 14753,6313 14753,8543 12438,8543 12438,6313 Z M 12452,6326 L 14739,6326 14739,8530 12452,8530 12452,6326 Z"/>
              <path fill="rgb(72,72,72)" stroke="none" d="M 12452,6326 L 14739,6326 14739,8530 12452,8530 12452,6326 Z M 12466,6340 L 14725,6340 14725,8516 12466,8516 12466,6340 Z"/>
              <path fill="rgb(73,73,73)" stroke="none" d="M 12466,6340 L 14725,6340 14725,8516 12466,8516 12466,6340 Z M 12480,6354 L 14711,6354 14711,8502 12480,8502 12480,6354 Z"/>
              <path fill="rgb(74,74,74)" stroke="none" d="M 12480,6354 L 14711,6354 14711,8502 12480,8502 12480,6354 Z M 12495,6367 L 14696,6367 14696,8489 12495,8489 12495,6367 Z"/>
              <path fill="rgb(75,75,75)" stroke="none" d="M 12495,6367 L 14696,6367 14696,8489 12495,8489 12495,6367 Z M 12509,6381 L 14682,6381 14682,8475 12509,8475 12509,6381 Z"/>
              <path fill="rgb(76,76,76)" stroke="none" d="M 12509,6381 L 14682,6381 14682,8475 12509,8475 12509,6381 Z M 12523,6394 L 14668,6394 14668,8462 12523,8462 12523,6394 Z"/>
              <path fill="rgb(77,77,77)" stroke="none" d="M 12523,6394 L 14668,6394 14668,8462 12523,8462 12523,6394 Z M 12537,6408 L 14654,6408 14654,8448 12537,8448 12537,6408 Z"/>
              <path fill="rgb(78,78,78)" stroke="none" d="M 12537,6408 L 14654,6408 14654,8448 12537,8448 12537,6408 Z M 12551,6422 L 14640,6422 14640,8434 12551,8434 12551,6422 Z"/>
              <path fill="rgb(79,79,79)" stroke="none" d="M 12551,6422 L 14640,6422 14640,8434 12551,8434 12551,6422 Z M 12565,6435 L 14626,6435 14626,8421 12565,8421 12565,6435 Z"/>
              <path fill="rgb(80,80,80)" stroke="none" d="M 12565,6435 L 14626,6435 14626,8421 12565,8421 12565,6435 Z M 12579,6449 L 14612,6449 14612,8407 12579,8407 12579,6449 Z"/>
              <path fill="rgb(81,81,81)" stroke="none" d="M 12579,6449 L 14612,6449 14612,8407 12579,8407 12579,6449 Z M 12593,6462 L 14598,6462 14598,8394 12593,8394 12593,6462 Z"/>
              <path fill="rgb(82,82,82)" stroke="none" d="M 12593,6462 L 14598,6462 14598,8394 12593,8394 12593,6462 Z M 12608,6476 L 14583,6476 14583,8380 12608,8380 12608,6476 Z"/>
              <path fill="rgb(83,83,83)" stroke="none" d="M 12608,6476 L 14583,6476 14583,8380 12608,8380 12608,6476 Z M 12622,6490 L 14569,6490 14569,8366 12622,8366 12622,6490 Z"/>
              <path fill="rgb(84,84,84)" stroke="none" d="M 12622,6490 L 14569,6490 14569,8366 12622,8366 12622,6490 Z M 12636,6503 L 14555,6503 14555,8353 12636,8353 12636,6503 Z"/>
              <path fill="rgb(85,85,85)" stroke="none" d="M 12636,6503 L 14555,6503 14555,8353 12636,8353 12636,6503 Z M 12650,6517 L 14541,6517 14541,8339 12650,8339 12650,6517 Z"/>
              <path fill="rgb(86,86,86)" stroke="none" d="M 12650,6517 L 14541,6517 14541,8339 12650,8339 12650,6517 Z M 12664,6531 L 14527,6531 14527,8325 12664,8325 12664,6531 Z"/>
              <path fill="rgb(87,87,87)" stroke="none" d="M 12664,6531 L 14527,6531 14527,8325 12664,8325 12664,6531 Z M 12678,6544 L 14513,6544 14513,8312 12678,8312 12678,6544 Z"/>
              <path fill="rgb(88,88,88)" stroke="none" d="M 12678,6544 L 14513,6544 14513,8312 12678,8312 12678,6544 Z M 12692,6558 L 14499,6558 14499,8298 12692,8298 12692,6558 Z"/>
              <path fill="rgb(89,89,89)" stroke="none" d="M 12692,6558 L 14499,6558 14499,8298 12692,8298 12692,6558 Z M 12706,6571 L 14485,6571 14485,8285 12706,8285 12706,6571 Z"/>
              <path fill="rgb(90,90,90)" stroke="none" d="M 12706,6571 L 14485,6571 14485,8285 12706,8285 12706,6571 Z M 12720,6584 L 14470,6584 14470,8271 12720,8271 12720,6584 Z"/>
              <path fill="rgb(91,91,91)" stroke="none" d="M 12720,6584 L 14470,6584 14470,8271 12720,8271 12720,6584 Z M 12734,6598 L 14456,6598 14456,8257 12734,8257 12734,6598 Z"/>
              <path fill="rgb(92,92,92)" stroke="none" d="M 12734,6598 L 14456,6598 14456,8257 12734,8257 12734,6598 Z M 12748,6611 L 14442,6611 14442,8244 12748,8244 12748,6611 Z"/>
              <path fill="rgb(93,93,93)" stroke="none" d="M 12748,6611 L 14442,6611 14442,8244 12748,8244 12748,6611 Z M 12762,6625 L 14428,6625 14428,8230 12762,8230 12762,6625 Z"/>
              <path fill="rgb(94,94,94)" stroke="none" d="M 12762,6625 L 14428,6625 14428,8230 12762,8230 12762,6625 Z M 12776,6638 L 14414,6638 14414,8217 12776,8217 12776,6638 Z"/>
              <path fill="rgb(95,95,95)" stroke="none" d="M 12776,6638 L 14414,6638 14414,8217 12776,8217 12776,6638 Z M 12790,6652 L 14400,6652 14400,8203 12790,8203 12790,6652 Z"/>
              <path fill="rgb(96,96,96)" stroke="none" d="M 12790,6652 L 14400,6652 14400,8203 12790,8203 12790,6652 Z M 12804,6666 L 14386,6666 14386,8189 12804,8189 12804,6666 Z"/>
              <path fill="rgb(97,97,97)" stroke="none" d="M 12804,6666 L 14386,6666 14386,8189 12804,8189 12804,6666 Z M 12818,6679 L 14372,6679 14372,8176 12818,8176 12818,6679 Z"/>
              <path fill="rgb(98,98,98)" stroke="none" d="M 12818,6679 L 14372,6679 14372,8176 12818,8176 12818,6679 Z M 12833,6693 L 14357,6693 14357,8162 12833,8162 12833,6693 Z"/>
              <path fill="rgb(99,99,99)" stroke="none" d="M 12833,6693 L 14357,6693 14357,8162 12833,8162 12833,6693 Z M 12847,6707 L 14343,6707 14343,8148 12847,8148 12847,6707 Z"/>
              <path fill="rgb(100,100,100)" stroke="none" d="M 12847,6707 L 14343,6707 14343,8148 12847,8148 12847,6707 Z M 12861,6720 L 14329,6720 14329,8135 12861,8135 12861,6720 Z"/>
              <path fill="rgb(101,101,101)" stroke="none" d="M 12861,6720 L 14329,6720 14329,8135 12861,8135 12861,6720 Z M 12875,6734 L 14315,6734 14315,8121 12875,8121 12875,6734 Z"/>
              <path fill="rgb(102,102,102)" stroke="none" d="M 12875,6734 L 14315,6734 14315,8121 12875,8121 12875,6734 Z M 12889,6747 L 14301,6747 14301,8108 12889,8108 12889,6747 Z"/>
              <path fill="rgb(103,103,103)" stroke="none" d="M 12889,6747 L 14301,6747 14301,8108 12889,8108 12889,6747 Z M 12903,6761 L 14287,6761 14287,8094 12903,8094 12903,6761 Z"/>
              <path fill="rgb(104,104,104)" stroke="none" d="M 12903,6761 L 14287,6761 14287,8094 12903,8094 12903,6761 Z M 12917,6775 L 14273,6775 14273,8080 12917,8080 12917,6775 Z"/>
              <path fill="rgb(105,105,105)" stroke="none" d="M 12917,6775 L 14273,6775 14273,8080 12917,8080 12917,6775 Z M 12932,6788 L 14258,6788 14258,8067 12932,8067 12932,6788 Z"/>
              <path fill="rgb(106,106,106)" stroke="none" d="M 12932,6788 L 14258,6788 14258,8067 12932,8067 12932,6788 Z M 12946,6802 L 14244,6802 14244,8053 12946,8053 12946,6802 Z"/>
              <path fill="rgb(107,107,107)" stroke="none" d="M 12946,6802 L 14244,6802 14244,8053 12946,8053 12946,6802 Z M 12960,6815 L 14230,6815 14230,8040 12960,8040 12960,6815 Z"/>
              <path fill="rgb(108,108,108)" stroke="none" d="M 12960,6815 L 14230,6815 14230,8040 12960,8040 12960,6815 Z M 12974,6829 L 14216,6829 14216,8026 12974,8026 12974,6829 Z"/>
              <path fill="rgb(109,109,109)" stroke="none" d="M 12974,6829 L 14216,6829 14216,8026 12974,8026 12974,6829 Z M 12988,6843 L 14202,6843 14202,8012 12988,8012 12988,6843 Z"/>
              <path fill="rgb(110,110,110)" stroke="none" d="M 12988,6843 L 14202,6843 14202,8012 12988,8012 12988,6843 Z M 13002,6856 L 14188,6856 14188,7999 13002,7999 13002,6856 Z"/>
              <path fill="rgb(111,111,111)" stroke="none" d="M 13002,6856 L 14188,6856 14188,7999 13002,7999 13002,6856 Z M 13016,6870 L 14174,6870 14174,7985 13016,7985 13016,6870 Z"/>
              <path fill="rgb(112,112,112)" stroke="none" d="M 13016,6870 L 14174,6870 14174,7985 13016,7985 13016,6870 Z M 13030,6883 L 14160,6883 14160,7972 13030,7972 13030,6883 Z"/>
              <path fill="rgb(113,113,113)" stroke="none" d="M 13030,6883 L 14160,6883 14160,7972 13030,7972 13030,6883 Z M 13045,6897 L 14145,6897 14145,7958 13045,7958 13045,6897 Z"/>
              <path fill="rgb(114,114,114)" stroke="none" d="M 13045,6897 L 14145,6897 14145,7958 13045,7958 13045,6897 Z M 13059,6911 L 14131,6911 14131,7944 13059,7944 13059,6911 Z"/>
              <path fill="rgb(115,115,115)" stroke="none" d="M 13059,6911 L 14131,6911 14131,7944 13059,7944 13059,6911 Z M 13073,6924 L 14117,6924 14117,7931 13073,7931 13073,6924 Z"/>
              <path fill="rgb(116,116,116)" stroke="none" d="M 13073,6924 L 14117,6924 14117,7931 13073,7931 13073,6924 Z M 13087,6938 L 14103,6938 14103,7917 13087,7917 13087,6938 Z"/>
              <path fill="rgb(117,117,117)" stroke="none" d="M 13087,6938 L 14103,6938 14103,7917 13087,7917 13087,6938 Z M 13101,6952 L 14089,6952 14089,7903 13101,7903 13101,6952 Z"/>
              <path fill="rgb(118,118,118)" stroke="none" d="M 13101,6952 L 14089,6952 14089,7903 13101,7903 13101,6952 Z M 13115,6965 L 14075,6965 14075,7890 13115,7890 13115,6965 Z"/>
              <path fill="rgb(119,119,119)" stroke="none" d="M 13115,6965 L 14075,6965 14075,7890 13115,7890 13115,6965 Z M 13129,6979 L 14061,6979 14061,7876 13129,7876 13129,6979 Z"/>
              <path fill="rgb(120,120,120)" stroke="none" d="M 13129,6979 L 14061,6979 14061,7876 13129,7876 13129,6979 Z M 13143,6992 L 14047,6992 14047,7863 13143,7863 13143,6992 Z"/>
              <path fill="rgb(121,121,121)" stroke="none" d="M 13143,6992 L 14047,6992 14047,7863 13143,7863 13143,6992 Z M 13158,7006 L 14032,7006 14032,7849 13158,7849 13158,7006 Z"/>
              <path fill="rgb(122,122,122)" stroke="none" d="M 13158,7006 L 14032,7006 14032,7849 13158,7849 13158,7006 Z M 13172,7020 L 14018,7020 14018,7835 13172,7835 13172,7020 Z"/>
              <path fill="rgb(123,123,123)" stroke="none" d="M 13172,7020 L 14018,7020 14018,7835 13172,7835 13172,7020 Z M 13186,7033 L 14004,7033 14004,7822 13186,7822 13186,7033 Z"/>
              <path fill="rgb(124,124,124)" stroke="none" d="M 13186,7033 L 14004,7033 14004,7822 13186,7822 13186,7033 Z M 13200,7047 L 13990,7047 13990,7808 13200,7808 13200,7047 Z"/>
              <path fill="rgb(125,125,125)" stroke="none" d="M 13200,7047 L 13990,7047 13990,7808 13200,7808 13200,7047 Z M 13214,7060 L 13976,7060 13976,7795 13214,7795 13214,7060 Z"/>
              <path fill="rgb(126,126,126)" stroke="none" d="M 13214,7060 L 13976,7060 13976,7795 13214,7795 13214,7060 Z M 13228,7074 L 13962,7074 13962,7781 13228,7781 13228,7074 Z"/>
              <path fill="rgb(127,127,127)" stroke="none" d="M 13228,7074 L 13962,7074 13962,7781 13228,7781 13228,7074 Z M 13242,7088 L 13948,7088 13948,7767 13242,7767 13242,7088 Z"/>
              <path fill="rgb(128,128,128)" stroke="none" d="M 13242,7088 L 13948,7088 13948,7767 13242,7767 13242,7088 Z M 13256,7101 L 13934,7101 13934,7754 13256,7754 13256,7101 Z"/>
              <path fill="rgb(129,129,129)" stroke="none" d="M 13256,7101 L 13934,7101 13934,7754 13256,7754 13256,7101 Z M 13271,7115 L 13919,7115 13919,7740 13271,7740 13271,7115 Z"/>
              <path fill="rgb(130,130,130)" stroke="none" d="M 13271,7115 L 13919,7115 13919,7740 13271,7740 13271,7115 Z M 13285,7129 L 13905,7129 13905,7726 13285,7726 13285,7129 Z"/>
              <path fill="rgb(131,131,131)" stroke="none" d="M 13285,7129 L 13905,7129 13905,7726 13285,7726 13285,7129 Z M 13299,7142 L 13891,7142 13891,7713 13299,7713 13299,7142 Z"/>
              <path fill="rgb(132,132,132)" stroke="none" d="M 13299,7142 L 13891,7142 13891,7713 13299,7713 13299,7142 Z M 13313,7156 L 13877,7156 13877,7699 13313,7699 13313,7156 Z"/>
              <path fill="rgb(133,133,133)" stroke="none" d="M 13313,7156 L 13877,7156 13877,7699 13313,7699 13313,7156 Z M 13327,7169 L 13863,7169 13863,7686 13327,7686 13327,7169 Z"/>
              <path fill="rgb(134,134,134)" stroke="none" d="M 13327,7169 L 13863,7169 13863,7686 13327,7686 13327,7169 Z M 13341,7183 L 13849,7183 13849,7672 13341,7672 13341,7183 Z"/>
              <path fill="rgb(135,135,135)" stroke="none" d="M 13341,7183 L 13849,7183 13849,7672 13341,7672 13341,7183 Z M 13355,7197 L 13835,7197 13835,7658 13355,7658 13355,7197 Z"/>
              <path fill="rgb(136,136,136)" stroke="none" d="M 13355,7197 L 13835,7197 13835,7658 13355,7658 13355,7197 Z M 13369,7210 L 13821,7210 13821,7645 13369,7645 13369,7210 Z"/>
              <path fill="rgb(137,137,137)" stroke="none" d="M 13369,7210 L 13821,7210 13821,7645 13369,7645 13369,7210 Z M 13384,7224 L 13806,7224 13806,7631 13384,7631 13384,7224 Z"/>
              <path fill="rgb(138,138,138)" stroke="none" d="M 13384,7224 L 13806,7224 13806,7631 13384,7631 13384,7224 Z M 13398,7237 L 13792,7237 13792,7618 13398,7618 13398,7237 Z"/>
              <path fill="rgb(139,139,139)" stroke="none" d="M 13398,7237 L 13792,7237 13792,7618 13398,7618 13398,7237 Z M 13412,7251 L 13778,7251 13778,7604 13412,7604 13412,7251 Z"/>
              <path fill="rgb(140,140,140)" stroke="none" d="M 13412,7251 L 13778,7251 13778,7604 13412,7604 13412,7251 Z M 13426,7265 L 13764,7265 13764,7590 13426,7590 13426,7265 Z"/>
              <path fill="rgb(141,141,141)" stroke="none" d="M 13426,7265 L 13764,7265 13764,7590 13426,7590 13426,7265 Z M 13440,7278 L 13750,7278 13750,7577 13440,7577 13440,7278 Z"/>
              <path fill="rgb(142,142,142)" stroke="none" d="M 13440,7278 L 13750,7278 13750,7577 13440,7577 13440,7278 Z M 13454,7292 L 13736,7292 13736,7563 13454,7563 13454,7292 Z"/>
              <path fill="rgb(143,143,143)" stroke="none" d="M 13454,7292 L 13736,7292 13736,7563 13454,7563 13454,7292 Z M 13468,7305 L 13722,7305 13722,7550 13468,7550 13468,7305 Z"/>
              <path fill="rgb(144,144,144)" stroke="none" d="M 13468,7305 L 13722,7305 13722,7550 13468,7550 13468,7305 Z M 13482,7319 L 13708,7319 13708,7536 13482,7536 13482,7319 Z"/>
              <path fill="rgb(145,145,145)" stroke="none" d="M 13482,7319 L 13708,7319 13708,7536 13482,7536 13482,7319 Z M 13497,7333 L 13693,7333 13693,7522 13497,7522 13497,7333 Z"/>
              <path fill="rgb(146,146,146)" stroke="none" d="M 13497,7333 L 13693,7333 13693,7522 13497,7522 13497,7333 Z M 13511,7346 L 13679,7346 13679,7509 13511,7509 13511,7346 Z"/>
              <path fill="rgb(147,147,147)" stroke="none" d="M 13511,7346 L 13679,7346 13679,7509 13511,7509 13511,7346 Z M 13525,7360 L 13665,7360 13665,7495 13525,7495 13525,7360 Z"/>
              <path fill="rgb(148,148,148)" stroke="none" d="M 13525,7360 L 13665,7360 13665,7495 13525,7495 13525,7360 Z M 13539,7374 L 13651,7374 13651,7481 13539,7481 13539,7374 Z"/>
              <path fill="rgb(149,149,149)" stroke="none" d="M 13539,7374 L 13651,7374 13651,7481 13539,7481 13539,7374 Z M 13553,7387 L 13637,7387 13637,7468 13553,7468 13553,7387 Z"/>
              <path fill="rgb(150,150,150)" stroke="none" d="M 13553,7387 L 13637,7387 13637,7468 13553,7468 13553,7387 Z M 13567,7401 L 13623,7401 13623,7454 13567,7454 13567,7401 Z"/>
              <path fill="rgb(151,151,151)" stroke="none" d="M 13567,7401 L 13623,7401 13623,7454 13567,7454 13567,7401 Z M 13581,7414 L 13609,7414 13609,7441 13581,7441 13581,7414 Z"/>
              <path fill="rgb(153,153,153)" stroke="none" d="M 13581,7414 L 13609,7414 13609,7441 13581,7441 13581,7414 Z"/>
             </g>
            </pattern>
           </defs>
           <path style="fill:url(#pattern1)" d="M 12733,9370 L 12733,8260 15612,6596 15612,7706 12733,9370 Z"/>
          </g>
          <path fill="none" stroke="rgb(178,178,178)" stroke-width="40" stroke-linejoin="round" d="M 12733,9370 L 12733,8260 15612,6596 15612,7706 12733,9370 Z"/>
         </g>
        </g>
        <g class="com.sun.star.drawing.PolyPolygonShape">
         <g id="id6">
          <rect class="BoundingBox" stroke="none" fill="none" x="9353" y="4634" width="6281" height="3647"/>
          <g>
           <defs>
            <linearGradient id="gradient2" x1="12493" y1="4654" x2="12493" y2="8260" gradientUnits="userSpaceOnUse">
             <stop offset="0.1" style="stop-color:rgb(51,51,51)"/>
             <stop offset="1" style="stop-color:rgb(153,153,153)"/>
            </linearGradient>
           </defs>
           <path style="fill:url(#gradient2)" d="M 12733,8260 L 9374,6318 12253,4654 15613,6596 12733,8260 Z"/>
          </g>
          <path fill="none" stroke="rgb(178,178,178)" stroke-width="40" stroke-linejoin="round" d="M 12733,8260 L 9374,6318 12253,4654 15613,6596 12733,8260 Z"/>
         </g>
        </g>
        <g class="com.sun.star.drawing.LineShape">
         <g id="id7">
          <rect class="BoundingBox" stroke="none" fill="none" x="10506" y="7186" width="41" height="707"/>
          <path fill="none" stroke="rgb(153,153,153)" stroke-width="40" stroke-linejoin="round" d="M 10526,7206 L 10526,7872"/>
         </g>
        </g>
        <g class="com.sun.star.drawing.LineShape">
         <g id="id8">
          <rect class="BoundingBox" stroke="none" fill="none" x="11082" y="7719" width="1577" height="929"/>
          <path fill="none" stroke="rgb(178,178,178)" stroke-width="40" stroke-linejoin="round" d="M 12638,8627 L 11102,7739"/>
         </g>
        </g>
        <g class="com.sun.star.drawing.LineShape">
         <g id="id9">
          <rect class="BoundingBox" stroke="none" fill="none" x="11073" y="7519" width="41" height="263"/>
          <path fill="none" stroke="rgb(178,178,178)" stroke-width="40" stroke-linejoin="round" d="M 11093,7539 L 11093,7761"/>
         </g>
        </g>
        <g class="com.sun.star.drawing.LineShape">
         <g id="id10">
          <rect class="BoundingBox" stroke="none" fill="none" x="12609" y="8407" width="41" height="263"/>
          <path fill="none" stroke="rgb(102,102,102)" stroke-width="40" stroke-linejoin="round" d="M 12629,8427 L 12629,8649"/>
         </g>
        </g>
        <g class="com.sun.star.drawing.LineShape">
         <g id="id11">
          <rect class="BoundingBox" stroke="none" fill="none" x="11073" y="7519" width="1577" height="929"/>
          <path fill="none" stroke="rgb(102,102,102)" stroke-width="40" stroke-linejoin="round" d="M 12629,8427 L 11093,7539"/>
         </g>
        </g>
        <g class="com.sun.star.drawing.PolyPolygonShape">
         <g id="id12">
          <rect class="BoundingBox" stroke="none" fill="none" x="10698" y="7297" width="233" height="374"/>
          <path fill="rgb(57,181,74)" stroke="none" d="M 10718,7539 L 10718,7317 10910,7428 10910,7650 10718,7539 Z"/>
          <path fill="none" stroke="rgb(102,102,102)" stroke-width="40" stroke-linejoin="round" d="M 10718,7539 L 10718,7317 10910,7428 10910,7650 10718,7539 Z"/>
         </g>
        </g>
        <g class="com.sun.star.drawing.LineShape">
         <g id="id13">
          <rect class="BoundingBox" stroke="none" fill="none" x="10314" y="7075" width="41" height="707"/>
          <path fill="none" stroke="rgb(153,153,153)" stroke-width="40" stroke-linejoin="round" d="M 10334,7095 L 10334,7761"/>
         </g>
        </g>
        <g class="com.sun.star.drawing.LineShape">
         <g id="id14">
          <rect class="BoundingBox" stroke="none" fill="none" x="10122" y="6964" width="41" height="707"/>
          <path fill="none" stroke="rgb(153,153,153)" stroke-width="40" stroke-linejoin="round" d="M 10142,6984 L 10142,7650"/>
         </g>
        </g>
        <g class="com.sun.star.drawing.LineShape">
         <g id="id15">
          <rect class="BoundingBox" stroke="none" fill="none" x="9930" y="6853" width="41" height="707"/>
          <path fill="none" stroke="rgb(153,153,153)" stroke-width="40" stroke-linejoin="round" d="M 9950,6873 L 9950,7539"/>
         </g>
        </g>
        <g class="com.sun.star.drawing.LineShape">
         <g id="id16">
          <rect class="BoundingBox" stroke="none" fill="none" x="9738" y="6742" width="41" height="707"/>
          <path fill="none" stroke="rgb(153,153,153)" stroke-width="40" stroke-linejoin="round" d="M 9758,6762 L 9758,7428"/>
         </g>
        </g>
        <g class="com.sun.star.drawing.LineShape">
         <g id="id17">
          <rect class="BoundingBox" stroke="none" fill="none" x="9546" y="6631" width="41" height="707"/>
          <path fill="none" stroke="rgb(153,153,153)" stroke-width="40" stroke-linejoin="round" d="M 9566,6651 L 9566,7317"/>
         </g>
        </g>
        <g class="com.sun.star.drawing.PolyPolygonShape">
         <g id="id18">
          <rect class="BoundingBox" stroke="none" fill="none" x="9162" y="6187" width="233" height="1262"/>
          <g>
           <defs>
            <linearGradient id="gradient3" x1="9182" y1="6817" x2="9375" y2="6817" gradientUnits="userSpaceOnUse">
             <stop offset="0.1" style="stop-color:rgb(51,51,51)"/>
             <stop offset="1" style="stop-color:rgb(153,153,153)"/>
            </linearGradient>
           </defs>
           <path style="fill:url(#gradient3)" d="M 9182,7317 L 9182,6207 9374,6318 9374,7428 9182,7317 Z"/>
          </g>
          <path fill="none" stroke="rgb(178,178,178)" stroke-width="40" stroke-linejoin="round" d="M 9182,7317 L 9182,6207 9374,6318 9374,7428 9182,7317 Z"/>
         </g>
        </g>
        <g class="com.sun.star.drawing.PolyPolygonShape">
         <g id="id19">
          <rect class="BoundingBox" stroke="none" fill="none" x="12713" y="8240" width="233" height="1263"/>
          <g>
           <defs>
            <linearGradient id="gradient4" x1="12733" y1="8870" x2="12926" y2="8870" gradientUnits="userSpaceOnUse">
             <stop offset="0.1" style="stop-color:rgb(51,51,51)"/>
             <stop offset="1" style="stop-color:rgb(153,153,153)"/>
            </linearGradient>
           </defs>
           <path style="fill:url(#gradient4)" d="M 12733,9370 L 12733,8260 12925,8371 12925,9481 12733,9370 Z"/>
          </g>
          <path fill="none" stroke="rgb(178,178,178)" stroke-width="40" stroke-linejoin="round" d="M 12733,9370 L 12733,8260 12925,8371 12925,9481 12733,9370 Z"/>
         </g>
        </g>
        <g class="com.sun.star.drawing.PolyPolygonShape">
         <g id="id20">
          <rect class="BoundingBox" stroke="none" fill="none" x="9162" y="4634" width="6472" height="4868"/>
          <path fill="none" stroke="rgb(0,0,0)" stroke-width="40" stroke-linejoin="round" d="M 9182,7317 L 9182,6207 9374,6318 12253,4654 15613,6596 15613,7705 12925,9259 12925,9481 9182,7317 Z"/>
         </g>
        </g>
       </g>
      </g>
      <g class="Group">
       <g class="com.sun.star.drawing.ClosedBezierShape">
        <g id="id21">
         <rect class="BoundingBox" stroke="none" fill="none" x="13597" y="8452" width="885" height="678"/>
         <g>
          <defs>
           <pattern id="pattern2" x="13617" y="8472" width="845" height="637" patternUnits="userSpaceOnUse">
            <g transform="translate(-13617,-8472)">
             <path fill="rgb(0,115,188)" stroke="none" d="M 13616,8471 L 14462,8471 14462,9109 13616,9109 13616,8471 Z M 13451,8346 L 14289,8346 14289,8978 13451,8978 13451,8346 Z"/>
             <path fill="rgb(1,115,188)" stroke="none" d="M 13451,8346 L 14289,8346 14289,8978 13451,8978 13451,8346 Z M 13454,8349 L 14286,8349 14286,8975 13454,8975 13454,8349 Z"/>
             <path fill="rgb(2,116,188)" stroke="none" d="M 13454,8349 L 14286,8349 14286,8975 13454,8975 13454,8349 Z M 13458,8351 L 14282,8351 14282,8973 13458,8973 13458,8351 Z"/>
             <path fill="rgb(3,116,188)" stroke="none" d="M 13458,8351 L 14282,8351 14282,8973 13458,8973 13458,8351 Z M 13461,8354 L 14279,8354 14279,8970 13461,8970 13461,8354 Z"/>
             <path fill="rgb(4,117,189)" stroke="none" d="M 13461,8354 L 14279,8354 14279,8970 13461,8970 13461,8354 Z M 13464,8356 L 14276,8356 14276,8968 13464,8968 13464,8356 Z"/>
             <path fill="rgb(5,117,189)" stroke="none" d="M 13464,8356 L 14276,8356 14276,8968 13464,8968 13464,8356 Z M 13468,8359 L 14272,8359 14272,8965 13468,8965 13468,8359 Z"/>
             <path fill="rgb(6,118,189)" stroke="none" d="M 13468,8359 L 14272,8359 14272,8965 13468,8965 13468,8359 Z M 13471,8361 L 14269,8361 14269,8963 13471,8963 13471,8361 Z"/>
             <path fill="rgb(7,118,189)" stroke="none" d="M 13471,8361 L 14269,8361 14269,8963 13471,8963 13471,8361 Z M 13474,8364 L 14266,8364 14266,8960 13474,8960 13474,8364 Z"/>
             <path fill="rgb(8,119,190)" stroke="none" d="M 13474,8364 L 14266,8364 14266,8960 13474,8960 13474,8364 Z M 13478,8366 L 14262,8366 14262,8958 13478,8958 13478,8366 Z"/>
             <path fill="rgb(9,119,190)" stroke="none" d="M 13478,8366 L 14262,8366 14262,8958 13478,8958 13478,8366 Z M 13481,8369 L 14259,8369 14259,8955 13481,8955 13481,8369 Z"/>
             <path fill="rgb(10,120,190)" stroke="none" d="M 13481,8369 L 14259,8369 14259,8955 13481,8955 13481,8369 Z M 13484,8371 L 14256,8371 14256,8953 13484,8953 13484,8371 Z"/>
             <path fill="rgb(11,121,190)" stroke="none" d="M 13484,8371 L 14256,8371 14256,8953 13484,8953 13484,8371 Z M 13488,8374 L 14252,8374 14252,8950 13488,8950 13488,8374 Z"/>
             <path fill="rgb(12,121,191)" stroke="none" d="M 13488,8374 L 14252,8374 14252,8950 13488,8950 13488,8374 Z M 13491,8376 L 14249,8376 14249,8948 13491,8948 13491,8376 Z"/>
             <path fill="rgb(13,122,191)" stroke="none" d="M 13491,8376 L 14249,8376 14249,8948 13491,8948 13491,8376 Z M 13494,8379 L 14246,8379 14246,8945 13494,8945 13494,8379 Z"/>
             <path fill="rgb(14,122,191)" stroke="none" d="M 13494,8379 L 14246,8379 14246,8945 13494,8945 13494,8379 Z M 13498,8381 L 14242,8381 14242,8943 13498,8943 13498,8381 Z"/>
             <path fill="rgb(15,123,191)" stroke="none" d="M 13498,8381 L 14242,8381 14242,8943 13498,8943 13498,8381 Z M 13501,8384 L 14239,8384 14239,8940 13501,8940 13501,8384 Z"/>
             <path fill="rgb(16,123,192)" stroke="none" d="M 13501,8384 L 14239,8384 14239,8940 13501,8940 13501,8384 Z M 13504,8386 L 14236,8386 14236,8938 13504,8938 13504,8386 Z"/>
             <path fill="rgb(17,124,192)" stroke="none" d="M 13504,8386 L 14236,8386 14236,8938 13504,8938 13504,8386 Z M 13508,8389 L 14232,8389 14232,8935 13508,8935 13508,8389 Z"/>
             <path fill="rgb(18,124,192)" stroke="none" d="M 13508,8389 L 14232,8389 14232,8935 13508,8935 13508,8389 Z M 13511,8391 L 14229,8391 14229,8933 13511,8933 13511,8391 Z"/>
             <path fill="rgb(19,125,192)" stroke="none" d="M 13511,8391 L 14229,8391 14229,8933 13511,8933 13511,8391 Z M 13514,8394 L 14226,8394 14226,8930 13514,8930 13514,8394 Z"/>
             <path fill="rgb(20,126,193)" stroke="none" d="M 13514,8394 L 14226,8394 14226,8930 13514,8930 13514,8394 Z M 13518,8396 L 14222,8396 14222,8928 13518,8928 13518,8396 Z"/>
             <path fill="rgb(21,126,193)" stroke="none" d="M 13518,8396 L 14222,8396 14222,8928 13518,8928 13518,8396 Z M 13521,8399 L 14219,8399 14219,8925 13521,8925 13521,8399 Z"/>
             <path fill="rgb(22,127,193)" stroke="none" d="M 13521,8399 L 14219,8399 14219,8925 13521,8925 13521,8399 Z M 13524,8401 L 14216,8401 14216,8923 13524,8923 13524,8401 Z"/>
             <path fill="rgb(23,127,193)" stroke="none" d="M 13524,8401 L 14216,8401 14216,8923 13524,8923 13524,8401 Z M 13528,8404 L 14212,8404 14212,8920 13528,8920 13528,8404 Z"/>
             <path fill="rgb(24,128,194)" stroke="none" d="M 13528,8404 L 14212,8404 14212,8920 13528,8920 13528,8404 Z M 13531,8406 L 14209,8406 14209,8918 13531,8918 13531,8406 Z"/>
             <path fill="rgb(25,128,194)" stroke="none" d="M 13531,8406 L 14209,8406 14209,8918 13531,8918 13531,8406 Z M 13534,8409 L 14206,8409 14206,8915 13534,8915 13534,8409 Z"/>
             <path fill="rgb(26,129,194)" stroke="none" d="M 13534,8409 L 14206,8409 14206,8915 13534,8915 13534,8409 Z M 13538,8411 L 14202,8411 14202,8913 13538,8913 13538,8411 Z"/>
             <path fill="rgb(27,129,195)" stroke="none" d="M 13538,8411 L 14202,8411 14202,8913 13538,8913 13538,8411 Z M 13541,8414 L 14199,8414 14199,8910 13541,8910 13541,8414 Z"/>
             <path fill="rgb(28,130,195)" stroke="none" d="M 13541,8414 L 14199,8414 14199,8910 13541,8910 13541,8414 Z M 13544,8416 L 14196,8416 14196,8908 13544,8908 13544,8416 Z"/>
             <path fill="rgb(29,130,195)" stroke="none" d="M 13544,8416 L 14196,8416 14196,8908 13544,8908 13544,8416 Z M 13548,8419 L 14192,8419 14192,8905 13548,8905 13548,8419 Z"/>
             <path fill="rgb(30,131,195)" stroke="none" d="M 13548,8419 L 14192,8419 14192,8905 13548,8905 13548,8419 Z M 13551,8421 L 14189,8421 14189,8903 13551,8903 13551,8421 Z"/>
             <path fill="rgb(31,132,196)" stroke="none" d="M 13551,8421 L 14189,8421 14189,8903 13551,8903 13551,8421 Z M 13554,8424 L 14186,8424 14186,8900 13554,8900 13554,8424 Z"/>
             <path fill="rgb(32,132,196)" stroke="none" d="M 13554,8424 L 14186,8424 14186,8900 13554,8900 13554,8424 Z M 13558,8427 L 14182,8427 14182,8897 13558,8897 13558,8427 Z"/>
             <path fill="rgb(33,133,196)" stroke="none" d="M 13558,8427 L 14182,8427 14182,8897 13558,8897 13558,8427 Z M 13561,8429 L 14179,8429 14179,8895 13561,8895 13561,8429 Z"/>
             <path fill="rgb(34,133,196)" stroke="none" d="M 13561,8429 L 14179,8429 14179,8895 13561,8895 13561,8429 Z M 13564,8432 L 14176,8432 14176,8892 13564,8892 13564,8432 Z"/>
             <path fill="rgb(35,134,197)" stroke="none" d="M 13564,8432 L 14176,8432 14176,8892 13564,8892 13564,8432 Z M 13568,8434 L 14172,8434 14172,8890 13568,8890 13568,8434 Z"/>
             <path fill="rgb(36,134,197)" stroke="none" d="M 13568,8434 L 14172,8434 14172,8890 13568,8890 13568,8434 Z M 13571,8437 L 14169,8437 14169,8887 13571,8887 13571,8437 Z"/>
             <path fill="rgb(37,135,197)" stroke="none" d="M 13571,8437 L 14169,8437 14169,8887 13571,8887 13571,8437 Z M 13574,8439 L 14166,8439 14166,8885 13574,8885 13574,8439 Z"/>
             <path fill="rgb(38,135,197)" stroke="none" d="M 13574,8439 L 14166,8439 14166,8885 13574,8885 13574,8439 Z M 13578,8442 L 14162,8442 14162,8882 13578,8882 13578,8442 Z"/>
             <path fill="rgb(39,136,198)" stroke="none" d="M 13578,8442 L 14162,8442 14162,8882 13578,8882 13578,8442 Z M 13581,8444 L 14159,8444 14159,8880 13581,8880 13581,8444 Z"/>
             <path fill="rgb(40,137,198)" stroke="none" d="M 13581,8444 L 14159,8444 14159,8880 13581,8880 13581,8444 Z M 13584,8447 L 14156,8447 14156,8877 13584,8877 13584,8447 Z"/>
             <path fill="rgb(41,137,198)" stroke="none" d="M 13584,8447 L 14156,8447 14156,8877 13584,8877 13584,8447 Z M 13588,8449 L 14152,8449 14152,8875 13588,8875 13588,8449 Z"/>
             <path fill="rgb(42,138,198)" stroke="none" d="M 13588,8449 L 14152,8449 14152,8875 13588,8875 13588,8449 Z M 13591,8452 L 14149,8452 14149,8872 13591,8872 13591,8452 Z"/>
             <path fill="rgb(43,138,199)" stroke="none" d="M 13591,8452 L 14149,8452 14149,8872 13591,8872 13591,8452 Z M 13594,8453 L 14146,8453 14146,8870 13594,8870 13594,8453 Z"/>
             <path fill="rgb(44,139,199)" stroke="none" d="M 13594,8453 L 14146,8453 14146,8870 13594,8870 13594,8453 Z M 13597,8456 L 14142,8456 14142,8867 13597,8867 13597,8456 Z"/>
             <path fill="rgb(45,139,199)" stroke="none" d="M 13597,8456 L 14142,8456 14142,8867 13597,8867 13597,8456 Z M 13600,8458 L 14139,8458 14139,8865 13600,8865 13600,8458 Z"/>
             <path fill="rgb(46,140,199)" stroke="none" d="M 13600,8458 L 14139,8458 14139,8865 13600,8865 13600,8458 Z M 13603,8461 L 14136,8461 14136,8862 13603,8862 13603,8461 Z"/>
             <path fill="rgb(47,140,200)" stroke="none" d="M 13603,8461 L 14136,8461 14136,8862 13603,8862 13603,8461 Z M 13607,8463 L 14132,8463 14132,8860 13607,8860 13607,8463 Z"/>
             <path fill="rgb(48,141,200)" stroke="none" d="M 13607,8463 L 14132,8463 14132,8860 13607,8860 13607,8463 Z M 13610,8466 L 14129,8466 14129,8857 13610,8857 13610,8466 Z"/>
             <path fill="rgb(49,142,200)" stroke="none" d="M 13610,8466 L 14129,8466 14129,8857 13610,8857 13610,8466 Z M 13613,8468 L 14126,8468 14126,8855 13613,8855 13613,8468 Z"/>
             <path fill="rgb(50,142,200)" stroke="none" d="M 13613,8468 L 14126,8468 14126,8855 13613,8855 13613,8468 Z M 13617,8471 L 14122,8471 14122,8852 13617,8852 13617,8471 Z"/>
             <path fill="rgb(51,143,201)" stroke="none" d="M 13617,8471 L 14122,8471 14122,8852 13617,8852 13617,8471 Z M 13620,8473 L 14119,8473 14119,8850 13620,8850 13620,8473 Z"/>
             <path fill="rgb(52,143,201)" stroke="none" d="M 13620,8473 L 14119,8473 14119,8850 13620,8850 13620,8473 Z M 13623,8476 L 14116,8476 14116,8847 13623,8847 13623,8476 Z"/>
             <path fill="rgb(53,144,201)" stroke="none" d="M 13623,8476 L 14116,8476 14116,8847 13623,8847 13623,8476 Z M 13627,8478 L 14112,8478 14112,8845 13627,8845 13627,8478 Z"/>
             <path fill="rgb(54,144,202)" stroke="none" d="M 13627,8478 L 14112,8478 14112,8845 13627,8845 13627,8478 Z M 13630,8481 L 14109,8481 14109,8842 13630,8842 13630,8481 Z"/>
             <path fill="rgb(55,145,202)" stroke="none" d="M 13630,8481 L 14109,8481 14109,8842 13630,8842 13630,8481 Z M 13633,8483 L 14106,8483 14106,8840 13633,8840 13633,8483 Z"/>
             <path fill="rgb(56,145,202)" stroke="none" d="M 13633,8483 L 14106,8483 14106,8840 13633,8840 13633,8483 Z M 13637,8486 L 14102,8486 14102,8837 13637,8837 13637,8486 Z"/>
             <path fill="rgb(57,146,202)" stroke="none" d="M 13637,8486 L 14102,8486 14102,8837 13637,8837 13637,8486 Z M 13640,8488 L 14099,8488 14099,8835 13640,8835 13640,8488 Z"/>
             <path fill="rgb(58,146,203)" stroke="none" d="M 13640,8488 L 14099,8488 14099,8835 13640,8835 13640,8488 Z M 13643,8491 L 14096,8491 14096,8832 13643,8832 13643,8491 Z"/>
             <path fill="rgb(59,147,203)" stroke="none" d="M 13643,8491 L 14096,8491 14096,8832 13643,8832 13643,8491 Z M 13647,8493 L 14092,8493 14092,8830 13647,8830 13647,8493 Z"/>
             <path fill="rgb(60,148,203)" stroke="none" d="M 13647,8493 L 14092,8493 14092,8830 13647,8830 13647,8493 Z M 13650,8496 L 14089,8496 14089,8827 13650,8827 13650,8496 Z"/>
             <path fill="rgb(61,148,203)" stroke="none" d="M 13650,8496 L 14089,8496 14089,8827 13650,8827 13650,8496 Z M 13653,8498 L 14086,8498 14086,8825 13653,8825 13653,8498 Z"/>
             <path fill="rgb(62,149,204)" stroke="none" d="M 13653,8498 L 14086,8498 14086,8825 13653,8825 13653,8498 Z M 13657,8501 L 14082,8501 14082,8822 13657,8822 13657,8501 Z"/>
             <path fill="rgb(63,149,204)" stroke="none" d="M 13657,8501 L 14082,8501 14082,8822 13657,8822 13657,8501 Z M 13660,8504 L 14079,8504 14079,8819 13660,8819 13660,8504 Z"/>
             <path fill="rgb(64,150,204)" stroke="none" d="M 13660,8504 L 14079,8504 14079,8819 13660,8819 13660,8504 Z M 13663,8506 L 14076,8506 14076,8817 13663,8817 13663,8506 Z"/>
             <path fill="rgb(65,150,204)" stroke="none" d="M 13663,8506 L 14076,8506 14076,8817 13663,8817 13663,8506 Z M 13667,8509 L 14072,8509 14072,8814 13667,8814 13667,8509 Z"/>
             <path fill="rgb(66,151,205)" stroke="none" d="M 13667,8509 L 14072,8509 14072,8814 13667,8814 13667,8509 Z M 13670,8511 L 14069,8511 14069,8812 13670,8812 13670,8511 Z"/>
             <path fill="rgb(67,151,205)" stroke="none" d="M 13670,8511 L 14069,8511 14069,8812 13670,8812 13670,8511 Z M 13673,8514 L 14066,8514 14066,8809 13673,8809 13673,8514 Z"/>
             <path fill="rgb(68,152,205)" stroke="none" d="M 13673,8514 L 14066,8514 14066,8809 13673,8809 13673,8514 Z M 13677,8516 L 14062,8516 14062,8807 13677,8807 13677,8516 Z"/>
             <path fill="rgb(69,153,205)" stroke="none" d="M 13677,8516 L 14062,8516 14062,8807 13677,8807 13677,8516 Z M 13680,8519 L 14059,8519 14059,8804 13680,8804 13680,8519 Z"/>
             <path fill="rgb(70,153,206)" stroke="none" d="M 13680,8519 L 14059,8519 14059,8804 13680,8804 13680,8519 Z M 13683,8521 L 14056,8521 14056,8802 13683,8802 13683,8521 Z"/>
             <path fill="rgb(71,154,206)" stroke="none" d="M 13683,8521 L 14056,8521 14056,8802 13683,8802 13683,8521 Z M 13687,8524 L 14052,8524 14052,8799 13687,8799 13687,8524 Z"/>
             <path fill="rgb(72,154,206)" stroke="none" d="M 13687,8524 L 14052,8524 14052,8799 13687,8799 13687,8524 Z M 13690,8526 L 14049,8526 14049,8797 13690,8797 13690,8526 Z"/>
             <path fill="rgb(73,155,206)" stroke="none" d="M 13690,8526 L 14049,8526 14049,8797 13690,8797 13690,8526 Z M 13693,8529 L 14046,8529 14046,8794 13693,8794 13693,8529 Z"/>
             <path fill="rgb(74,155,207)" stroke="none" d="M 13693,8529 L 14046,8529 14046,8794 13693,8794 13693,8529 Z M 13697,8531 L 14042,8531 14042,8792 13697,8792 13697,8531 Z"/>
             <path fill="rgb(75,156,207)" stroke="none" d="M 13697,8531 L 14042,8531 14042,8792 13697,8792 13697,8531 Z M 13700,8534 L 14039,8534 14039,8789 13700,8789 13700,8534 Z"/>
             <path fill="rgb(76,156,207)" stroke="none" d="M 13700,8534 L 14039,8534 14039,8789 13700,8789 13700,8534 Z M 13703,8536 L 14036,8536 14036,8787 13703,8787 13703,8536 Z"/>
             <path fill="rgb(77,157,208)" stroke="none" d="M 13703,8536 L 14036,8536 14036,8787 13703,8787 13703,8536 Z M 13707,8539 L 14032,8539 14032,8784 13707,8784 13707,8539 Z"/>
             <path fill="rgb(78,157,208)" stroke="none" d="M 13707,8539 L 14032,8539 14032,8784 13707,8784 13707,8539 Z M 13710,8541 L 14029,8541 14029,8782 13710,8782 13710,8541 Z"/>
             <path fill="rgb(79,158,208)" stroke="none" d="M 13710,8541 L 14029,8541 14029,8782 13710,8782 13710,8541 Z M 13713,8544 L 14026,8544 14026,8779 13713,8779 13713,8544 Z"/>
             <path fill="rgb(80,159,208)" stroke="none" d="M 13713,8544 L 14026,8544 14026,8779 13713,8779 13713,8544 Z M 13717,8546 L 14022,8546 14022,8777 13717,8777 13717,8546 Z"/>
             <path fill="rgb(81,159,209)" stroke="none" d="M 13717,8546 L 14022,8546 14022,8777 13717,8777 13717,8546 Z M 13720,8549 L 14019,8549 14019,8774 13720,8774 13720,8549 Z"/>
             <path fill="rgb(82,160,209)" stroke="none" d="M 13720,8549 L 14019,8549 14019,8774 13720,8774 13720,8549 Z M 13723,8551 L 14016,8551 14016,8772 13723,8772 13723,8551 Z"/>
             <path fill="rgb(83,160,209)" stroke="none" d="M 13723,8551 L 14016,8551 14016,8772 13723,8772 13723,8551 Z M 13727,8554 L 14012,8554 14012,8769 13727,8769 13727,8554 Z"/>
             <path fill="rgb(84,161,209)" stroke="none" d="M 13727,8554 L 14012,8554 14012,8769 13727,8769 13727,8554 Z M 13730,8556 L 14009,8556 14009,8767 13730,8767 13730,8556 Z"/>
             <path fill="rgb(85,161,210)" stroke="none" d="M 13730,8556 L 14009,8556 14009,8767 13730,8767 13730,8556 Z M 13733,8559 L 14006,8559 14006,8764 13733,8764 13733,8559 Z"/>
             <path fill="rgb(86,162,210)" stroke="none" d="M 13733,8559 L 14006,8559 14006,8764 13733,8764 13733,8559 Z M 13737,8561 L 14002,8561 14002,8762 13737,8762 13737,8561 Z"/>
             <path fill="rgb(87,162,210)" stroke="none" d="M 13737,8561 L 14002,8561 14002,8762 13737,8762 13737,8561 Z M 13740,8564 L 13999,8564 13999,8759 13740,8759 13740,8564 Z"/>
             <path fill="rgb(88,163,210)" stroke="none" d="M 13740,8564 L 13999,8564 13999,8759 13740,8759 13740,8564 Z M 13743,8566 L 13996,8566 13996,8757 13743,8757 13743,8566 Z"/>
             <path fill="rgb(89,164,211)" stroke="none" d="M 13743,8566 L 13996,8566 13996,8757 13743,8757 13743,8566 Z M 13747,8569 L 13992,8569 13992,8754 13747,8754 13747,8569 Z"/>
             <path fill="rgb(90,164,211)" stroke="none" d="M 13747,8569 L 13992,8569 13992,8754 13747,8754 13747,8569 Z M 13750,8571 L 13989,8571 13989,8752 13750,8752 13750,8571 Z"/>
             <path fill="rgb(91,165,211)" stroke="none" d="M 13750,8571 L 13989,8571 13989,8752 13750,8752 13750,8571 Z M 13753,8574 L 13986,8574 13986,8749 13753,8749 13753,8574 Z"/>
             <path fill="rgb(92,165,211)" stroke="none" d="M 13753,8574 L 13986,8574 13986,8749 13753,8749 13753,8574 Z M 13757,8576 L 13982,8576 13982,8747 13757,8747 13757,8576 Z"/>
             <path fill="rgb(93,166,212)" stroke="none" d="M 13757,8576 L 13982,8576 13982,8747 13757,8747 13757,8576 Z M 13760,8579 L 13979,8579 13979,8744 13760,8744 13760,8579 Z"/>
             <path fill="rgb(94,166,212)" stroke="none" d="M 13760,8579 L 13979,8579 13979,8744 13760,8744 13760,8579 Z M 13763,8581 L 13976,8581 13976,8742 13763,8742 13763,8581 Z"/>
             <path fill="rgb(95,167,212)" stroke="none" d="M 13763,8581 L 13976,8581 13976,8742 13763,8742 13763,8581 Z M 13767,8584 L 13972,8584 13972,8739 13767,8739 13767,8584 Z"/>
             <path fill="rgb(96,167,212)" stroke="none" d="M 13767,8584 L 13972,8584 13972,8739 13767,8739 13767,8584 Z M 13770,8587 L 13969,8587 13969,8736 13770,8736 13770,8587 Z"/>
             <path fill="rgb(97,168,213)" stroke="none" d="M 13770,8587 L 13969,8587 13969,8736 13770,8736 13770,8587 Z M 13773,8589 L 13966,8589 13966,8734 13773,8734 13773,8589 Z"/>
             <path fill="rgb(98,169,213)" stroke="none" d="M 13773,8589 L 13966,8589 13966,8734 13773,8734 13773,8589 Z M 13777,8592 L 13962,8592 13962,8731 13777,8731 13777,8592 Z"/>
             <path fill="rgb(99,169,213)" stroke="none" d="M 13777,8592 L 13962,8592 13962,8731 13777,8731 13777,8592 Z M 13780,8594 L 13959,8594 13959,8729 13780,8729 13780,8594 Z"/>
             <path fill="rgb(100,170,213)" stroke="none" d="M 13780,8594 L 13959,8594 13959,8729 13780,8729 13780,8594 Z M 13783,8597 L 13956,8597 13956,8726 13783,8726 13783,8597 Z"/>
             <path fill="rgb(101,170,214)" stroke="none" d="M 13783,8597 L 13956,8597 13956,8726 13783,8726 13783,8597 Z M 13787,8599 L 13952,8599 13952,8724 13787,8724 13787,8599 Z"/>
             <path fill="rgb(102,171,214)" stroke="none" d="M 13787,8599 L 13952,8599 13952,8724 13787,8724 13787,8599 Z M 13790,8602 L 13949,8602 13949,8721 13790,8721 13790,8602 Z"/>
             <path fill="rgb(103,171,214)" stroke="none" d="M 13790,8602 L 13949,8602 13949,8721 13790,8721 13790,8602 Z M 13793,8604 L 13946,8604 13946,8719 13793,8719 13793,8604 Z"/>
             <path fill="rgb(104,172,215)" stroke="none" d="M 13793,8604 L 13946,8604 13946,8719 13793,8719 13793,8604 Z M 13797,8607 L 13942,8607 13942,8716 13797,8716 13797,8607 Z"/>
             <path fill="rgb(105,172,215)" stroke="none" d="M 13797,8607 L 13942,8607 13942,8716 13797,8716 13797,8607 Z M 13800,8609 L 13939,8609 13939,8714 13800,8714 13800,8609 Z"/>
             <path fill="rgb(106,173,215)" stroke="none" d="M 13800,8609 L 13939,8609 13939,8714 13800,8714 13800,8609 Z M 13803,8612 L 13936,8612 13936,8711 13803,8711 13803,8612 Z"/>
             <path fill="rgb(107,173,215)" stroke="none" d="M 13803,8612 L 13936,8612 13936,8711 13803,8711 13803,8612 Z M 13807,8614 L 13932,8614 13932,8709 13807,8709 13807,8614 Z"/>
             <path fill="rgb(108,174,216)" stroke="none" d="M 13807,8614 L 13932,8614 13932,8709 13807,8709 13807,8614 Z M 13810,8617 L 13929,8617 13929,8706 13810,8706 13810,8617 Z"/>
             <path fill="rgb(109,175,216)" stroke="none" d="M 13810,8617 L 13929,8617 13929,8706 13810,8706 13810,8617 Z M 13813,8619 L 13926,8619 13926,8704 13813,8704 13813,8619 Z"/>
             <path fill="rgb(110,175,216)" stroke="none" d="M 13813,8619 L 13926,8619 13926,8704 13813,8704 13813,8619 Z M 13817,8622 L 13922,8622 13922,8701 13817,8701 13817,8622 Z"/>
             <path fill="rgb(111,176,216)" stroke="none" d="M 13817,8622 L 13922,8622 13922,8701 13817,8701 13817,8622 Z M 13820,8624 L 13919,8624 13919,8699 13820,8699 13820,8624 Z"/>
             <path fill="rgb(112,176,217)" stroke="none" d="M 13820,8624 L 13919,8624 13919,8699 13820,8699 13820,8624 Z M 13823,8627 L 13916,8627 13916,8696 13823,8696 13823,8627 Z"/>
             <path fill="rgb(113,177,217)" stroke="none" d="M 13823,8627 L 13916,8627 13916,8696 13823,8696 13823,8627 Z M 13827,8629 L 13912,8629 13912,8694 13827,8694 13827,8629 Z"/>
             <path fill="rgb(114,177,217)" stroke="none" d="M 13827,8629 L 13912,8629 13912,8694 13827,8694 13827,8629 Z M 13830,8632 L 13909,8632 13909,8691 13830,8691 13830,8632 Z"/>
             <path fill="rgb(115,178,217)" stroke="none" d="M 13830,8632 L 13909,8632 13909,8691 13830,8691 13830,8632 Z M 13833,8634 L 13906,8634 13906,8689 13833,8689 13833,8634 Z"/>
             <path fill="rgb(116,178,218)" stroke="none" d="M 13833,8634 L 13906,8634 13906,8689 13833,8689 13833,8634 Z M 13837,8637 L 13902,8637 13902,8686 13837,8686 13837,8637 Z"/>
             <path fill="rgb(117,179,218)" stroke="none" d="M 13837,8637 L 13902,8637 13902,8686 13837,8686 13837,8637 Z M 13840,8639 L 13899,8639 13899,8684 13840,8684 13840,8639 Z"/>
             <path fill="rgb(118,180,218)" stroke="none" d="M 13840,8639 L 13899,8639 13899,8684 13840,8684 13840,8639 Z M 13843,8642 L 13896,8642 13896,8681 13843,8681 13843,8642 Z"/>
             <path fill="rgb(119,180,218)" stroke="none" d="M 13843,8642 L 13896,8642 13896,8681 13843,8681 13843,8642 Z M 13847,8644 L 13892,8644 13892,8679 13847,8679 13847,8644 Z"/>
             <path fill="rgb(120,181,219)" stroke="none" d="M 13847,8644 L 13892,8644 13892,8679 13847,8679 13847,8644 Z M 13850,8647 L 13889,8647 13889,8676 13850,8676 13850,8647 Z"/>
             <path fill="rgb(121,181,219)" stroke="none" d="M 13850,8647 L 13889,8647 13889,8676 13850,8676 13850,8647 Z M 13853,8649 L 13886,8649 13886,8674 13853,8674 13853,8649 Z"/>
             <path fill="rgb(122,182,219)" stroke="none" d="M 13853,8649 L 13886,8649 13886,8674 13853,8674 13853,8649 Z M 13857,8652 L 13882,8652 13882,8671 13857,8671 13857,8652 Z"/>
             <path fill="rgb(123,182,219)" stroke="none" d="M 13857,8652 L 13882,8652 13882,8671 13857,8671 13857,8652 Z M 13860,8654 L 13879,8654 13879,8669 13860,8669 13860,8654 Z"/>
             <path fill="rgb(124,183,220)" stroke="none" d="M 13860,8654 L 13879,8654 13879,8669 13860,8669 13860,8654 Z M 13863,8657 L 13876,8657 13876,8666 13863,8666 13863,8657 Z"/>
             <path fill="rgb(125,183,220)" stroke="none" d="M 13863,8657 L 13876,8657 13876,8666 13863,8666 13863,8657 Z M 13867,8659 L 13872,8659 13872,8664 13867,8664 13867,8659 Z"/>
             <path fill="rgb(127,185,221)" stroke="none" d="M 13867,8659 L 13872,8659 13872,8664 13867,8664 13867,8659 Z"/>
            </g>
           </pattern>
          </defs>
          <path style="fill:url(#pattern2)" d="M 14033,8472 L 14098,8475 14156,8483 14208,8495 14254,8512 14294,8533 14329,8558 14359,8586 14384,8617 14405,8650 14422,8686 14435,8723 14445,8761 14453,8801 14457,8841 14461,8921 14434,8947 14399,8973 14357,8998 14310,9022 14258,9044 14201,9063 14142,9079 14080,9093 14018,9102 13954,9107 13892,9108 13830,9103 13772,9092 13716,9076 13665,9052 13641,9038 13619,9022 13617,8982 13618,8939 13621,8894 13626,8849 13635,8803 13647,8757 13663,8712 13683,8669 13708,8629 13737,8591 13772,8558 13812,8529 13857,8505 13909,8487 13967,8476 14033,8472 Z"/>
         </g>
         <path fill="none" stroke="rgb(255,255,255)" stroke-width="40" stroke-linejoin="round" d="M 14033,8472 C 14400,8472 14461,8709 14461,8921 14339,9062 13850,9204 13619,9022 13606,8815 13667,8472 14033,8472 Z"/>
        </g>
       </g>
       <g class="com.sun.star.drawing.ClosedBezierShape">
        <g id="id22">
         <rect class="BoundingBox" stroke="none" fill="none" x="14014" y="8558" width="224" height="501"/>
         <path fill="rgb(255,255,255)" stroke="none" d="M 14034,8613 C 14075,8590 14177,8602 14217,8578 14217,8719 14217,9037 14217,9037 14217,8877 14075,8731 14034,8613 Z"/>
         <path fill="none" stroke="rgb(255,255,255)" stroke-width="40" stroke-linejoin="round" d="M 14034,8613 C 14075,8590 14177,8602 14217,8578 14217,8719 14217,9037 14217,9037 14217,8877 14075,8731 14034,8613 Z"/>
        </g>
       </g>
       <g class="com.sun.star.drawing.ClosedBezierShape">
        <g id="id23">
         <rect class="BoundingBox" stroke="none" fill="none" x="13935" y="8240" width="319" height="425"/>
         <path fill="rgb(249,180,96)" stroke="none" d="M 14077,8260 C 14181,8260 14214,8389 14214,8459 14214,8530 14278,8613 14170,8636 14063,8659 13955,8632 13955,8472 13955,8312 13973,8260 14077,8260 Z"/>
         <path fill="none" stroke="rgb(255,255,255)" stroke-width="40" stroke-linejoin="round" d="M 14077,8260 C 14181,8260 14214,8389 14214,8459 14214,8530 14278,8613 14170,8636 14063,8659 13955,8632 13955,8472 13955,8312 13973,8260 14077,8260 Z"/>
        </g>
       </g>
       <g class="com.sun.star.drawing.ClosedBezierShape">
        <g id="id24">
         <rect class="BoundingBox" stroke="none" fill="none" x="13952" y="7922" width="469" height="607"/>
         <g>
          <defs>
           <pattern id="pattern3" x="13972" y="7943" width="429" height="566" patternUnits="userSpaceOnUse">
            <g transform="translate(-13972,-7943)">
             <path fill="rgb(251,201,142)" stroke="none" d="M 13971,7942 L 14401,7942 14401,8509 13971,8509 13971,7942 Z M 13888,7832 L 14312,7832 14312,8391 13888,8391 13888,7832 Z"/>
             <path fill="rgb(251,201,143)" stroke="none" d="M 13888,7832 L 14312,7832 14312,8391 13888,8391 13888,7832 Z M 13890,7835 L 14310,7835 14310,8388 13890,8388 13890,7835 Z"/>
             <path fill="rgb(251,201,144)" stroke="none" d="M 13890,7835 L 14310,7835 14310,8388 13890,8388 13890,7835 Z M 13893,7838 L 14307,7838 14307,8385 13893,8385 13893,7838 Z"/>
             <path fill="rgb(251,202,145)" stroke="none" d="M 13893,7838 L 14307,7838 14307,8385 13893,8385 13893,7838 Z M 13895,7841 L 14305,7841 14305,8382 13895,8382 13895,7841 Z"/>
             <path fill="rgb(251,202,146)" stroke="none" d="M 13895,7841 L 14305,7841 14305,8382 13895,8382 13895,7841 Z M 13897,7844 L 14303,7844 14303,8379 13897,8379 13897,7844 Z"/>
             <path fill="rgb(251,203,147)" stroke="none" d="M 13897,7844 L 14303,7844 14303,8379 13897,8379 13897,7844 Z M 13900,7847 L 14300,7847 14300,8376 13900,8376 13900,7847 Z"/>
             <path fill="rgb(251,203,148)" stroke="none" d="M 13900,7847 L 14300,7847 14300,8376 13900,8376 13900,7847 Z M 13902,7851 L 14298,7851 14298,8372 13902,8372 13902,7851 Z"/>
             <path fill="rgb(251,204,149)" stroke="none" d="M 13902,7851 L 14298,7851 14298,8372 13902,8372 13902,7851 Z M 13905,7854 L 14295,7854 14295,8369 13905,8369 13905,7854 Z"/>
             <path fill="rgb(251,204,150)" stroke="none" d="M 13905,7854 L 14295,7854 14295,8369 13905,8369 13905,7854 Z M 13907,7857 L 14293,7857 14293,8366 13907,8366 13907,7857 Z"/>
             <path fill="rgb(251,205,151)" stroke="none" d="M 13907,7857 L 14293,7857 14293,8366 13907,8366 13907,7857 Z M 13909,7860 L 14291,7860 14291,8363 13909,8363 13909,7860 Z"/>
             <path fill="rgb(251,205,152)" stroke="none" d="M 13909,7860 L 14291,7860 14291,8363 13909,8363 13909,7860 Z M 13912,7863 L 14288,7863 14288,8360 13912,8360 13912,7863 Z"/>
             <path fill="rgb(251,206,153)" stroke="none" d="M 13912,7863 L 14288,7863 14288,8360 13912,8360 13912,7863 Z M 13914,7866 L 14286,7866 14286,8357 13914,8357 13914,7866 Z"/>
             <path fill="rgb(251,206,154)" stroke="none" d="M 13914,7866 L 14286,7866 14286,8357 13914,8357 13914,7866 Z M 13917,7870 L 14283,7870 14283,8353 13917,8353 13917,7870 Z"/>
             <path fill="rgb(251,207,155)" stroke="none" d="M 13917,7870 L 14283,7870 14283,8353 13917,8353 13917,7870 Z M 13919,7873 L 14281,7873 14281,8350 13919,8350 13919,7873 Z"/>
             <path fill="rgb(251,207,156)" stroke="none" d="M 13919,7873 L 14281,7873 14281,8350 13919,8350 13919,7873 Z M 13921,7876 L 14279,7876 14279,8347 13921,8347 13921,7876 Z"/>
             <path fill="rgb(251,208,157)" stroke="none" d="M 13921,7876 L 14279,7876 14279,8347 13921,8347 13921,7876 Z M 13924,7879 L 14276,7879 14276,8344 13924,8344 13924,7879 Z"/>
             <path fill="rgb(251,208,158)" stroke="none" d="M 13924,7879 L 14276,7879 14276,8344 13924,8344 13924,7879 Z M 13926,7882 L 14274,7882 14274,8341 13926,8341 13926,7882 Z"/>
             <path fill="rgb(251,209,159)" stroke="none" d="M 13926,7882 L 14274,7882 14274,8341 13926,8341 13926,7882 Z M 13929,7885 L 14271,7885 14271,8338 13929,8338 13929,7885 Z"/>
             <path fill="rgb(251,209,160)" stroke="none" d="M 13929,7885 L 14271,7885 14271,8338 13929,8338 13929,7885 Z M 13931,7888 L 14269,7888 14269,8335 13931,8335 13931,7888 Z"/>
             <path fill="rgb(251,210,161)" stroke="none" d="M 13931,7888 L 14269,7888 14269,8335 13931,8335 13931,7888 Z M 13933,7892 L 14267,7892 14267,8331 13933,8331 13933,7892 Z"/>
             <path fill="rgb(251,210,162)" stroke="none" d="M 13933,7892 L 14267,7892 14267,8331 13933,8331 13933,7892 Z M 13936,7895 L 14264,7895 14264,8328 13936,8328 13936,7895 Z"/>
             <path fill="rgb(251,211,163)" stroke="none" d="M 13936,7895 L 14264,7895 14264,8328 13936,8328 13936,7895 Z M 13938,7898 L 14262,7898 14262,8325 13938,8325 13938,7898 Z"/>
             <path fill="rgb(251,211,164)" stroke="none" d="M 13938,7898 L 14262,7898 14262,8325 13938,8325 13938,7898 Z M 13941,7901 L 14259,7901 14259,8322 13941,8322 13941,7901 Z"/>
             <path fill="rgb(251,211,165)" stroke="none" d="M 13941,7901 L 14259,7901 14259,8322 13941,8322 13941,7901 Z M 13943,7904 L 14257,7904 14257,8319 13943,8319 13943,7904 Z"/>
             <path fill="rgb(251,212,166)" stroke="none" d="M 13943,7904 L 14257,7904 14257,8319 13943,8319 13943,7904 Z M 13945,7907 L 14255,7907 14255,8316 13945,8316 13945,7907 Z"/>
             <path fill="rgb(251,212,167)" stroke="none" d="M 13945,7907 L 14255,7907 14255,8316 13945,8316 13945,7907 Z M 13948,7911 L 14252,7911 14252,8312 13948,8312 13948,7911 Z"/>
             <path fill="rgb(251,213,168)" stroke="none" d="M 13948,7911 L 14252,7911 14252,8312 13948,8312 13948,7911 Z M 13950,7914 L 14250,7914 14250,8309 13950,8309 13950,7914 Z"/>
             <path fill="rgb(251,213,169)" stroke="none" d="M 13950,7914 L 14250,7914 14250,8309 13950,8309 13950,7914 Z M 13952,7917 L 14247,7917 14247,8306 13952,8306 13952,7917 Z"/>
             <path fill="rgb(251,214,170)" stroke="none" d="M 13952,7917 L 14247,7917 14247,8306 13952,8306 13952,7917 Z M 13954,7920 L 14245,7920 14245,8303 13954,8303 13954,7920 Z"/>
             <path fill="rgb(251,214,171)" stroke="none" d="M 13954,7920 L 14245,7920 14245,8303 13954,8303 13954,7920 Z M 13956,7922 L 14243,7922 14243,8300 13956,8300 13956,7922 Z"/>
             <path fill="rgb(252,215,172)" stroke="none" d="M 13956,7922 L 14243,7922 14243,8300 13956,8300 13956,7922 Z M 13959,7925 L 14240,7925 14240,8297 13959,8297 13959,7925 Z"/>
             <path fill="rgb(252,215,173)" stroke="none" d="M 13959,7925 L 14240,7925 14240,8297 13959,8297 13959,7925 Z M 13961,7928 L 14238,7928 14238,8294 13961,8294 13961,7928 Z"/>
             <path fill="rgb(252,216,174)" stroke="none" d="M 13961,7928 L 14238,7928 14238,8294 13961,8294 13961,7928 Z M 13964,7932 L 14235,7932 14235,8290 13964,8290 13964,7932 Z"/>
             <path fill="rgb(252,216,175)" stroke="none" d="M 13964,7932 L 14235,7932 14235,8290 13964,8290 13964,7932 Z M 13966,7935 L 14233,7935 14233,8287 13966,8287 13966,7935 Z"/>
             <path fill="rgb(252,217,176)" stroke="none" d="M 13966,7935 L 14233,7935 14233,8287 13966,8287 13966,7935 Z M 13968,7938 L 14231,7938 14231,8284 13968,8284 13968,7938 Z"/>
             <path fill="rgb(252,217,177)" stroke="none" d="M 13968,7938 L 14231,7938 14231,8284 13968,8284 13968,7938 Z M 13971,7941 L 14228,7941 14228,8281 13971,8281 13971,7941 Z"/>
             <path fill="rgb(252,218,178)" stroke="none" d="M 13971,7941 L 14228,7941 14228,8281 13971,8281 13971,7941 Z M 13973,7944 L 14226,7944 14226,8278 13973,8278 13973,7944 Z"/>
             <path fill="rgb(252,218,179)" stroke="none" d="M 13973,7944 L 14226,7944 14226,8278 13973,8278 13973,7944 Z M 13975,7947 L 14224,7947 14224,8275 13975,8275 13975,7947 Z"/>
             <path fill="rgb(252,219,180)" stroke="none" d="M 13975,7947 L 14224,7947 14224,8275 13975,8275 13975,7947 Z M 13978,7951 L 14221,7951 14221,8271 13978,8271 13978,7951 Z"/>
             <path fill="rgb(252,219,181)" stroke="none" d="M 13978,7951 L 14221,7951 14221,8271 13978,8271 13978,7951 Z M 13980,7954 L 14219,7954 14219,8268 13980,8268 13980,7954 Z"/>
             <path fill="rgb(252,220,182)" stroke="none" d="M 13980,7954 L 14219,7954 14219,8268 13980,8268 13980,7954 Z M 13983,7957 L 14216,7957 14216,8265 13983,8265 13983,7957 Z"/>
             <path fill="rgb(252,220,183)" stroke="none" d="M 13983,7957 L 14216,7957 14216,8265 13983,8265 13983,7957 Z M 13985,7960 L 14214,7960 14214,8262 13985,8262 13985,7960 Z"/>
             <path fill="rgb(252,221,184)" stroke="none" d="M 13985,7960 L 14214,7960 14214,8262 13985,8262 13985,7960 Z M 13987,7963 L 14212,7963 14212,8259 13987,8259 13987,7963 Z"/>
             <path fill="rgb(252,221,185)" stroke="none" d="M 13987,7963 L 14212,7963 14212,8259 13987,8259 13987,7963 Z M 13990,7966 L 14209,7966 14209,8256 13990,8256 13990,7966 Z"/>
             <path fill="rgb(252,222,186)" stroke="none" d="M 13990,7966 L 14209,7966 14209,8256 13990,8256 13990,7966 Z M 13992,7970 L 14207,7970 14207,8252 13992,8252 13992,7970 Z"/>
             <path fill="rgb(252,222,187)" stroke="none" d="M 13992,7970 L 14207,7970 14207,8252 13992,8252 13992,7970 Z M 13995,7973 L 14204,7973 14204,8249 13995,8249 13995,7973 Z"/>
             <path fill="rgb(252,222,188)" stroke="none" d="M 13995,7973 L 14204,7973 14204,8249 13995,8249 13995,7973 Z M 13997,7976 L 14202,7976 14202,8246 13997,8246 13997,7976 Z"/>
             <path fill="rgb(252,223,189)" stroke="none" d="M 13997,7976 L 14202,7976 14202,8246 13997,8246 13997,7976 Z M 13999,7979 L 14200,7979 14200,8243 13999,8243 13999,7979 Z"/>
             <path fill="rgb(252,223,190)" stroke="none" d="M 13999,7979 L 14200,7979 14200,8243 13999,8243 13999,7979 Z M 14002,7982 L 14197,7982 14197,8240 14002,8240 14002,7982 Z"/>
             <path fill="rgb(252,224,191)" stroke="none" d="M 14002,7982 L 14197,7982 14197,8240 14002,8240 14002,7982 Z M 14004,7985 L 14195,7985 14195,8237 14004,8237 14004,7985 Z"/>
             <path fill="rgb(252,224,192)" stroke="none" d="M 14004,7985 L 14195,7985 14195,8237 14004,8237 14004,7985 Z M 14007,7988 L 14192,7988 14192,8234 14007,8234 14007,7988 Z"/>
             <path fill="rgb(252,225,193)" stroke="none" d="M 14007,7988 L 14192,7988 14192,8234 14007,8234 14007,7988 Z M 14009,7992 L 14190,7992 14190,8230 14009,8230 14009,7992 Z"/>
             <path fill="rgb(252,225,194)" stroke="none" d="M 14009,7992 L 14190,7992 14190,8230 14009,8230 14009,7992 Z M 14011,7995 L 14188,7995 14188,8227 14011,8227 14011,7995 Z"/>
             <path fill="rgb(252,226,195)" stroke="none" d="M 14011,7995 L 14188,7995 14188,8227 14011,8227 14011,7995 Z M 14014,7998 L 14185,7998 14185,8224 14014,8224 14014,7998 Z"/>
             <path fill="rgb(252,226,196)" stroke="none" d="M 14014,7998 L 14185,7998 14185,8224 14014,8224 14014,7998 Z M 14016,8001 L 14183,8001 14183,8221 14016,8221 14016,8001 Z"/>
             <path fill="rgb(252,227,197)" stroke="none" d="M 14016,8001 L 14183,8001 14183,8221 14016,8221 14016,8001 Z M 14019,8004 L 14180,8004 14180,8218 14019,8218 14019,8004 Z"/>
             <path fill="rgb(252,227,198)" stroke="none" d="M 14019,8004 L 14180,8004 14180,8218 14019,8218 14019,8004 Z M 14021,8007 L 14178,8007 14178,8215 14021,8215 14021,8007 Z"/>
             <path fill="rgb(252,228,199)" stroke="none" d="M 14021,8007 L 14178,8007 14178,8215 14021,8215 14021,8007 Z M 14023,8011 L 14176,8011 14176,8211 14023,8211 14023,8011 Z"/>
             <path fill="rgb(252,228,200)" stroke="none" d="M 14023,8011 L 14176,8011 14176,8211 14023,8211 14023,8011 Z M 14026,8014 L 14173,8014 14173,8208 14026,8208 14026,8014 Z"/>
             <path fill="rgb(252,229,201)" stroke="none" d="M 14026,8014 L 14173,8014 14173,8208 14026,8208 14026,8014 Z M 14028,8017 L 14171,8017 14171,8205 14028,8205 14028,8017 Z"/>
             <path fill="rgb(253,229,202)" stroke="none" d="M 14028,8017 L 14171,8017 14171,8205 14028,8205 14028,8017 Z M 14031,8020 L 14168,8020 14168,8202 14031,8202 14031,8020 Z"/>
             <path fill="rgb(253,230,203)" stroke="none" d="M 14031,8020 L 14168,8020 14168,8202 14031,8202 14031,8020 Z M 14033,8023 L 14166,8023 14166,8199 14033,8199 14033,8023 Z"/>
             <path fill="rgb(253,230,204)" stroke="none" d="M 14033,8023 L 14166,8023 14166,8199 14033,8199 14033,8023 Z M 14035,8026 L 14164,8026 14164,8196 14035,8196 14035,8026 Z"/>
             <path fill="rgb(253,231,205)" stroke="none" d="M 14035,8026 L 14164,8026 14164,8196 14035,8196 14035,8026 Z M 14038,8029 L 14161,8029 14161,8193 14038,8193 14038,8029 Z"/>
             <path fill="rgb(253,231,206)" stroke="none" d="M 14038,8029 L 14161,8029 14161,8193 14038,8193 14038,8029 Z M 14040,8033 L 14159,8033 14159,8189 14040,8189 14040,8033 Z"/>
             <path fill="rgb(253,232,207)" stroke="none" d="M 14040,8033 L 14159,8033 14159,8189 14040,8189 14040,8033 Z M 14043,8036 L 14156,8036 14156,8186 14043,8186 14043,8036 Z"/>
             <path fill="rgb(253,232,208)" stroke="none" d="M 14043,8036 L 14156,8036 14156,8186 14043,8186 14043,8036 Z M 14045,8039 L 14154,8039 14154,8183 14045,8183 14045,8039 Z"/>
             <path fill="rgb(253,233,209)" stroke="none" d="M 14045,8039 L 14154,8039 14154,8183 14045,8183 14045,8039 Z M 14047,8042 L 14152,8042 14152,8180 14047,8180 14047,8042 Z"/>
             <path fill="rgb(253,233,210)" stroke="none" d="M 14047,8042 L 14152,8042 14152,8180 14047,8180 14047,8042 Z M 14050,8045 L 14149,8045 14149,8177 14050,8177 14050,8045 Z"/>
             <path fill="rgb(253,233,211)" stroke="none" d="M 14050,8045 L 14149,8045 14149,8177 14050,8177 14050,8045 Z M 14052,8048 L 14147,8048 14147,8174 14052,8174 14052,8048 Z"/>
             <path fill="rgb(253,234,212)" stroke="none" d="M 14052,8048 L 14147,8048 14147,8174 14052,8174 14052,8048 Z M 14055,8052 L 14144,8052 14144,8170 14055,8170 14055,8052 Z"/>
             <path fill="rgb(253,234,213)" stroke="none" d="M 14055,8052 L 14144,8052 14144,8170 14055,8170 14055,8052 Z M 14057,8055 L 14142,8055 14142,8167 14057,8167 14057,8055 Z"/>
             <path fill="rgb(253,235,214)" stroke="none" d="M 14057,8055 L 14142,8055 14142,8167 14057,8167 14057,8055 Z M 14059,8058 L 14140,8058 14140,8164 14059,8164 14059,8058 Z"/>
             <path fill="rgb(253,235,215)" stroke="none" d="M 14059,8058 L 14140,8058 14140,8164 14059,8164 14059,8058 Z M 14062,8061 L 14137,8061 14137,8161 14062,8161 14062,8061 Z"/>
             <path fill="rgb(253,236,216)" stroke="none" d="M 14062,8061 L 14137,8061 14137,8161 14062,8161 14062,8061 Z M 14064,8064 L 14135,8064 14135,8158 14064,8158 14064,8064 Z"/>
             <path fill="rgb(253,236,217)" stroke="none" d="M 14064,8064 L 14135,8064 14135,8158 14064,8158 14064,8064 Z M 14066,8067 L 14133,8067 14133,8155 14066,8155 14066,8067 Z"/>
             <path fill="rgb(253,237,218)" stroke="none" d="M 14066,8067 L 14133,8067 14133,8155 14066,8155 14066,8067 Z M 14069,8070 L 14130,8070 14130,8152 14069,8152 14069,8070 Z"/>
             <path fill="rgb(253,237,219)" stroke="none" d="M 14069,8070 L 14130,8070 14130,8152 14069,8152 14069,8070 Z M 14071,8074 L 14128,8074 14128,8148 14071,8148 14071,8074 Z"/>
             <path fill="rgb(253,238,220)" stroke="none" d="M 14071,8074 L 14128,8074 14128,8148 14071,8148 14071,8074 Z M 14074,8077 L 14125,8077 14125,8145 14074,8145 14074,8077 Z"/>
             <path fill="rgb(253,238,221)" stroke="none" d="M 14074,8077 L 14125,8077 14125,8145 14074,8145 14074,8077 Z M 14076,8080 L 14123,8080 14123,8142 14076,8142 14076,8080 Z"/>
             <path fill="rgb(253,239,222)" stroke="none" d="M 14076,8080 L 14123,8080 14123,8142 14076,8142 14076,8080 Z M 14078,8083 L 14121,8083 14121,8139 14078,8139 14078,8083 Z"/>
             <path fill="rgb(253,239,223)" stroke="none" d="M 14078,8083 L 14121,8083 14121,8139 14078,8139 14078,8083 Z M 14081,8086 L 14118,8086 14118,8136 14081,8136 14081,8086 Z"/>
             <path fill="rgb(253,240,224)" stroke="none" d="M 14081,8086 L 14118,8086 14118,8136 14081,8136 14081,8086 Z M 14083,8089 L 14116,8089 14116,8133 14083,8133 14083,8089 Z"/>
             <path fill="rgb(253,240,225)" stroke="none" d="M 14083,8089 L 14116,8089 14116,8133 14083,8133 14083,8089 Z M 14086,8093 L 14113,8093 14113,8129 14086,8129 14086,8093 Z"/>
             <path fill="rgb(253,241,226)" stroke="none" d="M 14086,8093 L 14113,8093 14113,8129 14086,8129 14086,8093 Z M 14088,8096 L 14111,8096 14111,8126 14088,8126 14088,8096 Z"/>
             <path fill="rgb(253,241,227)" stroke="none" d="M 14088,8096 L 14111,8096 14111,8126 14088,8126 14088,8096 Z M 14090,8099 L 14109,8099 14109,8123 14090,8123 14090,8099 Z"/>
             <path fill="rgb(253,242,228)" stroke="none" d="M 14090,8099 L 14109,8099 14109,8123 14090,8123 14090,8099 Z M 14093,8102 L 14106,8102 14106,8120 14093,8120 14093,8102 Z"/>
             <path fill="rgb(253,242,229)" stroke="none" d="M 14093,8102 L 14106,8102 14106,8120 14093,8120 14093,8102 Z M 14095,8105 L 14104,8105 14104,8117 14095,8117 14095,8105 Z"/>
             <path fill="rgb(253,243,230)" stroke="none" d="M 14095,8105 L 14104,8105 14104,8117 14095,8117 14095,8105 Z M 14098,8108 L 14101,8108 14101,8114 14098,8114 14098,8108 Z"/>
             <path fill="rgb(254,244,232)" stroke="none" d="M 14098,8108 L 14101,8108 14101,8114 14098,8114 14098,8108 Z"/>
            </g>
           </pattern>
          </defs>
          <path style="fill:url(#pattern3)" d="M 14216,7943 L 14254,7943 14272,7945 14289,7947 14305,7951 14320,7956 14327,7960 14334,7964 14341,7968 14347,7974 14353,7980 14359,7987 14369,8003 14378,8023 14386,8047 14392,8075 14396,8108 14399,8147 14400,8190 14396,8275 14392,8311 14386,8344 14378,8373 14369,8399 14359,8422 14347,8442 14334,8458 14320,8473 14305,8484 14289,8493 14272,8500 14254,8504 14235,8507 14216,8508 14206,8508 14196,8506 14176,8501 14155,8492 14134,8481 14114,8466 14094,8450 14074,8430 14055,8409 14038,8386 14022,8361 14008,8335 13996,8307 13986,8279 13978,8250 13974,8220 13972,8190 13974,8161 13978,8133 13986,8108 13996,8084 14008,8062 14022,8042 14038,8023 14055,8006 14074,7992 14094,7979 14114,7968 14134,7959 14155,7952 14176,7947 14196,7944 14216,7943 Z"/>
         </g>
         <path fill="none" stroke="rgb(255,255,255)" stroke-width="40" stroke-linejoin="round" d="M 14216,7943 C 14320,7943 14400,7943 14400,8190 14400,8437 14320,8508 14216,8508 14113,8508 13972,8350 13972,8190 13972,8030 14113,7943 14216,7943 Z"/>
        </g>
       </g>
       <g class="com.sun.star.drawing.ClosedBezierShape">
        <g id="id25">
         <rect class="BoundingBox" stroke="none" fill="none" x="13851" y="7781" width="560" height="577"/>
         <g>
          <defs>
           <linearGradient id="gradient5" x1="14130" y1="8335" x2="14130" y2="7800" gradientUnits="userSpaceOnUse">
            <stop offset="0.1" style="stop-color:rgb(0,0,0)"/>
            <stop offset="1" style="stop-color:rgb(255,255,255)"/>
           </linearGradient>
          </defs>
          <path style="fill:url(#gradient5)" d="M 14095,7801 L 14143,7801 14194,7803 14245,7808 14269,7813 14292,7819 14314,7826 14333,7835 14350,7847 14358,7853 14365,7860 14371,7868 14377,7877 14381,7886 14385,7895 14387,7906 14389,7917 14390,7929 14389,7942 14383,7948 14376,7953 14368,7957 14360,7961 14342,7968 14322,7973 14300,7976 14277,7979 14231,7982 14186,7984 14165,7986 14146,7988 14129,7992 14121,7994 14114,7997 14108,8000 14103,8004 14099,8008 14095,8013 14087,8028 14080,8044 14070,8077 14063,8111 14060,8145 14059,8268 14056,8292 14054,8302 14052,8311 14048,8319 14043,8325 14037,8331 14030,8334 14021,8336 14011,8336 13999,8334 13985,8331 13953,8318 13911,8296 13892,8238 13879,8183 13872,8132 13871,8085 13875,8040 13883,8000 13896,7963 13911,7929 13930,7900 13951,7874 13973,7852 13997,7834 14022,7819 14047,7809 14072,7803 14084,7802 14095,7801 Z"/>
         </g>
         <path fill="none" stroke="rgb(102,102,102)" stroke-width="40" stroke-linejoin="round" d="M 14095,7801 C 14217,7801 14400,7801 14389,7942 14327,8007 14127,7959 14095,8013 13998,8175 14156,8437 13911,8296 13789,7978 13972,7801 14095,7801 Z"/>
        </g>
       </g>
       <g class="com.sun.star.drawing.ClosedBezierShape">
        <g id="id26">
         <rect class="BoundingBox" stroke="none" fill="none" x="14380" y="8594" width="764" height="559"/>
         <g>
          <defs>
           <pattern id="pattern4" x="14400" y="8614" width="723" height="518" patternUnits="userSpaceOnUse">
            <g transform="translate(-14400,-8614)">
             <path fill="rgb(200,147,199)" stroke="none" d="M 14399,8613 L 15123,8613 15123,9132 14399,9132 14399,8613 Z M 14259,8513 L 14973,8513 14973,9024 14259,9024 14259,8513 Z"/>
             <path fill="rgb(200,148,199)" stroke="none" d="M 14259,8513 L 14973,8513 14973,9024 14259,9024 14259,8513 Z M 14263,8516 L 14969,8516 14969,9021 14263,9021 14263,8516 Z"/>
             <path fill="rgb(201,149,200)" stroke="none" d="M 14263,8516 L 14969,8516 14969,9021 14263,9021 14263,8516 Z M 14267,8519 L 14965,8519 14965,9018 14267,9018 14267,8519 Z"/>
             <path fill="rgb(201,150,200)" stroke="none" d="M 14267,8519 L 14965,8519 14965,9018 14267,9018 14267,8519 Z M 14271,8522 L 14961,8522 14961,9015 14271,9015 14271,8522 Z"/>
             <path fill="rgb(202,151,201)" stroke="none" d="M 14271,8522 L 14961,8522 14961,9015 14271,9015 14271,8522 Z M 14276,8525 L 14956,8525 14956,9012 14276,9012 14276,8525 Z"/>
             <path fill="rgb(202,152,201)" stroke="none" d="M 14276,8525 L 14956,8525 14956,9012 14276,9012 14276,8525 Z M 14280,8528 L 14952,8528 14952,9009 14280,9009 14280,8528 Z"/>
             <path fill="rgb(203,153,202)" stroke="none" d="M 14280,8528 L 14952,8528 14952,9009 14280,9009 14280,8528 Z M 14284,8531 L 14948,8531 14948,9006 14284,9006 14284,8531 Z"/>
             <path fill="rgb(203,154,202)" stroke="none" d="M 14284,8531 L 14948,8531 14948,9006 14284,9006 14284,8531 Z M 14288,8534 L 14944,8534 14944,9003 14288,9003 14288,8534 Z"/>
             <path fill="rgb(204,155,203)" stroke="none" d="M 14288,8534 L 14944,8534 14944,9003 14288,9003 14288,8534 Z M 14292,8537 L 14940,8537 14940,9000 14292,9000 14292,8537 Z"/>
             <path fill="rgb(204,156,203)" stroke="none" d="M 14292,8537 L 14940,8537 14940,9000 14292,9000 14292,8537 Z M 14297,8540 L 14935,8540 14935,8997 14297,8997 14297,8540 Z"/>
             <path fill="rgb(205,157,204)" stroke="none" d="M 14297,8540 L 14935,8540 14935,8997 14297,8997 14297,8540 Z M 14301,8543 L 14931,8543 14931,8994 14301,8994 14301,8543 Z"/>
             <path fill="rgb(205,158,204)" stroke="none" d="M 14301,8543 L 14931,8543 14931,8994 14301,8994 14301,8543 Z M 14305,8546 L 14927,8546 14927,8991 14305,8991 14305,8546 Z"/>
             <path fill="rgb(206,159,205)" stroke="none" d="M 14305,8546 L 14927,8546 14927,8991 14305,8991 14305,8546 Z M 14309,8549 L 14923,8549 14923,8988 14309,8988 14309,8549 Z"/>
             <path fill="rgb(206,160,205)" stroke="none" d="M 14309,8549 L 14923,8549 14923,8988 14309,8988 14309,8549 Z M 14314,8552 L 14918,8552 14918,8985 14314,8985 14314,8552 Z"/>
             <path fill="rgb(207,161,206)" stroke="none" d="M 14314,8552 L 14918,8552 14918,8985 14314,8985 14314,8552 Z M 14318,8555 L 14914,8555 14914,8982 14318,8982 14318,8555 Z"/>
             <path fill="rgb(207,162,206)" stroke="none" d="M 14318,8555 L 14914,8555 14914,8982 14318,8982 14318,8555 Z M 14322,8558 L 14910,8558 14910,8979 14322,8979 14322,8558 Z"/>
             <path fill="rgb(208,163,207)" stroke="none" d="M 14322,8558 L 14910,8558 14910,8979 14322,8979 14322,8558 Z M 14326,8561 L 14906,8561 14906,8976 14326,8976 14326,8561 Z"/>
             <path fill="rgb(208,164,207)" stroke="none" d="M 14326,8561 L 14906,8561 14906,8976 14326,8976 14326,8561 Z M 14330,8564 L 14902,8564 14902,8973 14330,8973 14330,8564 Z"/>
             <path fill="rgb(209,165,208)" stroke="none" d="M 14330,8564 L 14902,8564 14902,8973 14330,8973 14330,8564 Z M 14335,8567 L 14897,8567 14897,8970 14335,8970 14335,8567 Z"/>
             <path fill="rgb(209,166,208)" stroke="none" d="M 14335,8567 L 14897,8567 14897,8970 14335,8970 14335,8567 Z M 14339,8570 L 14893,8570 14893,8967 14339,8967 14339,8570 Z"/>
             <path fill="rgb(210,167,209)" stroke="none" d="M 14339,8570 L 14893,8570 14893,8967 14339,8967 14339,8570 Z M 14343,8573 L 14889,8573 14889,8964 14343,8964 14343,8573 Z"/>
             <path fill="rgb(210,168,209)" stroke="none" d="M 14343,8573 L 14889,8573 14889,8964 14343,8964 14343,8573 Z M 14347,8576 L 14885,8576 14885,8961 14347,8961 14347,8576 Z"/>
             <path fill="rgb(211,169,210)" stroke="none" d="M 14347,8576 L 14885,8576 14885,8961 14347,8961 14347,8576 Z M 14351,8579 L 14881,8579 14881,8958 14351,8958 14351,8579 Z"/>
             <path fill="rgb(211,170,210)" stroke="none" d="M 14351,8579 L 14881,8579 14881,8958 14351,8958 14351,8579 Z M 14356,8582 L 14876,8582 14876,8955 14356,8955 14356,8582 Z"/>
             <path fill="rgb(212,171,211)" stroke="none" d="M 14356,8582 L 14876,8582 14876,8955 14356,8955 14356,8582 Z M 14360,8585 L 14872,8585 14872,8952 14360,8952 14360,8585 Z"/>
             <path fill="rgb(212,172,211)" stroke="none" d="M 14360,8585 L 14872,8585 14872,8952 14360,8952 14360,8585 Z M 14364,8588 L 14868,8588 14868,8949 14364,8949 14364,8588 Z"/>
             <path fill="rgb(213,173,212)" stroke="none" d="M 14364,8588 L 14868,8588 14868,8949 14364,8949 14364,8588 Z M 14368,8591 L 14864,8591 14864,8946 14368,8946 14368,8591 Z"/>
             <path fill="rgb(213,174,212)" stroke="none" d="M 14368,8591 L 14864,8591 14864,8946 14368,8946 14368,8591 Z M 14373,8594 L 14859,8594 14859,8943 14373,8943 14373,8594 Z"/>
             <path fill="rgb(214,175,213)" stroke="none" d="M 14373,8594 L 14859,8594 14859,8943 14373,8943 14373,8594 Z M 14377,8596 L 14855,8596 14855,8940 14377,8940 14377,8596 Z"/>
             <path fill="rgb(214,176,213)" stroke="none" d="M 14377,8596 L 14855,8596 14855,8940 14377,8940 14377,8596 Z M 14380,8599 L 14851,8599 14851,8937 14380,8937 14380,8599 Z"/>
             <path fill="rgb(215,177,214)" stroke="none" d="M 14380,8599 L 14851,8599 14851,8937 14380,8937 14380,8599 Z M 14384,8602 L 14847,8602 14847,8934 14384,8934 14384,8602 Z"/>
             <path fill="rgb(215,178,214)" stroke="none" d="M 14384,8602 L 14847,8602 14847,8934 14384,8934 14384,8602 Z M 14388,8605 L 14843,8605 14843,8931 14388,8931 14388,8605 Z"/>
             <path fill="rgb(216,179,215)" stroke="none" d="M 14388,8605 L 14843,8605 14843,8931 14388,8931 14388,8605 Z M 14393,8608 L 14838,8608 14838,8928 14393,8928 14393,8608 Z"/>
             <path fill="rgb(216,180,215)" stroke="none" d="M 14393,8608 L 14838,8608 14838,8928 14393,8928 14393,8608 Z M 14397,8611 L 14834,8611 14834,8925 14397,8925 14397,8611 Z"/>
             <path fill="rgb(217,181,216)" stroke="none" d="M 14397,8611 L 14834,8611 14834,8925 14397,8925 14397,8611 Z M 14401,8614 L 14830,8614 14830,8922 14401,8922 14401,8614 Z"/>
             <path fill="rgb(217,182,216)" stroke="none" d="M 14401,8614 L 14830,8614 14830,8922 14401,8922 14401,8614 Z M 14405,8617 L 14826,8617 14826,8919 14405,8919 14405,8617 Z"/>
             <path fill="rgb(218,183,217)" stroke="none" d="M 14405,8617 L 14826,8617 14826,8919 14405,8919 14405,8617 Z M 14409,8620 L 14822,8620 14822,8916 14409,8916 14409,8620 Z"/>
             <path fill="rgb(218,184,217)" stroke="none" d="M 14409,8620 L 14822,8620 14822,8916 14409,8916 14409,8620 Z M 14414,8623 L 14817,8623 14817,8913 14414,8913 14414,8623 Z"/>
             <path fill="rgb(219,185,218)" stroke="none" d="M 14414,8623 L 14817,8623 14817,8913 14414,8913 14414,8623 Z M 14418,8626 L 14813,8626 14813,8910 14418,8910 14418,8626 Z"/>
             <path fill="rgb(219,186,218)" stroke="none" d="M 14418,8626 L 14813,8626 14813,8910 14418,8910 14418,8626 Z M 14422,8629 L 14809,8629 14809,8907 14422,8907 14422,8629 Z"/>
             <path fill="rgb(220,187,219)" stroke="none" d="M 14422,8629 L 14809,8629 14809,8907 14422,8907 14422,8629 Z M 14426,8632 L 14805,8632 14805,8904 14426,8904 14426,8632 Z"/>
             <path fill="rgb(220,188,219)" stroke="none" d="M 14426,8632 L 14805,8632 14805,8904 14426,8904 14426,8632 Z M 14431,8635 L 14800,8635 14800,8901 14431,8901 14431,8635 Z"/>
             <path fill="rgb(221,189,220)" stroke="none" d="M 14431,8635 L 14800,8635 14800,8901 14431,8901 14431,8635 Z M 14435,8639 L 14796,8639 14796,8898 14435,8898 14435,8639 Z"/>
             <path fill="rgb(222,190,221)" stroke="none" d="M 14435,8639 L 14796,8639 14796,8898 14435,8898 14435,8639 Z M 14439,8642 L 14792,8642 14792,8894 14439,8894 14439,8642 Z"/>
             <path fill="rgb(222,191,221)" stroke="none" d="M 14439,8642 L 14792,8642 14792,8894 14439,8894 14439,8642 Z M 14443,8645 L 14788,8645 14788,8891 14443,8891 14443,8645 Z"/>
             <path fill="rgb(223,192,222)" stroke="none" d="M 14443,8645 L 14788,8645 14788,8891 14443,8891 14443,8645 Z M 14447,8648 L 14784,8648 14784,8888 14447,8888 14447,8648 Z"/>
             <path fill="rgb(223,193,222)" stroke="none" d="M 14447,8648 L 14784,8648 14784,8888 14447,8888 14447,8648 Z M 14452,8651 L 14779,8651 14779,8885 14452,8885 14452,8651 Z"/>
             <path fill="rgb(224,194,223)" stroke="none" d="M 14452,8651 L 14779,8651 14779,8885 14452,8885 14452,8651 Z M 14456,8654 L 14775,8654 14775,8882 14456,8882 14456,8654 Z"/>
             <path fill="rgb(224,195,223)" stroke="none" d="M 14456,8654 L 14775,8654 14775,8882 14456,8882 14456,8654 Z M 14460,8657 L 14771,8657 14771,8879 14460,8879 14460,8657 Z"/>
             <path fill="rgb(225,196,224)" stroke="none" d="M 14460,8657 L 14771,8657 14771,8879 14460,8879 14460,8657 Z M 14464,8660 L 14767,8660 14767,8876 14464,8876 14464,8660 Z"/>
             <path fill="rgb(225,197,224)" stroke="none" d="M 14464,8660 L 14767,8660 14767,8876 14464,8876 14464,8660 Z M 14468,8663 L 14763,8663 14763,8873 14468,8873 14468,8663 Z"/>
             <path fill="rgb(226,198,225)" stroke="none" d="M 14468,8663 L 14763,8663 14763,8873 14468,8873 14468,8663 Z M 14473,8666 L 14758,8666 14758,8870 14473,8870 14473,8666 Z"/>
             <path fill="rgb(226,199,225)" stroke="none" d="M 14473,8666 L 14758,8666 14758,8870 14473,8870 14473,8666 Z M 14477,8669 L 14754,8669 14754,8867 14477,8867 14477,8669 Z"/>
             <path fill="rgb(227,200,226)" stroke="none" d="M 14477,8669 L 14754,8669 14754,8867 14477,8867 14477,8669 Z M 14481,8672 L 14750,8672 14750,8864 14481,8864 14481,8672 Z"/>
             <path fill="rgb(227,201,226)" stroke="none" d="M 14481,8672 L 14750,8672 14750,8864 14481,8864 14481,8672 Z M 14485,8675 L 14746,8675 14746,8861 14485,8861 14485,8675 Z"/>
             <path fill="rgb(228,202,227)" stroke="none" d="M 14485,8675 L 14746,8675 14746,8861 14485,8861 14485,8675 Z M 14490,8678 L 14741,8678 14741,8858 14490,8858 14490,8678 Z"/>
             <path fill="rgb(228,203,227)" stroke="none" d="M 14490,8678 L 14741,8678 14741,8858 14490,8858 14490,8678 Z M 14494,8681 L 14737,8681 14737,8855 14494,8855 14494,8681 Z"/>
             <path fill="rgb(229,204,228)" stroke="none" d="M 14494,8681 L 14737,8681 14737,8855 14494,8855 14494,8681 Z M 14498,8684 L 14733,8684 14733,8852 14498,8852 14498,8684 Z"/>
             <path fill="rgb(229,205,228)" stroke="none" d="M 14498,8684 L 14733,8684 14733,8852 14498,8852 14498,8684 Z M 14502,8687 L 14729,8687 14729,8849 14502,8849 14502,8687 Z"/>
             <path fill="rgb(230,206,229)" stroke="none" d="M 14502,8687 L 14729,8687 14729,8849 14502,8849 14502,8687 Z M 14506,8690 L 14725,8690 14725,8846 14506,8846 14506,8690 Z"/>
             <path fill="rgb(230,207,229)" stroke="none" d="M 14506,8690 L 14725,8690 14725,8846 14506,8846 14506,8690 Z M 14511,8693 L 14720,8693 14720,8843 14511,8843 14511,8693 Z"/>
             <path fill="rgb(231,208,230)" stroke="none" d="M 14511,8693 L 14720,8693 14720,8843 14511,8843 14511,8693 Z M 14515,8696 L 14716,8696 14716,8840 14515,8840 14515,8696 Z"/>
             <path fill="rgb(231,209,230)" stroke="none" d="M 14515,8696 L 14716,8696 14716,8840 14515,8840 14515,8696 Z M 14519,8699 L 14712,8699 14712,8837 14519,8837 14519,8699 Z"/>
             <path fill="rgb(232,210,231)" stroke="none" d="M 14519,8699 L 14712,8699 14712,8837 14519,8837 14519,8699 Z M 14523,8702 L 14708,8702 14708,8834 14523,8834 14523,8702 Z"/>
             <path fill="rgb(232,211,231)" stroke="none" d="M 14523,8702 L 14708,8702 14708,8834 14523,8834 14523,8702 Z M 14527,8705 L 14704,8705 14704,8831 14527,8831 14527,8705 Z"/>
             <path fill="rgb(233,212,232)" stroke="none" d="M 14527,8705 L 14704,8705 14704,8831 14527,8831 14527,8705 Z M 14532,8708 L 14699,8708 14699,8828 14532,8828 14532,8708 Z"/>
             <path fill="rgb(233,213,232)" stroke="none" d="M 14532,8708 L 14699,8708 14699,8828 14532,8828 14532,8708 Z M 14536,8711 L 14695,8711 14695,8825 14536,8825 14536,8711 Z"/>
             <path fill="rgb(234,214,233)" stroke="none" d="M 14536,8711 L 14695,8711 14695,8825 14536,8825 14536,8711 Z M 14540,8714 L 14691,8714 14691,8822 14540,8822 14540,8714 Z"/>
             <path fill="rgb(234,215,233)" stroke="none" d="M 14540,8714 L 14691,8714 14691,8822 14540,8822 14540,8714 Z M 14544,8717 L 14687,8717 14687,8819 14544,8819 14544,8717 Z"/>
             <path fill="rgb(235,216,234)" stroke="none" d="M 14544,8717 L 14687,8717 14687,8819 14544,8819 14544,8717 Z M 14549,8720 L 14682,8720 14682,8816 14549,8816 14549,8720 Z"/>
             <path fill="rgb(235,217,234)" stroke="none" d="M 14549,8720 L 14682,8720 14682,8816 14549,8816 14549,8720 Z M 14553,8723 L 14678,8723 14678,8813 14553,8813 14553,8723 Z"/>
             <path fill="rgb(236,218,235)" stroke="none" d="M 14553,8723 L 14678,8723 14678,8813 14553,8813 14553,8723 Z M 14557,8726 L 14674,8726 14674,8810 14557,8810 14557,8726 Z"/>
             <path fill="rgb(236,219,235)" stroke="none" d="M 14557,8726 L 14674,8726 14674,8810 14557,8810 14557,8726 Z M 14561,8729 L 14670,8729 14670,8807 14561,8807 14561,8729 Z"/>
             <path fill="rgb(237,220,236)" stroke="none" d="M 14561,8729 L 14670,8729 14670,8807 14561,8807 14561,8729 Z M 14565,8732 L 14666,8732 14666,8804 14565,8804 14565,8732 Z"/>
             <path fill="rgb(237,221,236)" stroke="none" d="M 14565,8732 L 14666,8732 14666,8804 14565,8804 14565,8732 Z M 14570,8735 L 14661,8735 14661,8801 14570,8801 14570,8735 Z"/>
             <path fill="rgb(238,222,237)" stroke="none" d="M 14570,8735 L 14661,8735 14661,8801 14570,8801 14570,8735 Z M 14574,8738 L 14657,8738 14657,8798 14574,8798 14574,8738 Z"/>
             <path fill="rgb(238,223,237)" stroke="none" d="M 14574,8738 L 14657,8738 14657,8798 14574,8798 14574,8738 Z M 14578,8741 L 14653,8741 14653,8795 14578,8795 14578,8741 Z"/>
             <path fill="rgb(239,224,238)" stroke="none" d="M 14578,8741 L 14653,8741 14653,8795 14578,8795 14578,8741 Z M 14582,8744 L 14649,8744 14649,8792 14582,8792 14582,8744 Z"/>
             <path fill="rgb(239,225,238)" stroke="none" d="M 14582,8744 L 14649,8744 14649,8792 14582,8792 14582,8744 Z M 14586,8747 L 14645,8747 14645,8789 14586,8789 14586,8747 Z"/>
             <path fill="rgb(240,226,239)" stroke="none" d="M 14586,8747 L 14645,8747 14645,8789 14586,8789 14586,8747 Z M 14591,8750 L 14640,8750 14640,8786 14591,8786 14591,8750 Z"/>
             <path fill="rgb(240,227,239)" stroke="none" d="M 14591,8750 L 14640,8750 14640,8786 14591,8786 14591,8750 Z M 14595,8753 L 14636,8753 14636,8783 14595,8783 14595,8753 Z"/>
             <path fill="rgb(241,228,240)" stroke="none" d="M 14595,8753 L 14636,8753 14636,8783 14595,8783 14595,8753 Z M 14599,8756 L 14632,8756 14632,8780 14599,8780 14599,8756 Z"/>
             <path fill="rgb(241,229,240)" stroke="none" d="M 14599,8756 L 14632,8756 14632,8780 14599,8780 14599,8756 Z M 14603,8759 L 14628,8759 14628,8777 14603,8777 14603,8759 Z"/>
             <path fill="rgb(242,230,241)" stroke="none" d="M 14603,8759 L 14628,8759 14628,8777 14603,8777 14603,8759 Z M 14608,8762 L 14623,8762 14623,8774 14608,8774 14608,8762 Z"/>
             <path fill="rgb(242,231,241)" stroke="none" d="M 14608,8762 L 14623,8762 14623,8774 14608,8774 14608,8762 Z M 14612,8765 L 14619,8765 14619,8771 14612,8771 14612,8765 Z"/>
             <path fill="rgb(244,233,243)" stroke="none" d="M 14612,8765 L 14619,8765 14619,8771 14612,8771 14612,8765 Z"/>
            </g>
           </pattern>
          </defs>
          <path style="fill:url(#pattern4)" d="M 14767,8614 L 14831,8617 14887,8625 14936,8637 14977,8654 15012,8675 15027,8687 15040,8700 15052,8714 15063,8728 15082,8759 15096,8792 15106,8828 15113,8865 15118,8903 15122,8983 15122,9063 15110,9076 15095,9087 15079,9097 15061,9105 15021,9118 14975,9127 14925,9131 14872,9130 14817,9125 14761,9117 14705,9104 14650,9088 14597,9069 14547,9047 14501,9022 14461,8994 14427,8964 14412,8948 14400,8932 14410,8905 14418,8878 14431,8823 14446,8769 14456,8744 14469,8720 14485,8698 14495,8687 14506,8677 14518,8668 14532,8659 14563,8644 14602,8631 14648,8622 14703,8616 14767,8614 Z"/>
         </g>
         <path fill="none" stroke="rgb(255,255,255)" stroke-width="40" stroke-linejoin="round" d="M 14767,8614 C 15133,8614 15122,8851 15122,9063 15000,9204 14522,9109 14400,8932 14461,8791 14400,8614 14767,8614 Z"/>
        </g>
       </g>
       <g class="com.sun.star.drawing.ClosedBezierShape">
        <g id="id27">
         <rect class="BoundingBox" stroke="none" fill="none" x="14564" y="8700" width="224" height="394"/>
         <path fill="rgb(255,255,255)" stroke="none" d="M 14584,8720 C 14645,8755 14727,8744 14767,8720 14645,8826 14584,9073 14584,9073 14584,8913 14584,8861 14584,8720 Z"/>
         <path fill="none" stroke="rgb(255,255,255)" stroke-width="40" stroke-linejoin="round" d="M 14584,8720 C 14645,8755 14727,8744 14767,8720 14645,8826 14584,9073 14584,9073 14584,8913 14584,8861 14584,8720 Z"/>
        </g>
       </g>
       <g class="com.sun.star.drawing.ClosedBezierShape">
        <g id="id28">
         <rect class="BoundingBox" stroke="none" fill="none" x="14563" y="8416" width="295" height="335"/>
         <path fill="rgb(249,180,96)" stroke="none" d="M 14767,8437 C 14871,8437 14828,8543 14828,8614 14828,8684 14706,8755 14645,8720 14584,8684 14584,8684 14584,8578 14584,8472 14663,8437 14767,8437 Z"/>
         <path fill="none" stroke="rgb(255,255,255)" stroke-width="40" stroke-linejoin="round" d="M 14767,8437 C 14871,8437 14828,8543 14828,8614 14828,8684 14706,8755 14645,8720 14584,8684 14584,8684 14584,8578 14584,8472 14663,8437 14767,8437 Z"/>
        </g>
       </g>
       <g class="com.sun.star.drawing.ClosedBezierShape">
        <g id="id29">
         <rect class="BoundingBox" stroke="none" fill="none" x="14440" y="8134" width="409" height="500"/>
         <g>
          <defs>
           <linearGradient id="gradient6" x1="14460" y1="8383" x2="14829" y2="8383" gradientUnits="userSpaceOnUse">
            <stop offset="0" style="stop-color:rgb(251,201,142)"/>
            <stop offset="0.5" style="stop-color:rgb(254,244,232)"/>
            <stop offset="1" style="stop-color:rgb(251,201,142)"/>
           </linearGradient>
          </defs>
          <path style="fill:url(#gradient6)" d="M 14644,8154 L 14663,8154 14682,8156 14700,8158 14717,8162 14733,8166 14748,8173 14762,8180 14775,8189 14787,8200 14797,8213 14806,8227 14814,8243 14820,8262 14824,8283 14827,8306 14828,8331 14827,8357 14824,8384 14820,8409 14814,8435 14806,8459 14797,8482 14787,8504 14775,8525 14762,8544 14748,8561 14733,8576 14717,8589 14700,8599 14682,8607 14663,8611 14654,8613 14644,8613 14625,8612 14606,8607 14588,8601 14572,8591 14555,8580 14540,8566 14526,8550 14513,8532 14502,8512 14491,8491 14482,8467 14475,8443 14469,8416 14465,8389 14462,8361 14461,8331 14462,8303 14465,8277 14469,8255 14475,8236 14482,8219 14491,8205 14502,8193 14513,8183 14526,8174 14540,8168 14555,8163 14572,8159 14588,8157 14606,8155 14644,8154 Z"/>
         </g>
         <path fill="none" stroke="rgb(255,255,255)" stroke-width="40" stroke-linejoin="round" d="M 14644,8154 C 14748,8154 14828,8189 14828,8331 14828,8472 14748,8613 14644,8613 14540,8613 14461,8491 14461,8331 14461,8171 14540,8154 14644,8154 Z"/>
        </g>
       </g>
       <g class="com.sun.star.drawing.ClosedBezierShape">
        <g id="id30">
         <rect class="BoundingBox" stroke="none" fill="none" x="14440" y="7958" width="554" height="688"/>
         <g>
          <defs>
           <linearGradient id="gradient7" x1="14716" y1="8624" x2="14716" y2="7977" gradientUnits="userSpaceOnUse">
            <stop offset="0.1" style="stop-color:rgb(179,179,179)"/>
            <stop offset="1" style="stop-color:rgb(229,229,229)"/>
           </linearGradient>
          </defs>
          <path style="fill:url(#gradient7)" d="M 14788,7978 L 14739,7980 14684,7986 14628,7997 14601,8004 14575,8013 14550,8024 14528,8037 14508,8051 14491,8067 14483,8076 14477,8086 14472,8096 14467,8107 14464,8118 14462,8130 14461,8142 14461,8155 14468,8161 14475,8166 14483,8170 14491,8174 14510,8181 14531,8185 14553,8189 14577,8191 14626,8194 14673,8196 14715,8200 14733,8204 14748,8209 14754,8212 14759,8216 14764,8220 14767,8225 14783,8257 14795,8291 14802,8327 14807,8364 14811,8438 14811,8507 14814,8565 14817,8588 14820,8598 14824,8606 14828,8613 14833,8618 14836,8620 14840,8622 14847,8624 14856,8625 14866,8623 14877,8620 14889,8614 14920,8549 14943,8485 14959,8424 14968,8366 14972,8310 14970,8258 14964,8209 14954,8164 14940,8123 14922,8086 14903,8054 14882,8028 14859,8006 14847,7998 14835,7991 14823,7985 14812,7981 14800,7979 14788,7978 Z"/>
         </g>
         <path fill="none" stroke="rgb(178,178,178)" stroke-width="40" stroke-linejoin="round" d="M 14788,7978 C 14666,7978 14450,8013 14461,8155 14523,8219 14735,8171 14767,8225 14864,8387 14746,8685 14889,8614 15073,8261 14910,7978 14788,7978 Z"/>
        </g>
       </g>
       <g class="com.sun.star.drawing.ClosedBezierShape">
        <g id="id31">
         <rect class="BoundingBox" stroke="none" fill="none" x="13606" y="7781" width="1538" height="1353"/>
         <path fill="none" stroke="rgb(0,0,0)" stroke-width="40" stroke-linejoin="round" d="M 14094,7801 C 14217,7801 14411,7801 14400,7942 14396,7955 14359,7966 14339,7978 14461,8225 14339,8508 14217,8508 14339,8543 14419,8627 14445,8766 14470,8683 14528,8640 14583,8649 L 14582,8597 C 14454,8525 14416,8272 14522,8190 14522,8190 14444,8176 14461,8154 14443,7983 14809,7949 14846,7994 14953,8042 15046,8392 14878,8635 15132,8621 15121,8971 15122,9063 14843,9174 14533,9080 14418,8957 14238,9107 13788,9155 13629,9030 13609,8763 13725,8502 13952,8481 13950,8424 13963,8379 13963,8320 13942,8308 13926,8310 13911,8296 13789,7978 13972,7801 14094,7801 Z"/>
        </g>
       </g>
      </g>
     </g>
    </g>
   </g>
  </g>
 </g>
</svg>