<?xml version="1.0" encoding="UTF-8"?>
<!DOCTYPE svg PUBLIC "-//W3C//DTD SVG 1.1//EN" "http://www.w3.org/Graphics/SVG/1.1/DTD/svg11.dtd">
<svg version="1.2" width="69.31mm" height="48.67mm" viewBox="6 5017 6931 4867" preserveAspectRatio="xMidYMid" fill-rule="evenodd" stroke-width="28.222" stroke-linejoin="round" xmlns="http://www.w3.org/2000/svg" xmlns:ooo="http://xml.openoffice.org/svg/export" xmlns:xlink="http://www.w3.org/1999/xlink" xmlns:presentation="http://sun.com/xmlns/staroffice/presentation" xmlns:smil="http://www.w3.org/2001/SMIL20/" xmlns:anim="urn:oasis:names:tc:opendocument:xmlns:animation:1.0" xml:space="preserve">
 <defs class="ClipPathGroup">
  <clipPath id="presentation_clip_path" clipPathUnits="userSpaceOnUse">
   <rect x="6" y="5017" width="6931" height="4867"/>
  </clipPath>
 </defs>
 <defs class="TextShapeIndex">
  <g ooo:slide="id1" ooo:id-list="id3 id4 id5 id6 id7 id8 id9 id10 id11 id12 id13 id14 id15 id16 id17 id18 id19 id20 id21 id22 id23 id24 id25 id26 id27 id28 id29 id30 id31"/>
 </defs>
 <defs class="EmbeddedBulletChars">
  <g id="bullet-char-template(57356)" transform="scale(0.00048828125,-0.00048828125)">
   <path d="M 580,1141 L 1163,571 580,0 -4,571 580,1141 Z"/>
  </g>
  <g id="bullet-char-template(57354)" transform="scale(0.00048828125,-0.00048828125)">
   <path d="M 8,1128 L 1137,1128 1137,0 8,0 8,1128 Z"/>
  </g>
  <g id="bullet-char-template(10146)" transform="scale(0.00048828125,-0.00048828125)">
   <path d="M 174,0 L 602,739 174,1481 1456,739 174,0 Z M 1358,739 L 309,1346 659,739 1358,739 Z"/>
  </g>
  <g id="bullet-char-template(10132)" transform="scale(0.00048828125,-0.00048828125)">
   <path d="M 2015,739 L 1276,0 717,0 1260,543 174,543 174,936 1260,936 717,1481 1274,1481 2015,739 Z"/>
  </g>
  <g id="bullet-char-template(10007)" transform="scale(0.00048828125,-0.00048828125)">
   <path d="M 0,-2 C -7,14 -16,27 -25,37 L 356,567 C 262,823 215,952 215,954 215,979 228,992 255,992 264,992 276,990 289,987 310,991 331,999 354,1012 L 381,999 492,748 772,1049 836,1024 860,1049 C 881,1039 901,1025 922,1006 886,937 835,863 770,784 769,783 710,716 594,584 L 774,223 C 774,196 753,168 711,139 L 727,119 C 717,90 699,76 672,76 641,76 570,178 457,381 L 164,-76 C 142,-110 111,-127 72,-127 30,-127 9,-110 8,-76 1,-67 -2,-52 -2,-32 -2,-23 -1,-13 0,-2 Z"/>
  </g>
  <g id="bullet-char-template(10004)" transform="scale(0.00048828125,-0.00048828125)">
   <path d="M 285,-33 C 182,-33 111,30 74,156 52,228 41,333 41,471 41,549 55,616 82,672 116,743 169,778 240,778 293,778 328,747 346,684 L 369,508 C 377,444 397,411 428,410 L 1163,1116 C 1174,1127 1196,1133 1229,1133 1271,1133 1292,1118 1292,1087 L 1292,965 C 1292,929 1282,901 1262,881 L 442,47 C 390,-6 338,-33 285,-33 Z"/>
  </g>
  <g id="bullet-char-template(9679)" transform="scale(0.00048828125,-0.00048828125)">
   <path d="M 813,0 C 632,0 489,54 383,161 276,268 223,411 223,592 223,773 276,916 383,1023 489,1130 632,1184 813,1184 992,1184 1136,1130 1245,1023 1353,916 1407,772 1407,592 1407,412 1353,268 1245,161 1136,54 992,0 813,0 Z"/>
  </g>
  <g id="bullet-char-template(8226)" transform="scale(0.00048828125,-0.00048828125)">
   <path d="M 346,457 C 273,457 209,483 155,535 101,586 74,649 74,723 74,796 101,859 155,911 209,963 273,989 346,989 419,989 480,963 531,910 582,859 608,796 608,723 608,648 583,586 532,535 482,483 420,457 346,457 Z"/>
  </g>
  <g id="bullet-char-template(8211)" transform="scale(0.00048828125,-0.00048828125)">
   <path d="M -4,459 L 1135,459 1135,606 -4,606 -4,459 Z"/>
  </g>
 </defs>
 <defs class="TextEmbeddedBitmaps"/>
 <g class="SlideGroup">
  <g>
   <g id="id1" class="Slide" clip-path="url(#presentation_clip_path)">
    <g class="Page">
     <g class="Group">
      <g class="Group">
       <g class="com.sun.star.drawing.ClosedBezierShape">
        <g id="id3">
         <rect class="BoundingBox" stroke="none" fill="none" x="3766" y="7810" width="3173" height="2056"/>
         <path fill="rgb(221,221,221)" stroke="none" d="M 3770,9864 C 4033,9864 6937,8588 6937,8199 6937,7811 6529,7811 6265,7811 6265,7977 3674,8643 3770,9864 Z"/>
         <path fill="none" stroke="rgb(221,221,221)" d="M 3770,9864 C 4033,9864 6937,8588 6937,8199 6937,7811 6529,7811 6265,7811 6265,7977 3674,8643 3770,9864 Z"/>
        </g>
       </g>
       <g class="Group">
        <g class="com.sun.star.drawing.PolyPolygonShape">
         <g id="id4">
          <rect class="BoundingBox" stroke="none" fill="none" x="198" y="6681" width="3400" height="3092"/>
          <g>
           <defs>
            <linearGradient id="gradient1" x1="218" y1="8226" x2="3577" y2="8226" gradientUnits="userSpaceOnUse">
             <stop offset="0.1" style="stop-color:rgb(179,179,179)"/>
             <stop offset="1" style="stop-color:rgb(229,229,229)"/>
            </linearGradient>
           </defs>
           <path style="fill:url(#gradient1)" d="M 218,7811 L 218,6701 3577,8643 3577,9752 218,7811 Z"/>
          </g>
          <path fill="none" stroke="rgb(255,255,255)" stroke-width="40" stroke-linejoin="round" d="M 218,7811 L 218,6701 3577,8643 3577,9752 218,7811 Z"/>
         </g>
        </g>
        <g class="com.sun.star.drawing.PolyPolygonShape">
         <g id="id5">
          <rect class="BoundingBox" stroke="none" fill="none" x="3557" y="6958" width="2920" height="2816"/>
          <g>
           <defs>
            <pattern id="pattern1" x="3577" y="6979" width="2880" height="2775" patternUnits="userSpaceOnUse">
             <g transform="translate(-3577,-6979)">
              <path fill="rgb(179,179,179)" stroke="none" d="M 3576,6978 L 6457,6978 6457,9754 3576,9754 3576,6978 Z M 3028,6451 L 5851,6451 5851,9171 3028,9171 3028,6451 Z"/>
              <path fill="rgb(180,180,180)" stroke="none" d="M 3028,6451 L 5851,6451 5851,9171 3028,9171 3028,6451 Z M 3057,6479 L 5822,6479 5822,9143 3057,9143 3057,6479 Z"/>
              <path fill="rgb(181,181,181)" stroke="none" d="M 3057,6479 L 5822,6479 5822,9143 3057,9143 3057,6479 Z M 3086,6507 L 5793,6507 5793,9115 3086,9115 3086,6507 Z"/>
              <path fill="rgb(182,182,182)" stroke="none" d="M 3086,6507 L 5793,6507 5793,9115 3086,9115 3086,6507 Z M 3115,6535 L 5764,6535 5764,9087 3115,9087 3115,6535 Z"/>
              <path fill="rgb(183,183,183)" stroke="none" d="M 3115,6535 L 5764,6535 5764,9087 3115,9087 3115,6535 Z M 3144,6562 L 5735,6562 5735,9060 3144,9060 3144,6562 Z"/>
              <path fill="rgb(184,184,184)" stroke="none" d="M 3144,6562 L 5735,6562 5735,9060 3144,9060 3144,6562 Z M 3172,6590 L 5707,6590 5707,9032 3172,9032 3172,6590 Z"/>
              <path fill="rgb(185,185,185)" stroke="none" d="M 3172,6590 L 5707,6590 5707,9032 3172,9032 3172,6590 Z M 3201,6618 L 5678,6618 5678,9004 3201,9004 3201,6618 Z"/>
              <path fill="rgb(186,186,186)" stroke="none" d="M 3201,6618 L 5678,6618 5678,9004 3201,9004 3201,6618 Z M 3230,6646 L 5649,6646 5649,8976 3230,8976 3230,6646 Z"/>
              <path fill="rgb(187,187,187)" stroke="none" d="M 3230,6646 L 5649,6646 5649,8976 3230,8976 3230,6646 Z M 3259,6673 L 5620,6673 5620,8949 3259,8949 3259,6673 Z"/>
              <path fill="rgb(188,188,188)" stroke="none" d="M 3259,6673 L 5620,6673 5620,8949 3259,8949 3259,6673 Z M 3288,6701 L 5591,6701 5591,8921 3288,8921 3288,6701 Z"/>
              <path fill="rgb(189,189,189)" stroke="none" d="M 3288,6701 L 5591,6701 5591,8921 3288,8921 3288,6701 Z M 3317,6729 L 5562,6729 5562,8893 3317,8893 3317,6729 Z"/>
              <path fill="rgb(190,190,190)" stroke="none" d="M 3317,6729 L 5562,6729 5562,8893 3317,8893 3317,6729 Z M 3345,6757 L 5534,6757 5534,8865 3345,8865 3345,6757 Z"/>
              <path fill="rgb(191,191,191)" stroke="none" d="M 3345,6757 L 5534,6757 5534,8865 3345,8865 3345,6757 Z M 3374,6785 L 5505,6785 5505,8837 3374,8837 3374,6785 Z"/>
              <path fill="rgb(192,192,192)" stroke="none" d="M 3374,6785 L 5505,6785 5505,8837 3374,8837 3374,6785 Z M 3403,6812 L 5476,6812 5476,8810 3403,8810 3403,6812 Z"/>
              <path fill="rgb(193,193,193)" stroke="none" d="M 3403,6812 L 5476,6812 5476,8810 3403,8810 3403,6812 Z M 3432,6840 L 5447,6840 5447,8782 3432,8782 3432,6840 Z"/>
              <path fill="rgb(194,194,194)" stroke="none" d="M 3432,6840 L 5447,6840 5447,8782 3432,8782 3432,6840 Z M 3461,6868 L 5418,6868 5418,8754 3461,8754 3461,6868 Z"/>
              <path fill="rgb(195,195,195)" stroke="none" d="M 3461,6868 L 5418,6868 5418,8754 3461,8754 3461,6868 Z M 3489,6896 L 5390,6896 5390,8726 3489,8726 3489,6896 Z"/>
              <path fill="rgb(196,196,196)" stroke="none" d="M 3489,6896 L 5390,6896 5390,8726 3489,8726 3489,6896 Z M 3518,6923 L 5361,6923 5361,8699 3518,8699 3518,6923 Z"/>
              <path fill="rgb(197,197,197)" stroke="none" d="M 3518,6923 L 5361,6923 5361,8699 3518,8699 3518,6923 Z M 3547,6951 L 5332,6951 5332,8671 3547,8671 3547,6951 Z"/>
              <path fill="rgb(198,198,198)" stroke="none" d="M 3547,6951 L 5332,6951 5332,8671 3547,8671 3547,6951 Z M 3575,6978 L 5303,6978 5303,8643 3575,8643 3575,6978 Z"/>
              <path fill="rgb(199,199,199)" stroke="none" d="M 3575,6978 L 5303,6978 5303,8643 3575,8643 3575,6978 Z M 3604,7006 L 5274,7006 5274,8615 3604,8615 3604,7006 Z"/>
              <path fill="rgb(200,200,200)" stroke="none" d="M 3604,7006 L 5274,7006 5274,8615 3604,8615 3604,7006 Z M 3633,7033 L 5245,7033 5245,8588 3633,8588 3633,7033 Z"/>
              <path fill="rgb(201,201,201)" stroke="none" d="M 3633,7033 L 5245,7033 5245,8588 3633,8588 3633,7033 Z M 3661,7061 L 5217,7061 5217,8560 3661,8560 3661,7061 Z"/>
              <path fill="rgb(202,202,202)" stroke="none" d="M 3661,7061 L 5217,7061 5217,8560 3661,8560 3661,7061 Z M 3690,7089 L 5188,7089 5188,8532 3690,8532 3690,7089 Z"/>
              <path fill="rgb(203,203,203)" stroke="none" d="M 3690,7089 L 5188,7089 5188,8532 3690,8532 3690,7089 Z M 3719,7117 L 5159,7117 5159,8504 3719,8504 3719,7117 Z"/>
              <path fill="rgb(204,204,204)" stroke="none" d="M 3719,7117 L 5159,7117 5159,8504 3719,8504 3719,7117 Z M 3748,7145 L 5130,7145 5130,8476 3748,8476 3748,7145 Z"/>
              <path fill="rgb(205,205,205)" stroke="none" d="M 3748,7145 L 5130,7145 5130,8476 3748,8476 3748,7145 Z M 3777,7172 L 5101,7172 5101,8449 3777,8449 3777,7172 Z"/>
              <path fill="rgb(206,206,206)" stroke="none" d="M 3777,7172 L 5101,7172 5101,8449 3777,8449 3777,7172 Z M 3805,7200 L 5073,7200 5073,8421 3805,8421 3805,7200 Z"/>
              <path fill="rgb(207,207,207)" stroke="none" d="M 3805,7200 L 5073,7200 5073,8421 3805,8421 3805,7200 Z M 3834,7228 L 5044,7228 5044,8393 3834,8393 3834,7228 Z"/>
              <path fill="rgb(208,208,208)" stroke="none" d="M 3834,7228 L 5044,7228 5044,8393 3834,8393 3834,7228 Z M 3863,7256 L 5015,7256 5015,8365 3863,8365 3863,7256 Z"/>
              <path fill="rgb(209,209,209)" stroke="none" d="M 3863,7256 L 5015,7256 5015,8365 3863,8365 3863,7256 Z M 3892,7283 L 4986,7283 4986,8338 3892,8338 3892,7283 Z"/>
              <path fill="rgb(210,210,210)" stroke="none" d="M 3892,7283 L 4986,7283 4986,8338 3892,8338 3892,7283 Z M 3921,7311 L 4957,7311 4957,8310 3921,8310 3921,7311 Z"/>
              <path fill="rgb(211,211,211)" stroke="none" d="M 3921,7311 L 4957,7311 4957,8310 3921,8310 3921,7311 Z M 3950,7339 L 4928,7339 4928,8282 3950,8282 3950,7339 Z"/>
              <path fill="rgb(212,212,212)" stroke="none" d="M 3950,7339 L 4928,7339 4928,8282 3950,8282 3950,7339 Z M 3978,7367 L 4900,7367 4900,8254 3978,8254 3978,7367 Z"/>
              <path fill="rgb(213,213,213)" stroke="none" d="M 3978,7367 L 4900,7367 4900,8254 3978,8254 3978,7367 Z M 4007,7394 L 4871,7394 4871,8227 4007,8227 4007,7394 Z"/>
              <path fill="rgb(214,214,214)" stroke="none" d="M 4007,7394 L 4871,7394 4871,8227 4007,8227 4007,7394 Z M 4036,7422 L 4842,7422 4842,8199 4036,8199 4036,7422 Z"/>
              <path fill="rgb(215,215,215)" stroke="none" d="M 4036,7422 L 4842,7422 4842,8199 4036,8199 4036,7422 Z M 4065,7450 L 4813,7450 4813,8171 4065,8171 4065,7450 Z"/>
              <path fill="rgb(216,216,216)" stroke="none" d="M 4065,7450 L 4813,7450 4813,8171 4065,8171 4065,7450 Z M 4094,7478 L 4784,7478 4784,8143 4094,8143 4094,7478 Z"/>
              <path fill="rgb(217,217,217)" stroke="none" d="M 4094,7478 L 4784,7478 4784,8143 4094,8143 4094,7478 Z M 4122,7506 L 4756,7506 4756,8115 4122,8115 4122,7506 Z"/>
              <path fill="rgb(218,218,218)" stroke="none" d="M 4122,7506 L 4756,7506 4756,8115 4122,8115 4122,7506 Z M 4151,7533 L 4727,7533 4727,8088 4151,8088 4151,7533 Z"/>
              <path fill="rgb(219,219,219)" stroke="none" d="M 4151,7533 L 4727,7533 4727,8088 4151,8088 4151,7533 Z M 4180,7561 L 4698,7561 4698,8060 4180,8060 4180,7561 Z"/>
              <path fill="rgb(220,220,220)" stroke="none" d="M 4180,7561 L 4698,7561 4698,8060 4180,8060 4180,7561 Z M 4209,7589 L 4669,7589 4669,8032 4209,8032 4209,7589 Z"/>
              <path fill="rgb(221,221,221)" stroke="none" d="M 4209,7589 L 4669,7589 4669,8032 4209,8032 4209,7589 Z M 4238,7617 L 4640,7617 4640,8004 4238,8004 4238,7617 Z"/>
              <path fill="rgb(222,222,222)" stroke="none" d="M 4238,7617 L 4640,7617 4640,8004 4238,8004 4238,7617 Z M 4267,7644 L 4611,7644 4611,7977 4267,7977 4267,7644 Z"/>
              <path fill="rgb(223,223,223)" stroke="none" d="M 4267,7644 L 4611,7644 4611,7977 4267,7977 4267,7644 Z M 4295,7672 L 4583,7672 4583,7949 4295,7949 4295,7672 Z"/>
              <path fill="rgb(224,224,224)" stroke="none" d="M 4295,7672 L 4583,7672 4583,7949 4295,7949 4295,7672 Z M 4324,7700 L 4554,7700 4554,7921 4324,7921 4324,7700 Z"/>
              <path fill="rgb(225,225,225)" stroke="none" d="M 4324,7700 L 4554,7700 4554,7921 4324,7921 4324,7700 Z M 4353,7728 L 4525,7728 4525,7893 4353,7893 4353,7728 Z"/>
              <path fill="rgb(226,226,226)" stroke="none" d="M 4353,7728 L 4525,7728 4525,7893 4353,7893 4353,7728 Z M 4382,7755 L 4496,7755 4496,7866 4382,7866 4382,7755 Z"/>
              <path fill="rgb(227,227,227)" stroke="none" d="M 4382,7755 L 4496,7755 4496,7866 4382,7866 4382,7755 Z M 4411,7783 L 4467,7783 4467,7838 4411,7838 4411,7783 Z"/>
              <path fill="rgb(229,229,229)" stroke="none" d="M 4411,7783 L 4467,7783 4467,7838 4411,7838 4411,7783 Z"/>
             </g>
            </pattern>
           </defs>
           <path style="fill:url(#pattern1)" d="M 3577,9753 L 3577,8643 6456,6979 6456,8089 3577,9753 Z"/>
          </g>
          <path fill="none" stroke="rgb(255,255,255)" stroke-width="40" stroke-linejoin="round" d="M 3577,9753 L 3577,8643 6456,6979 6456,8089 3577,9753 Z"/>
         </g>
        </g>
        <g class="com.sun.star.drawing.PolyPolygonShape">
         <g id="id6">
          <rect class="BoundingBox" stroke="none" fill="none" x="198" y="5017" width="6280" height="3647"/>
          <g>
           <defs>
            <linearGradient id="gradient2" x1="3337" y1="5037" x2="3337" y2="8643" gradientUnits="userSpaceOnUse">
             <stop offset="0.1" style="stop-color:rgb(179,179,179)"/>
             <stop offset="1" style="stop-color:rgb(229,229,229)"/>
            </linearGradient>
           </defs>
           <path style="fill:url(#gradient2)" d="M 3577,8643 L 218,6701 3097,5037 6457,6979 3577,8643 Z"/>
          </g>
          <path fill="none" stroke="rgb(255,255,255)" stroke-width="40" stroke-linejoin="round" d="M 3577,8643 L 218,6701 3097,5037 6457,6979 3577,8643 Z"/>
         </g>
        </g>
        <g class="com.sun.star.drawing.LineShape">
         <g id="id7">
          <rect class="BoundingBox" stroke="none" fill="none" x="1350" y="7569" width="41" height="707"/>
          <path fill="none" stroke="rgb(127,127,127)" stroke-width="40" stroke-linejoin="round" d="M 1370,7589 L 1370,8255"/>
         </g>
        </g>
        <g class="com.sun.star.drawing.LineShape">
         <g id="id8">
          <rect class="BoundingBox" stroke="none" fill="none" x="1925" y="8102" width="1578" height="929"/>
          <path fill="none" stroke="rgb(255,255,255)" stroke-width="40" stroke-linejoin="round" d="M 3482,9010 L 1946,8122"/>
         </g>
        </g>
        <g class="com.sun.star.drawing.LineShape">
         <g id="id9">
          <rect class="BoundingBox" stroke="none" fill="none" x="1917" y="7902" width="41" height="263"/>
          <path fill="none" stroke="rgb(255,255,255)" stroke-width="40" stroke-linejoin="round" d="M 1937,7922 L 1937,8144"/>
         </g>
        </g>
        <g class="com.sun.star.drawing.LineShape">
         <g id="id10">
          <rect class="BoundingBox" stroke="none" fill="none" x="3453" y="8790" width="41" height="263"/>
          <path fill="none" stroke="rgb(0,0,0)" stroke-width="40" stroke-linejoin="round" d="M 3473,8810 L 3473,9032"/>
         </g>
        </g>
        <g class="com.sun.star.drawing.LineShape">
         <g id="id11">
          <rect class="BoundingBox" stroke="none" fill="none" x="1916" y="7902" width="1578" height="929"/>
          <path fill="none" stroke="rgb(0,0,0)" stroke-width="40" stroke-linejoin="round" d="M 3473,8810 L 1937,7922"/>
         </g>
        </g>
        <g class="com.sun.star.drawing.PolyPolygonShape">
         <g id="id12">
          <rect class="BoundingBox" stroke="none" fill="none" x="1542" y="7680" width="233" height="374"/>
          <path fill="rgb(57,181,74)" stroke="none" d="M 1562,7922 L 1562,7700 1754,7811 1754,8033 1562,7922 Z"/>
          <path fill="none" stroke="rgb(0,0,0)" stroke-width="40" stroke-linejoin="round" d="M 1562,7922 L 1562,7700 1754,7811 1754,8033 1562,7922 Z"/>
         </g>
        </g>
        <g class="com.sun.star.drawing.LineShape">
         <g id="id13">
          <rect class="BoundingBox" stroke="none" fill="none" x="1158" y="7458" width="41" height="707"/>
          <path fill="none" stroke="rgb(127,127,127)" stroke-width="40" stroke-linejoin="round" d="M 1178,7478 L 1178,8144"/>
         </g>
        </g>
        <g class="com.sun.star.drawing.LineShape">
         <g id="id14">
          <rect class="BoundingBox" stroke="none" fill="none" x="966" y="7347" width="41" height="707"/>
          <path fill="none" stroke="rgb(127,127,127)" stroke-width="40" stroke-linejoin="round" d="M 986,7367 L 986,8033"/>
         </g>
        </g>
        <g class="com.sun.star.drawing.LineShape">
         <g id="id15">
          <rect class="BoundingBox" stroke="none" fill="none" x="774" y="7236" width="41" height="707"/>
          <path fill="none" stroke="rgb(127,127,127)" stroke-width="40" stroke-linejoin="round" d="M 794,7256 L 794,7922"/>
         </g>
        </g>
        <g class="com.sun.star.drawing.LineShape">
         <g id="id16">
          <rect class="BoundingBox" stroke="none" fill="none" x="582" y="7125" width="41" height="707"/>
          <path fill="none" stroke="rgb(127,127,127)" stroke-width="40" stroke-linejoin="round" d="M 602,7145 L 602,7811"/>
         </g>
        </g>
        <g class="com.sun.star.drawing.LineShape">
         <g id="id17">
          <rect class="BoundingBox" stroke="none" fill="none" x="390" y="7014" width="41" height="707"/>
          <path fill="none" stroke="rgb(127,127,127)" stroke-width="40" stroke-linejoin="round" d="M 410,7034 L 410,7700"/>
         </g>
        </g>
        <g class="com.sun.star.drawing.PolyPolygonShape">
         <g id="id18">
          <rect class="BoundingBox" stroke="none" fill="none" x="6" y="6570" width="233" height="1262"/>
          <g>
           <defs>
            <linearGradient id="gradient3" x1="26" y1="7200" x2="219" y2="7200" gradientUnits="userSpaceOnUse">
             <stop offset="0.1" style="stop-color:rgb(179,179,179)"/>
             <stop offset="1" style="stop-color:rgb(229,229,229)"/>
            </linearGradient>
           </defs>
           <path style="fill:url(#gradient3)" d="M 26,7700 L 26,6590 218,6701 218,7811 26,7700 Z"/>
          </g>
          <path fill="none" stroke="rgb(255,255,255)" stroke-width="40" stroke-linejoin="round" d="M 26,7700 L 26,6590 218,6701 218,7811 26,7700 Z"/>
         </g>
        </g>
        <g class="com.sun.star.drawing.PolyPolygonShape">
         <g id="id19">
          <rect class="BoundingBox" stroke="none" fill="none" x="3557" y="8623" width="233" height="1263"/>
          <g>
           <defs>
            <linearGradient id="gradient4" x1="3577" y1="9253" x2="3770" y2="9253" gradientUnits="userSpaceOnUse">
             <stop offset="0.1" style="stop-color:rgb(179,179,179)"/>
             <stop offset="1" style="stop-color:rgb(229,229,229)"/>
            </linearGradient>
           </defs>
           <path style="fill:url(#gradient4)" d="M 3577,9753 L 3577,8643 3769,8754 3769,9864 3577,9753 Z"/>
          </g>
          <path fill="none" stroke="rgb(255,255,255)" stroke-width="40" stroke-linejoin="round" d="M 3577,9753 L 3577,8643 3769,8754 3769,9864 3577,9753 Z"/>
         </g>
        </g>
        <g class="com.sun.star.drawing.PolyPolygonShape">
         <g id="id20">
          <rect class="BoundingBox" stroke="none" fill="none" x="6" y="5017" width="6472" height="4868"/>
          <path fill="none" stroke="rgb(0,0,0)" stroke-width="40" stroke-linejoin="round" d="M 26,7700 L 26,6590 218,6701 3097,5037 6457,6979 6457,8088 3769,9642 3769,9864 26,7700 Z"/>
         </g>
        </g>
       </g>
      </g>
      <g class="Group">
       <g class="com.sun.star.drawing.ClosedBezierShape">
        <g id="id21">
         <rect class="BoundingBox" stroke="none" fill="none" x="4440" y="8837" width="886" height="679"/>
         <g>
          <defs>
           <pattern id="pattern2" x="4461" y="8858" width="845" height="637" patternUnits="userSpaceOnUse">
            <g transform="translate(-4461,-8858)">
             <path fill="rgb(0,115,188)" stroke="none" d="M 4460,8857 L 5306,8857 5306,9495 4460,9495 4460,8857 Z M 4295,8732 L 5133,8732 5133,9364 4295,9364 4295,8732 Z"/>
             <path fill="rgb(1,115,188)" stroke="none" d="M 4295,8732 L 5133,8732 5133,9364 4295,9364 4295,8732 Z M 4298,8735 L 5130,8735 5130,9361 4298,9361 4298,8735 Z"/>
             <path fill="rgb(2,116,188)" stroke="none" d="M 4298,8735 L 5130,8735 5130,9361 4298,9361 4298,8735 Z M 4302,8737 L 5126,8737 5126,9359 4302,9359 4302,8737 Z"/>
             <path fill="rgb(3,116,188)" stroke="none" d="M 4302,8737 L 5126,8737 5126,9359 4302,9359 4302,8737 Z M 4305,8740 L 5123,8740 5123,9356 4305,9356 4305,8740 Z"/>
             <path fill="rgb(4,117,189)" stroke="none" d="M 4305,8740 L 5123,8740 5123,9356 4305,9356 4305,8740 Z M 4308,8742 L 5120,8742 5120,9354 4308,9354 4308,8742 Z"/>
             <path fill="rgb(5,117,189)" stroke="none" d="M 4308,8742 L 5120,8742 5120,9354 4308,9354 4308,8742 Z M 4312,8745 L 5116,8745 5116,9351 4312,9351 4312,8745 Z"/>
             <path fill="rgb(6,118,189)" stroke="none" d="M 4312,8745 L 5116,8745 5116,9351 4312,9351 4312,8745 Z M 4315,8747 L 5113,8747 5113,9349 4315,9349 4315,8747 Z"/>
             <path fill="rgb(7,118,189)" stroke="none" d="M 4315,8747 L 5113,8747 5113,9349 4315,9349 4315,8747 Z M 4318,8750 L 5110,8750 5110,9346 4318,9346 4318,8750 Z"/>
             <path fill="rgb(8,119,190)" stroke="none" d="M 4318,8750 L 5110,8750 5110,9346 4318,9346 4318,8750 Z M 4322,8752 L 5106,8752 5106,9344 4322,9344 4322,8752 Z"/>
             <path fill="rgb(9,119,190)" stroke="none" d="M 4322,8752 L 5106,8752 5106,9344 4322,9344 4322,8752 Z M 4325,8755 L 5103,8755 5103,9341 4325,9341 4325,8755 Z"/>
             <path fill="rgb(10,120,190)" stroke="none" d="M 4325,8755 L 5103,8755 5103,9341 4325,9341 4325,8755 Z M 4328,8757 L 5100,8757 5100,9339 4328,9339 4328,8757 Z"/>
             <path fill="rgb(11,121,190)" stroke="none" d="M 4328,8757 L 5100,8757 5100,9339 4328,9339 4328,8757 Z M 4332,8760 L 5096,8760 5096,9336 4332,9336 4332,8760 Z"/>
             <path fill="rgb(12,121,191)" stroke="none" d="M 4332,8760 L 5096,8760 5096,9336 4332,9336 4332,8760 Z M 4335,8762 L 5093,8762 5093,9334 4335,9334 4335,8762 Z"/>
             <path fill="rgb(13,122,191)" stroke="none" d="M 4335,8762 L 5093,8762 5093,9334 4335,9334 4335,8762 Z M 4338,8765 L 5090,8765 5090,9331 4338,9331 4338,8765 Z"/>
             <path fill="rgb(14,122,191)" stroke="none" d="M 4338,8765 L 5090,8765 5090,9331 4338,9331 4338,8765 Z M 4342,8767 L 5086,8767 5086,9329 4342,9329 4342,8767 Z"/>
             <path fill="rgb(15,123,191)" stroke="none" d="M 4342,8767 L 5086,8767 5086,9329 4342,9329 4342,8767 Z M 4345,8770 L 5083,8770 5083,9326 4345,9326 4345,8770 Z"/>
             <path fill="rgb(16,123,192)" stroke="none" d="M 4345,8770 L 5083,8770 5083,9326 4345,9326 4345,8770 Z M 4348,8772 L 5080,8772 5080,9324 4348,9324 4348,8772 Z"/>
             <path fill="rgb(17,124,192)" stroke="none" d="M 4348,8772 L 5080,8772 5080,9324 4348,9324 4348,8772 Z M 4352,8775 L 5076,8775 5076,9321 4352,9321 4352,8775 Z"/>
             <path fill="rgb(18,124,192)" stroke="none" d="M 4352,8775 L 5076,8775 5076,9321 4352,9321 4352,8775 Z M 4355,8777 L 5073,8777 5073,9319 4355,9319 4355,8777 Z"/>
             <path fill="rgb(19,125,192)" stroke="none" d="M 4355,8777 L 5073,8777 5073,9319 4355,9319 4355,8777 Z M 4358,8780 L 5070,8780 5070,9316 4358,9316 4358,8780 Z"/>
             <path fill="rgb(20,126,193)" stroke="none" d="M 4358,8780 L 5070,8780 5070,9316 4358,9316 4358,8780 Z M 4362,8782 L 5066,8782 5066,9314 4362,9314 4362,8782 Z"/>
             <path fill="rgb(21,126,193)" stroke="none" d="M 4362,8782 L 5066,8782 5066,9314 4362,9314 4362,8782 Z M 4365,8785 L 5063,8785 5063,9311 4365,9311 4365,8785 Z"/>
             <path fill="rgb(22,127,193)" stroke="none" d="M 4365,8785 L 5063,8785 5063,9311 4365,9311 4365,8785 Z M 4368,8787 L 5060,8787 5060,9309 4368,9309 4368,8787 Z"/>
             <path fill="rgb(23,127,193)" stroke="none" d="M 4368,8787 L 5060,8787 5060,9309 4368,9309 4368,8787 Z M 4372,8790 L 5056,8790 5056,9306 4372,9306 4372,8790 Z"/>
             <path fill="rgb(24,128,194)" stroke="none" d="M 4372,8790 L 5056,8790 5056,9306 4372,9306 4372,8790 Z M 4375,8792 L 5053,8792 5053,9304 4375,9304 4375,8792 Z"/>
             <path fill="rgb(25,128,194)" stroke="none" d="M 4375,8792 L 5053,8792 5053,9304 4375,9304 4375,8792 Z M 4378,8795 L 5050,8795 5050,9301 4378,9301 4378,8795 Z"/>
             <path fill="rgb(26,129,194)" stroke="none" d="M 4378,8795 L 5050,8795 5050,9301 4378,9301 4378,8795 Z M 4382,8797 L 5046,8797 5046,9299 4382,9299 4382,8797 Z"/>
             <path fill="rgb(27,129,195)" stroke="none" d="M 4382,8797 L 5046,8797 5046,9299 4382,9299 4382,8797 Z M 4385,8800 L 5043,8800 5043,9296 4385,9296 4385,8800 Z"/>
             <path fill="rgb(28,130,195)" stroke="none" d="M 4385,8800 L 5043,8800 5043,9296 4385,9296 4385,8800 Z M 4388,8802 L 5040,8802 5040,9294 4388,9294 4388,8802 Z"/>
             <path fill="rgb(29,130,195)" stroke="none" d="M 4388,8802 L 5040,8802 5040,9294 4388,9294 4388,8802 Z M 4392,8805 L 5036,8805 5036,9291 4392,9291 4392,8805 Z"/>
             <path fill="rgb(30,131,195)" stroke="none" d="M 4392,8805 L 5036,8805 5036,9291 4392,9291 4392,8805 Z M 4395,8807 L 5033,8807 5033,9289 4395,9289 4395,8807 Z"/>
             <path fill="rgb(31,132,196)" stroke="none" d="M 4395,8807 L 5033,8807 5033,9289 4395,9289 4395,8807 Z M 4398,8810 L 5030,8810 5030,9286 4398,9286 4398,8810 Z"/>
             <path fill="rgb(32,132,196)" stroke="none" d="M 4398,8810 L 5030,8810 5030,9286 4398,9286 4398,8810 Z M 4402,8813 L 5026,8813 5026,9283 4402,9283 4402,8813 Z"/>
             <path fill="rgb(33,133,196)" stroke="none" d="M 4402,8813 L 5026,8813 5026,9283 4402,9283 4402,8813 Z M 4405,8815 L 5023,8815 5023,9281 4405,9281 4405,8815 Z"/>
             <path fill="rgb(34,133,196)" stroke="none" d="M 4405,8815 L 5023,8815 5023,9281 4405,9281 4405,8815 Z M 4408,8818 L 5020,8818 5020,9278 4408,9278 4408,8818 Z"/>
             <path fill="rgb(35,134,197)" stroke="none" d="M 4408,8818 L 5020,8818 5020,9278 4408,9278 4408,8818 Z M 4412,8820 L 5016,8820 5016,9276 4412,9276 4412,8820 Z"/>
             <path fill="rgb(36,134,197)" stroke="none" d="M 4412,8820 L 5016,8820 5016,9276 4412,9276 4412,8820 Z M 4415,8823 L 5013,8823 5013,9273 4415,9273 4415,8823 Z"/>
             <path fill="rgb(37,135,197)" stroke="none" d="M 4415,8823 L 5013,8823 5013,9273 4415,9273 4415,8823 Z M 4418,8825 L 5010,8825 5010,9271 4418,9271 4418,8825 Z"/>
             <path fill="rgb(38,135,197)" stroke="none" d="M 4418,8825 L 5010,8825 5010,9271 4418,9271 4418,8825 Z M 4422,8828 L 5006,8828 5006,9268 4422,9268 4422,8828 Z"/>
             <path fill="rgb(39,136,198)" stroke="none" d="M 4422,8828 L 5006,8828 5006,9268 4422,9268 4422,8828 Z M 4425,8830 L 5003,8830 5003,9266 4425,9266 4425,8830 Z"/>
             <path fill="rgb(40,137,198)" stroke="none" d="M 4425,8830 L 5003,8830 5003,9266 4425,9266 4425,8830 Z M 4428,8833 L 5000,8833 5000,9263 4428,9263 4428,8833 Z"/>
             <path fill="rgb(41,137,198)" stroke="none" d="M 4428,8833 L 5000,8833 5000,9263 4428,9263 4428,8833 Z M 4432,8835 L 4996,8835 4996,9261 4432,9261 4432,8835 Z"/>
             <path fill="rgb(42,138,198)" stroke="none" d="M 4432,8835 L 4996,8835 4996,9261 4432,9261 4432,8835 Z M 4435,8837 L 4993,8837 4993,9258 4435,9258 4435,8837 Z"/>
             <path fill="rgb(43,138,199)" stroke="none" d="M 4435,8837 L 4993,8837 4993,9258 4435,9258 4435,8837 Z M 4438,8839 L 4990,8839 4990,9256 4438,9256 4438,8839 Z"/>
             <path fill="rgb(44,139,199)" stroke="none" d="M 4438,8839 L 4990,8839 4990,9256 4438,9256 4438,8839 Z M 4441,8842 L 4986,8842 4986,9253 4441,9253 4441,8842 Z"/>
             <path fill="rgb(45,139,199)" stroke="none" d="M 4441,8842 L 4986,8842 4986,9253 4441,9253 4441,8842 Z M 4444,8844 L 4983,8844 4983,9251 4444,9251 4444,8844 Z"/>
             <path fill="rgb(46,140,199)" stroke="none" d="M 4444,8844 L 4983,8844 4983,9251 4444,9251 4444,8844 Z M 4447,8847 L 4980,8847 4980,9248 4447,9248 4447,8847 Z"/>
             <path fill="rgb(47,140,200)" stroke="none" d="M 4447,8847 L 4980,8847 4980,9248 4447,9248 4447,8847 Z M 4451,8849 L 4976,8849 4976,9246 4451,9246 4451,8849 Z"/>
             <path fill="rgb(48,141,200)" stroke="none" d="M 4451,8849 L 4976,8849 4976,9246 4451,9246 4451,8849 Z M 4454,8852 L 4973,8852 4973,9243 4454,9243 4454,8852 Z"/>
             <path fill="rgb(49,142,200)" stroke="none" d="M 4454,8852 L 4973,8852 4973,9243 4454,9243 4454,8852 Z M 4457,8854 L 4970,8854 4970,9241 4457,9241 4457,8854 Z"/>
             <path fill="rgb(50,142,200)" stroke="none" d="M 4457,8854 L 4970,8854 4970,9241 4457,9241 4457,8854 Z M 4461,8857 L 4966,8857 4966,9238 4461,9238 4461,8857 Z"/>
             <path fill="rgb(51,143,201)" stroke="none" d="M 4461,8857 L 4966,8857 4966,9238 4461,9238 4461,8857 Z M 4464,8859 L 4963,8859 4963,9236 4464,9236 4464,8859 Z"/>
             <path fill="rgb(52,143,201)" stroke="none" d="M 4464,8859 L 4963,8859 4963,9236 4464,9236 4464,8859 Z M 4467,8862 L 4960,8862 4960,9233 4467,9233 4467,8862 Z"/>
             <path fill="rgb(53,144,201)" stroke="none" d="M 4467,8862 L 4960,8862 4960,9233 4467,9233 4467,8862 Z M 4471,8864 L 4956,8864 4956,9231 4471,9231 4471,8864 Z"/>
             <path fill="rgb(54,144,202)" stroke="none" d="M 4471,8864 L 4956,8864 4956,9231 4471,9231 4471,8864 Z M 4474,8867 L 4953,8867 4953,9228 4474,9228 4474,8867 Z"/>
             <path fill="rgb(55,145,202)" stroke="none" d="M 4474,8867 L 4953,8867 4953,9228 4474,9228 4474,8867 Z M 4477,8869 L 4950,8869 4950,9226 4477,9226 4477,8869 Z"/>
             <path fill="rgb(56,145,202)" stroke="none" d="M 4477,8869 L 4950,8869 4950,9226 4477,9226 4477,8869 Z M 4481,8872 L 4946,8872 4946,9223 4481,9223 4481,8872 Z"/>
             <path fill="rgb(57,146,202)" stroke="none" d="M 4481,8872 L 4946,8872 4946,9223 4481,9223 4481,8872 Z M 4484,8874 L 4943,8874 4943,9221 4484,9221 4484,8874 Z"/>
             <path fill="rgb(58,146,203)" stroke="none" d="M 4484,8874 L 4943,8874 4943,9221 4484,9221 4484,8874 Z M 4487,8877 L 4940,8877 4940,9218 4487,9218 4487,8877 Z"/>
             <path fill="rgb(59,147,203)" stroke="none" d="M 4487,8877 L 4940,8877 4940,9218 4487,9218 4487,8877 Z M 4491,8879 L 4936,8879 4936,9216 4491,9216 4491,8879 Z"/>
             <path fill="rgb(60,148,203)" stroke="none" d="M 4491,8879 L 4936,8879 4936,9216 4491,9216 4491,8879 Z M 4494,8882 L 4933,8882 4933,9213 4494,9213 4494,8882 Z"/>
             <path fill="rgb(61,148,203)" stroke="none" d="M 4494,8882 L 4933,8882 4933,9213 4494,9213 4494,8882 Z M 4497,8884 L 4930,8884 4930,9211 4497,9211 4497,8884 Z"/>
             <path fill="rgb(62,149,204)" stroke="none" d="M 4497,8884 L 4930,8884 4930,9211 4497,9211 4497,8884 Z M 4501,8887 L 4926,8887 4926,9208 4501,9208 4501,8887 Z"/>
             <path fill="rgb(63,149,204)" stroke="none" d="M 4501,8887 L 4926,8887 4926,9208 4501,9208 4501,8887 Z M 4504,8890 L 4923,8890 4923,9205 4504,9205 4504,8890 Z"/>
             <path fill="rgb(64,150,204)" stroke="none" d="M 4504,8890 L 4923,8890 4923,9205 4504,9205 4504,8890 Z M 4507,8892 L 4920,8892 4920,9203 4507,9203 4507,8892 Z"/>
             <path fill="rgb(65,150,204)" stroke="none" d="M 4507,8892 L 4920,8892 4920,9203 4507,9203 4507,8892 Z M 4511,8895 L 4916,8895 4916,9200 4511,9200 4511,8895 Z"/>
             <path fill="rgb(66,151,205)" stroke="none" d="M 4511,8895 L 4916,8895 4916,9200 4511,9200 4511,8895 Z M 4514,8897 L 4913,8897 4913,9198 4514,9198 4514,8897 Z"/>
             <path fill="rgb(67,151,205)" stroke="none" d="M 4514,8897 L 4913,8897 4913,9198 4514,9198 4514,8897 Z M 4517,8900 L 4910,8900 4910,9195 4517,9195 4517,8900 Z"/>
             <path fill="rgb(68,152,205)" stroke="none" d="M 4517,8900 L 4910,8900 4910,9195 4517,9195 4517,8900 Z M 4521,8902 L 4906,8902 4906,9193 4521,9193 4521,8902 Z"/>
             <path fill="rgb(69,153,205)" stroke="none" d="M 4521,8902 L 4906,8902 4906,9193 4521,9193 4521,8902 Z M 4524,8905 L 4903,8905 4903,9190 4524,9190 4524,8905 Z"/>
             <path fill="rgb(70,153,206)" stroke="none" d="M 4524,8905 L 4903,8905 4903,9190 4524,9190 4524,8905 Z M 4527,8907 L 4900,8907 4900,9188 4527,9188 4527,8907 Z"/>
             <path fill="rgb(71,154,206)" stroke="none" d="M 4527,8907 L 4900,8907 4900,9188 4527,9188 4527,8907 Z M 4531,8910 L 4896,8910 4896,9185 4531,9185 4531,8910 Z"/>
             <path fill="rgb(72,154,206)" stroke="none" d="M 4531,8910 L 4896,8910 4896,9185 4531,9185 4531,8910 Z M 4534,8912 L 4893,8912 4893,9183 4534,9183 4534,8912 Z"/>
             <path fill="rgb(73,155,206)" stroke="none" d="M 4534,8912 L 4893,8912 4893,9183 4534,9183 4534,8912 Z M 4537,8915 L 4890,8915 4890,9180 4537,9180 4537,8915 Z"/>
             <path fill="rgb(74,155,207)" stroke="none" d="M 4537,8915 L 4890,8915 4890,9180 4537,9180 4537,8915 Z M 4541,8917 L 4886,8917 4886,9178 4541,9178 4541,8917 Z"/>
             <path fill="rgb(75,156,207)" stroke="none" d="M 4541,8917 L 4886,8917 4886,9178 4541,9178 4541,8917 Z M 4544,8920 L 4883,8920 4883,9175 4544,9175 4544,8920 Z"/>
             <path fill="rgb(76,156,207)" stroke="none" d="M 4544,8920 L 4883,8920 4883,9175 4544,9175 4544,8920 Z M 4547,8922 L 4880,8922 4880,9173 4547,9173 4547,8922 Z"/>
             <path fill="rgb(77,157,208)" stroke="none" d="M 4547,8922 L 4880,8922 4880,9173 4547,9173 4547,8922 Z M 4551,8925 L 4876,8925 4876,9170 4551,9170 4551,8925 Z"/>
             <path fill="rgb(78,157,208)" stroke="none" d="M 4551,8925 L 4876,8925 4876,9170 4551,9170 4551,8925 Z M 4554,8927 L 4873,8927 4873,9168 4554,9168 4554,8927 Z"/>
             <path fill="rgb(79,158,208)" stroke="none" d="M 4554,8927 L 4873,8927 4873,9168 4554,9168 4554,8927 Z M 4557,8930 L 4870,8930 4870,9165 4557,9165 4557,8930 Z"/>
             <path fill="rgb(80,159,208)" stroke="none" d="M 4557,8930 L 4870,8930 4870,9165 4557,9165 4557,8930 Z M 4561,8932 L 4866,8932 4866,9163 4561,9163 4561,8932 Z"/>
             <path fill="rgb(81,159,209)" stroke="none" d="M 4561,8932 L 4866,8932 4866,9163 4561,9163 4561,8932 Z M 4564,8935 L 4863,8935 4863,9160 4564,9160 4564,8935 Z"/>
             <path fill="rgb(82,160,209)" stroke="none" d="M 4564,8935 L 4863,8935 4863,9160 4564,9160 4564,8935 Z M 4567,8937 L 4860,8937 4860,9158 4567,9158 4567,8937 Z"/>
             <path fill="rgb(83,160,209)" stroke="none" d="M 4567,8937 L 4860,8937 4860,9158 4567,9158 4567,8937 Z M 4571,8940 L 4856,8940 4856,9155 4571,9155 4571,8940 Z"/>
             <path fill="rgb(84,161,209)" stroke="none" d="M 4571,8940 L 4856,8940 4856,9155 4571,9155 4571,8940 Z M 4574,8942 L 4853,8942 4853,9153 4574,9153 4574,8942 Z"/>
             <path fill="rgb(85,161,210)" stroke="none" d="M 4574,8942 L 4853,8942 4853,9153 4574,9153 4574,8942 Z M 4577,8945 L 4850,8945 4850,9150 4577,9150 4577,8945 Z"/>
             <path fill="rgb(86,162,210)" stroke="none" d="M 4577,8945 L 4850,8945 4850,9150 4577,9150 4577,8945 Z M 4581,8947 L 4846,8947 4846,9148 4581,9148 4581,8947 Z"/>
             <path fill="rgb(87,162,210)" stroke="none" d="M 4581,8947 L 4846,8947 4846,9148 4581,9148 4581,8947 Z M 4584,8950 L 4843,8950 4843,9145 4584,9145 4584,8950 Z"/>
             <path fill="rgb(88,163,210)" stroke="none" d="M 4584,8950 L 4843,8950 4843,9145 4584,9145 4584,8950 Z M 4587,8952 L 4840,8952 4840,9143 4587,9143 4587,8952 Z"/>
             <path fill="rgb(89,164,211)" stroke="none" d="M 4587,8952 L 4840,8952 4840,9143 4587,9143 4587,8952 Z M 4591,8955 L 4836,8955 4836,9140 4591,9140 4591,8955 Z"/>
             <path fill="rgb(90,164,211)" stroke="none" d="M 4591,8955 L 4836,8955 4836,9140 4591,9140 4591,8955 Z M 4594,8957 L 4833,8957 4833,9138 4594,9138 4594,8957 Z"/>
             <path fill="rgb(91,165,211)" stroke="none" d="M 4594,8957 L 4833,8957 4833,9138 4594,9138 4594,8957 Z M 4597,8960 L 4830,8960 4830,9135 4597,9135 4597,8960 Z"/>
             <path fill="rgb(92,165,211)" stroke="none" d="M 4597,8960 L 4830,8960 4830,9135 4597,9135 4597,8960 Z M 4601,8962 L 4826,8962 4826,9133 4601,9133 4601,8962 Z"/>
             <path fill="rgb(93,166,212)" stroke="none" d="M 4601,8962 L 4826,8962 4826,9133 4601,9133 4601,8962 Z M 4604,8965 L 4823,8965 4823,9130 4604,9130 4604,8965 Z"/>
             <path fill="rgb(94,166,212)" stroke="none" d="M 4604,8965 L 4823,8965 4823,9130 4604,9130 4604,8965 Z M 4607,8967 L 4820,8967 4820,9128 4607,9128 4607,8967 Z"/>
             <path fill="rgb(95,167,212)" stroke="none" d="M 4607,8967 L 4820,8967 4820,9128 4607,9128 4607,8967 Z M 4611,8970 L 4816,8970 4816,9125 4611,9125 4611,8970 Z"/>
             <path fill="rgb(96,167,212)" stroke="none" d="M 4611,8970 L 4816,8970 4816,9125 4611,9125 4611,8970 Z M 4614,8973 L 4813,8973 4813,9122 4614,9122 4614,8973 Z"/>
             <path fill="rgb(97,168,213)" stroke="none" d="M 4614,8973 L 4813,8973 4813,9122 4614,9122 4614,8973 Z M 4617,8975 L 4810,8975 4810,9120 4617,9120 4617,8975 Z"/>
             <path fill="rgb(98,169,213)" stroke="none" d="M 4617,8975 L 4810,8975 4810,9120 4617,9120 4617,8975 Z M 4621,8978 L 4806,8978 4806,9117 4621,9117 4621,8978 Z"/>
             <path fill="rgb(99,169,213)" stroke="none" d="M 4621,8978 L 4806,8978 4806,9117 4621,9117 4621,8978 Z M 4624,8980 L 4803,8980 4803,9115 4624,9115 4624,8980 Z"/>
             <path fill="rgb(100,170,213)" stroke="none" d="M 4624,8980 L 4803,8980 4803,9115 4624,9115 4624,8980 Z M 4627,8983 L 4800,8983 4800,9112 4627,9112 4627,8983 Z"/>
             <path fill="rgb(101,170,214)" stroke="none" d="M 4627,8983 L 4800,8983 4800,9112 4627,9112 4627,8983 Z M 4631,8985 L 4796,8985 4796,9110 4631,9110 4631,8985 Z"/>
             <path fill="rgb(102,171,214)" stroke="none" d="M 4631,8985 L 4796,8985 4796,9110 4631,9110 4631,8985 Z M 4634,8988 L 4793,8988 4793,9107 4634,9107 4634,8988 Z"/>
             <path fill="rgb(103,171,214)" stroke="none" d="M 4634,8988 L 4793,8988 4793,9107 4634,9107 4634,8988 Z M 4637,8990 L 4790,8990 4790,9105 4637,9105 4637,8990 Z"/>
             <path fill="rgb(104,172,215)" stroke="none" d="M 4637,8990 L 4790,8990 4790,9105 4637,9105 4637,8990 Z M 4641,8993 L 4786,8993 4786,9102 4641,9102 4641,8993 Z"/>
             <path fill="rgb(105,172,215)" stroke="none" d="M 4641,8993 L 4786,8993 4786,9102 4641,9102 4641,8993 Z M 4644,8995 L 4783,8995 4783,9100 4644,9100 4644,8995 Z"/>
             <path fill="rgb(106,173,215)" stroke="none" d="M 4644,8995 L 4783,8995 4783,9100 4644,9100 4644,8995 Z M 4647,8998 L 4780,8998 4780,9097 4647,9097 4647,8998 Z"/>
             <path fill="rgb(107,173,215)" stroke="none" d="M 4647,8998 L 4780,8998 4780,9097 4647,9097 4647,8998 Z M 4651,9000 L 4776,9000 4776,9095 4651,9095 4651,9000 Z"/>
             <path fill="rgb(108,174,216)" stroke="none" d="M 4651,9000 L 4776,9000 4776,9095 4651,9095 4651,9000 Z M 4654,9003 L 4773,9003 4773,9092 4654,9092 4654,9003 Z"/>
             <path fill="rgb(109,175,216)" stroke="none" d="M 4654,9003 L 4773,9003 4773,9092 4654,9092 4654,9003 Z M 4657,9005 L 4770,9005 4770,9090 4657,9090 4657,9005 Z"/>
             <path fill="rgb(110,175,216)" stroke="none" d="M 4657,9005 L 4770,9005 4770,9090 4657,9090 4657,9005 Z M 4661,9008 L 4766,9008 4766,9087 4661,9087 4661,9008 Z"/>
             <path fill="rgb(111,176,216)" stroke="none" d="M 4661,9008 L 4766,9008 4766,9087 4661,9087 4661,9008 Z M 4664,9010 L 4763,9010 4763,9085 4664,9085 4664,9010 Z"/>
             <path fill="rgb(112,176,217)" stroke="none" d="M 4664,9010 L 4763,9010 4763,9085 4664,9085 4664,9010 Z M 4667,9013 L 4760,9013 4760,9082 4667,9082 4667,9013 Z"/>
             <path fill="rgb(113,177,217)" stroke="none" d="M 4667,9013 L 4760,9013 4760,9082 4667,9082 4667,9013 Z M 4671,9015 L 4756,9015 4756,9080 4671,9080 4671,9015 Z"/>
             <path fill="rgb(114,177,217)" stroke="none" d="M 4671,9015 L 4756,9015 4756,9080 4671,9080 4671,9015 Z M 4674,9018 L 4753,9018 4753,9077 4674,9077 4674,9018 Z"/>
             <path fill="rgb(115,178,217)" stroke="none" d="M 4674,9018 L 4753,9018 4753,9077 4674,9077 4674,9018 Z M 4677,9020 L 4750,9020 4750,9075 4677,9075 4677,9020 Z"/>
             <path fill="rgb(116,178,218)" stroke="none" d="M 4677,9020 L 4750,9020 4750,9075 4677,9075 4677,9020 Z M 4681,9023 L 4746,9023 4746,9072 4681,9072 4681,9023 Z"/>
             <path fill="rgb(117,179,218)" stroke="none" d="M 4681,9023 L 4746,9023 4746,9072 4681,9072 4681,9023 Z M 4684,9025 L 4743,9025 4743,9070 4684,9070 4684,9025 Z"/>
             <path fill="rgb(118,180,218)" stroke="none" d="M 4684,9025 L 4743,9025 4743,9070 4684,9070 4684,9025 Z M 4687,9028 L 4740,9028 4740,9067 4687,9067 4687,9028 Z"/>
             <path fill="rgb(119,180,218)" stroke="none" d="M 4687,9028 L 4740,9028 4740,9067 4687,9067 4687,9028 Z M 4691,9030 L 4736,9030 4736,9065 4691,9065 4691,9030 Z"/>
             <path fill="rgb(120,181,219)" stroke="none" d="M 4691,9030 L 4736,9030 4736,9065 4691,9065 4691,9030 Z M 4694,9033 L 4733,9033 4733,9062 4694,9062 4694,9033 Z"/>
             <path fill="rgb(121,181,219)" stroke="none" d="M 4694,9033 L 4733,9033 4733,9062 4694,9062 4694,9033 Z M 4697,9035 L 4730,9035 4730,9060 4697,9060 4697,9035 Z"/>
             <path fill="rgb(122,182,219)" stroke="none" d="M 4697,9035 L 4730,9035 4730,9060 4697,9060 4697,9035 Z M 4701,9038 L 4726,9038 4726,9057 4701,9057 4701,9038 Z"/>
             <path fill="rgb(123,182,219)" stroke="none" d="M 4701,9038 L 4726,9038 4726,9057 4701,9057 4701,9038 Z M 4704,9040 L 4723,9040 4723,9055 4704,9055 4704,9040 Z"/>
             <path fill="rgb(124,183,220)" stroke="none" d="M 4704,9040 L 4723,9040 4723,9055 4704,9055 4704,9040 Z M 4707,9043 L 4720,9043 4720,9052 4707,9052 4707,9043 Z"/>
             <path fill="rgb(125,183,220)" stroke="none" d="M 4707,9043 L 4720,9043 4720,9052 4707,9052 4707,9043 Z M 4711,9045 L 4716,9045 4716,9050 4711,9050 4711,9045 Z"/>
             <path fill="rgb(127,185,221)" stroke="none" d="M 4711,9045 L 4716,9045 4716,9050 4711,9050 4711,9045 Z"/>
            </g>
           </pattern>
          </defs>
          <path style="fill:url(#pattern2)" d="M 4877,8858 L 4942,8861 5000,8869 5052,8881 5098,8898 5138,8919 5173,8944 5203,8972 5228,9003 5249,9036 5266,9072 5279,9109 5289,9147 5297,9187 5301,9227 5305,9307 5278,9333 5243,9359 5201,9384 5154,9408 5102,9430 5045,9449 4986,9465 4924,9479 4862,9488 4798,9493 4736,9494 4674,9489 4616,9478 4560,9462 4509,9438 4485,9424 4463,9408 4461,9368 4462,9325 4465,9280 4470,9235 4479,9189 4491,9143 4507,9098 4527,9055 4552,9015 4581,8977 4616,8944 4656,8915 4701,8891 4753,8873 4811,8862 4877,8858 Z"/>
         </g>
         <path fill="none" stroke="rgb(255,255,255)" stroke-width="40" stroke-linejoin="round" d="M 4877,8858 C 5244,8858 5305,9095 5305,9307 5183,9448 4694,9590 4463,9408 4450,9201 4511,8858 4877,8858 Z"/>
        </g>
       </g>
       <g class="com.sun.star.drawing.ClosedBezierShape">
        <g id="id22">
         <rect class="BoundingBox" stroke="none" fill="none" x="4858" y="8944" width="224" height="500"/>
         <path fill="rgb(255,255,255)" stroke="none" d="M 4878,8999 C 4919,8976 5021,8988 5061,8964 5061,9105 5061,9423 5061,9423 5061,9263 4919,9117 4878,8999 Z"/>
         <path fill="none" stroke="rgb(255,255,255)" stroke-width="40" stroke-linejoin="round" d="M 4878,8999 C 4919,8976 5021,8988 5061,8964 5061,9105 5061,9423 5061,9423 5061,9263 4919,9117 4878,8999 Z"/>
        </g>
       </g>
       <g class="com.sun.star.drawing.ClosedBezierShape">
        <g id="id23">
         <rect class="BoundingBox" stroke="none" fill="none" x="4778" y="8625" width="320" height="426"/>
         <path fill="rgb(249,180,96)" stroke="none" d="M 4921,8646 C 5025,8646 5058,8775 5058,8845 5058,8916 5122,8999 5014,9022 4907,9045 4799,9018 4799,8858 4799,8698 4817,8646 4921,8646 Z"/>
         <path fill="none" stroke="rgb(255,255,255)" stroke-width="40" stroke-linejoin="round" d="M 4921,8646 C 5025,8646 5058,8775 5058,8845 5058,8916 5122,8999 5014,9022 4907,9045 4799,9018 4799,8858 4799,8698 4817,8646 4921,8646 Z"/>
        </g>
       </g>
       <g class="com.sun.star.drawing.ClosedBezierShape">
        <g id="id24">
         <rect class="BoundingBox" stroke="none" fill="none" x="4796" y="8309" width="469" height="606"/>
         <g>
          <defs>
           <pattern id="pattern3" x="4816" y="8329" width="429" height="566" patternUnits="userSpaceOnUse">
            <g transform="translate(-4816,-8329)">
             <path fill="rgb(251,201,142)" stroke="none" d="M 4815,8328 L 5245,8328 5245,8895 4815,8895 4815,8328 Z M 4732,8218 L 5156,8218 5156,8777 4732,8777 4732,8218 Z"/>
             <path fill="rgb(251,201,143)" stroke="none" d="M 4732,8218 L 5156,8218 5156,8777 4732,8777 4732,8218 Z M 4734,8221 L 5154,8221 5154,8774 4734,8774 4734,8221 Z"/>
             <path fill="rgb(251,201,144)" stroke="none" d="M 4734,8221 L 5154,8221 5154,8774 4734,8774 4734,8221 Z M 4737,8224 L 5151,8224 5151,8771 4737,8771 4737,8224 Z"/>
             <path fill="rgb(251,202,145)" stroke="none" d="M 4737,8224 L 5151,8224 5151,8771 4737,8771 4737,8224 Z M 4739,8227 L 5149,8227 5149,8768 4739,8768 4739,8227 Z"/>
             <path fill="rgb(251,202,146)" stroke="none" d="M 4739,8227 L 5149,8227 5149,8768 4739,8768 4739,8227 Z M 4741,8230 L 5147,8230 5147,8765 4741,8765 4741,8230 Z"/>
             <path fill="rgb(251,203,147)" stroke="none" d="M 4741,8230 L 5147,8230 5147,8765 4741,8765 4741,8230 Z M 4744,8233 L 5144,8233 5144,8762 4744,8762 4744,8233 Z"/>
             <path fill="rgb(251,203,148)" stroke="none" d="M 4744,8233 L 5144,8233 5144,8762 4744,8762 4744,8233 Z M 4746,8237 L 5142,8237 5142,8758 4746,8758 4746,8237 Z"/>
             <path fill="rgb(251,204,149)" stroke="none" d="M 4746,8237 L 5142,8237 5142,8758 4746,8758 4746,8237 Z M 4749,8240 L 5139,8240 5139,8755 4749,8755 4749,8240 Z"/>
             <path fill="rgb(251,204,150)" stroke="none" d="M 4749,8240 L 5139,8240 5139,8755 4749,8755 4749,8240 Z M 4751,8243 L 5137,8243 5137,8752 4751,8752 4751,8243 Z"/>
             <path fill="rgb(251,205,151)" stroke="none" d="M 4751,8243 L 5137,8243 5137,8752 4751,8752 4751,8243 Z M 4753,8246 L 5135,8246 5135,8749 4753,8749 4753,8246 Z"/>
             <path fill="rgb(251,205,152)" stroke="none" d="M 4753,8246 L 5135,8246 5135,8749 4753,8749 4753,8246 Z M 4756,8249 L 5132,8249 5132,8746 4756,8746 4756,8249 Z"/>
             <path fill="rgb(251,206,153)" stroke="none" d="M 4756,8249 L 5132,8249 5132,8746 4756,8746 4756,8249 Z M 4758,8252 L 5130,8252 5130,8743 4758,8743 4758,8252 Z"/>
             <path fill="rgb(251,206,154)" stroke="none" d="M 4758,8252 L 5130,8252 5130,8743 4758,8743 4758,8252 Z M 4761,8256 L 5127,8256 5127,8739 4761,8739 4761,8256 Z"/>
             <path fill="rgb(251,207,155)" stroke="none" d="M 4761,8256 L 5127,8256 5127,8739 4761,8739 4761,8256 Z M 4763,8259 L 5125,8259 5125,8736 4763,8736 4763,8259 Z"/>
             <path fill="rgb(251,207,156)" stroke="none" d="M 4763,8259 L 5125,8259 5125,8736 4763,8736 4763,8259 Z M 4765,8262 L 5123,8262 5123,8733 4765,8733 4765,8262 Z"/>
             <path fill="rgb(251,208,157)" stroke="none" d="M 4765,8262 L 5123,8262 5123,8733 4765,8733 4765,8262 Z M 4768,8265 L 5120,8265 5120,8730 4768,8730 4768,8265 Z"/>
             <path fill="rgb(251,208,158)" stroke="none" d="M 4768,8265 L 5120,8265 5120,8730 4768,8730 4768,8265 Z M 4770,8268 L 5118,8268 5118,8727 4770,8727 4770,8268 Z"/>
             <path fill="rgb(251,209,159)" stroke="none" d="M 4770,8268 L 5118,8268 5118,8727 4770,8727 4770,8268 Z M 4773,8271 L 5115,8271 5115,8724 4773,8724 4773,8271 Z"/>
             <path fill="rgb(251,209,160)" stroke="none" d="M 4773,8271 L 5115,8271 5115,8724 4773,8724 4773,8271 Z M 4775,8274 L 5113,8274 5113,8721 4775,8721 4775,8274 Z"/>
             <path fill="rgb(251,210,161)" stroke="none" d="M 4775,8274 L 5113,8274 5113,8721 4775,8721 4775,8274 Z M 4777,8278 L 5111,8278 5111,8717 4777,8717 4777,8278 Z"/>
             <path fill="rgb(251,210,162)" stroke="none" d="M 4777,8278 L 5111,8278 5111,8717 4777,8717 4777,8278 Z M 4780,8281 L 5108,8281 5108,8714 4780,8714 4780,8281 Z"/>
             <path fill="rgb(251,211,163)" stroke="none" d="M 4780,8281 L 5108,8281 5108,8714 4780,8714 4780,8281 Z M 4782,8284 L 5106,8284 5106,8711 4782,8711 4782,8284 Z"/>
             <path fill="rgb(251,211,164)" stroke="none" d="M 4782,8284 L 5106,8284 5106,8711 4782,8711 4782,8284 Z M 4785,8287 L 5103,8287 5103,8708 4785,8708 4785,8287 Z"/>
             <path fill="rgb(251,211,165)" stroke="none" d="M 4785,8287 L 5103,8287 5103,8708 4785,8708 4785,8287 Z M 4787,8290 L 5101,8290 5101,8705 4787,8705 4787,8290 Z"/>
             <path fill="rgb(251,212,166)" stroke="none" d="M 4787,8290 L 5101,8290 5101,8705 4787,8705 4787,8290 Z M 4789,8293 L 5099,8293 5099,8702 4789,8702 4789,8293 Z"/>
             <path fill="rgb(251,212,167)" stroke="none" d="M 4789,8293 L 5099,8293 5099,8702 4789,8702 4789,8293 Z M 4792,8297 L 5096,8297 5096,8698 4792,8698 4792,8297 Z"/>
             <path fill="rgb(251,213,168)" stroke="none" d="M 4792,8297 L 5096,8297 5096,8698 4792,8698 4792,8297 Z M 4794,8300 L 5094,8300 5094,8695 4794,8695 4794,8300 Z"/>
             <path fill="rgb(251,213,169)" stroke="none" d="M 4794,8300 L 5094,8300 5094,8695 4794,8695 4794,8300 Z M 4796,8303 L 5091,8303 5091,8692 4796,8692 4796,8303 Z"/>
             <path fill="rgb(251,214,170)" stroke="none" d="M 4796,8303 L 5091,8303 5091,8692 4796,8692 4796,8303 Z M 4798,8306 L 5089,8306 5089,8689 4798,8689 4798,8306 Z"/>
             <path fill="rgb(251,214,171)" stroke="none" d="M 4798,8306 L 5089,8306 5089,8689 4798,8689 4798,8306 Z M 4800,8309 L 5087,8309 5087,8686 4800,8686 4800,8309 Z"/>
             <path fill="rgb(252,215,172)" stroke="none" d="M 4800,8309 L 5087,8309 5087,8686 4800,8686 4800,8309 Z M 4803,8311 L 5084,8311 5084,8683 4803,8683 4803,8311 Z"/>
             <path fill="rgb(252,215,173)" stroke="none" d="M 4803,8311 L 5084,8311 5084,8683 4803,8683 4803,8311 Z M 4805,8314 L 5082,8314 5082,8680 4805,8680 4805,8314 Z"/>
             <path fill="rgb(252,216,174)" stroke="none" d="M 4805,8314 L 5082,8314 5082,8680 4805,8680 4805,8314 Z M 4808,8318 L 5079,8318 5079,8676 4808,8676 4808,8318 Z"/>
             <path fill="rgb(252,216,175)" stroke="none" d="M 4808,8318 L 5079,8318 5079,8676 4808,8676 4808,8318 Z M 4810,8321 L 5077,8321 5077,8673 4810,8673 4810,8321 Z"/>
             <path fill="rgb(252,217,176)" stroke="none" d="M 4810,8321 L 5077,8321 5077,8673 4810,8673 4810,8321 Z M 4812,8324 L 5075,8324 5075,8670 4812,8670 4812,8324 Z"/>
             <path fill="rgb(252,217,177)" stroke="none" d="M 4812,8324 L 5075,8324 5075,8670 4812,8670 4812,8324 Z M 4815,8327 L 5072,8327 5072,8667 4815,8667 4815,8327 Z"/>
             <path fill="rgb(252,218,178)" stroke="none" d="M 4815,8327 L 5072,8327 5072,8667 4815,8667 4815,8327 Z M 4817,8330 L 5070,8330 5070,8664 4817,8664 4817,8330 Z"/>
             <path fill="rgb(252,218,179)" stroke="none" d="M 4817,8330 L 5070,8330 5070,8664 4817,8664 4817,8330 Z M 4819,8333 L 5068,8333 5068,8661 4819,8661 4819,8333 Z"/>
             <path fill="rgb(252,219,180)" stroke="none" d="M 4819,8333 L 5068,8333 5068,8661 4819,8661 4819,8333 Z M 4822,8337 L 5065,8337 5065,8657 4822,8657 4822,8337 Z"/>
             <path fill="rgb(252,219,181)" stroke="none" d="M 4822,8337 L 5065,8337 5065,8657 4822,8657 4822,8337 Z M 4824,8340 L 5063,8340 5063,8654 4824,8654 4824,8340 Z"/>
             <path fill="rgb(252,220,182)" stroke="none" d="M 4824,8340 L 5063,8340 5063,8654 4824,8654 4824,8340 Z M 4827,8343 L 5060,8343 5060,8651 4827,8651 4827,8343 Z"/>
             <path fill="rgb(252,220,183)" stroke="none" d="M 4827,8343 L 5060,8343 5060,8651 4827,8651 4827,8343 Z M 4829,8346 L 5058,8346 5058,8648 4829,8648 4829,8346 Z"/>
             <path fill="rgb(252,221,184)" stroke="none" d="M 4829,8346 L 5058,8346 5058,8648 4829,8648 4829,8346 Z M 4831,8349 L 5056,8349 5056,8645 4831,8645 4831,8349 Z"/>
             <path fill="rgb(252,221,185)" stroke="none" d="M 4831,8349 L 5056,8349 5056,8645 4831,8645 4831,8349 Z M 4834,8352 L 5053,8352 5053,8642 4834,8642 4834,8352 Z"/>
             <path fill="rgb(252,222,186)" stroke="none" d="M 4834,8352 L 5053,8352 5053,8642 4834,8642 4834,8352 Z M 4836,8356 L 5051,8356 5051,8638 4836,8638 4836,8356 Z"/>
             <path fill="rgb(252,222,187)" stroke="none" d="M 4836,8356 L 5051,8356 5051,8638 4836,8638 4836,8356 Z M 4839,8359 L 5048,8359 5048,8635 4839,8635 4839,8359 Z"/>
             <path fill="rgb(252,222,188)" stroke="none" d="M 4839,8359 L 5048,8359 5048,8635 4839,8635 4839,8359 Z M 4841,8362 L 5046,8362 5046,8632 4841,8632 4841,8362 Z"/>
             <path fill="rgb(252,223,189)" stroke="none" d="M 4841,8362 L 5046,8362 5046,8632 4841,8632 4841,8362 Z M 4843,8365 L 5044,8365 5044,8629 4843,8629 4843,8365 Z"/>
             <path fill="rgb(252,223,190)" stroke="none" d="M 4843,8365 L 5044,8365 5044,8629 4843,8629 4843,8365 Z M 4846,8368 L 5041,8368 5041,8626 4846,8626 4846,8368 Z"/>
             <path fill="rgb(252,224,191)" stroke="none" d="M 4846,8368 L 5041,8368 5041,8626 4846,8626 4846,8368 Z M 4848,8371 L 5039,8371 5039,8623 4848,8623 4848,8371 Z"/>
             <path fill="rgb(252,224,192)" stroke="none" d="M 4848,8371 L 5039,8371 5039,8623 4848,8623 4848,8371 Z M 4851,8374 L 5036,8374 5036,8620 4851,8620 4851,8374 Z"/>
             <path fill="rgb(252,225,193)" stroke="none" d="M 4851,8374 L 5036,8374 5036,8620 4851,8620 4851,8374 Z M 4853,8378 L 5034,8378 5034,8616 4853,8616 4853,8378 Z"/>
             <path fill="rgb(252,225,194)" stroke="none" d="M 4853,8378 L 5034,8378 5034,8616 4853,8616 4853,8378 Z M 4855,8381 L 5032,8381 5032,8613 4855,8613 4855,8381 Z"/>
             <path fill="rgb(252,226,195)" stroke="none" d="M 4855,8381 L 5032,8381 5032,8613 4855,8613 4855,8381 Z M 4858,8384 L 5029,8384 5029,8610 4858,8610 4858,8384 Z"/>
             <path fill="rgb(252,226,196)" stroke="none" d="M 4858,8384 L 5029,8384 5029,8610 4858,8610 4858,8384 Z M 4860,8387 L 5027,8387 5027,8607 4860,8607 4860,8387 Z"/>
             <path fill="rgb(252,227,197)" stroke="none" d="M 4860,8387 L 5027,8387 5027,8607 4860,8607 4860,8387 Z M 4863,8390 L 5024,8390 5024,8604 4863,8604 4863,8390 Z"/>
             <path fill="rgb(252,227,198)" stroke="none" d="M 4863,8390 L 5024,8390 5024,8604 4863,8604 4863,8390 Z M 4865,8393 L 5022,8393 5022,8601 4865,8601 4865,8393 Z"/>
             <path fill="rgb(252,228,199)" stroke="none" d="M 4865,8393 L 5022,8393 5022,8601 4865,8601 4865,8393 Z M 4867,8397 L 5020,8397 5020,8597 4867,8597 4867,8397 Z"/>
             <path fill="rgb(252,228,200)" stroke="none" d="M 4867,8397 L 5020,8397 5020,8597 4867,8597 4867,8397 Z M 4870,8400 L 5017,8400 5017,8594 4870,8594 4870,8400 Z"/>
             <path fill="rgb(252,229,201)" stroke="none" d="M 4870,8400 L 5017,8400 5017,8594 4870,8594 4870,8400 Z M 4872,8403 L 5015,8403 5015,8591 4872,8591 4872,8403 Z"/>
             <path fill="rgb(253,229,202)" stroke="none" d="M 4872,8403 L 5015,8403 5015,8591 4872,8591 4872,8403 Z M 4875,8406 L 5012,8406 5012,8588 4875,8588 4875,8406 Z"/>
             <path fill="rgb(253,230,203)" stroke="none" d="M 4875,8406 L 5012,8406 5012,8588 4875,8588 4875,8406 Z M 4877,8409 L 5010,8409 5010,8585 4877,8585 4877,8409 Z"/>
             <path fill="rgb(253,230,204)" stroke="none" d="M 4877,8409 L 5010,8409 5010,8585 4877,8585 4877,8409 Z M 4879,8412 L 5008,8412 5008,8582 4879,8582 4879,8412 Z"/>
             <path fill="rgb(253,231,205)" stroke="none" d="M 4879,8412 L 5008,8412 5008,8582 4879,8582 4879,8412 Z M 4882,8415 L 5005,8415 5005,8579 4882,8579 4882,8415 Z"/>
             <path fill="rgb(253,231,206)" stroke="none" d="M 4882,8415 L 5005,8415 5005,8579 4882,8579 4882,8415 Z M 4884,8419 L 5003,8419 5003,8575 4884,8575 4884,8419 Z"/>
             <path fill="rgb(253,232,207)" stroke="none" d="M 4884,8419 L 5003,8419 5003,8575 4884,8575 4884,8419 Z M 4887,8422 L 5000,8422 5000,8572 4887,8572 4887,8422 Z"/>
             <path fill="rgb(253,232,208)" stroke="none" d="M 4887,8422 L 5000,8422 5000,8572 4887,8572 4887,8422 Z M 4889,8425 L 4998,8425 4998,8569 4889,8569 4889,8425 Z"/>
             <path fill="rgb(253,233,209)" stroke="none" d="M 4889,8425 L 4998,8425 4998,8569 4889,8569 4889,8425 Z M 4891,8428 L 4996,8428 4996,8566 4891,8566 4891,8428 Z"/>
             <path fill="rgb(253,233,210)" stroke="none" d="M 4891,8428 L 4996,8428 4996,8566 4891,8566 4891,8428 Z M 4894,8431 L 4993,8431 4993,8563 4894,8563 4894,8431 Z"/>
             <path fill="rgb(253,233,211)" stroke="none" d="M 4894,8431 L 4993,8431 4993,8563 4894,8563 4894,8431 Z M 4896,8434 L 4991,8434 4991,8560 4896,8560 4896,8434 Z"/>
             <path fill="rgb(253,234,212)" stroke="none" d="M 4896,8434 L 4991,8434 4991,8560 4896,8560 4896,8434 Z M 4899,8438 L 4988,8438 4988,8556 4899,8556 4899,8438 Z"/>
             <path fill="rgb(253,234,213)" stroke="none" d="M 4899,8438 L 4988,8438 4988,8556 4899,8556 4899,8438 Z M 4901,8441 L 4986,8441 4986,8553 4901,8553 4901,8441 Z"/>
             <path fill="rgb(253,235,214)" stroke="none" d="M 4901,8441 L 4986,8441 4986,8553 4901,8553 4901,8441 Z M 4903,8444 L 4984,8444 4984,8550 4903,8550 4903,8444 Z"/>
             <path fill="rgb(253,235,215)" stroke="none" d="M 4903,8444 L 4984,8444 4984,8550 4903,8550 4903,8444 Z M 4906,8447 L 4981,8447 4981,8547 4906,8547 4906,8447 Z"/>
             <path fill="rgb(253,236,216)" stroke="none" d="M 4906,8447 L 4981,8447 4981,8547 4906,8547 4906,8447 Z M 4908,8450 L 4979,8450 4979,8544 4908,8544 4908,8450 Z"/>
             <path fill="rgb(253,236,217)" stroke="none" d="M 4908,8450 L 4979,8450 4979,8544 4908,8544 4908,8450 Z M 4910,8453 L 4977,8453 4977,8541 4910,8541 4910,8453 Z"/>
             <path fill="rgb(253,237,218)" stroke="none" d="M 4910,8453 L 4977,8453 4977,8541 4910,8541 4910,8453 Z M 4913,8456 L 4974,8456 4974,8538 4913,8538 4913,8456 Z"/>
             <path fill="rgb(253,237,219)" stroke="none" d="M 4913,8456 L 4974,8456 4974,8538 4913,8538 4913,8456 Z M 4915,8460 L 4972,8460 4972,8534 4915,8534 4915,8460 Z"/>
             <path fill="rgb(253,238,220)" stroke="none" d="M 4915,8460 L 4972,8460 4972,8534 4915,8534 4915,8460 Z M 4918,8463 L 4969,8463 4969,8531 4918,8531 4918,8463 Z"/>
             <path fill="rgb(253,238,221)" stroke="none" d="M 4918,8463 L 4969,8463 4969,8531 4918,8531 4918,8463 Z M 4920,8466 L 4967,8466 4967,8528 4920,8528 4920,8466 Z"/>
             <path fill="rgb(253,239,222)" stroke="none" d="M 4920,8466 L 4967,8466 4967,8528 4920,8528 4920,8466 Z M 4922,8469 L 4965,8469 4965,8525 4922,8525 4922,8469 Z"/>
             <path fill="rgb(253,239,223)" stroke="none" d="M 4922,8469 L 4965,8469 4965,8525 4922,8525 4922,8469 Z M 4925,8472 L 4962,8472 4962,8522 4925,8522 4925,8472 Z"/>
             <path fill="rgb(253,240,224)" stroke="none" d="M 4925,8472 L 4962,8472 4962,8522 4925,8522 4925,8472 Z M 4927,8475 L 4960,8475 4960,8519 4927,8519 4927,8475 Z"/>
             <path fill="rgb(253,240,225)" stroke="none" d="M 4927,8475 L 4960,8475 4960,8519 4927,8519 4927,8475 Z M 4930,8479 L 4957,8479 4957,8515 4930,8515 4930,8479 Z"/>
             <path fill="rgb(253,241,226)" stroke="none" d="M 4930,8479 L 4957,8479 4957,8515 4930,8515 4930,8479 Z M 4932,8482 L 4955,8482 4955,8512 4932,8512 4932,8482 Z"/>
             <path fill="rgb(253,241,227)" stroke="none" d="M 4932,8482 L 4955,8482 4955,8512 4932,8512 4932,8482 Z M 4934,8485 L 4953,8485 4953,8509 4934,8509 4934,8485 Z"/>
             <path fill="rgb(253,242,228)" stroke="none" d="M 4934,8485 L 4953,8485 4953,8509 4934,8509 4934,8485 Z M 4937,8488 L 4950,8488 4950,8506 4937,8506 4937,8488 Z"/>
             <path fill="rgb(253,242,229)" stroke="none" d="M 4937,8488 L 4950,8488 4950,8506 4937,8506 4937,8488 Z M 4939,8491 L 4948,8491 4948,8503 4939,8503 4939,8491 Z"/>
             <path fill="rgb(253,243,230)" stroke="none" d="M 4939,8491 L 4948,8491 4948,8503 4939,8503 4939,8491 Z M 4942,8494 L 4945,8494 4945,8500 4942,8500 4942,8494 Z"/>
             <path fill="rgb(254,244,232)" stroke="none" d="M 4942,8494 L 4945,8494 4945,8500 4942,8500 4942,8494 Z"/>
            </g>
           </pattern>
          </defs>
          <path style="fill:url(#pattern3)" d="M 5060,8329 L 5098,8329 5116,8331 5133,8333 5149,8337 5164,8342 5171,8346 5178,8350 5185,8354 5191,8360 5197,8366 5203,8373 5213,8389 5222,8409 5230,8433 5236,8461 5240,8494 5243,8533 5244,8576 5240,8661 5236,8697 5230,8730 5222,8759 5213,8785 5203,8808 5191,8828 5178,8844 5164,8859 5149,8870 5133,8879 5116,8886 5098,8890 5079,8893 5060,8894 5050,8894 5040,8892 5020,8887 4999,8878 4978,8867 4958,8852 4938,8836 4918,8816 4899,8795 4882,8772 4866,8747 4852,8721 4840,8693 4830,8665 4822,8636 4818,8606 4816,8576 4818,8547 4822,8519 4830,8494 4840,8470 4852,8448 4866,8428 4882,8409 4899,8393 4918,8378 4938,8365 4958,8354 4978,8345 4999,8338 5020,8333 5040,8330 5060,8329 Z"/>
         </g>
         <path fill="none" stroke="rgb(255,255,255)" stroke-width="40" stroke-linejoin="round" d="M 5060,8329 C 5164,8329 5244,8329 5244,8576 5244,8823 5164,8894 5060,8894 4957,8894 4816,8736 4816,8576 4816,8416 4957,8329 5060,8329 Z"/>
        </g>
       </g>
       <g class="com.sun.star.drawing.ClosedBezierShape">
        <g id="id25">
         <rect class="BoundingBox" stroke="none" fill="none" x="4695" y="8166" width="560" height="578"/>
         <g>
          <defs>
           <linearGradient id="gradient5" x1="4974" y1="8721" x2="4974" y2="8186" gradientUnits="userSpaceOnUse">
            <stop offset="0.1" style="stop-color:rgb(0,0,0)"/>
            <stop offset="1" style="stop-color:rgb(255,255,255)"/>
           </linearGradient>
          </defs>
          <path style="fill:url(#gradient5)" d="M 4939,8187 L 4987,8187 5038,8189 5089,8194 5113,8199 5136,8205 5158,8212 5177,8221 5194,8233 5202,8239 5209,8246 5215,8254 5221,8263 5225,8272 5229,8281 5231,8292 5233,8303 5234,8315 5233,8328 5227,8334 5220,8339 5212,8343 5204,8347 5186,8354 5166,8359 5144,8362 5121,8365 5075,8368 5030,8370 5009,8372 4990,8374 4973,8378 4965,8380 4958,8383 4952,8386 4947,8390 4943,8394 4939,8399 4931,8414 4924,8430 4914,8463 4907,8497 4904,8531 4903,8654 4900,8678 4898,8688 4896,8697 4892,8705 4887,8711 4881,8717 4874,8720 4865,8722 4855,8722 4843,8720 4829,8717 4797,8704 4755,8682 4736,8624 4723,8569 4716,8518 4715,8471 4719,8426 4727,8386 4740,8349 4755,8315 4774,8286 4795,8260 4817,8238 4841,8220 4866,8205 4891,8195 4916,8189 4928,8188 4939,8187 Z"/>
         </g>
         <path fill="none" stroke="rgb(102,102,102)" stroke-width="40" stroke-linejoin="round" d="M 4939,8187 C 5061,8187 5244,8187 5233,8328 5171,8393 4971,8345 4939,8399 4842,8561 5000,8823 4755,8682 4633,8364 4816,8187 4939,8187 Z"/>
        </g>
       </g>
       <g class="com.sun.star.drawing.ClosedBezierShape">
        <g id="id26">
         <rect class="BoundingBox" stroke="none" fill="none" x="5224" y="8980" width="764" height="559"/>
         <g>
          <defs>
           <pattern id="pattern4" x="5244" y="9000" width="723" height="518" patternUnits="userSpaceOnUse">
            <g transform="translate(-5244,-9000)">
             <path fill="rgb(200,147,199)" stroke="none" d="M 5243,8999 L 5967,8999 5967,9518 5243,9518 5243,8999 Z M 5103,8899 L 5817,8899 5817,9410 5103,9410 5103,8899 Z"/>
             <path fill="rgb(200,148,199)" stroke="none" d="M 5103,8899 L 5817,8899 5817,9410 5103,9410 5103,8899 Z M 5107,8902 L 5813,8902 5813,9407 5107,9407 5107,8902 Z"/>
             <path fill="rgb(201,149,200)" stroke="none" d="M 5107,8902 L 5813,8902 5813,9407 5107,9407 5107,8902 Z M 5111,8905 L 5809,8905 5809,9404 5111,9404 5111,8905 Z"/>
             <path fill="rgb(201,150,200)" stroke="none" d="M 5111,8905 L 5809,8905 5809,9404 5111,9404 5111,8905 Z M 5115,8908 L 5805,8908 5805,9401 5115,9401 5115,8908 Z"/>
             <path fill="rgb(202,151,201)" stroke="none" d="M 5115,8908 L 5805,8908 5805,9401 5115,9401 5115,8908 Z M 5120,8911 L 5800,8911 5800,9398 5120,9398 5120,8911 Z"/>
             <path fill="rgb(202,152,201)" stroke="none" d="M 5120,8911 L 5800,8911 5800,9398 5120,9398 5120,8911 Z M 5124,8914 L 5796,8914 5796,9395 5124,9395 5124,8914 Z"/>
             <path fill="rgb(203,153,202)" stroke="none" d="M 5124,8914 L 5796,8914 5796,9395 5124,9395 5124,8914 Z M 5128,8917 L 5792,8917 5792,9392 5128,9392 5128,8917 Z"/>
             <path fill="rgb(203,154,202)" stroke="none" d="M 5128,8917 L 5792,8917 5792,9392 5128,9392 5128,8917 Z M 5132,8920 L 5788,8920 5788,9389 5132,9389 5132,8920 Z"/>
             <path fill="rgb(204,155,203)" stroke="none" d="M 5132,8920 L 5788,8920 5788,9389 5132,9389 5132,8920 Z M 5136,8923 L 5784,8923 5784,9386 5136,9386 5136,8923 Z"/>
             <path fill="rgb(204,156,203)" stroke="none" d="M 5136,8923 L 5784,8923 5784,9386 5136,9386 5136,8923 Z M 5141,8926 L 5779,8926 5779,9383 5141,9383 5141,8926 Z"/>
             <path fill="rgb(205,157,204)" stroke="none" d="M 5141,8926 L 5779,8926 5779,9383 5141,9383 5141,8926 Z M 5145,8929 L 5775,8929 5775,9380 5145,9380 5145,8929 Z"/>
             <path fill="rgb(205,158,204)" stroke="none" d="M 5145,8929 L 5775,8929 5775,9380 5145,9380 5145,8929 Z M 5149,8932 L 5771,8932 5771,9377 5149,9377 5149,8932 Z"/>
             <path fill="rgb(206,159,205)" stroke="none" d="M 5149,8932 L 5771,8932 5771,9377 5149,9377 5149,8932 Z M 5153,8935 L 5767,8935 5767,9374 5153,9374 5153,8935 Z"/>
             <path fill="rgb(206,160,205)" stroke="none" d="M 5153,8935 L 5767,8935 5767,9374 5153,9374 5153,8935 Z M 5158,8938 L 5762,8938 5762,9371 5158,9371 5158,8938 Z"/>
             <path fill="rgb(207,161,206)" stroke="none" d="M 5158,8938 L 5762,8938 5762,9371 5158,9371 5158,8938 Z M 5162,8941 L 5758,8941 5758,9368 5162,9368 5162,8941 Z"/>
             <path fill="rgb(207,162,206)" stroke="none" d="M 5162,8941 L 5758,8941 5758,9368 5162,9368 5162,8941 Z M 5166,8944 L 5754,8944 5754,9365 5166,9365 5166,8944 Z"/>
             <path fill="rgb(208,163,207)" stroke="none" d="M 5166,8944 L 5754,8944 5754,9365 5166,9365 5166,8944 Z M 5170,8947 L 5750,8947 5750,9362 5170,9362 5170,8947 Z"/>
             <path fill="rgb(208,164,207)" stroke="none" d="M 5170,8947 L 5750,8947 5750,9362 5170,9362 5170,8947 Z M 5174,8950 L 5746,8950 5746,9359 5174,9359 5174,8950 Z"/>
             <path fill="rgb(209,165,208)" stroke="none" d="M 5174,8950 L 5746,8950 5746,9359 5174,9359 5174,8950 Z M 5179,8953 L 5741,8953 5741,9356 5179,9356 5179,8953 Z"/>
             <path fill="rgb(209,166,208)" stroke="none" d="M 5179,8953 L 5741,8953 5741,9356 5179,9356 5179,8953 Z M 5183,8956 L 5737,8956 5737,9353 5183,9353 5183,8956 Z"/>
             <path fill="rgb(210,167,209)" stroke="none" d="M 5183,8956 L 5737,8956 5737,9353 5183,9353 5183,8956 Z M 5187,8959 L 5733,8959 5733,9350 5187,9350 5187,8959 Z"/>
             <path fill="rgb(210,168,209)" stroke="none" d="M 5187,8959 L 5733,8959 5733,9350 5187,9350 5187,8959 Z M 5191,8962 L 5729,8962 5729,9347 5191,9347 5191,8962 Z"/>
             <path fill="rgb(211,169,210)" stroke="none" d="M 5191,8962 L 5729,8962 5729,9347 5191,9347 5191,8962 Z M 5195,8965 L 5725,8965 5725,9344 5195,9344 5195,8965 Z"/>
             <path fill="rgb(211,170,210)" stroke="none" d="M 5195,8965 L 5725,8965 5725,9344 5195,9344 5195,8965 Z M 5200,8968 L 5720,8968 5720,9341 5200,9341 5200,8968 Z"/>
             <path fill="rgb(212,171,211)" stroke="none" d="M 5200,8968 L 5720,8968 5720,9341 5200,9341 5200,8968 Z M 5204,8971 L 5716,8971 5716,9338 5204,9338 5204,8971 Z"/>
             <path fill="rgb(212,172,211)" stroke="none" d="M 5204,8971 L 5716,8971 5716,9338 5204,9338 5204,8971 Z M 5208,8974 L 5712,8974 5712,9335 5208,9335 5208,8974 Z"/>
             <path fill="rgb(213,173,212)" stroke="none" d="M 5208,8974 L 5712,8974 5712,9335 5208,9335 5208,8974 Z M 5212,8977 L 5708,8977 5708,9332 5212,9332 5212,8977 Z"/>
             <path fill="rgb(213,174,212)" stroke="none" d="M 5212,8977 L 5708,8977 5708,9332 5212,9332 5212,8977 Z M 5217,8980 L 5703,8980 5703,9329 5217,9329 5217,8980 Z"/>
             <path fill="rgb(214,175,213)" stroke="none" d="M 5217,8980 L 5703,8980 5703,9329 5217,9329 5217,8980 Z M 5221,8982 L 5699,8982 5699,9326 5221,9326 5221,8982 Z"/>
             <path fill="rgb(214,176,213)" stroke="none" d="M 5221,8982 L 5699,8982 5699,9326 5221,9326 5221,8982 Z M 5224,8985 L 5695,8985 5695,9323 5224,9323 5224,8985 Z"/>
             <path fill="rgb(215,177,214)" stroke="none" d="M 5224,8985 L 5695,8985 5695,9323 5224,9323 5224,8985 Z M 5228,8988 L 5691,8988 5691,9320 5228,9320 5228,8988 Z"/>
             <path fill="rgb(215,178,214)" stroke="none" d="M 5228,8988 L 5691,8988 5691,9320 5228,9320 5228,8988 Z M 5232,8991 L 5687,8991 5687,9317 5232,9317 5232,8991 Z"/>
             <path fill="rgb(216,179,215)" stroke="none" d="M 5232,8991 L 5687,8991 5687,9317 5232,9317 5232,8991 Z M 5237,8994 L 5682,8994 5682,9314 5237,9314 5237,8994 Z"/>
             <path fill="rgb(216,180,215)" stroke="none" d="M 5237,8994 L 5682,8994 5682,9314 5237,9314 5237,8994 Z M 5241,8997 L 5678,8997 5678,9311 5241,9311 5241,8997 Z"/>
             <path fill="rgb(217,181,216)" stroke="none" d="M 5241,8997 L 5678,8997 5678,9311 5241,9311 5241,8997 Z M 5245,9000 L 5674,9000 5674,9308 5245,9308 5245,9000 Z"/>
             <path fill="rgb(217,182,216)" stroke="none" d="M 5245,9000 L 5674,9000 5674,9308 5245,9308 5245,9000 Z M 5249,9003 L 5670,9003 5670,9305 5249,9305 5249,9003 Z"/>
             <path fill="rgb(218,183,217)" stroke="none" d="M 5249,9003 L 5670,9003 5670,9305 5249,9305 5249,9003 Z M 5253,9006 L 5666,9006 5666,9302 5253,9302 5253,9006 Z"/>
             <path fill="rgb(218,184,217)" stroke="none" d="M 5253,9006 L 5666,9006 5666,9302 5253,9302 5253,9006 Z M 5258,9009 L 5661,9009 5661,9299 5258,9299 5258,9009 Z"/>
             <path fill="rgb(219,185,218)" stroke="none" d="M 5258,9009 L 5661,9009 5661,9299 5258,9299 5258,9009 Z M 5262,9012 L 5657,9012 5657,9296 5262,9296 5262,9012 Z"/>
             <path fill="rgb(219,186,218)" stroke="none" d="M 5262,9012 L 5657,9012 5657,9296 5262,9296 5262,9012 Z M 5266,9015 L 5653,9015 5653,9293 5266,9293 5266,9015 Z"/>
             <path fill="rgb(220,187,219)" stroke="none" d="M 5266,9015 L 5653,9015 5653,9293 5266,9293 5266,9015 Z M 5270,9018 L 5649,9018 5649,9290 5270,9290 5270,9018 Z"/>
             <path fill="rgb(220,188,219)" stroke="none" d="M 5270,9018 L 5649,9018 5649,9290 5270,9290 5270,9018 Z M 5275,9021 L 5644,9021 5644,9287 5275,9287 5275,9021 Z"/>
             <path fill="rgb(221,189,220)" stroke="none" d="M 5275,9021 L 5644,9021 5644,9287 5275,9287 5275,9021 Z M 5279,9025 L 5640,9025 5640,9284 5279,9284 5279,9025 Z"/>
             <path fill="rgb(222,190,221)" stroke="none" d="M 5279,9025 L 5640,9025 5640,9284 5279,9284 5279,9025 Z M 5283,9028 L 5636,9028 5636,9280 5283,9280 5283,9028 Z"/>
             <path fill="rgb(222,191,221)" stroke="none" d="M 5283,9028 L 5636,9028 5636,9280 5283,9280 5283,9028 Z M 5287,9031 L 5632,9031 5632,9277 5287,9277 5287,9031 Z"/>
             <path fill="rgb(223,192,222)" stroke="none" d="M 5287,9031 L 5632,9031 5632,9277 5287,9277 5287,9031 Z M 5291,9034 L 5628,9034 5628,9274 5291,9274 5291,9034 Z"/>
             <path fill="rgb(223,193,222)" stroke="none" d="M 5291,9034 L 5628,9034 5628,9274 5291,9274 5291,9034 Z M 5296,9037 L 5623,9037 5623,9271 5296,9271 5296,9037 Z"/>
             <path fill="rgb(224,194,223)" stroke="none" d="M 5296,9037 L 5623,9037 5623,9271 5296,9271 5296,9037 Z M 5300,9040 L 5619,9040 5619,9268 5300,9268 5300,9040 Z"/>
             <path fill="rgb(224,195,223)" stroke="none" d="M 5300,9040 L 5619,9040 5619,9268 5300,9268 5300,9040 Z M 5304,9043 L 5615,9043 5615,9265 5304,9265 5304,9043 Z"/>
             <path fill="rgb(225,196,224)" stroke="none" d="M 5304,9043 L 5615,9043 5615,9265 5304,9265 5304,9043 Z M 5308,9046 L 5611,9046 5611,9262 5308,9262 5308,9046 Z"/>
             <path fill="rgb(225,197,224)" stroke="none" d="M 5308,9046 L 5611,9046 5611,9262 5308,9262 5308,9046 Z M 5312,9049 L 5607,9049 5607,9259 5312,9259 5312,9049 Z"/>
             <path fill="rgb(226,198,225)" stroke="none" d="M 5312,9049 L 5607,9049 5607,9259 5312,9259 5312,9049 Z M 5317,9052 L 5602,9052 5602,9256 5317,9256 5317,9052 Z"/>
             <path fill="rgb(226,199,225)" stroke="none" d="M 5317,9052 L 5602,9052 5602,9256 5317,9256 5317,9052 Z M 5321,9055 L 5598,9055 5598,9253 5321,9253 5321,9055 Z"/>
             <path fill="rgb(227,200,226)" stroke="none" d="M 5321,9055 L 5598,9055 5598,9253 5321,9253 5321,9055 Z M 5325,9058 L 5594,9058 5594,9250 5325,9250 5325,9058 Z"/>
             <path fill="rgb(227,201,226)" stroke="none" d="M 5325,9058 L 5594,9058 5594,9250 5325,9250 5325,9058 Z M 5329,9061 L 5590,9061 5590,9247 5329,9247 5329,9061 Z"/>
             <path fill="rgb(228,202,227)" stroke="none" d="M 5329,9061 L 5590,9061 5590,9247 5329,9247 5329,9061 Z M 5334,9064 L 5585,9064 5585,9244 5334,9244 5334,9064 Z"/>
             <path fill="rgb(228,203,227)" stroke="none" d="M 5334,9064 L 5585,9064 5585,9244 5334,9244 5334,9064 Z M 5338,9067 L 5581,9067 5581,9241 5338,9241 5338,9067 Z"/>
             <path fill="rgb(229,204,228)" stroke="none" d="M 5338,9067 L 5581,9067 5581,9241 5338,9241 5338,9067 Z M 5342,9070 L 5577,9070 5577,9238 5342,9238 5342,9070 Z"/>
             <path fill="rgb(229,205,228)" stroke="none" d="M 5342,9070 L 5577,9070 5577,9238 5342,9238 5342,9070 Z M 5346,9073 L 5573,9073 5573,9235 5346,9235 5346,9073 Z"/>
             <path fill="rgb(230,206,229)" stroke="none" d="M 5346,9073 L 5573,9073 5573,9235 5346,9235 5346,9073 Z M 5350,9076 L 5569,9076 5569,9232 5350,9232 5350,9076 Z"/>
             <path fill="rgb(230,207,229)" stroke="none" d="M 5350,9076 L 5569,9076 5569,9232 5350,9232 5350,9076 Z M 5355,9079 L 5564,9079 5564,9229 5355,9229 5355,9079 Z"/>
             <path fill="rgb(231,208,230)" stroke="none" d="M 5355,9079 L 5564,9079 5564,9229 5355,9229 5355,9079 Z M 5359,9082 L 5560,9082 5560,9226 5359,9226 5359,9082 Z"/>
             <path fill="rgb(231,209,230)" stroke="none" d="M 5359,9082 L 5560,9082 5560,9226 5359,9226 5359,9082 Z M 5363,9085 L 5556,9085 5556,9223 5363,9223 5363,9085 Z"/>
             <path fill="rgb(232,210,231)" stroke="none" d="M 5363,9085 L 5556,9085 5556,9223 5363,9223 5363,9085 Z M 5367,9088 L 5552,9088 5552,9220 5367,9220 5367,9088 Z"/>
             <path fill="rgb(232,211,231)" stroke="none" d="M 5367,9088 L 5552,9088 5552,9220 5367,9220 5367,9088 Z M 5371,9091 L 5548,9091 5548,9217 5371,9217 5371,9091 Z"/>
             <path fill="rgb(233,212,232)" stroke="none" d="M 5371,9091 L 5548,9091 5548,9217 5371,9217 5371,9091 Z M 5376,9094 L 5543,9094 5543,9214 5376,9214 5376,9094 Z"/>
             <path fill="rgb(233,213,232)" stroke="none" d="M 5376,9094 L 5543,9094 5543,9214 5376,9214 5376,9094 Z M 5380,9097 L 5539,9097 5539,9211 5380,9211 5380,9097 Z"/>
             <path fill="rgb(234,214,233)" stroke="none" d="M 5380,9097 L 5539,9097 5539,9211 5380,9211 5380,9097 Z M 5384,9100 L 5535,9100 5535,9208 5384,9208 5384,9100 Z"/>
             <path fill="rgb(234,215,233)" stroke="none" d="M 5384,9100 L 5535,9100 5535,9208 5384,9208 5384,9100 Z M 5388,9103 L 5531,9103 5531,9205 5388,9205 5388,9103 Z"/>
             <path fill="rgb(235,216,234)" stroke="none" d="M 5388,9103 L 5531,9103 5531,9205 5388,9205 5388,9103 Z M 5393,9106 L 5526,9106 5526,9202 5393,9202 5393,9106 Z"/>
             <path fill="rgb(235,217,234)" stroke="none" d="M 5393,9106 L 5526,9106 5526,9202 5393,9202 5393,9106 Z M 5397,9109 L 5522,9109 5522,9199 5397,9199 5397,9109 Z"/>
             <path fill="rgb(236,218,235)" stroke="none" d="M 5397,9109 L 5522,9109 5522,9199 5397,9199 5397,9109 Z M 5401,9112 L 5518,9112 5518,9196 5401,9196 5401,9112 Z"/>
             <path fill="rgb(236,219,235)" stroke="none" d="M 5401,9112 L 5518,9112 5518,9196 5401,9196 5401,9112 Z M 5405,9115 L 5514,9115 5514,9193 5405,9193 5405,9115 Z"/>
             <path fill="rgb(237,220,236)" stroke="none" d="M 5405,9115 L 5514,9115 5514,9193 5405,9193 5405,9115 Z M 5409,9118 L 5510,9118 5510,9190 5409,9190 5409,9118 Z"/>
             <path fill="rgb(237,221,236)" stroke="none" d="M 5409,9118 L 5510,9118 5510,9190 5409,9190 5409,9118 Z M 5414,9121 L 5505,9121 5505,9187 5414,9187 5414,9121 Z"/>
             <path fill="rgb(238,222,237)" stroke="none" d="M 5414,9121 L 5505,9121 5505,9187 5414,9187 5414,9121 Z M 5418,9124 L 5501,9124 5501,9184 5418,9184 5418,9124 Z"/>
             <path fill="rgb(238,223,237)" stroke="none" d="M 5418,9124 L 5501,9124 5501,9184 5418,9184 5418,9124 Z M 5422,9127 L 5497,9127 5497,9181 5422,9181 5422,9127 Z"/>
             <path fill="rgb(239,224,238)" stroke="none" d="M 5422,9127 L 5497,9127 5497,9181 5422,9181 5422,9127 Z M 5426,9130 L 5493,9130 5493,9178 5426,9178 5426,9130 Z"/>
             <path fill="rgb(239,225,238)" stroke="none" d="M 5426,9130 L 5493,9130 5493,9178 5426,9178 5426,9130 Z M 5430,9133 L 5489,9133 5489,9175 5430,9175 5430,9133 Z"/>
             <path fill="rgb(240,226,239)" stroke="none" d="M 5430,9133 L 5489,9133 5489,9175 5430,9175 5430,9133 Z M 5435,9136 L 5484,9136 5484,9172 5435,9172 5435,9136 Z"/>
             <path fill="rgb(240,227,239)" stroke="none" d="M 5435,9136 L 5484,9136 5484,9172 5435,9172 5435,9136 Z M 5439,9139 L 5480,9139 5480,9169 5439,9169 5439,9139 Z"/>
             <path fill="rgb(241,228,240)" stroke="none" d="M 5439,9139 L 5480,9139 5480,9169 5439,9169 5439,9139 Z M 5443,9142 L 5476,9142 5476,9166 5443,9166 5443,9142 Z"/>
             <path fill="rgb(241,229,240)" stroke="none" d="M 5443,9142 L 5476,9142 5476,9166 5443,9166 5443,9142 Z M 5447,9145 L 5472,9145 5472,9163 5447,9163 5447,9145 Z"/>
             <path fill="rgb(242,230,241)" stroke="none" d="M 5447,9145 L 5472,9145 5472,9163 5447,9163 5447,9145 Z M 5452,9148 L 5467,9148 5467,9160 5452,9160 5452,9148 Z"/>
             <path fill="rgb(242,231,241)" stroke="none" d="M 5452,9148 L 5467,9148 5467,9160 5452,9160 5452,9148 Z M 5456,9151 L 5463,9151 5463,9157 5456,9157 5456,9151 Z"/>
             <path fill="rgb(244,233,243)" stroke="none" d="M 5456,9151 L 5463,9151 5463,9157 5456,9157 5456,9151 Z"/>
            </g>
           </pattern>
          </defs>
          <path style="fill:url(#pattern4)" d="M 5611,9000 L 5675,9003 5731,9011 5780,9023 5821,9040 5856,9061 5871,9073 5884,9086 5896,9100 5907,9114 5926,9145 5940,9178 5950,9214 5957,9251 5962,9289 5966,9369 5966,9449 5954,9462 5939,9473 5923,9483 5905,9491 5865,9504 5819,9513 5769,9517 5716,9516 5661,9511 5605,9503 5549,9490 5494,9474 5441,9455 5391,9433 5345,9408 5305,9380 5271,9350 5256,9334 5244,9318 5254,9291 5262,9264 5275,9209 5290,9155 5300,9130 5313,9106 5329,9084 5339,9073 5350,9063 5362,9054 5376,9045 5407,9030 5446,9017 5492,9008 5547,9002 5611,9000 Z"/>
         </g>
         <path fill="none" stroke="rgb(255,255,255)" stroke-width="40" stroke-linejoin="round" d="M 5611,9000 C 5977,9000 5966,9237 5966,9449 5844,9590 5366,9495 5244,9318 5305,9177 5244,9000 5611,9000 Z"/>
        </g>
       </g>
       <g class="com.sun.star.drawing.ClosedBezierShape">
        <g id="id27">
         <rect class="BoundingBox" stroke="none" fill="none" x="5408" y="9086" width="224" height="395"/>
         <path fill="rgb(255,255,255)" stroke="none" d="M 5428,9106 C 5489,9141 5571,9130 5611,9106 5489,9212 5428,9459 5428,9459 5428,9299 5428,9247 5428,9106 Z"/>
         <path fill="none" stroke="rgb(255,255,255)" stroke-width="40" stroke-linejoin="round" d="M 5428,9106 C 5489,9141 5571,9130 5611,9106 5489,9212 5428,9459 5428,9459 5428,9299 5428,9247 5428,9106 Z"/>
        </g>
       </g>
       <g class="com.sun.star.drawing.ClosedBezierShape">
        <g id="id28">
         <rect class="BoundingBox" stroke="none" fill="none" x="5408" y="8803" width="294" height="334"/>
         <path fill="rgb(249,180,96)" stroke="none" d="M 5611,8823 C 5715,8823 5672,8929 5672,9000 5672,9070 5550,9141 5489,9106 5428,9070 5428,9070 5428,8964 5428,8858 5507,8823 5611,8823 Z"/>
         <path fill="none" stroke="rgb(255,255,255)" stroke-width="40" stroke-linejoin="round" d="M 5611,8823 C 5715,8823 5672,8929 5672,9000 5672,9070 5550,9141 5489,9106 5428,9070 5428,9070 5428,8964 5428,8858 5507,8823 5611,8823 Z"/>
        </g>
       </g>
       <g class="com.sun.star.drawing.ClosedBezierShape">
        <g id="id29">
         <rect class="BoundingBox" stroke="none" fill="none" x="5285" y="8520" width="408" height="501"/>
         <g>
          <defs>
           <linearGradient id="gradient6" x1="5304" y1="8769" x2="5673" y2="8769" gradientUnits="userSpaceOnUse">
            <stop offset="0" style="stop-color:rgb(251,201,142)"/>
            <stop offset="0.5" style="stop-color:rgb(254,244,232)"/>
            <stop offset="1" style="stop-color:rgb(251,201,142)"/>
           </linearGradient>
          </defs>
          <path style="fill:url(#gradient6)" d="M 5488,8540 L 5507,8540 5526,8542 5544,8544 5561,8548 5577,8552 5592,8559 5606,8566 5619,8575 5631,8586 5641,8599 5650,8613 5658,8629 5664,8648 5668,8669 5671,8692 5672,8717 5671,8743 5668,8770 5664,8795 5658,8821 5650,8845 5641,8868 5631,8890 5619,8911 5606,8930 5592,8947 5577,8962 5561,8975 5544,8985 5526,8993 5507,8997 5498,8999 5488,8999 5469,8998 5450,8993 5432,8987 5416,8977 5399,8966 5384,8952 5370,8936 5358,8918 5346,8898 5335,8877 5326,8853 5319,8829 5313,8802 5309,8775 5306,8747 5305,8717 5306,8689 5309,8663 5313,8641 5319,8622 5326,8605 5335,8591 5346,8579 5358,8569 5370,8560 5384,8554 5399,8549 5416,8545 5432,8543 5450,8541 5488,8540 Z"/>
         </g>
         <path fill="none" stroke="rgb(255,255,255)" stroke-width="40" stroke-linejoin="round" d="M 5488,8540 C 5592,8540 5672,8575 5672,8717 5672,8858 5592,8999 5488,8999 5384,8999 5305,8877 5305,8717 5305,8557 5384,8540 5488,8540 Z"/>
        </g>
       </g>
       <g class="com.sun.star.drawing.ClosedBezierShape">
        <g id="id30">
         <rect class="BoundingBox" stroke="none" fill="none" x="5285" y="8344" width="553" height="688"/>
         <g>
          <defs>
           <linearGradient id="gradient7" x1="5560" y1="9010" x2="5560" y2="8363" gradientUnits="userSpaceOnUse">
            <stop offset="0.1" style="stop-color:rgb(179,179,179)"/>
            <stop offset="1" style="stop-color:rgb(229,229,229)"/>
           </linearGradient>
          </defs>
          <path style="fill:url(#gradient7)" d="M 5632,8364 L 5583,8366 5528,8372 5472,8383 5445,8390 5419,8399 5394,8410 5372,8423 5352,8437 5335,8453 5327,8462 5321,8472 5316,8482 5311,8493 5308,8504 5306,8516 5305,8528 5305,8541 5312,8547 5319,8552 5327,8556 5335,8560 5354,8567 5375,8571 5397,8575 5421,8577 5470,8580 5517,8582 5559,8586 5577,8590 5592,8595 5598,8598 5603,8602 5608,8606 5611,8611 5627,8643 5639,8677 5646,8713 5651,8750 5655,8824 5655,8893 5658,8951 5661,8974 5664,8984 5668,8992 5672,8999 5677,9004 5680,9006 5684,9008 5691,9010 5700,9011 5710,9009 5721,9006 5733,9000 5764,8935 5787,8871 5803,8810 5812,8752 5816,8696 5814,8644 5808,8595 5798,8550 5784,8509 5766,8472 5747,8440 5726,8414 5703,8392 5691,8384 5679,8377 5667,8371 5656,8367 5644,8365 5632,8364 Z"/>
         </g>
         <path fill="none" stroke="rgb(178,178,178)" stroke-width="40" stroke-linejoin="round" d="M 5632,8364 C 5510,8364 5294,8399 5305,8541 5367,8605 5579,8557 5611,8611 5708,8773 5590,9071 5733,9000 5917,8647 5754,8364 5632,8364 Z"/>
        </g>
       </g>
       <g class="com.sun.star.drawing.ClosedBezierShape">
        <g id="id31">
         <rect class="BoundingBox" stroke="none" fill="none" x="4451" y="8167" width="1537" height="1353"/>
         <path fill="none" stroke="rgb(0,0,0)" stroke-width="40" stroke-linejoin="round" d="M 4938,8187 C 5061,8187 5255,8187 5244,8328 5240,8341 5203,8352 5183,8364 5305,8611 5183,8894 5061,8894 5183,8929 5263,9013 5289,9152 5314,9069 5372,9026 5427,9035 L 5426,8983 C 5298,8911 5260,8658 5366,8576 5366,8576 5288,8562 5305,8540 5287,8369 5653,8335 5690,8380 5797,8428 5890,8778 5722,9021 5976,9007 5965,9357 5966,9449 5687,9560 5377,9466 5262,9343 5082,9493 4632,9541 4473,9416 4453,9149 4569,8888 4796,8867 4794,8810 4807,8765 4807,8706 4786,8694 4770,8696 4755,8682 4633,8364 4816,8187 4938,8187 Z"/>
        </g>
       </g>
      </g>
     </g>
    </g>
   </g>
  </g>
 </g>
</svg>