<?xml version="1.0" encoding="UTF-8"?>
<!DOCTYPE svg PUBLIC "-//W3C//DTD SVG 1.1//EN" "http://www.w3.org/Graphics/SVG/1.1/DTD/svg11.dtd">
<svg version="1.2" width="39.84mm" height="48.7mm" viewBox="8339 11873 3984 4870" preserveAspectRatio="xMidYMid" fill-rule="evenodd" stroke-width="28.222" stroke-linejoin="round" xmlns="http://www.w3.org/2000/svg" xmlns:ooo="http://xml.openoffice.org/svg/export" xmlns:xlink="http://www.w3.org/1999/xlink" xmlns:presentation="http://sun.com/xmlns/staroffice/presentation" xmlns:smil="http://www.w3.org/2001/SMIL20/" xmlns:anim="urn:oasis:names:tc:opendocument:xmlns:animation:1.0" xml:space="preserve">
 <defs class="ClipPathGroup">
  <clipPath id="presentation_clip_path" clipPathUnits="userSpaceOnUse">
   <rect x="8339" y="11873" width="3984" height="4870"/>
  </clipPath>
 </defs>
 <defs class="TextShapeIndex">
  <g ooo:slide="id1" ooo:id-list="id3 id4 id5 id6 id7 id8 id9 id10 id11 id12 id13 id14 id15 id16 id17 id18 id19 id20 id21 id22 id23 id24 id25 id26 id27 id28 id29 id30 id31 id32 id33 id34 id35 id36 id37 id38 id39 id40 id41"/>
 </defs>
 <defs class="EmbeddedBulletChars">
  <g id="bullet-char-template(57356)" transform="scale(0.00048828125,-0.00048828125)">
   <path d="M 580,1141 L 1163,571 580,0 -4,571 580,1141 Z"/>
  </g>
  <g id="bullet-char-template(57354)" transform="scale(0.00048828125,-0.00048828125)">
   <path d="M 8,1128 L 1137,1128 1137,0 8,0 8,1128 Z"/>
  </g>
  <g id="bullet-char-template(10146)" transform="scale(0.00048828125,-0.00048828125)">
   <path d="M 174,0 L 602,739 174,1481 1456,739 174,0 Z M 1358,739 L 309,1346 659,739 1358,739 Z"/>
  </g>
  <g id="bullet-char-template(10132)" transform="scale(0.00048828125,-0.00048828125)">
   <path d="M 2015,739 L 1276,0 717,0 1260,543 174,543 174,936 1260,936 717,1481 1274,1481 2015,739 Z"/>
  </g>
  <g id="bullet-char-template(10007)" transform="scale(0.00048828125,-0.00048828125)">
   <path d="M 0,-2 C -7,14 -16,27 -25,37 L 356,567 C 262,823 215,952 215,954 215,979 228,992 255,992 264,992 276,990 289,987 310,991 331,999 354,1012 L 381,999 492,748 772,1049 836,1024 860,1049 C 881,1039 901,1025 922,1006 886,937 835,863 770,784 769,783 710,716 594,584 L 774,223 C 774,196 753,168 711,139 L 727,119 C 717,90 699,76 672,76 641,76 570,178 457,381 L 164,-76 C 142,-110 111,-127 72,-127 30,-127 9,-110 8,-76 1,-67 -2,-52 -2,-32 -2,-23 -1,-13 0,-2 Z"/>
  </g>
  <g id="bullet-char-template(10004)" transform="scale(0.00048828125,-0.00048828125)">
   <path d="M 285,-33 C 182,-33 111,30 74,156 52,228 41,333 41,471 41,549 55,616 82,672 116,743 169,778 240,778 293,778 328,747 346,684 L 369,508 C 377,444 397,411 428,410 L 1163,1116 C 1174,1127 1196,1133 1229,1133 1271,1133 1292,1118 1292,1087 L 1292,965 C 1292,929 1282,901 1262,881 L 442,47 C 390,-6 338,-33 285,-33 Z"/>
  </g>
  <g id="bullet-char-template(9679)" transform="scale(0.00048828125,-0.00048828125)">
   <path d="M 813,0 C 632,0 489,54 383,161 276,268 223,411 223,592 223,773 276,916 383,1023 489,1130 632,1184 813,1184 992,1184 1136,1130 1245,1023 1353,916 1407,772 1407,592 1407,412 1353,268 1245,161 1136,54 992,0 813,0 Z"/>
  </g>
  <g id="bullet-char-template(8226)" transform="scale(0.00048828125,-0.00048828125)">
   <path d="M 346,457 C 273,457 209,483 155,535 101,586 74,649 74,723 74,796 101,859 155,911 209,963 273,989 346,989 419,989 480,963 531,910 582,859 608,796 608,723 608,648 583,586 532,535 482,483 420,457 346,457 Z"/>
  </g>
  <g id="bullet-char-template(8211)" transform="scale(0.00048828125,-0.00048828125)">
   <path d="M -4,459 L 1135,459 1135,606 -4,606 -4,459 Z"/>
  </g>
 </defs>
 <defs class="TextEmbeddedBitmaps"/>
 <g class="SlideGroup">
  <g>
   <g id="id1" class="Slide" clip-path="url(#presentation_clip_path)">
    <g class="Page">
     <g class="Group">
      <g class="com.sun.star.drawing.ClosedBezierShape">
       <g id="id3">
        <rect class="BoundingBox" stroke="none" fill="none" x="9813" y="15252" width="2511" height="1473"/>
        <path fill="rgb(221,221,221)" stroke="none" d="M 9814,16723 C 10524,16723 11637,16259 12117,15953 12597,15647 12117,15253 11875,15253 L 9814,16723 Z"/>
        <path fill="none" stroke="rgb(221,221,221)" d="M 9814,16723 C 10524,16723 11637,16259 12117,15953 12597,15647 12117,15253 11875,15253 L 9814,16723 Z"/>
       </g>
      </g>
      <g class="Group">
       <g class="com.sun.star.drawing.PolyPolygonShape">
        <g id="id4">
         <rect class="BoundingBox" stroke="none" fill="none" x="8339" y="13063" width="1497" height="3681"/>
         <g>
          <defs>
           <linearGradient id="gradient1" x1="8358" y1="14903" x2="9814" y2="14903" gradientUnits="userSpaceOnUse">
            <stop offset="0.1" style="stop-color:rgb(51,51,51)"/>
            <stop offset="1" style="stop-color:rgb(153,153,153)"/>
           </linearGradient>
          </defs>
          <path style="fill:url(#gradient1)" d="M 8359,15883 L 8359,13083 9814,13923 9814,16723 8359,15883 Z"/>
         </g>
         <path fill="none" stroke="rgb(178,178,178)" stroke-width="40" stroke-linejoin="round" d="M 8359,15883 L 8359,13083 9814,13923 9814,16723 8359,15883 Z"/>
        </g>
       </g>
       <g class="com.sun.star.drawing.PolyPolygonShape">
        <g id="id5">
         <rect class="BoundingBox" stroke="none" fill="none" x="9794" y="12713" width="2102" height="4031"/>
         <g>
          <defs>
           <pattern id="pattern1" x="9814" y="12733" width="2062" height="3991" patternUnits="userSpaceOnUse">
            <g transform="translate(-9814,-12733)">
             <path fill="rgb(51,51,51)" stroke="none" d="M 9813,12732 L 11876,12732 11876,16724 9813,16724 9813,12732 Z M 9411,11953 L 11452,11953 11452,15905 9411,15905 9411,11953 Z"/>
             <path fill="rgb(52,52,52)" stroke="none" d="M 9411,11953 L 11452,11953 11452,15905 9411,15905 9411,11953 Z M 9421,11973 L 11442,11973 11442,15885 9421,15885 9421,11973 Z"/>
             <path fill="rgb(53,53,53)" stroke="none" d="M 9421,11973 L 11442,11973 11442,15885 9421,15885 9421,11973 Z M 9431,11992 L 11432,11992 11432,15866 9431,15866 9431,11992 Z"/>
             <path fill="rgb(54,54,54)" stroke="none" d="M 9431,11992 L 11432,11992 11432,15866 9431,15866 9431,11992 Z M 9441,12012 L 11422,12012 11422,15846 9441,15846 9441,12012 Z"/>
             <path fill="rgb(55,55,55)" stroke="none" d="M 9441,12012 L 11422,12012 11422,15846 9441,15846 9441,12012 Z M 9451,12031 L 11412,12031 11412,15827 9451,15827 9451,12031 Z"/>
             <path fill="rgb(56,56,56)" stroke="none" d="M 9451,12031 L 11412,12031 11412,15827 9451,15827 9451,12031 Z M 9461,12051 L 11402,12051 11402,15807 9461,15807 9461,12051 Z"/>
             <path fill="rgb(57,57,57)" stroke="none" d="M 9461,12051 L 11402,12051 11402,15807 9461,15807 9461,12051 Z M 9471,12071 L 11392,12071 11392,15787 9471,15787 9471,12071 Z"/>
             <path fill="rgb(58,58,58)" stroke="none" d="M 9471,12071 L 11392,12071 11392,15787 9471,15787 9471,12071 Z M 9481,12090 L 11382,12090 11382,15768 9481,15768 9481,12090 Z"/>
             <path fill="rgb(59,59,59)" stroke="none" d="M 9481,12090 L 11382,12090 11382,15768 9481,15768 9481,12090 Z M 9492,12110 L 11371,12110 11371,15748 9492,15748 9492,12110 Z"/>
             <path fill="rgb(60,60,60)" stroke="none" d="M 9492,12110 L 11371,12110 11371,15748 9492,15748 9492,12110 Z M 9502,12129 L 11361,12129 11361,15729 9502,15729 9502,12129 Z"/>
             <path fill="rgb(61,61,61)" stroke="none" d="M 9502,12129 L 11361,12129 11361,15729 9502,15729 9502,12129 Z M 9512,12149 L 11351,12149 11351,15709 9512,15709 9512,12149 Z"/>
             <path fill="rgb(62,62,62)" stroke="none" d="M 9512,12149 L 11351,12149 11351,15709 9512,15709 9512,12149 Z M 9522,12168 L 11341,12168 11341,15690 9522,15690 9522,12168 Z"/>
             <path fill="rgb(63,63,63)" stroke="none" d="M 9522,12168 L 11341,12168 11341,15690 9522,15690 9522,12168 Z M 9532,12188 L 11331,12188 11331,15670 9532,15670 9532,12188 Z"/>
             <path fill="rgb(64,64,64)" stroke="none" d="M 9532,12188 L 11331,12188 11331,15670 9532,15670 9532,12188 Z M 9542,12208 L 11321,12208 11321,15650 9542,15650 9542,12208 Z"/>
             <path fill="rgb(65,65,65)" stroke="none" d="M 9542,12208 L 11321,12208 11321,15650 9542,15650 9542,12208 Z M 9552,12227 L 11311,12227 11311,15631 9552,15631 9552,12227 Z"/>
             <path fill="rgb(66,66,66)" stroke="none" d="M 9552,12227 L 11311,12227 11311,15631 9552,15631 9552,12227 Z M 9562,12247 L 11301,12247 11301,15611 9562,15611 9562,12247 Z"/>
             <path fill="rgb(67,67,67)" stroke="none" d="M 9562,12247 L 11301,12247 11301,15611 9562,15611 9562,12247 Z M 9573,12266 L 11291,12266 11291,15592 9573,15592 9573,12266 Z"/>
             <path fill="rgb(68,68,68)" stroke="none" d="M 9573,12266 L 11291,12266 11291,15592 9573,15592 9573,12266 Z M 9583,12286 L 11280,12286 11280,15572 9583,15572 9583,12286 Z"/>
             <path fill="rgb(69,69,69)" stroke="none" d="M 9583,12286 L 11280,12286 11280,15572 9583,15572 9583,12286 Z M 9593,12305 L 11270,12305 11270,15553 9593,15553 9593,12305 Z"/>
             <path fill="rgb(70,70,70)" stroke="none" d="M 9593,12305 L 11270,12305 11270,15553 9593,15553 9593,12305 Z M 9603,12325 L 11260,12325 11260,15533 9603,15533 9603,12325 Z"/>
             <path fill="rgb(71,71,71)" stroke="none" d="M 9603,12325 L 11260,12325 11260,15533 9603,15533 9603,12325 Z M 9613,12345 L 11250,12345 11250,15513 9613,15513 9613,12345 Z"/>
             <path fill="rgb(72,72,72)" stroke="none" d="M 9613,12345 L 11250,12345 11250,15513 9613,15513 9613,12345 Z M 9623,12364 L 11240,12364 11240,15494 9623,15494 9623,12364 Z"/>
             <path fill="rgb(73,73,73)" stroke="none" d="M 9623,12364 L 11240,12364 11240,15494 9623,15494 9623,12364 Z M 9633,12384 L 11230,12384 11230,15474 9633,15474 9633,12384 Z"/>
             <path fill="rgb(74,74,74)" stroke="none" d="M 9633,12384 L 11230,12384 11230,15474 9633,15474 9633,12384 Z M 9643,12403 L 11220,12403 11220,15455 9643,15455 9643,12403 Z"/>
             <path fill="rgb(75,75,75)" stroke="none" d="M 9643,12403 L 11220,12403 11220,15455 9643,15455 9643,12403 Z M 9653,12423 L 11210,12423 11210,15435 9653,15435 9653,12423 Z"/>
             <path fill="rgb(76,76,76)" stroke="none" d="M 9653,12423 L 11210,12423 11210,15435 9653,15435 9653,12423 Z M 9664,12442 L 11199,12442 11199,15416 9664,15416 9664,12442 Z"/>
             <path fill="rgb(77,77,77)" stroke="none" d="M 9664,12442 L 11199,12442 11199,15416 9664,15416 9664,12442 Z M 9674,12462 L 11189,12462 11189,15396 9674,15396 9674,12462 Z"/>
             <path fill="rgb(78,78,78)" stroke="none" d="M 9674,12462 L 11189,12462 11189,15396 9674,15396 9674,12462 Z M 9684,12482 L 11179,12482 11179,15376 9684,15376 9684,12482 Z"/>
             <path fill="rgb(79,79,79)" stroke="none" d="M 9684,12482 L 11179,12482 11179,15376 9684,15376 9684,12482 Z M 9694,12501 L 11169,12501 11169,15357 9694,15357 9694,12501 Z"/>
             <path fill="rgb(80,80,80)" stroke="none" d="M 9694,12501 L 11169,12501 11169,15357 9694,15357 9694,12501 Z M 9704,12521 L 11159,12521 11159,15337 9704,15337 9704,12521 Z"/>
             <path fill="rgb(81,81,81)" stroke="none" d="M 9704,12521 L 11159,12521 11159,15337 9704,15337 9704,12521 Z M 9714,12540 L 11149,12540 11149,15318 9714,15318 9714,12540 Z"/>
             <path fill="rgb(82,82,82)" stroke="none" d="M 9714,12540 L 11149,12540 11149,15318 9714,15318 9714,12540 Z M 9724,12560 L 11139,12560 11139,15298 9724,15298 9724,12560 Z"/>
             <path fill="rgb(83,83,83)" stroke="none" d="M 9724,12560 L 11139,12560 11139,15298 9724,15298 9724,12560 Z M 9734,12579 L 11129,12579 11129,15279 9734,15279 9734,12579 Z"/>
             <path fill="rgb(84,84,84)" stroke="none" d="M 9734,12579 L 11129,12579 11129,15279 9734,15279 9734,12579 Z M 9745,12599 L 11119,12599 11119,15259 9745,15259 9745,12599 Z"/>
             <path fill="rgb(85,85,85)" stroke="none" d="M 9745,12599 L 11119,12599 11119,15259 9745,15259 9745,12599 Z M 9755,12619 L 11108,12619 11108,15239 9755,15239 9755,12619 Z"/>
             <path fill="rgb(86,86,86)" stroke="none" d="M 9755,12619 L 11108,12619 11108,15239 9755,15239 9755,12619 Z M 9765,12638 L 11098,12638 11098,15220 9765,15220 9765,12638 Z"/>
             <path fill="rgb(87,87,87)" stroke="none" d="M 9765,12638 L 11098,12638 11098,15220 9765,15220 9765,12638 Z M 9775,12658 L 11088,12658 11088,15200 9775,15200 9775,12658 Z"/>
             <path fill="rgb(88,88,88)" stroke="none" d="M 9775,12658 L 11088,12658 11088,15200 9775,15200 9775,12658 Z M 9785,12677 L 11078,12677 11078,15181 9785,15181 9785,12677 Z"/>
             <path fill="rgb(89,89,89)" stroke="none" d="M 9785,12677 L 11078,12677 11078,15181 9785,15181 9785,12677 Z M 9794,12697 L 11068,12697 11068,15161 9794,15161 9794,12697 Z"/>
             <path fill="rgb(90,90,90)" stroke="none" d="M 9794,12697 L 11068,12697 11068,15161 9794,15161 9794,12697 Z M 9804,12715 L 11058,12715 11058,15142 9804,15142 9804,12715 Z"/>
             <path fill="rgb(91,91,91)" stroke="none" d="M 9804,12715 L 11058,12715 11058,15142 9804,15142 9804,12715 Z M 9814,12735 L 11048,12735 11048,15122 9814,15122 9814,12735 Z"/>
             <path fill="rgb(92,92,92)" stroke="none" d="M 9814,12735 L 11048,12735 11048,15122 9814,15122 9814,12735 Z M 9824,12755 L 11038,12755 11038,15102 9824,15102 9824,12755 Z"/>
             <path fill="rgb(93,93,93)" stroke="none" d="M 9824,12755 L 11038,12755 11038,15102 9824,15102 9824,12755 Z M 9835,12774 L 11027,12774 11027,15083 9835,15083 9835,12774 Z"/>
             <path fill="rgb(94,94,94)" stroke="none" d="M 9835,12774 L 11027,12774 11027,15083 9835,15083 9835,12774 Z M 9845,12794 L 11017,12794 11017,15063 9845,15063 9845,12794 Z"/>
             <path fill="rgb(95,95,95)" stroke="none" d="M 9845,12794 L 11017,12794 11017,15063 9845,15063 9845,12794 Z M 9855,12813 L 11007,12813 11007,15044 9855,15044 9855,12813 Z"/>
             <path fill="rgb(96,96,96)" stroke="none" d="M 9855,12813 L 11007,12813 11007,15044 9855,15044 9855,12813 Z M 9865,12833 L 10997,12833 10997,15024 9865,15024 9865,12833 Z"/>
             <path fill="rgb(97,97,97)" stroke="none" d="M 9865,12833 L 10997,12833 10997,15024 9865,15024 9865,12833 Z M 9875,12852 L 10987,12852 10987,15005 9875,15005 9875,12852 Z"/>
             <path fill="rgb(98,98,98)" stroke="none" d="M 9875,12852 L 10987,12852 10987,15005 9875,15005 9875,12852 Z M 9885,12872 L 10977,12872 10977,14985 9885,14985 9885,12872 Z"/>
             <path fill="rgb(99,99,99)" stroke="none" d="M 9885,12872 L 10977,12872 10977,14985 9885,14985 9885,12872 Z M 9895,12892 L 10967,12892 10967,14965 9895,14965 9895,12892 Z"/>
             <path fill="rgb(100,100,100)" stroke="none" d="M 9895,12892 L 10967,12892 10967,14965 9895,14965 9895,12892 Z M 9905,12911 L 10957,12911 10957,14946 9905,14946 9905,12911 Z"/>
             <path fill="rgb(101,101,101)" stroke="none" d="M 9905,12911 L 10957,12911 10957,14946 9905,14946 9905,12911 Z M 9916,12931 L 10947,12931 10947,14926 9916,14926 9916,12931 Z"/>
             <path fill="rgb(102,102,102)" stroke="none" d="M 9916,12931 L 10947,12931 10947,14926 9916,14926 9916,12931 Z M 9926,12950 L 10936,12950 10936,14907 9926,14907 9926,12950 Z"/>
             <path fill="rgb(103,103,103)" stroke="none" d="M 9926,12950 L 10936,12950 10936,14907 9926,14907 9926,12950 Z M 9936,12970 L 10926,12970 10926,14887 9936,14887 9936,12970 Z"/>
             <path fill="rgb(104,104,104)" stroke="none" d="M 9936,12970 L 10926,12970 10926,14887 9936,14887 9936,12970 Z M 9946,12989 L 10916,12989 10916,14868 9946,14868 9946,12989 Z"/>
             <path fill="rgb(105,105,105)" stroke="none" d="M 9946,12989 L 10916,12989 10916,14868 9946,14868 9946,12989 Z M 9956,13009 L 10906,13009 10906,14848 9956,14848 9956,13009 Z"/>
             <path fill="rgb(106,106,106)" stroke="none" d="M 9956,13009 L 10906,13009 10906,14848 9956,14848 9956,13009 Z M 9966,13029 L 10896,13029 10896,14828 9966,14828 9966,13029 Z"/>
             <path fill="rgb(107,107,107)" stroke="none" d="M 9966,13029 L 10896,13029 10896,14828 9966,14828 9966,13029 Z M 9976,13048 L 10886,13048 10886,14809 9976,14809 9976,13048 Z"/>
             <path fill="rgb(108,108,108)" stroke="none" d="M 9976,13048 L 10886,13048 10886,14809 9976,14809 9976,13048 Z M 9986,13068 L 10876,13068 10876,14789 9986,14789 9986,13068 Z"/>
             <path fill="rgb(109,109,109)" stroke="none" d="M 9986,13068 L 10876,13068 10876,14789 9986,14789 9986,13068 Z M 9996,13087 L 10866,13087 10866,14770 9996,14770 9996,13087 Z"/>
             <path fill="rgb(110,110,110)" stroke="none" d="M 9996,13087 L 10866,13087 10866,14770 9996,14770 9996,13087 Z M 10007,13107 L 10855,13107 10855,14750 10007,14750 10007,13107 Z"/>
             <path fill="rgb(111,111,111)" stroke="none" d="M 10007,13107 L 10855,13107 10855,14750 10007,14750 10007,13107 Z M 10017,13126 L 10845,13126 10845,14731 10017,14731 10017,13126 Z"/>
             <path fill="rgb(112,112,112)" stroke="none" d="M 10017,13126 L 10845,13126 10845,14731 10017,14731 10017,13126 Z M 10027,13146 L 10835,13146 10835,14711 10027,14711 10027,13146 Z"/>
             <path fill="rgb(113,113,113)" stroke="none" d="M 10027,13146 L 10835,13146 10835,14711 10027,14711 10027,13146 Z M 10037,13166 L 10825,13166 10825,14691 10037,14691 10037,13166 Z"/>
             <path fill="rgb(114,114,114)" stroke="none" d="M 10037,13166 L 10825,13166 10825,14691 10037,14691 10037,13166 Z M 10047,13185 L 10815,13185 10815,14672 10047,14672 10047,13185 Z"/>
             <path fill="rgb(115,115,115)" stroke="none" d="M 10047,13185 L 10815,13185 10815,14672 10047,14672 10047,13185 Z M 10057,13205 L 10805,13205 10805,14652 10057,14652 10057,13205 Z"/>
             <path fill="rgb(116,116,116)" stroke="none" d="M 10057,13205 L 10805,13205 10805,14652 10057,14652 10057,13205 Z M 10067,13224 L 10795,13224 10795,14633 10067,14633 10067,13224 Z"/>
             <path fill="rgb(117,117,117)" stroke="none" d="M 10067,13224 L 10795,13224 10795,14633 10067,14633 10067,13224 Z M 10077,13244 L 10785,13244 10785,14613 10077,14613 10077,13244 Z"/>
             <path fill="rgb(118,118,118)" stroke="none" d="M 10077,13244 L 10785,13244 10785,14613 10077,14613 10077,13244 Z M 10088,13264 L 10775,13264 10775,14593 10088,14593 10088,13264 Z"/>
             <path fill="rgb(119,119,119)" stroke="none" d="M 10088,13264 L 10775,13264 10775,14593 10088,14593 10088,13264 Z M 10098,13283 L 10764,13283 10764,14574 10098,14574 10098,13283 Z"/>
             <path fill="rgb(120,120,120)" stroke="none" d="M 10098,13283 L 10764,13283 10764,14574 10098,14574 10098,13283 Z M 10108,13303 L 10754,13303 10754,14554 10108,14554 10108,13303 Z"/>
             <path fill="rgb(121,121,121)" stroke="none" d="M 10108,13303 L 10754,13303 10754,14554 10108,14554 10108,13303 Z M 10118,13322 L 10744,13322 10744,14535 10118,14535 10118,13322 Z"/>
             <path fill="rgb(122,122,122)" stroke="none" d="M 10118,13322 L 10744,13322 10744,14535 10118,14535 10118,13322 Z M 10128,13342 L 10734,13342 10734,14515 10128,14515 10128,13342 Z"/>
             <path fill="rgb(123,123,123)" stroke="none" d="M 10128,13342 L 10734,13342 10734,14515 10128,14515 10128,13342 Z M 10138,13361 L 10724,13361 10724,14496 10138,14496 10138,13361 Z"/>
             <path fill="rgb(124,124,124)" stroke="none" d="M 10138,13361 L 10724,13361 10724,14496 10138,14496 10138,13361 Z M 10148,13381 L 10714,13381 10714,14476 10148,14476 10148,13381 Z"/>
             <path fill="rgb(125,125,125)" stroke="none" d="M 10148,13381 L 10714,13381 10714,14476 10148,14476 10148,13381 Z M 10158,13401 L 10704,13401 10704,14456 10158,14456 10158,13401 Z"/>
             <path fill="rgb(126,126,126)" stroke="none" d="M 10158,13401 L 10704,13401 10704,14456 10158,14456 10158,13401 Z M 10168,13420 L 10694,13420 10694,14437 10168,14437 10168,13420 Z"/>
             <path fill="rgb(127,127,127)" stroke="none" d="M 10168,13420 L 10694,13420 10694,14437 10168,14437 10168,13420 Z M 10179,13440 L 10683,13440 10683,14417 10179,14417 10179,13440 Z"/>
             <path fill="rgb(128,128,128)" stroke="none" d="M 10179,13440 L 10683,13440 10683,14417 10179,14417 10179,13440 Z M 10189,13459 L 10673,13459 10673,14398 10189,14398 10189,13459 Z"/>
             <path fill="rgb(129,129,129)" stroke="none" d="M 10189,13459 L 10673,13459 10673,14398 10189,14398 10189,13459 Z M 10199,13479 L 10663,13479 10663,14378 10199,14378 10199,13479 Z"/>
             <path fill="rgb(130,130,130)" stroke="none" d="M 10199,13479 L 10663,13479 10663,14378 10199,14378 10199,13479 Z M 10209,13498 L 10653,13498 10653,14359 10209,14359 10209,13498 Z"/>
             <path fill="rgb(131,131,131)" stroke="none" d="M 10209,13498 L 10653,13498 10653,14359 10209,14359 10209,13498 Z M 10219,13518 L 10643,13518 10643,14339 10219,14339 10219,13518 Z"/>
             <path fill="rgb(132,132,132)" stroke="none" d="M 10219,13518 L 10643,13518 10643,14339 10219,14339 10219,13518 Z M 10229,13538 L 10633,13538 10633,14319 10229,14319 10229,13538 Z"/>
             <path fill="rgb(133,133,133)" stroke="none" d="M 10229,13538 L 10633,13538 10633,14319 10229,14319 10229,13538 Z M 10239,13557 L 10623,13557 10623,14300 10239,14300 10239,13557 Z"/>
             <path fill="rgb(134,134,134)" stroke="none" d="M 10239,13557 L 10623,13557 10623,14300 10239,14300 10239,13557 Z M 10249,13577 L 10613,13577 10613,14280 10249,14280 10249,13577 Z"/>
             <path fill="rgb(135,135,135)" stroke="none" d="M 10249,13577 L 10613,13577 10613,14280 10249,14280 10249,13577 Z M 10260,13596 L 10603,13596 10603,14261 10260,14261 10260,13596 Z"/>
             <path fill="rgb(136,136,136)" stroke="none" d="M 10260,13596 L 10603,13596 10603,14261 10260,14261 10260,13596 Z M 10270,13616 L 10592,13616 10592,14241 10270,14241 10270,13616 Z"/>
             <path fill="rgb(137,137,137)" stroke="none" d="M 10270,13616 L 10592,13616 10592,14241 10270,14241 10270,13616 Z M 10280,13635 L 10582,13635 10582,14222 10280,14222 10280,13635 Z"/>
             <path fill="rgb(138,138,138)" stroke="none" d="M 10280,13635 L 10582,13635 10582,14222 10280,14222 10280,13635 Z M 10290,13655 L 10572,13655 10572,14202 10290,14202 10290,13655 Z"/>
             <path fill="rgb(139,139,139)" stroke="none" d="M 10290,13655 L 10572,13655 10572,14202 10290,14202 10290,13655 Z M 10300,13675 L 10562,13675 10562,14182 10300,14182 10300,13675 Z"/>
             <path fill="rgb(140,140,140)" stroke="none" d="M 10300,13675 L 10562,13675 10562,14182 10300,14182 10300,13675 Z M 10310,13694 L 10552,13694 10552,14163 10310,14163 10310,13694 Z"/>
             <path fill="rgb(141,141,141)" stroke="none" d="M 10310,13694 L 10552,13694 10552,14163 10310,14163 10310,13694 Z M 10320,13714 L 10542,13714 10542,14143 10320,14143 10320,13714 Z"/>
             <path fill="rgb(142,142,142)" stroke="none" d="M 10320,13714 L 10542,13714 10542,14143 10320,14143 10320,13714 Z M 10330,13733 L 10532,13733 10532,14124 10330,14124 10330,13733 Z"/>
             <path fill="rgb(143,143,143)" stroke="none" d="M 10330,13733 L 10532,13733 10532,14124 10330,14124 10330,13733 Z M 10340,13753 L 10522,13753 10522,14104 10340,14104 10340,13753 Z"/>
             <path fill="rgb(144,144,144)" stroke="none" d="M 10340,13753 L 10522,13753 10522,14104 10340,14104 10340,13753 Z M 10351,13772 L 10511,13772 10511,14085 10351,14085 10351,13772 Z"/>
             <path fill="rgb(145,145,145)" stroke="none" d="M 10351,13772 L 10511,13772 10511,14085 10351,14085 10351,13772 Z M 10361,13792 L 10501,13792 10501,14065 10361,14065 10361,13792 Z"/>
             <path fill="rgb(146,146,146)" stroke="none" d="M 10361,13792 L 10501,13792 10501,14065 10361,14065 10361,13792 Z M 10371,13812 L 10491,13812 10491,14045 10371,14045 10371,13812 Z"/>
             <path fill="rgb(147,147,147)" stroke="none" d="M 10371,13812 L 10491,13812 10491,14045 10371,14045 10371,13812 Z M 10381,13831 L 10481,13831 10481,14026 10381,14026 10381,13831 Z"/>
             <path fill="rgb(148,148,148)" stroke="none" d="M 10381,13831 L 10481,13831 10481,14026 10381,14026 10381,13831 Z M 10391,13851 L 10471,13851 10471,14006 10391,14006 10391,13851 Z"/>
             <path fill="rgb(149,149,149)" stroke="none" d="M 10391,13851 L 10471,13851 10471,14006 10391,14006 10391,13851 Z M 10401,13870 L 10461,13870 10461,13987 10401,13987 10401,13870 Z"/>
             <path fill="rgb(150,150,150)" stroke="none" d="M 10401,13870 L 10461,13870 10461,13987 10401,13987 10401,13870 Z M 10411,13890 L 10451,13890 10451,13967 10411,13967 10411,13890 Z"/>
             <path fill="rgb(151,151,151)" stroke="none" d="M 10411,13890 L 10451,13890 10451,13967 10411,13967 10411,13890 Z M 10421,13909 L 10441,13909 10441,13948 10421,13948 10421,13909 Z"/>
             <path fill="rgb(153,153,153)" stroke="none" d="M 10421,13909 L 10441,13909 10441,13948 10421,13948 10421,13909 Z"/>
            </g>
           </pattern>
          </defs>
          <path style="fill:url(#pattern1)" d="M 9814,16723 L 9814,13923 11875,12733 11875,15533 9814,16723 Z"/>
         </g>
         <path fill="none" stroke="rgb(178,178,178)" stroke-width="40" stroke-linejoin="round" d="M 9814,16723 L 9814,13923 11875,12733 11875,15533 9814,16723 Z"/>
        </g>
       </g>
       <g class="com.sun.star.drawing.PolyPolygonShape">
        <g id="id6">
         <rect class="BoundingBox" stroke="none" fill="none" x="8339" y="11873" width="3557" height="2071"/>
         <g>
          <defs>
           <linearGradient id="gradient2" x1="10117" y1="11893" x2="10117" y2="13923" gradientUnits="userSpaceOnUse">
            <stop offset="0.1" style="stop-color:rgb(51,51,51)"/>
            <stop offset="1" style="stop-color:rgb(153,153,153)"/>
           </linearGradient>
          </defs>
          <path style="fill:url(#gradient2)" d="M 9814,13923 L 8359,13083 10420,11893 11875,12733 9814,13923 Z"/>
         </g>
         <path fill="none" stroke="rgb(178,178,178)" stroke-width="40" stroke-linejoin="round" d="M 9814,13923 L 8359,13083 10420,11893 11875,12733 9814,13923 Z"/>
        </g>
       </g>
       <g class="com.sun.star.drawing.PolyPolygonShape">
        <g id="id7">
         <rect class="BoundingBox" stroke="none" fill="none" x="8339" y="11873" width="3557" height="4871"/>
         <path fill="none" stroke="rgb(0,0,0)" stroke-width="40" stroke-linejoin="round" d="M 8359,15883 L 8359,13083 10420,11893 11875,12733 11875,15533 9814,16723 8359,15883 Z"/>
        </g>
       </g>
       <g class="com.sun.star.drawing.LineShape">
        <g id="id8">
         <rect class="BoundingBox" stroke="none" fill="none" x="8581" y="15443" width="1011" height="601"/>
         <path fill="none" stroke="rgb(178,178,178)" stroke-width="40" stroke-linejoin="round" d="M 9571,16023 L 8601,15463"/>
        </g>
       </g>
       <g class="com.sun.star.drawing.LineShape">
        <g id="id9">
         <rect class="BoundingBox" stroke="none" fill="none" x="8581" y="15723" width="1011" height="601"/>
         <path fill="none" stroke="rgb(178,178,178)" stroke-width="40" stroke-linejoin="round" d="M 9571,16303 L 8601,15743"/>
        </g>
       </g>
       <g class="com.sun.star.drawing.LineShape">
        <g id="id10">
         <rect class="BoundingBox" stroke="none" fill="none" x="8581" y="15583" width="1011" height="601"/>
         <path fill="none" stroke="rgb(178,178,178)" stroke-width="40" stroke-linejoin="round" d="M 9571,16163 L 8601,15603"/>
        </g>
       </g>
       <g class="com.sun.star.drawing.PolyLineShape">
        <g id="id11">
         <rect class="BoundingBox" stroke="none" fill="none" x="8460" y="13483" width="1253" height="882"/>
         <path fill="none" stroke="rgb(178,178,178)" stroke-width="40" stroke-linejoin="round" d="M 9692,14343 L 8480,13643 8480,13503"/>
        </g>
       </g>
       <g class="com.sun.star.drawing.PolyLineShape">
        <g id="id12">
         <rect class="BoundingBox" stroke="none" fill="none" x="8481" y="13480" width="1232" height="885"/>
         <path fill="none" stroke="rgb(102,102,102)" stroke-width="40" stroke-linejoin="round" d="M 9692,14343 L 9692,14203 8501,13500"/>
        </g>
       </g>
       <g class="com.sun.star.drawing.PolyPolygonShape">
        <g id="id13">
         <rect class="BoundingBox" stroke="none" fill="none" x="8909" y="14880" width="183" height="288"/>
         <path fill="rgb(57,181,74)" stroke="none" d="M 8929,15065 L 8929,14900 9071,14982 9071,15147 8929,15065 Z"/>
         <path fill="none" stroke="rgb(51,51,51)" stroke-width="40" stroke-linejoin="round" d="M 8929,15065 L 8929,14900 9071,14982 9071,15147 8929,15065 Z"/>
        </g>
       </g>
       <g class="com.sun.star.drawing.LineShape">
        <g id="id14">
         <rect class="BoundingBox" stroke="none" fill="none" x="8581" y="15303" width="1011" height="601"/>
         <path fill="none" stroke="rgb(178,178,178)" stroke-width="40" stroke-linejoin="round" d="M 9571,15883 L 8601,15323"/>
        </g>
       </g>
      </g>
      <g class="Group">
       <g class="com.sun.star.drawing.PolyPolygonShape">
        <g id="id15">
         <rect class="BoundingBox" stroke="none" fill="none" x="11283" y="14323" width="927" height="1192"/>
         <path fill="rgb(252,222,187)" stroke="none" d="M 11303,14983 L 11303,14343 11911,14695 11967,14599 12188,14727 12188,15494 11303,14983 Z"/>
         <path fill="none" stroke="rgb(251,201,142)" stroke-width="40" stroke-linejoin="round" d="M 11303,14983 L 11303,14343 11911,14695 11967,14599 12188,14727 12188,15494 11303,14983 Z"/>
        </g>
       </g>
       <g class="com.sun.star.drawing.PolyPolygonShape">
        <g id="id16">
         <rect class="BoundingBox" stroke="none" fill="none" x="11172" y="14387" width="1037" height="1128"/>
         <path fill="rgb(254,244,232)" stroke="none" d="M 11303,14983 L 11192,14407 12077,14919 12188,15494 11303,14983 Z"/>
         <path fill="none" stroke="rgb(251,201,142)" stroke-width="40" stroke-linejoin="round" d="M 11303,14983 L 11192,14407 12077,14919 12188,15494 11303,14983 Z"/>
        </g>
       </g>
       <g class="com.sun.star.drawing.PolyPolygonShape">
        <g id="id17">
         <rect class="BoundingBox" stroke="none" fill="none" x="11061" y="14483" width="1148" height="1032"/>
         <path fill="rgb(254,244,232)" stroke="none" d="M 11303,14983 L 11081,14503 11966,15015 12188,15494 11303,14983 Z"/>
         <path fill="none" stroke="rgb(251,201,142)" stroke-width="40" stroke-linejoin="round" d="M 11303,14983 L 11081,14503 11966,15015 12188,15494 11303,14983 Z"/>
        </g>
       </g>
       <g class="com.sun.star.drawing.PolyPolygonShape">
        <g id="id18">
         <rect class="BoundingBox" stroke="none" fill="none" x="11006" y="14611" width="1204" height="904"/>
         <path fill="rgb(252,222,187)" stroke="none" d="M 11303,14983 L 11026,14631 11856,15079 12188,15494 11303,14983 Z"/>
         <path fill="none" stroke="rgb(251,201,142)" stroke-width="40" stroke-linejoin="round" d="M 11303,14983 L 11026,14631 11856,15079 12188,15494 11303,14983 Z"/>
        </g>
       </g>
       <g class="com.sun.star.drawing.PolyPolygonShape">
        <g id="id19">
         <rect class="BoundingBox" stroke="none" fill="none" x="11006" y="14323" width="1204" height="1192"/>
         <path fill="none" stroke="rgb(0,0,0)" stroke-width="40" stroke-linejoin="round" d="M 11303,14471 L 11303,14343 11911,14695 11966,14599 12188,14727 12188,15494 11303,14983 11026,14631 11180,14711 11081,14503 11224,14587 11192,14407 11303,14471 Z"/>
        </g>
       </g>
      </g>
      <g class="Group">
       <g class="com.sun.star.drawing.PolyPolygonShape">
        <g id="id20">
         <rect class="BoundingBox" stroke="none" fill="none" x="11637" y="15785" width="553" height="781"/>
         <path fill="rgb(252,222,187)" stroke="none" d="M 12169,15805 L 11658,15879 12169,16544 12169,15805 Z"/>
         <path fill="none" stroke="rgb(255,255,255)" stroke-width="40" stroke-linejoin="round" d="M 12169,15805 L 11658,15879 12169,16544 12169,15805 Z"/>
        </g>
       </g>
       <g class="com.sun.star.drawing.PolyPolygonShape">
        <g id="id21">
         <rect class="BoundingBox" stroke="none" fill="none" x="11126" y="15194" width="553" height="781"/>
         <path fill="rgb(252,222,187)" stroke="none" d="M 11147,15214 L 11658,15879 11147,15953 11147,15214 Z"/>
         <path fill="none" stroke="rgb(255,255,255)" stroke-width="40" stroke-linejoin="round" d="M 11147,15214 L 11658,15879 11147,15953 11147,15214 Z"/>
        </g>
       </g>
       <g class="com.sun.star.drawing.PolyPolygonShape">
        <g id="id22">
         <rect class="BoundingBox" stroke="none" fill="none" x="11127" y="15785" width="1064" height="781"/>
         <path fill="rgb(252,222,187)" stroke="none" d="M 12170,16544 L 11658,15805 11147,15953 12170,16544 Z"/>
         <path fill="none" stroke="rgb(251,201,142)" stroke-width="40" stroke-linejoin="round" d="M 12170,16544 L 11658,15805 11147,15953 12170,16544 Z"/>
        </g>
       </g>
       <g class="com.sun.star.drawing.PolyPolygonShape">
        <g id="id23">
         <rect class="BoundingBox" stroke="none" fill="none" x="11127" y="15194" width="1064" height="781"/>
         <path fill="rgb(252,222,187)" stroke="none" d="M 12170,15805 L 11658,15953 11147,15214 12170,15805 Z"/>
         <path fill="none" stroke="rgb(251,201,142)" stroke-width="40" stroke-linejoin="round" d="M 12170,15805 L 11658,15953 11147,15214 12170,15805 Z"/>
        </g>
       </g>
       <g class="com.sun.star.drawing.PolyPolygonShape">
        <g id="id24">
         <rect class="BoundingBox" stroke="none" fill="none" x="11127" y="15194" width="1064" height="1372"/>
         <path fill="none" stroke="rgb(0,0,0)" stroke-width="40" stroke-linejoin="round" d="M 11147,15953 L 11147,15214 12170,15805 12170,16544 11147,15953 Z"/>
        </g>
       </g>
      </g>
      <g class="Group">
       <g class="com.sun.star.drawing.CustomShape">
        <g id="id25">
         <rect class="BoundingBox" stroke="none" fill="none" x="10317" y="15284" width="974" height="1422"/>
         <g>
          <defs>
           <linearGradient id="gradient3" x1="10336" y1="15994" x2="11271" y2="15994" gradientUnits="userSpaceOnUse">
            <stop offset="0" style="stop-color:rgb(195,232,200)"/>
            <stop offset="0.5" style="stop-color:rgb(235,247,236)"/>
            <stop offset="1" style="stop-color:rgb(195,232,200)"/>
           </linearGradient>
          </defs>
          <path style="fill:url(#gradient3)" d="M 10337,15521 L 10338,15511 10340,15501 10343,15490 10347,15480 10353,15470 10360,15460 10377,15441 10398,15422 10423,15404 10451,15387 10483,15372 10517,15357 10553,15344 10592,15332 10632,15323 10673,15315 10716,15309 10759,15305 10803,15304 10847,15305 10890,15309 10933,15315 10974,15323 11015,15332 11053,15344 11090,15357 11124,15372 11155,15387 11184,15404 11209,15422 11230,15441 11247,15460 11254,15470 11259,15480 11264,15490 11267,15501 11269,15511 11270,15521 11270,16467 11269,16477 11267,16487 11264,16498 11259,16508 11254,16518 11247,16528 11230,16547 11209,16566 11184,16584 11155,16601 11124,16617 11090,16632 11053,16645 11015,16656 10974,16666 10933,16674 10890,16680 10847,16684 10803,16685 10759,16684 10716,16680 10673,16674 10632,16666 10592,16656 10553,16645 10517,16632 10483,16617 10451,16601 10423,16584 10398,16566 10377,16547 10360,16528 10353,16518 10347,16508 10343,16498 10340,16487 10338,16477 10337,16467 10337,15521 Z"/>
         </g>
         <path fill="none" stroke="rgb(0,0,0)" stroke-width="40" stroke-linejoin="round" d="M 10337,15521 C 10337,15412 10570,15304 10803,15304 11036,15304 11270,15412 11270,15521 L 11270,16467 C 11270,16576 11036,16685 10803,16685 10570,16685 10337,16576 10337,16467 L 10337,15521 Z"/>
         <g>
          <defs>
           <linearGradient id="gradient4" x1="10337" y1="15629" x2="11270" y2="15629" gradientUnits="userSpaceOnUse">
            <stop offset="0" style="stop-color:rgb(195,232,200)"/>
            <stop offset="0.5" style="stop-color:rgb(235,247,236)"/>
            <stop offset="1" style="stop-color:rgb(195,232,200)"/>
           </linearGradient>
          </defs>
          <path style="fill:url(#gradient4)" d="M 10337,15521 L 10338,15531 10340,15541 10343,15551 10347,15561 10353,15571 10360,15581 10377,15600 10398,15619 10423,15637 10451,15654 10483,15670 10517,15685 10553,15698 10592,15709 10632,15719 10673,15727 10716,15733 10759,15737 10803,15738 10847,15737 10890,15733 10933,15727 10974,15719 11015,15709 11053,15698 11090,15685 11124,15670 11155,15654 11184,15637 11209,15619 11230,15600 11247,15581 11254,15571 11259,15561 11264,15551 11267,15541 11269,15531 11270,15521 10337,15521 Z"/>
         </g>
         <path fill="none" stroke="rgb(0,0,0)" stroke-width="40" stroke-linejoin="round" d="M 10337,15521 C 10337,15629 10570,15738 10803,15738 11036,15738 11270,15629 11270,15521"/>
         <path fill="none" stroke="rgb(0,0,0)" stroke-width="40" stroke-linejoin="round" d="M 10337,15304 L 10337,15304 Z"/>
         <path fill="none" stroke="rgb(0,0,0)" stroke-width="40" stroke-linejoin="round" d="M 11270,16685 L 11270,16685 Z"/>
        </g>
       </g>
       <g class="com.sun.star.drawing.CustomShape">
        <g id="id26">
         <rect class="BoundingBox" stroke="none" fill="none" x="10317" y="15282" width="974" height="480"/>
         <g>
          <defs>
           <linearGradient id="gradient5" x1="10803" y1="15303" x2="10803" y2="15740" gradientUnits="userSpaceOnUse">
            <stop offset="0.1" style="stop-color:rgb(195,232,200)"/>
            <stop offset="1" style="stop-color:rgb(235,247,236)"/>
           </linearGradient>
          </defs>
          <path style="fill:url(#gradient5)" d="M 10803,15303 L 10899,15307 10987,15320 11028,15329 11066,15339 11102,15352 11135,15365 11165,15381 11191,15398 11214,15415 11233,15435 11249,15455 11255,15465 11260,15476 11264,15487 11267,15498 11268,15509 11269,15521 11268,15533 11267,15544 11264,15555 11260,15566 11255,15577 11249,15587 11233,15608 11214,15627 11191,15645 11165,15662 11135,15677 11102,15691 11066,15703 11028,15714 10987,15723 10899,15736 10803,15740 10707,15736 10619,15723 10578,15714 10540,15703 10504,15691 10471,15677 10441,15662 10415,15645 10392,15627 10373,15608 10357,15587 10351,15577 10346,15566 10342,15555 10339,15544 10338,15533 10337,15521 10338,15509 10339,15498 10342,15487 10346,15476 10351,15465 10357,15455 10373,15435 10392,15415 10415,15398 10441,15381 10471,15365 10504,15352 10540,15339 10578,15329 10619,15320 10707,15307 10803,15303 Z"/>
         </g>
         <path fill="none" stroke="rgb(0,0,0)" stroke-width="40" stroke-linejoin="round" d="M 10803,15303 C 11067,15303 11269,15397 11269,15521 11269,15645 11067,15740 10803,15740 10539,15740 10337,15645 10337,15521 10337,15397 10539,15303 10803,15303 Z"/>
        </g>
       </g>
      </g>
      <g class="Group">
       <g class="com.sun.star.drawing.CustomShape">
        <g id="id27">
         <rect class="BoundingBox" stroke="none" fill="none" x="10278" y="14528" width="1063" height="1057"/>
         <g>
          <defs>
           <pattern id="pattern2" x="10298" y="14548" width="1022" height="1016" patternUnits="userSpaceOnUse">
            <g transform="translate(-10298,-14548)">
             <path fill="rgb(0,115,188)" stroke="none" d="M 10297,14547 L 11320,14547 11320,15564 10297,15564 10297,14547 Z M 10097,14348 L 11110,14348 11110,15355 10097,15355 10097,14348 Z"/>
             <path fill="rgb(1,115,188)" stroke="none" d="M 10097,14348 L 11110,14348 11110,15355 10097,15355 10097,14348 Z M 10101,14352 L 11106,14352 11106,15351 10101,15351 10101,14352 Z"/>
             <path fill="rgb(2,116,188)" stroke="none" d="M 10101,14352 L 11106,14352 11106,15351 10101,15351 10101,14352 Z M 10105,14356 L 11102,14356 11102,15347 10105,15347 10105,14356 Z"/>
             <path fill="rgb(3,116,188)" stroke="none" d="M 10105,14356 L 11102,14356 11102,15347 10105,15347 10105,14356 Z M 10109,14360 L 11098,14360 11098,15343 10109,15343 10109,14360 Z"/>
             <path fill="rgb(4,117,189)" stroke="none" d="M 10109,14360 L 11098,14360 11098,15343 10109,15343 10109,14360 Z M 10113,14364 L 11094,14364 11094,15339 10113,15339 10113,14364 Z"/>
             <path fill="rgb(5,117,189)" stroke="none" d="M 10113,14364 L 11094,14364 11094,15339 10113,15339 10113,14364 Z M 10117,14368 L 11090,14368 11090,15335 10117,15335 10117,14368 Z"/>
             <path fill="rgb(6,118,189)" stroke="none" d="M 10117,14368 L 11090,14368 11090,15335 10117,15335 10117,14368 Z M 10121,14372 L 11086,14372 11086,15331 10121,15331 10121,14372 Z"/>
             <path fill="rgb(7,118,189)" stroke="none" d="M 10121,14372 L 11086,14372 11086,15331 10121,15331 10121,14372 Z M 10125,14376 L 11082,14376 11082,15327 10125,15327 10125,14376 Z"/>
             <path fill="rgb(8,119,190)" stroke="none" d="M 10125,14376 L 11082,14376 11082,15327 10125,15327 10125,14376 Z M 10129,14380 L 11078,14380 11078,15323 10129,15323 10129,14380 Z"/>
             <path fill="rgb(9,119,190)" stroke="none" d="M 10129,14380 L 11078,14380 11078,15323 10129,15323 10129,14380 Z M 10133,14384 L 11074,14384 11074,15319 10133,15319 10133,14384 Z"/>
             <path fill="rgb(10,120,190)" stroke="none" d="M 10133,14384 L 11074,14384 11074,15319 10133,15319 10133,14384 Z M 10137,14388 L 11070,14388 11070,15315 10137,15315 10137,14388 Z"/>
             <path fill="rgb(11,121,190)" stroke="none" d="M 10137,14388 L 11070,14388 11070,15315 10137,15315 10137,14388 Z M 10141,14392 L 11066,14392 11066,15311 10141,15311 10141,14392 Z"/>
             <path fill="rgb(12,121,191)" stroke="none" d="M 10141,14392 L 11066,14392 11066,15311 10141,15311 10141,14392 Z M 10145,14396 L 11062,14396 11062,15307 10145,15307 10145,14396 Z"/>
             <path fill="rgb(13,122,191)" stroke="none" d="M 10145,14396 L 11062,14396 11062,15307 10145,15307 10145,14396 Z M 10149,14400 L 11058,14400 11058,15303 10149,15303 10149,14400 Z"/>
             <path fill="rgb(14,122,191)" stroke="none" d="M 10149,14400 L 11058,14400 11058,15303 10149,15303 10149,14400 Z M 10153,14404 L 11054,14404 11054,15299 10153,15299 10153,14404 Z"/>
             <path fill="rgb(15,123,191)" stroke="none" d="M 10153,14404 L 11054,14404 11054,15299 10153,15299 10153,14404 Z M 10157,14408 L 11050,14408 11050,15295 10157,15295 10157,14408 Z"/>
             <path fill="rgb(16,123,192)" stroke="none" d="M 10157,14408 L 11050,14408 11050,15295 10157,15295 10157,14408 Z M 10161,14412 L 11046,14412 11046,15291 10161,15291 10161,14412 Z"/>
             <path fill="rgb(17,124,192)" stroke="none" d="M 10161,14412 L 11046,14412 11046,15291 10161,15291 10161,14412 Z M 10165,14416 L 11042,14416 11042,15287 10165,15287 10165,14416 Z"/>
             <path fill="rgb(18,124,192)" stroke="none" d="M 10165,14416 L 11042,14416 11042,15287 10165,15287 10165,14416 Z M 10169,14420 L 11038,14420 11038,15283 10169,15283 10169,14420 Z"/>
             <path fill="rgb(19,125,192)" stroke="none" d="M 10169,14420 L 11038,14420 11038,15283 10169,15283 10169,14420 Z M 10173,14424 L 11034,14424 11034,15279 10173,15279 10173,14424 Z"/>
             <path fill="rgb(20,126,193)" stroke="none" d="M 10173,14424 L 11034,14424 11034,15279 10173,15279 10173,14424 Z M 10177,14428 L 11030,14428 11030,15275 10177,15275 10177,14428 Z"/>
             <path fill="rgb(21,126,193)" stroke="none" d="M 10177,14428 L 11030,14428 11030,15275 10177,15275 10177,14428 Z M 10181,14432 L 11026,14432 11026,15271 10181,15271 10181,14432 Z"/>
             <path fill="rgb(22,127,193)" stroke="none" d="M 10181,14432 L 11026,14432 11026,15271 10181,15271 10181,14432 Z M 10185,14436 L 11022,14436 11022,15267 10185,15267 10185,14436 Z"/>
             <path fill="rgb(23,127,193)" stroke="none" d="M 10185,14436 L 11022,14436 11022,15267 10185,15267 10185,14436 Z M 10189,14440 L 11018,14440 11018,15263 10189,15263 10189,14440 Z"/>
             <path fill="rgb(24,128,194)" stroke="none" d="M 10189,14440 L 11018,14440 11018,15263 10189,15263 10189,14440 Z M 10193,14444 L 11014,14444 11014,15259 10193,15259 10193,14444 Z"/>
             <path fill="rgb(25,128,194)" stroke="none" d="M 10193,14444 L 11014,14444 11014,15259 10193,15259 10193,14444 Z M 10197,14448 L 11010,14448 11010,15255 10197,15255 10197,14448 Z"/>
             <path fill="rgb(26,129,194)" stroke="none" d="M 10197,14448 L 11010,14448 11010,15255 10197,15255 10197,14448 Z M 10201,14452 L 11006,14452 11006,15251 10201,15251 10201,14452 Z"/>
             <path fill="rgb(27,129,195)" stroke="none" d="M 10201,14452 L 11006,14452 11006,15251 10201,15251 10201,14452 Z M 10205,14456 L 11002,14456 11002,15247 10205,15247 10205,14456 Z"/>
             <path fill="rgb(28,130,195)" stroke="none" d="M 10205,14456 L 11002,14456 11002,15247 10205,15247 10205,14456 Z M 10209,14460 L 10998,14460 10998,15243 10209,15243 10209,14460 Z"/>
             <path fill="rgb(29,130,195)" stroke="none" d="M 10209,14460 L 10998,14460 10998,15243 10209,15243 10209,14460 Z M 10213,14464 L 10994,14464 10994,15239 10213,15239 10213,14464 Z"/>
             <path fill="rgb(30,131,195)" stroke="none" d="M 10213,14464 L 10994,14464 10994,15239 10213,15239 10213,14464 Z M 10217,14468 L 10990,14468 10990,15235 10217,15235 10217,14468 Z"/>
             <path fill="rgb(31,132,196)" stroke="none" d="M 10217,14468 L 10990,14468 10990,15235 10217,15235 10217,14468 Z M 10222,14472 L 10985,14472 10985,15231 10222,15231 10222,14472 Z"/>
             <path fill="rgb(32,132,196)" stroke="none" d="M 10222,14472 L 10985,14472 10985,15231 10222,15231 10222,14472 Z M 10226,14476 L 10981,14476 10981,15227 10226,15227 10226,14476 Z"/>
             <path fill="rgb(33,133,196)" stroke="none" d="M 10226,14476 L 10981,14476 10981,15227 10226,15227 10226,14476 Z M 10230,14480 L 10977,14480 10977,15223 10230,15223 10230,14480 Z"/>
             <path fill="rgb(34,133,196)" stroke="none" d="M 10230,14480 L 10977,14480 10977,15223 10230,15223 10230,14480 Z M 10234,14484 L 10973,14484 10973,15219 10234,15219 10234,14484 Z"/>
             <path fill="rgb(35,134,197)" stroke="none" d="M 10234,14484 L 10973,14484 10973,15219 10234,15219 10234,14484 Z M 10238,14488 L 10969,14488 10969,15215 10238,15215 10238,14488 Z"/>
             <path fill="rgb(36,134,197)" stroke="none" d="M 10238,14488 L 10969,14488 10969,15215 10238,15215 10238,14488 Z M 10242,14492 L 10965,14492 10965,15211 10242,15211 10242,14492 Z"/>
             <path fill="rgb(37,135,197)" stroke="none" d="M 10242,14492 L 10965,14492 10965,15211 10242,15211 10242,14492 Z M 10246,14496 L 10961,14496 10961,15207 10246,15207 10246,14496 Z"/>
             <path fill="rgb(38,135,197)" stroke="none" d="M 10246,14496 L 10961,14496 10961,15207 10246,15207 10246,14496 Z M 10250,14500 L 10957,14500 10957,15203 10250,15203 10250,14500 Z"/>
             <path fill="rgb(39,136,198)" stroke="none" d="M 10250,14500 L 10957,14500 10957,15203 10250,15203 10250,14500 Z M 10254,14504 L 10953,14504 10953,15199 10254,15199 10254,14504 Z"/>
             <path fill="rgb(40,137,198)" stroke="none" d="M 10254,14504 L 10953,14504 10953,15199 10254,15199 10254,14504 Z M 10258,14508 L 10949,14508 10949,15195 10258,15195 10258,14508 Z"/>
             <path fill="rgb(41,137,198)" stroke="none" d="M 10258,14508 L 10949,14508 10949,15195 10258,15195 10258,14508 Z M 10262,14512 L 10945,14512 10945,15191 10262,15191 10262,14512 Z"/>
             <path fill="rgb(42,138,198)" stroke="none" d="M 10262,14512 L 10945,14512 10945,15191 10262,15191 10262,14512 Z M 10266,14516 L 10941,14516 10941,15187 10266,15187 10266,14516 Z"/>
             <path fill="rgb(43,138,199)" stroke="none" d="M 10266,14516 L 10941,14516 10941,15187 10266,15187 10266,14516 Z M 10270,14520 L 10937,14520 10937,15183 10270,15183 10270,14520 Z"/>
             <path fill="rgb(44,139,199)" stroke="none" d="M 10270,14520 L 10937,14520 10937,15183 10270,15183 10270,14520 Z M 10274,14524 L 10933,14524 10933,15179 10274,15179 10274,14524 Z"/>
             <path fill="rgb(45,139,199)" stroke="none" d="M 10274,14524 L 10933,14524 10933,15179 10274,15179 10274,14524 Z M 10278,14528 L 10929,14528 10929,15175 10278,15175 10278,14528 Z"/>
             <path fill="rgb(46,140,199)" stroke="none" d="M 10278,14528 L 10929,14528 10929,15175 10278,15175 10278,14528 Z M 10281,14531 L 10925,14531 10925,15171 10281,15171 10281,14531 Z"/>
             <path fill="rgb(47,140,200)" stroke="none" d="M 10281,14531 L 10925,14531 10925,15171 10281,15171 10281,14531 Z M 10285,14535 L 10921,14535 10921,15167 10285,15167 10285,14535 Z"/>
             <path fill="rgb(48,141,200)" stroke="none" d="M 10285,14535 L 10921,14535 10921,15167 10285,15167 10285,14535 Z M 10289,14539 L 10917,14539 10917,15163 10289,15163 10289,14539 Z"/>
             <path fill="rgb(49,142,200)" stroke="none" d="M 10289,14539 L 10917,14539 10917,15163 10289,15163 10289,14539 Z M 10293,14543 L 10913,14543 10913,15159 10293,15159 10293,14543 Z"/>
             <path fill="rgb(50,142,200)" stroke="none" d="M 10293,14543 L 10913,14543 10913,15159 10293,15159 10293,14543 Z M 10297,14547 L 10909,14547 10909,15155 10297,15155 10297,14547 Z"/>
             <path fill="rgb(51,143,201)" stroke="none" d="M 10297,14547 L 10909,14547 10909,15155 10297,15155 10297,14547 Z M 10301,14551 L 10905,14551 10905,15151 10301,15151 10301,14551 Z"/>
             <path fill="rgb(52,143,201)" stroke="none" d="M 10301,14551 L 10905,14551 10905,15151 10301,15151 10301,14551 Z M 10305,14555 L 10901,14555 10901,15147 10305,15147 10305,14555 Z"/>
             <path fill="rgb(53,144,201)" stroke="none" d="M 10305,14555 L 10901,14555 10901,15147 10305,15147 10305,14555 Z M 10309,14559 L 10897,14559 10897,15143 10309,15143 10309,14559 Z"/>
             <path fill="rgb(54,144,202)" stroke="none" d="M 10309,14559 L 10897,14559 10897,15143 10309,15143 10309,14559 Z M 10313,14563 L 10893,14563 10893,15139 10313,15139 10313,14563 Z"/>
             <path fill="rgb(55,145,202)" stroke="none" d="M 10313,14563 L 10893,14563 10893,15139 10313,15139 10313,14563 Z M 10317,14567 L 10889,14567 10889,15135 10317,15135 10317,14567 Z"/>
             <path fill="rgb(56,145,202)" stroke="none" d="M 10317,14567 L 10889,14567 10889,15135 10317,15135 10317,14567 Z M 10321,14571 L 10885,14571 10885,15131 10321,15131 10321,14571 Z"/>
             <path fill="rgb(57,146,202)" stroke="none" d="M 10321,14571 L 10885,14571 10885,15131 10321,15131 10321,14571 Z M 10325,14575 L 10881,14575 10881,15127 10325,15127 10325,14575 Z"/>
             <path fill="rgb(58,146,203)" stroke="none" d="M 10325,14575 L 10881,14575 10881,15127 10325,15127 10325,14575 Z M 10329,14579 L 10877,14579 10877,15123 10329,15123 10329,14579 Z"/>
             <path fill="rgb(59,147,203)" stroke="none" d="M 10329,14579 L 10877,14579 10877,15123 10329,15123 10329,14579 Z M 10333,14583 L 10873,14583 10873,15119 10333,15119 10333,14583 Z"/>
             <path fill="rgb(60,148,203)" stroke="none" d="M 10333,14583 L 10873,14583 10873,15119 10333,15119 10333,14583 Z M 10337,14587 L 10869,14587 10869,15115 10337,15115 10337,14587 Z"/>
             <path fill="rgb(61,148,203)" stroke="none" d="M 10337,14587 L 10869,14587 10869,15115 10337,15115 10337,14587 Z M 10341,14591 L 10865,14591 10865,15111 10341,15111 10341,14591 Z"/>
             <path fill="rgb(62,149,204)" stroke="none" d="M 10341,14591 L 10865,14591 10865,15111 10341,15111 10341,14591 Z M 10345,14595 L 10861,14595 10861,15107 10345,15107 10345,14595 Z"/>
             <path fill="rgb(63,149,204)" stroke="none" d="M 10345,14595 L 10861,14595 10861,15107 10345,15107 10345,14595 Z M 10350,14599 L 10856,14599 10856,15103 10350,15103 10350,14599 Z"/>
             <path fill="rgb(64,150,204)" stroke="none" d="M 10350,14599 L 10856,14599 10856,15103 10350,15103 10350,14599 Z M 10354,14603 L 10852,14603 10852,15099 10354,15099 10354,14603 Z"/>
             <path fill="rgb(65,150,204)" stroke="none" d="M 10354,14603 L 10852,14603 10852,15099 10354,15099 10354,14603 Z M 10358,14607 L 10848,14607 10848,15095 10358,15095 10358,14607 Z"/>
             <path fill="rgb(66,151,205)" stroke="none" d="M 10358,14607 L 10848,14607 10848,15095 10358,15095 10358,14607 Z M 10362,14611 L 10844,14611 10844,15091 10362,15091 10362,14611 Z"/>
             <path fill="rgb(67,151,205)" stroke="none" d="M 10362,14611 L 10844,14611 10844,15091 10362,15091 10362,14611 Z M 10366,14615 L 10840,14615 10840,15087 10366,15087 10366,14615 Z"/>
             <path fill="rgb(68,152,205)" stroke="none" d="M 10366,14615 L 10840,14615 10840,15087 10366,15087 10366,14615 Z M 10370,14619 L 10836,14619 10836,15083 10370,15083 10370,14619 Z"/>
             <path fill="rgb(69,153,205)" stroke="none" d="M 10370,14619 L 10836,14619 10836,15083 10370,15083 10370,14619 Z M 10374,14623 L 10832,14623 10832,15079 10374,15079 10374,14623 Z"/>
             <path fill="rgb(70,153,206)" stroke="none" d="M 10374,14623 L 10832,14623 10832,15079 10374,15079 10374,14623 Z M 10378,14627 L 10828,14627 10828,15075 10378,15075 10378,14627 Z"/>
             <path fill="rgb(71,154,206)" stroke="none" d="M 10378,14627 L 10828,14627 10828,15075 10378,15075 10378,14627 Z M 10382,14631 L 10824,14631 10824,15071 10382,15071 10382,14631 Z"/>
             <path fill="rgb(72,154,206)" stroke="none" d="M 10382,14631 L 10824,14631 10824,15071 10382,15071 10382,14631 Z M 10386,14635 L 10820,14635 10820,15067 10386,15067 10386,14635 Z"/>
             <path fill="rgb(73,155,206)" stroke="none" d="M 10386,14635 L 10820,14635 10820,15067 10386,15067 10386,14635 Z M 10390,14639 L 10816,14639 10816,15063 10390,15063 10390,14639 Z"/>
             <path fill="rgb(74,155,207)" stroke="none" d="M 10390,14639 L 10816,14639 10816,15063 10390,15063 10390,14639 Z M 10394,14643 L 10812,14643 10812,15059 10394,15059 10394,14643 Z"/>
             <path fill="rgb(75,156,207)" stroke="none" d="M 10394,14643 L 10812,14643 10812,15059 10394,15059 10394,14643 Z M 10398,14647 L 10808,14647 10808,15055 10398,15055 10398,14647 Z"/>
             <path fill="rgb(76,156,207)" stroke="none" d="M 10398,14647 L 10808,14647 10808,15055 10398,15055 10398,14647 Z M 10402,14651 L 10804,14651 10804,15051 10402,15051 10402,14651 Z"/>
             <path fill="rgb(77,157,208)" stroke="none" d="M 10402,14651 L 10804,14651 10804,15051 10402,15051 10402,14651 Z M 10406,14655 L 10800,14655 10800,15047 10406,15047 10406,14655 Z"/>
             <path fill="rgb(78,157,208)" stroke="none" d="M 10406,14655 L 10800,14655 10800,15047 10406,15047 10406,14655 Z M 10410,14659 L 10796,14659 10796,15043 10410,15043 10410,14659 Z"/>
             <path fill="rgb(79,158,208)" stroke="none" d="M 10410,14659 L 10796,14659 10796,15043 10410,15043 10410,14659 Z M 10414,14663 L 10792,14663 10792,15039 10414,15039 10414,14663 Z"/>
             <path fill="rgb(80,159,208)" stroke="none" d="M 10414,14663 L 10792,14663 10792,15039 10414,15039 10414,14663 Z M 10418,14667 L 10788,14667 10788,15035 10418,15035 10418,14667 Z"/>
             <path fill="rgb(81,159,209)" stroke="none" d="M 10418,14667 L 10788,14667 10788,15035 10418,15035 10418,14667 Z M 10422,14671 L 10784,14671 10784,15031 10422,15031 10422,14671 Z"/>
             <path fill="rgb(82,160,209)" stroke="none" d="M 10422,14671 L 10784,14671 10784,15031 10422,15031 10422,14671 Z M 10426,14675 L 10780,14675 10780,15027 10426,15027 10426,14675 Z"/>
             <path fill="rgb(83,160,209)" stroke="none" d="M 10426,14675 L 10780,14675 10780,15027 10426,15027 10426,14675 Z M 10430,14679 L 10776,14679 10776,15023 10430,15023 10430,14679 Z"/>
             <path fill="rgb(84,161,209)" stroke="none" d="M 10430,14679 L 10776,14679 10776,15023 10430,15023 10430,14679 Z M 10434,14683 L 10772,14683 10772,15019 10434,15019 10434,14683 Z"/>
             <path fill="rgb(85,161,210)" stroke="none" d="M 10434,14683 L 10772,14683 10772,15019 10434,15019 10434,14683 Z M 10438,14687 L 10768,14687 10768,15015 10438,15015 10438,14687 Z"/>
             <path fill="rgb(86,162,210)" stroke="none" d="M 10438,14687 L 10768,14687 10768,15015 10438,15015 10438,14687 Z M 10442,14691 L 10764,14691 10764,15011 10442,15011 10442,14691 Z"/>
             <path fill="rgb(87,162,210)" stroke="none" d="M 10442,14691 L 10764,14691 10764,15011 10442,15011 10442,14691 Z M 10446,14695 L 10760,14695 10760,15007 10446,15007 10446,14695 Z"/>
             <path fill="rgb(88,163,210)" stroke="none" d="M 10446,14695 L 10760,14695 10760,15007 10446,15007 10446,14695 Z M 10450,14699 L 10756,14699 10756,15003 10450,15003 10450,14699 Z"/>
             <path fill="rgb(89,164,211)" stroke="none" d="M 10450,14699 L 10756,14699 10756,15003 10450,15003 10450,14699 Z M 10454,14703 L 10752,14703 10752,14999 10454,14999 10454,14703 Z"/>
             <path fill="rgb(90,164,211)" stroke="none" d="M 10454,14703 L 10752,14703 10752,14999 10454,14999 10454,14703 Z M 10458,14707 L 10748,14707 10748,14995 10458,14995 10458,14707 Z"/>
             <path fill="rgb(91,165,211)" stroke="none" d="M 10458,14707 L 10748,14707 10748,14995 10458,14995 10458,14707 Z M 10462,14711 L 10744,14711 10744,14991 10462,14991 10462,14711 Z"/>
             <path fill="rgb(92,165,211)" stroke="none" d="M 10462,14711 L 10744,14711 10744,14991 10462,14991 10462,14711 Z M 10466,14715 L 10740,14715 10740,14987 10466,14987 10466,14715 Z"/>
             <path fill="rgb(93,166,212)" stroke="none" d="M 10466,14715 L 10740,14715 10740,14987 10466,14987 10466,14715 Z M 10470,14719 L 10736,14719 10736,14983 10470,14983 10470,14719 Z"/>
             <path fill="rgb(94,166,212)" stroke="none" d="M 10470,14719 L 10736,14719 10736,14983 10470,14983 10470,14719 Z M 10474,14723 L 10732,14723 10732,14979 10474,14979 10474,14723 Z"/>
             <path fill="rgb(95,167,212)" stroke="none" d="M 10474,14723 L 10732,14723 10732,14979 10474,14979 10474,14723 Z M 10479,14727 L 10727,14727 10727,14975 10479,14975 10479,14727 Z"/>
             <path fill="rgb(96,167,212)" stroke="none" d="M 10479,14727 L 10727,14727 10727,14975 10479,14975 10479,14727 Z M 10483,14731 L 10723,14731 10723,14971 10483,14971 10483,14731 Z"/>
             <path fill="rgb(97,168,213)" stroke="none" d="M 10483,14731 L 10723,14731 10723,14971 10483,14971 10483,14731 Z M 10487,14735 L 10719,14735 10719,14967 10487,14967 10487,14735 Z"/>
             <path fill="rgb(98,169,213)" stroke="none" d="M 10487,14735 L 10719,14735 10719,14967 10487,14967 10487,14735 Z M 10491,14739 L 10715,14739 10715,14963 10491,14963 10491,14739 Z"/>
             <path fill="rgb(99,169,213)" stroke="none" d="M 10491,14739 L 10715,14739 10715,14963 10491,14963 10491,14739 Z M 10495,14743 L 10711,14743 10711,14959 10495,14959 10495,14743 Z"/>
             <path fill="rgb(100,170,213)" stroke="none" d="M 10495,14743 L 10711,14743 10711,14959 10495,14959 10495,14743 Z M 10499,14747 L 10707,14747 10707,14955 10499,14955 10499,14747 Z"/>
             <path fill="rgb(101,170,214)" stroke="none" d="M 10499,14747 L 10707,14747 10707,14955 10499,14955 10499,14747 Z M 10503,14751 L 10703,14751 10703,14951 10503,14951 10503,14751 Z"/>
             <path fill="rgb(102,171,214)" stroke="none" d="M 10503,14751 L 10703,14751 10703,14951 10503,14951 10503,14751 Z M 10507,14755 L 10699,14755 10699,14947 10507,14947 10507,14755 Z"/>
             <path fill="rgb(103,171,214)" stroke="none" d="M 10507,14755 L 10699,14755 10699,14947 10507,14947 10507,14755 Z M 10511,14759 L 10695,14759 10695,14943 10511,14943 10511,14759 Z"/>
             <path fill="rgb(104,172,215)" stroke="none" d="M 10511,14759 L 10695,14759 10695,14943 10511,14943 10511,14759 Z M 10515,14763 L 10691,14763 10691,14939 10515,14939 10515,14763 Z"/>
             <path fill="rgb(105,172,215)" stroke="none" d="M 10515,14763 L 10691,14763 10691,14939 10515,14939 10515,14763 Z M 10519,14767 L 10687,14767 10687,14935 10519,14935 10519,14767 Z"/>
             <path fill="rgb(106,173,215)" stroke="none" d="M 10519,14767 L 10687,14767 10687,14935 10519,14935 10519,14767 Z M 10523,14771 L 10683,14771 10683,14931 10523,14931 10523,14771 Z"/>
             <path fill="rgb(107,173,215)" stroke="none" d="M 10523,14771 L 10683,14771 10683,14931 10523,14931 10523,14771 Z M 10527,14775 L 10679,14775 10679,14927 10527,14927 10527,14775 Z"/>
             <path fill="rgb(108,174,216)" stroke="none" d="M 10527,14775 L 10679,14775 10679,14927 10527,14927 10527,14775 Z M 10531,14779 L 10675,14779 10675,14923 10531,14923 10531,14779 Z"/>
             <path fill="rgb(109,175,216)" stroke="none" d="M 10531,14779 L 10675,14779 10675,14923 10531,14923 10531,14779 Z M 10535,14783 L 10671,14783 10671,14919 10535,14919 10535,14783 Z"/>
             <path fill="rgb(110,175,216)" stroke="none" d="M 10535,14783 L 10671,14783 10671,14919 10535,14919 10535,14783 Z M 10539,14787 L 10667,14787 10667,14915 10539,14915 10539,14787 Z"/>
             <path fill="rgb(111,176,216)" stroke="none" d="M 10539,14787 L 10667,14787 10667,14915 10539,14915 10539,14787 Z M 10543,14791 L 10663,14791 10663,14911 10543,14911 10543,14791 Z"/>
             <path fill="rgb(112,176,217)" stroke="none" d="M 10543,14791 L 10663,14791 10663,14911 10543,14911 10543,14791 Z M 10547,14795 L 10659,14795 10659,14907 10547,14907 10547,14795 Z"/>
             <path fill="rgb(113,177,217)" stroke="none" d="M 10547,14795 L 10659,14795 10659,14907 10547,14907 10547,14795 Z M 10551,14799 L 10655,14799 10655,14903 10551,14903 10551,14799 Z"/>
             <path fill="rgb(114,177,217)" stroke="none" d="M 10551,14799 L 10655,14799 10655,14903 10551,14903 10551,14799 Z M 10555,14803 L 10651,14803 10651,14899 10555,14899 10555,14803 Z"/>
             <path fill="rgb(115,178,217)" stroke="none" d="M 10555,14803 L 10651,14803 10651,14899 10555,14899 10555,14803 Z M 10559,14807 L 10647,14807 10647,14895 10559,14895 10559,14807 Z"/>
             <path fill="rgb(116,178,218)" stroke="none" d="M 10559,14807 L 10647,14807 10647,14895 10559,14895 10559,14807 Z M 10563,14811 L 10643,14811 10643,14891 10563,14891 10563,14811 Z"/>
             <path fill="rgb(117,179,218)" stroke="none" d="M 10563,14811 L 10643,14811 10643,14891 10563,14891 10563,14811 Z M 10567,14815 L 10639,14815 10639,14887 10567,14887 10567,14815 Z"/>
             <path fill="rgb(118,180,218)" stroke="none" d="M 10567,14815 L 10639,14815 10639,14887 10567,14887 10567,14815 Z M 10571,14819 L 10635,14819 10635,14883 10571,14883 10571,14819 Z"/>
             <path fill="rgb(119,180,218)" stroke="none" d="M 10571,14819 L 10635,14819 10635,14883 10571,14883 10571,14819 Z M 10575,14823 L 10631,14823 10631,14879 10575,14879 10575,14823 Z"/>
             <path fill="rgb(120,181,219)" stroke="none" d="M 10575,14823 L 10631,14823 10631,14879 10575,14879 10575,14823 Z M 10579,14827 L 10627,14827 10627,14875 10579,14875 10579,14827 Z"/>
             <path fill="rgb(121,181,219)" stroke="none" d="M 10579,14827 L 10627,14827 10627,14875 10579,14875 10579,14827 Z M 10583,14831 L 10623,14831 10623,14871 10583,14871 10583,14831 Z"/>
             <path fill="rgb(122,182,219)" stroke="none" d="M 10583,14831 L 10623,14831 10623,14871 10583,14871 10583,14831 Z M 10587,14835 L 10619,14835 10619,14867 10587,14867 10587,14835 Z"/>
             <path fill="rgb(123,182,219)" stroke="none" d="M 10587,14835 L 10619,14835 10619,14867 10587,14867 10587,14835 Z M 10591,14839 L 10615,14839 10615,14863 10591,14863 10591,14839 Z"/>
             <path fill="rgb(124,183,220)" stroke="none" d="M 10591,14839 L 10615,14839 10615,14863 10591,14863 10591,14839 Z M 10595,14843 L 10611,14843 10611,14859 10595,14859 10595,14843 Z"/>
             <path fill="rgb(125,183,220)" stroke="none" d="M 10595,14843 L 10611,14843 10611,14859 10595,14859 10595,14843 Z M 10599,14847 L 10607,14847 10607,14855 10599,14855 10599,14847 Z"/>
             <path fill="rgb(127,185,221)" stroke="none" d="M 10599,14847 L 10607,14847 10607,14855 10599,14855 10599,14847 Z"/>
            </g>
           </pattern>
          </defs>
          <path style="fill:url(#pattern2)" d="M 10808,14548 L 10861,14551 10913,14558 10962,14570 11010,14587 11055,14608 11097,14632 11136,14661 11172,14694 11205,14729 11234,14768 11259,14810 11280,14854 11297,14901 11309,14951 11316,15002 11319,15055 11316,15108 11309,15160 11297,15209 11280,15256 11259,15300 11234,15342 11205,15381 11172,15417 11136,15449 11097,15478 11055,15503 11010,15524 10962,15541 10913,15553 10861,15560 10808,15563 10755,15560 10703,15553 10654,15541 10606,15524 10562,15503 10520,15478 10481,15449 10445,15417 10412,15381 10383,15342 10358,15300 10337,15256 10320,15209 10308,15160 10301,15108 10298,15055 10301,15002 10308,14951 10320,14901 10337,14854 10358,14810 10383,14768 10412,14729 10445,14694 10481,14661 10520,14632 10562,14608 10606,14587 10654,14570 10703,14558 10755,14551 10808,14548 Z"/>
         </g>
         <path fill="none" stroke="rgb(0,0,0)" stroke-width="40" stroke-linejoin="round" d="M 10808,14548 C 11097,14548 11319,14767 11319,15055 11319,15343 11097,15563 10808,15563 10519,15563 10298,15343 10298,15055 10298,14767 10519,14548 10808,14548 Z"/>
        </g>
       </g>
       <g class="com.sun.star.drawing.PolyPolygonShape">
        <g id="id28">
         <rect class="BoundingBox" stroke="none" fill="none" x="10506" y="14561" width="664" height="991"/>
         <path fill="rgb(57,181,74)" stroke="none" d="M 10526,14647 L 10639,14647 10696,14614 10809,14581 10979,14647 10866,14647 10923,14745 10753,14908 10696,14941 10639,14974 10753,15040 10809,15105 10979,15105 11149,15203 11036,15400 10866,15531 10866,15335 10753,15203 10809,15138 10696,15040 10583,15007 10526,14876 10526,14647 Z"/>
         <path fill="none" stroke="rgb(128,128,128)" stroke-width="40" stroke-linejoin="round" d="M 10526,14647 L 10639,14647 10696,14614 10809,14581 10979,14647 10866,14647 10923,14745 10753,14908 10696,14941 10639,14974 10753,15040 10809,15105 10979,15105 11149,15203 11036,15400 10866,15531 10866,15335 10753,15203 10809,15138 10696,15040 10583,15007 10526,14876 10526,14647 Z"/>
        </g>
       </g>
       <g class="com.sun.star.drawing.ClosedBezierShape">
        <g id="id29">
         <rect class="BoundingBox" stroke="none" fill="none" x="11016" y="14620" width="299" height="474"/>
         <path fill="rgb(57,181,74)" stroke="none" d="M 11263,15073 L 11263,15040 11206,14942 11206,14843 11149,14712 11036,14647 C 11149,14582 11376,15007 11263,15073 Z"/>
         <path fill="none" stroke="rgb(128,128,128)" stroke-width="40" stroke-linejoin="round" d="M 11263,15073 L 11263,15040 11206,14942 11206,14843 11149,14712 11036,14647 C 11149,14582 11376,15007 11263,15073 Z"/>
        </g>
       </g>
       <g class="Group">
        <g class="com.sun.star.drawing.LineShape">
         <g id="id30">
          <rect class="BoundingBox" stroke="none" fill="none" x="10676" y="14954" width="98" height="270"/>
          <path fill="none" stroke="rgb(255,255,255)" stroke-width="40" stroke-linejoin="round" d="M 10753,15203 L 10696,14974"/>
         </g>
        </g>
        <g class="com.sun.star.drawing.LineShape">
         <g id="id31">
          <rect class="BoundingBox" stroke="none" fill="none" x="10732" y="15020" width="98" height="205"/>
          <path fill="none" stroke="rgb(255,255,255)" stroke-width="40" stroke-linejoin="round" d="M 10752,15204 L 10809,15040"/>
         </g>
        </g>
        <g class="com.sun.star.drawing.LineShape">
         <g id="id32">
          <rect class="BoundingBox" stroke="none" fill="none" x="10789" y="15020" width="98" height="205"/>
          <path fill="none" stroke="rgb(255,255,255)" stroke-width="40" stroke-linejoin="round" d="M 10866,15204 L 10809,15040"/>
         </g>
        </g>
        <g class="com.sun.star.drawing.LineShape">
         <g id="id33">
          <rect class="BoundingBox" stroke="none" fill="none" x="10846" y="14954" width="98" height="270"/>
          <path fill="none" stroke="rgb(255,255,255)" stroke-width="40" stroke-linejoin="round" d="M 10866,15203 L 10923,14974"/>
         </g>
        </g>
       </g>
       <g class="Group">
        <g class="com.sun.star.drawing.LineShape">
         <g id="id34">
          <rect class="BoundingBox" stroke="none" fill="none" x="11016" y="14954" width="98" height="270"/>
          <path fill="none" stroke="rgb(255,255,255)" stroke-width="40" stroke-linejoin="round" d="M 11093,15203 L 11036,14974"/>
         </g>
        </g>
        <g class="com.sun.star.drawing.LineShape">
         <g id="id35">
          <rect class="BoundingBox" stroke="none" fill="none" x="11072" y="15020" width="98" height="205"/>
          <path fill="none" stroke="rgb(255,255,255)" stroke-width="40" stroke-linejoin="round" d="M 11092,15204 L 11149,15040"/>
         </g>
        </g>
        <g class="com.sun.star.drawing.LineShape">
         <g id="id36">
          <rect class="BoundingBox" stroke="none" fill="none" x="11129" y="15020" width="98" height="205"/>
          <path fill="none" stroke="rgb(255,255,255)" stroke-width="40" stroke-linejoin="round" d="M 11206,15204 L 11149,15040"/>
         </g>
        </g>
        <g class="com.sun.star.drawing.LineShape">
         <g id="id37">
          <rect class="BoundingBox" stroke="none" fill="none" x="11186" y="14954" width="98" height="270"/>
          <path fill="none" stroke="rgb(255,255,255)" stroke-width="40" stroke-linejoin="round" d="M 11206,15203 L 11263,14974"/>
         </g>
        </g>
       </g>
       <g class="Group">
        <g class="com.sun.star.drawing.LineShape">
         <g id="id38">
          <rect class="BoundingBox" stroke="none" fill="none" x="10336" y="14954" width="98" height="270"/>
          <path fill="none" stroke="rgb(255,255,255)" stroke-width="40" stroke-linejoin="round" d="M 10413,15203 L 10356,14974"/>
         </g>
        </g>
        <g class="com.sun.star.drawing.LineShape">
         <g id="id39">
          <rect class="BoundingBox" stroke="none" fill="none" x="10392" y="15020" width="98" height="205"/>
          <path fill="none" stroke="rgb(255,255,255)" stroke-width="40" stroke-linejoin="round" d="M 10412,15204 L 10469,15040"/>
         </g>
        </g>
        <g class="com.sun.star.drawing.LineShape">
         <g id="id40">
          <rect class="BoundingBox" stroke="none" fill="none" x="10449" y="15020" width="98" height="205"/>
          <path fill="none" stroke="rgb(255,255,255)" stroke-width="40" stroke-linejoin="round" d="M 10526,15204 L 10469,15040"/>
         </g>
        </g>
        <g class="com.sun.star.drawing.LineShape">
         <g id="id41">
          <rect class="BoundingBox" stroke="none" fill="none" x="10506" y="14954" width="98" height="270"/>
          <path fill="none" stroke="rgb(255,255,255)" stroke-width="40" stroke-linejoin="round" d="M 10526,15203 L 10583,14974"/>
         </g>
        </g>
       </g>
      </g>
     </g>
    </g>
   </g>
  </g>
 </g>
</svg>