<?xml version="1.0" encoding="UTF-8"?>
<!DOCTYPE svg PUBLIC "-//W3C//DTD SVG 1.1//EN" "http://www.w3.org/Graphics/SVG/1.1/DTD/svg11.dtd">
<svg version="1.2" width="19.64mm" height="23.65mm" viewBox="10089 17443 1964 2365" preserveAspectRatio="xMidYMid" fill-rule="evenodd" stroke-width="28.222" stroke-linejoin="round" xmlns="http://www.w3.org/2000/svg" xmlns:ooo="http://xml.openoffice.org/svg/export" xmlns:xlink="http://www.w3.org/1999/xlink" xmlns:presentation="http://sun.com/xmlns/staroffice/presentation" xmlns:smil="http://www.w3.org/2001/SMIL20/" xmlns:anim="urn:oasis:names:tc:opendocument:xmlns:animation:1.0" xml:space="preserve">
 <defs class="ClipPathGroup">
  <clipPath id="presentation_clip_path" clipPathUnits="userSpaceOnUse">
   <rect x="10089" y="17443" width="1964" height="2365"/>
  </clipPath>
 </defs>
 <defs class="TextShapeIndex">
  <g ooo:slide="id1" ooo:id-list="id3 id4 id5 id6 id7 id8 id9 id10 id11 id12 id13 id14"/>
 </defs>
 <defs class="EmbeddedBulletChars">
  <g id="bullet-char-template(57356)" transform="scale(0.00048828125,-0.00048828125)">
   <path d="M 580,1141 L 1163,571 580,0 -4,571 580,1141 Z"/>
  </g>
  <g id="bullet-char-template(57354)" transform="scale(0.00048828125,-0.00048828125)">
   <path d="M 8,1128 L 1137,1128 1137,0 8,0 8,1128 Z"/>
  </g>
  <g id="bullet-char-template(10146)" transform="scale(0.00048828125,-0.00048828125)">
   <path d="M 174,0 L 602,739 174,1481 1456,739 174,0 Z M 1358,739 L 309,1346 659,739 1358,739 Z"/>
  </g>
  <g id="bullet-char-template(10132)" transform="scale(0.00048828125,-0.00048828125)">
   <path d="M 2015,739 L 1276,0 717,0 1260,543 174,543 174,936 1260,936 717,1481 1274,1481 2015,739 Z"/>
  </g>
  <g id="bullet-char-template(10007)" transform="scale(0.00048828125,-0.00048828125)">
   <path d="M 0,-2 C -7,14 -16,27 -25,37 L 356,567 C 262,823 215,952 215,954 215,979 228,992 255,992 264,992 276,990 289,987 310,991 331,999 354,1012 L 381,999 492,748 772,1049 836,1024 860,1049 C 881,1039 901,1025 922,1006 886,937 835,863 770,784 769,783 710,716 594,584 L 774,223 C 774,196 753,168 711,139 L 727,119 C 717,90 699,76 672,76 641,76 570,178 457,381 L 164,-76 C 142,-110 111,-127 72,-127 30,-127 9,-110 8,-76 1,-67 -2,-52 -2,-32 -2,-23 -1,-13 0,-2 Z"/>
  </g>
  <g id="bullet-char-template(10004)" transform="scale(0.00048828125,-0.00048828125)">
   <path d="M 285,-33 C 182,-33 111,30 74,156 52,228 41,333 41,471 41,549 55,616 82,672 116,743 169,778 240,778 293,778 328,747 346,684 L 369,508 C 377,444 397,411 428,410 L 1163,1116 C 1174,1127 1196,1133 1229,1133 1271,1133 1292,1118 1292,1087 L 1292,965 C 1292,929 1282,901 1262,881 L 442,47 C 390,-6 338,-33 285,-33 Z"/>
  </g>
  <g id="bullet-char-template(9679)" transform="scale(0.00048828125,-0.00048828125)">
   <path d="M 813,0 C 632,0 489,54 383,161 276,268 223,411 223,592 223,773 276,916 383,1023 489,1130 632,1184 813,1184 992,1184 1136,1130 1245,1023 1353,916 1407,772 1407,592 1407,412 1353,268 1245,161 1136,54 992,0 813,0 Z"/>
  </g>
  <g id="bullet-char-template(8226)" transform="scale(0.00048828125,-0.00048828125)">
   <path d="M 346,457 C 273,457 209,483 155,535 101,586 74,649 74,723 74,796 101,859 155,911 209,963 273,989 346,989 419,989 480,963 531,910 582,859 608,796 608,723 608,648 583,586 532,535 482,483 420,457 346,457 Z"/>
  </g>
  <g id="bullet-char-template(8211)" transform="scale(0.00048828125,-0.00048828125)">
   <path d="M -4,459 L 1135,459 1135,606 -4,606 -4,459 Z"/>
  </g>
 </defs>
 <defs class="TextEmbeddedBitmaps"/>
 <g class="SlideGroup">
  <g>
   <g id="id1" class="Slide" clip-path="url(#presentation_clip_path)">
    <g class="Page">
     <g class="Group">
      <g class="com.sun.star.drawing.PolyPolygonShape">
       <g id="id3">
        <rect class="BoundingBox" stroke="none" fill="none" x="10089" y="17998" width="1003" height="1809"/>
        <g>
         <defs>
          <linearGradient id="gradient1" x1="10108" y1="18902" x2="11072" y2="18902" gradientUnits="userSpaceOnUse">
           <stop offset="0.1" style="stop-color:rgb(147,212,240)"/>
           <stop offset="1" style="stop-color:rgb(233,246,252)"/>
          </linearGradient>
         </defs>
         <path style="fill:url(#gradient1)" d="M 10109,19231 L 10109,18018 11071,18573 11071,19786 10109,19231 Z"/>
        </g>
        <path fill="none" stroke="rgb(255,255,255)" stroke-width="40" stroke-linejoin="round" d="M 10109,19231 L 10109,18018 11071,18573 11071,19786 10109,19231 Z"/>
       </g>
      </g>
      <g class="com.sun.star.drawing.PolyPolygonShape">
       <g id="id4">
        <rect class="BoundingBox" stroke="none" fill="none" x="11051" y="17998" width="1004" height="1809"/>
        <g>
         <defs>
          <pattern id="pattern1" x="11071" y="18018" width="963" height="1769" patternUnits="userSpaceOnUse">
           <g transform="translate(-11071,-18018)">
            <path fill="rgb(147,212,240)" stroke="none" d="M 11070,18017 L 12034,18017 12034,19787 11070,19787 11070,18017 Z M 10883,17674 L 11835,17674 11835,19422 10883,19422 10883,17674 Z"/>
            <path fill="rgb(148,212,240)" stroke="none" d="M 10883,17674 L 11835,17674 11835,19422 10883,19422 10883,17674 Z M 10889,17684 L 11829,17684 11829,19412 10889,19412 10889,17684 Z"/>
            <path fill="rgb(149,212,240)" stroke="none" d="M 10889,17684 L 11829,17684 11829,19412 10889,19412 10889,17684 Z M 10894,17694 L 11824,17694 11824,19402 10894,19402 10894,17694 Z"/>
            <path fill="rgb(150,213,240)" stroke="none" d="M 10894,17694 L 11824,17694 11824,19402 10894,19402 10894,17694 Z M 10900,17705 L 11818,17705 11818,19391 10900,19391 10900,17705 Z"/>
            <path fill="rgb(151,213,240)" stroke="none" d="M 10900,17705 L 11818,17705 11818,19391 10900,19391 10900,17705 Z M 10906,17715 L 11812,17715 11812,19381 10906,19381 10906,17715 Z"/>
            <path fill="rgb(152,213,240)" stroke="none" d="M 10906,17715 L 11812,17715 11812,19381 10906,19381 10906,17715 Z M 10911,17725 L 11807,17725 11807,19371 10911,19371 10911,17725 Z"/>
            <path fill="rgb(153,214,240)" stroke="none" d="M 10911,17725 L 11807,17725 11807,19371 10911,19371 10911,17725 Z M 10917,17736 L 11801,17736 11801,19360 10917,19360 10917,17736 Z"/>
            <path fill="rgb(154,214,240)" stroke="none" d="M 10917,17736 L 11801,17736 11801,19360 10917,19360 10917,17736 Z M 10922,17746 L 11796,17746 11796,19350 10922,19350 10922,17746 Z"/>
            <path fill="rgb(155,215,241)" stroke="none" d="M 10922,17746 L 11796,17746 11796,19350 10922,19350 10922,17746 Z M 10928,17756 L 11790,17756 11790,19340 10928,19340 10928,17756 Z"/>
            <path fill="rgb(156,215,241)" stroke="none" d="M 10928,17756 L 11790,17756 11790,19340 10928,19340 10928,17756 Z M 10934,17766 L 11784,17766 11784,19330 10934,19330 10934,17766 Z"/>
            <path fill="rgb(157,215,241)" stroke="none" d="M 10934,17766 L 11784,17766 11784,19330 10934,19330 10934,17766 Z M 10939,17777 L 11779,17777 11779,19319 10939,19319 10939,17777 Z"/>
            <path fill="rgb(158,216,241)" stroke="none" d="M 10939,17777 L 11779,17777 11779,19319 10939,19319 10939,17777 Z M 10945,17787 L 11773,17787 11773,19309 10945,19309 10945,17787 Z"/>
            <path fill="rgb(159,216,241)" stroke="none" d="M 10945,17787 L 11773,17787 11773,19309 10945,19309 10945,17787 Z M 10950,17797 L 11768,17797 11768,19299 10950,19299 10950,17797 Z"/>
            <path fill="rgb(160,217,241)" stroke="none" d="M 10950,17797 L 11768,17797 11768,19299 10950,19299 10950,17797 Z M 10956,17808 L 11762,17808 11762,19288 10956,19288 10956,17808 Z"/>
            <path fill="rgb(161,217,241)" stroke="none" d="M 10956,17808 L 11762,17808 11762,19288 10956,19288 10956,17808 Z M 10962,17818 L 11756,17818 11756,19278 10962,19278 10962,17818 Z"/>
            <path fill="rgb(162,217,242)" stroke="none" d="M 10962,17818 L 11756,17818 11756,19278 10962,19278 10962,17818 Z M 10967,17828 L 11751,17828 11751,19268 10967,19268 10967,17828 Z"/>
            <path fill="rgb(163,218,242)" stroke="none" d="M 10967,17828 L 11751,17828 11751,19268 10967,19268 10967,17828 Z M 10973,17839 L 11745,17839 11745,19257 10973,19257 10973,17839 Z"/>
            <path fill="rgb(164,218,242)" stroke="none" d="M 10973,17839 L 11745,17839 11745,19257 10973,19257 10973,17839 Z M 10978,17849 L 11740,17849 11740,19247 10978,19247 10978,17849 Z"/>
            <path fill="rgb(165,219,242)" stroke="none" d="M 10978,17849 L 11740,17849 11740,19247 10978,19247 10978,17849 Z M 10984,17859 L 11734,17859 11734,19237 10984,19237 10984,17859 Z"/>
            <path fill="rgb(166,219,242)" stroke="none" d="M 10984,17859 L 11734,17859 11734,19237 10984,19237 10984,17859 Z M 10990,17869 L 11728,17869 11728,19227 10990,19227 10990,17869 Z"/>
            <path fill="rgb(167,219,242)" stroke="none" d="M 10990,17869 L 11728,17869 11728,19227 10990,19227 10990,17869 Z M 10995,17880 L 11723,17880 11723,19216 10995,19216 10995,17880 Z"/>
            <path fill="rgb(168,220,242)" stroke="none" d="M 10995,17880 L 11723,17880 11723,19216 10995,19216 10995,17880 Z M 11001,17890 L 11717,17890 11717,19206 11001,19206 11001,17890 Z"/>
            <path fill="rgb(169,220,243)" stroke="none" d="M 11001,17890 L 11717,17890 11717,19206 11001,19206 11001,17890 Z M 11007,17900 L 11711,17900 11711,19196 11007,19196 11007,17900 Z"/>
            <path fill="rgb(170,221,243)" stroke="none" d="M 11007,17900 L 11711,17900 11711,19196 11007,19196 11007,17900 Z M 11012,17911 L 11706,17911 11706,19185 11012,19185 11012,17911 Z"/>
            <path fill="rgb(171,221,243)" stroke="none" d="M 11012,17911 L 11706,17911 11706,19185 11012,19185 11012,17911 Z M 11018,17921 L 11700,17921 11700,19175 11018,19175 11018,17921 Z"/>
            <path fill="rgb(172,221,243)" stroke="none" d="M 11018,17921 L 11700,17921 11700,19175 11018,19175 11018,17921 Z M 11023,17931 L 11695,17931 11695,19165 11023,19165 11023,17931 Z"/>
            <path fill="rgb(173,222,243)" stroke="none" d="M 11023,17931 L 11695,17931 11695,19165 11023,19165 11023,17931 Z M 11029,17942 L 11689,17942 11689,19154 11029,19154 11029,17942 Z"/>
            <path fill="rgb(174,222,243)" stroke="none" d="M 11029,17942 L 11689,17942 11689,19154 11029,19154 11029,17942 Z M 11035,17952 L 11683,17952 11683,19144 11035,19144 11035,17952 Z"/>
            <path fill="rgb(175,223,243)" stroke="none" d="M 11035,17952 L 11683,17952 11683,19144 11035,19144 11035,17952 Z M 11040,17962 L 11678,17962 11678,19134 11040,19134 11040,17962 Z"/>
            <path fill="rgb(176,223,244)" stroke="none" d="M 11040,17962 L 11678,17962 11678,19134 11040,19134 11040,17962 Z M 11046,17972 L 11672,17972 11672,19124 11046,19124 11046,17972 Z"/>
            <path fill="rgb(177,223,244)" stroke="none" d="M 11046,17972 L 11672,17972 11672,19124 11046,19124 11046,17972 Z M 11051,17983 L 11667,17983 11667,19113 11051,19113 11051,17983 Z"/>
            <path fill="rgb(178,224,244)" stroke="none" d="M 11051,17983 L 11667,17983 11667,19113 11051,19113 11051,17983 Z M 11056,17993 L 11661,17993 11661,19103 11056,19103 11056,17993 Z"/>
            <path fill="rgb(179,224,244)" stroke="none" d="M 11056,17993 L 11661,17993 11661,19103 11056,19103 11056,17993 Z M 11062,18002 L 11655,18002 11655,19093 11062,19093 11062,18002 Z"/>
            <path fill="rgb(180,225,244)" stroke="none" d="M 11062,18002 L 11655,18002 11655,19093 11062,19093 11062,18002 Z M 11067,18013 L 11650,18013 11650,19082 11067,19082 11067,18013 Z"/>
            <path fill="rgb(181,225,244)" stroke="none" d="M 11067,18013 L 11650,18013 11650,19082 11067,19082 11067,18013 Z M 11073,18023 L 11644,18023 11644,19072 11073,19072 11073,18023 Z"/>
            <path fill="rgb(182,225,244)" stroke="none" d="M 11073,18023 L 11644,18023 11644,19072 11073,19072 11073,18023 Z M 11078,18033 L 11639,18033 11639,19062 11078,19062 11078,18033 Z"/>
            <path fill="rgb(183,226,245)" stroke="none" d="M 11078,18033 L 11639,18033 11639,19062 11078,19062 11078,18033 Z M 11084,18043 L 11633,18043 11633,19052 11084,19052 11084,18043 Z"/>
            <path fill="rgb(184,226,245)" stroke="none" d="M 11084,18043 L 11633,18043 11633,19052 11084,19052 11084,18043 Z M 11090,18054 L 11627,18054 11627,19041 11090,19041 11090,18054 Z"/>
            <path fill="rgb(185,227,245)" stroke="none" d="M 11090,18054 L 11627,18054 11627,19041 11090,19041 11090,18054 Z M 11095,18064 L 11622,18064 11622,19031 11095,19031 11095,18064 Z"/>
            <path fill="rgb(186,227,245)" stroke="none" d="M 11095,18064 L 11622,18064 11622,19031 11095,19031 11095,18064 Z M 11101,18074 L 11616,18074 11616,19021 11101,19021 11101,18074 Z"/>
            <path fill="rgb(187,227,245)" stroke="none" d="M 11101,18074 L 11616,18074 11616,19021 11101,19021 11101,18074 Z M 11107,18085 L 11610,18085 11610,19010 11107,19010 11107,18085 Z"/>
            <path fill="rgb(188,228,245)" stroke="none" d="M 11107,18085 L 11610,18085 11610,19010 11107,19010 11107,18085 Z M 11112,18095 L 11605,18095 11605,19000 11112,19000 11112,18095 Z"/>
            <path fill="rgb(189,228,245)" stroke="none" d="M 11112,18095 L 11605,18095 11605,19000 11112,19000 11112,18095 Z M 11118,18105 L 11599,18105 11599,18990 11118,18990 11118,18105 Z"/>
            <path fill="rgb(190,229,246)" stroke="none" d="M 11118,18105 L 11599,18105 11599,18990 11118,18990 11118,18105 Z M 11123,18116 L 11594,18116 11594,18979 11123,18979 11123,18116 Z"/>
            <path fill="rgb(191,229,246)" stroke="none" d="M 11123,18116 L 11594,18116 11594,18979 11123,18979 11123,18116 Z M 11129,18126 L 11588,18126 11588,18969 11129,18969 11129,18126 Z"/>
            <path fill="rgb(192,229,246)" stroke="none" d="M 11129,18126 L 11588,18126 11588,18969 11129,18969 11129,18126 Z M 11135,18136 L 11582,18136 11582,18959 11135,18959 11135,18136 Z"/>
            <path fill="rgb(193,230,246)" stroke="none" d="M 11135,18136 L 11582,18136 11582,18959 11135,18959 11135,18136 Z M 11140,18146 L 11577,18146 11577,18949 11140,18949 11140,18146 Z"/>
            <path fill="rgb(194,230,246)" stroke="none" d="M 11140,18146 L 11577,18146 11577,18949 11140,18949 11140,18146 Z M 11146,18157 L 11571,18157 11571,18938 11146,18938 11146,18157 Z"/>
            <path fill="rgb(195,230,246)" stroke="none" d="M 11146,18157 L 11571,18157 11571,18938 11146,18938 11146,18157 Z M 11151,18167 L 11566,18167 11566,18928 11151,18928 11151,18167 Z"/>
            <path fill="rgb(196,231,246)" stroke="none" d="M 11151,18167 L 11566,18167 11566,18928 11151,18928 11151,18167 Z M 11157,18177 L 11560,18177 11560,18918 11157,18918 11157,18177 Z"/>
            <path fill="rgb(197,231,246)" stroke="none" d="M 11157,18177 L 11560,18177 11560,18918 11157,18918 11157,18177 Z M 11163,18188 L 11554,18188 11554,18907 11163,18907 11163,18188 Z"/>
            <path fill="rgb(198,232,247)" stroke="none" d="M 11163,18188 L 11554,18188 11554,18907 11163,18907 11163,18188 Z M 11168,18198 L 11549,18198 11549,18897 11168,18897 11168,18198 Z"/>
            <path fill="rgb(199,232,247)" stroke="none" d="M 11168,18198 L 11549,18198 11549,18897 11168,18897 11168,18198 Z M 11174,18208 L 11543,18208 11543,18887 11174,18887 11174,18208 Z"/>
            <path fill="rgb(200,232,247)" stroke="none" d="M 11174,18208 L 11543,18208 11543,18887 11174,18887 11174,18208 Z M 11179,18219 L 11538,18219 11538,18876 11179,18876 11179,18219 Z"/>
            <path fill="rgb(201,233,247)" stroke="none" d="M 11179,18219 L 11538,18219 11538,18876 11179,18876 11179,18219 Z M 11185,18229 L 11532,18229 11532,18866 11185,18866 11185,18229 Z"/>
            <path fill="rgb(202,233,247)" stroke="none" d="M 11185,18229 L 11532,18229 11532,18866 11185,18866 11185,18229 Z M 11191,18239 L 11526,18239 11526,18856 11191,18856 11191,18239 Z"/>
            <path fill="rgb(203,234,247)" stroke="none" d="M 11191,18239 L 11526,18239 11526,18856 11191,18856 11191,18239 Z M 11196,18249 L 11521,18249 11521,18846 11196,18846 11196,18249 Z"/>
            <path fill="rgb(204,234,247)" stroke="none" d="M 11196,18249 L 11521,18249 11521,18846 11196,18846 11196,18249 Z M 11202,18260 L 11515,18260 11515,18835 11202,18835 11202,18260 Z"/>
            <path fill="rgb(205,234,248)" stroke="none" d="M 11202,18260 L 11515,18260 11515,18835 11202,18835 11202,18260 Z M 11208,18270 L 11509,18270 11509,18825 11208,18825 11208,18270 Z"/>
            <path fill="rgb(206,235,248)" stroke="none" d="M 11208,18270 L 11509,18270 11509,18825 11208,18825 11208,18270 Z M 11213,18280 L 11504,18280 11504,18815 11213,18815 11213,18280 Z"/>
            <path fill="rgb(207,235,248)" stroke="none" d="M 11213,18280 L 11504,18280 11504,18815 11213,18815 11213,18280 Z M 11219,18291 L 11498,18291 11498,18804 11219,18804 11219,18291 Z"/>
            <path fill="rgb(208,236,248)" stroke="none" d="M 11219,18291 L 11498,18291 11498,18804 11219,18804 11219,18291 Z M 11224,18301 L 11493,18301 11493,18794 11224,18794 11224,18301 Z"/>
            <path fill="rgb(209,236,248)" stroke="none" d="M 11224,18301 L 11493,18301 11493,18794 11224,18794 11224,18301 Z M 11230,18311 L 11487,18311 11487,18784 11230,18784 11230,18311 Z"/>
            <path fill="rgb(210,236,248)" stroke="none" d="M 11230,18311 L 11487,18311 11487,18784 11230,18784 11230,18311 Z M 11236,18321 L 11481,18321 11481,18774 11236,18774 11236,18321 Z"/>
            <path fill="rgb(211,237,248)" stroke="none" d="M 11236,18321 L 11481,18321 11481,18774 11236,18774 11236,18321 Z M 11241,18332 L 11476,18332 11476,18763 11241,18763 11241,18332 Z"/>
            <path fill="rgb(212,237,249)" stroke="none" d="M 11241,18332 L 11476,18332 11476,18763 11241,18763 11241,18332 Z M 11247,18342 L 11470,18342 11470,18753 11247,18753 11247,18342 Z"/>
            <path fill="rgb(213,238,249)" stroke="none" d="M 11247,18342 L 11470,18342 11470,18753 11247,18753 11247,18342 Z M 11252,18352 L 11465,18352 11465,18743 11252,18743 11252,18352 Z"/>
            <path fill="rgb(214,238,249)" stroke="none" d="M 11252,18352 L 11465,18352 11465,18743 11252,18743 11252,18352 Z M 11258,18363 L 11459,18363 11459,18732 11258,18732 11258,18363 Z"/>
            <path fill="rgb(215,238,249)" stroke="none" d="M 11258,18363 L 11459,18363 11459,18732 11258,18732 11258,18363 Z M 11264,18373 L 11453,18373 11453,18722 11264,18722 11264,18373 Z"/>
            <path fill="rgb(216,239,249)" stroke="none" d="M 11264,18373 L 11453,18373 11453,18722 11264,18722 11264,18373 Z M 11269,18383 L 11448,18383 11448,18712 11269,18712 11269,18383 Z"/>
            <path fill="rgb(217,239,249)" stroke="none" d="M 11269,18383 L 11448,18383 11448,18712 11269,18712 11269,18383 Z M 11275,18394 L 11442,18394 11442,18701 11275,18701 11275,18394 Z"/>
            <path fill="rgb(218,240,249)" stroke="none" d="M 11275,18394 L 11442,18394 11442,18701 11275,18701 11275,18394 Z M 11280,18404 L 11437,18404 11437,18691 11280,18691 11280,18404 Z"/>
            <path fill="rgb(219,240,250)" stroke="none" d="M 11280,18404 L 11437,18404 11437,18691 11280,18691 11280,18404 Z M 11286,18414 L 11431,18414 11431,18681 11286,18681 11286,18414 Z"/>
            <path fill="rgb(220,240,250)" stroke="none" d="M 11286,18414 L 11431,18414 11431,18681 11286,18681 11286,18414 Z M 11292,18424 L 11425,18424 11425,18671 11292,18671 11292,18424 Z"/>
            <path fill="rgb(221,241,250)" stroke="none" d="M 11292,18424 L 11425,18424 11425,18671 11292,18671 11292,18424 Z M 11297,18435 L 11420,18435 11420,18660 11297,18660 11297,18435 Z"/>
            <path fill="rgb(222,241,250)" stroke="none" d="M 11297,18435 L 11420,18435 11420,18660 11297,18660 11297,18435 Z M 11303,18445 L 11414,18445 11414,18650 11303,18650 11303,18445 Z"/>
            <path fill="rgb(223,242,250)" stroke="none" d="M 11303,18445 L 11414,18445 11414,18650 11303,18650 11303,18445 Z M 11309,18455 L 11408,18455 11408,18640 11309,18640 11309,18455 Z"/>
            <path fill="rgb(224,242,250)" stroke="none" d="M 11309,18455 L 11408,18455 11408,18640 11309,18640 11309,18455 Z M 11314,18466 L 11403,18466 11403,18629 11314,18629 11314,18466 Z"/>
            <path fill="rgb(225,242,250)" stroke="none" d="M 11314,18466 L 11403,18466 11403,18629 11314,18629 11314,18466 Z M 11320,18476 L 11397,18476 11397,18619 11320,18619 11320,18476 Z"/>
            <path fill="rgb(226,243,251)" stroke="none" d="M 11320,18476 L 11397,18476 11397,18619 11320,18619 11320,18476 Z M 11325,18486 L 11392,18486 11392,18609 11325,18609 11325,18486 Z"/>
            <path fill="rgb(227,243,251)" stroke="none" d="M 11325,18486 L 11392,18486 11392,18609 11325,18609 11325,18486 Z M 11331,18497 L 11386,18497 11386,18598 11331,18598 11331,18497 Z"/>
            <path fill="rgb(228,244,251)" stroke="none" d="M 11331,18497 L 11386,18497 11386,18598 11331,18598 11331,18497 Z M 11337,18507 L 11380,18507 11380,18588 11337,18588 11337,18507 Z"/>
            <path fill="rgb(229,244,251)" stroke="none" d="M 11337,18507 L 11380,18507 11380,18588 11337,18588 11337,18507 Z M 11342,18517 L 11375,18517 11375,18578 11342,18578 11342,18517 Z"/>
            <path fill="rgb(230,244,251)" stroke="none" d="M 11342,18517 L 11375,18517 11375,18578 11342,18578 11342,18517 Z M 11348,18527 L 11369,18527 11369,18568 11348,18568 11348,18527 Z"/>
            <path fill="rgb(231,245,251)" stroke="none" d="M 11348,18527 L 11369,18527 11369,18568 11348,18568 11348,18527 Z M 11353,18538 L 11364,18538 11364,18557 11353,18557 11353,18538 Z"/>
            <path fill="rgb(233,246,252)" stroke="none" d="M 11353,18538 L 11364,18538 11364,18557 11353,18557 11353,18538 Z"/>
           </g>
          </pattern>
         </defs>
         <path style="fill:url(#pattern1)" d="M 11071,19786 L 11071,18573 12033,18018 12033,19231 11071,19786 Z"/>
        </g>
        <path fill="none" stroke="rgb(255,255,255)" stroke-width="40" stroke-linejoin="round" d="M 11071,19786 L 11071,18573 12033,18018 12033,19231 11071,19786 Z"/>
       </g>
      </g>
      <g class="com.sun.star.drawing.PolyPolygonShape">
       <g id="id5">
        <rect class="BoundingBox" stroke="none" fill="none" x="10089" y="17443" width="1965" height="1154"/>
        <g>
         <defs>
          <linearGradient id="gradient2" x1="11070" y1="17463" x2="11070" y2="18575" gradientUnits="userSpaceOnUse">
           <stop offset="0.1" style="stop-color:rgb(147,212,240)"/>
           <stop offset="1" style="stop-color:rgb(233,246,252)"/>
          </linearGradient>
         </defs>
         <path style="fill:url(#gradient2)" d="M 11071,18575 L 10109,18018 11071,17463 12032,18018 11071,18575 Z"/>
        </g>
        <path fill="none" stroke="rgb(255,255,255)" stroke-width="40" stroke-linejoin="round" d="M 11071,18575 L 10109,18018 11071,17463 12032,18018 11071,18575 Z"/>
       </g>
      </g>
      <g class="com.sun.star.drawing.PolyPolygonShape">
       <g id="id6">
        <rect class="BoundingBox" stroke="none" fill="none" x="10089" y="17443" width="1965" height="2367"/>
        <path fill="none" stroke="rgb(0,0,0)" stroke-width="40" stroke-linejoin="round" d="M 10109,19231 L 10109,18018 11071,17463 12032,18018 12032,19231 11071,19788 10109,19231 Z"/>
       </g>
      </g>
      <g class="com.sun.star.drawing.PolyLineShape">
       <g id="id7">
        <rect class="BoundingBox" stroke="none" fill="none" x="11137" y="18201" width="827" height="546"/>
        <path fill="none" stroke="rgb(127,127,127)" stroke-width="40" stroke-linejoin="round" d="M 11157,18676 L 11332,18575 11333,18726 11507,18625 11507,18474 11594,18424 11594,18575 11682,18525 11682,18372 11768,18322 11770,18474 11856,18424 11856,18271 11943,18221"/>
       </g>
      </g>
      <g class="com.sun.star.drawing.PolyLineShape">
       <g id="id8">
        <rect class="BoundingBox" stroke="none" fill="none" x="11137" y="18555" width="827" height="496"/>
        <path fill="none" stroke="rgb(127,127,127)" stroke-width="40" stroke-linejoin="round" d="M 11157,18929 L 11245,18879 11245,19030 11419,18929 11419,18778 11507,18726 11507,18879 11682,18778 11682,18625 11768,18575 11770,18726 11943,18625"/>
       </g>
      </g>
      <g class="com.sun.star.drawing.PolyLineShape">
       <g id="id9">
        <rect class="BoundingBox" stroke="none" fill="none" x="11139" y="18757" width="827" height="598"/>
        <path fill="none" stroke="rgb(127,127,127)" stroke-width="40" stroke-linejoin="round" d="M 11159,19334 L 11334,19232 11334,19081 11509,18980 11509,19131 11770,18980 11770,18828 11858,18777 11858,18928 11945,18878"/>
       </g>
      </g>
      <g class="com.sun.star.drawing.PolyLineShape">
       <g id="id10">
        <rect class="BoundingBox" stroke="none" fill="none" x="11139" y="19009" width="827" height="598"/>
        <path fill="none" stroke="rgb(127,127,127)" stroke-width="40" stroke-linejoin="round" d="M 11159,19586 L 11247,19534 11246,19383 11420,19282 11421,19433 11596,19333 11596,19180 11684,19130 11684,19282 11770,19232 11770,19080 11858,19029 11858,19180 11945,19130"/>
       </g>
      </g>
      <g class="com.sun.star.drawing.PolyLineShape">
       <g id="id11">
        <rect class="BoundingBox" stroke="none" fill="none" x="10177" y="18555" width="828" height="1052"/>
        <path fill="none" stroke="rgb(190,30,45)" stroke-width="40" stroke-linejoin="round" d="M 10197,19080 L 10285,19130 10372,19030 10459,18625 10634,18575 10722,18778 10810,19080 10810,19384 10896,19536 10984,19586"/>
       </g>
      </g>
      <g class="com.sun.star.drawing.PolyLineShape">
       <g id="id12">
        <rect class="BoundingBox" stroke="none" fill="none" x="10177" y="18859" width="828" height="599"/>
        <path fill="none" stroke="rgb(0,115,188)" stroke-width="40" stroke-linejoin="round" d="M 10197,18980 L 10285,19030 10372,18929 10546,18879 10634,18929 10722,19082 10810,19233 10896,19384 10984,19436"/>
       </g>
      </g>
      <g class="com.sun.star.drawing.LineShape">
       <g id="id13">
        <rect class="BoundingBox" stroke="none" fill="none" x="10177" y="18404" width="828" height="496"/>
        <path fill="none" stroke="rgb(127,127,127)" stroke-width="40" stroke-linejoin="round" d="M 10197,18424 L 10984,18879"/>
       </g>
      </g>
      <g class="com.sun.star.drawing.PolyPolygonShape">
       <g id="id14">
        <rect class="BoundingBox" stroke="none" fill="none" x="10177" y="18151" width="828" height="1508"/>
        <path fill="none" stroke="rgb(102,102,102)" stroke-width="40" stroke-linejoin="round" d="M 10197,19182 L 10197,18171 10984,18626 10984,19637 10197,19182 Z"/>
       </g>
      </g>
     </g>
    </g>
   </g>
  </g>
 </g>
</svg>