<?xml version="1.0" encoding="UTF-8"?>
<!DOCTYPE svg PUBLIC "-//W3C//DTD SVG 1.1//EN" "http://www.w3.org/Graphics/SVG/1.1/DTD/svg11.dtd">
<svg version="1.2" width="39.84mm" height="48.7mm" viewBox="5031 4771 3984 4870" preserveAspectRatio="xMidYMid" fill-rule="evenodd" stroke-width="28.222" stroke-linejoin="round" xmlns="http://www.w3.org/2000/svg" xmlns:ooo="http://xml.openoffice.org/svg/export" xmlns:xlink="http://www.w3.org/1999/xlink" xmlns:presentation="http://sun.com/xmlns/staroffice/presentation" xmlns:smil="http://www.w3.org/2001/SMIL20/" xmlns:anim="urn:oasis:names:tc:opendocument:xmlns:animation:1.0" xml:space="preserve">
 <defs class="ClipPathGroup">
  <clipPath id="presentation_clip_path" clipPathUnits="userSpaceOnUse">
   <rect x="5031" y="4771" width="3984" height="4870"/>
  </clipPath>
 </defs>
 <defs class="TextShapeIndex">
  <g ooo:slide="id1" ooo:id-list="id3 id4 id5 id6 id7 id8 id9 id10 id11 id12 id13 id14"/>
 </defs>
 <defs class="EmbeddedBulletChars">
  <g id="bullet-char-template(57356)" transform="scale(0.00048828125,-0.00048828125)">
   <path d="M 580,1141 L 1163,571 580,0 -4,571 580,1141 Z"/>
  </g>
  <g id="bullet-char-template(57354)" transform="scale(0.00048828125,-0.00048828125)">
   <path d="M 8,1128 L 1137,1128 1137,0 8,0 8,1128 Z"/>
  </g>
  <g id="bullet-char-template(10146)" transform="scale(0.00048828125,-0.00048828125)">
   <path d="M 174,0 L 602,739 174,1481 1456,739 174,0 Z M 1358,739 L 309,1346 659,739 1358,739 Z"/>
  </g>
  <g id="bullet-char-template(10132)" transform="scale(0.00048828125,-0.00048828125)">
   <path d="M 2015,739 L 1276,0 717,0 1260,543 174,543 174,936 1260,936 717,1481 1274,1481 2015,739 Z"/>
  </g>
  <g id="bullet-char-template(10007)" transform="scale(0.00048828125,-0.00048828125)">
   <path d="M 0,-2 C -7,14 -16,27 -25,37 L 356,567 C 262,823 215,952 215,954 215,979 228,992 255,992 264,992 276,990 289,987 310,991 331,999 354,1012 L 381,999 492,748 772,1049 836,1024 860,1049 C 881,1039 901,1025 922,1006 886,937 835,863 770,784 769,783 710,716 594,584 L 774,223 C 774,196 753,168 711,139 L 727,119 C 717,90 699,76 672,76 641,76 570,178 457,381 L 164,-76 C 142,-110 111,-127 72,-127 30,-127 9,-110 8,-76 1,-67 -2,-52 -2,-32 -2,-23 -1,-13 0,-2 Z"/>
  </g>
  <g id="bullet-char-template(10004)" transform="scale(0.00048828125,-0.00048828125)">
   <path d="M 285,-33 C 182,-33 111,30 74,156 52,228 41,333 41,471 41,549 55,616 82,672 116,743 169,778 240,778 293,778 328,747 346,684 L 369,508 C 377,444 397,411 428,410 L 1163,1116 C 1174,1127 1196,1133 1229,1133 1271,1133 1292,1118 1292,1087 L 1292,965 C 1292,929 1282,901 1262,881 L 442,47 C 390,-6 338,-33 285,-33 Z"/>
  </g>
  <g id="bullet-char-template(9679)" transform="scale(0.00048828125,-0.00048828125)">
   <path d="M 813,0 C 632,0 489,54 383,161 276,268 223,411 223,592 223,773 276,916 383,1023 489,1130 632,1184 813,1184 992,1184 1136,1130 1245,1023 1353,916 1407,772 1407,592 1407,412 1353,268 1245,161 1136,54 992,0 813,0 Z"/>
  </g>
  <g id="bullet-char-template(8226)" transform="scale(0.00048828125,-0.00048828125)">
   <path d="M 346,457 C 273,457 209,483 155,535 101,586 74,649 74,723 74,796 101,859 155,911 209,963 273,989 346,989 419,989 480,963 531,910 582,859 608,796 608,723 608,648 583,586 532,535 482,483 420,457 346,457 Z"/>
  </g>
  <g id="bullet-char-template(8211)" transform="scale(0.00048828125,-0.00048828125)">
   <path d="M -4,459 L 1135,459 1135,606 -4,606 -4,459 Z"/>
  </g>
 </defs>
 <defs class="TextEmbeddedBitmaps"/>
 <g class="SlideGroup">
  <g>
   <g id="id1" class="Slide" clip-path="url(#presentation_clip_path)">
    <g class="Page">
     <g class="Group">
      <g class="com.sun.star.drawing.ClosedBezierShape">
       <g id="id3">
        <rect class="BoundingBox" stroke="none" fill="none" x="6505" y="8150" width="2511" height="1473"/>
        <path fill="rgb(221,221,221)" stroke="none" d="M 6506,9621 C 7216,9621 8329,9157 8809,8851 9289,8545 8809,8151 8567,8151 L 6506,9621 Z"/>
        <path fill="none" stroke="rgb(221,221,221)" d="M 6506,9621 C 7216,9621 8329,9157 8809,8851 9289,8545 8809,8151 8567,8151 L 6506,9621 Z"/>
       </g>
      </g>
      <g class="Group">
       <g class="com.sun.star.drawing.PolyPolygonShape">
        <g id="id4">
         <rect class="BoundingBox" stroke="none" fill="none" x="5031" y="5961" width="1496" height="3681"/>
         <g>
          <defs>
           <linearGradient id="gradient1" x1="5050" y1="7801" x2="6506" y2="7801" gradientUnits="userSpaceOnUse">
            <stop offset="0.1" style="stop-color:rgb(179,179,179)"/>
            <stop offset="1" style="stop-color:rgb(229,229,229)"/>
           </linearGradient>
          </defs>
          <path style="fill:url(#gradient1)" d="M 5051,8781 L 5051,5981 6506,6821 6506,9621 5051,8781 Z"/>
         </g>
         <path fill="none" stroke="rgb(255,255,255)" stroke-width="40" stroke-linejoin="round" d="M 5051,8781 L 5051,5981 6506,6821 6506,9621 5051,8781 Z"/>
        </g>
       </g>
       <g class="com.sun.star.drawing.PolyPolygonShape">
        <g id="id5">
         <rect class="BoundingBox" stroke="none" fill="none" x="6486" y="5610" width="2102" height="4032"/>
         <g>
          <defs>
           <pattern id="pattern1" x="6506" y="5631" width="2062" height="3991" patternUnits="userSpaceOnUse">
            <g transform="translate(-6506,-5631)">
             <path fill="rgb(179,179,179)" stroke="none" d="M 6505,5630 L 8568,5630 8568,9622 6505,9622 6505,5630 Z M 6113,4871 L 8134,4871 8134,8783 6113,8783 6113,4871 Z"/>
             <path fill="rgb(180,180,180)" stroke="none" d="M 6113,4871 L 8134,4871 8134,8783 6113,8783 6113,4871 Z M 6134,4911 L 8113,4911 8113,8743 6134,8743 6134,4911 Z"/>
             <path fill="rgb(181,181,181)" stroke="none" d="M 6134,4911 L 8113,4911 8113,8743 6134,8743 6134,4911 Z M 6154,4951 L 8093,4951 8093,8703 6154,8703 6154,4951 Z"/>
             <path fill="rgb(182,182,182)" stroke="none" d="M 6154,4951 L 8093,4951 8093,8703 6154,8703 6154,4951 Z M 6175,4991 L 8072,4991 8072,8663 6175,8663 6175,4991 Z"/>
             <path fill="rgb(183,183,183)" stroke="none" d="M 6175,4991 L 8072,4991 8072,8663 6175,8663 6175,4991 Z M 6196,5031 L 8051,5031 8051,8623 6196,8623 6196,5031 Z"/>
             <path fill="rgb(184,184,184)" stroke="none" d="M 6196,5031 L 8051,5031 8051,8623 6196,8623 6196,5031 Z M 6216,5071 L 8031,5071 8031,8583 6216,8583 6216,5071 Z"/>
             <path fill="rgb(185,185,185)" stroke="none" d="M 6216,5071 L 8031,5071 8031,8583 6216,8583 6216,5071 Z M 6237,5111 L 8010,5111 8010,8543 6237,8543 6237,5111 Z"/>
             <path fill="rgb(186,186,186)" stroke="none" d="M 6237,5111 L 8010,5111 8010,8543 6237,8543 6237,5111 Z M 6258,5151 L 7989,5151 7989,8503 6258,8503 6258,5151 Z"/>
             <path fill="rgb(187,187,187)" stroke="none" d="M 6258,5151 L 7989,5151 7989,8503 6258,8503 6258,5151 Z M 6278,5191 L 7969,5191 7969,8463 6278,8463 6278,5191 Z"/>
             <path fill="rgb(188,188,188)" stroke="none" d="M 6278,5191 L 7969,5191 7969,8463 6278,8463 6278,5191 Z M 6299,5231 L 7948,5231 7948,8423 6299,8423 6299,5231 Z"/>
             <path fill="rgb(189,189,189)" stroke="none" d="M 6299,5231 L 7948,5231 7948,8423 6299,8423 6299,5231 Z M 6320,5271 L 7927,5271 7927,8383 6320,8383 6320,5271 Z"/>
             <path fill="rgb(190,190,190)" stroke="none" d="M 6320,5271 L 7927,5271 7927,8383 6320,8383 6320,5271 Z M 6340,5311 L 7907,5311 7907,8343 6340,8343 6340,5311 Z"/>
             <path fill="rgb(191,191,191)" stroke="none" d="M 6340,5311 L 7907,5311 7907,8343 6340,8343 6340,5311 Z M 6361,5351 L 7886,5351 7886,8303 6361,8303 6361,5351 Z"/>
             <path fill="rgb(192,192,192)" stroke="none" d="M 6361,5351 L 7886,5351 7886,8303 6361,8303 6361,5351 Z M 6381,5391 L 7866,5391 7866,8263 6381,8263 6381,5391 Z"/>
             <path fill="rgb(193,193,193)" stroke="none" d="M 6381,5391 L 7866,5391 7866,8263 6381,8263 6381,5391 Z M 6402,5430 L 7845,5430 7845,8224 6402,8224 6402,5430 Z"/>
             <path fill="rgb(194,194,194)" stroke="none" d="M 6402,5430 L 7845,5430 7845,8224 6402,8224 6402,5430 Z M 6423,5470 L 7824,5470 7824,8184 6423,8184 6423,5470 Z"/>
             <path fill="rgb(195,195,195)" stroke="none" d="M 6423,5470 L 7824,5470 7824,8184 6423,8184 6423,5470 Z M 6443,5510 L 7804,5510 7804,8144 6443,8144 6443,5510 Z"/>
             <path fill="rgb(196,196,196)" stroke="none" d="M 6443,5510 L 7804,5510 7804,8144 6443,8144 6443,5510 Z M 6464,5550 L 7783,5550 7783,8104 6464,8104 6464,5550 Z"/>
             <path fill="rgb(197,197,197)" stroke="none" d="M 6464,5550 L 7783,5550 7783,8104 6464,8104 6464,5550 Z M 6485,5590 L 7762,5590 7762,8064 6485,8064 6485,5590 Z"/>
             <path fill="rgb(198,198,198)" stroke="none" d="M 6485,5590 L 7762,5590 7762,8064 6485,8064 6485,5590 Z M 6504,5629 L 7742,5629 7742,8024 6504,8024 6504,5629 Z"/>
             <path fill="rgb(199,199,199)" stroke="none" d="M 6504,5629 L 7742,5629 7742,8024 6504,8024 6504,5629 Z M 6525,5669 L 7721,5669 7721,7984 6525,7984 6525,5669 Z"/>
             <path fill="rgb(200,200,200)" stroke="none" d="M 6525,5669 L 7721,5669 7721,7984 6525,7984 6525,5669 Z M 6546,5709 L 7700,5709 7700,7944 6546,7944 6546,5709 Z"/>
             <path fill="rgb(201,201,201)" stroke="none" d="M 6546,5709 L 7700,5709 7700,7944 6546,7944 6546,5709 Z M 6566,5749 L 7680,5749 7680,7904 6566,7904 6566,5749 Z"/>
             <path fill="rgb(202,202,202)" stroke="none" d="M 6566,5749 L 7680,5749 7680,7904 6566,7904 6566,5749 Z M 6587,5789 L 7659,5789 7659,7864 6587,7864 6587,5789 Z"/>
             <path fill="rgb(203,203,203)" stroke="none" d="M 6587,5789 L 7659,5789 7659,7864 6587,7864 6587,5789 Z M 6607,5829 L 7638,5829 7638,7824 6607,7824 6607,5829 Z"/>
             <path fill="rgb(204,204,204)" stroke="none" d="M 6607,5829 L 7638,5829 7638,7824 6607,7824 6607,5829 Z M 6628,5869 L 7618,5869 7618,7784 6628,7784 6628,5869 Z"/>
             <path fill="rgb(205,205,205)" stroke="none" d="M 6628,5869 L 7618,5869 7618,7784 6628,7784 6628,5869 Z M 6649,5909 L 7597,5909 7597,7744 6649,7744 6649,5909 Z"/>
             <path fill="rgb(206,206,206)" stroke="none" d="M 6649,5909 L 7597,5909 7597,7744 6649,7744 6649,5909 Z M 6669,5949 L 7577,5949 7577,7704 6669,7704 6669,5949 Z"/>
             <path fill="rgb(207,207,207)" stroke="none" d="M 6669,5949 L 7577,5949 7577,7704 6669,7704 6669,5949 Z M 6690,5988 L 7556,5988 7556,7665 6690,7665 6690,5988 Z"/>
             <path fill="rgb(208,208,208)" stroke="none" d="M 6690,5988 L 7556,5988 7556,7665 6690,7665 6690,5988 Z M 6711,6028 L 7535,6028 7535,7625 6711,7625 6711,6028 Z"/>
             <path fill="rgb(209,209,209)" stroke="none" d="M 6711,6028 L 7535,6028 7535,7625 6711,7625 6711,6028 Z M 6731,6068 L 7515,6068 7515,7585 6731,7585 6731,6068 Z"/>
             <path fill="rgb(210,210,210)" stroke="none" d="M 6731,6068 L 7515,6068 7515,7585 6731,7585 6731,6068 Z M 6752,6108 L 7494,6108 7494,7545 6752,7545 6752,6108 Z"/>
             <path fill="rgb(211,211,211)" stroke="none" d="M 6752,6108 L 7494,6108 7494,7545 6752,7545 6752,6108 Z M 6773,6148 L 7473,6148 7473,7505 6773,7505 6773,6148 Z"/>
             <path fill="rgb(212,212,212)" stroke="none" d="M 6773,6148 L 7473,6148 7473,7505 6773,7505 6773,6148 Z M 6793,6188 L 7453,6188 7453,7465 6793,7465 6793,6188 Z"/>
             <path fill="rgb(213,213,213)" stroke="none" d="M 6793,6188 L 7453,6188 7453,7465 6793,7465 6793,6188 Z M 6814,6228 L 7432,6228 7432,7425 6814,7425 6814,6228 Z"/>
             <path fill="rgb(214,214,214)" stroke="none" d="M 6814,6228 L 7432,6228 7432,7425 6814,7425 6814,6228 Z M 6835,6268 L 7411,6268 7411,7385 6835,7385 6835,6268 Z"/>
             <path fill="rgb(215,215,215)" stroke="none" d="M 6835,6268 L 7411,6268 7411,7385 6835,7385 6835,6268 Z M 6855,6308 L 7391,6308 7391,7345 6855,7345 6855,6308 Z"/>
             <path fill="rgb(216,216,216)" stroke="none" d="M 6855,6308 L 7391,6308 7391,7345 6855,7345 6855,6308 Z M 6876,6348 L 7370,6348 7370,7305 6876,7305 6876,6348 Z"/>
             <path fill="rgb(217,217,217)" stroke="none" d="M 6876,6348 L 7370,6348 7370,7305 6876,7305 6876,6348 Z M 6896,6388 L 7350,6388 7350,7265 6896,7265 6896,6388 Z"/>
             <path fill="rgb(218,218,218)" stroke="none" d="M 6896,6388 L 7350,6388 7350,7265 6896,7265 6896,6388 Z M 6917,6428 L 7329,6428 7329,7225 6917,7225 6917,6428 Z"/>
             <path fill="rgb(219,219,219)" stroke="none" d="M 6917,6428 L 7329,6428 7329,7225 6917,7225 6917,6428 Z M 6938,6468 L 7308,6468 7308,7185 6938,7185 6938,6468 Z"/>
             <path fill="rgb(220,220,220)" stroke="none" d="M 6938,6468 L 7308,6468 7308,7185 6938,7185 6938,6468 Z M 6958,6508 L 7288,6508 7288,7145 6958,7145 6958,6508 Z"/>
             <path fill="rgb(221,221,221)" stroke="none" d="M 6958,6508 L 7288,6508 7288,7145 6958,7145 6958,6508 Z M 6979,6547 L 7267,6547 7267,7106 6979,7106 6979,6547 Z"/>
             <path fill="rgb(222,222,222)" stroke="none" d="M 6979,6547 L 7267,6547 7267,7106 6979,7106 6979,6547 Z M 7000,6587 L 7246,6587 7246,7066 7000,7066 7000,6587 Z"/>
             <path fill="rgb(223,223,223)" stroke="none" d="M 7000,6587 L 7246,6587 7246,7066 7000,7066 7000,6587 Z M 7020,6627 L 7226,6627 7226,7026 7020,7026 7020,6627 Z"/>
             <path fill="rgb(224,224,224)" stroke="none" d="M 7020,6627 L 7226,6627 7226,7026 7020,7026 7020,6627 Z M 7041,6667 L 7205,6667 7205,6986 7041,6986 7041,6667 Z"/>
             <path fill="rgb(225,225,225)" stroke="none" d="M 7041,6667 L 7205,6667 7205,6986 7041,6986 7041,6667 Z M 7062,6707 L 7184,6707 7184,6946 7062,6946 7062,6707 Z"/>
             <path fill="rgb(226,226,226)" stroke="none" d="M 7062,6707 L 7184,6707 7184,6946 7062,6946 7062,6707 Z M 7082,6747 L 7164,6747 7164,6906 7082,6906 7082,6747 Z"/>
             <path fill="rgb(227,227,227)" stroke="none" d="M 7082,6747 L 7164,6747 7164,6906 7082,6906 7082,6747 Z M 7103,6787 L 7143,6787 7143,6866 7103,6866 7103,6787 Z"/>
             <path fill="rgb(229,229,229)" stroke="none" d="M 7103,6787 L 7143,6787 7143,6866 7103,6866 7103,6787 Z"/>
            </g>
           </pattern>
          </defs>
          <path style="fill:url(#pattern1)" d="M 6506,9621 L 6506,6821 8567,5631 8567,8431 6506,9621 Z"/>
         </g>
         <path fill="none" stroke="rgb(255,255,255)" stroke-width="40" stroke-linejoin="round" d="M 6506,9621 L 6506,6821 8567,5631 8567,8431 6506,9621 Z"/>
        </g>
       </g>
       <g class="com.sun.star.drawing.PolyPolygonShape">
        <g id="id6">
         <rect class="BoundingBox" stroke="none" fill="none" x="5031" y="4771" width="3557" height="2071"/>
         <g>
          <defs>
           <linearGradient id="gradient2" x1="6809" y1="4791" x2="6809" y2="6821" gradientUnits="userSpaceOnUse">
            <stop offset="0.1" style="stop-color:rgb(179,179,179)"/>
            <stop offset="1" style="stop-color:rgb(229,229,229)"/>
           </linearGradient>
          </defs>
          <path style="fill:url(#gradient2)" d="M 6506,6821 L 5051,5981 7112,4791 8567,5631 6506,6821 Z"/>
         </g>
         <path fill="none" stroke="rgb(255,255,255)" stroke-width="40" stroke-linejoin="round" d="M 6506,6821 L 5051,5981 7112,4791 8567,5631 6506,6821 Z"/>
        </g>
       </g>
       <g class="com.sun.star.drawing.PolyPolygonShape">
        <g id="id7">
         <rect class="BoundingBox" stroke="none" fill="none" x="5031" y="4771" width="3557" height="4871"/>
         <path fill="none" stroke="rgb(0,0,0)" stroke-width="40" stroke-linejoin="round" d="M 5051,8781 L 5051,5981 7112,4791 8567,5631 8567,8431 6506,9621 5051,8781 Z"/>
        </g>
       </g>
       <g class="com.sun.star.drawing.LineShape">
        <g id="id8">
         <rect class="BoundingBox" stroke="none" fill="none" x="5273" y="8341" width="1011" height="601"/>
         <path fill="none" stroke="rgb(128,128,128)" stroke-width="40" stroke-linejoin="round" d="M 6263,8921 L 5293,8361"/>
        </g>
       </g>
       <g class="com.sun.star.drawing.LineShape">
        <g id="id9">
         <rect class="BoundingBox" stroke="none" fill="none" x="5273" y="8621" width="1011" height="601"/>
         <path fill="none" stroke="rgb(128,128,128)" stroke-width="40" stroke-linejoin="round" d="M 6263,9201 L 5293,8641"/>
        </g>
       </g>
       <g class="com.sun.star.drawing.LineShape">
        <g id="id10">
         <rect class="BoundingBox" stroke="none" fill="none" x="5273" y="8481" width="1011" height="601"/>
         <path fill="none" stroke="rgb(128,128,128)" stroke-width="40" stroke-linejoin="round" d="M 6263,9061 L 5293,8501"/>
        </g>
       </g>
       <g class="com.sun.star.drawing.PolyLineShape">
        <g id="id11">
         <rect class="BoundingBox" stroke="none" fill="none" x="5152" y="6381" width="1253" height="881"/>
         <path fill="none" stroke="rgb(255,255,255)" stroke-width="40" stroke-linejoin="round" d="M 6384,7241 L 5172,6541 5172,6401"/>
        </g>
       </g>
       <g class="com.sun.star.drawing.PolyLineShape">
        <g id="id12">
         <rect class="BoundingBox" stroke="none" fill="none" x="5173" y="6378" width="1232" height="885"/>
         <path fill="none" stroke="rgb(128,128,128)" stroke-width="40" stroke-linejoin="round" d="M 6384,7241 L 6384,7101 5193,6398"/>
        </g>
       </g>
       <g class="com.sun.star.drawing.PolyPolygonShape">
        <g id="id13">
         <rect class="BoundingBox" stroke="none" fill="none" x="5601" y="7778" width="183" height="288"/>
         <path fill="rgb(57,181,74)" stroke="none" d="M 5621,7963 L 5621,7798 5763,7880 5763,8045 5621,7963 Z"/>
         <path fill="none" stroke="rgb(128,128,128)" stroke-width="40" stroke-linejoin="round" d="M 5621,7963 L 5621,7798 5763,7880 5763,8045 5621,7963 Z"/>
        </g>
       </g>
       <g class="com.sun.star.drawing.LineShape">
        <g id="id14">
         <rect class="BoundingBox" stroke="none" fill="none" x="5273" y="8201" width="1011" height="601"/>
         <path fill="none" stroke="rgb(128,128,128)" stroke-width="40" stroke-linejoin="round" d="M 6263,8781 L 5293,8221"/>
        </g>
       </g>
      </g>
     </g>
    </g>
   </g>
  </g>
 </g>
</svg>