<?xml version="1.0" encoding="UTF-8"?>
<!DOCTYPE svg PUBLIC "-//W3C//DTD SVG 1.1//EN" "http://www.w3.org/Graphics/SVG/1.1/DTD/svg11.dtd">
<svg version="1.2" width="69.31mm" height="48.67mm" viewBox="10520 10482 6931 4867" preserveAspectRatio="xMidYMid" fill-rule="evenodd" stroke-width="28.222" stroke-linejoin="round" xmlns="http://www.w3.org/2000/svg" xmlns:ooo="http://xml.openoffice.org/svg/export" xmlns:xlink="http://www.w3.org/1999/xlink" xmlns:presentation="http://sun.com/xmlns/staroffice/presentation" xmlns:smil="http://www.w3.org/2001/SMIL20/" xmlns:anim="urn:oasis:names:tc:opendocument:xmlns:animation:1.0" xml:space="preserve">
 <defs class="ClipPathGroup">
  <clipPath id="presentation_clip_path" clipPathUnits="userSpaceOnUse">
   <rect x="10520" y="10482" width="6931" height="4867"/>
  </clipPath>
 </defs>
 <defs class="TextShapeIndex">
  <g ooo:slide="id1" ooo:id-list="id3 id4 id5 id6 id7 id8 id9 id10 id11 id12 id13 id14 id15 id16 id17 id18 id19 id20 id21 id22 id23 id24 id25 id26 id27 id28 id29 id30 id31 id32 id33 id34 id35"/>
 </defs>
 <defs class="EmbeddedBulletChars">
  <g id="bullet-char-template(57356)" transform="scale(0.00048828125,-0.00048828125)">
   <path d="M 580,1141 L 1163,571 580,0 -4,571 580,1141 Z"/>
  </g>
  <g id="bullet-char-template(57354)" transform="scale(0.00048828125,-0.00048828125)">
   <path d="M 8,1128 L 1137,1128 1137,0 8,0 8,1128 Z"/>
  </g>
  <g id="bullet-char-template(10146)" transform="scale(0.00048828125,-0.00048828125)">
   <path d="M 174,0 L 602,739 174,1481 1456,739 174,0 Z M 1358,739 L 309,1346 659,739 1358,739 Z"/>
  </g>
  <g id="bullet-char-template(10132)" transform="scale(0.00048828125,-0.00048828125)">
   <path d="M 2015,739 L 1276,0 717,0 1260,543 174,543 174,936 1260,936 717,1481 1274,1481 2015,739 Z"/>
  </g>
  <g id="bullet-char-template(10007)" transform="scale(0.00048828125,-0.00048828125)">
   <path d="M 0,-2 C -7,14 -16,27 -25,37 L 356,567 C 262,823 215,952 215,954 215,979 228,992 255,992 264,992 276,990 289,987 310,991 331,999 354,1012 L 381,999 492,748 772,1049 836,1024 860,1049 C 881,1039 901,1025 922,1006 886,937 835,863 770,784 769,783 710,716 594,584 L 774,223 C 774,196 753,168 711,139 L 727,119 C 717,90 699,76 672,76 641,76 570,178 457,381 L 164,-76 C 142,-110 111,-127 72,-127 30,-127 9,-110 8,-76 1,-67 -2,-52 -2,-32 -2,-23 -1,-13 0,-2 Z"/>
  </g>
  <g id="bullet-char-template(10004)" transform="scale(0.00048828125,-0.00048828125)">
   <path d="M 285,-33 C 182,-33 111,30 74,156 52,228 41,333 41,471 41,549 55,616 82,672 116,743 169,778 240,778 293,778 328,747 346,684 L 369,508 C 377,444 397,411 428,410 L 1163,1116 C 1174,1127 1196,1133 1229,1133 1271,1133 1292,1118 1292,1087 L 1292,965 C 1292,929 1282,901 1262,881 L 442,47 C 390,-6 338,-33 285,-33 Z"/>
  </g>
  <g id="bullet-char-template(9679)" transform="scale(0.00048828125,-0.00048828125)">
   <path d="M 813,0 C 632,0 489,54 383,161 276,268 223,411 223,592 223,773 276,916 383,1023 489,1130 632,1184 813,1184 992,1184 1136,1130 1245,1023 1353,916 1407,772 1407,592 1407,412 1353,268 1245,161 1136,54 992,0 813,0 Z"/>
  </g>
  <g id="bullet-char-template(8226)" transform="scale(0.00048828125,-0.00048828125)">
   <path d="M 346,457 C 273,457 209,483 155,535 101,586 74,649 74,723 74,796 101,859 155,911 209,963 273,989 346,989 419,989 480,963 531,910 582,859 608,796 608,723 608,648 583,586 532,535 482,483 420,457 346,457 Z"/>
  </g>
  <g id="bullet-char-template(8211)" transform="scale(0.00048828125,-0.00048828125)">
   <path d="M -4,459 L 1135,459 1135,606 -4,606 -4,459 Z"/>
  </g>
 </defs>
 <defs class="TextEmbeddedBitmaps"/>
 <g class="SlideGroup">
  <g>
   <g id="id1" class="Slide" clip-path="url(#presentation_clip_path)">
    <g class="Page">
     <g class="Group">
      <g class="Group">
       <g class="com.sun.star.drawing.ClosedBezierShape">
        <g id="id3">
         <rect class="BoundingBox" stroke="none" fill="none" x="14280" y="13275" width="3173" height="2056"/>
         <path fill="rgb(221,221,221)" stroke="none" d="M 14284,15329 C 14547,15329 17451,14053 17451,13664 17451,13276 17043,13276 16779,13276 16779,13442 14188,14108 14284,15329 Z"/>
         <path fill="none" stroke="rgb(221,221,221)" d="M 14284,15329 C 14547,15329 17451,14053 17451,13664 17451,13276 17043,13276 16779,13276 16779,13442 14188,14108 14284,15329 Z"/>
        </g>
       </g>
       <g class="Group">
        <g class="com.sun.star.drawing.PolyPolygonShape">
         <g id="id4">
          <rect class="BoundingBox" stroke="none" fill="none" x="10712" y="12146" width="3401" height="3092"/>
          <g>
           <defs>
            <linearGradient id="gradient1" x1="10732" y1="13691" x2="14091" y2="13691" gradientUnits="userSpaceOnUse">
             <stop offset="0.1" style="stop-color:rgb(51,51,51)"/>
             <stop offset="1" style="stop-color:rgb(153,153,153)"/>
            </linearGradient>
           </defs>
           <path style="fill:url(#gradient1)" d="M 10732,13276 L 10732,12166 14091,14108 14091,15217 10732,13276 Z"/>
          </g>
          <path fill="none" stroke="rgb(178,178,178)" stroke-width="40" stroke-linejoin="round" d="M 10732,13276 L 10732,12166 14091,14108 14091,15217 10732,13276 Z"/>
         </g>
        </g>
        <g class="com.sun.star.drawing.PolyPolygonShape">
         <g id="id5">
          <rect class="BoundingBox" stroke="none" fill="none" x="14071" y="12423" width="2920" height="2816"/>
          <g>
           <defs>
            <pattern id="pattern1" x="14091" y="12444" width="2880" height="2775" patternUnits="userSpaceOnUse">
             <g transform="translate(-14091,-12444)">
              <path fill="rgb(51,51,51)" stroke="none" d="M 14090,12443 L 16971,12443 16971,15219 14090,15219 14090,12443 Z M 13528,11902 L 16379,11902 16379,14650 13528,14650 13528,11902 Z"/>
              <path fill="rgb(52,52,52)" stroke="none" d="M 13528,11902 L 16379,11902 16379,14650 13528,14650 13528,11902 Z M 13542,11916 L 16365,11916 16365,14636 13542,14636 13542,11916 Z"/>
              <path fill="rgb(53,53,53)" stroke="none" d="M 13542,11916 L 16365,11916 16365,14636 13542,14636 13542,11916 Z M 13556,11929 L 16351,11929 16351,14623 13556,14623 13556,11929 Z"/>
              <path fill="rgb(54,54,54)" stroke="none" d="M 13556,11929 L 16351,11929 16351,14623 13556,14623 13556,11929 Z M 13570,11943 L 16337,11943 16337,14609 13570,14609 13570,11943 Z"/>
              <path fill="rgb(55,55,55)" stroke="none" d="M 13570,11943 L 16337,11943 16337,14609 13570,14609 13570,11943 Z M 13584,11957 L 16323,11957 16323,14595 13584,14595 13584,11957 Z"/>
              <path fill="rgb(56,56,56)" stroke="none" d="M 13584,11957 L 16323,11957 16323,14595 13584,14595 13584,11957 Z M 13598,11970 L 16309,11970 16309,14582 13598,14582 13598,11970 Z"/>
              <path fill="rgb(57,57,57)" stroke="none" d="M 13598,11970 L 16309,11970 16309,14582 13598,14582 13598,11970 Z M 13612,11984 L 16295,11984 16295,14568 13612,14568 13612,11984 Z"/>
              <path fill="rgb(58,58,58)" stroke="none" d="M 13612,11984 L 16295,11984 16295,14568 13612,14568 13612,11984 Z M 13627,11997 L 16280,11997 16280,14555 13627,14555 13627,11997 Z"/>
              <path fill="rgb(59,59,59)" stroke="none" d="M 13627,11997 L 16280,11997 16280,14555 13627,14555 13627,11997 Z M 13641,12011 L 16266,12011 16266,14541 13641,14541 13641,12011 Z"/>
              <path fill="rgb(60,60,60)" stroke="none" d="M 13641,12011 L 16266,12011 16266,14541 13641,14541 13641,12011 Z M 13655,12025 L 16252,12025 16252,14527 13655,14527 13655,12025 Z"/>
              <path fill="rgb(61,61,61)" stroke="none" d="M 13655,12025 L 16252,12025 16252,14527 13655,14527 13655,12025 Z M 13669,12038 L 16238,12038 16238,14514 13669,14514 13669,12038 Z"/>
              <path fill="rgb(62,62,62)" stroke="none" d="M 13669,12038 L 16238,12038 16238,14514 13669,14514 13669,12038 Z M 13683,12052 L 16224,12052 16224,14500 13683,14500 13683,12052 Z"/>
              <path fill="rgb(63,63,63)" stroke="none" d="M 13683,12052 L 16224,12052 16224,14500 13683,14500 13683,12052 Z M 13697,12065 L 16210,12065 16210,14487 13697,14487 13697,12065 Z"/>
              <path fill="rgb(64,64,64)" stroke="none" d="M 13697,12065 L 16210,12065 16210,14487 13697,14487 13697,12065 Z M 13711,12079 L 16196,12079 16196,14473 13711,14473 13711,12079 Z"/>
              <path fill="rgb(65,65,65)" stroke="none" d="M 13711,12079 L 16196,12079 16196,14473 13711,14473 13711,12079 Z M 13725,12093 L 16182,12093 16182,14459 13725,14459 13725,12093 Z"/>
              <path fill="rgb(66,66,66)" stroke="none" d="M 13725,12093 L 16182,12093 16182,14459 13725,14459 13725,12093 Z M 13740,12106 L 16167,12106 16167,14446 13740,14446 13740,12106 Z"/>
              <path fill="rgb(67,67,67)" stroke="none" d="M 13740,12106 L 16167,12106 16167,14446 13740,14446 13740,12106 Z M 13754,12120 L 16153,12120 16153,14432 13754,14432 13754,12120 Z"/>
              <path fill="rgb(68,68,68)" stroke="none" d="M 13754,12120 L 16153,12120 16153,14432 13754,14432 13754,12120 Z M 13768,12134 L 16139,12134 16139,14418 13768,14418 13768,12134 Z"/>
              <path fill="rgb(69,69,69)" stroke="none" d="M 13768,12134 L 16139,12134 16139,14418 13768,14418 13768,12134 Z M 13782,12147 L 16125,12147 16125,14405 13782,14405 13782,12147 Z"/>
              <path fill="rgb(70,70,70)" stroke="none" d="M 13782,12147 L 16125,12147 16125,14405 13782,14405 13782,12147 Z M 13796,12161 L 16111,12161 16111,14391 13796,14391 13796,12161 Z"/>
              <path fill="rgb(71,71,71)" stroke="none" d="M 13796,12161 L 16111,12161 16111,14391 13796,14391 13796,12161 Z M 13810,12174 L 16097,12174 16097,14378 13810,14378 13810,12174 Z"/>
              <path fill="rgb(72,72,72)" stroke="none" d="M 13810,12174 L 16097,12174 16097,14378 13810,14378 13810,12174 Z M 13824,12188 L 16083,12188 16083,14364 13824,14364 13824,12188 Z"/>
              <path fill="rgb(73,73,73)" stroke="none" d="M 13824,12188 L 16083,12188 16083,14364 13824,14364 13824,12188 Z M 13838,12202 L 16069,12202 16069,14350 13838,14350 13838,12202 Z"/>
              <path fill="rgb(74,74,74)" stroke="none" d="M 13838,12202 L 16069,12202 16069,14350 13838,14350 13838,12202 Z M 13853,12215 L 16054,12215 16054,14337 13853,14337 13853,12215 Z"/>
              <path fill="rgb(75,75,75)" stroke="none" d="M 13853,12215 L 16054,12215 16054,14337 13853,14337 13853,12215 Z M 13867,12229 L 16040,12229 16040,14323 13867,14323 13867,12229 Z"/>
              <path fill="rgb(76,76,76)" stroke="none" d="M 13867,12229 L 16040,12229 16040,14323 13867,14323 13867,12229 Z M 13881,12242 L 16026,12242 16026,14310 13881,14310 13881,12242 Z"/>
              <path fill="rgb(77,77,77)" stroke="none" d="M 13881,12242 L 16026,12242 16026,14310 13881,14310 13881,12242 Z M 13895,12256 L 16012,12256 16012,14296 13895,14296 13895,12256 Z"/>
              <path fill="rgb(78,78,78)" stroke="none" d="M 13895,12256 L 16012,12256 16012,14296 13895,14296 13895,12256 Z M 13909,12270 L 15998,12270 15998,14282 13909,14282 13909,12270 Z"/>
              <path fill="rgb(79,79,79)" stroke="none" d="M 13909,12270 L 15998,12270 15998,14282 13909,14282 13909,12270 Z M 13923,12283 L 15984,12283 15984,14269 13923,14269 13923,12283 Z"/>
              <path fill="rgb(80,80,80)" stroke="none" d="M 13923,12283 L 15984,12283 15984,14269 13923,14269 13923,12283 Z M 13937,12297 L 15970,12297 15970,14255 13937,14255 13937,12297 Z"/>
              <path fill="rgb(81,81,81)" stroke="none" d="M 13937,12297 L 15970,12297 15970,14255 13937,14255 13937,12297 Z M 13951,12310 L 15956,12310 15956,14242 13951,14242 13951,12310 Z"/>
              <path fill="rgb(82,82,82)" stroke="none" d="M 13951,12310 L 15956,12310 15956,14242 13951,14242 13951,12310 Z M 13966,12324 L 15941,12324 15941,14228 13966,14228 13966,12324 Z"/>
              <path fill="rgb(83,83,83)" stroke="none" d="M 13966,12324 L 15941,12324 15941,14228 13966,14228 13966,12324 Z M 13980,12338 L 15927,12338 15927,14214 13980,14214 13980,12338 Z"/>
              <path fill="rgb(84,84,84)" stroke="none" d="M 13980,12338 L 15927,12338 15927,14214 13980,14214 13980,12338 Z M 13994,12351 L 15913,12351 15913,14201 13994,14201 13994,12351 Z"/>
              <path fill="rgb(85,85,85)" stroke="none" d="M 13994,12351 L 15913,12351 15913,14201 13994,14201 13994,12351 Z M 14008,12365 L 15899,12365 15899,14187 14008,14187 14008,12365 Z"/>
              <path fill="rgb(86,86,86)" stroke="none" d="M 14008,12365 L 15899,12365 15899,14187 14008,14187 14008,12365 Z M 14022,12379 L 15885,12379 15885,14173 14022,14173 14022,12379 Z"/>
              <path fill="rgb(87,87,87)" stroke="none" d="M 14022,12379 L 15885,12379 15885,14173 14022,14173 14022,12379 Z M 14036,12392 L 15871,12392 15871,14160 14036,14160 14036,12392 Z"/>
              <path fill="rgb(88,88,88)" stroke="none" d="M 14036,12392 L 15871,12392 15871,14160 14036,14160 14036,12392 Z M 14050,12406 L 15857,12406 15857,14146 14050,14146 14050,12406 Z"/>
              <path fill="rgb(89,89,89)" stroke="none" d="M 14050,12406 L 15857,12406 15857,14146 14050,14146 14050,12406 Z M 14064,12419 L 15843,12419 15843,14133 14064,14133 14064,12419 Z"/>
              <path fill="rgb(90,90,90)" stroke="none" d="M 14064,12419 L 15843,12419 15843,14133 14064,14133 14064,12419 Z M 14078,12432 L 15828,12432 15828,14119 14078,14119 14078,12432 Z"/>
              <path fill="rgb(91,91,91)" stroke="none" d="M 14078,12432 L 15828,12432 15828,14119 14078,14119 14078,12432 Z M 14092,12446 L 15814,12446 15814,14105 14092,14105 14092,12446 Z"/>
              <path fill="rgb(92,92,92)" stroke="none" d="M 14092,12446 L 15814,12446 15814,14105 14092,14105 14092,12446 Z M 14106,12459 L 15800,12459 15800,14092 14106,14092 14106,12459 Z"/>
              <path fill="rgb(93,93,93)" stroke="none" d="M 14106,12459 L 15800,12459 15800,14092 14106,14092 14106,12459 Z M 14120,12473 L 15786,12473 15786,14078 14120,14078 14120,12473 Z"/>
              <path fill="rgb(94,94,94)" stroke="none" d="M 14120,12473 L 15786,12473 15786,14078 14120,14078 14120,12473 Z M 14134,12486 L 15772,12486 15772,14065 14134,14065 14134,12486 Z"/>
              <path fill="rgb(95,95,95)" stroke="none" d="M 14134,12486 L 15772,12486 15772,14065 14134,14065 14134,12486 Z M 14148,12500 L 15758,12500 15758,14051 14148,14051 14148,12500 Z"/>
              <path fill="rgb(96,96,96)" stroke="none" d="M 14148,12500 L 15758,12500 15758,14051 14148,14051 14148,12500 Z M 14162,12514 L 15744,12514 15744,14037 14162,14037 14162,12514 Z"/>
              <path fill="rgb(97,97,97)" stroke="none" d="M 14162,12514 L 15744,12514 15744,14037 14162,14037 14162,12514 Z M 14176,12527 L 15730,12527 15730,14024 14176,14024 14176,12527 Z"/>
              <path fill="rgb(98,98,98)" stroke="none" d="M 14176,12527 L 15730,12527 15730,14024 14176,14024 14176,12527 Z M 14191,12541 L 15715,12541 15715,14010 14191,14010 14191,12541 Z"/>
              <path fill="rgb(99,99,99)" stroke="none" d="M 14191,12541 L 15715,12541 15715,14010 14191,14010 14191,12541 Z M 14205,12555 L 15701,12555 15701,13996 14205,13996 14205,12555 Z"/>
              <path fill="rgb(100,100,100)" stroke="none" d="M 14205,12555 L 15701,12555 15701,13996 14205,13996 14205,12555 Z M 14219,12568 L 15687,12568 15687,13983 14219,13983 14219,12568 Z"/>
              <path fill="rgb(101,101,101)" stroke="none" d="M 14219,12568 L 15687,12568 15687,13983 14219,13983 14219,12568 Z M 14233,12582 L 15673,12582 15673,13969 14233,13969 14233,12582 Z"/>
              <path fill="rgb(102,102,102)" stroke="none" d="M 14233,12582 L 15673,12582 15673,13969 14233,13969 14233,12582 Z M 14247,12595 L 15659,12595 15659,13956 14247,13956 14247,12595 Z"/>
              <path fill="rgb(103,103,103)" stroke="none" d="M 14247,12595 L 15659,12595 15659,13956 14247,13956 14247,12595 Z M 14261,12609 L 15645,12609 15645,13942 14261,13942 14261,12609 Z"/>
              <path fill="rgb(104,104,104)" stroke="none" d="M 14261,12609 L 15645,12609 15645,13942 14261,13942 14261,12609 Z M 14275,12623 L 15631,12623 15631,13928 14275,13928 14275,12623 Z"/>
              <path fill="rgb(105,105,105)" stroke="none" d="M 14275,12623 L 15631,12623 15631,13928 14275,13928 14275,12623 Z M 14290,12636 L 15616,12636 15616,13915 14290,13915 14290,12636 Z"/>
              <path fill="rgb(106,106,106)" stroke="none" d="M 14290,12636 L 15616,12636 15616,13915 14290,13915 14290,12636 Z M 14304,12650 L 15602,12650 15602,13901 14304,13901 14304,12650 Z"/>
              <path fill="rgb(107,107,107)" stroke="none" d="M 14304,12650 L 15602,12650 15602,13901 14304,13901 14304,12650 Z M 14318,12663 L 15588,12663 15588,13888 14318,13888 14318,12663 Z"/>
              <path fill="rgb(108,108,108)" stroke="none" d="M 14318,12663 L 15588,12663 15588,13888 14318,13888 14318,12663 Z M 14332,12677 L 15574,12677 15574,13874 14332,13874 14332,12677 Z"/>
              <path fill="rgb(109,109,109)" stroke="none" d="M 14332,12677 L 15574,12677 15574,13874 14332,13874 14332,12677 Z M 14346,12691 L 15560,12691 15560,13860 14346,13860 14346,12691 Z"/>
              <path fill="rgb(110,110,110)" stroke="none" d="M 14346,12691 L 15560,12691 15560,13860 14346,13860 14346,12691 Z M 14360,12704 L 15546,12704 15546,13847 14360,13847 14360,12704 Z"/>
              <path fill="rgb(111,111,111)" stroke="none" d="M 14360,12704 L 15546,12704 15546,13847 14360,13847 14360,12704 Z M 14374,12718 L 15532,12718 15532,13833 14374,13833 14374,12718 Z"/>
              <path fill="rgb(112,112,112)" stroke="none" d="M 14374,12718 L 15532,12718 15532,13833 14374,13833 14374,12718 Z M 14388,12731 L 15518,12731 15518,13820 14388,13820 14388,12731 Z"/>
              <path fill="rgb(113,113,113)" stroke="none" d="M 14388,12731 L 15518,12731 15518,13820 14388,13820 14388,12731 Z M 14403,12745 L 15503,12745 15503,13806 14403,13806 14403,12745 Z"/>
              <path fill="rgb(114,114,114)" stroke="none" d="M 14403,12745 L 15503,12745 15503,13806 14403,13806 14403,12745 Z M 14417,12759 L 15489,12759 15489,13792 14417,13792 14417,12759 Z"/>
              <path fill="rgb(115,115,115)" stroke="none" d="M 14417,12759 L 15489,12759 15489,13792 14417,13792 14417,12759 Z M 14431,12772 L 15475,12772 15475,13779 14431,13779 14431,12772 Z"/>
              <path fill="rgb(116,116,116)" stroke="none" d="M 14431,12772 L 15475,12772 15475,13779 14431,13779 14431,12772 Z M 14445,12786 L 15461,12786 15461,13765 14445,13765 14445,12786 Z"/>
              <path fill="rgb(117,117,117)" stroke="none" d="M 14445,12786 L 15461,12786 15461,13765 14445,13765 14445,12786 Z M 14459,12800 L 15447,12800 15447,13751 14459,13751 14459,12800 Z"/>
              <path fill="rgb(118,118,118)" stroke="none" d="M 14459,12800 L 15447,12800 15447,13751 14459,13751 14459,12800 Z M 14473,12813 L 15433,12813 15433,13738 14473,13738 14473,12813 Z"/>
              <path fill="rgb(119,119,119)" stroke="none" d="M 14473,12813 L 15433,12813 15433,13738 14473,13738 14473,12813 Z M 14487,12827 L 15419,12827 15419,13724 14487,13724 14487,12827 Z"/>
              <path fill="rgb(120,120,120)" stroke="none" d="M 14487,12827 L 15419,12827 15419,13724 14487,13724 14487,12827 Z M 14501,12840 L 15405,12840 15405,13711 14501,13711 14501,12840 Z"/>
              <path fill="rgb(121,121,121)" stroke="none" d="M 14501,12840 L 15405,12840 15405,13711 14501,13711 14501,12840 Z M 14516,12854 L 15390,12854 15390,13697 14516,13697 14516,12854 Z"/>
              <path fill="rgb(122,122,122)" stroke="none" d="M 14516,12854 L 15390,12854 15390,13697 14516,13697 14516,12854 Z M 14530,12868 L 15376,12868 15376,13683 14530,13683 14530,12868 Z"/>
              <path fill="rgb(123,123,123)" stroke="none" d="M 14530,12868 L 15376,12868 15376,13683 14530,13683 14530,12868 Z M 14544,12881 L 15362,12881 15362,13670 14544,13670 14544,12881 Z"/>
              <path fill="rgb(124,124,124)" stroke="none" d="M 14544,12881 L 15362,12881 15362,13670 14544,13670 14544,12881 Z M 14558,12895 L 15348,12895 15348,13656 14558,13656 14558,12895 Z"/>
              <path fill="rgb(125,125,125)" stroke="none" d="M 14558,12895 L 15348,12895 15348,13656 14558,13656 14558,12895 Z M 14572,12908 L 15334,12908 15334,13643 14572,13643 14572,12908 Z"/>
              <path fill="rgb(126,126,126)" stroke="none" d="M 14572,12908 L 15334,12908 15334,13643 14572,13643 14572,12908 Z M 14586,12922 L 15320,12922 15320,13629 14586,13629 14586,12922 Z"/>
              <path fill="rgb(127,127,127)" stroke="none" d="M 14586,12922 L 15320,12922 15320,13629 14586,13629 14586,12922 Z M 14600,12936 L 15306,12936 15306,13615 14600,13615 14600,12936 Z"/>
              <path fill="rgb(128,128,128)" stroke="none" d="M 14600,12936 L 15306,12936 15306,13615 14600,13615 14600,12936 Z M 14614,12949 L 15292,12949 15292,13602 14614,13602 14614,12949 Z"/>
              <path fill="rgb(129,129,129)" stroke="none" d="M 14614,12949 L 15292,12949 15292,13602 14614,13602 14614,12949 Z M 14629,12963 L 15277,12963 15277,13588 14629,13588 14629,12963 Z"/>
              <path fill="rgb(130,130,130)" stroke="none" d="M 14629,12963 L 15277,12963 15277,13588 14629,13588 14629,12963 Z M 14643,12977 L 15263,12977 15263,13574 14643,13574 14643,12977 Z"/>
              <path fill="rgb(131,131,131)" stroke="none" d="M 14643,12977 L 15263,12977 15263,13574 14643,13574 14643,12977 Z M 14657,12990 L 15249,12990 15249,13561 14657,13561 14657,12990 Z"/>
              <path fill="rgb(132,132,132)" stroke="none" d="M 14657,12990 L 15249,12990 15249,13561 14657,13561 14657,12990 Z M 14671,13004 L 15235,13004 15235,13547 14671,13547 14671,13004 Z"/>
              <path fill="rgb(133,133,133)" stroke="none" d="M 14671,13004 L 15235,13004 15235,13547 14671,13547 14671,13004 Z M 14685,13017 L 15221,13017 15221,13534 14685,13534 14685,13017 Z"/>
              <path fill="rgb(134,134,134)" stroke="none" d="M 14685,13017 L 15221,13017 15221,13534 14685,13534 14685,13017 Z M 14699,13031 L 15207,13031 15207,13520 14699,13520 14699,13031 Z"/>
              <path fill="rgb(135,135,135)" stroke="none" d="M 14699,13031 L 15207,13031 15207,13520 14699,13520 14699,13031 Z M 14713,13045 L 15193,13045 15193,13506 14713,13506 14713,13045 Z"/>
              <path fill="rgb(136,136,136)" stroke="none" d="M 14713,13045 L 15193,13045 15193,13506 14713,13506 14713,13045 Z M 14727,13058 L 15179,13058 15179,13493 14727,13493 14727,13058 Z"/>
              <path fill="rgb(137,137,137)" stroke="none" d="M 14727,13058 L 15179,13058 15179,13493 14727,13493 14727,13058 Z M 14742,13072 L 15164,13072 15164,13479 14742,13479 14742,13072 Z"/>
              <path fill="rgb(138,138,138)" stroke="none" d="M 14742,13072 L 15164,13072 15164,13479 14742,13479 14742,13072 Z M 14756,13085 L 15150,13085 15150,13466 14756,13466 14756,13085 Z"/>
              <path fill="rgb(139,139,139)" stroke="none" d="M 14756,13085 L 15150,13085 15150,13466 14756,13466 14756,13085 Z M 14770,13099 L 15136,13099 15136,13452 14770,13452 14770,13099 Z"/>
              <path fill="rgb(140,140,140)" stroke="none" d="M 14770,13099 L 15136,13099 15136,13452 14770,13452 14770,13099 Z M 14784,13113 L 15122,13113 15122,13438 14784,13438 14784,13113 Z"/>
              <path fill="rgb(141,141,141)" stroke="none" d="M 14784,13113 L 15122,13113 15122,13438 14784,13438 14784,13113 Z M 14798,13126 L 15108,13126 15108,13425 14798,13425 14798,13126 Z"/>
              <path fill="rgb(142,142,142)" stroke="none" d="M 14798,13126 L 15108,13126 15108,13425 14798,13425 14798,13126 Z M 14812,13140 L 15094,13140 15094,13411 14812,13411 14812,13140 Z"/>
              <path fill="rgb(143,143,143)" stroke="none" d="M 14812,13140 L 15094,13140 15094,13411 14812,13411 14812,13140 Z M 14826,13153 L 15080,13153 15080,13398 14826,13398 14826,13153 Z"/>
              <path fill="rgb(144,144,144)" stroke="none" d="M 14826,13153 L 15080,13153 15080,13398 14826,13398 14826,13153 Z M 14840,13167 L 15066,13167 15066,13384 14840,13384 14840,13167 Z"/>
              <path fill="rgb(145,145,145)" stroke="none" d="M 14840,13167 L 15066,13167 15066,13384 14840,13384 14840,13167 Z M 14855,13181 L 15051,13181 15051,13370 14855,13370 14855,13181 Z"/>
              <path fill="rgb(146,146,146)" stroke="none" d="M 14855,13181 L 15051,13181 15051,13370 14855,13370 14855,13181 Z M 14869,13194 L 15037,13194 15037,13357 14869,13357 14869,13194 Z"/>
              <path fill="rgb(147,147,147)" stroke="none" d="M 14869,13194 L 15037,13194 15037,13357 14869,13357 14869,13194 Z M 14883,13208 L 15023,13208 15023,13343 14883,13343 14883,13208 Z"/>
              <path fill="rgb(148,148,148)" stroke="none" d="M 14883,13208 L 15023,13208 15023,13343 14883,13343 14883,13208 Z M 14897,13222 L 15009,13222 15009,13329 14897,13329 14897,13222 Z"/>
              <path fill="rgb(149,149,149)" stroke="none" d="M 14897,13222 L 15009,13222 15009,13329 14897,13329 14897,13222 Z M 14911,13235 L 14995,13235 14995,13316 14911,13316 14911,13235 Z"/>
              <path fill="rgb(150,150,150)" stroke="none" d="M 14911,13235 L 14995,13235 14995,13316 14911,13316 14911,13235 Z M 14925,13249 L 14981,13249 14981,13302 14925,13302 14925,13249 Z"/>
              <path fill="rgb(151,151,151)" stroke="none" d="M 14925,13249 L 14981,13249 14981,13302 14925,13302 14925,13249 Z M 14939,13262 L 14967,13262 14967,13289 14939,13289 14939,13262 Z"/>
              <path fill="rgb(153,153,153)" stroke="none" d="M 14939,13262 L 14967,13262 14967,13289 14939,13289 14939,13262 Z"/>
             </g>
            </pattern>
           </defs>
           <path style="fill:url(#pattern1)" d="M 14091,15218 L 14091,14108 16970,12444 16970,13554 14091,15218 Z"/>
          </g>
          <path fill="none" stroke="rgb(178,178,178)" stroke-width="40" stroke-linejoin="round" d="M 14091,15218 L 14091,14108 16970,12444 16970,13554 14091,15218 Z"/>
         </g>
        </g>
        <g class="com.sun.star.drawing.PolyPolygonShape">
         <g id="id6">
          <rect class="BoundingBox" stroke="none" fill="none" x="10712" y="10482" width="6280" height="3648"/>
          <g>
           <defs>
            <linearGradient id="gradient2" x1="13851" y1="10502" x2="13851" y2="14108" gradientUnits="userSpaceOnUse">
             <stop offset="0.1" style="stop-color:rgb(51,51,51)"/>
             <stop offset="1" style="stop-color:rgb(153,153,153)"/>
            </linearGradient>
           </defs>
           <path style="fill:url(#gradient2)" d="M 14091,14108 L 10732,12166 13611,10502 16971,12444 14091,14108 Z"/>
          </g>
          <path fill="none" stroke="rgb(178,178,178)" stroke-width="40" stroke-linejoin="round" d="M 14091,14108 L 10732,12166 13611,10502 16971,12444 14091,14108 Z"/>
         </g>
        </g>
        <g class="com.sun.star.drawing.LineShape">
         <g id="id7">
          <rect class="BoundingBox" stroke="none" fill="none" x="11864" y="13034" width="41" height="707"/>
          <path fill="none" stroke="rgb(153,153,153)" stroke-width="40" stroke-linejoin="round" d="M 11884,13054 L 11884,13720"/>
         </g>
        </g>
        <g class="com.sun.star.drawing.LineShape">
         <g id="id8">
          <rect class="BoundingBox" stroke="none" fill="none" x="12440" y="13567" width="1577" height="929"/>
          <path fill="none" stroke="rgb(178,178,178)" stroke-width="40" stroke-linejoin="round" d="M 13996,14475 L 12460,13587"/>
         </g>
        </g>
        <g class="com.sun.star.drawing.LineShape">
         <g id="id9">
          <rect class="BoundingBox" stroke="none" fill="none" x="12431" y="13367" width="41" height="263"/>
          <path fill="none" stroke="rgb(178,178,178)" stroke-width="40" stroke-linejoin="round" d="M 12451,13387 L 12451,13609"/>
         </g>
        </g>
        <g class="com.sun.star.drawing.LineShape">
         <g id="id10">
          <rect class="BoundingBox" stroke="none" fill="none" x="13967" y="14255" width="41" height="263"/>
          <path fill="none" stroke="rgb(102,102,102)" stroke-width="40" stroke-linejoin="round" d="M 13987,14275 L 13987,14497"/>
         </g>
        </g>
        <g class="com.sun.star.drawing.LineShape">
         <g id="id11">
          <rect class="BoundingBox" stroke="none" fill="none" x="12431" y="13367" width="1577" height="929"/>
          <path fill="none" stroke="rgb(102,102,102)" stroke-width="40" stroke-linejoin="round" d="M 13987,14275 L 12451,13387"/>
         </g>
        </g>
        <g class="com.sun.star.drawing.PolyPolygonShape">
         <g id="id12">
          <rect class="BoundingBox" stroke="none" fill="none" x="12055" y="13145" width="234" height="374"/>
          <path fill="rgb(57,181,74)" stroke="none" d="M 12076,13387 L 12076,13165 12268,13276 12268,13498 12076,13387 Z"/>
          <path fill="none" stroke="rgb(102,102,102)" stroke-width="40" stroke-linejoin="round" d="M 12076,13387 L 12076,13165 12268,13276 12268,13498 12076,13387 Z"/>
         </g>
        </g>
        <g class="com.sun.star.drawing.LineShape">
         <g id="id13">
          <rect class="BoundingBox" stroke="none" fill="none" x="11672" y="12923" width="41" height="707"/>
          <path fill="none" stroke="rgb(153,153,153)" stroke-width="40" stroke-linejoin="round" d="M 11692,12943 L 11692,13609"/>
         </g>
        </g>
        <g class="com.sun.star.drawing.LineShape">
         <g id="id14">
          <rect class="BoundingBox" stroke="none" fill="none" x="11480" y="12812" width="41" height="707"/>
          <path fill="none" stroke="rgb(153,153,153)" stroke-width="40" stroke-linejoin="round" d="M 11500,12832 L 11500,13498"/>
         </g>
        </g>
        <g class="com.sun.star.drawing.LineShape">
         <g id="id15">
          <rect class="BoundingBox" stroke="none" fill="none" x="11288" y="12701" width="41" height="707"/>
          <path fill="none" stroke="rgb(153,153,153)" stroke-width="40" stroke-linejoin="round" d="M 11308,12721 L 11308,13387"/>
         </g>
        </g>
        <g class="com.sun.star.drawing.LineShape">
         <g id="id16">
          <rect class="BoundingBox" stroke="none" fill="none" x="11096" y="12590" width="41" height="707"/>
          <path fill="none" stroke="rgb(153,153,153)" stroke-width="40" stroke-linejoin="round" d="M 11116,12610 L 11116,13276"/>
         </g>
        </g>
        <g class="com.sun.star.drawing.LineShape">
         <g id="id17">
          <rect class="BoundingBox" stroke="none" fill="none" x="10904" y="12479" width="41" height="707"/>
          <path fill="none" stroke="rgb(153,153,153)" stroke-width="40" stroke-linejoin="round" d="M 10924,12499 L 10924,13165"/>
         </g>
        </g>
        <g class="com.sun.star.drawing.PolyPolygonShape">
         <g id="id18">
          <rect class="BoundingBox" stroke="none" fill="none" x="10519" y="12035" width="234" height="1263"/>
          <g>
           <defs>
            <linearGradient id="gradient3" x1="10540" y1="12665" x2="10733" y2="12665" gradientUnits="userSpaceOnUse">
             <stop offset="0.1" style="stop-color:rgb(51,51,51)"/>
             <stop offset="1" style="stop-color:rgb(153,153,153)"/>
            </linearGradient>
           </defs>
           <path style="fill:url(#gradient3)" d="M 10540,13165 L 10540,12055 10732,12166 10732,13276 10540,13165 Z"/>
          </g>
          <path fill="none" stroke="rgb(178,178,178)" stroke-width="40" stroke-linejoin="round" d="M 10540,13165 L 10540,12055 10732,12166 10732,13276 10540,13165 Z"/>
         </g>
        </g>
        <g class="com.sun.star.drawing.PolyPolygonShape">
         <g id="id19">
          <rect class="BoundingBox" stroke="none" fill="none" x="14071" y="14088" width="233" height="1263"/>
          <g>
           <defs>
            <linearGradient id="gradient4" x1="14091" y1="14718" x2="14284" y2="14718" gradientUnits="userSpaceOnUse">
             <stop offset="0.1" style="stop-color:rgb(51,51,51)"/>
             <stop offset="1" style="stop-color:rgb(153,153,153)"/>
            </linearGradient>
           </defs>
           <path style="fill:url(#gradient4)" d="M 14091,15218 L 14091,14108 14283,14219 14283,15329 14091,15218 Z"/>
          </g>
          <path fill="none" stroke="rgb(178,178,178)" stroke-width="40" stroke-linejoin="round" d="M 14091,15218 L 14091,14108 14283,14219 14283,15329 14091,15218 Z"/>
         </g>
        </g>
        <g class="com.sun.star.drawing.PolyPolygonShape">
         <g id="id20">
          <rect class="BoundingBox" stroke="none" fill="none" x="10519" y="10482" width="6473" height="4868"/>
          <path fill="none" stroke="rgb(0,0,0)" stroke-width="40" stroke-linejoin="round" d="M 10540,13165 L 10540,12055 10732,12166 13611,10502 16971,12444 16971,13553 14283,15107 14283,15329 10540,13165 Z"/>
         </g>
        </g>
       </g>
      </g>
      <g class="Group">
       <g class="com.sun.star.drawing.CustomShape">
        <g id="id21">
         <rect class="BoundingBox" stroke="none" fill="none" x="15075" y="14051" width="1063" height="1057"/>
         <g>
          <defs>
           <pattern id="pattern2" x="15095" y="14071" width="1022" height="1016" patternUnits="userSpaceOnUse">
            <g transform="translate(-15095,-14071)">
             <path fill="rgb(0,115,188)" stroke="none" d="M 15094,14070 L 16117,14070 16117,15087 15094,15087 15094,14070 Z M 14894,13871 L 15907,13871 15907,14878 14894,14878 14894,13871 Z"/>
             <path fill="rgb(1,115,188)" stroke="none" d="M 14894,13871 L 15907,13871 15907,14878 14894,14878 14894,13871 Z M 14898,13875 L 15903,13875 15903,14874 14898,14874 14898,13875 Z"/>
             <path fill="rgb(2,116,188)" stroke="none" d="M 14898,13875 L 15903,13875 15903,14874 14898,14874 14898,13875 Z M 14902,13879 L 15899,13879 15899,14870 14902,14870 14902,13879 Z"/>
             <path fill="rgb(3,116,188)" stroke="none" d="M 14902,13879 L 15899,13879 15899,14870 14902,14870 14902,13879 Z M 14906,13883 L 15895,13883 15895,14866 14906,14866 14906,13883 Z"/>
             <path fill="rgb(4,117,189)" stroke="none" d="M 14906,13883 L 15895,13883 15895,14866 14906,14866 14906,13883 Z M 14910,13887 L 15891,13887 15891,14862 14910,14862 14910,13887 Z"/>
             <path fill="rgb(5,117,189)" stroke="none" d="M 14910,13887 L 15891,13887 15891,14862 14910,14862 14910,13887 Z M 14914,13891 L 15887,13891 15887,14858 14914,14858 14914,13891 Z"/>
             <path fill="rgb(6,118,189)" stroke="none" d="M 14914,13891 L 15887,13891 15887,14858 14914,14858 14914,13891 Z M 14918,13895 L 15883,13895 15883,14854 14918,14854 14918,13895 Z"/>
             <path fill="rgb(7,118,189)" stroke="none" d="M 14918,13895 L 15883,13895 15883,14854 14918,14854 14918,13895 Z M 14922,13899 L 15879,13899 15879,14850 14922,14850 14922,13899 Z"/>
             <path fill="rgb(8,119,190)" stroke="none" d="M 14922,13899 L 15879,13899 15879,14850 14922,14850 14922,13899 Z M 14926,13903 L 15875,13903 15875,14846 14926,14846 14926,13903 Z"/>
             <path fill="rgb(9,119,190)" stroke="none" d="M 14926,13903 L 15875,13903 15875,14846 14926,14846 14926,13903 Z M 14930,13907 L 15871,13907 15871,14842 14930,14842 14930,13907 Z"/>
             <path fill="rgb(10,120,190)" stroke="none" d="M 14930,13907 L 15871,13907 15871,14842 14930,14842 14930,13907 Z M 14934,13911 L 15867,13911 15867,14838 14934,14838 14934,13911 Z"/>
             <path fill="rgb(11,121,190)" stroke="none" d="M 14934,13911 L 15867,13911 15867,14838 14934,14838 14934,13911 Z M 14938,13915 L 15863,13915 15863,14834 14938,14834 14938,13915 Z"/>
             <path fill="rgb(12,121,191)" stroke="none" d="M 14938,13915 L 15863,13915 15863,14834 14938,14834 14938,13915 Z M 14942,13919 L 15859,13919 15859,14830 14942,14830 14942,13919 Z"/>
             <path fill="rgb(13,122,191)" stroke="none" d="M 14942,13919 L 15859,13919 15859,14830 14942,14830 14942,13919 Z M 14946,13923 L 15855,13923 15855,14826 14946,14826 14946,13923 Z"/>
             <path fill="rgb(14,122,191)" stroke="none" d="M 14946,13923 L 15855,13923 15855,14826 14946,14826 14946,13923 Z M 14950,13927 L 15851,13927 15851,14822 14950,14822 14950,13927 Z"/>
             <path fill="rgb(15,123,191)" stroke="none" d="M 14950,13927 L 15851,13927 15851,14822 14950,14822 14950,13927 Z M 14954,13931 L 15847,13931 15847,14818 14954,14818 14954,13931 Z"/>
             <path fill="rgb(16,123,192)" stroke="none" d="M 14954,13931 L 15847,13931 15847,14818 14954,14818 14954,13931 Z M 14958,13935 L 15843,13935 15843,14814 14958,14814 14958,13935 Z"/>
             <path fill="rgb(17,124,192)" stroke="none" d="M 14958,13935 L 15843,13935 15843,14814 14958,14814 14958,13935 Z M 14962,13939 L 15839,13939 15839,14810 14962,14810 14962,13939 Z"/>
             <path fill="rgb(18,124,192)" stroke="none" d="M 14962,13939 L 15839,13939 15839,14810 14962,14810 14962,13939 Z M 14966,13943 L 15835,13943 15835,14806 14966,14806 14966,13943 Z"/>
             <path fill="rgb(19,125,192)" stroke="none" d="M 14966,13943 L 15835,13943 15835,14806 14966,14806 14966,13943 Z M 14970,13947 L 15831,13947 15831,14802 14970,14802 14970,13947 Z"/>
             <path fill="rgb(20,126,193)" stroke="none" d="M 14970,13947 L 15831,13947 15831,14802 14970,14802 14970,13947 Z M 14974,13951 L 15827,13951 15827,14798 14974,14798 14974,13951 Z"/>
             <path fill="rgb(21,126,193)" stroke="none" d="M 14974,13951 L 15827,13951 15827,14798 14974,14798 14974,13951 Z M 14978,13955 L 15823,13955 15823,14794 14978,14794 14978,13955 Z"/>
             <path fill="rgb(22,127,193)" stroke="none" d="M 14978,13955 L 15823,13955 15823,14794 14978,14794 14978,13955 Z M 14982,13959 L 15819,13959 15819,14790 14982,14790 14982,13959 Z"/>
             <path fill="rgb(23,127,193)" stroke="none" d="M 14982,13959 L 15819,13959 15819,14790 14982,14790 14982,13959 Z M 14986,13963 L 15815,13963 15815,14786 14986,14786 14986,13963 Z"/>
             <path fill="rgb(24,128,194)" stroke="none" d="M 14986,13963 L 15815,13963 15815,14786 14986,14786 14986,13963 Z M 14990,13967 L 15811,13967 15811,14782 14990,14782 14990,13967 Z"/>
             <path fill="rgb(25,128,194)" stroke="none" d="M 14990,13967 L 15811,13967 15811,14782 14990,14782 14990,13967 Z M 14994,13971 L 15807,13971 15807,14778 14994,14778 14994,13971 Z"/>
             <path fill="rgb(26,129,194)" stroke="none" d="M 14994,13971 L 15807,13971 15807,14778 14994,14778 14994,13971 Z M 14998,13975 L 15803,13975 15803,14774 14998,14774 14998,13975 Z"/>
             <path fill="rgb(27,129,195)" stroke="none" d="M 14998,13975 L 15803,13975 15803,14774 14998,14774 14998,13975 Z M 15002,13979 L 15799,13979 15799,14770 15002,14770 15002,13979 Z"/>
             <path fill="rgb(28,130,195)" stroke="none" d="M 15002,13979 L 15799,13979 15799,14770 15002,14770 15002,13979 Z M 15006,13983 L 15795,13983 15795,14766 15006,14766 15006,13983 Z"/>
             <path fill="rgb(29,130,195)" stroke="none" d="M 15006,13983 L 15795,13983 15795,14766 15006,14766 15006,13983 Z M 15010,13987 L 15791,13987 15791,14762 15010,14762 15010,13987 Z"/>
             <path fill="rgb(30,131,195)" stroke="none" d="M 15010,13987 L 15791,13987 15791,14762 15010,14762 15010,13987 Z M 15014,13991 L 15787,13991 15787,14758 15014,14758 15014,13991 Z"/>
             <path fill="rgb(31,132,196)" stroke="none" d="M 15014,13991 L 15787,13991 15787,14758 15014,14758 15014,13991 Z M 15019,13995 L 15782,13995 15782,14754 15019,14754 15019,13995 Z"/>
             <path fill="rgb(32,132,196)" stroke="none" d="M 15019,13995 L 15782,13995 15782,14754 15019,14754 15019,13995 Z M 15023,13999 L 15778,13999 15778,14750 15023,14750 15023,13999 Z"/>
             <path fill="rgb(33,133,196)" stroke="none" d="M 15023,13999 L 15778,13999 15778,14750 15023,14750 15023,13999 Z M 15027,14003 L 15774,14003 15774,14746 15027,14746 15027,14003 Z"/>
             <path fill="rgb(34,133,196)" stroke="none" d="M 15027,14003 L 15774,14003 15774,14746 15027,14746 15027,14003 Z M 15031,14007 L 15770,14007 15770,14742 15031,14742 15031,14007 Z"/>
             <path fill="rgb(35,134,197)" stroke="none" d="M 15031,14007 L 15770,14007 15770,14742 15031,14742 15031,14007 Z M 15035,14011 L 15766,14011 15766,14738 15035,14738 15035,14011 Z"/>
             <path fill="rgb(36,134,197)" stroke="none" d="M 15035,14011 L 15766,14011 15766,14738 15035,14738 15035,14011 Z M 15039,14015 L 15762,14015 15762,14734 15039,14734 15039,14015 Z"/>
             <path fill="rgb(37,135,197)" stroke="none" d="M 15039,14015 L 15762,14015 15762,14734 15039,14734 15039,14015 Z M 15043,14019 L 15758,14019 15758,14730 15043,14730 15043,14019 Z"/>
             <path fill="rgb(38,135,197)" stroke="none" d="M 15043,14019 L 15758,14019 15758,14730 15043,14730 15043,14019 Z M 15047,14023 L 15754,14023 15754,14726 15047,14726 15047,14023 Z"/>
             <path fill="rgb(39,136,198)" stroke="none" d="M 15047,14023 L 15754,14023 15754,14726 15047,14726 15047,14023 Z M 15051,14027 L 15750,14027 15750,14722 15051,14722 15051,14027 Z"/>
             <path fill="rgb(40,137,198)" stroke="none" d="M 15051,14027 L 15750,14027 15750,14722 15051,14722 15051,14027 Z M 15055,14031 L 15746,14031 15746,14718 15055,14718 15055,14031 Z"/>
             <path fill="rgb(41,137,198)" stroke="none" d="M 15055,14031 L 15746,14031 15746,14718 15055,14718 15055,14031 Z M 15059,14035 L 15742,14035 15742,14714 15059,14714 15059,14035 Z"/>
             <path fill="rgb(42,138,198)" stroke="none" d="M 15059,14035 L 15742,14035 15742,14714 15059,14714 15059,14035 Z M 15063,14039 L 15738,14039 15738,14710 15063,14710 15063,14039 Z"/>
             <path fill="rgb(43,138,199)" stroke="none" d="M 15063,14039 L 15738,14039 15738,14710 15063,14710 15063,14039 Z M 15067,14043 L 15734,14043 15734,14706 15067,14706 15067,14043 Z"/>
             <path fill="rgb(44,139,199)" stroke="none" d="M 15067,14043 L 15734,14043 15734,14706 15067,14706 15067,14043 Z M 15071,14047 L 15730,14047 15730,14702 15071,14702 15071,14047 Z"/>
             <path fill="rgb(45,139,199)" stroke="none" d="M 15071,14047 L 15730,14047 15730,14702 15071,14702 15071,14047 Z M 15075,14051 L 15726,14051 15726,14698 15075,14698 15075,14051 Z"/>
             <path fill="rgb(46,140,199)" stroke="none" d="M 15075,14051 L 15726,14051 15726,14698 15075,14698 15075,14051 Z M 15078,14054 L 15722,14054 15722,14694 15078,14694 15078,14054 Z"/>
             <path fill="rgb(47,140,200)" stroke="none" d="M 15078,14054 L 15722,14054 15722,14694 15078,14694 15078,14054 Z M 15082,14058 L 15718,14058 15718,14690 15082,14690 15082,14058 Z"/>
             <path fill="rgb(48,141,200)" stroke="none" d="M 15082,14058 L 15718,14058 15718,14690 15082,14690 15082,14058 Z M 15086,14062 L 15714,14062 15714,14686 15086,14686 15086,14062 Z"/>
             <path fill="rgb(49,142,200)" stroke="none" d="M 15086,14062 L 15714,14062 15714,14686 15086,14686 15086,14062 Z M 15090,14066 L 15710,14066 15710,14682 15090,14682 15090,14066 Z"/>
             <path fill="rgb(50,142,200)" stroke="none" d="M 15090,14066 L 15710,14066 15710,14682 15090,14682 15090,14066 Z M 15094,14070 L 15706,14070 15706,14678 15094,14678 15094,14070 Z"/>
             <path fill="rgb(51,143,201)" stroke="none" d="M 15094,14070 L 15706,14070 15706,14678 15094,14678 15094,14070 Z M 15098,14074 L 15702,14074 15702,14674 15098,14674 15098,14074 Z"/>
             <path fill="rgb(52,143,201)" stroke="none" d="M 15098,14074 L 15702,14074 15702,14674 15098,14674 15098,14074 Z M 15102,14078 L 15698,14078 15698,14670 15102,14670 15102,14078 Z"/>
             <path fill="rgb(53,144,201)" stroke="none" d="M 15102,14078 L 15698,14078 15698,14670 15102,14670 15102,14078 Z M 15106,14082 L 15694,14082 15694,14666 15106,14666 15106,14082 Z"/>
             <path fill="rgb(54,144,202)" stroke="none" d="M 15106,14082 L 15694,14082 15694,14666 15106,14666 15106,14082 Z M 15110,14086 L 15690,14086 15690,14662 15110,14662 15110,14086 Z"/>
             <path fill="rgb(55,145,202)" stroke="none" d="M 15110,14086 L 15690,14086 15690,14662 15110,14662 15110,14086 Z M 15114,14090 L 15686,14090 15686,14658 15114,14658 15114,14090 Z"/>
             <path fill="rgb(56,145,202)" stroke="none" d="M 15114,14090 L 15686,14090 15686,14658 15114,14658 15114,14090 Z M 15118,14094 L 15682,14094 15682,14654 15118,14654 15118,14094 Z"/>
             <path fill="rgb(57,146,202)" stroke="none" d="M 15118,14094 L 15682,14094 15682,14654 15118,14654 15118,14094 Z M 15122,14098 L 15678,14098 15678,14650 15122,14650 15122,14098 Z"/>
             <path fill="rgb(58,146,203)" stroke="none" d="M 15122,14098 L 15678,14098 15678,14650 15122,14650 15122,14098 Z M 15126,14102 L 15674,14102 15674,14646 15126,14646 15126,14102 Z"/>
             <path fill="rgb(59,147,203)" stroke="none" d="M 15126,14102 L 15674,14102 15674,14646 15126,14646 15126,14102 Z M 15130,14106 L 15670,14106 15670,14642 15130,14642 15130,14106 Z"/>
             <path fill="rgb(60,148,203)" stroke="none" d="M 15130,14106 L 15670,14106 15670,14642 15130,14642 15130,14106 Z M 15134,14110 L 15666,14110 15666,14638 15134,14638 15134,14110 Z"/>
             <path fill="rgb(61,148,203)" stroke="none" d="M 15134,14110 L 15666,14110 15666,14638 15134,14638 15134,14110 Z M 15138,14114 L 15662,14114 15662,14634 15138,14634 15138,14114 Z"/>
             <path fill="rgb(62,149,204)" stroke="none" d="M 15138,14114 L 15662,14114 15662,14634 15138,14634 15138,14114 Z M 15142,14118 L 15658,14118 15658,14630 15142,14630 15142,14118 Z"/>
             <path fill="rgb(63,149,204)" stroke="none" d="M 15142,14118 L 15658,14118 15658,14630 15142,14630 15142,14118 Z M 15147,14122 L 15653,14122 15653,14626 15147,14626 15147,14122 Z"/>
             <path fill="rgb(64,150,204)" stroke="none" d="M 15147,14122 L 15653,14122 15653,14626 15147,14626 15147,14122 Z M 15151,14126 L 15649,14126 15649,14622 15151,14622 15151,14126 Z"/>
             <path fill="rgb(65,150,204)" stroke="none" d="M 15151,14126 L 15649,14126 15649,14622 15151,14622 15151,14126 Z M 15155,14130 L 15645,14130 15645,14618 15155,14618 15155,14130 Z"/>
             <path fill="rgb(66,151,205)" stroke="none" d="M 15155,14130 L 15645,14130 15645,14618 15155,14618 15155,14130 Z M 15159,14134 L 15641,14134 15641,14614 15159,14614 15159,14134 Z"/>
             <path fill="rgb(67,151,205)" stroke="none" d="M 15159,14134 L 15641,14134 15641,14614 15159,14614 15159,14134 Z M 15163,14138 L 15637,14138 15637,14610 15163,14610 15163,14138 Z"/>
             <path fill="rgb(68,152,205)" stroke="none" d="M 15163,14138 L 15637,14138 15637,14610 15163,14610 15163,14138 Z M 15167,14142 L 15633,14142 15633,14606 15167,14606 15167,14142 Z"/>
             <path fill="rgb(69,153,205)" stroke="none" d="M 15167,14142 L 15633,14142 15633,14606 15167,14606 15167,14142 Z M 15171,14146 L 15629,14146 15629,14602 15171,14602 15171,14146 Z"/>
             <path fill="rgb(70,153,206)" stroke="none" d="M 15171,14146 L 15629,14146 15629,14602 15171,14602 15171,14146 Z M 15175,14150 L 15625,14150 15625,14598 15175,14598 15175,14150 Z"/>
             <path fill="rgb(71,154,206)" stroke="none" d="M 15175,14150 L 15625,14150 15625,14598 15175,14598 15175,14150 Z M 15179,14154 L 15621,14154 15621,14594 15179,14594 15179,14154 Z"/>
             <path fill="rgb(72,154,206)" stroke="none" d="M 15179,14154 L 15621,14154 15621,14594 15179,14594 15179,14154 Z M 15183,14158 L 15617,14158 15617,14590 15183,14590 15183,14158 Z"/>
             <path fill="rgb(73,155,206)" stroke="none" d="M 15183,14158 L 15617,14158 15617,14590 15183,14590 15183,14158 Z M 15187,14162 L 15613,14162 15613,14586 15187,14586 15187,14162 Z"/>
             <path fill="rgb(74,155,207)" stroke="none" d="M 15187,14162 L 15613,14162 15613,14586 15187,14586 15187,14162 Z M 15191,14166 L 15609,14166 15609,14582 15191,14582 15191,14166 Z"/>
             <path fill="rgb(75,156,207)" stroke="none" d="M 15191,14166 L 15609,14166 15609,14582 15191,14582 15191,14166 Z M 15195,14170 L 15605,14170 15605,14578 15195,14578 15195,14170 Z"/>
             <path fill="rgb(76,156,207)" stroke="none" d="M 15195,14170 L 15605,14170 15605,14578 15195,14578 15195,14170 Z M 15199,14174 L 15601,14174 15601,14574 15199,14574 15199,14174 Z"/>
             <path fill="rgb(77,157,208)" stroke="none" d="M 15199,14174 L 15601,14174 15601,14574 15199,14574 15199,14174 Z M 15203,14178 L 15597,14178 15597,14570 15203,14570 15203,14178 Z"/>
             <path fill="rgb(78,157,208)" stroke="none" d="M 15203,14178 L 15597,14178 15597,14570 15203,14570 15203,14178 Z M 15207,14182 L 15593,14182 15593,14566 15207,14566 15207,14182 Z"/>
             <path fill="rgb(79,158,208)" stroke="none" d="M 15207,14182 L 15593,14182 15593,14566 15207,14566 15207,14182 Z M 15211,14186 L 15589,14186 15589,14562 15211,14562 15211,14186 Z"/>
             <path fill="rgb(80,159,208)" stroke="none" d="M 15211,14186 L 15589,14186 15589,14562 15211,14562 15211,14186 Z M 15215,14190 L 15585,14190 15585,14558 15215,14558 15215,14190 Z"/>
             <path fill="rgb(81,159,209)" stroke="none" d="M 15215,14190 L 15585,14190 15585,14558 15215,14558 15215,14190 Z M 15219,14194 L 15581,14194 15581,14554 15219,14554 15219,14194 Z"/>
             <path fill="rgb(82,160,209)" stroke="none" d="M 15219,14194 L 15581,14194 15581,14554 15219,14554 15219,14194 Z M 15223,14198 L 15577,14198 15577,14550 15223,14550 15223,14198 Z"/>
             <path fill="rgb(83,160,209)" stroke="none" d="M 15223,14198 L 15577,14198 15577,14550 15223,14550 15223,14198 Z M 15227,14202 L 15573,14202 15573,14546 15227,14546 15227,14202 Z"/>
             <path fill="rgb(84,161,209)" stroke="none" d="M 15227,14202 L 15573,14202 15573,14546 15227,14546 15227,14202 Z M 15231,14206 L 15569,14206 15569,14542 15231,14542 15231,14206 Z"/>
             <path fill="rgb(85,161,210)" stroke="none" d="M 15231,14206 L 15569,14206 15569,14542 15231,14542 15231,14206 Z M 15235,14210 L 15565,14210 15565,14538 15235,14538 15235,14210 Z"/>
             <path fill="rgb(86,162,210)" stroke="none" d="M 15235,14210 L 15565,14210 15565,14538 15235,14538 15235,14210 Z M 15239,14214 L 15561,14214 15561,14534 15239,14534 15239,14214 Z"/>
             <path fill="rgb(87,162,210)" stroke="none" d="M 15239,14214 L 15561,14214 15561,14534 15239,14534 15239,14214 Z M 15243,14218 L 15557,14218 15557,14530 15243,14530 15243,14218 Z"/>
             <path fill="rgb(88,163,210)" stroke="none" d="M 15243,14218 L 15557,14218 15557,14530 15243,14530 15243,14218 Z M 15247,14222 L 15553,14222 15553,14526 15247,14526 15247,14222 Z"/>
             <path fill="rgb(89,164,211)" stroke="none" d="M 15247,14222 L 15553,14222 15553,14526 15247,14526 15247,14222 Z M 15251,14226 L 15549,14226 15549,14522 15251,14522 15251,14226 Z"/>
             <path fill="rgb(90,164,211)" stroke="none" d="M 15251,14226 L 15549,14226 15549,14522 15251,14522 15251,14226 Z M 15255,14230 L 15545,14230 15545,14518 15255,14518 15255,14230 Z"/>
             <path fill="rgb(91,165,211)" stroke="none" d="M 15255,14230 L 15545,14230 15545,14518 15255,14518 15255,14230 Z M 15259,14234 L 15541,14234 15541,14514 15259,14514 15259,14234 Z"/>
             <path fill="rgb(92,165,211)" stroke="none" d="M 15259,14234 L 15541,14234 15541,14514 15259,14514 15259,14234 Z M 15263,14238 L 15537,14238 15537,14510 15263,14510 15263,14238 Z"/>
             <path fill="rgb(93,166,212)" stroke="none" d="M 15263,14238 L 15537,14238 15537,14510 15263,14510 15263,14238 Z M 15267,14242 L 15533,14242 15533,14506 15267,14506 15267,14242 Z"/>
             <path fill="rgb(94,166,212)" stroke="none" d="M 15267,14242 L 15533,14242 15533,14506 15267,14506 15267,14242 Z M 15271,14246 L 15529,14246 15529,14502 15271,14502 15271,14246 Z"/>
             <path fill="rgb(95,167,212)" stroke="none" d="M 15271,14246 L 15529,14246 15529,14502 15271,14502 15271,14246 Z M 15276,14250 L 15524,14250 15524,14498 15276,14498 15276,14250 Z"/>
             <path fill="rgb(96,167,212)" stroke="none" d="M 15276,14250 L 15524,14250 15524,14498 15276,14498 15276,14250 Z M 15280,14254 L 15520,14254 15520,14494 15280,14494 15280,14254 Z"/>
             <path fill="rgb(97,168,213)" stroke="none" d="M 15280,14254 L 15520,14254 15520,14494 15280,14494 15280,14254 Z M 15284,14258 L 15516,14258 15516,14490 15284,14490 15284,14258 Z"/>
             <path fill="rgb(98,169,213)" stroke="none" d="M 15284,14258 L 15516,14258 15516,14490 15284,14490 15284,14258 Z M 15288,14262 L 15512,14262 15512,14486 15288,14486 15288,14262 Z"/>
             <path fill="rgb(99,169,213)" stroke="none" d="M 15288,14262 L 15512,14262 15512,14486 15288,14486 15288,14262 Z M 15292,14266 L 15508,14266 15508,14482 15292,14482 15292,14266 Z"/>
             <path fill="rgb(100,170,213)" stroke="none" d="M 15292,14266 L 15508,14266 15508,14482 15292,14482 15292,14266 Z M 15296,14270 L 15504,14270 15504,14478 15296,14478 15296,14270 Z"/>
             <path fill="rgb(101,170,214)" stroke="none" d="M 15296,14270 L 15504,14270 15504,14478 15296,14478 15296,14270 Z M 15300,14274 L 15500,14274 15500,14474 15300,14474 15300,14274 Z"/>
             <path fill="rgb(102,171,214)" stroke="none" d="M 15300,14274 L 15500,14274 15500,14474 15300,14474 15300,14274 Z M 15304,14278 L 15496,14278 15496,14470 15304,14470 15304,14278 Z"/>
             <path fill="rgb(103,171,214)" stroke="none" d="M 15304,14278 L 15496,14278 15496,14470 15304,14470 15304,14278 Z M 15308,14282 L 15492,14282 15492,14466 15308,14466 15308,14282 Z"/>
             <path fill="rgb(104,172,215)" stroke="none" d="M 15308,14282 L 15492,14282 15492,14466 15308,14466 15308,14282 Z M 15312,14286 L 15488,14286 15488,14462 15312,14462 15312,14286 Z"/>
             <path fill="rgb(105,172,215)" stroke="none" d="M 15312,14286 L 15488,14286 15488,14462 15312,14462 15312,14286 Z M 15316,14290 L 15484,14290 15484,14458 15316,14458 15316,14290 Z"/>
             <path fill="rgb(106,173,215)" stroke="none" d="M 15316,14290 L 15484,14290 15484,14458 15316,14458 15316,14290 Z M 15320,14294 L 15480,14294 15480,14454 15320,14454 15320,14294 Z"/>
             <path fill="rgb(107,173,215)" stroke="none" d="M 15320,14294 L 15480,14294 15480,14454 15320,14454 15320,14294 Z M 15324,14298 L 15476,14298 15476,14450 15324,14450 15324,14298 Z"/>
             <path fill="rgb(108,174,216)" stroke="none" d="M 15324,14298 L 15476,14298 15476,14450 15324,14450 15324,14298 Z M 15328,14302 L 15472,14302 15472,14446 15328,14446 15328,14302 Z"/>
             <path fill="rgb(109,175,216)" stroke="none" d="M 15328,14302 L 15472,14302 15472,14446 15328,14446 15328,14302 Z M 15332,14306 L 15468,14306 15468,14442 15332,14442 15332,14306 Z"/>
             <path fill="rgb(110,175,216)" stroke="none" d="M 15332,14306 L 15468,14306 15468,14442 15332,14442 15332,14306 Z M 15336,14310 L 15464,14310 15464,14438 15336,14438 15336,14310 Z"/>
             <path fill="rgb(111,176,216)" stroke="none" d="M 15336,14310 L 15464,14310 15464,14438 15336,14438 15336,14310 Z M 15340,14314 L 15460,14314 15460,14434 15340,14434 15340,14314 Z"/>
             <path fill="rgb(112,176,217)" stroke="none" d="M 15340,14314 L 15460,14314 15460,14434 15340,14434 15340,14314 Z M 15344,14318 L 15456,14318 15456,14430 15344,14430 15344,14318 Z"/>
             <path fill="rgb(113,177,217)" stroke="none" d="M 15344,14318 L 15456,14318 15456,14430 15344,14430 15344,14318 Z M 15348,14322 L 15452,14322 15452,14426 15348,14426 15348,14322 Z"/>
             <path fill="rgb(114,177,217)" stroke="none" d="M 15348,14322 L 15452,14322 15452,14426 15348,14426 15348,14322 Z M 15352,14326 L 15448,14326 15448,14422 15352,14422 15352,14326 Z"/>
             <path fill="rgb(115,178,217)" stroke="none" d="M 15352,14326 L 15448,14326 15448,14422 15352,14422 15352,14326 Z M 15356,14330 L 15444,14330 15444,14418 15356,14418 15356,14330 Z"/>
             <path fill="rgb(116,178,218)" stroke="none" d="M 15356,14330 L 15444,14330 15444,14418 15356,14418 15356,14330 Z M 15360,14334 L 15440,14334 15440,14414 15360,14414 15360,14334 Z"/>
             <path fill="rgb(117,179,218)" stroke="none" d="M 15360,14334 L 15440,14334 15440,14414 15360,14414 15360,14334 Z M 15364,14338 L 15436,14338 15436,14410 15364,14410 15364,14338 Z"/>
             <path fill="rgb(118,180,218)" stroke="none" d="M 15364,14338 L 15436,14338 15436,14410 15364,14410 15364,14338 Z M 15368,14342 L 15432,14342 15432,14406 15368,14406 15368,14342 Z"/>
             <path fill="rgb(119,180,218)" stroke="none" d="M 15368,14342 L 15432,14342 15432,14406 15368,14406 15368,14342 Z M 15372,14346 L 15428,14346 15428,14402 15372,14402 15372,14346 Z"/>
             <path fill="rgb(120,181,219)" stroke="none" d="M 15372,14346 L 15428,14346 15428,14402 15372,14402 15372,14346 Z M 15376,14350 L 15424,14350 15424,14398 15376,14398 15376,14350 Z"/>
             <path fill="rgb(121,181,219)" stroke="none" d="M 15376,14350 L 15424,14350 15424,14398 15376,14398 15376,14350 Z M 15380,14354 L 15420,14354 15420,14394 15380,14394 15380,14354 Z"/>
             <path fill="rgb(122,182,219)" stroke="none" d="M 15380,14354 L 15420,14354 15420,14394 15380,14394 15380,14354 Z M 15384,14358 L 15416,14358 15416,14390 15384,14390 15384,14358 Z"/>
             <path fill="rgb(123,182,219)" stroke="none" d="M 15384,14358 L 15416,14358 15416,14390 15384,14390 15384,14358 Z M 15388,14362 L 15412,14362 15412,14386 15388,14386 15388,14362 Z"/>
             <path fill="rgb(124,183,220)" stroke="none" d="M 15388,14362 L 15412,14362 15412,14386 15388,14386 15388,14362 Z M 15392,14366 L 15408,14366 15408,14382 15392,14382 15392,14366 Z"/>
             <path fill="rgb(125,183,220)" stroke="none" d="M 15392,14366 L 15408,14366 15408,14382 15392,14382 15392,14366 Z M 15396,14370 L 15404,14370 15404,14378 15396,14378 15396,14370 Z"/>
             <path fill="rgb(127,185,221)" stroke="none" d="M 15396,14370 L 15404,14370 15404,14378 15396,14378 15396,14370 Z"/>
            </g>
           </pattern>
          </defs>
          <path style="fill:url(#pattern2)" d="M 15605,14071 L 15658,14074 15710,14081 15759,14093 15807,14110 15852,14131 15894,14155 15933,14184 15969,14217 16002,14252 16031,14291 16056,14333 16077,14377 16094,14424 16106,14474 16113,14525 16116,14578 16113,14631 16106,14683 16094,14732 16077,14779 16056,14823 16031,14865 16002,14904 15969,14940 15933,14972 15894,15001 15852,15026 15807,15047 15759,15064 15710,15076 15658,15083 15605,15086 15552,15083 15500,15076 15451,15064 15403,15047 15359,15026 15317,15001 15278,14972 15242,14940 15209,14904 15180,14865 15155,14823 15134,14779 15117,14732 15105,14683 15098,14631 15095,14578 15098,14525 15105,14474 15117,14424 15134,14377 15155,14333 15180,14291 15209,14252 15242,14217 15278,14184 15317,14155 15359,14131 15403,14110 15451,14093 15500,14081 15552,14074 15605,14071 Z"/>
         </g>
         <path fill="none" stroke="rgb(0,0,0)" stroke-width="40" stroke-linejoin="round" d="M 15605,14071 C 15894,14071 16116,14290 16116,14578 16116,14866 15894,15086 15605,15086 15316,15086 15095,14866 15095,14578 15095,14290 15316,14071 15605,14071 Z"/>
        </g>
       </g>
       <g class="com.sun.star.drawing.PolyPolygonShape">
        <g id="id22">
         <rect class="BoundingBox" stroke="none" fill="none" x="15302" y="14084" width="665" height="991"/>
         <path fill="rgb(57,181,74)" stroke="none" d="M 15323,14170 L 15436,14170 15493,14137 15606,14104 15776,14170 15663,14170 15720,14268 15550,14431 15493,14464 15436,14497 15550,14563 15606,14628 15776,14628 15946,14726 15833,14923 15663,15054 15663,14858 15550,14726 15606,14661 15493,14563 15380,14530 15323,14399 15323,14170 Z"/>
         <path fill="none" stroke="rgb(128,128,128)" stroke-width="40" stroke-linejoin="round" d="M 15323,14170 L 15436,14170 15493,14137 15606,14104 15776,14170 15663,14170 15720,14268 15550,14431 15493,14464 15436,14497 15550,14563 15606,14628 15776,14628 15946,14726 15833,14923 15663,15054 15663,14858 15550,14726 15606,14661 15493,14563 15380,14530 15323,14399 15323,14170 Z"/>
        </g>
       </g>
       <g class="com.sun.star.drawing.ClosedBezierShape">
        <g id="id23">
         <rect class="BoundingBox" stroke="none" fill="none" x="15813" y="14143" width="299" height="474"/>
         <path fill="rgb(57,181,74)" stroke="none" d="M 16060,14596 L 16060,14563 16003,14465 16003,14366 15946,14235 15833,14170 C 15946,14105 16173,14530 16060,14596 Z"/>
         <path fill="none" stroke="rgb(128,128,128)" stroke-width="40" stroke-linejoin="round" d="M 16060,14596 L 16060,14563 16003,14465 16003,14366 15946,14235 15833,14170 C 15946,14105 16173,14530 16060,14596 Z"/>
        </g>
       </g>
       <g class="Group">
        <g class="com.sun.star.drawing.LineShape">
         <g id="id24">
          <rect class="BoundingBox" stroke="none" fill="none" x="15473" y="14477" width="98" height="270"/>
          <path fill="none" stroke="rgb(255,255,255)" stroke-width="40" stroke-linejoin="round" d="M 15550,14726 L 15493,14497"/>
         </g>
        </g>
        <g class="com.sun.star.drawing.LineShape">
         <g id="id25">
          <rect class="BoundingBox" stroke="none" fill="none" x="15529" y="14543" width="98" height="205"/>
          <path fill="none" stroke="rgb(255,255,255)" stroke-width="40" stroke-linejoin="round" d="M 15549,14727 L 15606,14563"/>
         </g>
        </g>
        <g class="com.sun.star.drawing.LineShape">
         <g id="id26">
          <rect class="BoundingBox" stroke="none" fill="none" x="15586" y="14543" width="98" height="205"/>
          <path fill="none" stroke="rgb(255,255,255)" stroke-width="40" stroke-linejoin="round" d="M 15663,14727 L 15606,14563"/>
         </g>
        </g>
        <g class="com.sun.star.drawing.LineShape">
         <g id="id27">
          <rect class="BoundingBox" stroke="none" fill="none" x="15643" y="14477" width="98" height="270"/>
          <path fill="none" stroke="rgb(255,255,255)" stroke-width="40" stroke-linejoin="round" d="M 15663,14726 L 15720,14497"/>
         </g>
        </g>
       </g>
       <g class="Group">
        <g class="com.sun.star.drawing.LineShape">
         <g id="id28">
          <rect class="BoundingBox" stroke="none" fill="none" x="15813" y="14477" width="98" height="270"/>
          <path fill="none" stroke="rgb(255,255,255)" stroke-width="40" stroke-linejoin="round" d="M 15890,14726 L 15833,14497"/>
         </g>
        </g>
        <g class="com.sun.star.drawing.LineShape">
         <g id="id29">
          <rect class="BoundingBox" stroke="none" fill="none" x="15869" y="14543" width="98" height="205"/>
          <path fill="none" stroke="rgb(255,255,255)" stroke-width="40" stroke-linejoin="round" d="M 15889,14727 L 15946,14563"/>
         </g>
        </g>
        <g class="com.sun.star.drawing.LineShape">
         <g id="id30">
          <rect class="BoundingBox" stroke="none" fill="none" x="15926" y="14543" width="98" height="205"/>
          <path fill="none" stroke="rgb(255,255,255)" stroke-width="40" stroke-linejoin="round" d="M 16003,14727 L 15946,14563"/>
         </g>
        </g>
        <g class="com.sun.star.drawing.LineShape">
         <g id="id31">
          <rect class="BoundingBox" stroke="none" fill="none" x="15983" y="14477" width="98" height="270"/>
          <path fill="none" stroke="rgb(255,255,255)" stroke-width="40" stroke-linejoin="round" d="M 16003,14726 L 16060,14497"/>
         </g>
        </g>
       </g>
       <g class="Group">
        <g class="com.sun.star.drawing.LineShape">
         <g id="id32">
          <rect class="BoundingBox" stroke="none" fill="none" x="15133" y="14477" width="98" height="270"/>
          <path fill="none" stroke="rgb(255,255,255)" stroke-width="40" stroke-linejoin="round" d="M 15210,14726 L 15153,14497"/>
         </g>
        </g>
        <g class="com.sun.star.drawing.LineShape">
         <g id="id33">
          <rect class="BoundingBox" stroke="none" fill="none" x="15189" y="14543" width="98" height="205"/>
          <path fill="none" stroke="rgb(255,255,255)" stroke-width="40" stroke-linejoin="round" d="M 15209,14727 L 15266,14563"/>
         </g>
        </g>
        <g class="com.sun.star.drawing.LineShape">
         <g id="id34">
          <rect class="BoundingBox" stroke="none" fill="none" x="15246" y="14543" width="98" height="205"/>
          <path fill="none" stroke="rgb(255,255,255)" stroke-width="40" stroke-linejoin="round" d="M 15323,14727 L 15266,14563"/>
         </g>
        </g>
        <g class="com.sun.star.drawing.LineShape">
         <g id="id35">
          <rect class="BoundingBox" stroke="none" fill="none" x="15303" y="14477" width="98" height="270"/>
          <path fill="none" stroke="rgb(255,255,255)" stroke-width="40" stroke-linejoin="round" d="M 15323,14726 L 15380,14497"/>
         </g>
        </g>
       </g>
      </g>
     </g>
    </g>
   </g>
  </g>
 </g>
</svg>