<?xml version="1.0" encoding="UTF-8"?>
<!DOCTYPE svg PUBLIC "-//W3C//DTD SVG 1.1//EN" "http://www.w3.org/Graphics/SVG/1.1/DTD/svg11.dtd">
<svg version="1.2" width="59.18mm" height="50.6mm" viewBox="9983 20586 5918 5060" preserveAspectRatio="xMidYMid" fill-rule="evenodd" stroke-width="28.222" stroke-linejoin="round" xmlns="http://www.w3.org/2000/svg" xmlns:ooo="http://xml.openoffice.org/svg/export" xmlns:xlink="http://www.w3.org/1999/xlink" xmlns:presentation="http://sun.com/xmlns/staroffice/presentation" xmlns:smil="http://www.w3.org/2001/SMIL20/" xmlns:anim="urn:oasis:names:tc:opendocument:xmlns:animation:1.0" xml:space="preserve">
 <defs class="ClipPathGroup">
  <clipPath id="presentation_clip_path" clipPathUnits="userSpaceOnUse">
   <rect x="9983" y="20586" width="5918" height="5060"/>
  </clipPath>
 </defs>
 <defs class="TextShapeIndex">
  <g ooo:slide="id1" ooo:id-list="id3 id4 id5 id6 id7 id8 id9 id10 id11 id12 id13 id14 id15 id16 id17 id18 id19 id20 id21 id22 id23 id24 id25 id26 id27 id28 id29 id30 id31 id32 id33 id34 id35 id36 id37 id38 id39 id40 id41 id42 id43 id44 id45 id46 id47 id48 id49"/>
 </defs>
 <defs class="EmbeddedBulletChars">
  <g id="bullet-char-template(57356)" transform="scale(0.00048828125,-0.00048828125)">
   <path d="M 580,1141 L 1163,571 580,0 -4,571 580,1141 Z"/>
  </g>
  <g id="bullet-char-template(57354)" transform="scale(0.00048828125,-0.00048828125)">
   <path d="M 8,1128 L 1137,1128 1137,0 8,0 8,1128 Z"/>
  </g>
  <g id="bullet-char-template(10146)" transform="scale(0.00048828125,-0.00048828125)">
   <path d="M 174,0 L 602,739 174,1481 1456,739 174,0 Z M 1358,739 L 309,1346 659,739 1358,739 Z"/>
  </g>
  <g id="bullet-char-template(10132)" transform="scale(0.00048828125,-0.00048828125)">
   <path d="M 2015,739 L 1276,0 717,0 1260,543 174,543 174,936 1260,936 717,1481 1274,1481 2015,739 Z"/>
  </g>
  <g id="bullet-char-template(10007)" transform="scale(0.00048828125,-0.00048828125)">
   <path d="M 0,-2 C -7,14 -16,27 -25,37 L 356,567 C 262,823 215,952 215,954 215,979 228,992 255,992 264,992 276,990 289,987 310,991 331,999 354,1012 L 381,999 492,748 772,1049 836,1024 860,1049 C 881,1039 901,1025 922,1006 886,937 835,863 770,784 769,783 710,716 594,584 L 774,223 C 774,196 753,168 711,139 L 727,119 C 717,90 699,76 672,76 641,76 570,178 457,381 L 164,-76 C 142,-110 111,-127 72,-127 30,-127 9,-110 8,-76 1,-67 -2,-52 -2,-32 -2,-23 -1,-13 0,-2 Z"/>
  </g>
  <g id="bullet-char-template(10004)" transform="scale(0.00048828125,-0.00048828125)">
   <path d="M 285,-33 C 182,-33 111,30 74,156 52,228 41,333 41,471 41,549 55,616 82,672 116,743 169,778 240,778 293,778 328,747 346,684 L 369,508 C 377,444 397,411 428,410 L 1163,1116 C 1174,1127 1196,1133 1229,1133 1271,1133 1292,1118 1292,1087 L 1292,965 C 1292,929 1282,901 1262,881 L 442,47 C 390,-6 338,-33 285,-33 Z"/>
  </g>
  <g id="bullet-char-template(9679)" transform="scale(0.00048828125,-0.00048828125)">
   <path d="M 813,0 C 632,0 489,54 383,161 276,268 223,411 223,592 223,773 276,916 383,1023 489,1130 632,1184 813,1184 992,1184 1136,1130 1245,1023 1353,916 1407,772 1407,592 1407,412 1353,268 1245,161 1136,54 992,0 813,0 Z"/>
  </g>
  <g id="bullet-char-template(8226)" transform="scale(0.00048828125,-0.00048828125)">
   <path d="M 346,457 C 273,457 209,483 155,535 101,586 74,649 74,723 74,796 101,859 155,911 209,963 273,989 346,989 419,989 480,963 531,910 582,859 608,796 608,723 608,648 583,586 532,535 482,483 420,457 346,457 Z"/>
  </g>
  <g id="bullet-char-template(8211)" transform="scale(0.00048828125,-0.00048828125)">
   <path d="M -4,459 L 1135,459 1135,606 -4,606 -4,459 Z"/>
  </g>
 </defs>
 <defs class="TextEmbeddedBitmaps"/>
 <g class="SlideGroup">
  <g>
   <g id="id1" class="Slide" clip-path="url(#presentation_clip_path)">
    <g class="Page">
     <g class="Group">
      <g class="com.sun.star.drawing.ClosedBezierShape">
       <g id="id3">
        <rect class="BoundingBox" stroke="none" fill="none" x="13862" y="24447" width="2040" height="1181"/>
        <path fill="rgb(221,221,221)" stroke="none" d="M 13863,25626 C 14157,25626 15900,25068 15900,24820 15900,24572 15766,24448 15471,24448 15471,24634 13863,25377 13863,25626 Z"/>
        <path fill="none" stroke="rgb(221,221,221)" d="M 13863,25626 C 14157,25626 15900,25068 15900,24820 15900,24572 15766,24448 15471,24448 15471,24634 13863,25377 13863,25626 Z"/>
       </g>
      </g>
      <g class="Group">
       <g class="com.sun.star.drawing.PolyPolygonShape">
        <g id="id4">
         <rect class="BoundingBox" stroke="none" fill="none" x="9983" y="21516" width="1328" height="2645"/>
         <g>
          <defs>
           <linearGradient id="gradient1" x1="10002" y1="22837" x2="11291" y2="22837" gradientUnits="userSpaceOnUse">
            <stop offset="0.1" style="stop-color:rgb(179,179,179)"/>
            <stop offset="1" style="stop-color:rgb(229,229,229)"/>
           </linearGradient>
          </defs>
          <path style="fill:url(#gradient1)" d="M 10003,23395 L 10003,21536 11290,22280 11290,24139 10003,23395 Z"/>
         </g>
         <path fill="none" stroke="rgb(255,255,255)" stroke-width="40" stroke-linejoin="round" d="M 10003,23395 L 10003,21536 11290,22280 11290,24139 10003,23395 Z"/>
        </g>
       </g>
       <g class="com.sun.star.drawing.PolyPolygonShape">
        <g id="id5">
         <rect class="BoundingBox" stroke="none" fill="none" x="13842" y="22817" width="1650" height="2830"/>
         <g>
          <defs>
           <pattern id="pattern1" x="13863" y="22837" width="1609" height="2790" patternUnits="userSpaceOnUse">
            <g transform="translate(-13863,-22837)">
             <path fill="rgb(179,179,179)" stroke="none" d="M 13862,22836 L 15472,22836 15472,25627 13862,25627 13862,22836 Z M 13557,22305 L 15133,22305 15133,25040 13557,25040 13557,22305 Z"/>
             <path fill="rgb(180,180,180)" stroke="none" d="M 13557,22305 L 15133,22305 15133,25040 13557,25040 13557,22305 Z M 13573,22333 L 15117,22333 15117,25012 13573,25012 13573,22333 Z"/>
             <path fill="rgb(181,181,181)" stroke="none" d="M 13573,22333 L 15117,22333 15117,25012 13573,25012 13573,22333 Z M 13589,22361 L 15101,22361 15101,24984 13589,24984 13589,22361 Z"/>
             <path fill="rgb(182,182,182)" stroke="none" d="M 13589,22361 L 15101,22361 15101,24984 13589,24984 13589,22361 Z M 13605,22389 L 15085,22389 15085,24956 13605,24956 13605,22389 Z"/>
             <path fill="rgb(183,183,183)" stroke="none" d="M 13605,22389 L 15085,22389 15085,24956 13605,24956 13605,22389 Z M 13621,22417 L 15069,22417 15069,24928 13621,24928 13621,22417 Z"/>
             <path fill="rgb(184,184,184)" stroke="none" d="M 13621,22417 L 15069,22417 15069,24928 13621,24928 13621,22417 Z M 13637,22445 L 15053,22445 15053,24900 13637,24900 13637,22445 Z"/>
             <path fill="rgb(185,185,185)" stroke="none" d="M 13637,22445 L 15053,22445 15053,24900 13637,24900 13637,22445 Z M 13653,22473 L 15037,22473 15037,24872 13653,24872 13653,22473 Z"/>
             <path fill="rgb(186,186,186)" stroke="none" d="M 13653,22473 L 15037,22473 15037,24872 13653,24872 13653,22473 Z M 13669,22501 L 15021,22501 15021,24844 13669,24844 13669,22501 Z"/>
             <path fill="rgb(187,187,187)" stroke="none" d="M 13669,22501 L 15021,22501 15021,24844 13669,24844 13669,22501 Z M 13685,22529 L 15005,22529 15005,24816 13685,24816 13685,22529 Z"/>
             <path fill="rgb(188,188,188)" stroke="none" d="M 13685,22529 L 15005,22529 15005,24816 13685,24816 13685,22529 Z M 13702,22557 L 14988,22557 14988,24788 13702,24788 13702,22557 Z"/>
             <path fill="rgb(189,189,189)" stroke="none" d="M 13702,22557 L 14988,22557 14988,24788 13702,24788 13702,22557 Z M 13718,22585 L 14972,22585 14972,24760 13718,24760 13718,22585 Z"/>
             <path fill="rgb(190,190,190)" stroke="none" d="M 13718,22585 L 14972,22585 14972,24760 13718,24760 13718,22585 Z M 13734,22613 L 14956,22613 14956,24732 13734,24732 13734,22613 Z"/>
             <path fill="rgb(191,191,191)" stroke="none" d="M 13734,22613 L 14956,22613 14956,24732 13734,24732 13734,22613 Z M 13750,22640 L 14940,22640 14940,24705 13750,24705 13750,22640 Z"/>
             <path fill="rgb(192,192,192)" stroke="none" d="M 13750,22640 L 14940,22640 14940,24705 13750,24705 13750,22640 Z M 13766,22668 L 14924,22668 14924,24677 13766,24677 13766,22668 Z"/>
             <path fill="rgb(193,193,193)" stroke="none" d="M 13766,22668 L 14924,22668 14924,24677 13766,24677 13766,22668 Z M 13782,22696 L 14908,22696 14908,24649 13782,24649 13782,22696 Z"/>
             <path fill="rgb(194,194,194)" stroke="none" d="M 13782,22696 L 14908,22696 14908,24649 13782,24649 13782,22696 Z M 13798,22724 L 14892,22724 14892,24621 13798,24621 13798,22724 Z"/>
             <path fill="rgb(195,195,195)" stroke="none" d="M 13798,22724 L 14892,22724 14892,24621 13798,24621 13798,22724 Z M 13814,22752 L 14876,22752 14876,24593 13814,24593 13814,22752 Z"/>
             <path fill="rgb(196,196,196)" stroke="none" d="M 13814,22752 L 14876,22752 14876,24593 13814,24593 13814,22752 Z M 13830,22780 L 14860,22780 14860,24565 13830,24565 13830,22780 Z"/>
             <path fill="rgb(197,197,197)" stroke="none" d="M 13830,22780 L 14860,22780 14860,24565 13830,24565 13830,22780 Z M 13846,22808 L 14843,22808 14843,24537 13846,24537 13846,22808 Z"/>
             <path fill="rgb(198,198,198)" stroke="none" d="M 13846,22808 L 14843,22808 14843,24537 13846,24537 13846,22808 Z M 13862,22835 L 14827,22835 14827,24509 13862,24509 13862,22835 Z"/>
             <path fill="rgb(199,199,199)" stroke="none" d="M 13862,22835 L 14827,22835 14827,24509 13862,24509 13862,22835 Z M 13878,22863 L 14811,22863 14811,24481 13878,24481 13878,22863 Z"/>
             <path fill="rgb(200,200,200)" stroke="none" d="M 13878,22863 L 14811,22863 14811,24481 13878,24481 13878,22863 Z M 13894,22891 L 14795,22891 14795,24453 13894,24453 13894,22891 Z"/>
             <path fill="rgb(201,201,201)" stroke="none" d="M 13894,22891 L 14795,22891 14795,24453 13894,24453 13894,22891 Z M 13910,22919 L 14779,22919 14779,24425 13910,24425 13910,22919 Z"/>
             <path fill="rgb(202,202,202)" stroke="none" d="M 13910,22919 L 14779,22919 14779,24425 13910,24425 13910,22919 Z M 13926,22947 L 14763,22947 14763,24397 13926,24397 13926,22947 Z"/>
             <path fill="rgb(203,203,203)" stroke="none" d="M 13926,22947 L 14763,22947 14763,24397 13926,24397 13926,22947 Z M 13942,22975 L 14747,22975 14747,24369 13942,24369 13942,22975 Z"/>
             <path fill="rgb(204,204,204)" stroke="none" d="M 13942,22975 L 14747,22975 14747,24369 13942,24369 13942,22975 Z M 13958,23002 L 14731,23002 14731,24342 13958,24342 13958,23002 Z"/>
             <path fill="rgb(205,205,205)" stroke="none" d="M 13958,23002 L 14731,23002 14731,24342 13958,24342 13958,23002 Z M 13974,23030 L 14715,23030 14715,24314 13974,24314 13974,23030 Z"/>
             <path fill="rgb(206,206,206)" stroke="none" d="M 13974,23030 L 14715,23030 14715,24314 13974,24314 13974,23030 Z M 13991,23058 L 14698,23058 14698,24286 13991,24286 13991,23058 Z"/>
             <path fill="rgb(207,207,207)" stroke="none" d="M 13991,23058 L 14698,23058 14698,24286 13991,24286 13991,23058 Z M 14007,23086 L 14682,23086 14682,24258 14007,24258 14007,23086 Z"/>
             <path fill="rgb(208,208,208)" stroke="none" d="M 14007,23086 L 14682,23086 14682,24258 14007,24258 14007,23086 Z M 14023,23114 L 14666,23114 14666,24230 14023,24230 14023,23114 Z"/>
             <path fill="rgb(209,209,209)" stroke="none" d="M 14023,23114 L 14666,23114 14666,24230 14023,24230 14023,23114 Z M 14039,23142 L 14650,23142 14650,24202 14039,24202 14039,23142 Z"/>
             <path fill="rgb(210,210,210)" stroke="none" d="M 14039,23142 L 14650,23142 14650,24202 14039,24202 14039,23142 Z M 14055,23170 L 14634,23170 14634,24174 14055,24174 14055,23170 Z"/>
             <path fill="rgb(211,211,211)" stroke="none" d="M 14055,23170 L 14634,23170 14634,24174 14055,24174 14055,23170 Z M 14071,23198 L 14618,23198 14618,24146 14071,24146 14071,23198 Z"/>
             <path fill="rgb(212,212,212)" stroke="none" d="M 14071,23198 L 14618,23198 14618,24146 14071,24146 14071,23198 Z M 14087,23226 L 14602,23226 14602,24118 14087,24118 14087,23226 Z"/>
             <path fill="rgb(213,213,213)" stroke="none" d="M 14087,23226 L 14602,23226 14602,24118 14087,24118 14087,23226 Z M 14103,23254 L 14586,23254 14586,24090 14103,24090 14103,23254 Z"/>
             <path fill="rgb(214,214,214)" stroke="none" d="M 14103,23254 L 14586,23254 14586,24090 14103,24090 14103,23254 Z M 14119,23282 L 14570,23282 14570,24062 14119,24062 14119,23282 Z"/>
             <path fill="rgb(215,215,215)" stroke="none" d="M 14119,23282 L 14570,23282 14570,24062 14119,24062 14119,23282 Z M 14136,23310 L 14553,23310 14553,24034 14136,24034 14136,23310 Z"/>
             <path fill="rgb(216,216,216)" stroke="none" d="M 14136,23310 L 14553,23310 14553,24034 14136,24034 14136,23310 Z M 14152,23337 L 14537,23337 14537,24007 14152,24007 14152,23337 Z"/>
             <path fill="rgb(217,217,217)" stroke="none" d="M 14152,23337 L 14537,23337 14537,24007 14152,24007 14152,23337 Z M 14168,23365 L 14521,23365 14521,23979 14168,23979 14168,23365 Z"/>
             <path fill="rgb(218,218,218)" stroke="none" d="M 14168,23365 L 14521,23365 14521,23979 14168,23979 14168,23365 Z M 14184,23393 L 14505,23393 14505,23951 14184,23951 14184,23393 Z"/>
             <path fill="rgb(219,219,219)" stroke="none" d="M 14184,23393 L 14505,23393 14505,23951 14184,23951 14184,23393 Z M 14200,23421 L 14489,23421 14489,23923 14200,23923 14200,23421 Z"/>
             <path fill="rgb(220,220,220)" stroke="none" d="M 14200,23421 L 14489,23421 14489,23923 14200,23923 14200,23421 Z M 14216,23449 L 14473,23449 14473,23895 14216,23895 14216,23449 Z"/>
             <path fill="rgb(221,221,221)" stroke="none" d="M 14216,23449 L 14473,23449 14473,23895 14216,23895 14216,23449 Z M 14232,23477 L 14457,23477 14457,23867 14232,23867 14232,23477 Z"/>
             <path fill="rgb(222,222,222)" stroke="none" d="M 14232,23477 L 14457,23477 14457,23867 14232,23867 14232,23477 Z M 14248,23505 L 14441,23505 14441,23839 14248,23839 14248,23505 Z"/>
             <path fill="rgb(223,223,223)" stroke="none" d="M 14248,23505 L 14441,23505 14441,23839 14248,23839 14248,23505 Z M 14264,23533 L 14425,23533 14425,23811 14264,23811 14264,23533 Z"/>
             <path fill="rgb(224,224,224)" stroke="none" d="M 14264,23533 L 14425,23533 14425,23811 14264,23811 14264,23533 Z M 14281,23561 L 14408,23561 14408,23783 14281,23783 14281,23561 Z"/>
             <path fill="rgb(225,225,225)" stroke="none" d="M 14281,23561 L 14408,23561 14408,23783 14281,23783 14281,23561 Z M 14297,23589 L 14392,23589 14392,23755 14297,23755 14297,23589 Z"/>
             <path fill="rgb(226,226,226)" stroke="none" d="M 14297,23589 L 14392,23589 14392,23755 14297,23755 14297,23589 Z M 14313,23617 L 14376,23617 14376,23727 14313,23727 14313,23617 Z"/>
             <path fill="rgb(227,227,227)" stroke="none" d="M 14313,23617 L 14376,23617 14376,23727 14313,23727 14313,23617 Z M 14329,23645 L 14360,23645 14360,23699 14329,23699 14329,23645 Z"/>
             <path fill="rgb(229,229,229)" stroke="none" d="M 14329,23645 L 14360,23645 14360,23699 14329,23699 14329,23645 Z"/>
            </g>
           </pattern>
          </defs>
          <path style="fill:url(#pattern1)" d="M 13863,25626 L 13863,23767 15471,22837 15471,24696 13863,25626 Z"/>
         </g>
         <path fill="none" stroke="rgb(255,255,255)" stroke-width="40" stroke-linejoin="round" d="M 13863,25626 L 13863,23767 15471,22837 15471,24696 13863,25626 Z"/>
        </g>
       </g>
       <g class="com.sun.star.drawing.PolyPolygonShape">
        <g id="id6">
         <rect class="BoundingBox" stroke="none" fill="none" x="9983" y="20585" width="2936" height="1715"/>
         <g>
          <defs>
           <linearGradient id="gradient2" x1="11450" y1="20606" x2="11450" y2="22279" gradientUnits="userSpaceOnUse">
            <stop offset="0.1" style="stop-color:rgb(179,179,179)"/>
            <stop offset="1" style="stop-color:rgb(229,229,229)"/>
           </linearGradient>
          </defs>
          <path style="fill:url(#gradient2)" d="M 11290,22279 L 10003,21536 11611,20606 12898,21350 11290,22279 Z"/>
         </g>
         <path fill="none" stroke="rgb(255,255,255)" stroke-width="40" stroke-linejoin="round" d="M 11290,22279 L 10003,21536 11611,20606 12898,21350 11290,22279 Z"/>
        </g>
       </g>
       <g class="com.sun.star.drawing.PolyPolygonShape">
        <g id="id7">
         <rect class="BoundingBox" stroke="none" fill="none" x="9983" y="21516" width="1328" height="1157"/>
         <path fill="rgb(127,127,127)" stroke="none" d="M 10003,21908 L 10003,21536 11290,22280 11290,22652 10003,21908 Z"/>
         <path fill="none" stroke="rgb(0,0,0)" stroke-width="40" stroke-linejoin="round" d="M 10003,21908 L 10003,21536 11290,22280 11290,22652 10003,21908 Z"/>
        </g>
       </g>
       <g class="com.sun.star.drawing.PolyPolygonShape">
        <g id="id8">
         <rect class="BoundingBox" stroke="none" fill="none" x="11270" y="22569" width="470" height="1838"/>
         <g>
          <defs>
           <linearGradient id="gradient3" x1="11289" y1="23487" x2="11720" y2="23487" gradientUnits="userSpaceOnUse">
            <stop offset="0.1" style="stop-color:rgb(179,179,179)"/>
            <stop offset="1" style="stop-color:rgb(229,229,229)"/>
           </linearGradient>
          </defs>
          <path style="fill:url(#gradient3)" d="M 11290,24138 L 11290,22589 11719,22837 11719,24386 11290,24138 Z"/>
         </g>
         <path fill="none" stroke="rgb(255,255,255)" stroke-width="40" stroke-linejoin="round" d="M 11290,24138 L 11290,22589 11719,22837 11719,24386 11290,24138 Z"/>
        </g>
       </g>
       <g class="com.sun.star.drawing.PolyPolygonShape">
        <g id="id9">
         <rect class="BoundingBox" stroke="none" fill="none" x="11376" y="22817" width="256" height="351"/>
         <path fill="rgb(127,127,127)" stroke="none" d="M 11397,23023 L 11397,22837 11611,22961 11611,23147 11397,23023 Z"/>
         <path fill="none" stroke="rgb(0,0,0)" stroke-width="40" stroke-linejoin="round" d="M 11397,23023 L 11397,22837 11611,22961 11611,23147 11397,23023 Z"/>
        </g>
       </g>
       <g class="com.sun.star.drawing.LineShape">
        <g id="id10">
         <rect class="BoundingBox" stroke="none" fill="none" x="10197" y="20710" width="1435" height="847"/>
         <path fill="none" stroke="rgb(127,127,127)" stroke-width="40" stroke-linejoin="round" d="M 10217,21536 L 11611,20730"/>
        </g>
       </g>
       <g class="com.sun.star.drawing.LineShape">
        <g id="id11">
         <rect class="BoundingBox" stroke="none" fill="none" x="10305" y="20772" width="1435" height="847"/>
         <path fill="none" stroke="rgb(127,127,127)" stroke-width="40" stroke-linejoin="round" d="M 10325,21598 L 11719,20792"/>
        </g>
       </g>
       <g class="com.sun.star.drawing.LineShape">
        <g id="id12">
         <rect class="BoundingBox" stroke="none" fill="none" x="10412" y="20834" width="1435" height="847"/>
         <path fill="none" stroke="rgb(127,127,127)" stroke-width="40" stroke-linejoin="round" d="M 10432,21660 L 11826,20854"/>
        </g>
       </g>
       <g class="com.sun.star.drawing.LineShape">
        <g id="id13">
         <rect class="BoundingBox" stroke="none" fill="none" x="10519" y="20896" width="1435" height="847"/>
         <path fill="none" stroke="rgb(127,127,127)" stroke-width="40" stroke-linejoin="round" d="M 10539,21722 L 11933,20916"/>
        </g>
       </g>
       <g class="com.sun.star.drawing.LineShape">
        <g id="id14">
         <rect class="BoundingBox" stroke="none" fill="none" x="10626" y="20958" width="1435" height="847"/>
         <path fill="none" stroke="rgb(127,127,127)" stroke-width="40" stroke-linejoin="round" d="M 10646,21784 L 12040,20978"/>
        </g>
       </g>
       <g class="com.sun.star.drawing.LineShape">
        <g id="id15">
         <rect class="BoundingBox" stroke="none" fill="none" x="10734" y="21020" width="1435" height="847"/>
         <path fill="none" stroke="rgb(127,127,127)" stroke-width="40" stroke-linejoin="round" d="M 10754,21846 L 12148,21040"/>
        </g>
       </g>
       <g class="com.sun.star.drawing.LineShape">
        <g id="id16">
         <rect class="BoundingBox" stroke="none" fill="none" x="10841" y="21082" width="1435" height="847"/>
         <path fill="none" stroke="rgb(127,127,127)" stroke-width="40" stroke-linejoin="round" d="M 10861,21908 L 12255,21102"/>
        </g>
       </g>
       <g class="com.sun.star.drawing.LineShape">
        <g id="id17">
         <rect class="BoundingBox" stroke="none" fill="none" x="10948" y="21144" width="1435" height="847"/>
         <path fill="none" stroke="rgb(127,127,127)" stroke-width="40" stroke-linejoin="round" d="M 10968,21970 L 12362,21164"/>
        </g>
       </g>
       <g class="com.sun.star.drawing.LineShape">
        <g id="id18">
         <rect class="BoundingBox" stroke="none" fill="none" x="11055" y="21206" width="1435" height="847"/>
         <path fill="none" stroke="rgb(127,127,127)" stroke-width="40" stroke-linejoin="round" d="M 11075,22032 L 12469,21226"/>
        </g>
       </g>
       <g class="com.sun.star.drawing.LineShape">
        <g id="id19">
         <rect class="BoundingBox" stroke="none" fill="none" x="11162" y="21268" width="1435" height="847"/>
         <path fill="none" stroke="rgb(127,127,127)" stroke-width="40" stroke-linejoin="round" d="M 11182,22094 L 12576,21288"/>
        </g>
       </g>
       <g class="com.sun.star.drawing.PolyPolygonShape">
        <g id="id20">
         <rect class="BoundingBox" stroke="none" fill="none" x="11698" y="21330" width="3794" height="2210"/>
         <g>
          <defs>
           <linearGradient id="gradient4" x1="13594" y1="21350" x2="13594" y2="23519" gradientUnits="userSpaceOnUse">
            <stop offset="0.1" style="stop-color:rgb(179,179,179)"/>
            <stop offset="1" style="stop-color:rgb(229,229,229)"/>
           </linearGradient>
          </defs>
          <path style="fill:url(#gradient4)" d="M 14291,23519 L 11718,22032 12897,21350 15471,22837 14291,23519 Z"/>
         </g>
         <path fill="none" stroke="rgb(255,255,255)" stroke-width="40" stroke-linejoin="round" d="M 14291,23519 L 11718,22032 12897,21350 15471,22837 14291,23519 Z"/>
        </g>
       </g>
       <g class="com.sun.star.drawing.PolyPolygonShape">
        <g id="id21">
         <rect class="BoundingBox" stroke="none" fill="none" x="11270" y="22011" width="899" height="537"/>
         <g>
          <defs>
           <linearGradient id="gradient5" x1="11719" y1="22031" x2="11719" y2="22527" gradientUnits="userSpaceOnUse">
            <stop offset="0.1" style="stop-color:rgb(179,179,179)"/>
            <stop offset="1" style="stop-color:rgb(229,229,229)"/>
           </linearGradient>
          </defs>
          <path style="fill:url(#gradient5)" d="M 11719,22527 L 11290,22279 11719,22031 12148,22279 11719,22527 Z"/>
         </g>
         <path fill="none" stroke="rgb(255,255,255)" stroke-width="40" stroke-linejoin="round" d="M 11719,22527 L 11290,22279 11719,22031 12148,22279 11719,22527 Z"/>
        </g>
       </g>
       <g class="com.sun.star.drawing.PolyPolygonShape">
        <g id="id22">
         <rect class="BoundingBox" stroke="none" fill="none" x="11270" y="22383" width="470" height="537"/>
         <path fill="rgb(127,127,127)" stroke="none" d="M 11290,22651 L 11290,22403 11719,22651 11719,22899 11290,22651 Z"/>
         <path fill="none" stroke="rgb(0,0,0)" stroke-width="40" stroke-linejoin="round" d="M 11290,22651 L 11290,22403 11719,22651 11719,22899 11290,22651 Z"/>
        </g>
       </g>
       <g class="com.sun.star.drawing.PolyPolygonShape">
        <g id="id23">
         <rect class="BoundingBox" stroke="none" fill="none" x="11270" y="22259" width="470" height="414"/>
         <path fill="rgb(230,230,230)" stroke="none" d="M 11290,22403 L 11290,22279 11719,22527 11719,22651 11290,22403 Z"/>
         <path fill="none" stroke="rgb(255,255,255)" stroke-width="40" stroke-linejoin="round" d="M 11290,22403 L 11290,22279 11719,22527 11719,22651 11290,22403 Z"/>
        </g>
       </g>
       <g class="com.sun.star.drawing.PolyPolygonShape">
        <g id="id24">
         <rect class="BoundingBox" stroke="none" fill="none" x="11698" y="22817" width="470" height="1838"/>
         <g>
          <defs>
           <linearGradient id="gradient6" x1="11717" y1="23735" x2="12148" y2="23735" gradientUnits="userSpaceOnUse">
            <stop offset="0.1" style="stop-color:rgb(179,179,179)"/>
            <stop offset="1" style="stop-color:rgb(229,229,229)"/>
           </linearGradient>
          </defs>
          <path style="fill:url(#gradient6)" d="M 11718,24386 L 11718,22837 12147,23085 12147,24634 11718,24386 Z"/>
         </g>
         <path fill="none" stroke="rgb(255,255,255)" stroke-width="40" stroke-linejoin="round" d="M 11718,24386 L 11718,22837 12147,23085 12147,24634 11718,24386 Z"/>
        </g>
       </g>
       <g class="com.sun.star.drawing.PolyPolygonShape">
        <g id="id25">
         <rect class="BoundingBox" stroke="none" fill="none" x="11698" y="22259" width="899" height="537"/>
         <g>
          <defs>
           <linearGradient id="gradient7" x1="12147" y1="22279" x2="12147" y2="22775" gradientUnits="userSpaceOnUse">
            <stop offset="0.1" style="stop-color:rgb(179,179,179)"/>
            <stop offset="1" style="stop-color:rgb(229,229,229)"/>
           </linearGradient>
          </defs>
          <path style="fill:url(#gradient7)" d="M 12147,22775 L 11718,22527 12147,22279 12576,22527 12147,22775 Z"/>
         </g>
         <path fill="none" stroke="rgb(255,255,255)" stroke-width="40" stroke-linejoin="round" d="M 12147,22775 L 11718,22527 12147,22279 12576,22527 12147,22775 Z"/>
        </g>
       </g>
       <g class="com.sun.star.drawing.PolyPolygonShape">
        <g id="id26">
         <rect class="BoundingBox" stroke="none" fill="none" x="11698" y="22631" width="470" height="537"/>
         <path fill="rgb(127,127,127)" stroke="none" d="M 11718,22899 L 11718,22651 12147,22899 12147,23147 11718,22899 Z"/>
         <path fill="none" stroke="rgb(0,0,0)" stroke-width="40" stroke-linejoin="round" d="M 11718,22899 L 11718,22651 12147,22899 12147,23147 11718,22899 Z"/>
        </g>
       </g>
       <g class="com.sun.star.drawing.PolyPolygonShape">
        <g id="id27">
         <rect class="BoundingBox" stroke="none" fill="none" x="11698" y="22507" width="470" height="414"/>
         <path fill="rgb(0,115,188)" stroke="none" d="M 11718,22651 L 11718,22527 12147,22775 12147,22899 11718,22651 Z"/>
         <path fill="none" stroke="rgb(255,255,255)" stroke-width="40" stroke-linejoin="round" d="M 11718,22651 L 11718,22527 12147,22775 12147,22899 11718,22651 Z"/>
        </g>
       </g>
       <g class="com.sun.star.drawing.PolyPolygonShape">
        <g id="id28">
         <rect class="BoundingBox" stroke="none" fill="none" x="12127" y="23065" width="470" height="1838"/>
         <g>
          <defs>
           <linearGradient id="gradient8" x1="12146" y1="23983" x2="12577" y2="23983" gradientUnits="userSpaceOnUse">
            <stop offset="0.1" style="stop-color:rgb(179,179,179)"/>
            <stop offset="1" style="stop-color:rgb(229,229,229)"/>
           </linearGradient>
          </defs>
          <path style="fill:url(#gradient8)" d="M 12147,24634 L 12147,23085 12576,23333 12576,24882 12147,24634 Z"/>
         </g>
         <path fill="none" stroke="rgb(255,255,255)" stroke-width="40" stroke-linejoin="round" d="M 12147,24634 L 12147,23085 12576,23333 12576,24882 12147,24634 Z"/>
        </g>
       </g>
       <g class="com.sun.star.drawing.PolyPolygonShape">
        <g id="id29">
         <rect class="BoundingBox" stroke="none" fill="none" x="12127" y="22507" width="899" height="537"/>
         <g>
          <defs>
           <linearGradient id="gradient9" x1="12576" y1="22527" x2="12576" y2="23023" gradientUnits="userSpaceOnUse">
            <stop offset="0.1" style="stop-color:rgb(179,179,179)"/>
            <stop offset="1" style="stop-color:rgb(229,229,229)"/>
           </linearGradient>
          </defs>
          <path style="fill:url(#gradient9)" d="M 12576,23023 L 12147,22775 12576,22527 13005,22775 12576,23023 Z"/>
         </g>
         <path fill="none" stroke="rgb(255,255,255)" stroke-width="40" stroke-linejoin="round" d="M 12576,23023 L 12147,22775 12576,22527 13005,22775 12576,23023 Z"/>
        </g>
       </g>
       <g class="com.sun.star.drawing.PolyPolygonShape">
        <g id="id30">
         <rect class="BoundingBox" stroke="none" fill="none" x="12127" y="22879" width="470" height="537"/>
         <path fill="rgb(127,127,127)" stroke="none" d="M 12147,23147 L 12147,22899 12576,23147 12576,23395 12147,23147 Z"/>
         <path fill="none" stroke="rgb(0,0,0)" stroke-width="40" stroke-linejoin="round" d="M 12147,23147 L 12147,22899 12576,23147 12576,23395 12147,23147 Z"/>
        </g>
       </g>
       <g class="com.sun.star.drawing.PolyPolygonShape">
        <g id="id31">
         <rect class="BoundingBox" stroke="none" fill="none" x="12127" y="22755" width="470" height="413"/>
         <path fill="rgb(0,115,188)" stroke="none" d="M 12147,22899 L 12147,22775 12576,23023 12576,23147 12147,22899 Z"/>
         <path fill="none" stroke="rgb(255,255,255)" stroke-width="40" stroke-linejoin="round" d="M 12147,22899 L 12147,22775 12576,23023 12576,23147 12147,22899 Z"/>
        </g>
       </g>
       <g class="com.sun.star.drawing.PolyPolygonShape">
        <g id="id32">
         <rect class="BoundingBox" stroke="none" fill="none" x="12556" y="23313" width="470" height="1838"/>
         <g>
          <defs>
           <linearGradient id="gradient10" x1="12575" y1="24231" x2="13006" y2="24231" gradientUnits="userSpaceOnUse">
            <stop offset="0.1" style="stop-color:rgb(179,179,179)"/>
            <stop offset="1" style="stop-color:rgb(229,229,229)"/>
           </linearGradient>
          </defs>
          <path style="fill:url(#gradient10)" d="M 12576,24882 L 12576,23333 13005,23581 13005,25130 12576,24882 Z"/>
         </g>
         <path fill="none" stroke="rgb(255,255,255)" stroke-width="40" stroke-linejoin="round" d="M 12576,24882 L 12576,23333 13005,23581 13005,25130 12576,24882 Z"/>
        </g>
       </g>
       <g class="com.sun.star.drawing.PolyPolygonShape">
        <g id="id33">
         <rect class="BoundingBox" stroke="none" fill="none" x="12556" y="22755" width="899" height="537"/>
         <g>
          <defs>
           <linearGradient id="gradient11" x1="13005" y1="22775" x2="13005" y2="23271" gradientUnits="userSpaceOnUse">
            <stop offset="0.1" style="stop-color:rgb(179,179,179)"/>
            <stop offset="1" style="stop-color:rgb(229,229,229)"/>
           </linearGradient>
          </defs>
          <path style="fill:url(#gradient11)" d="M 13005,23271 L 12576,23023 13005,22775 13434,23023 13005,23271 Z"/>
         </g>
         <path fill="none" stroke="rgb(255,255,255)" stroke-width="40" stroke-linejoin="round" d="M 13005,23271 L 12576,23023 13005,22775 13434,23023 13005,23271 Z"/>
        </g>
       </g>
       <g class="com.sun.star.drawing.PolyPolygonShape">
        <g id="id34">
         <rect class="BoundingBox" stroke="none" fill="none" x="12556" y="23127" width="470" height="537"/>
         <path fill="rgb(127,127,127)" stroke="none" d="M 12576,23395 L 12576,23147 13005,23395 13005,23643 12576,23395 Z"/>
         <path fill="none" stroke="rgb(0,0,0)" stroke-width="40" stroke-linejoin="round" d="M 12576,23395 L 12576,23147 13005,23395 13005,23643 12576,23395 Z"/>
        </g>
       </g>
       <g class="com.sun.star.drawing.PolyPolygonShape">
        <g id="id35">
         <rect class="BoundingBox" stroke="none" fill="none" x="12556" y="23003" width="470" height="414"/>
         <path fill="rgb(57,181,74)" stroke="none" d="M 12576,23147 L 12576,23023 13005,23271 13005,23395 12576,23147 Z"/>
         <path fill="none" stroke="rgb(255,255,255)" stroke-width="40" stroke-linejoin="round" d="M 12576,23147 L 12576,23023 13005,23271 13005,23395 12576,23147 Z"/>
        </g>
       </g>
       <g class="com.sun.star.drawing.PolyPolygonShape">
        <g id="id36">
         <rect class="BoundingBox" stroke="none" fill="none" x="12985" y="23561" width="470" height="1838"/>
         <g>
          <defs>
           <linearGradient id="gradient12" x1="13004" y1="24479" x2="13435" y2="24479" gradientUnits="userSpaceOnUse">
            <stop offset="0.1" style="stop-color:rgb(179,179,179)"/>
            <stop offset="1" style="stop-color:rgb(229,229,229)"/>
           </linearGradient>
          </defs>
          <path style="fill:url(#gradient12)" d="M 13005,25130 L 13005,23581 13434,23829 13434,25378 13005,25130 Z"/>
         </g>
         <path fill="none" stroke="rgb(255,255,255)" stroke-width="40" stroke-linejoin="round" d="M 13005,25130 L 13005,23581 13434,23829 13434,25378 13005,25130 Z"/>
        </g>
       </g>
       <g class="com.sun.star.drawing.PolyPolygonShape">
        <g id="id37">
         <rect class="BoundingBox" stroke="none" fill="none" x="12985" y="23003" width="899" height="537"/>
         <g>
          <defs>
           <linearGradient id="gradient13" x1="13434" y1="23023" x2="13434" y2="23519" gradientUnits="userSpaceOnUse">
            <stop offset="0.1" style="stop-color:rgb(179,179,179)"/>
            <stop offset="1" style="stop-color:rgb(229,229,229)"/>
           </linearGradient>
          </defs>
          <path style="fill:url(#gradient13)" d="M 13434,23519 L 13005,23271 13434,23023 13863,23271 13434,23519 Z"/>
         </g>
         <path fill="none" stroke="rgb(255,255,255)" stroke-width="40" stroke-linejoin="round" d="M 13434,23519 L 13005,23271 13434,23023 13863,23271 13434,23519 Z"/>
        </g>
       </g>
       <g class="com.sun.star.drawing.PolyPolygonShape">
        <g id="id38">
         <rect class="BoundingBox" stroke="none" fill="none" x="12985" y="23375" width="470" height="537"/>
         <path fill="rgb(127,127,127)" stroke="none" d="M 13005,23643 L 13005,23395 13434,23643 13434,23891 13005,23643 Z"/>
         <path fill="none" stroke="rgb(0,0,0)" stroke-width="40" stroke-linejoin="round" d="M 13005,23643 L 13005,23395 13434,23643 13434,23891 13005,23643 Z"/>
        </g>
       </g>
       <g class="com.sun.star.drawing.PolyPolygonShape">
        <g id="id39">
         <rect class="BoundingBox" stroke="none" fill="none" x="12985" y="23251" width="470" height="414"/>
         <path fill="rgb(230,230,230)" stroke="none" d="M 13005,23395 L 13005,23271 13434,23519 13434,23643 13005,23395 Z"/>
         <path fill="none" stroke="rgb(255,255,255)" stroke-width="40" stroke-linejoin="round" d="M 13005,23395 L 13005,23271 13434,23519 13434,23643 13005,23395 Z"/>
        </g>
       </g>
       <g class="com.sun.star.drawing.PolyPolygonShape">
        <g id="id40">
         <rect class="BoundingBox" stroke="none" fill="none" x="13414" y="23809" width="470" height="1838"/>
         <g>
          <defs>
           <linearGradient id="gradient14" x1="13433" y1="24727" x2="13864" y2="24727" gradientUnits="userSpaceOnUse">
            <stop offset="0.1" style="stop-color:rgb(179,179,179)"/>
            <stop offset="1" style="stop-color:rgb(229,229,229)"/>
           </linearGradient>
          </defs>
          <path style="fill:url(#gradient14)" d="M 13434,25378 L 13434,23829 13863,24077 13863,25626 13434,25378 Z"/>
         </g>
         <path fill="none" stroke="rgb(255,255,255)" stroke-width="40" stroke-linejoin="round" d="M 13434,25378 L 13434,23829 13863,24077 13863,25626 13434,25378 Z"/>
        </g>
       </g>
       <g class="com.sun.star.drawing.PolyPolygonShape">
        <g id="id41">
         <rect class="BoundingBox" stroke="none" fill="none" x="13414" y="23251" width="899" height="537"/>
         <g>
          <defs>
           <linearGradient id="gradient15" x1="13863" y1="23271" x2="13863" y2="23767" gradientUnits="userSpaceOnUse">
            <stop offset="0.1" style="stop-color:rgb(179,179,179)"/>
            <stop offset="1" style="stop-color:rgb(229,229,229)"/>
           </linearGradient>
          </defs>
          <path style="fill:url(#gradient15)" d="M 13863,23767 L 13434,23519 13863,23271 14292,23519 13863,23767 Z"/>
         </g>
         <path fill="none" stroke="rgb(255,255,255)" stroke-width="40" stroke-linejoin="round" d="M 13863,23767 L 13434,23519 13863,23271 14292,23519 13863,23767 Z"/>
        </g>
       </g>
       <g class="com.sun.star.drawing.PolyPolygonShape">
        <g id="id42">
         <rect class="BoundingBox" stroke="none" fill="none" x="13414" y="23623" width="470" height="537"/>
         <path fill="rgb(127,127,127)" stroke="none" d="M 13434,23891 L 13434,23643 13863,23891 13863,24139 13434,23891 Z"/>
         <path fill="none" stroke="rgb(0,0,0)" stroke-width="40" stroke-linejoin="round" d="M 13434,23891 L 13434,23643 13863,23891 13863,24139 13434,23891 Z"/>
        </g>
       </g>
       <g class="com.sun.star.drawing.PolyPolygonShape">
        <g id="id43">
         <rect class="BoundingBox" stroke="none" fill="none" x="13414" y="23499" width="470" height="414"/>
         <path fill="rgb(190,30,45)" stroke="none" d="M 13434,23643 L 13434,23519 13863,23767 13863,23891 13434,23643 Z"/>
         <path fill="none" stroke="rgb(255,255,255)" stroke-width="40" stroke-linejoin="round" d="M 13434,23643 L 13434,23519 13863,23767 13863,23891 13434,23643 Z"/>
        </g>
       </g>
       <g class="com.sun.star.drawing.PolyPolygonShape">
        <g id="id44">
         <rect class="BoundingBox" stroke="none" fill="none" x="9983" y="20586" width="5509" height="5061"/>
         <path fill="none" stroke="rgb(0,0,0)" stroke-width="40" stroke-linejoin="round" d="M 10003,23395 L 10003,21536 11611,20606 15471,22837 15471,24696 13863,25626 10003,23395 Z"/>
        </g>
       </g>
       <g class="com.sun.star.drawing.LineShape">
        <g id="id45">
         <rect class="BoundingBox" stroke="none" fill="none" x="12235" y="21640" width="1006" height="599"/>
         <path fill="none" stroke="rgb(127,127,127)" stroke-width="40" stroke-linejoin="round" d="M 12255,22218 L 13220,21660"/>
        </g>
       </g>
       <g class="com.sun.star.drawing.LineShape">
        <g id="id46">
         <rect class="BoundingBox" stroke="none" fill="none" x="12663" y="21887" width="1006" height="599"/>
         <path fill="none" stroke="rgb(127,127,127)" stroke-width="40" stroke-linejoin="round" d="M 12683,22465 L 13648,21907"/>
        </g>
       </g>
       <g class="com.sun.star.drawing.LineShape">
        <g id="id47">
         <rect class="BoundingBox" stroke="none" fill="none" x="13092" y="22135" width="1006" height="599"/>
         <path fill="none" stroke="rgb(127,127,127)" stroke-width="40" stroke-linejoin="round" d="M 13112,22713 L 14077,22155"/>
        </g>
       </g>
       <g class="com.sun.star.drawing.LineShape">
        <g id="id48">
         <rect class="BoundingBox" stroke="none" fill="none" x="13521" y="22383" width="1006" height="599"/>
         <path fill="none" stroke="rgb(127,127,127)" stroke-width="40" stroke-linejoin="round" d="M 13541,22961 L 14506,22403"/>
        </g>
       </g>
       <g class="com.sun.star.drawing.LineShape">
        <g id="id49">
         <rect class="BoundingBox" stroke="none" fill="none" x="13950" y="22631" width="1006" height="599"/>
         <path fill="none" stroke="rgb(127,127,127)" stroke-width="40" stroke-linejoin="round" d="M 13970,23209 L 14935,22651"/>
        </g>
       </g>
      </g>
     </g>
    </g>
   </g>
  </g>
 </g>
</svg>