<?xml version="1.0" encoding="UTF-8"?>
<!DOCTYPE svg PUBLIC "-//W3C//DTD SVG 1.1//EN" "http://www.w3.org/Graphics/SVG/1.1/DTD/svg11.dtd">
<svg version="1.2" width="31.19mm" height="30.5mm" viewBox="20120 18066 3119 3050" preserveAspectRatio="xMidYMid" fill-rule="evenodd" stroke-width="28.222" stroke-linejoin="round" xmlns="http://www.w3.org/2000/svg" xmlns:ooo="http://xml.openoffice.org/svg/export" xmlns:xlink="http://www.w3.org/1999/xlink" xmlns:presentation="http://sun.com/xmlns/staroffice/presentation" xmlns:smil="http://www.w3.org/2001/SMIL20/" xmlns:anim="urn:oasis:names:tc:opendocument:xmlns:animation:1.0" xml:space="preserve">
 <defs class="ClipPathGroup">
  <clipPath id="presentation_clip_path" clipPathUnits="userSpaceOnUse">
   <rect x="20120" y="18066" width="3119" height="3050"/>
  </clipPath>
 </defs>
 <defs class="TextShapeIndex">
  <g ooo:slide="id1" ooo:id-list="id3 id4 id5 id6 id7 id8 id9 id10 id11 id12 id13 id14 id15"/>
 </defs>
 <defs class="EmbeddedBulletChars">
  <g id="bullet-char-template(57356)" transform="scale(0.00048828125,-0.00048828125)">
   <path d="M 580,1141 L 1163,571 580,0 -4,571 580,1141 Z"/>
  </g>
  <g id="bullet-char-template(57354)" transform="scale(0.00048828125,-0.00048828125)">
   <path d="M 8,1128 L 1137,1128 1137,0 8,0 8,1128 Z"/>
  </g>
  <g id="bullet-char-template(10146)" transform="scale(0.00048828125,-0.00048828125)">
   <path d="M 174,0 L 602,739 174,1481 1456,739 174,0 Z M 1358,739 L 309,1346 659,739 1358,739 Z"/>
  </g>
  <g id="bullet-char-template(10132)" transform="scale(0.00048828125,-0.00048828125)">
   <path d="M 2015,739 L 1276,0 717,0 1260,543 174,543 174,936 1260,936 717,1481 1274,1481 2015,739 Z"/>
  </g>
  <g id="bullet-char-template(10007)" transform="scale(0.00048828125,-0.00048828125)">
   <path d="M 0,-2 C -7,14 -16,27 -25,37 L 356,567 C 262,823 215,952 215,954 215,979 228,992 255,992 264,992 276,990 289,987 310,991 331,999 354,1012 L 381,999 492,748 772,1049 836,1024 860,1049 C 881,1039 901,1025 922,1006 886,937 835,863 770,784 769,783 710,716 594,584 L 774,223 C 774,196 753,168 711,139 L 727,119 C 717,90 699,76 672,76 641,76 570,178 457,381 L 164,-76 C 142,-110 111,-127 72,-127 30,-127 9,-110 8,-76 1,-67 -2,-52 -2,-32 -2,-23 -1,-13 0,-2 Z"/>
  </g>
  <g id="bullet-char-template(10004)" transform="scale(0.00048828125,-0.00048828125)">
   <path d="M 285,-33 C 182,-33 111,30 74,156 52,228 41,333 41,471 41,549 55,616 82,672 116,743 169,778 240,778 293,778 328,747 346,684 L 369,508 C 377,444 397,411 428,410 L 1163,1116 C 1174,1127 1196,1133 1229,1133 1271,1133 1292,1118 1292,1087 L 1292,965 C 1292,929 1282,901 1262,881 L 442,47 C 390,-6 338,-33 285,-33 Z"/>
  </g>
  <g id="bullet-char-template(9679)" transform="scale(0.00048828125,-0.00048828125)">
   <path d="M 813,0 C 632,0 489,54 383,161 276,268 223,411 223,592 223,773 276,916 383,1023 489,1130 632,1184 813,1184 992,1184 1136,1130 1245,1023 1353,916 1407,772 1407,592 1407,412 1353,268 1245,161 1136,54 992,0 813,0 Z"/>
  </g>
  <g id="bullet-char-template(8226)" transform="scale(0.00048828125,-0.00048828125)">
   <path d="M 346,457 C 273,457 209,483 155,535 101,586 74,649 74,723 74,796 101,859 155,911 209,963 273,989 346,989 419,989 480,963 531,910 582,859 608,796 608,723 608,648 583,586 532,535 482,483 420,457 346,457 Z"/>
  </g>
  <g id="bullet-char-template(8211)" transform="scale(0.00048828125,-0.00048828125)">
   <path d="M -4,459 L 1135,459 1135,606 -4,606 -4,459 Z"/>
  </g>
 </defs>
 <defs class="TextEmbeddedBitmaps"/>
 <g class="SlideGroup">
  <g>
   <g id="id1" class="Slide" clip-path="url(#presentation_clip_path)">
    <g class="Page">
     <g class="Group">
      <g class="com.sun.star.drawing.ClosedBezierShape">
       <g id="id3">
        <rect class="BoundingBox" stroke="none" fill="none" x="22563" y="20732" width="677" height="383"/>
        <path fill="rgb(221,221,221)" stroke="none" d="M 22564,21096 C 22811,21096 22929,21166 23172,21026 23414,20886 22923,20733 22833,20733 22833,20889 22564,20888 22564,21096 Z"/>
        <path fill="none" stroke="rgb(221,221,221)" d="M 22564,21096 C 22811,21096 22929,21166 23172,21026 23414,20886 22923,20733 22833,20733 22833,20889 22564,20888 22564,21096 Z"/>
       </g>
      </g>
      <g class="Group">
       <g class="com.sun.star.drawing.PolyPolygonShape">
        <g id="id4">
         <rect class="BoundingBox" stroke="none" fill="none" x="20658" y="19727" width="1927" height="1390"/>
         <g>
          <defs>
           <linearGradient id="gradient1" x1="20679" y1="20421" x2="22564" y2="20421" gradientUnits="userSpaceOnUse">
            <stop offset="0.1" style="stop-color:rgb(179,179,179)"/>
            <stop offset="1" style="stop-color:rgb(229,229,229)"/>
           </linearGradient>
          </defs>
          <path style="fill:url(#gradient1)" d="M 20679,20006 L 20679,19747 22564,20837 22564,21096 20679,20006 Z"/>
         </g>
         <path fill="none" stroke="rgb(255,255,255)" stroke-width="40" stroke-linejoin="round" d="M 20679,20006 L 20679,19747 22564,20837 22564,21096 20679,20006 Z"/>
        </g>
       </g>
       <g class="com.sun.star.drawing.PolyPolygonShape">
        <g id="id5">
         <rect class="BoundingBox" stroke="none" fill="none" x="20478" y="19570" width="1927" height="1391"/>
         <g>
          <defs>
           <linearGradient id="gradient2" x1="20499" y1="20265" x2="22384" y2="20265" gradientUnits="userSpaceOnUse">
            <stop offset="0.1" style="stop-color:rgb(179,179,179)"/>
            <stop offset="1" style="stop-color:rgb(229,229,229)"/>
           </linearGradient>
          </defs>
          <path style="fill:url(#gradient2)" d="M 20499,19850 L 20499,19591 22384,20681 22384,20940 20499,19850 Z"/>
         </g>
         <path fill="none" stroke="rgb(255,255,255)" stroke-width="40" stroke-linejoin="round" d="M 20499,19850 L 20499,19591 22384,20681 22384,20940 20499,19850 Z"/>
        </g>
       </g>
       <g class="com.sun.star.drawing.PolyPolygonShape">
        <g id="id6">
         <rect class="BoundingBox" stroke="none" fill="none" x="20300" y="19414" width="1926" height="1391"/>
         <g>
          <defs>
           <linearGradient id="gradient3" x1="20320" y1="20109" x2="22205" y2="20109" gradientUnits="userSpaceOnUse">
            <stop offset="0.1" style="stop-color:rgb(179,179,179)"/>
            <stop offset="1" style="stop-color:rgb(229,229,229)"/>
           </linearGradient>
          </defs>
          <path style="fill:url(#gradient3)" d="M 20320,19694 L 20320,19435 22205,20525 22205,20784 20320,19694 Z"/>
         </g>
         <path fill="none" stroke="rgb(255,255,255)" stroke-width="40" stroke-linejoin="round" d="M 20320,19694 L 20320,19435 22205,20525 22205,20784 20320,19694 Z"/>
        </g>
       </g>
       <g class="com.sun.star.drawing.PolyPolygonShape">
        <g id="id7">
         <rect class="BoundingBox" stroke="none" fill="none" x="20120" y="18065" width="2734" height="1599"/>
         <g>
          <defs>
           <linearGradient id="gradient4" x1="21486" y1="18086" x2="21486" y2="19643" gradientUnits="userSpaceOnUse">
            <stop offset="0.1" style="stop-color:rgb(179,179,179)"/>
            <stop offset="1" style="stop-color:rgb(229,229,229)"/>
           </linearGradient>
          </defs>
          <path style="fill:url(#gradient4)" d="M 22025,19643 L 20140,18553 20948,18086 22833,19176 22025,19643 Z"/>
         </g>
         <path fill="none" stroke="rgb(255,255,255)" stroke-width="40" stroke-linejoin="round" d="M 22025,19643 L 20140,18553 20948,18086 22833,19176 22025,19643 Z"/>
        </g>
       </g>
       <g class="com.sun.star.drawing.PolyPolygonShape">
        <g id="id8">
         <rect class="BoundingBox" stroke="none" fill="none" x="22365" y="20817" width="131" height="197"/>
         <path fill="rgb(127,127,127)" stroke="none" d="M 22385,20941 L 22385,20837 22475,20889 22475,20993 22385,20941 Z"/>
         <path fill="none" stroke="rgb(0,0,0)" stroke-width="40" stroke-linejoin="round" d="M 22385,20941 L 22385,20837 22475,20889 22475,20993 22385,20941 Z"/>
        </g>
       </g>
       <g class="com.sun.star.drawing.PolyPolygonShape">
        <g id="id9">
         <rect class="BoundingBox" stroke="none" fill="none" x="22185" y="20661" width="131" height="197"/>
         <path fill="rgb(127,127,127)" stroke="none" d="M 22205,20785 L 22205,20681 22295,20733 22295,20837 22205,20785 Z"/>
         <path fill="none" stroke="rgb(0,0,0)" stroke-width="40" stroke-linejoin="round" d="M 22205,20785 L 22205,20681 22295,20733 22295,20837 22205,20785 Z"/>
        </g>
       </g>
       <g class="com.sun.star.drawing.PolyPolygonShape">
        <g id="id10">
         <rect class="BoundingBox" stroke="none" fill="none" x="20120" y="18533" width="1926" height="2117"/>
         <g>
          <defs>
           <linearGradient id="gradient5" x1="20138" y1="19591" x2="22026" y2="19591" gradientUnits="userSpaceOnUse">
            <stop offset="0.1" style="stop-color:rgb(179,179,179)"/>
            <stop offset="1" style="stop-color:rgb(229,229,229)"/>
           </linearGradient>
          </defs>
          <path style="fill:url(#gradient5)" d="M 20140,19539 L 20140,18553 22025,19643 22025,20629 20140,19539 Z"/>
         </g>
         <path fill="none" stroke="rgb(255,255,255)" stroke-width="40" stroke-linejoin="round" d="M 20140,19539 L 20140,18553 22025,19643 22025,20629 20140,19539 Z"/>
        </g>
       </g>
       <g class="com.sun.star.drawing.PolyPolygonShape">
        <g id="id11">
         <rect class="BoundingBox" stroke="none" fill="none" x="22005" y="20505" width="131" height="197"/>
         <path fill="rgb(127,127,127)" stroke="none" d="M 22025,20629 L 22025,20525 22115,20577 22115,20681 22025,20629 Z"/>
         <path fill="none" stroke="rgb(0,0,0)" stroke-width="40" stroke-linejoin="round" d="M 22025,20629 L 22025,20525 22115,20577 22115,20681 22025,20629 Z"/>
        </g>
       </g>
       <g class="com.sun.star.drawing.PolyPolygonShape">
        <g id="id12">
         <rect class="BoundingBox" stroke="none" fill="none" x="22005" y="19156" width="849" height="1961"/>
         <g>
          <defs>
           <pattern id="pattern1" x="22025" y="19176" width="809" height="1921" patternUnits="userSpaceOnUse">
            <g transform="translate(-22025,-19176)">
             <path fill="rgb(179,179,179)" stroke="none" d="M 22024,19175 L 22834,19175 22834,21097 22024,21097 22024,19175 Z M 21871,18810 L 22663,18810 22663,20692 21871,20692 21871,18810 Z"/>
             <path fill="rgb(180,180,180)" stroke="none" d="M 21871,18810 L 22663,18810 22663,20692 21871,20692 21871,18810 Z M 21879,18829 L 22655,18829 22655,20673 21879,20673 21879,18829 Z"/>
             <path fill="rgb(181,181,181)" stroke="none" d="M 21879,18829 L 22655,18829 22655,20673 21879,20673 21879,18829 Z M 21887,18848 L 22647,18848 22647,20654 21887,20654 21887,18848 Z"/>
             <path fill="rgb(182,182,182)" stroke="none" d="M 21887,18848 L 22647,18848 22647,20654 21887,20654 21887,18848 Z M 21895,18867 L 22639,18867 22639,20635 21895,20635 21895,18867 Z"/>
             <path fill="rgb(183,183,183)" stroke="none" d="M 21895,18867 L 22639,18867 22639,20635 21895,20635 21895,18867 Z M 21903,18887 L 22631,18887 22631,20615 21903,20615 21903,18887 Z"/>
             <path fill="rgb(184,184,184)" stroke="none" d="M 21903,18887 L 22631,18887 22631,20615 21903,20615 21903,18887 Z M 21911,18906 L 22623,18906 22623,20596 21911,20596 21911,18906 Z"/>
             <path fill="rgb(185,185,185)" stroke="none" d="M 21911,18906 L 22623,18906 22623,20596 21911,20596 21911,18906 Z M 21919,18925 L 22615,18925 22615,20577 21919,20577 21919,18925 Z"/>
             <path fill="rgb(186,186,186)" stroke="none" d="M 21919,18925 L 22615,18925 22615,20577 21919,20577 21919,18925 Z M 21927,18944 L 22607,18944 22607,20558 21927,20558 21927,18944 Z"/>
             <path fill="rgb(187,187,187)" stroke="none" d="M 21927,18944 L 22607,18944 22607,20558 21927,20558 21927,18944 Z M 21935,18964 L 22599,18964 22599,20538 21935,20538 21935,18964 Z"/>
             <path fill="rgb(188,188,188)" stroke="none" d="M 21935,18964 L 22599,18964 22599,20538 21935,20538 21935,18964 Z M 21944,18983 L 22590,18983 22590,20519 21944,20519 21944,18983 Z"/>
             <path fill="rgb(189,189,189)" stroke="none" d="M 21944,18983 L 22590,18983 22590,20519 21944,20519 21944,18983 Z M 21952,19002 L 22582,19002 22582,20500 21952,20500 21952,19002 Z"/>
             <path fill="rgb(190,190,190)" stroke="none" d="M 21952,19002 L 22582,19002 22582,20500 21952,20500 21952,19002 Z M 21960,19021 L 22574,19021 22574,20481 21960,20481 21960,19021 Z"/>
             <path fill="rgb(191,191,191)" stroke="none" d="M 21960,19021 L 22574,19021 22574,20481 21960,20481 21960,19021 Z M 21968,19040 L 22566,19040 22566,20462 21968,20462 21968,19040 Z"/>
             <path fill="rgb(192,192,192)" stroke="none" d="M 21968,19040 L 22566,19040 22566,20462 21968,20462 21968,19040 Z M 21976,19060 L 22558,19060 22558,20442 21976,20442 21976,19060 Z"/>
             <path fill="rgb(193,193,193)" stroke="none" d="M 21976,19060 L 22558,19060 22558,20442 21976,20442 21976,19060 Z M 21984,19079 L 22550,19079 22550,20423 21984,20423 21984,19079 Z"/>
             <path fill="rgb(194,194,194)" stroke="none" d="M 21984,19079 L 22550,19079 22550,20423 21984,20423 21984,19079 Z M 21992,19098 L 22542,19098 22542,20404 21992,20404 21992,19098 Z"/>
             <path fill="rgb(195,195,195)" stroke="none" d="M 21992,19098 L 22542,19098 22542,20404 21992,20404 21992,19098 Z M 22000,19117 L 22534,19117 22534,20385 22000,20385 22000,19117 Z"/>
             <path fill="rgb(196,196,196)" stroke="none" d="M 22000,19117 L 22534,19117 22534,20385 22000,20385 22000,19117 Z M 22007,19137 L 22526,19137 22526,20365 22007,20365 22007,19137 Z"/>
             <path fill="rgb(197,197,197)" stroke="none" d="M 22007,19137 L 22526,19137 22526,20365 22007,20365 22007,19137 Z M 22016,19156 L 22517,19156 22517,20346 22016,20346 22016,19156 Z"/>
             <path fill="rgb(198,198,198)" stroke="none" d="M 22016,19156 L 22517,19156 22517,20346 22016,20346 22016,19156 Z M 22024,19174 L 22509,19174 22509,20327 22024,20327 22024,19174 Z"/>
             <path fill="rgb(199,199,199)" stroke="none" d="M 22024,19174 L 22509,19174 22509,20327 22024,20327 22024,19174 Z M 22032,19193 L 22501,19193 22501,20308 22032,20308 22032,19193 Z"/>
             <path fill="rgb(200,200,200)" stroke="none" d="M 22032,19193 L 22501,19193 22501,20308 22032,20308 22032,19193 Z M 22040,19213 L 22493,19213 22493,20288 22040,20288 22040,19213 Z"/>
             <path fill="rgb(201,201,201)" stroke="none" d="M 22040,19213 L 22493,19213 22493,20288 22040,20288 22040,19213 Z M 22048,19232 L 22485,19232 22485,20269 22048,20269 22048,19232 Z"/>
             <path fill="rgb(202,202,202)" stroke="none" d="M 22048,19232 L 22485,19232 22485,20269 22048,20269 22048,19232 Z M 22056,19251 L 22477,19251 22477,20250 22056,20250 22056,19251 Z"/>
             <path fill="rgb(203,203,203)" stroke="none" d="M 22056,19251 L 22477,19251 22477,20250 22056,20250 22056,19251 Z M 22064,19270 L 22469,19270 22469,20231 22064,20231 22064,19270 Z"/>
             <path fill="rgb(204,204,204)" stroke="none" d="M 22064,19270 L 22469,19270 22469,20231 22064,20231 22064,19270 Z M 22072,19289 L 22461,19289 22461,20212 22072,20212 22072,19289 Z"/>
             <path fill="rgb(205,205,205)" stroke="none" d="M 22072,19289 L 22461,19289 22461,20212 22072,20212 22072,19289 Z M 22080,19309 L 22453,19309 22453,20192 22080,20192 22080,19309 Z"/>
             <path fill="rgb(206,206,206)" stroke="none" d="M 22080,19309 L 22453,19309 22453,20192 22080,20192 22080,19309 Z M 22089,19328 L 22444,19328 22444,20173 22089,20173 22089,19328 Z"/>
             <path fill="rgb(207,207,207)" stroke="none" d="M 22089,19328 L 22444,19328 22444,20173 22089,20173 22089,19328 Z M 22097,19347 L 22436,19347 22436,20154 22097,20154 22097,19347 Z"/>
             <path fill="rgb(208,208,208)" stroke="none" d="M 22097,19347 L 22436,19347 22436,20154 22097,20154 22097,19347 Z M 22105,19366 L 22428,19366 22428,20135 22105,20135 22105,19366 Z"/>
             <path fill="rgb(209,209,209)" stroke="none" d="M 22105,19366 L 22428,19366 22428,20135 22105,20135 22105,19366 Z M 22113,19386 L 22420,19386 22420,20115 22113,20115 22113,19386 Z"/>
             <path fill="rgb(210,210,210)" stroke="none" d="M 22113,19386 L 22420,19386 22420,20115 22113,20115 22113,19386 Z M 22121,19405 L 22412,19405 22412,20096 22121,20096 22121,19405 Z"/>
             <path fill="rgb(211,211,211)" stroke="none" d="M 22121,19405 L 22412,19405 22412,20096 22121,20096 22121,19405 Z M 22129,19424 L 22404,19424 22404,20077 22129,20077 22129,19424 Z"/>
             <path fill="rgb(212,212,212)" stroke="none" d="M 22129,19424 L 22404,19424 22404,20077 22129,20077 22129,19424 Z M 22137,19443 L 22396,19443 22396,20058 22137,20058 22137,19443 Z"/>
             <path fill="rgb(213,213,213)" stroke="none" d="M 22137,19443 L 22396,19443 22396,20058 22137,20058 22137,19443 Z M 22145,19463 L 22388,19463 22388,20038 22145,20038 22145,19463 Z"/>
             <path fill="rgb(214,214,214)" stroke="none" d="M 22145,19463 L 22388,19463 22388,20038 22145,20038 22145,19463 Z M 22153,19482 L 22380,19482 22380,20019 22153,20019 22153,19482 Z"/>
             <path fill="rgb(215,215,215)" stroke="none" d="M 22153,19482 L 22380,19482 22380,20019 22153,20019 22153,19482 Z M 22162,19501 L 22371,19501 22371,20000 22162,20000 22162,19501 Z"/>
             <path fill="rgb(216,216,216)" stroke="none" d="M 22162,19501 L 22371,19501 22371,20000 22162,20000 22162,19501 Z M 22170,19520 L 22363,19520 22363,19981 22170,19981 22170,19520 Z"/>
             <path fill="rgb(217,217,217)" stroke="none" d="M 22170,19520 L 22363,19520 22363,19981 22170,19981 22170,19520 Z M 22178,19539 L 22355,19539 22355,19962 22178,19962 22178,19539 Z"/>
             <path fill="rgb(218,218,218)" stroke="none" d="M 22178,19539 L 22355,19539 22355,19962 22178,19962 22178,19539 Z M 22186,19559 L 22347,19559 22347,19942 22186,19942 22186,19559 Z"/>
             <path fill="rgb(219,219,219)" stroke="none" d="M 22186,19559 L 22347,19559 22347,19942 22186,19942 22186,19559 Z M 22194,19578 L 22339,19578 22339,19923 22194,19923 22194,19578 Z"/>
             <path fill="rgb(220,220,220)" stroke="none" d="M 22194,19578 L 22339,19578 22339,19923 22194,19923 22194,19578 Z M 22202,19597 L 22331,19597 22331,19904 22202,19904 22202,19597 Z"/>
             <path fill="rgb(221,221,221)" stroke="none" d="M 22202,19597 L 22331,19597 22331,19904 22202,19904 22202,19597 Z M 22210,19616 L 22323,19616 22323,19885 22210,19885 22210,19616 Z"/>
             <path fill="rgb(222,222,222)" stroke="none" d="M 22210,19616 L 22323,19616 22323,19885 22210,19885 22210,19616 Z M 22218,19636 L 22315,19636 22315,19865 22218,19865 22218,19636 Z"/>
             <path fill="rgb(223,223,223)" stroke="none" d="M 22218,19636 L 22315,19636 22315,19865 22218,19865 22218,19636 Z M 22226,19655 L 22307,19655 22307,19846 22226,19846 22226,19655 Z"/>
             <path fill="rgb(224,224,224)" stroke="none" d="M 22226,19655 L 22307,19655 22307,19846 22226,19846 22226,19655 Z M 22235,19674 L 22298,19674 22298,19827 22235,19827 22235,19674 Z"/>
             <path fill="rgb(225,225,225)" stroke="none" d="M 22235,19674 L 22298,19674 22298,19827 22235,19827 22235,19674 Z M 22243,19693 L 22290,19693 22290,19808 22243,19808 22243,19693 Z"/>
             <path fill="rgb(226,226,226)" stroke="none" d="M 22243,19693 L 22290,19693 22290,19808 22243,19808 22243,19693 Z M 22251,19713 L 22282,19713 22282,19788 22251,19788 22251,19713 Z"/>
             <path fill="rgb(227,227,227)" stroke="none" d="M 22251,19713 L 22282,19713 22282,19788 22251,19788 22251,19713 Z M 22259,19732 L 22274,19732 22274,19769 22259,19769 22259,19732 Z"/>
             <path fill="rgb(229,229,229)" stroke="none" d="M 22259,19732 L 22274,19732 22274,19769 22259,19769 22259,19732 Z"/>
            </g>
           </pattern>
          </defs>
          <path style="fill:url(#pattern1)" d="M 22564,20837 L 22384,20940 22384,20681 22205,20785 22205,20525 22025,20629 22025,19643 22833,19176 22833,20940 22564,21096 22564,20837 Z"/>
         </g>
         <path fill="none" stroke="rgb(255,255,255)" stroke-width="40" stroke-linejoin="round" d="M 22564,20837 L 22384,20940 22384,20681 22205,20785 22205,20525 22025,20629 22025,19643 22833,19176 22833,20940 22564,21096 22564,20837 Z"/>
        </g>
       </g>
       <g class="com.sun.star.drawing.PolyPolygonShape">
        <g id="id13">
         <rect class="BoundingBox" stroke="none" fill="none" x="20120" y="18066" width="2734" height="3051"/>
         <path fill="none" stroke="rgb(0,0,0)" stroke-width="40" stroke-linejoin="round" d="M 20679,20006 L 20679,19954 20499,19850 20499,19799 20320,19695 20320,19643 20140,19539 20140,18553 20948,18086 22833,19176 22833,20940 22564,21096 20679,20006 Z"/>
        </g>
       </g>
       <g class="com.sun.star.drawing.PolyPolygonShape">
        <g id="id14">
         <rect class="BoundingBox" stroke="none" fill="none" x="20209" y="18896" width="1748" height="1546"/>
         <path fill="rgb(230,230,230)" stroke="none" d="M 20230,19435 L 20230,18916 21936,19902 21936,20421 20230,19435 Z"/>
         <path fill="none" stroke="rgb(153,153,153)" stroke-width="40" stroke-linejoin="round" d="M 20230,19435 L 20230,18916 21936,19902 21936,20421 20230,19435 Z"/>
        </g>
       </g>
       <g class="com.sun.star.drawing.PolyPolygonShape">
        <g id="id15">
         <rect class="BoundingBox" stroke="none" fill="none" x="20210" y="18741" width="132" height="197"/>
         <path fill="rgb(127,127,127)" stroke="none" d="M 20230,18865 L 20230,18761 20320,18813 20320,18917 20230,18865 Z"/>
         <path fill="none" stroke="rgb(0,0,0)" stroke-width="40" stroke-linejoin="round" d="M 20230,18865 L 20230,18761 20320,18813 20320,18917 20230,18865 Z"/>
        </g>
       </g>
      </g>
     </g>
    </g>
   </g>
  </g>
 </g>
</svg>