<?xml version="1.0" encoding="UTF-8"?>
<!DOCTYPE svg PUBLIC "-//W3C//DTD SVG 1.1//EN" "http://www.w3.org/Graphics/SVG/1.1/DTD/svg11.dtd">
<svg version="1.2" width="47.98mm" height="48.3mm" viewBox="3023 857 4798 4830" preserveAspectRatio="xMidYMid" fill-rule="evenodd" stroke-width="28.222" stroke-linejoin="round" xmlns="http://www.w3.org/2000/svg" xmlns:ooo="http://xml.openoffice.org/svg/export" xmlns:xlink="http://www.w3.org/1999/xlink" xmlns:presentation="http://sun.com/xmlns/staroffice/presentation" xmlns:smil="http://www.w3.org/2001/SMIL20/" xmlns:anim="urn:oasis:names:tc:opendocument:xmlns:animation:1.0" xml:space="preserve">
 <defs class="ClipPathGroup">
  <clipPath id="presentation_clip_path" clipPathUnits="userSpaceOnUse">
   <rect x="3023" y="857" width="4798" height="4830"/>
  </clipPath>
 </defs>
 <defs class="TextShapeIndex">
  <g ooo:slide="id1" ooo:id-list="id3 id4 id5 id6 id7 id8 id9 id10 id11 id12 id13 id14 id15 id16 id17 id18 id19 id20 id21 id22 id23 id24 id25 id26 id27 id28 id29 id30 id31 id32 id33"/>
 </defs>
 <defs class="EmbeddedBulletChars">
  <g id="bullet-char-template(57356)" transform="scale(0.00048828125,-0.00048828125)">
   <path d="M 580,1141 L 1163,571 580,0 -4,571 580,1141 Z"/>
  </g>
  <g id="bullet-char-template(57354)" transform="scale(0.00048828125,-0.00048828125)">
   <path d="M 8,1128 L 1137,1128 1137,0 8,0 8,1128 Z"/>
  </g>
  <g id="bullet-char-template(10146)" transform="scale(0.00048828125,-0.00048828125)">
   <path d="M 174,0 L 602,739 174,1481 1456,739 174,0 Z M 1358,739 L 309,1346 659,739 1358,739 Z"/>
  </g>
  <g id="bullet-char-template(10132)" transform="scale(0.00048828125,-0.00048828125)">
   <path d="M 2015,739 L 1276,0 717,0 1260,543 174,543 174,936 1260,936 717,1481 1274,1481 2015,739 Z"/>
  </g>
  <g id="bullet-char-template(10007)" transform="scale(0.00048828125,-0.00048828125)">
   <path d="M 0,-2 C -7,14 -16,27 -25,37 L 356,567 C 262,823 215,952 215,954 215,979 228,992 255,992 264,992 276,990 289,987 310,991 331,999 354,1012 L 381,999 492,748 772,1049 836,1024 860,1049 C 881,1039 901,1025 922,1006 886,937 835,863 770,784 769,783 710,716 594,584 L 774,223 C 774,196 753,168 711,139 L 727,119 C 717,90 699,76 672,76 641,76 570,178 457,381 L 164,-76 C 142,-110 111,-127 72,-127 30,-127 9,-110 8,-76 1,-67 -2,-52 -2,-32 -2,-23 -1,-13 0,-2 Z"/>
  </g>
  <g id="bullet-char-template(10004)" transform="scale(0.00048828125,-0.00048828125)">
   <path d="M 285,-33 C 182,-33 111,30 74,156 52,228 41,333 41,471 41,549 55,616 82,672 116,743 169,778 240,778 293,778 328,747 346,684 L 369,508 C 377,444 397,411 428,410 L 1163,1116 C 1174,1127 1196,1133 1229,1133 1271,1133 1292,1118 1292,1087 L 1292,965 C 1292,929 1282,901 1262,881 L 442,47 C 390,-6 338,-33 285,-33 Z"/>
  </g>
  <g id="bullet-char-template(9679)" transform="scale(0.00048828125,-0.00048828125)">
   <path d="M 813,0 C 632,0 489,54 383,161 276,268 223,411 223,592 223,773 276,916 383,1023 489,1130 632,1184 813,1184 992,1184 1136,1130 1245,1023 1353,916 1407,772 1407,592 1407,412 1353,268 1245,161 1136,54 992,0 813,0 Z"/>
  </g>
  <g id="bullet-char-template(8226)" transform="scale(0.00048828125,-0.00048828125)">
   <path d="M 346,457 C 273,457 209,483 155,535 101,586 74,649 74,723 74,796 101,859 155,911 209,963 273,989 346,989 419,989 480,963 531,910 582,859 608,796 608,723 608,648 583,586 532,535 482,483 420,457 346,457 Z"/>
  </g>
  <g id="bullet-char-template(8211)" transform="scale(0.00048828125,-0.00048828125)">
   <path d="M -4,459 L 1135,459 1135,606 -4,606 -4,459 Z"/>
  </g>
 </defs>
 <defs class="TextEmbeddedBitmaps"/>
 <g class="SlideGroup">
  <g>
   <g id="id1" class="Slide" clip-path="url(#presentation_clip_path)">
    <g class="Page">
     <g class="Group">
      <g class="com.sun.star.drawing.ClosedBezierShape">
       <g id="id3">
        <rect class="BoundingBox" stroke="none" fill="none" x="5967" y="4539" width="1855" height="1130"/>
        <path fill="rgb(221,221,221)" stroke="none" d="M 5968,5667 C 6236,5667 7820,5104 7820,4878 7820,4653 7698,4540 7430,4540 7430,4709 5968,5441 5968,5667 Z"/>
        <path fill="none" stroke="rgb(221,221,221)" d="M 5968,5667 C 6236,5667 7820,5104 7820,4878 7820,4653 7698,4540 7430,4540 7430,4709 5968,5441 5968,5667 Z"/>
       </g>
      </g>
      <g class="Group">
       <g class="com.sun.star.drawing.PolyPolygonShape">
        <g id="id4">
         <rect class="BoundingBox" stroke="none" fill="none" x="3023" y="1702" width="1016" height="2859"/>
         <g>
          <defs>
           <linearGradient id="gradient1" x1="3041" y1="3131" x2="4019" y2="3131" gradientUnits="userSpaceOnUse">
            <stop offset="0.1" style="stop-color:rgb(179,179,179)"/>
            <stop offset="1" style="stop-color:rgb(229,229,229)"/>
           </linearGradient>
          </defs>
          <path style="fill:url(#gradient1)" d="M 3043,3976 L 3043,1722 4018,2286 4018,4540 3043,3976 Z"/>
         </g>
         <path fill="none" stroke="rgb(255,255,255)" stroke-width="40" stroke-linejoin="round" d="M 3043,3976 L 3043,1722 4018,2286 4018,4540 3043,3976 Z"/>
        </g>
       </g>
       <g class="com.sun.star.drawing.PolyPolygonShape">
        <g id="id5">
         <rect class="BoundingBox" stroke="none" fill="none" x="5948" y="2548" width="1503" height="3140"/>
         <g>
          <defs>
           <pattern id="pattern1" x="5968" y="2568" width="1463" height="3100" patternUnits="userSpaceOnUse">
            <g transform="translate(-5968,-2568)">
             <path fill="rgb(179,179,179)" stroke="none" d="M 5967,2567 L 7431,2567 7431,5668 5967,5668 5967,2567 Z M 5689,1978 L 7123,1978 7123,5015 5689,5015 5689,1978 Z"/>
             <path fill="rgb(180,180,180)" stroke="none" d="M 5689,1978 L 7123,1978 7123,5015 5689,5015 5689,1978 Z M 5704,2009 L 7108,2009 7108,4984 5704,4984 5704,2009 Z"/>
             <path fill="rgb(181,181,181)" stroke="none" d="M 5704,2009 L 7108,2009 7108,4984 5704,4984 5704,2009 Z M 5718,2040 L 7094,2040 7094,4953 5718,4953 5718,2040 Z"/>
             <path fill="rgb(182,182,182)" stroke="none" d="M 5718,2040 L 7094,2040 7094,4953 5718,4953 5718,2040 Z M 5733,2071 L 7079,2071 7079,4922 5733,4922 5733,2071 Z"/>
             <path fill="rgb(183,183,183)" stroke="none" d="M 5733,2071 L 7079,2071 7079,4922 5733,4922 5733,2071 Z M 5748,2102 L 7064,2102 7064,4891 5748,4891 5748,2102 Z"/>
             <path fill="rgb(184,184,184)" stroke="none" d="M 5748,2102 L 7064,2102 7064,4891 5748,4891 5748,2102 Z M 5762,2133 L 7050,2133 7050,4860 5762,4860 5762,2133 Z"/>
             <path fill="rgb(185,185,185)" stroke="none" d="M 5762,2133 L 7050,2133 7050,4860 5762,4860 5762,2133 Z M 5777,2164 L 7035,2164 7035,4829 5777,4829 5777,2164 Z"/>
             <path fill="rgb(186,186,186)" stroke="none" d="M 5777,2164 L 7035,2164 7035,4829 5777,4829 5777,2164 Z M 5792,2195 L 7020,2195 7020,4798 5792,4798 5792,2195 Z"/>
             <path fill="rgb(187,187,187)" stroke="none" d="M 5792,2195 L 7020,2195 7020,4798 5792,4798 5792,2195 Z M 5806,2226 L 7006,2226 7006,4767 5806,4767 5806,2226 Z"/>
             <path fill="rgb(188,188,188)" stroke="none" d="M 5806,2226 L 7006,2226 7006,4767 5806,4767 5806,2226 Z M 5821,2257 L 6991,2257 6991,4736 5821,4736 5821,2257 Z"/>
             <path fill="rgb(189,189,189)" stroke="none" d="M 5821,2257 L 6991,2257 6991,4736 5821,4736 5821,2257 Z M 5836,2288 L 6976,2288 6976,4705 5836,4705 5836,2288 Z"/>
             <path fill="rgb(190,190,190)" stroke="none" d="M 5836,2288 L 6976,2288 6976,4705 5836,4705 5836,2288 Z M 5850,2319 L 6962,2319 6962,4674 5850,4674 5850,2319 Z"/>
             <path fill="rgb(191,191,191)" stroke="none" d="M 5850,2319 L 6962,2319 6962,4674 5850,4674 5850,2319 Z M 5865,2350 L 6947,2350 6947,4643 5865,4643 5865,2350 Z"/>
             <path fill="rgb(192,192,192)" stroke="none" d="M 5865,2350 L 6947,2350 6947,4643 5865,4643 5865,2350 Z M 5880,2381 L 6932,2381 6932,4612 5880,4612 5880,2381 Z"/>
             <path fill="rgb(193,193,193)" stroke="none" d="M 5880,2381 L 6932,2381 6932,4612 5880,4612 5880,2381 Z M 5894,2412 L 6918,2412 6918,4581 5894,4581 5894,2412 Z"/>
             <path fill="rgb(194,194,194)" stroke="none" d="M 5894,2412 L 6918,2412 6918,4581 5894,4581 5894,2412 Z M 5909,2443 L 6903,2443 6903,4550 5909,4550 5909,2443 Z"/>
             <path fill="rgb(195,195,195)" stroke="none" d="M 5909,2443 L 6903,2443 6903,4550 5909,4550 5909,2443 Z M 5924,2474 L 6888,2474 6888,4519 5924,4519 5924,2474 Z"/>
             <path fill="rgb(196,196,196)" stroke="none" d="M 5924,2474 L 6888,2474 6888,4519 5924,4519 5924,2474 Z M 5938,2505 L 6874,2505 6874,4488 5938,4488 5938,2505 Z"/>
             <path fill="rgb(197,197,197)" stroke="none" d="M 5938,2505 L 6874,2505 6874,4488 5938,4488 5938,2505 Z M 5952,2536 L 6859,2536 6859,4457 5952,4457 5952,2536 Z"/>
             <path fill="rgb(198,198,198)" stroke="none" d="M 5952,2536 L 6859,2536 6859,4457 5952,4457 5952,2536 Z M 5967,2566 L 6844,2566 6844,4426 5967,4426 5967,2566 Z"/>
             <path fill="rgb(199,199,199)" stroke="none" d="M 5967,2566 L 6844,2566 6844,4426 5967,4426 5967,2566 Z M 5981,2597 L 6830,2597 6830,4395 5981,4395 5981,2597 Z"/>
             <path fill="rgb(200,200,200)" stroke="none" d="M 5981,2597 L 6830,2597 6830,4395 5981,4395 5981,2597 Z M 5996,2628 L 6815,2628 6815,4364 5996,4364 5996,2628 Z"/>
             <path fill="rgb(201,201,201)" stroke="none" d="M 5996,2628 L 6815,2628 6815,4364 5996,4364 5996,2628 Z M 6010,2659 L 6801,2659 6801,4333 6010,4333 6010,2659 Z"/>
             <path fill="rgb(202,202,202)" stroke="none" d="M 6010,2659 L 6801,2659 6801,4333 6010,4333 6010,2659 Z M 6025,2690 L 6786,2690 6786,4302 6025,4302 6025,2690 Z"/>
             <path fill="rgb(203,203,203)" stroke="none" d="M 6025,2690 L 6786,2690 6786,4302 6025,4302 6025,2690 Z M 6040,2721 L 6771,2721 6771,4271 6040,4271 6040,2721 Z"/>
             <path fill="rgb(204,204,204)" stroke="none" d="M 6040,2721 L 6771,2721 6771,4271 6040,4271 6040,2721 Z M 6054,2752 L 6757,2752 6757,4240 6054,4240 6054,2752 Z"/>
             <path fill="rgb(205,205,205)" stroke="none" d="M 6054,2752 L 6757,2752 6757,4240 6054,4240 6054,2752 Z M 6069,2783 L 6742,2783 6742,4209 6069,4209 6069,2783 Z"/>
             <path fill="rgb(206,206,206)" stroke="none" d="M 6069,2783 L 6742,2783 6742,4209 6069,4209 6069,2783 Z M 6084,2814 L 6727,2814 6727,4178 6084,4178 6084,2814 Z"/>
             <path fill="rgb(207,207,207)" stroke="none" d="M 6084,2814 L 6727,2814 6727,4178 6084,4178 6084,2814 Z M 6098,2845 L 6713,2845 6713,4147 6098,4147 6098,2845 Z"/>
             <path fill="rgb(208,208,208)" stroke="none" d="M 6098,2845 L 6713,2845 6713,4147 6098,4147 6098,2845 Z M 6113,2876 L 6698,2876 6698,4116 6113,4116 6113,2876 Z"/>
             <path fill="rgb(209,209,209)" stroke="none" d="M 6113,2876 L 6698,2876 6698,4116 6113,4116 6113,2876 Z M 6128,2907 L 6683,2907 6683,4085 6128,4085 6128,2907 Z"/>
             <path fill="rgb(210,210,210)" stroke="none" d="M 6128,2907 L 6683,2907 6683,4085 6128,4085 6128,2907 Z M 6142,2938 L 6669,2938 6669,4054 6142,4054 6142,2938 Z"/>
             <path fill="rgb(211,211,211)" stroke="none" d="M 6142,2938 L 6669,2938 6669,4054 6142,4054 6142,2938 Z M 6157,2969 L 6654,2969 6654,4023 6157,4023 6157,2969 Z"/>
             <path fill="rgb(212,212,212)" stroke="none" d="M 6157,2969 L 6654,2969 6654,4023 6157,4023 6157,2969 Z M 6172,3000 L 6639,3000 6639,3992 6172,3992 6172,3000 Z"/>
             <path fill="rgb(213,213,213)" stroke="none" d="M 6172,3000 L 6639,3000 6639,3992 6172,3992 6172,3000 Z M 6186,3031 L 6625,3031 6625,3961 6186,3961 6186,3031 Z"/>
             <path fill="rgb(214,214,214)" stroke="none" d="M 6186,3031 L 6625,3031 6625,3961 6186,3961 6186,3031 Z M 6201,3062 L 6610,3062 6610,3930 6201,3930 6201,3062 Z"/>
             <path fill="rgb(215,215,215)" stroke="none" d="M 6201,3062 L 6610,3062 6610,3930 6201,3930 6201,3062 Z M 6216,3093 L 6595,3093 6595,3899 6216,3899 6216,3093 Z"/>
             <path fill="rgb(216,216,216)" stroke="none" d="M 6216,3093 L 6595,3093 6595,3899 6216,3899 6216,3093 Z M 6230,3124 L 6581,3124 6581,3868 6230,3868 6230,3124 Z"/>
             <path fill="rgb(217,217,217)" stroke="none" d="M 6230,3124 L 6581,3124 6581,3868 6230,3868 6230,3124 Z M 6245,3155 L 6566,3155 6566,3837 6245,3837 6245,3155 Z"/>
             <path fill="rgb(218,218,218)" stroke="none" d="M 6245,3155 L 6566,3155 6566,3837 6245,3837 6245,3155 Z M 6260,3186 L 6551,3186 6551,3806 6260,3806 6260,3186 Z"/>
             <path fill="rgb(219,219,219)" stroke="none" d="M 6260,3186 L 6551,3186 6551,3806 6260,3806 6260,3186 Z M 6274,3217 L 6537,3217 6537,3775 6274,3775 6274,3217 Z"/>
             <path fill="rgb(220,220,220)" stroke="none" d="M 6274,3217 L 6537,3217 6537,3775 6274,3775 6274,3217 Z M 6289,3248 L 6522,3248 6522,3744 6289,3744 6289,3248 Z"/>
             <path fill="rgb(221,221,221)" stroke="none" d="M 6289,3248 L 6522,3248 6522,3744 6289,3744 6289,3248 Z M 6303,3279 L 6508,3279 6508,3713 6303,3713 6303,3279 Z"/>
             <path fill="rgb(222,222,222)" stroke="none" d="M 6303,3279 L 6508,3279 6508,3713 6303,3713 6303,3279 Z M 6318,3310 L 6493,3310 6493,3682 6318,3682 6318,3310 Z"/>
             <path fill="rgb(223,223,223)" stroke="none" d="M 6318,3310 L 6493,3310 6493,3682 6318,3682 6318,3310 Z M 6333,3341 L 6478,3341 6478,3651 6333,3651 6333,3341 Z"/>
             <path fill="rgb(224,224,224)" stroke="none" d="M 6333,3341 L 6478,3341 6478,3651 6333,3651 6333,3341 Z M 6347,3372 L 6464,3372 6464,3620 6347,3620 6347,3372 Z"/>
             <path fill="rgb(225,225,225)" stroke="none" d="M 6347,3372 L 6464,3372 6464,3620 6347,3620 6347,3372 Z M 6362,3403 L 6449,3403 6449,3589 6362,3589 6362,3403 Z"/>
             <path fill="rgb(226,226,226)" stroke="none" d="M 6362,3403 L 6449,3403 6449,3589 6362,3589 6362,3403 Z M 6377,3434 L 6434,3434 6434,3558 6377,3558 6377,3434 Z"/>
             <path fill="rgb(227,227,227)" stroke="none" d="M 6377,3434 L 6434,3434 6434,3558 6377,3558 6377,3434 Z M 6391,3465 L 6420,3465 6420,3527 6391,3527 6391,3465 Z"/>
             <path fill="rgb(229,229,229)" stroke="none" d="M 6391,3465 L 6420,3465 6420,3527 6391,3527 6391,3465 Z"/>
            </g>
           </pattern>
          </defs>
          <path style="fill:url(#pattern1)" d="M 5968,5667 L 5968,3413 7430,2568 7430,4822 5968,5667 Z"/>
         </g>
         <path fill="none" stroke="rgb(255,255,255)" stroke-width="40" stroke-linejoin="round" d="M 5968,5667 L 5968,3413 7430,2568 7430,4822 5968,5667 Z"/>
        </g>
       </g>
       <g class="com.sun.star.drawing.PolyPolygonShape">
        <g id="id6">
         <rect class="BoundingBox" stroke="none" fill="none" x="3023" y="857" width="4428" height="2577"/>
         <g>
          <defs>
           <linearGradient id="gradient2" x1="5236" y1="877" x2="5236" y2="3413" gradientUnits="userSpaceOnUse">
            <stop offset="0.1" style="stop-color:rgb(179,179,179)"/>
            <stop offset="1" style="stop-color:rgb(229,229,229)"/>
           </linearGradient>
          </defs>
          <path style="fill:url(#gradient2)" d="M 5968,3413 L 3043,1722 4505,877 7430,2568 5968,3413 Z"/>
         </g>
         <path fill="none" stroke="rgb(255,255,255)" stroke-width="40" stroke-linejoin="round" d="M 5968,3413 L 3043,1722 4505,877 7430,2568 5968,3413 Z"/>
        </g>
       </g>
       <g class="com.sun.star.drawing.PolyPolygonShape">
        <g id="id7">
         <rect class="BoundingBox" stroke="none" fill="none" x="4193" y="3280" width="138" height="266"/>
         <path fill="rgb(209,97,108)" stroke="none" d="M 4213,3469 L 4213,3300 4310,3356 4310,3525 4213,3469 Z"/>
         <path fill="none" stroke="rgb(0,0,0)" stroke-width="40" stroke-linejoin="round" d="M 4213,3469 L 4213,3300 4310,3356 4310,3525 4213,3469 Z"/>
        </g>
       </g>
       <g class="com.sun.star.drawing.PolyPolygonShape">
        <g id="id8">
         <rect class="BoundingBox" stroke="none" fill="none" x="3413" y="2209" width="236" height="605"/>
         <path fill="rgb(127,127,127)" stroke="none" d="M 3433,2680 L 3433,2229 3628,2342 3628,2793 3433,2680 Z"/>
         <path fill="none" stroke="rgb(0,0,0)" stroke-width="40" stroke-linejoin="round" d="M 3433,2680 L 3433,2229 3628,2342 3628,2793 3433,2680 Z"/>
        </g>
       </g>
       <g class="com.sun.star.drawing.PolyPolygonShape">
        <g id="id9">
         <rect class="BoundingBox" stroke="none" fill="none" x="3413" y="3618" width="138" height="379"/>
         <path fill="rgb(127,127,127)" stroke="none" d="M 3433,3920 L 3433,3638 3530,3694 3530,3976 3433,3920 Z"/>
         <path fill="none" stroke="rgb(0,0,0)" stroke-width="40" stroke-linejoin="round" d="M 3433,3920 L 3433,3638 3530,3694 3530,3976 3433,3920 Z"/>
        </g>
       </g>
       <g class="com.sun.star.drawing.PolyPolygonShape">
        <g id="id10">
         <rect class="BoundingBox" stroke="none" fill="none" x="3608" y="3731" width="138" height="379"/>
         <path fill="rgb(127,127,127)" stroke="none" d="M 3628,4033 L 3628,3751 3725,3807 3725,4089 3628,4033 Z"/>
         <path fill="none" stroke="rgb(0,0,0)" stroke-width="40" stroke-linejoin="round" d="M 3628,4033 L 3628,3751 3725,3807 3725,4089 3628,4033 Z"/>
        </g>
       </g>
       <g class="com.sun.star.drawing.PolyPolygonShape">
        <g id="id11">
         <rect class="BoundingBox" stroke="none" fill="none" x="3998" y="2266" width="529" height="2577"/>
         <g>
          <defs>
           <linearGradient id="gradient3" x1="4017" y1="3554" x2="4505" y2="3554" gradientUnits="userSpaceOnUse">
            <stop offset="0.1" style="stop-color:rgb(179,179,179)"/>
            <stop offset="1" style="stop-color:rgb(229,229,229)"/>
           </linearGradient>
          </defs>
          <path style="fill:url(#gradient3)" d="M 4018,4540 L 4018,2286 4505,2568 4505,4822 4018,4540 Z"/>
         </g>
         <path fill="none" stroke="rgb(255,255,255)" stroke-width="40" stroke-linejoin="round" d="M 4018,4540 L 4018,2286 4505,2568 4505,4822 4018,4540 Z"/>
        </g>
       </g>
       <g class="com.sun.star.drawing.PolyPolygonShape">
        <g id="id12">
         <rect class="BoundingBox" stroke="none" fill="none" x="3705" y="2379" width="138" height="266"/>
         <path fill="rgb(209,97,108)" stroke="none" d="M 3725,2568 L 3725,2399 3822,2455 3822,2624 3725,2568 Z"/>
         <path fill="none" stroke="rgb(127,127,127)" stroke-width="40" stroke-linejoin="round" d="M 3725,2568 L 3725,2399 3822,2455 3822,2624 3725,2568 Z"/>
        </g>
       </g>
       <g class="com.sun.star.drawing.PolyPolygonShape">
        <g id="id13">
         <rect class="BoundingBox" stroke="none" fill="none" x="3705" y="2660" width="138" height="266"/>
         <path fill="rgb(57,181,74)" stroke="none" d="M 3725,2849 L 3725,2680 3822,2736 3822,2905 3725,2849 Z"/>
         <path fill="none" stroke="rgb(127,127,127)" stroke-width="40" stroke-linejoin="round" d="M 3725,2849 L 3725,2680 3822,2736 3822,2905 3725,2849 Z"/>
        </g>
       </g>
       <g class="com.sun.star.drawing.PolyPolygonShape">
        <g id="id14">
         <rect class="BoundingBox" stroke="none" fill="none" x="4485" y="2548" width="529" height="2577"/>
         <g>
          <defs>
           <linearGradient id="gradient4" x1="4504" y1="3836" x2="4992" y2="3836" gradientUnits="userSpaceOnUse">
            <stop offset="0.1" style="stop-color:rgb(179,179,179)"/>
            <stop offset="1" style="stop-color:rgb(229,229,229)"/>
           </linearGradient>
          </defs>
          <path style="fill:url(#gradient4)" d="M 4505,4822 L 4505,2568 4992,2850 4992,5104 4505,4822 Z"/>
         </g>
         <path fill="none" stroke="rgb(255,255,255)" stroke-width="40" stroke-linejoin="round" d="M 4505,4822 L 4505,2568 4992,2850 4992,5104 4505,4822 Z"/>
        </g>
       </g>
       <g class="com.sun.star.drawing.PolyPolygonShape">
        <g id="id15">
         <rect class="BoundingBox" stroke="none" fill="none" x="4973" y="2829" width="529" height="2577"/>
         <g>
          <defs>
           <linearGradient id="gradient5" x1="4992" y1="4117" x2="5480" y2="4117" gradientUnits="userSpaceOnUse">
            <stop offset="0.1" style="stop-color:rgb(179,179,179)"/>
            <stop offset="1" style="stop-color:rgb(229,229,229)"/>
           </linearGradient>
          </defs>
          <path style="fill:url(#gradient5)" d="M 4993,5103 L 4993,2849 5480,3131 5480,5385 4993,5103 Z"/>
         </g>
         <path fill="none" stroke="rgb(255,255,255)" stroke-width="40" stroke-linejoin="round" d="M 4993,5103 L 4993,2849 5480,3131 5480,5385 4993,5103 Z"/>
        </g>
       </g>
       <g class="com.sun.star.drawing.PolyPolygonShape">
        <g id="id16">
         <rect class="BoundingBox" stroke="none" fill="none" x="5460" y="3111" width="529" height="2577"/>
         <g>
          <defs>
           <linearGradient id="gradient6" x1="5479" y1="4399" x2="5967" y2="4399" gradientUnits="userSpaceOnUse">
            <stop offset="0.1" style="stop-color:rgb(179,179,179)"/>
            <stop offset="1" style="stop-color:rgb(229,229,229)"/>
           </linearGradient>
          </defs>
          <path style="fill:url(#gradient6)" d="M 5480,5385 L 5480,3131 5967,3413 5967,5667 5480,5385 Z"/>
         </g>
         <path fill="none" stroke="rgb(255,255,255)" stroke-width="40" stroke-linejoin="round" d="M 5480,5385 L 5480,3131 5967,3413 5967,5667 5480,5385 Z"/>
        </g>
       </g>
       <g class="com.sun.star.drawing.PolyPolygonShape">
        <g id="id17">
         <rect class="BoundingBox" stroke="none" fill="none" x="3023" y="857" width="4428" height="4831"/>
         <path fill="none" stroke="rgb(0,0,0)" stroke-width="40" stroke-linejoin="round" d="M 3043,3976 L 3043,1722 4505,877 7430,2568 7430,4822 5968,5667 3043,3976 Z"/>
        </g>
       </g>
       <g class="com.sun.star.drawing.PolyPolygonShape">
        <g id="id18">
         <rect class="BoundingBox" stroke="none" fill="none" x="4193" y="2660" width="138" height="266"/>
         <path fill="rgb(57,181,74)" stroke="none" d="M 4213,2849 L 4213,2680 4310,2736 4310,2905 4213,2849 Z"/>
         <path fill="none" stroke="rgb(0,0,0)" stroke-width="40" stroke-linejoin="round" d="M 4213,2849 L 4213,2680 4310,2736 4310,2905 4213,2849 Z"/>
        </g>
       </g>
       <g class="com.sun.star.drawing.PolyPolygonShape">
        <g id="id19">
         <rect class="BoundingBox" stroke="none" fill="none" x="4583" y="4407" width="138" height="266"/>
         <path fill="rgb(127,127,127)" stroke="none" d="M 4603,4596 L 4603,4427 4700,4483 4700,4652 4603,4596 Z"/>
         <path fill="none" stroke="rgb(0,0,0)" stroke-width="40" stroke-linejoin="round" d="M 4603,4596 L 4603,4427 4700,4483 4700,4652 4603,4596 Z"/>
        </g>
       </g>
       <g class="com.sun.star.drawing.PolyPolygonShape">
        <g id="id20">
         <rect class="BoundingBox" stroke="none" fill="none" x="4778" y="4520" width="138" height="266"/>
         <path fill="rgb(127,127,127)" stroke="none" d="M 4798,4709 L 4798,4540 4895,4596 4895,4765 4798,4709 Z"/>
         <path fill="none" stroke="rgb(0,0,0)" stroke-width="40" stroke-linejoin="round" d="M 4798,4709 L 4798,4540 4895,4596 4895,4765 4798,4709 Z"/>
        </g>
       </g>
       <g class="com.sun.star.drawing.PolyPolygonShape">
        <g id="id21">
         <rect class="BoundingBox" stroke="none" fill="none" x="4583" y="4125" width="138" height="266"/>
         <path fill="rgb(127,127,127)" stroke="none" d="M 4603,4314 L 4603,4145 4700,4201 4700,4370 4603,4314 Z"/>
         <path fill="none" stroke="rgb(0,0,0)" stroke-width="40" stroke-linejoin="round" d="M 4603,4314 L 4603,4145 4700,4201 4700,4370 4603,4314 Z"/>
        </g>
       </g>
       <g class="com.sun.star.drawing.PolyPolygonShape">
        <g id="id22">
         <rect class="BoundingBox" stroke="none" fill="none" x="4778" y="4238" width="138" height="266"/>
         <path fill="rgb(127,127,127)" stroke="none" d="M 4798,4427 L 4798,4258 4895,4314 4895,4483 4798,4427 Z"/>
         <path fill="none" stroke="rgb(0,0,0)" stroke-width="40" stroke-linejoin="round" d="M 4798,4427 L 4798,4258 4895,4314 4895,4483 4798,4427 Z"/>
        </g>
       </g>
       <g class="com.sun.star.drawing.PolyPolygonShape">
        <g id="id23">
         <rect class="BoundingBox" stroke="none" fill="none" x="4778" y="3956" width="138" height="266"/>
         <path fill="rgb(127,127,127)" stroke="none" d="M 4798,4145 L 4798,3976 4895,4032 4895,4201 4798,4145 Z"/>
         <path fill="none" stroke="rgb(0,0,0)" stroke-width="40" stroke-linejoin="round" d="M 4798,4145 L 4798,3976 4895,4032 4895,4201 4798,4145 Z"/>
        </g>
       </g>
       <g class="com.sun.star.drawing.PolyPolygonShape">
        <g id="id24">
         <rect class="BoundingBox" stroke="none" fill="none" x="4583" y="3844" width="138" height="266"/>
         <path fill="rgb(127,127,127)" stroke="none" d="M 4603,4033 L 4603,3864 4700,3920 4700,4089 4603,4033 Z"/>
         <path fill="none" stroke="rgb(0,0,0)" stroke-width="40" stroke-linejoin="round" d="M 4603,4033 L 4603,3864 4700,3920 4700,4089 4603,4033 Z"/>
        </g>
       </g>
       <g class="com.sun.star.drawing.PolyPolygonShape">
        <g id="id25">
         <rect class="BoundingBox" stroke="none" fill="none" x="4778" y="3675" width="138" height="266"/>
         <path fill="rgb(127,127,127)" stroke="none" d="M 4798,3864 L 4798,3695 4895,3751 4895,3920 4798,3864 Z"/>
         <path fill="none" stroke="rgb(0,0,0)" stroke-width="40" stroke-linejoin="round" d="M 4798,3864 L 4798,3695 4895,3751 4895,3920 4798,3864 Z"/>
        </g>
       </g>
       <g class="com.sun.star.drawing.PolyPolygonShape">
        <g id="id26">
         <rect class="BoundingBox" stroke="none" fill="none" x="4583" y="3562" width="138" height="267"/>
         <path fill="rgb(127,127,127)" stroke="none" d="M 4603,3751 L 4603,3582 4700,3638 4700,3807 4603,3751 Z"/>
         <path fill="none" stroke="rgb(0,0,0)" stroke-width="40" stroke-linejoin="round" d="M 4603,3751 L 4603,3582 4700,3638 4700,3807 4603,3751 Z"/>
        </g>
       </g>
       <g class="com.sun.star.drawing.PolyPolygonShape">
        <g id="id27">
         <rect class="BoundingBox" stroke="none" fill="none" x="5753" y="5253" width="138" height="266"/>
         <path fill="rgb(127,127,127)" stroke="none" d="M 5773,5442 L 5773,5273 5870,5329 5870,5498 5773,5442 Z"/>
         <path fill="none" stroke="rgb(0,0,0)" stroke-width="40" stroke-linejoin="round" d="M 5773,5442 L 5773,5273 5870,5329 5870,5498 5773,5442 Z"/>
        </g>
       </g>
       <g class="com.sun.star.drawing.PolyPolygonShape">
        <g id="id28">
         <rect class="BoundingBox" stroke="none" fill="none" x="5753" y="4971" width="138" height="266"/>
         <path fill="rgb(127,127,127)" stroke="none" d="M 5773,5160 L 5773,4991 5870,5047 5870,5216 5773,5160 Z"/>
         <path fill="none" stroke="rgb(0,0,0)" stroke-width="40" stroke-linejoin="round" d="M 5773,5160 L 5773,4991 5870,5047 5870,5216 5773,5160 Z"/>
        </g>
       </g>
       <g class="com.sun.star.drawing.PolyPolygonShape">
        <g id="id29">
         <rect class="BoundingBox" stroke="none" fill="none" x="5753" y="4689" width="138" height="266"/>
         <path fill="rgb(127,127,127)" stroke="none" d="M 5773,4878 L 5773,4709 5870,4765 5870,4934 5773,4878 Z"/>
         <path fill="none" stroke="rgb(0,0,0)" stroke-width="40" stroke-linejoin="round" d="M 5773,4878 L 5773,4709 5870,4765 5870,4934 5773,4878 Z"/>
        </g>
       </g>
       <g class="com.sun.star.drawing.PolyPolygonShape">
        <g id="id30">
         <rect class="BoundingBox" stroke="none" fill="none" x="5753" y="4407" width="138" height="266"/>
         <path fill="rgb(127,127,127)" stroke="none" d="M 5773,4596 L 5773,4427 5870,4483 5870,4652 5773,4596 Z"/>
         <path fill="none" stroke="rgb(0,0,0)" stroke-width="40" stroke-linejoin="round" d="M 5773,4596 L 5773,4427 5870,4483 5870,4652 5773,4596 Z"/>
        </g>
       </g>
       <g class="com.sun.star.drawing.PolyPolygonShape">
        <g id="id31">
         <rect class="BoundingBox" stroke="none" fill="none" x="5753" y="4125" width="138" height="266"/>
         <path fill="rgb(127,127,127)" stroke="none" d="M 5773,4314 L 5773,4145 5870,4201 5870,4370 5773,4314 Z"/>
         <path fill="none" stroke="rgb(0,0,0)" stroke-width="40" stroke-linejoin="round" d="M 5773,4314 L 5773,4145 5870,4201 5870,4370 5773,4314 Z"/>
        </g>
       </g>
       <g class="com.sun.star.drawing.PolyPolygonShape">
        <g id="id32">
         <rect class="BoundingBox" stroke="none" fill="none" x="5753" y="3844" width="138" height="266"/>
         <path fill="rgb(127,127,127)" stroke="none" d="M 5773,4033 L 5773,3864 5870,3920 5870,4089 5773,4033 Z"/>
         <path fill="none" stroke="rgb(0,0,0)" stroke-width="40" stroke-linejoin="round" d="M 5773,4033 L 5773,3864 5870,3920 5870,4089 5773,4033 Z"/>
        </g>
       </g>
       <g class="com.sun.star.drawing.PolyPolygonShape">
        <g id="id33">
         <rect class="BoundingBox" stroke="none" fill="none" x="5753" y="3562" width="138" height="267"/>
         <path fill="rgb(127,127,127)" stroke="none" d="M 5773,3751 L 5773,3582 5870,3638 5870,3807 5773,3751 Z"/>
         <path fill="none" stroke="rgb(0,0,0)" stroke-width="40" stroke-linejoin="round" d="M 5773,3751 L 5773,3582 5870,3638 5870,3807 5773,3751 Z"/>
        </g>
       </g>
      </g>
     </g>
    </g>
   </g>
  </g>
 </g>
</svg>