<?xml version="1.0" encoding="UTF-8"?>
<!DOCTYPE svg PUBLIC "-//W3C//DTD SVG 1.1//EN" "http://www.w3.org/Graphics/SVG/1.1/DTD/svg11.dtd">
<svg version="1.2" width="31.71mm" height="33.9mm" viewBox="2408 12857 3171 3390" preserveAspectRatio="xMidYMid" fill-rule="evenodd" stroke-width="28.222" stroke-linejoin="round" xmlns="http://www.w3.org/2000/svg" xmlns:ooo="http://xml.openoffice.org/svg/export" xmlns:xlink="http://www.w3.org/1999/xlink" xmlns:presentation="http://sun.com/xmlns/staroffice/presentation" xmlns:smil="http://www.w3.org/2001/SMIL20/" xmlns:anim="urn:oasis:names:tc:opendocument:xmlns:animation:1.0" xml:space="preserve">
 <defs class="ClipPathGroup">
  <clipPath id="presentation_clip_path" clipPathUnits="userSpaceOnUse">
   <rect x="2408" y="12857" width="3171" height="3390"/>
  </clipPath>
 </defs>
 <defs class="TextShapeIndex">
  <g ooo:slide="id1" ooo:id-list="id3 id4 id5 id6 id7 id8 id9 id10 id11 id12 id13 id14 id15 id16 id17 id18 id19 id20 id21 id22 id23 id24 id25 id26 id27 id28 id29 id30 id31 id32 id33 id34 id35 id36 id37 id38 id39"/>
 </defs>
 <defs class="EmbeddedBulletChars">
  <g id="bullet-char-template(57356)" transform="scale(0.00048828125,-0.00048828125)">
   <path d="M 580,1141 L 1163,571 580,0 -4,571 580,1141 Z"/>
  </g>
  <g id="bullet-char-template(57354)" transform="scale(0.00048828125,-0.00048828125)">
   <path d="M 8,1128 L 1137,1128 1137,0 8,0 8,1128 Z"/>
  </g>
  <g id="bullet-char-template(10146)" transform="scale(0.00048828125,-0.00048828125)">
   <path d="M 174,0 L 602,739 174,1481 1456,739 174,0 Z M 1358,739 L 309,1346 659,739 1358,739 Z"/>
  </g>
  <g id="bullet-char-template(10132)" transform="scale(0.00048828125,-0.00048828125)">
   <path d="M 2015,739 L 1276,0 717,0 1260,543 174,543 174,936 1260,936 717,1481 1274,1481 2015,739 Z"/>
  </g>
  <g id="bullet-char-template(10007)" transform="scale(0.00048828125,-0.00048828125)">
   <path d="M 0,-2 C -7,14 -16,27 -25,37 L 356,567 C 262,823 215,952 215,954 215,979 228,992 255,992 264,992 276,990 289,987 310,991 331,999 354,1012 L 381,999 492,748 772,1049 836,1024 860,1049 C 881,1039 901,1025 922,1006 886,937 835,863 770,784 769,783 710,716 594,584 L 774,223 C 774,196 753,168 711,139 L 727,119 C 717,90 699,76 672,76 641,76 570,178 457,381 L 164,-76 C 142,-110 111,-127 72,-127 30,-127 9,-110 8,-76 1,-67 -2,-52 -2,-32 -2,-23 -1,-13 0,-2 Z"/>
  </g>
  <g id="bullet-char-template(10004)" transform="scale(0.00048828125,-0.00048828125)">
   <path d="M 285,-33 C 182,-33 111,30 74,156 52,228 41,333 41,471 41,549 55,616 82,672 116,743 169,778 240,778 293,778 328,747 346,684 L 369,508 C 377,444 397,411 428,410 L 1163,1116 C 1174,1127 1196,1133 1229,1133 1271,1133 1292,1118 1292,1087 L 1292,965 C 1292,929 1282,901 1262,881 L 442,47 C 390,-6 338,-33 285,-33 Z"/>
  </g>
  <g id="bullet-char-template(9679)" transform="scale(0.00048828125,-0.00048828125)">
   <path d="M 813,0 C 632,0 489,54 383,161 276,268 223,411 223,592 223,773 276,916 383,1023 489,1130 632,1184 813,1184 992,1184 1136,1130 1245,1023 1353,916 1407,772 1407,592 1407,412 1353,268 1245,161 1136,54 992,0 813,0 Z"/>
  </g>
  <g id="bullet-char-template(8226)" transform="scale(0.00048828125,-0.00048828125)">
   <path d="M 346,457 C 273,457 209,483 155,535 101,586 74,649 74,723 74,796 101,859 155,911 209,963 273,989 346,989 419,989 480,963 531,910 582,859 608,796 608,723 608,648 583,586 532,535 482,483 420,457 346,457 Z"/>
  </g>
  <g id="bullet-char-template(8211)" transform="scale(0.00048828125,-0.00048828125)">
   <path d="M -4,459 L 1135,459 1135,606 -4,606 -4,459 Z"/>
  </g>
 </defs>
 <defs class="TextEmbeddedBitmaps"/>
 <g class="SlideGroup">
  <g>
   <g id="id1" class="Slide" clip-path="url(#presentation_clip_path)">
    <g class="Page">
     <g class="Group">
      <g class="com.sun.star.drawing.ClosedBezierShape">
       <g id="id3">
        <rect class="BoundingBox" stroke="none" fill="none" x="4546" y="15425" width="1034" height="804"/>
        <path fill="rgb(221,221,221)" stroke="none" d="M 4562,16227 C 4908,16227 5578,16009 5578,15790 5578,15571 5546,15426 5200,15426 5200,15645 4431,15499 4562,16227 Z"/>
        <path fill="none" stroke="rgb(221,221,221)" d="M 4562,16227 C 4908,16227 5578,16009 5578,15790 5578,15571 5546,15426 5200,15426 5200,15645 4431,15499 4562,16227 Z"/>
       </g>
      </g>
      <g class="Group">
       <g class="com.sun.star.drawing.PolyPolygonShape">
        <g id="id4">
         <rect class="BoundingBox" stroke="none" fill="none" x="2786" y="12857" width="2436" height="1425"/>
         <g>
          <defs>
           <linearGradient id="gradient1" x1="4003" y1="12877" x2="4003" y2="14261" gradientUnits="userSpaceOnUse">
            <stop offset="0.1" style="stop-color:rgb(179,179,179)"/>
            <stop offset="1" style="stop-color:rgb(229,229,229)"/>
           </linearGradient>
          </defs>
          <path style="fill:url(#gradient1)" d="M 4696,14261 L 2806,13168 3310,12877 5201,13969 4696,14261 Z"/>
         </g>
         <path fill="none" stroke="rgb(255,255,255)" stroke-width="40" stroke-linejoin="round" d="M 4696,14261 L 2806,13168 3310,12877 5201,13969 4696,14261 Z"/>
        </g>
       </g>
       <g class="com.sun.star.drawing.PolyPolygonShape">
        <g id="id5">
         <rect class="BoundingBox" stroke="none" fill="none" x="2408" y="12930" width="2183" height="3318"/>
         <g>
          <defs>
           <linearGradient id="gradient2" x1="2428" y1="14588" x2="4571" y2="14588" gradientUnits="userSpaceOnUse">
            <stop offset="0.1" style="stop-color:rgb(179,179,179)"/>
            <stop offset="1" style="stop-color:rgb(229,229,229)"/>
           </linearGradient>
          </defs>
          <path style="fill:url(#gradient2)" d="M 2428,14989 L 2428,12950 4570,14188 4570,16227 2428,14989 Z"/>
         </g>
         <path fill="none" stroke="rgb(255,255,255)" stroke-width="40" stroke-linejoin="round" d="M 2428,14989 L 2428,12950 4570,14188 4570,16227 2428,14989 Z"/>
        </g>
       </g>
       <g class="com.sun.star.drawing.PolyPolygonShape">
        <g id="id6">
         <rect class="BoundingBox" stroke="none" fill="none" x="2660" y="13367" width="1427" height="2081"/>
         <g>
          <defs>
           <linearGradient id="gradient3" x1="2679" y1="14406" x2="4068" y2="14406" gradientUnits="userSpaceOnUse">
            <stop offset="0.1" style="stop-color:rgb(147,212,240)"/>
            <stop offset="1" style="stop-color:rgb(233,246,252)"/>
           </linearGradient>
          </defs>
          <path style="fill:url(#gradient3)" d="M 2680,14625 L 2680,13387 4066,14188 4066,15426 2680,14625 Z"/>
         </g>
         <path fill="none" stroke="rgb(127,127,127)" stroke-width="40" stroke-linejoin="round" d="M 2680,14625 L 2680,13387 4066,14188 4066,15426 2680,14625 Z"/>
        </g>
       </g>
       <g class="com.sun.star.drawing.PolyPolygonShape">
        <g id="id7">
         <rect class="BoundingBox" stroke="none" fill="none" x="4173" y="15552" width="293" height="332"/>
         <path fill="rgb(116,203,128)" stroke="none" d="M 4193,15717 L 4193,15572 4445,15717 4445,15863 4193,15717 Z"/>
         <path fill="none" stroke="rgb(127,127,127)" stroke-width="40" stroke-linejoin="round" d="M 4193,15717 L 4193,15572 4445,15717 4445,15863 4193,15717 Z"/>
        </g>
       </g>
       <g class="com.sun.star.drawing.PolyPolygonShape">
        <g id="id8">
         <rect class="BoundingBox" stroke="none" fill="none" x="4663" y="13949" width="559" height="2081"/>
         <g>
          <defs>
           <pattern id="pattern1" x="4683" y="13969" width="519" height="2040" patternUnits="userSpaceOnUse">
            <g transform="translate(-4683,-13969)">
             <path fill="rgb(179,179,179)" stroke="none" d="M 4682,13968 L 5202,13968 5202,16009 4682,16009 4682,13968 Z M 4584,13580 L 5092,13580 5092,15579 4584,15579 4584,13580 Z"/>
             <path fill="rgb(180,180,180)" stroke="none" d="M 4584,13580 L 5092,13580 5092,15579 4584,15579 4584,13580 Z M 4589,13600 L 5087,13600 5087,15559 4589,15559 4589,13600 Z"/>
             <path fill="rgb(181,181,181)" stroke="none" d="M 4589,13600 L 5087,13600 5087,15559 4589,15559 4589,13600 Z M 4594,13621 L 5082,13621 5082,15538 4594,15538 4594,13621 Z"/>
             <path fill="rgb(182,182,182)" stroke="none" d="M 4594,13621 L 5082,13621 5082,15538 4594,15538 4594,13621 Z M 4599,13641 L 5077,13641 5077,15518 4599,15518 4599,13641 Z"/>
             <path fill="rgb(183,183,183)" stroke="none" d="M 4599,13641 L 5077,13641 5077,15518 4599,15518 4599,13641 Z M 4605,13662 L 5071,13662 5071,15497 4605,15497 4605,13662 Z"/>
             <path fill="rgb(184,184,184)" stroke="none" d="M 4605,13662 L 5071,13662 5071,15497 4605,15497 4605,13662 Z M 4610,13682 L 5066,13682 5066,15477 4610,15477 4610,13682 Z"/>
             <path fill="rgb(185,185,185)" stroke="none" d="M 4610,13682 L 5066,13682 5066,15477 4610,15477 4610,13682 Z M 4615,13702 L 5061,13702 5061,15457 4615,15457 4615,13702 Z"/>
             <path fill="rgb(186,186,186)" stroke="none" d="M 4615,13702 L 5061,13702 5061,15457 4615,15457 4615,13702 Z M 4620,13723 L 5056,13723 5056,15436 4620,15436 4620,13723 Z"/>
             <path fill="rgb(187,187,187)" stroke="none" d="M 4620,13723 L 5056,13723 5056,15436 4620,15436 4620,13723 Z M 4625,13743 L 5051,13743 5051,15416 4625,15416 4625,13743 Z"/>
             <path fill="rgb(188,188,188)" stroke="none" d="M 4625,13743 L 5051,13743 5051,15416 4625,15416 4625,13743 Z M 4631,13764 L 5045,13764 5045,15395 4631,15395 4631,13764 Z"/>
             <path fill="rgb(189,189,189)" stroke="none" d="M 4631,13764 L 5045,13764 5045,15395 4631,15395 4631,13764 Z M 4636,13784 L 5040,13784 5040,15375 4636,15375 4636,13784 Z"/>
             <path fill="rgb(190,190,190)" stroke="none" d="M 4636,13784 L 5040,13784 5040,15375 4636,15375 4636,13784 Z M 4641,13805 L 5035,13805 5035,15354 4641,15354 4641,13805 Z"/>
             <path fill="rgb(191,191,191)" stroke="none" d="M 4641,13805 L 5035,13805 5035,15354 4641,15354 4641,13805 Z M 4646,13825 L 5030,13825 5030,15334 4646,15334 4646,13825 Z"/>
             <path fill="rgb(192,192,192)" stroke="none" d="M 4646,13825 L 5030,13825 5030,15334 4646,15334 4646,13825 Z M 4651,13845 L 5025,13845 5025,15314 4651,15314 4651,13845 Z"/>
             <path fill="rgb(193,193,193)" stroke="none" d="M 4651,13845 L 5025,13845 5025,15314 4651,15314 4651,13845 Z M 4657,13866 L 5019,13866 5019,15293 4657,15293 4657,13866 Z"/>
             <path fill="rgb(194,194,194)" stroke="none" d="M 4657,13866 L 5019,13866 5019,15293 4657,15293 4657,13866 Z M 4662,13886 L 5014,13886 5014,15273 4662,15273 4662,13886 Z"/>
             <path fill="rgb(195,195,195)" stroke="none" d="M 4662,13886 L 5014,13886 5014,15273 4662,15273 4662,13886 Z M 4666,13907 L 5009,13907 5009,15252 4666,15252 4666,13907 Z"/>
             <path fill="rgb(196,196,196)" stroke="none" d="M 4666,13907 L 5009,13907 5009,15252 4666,15252 4666,13907 Z M 4671,13927 L 5004,13927 5004,15232 4671,15232 4671,13927 Z"/>
             <path fill="rgb(197,197,197)" stroke="none" d="M 4671,13927 L 5004,13927 5004,15232 4671,15232 4671,13927 Z M 4676,13947 L 4999,13947 4999,15212 4676,15212 4676,13947 Z"/>
             <path fill="rgb(198,198,198)" stroke="none" d="M 4676,13947 L 4999,13947 4999,15212 4676,15212 4676,13947 Z M 4682,13967 L 4993,13967 4993,15191 4682,15191 4682,13967 Z"/>
             <path fill="rgb(199,199,199)" stroke="none" d="M 4682,13967 L 4993,13967 4993,15191 4682,15191 4682,13967 Z M 4687,13987 L 4988,13987 4988,15171 4687,15171 4687,13987 Z"/>
             <path fill="rgb(200,200,200)" stroke="none" d="M 4687,13987 L 4988,13987 4988,15171 4687,15171 4687,13987 Z M 4692,14008 L 4983,14008 4983,15150 4692,15150 4692,14008 Z"/>
             <path fill="rgb(201,201,201)" stroke="none" d="M 4692,14008 L 4983,14008 4983,15150 4692,15150 4692,14008 Z M 4697,14028 L 4978,14028 4978,15130 4697,15130 4697,14028 Z"/>
             <path fill="rgb(202,202,202)" stroke="none" d="M 4697,14028 L 4978,14028 4978,15130 4697,15130 4697,14028 Z M 4703,14049 L 4972,14049 4972,15109 4703,15109 4703,14049 Z"/>
             <path fill="rgb(203,203,203)" stroke="none" d="M 4703,14049 L 4972,14049 4972,15109 4703,15109 4703,14049 Z M 4708,14069 L 4967,14069 4967,15089 4708,15089 4708,14069 Z"/>
             <path fill="rgb(204,204,204)" stroke="none" d="M 4708,14069 L 4967,14069 4967,15089 4708,15089 4708,14069 Z M 4713,14089 L 4962,14089 4962,15069 4713,15069 4713,14089 Z"/>
             <path fill="rgb(205,205,205)" stroke="none" d="M 4713,14089 L 4962,14089 4962,15069 4713,15069 4713,14089 Z M 4718,14110 L 4957,14110 4957,15048 4718,15048 4718,14110 Z"/>
             <path fill="rgb(206,206,206)" stroke="none" d="M 4718,14110 L 4957,14110 4957,15048 4718,15048 4718,14110 Z M 4723,14130 L 4952,14130 4952,15028 4723,15028 4723,14130 Z"/>
             <path fill="rgb(207,207,207)" stroke="none" d="M 4723,14130 L 4952,14130 4952,15028 4723,15028 4723,14130 Z M 4729,14151 L 4946,14151 4946,15007 4729,15007 4729,14151 Z"/>
             <path fill="rgb(208,208,208)" stroke="none" d="M 4729,14151 L 4946,14151 4946,15007 4729,15007 4729,14151 Z M 4734,14171 L 4941,14171 4941,14987 4734,14987 4734,14171 Z"/>
             <path fill="rgb(209,209,209)" stroke="none" d="M 4734,14171 L 4941,14171 4941,14987 4734,14987 4734,14171 Z M 4739,14192 L 4936,14192 4936,14966 4739,14966 4739,14192 Z"/>
             <path fill="rgb(210,210,210)" stroke="none" d="M 4739,14192 L 4936,14192 4936,14966 4739,14966 4739,14192 Z M 4744,14212 L 4931,14212 4931,14946 4744,14946 4744,14212 Z"/>
             <path fill="rgb(211,211,211)" stroke="none" d="M 4744,14212 L 4931,14212 4931,14946 4744,14946 4744,14212 Z M 4749,14232 L 4926,14232 4926,14926 4749,14926 4749,14232 Z"/>
             <path fill="rgb(212,212,212)" stroke="none" d="M 4749,14232 L 4926,14232 4926,14926 4749,14926 4749,14232 Z M 4755,14253 L 4920,14253 4920,14905 4755,14905 4755,14253 Z"/>
             <path fill="rgb(213,213,213)" stroke="none" d="M 4755,14253 L 4920,14253 4920,14905 4755,14905 4755,14253 Z M 4760,14273 L 4915,14273 4915,14885 4760,14885 4760,14273 Z"/>
             <path fill="rgb(214,214,214)" stroke="none" d="M 4760,14273 L 4915,14273 4915,14885 4760,14885 4760,14273 Z M 4765,14294 L 4910,14294 4910,14864 4765,14864 4765,14294 Z"/>
             <path fill="rgb(215,215,215)" stroke="none" d="M 4765,14294 L 4910,14294 4910,14864 4765,14864 4765,14294 Z M 4770,14314 L 4905,14314 4905,14844 4770,14844 4770,14314 Z"/>
             <path fill="rgb(216,216,216)" stroke="none" d="M 4770,14314 L 4905,14314 4905,14844 4770,14844 4770,14314 Z M 4775,14334 L 4900,14334 4900,14824 4775,14824 4775,14334 Z"/>
             <path fill="rgb(217,217,217)" stroke="none" d="M 4775,14334 L 4900,14334 4900,14824 4775,14824 4775,14334 Z M 4781,14355 L 4894,14355 4894,14803 4781,14803 4781,14355 Z"/>
             <path fill="rgb(218,218,218)" stroke="none" d="M 4781,14355 L 4894,14355 4894,14803 4781,14803 4781,14355 Z M 4786,14375 L 4889,14375 4889,14783 4786,14783 4786,14375 Z"/>
             <path fill="rgb(219,219,219)" stroke="none" d="M 4786,14375 L 4889,14375 4889,14783 4786,14783 4786,14375 Z M 4791,14396 L 4884,14396 4884,14762 4791,14762 4791,14396 Z"/>
             <path fill="rgb(220,220,220)" stroke="none" d="M 4791,14396 L 4884,14396 4884,14762 4791,14762 4791,14396 Z M 4796,14416 L 4879,14416 4879,14742 4796,14742 4796,14416 Z"/>
             <path fill="rgb(221,221,221)" stroke="none" d="M 4796,14416 L 4879,14416 4879,14742 4796,14742 4796,14416 Z M 4802,14437 L 4873,14437 4873,14721 4802,14721 4802,14437 Z"/>
             <path fill="rgb(222,222,222)" stroke="none" d="M 4802,14437 L 4873,14437 4873,14721 4802,14721 4802,14437 Z M 4807,14457 L 4868,14457 4868,14701 4807,14701 4807,14457 Z"/>
             <path fill="rgb(223,223,223)" stroke="none" d="M 4807,14457 L 4868,14457 4868,14701 4807,14701 4807,14457 Z M 4812,14477 L 4863,14477 4863,14681 4812,14681 4812,14477 Z"/>
             <path fill="rgb(224,224,224)" stroke="none" d="M 4812,14477 L 4863,14477 4863,14681 4812,14681 4812,14477 Z M 4817,14498 L 4858,14498 4858,14660 4817,14660 4817,14498 Z"/>
             <path fill="rgb(225,225,225)" stroke="none" d="M 4817,14498 L 4858,14498 4858,14660 4817,14660 4817,14498 Z M 4822,14518 L 4853,14518 4853,14640 4822,14640 4822,14518 Z"/>
             <path fill="rgb(226,226,226)" stroke="none" d="M 4822,14518 L 4853,14518 4853,14640 4822,14640 4822,14518 Z M 4828,14539 L 4847,14539 4847,14619 4828,14619 4828,14539 Z"/>
             <path fill="rgb(227,227,227)" stroke="none" d="M 4828,14539 L 4847,14539 4847,14619 4828,14619 4828,14539 Z M 4833,14559 L 4842,14559 4842,14599 4833,14599 4833,14559 Z"/>
             <path fill="rgb(229,229,229)" stroke="none" d="M 4833,14559 L 4842,14559 4842,14599 4833,14599 4833,14559 Z"/>
            </g>
           </pattern>
          </defs>
          <path style="fill:url(#pattern1)" d="M 4683,16008 L 4696,14260 5201,13969 5201,15717 4683,16008 Z"/>
         </g>
         <path fill="none" stroke="rgb(255,255,255)" stroke-width="40" stroke-linejoin="round" d="M 4683,16008 L 4696,14260 5201,13969 5201,15717 4683,16008 Z"/>
        </g>
       </g>
       <g class="com.sun.star.drawing.PolyPolygonShape">
        <g id="id9">
         <rect class="BoundingBox" stroke="none" fill="none" x="2408" y="12857" width="2309" height="1353"/>
         <g>
          <defs>
           <linearGradient id="gradient4" x1="3562" y1="12877" x2="3562" y2="14188" gradientUnits="userSpaceOnUse">
            <stop offset="0.1" style="stop-color:rgb(179,179,179)"/>
            <stop offset="1" style="stop-color:rgb(229,229,229)"/>
           </linearGradient>
          </defs>
          <path style="fill:url(#gradient4)" d="M 4570,14188 L 2428,12950 2554,12877 4696,14115 4570,14188 Z"/>
         </g>
         <path fill="none" stroke="rgb(255,255,255)" stroke-width="40" stroke-linejoin="round" d="M 4570,14188 L 2428,12950 2554,12877 4696,14115 4570,14188 Z"/>
        </g>
       </g>
       <g class="com.sun.star.drawing.LineShape">
        <g id="id10">
         <rect class="BoundingBox" stroke="none" fill="none" x="4676" y="14168" width="419" height="260"/>
         <path fill="none" stroke="rgb(127,127,127)" stroke-width="40" stroke-linejoin="round" d="M 4696,14407 L 5074,14188"/>
        </g>
       </g>
       <g class="com.sun.star.drawing.PolyPolygonShape">
        <g id="id11">
         <rect class="BoundingBox" stroke="none" fill="none" x="2660" y="14677" width="293" height="332"/>
         <path fill="rgb(255,255,255)" stroke="none" d="M 2680,14842 L 2680,14697 2932,14842 2932,14988 2680,14842 Z"/>
         <path fill="none" stroke="rgb(127,127,127)" stroke-width="40" stroke-linejoin="round" d="M 2680,14842 L 2680,14697 2932,14842 2932,14988 2680,14842 Z"/>
        </g>
       </g>
       <g class="com.sun.star.drawing.PolyPolygonShape">
        <g id="id12">
         <rect class="BoundingBox" stroke="none" fill="none" x="3038" y="14895" width="293" height="333"/>
         <path fill="rgb(255,255,255)" stroke="none" d="M 3058,15061 L 3058,14916 3310,15061 3310,15207 3058,15061 Z"/>
         <path fill="none" stroke="rgb(127,127,127)" stroke-width="40" stroke-linejoin="round" d="M 3058,15061 L 3058,14916 3310,15061 3310,15207 3058,15061 Z"/>
        </g>
       </g>
       <g class="com.sun.star.drawing.PolyPolygonShape">
        <g id="id13">
         <rect class="BoundingBox" stroke="none" fill="none" x="3416" y="15114" width="293" height="333"/>
         <path fill="rgb(255,255,255)" stroke="none" d="M 3436,15280 L 3436,15135 3688,15280 3688,15426 3436,15280 Z"/>
         <path fill="none" stroke="rgb(127,127,127)" stroke-width="40" stroke-linejoin="round" d="M 3436,15280 L 3436,15135 3688,15280 3688,15426 3436,15280 Z"/>
        </g>
       </g>
       <g class="com.sun.star.drawing.PolyPolygonShape">
        <g id="id14">
         <rect class="BoundingBox" stroke="none" fill="none" x="3794" y="15333" width="293" height="332"/>
         <path fill="rgb(255,255,255)" stroke="none" d="M 3814,15498 L 3814,15353 4066,15498 4066,15644 3814,15498 Z"/>
         <path fill="none" stroke="rgb(127,127,127)" stroke-width="40" stroke-linejoin="round" d="M 3814,15498 L 3814,15353 4066,15498 4066,15644 3814,15498 Z"/>
        </g>
       </g>
       <g class="com.sun.star.drawing.PolyPolygonShape">
        <g id="id15">
         <rect class="BoundingBox" stroke="none" fill="none" x="4173" y="14241" width="293" height="332"/>
         <path fill="rgb(255,255,255)" stroke="none" d="M 4193,14406 L 4193,14261 4445,14406 4445,14552 4193,14406 Z"/>
         <path fill="none" stroke="rgb(127,127,127)" stroke-width="40" stroke-linejoin="round" d="M 4193,14406 L 4193,14261 4445,14406 4445,14552 4193,14406 Z"/>
        </g>
       </g>
       <g class="com.sun.star.drawing.PolyPolygonShape">
        <g id="id16">
         <rect class="BoundingBox" stroke="none" fill="none" x="4173" y="14459" width="293" height="332"/>
         <path fill="rgb(255,255,255)" stroke="none" d="M 4193,14624 L 4193,14479 4445,14624 4445,14770 4193,14624 Z"/>
         <path fill="none" stroke="rgb(127,127,127)" stroke-width="40" stroke-linejoin="round" d="M 4193,14624 L 4193,14479 4445,14624 4445,14770 4193,14624 Z"/>
        </g>
       </g>
       <g class="com.sun.star.drawing.PolyPolygonShape">
        <g id="id17">
         <rect class="BoundingBox" stroke="none" fill="none" x="4173" y="14677" width="293" height="332"/>
         <path fill="rgb(255,255,255)" stroke="none" d="M 4193,14842 L 4193,14697 4445,14842 4445,14988 4193,14842 Z"/>
         <path fill="none" stroke="rgb(127,127,127)" stroke-width="40" stroke-linejoin="round" d="M 4193,14842 L 4193,14697 4445,14842 4445,14988 4193,14842 Z"/>
        </g>
       </g>
       <g class="com.sun.star.drawing.PolyPolygonShape">
        <g id="id18">
         <rect class="BoundingBox" stroke="none" fill="none" x="4173" y="14895" width="293" height="333"/>
         <path fill="rgb(255,255,255)" stroke="none" d="M 4193,15061 L 4193,14916 4445,15061 4445,15207 4193,15061 Z"/>
         <path fill="none" stroke="rgb(127,127,127)" stroke-width="40" stroke-linejoin="round" d="M 4193,15061 L 4193,14916 4445,15061 4445,15207 4193,15061 Z"/>
        </g>
       </g>
       <g class="com.sun.star.drawing.PolyPolygonShape">
        <g id="id19">
         <rect class="BoundingBox" stroke="none" fill="none" x="4173" y="15114" width="293" height="333"/>
         <path fill="rgb(255,255,255)" stroke="none" d="M 4193,15280 L 4193,15135 4445,15280 4445,15426 4193,15280 Z"/>
         <path fill="none" stroke="rgb(127,127,127)" stroke-width="40" stroke-linejoin="round" d="M 4193,15280 L 4193,15135 4445,15280 4445,15426 4193,15280 Z"/>
        </g>
       </g>
       <g class="com.sun.star.drawing.PolyPolygonShape">
        <g id="id20">
         <rect class="BoundingBox" stroke="none" fill="none" x="4173" y="15333" width="293" height="332"/>
         <path fill="rgb(255,255,255)" stroke="none" d="M 4193,15498 L 4193,15353 4445,15498 4445,15644 4193,15498 Z"/>
         <path fill="none" stroke="rgb(127,127,127)" stroke-width="40" stroke-linejoin="round" d="M 4193,15498 L 4193,15353 4445,15498 4445,15644 4193,15498 Z"/>
        </g>
       </g>
       <g class="com.sun.star.drawing.LineShape">
        <g id="id21">
         <rect class="BoundingBox" stroke="none" fill="none" x="4676" y="14241" width="419" height="260"/>
         <path fill="none" stroke="rgb(127,127,127)" stroke-width="40" stroke-linejoin="round" d="M 4696,14480 L 5074,14261"/>
        </g>
       </g>
       <g class="com.sun.star.drawing.LineShape">
        <g id="id22">
         <rect class="BoundingBox" stroke="none" fill="none" x="4676" y="14313" width="419" height="260"/>
         <path fill="none" stroke="rgb(127,127,127)" stroke-width="40" stroke-linejoin="round" d="M 4696,14552 L 5074,14333"/>
        </g>
       </g>
       <g class="com.sun.star.drawing.LineShape">
        <g id="id23">
         <rect class="BoundingBox" stroke="none" fill="none" x="4676" y="14387" width="419" height="260"/>
         <path fill="none" stroke="rgb(127,127,127)" stroke-width="40" stroke-linejoin="round" d="M 4696,14626 L 5074,14407"/>
        </g>
       </g>
       <g class="com.sun.star.drawing.LineShape">
        <g id="id24">
         <rect class="BoundingBox" stroke="none" fill="none" x="4676" y="14459" width="419" height="260"/>
         <path fill="none" stroke="rgb(127,127,127)" stroke-width="40" stroke-linejoin="round" d="M 4696,14698 L 5074,14479"/>
        </g>
       </g>
       <g class="com.sun.star.drawing.LineShape">
        <g id="id25">
         <rect class="BoundingBox" stroke="none" fill="none" x="4676" y="14532" width="419" height="260"/>
         <path fill="none" stroke="rgb(127,127,127)" stroke-width="40" stroke-linejoin="round" d="M 4696,14771 L 5074,14552"/>
        </g>
       </g>
       <g class="com.sun.star.drawing.LineShape">
        <g id="id26">
         <rect class="BoundingBox" stroke="none" fill="none" x="4676" y="14605" width="419" height="260"/>
         <path fill="none" stroke="rgb(127,127,127)" stroke-width="40" stroke-linejoin="round" d="M 4696,14844 L 5074,14625"/>
        </g>
       </g>
       <g class="com.sun.star.drawing.LineShape">
        <g id="id27">
         <rect class="BoundingBox" stroke="none" fill="none" x="4676" y="14677" width="419" height="260"/>
         <path fill="none" stroke="rgb(127,127,127)" stroke-width="40" stroke-linejoin="round" d="M 4696,14916 L 5074,14697"/>
        </g>
       </g>
       <g class="com.sun.star.drawing.LineShape">
        <g id="id28">
         <rect class="BoundingBox" stroke="none" fill="none" x="4676" y="14751" width="419" height="260"/>
         <path fill="none" stroke="rgb(127,127,127)" stroke-width="40" stroke-linejoin="round" d="M 4696,14990 L 5074,14771"/>
        </g>
       </g>
       <g class="com.sun.star.drawing.LineShape">
        <g id="id29">
         <rect class="BoundingBox" stroke="none" fill="none" x="4676" y="14823" width="419" height="260"/>
         <path fill="none" stroke="rgb(127,127,127)" stroke-width="40" stroke-linejoin="round" d="M 4696,15062 L 5074,14843"/>
        </g>
       </g>
       <g class="com.sun.star.drawing.LineShape">
        <g id="id30">
         <rect class="BoundingBox" stroke="none" fill="none" x="4676" y="14896" width="419" height="260"/>
         <path fill="none" stroke="rgb(127,127,127)" stroke-width="40" stroke-linejoin="round" d="M 4696,15135 L 5074,14916"/>
        </g>
       </g>
       <g class="com.sun.star.drawing.LineShape">
        <g id="id31">
         <rect class="BoundingBox" stroke="none" fill="none" x="4676" y="14969" width="419" height="260"/>
         <path fill="none" stroke="rgb(127,127,127)" stroke-width="40" stroke-linejoin="round" d="M 4696,15208 L 5074,14989"/>
        </g>
       </g>
       <g class="com.sun.star.drawing.LineShape">
        <g id="id32">
         <rect class="BoundingBox" stroke="none" fill="none" x="4676" y="15042" width="419" height="260"/>
         <path fill="none" stroke="rgb(127,127,127)" stroke-width="40" stroke-linejoin="round" d="M 4696,15281 L 5074,15062"/>
        </g>
       </g>
       <g class="com.sun.star.drawing.LineShape">
        <g id="id33">
         <rect class="BoundingBox" stroke="none" fill="none" x="4676" y="15115" width="419" height="260"/>
         <path fill="none" stroke="rgb(127,127,127)" stroke-width="40" stroke-linejoin="round" d="M 4696,15354 L 5074,15135"/>
        </g>
       </g>
       <g class="com.sun.star.drawing.LineShape">
        <g id="id34">
         <rect class="BoundingBox" stroke="none" fill="none" x="4676" y="15187" width="419" height="260"/>
         <path fill="none" stroke="rgb(127,127,127)" stroke-width="40" stroke-linejoin="round" d="M 4696,15426 L 5074,15207"/>
        </g>
       </g>
       <g class="com.sun.star.drawing.LineShape">
        <g id="id35">
         <rect class="BoundingBox" stroke="none" fill="none" x="4676" y="15260" width="419" height="260"/>
         <path fill="none" stroke="rgb(127,127,127)" stroke-width="40" stroke-linejoin="round" d="M 4696,15499 L 5074,15280"/>
        </g>
       </g>
       <g class="com.sun.star.drawing.LineShape">
        <g id="id36">
         <rect class="BoundingBox" stroke="none" fill="none" x="4676" y="15333" width="419" height="260"/>
         <path fill="none" stroke="rgb(127,127,127)" stroke-width="40" stroke-linejoin="round" d="M 4696,15572 L 5074,15353"/>
        </g>
       </g>
       <g class="com.sun.star.drawing.LineShape">
        <g id="id37">
         <rect class="BoundingBox" stroke="none" fill="none" x="4676" y="15406" width="419" height="260"/>
         <path fill="none" stroke="rgb(127,127,127)" stroke-width="40" stroke-linejoin="round" d="M 4696,15645 L 5074,15426"/>
        </g>
       </g>
       <g class="com.sun.star.drawing.PolyPolygonShape">
        <g id="id38">
         <rect class="BoundingBox" stroke="none" fill="none" x="4550" y="14095" width="180" height="2153"/>
         <g>
          <defs>
           <pattern id="pattern2" x="4570" y="14115" width="140" height="2113" patternUnits="userSpaceOnUse">
            <g transform="translate(-4570,-14115)">
             <path fill="rgb(179,179,179)" stroke="none" d="M 4569,14114 L 4710,14114 4710,16228 4569,16228 4569,14114 Z M 4542,13713 L 4679,13713 4679,15783 4542,15783 4542,13713 Z"/>
             <path fill="rgb(180,180,180)" stroke="none" d="M 4542,13713 L 4679,13713 4679,15783 4542,15783 4542,13713 Z M 4543,13734 L 4678,13734 4678,15762 4543,15762 4543,13734 Z"/>
             <path fill="rgb(181,181,181)" stroke="none" d="M 4543,13734 L 4678,13734 4678,15762 4543,15762 4543,13734 Z M 4545,13755 L 4676,13755 4676,15741 4545,15741 4545,13755 Z"/>
             <path fill="rgb(182,182,182)" stroke="none" d="M 4545,13755 L 4676,13755 4676,15741 4545,15741 4545,13755 Z M 4546,13776 L 4675,13776 4675,15720 4546,15720 4546,13776 Z"/>
             <path fill="rgb(183,183,183)" stroke="none" d="M 4546,13776 L 4675,13776 4675,15720 4546,15720 4546,13776 Z M 4548,13797 L 4673,13797 4673,15699 4548,15699 4548,13797 Z"/>
             <path fill="rgb(184,184,184)" stroke="none" d="M 4548,13797 L 4673,13797 4673,15699 4548,15699 4548,13797 Z M 4549,13818 L 4672,13818 4672,15678 4549,15678 4549,13818 Z"/>
             <path fill="rgb(185,185,185)" stroke="none" d="M 4549,13818 L 4672,13818 4672,15678 4549,15678 4549,13818 Z M 4550,13840 L 4671,13840 4671,15656 4550,15656 4550,13840 Z"/>
             <path fill="rgb(186,186,186)" stroke="none" d="M 4550,13840 L 4671,13840 4671,15656 4550,15656 4550,13840 Z M 4551,13861 L 4669,13861 4669,15635 4551,15635 4551,13861 Z"/>
             <path fill="rgb(187,187,187)" stroke="none" d="M 4551,13861 L 4669,13861 4669,15635 4551,15635 4551,13861 Z M 4552,13882 L 4668,13882 4668,15614 4552,15614 4552,13882 Z"/>
             <path fill="rgb(188,188,188)" stroke="none" d="M 4552,13882 L 4668,13882 4668,15614 4552,15614 4552,13882 Z M 4554,13903 L 4666,13903 4666,15593 4554,15593 4554,13903 Z"/>
             <path fill="rgb(189,189,189)" stroke="none" d="M 4554,13903 L 4666,13903 4666,15593 4554,15593 4554,13903 Z M 4555,13924 L 4665,13924 4665,15572 4555,15572 4555,13924 Z"/>
             <path fill="rgb(190,190,190)" stroke="none" d="M 4555,13924 L 4665,13924 4665,15572 4555,15572 4555,13924 Z M 4557,13945 L 4663,13945 4663,15551 4557,15551 4557,13945 Z"/>
             <path fill="rgb(191,191,191)" stroke="none" d="M 4557,13945 L 4663,13945 4663,15551 4557,15551 4557,13945 Z M 4558,13966 L 4662,13966 4662,15530 4558,15530 4558,13966 Z"/>
             <path fill="rgb(192,192,192)" stroke="none" d="M 4558,13966 L 4662,13966 4662,15530 4558,15530 4558,13966 Z M 4559,13988 L 4661,13988 4661,15508 4559,15508 4559,13988 Z"/>
             <path fill="rgb(193,193,193)" stroke="none" d="M 4559,13988 L 4661,13988 4661,15508 4559,15508 4559,13988 Z M 4561,14009 L 4659,14009 4659,15487 4561,15487 4561,14009 Z"/>
             <path fill="rgb(194,194,194)" stroke="none" d="M 4561,14009 L 4659,14009 4659,15487 4561,15487 4561,14009 Z M 4562,14030 L 4658,14030 4658,15466 4562,15466 4562,14030 Z"/>
             <path fill="rgb(195,195,195)" stroke="none" d="M 4562,14030 L 4658,14030 4658,15466 4562,15466 4562,14030 Z M 4564,14051 L 4656,14051 4656,15445 4564,15445 4564,14051 Z"/>
             <path fill="rgb(196,196,196)" stroke="none" d="M 4564,14051 L 4656,14051 4656,15445 4564,15445 4564,14051 Z M 4565,14072 L 4655,14072 4655,15424 4565,15424 4565,14072 Z"/>
             <path fill="rgb(197,197,197)" stroke="none" d="M 4565,14072 L 4655,14072 4655,15424 4565,15424 4565,14072 Z M 4566,14093 L 4654,14093 4654,15403 4566,15403 4566,14093 Z"/>
             <path fill="rgb(198,198,198)" stroke="none" d="M 4566,14093 L 4654,14093 4654,15403 4566,15403 4566,14093 Z M 4568,14113 L 4652,14113 4652,15381 4568,15381 4568,14113 Z"/>
             <path fill="rgb(199,199,199)" stroke="none" d="M 4568,14113 L 4652,14113 4652,15381 4568,15381 4568,14113 Z M 4569,14135 L 4651,14135 4651,15360 4569,15360 4569,14135 Z"/>
             <path fill="rgb(200,200,200)" stroke="none" d="M 4569,14135 L 4651,14135 4651,15360 4569,15360 4569,14135 Z M 4571,14156 L 4649,14156 4649,15339 4571,15339 4571,14156 Z"/>
             <path fill="rgb(201,201,201)" stroke="none" d="M 4571,14156 L 4649,14156 4649,15339 4571,15339 4571,14156 Z M 4572,14177 L 4648,14177 4648,15318 4572,15318 4572,14177 Z"/>
             <path fill="rgb(202,202,202)" stroke="none" d="M 4572,14177 L 4648,14177 4648,15318 4572,15318 4572,14177 Z M 4574,14198 L 4646,14198 4646,15297 4574,15297 4574,14198 Z"/>
             <path fill="rgb(203,203,203)" stroke="none" d="M 4574,14198 L 4646,14198 4646,15297 4574,15297 4574,14198 Z M 4575,14219 L 4645,14219 4645,15276 4575,15276 4575,14219 Z"/>
             <path fill="rgb(204,204,204)" stroke="none" d="M 4575,14219 L 4645,14219 4645,15276 4575,15276 4575,14219 Z M 4576,14240 L 4644,14240 4644,15255 4576,15255 4576,14240 Z"/>
             <path fill="rgb(205,205,205)" stroke="none" d="M 4576,14240 L 4644,14240 4644,15255 4576,15255 4576,14240 Z M 4578,14262 L 4642,14262 4642,15233 4578,15233 4578,14262 Z"/>
             <path fill="rgb(206,206,206)" stroke="none" d="M 4578,14262 L 4642,14262 4642,15233 4578,15233 4578,14262 Z M 4579,14283 L 4641,14283 4641,15212 4579,15212 4579,14283 Z"/>
             <path fill="rgb(207,207,207)" stroke="none" d="M 4579,14283 L 4641,14283 4641,15212 4579,15212 4579,14283 Z M 4581,14304 L 4639,14304 4639,15191 4581,15191 4581,14304 Z"/>
             <path fill="rgb(208,208,208)" stroke="none" d="M 4581,14304 L 4639,14304 4639,15191 4581,15191 4581,14304 Z M 4582,14325 L 4638,14325 4638,15170 4582,15170 4582,14325 Z"/>
             <path fill="rgb(209,209,209)" stroke="none" d="M 4582,14325 L 4638,14325 4638,15170 4582,15170 4582,14325 Z M 4584,14346 L 4636,14346 4636,15149 4584,15149 4584,14346 Z"/>
             <path fill="rgb(210,210,210)" stroke="none" d="M 4584,14346 L 4636,14346 4636,15149 4584,15149 4584,14346 Z M 4585,14367 L 4635,14367 4635,15128 4585,15128 4585,14367 Z"/>
             <path fill="rgb(211,211,211)" stroke="none" d="M 4585,14367 L 4635,14367 4635,15128 4585,15128 4585,14367 Z M 4586,14388 L 4634,14388 4634,15107 4586,15107 4586,14388 Z"/>
             <path fill="rgb(212,212,212)" stroke="none" d="M 4586,14388 L 4634,14388 4634,15107 4586,15107 4586,14388 Z M 4588,14410 L 4632,14410 4632,15085 4588,15085 4588,14410 Z"/>
             <path fill="rgb(213,213,213)" stroke="none" d="M 4588,14410 L 4632,14410 4632,15085 4588,15085 4588,14410 Z M 4589,14431 L 4631,14431 4631,15064 4589,15064 4589,14431 Z"/>
             <path fill="rgb(214,214,214)" stroke="none" d="M 4589,14431 L 4631,14431 4631,15064 4589,15064 4589,14431 Z M 4591,14452 L 4629,14452 4629,15043 4591,15043 4591,14452 Z"/>
             <path fill="rgb(215,215,215)" stroke="none" d="M 4591,14452 L 4629,14452 4629,15043 4591,15043 4591,14452 Z M 4592,14473 L 4628,14473 4628,15022 4592,15022 4592,14473 Z"/>
             <path fill="rgb(216,216,216)" stroke="none" d="M 4592,14473 L 4628,14473 4628,15022 4592,15022 4592,14473 Z M 4593,14494 L 4627,14494 4627,15001 4593,15001 4593,14494 Z"/>
             <path fill="rgb(217,217,217)" stroke="none" d="M 4593,14494 L 4627,14494 4627,15001 4593,15001 4593,14494 Z M 4595,14515 L 4625,14515 4625,14980 4595,14980 4595,14515 Z"/>
             <path fill="rgb(218,218,218)" stroke="none" d="M 4595,14515 L 4625,14515 4625,14980 4595,14980 4595,14515 Z M 4596,14536 L 4624,14536 4624,14958 4596,14958 4596,14536 Z"/>
             <path fill="rgb(219,219,219)" stroke="none" d="M 4596,14536 L 4624,14536 4624,14958 4596,14958 4596,14536 Z M 4598,14558 L 4622,14558 4622,14937 4598,14937 4598,14558 Z"/>
             <path fill="rgb(220,220,220)" stroke="none" d="M 4598,14558 L 4622,14558 4622,14937 4598,14937 4598,14558 Z M 4599,14579 L 4621,14579 4621,14916 4599,14916 4599,14579 Z"/>
             <path fill="rgb(221,221,221)" stroke="none" d="M 4599,14579 L 4621,14579 4621,14916 4599,14916 4599,14579 Z M 4601,14600 L 4619,14600 4619,14895 4601,14895 4601,14600 Z"/>
             <path fill="rgb(222,222,222)" stroke="none" d="M 4601,14600 L 4619,14600 4619,14895 4601,14895 4601,14600 Z M 4602,14621 L 4618,14621 4618,14874 4602,14874 4602,14621 Z"/>
             <path fill="rgb(223,223,223)" stroke="none" d="M 4602,14621 L 4618,14621 4618,14874 4602,14874 4602,14621 Z M 4603,14642 L 4617,14642 4617,14853 4603,14853 4603,14642 Z"/>
             <path fill="rgb(224,224,224)" stroke="none" d="M 4603,14642 L 4617,14642 4617,14853 4603,14853 4603,14642 Z M 4605,14663 L 4615,14663 4615,14832 4605,14832 4605,14663 Z"/>
             <path fill="rgb(225,225,225)" stroke="none" d="M 4605,14663 L 4615,14663 4615,14832 4605,14832 4605,14663 Z M 4606,14685 L 4614,14685 4614,14810 4606,14810 4606,14685 Z"/>
             <path fill="rgb(226,226,226)" stroke="none" d="M 4606,14685 L 4614,14685 4614,14810 4606,14810 4606,14685 Z M 4608,14706 L 4612,14706 4612,14789 4608,14789 4608,14706 Z"/>
             <path fill="rgb(227,227,227)" stroke="none" d="M 4608,14706 L 4612,14706 4612,14789 4608,14789 4608,14706 Z M 4609,14727 L 4611,14727 4611,14768 4609,14768 4609,14727 Z"/>
             <path fill="rgb(229,229,229)" stroke="none" d="M 4609,14727 L 4611,14727 4611,14768 4609,14768 4609,14727 Z"/>
            </g>
           </pattern>
          </defs>
          <path style="fill:url(#pattern2)" d="M 4570,16227 L 4570,14188 4696,14115 4709,16154 4570,16227 Z"/>
         </g>
         <path fill="none" stroke="rgb(255,255,255)" stroke-width="40" stroke-linejoin="round" d="M 4570,16227 L 4570,14188 4696,14115 4709,16154 4570,16227 Z"/>
        </g>
       </g>
       <g class="com.sun.star.drawing.PolyPolygonShape">
        <g id="id39">
         <rect class="BoundingBox" stroke="none" fill="none" x="2408" y="12857" width="2813" height="3391"/>
         <path fill="none" stroke="rgb(0,0,0)" stroke-width="40" stroke-linejoin="round" d="M 2554,12877 L 2932,13096 3310,12877 5200,13969 5200,15717 4696,16008 4709,16154 4570,16227 2428,14989 2428,12950 2554,12877 Z"/>
        </g>
       </g>
      </g>
     </g>
    </g>
   </g>
  </g>
 </g>
</svg>