<?xml version="1.0" encoding="UTF-8"?>
<!DOCTYPE svg PUBLIC "-//W3C//DTD SVG 1.1//EN" "http://www.w3.org/Graphics/SVG/1.1/DTD/svg11.dtd">
<svg version="1.2" width="52.53mm" height="61.44mm" viewBox="2074 11445 5253 6144" preserveAspectRatio="xMidYMid" fill-rule="evenodd" stroke-width="28.222" stroke-linejoin="round" xmlns="http://www.w3.org/2000/svg" xmlns:ooo="http://xml.openoffice.org/svg/export" xmlns:xlink="http://www.w3.org/1999/xlink" xmlns:presentation="http://sun.com/xmlns/staroffice/presentation" xmlns:smil="http://www.w3.org/2001/SMIL20/" xmlns:anim="urn:oasis:names:tc:opendocument:xmlns:animation:1.0" xml:space="preserve">
 <defs class="ClipPathGroup">
  <clipPath id="presentation_clip_path" clipPathUnits="userSpaceOnUse">
   <rect x="2074" y="11445" width="5253" height="6144"/>
  </clipPath>
 </defs>
 <defs class="TextShapeIndex">
  <g ooo:slide="id1" ooo:id-list="id3 id4 id5 id6 id7 id8 id9 id10 id11 id12 id13 id14 id15 id16 id17 id18 id19 id20 id21 id22 id23 id24 id25 id26 id27 id28 id29 id30 id31 id32 id33 id34 id35 id36 id37 id38 id39 id40 id41 id42 id43 id44 id45 id46 id47 id48 id49 id50 id51 id52 id53 id54 id55 id56 id57 id58 id59 id60 id61 id62 id63 id64"/>
 </defs>
 <defs class="EmbeddedBulletChars">
  <g id="bullet-char-template(57356)" transform="scale(0.00048828125,-0.00048828125)">
   <path d="M 580,1141 L 1163,571 580,0 -4,571 580,1141 Z"/>
  </g>
  <g id="bullet-char-template(57354)" transform="scale(0.00048828125,-0.00048828125)">
   <path d="M 8,1128 L 1137,1128 1137,0 8,0 8,1128 Z"/>
  </g>
  <g id="bullet-char-template(10146)" transform="scale(0.00048828125,-0.00048828125)">
   <path d="M 174,0 L 602,739 174,1481 1456,739 174,0 Z M 1358,739 L 309,1346 659,739 1358,739 Z"/>
  </g>
  <g id="bullet-char-template(10132)" transform="scale(0.00048828125,-0.00048828125)">
   <path d="M 2015,739 L 1276,0 717,0 1260,543 174,543 174,936 1260,936 717,1481 1274,1481 2015,739 Z"/>
  </g>
  <g id="bullet-char-template(10007)" transform="scale(0.00048828125,-0.00048828125)">
   <path d="M 0,-2 C -7,14 -16,27 -25,37 L 356,567 C 262,823 215,952 215,954 215,979 228,992 255,992 264,992 276,990 289,987 310,991 331,999 354,1012 L 381,999 492,748 772,1049 836,1024 860,1049 C 881,1039 901,1025 922,1006 886,937 835,863 770,784 769,783 710,716 594,584 L 774,223 C 774,196 753,168 711,139 L 727,119 C 717,90 699,76 672,76 641,76 570,178 457,381 L 164,-76 C 142,-110 111,-127 72,-127 30,-127 9,-110 8,-76 1,-67 -2,-52 -2,-32 -2,-23 -1,-13 0,-2 Z"/>
  </g>
  <g id="bullet-char-template(10004)" transform="scale(0.00048828125,-0.00048828125)">
   <path d="M 285,-33 C 182,-33 111,30 74,156 52,228 41,333 41,471 41,549 55,616 82,672 116,743 169,778 240,778 293,778 328,747 346,684 L 369,508 C 377,444 397,411 428,410 L 1163,1116 C 1174,1127 1196,1133 1229,1133 1271,1133 1292,1118 1292,1087 L 1292,965 C 1292,929 1282,901 1262,881 L 442,47 C 390,-6 338,-33 285,-33 Z"/>
  </g>
  <g id="bullet-char-template(9679)" transform="scale(0.00048828125,-0.00048828125)">
   <path d="M 813,0 C 632,0 489,54 383,161 276,268 223,411 223,592 223,773 276,916 383,1023 489,1130 632,1184 813,1184 992,1184 1136,1130 1245,1023 1353,916 1407,772 1407,592 1407,412 1353,268 1245,161 1136,54 992,0 813,0 Z"/>
  </g>
  <g id="bullet-char-template(8226)" transform="scale(0.00048828125,-0.00048828125)">
   <path d="M 346,457 C 273,457 209,483 155,535 101,586 74,649 74,723 74,796 101,859 155,911 209,963 273,989 346,989 419,989 480,963 531,910 582,859 608,796 608,723 608,648 583,586 532,535 482,483 420,457 346,457 Z"/>
  </g>
  <g id="bullet-char-template(8211)" transform="scale(0.00048828125,-0.00048828125)">
   <path d="M -4,459 L 1135,459 1135,606 -4,606 -4,459 Z"/>
  </g>
 </defs>
 <defs class="TextEmbeddedBitmaps"/>
 <g class="SlideGroup">
  <g>
   <g id="id1" class="Slide" clip-path="url(#presentation_clip_path)">
    <g class="Page">
     <g class="Group">
      <g class="Group">
       <g class="com.sun.star.drawing.PolyPolygonShape">
        <g id="id3">
         <rect class="BoundingBox" stroke="none" fill="none" x="6846" y="15079" width="482" height="551"/>
         <g>
          <defs>
           <pattern id="pattern1" x="6867" y="15100" width="441" height="510" patternUnits="userSpaceOnUse">
            <g transform="translate(-6867,-15100)">
             <path fill="rgb(102,102,102)" stroke="none" d="M 6866,15099 L 7308,15099 7308,15610 6866,15610 6866,15099 Z M 6782,15002 L 7214,15002 7214,15501 6782,15501 6782,15002 Z"/>
             <path fill="rgb(103,103,103)" stroke="none" d="M 6782,15002 L 7214,15002 7214,15501 6782,15501 6782,15002 Z M 6786,15007 L 7210,15007 7210,15496 6786,15496 6786,15007 Z"/>
             <path fill="rgb(104,104,104)" stroke="none" d="M 6786,15007 L 7210,15007 7210,15496 6786,15496 6786,15007 Z M 6791,15012 L 7205,15012 7205,15491 6791,15491 6791,15012 Z"/>
             <path fill="rgb(105,105,105)" stroke="none" d="M 6791,15012 L 7205,15012 7205,15491 6791,15491 6791,15012 Z M 6795,15017 L 7201,15017 7201,15486 6795,15486 6795,15017 Z"/>
             <path fill="rgb(106,106,106)" stroke="none" d="M 6795,15017 L 7201,15017 7201,15486 6795,15486 6795,15017 Z M 6799,15022 L 7197,15022 7197,15481 6799,15481 6799,15022 Z"/>
             <path fill="rgb(107,107,107)" stroke="none" d="M 6799,15022 L 7197,15022 7197,15481 6799,15481 6799,15022 Z M 6804,15027 L 7192,15027 7192,15476 6804,15476 6804,15027 Z"/>
             <path fill="rgb(108,108,108)" stroke="none" d="M 6804,15027 L 7192,15027 7192,15476 6804,15476 6804,15027 Z M 6808,15032 L 7188,15032 7188,15471 6808,15471 6808,15032 Z"/>
             <path fill="rgb(109,109,109)" stroke="none" d="M 6808,15032 L 7188,15032 7188,15471 6808,15471 6808,15032 Z M 6812,15037 L 7184,15037 7184,15466 6812,15466 6812,15037 Z"/>
             <path fill="rgb(110,110,110)" stroke="none" d="M 6812,15037 L 7184,15037 7184,15466 6812,15466 6812,15037 Z M 6817,15042 L 7179,15042 7179,15461 6817,15461 6817,15042 Z"/>
             <path fill="rgb(111,111,111)" stroke="none" d="M 6817,15042 L 7179,15042 7179,15461 6817,15461 6817,15042 Z M 6821,15047 L 7175,15047 7175,15456 6821,15456 6821,15047 Z"/>
             <path fill="rgb(112,112,112)" stroke="none" d="M 6821,15047 L 7175,15047 7175,15456 6821,15456 6821,15047 Z M 6825,15052 L 7171,15052 7171,15451 6825,15451 6825,15052 Z"/>
             <path fill="rgb(113,113,113)" stroke="none" d="M 6825,15052 L 7171,15052 7171,15451 6825,15451 6825,15052 Z M 6830,15057 L 7166,15057 7166,15446 6830,15446 6830,15057 Z"/>
             <path fill="rgb(114,114,114)" stroke="none" d="M 6830,15057 L 7166,15057 7166,15446 6830,15446 6830,15057 Z M 6834,15062 L 7162,15062 7162,15441 6834,15441 6834,15062 Z"/>
             <path fill="rgb(115,115,115)" stroke="none" d="M 6834,15062 L 7162,15062 7162,15441 6834,15441 6834,15062 Z M 6838,15067 L 7158,15067 7158,15436 6838,15436 6838,15067 Z"/>
             <path fill="rgb(116,116,116)" stroke="none" d="M 6838,15067 L 7158,15067 7158,15436 6838,15436 6838,15067 Z M 6843,15072 L 7153,15072 7153,15431 6843,15431 6843,15072 Z"/>
             <path fill="rgb(117,117,117)" stroke="none" d="M 6843,15072 L 7153,15072 7153,15431 6843,15431 6843,15072 Z M 6846,15077 L 7149,15077 7149,15426 6846,15426 6846,15077 Z"/>
             <path fill="rgb(118,118,118)" stroke="none" d="M 6846,15077 L 7149,15077 7149,15426 6846,15426 6846,15077 Z M 6850,15081 L 7145,15081 7145,15421 6850,15421 6850,15081 Z"/>
             <path fill="rgb(119,119,119)" stroke="none" d="M 6850,15081 L 7145,15081 7145,15421 6850,15421 6850,15081 Z M 6855,15086 L 7140,15086 7140,15416 6855,15416 6855,15086 Z"/>
             <path fill="rgb(120,120,120)" stroke="none" d="M 6855,15086 L 7140,15086 7140,15416 6855,15416 6855,15086 Z M 6859,15091 L 7136,15091 7136,15411 6859,15411 6859,15091 Z"/>
             <path fill="rgb(121,121,121)" stroke="none" d="M 6859,15091 L 7136,15091 7136,15411 6859,15411 6859,15091 Z M 6863,15096 L 7132,15096 7132,15406 6863,15406 6863,15096 Z"/>
             <path fill="rgb(122,122,122)" stroke="none" d="M 6863,15096 L 7132,15096 7132,15406 6863,15406 6863,15096 Z M 6868,15101 L 7127,15101 7127,15401 6868,15401 6868,15101 Z"/>
             <path fill="rgb(123,123,123)" stroke="none" d="M 6868,15101 L 7127,15101 7127,15401 6868,15401 6868,15101 Z M 6872,15106 L 7123,15106 7123,15396 6872,15396 6872,15106 Z"/>
             <path fill="rgb(124,124,124)" stroke="none" d="M 6872,15106 L 7123,15106 7123,15396 6872,15396 6872,15106 Z M 6876,15111 L 7119,15111 7119,15391 6876,15391 6876,15111 Z"/>
             <path fill="rgb(125,125,125)" stroke="none" d="M 6876,15111 L 7119,15111 7119,15391 6876,15391 6876,15111 Z M 6881,15116 L 7114,15116 7114,15386 6881,15386 6881,15116 Z"/>
             <path fill="rgb(126,126,126)" stroke="none" d="M 6881,15116 L 7114,15116 7114,15386 6881,15386 6881,15116 Z M 6885,15121 L 7110,15121 7110,15381 6885,15381 6885,15121 Z"/>
             <path fill="rgb(127,127,127)" stroke="none" d="M 6885,15121 L 7110,15121 7110,15381 6885,15381 6885,15121 Z M 6889,15126 L 7106,15126 7106,15376 6889,15376 6889,15126 Z"/>
             <path fill="rgb(128,128,128)" stroke="none" d="M 6889,15126 L 7106,15126 7106,15376 6889,15376 6889,15126 Z M 6894,15131 L 7101,15131 7101,15371 6894,15371 6894,15131 Z"/>
             <path fill="rgb(129,129,129)" stroke="none" d="M 6894,15131 L 7101,15131 7101,15371 6894,15371 6894,15131 Z M 6898,15136 L 7097,15136 7097,15366 6898,15366 6898,15136 Z"/>
             <path fill="rgb(130,130,130)" stroke="none" d="M 6898,15136 L 7097,15136 7097,15366 6898,15366 6898,15136 Z M 6902,15141 L 7093,15141 7093,15361 6902,15361 6902,15141 Z"/>
             <path fill="rgb(131,131,131)" stroke="none" d="M 6902,15141 L 7093,15141 7093,15361 6902,15361 6902,15141 Z M 6907,15146 L 7088,15146 7088,15356 6907,15356 6907,15146 Z"/>
             <path fill="rgb(132,132,132)" stroke="none" d="M 6907,15146 L 7088,15146 7088,15356 6907,15356 6907,15146 Z M 6911,15151 L 7084,15151 7084,15351 6911,15351 6911,15151 Z"/>
             <path fill="rgb(133,133,133)" stroke="none" d="M 6911,15151 L 7084,15151 7084,15351 6911,15351 6911,15151 Z M 6915,15156 L 7080,15156 7080,15346 6915,15346 6915,15156 Z"/>
             <path fill="rgb(134,134,134)" stroke="none" d="M 6915,15156 L 7080,15156 7080,15346 6915,15346 6915,15156 Z M 6920,15161 L 7075,15161 7075,15341 6920,15341 6920,15161 Z"/>
             <path fill="rgb(135,135,135)" stroke="none" d="M 6920,15161 L 7075,15161 7075,15341 6920,15341 6920,15161 Z M 6924,15166 L 7071,15166 7071,15336 6924,15336 6924,15166 Z"/>
             <path fill="rgb(136,136,136)" stroke="none" d="M 6924,15166 L 7071,15166 7071,15336 6924,15336 6924,15166 Z M 6929,15171 L 7066,15171 7066,15331 6929,15331 6929,15171 Z"/>
             <path fill="rgb(137,137,137)" stroke="none" d="M 6929,15171 L 7066,15171 7066,15331 6929,15331 6929,15171 Z M 6933,15176 L 7062,15176 7062,15326 6933,15326 6933,15176 Z"/>
             <path fill="rgb(138,138,138)" stroke="none" d="M 6933,15176 L 7062,15176 7062,15326 6933,15326 6933,15176 Z M 6937,15181 L 7058,15181 7058,15321 6937,15321 6937,15181 Z"/>
             <path fill="rgb(139,139,139)" stroke="none" d="M 6937,15181 L 7058,15181 7058,15321 6937,15321 6937,15181 Z M 6942,15186 L 7053,15186 7053,15316 6942,15316 6942,15186 Z"/>
             <path fill="rgb(140,140,140)" stroke="none" d="M 6942,15186 L 7053,15186 7053,15316 6942,15316 6942,15186 Z M 6946,15191 L 7049,15191 7049,15311 6946,15311 6946,15191 Z"/>
             <path fill="rgb(141,141,141)" stroke="none" d="M 6946,15191 L 7049,15191 7049,15311 6946,15311 6946,15191 Z M 6950,15196 L 7045,15196 7045,15306 6950,15306 6950,15196 Z"/>
             <path fill="rgb(142,142,142)" stroke="none" d="M 6950,15196 L 7045,15196 7045,15306 6950,15306 6950,15196 Z M 6955,15201 L 7040,15201 7040,15301 6955,15301 6955,15201 Z"/>
             <path fill="rgb(143,143,143)" stroke="none" d="M 6955,15201 L 7040,15201 7040,15301 6955,15301 6955,15201 Z M 6959,15206 L 7036,15206 7036,15296 6959,15296 6959,15206 Z"/>
             <path fill="rgb(144,144,144)" stroke="none" d="M 6959,15206 L 7036,15206 7036,15296 6959,15296 6959,15206 Z M 6963,15211 L 7032,15211 7032,15291 6963,15291 6963,15211 Z"/>
             <path fill="rgb(145,145,145)" stroke="none" d="M 6963,15211 L 7032,15211 7032,15291 6963,15291 6963,15211 Z M 6968,15216 L 7027,15216 7027,15286 6968,15286 6968,15216 Z"/>
             <path fill="rgb(146,146,146)" stroke="none" d="M 6968,15216 L 7027,15216 7027,15286 6968,15286 6968,15216 Z M 6972,15221 L 7023,15221 7023,15281 6972,15281 6972,15221 Z"/>
             <path fill="rgb(147,147,147)" stroke="none" d="M 6972,15221 L 7023,15221 7023,15281 6972,15281 6972,15221 Z M 6976,15226 L 7019,15226 7019,15276 6976,15276 6976,15226 Z"/>
             <path fill="rgb(148,148,148)" stroke="none" d="M 6976,15226 L 7019,15226 7019,15276 6976,15276 6976,15226 Z M 6981,15231 L 7014,15231 7014,15271 6981,15271 6981,15231 Z"/>
             <path fill="rgb(149,149,149)" stroke="none" d="M 6981,15231 L 7014,15231 7014,15271 6981,15271 6981,15231 Z M 6985,15236 L 7010,15236 7010,15266 6985,15266 6985,15236 Z"/>
             <path fill="rgb(150,150,150)" stroke="none" d="M 6985,15236 L 7010,15236 7010,15266 6985,15266 6985,15236 Z M 6989,15241 L 7006,15241 7006,15261 6989,15261 6989,15241 Z"/>
             <path fill="rgb(151,151,151)" stroke="none" d="M 6989,15241 L 7006,15241 7006,15261 6989,15261 6989,15241 Z M 6994,15246 L 7001,15246 7001,15256 6994,15256 6994,15246 Z"/>
             <path fill="rgb(153,153,153)" stroke="none" d="M 6994,15246 L 7001,15246 7001,15256 6994,15256 6994,15246 Z"/>
            </g>
           </pattern>
          </defs>
          <path style="fill:url(#pattern1)" d="M 7307,15405 L 7219,15100 6867,15303 6955,15609 7307,15405 Z"/>
         </g>
         <path fill="none" stroke="rgb(178,178,178)" stroke-width="40" stroke-linejoin="round" d="M 7307,15405 L 7219,15100 6867,15303 6955,15609 7307,15405 Z"/>
        </g>
       </g>
       <g class="com.sun.star.drawing.PolyPolygonShape">
        <g id="id4">
         <rect class="BoundingBox" stroke="none" fill="none" x="6231" y="14724" width="1009" height="600"/>
         <g>
          <defs>
           <linearGradient id="gradient1" x1="6735" y1="14744" x2="6735" y2="15303" gradientUnits="userSpaceOnUse">
            <stop offset="0.1" style="stop-color:rgb(51,51,51)"/>
            <stop offset="1" style="stop-color:rgb(153,153,153)"/>
           </linearGradient>
          </defs>
          <path style="fill:url(#gradient1)" d="M 7219,15100 L 7043,14947 6779,14795 6603,14744 6251,14947 6427,14998 6691,15151 6867,15303 7219,15100 Z"/>
         </g>
         <path fill="none" stroke="rgb(178,178,178)" stroke-width="40" stroke-linejoin="round" d="M 7219,15100 L 7043,14947 6779,14795 6603,14744 6251,14947 6427,14998 6691,15151 6867,15303 7219,15100 Z"/>
        </g>
       </g>
       <g class="com.sun.star.drawing.ClosedBezierShape">
        <g id="id5">
         <rect class="BoundingBox" stroke="none" fill="none" x="6143" y="14927" width="834" height="703"/>
         <g>
          <defs>
           <linearGradient id="gradient2" x1="6163" y1="15277" x2="6956" y2="15277" gradientUnits="userSpaceOnUse">
            <stop offset="0.1" style="stop-color:rgb(102,102,102)"/>
            <stop offset="1" style="stop-color:rgb(153,153,153)"/>
           </linearGradient>
          </defs>
          <path style="fill:url(#gradient2)" d="M 6163,15150 L 6165,15098 6171,15054 6180,15019 6186,15004 6193,14991 6201,14980 6209,14971 6218,14963 6228,14957 6238,14953 6249,14949 6261,14948 6273,14947 6286,14948 6299,14949 6326,14956 6355,14966 6386,14979 6449,15012 6515,15049 6646,15115 6677,15131 6708,15150 6739,15171 6768,15195 6796,15223 6824,15257 6849,15296 6874,15342 6897,15395 6918,15457 6937,15527 6955,15608 6163,15150 Z"/>
         </g>
         <path fill="none" stroke="rgb(178,178,178)" stroke-width="40" stroke-linejoin="round" d="M 6163,15150 C 6163,14845 6339,14947 6515,15049 6691,15150 6867,15150 6955,15608 6955,15608 6603,15405 6163,15150 Z"/>
        </g>
       </g>
       <g class="com.sun.star.drawing.ClosedBezierShape">
        <g id="id6">
         <rect class="BoundingBox" stroke="none" fill="none" x="6143" y="14724" width="1185" height="906"/>
         <path fill="none" stroke="rgb(0,0,0)" stroke-width="40" stroke-linejoin="round" d="M 6603,14744 C 6779,14795 6779,14795 6955,14897 7043,14947 7219,14998 7307,15405 7131,15507 7131,15507 6955,15609 6854,15562 6339,15253 6163,15151 6163,14897 6339,14897 6603,14744 Z"/>
        </g>
       </g>
      </g>
      <g class="Group">
       <g class="com.sun.star.drawing.ClosedBezierShape">
        <g id="id7">
         <rect class="BoundingBox" stroke="none" fill="none" x="3367" y="15424" width="1059" height="671"/>
         <path fill="rgb(221,221,221)" stroke="none" d="M 3387,16074 C 3628,16074 4236,15794 4357,15724 4478,15654 4356,15444 4115,15444 4115,15597 3387,16074 3387,16074 Z"/>
         <path fill="none" stroke="rgb(221,221,221)" stroke-width="40" stroke-linejoin="round" d="M 3387,16074 C 3628,16074 4236,15794 4357,15724 4478,15654 4356,15444 4115,15444 4115,15597 3387,16074 3387,16074 Z"/>
        </g>
       </g>
       <g class="Group">
        <g class="com.sun.star.drawing.PolyPolygonShape">
         <g id="id8">
          <rect class="BoundingBox" stroke="none" fill="none" x="3217" y="15412" width="922" height="753"/>
          <g>
           <defs>
            <pattern id="pattern2" x="3238" y="15432" width="881" height="713" patternUnits="userSpaceOnUse">
             <g transform="translate(-3238,-15432)">
              <path fill="rgb(102,102,102)" stroke="none" d="M 3237,15431 L 4119,15431 4119,16145 3237,16145 3237,15431 Z M 3069,15296 L 3933,15296 3933,15994 3069,15994 3069,15296 Z"/>
              <path fill="rgb(103,103,103)" stroke="none" d="M 3069,15296 L 3933,15296 3933,15994 3069,15994 3069,15296 Z M 3078,15303 L 3924,15303 3924,15987 3078,15987 3078,15303 Z"/>
              <path fill="rgb(104,104,104)" stroke="none" d="M 3078,15303 L 3924,15303 3924,15987 3078,15987 3078,15303 Z M 3086,15310 L 3916,15310 3916,15980 3086,15980 3086,15310 Z"/>
              <path fill="rgb(105,105,105)" stroke="none" d="M 3086,15310 L 3916,15310 3916,15980 3086,15980 3086,15310 Z M 3095,15317 L 3907,15317 3907,15973 3095,15973 3095,15317 Z"/>
              <path fill="rgb(106,106,106)" stroke="none" d="M 3095,15317 L 3907,15317 3907,15973 3095,15973 3095,15317 Z M 3104,15324 L 3898,15324 3898,15966 3104,15966 3104,15324 Z"/>
              <path fill="rgb(107,107,107)" stroke="none" d="M 3104,15324 L 3898,15324 3898,15966 3104,15966 3104,15324 Z M 3112,15331 L 3890,15331 3890,15959 3112,15959 3112,15331 Z"/>
              <path fill="rgb(108,108,108)" stroke="none" d="M 3112,15331 L 3890,15331 3890,15959 3112,15959 3112,15331 Z M 3121,15338 L 3881,15338 3881,15952 3121,15952 3121,15338 Z"/>
              <path fill="rgb(109,109,109)" stroke="none" d="M 3121,15338 L 3881,15338 3881,15952 3121,15952 3121,15338 Z M 3130,15345 L 3872,15345 3872,15945 3130,15945 3130,15345 Z"/>
              <path fill="rgb(110,110,110)" stroke="none" d="M 3130,15345 L 3872,15345 3872,15945 3130,15945 3130,15345 Z M 3138,15352 L 3864,15352 3864,15938 3138,15938 3138,15352 Z"/>
              <path fill="rgb(111,111,111)" stroke="none" d="M 3138,15352 L 3864,15352 3864,15938 3138,15938 3138,15352 Z M 3147,15359 L 3855,15359 3855,15931 3147,15931 3147,15359 Z"/>
              <path fill="rgb(112,112,112)" stroke="none" d="M 3147,15359 L 3855,15359 3855,15931 3147,15931 3147,15359 Z M 3156,15366 L 3846,15366 3846,15924 3156,15924 3156,15366 Z"/>
              <path fill="rgb(113,113,113)" stroke="none" d="M 3156,15366 L 3846,15366 3846,15924 3156,15924 3156,15366 Z M 3164,15373 L 3838,15373 3838,15917 3164,15917 3164,15373 Z"/>
              <path fill="rgb(114,114,114)" stroke="none" d="M 3164,15373 L 3838,15373 3838,15917 3164,15917 3164,15373 Z M 3173,15380 L 3829,15380 3829,15910 3173,15910 3173,15380 Z"/>
              <path fill="rgb(115,115,115)" stroke="none" d="M 3173,15380 L 3829,15380 3829,15910 3173,15910 3173,15380 Z M 3182,15387 L 3820,15387 3820,15903 3182,15903 3182,15387 Z"/>
              <path fill="rgb(116,116,116)" stroke="none" d="M 3182,15387 L 3820,15387 3820,15903 3182,15903 3182,15387 Z M 3190,15394 L 3812,15394 3812,15896 3190,15896 3190,15394 Z"/>
              <path fill="rgb(117,117,117)" stroke="none" d="M 3190,15394 L 3812,15394 3812,15896 3190,15896 3190,15394 Z M 3199,15401 L 3803,15401 3803,15889 3199,15889 3199,15401 Z"/>
              <path fill="rgb(118,118,118)" stroke="none" d="M 3199,15401 L 3803,15401 3803,15889 3199,15889 3199,15401 Z M 3208,15408 L 3794,15408 3794,15882 3208,15882 3208,15408 Z"/>
              <path fill="rgb(119,119,119)" stroke="none" d="M 3208,15408 L 3794,15408 3794,15882 3208,15882 3208,15408 Z M 3216,15414 L 3786,15414 3786,15875 3216,15875 3216,15414 Z"/>
              <path fill="rgb(120,120,120)" stroke="none" d="M 3216,15414 L 3786,15414 3786,15875 3216,15875 3216,15414 Z M 3224,15421 L 3777,15421 3777,15868 3224,15868 3224,15421 Z"/>
              <path fill="rgb(121,121,121)" stroke="none" d="M 3224,15421 L 3777,15421 3777,15868 3224,15868 3224,15421 Z M 3233,15428 L 3768,15428 3768,15861 3233,15861 3233,15428 Z"/>
              <path fill="rgb(122,122,122)" stroke="none" d="M 3233,15428 L 3768,15428 3768,15861 3233,15861 3233,15428 Z M 3241,15435 L 3760,15435 3760,15854 3241,15854 3241,15435 Z"/>
              <path fill="rgb(123,123,123)" stroke="none" d="M 3241,15435 L 3760,15435 3760,15854 3241,15854 3241,15435 Z M 3250,15442 L 3751,15442 3751,15847 3250,15847 3250,15442 Z"/>
              <path fill="rgb(124,124,124)" stroke="none" d="M 3250,15442 L 3751,15442 3751,15847 3250,15847 3250,15442 Z M 3259,15449 L 3742,15449 3742,15840 3259,15840 3259,15449 Z"/>
              <path fill="rgb(125,125,125)" stroke="none" d="M 3259,15449 L 3742,15449 3742,15840 3259,15840 3259,15449 Z M 3267,15456 L 3734,15456 3734,15833 3267,15833 3267,15456 Z"/>
              <path fill="rgb(126,126,126)" stroke="none" d="M 3267,15456 L 3734,15456 3734,15833 3267,15833 3267,15456 Z M 3276,15463 L 3725,15463 3725,15826 3276,15826 3276,15463 Z"/>
              <path fill="rgb(127,127,127)" stroke="none" d="M 3276,15463 L 3725,15463 3725,15826 3276,15826 3276,15463 Z M 3285,15470 L 3716,15470 3716,15819 3285,15819 3285,15470 Z"/>
              <path fill="rgb(128,128,128)" stroke="none" d="M 3285,15470 L 3716,15470 3716,15819 3285,15819 3285,15470 Z M 3293,15477 L 3708,15477 3708,15812 3293,15812 3293,15477 Z"/>
              <path fill="rgb(129,129,129)" stroke="none" d="M 3293,15477 L 3708,15477 3708,15812 3293,15812 3293,15477 Z M 3302,15484 L 3699,15484 3699,15805 3302,15805 3302,15484 Z"/>
              <path fill="rgb(130,130,130)" stroke="none" d="M 3302,15484 L 3699,15484 3699,15805 3302,15805 3302,15484 Z M 3311,15491 L 3690,15491 3690,15798 3311,15798 3311,15491 Z"/>
              <path fill="rgb(131,131,131)" stroke="none" d="M 3311,15491 L 3690,15491 3690,15798 3311,15798 3311,15491 Z M 3319,15498 L 3682,15498 3682,15791 3319,15791 3319,15498 Z"/>
              <path fill="rgb(132,132,132)" stroke="none" d="M 3319,15498 L 3682,15498 3682,15791 3319,15791 3319,15498 Z M 3328,15505 L 3673,15505 3673,15784 3328,15784 3328,15505 Z"/>
              <path fill="rgb(133,133,133)" stroke="none" d="M 3328,15505 L 3673,15505 3673,15784 3328,15784 3328,15505 Z M 3337,15512 L 3664,15512 3664,15777 3337,15777 3337,15512 Z"/>
              <path fill="rgb(134,134,134)" stroke="none" d="M 3337,15512 L 3664,15512 3664,15777 3337,15777 3337,15512 Z M 3345,15519 L 3656,15519 3656,15770 3345,15770 3345,15519 Z"/>
              <path fill="rgb(135,135,135)" stroke="none" d="M 3345,15519 L 3656,15519 3656,15770 3345,15770 3345,15519 Z M 3354,15526 L 3647,15526 3647,15763 3354,15763 3354,15526 Z"/>
              <path fill="rgb(136,136,136)" stroke="none" d="M 3354,15526 L 3647,15526 3647,15763 3354,15763 3354,15526 Z M 3362,15533 L 3639,15533 3639,15756 3362,15756 3362,15533 Z"/>
              <path fill="rgb(137,137,137)" stroke="none" d="M 3362,15533 L 3639,15533 3639,15756 3362,15756 3362,15533 Z M 3371,15540 L 3630,15540 3630,15749 3371,15749 3371,15540 Z"/>
              <path fill="rgb(138,138,138)" stroke="none" d="M 3371,15540 L 3630,15540 3630,15749 3371,15749 3371,15540 Z M 3380,15547 L 3621,15547 3621,15742 3380,15742 3380,15547 Z"/>
              <path fill="rgb(139,139,139)" stroke="none" d="M 3380,15547 L 3621,15547 3621,15742 3380,15742 3380,15547 Z M 3388,15554 L 3613,15554 3613,15735 3388,15735 3388,15554 Z"/>
              <path fill="rgb(140,140,140)" stroke="none" d="M 3388,15554 L 3613,15554 3613,15735 3388,15735 3388,15554 Z M 3397,15561 L 3604,15561 3604,15728 3397,15728 3397,15561 Z"/>
              <path fill="rgb(141,141,141)" stroke="none" d="M 3397,15561 L 3604,15561 3604,15728 3397,15728 3397,15561 Z M 3406,15568 L 3595,15568 3595,15721 3406,15721 3406,15568 Z"/>
              <path fill="rgb(142,142,142)" stroke="none" d="M 3406,15568 L 3595,15568 3595,15721 3406,15721 3406,15568 Z M 3414,15575 L 3587,15575 3587,15714 3414,15714 3414,15575 Z"/>
              <path fill="rgb(143,143,143)" stroke="none" d="M 3414,15575 L 3587,15575 3587,15714 3414,15714 3414,15575 Z M 3423,15582 L 3578,15582 3578,15707 3423,15707 3423,15582 Z"/>
              <path fill="rgb(144,144,144)" stroke="none" d="M 3423,15582 L 3578,15582 3578,15707 3423,15707 3423,15582 Z M 3432,15589 L 3569,15589 3569,15700 3432,15700 3432,15589 Z"/>
              <path fill="rgb(145,145,145)" stroke="none" d="M 3432,15589 L 3569,15589 3569,15700 3432,15700 3432,15589 Z M 3440,15596 L 3561,15596 3561,15693 3440,15693 3440,15596 Z"/>
              <path fill="rgb(146,146,146)" stroke="none" d="M 3440,15596 L 3561,15596 3561,15693 3440,15693 3440,15596 Z M 3449,15603 L 3552,15603 3552,15686 3449,15686 3449,15603 Z"/>
              <path fill="rgb(147,147,147)" stroke="none" d="M 3449,15603 L 3552,15603 3552,15686 3449,15686 3449,15603 Z M 3458,15610 L 3543,15610 3543,15679 3458,15679 3458,15610 Z"/>
              <path fill="rgb(148,148,148)" stroke="none" d="M 3458,15610 L 3543,15610 3543,15679 3458,15679 3458,15610 Z M 3466,15617 L 3535,15617 3535,15672 3466,15672 3466,15617 Z"/>
              <path fill="rgb(149,149,149)" stroke="none" d="M 3466,15617 L 3535,15617 3535,15672 3466,15672 3466,15617 Z M 3475,15624 L 3526,15624 3526,15665 3475,15665 3475,15624 Z"/>
              <path fill="rgb(150,150,150)" stroke="none" d="M 3475,15624 L 3526,15624 3526,15665 3475,15665 3475,15624 Z M 3484,15631 L 3517,15631 3517,15658 3484,15658 3484,15631 Z"/>
              <path fill="rgb(151,151,151)" stroke="none" d="M 3484,15631 L 3517,15631 3517,15658 3484,15658 3484,15631 Z M 3492,15638 L 3509,15638 3509,15651 3492,15651 3492,15638 Z"/>
              <path fill="rgb(153,153,153)" stroke="none" d="M 3492,15638 L 3509,15638 3509,15651 3492,15651 3492,15638 Z"/>
             </g>
            </pattern>
           </defs>
           <path style="fill:url(#pattern2)" d="M 4118,15635 L 4118,15432 3238,15941 3238,16144 4118,15635 Z"/>
          </g>
          <path fill="none" stroke="rgb(178,178,178)" stroke-width="40" stroke-linejoin="round" d="M 4118,15635 L 4118,15432 3238,15941 3238,16144 4118,15635 Z"/>
         </g>
        </g>
        <g class="com.sun.star.drawing.PolyPolygonShape">
         <g id="id9">
          <rect class="BoundingBox" stroke="none" fill="none" x="2514" y="14649" width="921" height="906"/>
          <g>
           <defs>
            <pattern id="pattern3" x="2534" y="14669" width="881" height="866" patternUnits="userSpaceOnUse">
             <g transform="translate(-2534,-14669)">
              <path fill="rgb(102,102,102)" stroke="none" d="M 2533,14668 L 3415,14668 3415,15535 2533,15535 2533,14668 Z M 2365,14503 L 3229,14503 3229,15352 2365,15352 2365,14503 Z"/>
              <path fill="rgb(103,103,103)" stroke="none" d="M 2365,14503 L 3229,14503 3229,15352 2365,15352 2365,14503 Z M 2374,14512 L 3220,14512 3220,15343 2374,15343 2374,14512 Z"/>
              <path fill="rgb(104,104,104)" stroke="none" d="M 2374,14512 L 3220,14512 3220,15343 2374,15343 2374,14512 Z M 2382,14520 L 3212,14520 3212,15335 2382,15335 2382,14520 Z"/>
              <path fill="rgb(105,105,105)" stroke="none" d="M 2382,14520 L 3212,14520 3212,15335 2382,15335 2382,14520 Z M 2391,14529 L 3203,14529 3203,15326 2391,15326 2391,14529 Z"/>
              <path fill="rgb(106,106,106)" stroke="none" d="M 2391,14529 L 3203,14529 3203,15326 2391,15326 2391,14529 Z M 2400,14537 L 3194,14537 3194,15318 2400,15318 2400,14537 Z"/>
              <path fill="rgb(107,107,107)" stroke="none" d="M 2400,14537 L 3194,14537 3194,15318 2400,15318 2400,14537 Z M 2408,14546 L 3186,14546 3186,15309 2408,15309 2408,14546 Z"/>
              <path fill="rgb(108,108,108)" stroke="none" d="M 2408,14546 L 3186,14546 3186,15309 2408,15309 2408,14546 Z M 2417,14554 L 3177,14554 3177,15301 2417,15301 2417,14554 Z"/>
              <path fill="rgb(109,109,109)" stroke="none" d="M 2417,14554 L 3177,14554 3177,15301 2417,15301 2417,14554 Z M 2426,14563 L 3168,14563 3168,15292 2426,15292 2426,14563 Z"/>
              <path fill="rgb(110,110,110)" stroke="none" d="M 2426,14563 L 3168,14563 3168,15292 2426,15292 2426,14563 Z M 2434,14571 L 3160,14571 3160,15284 2434,15284 2434,14571 Z"/>
              <path fill="rgb(111,111,111)" stroke="none" d="M 2434,14571 L 3160,14571 3160,15284 2434,15284 2434,14571 Z M 2443,14580 L 3151,14580 3151,15275 2443,15275 2443,14580 Z"/>
              <path fill="rgb(112,112,112)" stroke="none" d="M 2443,14580 L 3151,14580 3151,15275 2443,15275 2443,14580 Z M 2452,14588 L 3142,14588 3142,15267 2452,15267 2452,14588 Z"/>
              <path fill="rgb(113,113,113)" stroke="none" d="M 2452,14588 L 3142,14588 3142,15267 2452,15267 2452,14588 Z M 2460,14597 L 3134,14597 3134,15258 2460,15258 2460,14597 Z"/>
              <path fill="rgb(114,114,114)" stroke="none" d="M 2460,14597 L 3134,14597 3134,15258 2460,15258 2460,14597 Z M 2469,14605 L 3125,14605 3125,15250 2469,15250 2469,14605 Z"/>
              <path fill="rgb(115,115,115)" stroke="none" d="M 2469,14605 L 3125,14605 3125,15250 2469,15250 2469,14605 Z M 2478,14614 L 3116,14614 3116,15241 2478,15241 2478,14614 Z"/>
              <path fill="rgb(116,116,116)" stroke="none" d="M 2478,14614 L 3116,14614 3116,15241 2478,15241 2478,14614 Z M 2486,14622 L 3108,14622 3108,15233 2486,15233 2486,14622 Z"/>
              <path fill="rgb(117,117,117)" stroke="none" d="M 2486,14622 L 3108,14622 3108,15233 2486,15233 2486,14622 Z M 2495,14631 L 3099,14631 3099,15224 2495,15224 2495,14631 Z"/>
              <path fill="rgb(118,118,118)" stroke="none" d="M 2495,14631 L 3099,14631 3099,15224 2495,15224 2495,14631 Z M 2504,14639 L 3090,14639 3090,15216 2504,15216 2504,14639 Z"/>
              <path fill="rgb(119,119,119)" stroke="none" d="M 2504,14639 L 3090,14639 3090,15216 2504,15216 2504,14639 Z M 2512,14648 L 3082,14648 3082,15207 2512,15207 2512,14648 Z"/>
              <path fill="rgb(120,120,120)" stroke="none" d="M 2512,14648 L 3082,14648 3082,15207 2512,15207 2512,14648 Z M 2520,14655 L 3073,14655 3073,15199 2520,15199 2520,14655 Z"/>
              <path fill="rgb(121,121,121)" stroke="none" d="M 2520,14655 L 3073,14655 3073,15199 2520,15199 2520,14655 Z M 2529,14664 L 3064,14664 3064,15190 2529,15190 2529,14664 Z"/>
              <path fill="rgb(122,122,122)" stroke="none" d="M 2529,14664 L 3064,14664 3064,15190 2529,15190 2529,14664 Z M 2537,14672 L 3056,14672 3056,15182 2537,15182 2537,14672 Z"/>
              <path fill="rgb(123,123,123)" stroke="none" d="M 2537,14672 L 3056,14672 3056,15182 2537,15182 2537,14672 Z M 2546,14681 L 3047,14681 3047,15173 2546,15173 2546,14681 Z"/>
              <path fill="rgb(124,124,124)" stroke="none" d="M 2546,14681 L 3047,14681 3047,15173 2546,15173 2546,14681 Z M 2555,14689 L 3038,14689 3038,15165 2555,15165 2555,14689 Z"/>
              <path fill="rgb(125,125,125)" stroke="none" d="M 2555,14689 L 3038,14689 3038,15165 2555,15165 2555,14689 Z M 2563,14698 L 3030,14698 3030,15156 2563,15156 2563,14698 Z"/>
              <path fill="rgb(126,126,126)" stroke="none" d="M 2563,14698 L 3030,14698 3030,15156 2563,15156 2563,14698 Z M 2572,14706 L 3021,14706 3021,15148 2572,15148 2572,14706 Z"/>
              <path fill="rgb(127,127,127)" stroke="none" d="M 2572,14706 L 3021,14706 3021,15148 2572,15148 2572,14706 Z M 2581,14715 L 3012,14715 3012,15139 2581,15139 2581,14715 Z"/>
              <path fill="rgb(128,128,128)" stroke="none" d="M 2581,14715 L 3012,14715 3012,15139 2581,15139 2581,14715 Z M 2589,14723 L 3004,14723 3004,15131 2589,15131 2589,14723 Z"/>
              <path fill="rgb(129,129,129)" stroke="none" d="M 2589,14723 L 3004,14723 3004,15131 2589,15131 2589,14723 Z M 2598,14732 L 2995,14732 2995,15122 2598,15122 2598,14732 Z"/>
              <path fill="rgb(130,130,130)" stroke="none" d="M 2598,14732 L 2995,14732 2995,15122 2598,15122 2598,14732 Z M 2607,14740 L 2986,14740 2986,15114 2607,15114 2607,14740 Z"/>
              <path fill="rgb(131,131,131)" stroke="none" d="M 2607,14740 L 2986,14740 2986,15114 2607,15114 2607,14740 Z M 2615,14749 L 2978,14749 2978,15105 2615,15105 2615,14749 Z"/>
              <path fill="rgb(132,132,132)" stroke="none" d="M 2615,14749 L 2978,14749 2978,15105 2615,15105 2615,14749 Z M 2624,14757 L 2969,14757 2969,15097 2624,15097 2624,14757 Z"/>
              <path fill="rgb(133,133,133)" stroke="none" d="M 2624,14757 L 2969,14757 2969,15097 2624,15097 2624,14757 Z M 2633,14766 L 2960,14766 2960,15088 2633,15088 2633,14766 Z"/>
              <path fill="rgb(134,134,134)" stroke="none" d="M 2633,14766 L 2960,14766 2960,15088 2633,15088 2633,14766 Z M 2641,14774 L 2952,14774 2952,15080 2641,15080 2641,14774 Z"/>
              <path fill="rgb(135,135,135)" stroke="none" d="M 2641,14774 L 2952,14774 2952,15080 2641,15080 2641,14774 Z M 2650,14783 L 2943,14783 2943,15071 2650,15071 2650,14783 Z"/>
              <path fill="rgb(136,136,136)" stroke="none" d="M 2650,14783 L 2943,14783 2943,15071 2650,15071 2650,14783 Z M 2658,14791 L 2935,14791 2935,15063 2658,15063 2658,14791 Z"/>
              <path fill="rgb(137,137,137)" stroke="none" d="M 2658,14791 L 2935,14791 2935,15063 2658,15063 2658,14791 Z M 2667,14800 L 2926,14800 2926,15054 2667,15054 2667,14800 Z"/>
              <path fill="rgb(138,138,138)" stroke="none" d="M 2667,14800 L 2926,14800 2926,15054 2667,15054 2667,14800 Z M 2676,14808 L 2917,14808 2917,15046 2676,15046 2676,14808 Z"/>
              <path fill="rgb(139,139,139)" stroke="none" d="M 2676,14808 L 2917,14808 2917,15046 2676,15046 2676,14808 Z M 2684,14817 L 2909,14817 2909,15037 2684,15037 2684,14817 Z"/>
              <path fill="rgb(140,140,140)" stroke="none" d="M 2684,14817 L 2909,14817 2909,15037 2684,15037 2684,14817 Z M 2693,14825 L 2900,14825 2900,15029 2693,15029 2693,14825 Z"/>
              <path fill="rgb(141,141,141)" stroke="none" d="M 2693,14825 L 2900,14825 2900,15029 2693,15029 2693,14825 Z M 2702,14834 L 2891,14834 2891,15020 2702,15020 2702,14834 Z"/>
              <path fill="rgb(142,142,142)" stroke="none" d="M 2702,14834 L 2891,14834 2891,15020 2702,15020 2702,14834 Z M 2710,14842 L 2883,14842 2883,15012 2710,15012 2710,14842 Z"/>
              <path fill="rgb(143,143,143)" stroke="none" d="M 2710,14842 L 2883,14842 2883,15012 2710,15012 2710,14842 Z M 2719,14851 L 2874,14851 2874,15003 2719,15003 2719,14851 Z"/>
              <path fill="rgb(144,144,144)" stroke="none" d="M 2719,14851 L 2874,14851 2874,15003 2719,15003 2719,14851 Z M 2728,14859 L 2865,14859 2865,14995 2728,14995 2728,14859 Z"/>
              <path fill="rgb(145,145,145)" stroke="none" d="M 2728,14859 L 2865,14859 2865,14995 2728,14995 2728,14859 Z M 2736,14868 L 2857,14868 2857,14986 2736,14986 2736,14868 Z"/>
              <path fill="rgb(146,146,146)" stroke="none" d="M 2736,14868 L 2857,14868 2857,14986 2736,14986 2736,14868 Z M 2745,14876 L 2848,14876 2848,14978 2745,14978 2745,14876 Z"/>
              <path fill="rgb(147,147,147)" stroke="none" d="M 2745,14876 L 2848,14876 2848,14978 2745,14978 2745,14876 Z M 2754,14885 L 2839,14885 2839,14969 2754,14969 2754,14885 Z"/>
              <path fill="rgb(148,148,148)" stroke="none" d="M 2754,14885 L 2839,14885 2839,14969 2754,14969 2754,14885 Z M 2762,14893 L 2831,14893 2831,14961 2762,14961 2762,14893 Z"/>
              <path fill="rgb(149,149,149)" stroke="none" d="M 2762,14893 L 2831,14893 2831,14961 2762,14961 2762,14893 Z M 2771,14902 L 2822,14902 2822,14952 2771,14952 2771,14902 Z"/>
              <path fill="rgb(150,150,150)" stroke="none" d="M 2771,14902 L 2822,14902 2822,14952 2771,14952 2771,14902 Z M 2780,14910 L 2813,14910 2813,14944 2780,14944 2780,14910 Z"/>
              <path fill="rgb(151,151,151)" stroke="none" d="M 2780,14910 L 2813,14910 2813,14944 2780,14944 2780,14910 Z M 2788,14919 L 2805,14919 2805,14935 2788,14935 2788,14919 Z"/>
              <path fill="rgb(153,153,153)" stroke="none" d="M 2788,14919 L 2805,14919 2805,14935 2788,14935 2788,14919 Z"/>
             </g>
            </pattern>
           </defs>
           <path style="fill:url(#pattern3)" d="M 3414,15025 L 3414,14669 2534,15178 2534,15534 3414,15025 Z"/>
          </g>
          <path fill="none" stroke="rgb(178,178,178)" stroke-width="40" stroke-linejoin="round" d="M 3414,15025 L 3414,14669 2534,15178 2534,15534 3414,15025 Z"/>
         </g>
        </g>
        <g class="com.sun.star.drawing.PolyPolygonShape">
         <g id="id10">
          <rect class="BoundingBox" stroke="none" fill="none" x="2514" y="15005" width="1625" height="956"/>
          <g>
           <defs>
            <linearGradient id="gradient3" x1="3326" y1="15025" x2="3326" y2="15940" gradientUnits="userSpaceOnUse">
             <stop offset="0.1" style="stop-color:rgb(51,51,51)"/>
             <stop offset="1" style="stop-color:rgb(153,153,153)"/>
            </linearGradient>
           </defs>
           <path style="fill:url(#gradient3)" d="M 4118,15432 L 3414,15025 2534,15534 3238,15940 4118,15432 Z"/>
          </g>
          <path fill="none" stroke="rgb(178,178,178)" stroke-width="40" stroke-linejoin="round" d="M 4118,15432 L 3414,15025 2534,15534 3238,15940 4118,15432 Z"/>
         </g>
        </g>
        <g class="com.sun.star.drawing.PolyPolygonShape">
         <g id="id11">
          <rect class="BoundingBox" stroke="none" fill="none" x="2337" y="15259" width="922" height="907"/>
          <g>
           <defs>
            <linearGradient id="gradient4" x1="2358" y1="15711" x2="3239" y2="15711" gradientUnits="userSpaceOnUse">
             <stop offset="0.1" style="stop-color:rgb(102,102,102)"/>
             <stop offset="1" style="stop-color:rgb(153,153,153)"/>
            </linearGradient>
           </defs>
           <path style="fill:url(#gradient4)" d="M 3238,16144 L 3238,15940 2534,15533 2534,15279 2358,15381 2358,15635 3238,16144 Z"/>
          </g>
          <path fill="none" stroke="rgb(178,178,178)" stroke-width="40" stroke-linejoin="round" d="M 3238,16144 L 3238,15940 2534,15533 2534,15279 2358,15381 2358,15635 3238,16144 Z"/>
         </g>
        </g>
        <g class="com.sun.star.drawing.PolyPolygonShape">
         <g id="id12">
          <rect class="BoundingBox" stroke="none" fill="none" x="2250" y="11547" width="2856" height="3906"/>
          <g>
           <defs>
            <pattern id="pattern4" x="2270" y="11567" width="2816" height="3866" patternUnits="userSpaceOnUse">
             <g transform="translate(-2270,-11567)">
              <path fill="rgb(102,102,102)" stroke="none" d="M 2269,11566 L 5086,11566 5086,15433 2269,15433 2269,11566 Z M 1733,10830 L 4494,10830 4494,14621 1733,14621 1733,10830 Z"/>
              <path fill="rgb(103,103,103)" stroke="none" d="M 1733,10830 L 4494,10830 4494,14621 1733,14621 1733,10830 Z M 1761,10868 L 4466,10868 4466,14583 1761,14583 1761,10868 Z"/>
              <path fill="rgb(104,104,104)" stroke="none" d="M 1761,10868 L 4466,10868 4466,14583 1761,14583 1761,10868 Z M 1788,10906 L 4439,10906 4439,14545 1788,14545 1788,10906 Z"/>
              <path fill="rgb(105,105,105)" stroke="none" d="M 1788,10906 L 4439,10906 4439,14545 1788,14545 1788,10906 Z M 1816,10944 L 4411,10944 4411,14507 1816,14507 1816,10944 Z"/>
              <path fill="rgb(106,106,106)" stroke="none" d="M 1816,10944 L 4411,10944 4411,14507 1816,14507 1816,10944 Z M 1844,10982 L 4383,10982 4383,14469 1844,14469 1844,10982 Z"/>
              <path fill="rgb(107,107,107)" stroke="none" d="M 1844,10982 L 4383,10982 4383,14469 1844,14469 1844,10982 Z M 1871,11020 L 4356,11020 4356,14431 1871,14431 1871,11020 Z"/>
              <path fill="rgb(108,108,108)" stroke="none" d="M 1871,11020 L 4356,11020 4356,14431 1871,14431 1871,11020 Z M 1899,11058 L 4328,11058 4328,14393 1899,14393 1899,11058 Z"/>
              <path fill="rgb(109,109,109)" stroke="none" d="M 1899,11058 L 4328,11058 4328,14393 1899,14393 1899,11058 Z M 1927,11096 L 4300,11096 4300,14355 1927,14355 1927,11096 Z"/>
              <path fill="rgb(110,110,110)" stroke="none" d="M 1927,11096 L 4300,11096 4300,14355 1927,14355 1927,11096 Z M 1954,11134 L 4273,11134 4273,14317 1954,14317 1954,11134 Z"/>
              <path fill="rgb(111,111,111)" stroke="none" d="M 1954,11134 L 4273,11134 4273,14317 1954,14317 1954,11134 Z M 1982,11172 L 4245,11172 4245,14279 1982,14279 1982,11172 Z"/>
              <path fill="rgb(112,112,112)" stroke="none" d="M 1982,11172 L 4245,11172 4245,14279 1982,14279 1982,11172 Z M 2009,11210 L 4218,11210 4218,14241 2009,14241 2009,11210 Z"/>
              <path fill="rgb(113,113,113)" stroke="none" d="M 2009,11210 L 4218,11210 4218,14241 2009,14241 2009,11210 Z M 2037,11248 L 4190,11248 4190,14203 2037,14203 2037,11248 Z"/>
              <path fill="rgb(114,114,114)" stroke="none" d="M 2037,11248 L 4190,11248 4190,14203 2037,14203 2037,11248 Z M 2065,11285 L 4162,11285 4162,14166 2065,14166 2065,11285 Z"/>
              <path fill="rgb(115,115,115)" stroke="none" d="M 2065,11285 L 4162,11285 4162,14166 2065,14166 2065,11285 Z M 2092,11323 L 4135,11323 4135,14128 2092,14128 2092,11323 Z"/>
              <path fill="rgb(116,116,116)" stroke="none" d="M 2092,11323 L 4135,11323 4135,14128 2092,14128 2092,11323 Z M 2120,11361 L 4107,11361 4107,14090 2120,14090 2120,11361 Z"/>
              <path fill="rgb(117,117,117)" stroke="none" d="M 2120,11361 L 4107,11361 4107,14090 2120,14090 2120,11361 Z M 2148,11399 L 4079,11399 4079,14052 2148,14052 2148,11399 Z"/>
              <path fill="rgb(118,118,118)" stroke="none" d="M 2148,11399 L 4079,11399 4079,14052 2148,14052 2148,11399 Z M 2175,11437 L 4052,11437 4052,14014 2175,14014 2175,11437 Z"/>
              <path fill="rgb(119,119,119)" stroke="none" d="M 2175,11437 L 4052,11437 4052,14014 2175,14014 2175,11437 Z M 2203,11475 L 4024,11475 4024,13976 2203,13976 2203,11475 Z"/>
              <path fill="rgb(120,120,120)" stroke="none" d="M 2203,11475 L 4024,11475 4024,13976 2203,13976 2203,11475 Z M 2230,11513 L 3997,11513 3997,13938 2230,13938 2230,11513 Z"/>
              <path fill="rgb(121,121,121)" stroke="none" d="M 2230,11513 L 3997,11513 3997,13938 2230,13938 2230,11513 Z M 2257,11550 L 3969,11550 3969,13900 2257,13900 2257,11550 Z"/>
              <path fill="rgb(122,122,122)" stroke="none" d="M 2257,11550 L 3969,11550 3969,13900 2257,13900 2257,11550 Z M 2285,11588 L 3941,11588 3941,13862 2285,13862 2285,11588 Z"/>
              <path fill="rgb(123,123,123)" stroke="none" d="M 2285,11588 L 3941,11588 3941,13862 2285,13862 2285,11588 Z M 2312,11626 L 3914,11626 3914,13824 2312,13824 2312,11626 Z"/>
              <path fill="rgb(124,124,124)" stroke="none" d="M 2312,11626 L 3914,11626 3914,13824 2312,13824 2312,11626 Z M 2340,11664 L 3886,11664 3886,13786 2340,13786 2340,11664 Z"/>
              <path fill="rgb(125,125,125)" stroke="none" d="M 2340,11664 L 3886,11664 3886,13786 2340,13786 2340,11664 Z M 2368,11702 L 3858,11702 3858,13748 2368,13748 2368,11702 Z"/>
              <path fill="rgb(126,126,126)" stroke="none" d="M 2368,11702 L 3858,11702 3858,13748 2368,13748 2368,11702 Z M 2395,11740 L 3831,11740 3831,13710 2395,13710 2395,11740 Z"/>
              <path fill="rgb(127,127,127)" stroke="none" d="M 2395,11740 L 3831,11740 3831,13710 2395,13710 2395,11740 Z M 2423,11777 L 3803,11777 3803,13673 2423,13673 2423,11777 Z"/>
              <path fill="rgb(128,128,128)" stroke="none" d="M 2423,11777 L 3803,11777 3803,13673 2423,13673 2423,11777 Z M 2450,11815 L 3776,11815 3776,13635 2450,13635 2450,11815 Z"/>
              <path fill="rgb(129,129,129)" stroke="none" d="M 2450,11815 L 3776,11815 3776,13635 2450,13635 2450,11815 Z M 2478,11853 L 3748,11853 3748,13597 2478,13597 2478,11853 Z"/>
              <path fill="rgb(130,130,130)" stroke="none" d="M 2478,11853 L 3748,11853 3748,13597 2478,13597 2478,11853 Z M 2506,11891 L 3720,11891 3720,13559 2506,13559 2506,11891 Z"/>
              <path fill="rgb(131,131,131)" stroke="none" d="M 2506,11891 L 3720,11891 3720,13559 2506,13559 2506,11891 Z M 2533,11929 L 3693,11929 3693,13521 2533,13521 2533,11929 Z"/>
              <path fill="rgb(132,132,132)" stroke="none" d="M 2533,11929 L 3693,11929 3693,13521 2533,13521 2533,11929 Z M 2561,11967 L 3665,11967 3665,13483 2561,13483 2561,11967 Z"/>
              <path fill="rgb(133,133,133)" stroke="none" d="M 2561,11967 L 3665,11967 3665,13483 2561,13483 2561,11967 Z M 2589,12005 L 3637,12005 3637,13445 2589,13445 2589,12005 Z"/>
              <path fill="rgb(134,134,134)" stroke="none" d="M 2589,12005 L 3637,12005 3637,13445 2589,13445 2589,12005 Z M 2616,12043 L 3610,12043 3610,13407 2616,13407 2616,12043 Z"/>
              <path fill="rgb(135,135,135)" stroke="none" d="M 2616,12043 L 3610,12043 3610,13407 2616,13407 2616,12043 Z M 2644,12081 L 3582,12081 3582,13369 2644,13369 2644,12081 Z"/>
              <path fill="rgb(136,136,136)" stroke="none" d="M 2644,12081 L 3582,12081 3582,13369 2644,13369 2644,12081 Z M 2671,12119 L 3555,12119 3555,13331 2671,13331 2671,12119 Z"/>
              <path fill="rgb(137,137,137)" stroke="none" d="M 2671,12119 L 3555,12119 3555,13331 2671,13331 2671,12119 Z M 2699,12157 L 3527,12157 3527,13293 2699,13293 2699,12157 Z"/>
              <path fill="rgb(138,138,138)" stroke="none" d="M 2699,12157 L 3527,12157 3527,13293 2699,13293 2699,12157 Z M 2727,12195 L 3499,12195 3499,13255 2727,13255 2727,12195 Z"/>
              <path fill="rgb(139,139,139)" stroke="none" d="M 2727,12195 L 3499,12195 3499,13255 2727,13255 2727,12195 Z M 2754,12233 L 3472,12233 3472,13217 2754,13217 2754,12233 Z"/>
              <path fill="rgb(140,140,140)" stroke="none" d="M 2754,12233 L 3472,12233 3472,13217 2754,13217 2754,12233 Z M 2782,12270 L 3444,12270 3444,13180 2782,13180 2782,12270 Z"/>
              <path fill="rgb(141,141,141)" stroke="none" d="M 2782,12270 L 3444,12270 3444,13180 2782,13180 2782,12270 Z M 2810,12308 L 3416,12308 3416,13142 2810,13142 2810,12308 Z"/>
              <path fill="rgb(142,142,142)" stroke="none" d="M 2810,12308 L 3416,12308 3416,13142 2810,13142 2810,12308 Z M 2837,12346 L 3389,12346 3389,13104 2837,13104 2837,12346 Z"/>
              <path fill="rgb(143,143,143)" stroke="none" d="M 2837,12346 L 3389,12346 3389,13104 2837,13104 2837,12346 Z M 2865,12384 L 3361,12384 3361,13066 2865,13066 2865,12384 Z"/>
              <path fill="rgb(144,144,144)" stroke="none" d="M 2865,12384 L 3361,12384 3361,13066 2865,13066 2865,12384 Z M 2892,12422 L 3334,12422 3334,13028 2892,13028 2892,12422 Z"/>
              <path fill="rgb(145,145,145)" stroke="none" d="M 2892,12422 L 3334,12422 3334,13028 2892,13028 2892,12422 Z M 2920,12460 L 3306,12460 3306,12990 2920,12990 2920,12460 Z"/>
              <path fill="rgb(146,146,146)" stroke="none" d="M 2920,12460 L 3306,12460 3306,12990 2920,12990 2920,12460 Z M 2948,12498 L 3278,12498 3278,12952 2948,12952 2948,12498 Z"/>
              <path fill="rgb(147,147,147)" stroke="none" d="M 2948,12498 L 3278,12498 3278,12952 2948,12952 2948,12498 Z M 2975,12536 L 3251,12536 3251,12914 2975,12914 2975,12536 Z"/>
              <path fill="rgb(148,148,148)" stroke="none" d="M 2975,12536 L 3251,12536 3251,12914 2975,12914 2975,12536 Z M 3003,12574 L 3223,12574 3223,12876 3003,12876 3003,12574 Z"/>
              <path fill="rgb(149,149,149)" stroke="none" d="M 3003,12574 L 3223,12574 3223,12876 3003,12876 3003,12574 Z M 3031,12612 L 3195,12612 3195,12838 3031,12838 3031,12612 Z"/>
              <path fill="rgb(150,150,150)" stroke="none" d="M 3031,12612 L 3195,12612 3195,12838 3031,12838 3031,12612 Z M 3058,12650 L 3168,12650 3168,12800 3058,12800 3058,12650 Z"/>
              <path fill="rgb(151,151,151)" stroke="none" d="M 3058,12650 L 3168,12650 3168,12800 3058,12800 3058,12650 Z M 3086,12688 L 3140,12688 3140,12762 3086,12762 3086,12688 Z"/>
              <path fill="rgb(153,153,153)" stroke="none" d="M 3086,12688 L 3140,12688 3140,12762 3086,12762 3086,12688 Z"/>
             </g>
            </pattern>
           </defs>
           <path style="fill:url(#pattern4)" d="M 5085,13805 L 5085,11567 2270,13194 2270,15432 5085,13805 Z"/>
          </g>
          <path fill="none" stroke="rgb(178,178,178)" stroke-width="40" stroke-linejoin="round" d="M 5085,13805 L 5085,11567 2270,13194 2270,15432 5085,13805 Z"/>
         </g>
        </g>
        <g class="com.sun.star.drawing.PolyPolygonShape">
         <g id="id13">
          <rect class="BoundingBox" stroke="none" fill="none" x="2338" y="11699" width="2680" height="3602"/>
          <g>
           <defs>
            <linearGradient id="gradient5" x1="2357" y1="13499" x2="4997" y2="13499" gradientUnits="userSpaceOnUse">
             <stop offset="0.1" style="stop-color:rgb(147,212,240)"/>
             <stop offset="1" style="stop-color:rgb(233,246,252)"/>
            </linearGradient>
           </defs>
           <path style="fill:url(#gradient5)" d="M 4997,13753 L 4997,11719 2358,13245 2358,15279 4997,13753 Z"/>
          </g>
          <path fill="none" stroke="rgb(51,51,51)" stroke-width="40" stroke-linejoin="round" d="M 4997,13753 L 4997,11719 2358,13245 2358,15279 4997,13753 Z"/>
         </g>
        </g>
        <g class="com.sun.star.drawing.PolyPolygonShape">
         <g id="id14">
          <rect class="BoundingBox" stroke="none" fill="none" x="2074" y="11445" width="3032" height="1770"/>
          <g>
           <defs>
            <linearGradient id="gradient6" x1="3589" y1="11465" x2="3589" y2="13194" gradientUnits="userSpaceOnUse">
             <stop offset="0.1" style="stop-color:rgb(51,51,51)"/>
             <stop offset="1" style="stop-color:rgb(153,153,153)"/>
            </linearGradient>
           </defs>
           <path style="fill:url(#gradient6)" d="M 2270,13194 L 5085,11567 4909,11465 2094,13092 2270,13194 Z"/>
          </g>
          <path fill="none" stroke="rgb(178,178,178)" stroke-width="40" stroke-linejoin="round" d="M 2270,13194 L 5085,11567 4909,11465 2094,13092 2270,13194 Z"/>
         </g>
        </g>
        <g class="com.sun.star.drawing.PolyPolygonShape">
         <g id="id15">
          <rect class="BoundingBox" stroke="none" fill="none" x="2074" y="13072" width="217" height="2380"/>
          <g>
           <defs>
            <linearGradient id="gradient7" x1="2094" y1="14261" x2="2271" y2="14261" gradientUnits="userSpaceOnUse">
             <stop offset="0.1" style="stop-color:rgb(102,102,102)"/>
             <stop offset="1" style="stop-color:rgb(153,153,153)"/>
            </linearGradient>
           </defs>
           <path style="fill:url(#gradient7)" d="M 2270,15431 L 2270,13194 2094,13092 2094,15330 2270,15431 Z"/>
          </g>
          <path fill="none" stroke="rgb(178,178,178)" stroke-width="40" stroke-linejoin="round" d="M 2270,15431 L 2270,13194 2094,13092 2094,15330 2270,15431 Z"/>
         </g>
        </g>
        <g class="com.sun.star.drawing.PolyPolygonShape">
         <g id="id16">
          <rect class="BoundingBox" stroke="none" fill="none" x="2074" y="11445" width="3032" height="4720"/>
          <path fill="none" stroke="rgb(0,0,0)" stroke-width="40" stroke-linejoin="round" d="M 4909,11465 L 2094,13092 2094,15330 2270,15432 2358,15381 2358,15635 3237,16144 4117,15635 4117,15432 3413,15025 3413,14771 5085,13804 5085,11567 4909,11465 Z"/>
         </g>
        </g>
       </g>
      </g>
      <g class="Group">
       <g class="com.sun.star.drawing.ClosedBezierShape">
        <g id="id17">
         <rect class="BoundingBox" stroke="none" fill="none" x="5804" y="15799" width="790" height="531"/>
         <path fill="rgb(221,221,221)" stroke="none" d="M 5824,16309 C 5824,16309 6309,16169 6430,16099 6561,16023 6672,15819 6430,15819 6430,15972 5824,16309 5824,16309 Z"/>
         <path fill="none" stroke="rgb(221,221,221)" stroke-width="40" stroke-linejoin="round" d="M 5824,16309 C 5824,16309 6309,16169 6430,16099 6561,16023 6672,15819 6430,15819 6430,15972 5824,16309 5824,16309 Z"/>
        </g>
       </g>
       <g class="Group">
        <g class="com.sun.star.drawing.PolyPolygonShape">
         <g id="id18">
          <rect class="BoundingBox" stroke="none" fill="none" x="2627" y="15158" width="3824" height="2229"/>
          <g>
           <defs>
            <linearGradient id="gradient8" x1="4538" y1="15179" x2="4538" y2="17366" gradientUnits="userSpaceOnUse">
             <stop offset="0.1" style="stop-color:rgb(51,51,51)"/>
             <stop offset="1" style="stop-color:rgb(153,153,153)"/>
            </linearGradient>
           </defs>
           <path style="fill:url(#gradient8)" d="M 3615,17366 L 6430,15738 5462,15179 2647,16806 3615,17366 Z"/>
          </g>
          <path fill="none" stroke="rgb(178,178,178)" stroke-width="40" stroke-linejoin="round" d="M 3615,17366 L 6430,15738 5462,15179 2647,16806 3615,17366 Z"/>
         </g>
        </g>
        <g class="com.sun.star.drawing.PolyPolygonShape">
         <g id="id19">
          <rect class="BoundingBox" stroke="none" fill="none" x="2627" y="16786" width="1010" height="804"/>
          <g>
           <defs>
            <linearGradient id="gradient9" x1="2647" y1="17187" x2="3616" y2="17187" gradientUnits="userSpaceOnUse">
             <stop offset="0.1" style="stop-color:rgb(102,102,102)"/>
             <stop offset="1" style="stop-color:rgb(153,153,153)"/>
            </linearGradient>
           </defs>
           <path style="fill:url(#gradient9)" d="M 3615,17569 L 3615,17365 2647,16806 2647,17009 3615,17569 Z"/>
          </g>
          <path fill="none" stroke="rgb(178,178,178)" stroke-width="40" stroke-linejoin="round" d="M 3615,17569 L 3615,17365 2647,16806 2647,17009 3615,17569 Z"/>
         </g>
        </g>
        <g class="com.sun.star.drawing.PolyPolygonShape">
         <g id="id20">
          <rect class="BoundingBox" stroke="none" fill="none" x="3594" y="15718" width="2857" height="1872"/>
          <g>
           <defs>
            <pattern id="pattern5" x="3615" y="15738" width="2816" height="1832" patternUnits="userSpaceOnUse">
             <g transform="translate(-3615,-15738)">
              <path fill="rgb(102,102,102)" stroke="none" d="M 3614,15737 L 6431,15737 6431,17570 3614,17570 3614,15737 Z M 3078,15388 L 5839,15388 5839,17185 3078,17185 3078,15388 Z"/>
              <path fill="rgb(103,103,103)" stroke="none" d="M 3078,15388 L 5839,15388 5839,17185 3078,17185 3078,15388 Z M 3106,15406 L 5811,15406 5811,17167 3106,17167 3106,15406 Z"/>
              <path fill="rgb(104,104,104)" stroke="none" d="M 3106,15406 L 5811,15406 5811,17167 3106,17167 3106,15406 Z M 3133,15424 L 5784,15424 5784,17149 3133,17149 3133,15424 Z"/>
              <path fill="rgb(105,105,105)" stroke="none" d="M 3133,15424 L 5784,15424 5784,17149 3133,17149 3133,15424 Z M 3161,15442 L 5756,15442 5756,17131 3161,17131 3161,15442 Z"/>
              <path fill="rgb(106,106,106)" stroke="none" d="M 3161,15442 L 5756,15442 5756,17131 3161,17131 3161,15442 Z M 3189,15460 L 5728,15460 5728,17113 3189,17113 3189,15460 Z"/>
              <path fill="rgb(107,107,107)" stroke="none" d="M 3189,15460 L 5728,15460 5728,17113 3189,17113 3189,15460 Z M 3216,15478 L 5701,15478 5701,17095 3216,17095 3216,15478 Z"/>
              <path fill="rgb(108,108,108)" stroke="none" d="M 3216,15478 L 5701,15478 5701,17095 3216,17095 3216,15478 Z M 3244,15496 L 5673,15496 5673,17077 3244,17077 3244,15496 Z"/>
              <path fill="rgb(109,109,109)" stroke="none" d="M 3244,15496 L 5673,15496 5673,17077 3244,17077 3244,15496 Z M 3272,15514 L 5645,15514 5645,17059 3272,17059 3272,15514 Z"/>
              <path fill="rgb(110,110,110)" stroke="none" d="M 3272,15514 L 5645,15514 5645,17059 3272,17059 3272,15514 Z M 3299,15532 L 5618,15532 5618,17041 3299,17041 3299,15532 Z"/>
              <path fill="rgb(111,111,111)" stroke="none" d="M 3299,15532 L 5618,15532 5618,17041 3299,17041 3299,15532 Z M 3327,15550 L 5590,15550 5590,17023 3327,17023 3327,15550 Z"/>
              <path fill="rgb(112,112,112)" stroke="none" d="M 3327,15550 L 5590,15550 5590,17023 3327,17023 3327,15550 Z M 3354,15568 L 5563,15568 5563,17005 3354,17005 3354,15568 Z"/>
              <path fill="rgb(113,113,113)" stroke="none" d="M 3354,15568 L 5563,15568 5563,17005 3354,17005 3354,15568 Z M 3382,15586 L 5535,15586 5535,16987 3382,16987 3382,15586 Z"/>
              <path fill="rgb(114,114,114)" stroke="none" d="M 3382,15586 L 5535,15586 5535,16987 3382,16987 3382,15586 Z M 3410,15604 L 5507,15604 5507,16969 3410,16969 3410,15604 Z"/>
              <path fill="rgb(115,115,115)" stroke="none" d="M 3410,15604 L 5507,15604 5507,16969 3410,16969 3410,15604 Z M 3437,15622 L 5480,15622 5480,16951 3437,16951 3437,15622 Z"/>
              <path fill="rgb(116,116,116)" stroke="none" d="M 3437,15622 L 5480,15622 5480,16951 3437,16951 3437,15622 Z M 3465,15640 L 5452,15640 5452,16933 3465,16933 3465,15640 Z"/>
              <path fill="rgb(117,117,117)" stroke="none" d="M 3465,15640 L 5452,15640 5452,16933 3465,16933 3465,15640 Z M 3493,15658 L 5424,15658 5424,16915 3493,16915 3493,15658 Z"/>
              <path fill="rgb(118,118,118)" stroke="none" d="M 3493,15658 L 5424,15658 5424,16915 3493,16915 3493,15658 Z M 3520,15676 L 5397,15676 5397,16897 3520,16897 3520,15676 Z"/>
              <path fill="rgb(119,119,119)" stroke="none" d="M 3520,15676 L 5397,15676 5397,16897 3520,16897 3520,15676 Z M 3548,15694 L 5369,15694 5369,16879 3548,16879 3548,15694 Z"/>
              <path fill="rgb(120,120,120)" stroke="none" d="M 3548,15694 L 5369,15694 5369,16879 3548,16879 3548,15694 Z M 3575,15712 L 5342,15712 5342,16861 3575,16861 3575,15712 Z"/>
              <path fill="rgb(121,121,121)" stroke="none" d="M 3575,15712 L 5342,15712 5342,16861 3575,16861 3575,15712 Z M 3602,15729 L 5314,15729 5314,16843 3602,16843 3602,15729 Z"/>
              <path fill="rgb(122,122,122)" stroke="none" d="M 3602,15729 L 5314,15729 5314,16843 3602,16843 3602,15729 Z M 3630,15747 L 5286,15747 5286,16825 3630,16825 3630,15747 Z"/>
              <path fill="rgb(123,123,123)" stroke="none" d="M 3630,15747 L 5286,15747 5286,16825 3630,16825 3630,15747 Z M 3657,15765 L 5259,15765 5259,16807 3657,16807 3657,15765 Z"/>
              <path fill="rgb(124,124,124)" stroke="none" d="M 3657,15765 L 5259,15765 5259,16807 3657,16807 3657,15765 Z M 3685,15783 L 5231,15783 5231,16789 3685,16789 3685,15783 Z"/>
              <path fill="rgb(125,125,125)" stroke="none" d="M 3685,15783 L 5231,15783 5231,16789 3685,16789 3685,15783 Z M 3713,15801 L 5203,15801 5203,16771 3713,16771 3713,15801 Z"/>
              <path fill="rgb(126,126,126)" stroke="none" d="M 3713,15801 L 5203,15801 5203,16771 3713,16771 3713,15801 Z M 3740,15819 L 5176,15819 5176,16753 3740,16753 3740,15819 Z"/>
              <path fill="rgb(127,127,127)" stroke="none" d="M 3740,15819 L 5176,15819 5176,16753 3740,16753 3740,15819 Z M 3768,15837 L 5148,15837 5148,16735 3768,16735 3768,15837 Z"/>
              <path fill="rgb(128,128,128)" stroke="none" d="M 3768,15837 L 5148,15837 5148,16735 3768,16735 3768,15837 Z M 3795,15855 L 5121,15855 5121,16717 3795,16717 3795,15855 Z"/>
              <path fill="rgb(129,129,129)" stroke="none" d="M 3795,15855 L 5121,15855 5121,16717 3795,16717 3795,15855 Z M 3823,15873 L 5093,15873 5093,16699 3823,16699 3823,15873 Z"/>
              <path fill="rgb(130,130,130)" stroke="none" d="M 3823,15873 L 5093,15873 5093,16699 3823,16699 3823,15873 Z M 3851,15891 L 5065,15891 5065,16681 3851,16681 3851,15891 Z"/>
              <path fill="rgb(131,131,131)" stroke="none" d="M 3851,15891 L 5065,15891 5065,16681 3851,16681 3851,15891 Z M 3878,15909 L 5038,15909 5038,16663 3878,16663 3878,15909 Z"/>
              <path fill="rgb(132,132,132)" stroke="none" d="M 3878,15909 L 5038,15909 5038,16663 3878,16663 3878,15909 Z M 3906,15927 L 5010,15927 5010,16645 3906,16645 3906,15927 Z"/>
              <path fill="rgb(133,133,133)" stroke="none" d="M 3906,15927 L 5010,15927 5010,16645 3906,16645 3906,15927 Z M 3934,15945 L 4982,15945 4982,16627 3934,16627 3934,15945 Z"/>
              <path fill="rgb(134,134,134)" stroke="none" d="M 3934,15945 L 4982,15945 4982,16627 3934,16627 3934,15945 Z M 3961,15963 L 4955,15963 4955,16609 3961,16609 3961,15963 Z"/>
              <path fill="rgb(135,135,135)" stroke="none" d="M 3961,15963 L 4955,15963 4955,16609 3961,16609 3961,15963 Z M 3989,15981 L 4927,15981 4927,16591 3989,16591 3989,15981 Z"/>
              <path fill="rgb(136,136,136)" stroke="none" d="M 3989,15981 L 4927,15981 4927,16591 3989,16591 3989,15981 Z M 4016,15999 L 4900,15999 4900,16573 4016,16573 4016,15999 Z"/>
              <path fill="rgb(137,137,137)" stroke="none" d="M 4016,15999 L 4900,15999 4900,16573 4016,16573 4016,15999 Z M 4044,16017 L 4872,16017 4872,16555 4044,16555 4044,16017 Z"/>
              <path fill="rgb(138,138,138)" stroke="none" d="M 4044,16017 L 4872,16017 4872,16555 4044,16555 4044,16017 Z M 4072,16035 L 4844,16035 4844,16537 4072,16537 4072,16035 Z"/>
              <path fill="rgb(139,139,139)" stroke="none" d="M 4072,16035 L 4844,16035 4844,16537 4072,16537 4072,16035 Z M 4099,16053 L 4817,16053 4817,16519 4099,16519 4099,16053 Z"/>
              <path fill="rgb(140,140,140)" stroke="none" d="M 4099,16053 L 4817,16053 4817,16519 4099,16519 4099,16053 Z M 4127,16071 L 4789,16071 4789,16501 4127,16501 4127,16071 Z"/>
              <path fill="rgb(141,141,141)" stroke="none" d="M 4127,16071 L 4789,16071 4789,16501 4127,16501 4127,16071 Z M 4155,16089 L 4761,16089 4761,16483 4155,16483 4155,16089 Z"/>
              <path fill="rgb(142,142,142)" stroke="none" d="M 4155,16089 L 4761,16089 4761,16483 4155,16483 4155,16089 Z M 4182,16107 L 4734,16107 4734,16465 4182,16465 4182,16107 Z"/>
              <path fill="rgb(143,143,143)" stroke="none" d="M 4182,16107 L 4734,16107 4734,16465 4182,16465 4182,16107 Z M 4210,16125 L 4706,16125 4706,16447 4210,16447 4210,16125 Z"/>
              <path fill="rgb(144,144,144)" stroke="none" d="M 4210,16125 L 4706,16125 4706,16447 4210,16447 4210,16125 Z M 4237,16143 L 4679,16143 4679,16429 4237,16429 4237,16143 Z"/>
              <path fill="rgb(145,145,145)" stroke="none" d="M 4237,16143 L 4679,16143 4679,16429 4237,16429 4237,16143 Z M 4265,16161 L 4651,16161 4651,16411 4265,16411 4265,16161 Z"/>
              <path fill="rgb(146,146,146)" stroke="none" d="M 4265,16161 L 4651,16161 4651,16411 4265,16411 4265,16161 Z M 4293,16179 L 4623,16179 4623,16393 4293,16393 4293,16179 Z"/>
              <path fill="rgb(147,147,147)" stroke="none" d="M 4293,16179 L 4623,16179 4623,16393 4293,16393 4293,16179 Z M 4320,16197 L 4596,16197 4596,16375 4320,16375 4320,16197 Z"/>
              <path fill="rgb(148,148,148)" stroke="none" d="M 4320,16197 L 4596,16197 4596,16375 4320,16375 4320,16197 Z M 4348,16215 L 4568,16215 4568,16357 4348,16357 4348,16215 Z"/>
              <path fill="rgb(149,149,149)" stroke="none" d="M 4348,16215 L 4568,16215 4568,16357 4348,16357 4348,16215 Z M 4376,16233 L 4540,16233 4540,16339 4376,16339 4376,16233 Z"/>
              <path fill="rgb(150,150,150)" stroke="none" d="M 4376,16233 L 4540,16233 4540,16339 4376,16339 4376,16233 Z M 4403,16251 L 4513,16251 4513,16321 4403,16321 4403,16251 Z"/>
              <path fill="rgb(151,151,151)" stroke="none" d="M 4403,16251 L 4513,16251 4513,16321 4403,16321 4403,16251 Z M 4431,16269 L 4485,16269 4485,16303 4431,16303 4431,16269 Z"/>
              <path fill="rgb(153,153,153)" stroke="none" d="M 4431,16269 L 4485,16269 4485,16303 4431,16303 4431,16269 Z"/>
             </g>
            </pattern>
           </defs>
           <path style="fill:url(#pattern5)" d="M 6430,15941 L 6430,15738 3615,17365 3615,17569 6430,15941 Z"/>
          </g>
          <path fill="none" stroke="rgb(178,178,178)" stroke-width="40" stroke-linejoin="round" d="M 6430,15941 L 6430,15738 3615,17365 3615,17569 6430,15941 Z"/>
         </g>
        </g>
        <g class="com.sun.star.drawing.PolyPolygonShape">
         <g id="id21">
          <rect class="BoundingBox" stroke="none" fill="none" x="2627" y="15159" width="3824" height="2431"/>
          <path fill="none" stroke="rgb(0,0,0)" stroke-width="40" stroke-linejoin="round" d="M 5462,15179 L 2647,16806 2647,17010 3615,17569 6430,15942 6430,15738 5462,15179 Z"/>
         </g>
        </g>
        <g class="Group">
         <g class="com.sun.star.drawing.PolyPolygonShape">
          <g id="id22">
           <rect class="BoundingBox" stroke="none" fill="none" x="4955" y="15297" width="1274" height="753"/>
           <path fill="rgb(127,127,127)" stroke="none" d="M 6207,15724 L 5503,15317 4975,15622 5679,16029 6207,15724 Z"/>
           <path fill="none" stroke="rgb(178,178,178)" stroke-width="40" stroke-linejoin="round" d="M 6207,15724 L 5503,15317 4975,15622 5679,16029 6207,15724 Z"/>
          </g>
         </g>
         <g class="com.sun.star.drawing.LineShape">
          <g id="id23">
           <rect class="BoundingBox" stroke="none" fill="none" x="5307" y="15399" width="745" height="448"/>
           <path fill="none" stroke="rgb(178,178,178)" stroke-width="40" stroke-linejoin="round" d="M 6031,15826 L 5327,15419"/>
          </g>
         </g>
         <g class="com.sun.star.drawing.LineShape">
          <g id="id24">
           <rect class="BoundingBox" stroke="none" fill="none" x="5131" y="15500" width="745" height="448"/>
           <path fill="none" stroke="rgb(178,178,178)" stroke-width="40" stroke-linejoin="round" d="M 5855,15927 L 5151,15520"/>
          </g>
         </g>
         <g class="com.sun.star.drawing.LineShape">
          <g id="id25">
           <rect class="BoundingBox" stroke="none" fill="none" x="5131" y="15399" width="569" height="346"/>
           <path fill="none" stroke="rgb(178,178,178)" stroke-width="40" stroke-linejoin="round" d="M 5679,15419 L 5151,15724"/>
          </g>
         </g>
         <g class="com.sun.star.drawing.LineShape">
          <g id="id26">
           <rect class="BoundingBox" stroke="none" fill="none" x="5307" y="15500" width="569" height="346"/>
           <path fill="none" stroke="rgb(178,178,178)" stroke-width="40" stroke-linejoin="round" d="M 5855,15520 L 5327,15825"/>
          </g>
         </g>
         <g class="com.sun.star.drawing.LineShape">
          <g id="id27">
           <rect class="BoundingBox" stroke="none" fill="none" x="5659" y="15602" width="393" height="244"/>
           <path fill="none" stroke="rgb(178,178,178)" stroke-width="40" stroke-linejoin="round" d="M 6031,15622 L 5679,15825"/>
          </g>
         </g>
        </g>
        <g class="Group">
         <g class="com.sun.star.drawing.PolyPolygonShape">
          <g id="id28">
           <rect class="BoundingBox" stroke="none" fill="none" x="2894" y="15724" width="2592" height="1516"/>
           <path fill="rgb(127,127,127)" stroke="none" d="M 5465,16151 L 4761,15744 2914,16812 3617,17219 5465,16151 Z"/>
           <path fill="none" stroke="rgb(178,178,178)" stroke-width="40" stroke-linejoin="round" d="M 5465,16151 L 4761,15744 2914,16812 3617,17219 5465,16151 Z"/>
          </g>
         </g>
         <g class="com.sun.star.drawing.LineShape">
          <g id="id29">
           <rect class="BoundingBox" stroke="none" fill="none" x="3421" y="16029" width="1889" height="1109"/>
           <path fill="none" stroke="rgb(178,178,178)" stroke-width="40" stroke-linejoin="round" d="M 5289,16049 L 3441,17117"/>
          </g>
         </g>
         <g class="com.sun.star.drawing.LineShape">
          <g id="id30">
           <rect class="BoundingBox" stroke="none" fill="none" x="3245" y="15928" width="1889" height="1109"/>
           <path fill="none" stroke="rgb(178,178,178)" stroke-width="40" stroke-linejoin="round" d="M 5113,15948 L 3265,17016"/>
          </g>
         </g>
         <g class="com.sun.star.drawing.LineShape">
          <g id="id31">
           <rect class="BoundingBox" stroke="none" fill="none" x="3069" y="15826" width="1889" height="1109"/>
           <path fill="none" stroke="rgb(178,178,178)" stroke-width="40" stroke-linejoin="round" d="M 4937,15846 L 3089,16914"/>
          </g>
         </g>
         <g class="com.sun.star.drawing.LineShape">
          <g id="id32">
           <rect class="BoundingBox" stroke="none" fill="none" x="3070" y="16691" width="217" height="143"/>
           <path fill="none" stroke="rgb(178,178,178)" stroke-width="40" stroke-linejoin="round" d="M 3266,16813 L 3090,16711"/>
          </g>
         </g>
         <g class="com.sun.star.drawing.LineShape">
          <g id="id33">
           <rect class="BoundingBox" stroke="none" fill="none" x="3246" y="16589" width="217" height="143"/>
           <path fill="none" stroke="rgb(178,178,178)" stroke-width="40" stroke-linejoin="round" d="M 3442,16711 L 3266,16609"/>
          </g>
         </g>
         <g class="com.sun.star.drawing.LineShape">
          <g id="id34">
           <rect class="BoundingBox" stroke="none" fill="none" x="3422" y="16487" width="217" height="143"/>
           <path fill="none" stroke="rgb(178,178,178)" stroke-width="40" stroke-linejoin="round" d="M 3618,16609 L 3442,16507"/>
          </g>
         </g>
         <g class="com.sun.star.drawing.LineShape">
          <g id="id35">
           <rect class="BoundingBox" stroke="none" fill="none" x="3334" y="16741" width="217" height="143"/>
           <path fill="none" stroke="rgb(178,178,178)" stroke-width="40" stroke-linejoin="round" d="M 3530,16863 L 3354,16761"/>
          </g>
         </g>
         <g class="com.sun.star.drawing.LineShape">
          <g id="id36">
           <rect class="BoundingBox" stroke="none" fill="none" x="3509" y="16640" width="217" height="143"/>
           <path fill="none" stroke="rgb(178,178,178)" stroke-width="40" stroke-linejoin="round" d="M 3705,16762 L 3529,16660"/>
          </g>
         </g>
         <g class="com.sun.star.drawing.LineShape">
          <g id="id37">
           <rect class="BoundingBox" stroke="none" fill="none" x="3685" y="16538" width="217" height="143"/>
           <path fill="none" stroke="rgb(178,178,178)" stroke-width="40" stroke-linejoin="round" d="M 3881,16660 L 3705,16558"/>
          </g>
         </g>
         <g class="com.sun.star.drawing.LineShape">
          <g id="id38">
           <rect class="BoundingBox" stroke="none" fill="none" x="3597" y="16385" width="217" height="143"/>
           <path fill="none" stroke="rgb(178,178,178)" stroke-width="40" stroke-linejoin="round" d="M 3793,16507 L 3617,16405"/>
          </g>
         </g>
         <g class="com.sun.star.drawing.LineShape">
          <g id="id39">
           <rect class="BoundingBox" stroke="none" fill="none" x="3861" y="16436" width="217" height="143"/>
           <path fill="none" stroke="rgb(178,178,178)" stroke-width="40" stroke-linejoin="round" d="M 4057,16558 L 3881,16456"/>
          </g>
         </g>
         <g class="com.sun.star.drawing.LineShape">
          <g id="id40">
           <rect class="BoundingBox" stroke="none" fill="none" x="3773" y="16284" width="217" height="143"/>
           <path fill="none" stroke="rgb(178,178,178)" stroke-width="40" stroke-linejoin="round" d="M 3969,16406 L 3793,16304"/>
          </g>
         </g>
         <g class="com.sun.star.drawing.LineShape">
          <g id="id41">
           <rect class="BoundingBox" stroke="none" fill="none" x="3949" y="16182" width="217" height="143"/>
           <path fill="none" stroke="rgb(178,178,178)" stroke-width="40" stroke-linejoin="round" d="M 4145,16304 L 3969,16202"/>
          </g>
         </g>
         <g class="com.sun.star.drawing.LineShape">
          <g id="id42">
           <rect class="BoundingBox" stroke="none" fill="none" x="4125" y="16080" width="217" height="143"/>
           <path fill="none" stroke="rgb(178,178,178)" stroke-width="40" stroke-linejoin="round" d="M 4321,16202 L 4145,16100"/>
          </g>
         </g>
         <g class="com.sun.star.drawing.LineShape">
          <g id="id43">
           <rect class="BoundingBox" stroke="none" fill="none" x="4037" y="16335" width="217" height="143"/>
           <path fill="none" stroke="rgb(178,178,178)" stroke-width="40" stroke-linejoin="round" d="M 4233,16457 L 4057,16355"/>
          </g>
         </g>
         <g class="com.sun.star.drawing.LineShape">
          <g id="id44">
           <rect class="BoundingBox" stroke="none" fill="none" x="4213" y="16233" width="217" height="143"/>
           <path fill="none" stroke="rgb(178,178,178)" stroke-width="40" stroke-linejoin="round" d="M 4409,16355 L 4233,16253"/>
          </g>
         </g>
         <g class="com.sun.star.drawing.LineShape">
          <g id="id45">
           <rect class="BoundingBox" stroke="none" fill="none" x="4389" y="16131" width="217" height="143"/>
           <path fill="none" stroke="rgb(178,178,178)" stroke-width="40" stroke-linejoin="round" d="M 4585,16253 L 4409,16151"/>
          </g>
         </g>
         <g class="com.sun.star.drawing.LineShape">
          <g id="id46">
           <rect class="BoundingBox" stroke="none" fill="none" x="4301" y="15979" width="217" height="143"/>
           <path fill="none" stroke="rgb(178,178,178)" stroke-width="40" stroke-linejoin="round" d="M 4497,16101 L 4321,15999"/>
          </g>
         </g>
         <g class="com.sun.star.drawing.LineShape">
          <g id="id47">
           <rect class="BoundingBox" stroke="none" fill="none" x="4565" y="16029" width="217" height="143"/>
           <path fill="none" stroke="rgb(178,178,178)" stroke-width="40" stroke-linejoin="round" d="M 4761,16151 L 4585,16049"/>
          </g>
         </g>
         <g class="com.sun.star.drawing.LineShape">
          <g id="id48">
           <rect class="BoundingBox" stroke="none" fill="none" x="4477" y="15877" width="217" height="143"/>
           <path fill="none" stroke="rgb(178,178,178)" stroke-width="40" stroke-linejoin="round" d="M 4673,15999 L 4497,15897"/>
          </g>
         </g>
         <g class="com.sun.star.drawing.LineShape">
          <g id="id49">
           <rect class="BoundingBox" stroke="none" fill="none" x="4653" y="15775" width="217" height="143"/>
           <path fill="none" stroke="rgb(178,178,178)" stroke-width="40" stroke-linejoin="round" d="M 4849,15897 L 4673,15795"/>
          </g>
         </g>
         <g class="com.sun.star.drawing.LineShape">
          <g id="id50">
           <rect class="BoundingBox" stroke="none" fill="none" x="4741" y="15928" width="217" height="143"/>
           <path fill="none" stroke="rgb(178,178,178)" stroke-width="40" stroke-linejoin="round" d="M 4937,16050 L 4761,15948"/>
          </g>
         </g>
         <g class="com.sun.star.drawing.LineShape">
          <g id="id51">
           <rect class="BoundingBox" stroke="none" fill="none" x="3597" y="16792" width="217" height="143"/>
           <path fill="none" stroke="rgb(178,178,178)" stroke-width="40" stroke-linejoin="round" d="M 3793,16914 L 3617,16812"/>
          </g>
         </g>
         <g class="com.sun.star.drawing.LineShape">
          <g id="id52">
           <rect class="BoundingBox" stroke="none" fill="none" x="3773" y="16691" width="217" height="143"/>
           <path fill="none" stroke="rgb(178,178,178)" stroke-width="40" stroke-linejoin="round" d="M 3969,16813 L 3793,16711"/>
          </g>
         </g>
         <g class="com.sun.star.drawing.LineShape">
          <g id="id53">
           <rect class="BoundingBox" stroke="none" fill="none" x="3949" y="16589" width="217" height="143"/>
           <path fill="none" stroke="rgb(178,178,178)" stroke-width="40" stroke-linejoin="round" d="M 4145,16711 L 3969,16609"/>
          </g>
         </g>
         <g class="com.sun.star.drawing.LineShape">
          <g id="id54">
           <rect class="BoundingBox" stroke="none" fill="none" x="4037" y="16741" width="217" height="143"/>
           <path fill="none" stroke="rgb(178,178,178)" stroke-width="40" stroke-linejoin="round" d="M 4233,16863 L 4057,16761"/>
          </g>
         </g>
         <g class="com.sun.star.drawing.LineShape">
          <g id="id55">
           <rect class="BoundingBox" stroke="none" fill="none" x="4213" y="16640" width="217" height="143"/>
           <path fill="none" stroke="rgb(178,178,178)" stroke-width="40" stroke-linejoin="round" d="M 4409,16762 L 4233,16660"/>
          </g>
         </g>
         <g class="com.sun.star.drawing.LineShape">
          <g id="id56">
           <rect class="BoundingBox" stroke="none" fill="none" x="4125" y="16487" width="217" height="143"/>
           <path fill="none" stroke="rgb(178,178,178)" stroke-width="40" stroke-linejoin="round" d="M 4321,16609 L 4145,16507"/>
          </g>
         </g>
         <g class="com.sun.star.drawing.LineShape">
          <g id="id57">
           <rect class="BoundingBox" stroke="none" fill="none" x="4301" y="16385" width="217" height="143"/>
           <path fill="none" stroke="rgb(178,178,178)" stroke-width="40" stroke-linejoin="round" d="M 4497,16507 L 4321,16405"/>
          </g>
         </g>
         <g class="com.sun.star.drawing.LineShape">
          <g id="id58">
           <rect class="BoundingBox" stroke="none" fill="none" x="4477" y="16284" width="217" height="143"/>
           <path fill="none" stroke="rgb(178,178,178)" stroke-width="40" stroke-linejoin="round" d="M 4673,16406 L 4497,16304"/>
          </g>
         </g>
         <g class="com.sun.star.drawing.LineShape">
          <g id="id59">
           <rect class="BoundingBox" stroke="none" fill="none" x="4653" y="16182" width="217" height="143"/>
           <path fill="none" stroke="rgb(178,178,178)" stroke-width="40" stroke-linejoin="round" d="M 4849,16304 L 4673,16202"/>
          </g>
         </g>
         <g class="com.sun.star.drawing.LineShape">
          <g id="id60">
           <rect class="BoundingBox" stroke="none" fill="none" x="4917" y="16233" width="217" height="143"/>
           <path fill="none" stroke="rgb(178,178,178)" stroke-width="40" stroke-linejoin="round" d="M 5113,16355 L 4937,16253"/>
          </g>
         </g>
         <g class="com.sun.star.drawing.LineShape">
          <g id="id61">
           <rect class="BoundingBox" stroke="none" fill="none" x="4829" y="16080" width="217" height="143"/>
           <path fill="none" stroke="rgb(178,178,178)" stroke-width="40" stroke-linejoin="round" d="M 5025,16202 L 4849,16100"/>
          </g>
         </g>
         <g class="com.sun.star.drawing.LineShape">
          <g id="id62">
           <rect class="BoundingBox" stroke="none" fill="none" x="5093" y="16131" width="217" height="143"/>
           <path fill="none" stroke="rgb(178,178,178)" stroke-width="40" stroke-linejoin="round" d="M 5289,16253 L 5113,16151"/>
          </g>
         </g>
         <g class="com.sun.star.drawing.LineShape">
          <g id="id63">
           <rect class="BoundingBox" stroke="none" fill="none" x="3685" y="16945" width="217" height="143"/>
           <path fill="none" stroke="rgb(178,178,178)" stroke-width="40" stroke-linejoin="round" d="M 3881,17067 L 3705,16965"/>
          </g>
         </g>
         <g class="com.sun.star.drawing.LineShape">
          <g id="id64">
           <rect class="BoundingBox" stroke="none" fill="none" x="3861" y="16843" width="217" height="143"/>
           <path fill="none" stroke="rgb(178,178,178)" stroke-width="40" stroke-linejoin="round" d="M 4057,16965 L 3881,16863"/>
          </g>
         </g>
        </g>
       </g>
      </g>
     </g>
    </g>
   </g>
  </g>
 </g>
</svg>