<?xml version="1.0" encoding="UTF-8"?>
<!DOCTYPE svg PUBLIC "-//W3C//DTD SVG 1.1//EN" "http://www.w3.org/Graphics/SVG/1.1/DTD/svg11.dtd">
<svg version="1.2" width="49.28mm" height="64.99mm" viewBox="2793 2251 4928 6499" preserveAspectRatio="xMidYMid" fill-rule="evenodd" stroke-width="28.222" stroke-linejoin="round" xmlns="http://www.w3.org/2000/svg" xmlns:ooo="http://xml.openoffice.org/svg/export" xmlns:xlink="http://www.w3.org/1999/xlink" xmlns:presentation="http://sun.com/xmlns/staroffice/presentation" xmlns:smil="http://www.w3.org/2001/SMIL20/" xmlns:anim="urn:oasis:names:tc:opendocument:xmlns:animation:1.0" xml:space="preserve">
 <defs class="ClipPathGroup">
  <clipPath id="presentation_clip_path" clipPathUnits="userSpaceOnUse">
   <rect x="2793" y="2251" width="4928" height="6499"/>
  </clipPath>
 </defs>
 <defs class="TextShapeIndex">
  <g ooo:slide="id1" ooo:id-list="id3 id4 id5 id6 id7 id8 id9 id10 id11 id12 id13 id14 id15 id16 id17 id18 id19 id20 id21 id22 id23 id24 id25 id26 id27 id28 id29 id30 id31 id32 id33 id34 id35 id36 id37 id38 id39 id40 id41 id42 id43 id44 id45 id46 id47 id48 id49 id50 id51 id52 id53 id54 id55 id56 id57 id58 id59 id60 id61 id62 id63 id64 id65 id66"/>
 </defs>
 <defs class="EmbeddedBulletChars">
  <g id="bullet-char-template(57356)" transform="scale(0.00048828125,-0.00048828125)">
   <path d="M 580,1141 L 1163,571 580,0 -4,571 580,1141 Z"/>
  </g>
  <g id="bullet-char-template(57354)" transform="scale(0.00048828125,-0.00048828125)">
   <path d="M 8,1128 L 1137,1128 1137,0 8,0 8,1128 Z"/>
  </g>
  <g id="bullet-char-template(10146)" transform="scale(0.00048828125,-0.00048828125)">
   <path d="M 174,0 L 602,739 174,1481 1456,739 174,0 Z M 1358,739 L 309,1346 659,739 1358,739 Z"/>
  </g>
  <g id="bullet-char-template(10132)" transform="scale(0.00048828125,-0.00048828125)">
   <path d="M 2015,739 L 1276,0 717,0 1260,543 174,543 174,936 1260,936 717,1481 1274,1481 2015,739 Z"/>
  </g>
  <g id="bullet-char-template(10007)" transform="scale(0.00048828125,-0.00048828125)">
   <path d="M 0,-2 C -7,14 -16,27 -25,37 L 356,567 C 262,823 215,952 215,954 215,979 228,992 255,992 264,992 276,990 289,987 310,991 331,999 354,1012 L 381,999 492,748 772,1049 836,1024 860,1049 C 881,1039 901,1025 922,1006 886,937 835,863 770,784 769,783 710,716 594,584 L 774,223 C 774,196 753,168 711,139 L 727,119 C 717,90 699,76 672,76 641,76 570,178 457,381 L 164,-76 C 142,-110 111,-127 72,-127 30,-127 9,-110 8,-76 1,-67 -2,-52 -2,-32 -2,-23 -1,-13 0,-2 Z"/>
  </g>
  <g id="bullet-char-template(10004)" transform="scale(0.00048828125,-0.00048828125)">
   <path d="M 285,-33 C 182,-33 111,30 74,156 52,228 41,333 41,471 41,549 55,616 82,672 116,743 169,778 240,778 293,778 328,747 346,684 L 369,508 C 377,444 397,411 428,410 L 1163,1116 C 1174,1127 1196,1133 1229,1133 1271,1133 1292,1118 1292,1087 L 1292,965 C 1292,929 1282,901 1262,881 L 442,47 C 390,-6 338,-33 285,-33 Z"/>
  </g>
  <g id="bullet-char-template(9679)" transform="scale(0.00048828125,-0.00048828125)">
   <path d="M 813,0 C 632,0 489,54 383,161 276,268 223,411 223,592 223,773 276,916 383,1023 489,1130 632,1184 813,1184 992,1184 1136,1130 1245,1023 1353,916 1407,772 1407,592 1407,412 1353,268 1245,161 1136,54 992,0 813,0 Z"/>
  </g>
  <g id="bullet-char-template(8226)" transform="scale(0.00048828125,-0.00048828125)">
   <path d="M 346,457 C 273,457 209,483 155,535 101,586 74,649 74,723 74,796 101,859 155,911 209,963 273,989 346,989 419,989 480,963 531,910 582,859 608,796 608,723 608,648 583,586 532,535 482,483 420,457 346,457 Z"/>
  </g>
  <g id="bullet-char-template(8211)" transform="scale(0.00048828125,-0.00048828125)">
   <path d="M -4,459 L 1135,459 1135,606 -4,606 -4,459 Z"/>
  </g>
 </defs>
 <defs class="TextEmbeddedBitmaps"/>
 <g class="SlideGroup">
  <g>
   <g id="id1" class="Slide" clip-path="url(#presentation_clip_path)">
    <g class="Page">
     <g class="Group">
      <g class="Group">
       <g class="com.sun.star.drawing.ClosedBezierShape">
        <g id="id3">
         <rect class="BoundingBox" stroke="none" fill="none" x="6724" y="8104" width="999" height="646"/>
         <path fill="rgb(221,221,221)" stroke="none" d="M 6744,8729 C 6984,8729 7701,8528 7701,8376 7701,8225 7678,8124 7439,8124 7439,8275 6740,8275 6744,8729 Z"/>
         <path fill="none" stroke="rgb(221,221,221)" stroke-width="40" stroke-linejoin="round" d="M 6744,8729 C 6984,8729 7701,8528 7701,8376 7701,8225 7678,8124 7439,8124 7439,8275 6740,8275 6744,8729 Z"/>
        </g>
       </g>
       <g class="Group">
        <g class="com.sun.star.drawing.PolyPolygonShape">
         <g id="id4">
          <rect class="BoundingBox" stroke="none" fill="none" x="6372" y="8205" width="478" height="546"/>
          <g>
           <defs>
            <linearGradient id="gradient1" x1="6391" y1="8477" x2="6830" y2="8477" gradientUnits="userSpaceOnUse">
             <stop offset="0.1" style="stop-color:rgb(179,179,179)"/>
             <stop offset="1" style="stop-color:rgb(229,229,229)"/>
            </linearGradient>
           </defs>
           <path style="fill:url(#gradient1)" d="M 6392,8528 L 6479,8225 6828,8427 6741,8730 6392,8528 Z"/>
          </g>
          <path fill="none" stroke="rgb(255,255,255)" stroke-width="40" stroke-linejoin="round" d="M 6392,8528 L 6479,8225 6828,8427 6741,8730 6392,8528 Z"/>
         </g>
        </g>
        <g class="com.sun.star.drawing.PolyPolygonShape">
         <g id="id5">
          <rect class="BoundingBox" stroke="none" fill="none" x="6459" y="7852" width="1001" height="596"/>
          <g>
           <defs>
            <linearGradient id="gradient2" x1="6959" y1="7872" x2="6959" y2="8427" gradientUnits="userSpaceOnUse">
             <stop offset="0.1" style="stop-color:rgb(179,179,179)"/>
             <stop offset="1" style="stop-color:rgb(229,229,229)"/>
            </linearGradient>
           </defs>
           <path style="fill:url(#gradient2)" d="M 6479,8225 L 6654,8074 6915,7922 7090,7872 7439,8074 7265,8124 7003,8276 6828,8427 6479,8225 Z"/>
          </g>
          <path fill="none" stroke="rgb(255,255,255)" stroke-width="40" stroke-linejoin="round" d="M 6479,8225 L 6654,8074 6915,7922 7090,7872 7439,8074 7265,8124 7003,8276 6828,8427 6479,8225 Z"/>
         </g>
        </g>
        <g class="com.sun.star.drawing.ClosedBezierShape">
         <g id="id6">
          <rect class="BoundingBox" stroke="none" fill="none" x="6721" y="8053" width="827" height="697"/>
          <g>
           <defs>
            <pattern id="pattern1" x="6741" y="8073" width="787" height="657" patternUnits="userSpaceOnUse">
             <g transform="translate(-6741,-8073)">
              <path fill="rgb(179,179,179)" stroke="none" d="M 6740,8072 L 7528,8072 7528,8730 6740,8730 6740,8072 Z M 6590,7947 L 7362,7947 7362,8591 6590,8591 6590,7947 Z"/>
              <path fill="rgb(180,180,180)" stroke="none" d="M 6590,7947 L 7362,7947 7362,8591 6590,8591 6590,7947 Z M 6598,7954 L 7354,7954 7354,8584 6598,8584 6598,7954 Z"/>
              <path fill="rgb(181,181,181)" stroke="none" d="M 6598,7954 L 7354,7954 7354,8584 6598,8584 6598,7954 Z M 6606,7960 L 7346,7960 7346,8578 6606,8578 6606,7960 Z"/>
              <path fill="rgb(182,182,182)" stroke="none" d="M 6606,7960 L 7346,7960 7346,8578 6606,8578 6606,7960 Z M 6614,7967 L 7338,7967 7338,8571 6614,8571 6614,7967 Z"/>
              <path fill="rgb(183,183,183)" stroke="none" d="M 6614,7967 L 7338,7967 7338,8571 6614,8571 6614,7967 Z M 6622,7973 L 7330,7973 7330,8565 6622,8565 6622,7973 Z"/>
              <path fill="rgb(184,184,184)" stroke="none" d="M 6622,7973 L 7330,7973 7330,8565 6622,8565 6622,7973 Z M 6630,7980 L 7322,7980 7322,8558 6630,8558 6630,7980 Z"/>
              <path fill="rgb(185,185,185)" stroke="none" d="M 6630,7980 L 7322,7980 7322,8558 6630,8558 6630,7980 Z M 6638,7987 L 7314,7987 7314,8551 6638,8551 6638,7987 Z"/>
              <path fill="rgb(186,186,186)" stroke="none" d="M 6638,7987 L 7314,7987 7314,8551 6638,8551 6638,7987 Z M 6646,7993 L 7306,7993 7306,8545 6646,8545 6646,7993 Z"/>
              <path fill="rgb(187,187,187)" stroke="none" d="M 6646,7993 L 7306,7993 7306,8545 6646,8545 6646,7993 Z M 6654,8000 L 7298,8000 7298,8538 6654,8538 6654,8000 Z"/>
              <path fill="rgb(188,188,188)" stroke="none" d="M 6654,8000 L 7298,8000 7298,8538 6654,8538 6654,8000 Z M 6661,8006 L 7291,8006 7291,8532 6661,8532 6661,8006 Z"/>
              <path fill="rgb(189,189,189)" stroke="none" d="M 6661,8006 L 7291,8006 7291,8532 6661,8532 6661,8006 Z M 6669,8013 L 7283,8013 7283,8525 6669,8525 6669,8013 Z"/>
              <path fill="rgb(190,190,190)" stroke="none" d="M 6669,8013 L 7283,8013 7283,8525 6669,8525 6669,8013 Z M 6677,8020 L 7275,8020 7275,8518 6677,8518 6677,8020 Z"/>
              <path fill="rgb(191,191,191)" stroke="none" d="M 6677,8020 L 7275,8020 7275,8518 6677,8518 6677,8020 Z M 6685,8026 L 7267,8026 7267,8512 6685,8512 6685,8026 Z"/>
              <path fill="rgb(192,192,192)" stroke="none" d="M 6685,8026 L 7267,8026 7267,8512 6685,8512 6685,8026 Z M 6693,8033 L 7259,8033 7259,8505 6693,8505 6693,8033 Z"/>
              <path fill="rgb(193,193,193)" stroke="none" d="M 6693,8033 L 7259,8033 7259,8505 6693,8505 6693,8033 Z M 6701,8039 L 7251,8039 7251,8499 6701,8499 6701,8039 Z"/>
              <path fill="rgb(194,194,194)" stroke="none" d="M 6701,8039 L 7251,8039 7251,8499 6701,8499 6701,8039 Z M 6709,8046 L 7243,8046 7243,8492 6709,8492 6709,8046 Z"/>
              <path fill="rgb(195,195,195)" stroke="none" d="M 6709,8046 L 7243,8046 7243,8492 6709,8492 6709,8046 Z M 6717,8053 L 7235,8053 7235,8485 6717,8485 6717,8053 Z"/>
              <path fill="rgb(196,196,196)" stroke="none" d="M 6717,8053 L 7235,8053 7235,8485 6717,8485 6717,8053 Z M 6724,8058 L 7227,8058 7227,8479 6724,8479 6724,8058 Z"/>
              <path fill="rgb(197,197,197)" stroke="none" d="M 6724,8058 L 7227,8058 7227,8479 6724,8479 6724,8058 Z M 6731,8065 L 7220,8065 7220,8472 6731,8472 6731,8065 Z"/>
              <path fill="rgb(198,198,198)" stroke="none" d="M 6731,8065 L 7220,8065 7220,8472 6731,8472 6731,8065 Z M 6739,8071 L 7212,8071 7212,8466 6739,8466 6739,8071 Z"/>
              <path fill="rgb(199,199,199)" stroke="none" d="M 6739,8071 L 7212,8071 7212,8466 6739,8466 6739,8071 Z M 6747,8078 L 7204,8078 7204,8459 6747,8459 6747,8078 Z"/>
              <path fill="rgb(200,200,200)" stroke="none" d="M 6747,8078 L 7204,8078 7204,8459 6747,8459 6747,8078 Z M 6755,8084 L 7196,8084 7196,8453 6755,8453 6755,8084 Z"/>
              <path fill="rgb(201,201,201)" stroke="none" d="M 6755,8084 L 7196,8084 7196,8453 6755,8453 6755,8084 Z M 6763,8091 L 7188,8091 7188,8446 6763,8446 6763,8091 Z"/>
              <path fill="rgb(202,202,202)" stroke="none" d="M 6763,8091 L 7188,8091 7188,8446 6763,8446 6763,8091 Z M 6771,8098 L 7180,8098 7180,8439 6771,8439 6771,8098 Z"/>
              <path fill="rgb(203,203,203)" stroke="none" d="M 6771,8098 L 7180,8098 7180,8439 6771,8439 6771,8098 Z M 6779,8104 L 7172,8104 7172,8433 6779,8433 6779,8104 Z"/>
              <path fill="rgb(204,204,204)" stroke="none" d="M 6779,8104 L 7172,8104 7172,8433 6779,8433 6779,8104 Z M 6787,8111 L 7164,8111 7164,8426 6787,8426 6787,8111 Z"/>
              <path fill="rgb(205,205,205)" stroke="none" d="M 6787,8111 L 7164,8111 7164,8426 6787,8426 6787,8111 Z M 6795,8117 L 7156,8117 7156,8420 6795,8420 6795,8117 Z"/>
              <path fill="rgb(206,206,206)" stroke="none" d="M 6795,8117 L 7156,8117 7156,8420 6795,8420 6795,8117 Z M 6802,8124 L 7149,8124 7149,8413 6802,8413 6802,8124 Z"/>
              <path fill="rgb(207,207,207)" stroke="none" d="M 6802,8124 L 7149,8124 7149,8413 6802,8413 6802,8124 Z M 6810,8131 L 7141,8131 7141,8406 6810,8406 6810,8131 Z"/>
              <path fill="rgb(208,208,208)" stroke="none" d="M 6810,8131 L 7141,8131 7141,8406 6810,8406 6810,8131 Z M 6818,8137 L 7133,8137 7133,8400 6818,8400 6818,8137 Z"/>
              <path fill="rgb(209,209,209)" stroke="none" d="M 6818,8137 L 7133,8137 7133,8400 6818,8400 6818,8137 Z M 6826,8144 L 7125,8144 7125,8393 6826,8393 6826,8144 Z"/>
              <path fill="rgb(210,210,210)" stroke="none" d="M 6826,8144 L 7125,8144 7125,8393 6826,8393 6826,8144 Z M 6834,8150 L 7117,8150 7117,8387 6834,8387 6834,8150 Z"/>
              <path fill="rgb(211,211,211)" stroke="none" d="M 6834,8150 L 7117,8150 7117,8387 6834,8387 6834,8150 Z M 6842,8157 L 7109,8157 7109,8380 6842,8380 6842,8157 Z"/>
              <path fill="rgb(212,212,212)" stroke="none" d="M 6842,8157 L 7109,8157 7109,8380 6842,8380 6842,8157 Z M 6850,8164 L 7101,8164 7101,8373 6850,8373 6850,8164 Z"/>
              <path fill="rgb(213,213,213)" stroke="none" d="M 6850,8164 L 7101,8164 7101,8373 6850,8373 6850,8164 Z M 6858,8170 L 7093,8170 7093,8367 6858,8367 6858,8170 Z"/>
              <path fill="rgb(214,214,214)" stroke="none" d="M 6858,8170 L 7093,8170 7093,8367 6858,8367 6858,8170 Z M 6866,8177 L 7085,8177 7085,8360 6866,8360 6866,8177 Z"/>
              <path fill="rgb(215,215,215)" stroke="none" d="M 6866,8177 L 7085,8177 7085,8360 6866,8360 6866,8177 Z M 6873,8183 L 7078,8183 7078,8354 6873,8354 6873,8183 Z"/>
              <path fill="rgb(216,216,216)" stroke="none" d="M 6873,8183 L 7078,8183 7078,8354 6873,8354 6873,8183 Z M 6881,8190 L 7070,8190 7070,8347 6881,8347 6881,8190 Z"/>
              <path fill="rgb(217,217,217)" stroke="none" d="M 6881,8190 L 7070,8190 7070,8347 6881,8347 6881,8190 Z M 6889,8197 L 7062,8197 7062,8340 6889,8340 6889,8197 Z"/>
              <path fill="rgb(218,218,218)" stroke="none" d="M 6889,8197 L 7062,8197 7062,8340 6889,8340 6889,8197 Z M 6897,8203 L 7054,8203 7054,8334 6897,8334 6897,8203 Z"/>
              <path fill="rgb(219,219,219)" stroke="none" d="M 6897,8203 L 7054,8203 7054,8334 6897,8334 6897,8203 Z M 6905,8210 L 7046,8210 7046,8327 6905,8327 6905,8210 Z"/>
              <path fill="rgb(220,220,220)" stroke="none" d="M 6905,8210 L 7046,8210 7046,8327 6905,8327 6905,8210 Z M 6913,8216 L 7038,8216 7038,8321 6913,8321 6913,8216 Z"/>
              <path fill="rgb(221,221,221)" stroke="none" d="M 6913,8216 L 7038,8216 7038,8321 6913,8321 6913,8216 Z M 6921,8223 L 7030,8223 7030,8314 6921,8314 6921,8223 Z"/>
              <path fill="rgb(222,222,222)" stroke="none" d="M 6921,8223 L 7030,8223 7030,8314 6921,8314 6921,8223 Z M 6929,8229 L 7022,8229 7022,8308 6929,8308 6929,8229 Z"/>
              <path fill="rgb(223,223,223)" stroke="none" d="M 6929,8229 L 7022,8229 7022,8308 6929,8308 6929,8229 Z M 6937,8236 L 7014,8236 7014,8301 6937,8301 6937,8236 Z"/>
              <path fill="rgb(224,224,224)" stroke="none" d="M 6937,8236 L 7014,8236 7014,8301 6937,8301 6937,8236 Z M 6944,8243 L 7007,8243 7007,8294 6944,8294 6944,8243 Z"/>
              <path fill="rgb(225,225,225)" stroke="none" d="M 6944,8243 L 7007,8243 7007,8294 6944,8294 6944,8243 Z M 6952,8249 L 6999,8249 6999,8288 6952,8288 6952,8249 Z"/>
              <path fill="rgb(226,226,226)" stroke="none" d="M 6952,8249 L 6999,8249 6999,8288 6952,8288 6952,8249 Z M 6960,8256 L 6991,8256 6991,8281 6960,8281 6960,8256 Z"/>
              <path fill="rgb(227,227,227)" stroke="none" d="M 6960,8256 L 6991,8256 6991,8281 6960,8281 6960,8256 Z M 6968,8262 L 6983,8262 6983,8275 6968,8275 6968,8262 Z"/>
              <path fill="rgb(229,229,229)" stroke="none" d="M 6968,8262 L 6983,8262 6983,8275 6968,8275 6968,8262 Z"/>
             </g>
            </pattern>
           </defs>
           <path style="fill:url(#pattern1)" d="M 7527,8275 L 7525,8223 7519,8180 7510,8145 7504,8130 7497,8117 7489,8106 7481,8097 7472,8089 7462,8083 7452,8079 7441,8075 7430,8074 7418,8073 7405,8074 7392,8075 7365,8082 7336,8092 7306,8105 7242,8137 7177,8174 7048,8239 6986,8274 6956,8295 6926,8319 6898,8347 6871,8381 6846,8419 6821,8465 6799,8518 6778,8579 6758,8649 6741,8729 7527,8275 Z"/>
          </g>
          <path fill="none" stroke="rgb(255,255,255)" stroke-width="40" stroke-linejoin="round" d="M 7527,8275 C 7527,7972 7352,8073 7177,8174 7003,8275 6828,8275 6741,8729 6741,8729 7090,8527 7527,8275 Z"/>
         </g>
        </g>
        <g class="com.sun.star.drawing.ClosedBezierShape">
         <g id="id7">
          <rect class="BoundingBox" stroke="none" fill="none" x="6372" y="7852" width="1176" height="899"/>
          <path fill="none" stroke="rgb(0,0,0)" stroke-width="40" stroke-linejoin="round" d="M 7090,7872 C 6916,7922 6916,7922 6741,8023 6654,8074 6479,8124 6392,8528 6567,8629 6567,8629 6741,8730 6841,8684 7352,8377 7527,8276 7527,8023 7352,8023 7090,7872 Z"/>
         </g>
        </g>
       </g>
      </g>
      <g class="Group">
       <g class="com.sun.star.drawing.ClosedBezierShape">
        <g id="id8">
         <rect class="BoundingBox" stroke="none" fill="none" x="5935" y="5681" width="1612" height="1253"/>
         <path fill="rgb(221,221,221)" stroke="none" d="M 5961,6913 C 6200,6913 7526,6862 7526,6408 7526,5954 7071,5702 6831,5702 6831,5853 5873,5803 5961,6913 Z"/>
         <path fill="none" stroke="rgb(221,221,221)" stroke-width="40" stroke-linejoin="round" d="M 5961,6913 C 6200,6913 7526,6862 7526,6408 7526,5954 7071,5702 6831,5702 6831,5853 5873,5803 5961,6913 Z"/>
        </g>
       </g>
       <g class="Group">
        <g class="com.sun.star.drawing.PolyPolygonShape">
         <g id="id9">
          <rect class="BoundingBox" stroke="none" fill="none" x="5062" y="6186" width="915" height="747"/>
          <g>
           <defs>
            <linearGradient id="gradient3" x1="5081" y1="6559" x2="5955" y2="6559" gradientUnits="userSpaceOnUse">
             <stop offset="0.1" style="stop-color:rgb(179,179,179)"/>
             <stop offset="1" style="stop-color:rgb(229,229,229)"/>
            </linearGradient>
           </defs>
           <path style="fill:url(#gradient3)" d="M 5082,6408 L 5082,6206 5955,6711 5955,6912 5082,6408 Z"/>
          </g>
          <path fill="none" stroke="rgb(255,255,255)" stroke-width="40" stroke-linejoin="round" d="M 5082,6408 L 5082,6206 5955,6711 5955,6912 5082,6408 Z"/>
         </g>
        </g>
        <g class="com.sun.star.drawing.PolyPolygonShape">
         <g id="id10">
          <rect class="BoundingBox" stroke="none" fill="none" x="5761" y="5430" width="915" height="899"/>
          <g>
           <defs>
            <linearGradient id="gradient4" x1="5780" y1="5879" x2="6654" y2="5879" gradientUnits="userSpaceOnUse">
             <stop offset="0.1" style="stop-color:rgb(179,179,179)"/>
             <stop offset="1" style="stop-color:rgb(229,229,229)"/>
            </linearGradient>
           </defs>
           <path style="fill:url(#gradient4)" d="M 5781,5803 L 5781,5450 6654,5955 6654,6308 5781,5803 Z"/>
          </g>
          <path fill="none" stroke="rgb(255,255,255)" stroke-width="40" stroke-linejoin="round" d="M 5781,5803 L 5781,5450 6654,5955 6654,6308 5781,5803 Z"/>
         </g>
        </g>
        <g class="com.sun.star.drawing.PolyPolygonShape">
         <g id="id11">
          <rect class="BoundingBox" stroke="none" fill="none" x="5061" y="5783" width="1613" height="950"/>
          <g>
           <defs>
            <linearGradient id="gradient5" x1="5867" y1="5803" x2="5867" y2="6711" gradientUnits="userSpaceOnUse">
             <stop offset="0.1" style="stop-color:rgb(179,179,179)"/>
             <stop offset="1" style="stop-color:rgb(229,229,229)"/>
            </linearGradient>
           </defs>
           <path style="fill:url(#gradient5)" d="M 5082,6207 L 5780,5803 6653,6308 5955,6711 5082,6207 Z"/>
          </g>
          <path fill="none" stroke="rgb(255,255,255)" stroke-width="40" stroke-linejoin="round" d="M 5082,6207 L 5780,5803 6653,6308 5955,6711 5082,6207 Z"/>
         </g>
        </g>
        <g class="com.sun.star.drawing.LineShape">
         <g id="id12">
          <rect class="BoundingBox" stroke="none" fill="none" x="5761" y="5783" width="914" height="546"/>
          <path fill="none" stroke="rgb(127,127,127)" stroke-width="40" stroke-linejoin="round" d="M 5781,5803 L 6654,6308"/>
         </g>
        </g>
        <g class="com.sun.star.drawing.PolyPolygonShape">
         <g id="id13">
          <rect class="BoundingBox" stroke="none" fill="none" x="5935" y="6035" width="915" height="899"/>
          <g>
           <defs>
            <pattern id="pattern2" x="5955" y="6055" width="874" height="859" patternUnits="userSpaceOnUse">
             <g transform="translate(-5955,-6055)">
              <path fill="rgb(179,179,179)" stroke="none" d="M 5954,6054 L 6829,6054 6829,6914 5954,6914 5954,6054 Z M 5787,5891 L 6644,5891 6644,6733 5787,6733 5787,5891 Z"/>
              <path fill="rgb(180,180,180)" stroke="none" d="M 5787,5891 L 6644,5891 6644,6733 5787,6733 5787,5891 Z M 5796,5900 L 6635,5900 6635,6724 5796,6724 5796,5900 Z"/>
              <path fill="rgb(181,181,181)" stroke="none" d="M 5796,5900 L 6635,5900 6635,6724 5796,6724 5796,5900 Z M 5805,5908 L 6626,5908 6626,6716 5805,6716 5805,5908 Z"/>
              <path fill="rgb(182,182,182)" stroke="none" d="M 5805,5908 L 6626,5908 6626,6716 5805,6716 5805,5908 Z M 5814,5917 L 6617,5917 6617,6707 5814,6707 5814,5917 Z"/>
              <path fill="rgb(183,183,183)" stroke="none" d="M 5814,5917 L 6617,5917 6617,6707 5814,6707 5814,5917 Z M 5822,5926 L 6609,5926 6609,6698 5822,6698 5822,5926 Z"/>
              <path fill="rgb(184,184,184)" stroke="none" d="M 5822,5926 L 6609,5926 6609,6698 5822,6698 5822,5926 Z M 5831,5934 L 6600,5934 6600,6690 5831,6690 5831,5934 Z"/>
              <path fill="rgb(185,185,185)" stroke="none" d="M 5831,5934 L 6600,5934 6600,6690 5831,6690 5831,5934 Z M 5840,5943 L 6591,5943 6591,6681 5840,6681 5840,5943 Z"/>
              <path fill="rgb(186,186,186)" stroke="none" d="M 5840,5943 L 6591,5943 6591,6681 5840,6681 5840,5943 Z M 5849,5951 L 6582,5951 6582,6673 5849,6673 5849,5951 Z"/>
              <path fill="rgb(187,187,187)" stroke="none" d="M 5849,5951 L 6582,5951 6582,6673 5849,6673 5849,5951 Z M 5857,5960 L 6574,5960 6574,6664 5857,6664 5857,5960 Z"/>
              <path fill="rgb(188,188,188)" stroke="none" d="M 5857,5960 L 6574,5960 6574,6664 5857,6664 5857,5960 Z M 5866,5969 L 6565,5969 6565,6655 5866,6655 5866,5969 Z"/>
              <path fill="rgb(189,189,189)" stroke="none" d="M 5866,5969 L 6565,5969 6565,6655 5866,6655 5866,5969 Z M 5875,5977 L 6556,5977 6556,6647 5875,6647 5875,5977 Z"/>
              <path fill="rgb(190,190,190)" stroke="none" d="M 5875,5977 L 6556,5977 6556,6647 5875,6647 5875,5977 Z M 5884,5986 L 6547,5986 6547,6638 5884,6638 5884,5986 Z"/>
              <path fill="rgb(191,191,191)" stroke="none" d="M 5884,5986 L 6547,5986 6547,6638 5884,6638 5884,5986 Z M 5892,5994 L 6539,5994 6539,6630 5892,6630 5892,5994 Z"/>
              <path fill="rgb(192,192,192)" stroke="none" d="M 5892,5994 L 6539,5994 6539,6630 5892,6630 5892,5994 Z M 5901,6003 L 6530,6003 6530,6621 5901,6621 5901,6003 Z"/>
              <path fill="rgb(193,193,193)" stroke="none" d="M 5901,6003 L 6530,6003 6530,6621 5901,6621 5901,6003 Z M 5910,6012 L 6521,6012 6521,6612 5910,6612 5910,6012 Z"/>
              <path fill="rgb(194,194,194)" stroke="none" d="M 5910,6012 L 6521,6012 6521,6612 5910,6612 5910,6012 Z M 5919,6020 L 6512,6020 6512,6604 5919,6604 5919,6020 Z"/>
              <path fill="rgb(195,195,195)" stroke="none" d="M 5919,6020 L 6512,6020 6512,6604 5919,6604 5919,6020 Z M 5927,6029 L 6504,6029 6504,6595 5927,6595 5927,6029 Z"/>
              <path fill="rgb(196,196,196)" stroke="none" d="M 5927,6029 L 6504,6029 6504,6595 5927,6595 5927,6029 Z M 5935,6036 L 6495,6036 6495,6587 5935,6587 5935,6036 Z"/>
              <path fill="rgb(197,197,197)" stroke="none" d="M 5935,6036 L 6495,6036 6495,6587 5935,6587 5935,6036 Z M 5944,6045 L 6486,6045 6486,6578 5944,6578 5944,6045 Z"/>
              <path fill="rgb(198,198,198)" stroke="none" d="M 5944,6045 L 6486,6045 6486,6578 5944,6578 5944,6045 Z M 5953,6054 L 6477,6054 6477,6569 5953,6569 5953,6054 Z"/>
              <path fill="rgb(199,199,199)" stroke="none" d="M 5953,6054 L 6477,6054 6477,6569 5953,6569 5953,6054 Z M 5961,6062 L 6469,6062 6469,6561 5961,6561 5961,6062 Z"/>
              <path fill="rgb(200,200,200)" stroke="none" d="M 5961,6062 L 6469,6062 6469,6561 5961,6561 5961,6062 Z M 5970,6071 L 6460,6071 6460,6552 5970,6552 5970,6071 Z"/>
              <path fill="rgb(201,201,201)" stroke="none" d="M 5970,6071 L 6460,6071 6460,6552 5970,6552 5970,6071 Z M 5979,6080 L 6451,6080 6451,6543 5979,6543 5979,6080 Z"/>
              <path fill="rgb(202,202,202)" stroke="none" d="M 5979,6080 L 6451,6080 6451,6543 5979,6543 5979,6080 Z M 5988,6088 L 6442,6088 6442,6535 5988,6535 5988,6088 Z"/>
              <path fill="rgb(203,203,203)" stroke="none" d="M 5988,6088 L 6442,6088 6442,6535 5988,6535 5988,6088 Z M 5996,6097 L 6434,6097 6434,6526 5996,6526 5996,6097 Z"/>
              <path fill="rgb(204,204,204)" stroke="none" d="M 5996,6097 L 6434,6097 6434,6526 5996,6526 5996,6097 Z M 6005,6105 L 6425,6105 6425,6518 6005,6518 6005,6105 Z"/>
              <path fill="rgb(205,205,205)" stroke="none" d="M 6005,6105 L 6425,6105 6425,6518 6005,6518 6005,6105 Z M 6014,6114 L 6416,6114 6416,6509 6014,6509 6014,6114 Z"/>
              <path fill="rgb(206,206,206)" stroke="none" d="M 6014,6114 L 6416,6114 6416,6509 6014,6509 6014,6114 Z M 6023,6123 L 6407,6123 6407,6500 6023,6500 6023,6123 Z"/>
              <path fill="rgb(207,207,207)" stroke="none" d="M 6023,6123 L 6407,6123 6407,6500 6023,6500 6023,6123 Z M 6032,6131 L 6398,6131 6398,6492 6032,6492 6032,6131 Z"/>
              <path fill="rgb(208,208,208)" stroke="none" d="M 6032,6131 L 6398,6131 6398,6492 6032,6492 6032,6131 Z M 6040,6140 L 6390,6140 6390,6483 6040,6483 6040,6140 Z"/>
              <path fill="rgb(209,209,209)" stroke="none" d="M 6040,6140 L 6390,6140 6390,6483 6040,6483 6040,6140 Z M 6049,6148 L 6381,6148 6381,6475 6049,6475 6049,6148 Z"/>
              <path fill="rgb(210,210,210)" stroke="none" d="M 6049,6148 L 6381,6148 6381,6475 6049,6475 6049,6148 Z M 6058,6157 L 6372,6157 6372,6466 6058,6466 6058,6157 Z"/>
              <path fill="rgb(211,211,211)" stroke="none" d="M 6058,6157 L 6372,6157 6372,6466 6058,6466 6058,6157 Z M 6067,6166 L 6363,6166 6363,6457 6067,6457 6067,6166 Z"/>
              <path fill="rgb(212,212,212)" stroke="none" d="M 6067,6166 L 6363,6166 6363,6457 6067,6457 6067,6166 Z M 6075,6174 L 6355,6174 6355,6449 6075,6449 6075,6174 Z"/>
              <path fill="rgb(213,213,213)" stroke="none" d="M 6075,6174 L 6355,6174 6355,6449 6075,6449 6075,6174 Z M 6084,6183 L 6346,6183 6346,6440 6084,6440 6084,6183 Z"/>
              <path fill="rgb(214,214,214)" stroke="none" d="M 6084,6183 L 6346,6183 6346,6440 6084,6440 6084,6183 Z M 6093,6191 L 6337,6191 6337,6432 6093,6432 6093,6191 Z"/>
              <path fill="rgb(215,215,215)" stroke="none" d="M 6093,6191 L 6337,6191 6337,6432 6093,6432 6093,6191 Z M 6102,6200 L 6328,6200 6328,6423 6102,6423 6102,6200 Z"/>
              <path fill="rgb(216,216,216)" stroke="none" d="M 6102,6200 L 6328,6200 6328,6423 6102,6423 6102,6200 Z M 6110,6209 L 6320,6209 6320,6414 6110,6414 6110,6209 Z"/>
              <path fill="rgb(217,217,217)" stroke="none" d="M 6110,6209 L 6320,6209 6320,6414 6110,6414 6110,6209 Z M 6119,6217 L 6311,6217 6311,6406 6119,6406 6119,6217 Z"/>
              <path fill="rgb(218,218,218)" stroke="none" d="M 6119,6217 L 6311,6217 6311,6406 6119,6406 6119,6217 Z M 6128,6226 L 6302,6226 6302,6397 6128,6397 6128,6226 Z"/>
              <path fill="rgb(219,219,219)" stroke="none" d="M 6128,6226 L 6302,6226 6302,6397 6128,6397 6128,6226 Z M 6137,6235 L 6293,6235 6293,6388 6137,6388 6137,6235 Z"/>
              <path fill="rgb(220,220,220)" stroke="none" d="M 6137,6235 L 6293,6235 6293,6388 6137,6388 6137,6235 Z M 6145,6243 L 6285,6243 6285,6380 6145,6380 6145,6243 Z"/>
              <path fill="rgb(221,221,221)" stroke="none" d="M 6145,6243 L 6285,6243 6285,6380 6145,6380 6145,6243 Z M 6154,6252 L 6276,6252 6276,6371 6154,6371 6154,6252 Z"/>
              <path fill="rgb(222,222,222)" stroke="none" d="M 6154,6252 L 6276,6252 6276,6371 6154,6371 6154,6252 Z M 6163,6260 L 6267,6260 6267,6363 6163,6363 6163,6260 Z"/>
              <path fill="rgb(223,223,223)" stroke="none" d="M 6163,6260 L 6267,6260 6267,6363 6163,6363 6163,6260 Z M 6172,6269 L 6258,6269 6258,6354 6172,6354 6172,6269 Z"/>
              <path fill="rgb(224,224,224)" stroke="none" d="M 6172,6269 L 6258,6269 6258,6354 6172,6354 6172,6269 Z M 6180,6278 L 6250,6278 6250,6345 6180,6345 6180,6278 Z"/>
              <path fill="rgb(225,225,225)" stroke="none" d="M 6180,6278 L 6250,6278 6250,6345 6180,6345 6180,6278 Z M 6189,6286 L 6241,6286 6241,6337 6189,6337 6189,6286 Z"/>
              <path fill="rgb(226,226,226)" stroke="none" d="M 6189,6286 L 6241,6286 6241,6337 6189,6337 6189,6286 Z M 6198,6295 L 6232,6295 6232,6328 6198,6328 6198,6295 Z"/>
              <path fill="rgb(227,227,227)" stroke="none" d="M 6198,6295 L 6232,6295 6232,6328 6198,6328 6198,6295 Z M 6207,6303 L 6223,6303 6223,6320 6207,6320 6207,6303 Z"/>
              <path fill="rgb(229,229,229)" stroke="none" d="M 6207,6303 L 6223,6303 6223,6320 6207,6320 6207,6303 Z"/>
             </g>
            </pattern>
           </defs>
           <path style="fill:url(#pattern2)" d="M 5955,6913 L 5955,6711 6653,6307 6653,6055 6828,6156 6828,6408 5955,6913 Z"/>
          </g>
          <path fill="none" stroke="rgb(255,255,255)" stroke-width="40" stroke-linejoin="round" d="M 5955,6913 L 5955,6711 6653,6307 6653,6055 6828,6156 6828,6408 5955,6913 Z"/>
         </g>
        </g>
        <g class="com.sun.star.drawing.PolyPolygonShape">
         <g id="id14">
          <rect class="BoundingBox" stroke="none" fill="none" x="4102" y="2351" width="2834" height="3877"/>
          <g>
           <defs>
            <linearGradient id="gradient6" x1="4121" y1="4289" x2="6916" y2="4289" gradientUnits="userSpaceOnUse">
             <stop offset="0.1" style="stop-color:rgb(179,179,179)"/>
             <stop offset="1" style="stop-color:rgb(229,229,229)"/>
            </linearGradient>
           </defs>
           <path style="fill:url(#gradient6)" d="M 4122,4592 L 4122,2372 6915,3987 6915,6207 4122,4592 Z"/>
          </g>
          <path fill="none" stroke="rgb(255,255,255)" stroke-width="40" stroke-linejoin="round" d="M 4122,4592 L 4122,2372 6915,3987 6915,6207 4122,4592 Z"/>
         </g>
        </g>
        <g class="com.sun.star.drawing.PolyPolygonShape">
         <g id="id15">
          <rect class="BoundingBox" stroke="none" fill="none" x="4190" y="2503" width="2660" height="3573"/>
          <g>
           <defs>
            <linearGradient id="gradient7" x1="4209" y1="4289" x2="6829" y2="4289" gradientUnits="userSpaceOnUse">
             <stop offset="0.1" style="stop-color:rgb(147,212,240)"/>
             <stop offset="1" style="stop-color:rgb(233,246,252)"/>
            </linearGradient>
           </defs>
           <path style="fill:url(#gradient7)" d="M 4210,4541 L 4210,2523 6829,4037 6829,6055 4210,4541 Z"/>
          </g>
          <path fill="none" stroke="rgb(127,127,127)" stroke-width="40" stroke-linejoin="round" d="M 4210,4541 L 4210,2523 6829,4037 6829,6055 4210,4541 Z"/>
         </g>
        </g>
        <g class="com.sun.star.drawing.PolyPolygonShape">
         <g id="id16">
          <rect class="BoundingBox" stroke="none" fill="none" x="4102" y="2251" width="3009" height="1756"/>
          <g>
           <defs>
            <linearGradient id="gradient8" x1="5606" y1="2271" x2="5606" y2="3986" gradientUnits="userSpaceOnUse">
             <stop offset="0.1" style="stop-color:rgb(179,179,179)"/>
             <stop offset="1" style="stop-color:rgb(229,229,229)"/>
            </linearGradient>
           </defs>
           <path style="fill:url(#gradient8)" d="M 6915,3986 L 4122,2372 4297,2271 7090,3886 6915,3986 Z"/>
          </g>
          <path fill="none" stroke="rgb(255,255,255)" stroke-width="40" stroke-linejoin="round" d="M 6915,3986 L 4122,2372 4297,2271 7090,3886 6915,3986 Z"/>
         </g>
        </g>
        <g class="com.sun.star.drawing.PolyPolygonShape">
         <g id="id17">
          <rect class="BoundingBox" stroke="none" fill="none" x="6896" y="3866" width="216" height="2362"/>
          <g>
           <defs>
            <pattern id="pattern3" x="6916" y="3886" width="176" height="2322" patternUnits="userSpaceOnUse">
             <g transform="translate(-6916,-3886)">
              <path fill="rgb(179,179,179)" stroke="none" d="M 6915,3885 L 7092,3885 7092,6208 6915,6208 6915,3885 Z M 6881,3444 L 7054,3444 7054,5719 6881,5719 6881,3444 Z"/>
              <path fill="rgb(180,180,180)" stroke="none" d="M 6881,3444 L 7054,3444 7054,5719 6881,5719 6881,3444 Z M 6883,3467 L 7052,3467 7052,5696 6883,5696 6883,3467 Z"/>
              <path fill="rgb(181,181,181)" stroke="none" d="M 6883,3467 L 7052,3467 7052,5696 6883,5696 6883,3467 Z M 6885,3490 L 7050,3490 7050,5673 6885,5673 6885,3490 Z"/>
              <path fill="rgb(182,182,182)" stroke="none" d="M 6885,3490 L 7050,3490 7050,5673 6885,5673 6885,3490 Z M 6887,3513 L 7048,3513 7048,5650 6887,5650 6887,3513 Z"/>
              <path fill="rgb(183,183,183)" stroke="none" d="M 6887,3513 L 7048,3513 7048,5650 6887,5650 6887,3513 Z M 6888,3537 L 7047,3537 7047,5626 6888,5626 6888,3537 Z"/>
              <path fill="rgb(184,184,184)" stroke="none" d="M 6888,3537 L 7047,3537 7047,5626 6888,5626 6888,3537 Z M 6890,3560 L 7045,3560 7045,5603 6890,5603 6890,3560 Z"/>
              <path fill="rgb(185,185,185)" stroke="none" d="M 6890,3560 L 7045,3560 7045,5603 6890,5603 6890,3560 Z M 6892,3583 L 7043,3583 7043,5580 6892,5580 6892,3583 Z"/>
              <path fill="rgb(186,186,186)" stroke="none" d="M 6892,3583 L 7043,3583 7043,5580 6892,5580 6892,3583 Z M 6894,3606 L 7041,3606 7041,5557 6894,5557 6894,3606 Z"/>
              <path fill="rgb(187,187,187)" stroke="none" d="M 6894,3606 L 7041,3606 7041,5557 6894,5557 6894,3606 Z M 6896,3630 L 7039,3630 7039,5533 6896,5533 6896,3630 Z"/>
              <path fill="rgb(188,188,188)" stroke="none" d="M 6896,3630 L 7039,3630 7039,5533 6896,5533 6896,3630 Z M 6896,3653 L 7038,3653 7038,5510 6896,5510 6896,3653 Z"/>
              <path fill="rgb(189,189,189)" stroke="none" d="M 6896,3653 L 7038,3653 7038,5510 6896,5510 6896,3653 Z M 6898,3676 L 7036,3676 7036,5487 6898,5487 6898,3676 Z"/>
              <path fill="rgb(190,190,190)" stroke="none" d="M 6898,3676 L 7036,3676 7036,5487 6898,5487 6898,3676 Z M 6900,3699 L 7034,3699 7034,5464 6900,5464 6900,3699 Z"/>
              <path fill="rgb(191,191,191)" stroke="none" d="M 6900,3699 L 7034,3699 7034,5464 6900,5464 6900,3699 Z M 6902,3723 L 7032,3723 7032,5440 6902,5440 6902,3723 Z"/>
              <path fill="rgb(192,192,192)" stroke="none" d="M 6902,3723 L 7032,3723 7032,5440 6902,5440 6902,3723 Z M 6903,3746 L 7031,3746 7031,5417 6903,5417 6903,3746 Z"/>
              <path fill="rgb(193,193,193)" stroke="none" d="M 6903,3746 L 7031,3746 7031,5417 6903,5417 6903,3746 Z M 6905,3769 L 7029,3769 7029,5394 6905,5394 6905,3769 Z"/>
              <path fill="rgb(194,194,194)" stroke="none" d="M 6905,3769 L 7029,3769 7029,5394 6905,5394 6905,3769 Z M 6907,3792 L 7027,3792 7027,5371 6907,5371 6907,3792 Z"/>
              <path fill="rgb(195,195,195)" stroke="none" d="M 6907,3792 L 7027,3792 7027,5371 6907,5371 6907,3792 Z M 6909,3816 L 7025,3816 7025,5347 6909,5347 6909,3816 Z"/>
              <path fill="rgb(196,196,196)" stroke="none" d="M 6909,3816 L 7025,3816 7025,5347 6909,5347 6909,3816 Z M 6911,3839 L 7023,3839 7023,5324 6911,5324 6911,3839 Z"/>
              <path fill="rgb(197,197,197)" stroke="none" d="M 6911,3839 L 7023,3839 7023,5324 6911,5324 6911,3839 Z M 6912,3862 L 7022,3862 7022,5301 6912,5301 6912,3862 Z"/>
              <path fill="rgb(198,198,198)" stroke="none" d="M 6912,3862 L 7022,3862 7022,5301 6912,5301 6912,3862 Z M 6914,3884 L 7020,3884 7020,5278 6914,5278 6914,3884 Z"/>
              <path fill="rgb(199,199,199)" stroke="none" d="M 6914,3884 L 7020,3884 7020,5278 6914,5278 6914,3884 Z M 6916,3908 L 7018,3908 7018,5254 6916,5254 6916,3908 Z"/>
              <path fill="rgb(200,200,200)" stroke="none" d="M 6916,3908 L 7018,3908 7018,5254 6916,5254 6916,3908 Z M 6918,3931 L 7016,3931 7016,5231 6918,5231 6918,3931 Z"/>
              <path fill="rgb(201,201,201)" stroke="none" d="M 6918,3931 L 7016,3931 7016,5231 6918,5231 6918,3931 Z M 6919,3954 L 7015,3954 7015,5208 6919,5208 6919,3954 Z"/>
              <path fill="rgb(202,202,202)" stroke="none" d="M 6919,3954 L 7015,3954 7015,5208 6919,5208 6919,3954 Z M 6921,3977 L 7013,3977 7013,5185 6921,5185 6921,3977 Z"/>
              <path fill="rgb(203,203,203)" stroke="none" d="M 6921,3977 L 7013,3977 7013,5185 6921,5185 6921,3977 Z M 6923,4001 L 7011,4001 7011,5161 6923,5161 6923,4001 Z"/>
              <path fill="rgb(204,204,204)" stroke="none" d="M 6923,4001 L 7011,4001 7011,5161 6923,5161 6923,4001 Z M 6925,4024 L 7009,4024 7009,5138 6925,5138 6925,4024 Z"/>
              <path fill="rgb(205,205,205)" stroke="none" d="M 6925,4024 L 7009,4024 7009,5138 6925,5138 6925,4024 Z M 6927,4047 L 7007,4047 7007,5115 6927,5115 6927,4047 Z"/>
              <path fill="rgb(206,206,206)" stroke="none" d="M 6927,4047 L 7007,4047 7007,5115 6927,5115 6927,4047 Z M 6928,4070 L 7006,4070 7006,5092 6928,5092 6928,4070 Z"/>
              <path fill="rgb(207,207,207)" stroke="none" d="M 6928,4070 L 7006,4070 7006,5092 6928,5092 6928,4070 Z M 6930,4093 L 7004,4093 7004,5069 6930,5069 6930,4093 Z"/>
              <path fill="rgb(208,208,208)" stroke="none" d="M 6930,4093 L 7004,4093 7004,5069 6930,5069 6930,4093 Z M 6932,4117 L 7002,4117 7002,5045 6932,5045 6932,4117 Z"/>
              <path fill="rgb(209,209,209)" stroke="none" d="M 6932,4117 L 7002,4117 7002,5045 6932,5045 6932,4117 Z M 6934,4140 L 7000,4140 7000,5022 6934,5022 6934,4140 Z"/>
              <path fill="rgb(210,210,210)" stroke="none" d="M 6934,4140 L 7000,4140 7000,5022 6934,5022 6934,4140 Z M 6935,4163 L 6999,4163 6999,4999 6935,4999 6935,4163 Z"/>
              <path fill="rgb(211,211,211)" stroke="none" d="M 6935,4163 L 6999,4163 6999,4999 6935,4999 6935,4163 Z M 6937,4186 L 6997,4186 6997,4976 6937,4976 6937,4186 Z"/>
              <path fill="rgb(212,212,212)" stroke="none" d="M 6937,4186 L 6997,4186 6997,4976 6937,4976 6937,4186 Z M 6939,4210 L 6995,4210 6995,4952 6939,4952 6939,4210 Z"/>
              <path fill="rgb(213,213,213)" stroke="none" d="M 6939,4210 L 6995,4210 6995,4952 6939,4952 6939,4210 Z M 6941,4233 L 6993,4233 6993,4929 6941,4929 6941,4233 Z"/>
              <path fill="rgb(214,214,214)" stroke="none" d="M 6941,4233 L 6993,4233 6993,4929 6941,4929 6941,4233 Z M 6943,4256 L 6991,4256 6991,4906 6943,4906 6943,4256 Z"/>
              <path fill="rgb(215,215,215)" stroke="none" d="M 6943,4256 L 6991,4256 6991,4906 6943,4906 6943,4256 Z M 6944,4279 L 6990,4279 6990,4883 6944,4883 6944,4279 Z"/>
              <path fill="rgb(216,216,216)" stroke="none" d="M 6944,4279 L 6990,4279 6990,4883 6944,4883 6944,4279 Z M 6946,4303 L 6988,4303 6988,4859 6946,4859 6946,4303 Z"/>
              <path fill="rgb(217,217,217)" stroke="none" d="M 6946,4303 L 6988,4303 6988,4859 6946,4859 6946,4303 Z M 6948,4326 L 6986,4326 6986,4836 6948,4836 6948,4326 Z"/>
              <path fill="rgb(218,218,218)" stroke="none" d="M 6948,4326 L 6986,4326 6986,4836 6948,4836 6948,4326 Z M 6950,4349 L 6984,4349 6984,4813 6950,4813 6950,4349 Z"/>
              <path fill="rgb(219,219,219)" stroke="none" d="M 6950,4349 L 6984,4349 6984,4813 6950,4813 6950,4349 Z M 6951,4372 L 6983,4372 6983,4790 6951,4790 6951,4372 Z"/>
              <path fill="rgb(220,220,220)" stroke="none" d="M 6951,4372 L 6983,4372 6983,4790 6951,4790 6951,4372 Z M 6953,4396 L 6981,4396 6981,4766 6953,4766 6953,4396 Z"/>
              <path fill="rgb(221,221,221)" stroke="none" d="M 6953,4396 L 6981,4396 6981,4766 6953,4766 6953,4396 Z M 6955,4419 L 6979,4419 6979,4743 6955,4743 6955,4419 Z"/>
              <path fill="rgb(222,222,222)" stroke="none" d="M 6955,4419 L 6979,4419 6979,4743 6955,4743 6955,4419 Z M 6957,4442 L 6977,4442 6977,4720 6957,4720 6957,4442 Z"/>
              <path fill="rgb(223,223,223)" stroke="none" d="M 6957,4442 L 6977,4442 6977,4720 6957,4720 6957,4442 Z M 6959,4465 L 6975,4465 6975,4697 6959,4697 6959,4465 Z"/>
              <path fill="rgb(224,224,224)" stroke="none" d="M 6959,4465 L 6975,4465 6975,4697 6959,4697 6959,4465 Z M 6960,4489 L 6974,4489 6974,4673 6960,4673 6960,4489 Z"/>
              <path fill="rgb(225,225,225)" stroke="none" d="M 6960,4489 L 6974,4489 6974,4673 6960,4673 6960,4489 Z M 6962,4512 L 6972,4512 6972,4650 6962,4650 6962,4512 Z"/>
              <path fill="rgb(226,226,226)" stroke="none" d="M 6962,4512 L 6972,4512 6972,4650 6962,4650 6962,4512 Z M 6964,4535 L 6970,4535 6970,4627 6964,4627 6964,4535 Z"/>
              <path fill="rgb(227,227,227)" stroke="none" d="M 6964,4535 L 6970,4535 6970,4627 6964,4627 6964,4535 Z M 6966,4558 L 6968,4558 6968,4604 6966,4604 6966,4558 Z"/>
              <path fill="rgb(229,229,229)" stroke="none" d="M 6966,4558 L 6968,4558 6968,4604 6966,4604 6966,4558 Z"/>
             </g>
            </pattern>
           </defs>
           <path style="fill:url(#pattern3)" d="M 6916,6207 L 6916,3987 7091,3886 7091,6106 6916,6207 Z"/>
          </g>
          <path fill="none" stroke="rgb(255,255,255)" stroke-width="40" stroke-linejoin="round" d="M 6916,6207 L 6916,3987 7091,3886 7091,6106 6916,6207 Z"/>
         </g>
        </g>
        <g class="com.sun.star.drawing.PolyPolygonShape">
         <g id="id18">
          <rect class="BoundingBox" stroke="none" fill="none" x="4102" y="2251" width="3009" height="4683"/>
          <path fill="none" stroke="rgb(0,0,0)" stroke-width="40" stroke-linejoin="round" d="M 4297,2271 L 7090,3886 7090,6106 6915,6206 6828,6156 6828,6408 5955,6913 5082,6408 5082,6206 5780,5803 5780,5551 4122,4592 4122,2372 4297,2271 Z"/>
         </g>
        </g>
       </g>
      </g>
      <g class="Group">
       <g class="com.sun.star.drawing.ClosedBezierShape">
        <g id="id19">
         <rect class="BoundingBox" stroke="none" fill="none" x="5583" y="7549" width="1180" height="646"/>
         <path fill="rgb(221,221,221)" stroke="none" d="M 5610,8174 C 5850,8174 6741,7922 6741,7771 6741,7619 6719,7569 6479,7569 6479,7720 5519,7670 5610,8174 Z"/>
         <path fill="none" stroke="rgb(221,221,221)" stroke-width="40" stroke-linejoin="round" d="M 5610,8174 C 5850,8174 6741,7922 6741,7771 6741,7619 6719,7569 6479,7569 6479,7720 5519,7670 5610,8174 Z"/>
        </g>
       </g>
       <g class="Group">
        <g class="com.sun.star.drawing.PolyPolygonShape">
         <g id="id20">
          <rect class="BoundingBox" stroke="none" fill="none" x="2792" y="5833" width="3795" height="2211"/>
          <g>
           <defs>
            <linearGradient id="gradient9" x1="4689" y1="5853" x2="4689" y2="8023" gradientUnits="userSpaceOnUse">
             <stop offset="0.1" style="stop-color:rgb(179,179,179)"/>
             <stop offset="1" style="stop-color:rgb(229,229,229)"/>
            </linearGradient>
           </defs>
           <path style="fill:url(#gradient9)" d="M 5606,8023 L 2813,6408 3773,5853 6566,7468 5606,8023 Z"/>
          </g>
          <path fill="none" stroke="rgb(255,255,255)" stroke-width="40" stroke-linejoin="round" d="M 5606,8023 L 2813,6408 3773,5853 6566,7468 5606,8023 Z"/>
         </g>
        </g>
        <g class="com.sun.star.drawing.PolyPolygonShape">
         <g id="id21">
          <rect class="BoundingBox" stroke="none" fill="none" x="3054" y="5985" width="2573" height="1504"/>
          <path fill="rgb(127,127,127)" stroke="none" d="M 3075,6409 L 3773,6005 5606,7065 4908,7468 3075,6409 Z"/>
          <path fill="none" stroke="rgb(255,255,255)" stroke-width="40" stroke-linejoin="round" d="M 3075,6409 L 3773,6005 5606,7065 4908,7468 3075,6409 Z"/>
         </g>
        </g>
        <g class="com.sun.star.drawing.PolyPolygonShape">
         <g id="id22">
          <rect class="BoundingBox" stroke="none" fill="none" x="5062" y="7145" width="1263" height="748"/>
          <path fill="rgb(127,127,127)" stroke="none" d="M 5082,7569 L 5780,7165 6304,7468 5606,7871 5082,7569 Z"/>
          <path fill="none" stroke="rgb(255,255,255)" stroke-width="40" stroke-linejoin="round" d="M 5082,7569 L 5780,7165 6304,7468 5606,7871 5082,7569 Z"/>
         </g>
        </g>
        <g class="com.sun.star.drawing.PolyPolygonShape">
         <g id="id23">
          <rect class="BoundingBox" stroke="none" fill="none" x="5586" y="7448" width="1001" height="798"/>
          <g>
           <defs>
            <pattern id="pattern4" x="5606" y="7468" width="961" height="758" patternUnits="userSpaceOnUse">
             <g transform="translate(-5606,-7468)">
              <path fill="rgb(179,179,179)" stroke="none" d="M 5605,7467 L 6567,7467 6567,8226 5605,8226 5605,7467 Z M 5422,7323 L 6364,7323 6364,8066 5422,8066 5422,7323 Z"/>
              <path fill="rgb(180,180,180)" stroke="none" d="M 5422,7323 L 6364,7323 6364,8066 5422,8066 5422,7323 Z M 5432,7331 L 6354,7331 6354,8058 5432,8058 5432,7331 Z"/>
              <path fill="rgb(181,181,181)" stroke="none" d="M 5432,7331 L 6354,7331 6354,8058 5432,8058 5432,7331 Z M 5441,7338 L 6345,7338 6345,8051 5441,8051 5441,7338 Z"/>
              <path fill="rgb(182,182,182)" stroke="none" d="M 5441,7338 L 6345,7338 6345,8051 5441,8051 5441,7338 Z M 5451,7346 L 6335,7346 6335,8043 5451,8043 5451,7346 Z"/>
              <path fill="rgb(183,183,183)" stroke="none" d="M 5451,7346 L 6335,7346 6335,8043 5451,8043 5451,7346 Z M 5461,7353 L 6325,7353 6325,8035 5461,8035 5461,7353 Z"/>
              <path fill="rgb(184,184,184)" stroke="none" d="M 5461,7353 L 6325,7353 6325,8035 5461,8035 5461,7353 Z M 5470,7361 L 6316,7361 6316,8028 5470,8028 5470,7361 Z"/>
              <path fill="rgb(185,185,185)" stroke="none" d="M 5470,7361 L 6316,7361 6316,8028 5470,8028 5470,7361 Z M 5480,7369 L 6306,7369 6306,8020 5480,8020 5480,7369 Z"/>
              <path fill="rgb(186,186,186)" stroke="none" d="M 5480,7369 L 6306,7369 6306,8020 5480,8020 5480,7369 Z M 5490,7376 L 6296,7376 6296,8013 5490,8013 5490,7376 Z"/>
              <path fill="rgb(187,187,187)" stroke="none" d="M 5490,7376 L 6296,7376 6296,8013 5490,8013 5490,7376 Z M 5499,7384 L 6287,7384 6287,8005 5499,8005 5499,7384 Z"/>
              <path fill="rgb(188,188,188)" stroke="none" d="M 5499,7384 L 6287,7384 6287,8005 5499,8005 5499,7384 Z M 5509,7391 L 6277,7391 6277,7997 5509,7997 5509,7391 Z"/>
              <path fill="rgb(189,189,189)" stroke="none" d="M 5509,7391 L 6277,7391 6277,7997 5509,7997 5509,7391 Z M 5518,7399 L 6268,7399 6268,7990 5518,7990 5518,7399 Z"/>
              <path fill="rgb(190,190,190)" stroke="none" d="M 5518,7399 L 6268,7399 6268,7990 5518,7990 5518,7399 Z M 5528,7407 L 6258,7407 6258,7982 5528,7982 5528,7407 Z"/>
              <path fill="rgb(191,191,191)" stroke="none" d="M 5528,7407 L 6258,7407 6258,7982 5528,7982 5528,7407 Z M 5538,7414 L 6248,7414 6248,7975 5538,7975 5538,7414 Z"/>
              <path fill="rgb(192,192,192)" stroke="none" d="M 5538,7414 L 6248,7414 6248,7975 5538,7975 5538,7414 Z M 5547,7422 L 6239,7422 6239,7967 5547,7967 5547,7422 Z"/>
              <path fill="rgb(193,193,193)" stroke="none" d="M 5547,7422 L 6239,7422 6239,7967 5547,7967 5547,7422 Z M 5557,7429 L 6229,7429 6229,7959 5557,7959 5557,7429 Z"/>
              <path fill="rgb(194,194,194)" stroke="none" d="M 5557,7429 L 6229,7429 6229,7959 5557,7959 5557,7429 Z M 5567,7437 L 6219,7437 6219,7952 5567,7952 5567,7437 Z"/>
              <path fill="rgb(195,195,195)" stroke="none" d="M 5567,7437 L 6219,7437 6219,7952 5567,7952 5567,7437 Z M 5576,7445 L 6210,7445 6210,7944 5576,7944 5576,7445 Z"/>
              <path fill="rgb(196,196,196)" stroke="none" d="M 5576,7445 L 6210,7445 6210,7944 5576,7944 5576,7445 Z M 5586,7451 L 6200,7451 6200,7937 5586,7937 5586,7451 Z"/>
              <path fill="rgb(197,197,197)" stroke="none" d="M 5586,7451 L 6200,7451 6200,7937 5586,7937 5586,7451 Z M 5594,7459 L 6191,7459 6191,7929 5594,7929 5594,7459 Z"/>
              <path fill="rgb(198,198,198)" stroke="none" d="M 5594,7459 L 6191,7459 6191,7929 5594,7929 5594,7459 Z M 5604,7466 L 6181,7466 6181,7921 5604,7921 5604,7466 Z"/>
              <path fill="rgb(199,199,199)" stroke="none" d="M 5604,7466 L 6181,7466 6181,7921 5604,7921 5604,7466 Z M 5614,7474 L 6171,7474 6171,7914 5614,7914 5614,7474 Z"/>
              <path fill="rgb(200,200,200)" stroke="none" d="M 5614,7474 L 6171,7474 6171,7914 5614,7914 5614,7474 Z M 5623,7482 L 6162,7482 6162,7906 5623,7906 5623,7482 Z"/>
              <path fill="rgb(201,201,201)" stroke="none" d="M 5623,7482 L 6162,7482 6162,7906 5623,7906 5623,7482 Z M 5633,7489 L 6152,7489 6152,7899 5633,7899 5633,7489 Z"/>
              <path fill="rgb(202,202,202)" stroke="none" d="M 5633,7489 L 6152,7489 6152,7899 5633,7899 5633,7489 Z M 5643,7497 L 6142,7497 6142,7891 5643,7891 5643,7497 Z"/>
              <path fill="rgb(203,203,203)" stroke="none" d="M 5643,7497 L 6142,7497 6142,7891 5643,7891 5643,7497 Z M 5652,7504 L 6133,7504 6133,7883 5652,7883 5652,7504 Z"/>
              <path fill="rgb(204,204,204)" stroke="none" d="M 5652,7504 L 6133,7504 6133,7883 5652,7883 5652,7504 Z M 5662,7512 L 6123,7512 6123,7876 5662,7876 5662,7512 Z"/>
              <path fill="rgb(205,205,205)" stroke="none" d="M 5662,7512 L 6123,7512 6123,7876 5662,7876 5662,7512 Z M 5672,7520 L 6113,7520 6113,7868 5672,7868 5672,7520 Z"/>
              <path fill="rgb(206,206,206)" stroke="none" d="M 5672,7520 L 6113,7520 6113,7868 5672,7868 5672,7520 Z M 5681,7527 L 6104,7527 6104,7861 5681,7861 5681,7527 Z"/>
              <path fill="rgb(207,207,207)" stroke="none" d="M 5681,7527 L 6104,7527 6104,7861 5681,7861 5681,7527 Z M 5691,7535 L 6094,7535 6094,7853 5691,7853 5691,7535 Z"/>
              <path fill="rgb(208,208,208)" stroke="none" d="M 5691,7535 L 6094,7535 6094,7853 5691,7853 5691,7535 Z M 5700,7542 L 6085,7542 6085,7845 5700,7845 5700,7542 Z"/>
              <path fill="rgb(209,209,209)" stroke="none" d="M 5700,7542 L 6085,7542 6085,7845 5700,7845 5700,7542 Z M 5710,7550 L 6075,7550 6075,7838 5710,7838 5710,7550 Z"/>
              <path fill="rgb(210,210,210)" stroke="none" d="M 5710,7550 L 6075,7550 6075,7838 5710,7838 5710,7550 Z M 5720,7558 L 6065,7558 6065,7830 5720,7830 5720,7558 Z"/>
              <path fill="rgb(211,211,211)" stroke="none" d="M 5720,7558 L 6065,7558 6065,7830 5720,7830 5720,7558 Z M 5729,7565 L 6056,7565 6056,7823 5729,7823 5729,7565 Z"/>
              <path fill="rgb(212,212,212)" stroke="none" d="M 5729,7565 L 6056,7565 6056,7823 5729,7823 5729,7565 Z M 5739,7573 L 6046,7573 6046,7815 5739,7815 5739,7573 Z"/>
              <path fill="rgb(213,213,213)" stroke="none" d="M 5739,7573 L 6046,7573 6046,7815 5739,7815 5739,7573 Z M 5749,7580 L 6036,7580 6036,7807 5749,7807 5749,7580 Z"/>
              <path fill="rgb(214,214,214)" stroke="none" d="M 5749,7580 L 6036,7580 6036,7807 5749,7807 5749,7580 Z M 5758,7588 L 6027,7588 6027,7800 5758,7800 5758,7588 Z"/>
              <path fill="rgb(215,215,215)" stroke="none" d="M 5758,7588 L 6027,7588 6027,7800 5758,7800 5758,7588 Z M 5768,7596 L 6017,7596 6017,7792 5768,7792 5768,7596 Z"/>
              <path fill="rgb(216,216,216)" stroke="none" d="M 5768,7596 L 6017,7596 6017,7792 5768,7792 5768,7596 Z M 5777,7603 L 6008,7603 6008,7785 5777,7785 5777,7603 Z"/>
              <path fill="rgb(217,217,217)" stroke="none" d="M 5777,7603 L 6008,7603 6008,7785 5777,7785 5777,7603 Z M 5787,7611 L 5998,7611 5998,7777 5787,7777 5787,7611 Z"/>
              <path fill="rgb(218,218,218)" stroke="none" d="M 5787,7611 L 5998,7611 5998,7777 5787,7777 5787,7611 Z M 5797,7618 L 5988,7618 5988,7769 5797,7769 5797,7618 Z"/>
              <path fill="rgb(219,219,219)" stroke="none" d="M 5797,7618 L 5988,7618 5988,7769 5797,7769 5797,7618 Z M 5806,7626 L 5979,7626 5979,7762 5806,7762 5806,7626 Z"/>
              <path fill="rgb(220,220,220)" stroke="none" d="M 5806,7626 L 5979,7626 5979,7762 5806,7762 5806,7626 Z M 5816,7634 L 5969,7634 5969,7754 5816,7754 5816,7634 Z"/>
              <path fill="rgb(221,221,221)" stroke="none" d="M 5816,7634 L 5969,7634 5969,7754 5816,7754 5816,7634 Z M 5826,7641 L 5959,7641 5959,7747 5826,7747 5826,7641 Z"/>
              <path fill="rgb(222,222,222)" stroke="none" d="M 5826,7641 L 5959,7641 5959,7747 5826,7747 5826,7641 Z M 5835,7649 L 5950,7649 5950,7739 5835,7739 5835,7649 Z"/>
              <path fill="rgb(223,223,223)" stroke="none" d="M 5835,7649 L 5950,7649 5950,7739 5835,7739 5835,7649 Z M 5845,7656 L 5940,7656 5940,7731 5845,7731 5845,7656 Z"/>
              <path fill="rgb(224,224,224)" stroke="none" d="M 5845,7656 L 5940,7656 5940,7731 5845,7731 5845,7656 Z M 5854,7664 L 5931,7664 5931,7724 5854,7724 5854,7664 Z"/>
              <path fill="rgb(225,225,225)" stroke="none" d="M 5854,7664 L 5931,7664 5931,7724 5854,7724 5854,7664 Z M 5864,7672 L 5921,7672 5921,7716 5864,7716 5864,7672 Z"/>
              <path fill="rgb(226,226,226)" stroke="none" d="M 5864,7672 L 5921,7672 5921,7716 5864,7716 5864,7672 Z M 5874,7679 L 5911,7679 5911,7709 5874,7709 5874,7679 Z"/>
              <path fill="rgb(227,227,227)" stroke="none" d="M 5874,7679 L 5911,7679 5911,7709 5874,7709 5874,7679 Z M 5883,7687 L 5902,7687 5902,7701 5883,7701 5883,7687 Z"/>
              <path fill="rgb(229,229,229)" stroke="none" d="M 5883,7687 L 5902,7687 5902,7701 5883,7701 5883,7687 Z"/>
             </g>
            </pattern>
           </defs>
           <path style="fill:url(#pattern4)" d="M 5606,8225 L 5606,8023 6566,7468 6566,7670 5606,8225 Z"/>
          </g>
          <path fill="none" stroke="rgb(255,255,255)" stroke-width="40" stroke-linejoin="round" d="M 5606,8225 L 5606,8023 6566,7468 6566,7670 5606,8225 Z"/>
         </g>
        </g>
        <g class="com.sun.star.drawing.LineShape">
         <g id="id24">
          <rect class="BoundingBox" stroke="none" fill="none" x="3229" y="6287" width="1874" height="1101"/>
          <path fill="none" stroke="rgb(229,229,229)" stroke-width="40" stroke-linejoin="round" d="M 3249,6307 L 5082,7367"/>
         </g>
        </g>
        <g class="com.sun.star.drawing.LineShape">
         <g id="id25">
          <rect class="BoundingBox" stroke="none" fill="none" x="3404" y="6186" width="1874" height="1101"/>
          <path fill="none" stroke="rgb(229,229,229)" stroke-width="40" stroke-linejoin="round" d="M 3424,6206 L 5257,7266"/>
         </g>
        </g>
        <g class="com.sun.star.drawing.LineShape">
         <g id="id26">
          <rect class="BoundingBox" stroke="none" fill="none" x="3579" y="6086" width="1874" height="1101"/>
          <path fill="none" stroke="rgb(229,229,229)" stroke-width="40" stroke-linejoin="round" d="M 3599,6106 L 5432,7166"/>
         </g>
        </g>
        <g class="com.sun.star.drawing.LineShape">
         <g id="id27">
          <rect class="BoundingBox" stroke="none" fill="none" x="5237" y="6943" width="216" height="142"/>
          <path fill="none" stroke="rgb(229,229,229)" stroke-width="40" stroke-linejoin="round" d="M 5257,7064 L 5432,6963"/>
         </g>
        </g>
        <g class="com.sun.star.drawing.LineShape">
         <g id="id28">
          <rect class="BoundingBox" stroke="none" fill="none" x="5062" y="6842" width="216" height="142"/>
          <path fill="none" stroke="rgb(229,229,229)" stroke-width="40" stroke-linejoin="round" d="M 5082,6963 L 5257,6862"/>
         </g>
        </g>
        <g class="com.sun.star.drawing.LineShape">
         <g id="id29">
          <rect class="BoundingBox" stroke="none" fill="none" x="4888" y="6742" width="216" height="142"/>
          <path fill="none" stroke="rgb(229,229,229)" stroke-width="40" stroke-linejoin="round" d="M 4908,6863 L 5083,6762"/>
         </g>
        </g>
        <g class="com.sun.star.drawing.LineShape">
         <g id="id30">
          <rect class="BoundingBox" stroke="none" fill="none" x="4975" y="6994" width="216" height="142"/>
          <path fill="none" stroke="rgb(229,229,229)" stroke-width="40" stroke-linejoin="round" d="M 4995,7115 L 5170,7014"/>
         </g>
        </g>
        <g class="com.sun.star.drawing.LineShape">
         <g id="id31">
          <rect class="BoundingBox" stroke="none" fill="none" x="4801" y="6893" width="216" height="142"/>
          <path fill="none" stroke="rgb(229,229,229)" stroke-width="40" stroke-linejoin="round" d="M 4821,7014 L 4996,6913"/>
         </g>
        </g>
        <g class="com.sun.star.drawing.LineShape">
         <g id="id32">
          <rect class="BoundingBox" stroke="none" fill="none" x="4626" y="6792" width="216" height="142"/>
          <path fill="none" stroke="rgb(229,229,229)" stroke-width="40" stroke-linejoin="round" d="M 4646,6913 L 4821,6812"/>
         </g>
        </g>
        <g class="com.sun.star.drawing.LineShape">
         <g id="id33">
          <rect class="BoundingBox" stroke="none" fill="none" x="4713" y="6641" width="216" height="142"/>
          <path fill="none" stroke="rgb(229,229,229)" stroke-width="40" stroke-linejoin="round" d="M 4733,6762 L 4908,6661"/>
         </g>
        </g>
        <g class="com.sun.star.drawing.LineShape">
         <g id="id34">
          <rect class="BoundingBox" stroke="none" fill="none" x="4451" y="6691" width="216" height="142"/>
          <path fill="none" stroke="rgb(229,229,229)" stroke-width="40" stroke-linejoin="round" d="M 4471,6812 L 4646,6711"/>
         </g>
        </g>
        <g class="com.sun.star.drawing.LineShape">
         <g id="id35">
          <rect class="BoundingBox" stroke="none" fill="none" x="4539" y="6540" width="216" height="142"/>
          <path fill="none" stroke="rgb(229,229,229)" stroke-width="40" stroke-linejoin="round" d="M 4559,6661 L 4734,6560"/>
         </g>
        </g>
        <g class="com.sun.star.drawing.LineShape">
         <g id="id36">
          <rect class="BoundingBox" stroke="none" fill="none" x="4364" y="6439" width="216" height="142"/>
          <path fill="none" stroke="rgb(229,229,229)" stroke-width="40" stroke-linejoin="round" d="M 4384,6560 L 4559,6459"/>
         </g>
        </g>
        <g class="com.sun.star.drawing.LineShape">
         <g id="id37">
          <rect class="BoundingBox" stroke="none" fill="none" x="4190" y="6338" width="216" height="142"/>
          <path fill="none" stroke="rgb(229,229,229)" stroke-width="40" stroke-linejoin="round" d="M 4210,6459 L 4385,6358"/>
         </g>
        </g>
        <g class="com.sun.star.drawing.LineShape">
         <g id="id38">
          <rect class="BoundingBox" stroke="none" fill="none" x="4277" y="6590" width="216" height="142"/>
          <path fill="none" stroke="rgb(229,229,229)" stroke-width="40" stroke-linejoin="round" d="M 4297,6711 L 4472,6610"/>
         </g>
        </g>
        <g class="com.sun.star.drawing.LineShape">
         <g id="id39">
          <rect class="BoundingBox" stroke="none" fill="none" x="4102" y="6489" width="216" height="142"/>
          <path fill="none" stroke="rgb(229,229,229)" stroke-width="40" stroke-linejoin="round" d="M 4122,6610 L 4297,6509"/>
         </g>
        </g>
        <g class="com.sun.star.drawing.LineShape">
         <g id="id40">
          <rect class="BoundingBox" stroke="none" fill="none" x="3928" y="6388" width="216" height="142"/>
          <path fill="none" stroke="rgb(229,229,229)" stroke-width="40" stroke-linejoin="round" d="M 3948,6509 L 4123,6408"/>
         </g>
        </g>
        <g class="com.sun.star.drawing.LineShape">
         <g id="id41">
          <rect class="BoundingBox" stroke="none" fill="none" x="4015" y="6237" width="216" height="142"/>
          <path fill="none" stroke="rgb(229,229,229)" stroke-width="40" stroke-linejoin="round" d="M 4035,6358 L 4210,6257"/>
         </g>
        </g>
        <g class="com.sun.star.drawing.LineShape">
         <g id="id42">
          <rect class="BoundingBox" stroke="none" fill="none" x="3753" y="6287" width="216" height="142"/>
          <path fill="none" stroke="rgb(229,229,229)" stroke-width="40" stroke-linejoin="round" d="M 3773,6408 L 3948,6307"/>
         </g>
        </g>
        <g class="com.sun.star.drawing.LineShape">
         <g id="id43">
          <rect class="BoundingBox" stroke="none" fill="none" x="3840" y="6136" width="216" height="142"/>
          <path fill="none" stroke="rgb(229,229,229)" stroke-width="40" stroke-linejoin="round" d="M 3860,6257 L 4035,6156"/>
         </g>
        </g>
        <g class="com.sun.star.drawing.LineShape">
         <g id="id44">
          <rect class="BoundingBox" stroke="none" fill="none" x="3666" y="6035" width="216" height="142"/>
          <path fill="none" stroke="rgb(229,229,229)" stroke-width="40" stroke-linejoin="round" d="M 3686,6156 L 3861,6055"/>
         </g>
        </g>
        <g class="com.sun.star.drawing.LineShape">
         <g id="id45">
          <rect class="BoundingBox" stroke="none" fill="none" x="3579" y="6186" width="216" height="142"/>
          <path fill="none" stroke="rgb(229,229,229)" stroke-width="40" stroke-linejoin="round" d="M 3599,6307 L 3774,6206"/>
         </g>
        </g>
        <g class="com.sun.star.drawing.LineShape">
         <g id="id46">
          <rect class="BoundingBox" stroke="none" fill="none" x="4713" y="7044" width="216" height="142"/>
          <path fill="none" stroke="rgb(229,229,229)" stroke-width="40" stroke-linejoin="round" d="M 4733,7165 L 4908,7064"/>
         </g>
        </g>
        <g class="com.sun.star.drawing.LineShape">
         <g id="id47">
          <rect class="BoundingBox" stroke="none" fill="none" x="4539" y="6943" width="216" height="142"/>
          <path fill="none" stroke="rgb(229,229,229)" stroke-width="40" stroke-linejoin="round" d="M 4559,7064 L 4734,6963"/>
         </g>
        </g>
        <g class="com.sun.star.drawing.LineShape">
         <g id="id48">
          <rect class="BoundingBox" stroke="none" fill="none" x="4364" y="6842" width="216" height="142"/>
          <path fill="none" stroke="rgb(229,229,229)" stroke-width="40" stroke-linejoin="round" d="M 4384,6963 L 4559,6862"/>
         </g>
        </g>
        <g class="com.sun.star.drawing.LineShape">
         <g id="id49">
          <rect class="BoundingBox" stroke="none" fill="none" x="4277" y="6994" width="216" height="142"/>
          <path fill="none" stroke="rgb(229,229,229)" stroke-width="40" stroke-linejoin="round" d="M 4297,7115 L 4472,7014"/>
         </g>
        </g>
        <g class="com.sun.star.drawing.LineShape">
         <g id="id50">
          <rect class="BoundingBox" stroke="none" fill="none" x="4102" y="6893" width="216" height="142"/>
          <path fill="none" stroke="rgb(229,229,229)" stroke-width="40" stroke-linejoin="round" d="M 4122,7014 L 4297,6913"/>
         </g>
        </g>
        <g class="com.sun.star.drawing.LineShape">
         <g id="id51">
          <rect class="BoundingBox" stroke="none" fill="none" x="4190" y="6742" width="216" height="142"/>
          <path fill="none" stroke="rgb(229,229,229)" stroke-width="40" stroke-linejoin="round" d="M 4210,6863 L 4385,6762"/>
         </g>
        </g>
        <g class="com.sun.star.drawing.LineShape">
         <g id="id52">
          <rect class="BoundingBox" stroke="none" fill="none" x="4015" y="6641" width="216" height="142"/>
          <path fill="none" stroke="rgb(229,229,229)" stroke-width="40" stroke-linejoin="round" d="M 4035,6762 L 4210,6661"/>
         </g>
        </g>
        <g class="com.sun.star.drawing.LineShape">
         <g id="id53">
          <rect class="BoundingBox" stroke="none" fill="none" x="3840" y="6540" width="216" height="142"/>
          <path fill="none" stroke="rgb(229,229,229)" stroke-width="40" stroke-linejoin="round" d="M 3860,6661 L 4035,6560"/>
         </g>
        </g>
        <g class="com.sun.star.drawing.LineShape">
         <g id="id54">
          <rect class="BoundingBox" stroke="none" fill="none" x="3666" y="6439" width="216" height="142"/>
          <path fill="none" stroke="rgb(229,229,229)" stroke-width="40" stroke-linejoin="round" d="M 3686,6560 L 3861,6459"/>
         </g>
        </g>
        <g class="com.sun.star.drawing.LineShape">
         <g id="id55">
          <rect class="BoundingBox" stroke="none" fill="none" x="3404" y="6489" width="216" height="142"/>
          <path fill="none" stroke="rgb(229,229,229)" stroke-width="40" stroke-linejoin="round" d="M 3424,6610 L 3599,6509"/>
         </g>
        </g>
        <g class="com.sun.star.drawing.LineShape">
         <g id="id56">
          <rect class="BoundingBox" stroke="none" fill="none" x="3491" y="6338" width="216" height="142"/>
          <path fill="none" stroke="rgb(229,229,229)" stroke-width="40" stroke-linejoin="round" d="M 3511,6459 L 3686,6358"/>
         </g>
        </g>
        <g class="com.sun.star.drawing.LineShape">
         <g id="id57">
          <rect class="BoundingBox" stroke="none" fill="none" x="3229" y="6388" width="216" height="142"/>
          <path fill="none" stroke="rgb(229,229,229)" stroke-width="40" stroke-linejoin="round" d="M 3249,6509 L 3424,6408"/>
         </g>
        </g>
        <g class="com.sun.star.drawing.LineShape">
         <g id="id58">
          <rect class="BoundingBox" stroke="none" fill="none" x="4626" y="7196" width="216" height="142"/>
          <path fill="none" stroke="rgb(229,229,229)" stroke-width="40" stroke-linejoin="round" d="M 4646,7317 L 4821,7216"/>
         </g>
        </g>
        <g class="com.sun.star.drawing.LineShape">
         <g id="id59">
          <rect class="BoundingBox" stroke="none" fill="none" x="4451" y="7095" width="216" height="142"/>
          <path fill="none" stroke="rgb(229,229,229)" stroke-width="40" stroke-linejoin="round" d="M 4471,7216 L 4646,7115"/>
         </g>
        </g>
        <g class="com.sun.star.drawing.LineShape">
         <g id="id60">
          <rect class="BoundingBox" stroke="none" fill="none" x="5237" y="7246" width="739" height="445"/>
          <path fill="none" stroke="rgb(229,229,229)" stroke-width="40" stroke-linejoin="round" d="M 5257,7670 L 5955,7266"/>
         </g>
        </g>
        <g class="com.sun.star.drawing.LineShape">
         <g id="id61">
          <rect class="BoundingBox" stroke="none" fill="none" x="5412" y="7347" width="739" height="445"/>
          <path fill="none" stroke="rgb(229,229,229)" stroke-width="40" stroke-linejoin="round" d="M 5432,7771 L 6130,7367"/>
         </g>
        </g>
        <g class="com.sun.star.drawing.LineShape">
         <g id="id62">
          <rect class="BoundingBox" stroke="none" fill="none" x="5586" y="7246" width="565" height="344"/>
          <path fill="none" stroke="rgb(229,229,229)" stroke-width="40" stroke-linejoin="round" d="M 5606,7266 L 6130,7569"/>
         </g>
        </g>
        <g class="com.sun.star.drawing.LineShape">
         <g id="id63">
          <rect class="BoundingBox" stroke="none" fill="none" x="5412" y="7347" width="565" height="344"/>
          <path fill="none" stroke="rgb(229,229,229)" stroke-width="40" stroke-linejoin="round" d="M 5432,7367 L 5956,7670"/>
         </g>
        </g>
        <g class="com.sun.star.drawing.LineShape">
         <g id="id64">
          <rect class="BoundingBox" stroke="none" fill="none" x="5237" y="7448" width="390" height="243"/>
          <path fill="none" stroke="rgb(229,229,229)" stroke-width="40" stroke-linejoin="round" d="M 5257,7468 L 5606,7670"/>
         </g>
        </g>
        <g class="com.sun.star.drawing.PolyPolygonShape">
         <g id="id65">
          <rect class="BoundingBox" stroke="none" fill="none" x="2793" y="6388" width="2834" height="1857"/>
          <g>
           <defs>
            <linearGradient id="gradient10" x1="2812" y1="7316" x2="5606" y2="7316" gradientUnits="userSpaceOnUse">
             <stop offset="0.1" style="stop-color:rgb(179,179,179)"/>
             <stop offset="1" style="stop-color:rgb(229,229,229)"/>
            </linearGradient>
           </defs>
           <path style="fill:url(#gradient10)" d="M 2813,6610 L 2813,6408 5606,8023 5606,8224 2813,6610 Z"/>
          </g>
          <path fill="none" stroke="rgb(255,255,255)" stroke-width="40" stroke-linejoin="round" d="M 2813,6610 L 2813,6408 5606,8023 5606,8224 2813,6610 Z"/>
         </g>
        </g>
        <g class="com.sun.star.drawing.PolyPolygonShape">
         <g id="id66">
          <rect class="BoundingBox" stroke="none" fill="none" x="2792" y="5833" width="3795" height="2412"/>
          <path fill="none" stroke="rgb(0,0,0)" stroke-width="40" stroke-linejoin="round" d="M 3773,5853 L 6566,7468 6566,7669 5606,8224 2813,6610 2813,6408 3773,5853 Z"/>
         </g>
        </g>
       </g>
      </g>
     </g>
    </g>
   </g>
  </g>
 </g>
</svg>