<?xml version="1.0" encoding="UTF-8"?>
<!DOCTYPE svg PUBLIC "-//W3C//DTD SVG 1.1//EN" "http://www.w3.org/Graphics/SVG/1.1/DTD/svg11.dtd">
<svg version="1.2" width="50.75mm" height="61.3mm" viewBox="11179 9433 5075 6130" preserveAspectRatio="xMidYMid" fill-rule="evenodd" stroke-width="28.222" stroke-linejoin="round" xmlns="http://www.w3.org/2000/svg" xmlns:ooo="http://xml.openoffice.org/svg/export" xmlns:xlink="http://www.w3.org/1999/xlink" xmlns:presentation="http://sun.com/xmlns/staroffice/presentation" xmlns:smil="http://www.w3.org/2001/SMIL20/" xmlns:anim="urn:oasis:names:tc:opendocument:xmlns:animation:1.0" xml:space="preserve">
 <defs class="ClipPathGroup">
  <clipPath id="presentation_clip_path" clipPathUnits="userSpaceOnUse">
   <rect x="11179" y="9433" width="5075" height="6130"/>
  </clipPath>
 </defs>
 <defs class="TextShapeIndex">
  <g ooo:slide="id1" ooo:id-list="id3 id4 id5 id6 id7 id8 id9 id10 id11"/>
 </defs>
 <defs class="EmbeddedBulletChars">
  <g id="bullet-char-template(57356)" transform="scale(0.00048828125,-0.00048828125)">
   <path d="M 580,1141 L 1163,571 580,0 -4,571 580,1141 Z"/>
  </g>
  <g id="bullet-char-template(57354)" transform="scale(0.00048828125,-0.00048828125)">
   <path d="M 8,1128 L 1137,1128 1137,0 8,0 8,1128 Z"/>
  </g>
  <g id="bullet-char-template(10146)" transform="scale(0.00048828125,-0.00048828125)">
   <path d="M 174,0 L 602,739 174,1481 1456,739 174,0 Z M 1358,739 L 309,1346 659,739 1358,739 Z"/>
  </g>
  <g id="bullet-char-template(10132)" transform="scale(0.00048828125,-0.00048828125)">
   <path d="M 2015,739 L 1276,0 717,0 1260,543 174,543 174,936 1260,936 717,1481 1274,1481 2015,739 Z"/>
  </g>
  <g id="bullet-char-template(10007)" transform="scale(0.00048828125,-0.00048828125)">
   <path d="M 0,-2 C -7,14 -16,27 -25,37 L 356,567 C 262,823 215,952 215,954 215,979 228,992 255,992 264,992 276,990 289,987 310,991 331,999 354,1012 L 381,999 492,748 772,1049 836,1024 860,1049 C 881,1039 901,1025 922,1006 886,937 835,863 770,784 769,783 710,716 594,584 L 774,223 C 774,196 753,168 711,139 L 727,119 C 717,90 699,76 672,76 641,76 570,178 457,381 L 164,-76 C 142,-110 111,-127 72,-127 30,-127 9,-110 8,-76 1,-67 -2,-52 -2,-32 -2,-23 -1,-13 0,-2 Z"/>
  </g>
  <g id="bullet-char-template(10004)" transform="scale(0.00048828125,-0.00048828125)">
   <path d="M 285,-33 C 182,-33 111,30 74,156 52,228 41,333 41,471 41,549 55,616 82,672 116,743 169,778 240,778 293,778 328,747 346,684 L 369,508 C 377,444 397,411 428,410 L 1163,1116 C 1174,1127 1196,1133 1229,1133 1271,1133 1292,1118 1292,1087 L 1292,965 C 1292,929 1282,901 1262,881 L 442,47 C 390,-6 338,-33 285,-33 Z"/>
  </g>
  <g id="bullet-char-template(9679)" transform="scale(0.00048828125,-0.00048828125)">
   <path d="M 813,0 C 632,0 489,54 383,161 276,268 223,411 223,592 223,773 276,916 383,1023 489,1130 632,1184 813,1184 992,1184 1136,1130 1245,1023 1353,916 1407,772 1407,592 1407,412 1353,268 1245,161 1136,54 992,0 813,0 Z"/>
  </g>
  <g id="bullet-char-template(8226)" transform="scale(0.00048828125,-0.00048828125)">
   <path d="M 346,457 C 273,457 209,483 155,535 101,586 74,649 74,723 74,796 101,859 155,911 209,963 273,989 346,989 419,989 480,963 531,910 582,859 608,796 608,723 608,648 583,586 532,535 482,483 420,457 346,457 Z"/>
  </g>
  <g id="bullet-char-template(8211)" transform="scale(0.00048828125,-0.00048828125)">
   <path d="M -4,459 L 1135,459 1135,606 -4,606 -4,459 Z"/>
  </g>
 </defs>
 <defs class="TextEmbeddedBitmaps"/>
 <g class="SlideGroup">
  <g>
   <g id="id1" class="Slide" clip-path="url(#presentation_clip_path)">
    <g class="Page">
     <g class="Group">
      <g class="com.sun.star.drawing.ClosedBezierShape">
       <g id="id3">
        <rect class="BoundingBox" stroke="none" fill="none" x="14696" y="14263" width="1560" height="951"/>
        <path fill="rgb(221,221,221)" stroke="none" d="M 14716,15193 C 14973,15193 16049,14633 16170,14563 16291,14493 16236,14283 16049,14283 L 14716,15193 Z"/>
        <path fill="none" stroke="rgb(221,221,221)" stroke-width="40" stroke-linejoin="round" d="M 14716,15193 C 14973,15193 16049,14633 16170,14563 16291,14493 16236,14283 16049,14283 L 14716,15193 Z"/>
       </g>
      </g>
      <g class="Group">
       <g class="com.sun.star.drawing.PolyPolygonShape">
        <g id="id4">
         <rect class="BoundingBox" stroke="none" fill="none" x="14089" y="14193" width="1981" height="1371"/>
         <g>
          <defs>
           <pattern id="pattern1" x="14109" y="14213" width="1941" height="1331" patternUnits="userSpaceOnUse">
            <g transform="translate(-14109,-14213)">
             <path fill="rgb(102,102,102)" stroke="none" d="M 14108,14212 L 16050,14212 16050,15544 14108,15544 14108,14212 Z M 13739,13959 L 15641,13959 15641,15263 13739,15263 13739,13959 Z"/>
             <path fill="rgb(103,103,103)" stroke="none" d="M 13739,13959 L 15641,13959 15641,15263 13739,15263 13739,13959 Z M 13758,13972 L 15622,13972 15622,15250 13758,15250 13758,13972 Z"/>
             <path fill="rgb(104,104,104)" stroke="none" d="M 13758,13972 L 15622,13972 15622,15250 13758,15250 13758,13972 Z M 13777,13985 L 15603,13985 15603,15237 13777,15237 13777,13985 Z"/>
             <path fill="rgb(105,105,105)" stroke="none" d="M 13777,13985 L 15603,13985 15603,15237 13777,15237 13777,13985 Z M 13796,13998 L 15584,13998 15584,15224 13796,15224 13796,13998 Z"/>
             <path fill="rgb(106,106,106)" stroke="none" d="M 13796,13998 L 15584,13998 15584,15224 13796,15224 13796,13998 Z M 13815,14011 L 15565,14011 15565,15211 13815,15211 13815,14011 Z"/>
             <path fill="rgb(107,107,107)" stroke="none" d="M 13815,14011 L 15565,14011 15565,15211 13815,15211 13815,14011 Z M 13834,14024 L 15546,14024 15546,15198 13834,15198 13834,14024 Z"/>
             <path fill="rgb(108,108,108)" stroke="none" d="M 13834,14024 L 15546,14024 15546,15198 13834,15198 13834,14024 Z M 13853,14037 L 15527,14037 15527,15185 13853,15185 13853,14037 Z"/>
             <path fill="rgb(109,109,109)" stroke="none" d="M 13853,14037 L 15527,14037 15527,15185 13853,15185 13853,14037 Z M 13872,14050 L 15508,14050 15508,15172 13872,15172 13872,14050 Z"/>
             <path fill="rgb(110,110,110)" stroke="none" d="M 13872,14050 L 15508,14050 15508,15172 13872,15172 13872,14050 Z M 13891,14063 L 15489,14063 15489,15159 13891,15159 13891,14063 Z"/>
             <path fill="rgb(111,111,111)" stroke="none" d="M 13891,14063 L 15489,14063 15489,15159 13891,15159 13891,14063 Z M 13910,14076 L 15470,14076 15470,15146 13910,15146 13910,14076 Z"/>
             <path fill="rgb(112,112,112)" stroke="none" d="M 13910,14076 L 15470,14076 15470,15146 13910,15146 13910,14076 Z M 13929,14089 L 15451,14089 15451,15133 13929,15133 13929,14089 Z"/>
             <path fill="rgb(113,113,113)" stroke="none" d="M 13929,14089 L 15451,14089 15451,15133 13929,15133 13929,14089 Z M 13948,14102 L 15432,14102 15432,15120 13948,15120 13948,14102 Z"/>
             <path fill="rgb(114,114,114)" stroke="none" d="M 13948,14102 L 15432,14102 15432,15120 13948,15120 13948,14102 Z M 13967,14115 L 15413,14115 15413,15107 13967,15107 13967,14115 Z"/>
             <path fill="rgb(115,115,115)" stroke="none" d="M 13967,14115 L 15413,14115 15413,15107 13967,15107 13967,14115 Z M 13986,14128 L 15394,14128 15394,15094 13986,15094 13986,14128 Z"/>
             <path fill="rgb(116,116,116)" stroke="none" d="M 13986,14128 L 15394,14128 15394,15094 13986,15094 13986,14128 Z M 14005,14142 L 15375,14142 15375,15080 14005,15080 14005,14142 Z"/>
             <path fill="rgb(117,117,117)" stroke="none" d="M 14005,14142 L 15375,14142 15375,15080 14005,15080 14005,14142 Z M 14024,14155 L 15356,14155 15356,15067 14024,15067 14024,14155 Z"/>
             <path fill="rgb(118,118,118)" stroke="none" d="M 14024,14155 L 15356,14155 15356,15067 14024,15067 14024,14155 Z M 14043,14168 L 15337,14168 15337,15054 14043,15054 14043,14168 Z"/>
             <path fill="rgb(119,119,119)" stroke="none" d="M 14043,14168 L 15337,14168 15337,15054 14043,15054 14043,14168 Z M 14062,14181 L 15318,14181 15318,15041 14062,15041 14062,14181 Z"/>
             <path fill="rgb(120,120,120)" stroke="none" d="M 14062,14181 L 15318,14181 15318,15041 14062,15041 14062,14181 Z M 14081,14193 L 15299,14193 15299,15028 14081,15028 14081,14193 Z"/>
             <path fill="rgb(121,121,121)" stroke="none" d="M 14081,14193 L 15299,14193 15299,15028 14081,15028 14081,14193 Z M 14099,14206 L 15280,14206 15280,15015 14099,15015 14099,14206 Z"/>
             <path fill="rgb(122,122,122)" stroke="none" d="M 14099,14206 L 15280,14206 15280,15015 14099,15015 14099,14206 Z M 14119,14219 L 15260,14219 15260,15002 14119,15002 14119,14219 Z"/>
             <path fill="rgb(123,123,123)" stroke="none" d="M 14119,14219 L 15260,14219 15260,15002 14119,15002 14119,14219 Z M 14138,14232 L 15241,14232 15241,14989 14138,14989 14138,14232 Z"/>
             <path fill="rgb(124,124,124)" stroke="none" d="M 14138,14232 L 15241,14232 15241,14989 14138,14989 14138,14232 Z M 14157,14245 L 15222,14245 15222,14976 14157,14976 14157,14245 Z"/>
             <path fill="rgb(125,125,125)" stroke="none" d="M 14157,14245 L 15222,14245 15222,14976 14157,14976 14157,14245 Z M 14176,14258 L 15203,14258 15203,14963 14176,14963 14176,14258 Z"/>
             <path fill="rgb(126,126,126)" stroke="none" d="M 14176,14258 L 15203,14258 15203,14963 14176,14963 14176,14258 Z M 14195,14271 L 15184,14271 15184,14950 14195,14950 14195,14271 Z"/>
             <path fill="rgb(127,127,127)" stroke="none" d="M 14195,14271 L 15184,14271 15184,14950 14195,14950 14195,14271 Z M 14214,14284 L 15165,14284 15165,14937 14214,14937 14214,14284 Z"/>
             <path fill="rgb(128,128,128)" stroke="none" d="M 14214,14284 L 15165,14284 15165,14937 14214,14937 14214,14284 Z M 14233,14297 L 15146,14297 15146,14924 14233,14924 14233,14297 Z"/>
             <path fill="rgb(129,129,129)" stroke="none" d="M 14233,14297 L 15146,14297 15146,14924 14233,14924 14233,14297 Z M 14252,14310 L 15127,14310 15127,14911 14252,14911 14252,14310 Z"/>
             <path fill="rgb(130,130,130)" stroke="none" d="M 14252,14310 L 15127,14310 15127,14911 14252,14911 14252,14310 Z M 14271,14323 L 15108,14323 15108,14898 14271,14898 14271,14323 Z"/>
             <path fill="rgb(131,131,131)" stroke="none" d="M 14271,14323 L 15108,14323 15108,14898 14271,14898 14271,14323 Z M 14290,14337 L 15089,14337 15089,14884 14290,14884 14290,14337 Z"/>
             <path fill="rgb(132,132,132)" stroke="none" d="M 14290,14337 L 15089,14337 15089,14884 14290,14884 14290,14337 Z M 14309,14350 L 15070,14350 15070,14871 14309,14871 14309,14350 Z"/>
             <path fill="rgb(133,133,133)" stroke="none" d="M 14309,14350 L 15070,14350 15070,14871 14309,14871 14309,14350 Z M 14328,14363 L 15051,14363 15051,14858 14328,14858 14328,14363 Z"/>
             <path fill="rgb(134,134,134)" stroke="none" d="M 14328,14363 L 15051,14363 15051,14858 14328,14858 14328,14363 Z M 14347,14376 L 15032,14376 15032,14845 14347,14845 14347,14376 Z"/>
             <path fill="rgb(135,135,135)" stroke="none" d="M 14347,14376 L 15032,14376 15032,14845 14347,14845 14347,14376 Z M 14366,14389 L 15013,14389 15013,14832 14366,14832 14366,14389 Z"/>
             <path fill="rgb(136,136,136)" stroke="none" d="M 14366,14389 L 15013,14389 15013,14832 14366,14832 14366,14389 Z M 14385,14402 L 14994,14402 14994,14819 14385,14819 14385,14402 Z"/>
             <path fill="rgb(137,137,137)" stroke="none" d="M 14385,14402 L 14994,14402 14994,14819 14385,14819 14385,14402 Z M 14404,14415 L 14975,14415 14975,14806 14404,14806 14404,14415 Z"/>
             <path fill="rgb(138,138,138)" stroke="none" d="M 14404,14415 L 14975,14415 14975,14806 14404,14806 14404,14415 Z M 14423,14428 L 14956,14428 14956,14793 14423,14793 14423,14428 Z"/>
             <path fill="rgb(139,139,139)" stroke="none" d="M 14423,14428 L 14956,14428 14956,14793 14423,14793 14423,14428 Z M 14442,14441 L 14937,14441 14937,14780 14442,14780 14442,14441 Z"/>
             <path fill="rgb(140,140,140)" stroke="none" d="M 14442,14441 L 14937,14441 14937,14780 14442,14780 14442,14441 Z M 14461,14454 L 14918,14454 14918,14767 14461,14767 14461,14454 Z"/>
             <path fill="rgb(141,141,141)" stroke="none" d="M 14461,14454 L 14918,14454 14918,14767 14461,14767 14461,14454 Z M 14480,14467 L 14899,14467 14899,14754 14480,14754 14480,14467 Z"/>
             <path fill="rgb(142,142,142)" stroke="none" d="M 14480,14467 L 14899,14467 14899,14754 14480,14754 14480,14467 Z M 14500,14480 L 14879,14480 14879,14741 14500,14741 14500,14480 Z"/>
             <path fill="rgb(143,143,143)" stroke="none" d="M 14500,14480 L 14879,14480 14879,14741 14500,14741 14500,14480 Z M 14519,14493 L 14860,14493 14860,14728 14519,14728 14519,14493 Z"/>
             <path fill="rgb(144,144,144)" stroke="none" d="M 14519,14493 L 14860,14493 14860,14728 14519,14728 14519,14493 Z M 14538,14506 L 14841,14506 14841,14715 14538,14715 14538,14506 Z"/>
             <path fill="rgb(145,145,145)" stroke="none" d="M 14538,14506 L 14841,14506 14841,14715 14538,14715 14538,14506 Z M 14557,14520 L 14822,14520 14822,14701 14557,14701 14557,14520 Z"/>
             <path fill="rgb(146,146,146)" stroke="none" d="M 14557,14520 L 14822,14520 14822,14701 14557,14701 14557,14520 Z M 14576,14533 L 14803,14533 14803,14688 14576,14688 14576,14533 Z"/>
             <path fill="rgb(147,147,147)" stroke="none" d="M 14576,14533 L 14803,14533 14803,14688 14576,14688 14576,14533 Z M 14595,14546 L 14784,14546 14784,14675 14595,14675 14595,14546 Z"/>
             <path fill="rgb(148,148,148)" stroke="none" d="M 14595,14546 L 14784,14546 14784,14675 14595,14675 14595,14546 Z M 14614,14559 L 14765,14559 14765,14662 14614,14662 14614,14559 Z"/>
             <path fill="rgb(149,149,149)" stroke="none" d="M 14614,14559 L 14765,14559 14765,14662 14614,14662 14614,14559 Z M 14633,14572 L 14746,14572 14746,14649 14633,14649 14633,14572 Z"/>
             <path fill="rgb(150,150,150)" stroke="none" d="M 14633,14572 L 14746,14572 14746,14649 14633,14649 14633,14572 Z M 14652,14585 L 14727,14585 14727,14636 14652,14636 14652,14585 Z"/>
             <path fill="rgb(151,151,151)" stroke="none" d="M 14652,14585 L 14727,14585 14727,14636 14652,14636 14652,14585 Z M 14671,14598 L 14708,14598 14708,14623 14671,14623 14671,14598 Z"/>
             <path fill="rgb(153,153,153)" stroke="none" d="M 14671,14598 L 14708,14598 14708,14623 14671,14623 14671,14598 Z"/>
            </g>
           </pattern>
          </defs>
          <path style="fill:url(#pattern1)" d="M 16049,14423 L 16049,14213 14109,15333 14109,15543 16049,14423 Z"/>
         </g>
         <path fill="none" stroke="rgb(178,178,178)" stroke-width="40" stroke-linejoin="round" d="M 16049,14423 L 16049,14213 14109,15333 14109,15543 16049,14423 Z"/>
        </g>
       </g>
       <g class="com.sun.star.drawing.PolyPolygonShape">
        <g id="id5">
         <rect class="BoundingBox" stroke="none" fill="none" x="11179" y="12513" width="4891" height="2841"/>
         <g>
          <defs>
           <linearGradient id="gradient1" x1="13624" y1="12533" x2="13624" y2="15333" gradientUnits="userSpaceOnUse">
            <stop offset="0.1" style="stop-color:rgb(51,51,51)"/>
            <stop offset="1" style="stop-color:rgb(153,153,153)"/>
           </linearGradient>
          </defs>
          <path style="fill:url(#gradient1)" d="M 14109,15333 L 16049,14213 13139,12533 11199,13653 14109,15333 Z"/>
         </g>
         <path fill="none" stroke="rgb(178,178,178)" stroke-width="40" stroke-linejoin="round" d="M 14109,15333 L 16049,14213 13139,12533 11199,13653 14109,15333 Z"/>
        </g>
       </g>
       <g class="com.sun.star.drawing.PolyPolygonShape">
        <g id="id6">
         <rect class="BoundingBox" stroke="none" fill="none" x="11179" y="13633" width="2952" height="1932"/>
         <g>
          <defs>
           <linearGradient id="gradient2" x1="11199" y1="14598" x2="14109" y2="14598" gradientUnits="userSpaceOnUse">
            <stop offset="0.1" style="stop-color:rgb(102,102,102)"/>
            <stop offset="1" style="stop-color:rgb(153,153,153)"/>
           </linearGradient>
          </defs>
          <path style="fill:url(#gradient2)" d="M 14109,15543 L 14109,15333 11199,13653 11199,13863 14109,15543 Z"/>
         </g>
         <path fill="none" stroke="rgb(178,178,178)" stroke-width="40" stroke-linejoin="round" d="M 14109,15543 L 14109,15333 11199,13653 11199,13863 14109,15543 Z"/>
        </g>
       </g>
       <g class="com.sun.star.drawing.PolyPolygonShape">
        <g id="id7">
         <rect class="BoundingBox" stroke="none" fill="none" x="11543" y="12723" width="4164" height="2422"/>
         <g>
          <defs>
           <linearGradient id="gradient3" x1="13624" y1="12743" x2="13624" y2="15123" gradientUnits="userSpaceOnUse">
            <stop offset="0.1" style="stop-color:rgb(147,212,240)"/>
            <stop offset="1" style="stop-color:rgb(233,246,252)"/>
           </linearGradient>
          </defs>
          <path style="fill:url(#gradient3)" d="M 13988,15123 L 15686,14143 13261,12743 11563,13723 13988,15123 Z"/>
         </g>
         <path fill="none" stroke="rgb(51,51,51)" stroke-width="40" stroke-linejoin="round" d="M 13988,15123 L 15686,14143 13261,12743 11563,13723 13988,15123 Z"/>
        </g>
       </g>
       <g class="com.sun.star.drawing.PolyPolygonShape">
        <g id="id8">
         <rect class="BoundingBox" stroke="none" fill="none" x="11301" y="9433" width="1859" height="4241"/>
         <g>
          <defs>
           <pattern id="pattern2" x="11321" y="9453" width="1819" height="4201" patternUnits="userSpaceOnUse">
            <g transform="translate(-11321,-9453)">
             <path fill="rgb(102,102,102)" stroke="none" d="M 11320,9452 L 13140,9452 13140,13654 11320,13654 11320,9452 Z M 10974,8653 L 12758,8653 12758,12771 10974,12771 10974,8653 Z"/>
             <path fill="rgb(103,103,103)" stroke="none" d="M 10974,8653 L 12758,8653 12758,12771 10974,12771 10974,8653 Z M 10992,8694 L 12740,8694 12740,12730 10992,12730 10992,8694 Z"/>
             <path fill="rgb(104,104,104)" stroke="none" d="M 10992,8694 L 12740,8694 12740,12730 10992,12730 10992,8694 Z M 11010,8735 L 12722,8735 12722,12689 11010,12689 11010,8735 Z"/>
             <path fill="rgb(105,105,105)" stroke="none" d="M 11010,8735 L 12722,8735 12722,12689 11010,12689 11010,8735 Z M 11028,8776 L 12704,8776 12704,12648 11028,12648 11028,8776 Z"/>
             <path fill="rgb(106,106,106)" stroke="none" d="M 11028,8776 L 12704,8776 12704,12648 11028,12648 11028,8776 Z M 11046,8818 L 12686,8818 12686,12606 11046,12606 11046,8818 Z"/>
             <path fill="rgb(107,107,107)" stroke="none" d="M 11046,8818 L 12686,8818 12686,12606 11046,12606 11046,8818 Z M 11064,8859 L 12668,8859 12668,12565 11064,12565 11064,8859 Z"/>
             <path fill="rgb(108,108,108)" stroke="none" d="M 11064,8859 L 12668,8859 12668,12565 11064,12565 11064,8859 Z M 11081,8900 L 12651,8900 12651,12524 11081,12524 11081,8900 Z"/>
             <path fill="rgb(109,109,109)" stroke="none" d="M 11081,8900 L 12651,8900 12651,12524 11081,12524 11081,8900 Z M 11099,8941 L 12633,8941 12633,12483 11099,12483 11099,8941 Z"/>
             <path fill="rgb(110,110,110)" stroke="none" d="M 11099,8941 L 12633,8941 12633,12483 11099,12483 11099,8941 Z M 11117,8982 L 12615,8982 12615,12442 11117,12442 11117,8982 Z"/>
             <path fill="rgb(111,111,111)" stroke="none" d="M 11117,8982 L 12615,8982 12615,12442 11117,12442 11117,8982 Z M 11135,9024 L 12597,9024 12597,12400 11135,12400 11135,9024 Z"/>
             <path fill="rgb(112,112,112)" stroke="none" d="M 11135,9024 L 12597,9024 12597,12400 11135,12400 11135,9024 Z M 11153,9065 L 12579,9065 12579,12359 11153,12359 11153,9065 Z"/>
             <path fill="rgb(113,113,113)" stroke="none" d="M 11153,9065 L 12579,9065 12579,12359 11153,12359 11153,9065 Z M 11171,9106 L 12561,9106 12561,12318 11171,12318 11171,9106 Z"/>
             <path fill="rgb(114,114,114)" stroke="none" d="M 11171,9106 L 12561,9106 12561,12318 11171,12318 11171,9106 Z M 11189,9147 L 12543,9147 12543,12277 11189,12277 11189,9147 Z"/>
             <path fill="rgb(115,115,115)" stroke="none" d="M 11189,9147 L 12543,9147 12543,12277 11189,12277 11189,9147 Z M 11206,9188 L 12526,9188 12526,12236 11206,12236 11206,9188 Z"/>
             <path fill="rgb(116,116,116)" stroke="none" d="M 11206,9188 L 12526,9188 12526,12236 11206,12236 11206,9188 Z M 11224,9230 L 12508,9230 12508,12194 11224,12194 11224,9230 Z"/>
             <path fill="rgb(117,117,117)" stroke="none" d="M 11224,9230 L 12508,9230 12508,12194 11224,12194 11224,9230 Z M 11242,9271 L 12490,9271 12490,12153 11242,12153 11242,9271 Z"/>
             <path fill="rgb(118,118,118)" stroke="none" d="M 11242,9271 L 12490,9271 12490,12153 11242,12153 11242,9271 Z M 11260,9312 L 12472,9312 12472,12112 11260,12112 11260,9312 Z"/>
             <path fill="rgb(119,119,119)" stroke="none" d="M 11260,9312 L 12472,9312 12472,12112 11260,12112 11260,9312 Z M 11278,9353 L 12454,9353 12454,12071 11278,12071 11278,9353 Z"/>
             <path fill="rgb(120,120,120)" stroke="none" d="M 11278,9353 L 12454,9353 12454,12071 11278,12071 11278,9353 Z M 11296,9394 L 12436,9394 12436,12030 11296,12030 11296,9394 Z"/>
             <path fill="rgb(121,121,121)" stroke="none" d="M 11296,9394 L 12436,9394 12436,12030 11296,12030 11296,9394 Z M 11313,9435 L 12418,9435 12418,11988 11313,11988 11313,9435 Z"/>
             <path fill="rgb(122,122,122)" stroke="none" d="M 11313,9435 L 12418,9435 12418,11988 11313,11988 11313,9435 Z M 11330,9476 L 12401,9476 12401,11947 11330,11947 11330,9476 Z"/>
             <path fill="rgb(123,123,123)" stroke="none" d="M 11330,9476 L 12401,9476 12401,11947 11330,11947 11330,9476 Z M 11348,9517 L 12383,9517 12383,11906 11348,11906 11348,9517 Z"/>
             <path fill="rgb(124,124,124)" stroke="none" d="M 11348,9517 L 12383,9517 12383,11906 11348,11906 11348,9517 Z M 11366,9558 L 12365,9558 12365,11865 11366,11865 11366,9558 Z"/>
             <path fill="rgb(125,125,125)" stroke="none" d="M 11366,9558 L 12365,9558 12365,11865 11366,11865 11366,9558 Z M 11384,9599 L 12347,9599 12347,11824 11384,11824 11384,9599 Z"/>
             <path fill="rgb(126,126,126)" stroke="none" d="M 11384,9599 L 12347,9599 12347,11824 11384,11824 11384,9599 Z M 11402,9641 L 12329,9641 12329,11782 11402,11782 11402,9641 Z"/>
             <path fill="rgb(127,127,127)" stroke="none" d="M 11402,9641 L 12329,9641 12329,11782 11402,11782 11402,9641 Z M 11420,9682 L 12311,9682 12311,11741 11420,11741 11420,9682 Z"/>
             <path fill="rgb(128,128,128)" stroke="none" d="M 11420,9682 L 12311,9682 12311,11741 11420,11741 11420,9682 Z M 11438,9723 L 12293,9723 12293,11700 11438,11700 11438,9723 Z"/>
             <path fill="rgb(129,129,129)" stroke="none" d="M 11438,9723 L 12293,9723 12293,11700 11438,11700 11438,9723 Z M 11455,9764 L 12276,9764 12276,11659 11455,11659 11455,9764 Z"/>
             <path fill="rgb(130,130,130)" stroke="none" d="M 11455,9764 L 12276,9764 12276,11659 11455,11659 11455,9764 Z M 11473,9805 L 12258,9805 12258,11618 11473,11618 11473,9805 Z"/>
             <path fill="rgb(131,131,131)" stroke="none" d="M 11473,9805 L 12258,9805 12258,11618 11473,11618 11473,9805 Z M 11491,9847 L 12240,9847 12240,11576 11491,11576 11491,9847 Z"/>
             <path fill="rgb(132,132,132)" stroke="none" d="M 11491,9847 L 12240,9847 12240,11576 11491,11576 11491,9847 Z M 11509,9888 L 12222,9888 12222,11535 11509,11535 11509,9888 Z"/>
             <path fill="rgb(133,133,133)" stroke="none" d="M 11509,9888 L 12222,9888 12222,11535 11509,11535 11509,9888 Z M 11527,9929 L 12204,9929 12204,11494 11527,11494 11527,9929 Z"/>
             <path fill="rgb(134,134,134)" stroke="none" d="M 11527,9929 L 12204,9929 12204,11494 11527,11494 11527,9929 Z M 11545,9970 L 12186,9970 12186,11453 11545,11453 11545,9970 Z"/>
             <path fill="rgb(135,135,135)" stroke="none" d="M 11545,9970 L 12186,9970 12186,11453 11545,11453 11545,9970 Z M 11562,10012 L 12169,10012 12169,11412 11562,11412 11562,10012 Z"/>
             <path fill="rgb(136,136,136)" stroke="none" d="M 11562,10012 L 12169,10012 12169,11412 11562,11412 11562,10012 Z M 11580,10053 L 12151,10053 12151,11370 11580,11370 11580,10053 Z"/>
             <path fill="rgb(137,137,137)" stroke="none" d="M 11580,10053 L 12151,10053 12151,11370 11580,11370 11580,10053 Z M 11598,10094 L 12133,10094 12133,11329 11598,11329 11598,10094 Z"/>
             <path fill="rgb(138,138,138)" stroke="none" d="M 11598,10094 L 12133,10094 12133,11329 11598,11329 11598,10094 Z M 11616,10135 L 12115,10135 12115,11288 11616,11288 11616,10135 Z"/>
             <path fill="rgb(139,139,139)" stroke="none" d="M 11616,10135 L 12115,10135 12115,11288 11616,11288 11616,10135 Z M 11634,10176 L 12097,10176 12097,11247 11634,11247 11634,10176 Z"/>
             <path fill="rgb(140,140,140)" stroke="none" d="M 11634,10176 L 12097,10176 12097,11247 11634,11247 11634,10176 Z M 11652,10218 L 12079,10218 12079,11205 11652,11205 11652,10218 Z"/>
             <path fill="rgb(141,141,141)" stroke="none" d="M 11652,10218 L 12079,10218 12079,11205 11652,11205 11652,10218 Z M 11670,10259 L 12061,10259 12061,11164 11670,11164 11670,10259 Z"/>
             <path fill="rgb(142,142,142)" stroke="none" d="M 11670,10259 L 12061,10259 12061,11164 11670,11164 11670,10259 Z M 11687,10300 L 12044,10300 12044,11123 11687,11123 11687,10300 Z"/>
             <path fill="rgb(143,143,143)" stroke="none" d="M 11687,10300 L 12044,10300 12044,11123 11687,11123 11687,10300 Z M 11705,10341 L 12026,10341 12026,11082 11705,11082 11705,10341 Z"/>
             <path fill="rgb(144,144,144)" stroke="none" d="M 11705,10341 L 12026,10341 12026,11082 11705,11082 11705,10341 Z M 11723,10382 L 12008,10382 12008,11041 11723,11041 11723,10382 Z"/>
             <path fill="rgb(145,145,145)" stroke="none" d="M 11723,10382 L 12008,10382 12008,11041 11723,11041 11723,10382 Z M 11741,10424 L 11990,10424 11990,10999 11741,10999 11741,10424 Z"/>
             <path fill="rgb(146,146,146)" stroke="none" d="M 11741,10424 L 11990,10424 11990,10999 11741,10999 11741,10424 Z M 11759,10465 L 11972,10465 11972,10958 11759,10958 11759,10465 Z"/>
             <path fill="rgb(147,147,147)" stroke="none" d="M 11759,10465 L 11972,10465 11972,10958 11759,10958 11759,10465 Z M 11777,10506 L 11954,10506 11954,10917 11777,10917 11777,10506 Z"/>
             <path fill="rgb(148,148,148)" stroke="none" d="M 11777,10506 L 11954,10506 11954,10917 11777,10917 11777,10506 Z M 11795,10547 L 11936,10547 11936,10876 11795,10876 11795,10547 Z"/>
             <path fill="rgb(149,149,149)" stroke="none" d="M 11795,10547 L 11936,10547 11936,10876 11795,10876 11795,10547 Z M 11812,10588 L 11919,10588 11919,10835 11812,10835 11812,10588 Z"/>
             <path fill="rgb(150,150,150)" stroke="none" d="M 11812,10588 L 11919,10588 11919,10835 11812,10835 11812,10588 Z M 11830,10630 L 11901,10630 11901,10793 11830,10793 11830,10630 Z"/>
             <path fill="rgb(151,151,151)" stroke="none" d="M 11830,10630 L 11901,10630 11901,10793 11830,10793 11830,10630 Z M 11848,10671 L 11883,10671 11883,10752 11848,10752 11848,10671 Z"/>
             <path fill="rgb(153,153,153)" stroke="none" d="M 11848,10671 L 11883,10671 11883,10752 11848,10752 11848,10671 Z"/>
            </g>
           </pattern>
          </defs>
          <path style="fill:url(#pattern2)" d="M 13139,12603 L 13139,9453 11321,10503 11321,13653 13139,12603 Z"/>
         </g>
         <path fill="none" stroke="rgb(178,178,178)" stroke-width="40" stroke-linejoin="round" d="M 13139,12603 L 13139,9453 11321,10503 11321,13653 13139,12603 Z"/>
        </g>
       </g>
       <g class="com.sun.star.drawing.PolyPolygonShape">
        <g id="id9">
         <rect class="BoundingBox" stroke="none" fill="none" x="11421" y="9713" width="1618" height="3681"/>
         <path fill="rgb(238,238,238)" stroke="none" d="M 13018,12463 L 13018,9733 11442,10643 11442,13373 13018,12463 Z"/>
         <path fill="none" stroke="rgb(51,51,51)" stroke-width="40" stroke-linejoin="round" d="M 13018,12463 L 13018,9733 11442,10643 11442,13373 13018,12463 Z"/>
        </g>
       </g>
       <g class="com.sun.star.drawing.ClosedBezierShape">
        <g id="id10">
         <rect class="BoundingBox" stroke="none" fill="none" x="11907" y="12723" width="3315" height="1740"/>
         <path fill="rgb(255,255,255)" stroke="none" d="M 13867,14353 C 14231,14423 15201,13863 15201,13863 15201,13863 13769,13044 13261,12743 12816,13000 12372,13256 11927,13513 12476,13816 12897,14073 13382,14353 13544,14446 13746,14493 13867,14353 Z"/>
         <path fill="none" stroke="rgb(51,51,51)" stroke-width="40" stroke-linejoin="round" d="M 13867,14353 C 14231,14423 15201,13863 15201,13863 15201,13863 13769,13044 13261,12743 12816,13000 12372,13256 11927,13513 12476,13816 12897,14073 13382,14353 13544,14446 13746,14493 13867,14353 Z"/>
        </g>
       </g>
       <g class="com.sun.star.drawing.PolyPolygonShape">
        <g id="id11">
         <rect class="BoundingBox" stroke="none" fill="none" x="11179" y="9433" width="4891" height="6131"/>
         <path fill="none" stroke="rgb(0,0,0)" stroke-width="40" stroke-linejoin="round" d="M 11321,13583 L 11199,13653 11199,13863 14109,15543 16049,14423 16049,14213 13139,12533 13139,9453 11321,10503 11321,13583 Z"/>
        </g>
       </g>
      </g>
     </g>
    </g>
   </g>
  </g>
 </g>
</svg>