<?xml version="1.0" encoding="UTF-8"?>
<!DOCTYPE svg PUBLIC "-//W3C//DTD SVG 1.1//EN" "http://www.w3.org/Graphics/SVG/1.1/DTD/svg11.dtd">
<svg version="1.2" width="61mm" height="50.4mm" viewBox="9866 36471 6100 5040" preserveAspectRatio="xMidYMid" fill-rule="evenodd" stroke-width="28.222" stroke-linejoin="round" xmlns="http://www.w3.org/2000/svg" xmlns:ooo="http://xml.openoffice.org/svg/export" xmlns:xlink="http://www.w3.org/1999/xlink" xmlns:presentation="http://sun.com/xmlns/staroffice/presentation" xmlns:smil="http://www.w3.org/2001/SMIL20/" xmlns:anim="urn:oasis:names:tc:opendocument:xmlns:animation:1.0" xml:space="preserve">
 <defs class="ClipPathGroup">
  <clipPath id="presentation_clip_path" clipPathUnits="userSpaceOnUse">
   <rect x="9866" y="36471" width="6100" height="5040"/>
  </clipPath>
 </defs>
 <defs class="TextShapeIndex">
  <g ooo:slide="id1" ooo:id-list="id3 id4 id5 id6 id7 id8 id9 id10 id11 id12 id13 id14"/>
 </defs>
 <defs class="EmbeddedBulletChars">
  <g id="bullet-char-template(57356)" transform="scale(0.00048828125,-0.00048828125)">
   <path d="M 580,1141 L 1163,571 580,0 -4,571 580,1141 Z"/>
  </g>
  <g id="bullet-char-template(57354)" transform="scale(0.00048828125,-0.00048828125)">
   <path d="M 8,1128 L 1137,1128 1137,0 8,0 8,1128 Z"/>
  </g>
  <g id="bullet-char-template(10146)" transform="scale(0.00048828125,-0.00048828125)">
   <path d="M 174,0 L 602,739 174,1481 1456,739 174,0 Z M 1358,739 L 309,1346 659,739 1358,739 Z"/>
  </g>
  <g id="bullet-char-template(10132)" transform="scale(0.00048828125,-0.00048828125)">
   <path d="M 2015,739 L 1276,0 717,0 1260,543 174,543 174,936 1260,936 717,1481 1274,1481 2015,739 Z"/>
  </g>
  <g id="bullet-char-template(10007)" transform="scale(0.00048828125,-0.00048828125)">
   <path d="M 0,-2 C -7,14 -16,27 -25,37 L 356,567 C 262,823 215,952 215,954 215,979 228,992 255,992 264,992 276,990 289,987 310,991 331,999 354,1012 L 381,999 492,748 772,1049 836,1024 860,1049 C 881,1039 901,1025 922,1006 886,937 835,863 770,784 769,783 710,716 594,584 L 774,223 C 774,196 753,168 711,139 L 727,119 C 717,90 699,76 672,76 641,76 570,178 457,381 L 164,-76 C 142,-110 111,-127 72,-127 30,-127 9,-110 8,-76 1,-67 -2,-52 -2,-32 -2,-23 -1,-13 0,-2 Z"/>
  </g>
  <g id="bullet-char-template(10004)" transform="scale(0.00048828125,-0.00048828125)">
   <path d="M 285,-33 C 182,-33 111,30 74,156 52,228 41,333 41,471 41,549 55,616 82,672 116,743 169,778 240,778 293,778 328,747 346,684 L 369,508 C 377,444 397,411 428,410 L 1163,1116 C 1174,1127 1196,1133 1229,1133 1271,1133 1292,1118 1292,1087 L 1292,965 C 1292,929 1282,901 1262,881 L 442,47 C 390,-6 338,-33 285,-33 Z"/>
  </g>
  <g id="bullet-char-template(9679)" transform="scale(0.00048828125,-0.00048828125)">
   <path d="M 813,0 C 632,0 489,54 383,161 276,268 223,411 223,592 223,773 276,916 383,1023 489,1130 632,1184 813,1184 992,1184 1136,1130 1245,1023 1353,916 1407,772 1407,592 1407,412 1353,268 1245,161 1136,54 992,0 813,0 Z"/>
  </g>
  <g id="bullet-char-template(8226)" transform="scale(0.00048828125,-0.00048828125)">
   <path d="M 346,457 C 273,457 209,483 155,535 101,586 74,649 74,723 74,796 101,859 155,911 209,963 273,989 346,989 419,989 480,963 531,910 582,859 608,796 608,723 608,648 583,586 532,535 482,483 420,457 346,457 Z"/>
  </g>
  <g id="bullet-char-template(8211)" transform="scale(0.00048828125,-0.00048828125)">
   <path d="M -4,459 L 1135,459 1135,606 -4,606 -4,459 Z"/>
  </g>
 </defs>
 <defs class="TextEmbeddedBitmaps"/>
 <g class="SlideGroup">
  <g>
   <g id="id1" class="Slide" clip-path="url(#presentation_clip_path)">
    <g class="Page">
     <g class="Group">
      <g class="com.sun.star.drawing.ClosedBezierShape">
       <g id="id3">
        <rect class="BoundingBox" stroke="none" fill="none" x="15002" y="40680" width="966" height="705"/>
        <path fill="rgb(221,221,221)" stroke="none" d="M 15022,41341 C 15344,41341 15497,41432 15814,41249 16132,41066 15818,40700 15497,40700 15497,40904 15022,41341 15022,41341 Z"/>
        <path fill="none" stroke="rgb(221,221,221)" stroke-width="40" stroke-linejoin="round" d="M 15022,41341 C 15344,41341 15497,41432 15814,41249 16132,41066 15818,40700 15497,40700 15497,40904 15022,41341 15022,41341 Z"/>
       </g>
      </g>
      <g class="Group">
       <g class="com.sun.star.drawing.ClosedBezierShape">
        <g id="id4">
         <rect class="BoundingBox" stroke="none" fill="none" x="12367" y="39011" width="3290" height="2394"/>
         <g>
          <defs>
           <linearGradient id="gradient1" x1="14011" y1="41381" x2="14011" y2="39030" gradientUnits="userSpaceOnUse">
            <stop offset="0.1" style="stop-color:rgb(147,212,240)"/>
            <stop offset="1" style="stop-color:rgb(233,246,252)"/>
           </linearGradient>
          </defs>
          <path style="fill:url(#gradient1)" d="M 14004,39031 L 13757,39041 13537,39071 13340,39119 13167,39184 13015,39264 12883,39357 12771,39463 12676,39580 12597,39706 12533,39840 12483,39981 12445,40126 12417,40275 12400,40427 12387,40730 12434,40780 12489,40829 12620,40924 12776,41015 12954,41098 13152,41174 13365,41240 13590,41296 13824,41339 14065,41368 14307,41382 14549,41380 14786,41359 15017,41319 15236,41258 15442,41174 15630,41066 15635,40915 15632,40755 15618,40589 15593,40419 15555,40248 15504,40079 15438,39914 15357,39756 15259,39607 15143,39469 15007,39346 14852,39239 14675,39152 14475,39086 14252,39045 14004,39031 Z"/>
         </g>
         <path fill="none" stroke="rgb(255,255,255)" stroke-width="40" stroke-linejoin="round" d="M 14004,39031 C 12618,39031 12387,39928 12387,40730 12848,41265 14678,41707 15630,41066 15680,40286 15394,39031 14004,39031 Z"/>
        </g>
       </g>
       <g class="com.sun.star.drawing.ClosedBezierShape">
        <g id="id5">
         <rect class="BoundingBox" stroke="none" fill="none" x="13292" y="39413" width="734" height="1780"/>
         <path fill="rgb(255,255,255)" stroke="none" d="M 14005,39566 C 13851,39476 13465,39523 13312,39433 13312,39968 13312,41172 13312,41172 13312,40565 13851,40011 14005,39566 Z"/>
         <path fill="none" stroke="rgb(255,255,255)" stroke-width="40" stroke-linejoin="round" d="M 14005,39566 C 13851,39476 13465,39523 13312,39433 13312,39968 13312,41172 13312,41172 13312,40565 13851,40011 14005,39566 Z"/>
        </g>
       </g>
       <g class="com.sun.star.drawing.ClosedBezierShape">
        <g id="id6">
         <rect class="BoundingBox" stroke="none" fill="none" x="13229" y="38210" width="1093" height="1490"/>
         <path fill="rgb(249,180,96)" stroke="none" d="M 13837,38230 C 13445,38230 13319,38718 13319,38986 13319,39252 13080,39567 13485,39652 13892,39737 14300,39637 14300,39031 14300,38425 14230,38230 13837,38230 Z"/>
         <path fill="none" stroke="rgb(255,255,255)" stroke-width="40" stroke-linejoin="round" d="M 13837,38230 C 13445,38230 13319,38718 13319,38986 13319,39252 13080,39567 13485,39652 13892,39737 14300,39637 14300,39031 14300,38425 14230,38230 13837,38230 Z"/>
        </g>
       </g>
       <g class="com.sun.star.drawing.ClosedBezierShape">
        <g id="id7">
         <rect class="BoundingBox" stroke="none" fill="none" x="12597" y="37008" width="1661" height="2181"/>
         <g>
          <defs>
           <pattern id="pattern1" x="12617" y="37028" width="1621" height="2140" patternUnits="userSpaceOnUse">
            <g transform="translate(-12617,-37028)">
             <path fill="rgb(251,201,142)" stroke="none" d="M 12616,37027 L 14238,37027 14238,39168 12616,39168 12616,37027 Z M 12301,36610 L 13903,36610 13903,38727 12301,38727 12301,36610 Z"/>
             <path fill="rgb(251,201,143)" stroke="none" d="M 12301,36610 L 13903,36610 13903,38727 12301,38727 12301,36610 Z M 12310,36622 L 13894,36622 13894,38715 12310,38715 12310,36622 Z"/>
             <path fill="rgb(251,201,144)" stroke="none" d="M 12310,36622 L 13894,36622 13894,38715 12310,38715 12310,36622 Z M 12319,36634 L 13885,36634 13885,38703 12319,38703 12319,36634 Z"/>
             <path fill="rgb(251,202,145)" stroke="none" d="M 12319,36634 L 13885,36634 13885,38703 12319,38703 12319,36634 Z M 12328,36646 L 13876,36646 13876,38691 12328,38691 12328,36646 Z"/>
             <path fill="rgb(251,202,146)" stroke="none" d="M 12328,36646 L 13876,36646 13876,38691 12328,38691 12328,36646 Z M 12337,36658 L 13867,36658 13867,38679 12337,38679 12337,36658 Z"/>
             <path fill="rgb(251,203,147)" stroke="none" d="M 12337,36658 L 13867,36658 13867,38679 12337,38679 12337,36658 Z M 12346,36670 L 13858,36670 13858,38667 12346,38667 12346,36670 Z"/>
             <path fill="rgb(251,203,148)" stroke="none" d="M 12346,36670 L 13858,36670 13858,38667 12346,38667 12346,36670 Z M 12355,36682 L 13849,36682 13849,38655 12355,38655 12355,36682 Z"/>
             <path fill="rgb(251,204,149)" stroke="none" d="M 12355,36682 L 13849,36682 13849,38655 12355,38655 12355,36682 Z M 12364,36694 L 13840,36694 13840,38643 12364,38643 12364,36694 Z"/>
             <path fill="rgb(251,204,150)" stroke="none" d="M 12364,36694 L 13840,36694 13840,38643 12364,38643 12364,36694 Z M 12373,36706 L 13831,36706 13831,38631 12373,38631 12373,36706 Z"/>
             <path fill="rgb(251,205,151)" stroke="none" d="M 12373,36706 L 13831,36706 13831,38631 12373,38631 12373,36706 Z M 12382,36717 L 13822,36717 13822,38619 12382,38619 12382,36717 Z"/>
             <path fill="rgb(251,205,152)" stroke="none" d="M 12382,36717 L 13822,36717 13822,38619 12382,38619 12382,36717 Z M 12391,36729 L 13813,36729 13813,38608 12391,38608 12391,36729 Z"/>
             <path fill="rgb(251,206,153)" stroke="none" d="M 12391,36729 L 13813,36729 13813,38608 12391,38608 12391,36729 Z M 12400,36741 L 13804,36741 13804,38596 12400,38596 12400,36741 Z"/>
             <path fill="rgb(251,206,154)" stroke="none" d="M 12400,36741 L 13804,36741 13804,38596 12400,38596 12400,36741 Z M 12409,36753 L 13795,36753 13795,38584 12409,38584 12409,36753 Z"/>
             <path fill="rgb(251,207,155)" stroke="none" d="M 12409,36753 L 13795,36753 13795,38584 12409,38584 12409,36753 Z M 12418,36765 L 13786,36765 13786,38572 12418,38572 12418,36765 Z"/>
             <path fill="rgb(251,207,156)" stroke="none" d="M 12418,36765 L 13786,36765 13786,38572 12418,38572 12418,36765 Z M 12427,36777 L 13777,36777 13777,38560 12427,38560 12427,36777 Z"/>
             <path fill="rgb(251,208,157)" stroke="none" d="M 12427,36777 L 13777,36777 13777,38560 12427,38560 12427,36777 Z M 12436,36789 L 13768,36789 13768,38548 12436,38548 12436,36789 Z"/>
             <path fill="rgb(251,208,158)" stroke="none" d="M 12436,36789 L 13768,36789 13768,38548 12436,38548 12436,36789 Z M 12445,36801 L 13759,36801 13759,38536 12445,38536 12445,36801 Z"/>
             <path fill="rgb(251,209,159)" stroke="none" d="M 12445,36801 L 13759,36801 13759,38536 12445,38536 12445,36801 Z M 12454,36813 L 13750,36813 13750,38524 12454,38524 12454,36813 Z"/>
             <path fill="rgb(251,209,160)" stroke="none" d="M 12454,36813 L 13750,36813 13750,38524 12454,38524 12454,36813 Z M 12463,36825 L 13741,36825 13741,38512 12463,38512 12463,36825 Z"/>
             <path fill="rgb(251,210,161)" stroke="none" d="M 12463,36825 L 13741,36825 13741,38512 12463,38512 12463,36825 Z M 12472,36836 L 13732,36836 13732,38500 12472,38500 12472,36836 Z"/>
             <path fill="rgb(251,210,162)" stroke="none" d="M 12472,36836 L 13732,36836 13732,38500 12472,38500 12472,36836 Z M 12481,36848 L 13723,36848 13723,38489 12481,38489 12481,36848 Z"/>
             <path fill="rgb(251,211,163)" stroke="none" d="M 12481,36848 L 13723,36848 13723,38489 12481,38489 12481,36848 Z M 12490,36860 L 13714,36860 13714,38477 12490,38477 12490,36860 Z"/>
             <path fill="rgb(251,211,164)" stroke="none" d="M 12490,36860 L 13714,36860 13714,38477 12490,38477 12490,36860 Z M 12499,36872 L 13705,36872 13705,38465 12499,38465 12499,36872 Z"/>
             <path fill="rgb(251,211,165)" stroke="none" d="M 12499,36872 L 13705,36872 13705,38465 12499,38465 12499,36872 Z M 12508,36884 L 13696,36884 13696,38453 12508,38453 12508,36884 Z"/>
             <path fill="rgb(251,212,166)" stroke="none" d="M 12508,36884 L 13696,36884 13696,38453 12508,38453 12508,36884 Z M 12517,36896 L 13687,36896 13687,38441 12517,38441 12517,36896 Z"/>
             <path fill="rgb(251,212,167)" stroke="none" d="M 12517,36896 L 13687,36896 13687,38441 12517,38441 12517,36896 Z M 12526,36908 L 13678,36908 13678,38429 12526,38429 12526,36908 Z"/>
             <path fill="rgb(251,213,168)" stroke="none" d="M 12526,36908 L 13678,36908 13678,38429 12526,38429 12526,36908 Z M 12535,36920 L 13669,36920 13669,38417 12535,38417 12535,36920 Z"/>
             <path fill="rgb(251,213,169)" stroke="none" d="M 12535,36920 L 13669,36920 13669,38417 12535,38417 12535,36920 Z M 12544,36932 L 13660,36932 13660,38405 12544,38405 12544,36932 Z"/>
             <path fill="rgb(251,214,170)" stroke="none" d="M 12544,36932 L 13660,36932 13660,38405 12544,38405 12544,36932 Z M 12553,36944 L 13651,36944 13651,38393 12553,38393 12553,36944 Z"/>
             <path fill="rgb(251,214,171)" stroke="none" d="M 12553,36944 L 13651,36944 13651,38393 12553,38393 12553,36944 Z M 12562,36955 L 13642,36955 13642,38381 12562,38381 12562,36955 Z"/>
             <path fill="rgb(252,215,172)" stroke="none" d="M 12562,36955 L 13642,36955 13642,38381 12562,38381 12562,36955 Z M 12571,36967 L 13633,36967 13633,38370 12571,38370 12571,36967 Z"/>
             <path fill="rgb(252,215,173)" stroke="none" d="M 12571,36967 L 13633,36967 13633,38370 12571,38370 12571,36967 Z M 12580,36979 L 13624,36979 13624,38358 12580,38358 12580,36979 Z"/>
             <path fill="rgb(252,216,174)" stroke="none" d="M 12580,36979 L 13624,36979 13624,38358 12580,38358 12580,36979 Z M 12589,36991 L 13615,36991 13615,38346 12589,38346 12589,36991 Z"/>
             <path fill="rgb(252,216,175)" stroke="none" d="M 12589,36991 L 13615,36991 13615,38346 12589,38346 12589,36991 Z M 12597,37003 L 13606,37003 13606,38334 12597,38334 12597,37003 Z"/>
             <path fill="rgb(252,217,176)" stroke="none" d="M 12597,37003 L 13606,37003 13606,38334 12597,38334 12597,37003 Z M 12606,37014 L 13597,37014 13597,38322 12606,38322 12606,37014 Z"/>
             <path fill="rgb(252,217,177)" stroke="none" d="M 12606,37014 L 13597,37014 13597,38322 12606,38322 12606,37014 Z M 12615,37026 L 13588,37026 13588,38310 12615,38310 12615,37026 Z"/>
             <path fill="rgb(252,218,178)" stroke="none" d="M 12615,37026 L 13588,37026 13588,38310 12615,38310 12615,37026 Z M 12624,37038 L 13579,37038 13579,38298 12624,38298 12624,37038 Z"/>
             <path fill="rgb(252,218,179)" stroke="none" d="M 12624,37038 L 13579,37038 13579,38298 12624,38298 12624,37038 Z M 12633,37050 L 13570,37050 13570,38286 12633,38286 12633,37050 Z"/>
             <path fill="rgb(252,219,180)" stroke="none" d="M 12633,37050 L 13570,37050 13570,38286 12633,38286 12633,37050 Z M 12642,37062 L 13561,37062 13561,38274 12642,38274 12642,37062 Z"/>
             <path fill="rgb(252,219,181)" stroke="none" d="M 12642,37062 L 13561,37062 13561,38274 12642,38274 12642,37062 Z M 12651,37073 L 13552,37073 13552,38262 12651,38262 12651,37073 Z"/>
             <path fill="rgb(252,220,182)" stroke="none" d="M 12651,37073 L 13552,37073 13552,38262 12651,38262 12651,37073 Z M 12660,37085 L 13543,37085 13543,38251 12660,38251 12660,37085 Z"/>
             <path fill="rgb(252,220,183)" stroke="none" d="M 12660,37085 L 13543,37085 13543,38251 12660,38251 12660,37085 Z M 12669,37097 L 13534,37097 13534,38239 12669,38239 12669,37097 Z"/>
             <path fill="rgb(252,221,184)" stroke="none" d="M 12669,37097 L 13534,37097 13534,38239 12669,38239 12669,37097 Z M 12678,37109 L 13525,37109 13525,38227 12678,38227 12678,37109 Z"/>
             <path fill="rgb(252,221,185)" stroke="none" d="M 12678,37109 L 13525,37109 13525,38227 12678,38227 12678,37109 Z M 12687,37121 L 13516,37121 13516,38215 12687,38215 12687,37121 Z"/>
             <path fill="rgb(252,222,186)" stroke="none" d="M 12687,37121 L 13516,37121 13516,38215 12687,38215 12687,37121 Z M 12696,37133 L 13507,37133 13507,38203 12696,38203 12696,37133 Z"/>
             <path fill="rgb(252,222,187)" stroke="none" d="M 12696,37133 L 13507,37133 13507,38203 12696,38203 12696,37133 Z M 12705,37145 L 13498,37145 13498,38191 12705,38191 12705,37145 Z"/>
             <path fill="rgb(252,222,188)" stroke="none" d="M 12705,37145 L 13498,37145 13498,38191 12705,38191 12705,37145 Z M 12714,37157 L 13489,37157 13489,38179 12714,38179 12714,37157 Z"/>
             <path fill="rgb(252,223,189)" stroke="none" d="M 12714,37157 L 13489,37157 13489,38179 12714,38179 12714,37157 Z M 12723,37169 L 13480,37169 13480,38167 12723,38167 12723,37169 Z"/>
             <path fill="rgb(252,223,190)" stroke="none" d="M 12723,37169 L 13480,37169 13480,38167 12723,38167 12723,37169 Z M 12732,37181 L 13471,37181 13471,38155 12732,38155 12732,37181 Z"/>
             <path fill="rgb(252,224,191)" stroke="none" d="M 12732,37181 L 13471,37181 13471,38155 12732,38155 12732,37181 Z M 12741,37192 L 13462,37192 13462,38143 12741,38143 12741,37192 Z"/>
             <path fill="rgb(252,224,192)" stroke="none" d="M 12741,37192 L 13462,37192 13462,38143 12741,38143 12741,37192 Z M 12750,37204 L 13453,37204 13453,38132 12750,38132 12750,37204 Z"/>
             <path fill="rgb(252,225,193)" stroke="none" d="M 12750,37204 L 13453,37204 13453,38132 12750,38132 12750,37204 Z M 12759,37216 L 13444,37216 13444,38120 12759,38120 12759,37216 Z"/>
             <path fill="rgb(252,225,194)" stroke="none" d="M 12759,37216 L 13444,37216 13444,38120 12759,38120 12759,37216 Z M 12768,37228 L 13435,37228 13435,38108 12768,38108 12768,37228 Z"/>
             <path fill="rgb(252,226,195)" stroke="none" d="M 12768,37228 L 13435,37228 13435,38108 12768,38108 12768,37228 Z M 12777,37240 L 13426,37240 13426,38096 12777,38096 12777,37240 Z"/>
             <path fill="rgb(252,226,196)" stroke="none" d="M 12777,37240 L 13426,37240 13426,38096 12777,38096 12777,37240 Z M 12786,37252 L 13417,37252 13417,38084 12786,38084 12786,37252 Z"/>
             <path fill="rgb(252,227,197)" stroke="none" d="M 12786,37252 L 13417,37252 13417,38084 12786,38084 12786,37252 Z M 12795,37264 L 13408,37264 13408,38072 12795,38072 12795,37264 Z"/>
             <path fill="rgb(252,227,198)" stroke="none" d="M 12795,37264 L 13408,37264 13408,38072 12795,38072 12795,37264 Z M 12804,37276 L 13399,37276 13399,38060 12804,38060 12804,37276 Z"/>
             <path fill="rgb(252,228,199)" stroke="none" d="M 12804,37276 L 13399,37276 13399,38060 12804,38060 12804,37276 Z M 12813,37288 L 13390,37288 13390,38048 12813,38048 12813,37288 Z"/>
             <path fill="rgb(252,228,200)" stroke="none" d="M 12813,37288 L 13390,37288 13390,38048 12813,38048 12813,37288 Z M 12822,37300 L 13381,37300 13381,38036 12822,38036 12822,37300 Z"/>
             <path fill="rgb(252,229,201)" stroke="none" d="M 12822,37300 L 13381,37300 13381,38036 12822,38036 12822,37300 Z M 12832,37311 L 13372,37311 13372,38024 12832,38024 12832,37311 Z"/>
             <path fill="rgb(253,229,202)" stroke="none" d="M 12832,37311 L 13372,37311 13372,38024 12832,38024 12832,37311 Z M 12841,37323 L 13362,37323 13362,38013 12841,38013 12841,37323 Z"/>
             <path fill="rgb(253,230,203)" stroke="none" d="M 12841,37323 L 13362,37323 13362,38013 12841,38013 12841,37323 Z M 12850,37335 L 13353,37335 13353,38001 12850,38001 12850,37335 Z"/>
             <path fill="rgb(253,230,204)" stroke="none" d="M 12850,37335 L 13353,37335 13353,38001 12850,38001 12850,37335 Z M 12859,37347 L 13344,37347 13344,37989 12859,37989 12859,37347 Z"/>
             <path fill="rgb(253,231,205)" stroke="none" d="M 12859,37347 L 13344,37347 13344,37989 12859,37989 12859,37347 Z M 12868,37359 L 13335,37359 13335,37977 12868,37977 12868,37359 Z"/>
             <path fill="rgb(253,231,206)" stroke="none" d="M 12868,37359 L 13335,37359 13335,37977 12868,37977 12868,37359 Z M 12877,37371 L 13326,37371 13326,37965 12877,37965 12877,37371 Z"/>
             <path fill="rgb(253,232,207)" stroke="none" d="M 12877,37371 L 13326,37371 13326,37965 12877,37965 12877,37371 Z M 12886,37383 L 13317,37383 13317,37953 12886,37953 12886,37383 Z"/>
             <path fill="rgb(253,232,208)" stroke="none" d="M 12886,37383 L 13317,37383 13317,37953 12886,37953 12886,37383 Z M 12895,37395 L 13308,37395 13308,37941 12895,37941 12895,37395 Z"/>
             <path fill="rgb(253,233,209)" stroke="none" d="M 12895,37395 L 13308,37395 13308,37941 12895,37941 12895,37395 Z M 12904,37407 L 13299,37407 13299,37929 12904,37929 12904,37407 Z"/>
             <path fill="rgb(253,233,210)" stroke="none" d="M 12904,37407 L 13299,37407 13299,37929 12904,37929 12904,37407 Z M 12913,37419 L 13290,37419 13290,37917 12913,37917 12913,37419 Z"/>
             <path fill="rgb(253,233,211)" stroke="none" d="M 12913,37419 L 13290,37419 13290,37917 12913,37917 12913,37419 Z M 12922,37430 L 13281,37430 13281,37905 12922,37905 12922,37430 Z"/>
             <path fill="rgb(253,234,212)" stroke="none" d="M 12922,37430 L 13281,37430 13281,37905 12922,37905 12922,37430 Z M 12931,37442 L 13272,37442 13272,37894 12931,37894 12931,37442 Z"/>
             <path fill="rgb(253,234,213)" stroke="none" d="M 12931,37442 L 13272,37442 13272,37894 12931,37894 12931,37442 Z M 12940,37454 L 13263,37454 13263,37882 12940,37882 12940,37454 Z"/>
             <path fill="rgb(253,235,214)" stroke="none" d="M 12940,37454 L 13263,37454 13263,37882 12940,37882 12940,37454 Z M 12949,37466 L 13254,37466 13254,37870 12949,37870 12949,37466 Z"/>
             <path fill="rgb(253,235,215)" stroke="none" d="M 12949,37466 L 13254,37466 13254,37870 12949,37870 12949,37466 Z M 12958,37478 L 13245,37478 13245,37858 12958,37858 12958,37478 Z"/>
             <path fill="rgb(253,236,216)" stroke="none" d="M 12958,37478 L 13245,37478 13245,37858 12958,37858 12958,37478 Z M 12967,37490 L 13236,37490 13236,37846 12967,37846 12967,37490 Z"/>
             <path fill="rgb(253,236,217)" stroke="none" d="M 12967,37490 L 13236,37490 13236,37846 12967,37846 12967,37490 Z M 12976,37502 L 13227,37502 13227,37834 12976,37834 12976,37502 Z"/>
             <path fill="rgb(253,237,218)" stroke="none" d="M 12976,37502 L 13227,37502 13227,37834 12976,37834 12976,37502 Z M 12985,37514 L 13218,37514 13218,37822 12985,37822 12985,37514 Z"/>
             <path fill="rgb(253,237,219)" stroke="none" d="M 12985,37514 L 13218,37514 13218,37822 12985,37822 12985,37514 Z M 12994,37526 L 13209,37526 13209,37810 12994,37810 12994,37526 Z"/>
             <path fill="rgb(253,238,220)" stroke="none" d="M 12994,37526 L 13209,37526 13209,37810 12994,37810 12994,37526 Z M 13003,37538 L 13200,37538 13200,37798 13003,37798 13003,37538 Z"/>
             <path fill="rgb(253,238,221)" stroke="none" d="M 13003,37538 L 13200,37538 13200,37798 13003,37798 13003,37538 Z M 13012,37549 L 13191,37549 13191,37786 13012,37786 13012,37549 Z"/>
             <path fill="rgb(253,239,222)" stroke="none" d="M 13012,37549 L 13191,37549 13191,37786 13012,37786 13012,37549 Z M 13021,37561 L 13182,37561 13182,37775 13021,37775 13021,37561 Z"/>
             <path fill="rgb(253,239,223)" stroke="none" d="M 13021,37561 L 13182,37561 13182,37775 13021,37775 13021,37561 Z M 13030,37573 L 13173,37573 13173,37763 13030,37763 13030,37573 Z"/>
             <path fill="rgb(253,240,224)" stroke="none" d="M 13030,37573 L 13173,37573 13173,37763 13030,37763 13030,37573 Z M 13039,37585 L 13164,37585 13164,37751 13039,37751 13039,37585 Z"/>
             <path fill="rgb(253,240,225)" stroke="none" d="M 13039,37585 L 13164,37585 13164,37751 13039,37751 13039,37585 Z M 13048,37597 L 13155,37597 13155,37739 13048,37739 13048,37597 Z"/>
             <path fill="rgb(253,241,226)" stroke="none" d="M 13048,37597 L 13155,37597 13155,37739 13048,37739 13048,37597 Z M 13057,37609 L 13146,37609 13146,37727 13057,37727 13057,37609 Z"/>
             <path fill="rgb(253,241,227)" stroke="none" d="M 13057,37609 L 13146,37609 13146,37727 13057,37727 13057,37609 Z M 13066,37621 L 13137,37621 13137,37715 13066,37715 13066,37621 Z"/>
             <path fill="rgb(253,242,228)" stroke="none" d="M 13066,37621 L 13137,37621 13137,37715 13066,37715 13066,37621 Z M 13075,37633 L 13128,37633 13128,37703 13075,37703 13075,37633 Z"/>
             <path fill="rgb(253,242,229)" stroke="none" d="M 13075,37633 L 13128,37633 13128,37703 13075,37703 13075,37633 Z M 13084,37645 L 13119,37645 13119,37691 13084,37691 13084,37645 Z"/>
             <path fill="rgb(253,243,230)" stroke="none" d="M 13084,37645 L 13119,37645 13119,37691 13084,37691 13084,37645 Z M 13093,37657 L 13110,37657 13110,37679 13093,37679 13093,37657 Z"/>
             <path fill="rgb(254,244,232)" stroke="none" d="M 13093,37657 L 13110,37657 13110,37679 13093,37679 13093,37657 Z"/>
            </g>
           </pattern>
          </defs>
          <path style="fill:url(#pattern1)" d="M 13312,37028 L 13169,37030 13102,37034 13038,37043 12977,37057 12919,37077 12892,37091 12866,37106 12841,37124 12817,37145 12794,37168 12773,37194 12733,37256 12699,37332 12670,37422 12647,37530 12631,37654 12617,37963 12631,38283 12647,38421 12670,38545 12699,38656 12733,38754 12773,38841 12817,38915 12866,38979 12919,39032 12977,39076 13038,39110 13102,39136 13169,39154 13239,39164 13312,39167 13349,39165 13387,39160 13465,39140 13543,39108 13622,39064 13701,39010 13777,38946 13851,38873 13922,38792 13988,38704 14048,38610 14102,38511 14148,38407 14185,38299 14213,38189 14231,38076 14237,37963 14231,37852 14213,37749 14185,37651 14148,37561 14102,37477 14048,37400 13988,37331 13922,37268 13851,37212 13777,37164 13701,37123 13622,37089 13543,37062 13465,37043 13387,37032 13312,37028 Z"/>
         </g>
         <path fill="none" stroke="rgb(255,255,255)" stroke-width="40" stroke-linejoin="round" d="M 13312,37028 C 12919,37028 12617,37028 12617,37963 12617,38897 12919,39167 13312,39167 13705,39167 14237,38569 14237,37963 14237,37356 13705,37028 13312,37028 Z"/>
        </g>
       </g>
       <g class="com.sun.star.drawing.ClosedBezierShape">
        <g id="id8">
         <rect class="BoundingBox" stroke="none" fill="none" x="12639" y="36471" width="2003" height="2066"/>
         <g>
          <defs>
           <linearGradient id="gradient2" x1="13639" y1="38515" x2="13639" y2="36491" gradientUnits="userSpaceOnUse">
            <stop offset="0.1" style="stop-color:rgb(179,179,179)"/>
            <stop offset="1" style="stop-color:rgb(229,229,229)"/>
           </linearGradient>
          </defs>
          <path style="fill:url(#gradient2)" d="M 13772,36491 L 13590,36492 13398,36499 13206,36519 13114,36536 13027,36558 12946,36586 12872,36622 12806,36665 12777,36690 12751,36717 12728,36746 12708,36778 12691,36812 12677,36849 12667,36889 12661,36932 12659,36977 12661,37026 12684,37048 12711,37067 12740,37084 12771,37099 12840,37123 12916,37142 12998,37155 13083,37164 13258,37174 13428,37183 13579,37199 13644,37213 13699,37233 13722,37245 13742,37258 13759,37274 13772,37292 13804,37351 13831,37411 13870,37536 13894,37664 13907,37793 13912,38258 13920,38348 13928,38386 13939,38421 13953,38451 13971,38475 13994,38494 14021,38508 14054,38515 14092,38515 14137,38509 14188,38496 14312,38446 14469,38363 14542,38144 14590,37937 14616,37743 14620,37563 14605,37395 14573,37242 14526,37102 14467,36976 14397,36864 14318,36766 14232,36683 14141,36614 14048,36561 13954,36522 13861,36499 13816,36493 13772,36491 Z"/>
         </g>
         <path fill="none" stroke="rgb(238,238,238)" stroke-width="40" stroke-linejoin="round" d="M 13772,36491 C 13311,36491 12617,36491 12661,37026 12895,37269 13649,37090 13772,37292 14142,37905 13542,38898 14469,38363 14930,37159 14235,36491 13772,36491 Z"/>
        </g>
       </g>
       <g class="com.sun.star.drawing.ClosedBezierShape">
        <g id="id9">
         <rect class="BoundingBox" stroke="none" fill="none" x="9866" y="39547" width="2774" height="1965"/>
         <g>
          <defs>
           <pattern id="pattern2" x="9886" y="39567" width="2733" height="1924" patternUnits="userSpaceOnUse">
            <g transform="translate(-9886,-39567)">
             <path fill="rgb(222,142,150)" stroke="none" d="M 9885,39566 L 12619,39566 12619,41491 9885,41491 9885,39566 Z M 9354,39191 L 12056,39191 12056,41094 9354,41094 9354,39191 Z"/>
             <path fill="rgb(222,143,150)" stroke="none" d="M 9354,39191 L 12056,39191 12056,41094 9354,41094 9354,39191 Z M 9369,39202 L 12041,39202 12041,41083 9369,41083 9369,39202 Z"/>
             <path fill="rgb(222,144,151)" stroke="none" d="M 9369,39202 L 12041,39202 12041,41083 9369,41083 9369,39202 Z M 9384,39213 L 12026,39213 12026,41072 9384,41072 9384,39213 Z"/>
             <path fill="rgb(222,145,152)" stroke="none" d="M 9384,39213 L 12026,39213 12026,41072 9384,41072 9384,39213 Z M 9399,39223 L 12011,39223 12011,41062 9399,41062 9399,39223 Z"/>
             <path fill="rgb(223,146,153)" stroke="none" d="M 9399,39223 L 12011,39223 12011,41062 9399,41062 9399,39223 Z M 9414,39234 L 11996,39234 11996,41051 9414,41051 9414,39234 Z"/>
             <path fill="rgb(223,147,154)" stroke="none" d="M 9414,39234 L 11996,39234 11996,41051 9414,41051 9414,39234 Z M 9430,39245 L 11980,39245 11980,41040 9430,41040 9430,39245 Z"/>
             <path fill="rgb(223,148,155)" stroke="none" d="M 9430,39245 L 11980,39245 11980,41040 9430,41040 9430,39245 Z M 9445,39255 L 11965,39255 11965,41030 9445,41030 9445,39255 Z"/>
             <path fill="rgb(224,149,156)" stroke="none" d="M 9445,39255 L 11965,39255 11965,41030 9445,41030 9445,39255 Z M 9460,39266 L 11950,39266 11950,41019 9460,41019 9460,39266 Z"/>
             <path fill="rgb(224,150,157)" stroke="none" d="M 9460,39266 L 11950,39266 11950,41019 9460,41019 9460,39266 Z M 9475,39277 L 11935,39277 11935,41008 9475,41008 9475,39277 Z"/>
             <path fill="rgb(224,151,158)" stroke="none" d="M 9475,39277 L 11935,39277 11935,41008 9475,41008 9475,39277 Z M 9490,39287 L 11920,39287 11920,40997 9490,40997 9490,39287 Z"/>
             <path fill="rgb(224,152,159)" stroke="none" d="M 9490,39287 L 11920,39287 11920,40997 9490,40997 9490,39287 Z M 9506,39298 L 11904,39298 11904,40987 9506,40987 9506,39298 Z"/>
             <path fill="rgb(225,153,160)" stroke="none" d="M 9506,39298 L 11904,39298 11904,40987 9506,40987 9506,39298 Z M 9521,39309 L 11889,39309 11889,40976 9521,40976 9521,39309 Z"/>
             <path fill="rgb(225,154,161)" stroke="none" d="M 9521,39309 L 11889,39309 11889,40976 9521,40976 9521,39309 Z M 9536,39320 L 11874,39320 11874,40965 9536,40965 9536,39320 Z"/>
             <path fill="rgb(225,155,162)" stroke="none" d="M 9536,39320 L 11874,39320 11874,40965 9536,40965 9536,39320 Z M 9551,39330 L 11859,39330 11859,40955 9551,40955 9551,39330 Z"/>
             <path fill="rgb(226,156,163)" stroke="none" d="M 9551,39330 L 11859,39330 11859,40955 9551,40955 9551,39330 Z M 9566,39341 L 11844,39341 11844,40944 9566,40944 9566,39341 Z"/>
             <path fill="rgb(226,157,164)" stroke="none" d="M 9566,39341 L 11844,39341 11844,40944 9566,40944 9566,39341 Z M 9582,39352 L 11828,39352 11828,40933 9582,40933 9582,39352 Z"/>
             <path fill="rgb(226,158,164)" stroke="none" d="M 9582,39352 L 11828,39352 11828,40933 9582,40933 9582,39352 Z M 9597,39362 L 11813,39362 11813,40923 9597,40923 9597,39362 Z"/>
             <path fill="rgb(226,159,165)" stroke="none" d="M 9597,39362 L 11813,39362 11813,40923 9597,40923 9597,39362 Z M 9612,39373 L 11798,39373 11798,40912 9612,40912 9612,39373 Z"/>
             <path fill="rgb(227,160,166)" stroke="none" d="M 9612,39373 L 11798,39373 11798,40912 9612,40912 9612,39373 Z M 9627,39384 L 11783,39384 11783,40901 9627,40901 9627,39384 Z"/>
             <path fill="rgb(227,161,167)" stroke="none" d="M 9627,39384 L 11783,39384 11783,40901 9627,40901 9627,39384 Z M 9642,39394 L 11768,39394 11768,40890 9642,40890 9642,39394 Z"/>
             <path fill="rgb(227,162,168)" stroke="none" d="M 9642,39394 L 11768,39394 11768,40890 9642,40890 9642,39394 Z M 9658,39405 L 11752,39405 11752,40880 9658,40880 9658,39405 Z"/>
             <path fill="rgb(228,163,169)" stroke="none" d="M 9658,39405 L 11752,39405 11752,40880 9658,40880 9658,39405 Z M 9673,39416 L 11737,39416 11737,40869 9673,40869 9673,39416 Z"/>
             <path fill="rgb(228,164,170)" stroke="none" d="M 9673,39416 L 11737,39416 11737,40869 9673,40869 9673,39416 Z M 9688,39427 L 11722,39427 11722,40858 9688,40858 9688,39427 Z"/>
             <path fill="rgb(228,165,171)" stroke="none" d="M 9688,39427 L 11722,39427 11722,40858 9688,40858 9688,39427 Z M 9703,39437 L 11707,39437 11707,40848 9703,40848 9703,39437 Z"/>
             <path fill="rgb(228,166,172)" stroke="none" d="M 9703,39437 L 11707,39437 11707,40848 9703,40848 9703,39437 Z M 9718,39448 L 11692,39448 11692,40837 9718,40837 9718,39448 Z"/>
             <path fill="rgb(229,167,173)" stroke="none" d="M 9718,39448 L 11692,39448 11692,40837 9718,40837 9718,39448 Z M 9734,39459 L 11676,39459 11676,40826 9734,40826 9734,39459 Z"/>
             <path fill="rgb(229,168,174)" stroke="none" d="M 9734,39459 L 11676,39459 11676,40826 9734,40826 9734,39459 Z M 9749,39469 L 11661,39469 11661,40816 9749,40816 9749,39469 Z"/>
             <path fill="rgb(229,169,175)" stroke="none" d="M 9749,39469 L 11661,39469 11661,40816 9749,40816 9749,39469 Z M 9764,39480 L 11646,39480 11646,40805 9764,40805 9764,39480 Z"/>
             <path fill="rgb(230,170,176)" stroke="none" d="M 9764,39480 L 11646,39480 11646,40805 9764,40805 9764,39480 Z M 9779,39491 L 11631,39491 11631,40794 9779,40794 9779,39491 Z"/>
             <path fill="rgb(230,171,177)" stroke="none" d="M 9779,39491 L 11631,39491 11631,40794 9779,40794 9779,39491 Z M 9794,39501 L 11616,39501 11616,40783 9794,40783 9794,39501 Z"/>
             <path fill="rgb(230,172,178)" stroke="none" d="M 9794,39501 L 11616,39501 11616,40783 9794,40783 9794,39501 Z M 9810,39512 L 11600,39512 11600,40773 9810,40773 9810,39512 Z"/>
             <path fill="rgb(230,173,178)" stroke="none" d="M 9810,39512 L 11600,39512 11600,40773 9810,40773 9810,39512 Z M 9825,39523 L 11585,39523 11585,40762 9825,40762 9825,39523 Z"/>
             <path fill="rgb(231,174,179)" stroke="none" d="M 9825,39523 L 11585,39523 11585,40762 9825,40762 9825,39523 Z M 9840,39534 L 11570,39534 11570,40751 9840,40751 9840,39534 Z"/>
             <path fill="rgb(231,175,180)" stroke="none" d="M 9840,39534 L 11570,39534 11570,40751 9840,40751 9840,39534 Z M 9855,39544 L 11555,39544 11555,40741 9855,40741 9855,39544 Z"/>
             <path fill="rgb(231,176,181)" stroke="none" d="M 9855,39544 L 11555,39544 11555,40741 9855,40741 9855,39544 Z M 9869,39554 L 11540,39554 11540,40730 9869,40730 9869,39554 Z"/>
             <path fill="rgb(232,177,182)" stroke="none" d="M 9869,39554 L 11540,39554 11540,40730 9869,40730 9869,39554 Z M 9885,39565 L 11525,39565 11525,40719 9885,40719 9885,39565 Z"/>
             <path fill="rgb(232,178,183)" stroke="none" d="M 9885,39565 L 11525,39565 11525,40719 9885,40719 9885,39565 Z M 9900,39575 L 11509,39575 11509,40709 9900,40709 9900,39575 Z"/>
             <path fill="rgb(232,179,184)" stroke="none" d="M 9900,39575 L 11509,39575 11509,40709 9900,40709 9900,39575 Z M 9915,39586 L 11494,39586 11494,40698 9915,40698 9915,39586 Z"/>
             <path fill="rgb(232,180,185)" stroke="none" d="M 9915,39586 L 11494,39586 11494,40698 9915,40698 9915,39586 Z M 9930,39597 L 11479,39597 11479,40687 9930,40687 9930,39597 Z"/>
             <path fill="rgb(233,181,186)" stroke="none" d="M 9930,39597 L 11479,39597 11479,40687 9930,40687 9930,39597 Z M 9945,39607 L 11464,39607 11464,40676 9945,40676 9945,39607 Z"/>
             <path fill="rgb(233,182,187)" stroke="none" d="M 9945,39607 L 11464,39607 11464,40676 9945,40676 9945,39607 Z M 9960,39618 L 11449,39618 11449,40666 9960,40666 9960,39618 Z"/>
             <path fill="rgb(233,183,188)" stroke="none" d="M 9960,39618 L 11449,39618 11449,40666 9960,40666 9960,39618 Z M 9976,39629 L 11433,39629 11433,40655 9976,40655 9976,39629 Z"/>
             <path fill="rgb(234,184,189)" stroke="none" d="M 9976,39629 L 11433,39629 11433,40655 9976,40655 9976,39629 Z M 9991,39640 L 11418,39640 11418,40644 9991,40644 9991,39640 Z"/>
             <path fill="rgb(234,185,190)" stroke="none" d="M 9991,39640 L 11418,39640 11418,40644 9991,40644 9991,39640 Z M 10006,39650 L 11403,39650 11403,40634 10006,40634 10006,39650 Z"/>
             <path fill="rgb(234,186,191)" stroke="none" d="M 10006,39650 L 11403,39650 11403,40634 10006,40634 10006,39650 Z M 10021,39661 L 11388,39661 11388,40623 10021,40623 10021,39661 Z"/>
             <path fill="rgb(235,187,192)" stroke="none" d="M 10021,39661 L 11388,39661 11388,40623 10021,40623 10021,39661 Z M 10036,39672 L 11373,39672 11373,40612 10036,40612 10036,39672 Z"/>
             <path fill="rgb(235,188,192)" stroke="none" d="M 10036,39672 L 11373,39672 11373,40612 10036,40612 10036,39672 Z M 10052,39682 L 11357,39682 11357,40602 10052,40602 10052,39682 Z"/>
             <path fill="rgb(235,189,193)" stroke="none" d="M 10052,39682 L 11357,39682 11357,40602 10052,40602 10052,39682 Z M 10067,39693 L 11342,39693 11342,40591 10067,40591 10067,39693 Z"/>
             <path fill="rgb(235,190,194)" stroke="none" d="M 10067,39693 L 11342,39693 11342,40591 10067,40591 10067,39693 Z M 10082,39704 L 11327,39704 11327,40580 10082,40580 10082,39704 Z"/>
             <path fill="rgb(236,191,195)" stroke="none" d="M 10082,39704 L 11327,39704 11327,40580 10082,40580 10082,39704 Z M 10097,39714 L 11312,39714 11312,40569 10097,40569 10097,39714 Z"/>
             <path fill="rgb(236,192,196)" stroke="none" d="M 10097,39714 L 11312,39714 11312,40569 10097,40569 10097,39714 Z M 10112,39725 L 11297,39725 11297,40559 10112,40559 10112,39725 Z"/>
             <path fill="rgb(236,193,197)" stroke="none" d="M 10112,39725 L 11297,39725 11297,40559 10112,40559 10112,39725 Z M 10128,39736 L 11281,39736 11281,40548 10128,40548 10128,39736 Z"/>
             <path fill="rgb(237,194,198)" stroke="none" d="M 10128,39736 L 11281,39736 11281,40548 10128,40548 10128,39736 Z M 10143,39747 L 11266,39747 11266,40537 10143,40537 10143,39747 Z"/>
             <path fill="rgb(237,195,199)" stroke="none" d="M 10143,39747 L 11266,39747 11266,40537 10143,40537 10143,39747 Z M 10158,39757 L 11251,39757 11251,40527 10158,40527 10158,39757 Z"/>
             <path fill="rgb(237,196,200)" stroke="none" d="M 10158,39757 L 11251,39757 11251,40527 10158,40527 10158,39757 Z M 10173,39768 L 11236,39768 11236,40516 10173,40516 10173,39768 Z"/>
             <path fill="rgb(237,197,201)" stroke="none" d="M 10173,39768 L 11236,39768 11236,40516 10173,40516 10173,39768 Z M 10188,39779 L 11221,39779 11221,40505 10188,40505 10188,39779 Z"/>
             <path fill="rgb(238,198,202)" stroke="none" d="M 10188,39779 L 11221,39779 11221,40505 10188,40505 10188,39779 Z M 10204,39789 L 11205,39789 11205,40495 10204,40495 10204,39789 Z"/>
             <path fill="rgb(238,199,203)" stroke="none" d="M 10204,39789 L 11205,39789 11205,40495 10204,40495 10204,39789 Z M 10219,39800 L 11190,39800 11190,40484 10219,40484 10219,39800 Z"/>
             <path fill="rgb(238,200,204)" stroke="none" d="M 10219,39800 L 11190,39800 11190,40484 10219,40484 10219,39800 Z M 10234,39811 L 11175,39811 11175,40473 10234,40473 10234,39811 Z"/>
             <path fill="rgb(239,201,205)" stroke="none" d="M 10234,39811 L 11175,39811 11175,40473 10234,40473 10234,39811 Z M 10249,39821 L 11160,39821 11160,40462 10249,40462 10249,39821 Z"/>
             <path fill="rgb(239,202,206)" stroke="none" d="M 10249,39821 L 11160,39821 11160,40462 10249,40462 10249,39821 Z M 10264,39832 L 11145,39832 11145,40452 10264,40452 10264,39832 Z"/>
             <path fill="rgb(239,203,206)" stroke="none" d="M 10264,39832 L 11145,39832 11145,40452 10264,40452 10264,39832 Z M 10280,39843 L 11129,39843 11129,40441 10280,40441 10280,39843 Z"/>
             <path fill="rgb(239,204,207)" stroke="none" d="M 10280,39843 L 11129,39843 11129,40441 10280,40441 10280,39843 Z M 10295,39854 L 11114,39854 11114,40430 10295,40430 10295,39854 Z"/>
             <path fill="rgb(240,205,208)" stroke="none" d="M 10295,39854 L 11114,39854 11114,40430 10295,40430 10295,39854 Z M 10310,39864 L 11099,39864 11099,40420 10310,40420 10310,39864 Z"/>
             <path fill="rgb(240,206,209)" stroke="none" d="M 10310,39864 L 11099,39864 11099,40420 10310,40420 10310,39864 Z M 10325,39875 L 11084,39875 11084,40409 10325,40409 10325,39875 Z"/>
             <path fill="rgb(240,207,210)" stroke="none" d="M 10325,39875 L 11084,39875 11084,40409 10325,40409 10325,39875 Z M 10340,39886 L 11069,39886 11069,40398 10340,40398 10340,39886 Z"/>
             <path fill="rgb(241,208,211)" stroke="none" d="M 10340,39886 L 11069,39886 11069,40398 10340,40398 10340,39886 Z M 10356,39896 L 11053,39896 11053,40388 10356,40388 10356,39896 Z"/>
             <path fill="rgb(241,209,212)" stroke="none" d="M 10356,39896 L 11053,39896 11053,40388 10356,40388 10356,39896 Z M 10371,39907 L 11038,39907 11038,40377 10371,40377 10371,39907 Z"/>
             <path fill="rgb(241,210,213)" stroke="none" d="M 10371,39907 L 11038,39907 11038,40377 10371,40377 10371,39907 Z M 10386,39918 L 11023,39918 11023,40366 10386,40366 10386,39918 Z"/>
             <path fill="rgb(241,211,214)" stroke="none" d="M 10386,39918 L 11023,39918 11023,40366 10386,40366 10386,39918 Z M 10401,39928 L 11008,39928 11008,40355 10401,40355 10401,39928 Z"/>
             <path fill="rgb(242,212,215)" stroke="none" d="M 10401,39928 L 11008,39928 11008,40355 10401,40355 10401,39928 Z M 10416,39939 L 10993,39939 10993,40345 10416,40345 10416,39939 Z"/>
             <path fill="rgb(242,213,216)" stroke="none" d="M 10416,39939 L 10993,39939 10993,40345 10416,40345 10416,39939 Z M 10432,39950 L 10978,39950 10978,40334 10432,40334 10432,39950 Z"/>
             <path fill="rgb(242,214,217)" stroke="none" d="M 10432,39950 L 10978,39950 10978,40334 10432,40334 10432,39950 Z M 10447,39961 L 10962,39961 10962,40323 10447,40323 10447,39961 Z"/>
             <path fill="rgb(243,215,218)" stroke="none" d="M 10447,39961 L 10962,39961 10962,40323 10447,40323 10447,39961 Z M 10462,39971 L 10947,39971 10947,40313 10462,40313 10462,39971 Z"/>
             <path fill="rgb(243,216,219)" stroke="none" d="M 10462,39971 L 10947,39971 10947,40313 10462,40313 10462,39971 Z M 10477,39982 L 10932,39982 10932,40302 10477,40302 10477,39982 Z"/>
             <path fill="rgb(243,217,220)" stroke="none" d="M 10477,39982 L 10932,39982 10932,40302 10477,40302 10477,39982 Z M 10492,39993 L 10917,39993 10917,40291 10492,40291 10492,39993 Z"/>
             <path fill="rgb(243,218,220)" stroke="none" d="M 10492,39993 L 10917,39993 10917,40291 10492,40291 10492,39993 Z M 10507,40003 L 10902,40003 10902,40281 10507,40281 10507,40003 Z"/>
             <path fill="rgb(244,219,221)" stroke="none" d="M 10507,40003 L 10902,40003 10902,40281 10507,40281 10507,40003 Z M 10523,40014 L 10886,40014 10886,40270 10523,40270 10523,40014 Z"/>
             <path fill="rgb(244,220,222)" stroke="none" d="M 10523,40014 L 10886,40014 10886,40270 10523,40270 10523,40014 Z M 10538,40025 L 10871,40025 10871,40259 10538,40259 10538,40025 Z"/>
             <path fill="rgb(244,221,223)" stroke="none" d="M 10538,40025 L 10871,40025 10871,40259 10538,40259 10538,40025 Z M 10553,40035 L 10856,40035 10856,40248 10553,40248 10553,40035 Z"/>
             <path fill="rgb(245,222,224)" stroke="none" d="M 10553,40035 L 10856,40035 10856,40248 10553,40248 10553,40035 Z M 10568,40046 L 10841,40046 10841,40238 10568,40238 10568,40046 Z"/>
             <path fill="rgb(245,223,225)" stroke="none" d="M 10568,40046 L 10841,40046 10841,40238 10568,40238 10568,40046 Z M 10583,40057 L 10826,40057 10826,40227 10583,40227 10583,40057 Z"/>
             <path fill="rgb(245,224,226)" stroke="none" d="M 10583,40057 L 10826,40057 10826,40227 10583,40227 10583,40057 Z M 10599,40068 L 10810,40068 10810,40216 10599,40216 10599,40068 Z"/>
             <path fill="rgb(245,225,227)" stroke="none" d="M 10599,40068 L 10810,40068 10810,40216 10599,40216 10599,40068 Z M 10614,40078 L 10795,40078 10795,40206 10614,40206 10614,40078 Z"/>
             <path fill="rgb(246,226,228)" stroke="none" d="M 10614,40078 L 10795,40078 10795,40206 10614,40206 10614,40078 Z M 10629,40089 L 10780,40089 10780,40195 10629,40195 10629,40089 Z"/>
             <path fill="rgb(246,227,229)" stroke="none" d="M 10629,40089 L 10780,40089 10780,40195 10629,40195 10629,40089 Z M 10644,40100 L 10765,40100 10765,40184 10644,40184 10644,40100 Z"/>
             <path fill="rgb(246,228,230)" stroke="none" d="M 10644,40100 L 10765,40100 10765,40184 10644,40184 10644,40100 Z M 10659,40110 L 10750,40110 10750,40174 10659,40174 10659,40110 Z"/>
             <path fill="rgb(247,229,231)" stroke="none" d="M 10659,40110 L 10750,40110 10750,40174 10659,40174 10659,40110 Z M 10675,40121 L 10734,40121 10734,40163 10675,40163 10675,40121 Z"/>
             <path fill="rgb(247,230,232)" stroke="none" d="M 10675,40121 L 10734,40121 10734,40163 10675,40163 10675,40121 Z M 10690,40132 L 10719,40132 10719,40152 10690,40152 10690,40132 Z"/>
             <path fill="rgb(248,232,234)" stroke="none" d="M 10690,40132 L 10719,40132 10719,40152 10690,40152 10690,40132 Z"/>
            </g>
           </pattern>
          </defs>
          <path style="fill:url(#pattern2)" d="M 11228,39567 L 10986,39580 10776,39618 10597,39677 10518,39714 10446,39756 10380,39801 10320,39851 10266,39904 10217,39961 10135,40082 10070,40212 10020,40348 9983,40488 9956,40630 9937,40770 9886,41266 10030,41344 10191,41404 10366,41448 10552,41477 10745,41490 10945,41488 11147,41471 11348,41442 11547,41398 11740,41342 11924,41274 12097,41195 12256,41104 12397,41003 12519,40892 12618,40771 12580,40669 12549,40565 12499,40357 12443,40155 12406,40059 12358,39968 12296,39884 12259,39844 12218,39807 12171,39771 12120,39738 11999,39680 11853,39632 11677,39597 11470,39575 11228,39567 Z"/>
         </g>
         <path fill="none" stroke="rgb(255,255,255)" stroke-width="40" stroke-linejoin="round" d="M 11228,39567 C 9843,39567 9972,40720 9886,41266 10606,41726 12155,41439 12618,40771 12387,40235 12618,39567 11228,39567 Z"/>
        </g>
       </g>
       <g class="com.sun.star.drawing.ClosedBezierShape">
        <g id="id10">
         <rect class="BoundingBox" stroke="none" fill="none" x="11172" y="39857" width="772" height="1470"/>
         <path fill="rgb(255,255,255)" stroke="none" d="M 11826,39877 C 11595,40010 11346,39967 11192,39877 11653,40277 11923,41306 11923,41306 11923,40701 11826,40412 11826,39877 Z"/>
         <path fill="none" stroke="rgb(255,255,255)" stroke-width="40" stroke-linejoin="round" d="M 11826,39877 C 11595,40010 11346,39967 11192,39877 11653,40277 11923,41306 11923,41306 11923,40701 11826,40412 11826,39877 Z"/>
        </g>
       </g>
       <g class="com.sun.star.drawing.ClosedBezierShape">
        <g id="id11">
         <rect class="BoundingBox" stroke="none" fill="none" x="10945" y="38878" width="1000" height="1148"/>
         <path fill="rgb(249,180,96)" stroke="none" d="M 11230,38898 C 10837,38898 10999,39298 10999,39566 10999,39835 11461,40102 11692,39969 11923,39835 11923,39835 11923,39433 11923,39031 11623,38898 11230,38898 Z"/>
         <path fill="none" stroke="rgb(255,255,255)" stroke-width="40" stroke-linejoin="round" d="M 11230,38898 C 10837,38898 10999,39298 10999,39566 10999,39835 11461,40102 11692,39969 11923,39835 11923,39835 11923,39433 11923,39031 11623,38898 11230,38898 Z"/>
        </g>
       </g>
       <g class="com.sun.star.drawing.ClosedBezierShape">
        <g id="id12">
         <rect class="BoundingBox" stroke="none" fill="none" x="10974" y="37808" width="1431" height="1781"/>
         <g>
          <defs>
           <pattern id="pattern3" x="10994" y="37828" width="1391" height="1740" patternUnits="userSpaceOnUse">
            <g transform="translate(-10994,-37828)">
             <path fill="rgb(251,201,142)" stroke="none" d="M 10993,37827 L 12385,37827 12385,39568 10993,39568 10993,37827 Z M 10722,37488 L 12098,37488 12098,39209 10722,39209 10722,37488 Z"/>
             <path fill="rgb(251,201,143)" stroke="none" d="M 10722,37488 L 12098,37488 12098,39209 10722,39209 10722,37488 Z M 10730,37498 L 12090,37498 12090,39199 10730,39199 10730,37498 Z"/>
             <path fill="rgb(251,201,144)" stroke="none" d="M 10730,37498 L 12090,37498 12090,39199 10730,39199 10730,37498 Z M 10738,37508 L 12082,37508 12082,39189 10738,39189 10738,37508 Z"/>
             <path fill="rgb(251,202,145)" stroke="none" d="M 10738,37508 L 12082,37508 12082,39189 10738,39189 10738,37508 Z M 10745,37517 L 12075,37517 12075,39180 10745,39180 10745,37517 Z"/>
             <path fill="rgb(251,202,146)" stroke="none" d="M 10745,37517 L 12075,37517 12075,39180 10745,39180 10745,37517 Z M 10753,37527 L 12067,37527 12067,39170 10753,39170 10753,37527 Z"/>
             <path fill="rgb(251,203,147)" stroke="none" d="M 10753,37527 L 12067,37527 12067,39170 10753,39170 10753,37527 Z M 10761,37537 L 12059,37537 12059,39160 10761,39160 10761,37537 Z"/>
             <path fill="rgb(251,203,148)" stroke="none" d="M 10761,37537 L 12059,37537 12059,39160 10761,39160 10761,37537 Z M 10769,37546 L 12051,37546 12051,39151 10769,39151 10769,37546 Z"/>
             <path fill="rgb(251,204,149)" stroke="none" d="M 10769,37546 L 12051,37546 12051,39151 10769,39151 10769,37546 Z M 10776,37556 L 12044,37556 12044,39141 10776,39141 10776,37556 Z"/>
             <path fill="rgb(251,204,150)" stroke="none" d="M 10776,37556 L 12044,37556 12044,39141 10776,39141 10776,37556 Z M 10784,37566 L 12036,37566 12036,39131 10784,39131 10784,37566 Z"/>
             <path fill="rgb(251,205,151)" stroke="none" d="M 10784,37566 L 12036,37566 12036,39131 10784,39131 10784,37566 Z M 10792,37575 L 12028,37575 12028,39122 10792,39122 10792,37575 Z"/>
             <path fill="rgb(251,205,152)" stroke="none" d="M 10792,37575 L 12028,37575 12028,39122 10792,39122 10792,37575 Z M 10800,37585 L 12020,37585 12020,39112 10800,39112 10800,37585 Z"/>
             <path fill="rgb(251,206,153)" stroke="none" d="M 10800,37585 L 12020,37585 12020,39112 10800,39112 10800,37585 Z M 10807,37595 L 12013,37595 12013,39102 10807,39102 10807,37595 Z"/>
             <path fill="rgb(251,206,154)" stroke="none" d="M 10807,37595 L 12013,37595 12013,39102 10807,39102 10807,37595 Z M 10815,37604 L 12005,37604 12005,39093 10815,39093 10815,37604 Z"/>
             <path fill="rgb(251,207,155)" stroke="none" d="M 10815,37604 L 12005,37604 12005,39093 10815,39093 10815,37604 Z M 10823,37614 L 11997,37614 11997,39083 10823,39083 10823,37614 Z"/>
             <path fill="rgb(251,207,156)" stroke="none" d="M 10823,37614 L 11997,37614 11997,39083 10823,39083 10823,37614 Z M 10831,37624 L 11989,37624 11989,39073 10831,39073 10831,37624 Z"/>
             <path fill="rgb(251,208,157)" stroke="none" d="M 10831,37624 L 11989,37624 11989,39073 10831,39073 10831,37624 Z M 10838,37633 L 11982,37633 11982,39064 10838,39064 10838,37633 Z"/>
             <path fill="rgb(251,208,158)" stroke="none" d="M 10838,37633 L 11982,37633 11982,39064 10838,39064 10838,37633 Z M 10846,37643 L 11974,37643 11974,39054 10846,39054 10846,37643 Z"/>
             <path fill="rgb(251,209,159)" stroke="none" d="M 10846,37643 L 11974,37643 11974,39054 10846,39054 10846,37643 Z M 10854,37653 L 11966,37653 11966,39044 10854,39044 10854,37653 Z"/>
             <path fill="rgb(251,209,160)" stroke="none" d="M 10854,37653 L 11966,37653 11966,39044 10854,39044 10854,37653 Z M 10862,37662 L 11958,37662 11958,39035 10862,39035 10862,37662 Z"/>
             <path fill="rgb(251,210,161)" stroke="none" d="M 10862,37662 L 11958,37662 11958,39035 10862,39035 10862,37662 Z M 10869,37672 L 11951,37672 11951,39025 10869,39025 10869,37672 Z"/>
             <path fill="rgb(251,210,162)" stroke="none" d="M 10869,37672 L 11951,37672 11951,39025 10869,39025 10869,37672 Z M 10877,37682 L 11943,37682 11943,39015 10877,39015 10877,37682 Z"/>
             <path fill="rgb(251,211,163)" stroke="none" d="M 10877,37682 L 11943,37682 11943,39015 10877,39015 10877,37682 Z M 10885,37691 L 11935,37691 11935,39006 10885,39006 10885,37691 Z"/>
             <path fill="rgb(251,211,164)" stroke="none" d="M 10885,37691 L 11935,37691 11935,39006 10885,39006 10885,37691 Z M 10892,37701 L 11928,37701 11928,38996 10892,38996 10892,37701 Z"/>
             <path fill="rgb(251,211,165)" stroke="none" d="M 10892,37701 L 11928,37701 11928,38996 10892,38996 10892,37701 Z M 10900,37711 L 11920,37711 11920,38986 10900,38986 10900,37711 Z"/>
             <path fill="rgb(251,212,166)" stroke="none" d="M 10900,37711 L 11920,37711 11920,38986 10900,38986 10900,37711 Z M 10908,37720 L 11912,37720 11912,38977 10908,38977 10908,37720 Z"/>
             <path fill="rgb(251,212,167)" stroke="none" d="M 10908,37720 L 11912,37720 11912,38977 10908,38977 10908,37720 Z M 10916,37730 L 11904,37730 11904,38967 10916,38967 10916,37730 Z"/>
             <path fill="rgb(251,213,168)" stroke="none" d="M 10916,37730 L 11904,37730 11904,38967 10916,38967 10916,37730 Z M 10923,37740 L 11897,37740 11897,38957 10923,38957 10923,37740 Z"/>
             <path fill="rgb(251,213,169)" stroke="none" d="M 10923,37740 L 11897,37740 11897,38957 10923,38957 10923,37740 Z M 10931,37749 L 11889,37749 11889,38948 10931,38948 10931,37749 Z"/>
             <path fill="rgb(251,214,170)" stroke="none" d="M 10931,37749 L 11889,37749 11889,38948 10931,38948 10931,37749 Z M 10939,37759 L 11881,37759 11881,38938 10939,38938 10939,37759 Z"/>
             <path fill="rgb(251,214,171)" stroke="none" d="M 10939,37759 L 11881,37759 11881,38938 10939,38938 10939,37759 Z M 10947,37769 L 11873,37769 11873,38928 10947,38928 10947,37769 Z"/>
             <path fill="rgb(252,215,172)" stroke="none" d="M 10947,37769 L 11873,37769 11873,38928 10947,38928 10947,37769 Z M 10954,37779 L 11866,37779 11866,38918 10954,38918 10954,37779 Z"/>
             <path fill="rgb(252,215,173)" stroke="none" d="M 10954,37779 L 11866,37779 11866,38918 10954,38918 10954,37779 Z M 10962,37788 L 11858,37788 11858,38909 10962,38909 10962,37788 Z"/>
             <path fill="rgb(252,216,174)" stroke="none" d="M 10962,37788 L 11858,37788 11858,38909 10962,38909 10962,37788 Z M 10970,37798 L 11850,37798 11850,38899 10970,38899 10970,37798 Z"/>
             <path fill="rgb(252,216,175)" stroke="none" d="M 10970,37798 L 11850,37798 11850,38899 10970,38899 10970,37798 Z M 10977,37808 L 11842,37808 11842,38889 10977,38889 10977,37808 Z"/>
             <path fill="rgb(252,217,176)" stroke="none" d="M 10977,37808 L 11842,37808 11842,38889 10977,38889 10977,37808 Z M 10984,37816 L 11835,37816 11835,38880 10984,38880 10984,37816 Z"/>
             <path fill="rgb(252,217,177)" stroke="none" d="M 10984,37816 L 11835,37816 11835,38880 10984,38880 10984,37816 Z M 10992,37826 L 11827,37826 11827,38870 10992,38870 10992,37826 Z"/>
             <path fill="rgb(252,218,178)" stroke="none" d="M 10992,37826 L 11827,37826 11827,38870 10992,38870 10992,37826 Z M 11000,37836 L 11819,37836 11819,38860 11000,38860 11000,37836 Z"/>
             <path fill="rgb(252,218,179)" stroke="none" d="M 11000,37836 L 11819,37836 11819,38860 11000,38860 11000,37836 Z M 11008,37845 L 11811,37845 11811,38851 11008,38851 11008,37845 Z"/>
             <path fill="rgb(252,219,180)" stroke="none" d="M 11008,37845 L 11811,37845 11811,38851 11008,38851 11008,37845 Z M 11015,37855 L 11804,37855 11804,38841 11015,38841 11015,37855 Z"/>
             <path fill="rgb(252,219,181)" stroke="none" d="M 11015,37855 L 11804,37855 11804,38841 11015,38841 11015,37855 Z M 11023,37865 L 11796,37865 11796,38831 11023,38831 11023,37865 Z"/>
             <path fill="rgb(252,220,182)" stroke="none" d="M 11023,37865 L 11796,37865 11796,38831 11023,38831 11023,37865 Z M 11031,37874 L 11788,37874 11788,38822 11031,38822 11031,37874 Z"/>
             <path fill="rgb(252,220,183)" stroke="none" d="M 11031,37874 L 11788,37874 11788,38822 11031,38822 11031,37874 Z M 11039,37884 L 11780,37884 11780,38812 11039,38812 11039,37884 Z"/>
             <path fill="rgb(252,221,184)" stroke="none" d="M 11039,37884 L 11780,37884 11780,38812 11039,38812 11039,37884 Z M 11046,37894 L 11773,37894 11773,38802 11046,38802 11046,37894 Z"/>
             <path fill="rgb(252,221,185)" stroke="none" d="M 11046,37894 L 11773,37894 11773,38802 11046,38802 11046,37894 Z M 11054,37903 L 11765,37903 11765,38793 11054,38793 11054,37903 Z"/>
             <path fill="rgb(252,222,186)" stroke="none" d="M 11054,37903 L 11765,37903 11765,38793 11054,38793 11054,37903 Z M 11062,37913 L 11757,37913 11757,38783 11062,38783 11062,37913 Z"/>
             <path fill="rgb(252,222,187)" stroke="none" d="M 11062,37913 L 11757,37913 11757,38783 11062,38783 11062,37913 Z M 11069,37923 L 11750,37923 11750,38773 11069,38773 11069,37923 Z"/>
             <path fill="rgb(252,222,188)" stroke="none" d="M 11069,37923 L 11750,37923 11750,38773 11069,38773 11069,37923 Z M 11077,37932 L 11742,37932 11742,38764 11077,38764 11077,37932 Z"/>
             <path fill="rgb(252,223,189)" stroke="none" d="M 11077,37932 L 11742,37932 11742,38764 11077,38764 11077,37932 Z M 11085,37942 L 11734,37942 11734,38754 11085,38754 11085,37942 Z"/>
             <path fill="rgb(252,223,190)" stroke="none" d="M 11085,37942 L 11734,37942 11734,38754 11085,38754 11085,37942 Z M 11093,37952 L 11726,37952 11726,38744 11093,38744 11093,37952 Z"/>
             <path fill="rgb(252,224,191)" stroke="none" d="M 11093,37952 L 11726,37952 11726,38744 11093,38744 11093,37952 Z M 11100,37961 L 11719,37961 11719,38735 11100,38735 11100,37961 Z"/>
             <path fill="rgb(252,224,192)" stroke="none" d="M 11100,37961 L 11719,37961 11719,38735 11100,38735 11100,37961 Z M 11108,37971 L 11711,37971 11711,38725 11108,38725 11108,37971 Z"/>
             <path fill="rgb(252,225,193)" stroke="none" d="M 11108,37971 L 11711,37971 11711,38725 11108,38725 11108,37971 Z M 11116,37981 L 11703,37981 11703,38715 11116,38715 11116,37981 Z"/>
             <path fill="rgb(252,225,194)" stroke="none" d="M 11116,37981 L 11703,37981 11703,38715 11116,38715 11116,37981 Z M 11124,37990 L 11695,37990 11695,38706 11124,38706 11124,37990 Z"/>
             <path fill="rgb(252,226,195)" stroke="none" d="M 11124,37990 L 11695,37990 11695,38706 11124,38706 11124,37990 Z M 11131,38000 L 11688,38000 11688,38696 11131,38696 11131,38000 Z"/>
             <path fill="rgb(252,226,196)" stroke="none" d="M 11131,38000 L 11688,38000 11688,38696 11131,38696 11131,38000 Z M 11139,38010 L 11680,38010 11680,38686 11139,38686 11139,38010 Z"/>
             <path fill="rgb(252,227,197)" stroke="none" d="M 11139,38010 L 11680,38010 11680,38686 11139,38686 11139,38010 Z M 11147,38019 L 11672,38019 11672,38677 11147,38677 11147,38019 Z"/>
             <path fill="rgb(252,227,198)" stroke="none" d="M 11147,38019 L 11672,38019 11672,38677 11147,38677 11147,38019 Z M 11155,38029 L 11664,38029 11664,38667 11155,38667 11155,38029 Z"/>
             <path fill="rgb(252,228,199)" stroke="none" d="M 11155,38029 L 11664,38029 11664,38667 11155,38667 11155,38029 Z M 11162,38039 L 11657,38039 11657,38657 11162,38657 11162,38039 Z"/>
             <path fill="rgb(252,228,200)" stroke="none" d="M 11162,38039 L 11657,38039 11657,38657 11162,38657 11162,38039 Z M 11170,38048 L 11649,38048 11649,38648 11170,38648 11170,38048 Z"/>
             <path fill="rgb(252,229,201)" stroke="none" d="M 11170,38048 L 11649,38048 11649,38648 11170,38648 11170,38048 Z M 11178,38058 L 11641,38058 11641,38638 11178,38638 11178,38058 Z"/>
             <path fill="rgb(253,229,202)" stroke="none" d="M 11178,38058 L 11641,38058 11641,38638 11178,38638 11178,38058 Z M 11186,38068 L 11633,38068 11633,38628 11186,38628 11186,38068 Z"/>
             <path fill="rgb(253,230,203)" stroke="none" d="M 11186,38068 L 11633,38068 11633,38628 11186,38628 11186,38068 Z M 11193,38078 L 11626,38078 11626,38618 11193,38618 11193,38078 Z"/>
             <path fill="rgb(253,230,204)" stroke="none" d="M 11193,38078 L 11626,38078 11626,38618 11193,38618 11193,38078 Z M 11201,38087 L 11618,38087 11618,38609 11201,38609 11201,38087 Z"/>
             <path fill="rgb(253,231,205)" stroke="none" d="M 11201,38087 L 11618,38087 11618,38609 11201,38609 11201,38087 Z M 11209,38097 L 11610,38097 11610,38599 11209,38599 11209,38097 Z"/>
             <path fill="rgb(253,231,206)" stroke="none" d="M 11209,38097 L 11610,38097 11610,38599 11209,38599 11209,38097 Z M 11217,38107 L 11602,38107 11602,38589 11217,38589 11217,38107 Z"/>
             <path fill="rgb(253,232,207)" stroke="none" d="M 11217,38107 L 11602,38107 11602,38589 11217,38589 11217,38107 Z M 11224,38116 L 11595,38116 11595,38580 11224,38580 11224,38116 Z"/>
             <path fill="rgb(253,232,208)" stroke="none" d="M 11224,38116 L 11595,38116 11595,38580 11224,38580 11224,38116 Z M 11232,38126 L 11587,38126 11587,38570 11232,38570 11232,38126 Z"/>
             <path fill="rgb(253,233,209)" stroke="none" d="M 11232,38126 L 11587,38126 11587,38570 11232,38570 11232,38126 Z M 11240,38136 L 11579,38136 11579,38560 11240,38560 11240,38136 Z"/>
             <path fill="rgb(253,233,210)" stroke="none" d="M 11240,38136 L 11579,38136 11579,38560 11240,38560 11240,38136 Z M 11247,38145 L 11572,38145 11572,38551 11247,38551 11247,38145 Z"/>
             <path fill="rgb(253,233,211)" stroke="none" d="M 11247,38145 L 11572,38145 11572,38551 11247,38551 11247,38145 Z M 11255,38155 L 11564,38155 11564,38541 11255,38541 11255,38155 Z"/>
             <path fill="rgb(253,234,212)" stroke="none" d="M 11255,38155 L 11564,38155 11564,38541 11255,38541 11255,38155 Z M 11263,38165 L 11556,38165 11556,38531 11263,38531 11263,38165 Z"/>
             <path fill="rgb(253,234,213)" stroke="none" d="M 11263,38165 L 11556,38165 11556,38531 11263,38531 11263,38165 Z M 11271,38174 L 11548,38174 11548,38522 11271,38522 11271,38174 Z"/>
             <path fill="rgb(253,235,214)" stroke="none" d="M 11271,38174 L 11548,38174 11548,38522 11271,38522 11271,38174 Z M 11278,38184 L 11541,38184 11541,38512 11278,38512 11278,38184 Z"/>
             <path fill="rgb(253,235,215)" stroke="none" d="M 11278,38184 L 11541,38184 11541,38512 11278,38512 11278,38184 Z M 11286,38194 L 11533,38194 11533,38502 11286,38502 11286,38194 Z"/>
             <path fill="rgb(253,236,216)" stroke="none" d="M 11286,38194 L 11533,38194 11533,38502 11286,38502 11286,38194 Z M 11294,38203 L 11525,38203 11525,38493 11294,38493 11294,38203 Z"/>
             <path fill="rgb(253,236,217)" stroke="none" d="M 11294,38203 L 11525,38203 11525,38493 11294,38493 11294,38203 Z M 11302,38213 L 11517,38213 11517,38483 11302,38483 11302,38213 Z"/>
             <path fill="rgb(253,237,218)" stroke="none" d="M 11302,38213 L 11517,38213 11517,38483 11302,38483 11302,38213 Z M 11309,38223 L 11510,38223 11510,38473 11309,38473 11309,38223 Z"/>
             <path fill="rgb(253,237,219)" stroke="none" d="M 11309,38223 L 11510,38223 11510,38473 11309,38473 11309,38223 Z M 11317,38232 L 11502,38232 11502,38464 11317,38464 11317,38232 Z"/>
             <path fill="rgb(253,238,220)" stroke="none" d="M 11317,38232 L 11502,38232 11502,38464 11317,38464 11317,38232 Z M 11325,38242 L 11494,38242 11494,38454 11325,38454 11325,38242 Z"/>
             <path fill="rgb(253,238,221)" stroke="none" d="M 11325,38242 L 11494,38242 11494,38454 11325,38454 11325,38242 Z M 11333,38252 L 11486,38252 11486,38444 11333,38444 11333,38252 Z"/>
             <path fill="rgb(253,239,222)" stroke="none" d="M 11333,38252 L 11486,38252 11486,38444 11333,38444 11333,38252 Z M 11340,38261 L 11479,38261 11479,38435 11340,38435 11340,38261 Z"/>
             <path fill="rgb(253,239,223)" stroke="none" d="M 11340,38261 L 11479,38261 11479,38435 11340,38435 11340,38261 Z M 11348,38271 L 11471,38271 11471,38425 11348,38425 11348,38271 Z"/>
             <path fill="rgb(253,240,224)" stroke="none" d="M 11348,38271 L 11471,38271 11471,38425 11348,38425 11348,38271 Z M 11356,38281 L 11463,38281 11463,38415 11356,38415 11356,38281 Z"/>
             <path fill="rgb(253,240,225)" stroke="none" d="M 11356,38281 L 11463,38281 11463,38415 11356,38415 11356,38281 Z M 11364,38290 L 11455,38290 11455,38406 11364,38406 11364,38290 Z"/>
             <path fill="rgb(253,241,226)" stroke="none" d="M 11364,38290 L 11455,38290 11455,38406 11364,38406 11364,38290 Z M 11371,38300 L 11448,38300 11448,38396 11371,38396 11371,38300 Z"/>
             <path fill="rgb(253,241,227)" stroke="none" d="M 11371,38300 L 11448,38300 11448,38396 11371,38396 11371,38300 Z M 11379,38310 L 11440,38310 11440,38386 11379,38386 11379,38310 Z"/>
             <path fill="rgb(253,242,228)" stroke="none" d="M 11379,38310 L 11440,38310 11440,38386 11379,38386 11379,38310 Z M 11387,38319 L 11432,38319 11432,38377 11387,38377 11387,38319 Z"/>
             <path fill="rgb(253,242,229)" stroke="none" d="M 11387,38319 L 11432,38319 11432,38377 11387,38377 11387,38319 Z M 11395,38329 L 11424,38329 11424,38367 11395,38367 11395,38329 Z"/>
             <path fill="rgb(253,243,230)" stroke="none" d="M 11395,38329 L 11424,38329 11424,38367 11395,38367 11395,38329 Z M 11402,38339 L 11417,38339 11417,38357 11402,38357 11402,38339 Z"/>
             <path fill="rgb(254,244,232)" stroke="none" d="M 11402,38339 L 11417,38339 11417,38357 11402,38357 11402,38339 Z"/>
            </g>
           </pattern>
          </defs>
          <path style="fill:url(#pattern3)" d="M 11691,37828 L 11618,37830 11548,37835 11480,37844 11416,37857 11355,37875 11297,37898 11244,37927 11195,37961 11150,38002 11111,38050 11076,38104 11048,38166 11025,38236 11008,38314 10997,38400 10994,38496 10997,38596 11008,38696 11025,38794 11048,38889 11076,38982 11111,39070 11150,39154 11195,39233 11244,39305 11297,39369 11355,39427 11416,39475 11480,39514 11548,39543 11618,39561 11654,39565 11691,39567 11763,39562 11833,39546 11901,39520 11965,39485 12025,39440 12083,39388 12136,39327 12185,39258 12229,39183 12268,39101 12302,39012 12331,38919 12354,38819 12370,38716 12381,38608 12384,38496 12381,38388 12370,38293 12354,38209 12331,38136 12302,38072 12268,38018 12229,37972 12185,37934 12136,37904 12083,37879 12025,37861 11965,37847 11901,37838 11833,37832 11691,37828 Z"/>
         </g>
         <path fill="none" stroke="rgb(255,255,255)" stroke-width="40" stroke-linejoin="round" d="M 11691,37828 C 11297,37828 10994,37961 10994,38496 10994,39032 11297,39567 11691,39567 12083,39567 12384,39101 12384,38496 12384,37889 12083,37828 11691,37828 Z"/>
        </g>
       </g>
       <g class="com.sun.star.drawing.ClosedBezierShape">
        <g id="id13">
         <rect class="BoundingBox" stroke="none" fill="none" x="10435" y="37139" width="1973" height="2489"/>
         <g>
          <defs>
           <linearGradient id="gradient3" x1="11420" y1="39605" x2="11420" y2="37158" gradientUnits="userSpaceOnUse">
            <stop offset="0.1" style="stop-color:rgb(102,102,102)"/>
            <stop offset="1" style="stop-color:rgb(153,153,153)"/>
           </linearGradient>
          </defs>
          <path style="fill:url(#gradient3)" d="M 11150,37159 L 11337,37166 11543,37188 11755,37229 11857,37258 11956,37292 12049,37333 12135,37381 12210,37435 12275,37497 12302,37531 12326,37567 12347,37605 12363,37645 12375,37687 12383,37731 12386,37778 12385,37827 12361,37849 12335,37868 12305,37885 12273,37900 12202,37924 12123,37943 12038,37956 11949,37965 11765,37976 11587,37985 11428,38002 11361,38016 11304,38036 11280,38048 11260,38062 11242,38078 11229,38096 11169,38216 11126,38345 11096,38481 11078,38621 11064,38900 11063,39160 11054,39379 11040,39466 11030,39503 11016,39534 10999,39561 10979,39581 10968,39590 10955,39596 10927,39604 10895,39606 10857,39600 10815,39587 10767,39566 10652,39319 10565,39079 10505,38848 10469,38626 10455,38416 10461,38217 10485,38032 10525,37862 10578,37706 10642,37568 10716,37448 10797,37347 10883,37267 10927,37234 10972,37208 11017,37187 11062,37171 11106,37162 11150,37159 Z"/>
         </g>
         <path fill="none" stroke="rgb(102,102,102)" stroke-width="40" stroke-linejoin="round" d="M 11150,37159 C 11611,37159 12428,37292 12385,37827 12151,38070 11352,37891 11229,38096 10862,38707 11309,39832 10767,39566 10074,38230 10687,37159 11150,37159 Z"/>
        </g>
       </g>
       <g class="com.sun.star.drawing.ClosedBezierShape">
        <g id="id14">
         <rect class="BoundingBox" stroke="none" fill="none" x="9865" y="36471" width="5794" height="5021"/>
         <path fill="none" stroke="rgb(0,0,0)" stroke-width="40" stroke-linejoin="round" d="M 13774,36491 C 13311,36491 12575,36491 12618,37026 12634,37077 12772,37115 12849,37159 12387,38096 12849,39164 13311,39164 12849,39300 12546,39616 12445,40142 12302,39877 12142,39694 11925,39700 L 11930,39505 C 12413,39231 12557,38273 12155,37963 12155,37963 12448,37908 12387,37828 12456,37179 11069,37053 10930,37220 10525,37402 10171,38728 10808,39647 9972,39713 9972,40720 9886,41267 10764,41726 12112,41329 12549,40866 13231,41433 15030,41537 15630,41066 15707,40054 15172,39143 14312,39066 14317,38848 14274,38679 14274,38456 14351,38411 14413,38419 14469,38363 14932,37159 14235,36491 13774,36491 Z"/>
        </g>
       </g>
      </g>
     </g>
    </g>
   </g>
  </g>
 </g>
</svg>