<?xml version="1.0" encoding="UTF-8"?>
<!DOCTYPE svg PUBLIC "-//W3C//DTD SVG 1.1//EN" "http://www.w3.org/Graphics/SVG/1.1/DTD/svg11.dtd">
<svg version="1.2" width="33.13mm" height="28.43mm" viewBox="2870 23749 3313 2843" preserveAspectRatio="xMidYMid" fill-rule="evenodd" stroke-width="28.222" stroke-linejoin="round" xmlns="http://www.w3.org/2000/svg" xmlns:ooo="http://xml.openoffice.org/svg/export" xmlns:xlink="http://www.w3.org/1999/xlink" xmlns:presentation="http://sun.com/xmlns/staroffice/presentation" xmlns:smil="http://www.w3.org/2001/SMIL20/" xmlns:anim="urn:oasis:names:tc:opendocument:xmlns:animation:1.0" xml:space="preserve">
 <defs class="ClipPathGroup">
  <clipPath id="presentation_clip_path" clipPathUnits="userSpaceOnUse">
   <rect x="2870" y="23749" width="3313" height="2843"/>
  </clipPath>
 </defs>
 <defs class="TextShapeIndex">
  <g ooo:slide="id1" ooo:id-list="id3 id4 id5 id6 id7 id8 id9 id10 id11 id12 id13 id14 id15 id16 id17 id18 id19 id20 id21 id22 id23 id24"/>
 </defs>
 <defs class="EmbeddedBulletChars">
  <g id="bullet-char-template(57356)" transform="scale(0.00048828125,-0.00048828125)">
   <path d="M 580,1141 L 1163,571 580,0 -4,571 580,1141 Z"/>
  </g>
  <g id="bullet-char-template(57354)" transform="scale(0.00048828125,-0.00048828125)">
   <path d="M 8,1128 L 1137,1128 1137,0 8,0 8,1128 Z"/>
  </g>
  <g id="bullet-char-template(10146)" transform="scale(0.00048828125,-0.00048828125)">
   <path d="M 174,0 L 602,739 174,1481 1456,739 174,0 Z M 1358,739 L 309,1346 659,739 1358,739 Z"/>
  </g>
  <g id="bullet-char-template(10132)" transform="scale(0.00048828125,-0.00048828125)">
   <path d="M 2015,739 L 1276,0 717,0 1260,543 174,543 174,936 1260,936 717,1481 1274,1481 2015,739 Z"/>
  </g>
  <g id="bullet-char-template(10007)" transform="scale(0.00048828125,-0.00048828125)">
   <path d="M 0,-2 C -7,14 -16,27 -25,37 L 356,567 C 262,823 215,952 215,954 215,979 228,992 255,992 264,992 276,990 289,987 310,991 331,999 354,1012 L 381,999 492,748 772,1049 836,1024 860,1049 C 881,1039 901,1025 922,1006 886,937 835,863 770,784 769,783 710,716 594,584 L 774,223 C 774,196 753,168 711,139 L 727,119 C 717,90 699,76 672,76 641,76 570,178 457,381 L 164,-76 C 142,-110 111,-127 72,-127 30,-127 9,-110 8,-76 1,-67 -2,-52 -2,-32 -2,-23 -1,-13 0,-2 Z"/>
  </g>
  <g id="bullet-char-template(10004)" transform="scale(0.00048828125,-0.00048828125)">
   <path d="M 285,-33 C 182,-33 111,30 74,156 52,228 41,333 41,471 41,549 55,616 82,672 116,743 169,778 240,778 293,778 328,747 346,684 L 369,508 C 377,444 397,411 428,410 L 1163,1116 C 1174,1127 1196,1133 1229,1133 1271,1133 1292,1118 1292,1087 L 1292,965 C 1292,929 1282,901 1262,881 L 442,47 C 390,-6 338,-33 285,-33 Z"/>
  </g>
  <g id="bullet-char-template(9679)" transform="scale(0.00048828125,-0.00048828125)">
   <path d="M 813,0 C 632,0 489,54 383,161 276,268 223,411 223,592 223,773 276,916 383,1023 489,1130 632,1184 813,1184 992,1184 1136,1130 1245,1023 1353,916 1407,772 1407,592 1407,412 1353,268 1245,161 1136,54 992,0 813,0 Z"/>
  </g>
  <g id="bullet-char-template(8226)" transform="scale(0.00048828125,-0.00048828125)">
   <path d="M 346,457 C 273,457 209,483 155,535 101,586 74,649 74,723 74,796 101,859 155,911 209,963 273,989 346,989 419,989 480,963 531,910 582,859 608,796 608,723 608,648 583,586 532,535 482,483 420,457 346,457 Z"/>
  </g>
  <g id="bullet-char-template(8211)" transform="scale(0.00048828125,-0.00048828125)">
   <path d="M -4,459 L 1135,459 1135,606 -4,606 -4,459 Z"/>
  </g>
 </defs>
 <defs class="TextEmbeddedBitmaps"/>
 <g class="SlideGroup">
  <g>
   <g id="id1" class="Slide" clip-path="url(#presentation_clip_path)">
    <g class="Page">
     <g class="Group">
      <g class="com.sun.star.drawing.ClosedBezierShape">
       <g id="id3">
        <rect class="BoundingBox" stroke="none" fill="none" x="4684" y="25642" width="1417" height="951"/>
        <path fill="rgb(221,221,221)" stroke="none" d="M 4720,26572 C 5054,26572 5438,26572 5923,26222 6408,25872 5644,25662 5312,25662 5312,25872 4589,25802 4720,26572 Z"/>
        <path fill="none" stroke="rgb(221,221,221)" stroke-width="40" stroke-linejoin="round" d="M 4720,26572 C 5054,26572 5438,26572 5923,26222 6408,25872 5644,25662 5312,25662 5312,25872 4589,25802 4720,26572 Z"/>
       </g>
      </g>
      <g class="Group">
       <g class="com.sun.star.drawing.PolyPolygonShape">
        <g id="id4">
         <rect class="BoundingBox" stroke="none" fill="none" x="4203" y="24660" width="890" height="1933"/>
         <g>
          <defs>
           <pattern id="pattern1" x="4223" y="24680" width="850" height="1893" patternUnits="userSpaceOnUse">
            <g transform="translate(-4223,-24680)">
             <path fill="rgb(102,102,102)" stroke="none" d="M 4222,24679 L 5073,24679 5073,26573 4222,26573 4222,24679 Z M 4060,24319 L 4893,24319 4893,26175 4060,26175 4060,24319 Z"/>
             <path fill="rgb(103,103,103)" stroke="none" d="M 4060,24319 L 4893,24319 4893,26175 4060,26175 4060,24319 Z M 4068,24338 L 4885,24338 4885,26156 4068,26156 4068,24338 Z"/>
             <path fill="rgb(104,104,104)" stroke="none" d="M 4068,24338 L 4885,24338 4885,26156 4068,26156 4068,24338 Z M 4077,24356 L 4876,24356 4876,26138 4077,26138 4077,24356 Z"/>
             <path fill="rgb(105,105,105)" stroke="none" d="M 4077,24356 L 4876,24356 4876,26138 4077,26138 4077,24356 Z M 4085,24375 L 4868,24375 4868,26119 4085,26119 4085,24375 Z"/>
             <path fill="rgb(106,106,106)" stroke="none" d="M 4085,24375 L 4868,24375 4868,26119 4085,26119 4085,24375 Z M 4093,24393 L 4860,24393 4860,26101 4093,26101 4093,24393 Z"/>
             <path fill="rgb(107,107,107)" stroke="none" d="M 4093,24393 L 4860,24393 4860,26101 4093,26101 4093,24393 Z M 4102,24412 L 4851,24412 4851,26082 4102,26082 4102,24412 Z"/>
             <path fill="rgb(108,108,108)" stroke="none" d="M 4102,24412 L 4851,24412 4851,26082 4102,26082 4102,24412 Z M 4110,24431 L 4843,24431 4843,26063 4110,26063 4110,24431 Z"/>
             <path fill="rgb(109,109,109)" stroke="none" d="M 4110,24431 L 4843,24431 4843,26063 4110,26063 4110,24431 Z M 4118,24449 L 4835,24449 4835,26045 4118,26045 4118,24449 Z"/>
             <path fill="rgb(110,110,110)" stroke="none" d="M 4118,24449 L 4835,24449 4835,26045 4118,26045 4118,24449 Z M 4127,24468 L 4826,24468 4826,26026 4127,26026 4127,24468 Z"/>
             <path fill="rgb(111,111,111)" stroke="none" d="M 4127,24468 L 4826,24468 4826,26026 4127,26026 4127,24468 Z M 4135,24486 L 4818,24486 4818,26008 4135,26008 4135,24486 Z"/>
             <path fill="rgb(112,112,112)" stroke="none" d="M 4135,24486 L 4818,24486 4818,26008 4135,26008 4135,24486 Z M 4143,24505 L 4810,24505 4810,25989 4143,25989 4143,24505 Z"/>
             <path fill="rgb(113,113,113)" stroke="none" d="M 4143,24505 L 4810,24505 4810,25989 4143,25989 4143,24505 Z M 4152,24523 L 4801,24523 4801,25971 4152,25971 4152,24523 Z"/>
             <path fill="rgb(114,114,114)" stroke="none" d="M 4152,24523 L 4801,24523 4801,25971 4152,25971 4152,24523 Z M 4160,24542 L 4793,24542 4793,25952 4160,25952 4160,24542 Z"/>
             <path fill="rgb(115,115,115)" stroke="none" d="M 4160,24542 L 4793,24542 4793,25952 4160,25952 4160,24542 Z M 4168,24561 L 4785,24561 4785,25933 4168,25933 4168,24561 Z"/>
             <path fill="rgb(116,116,116)" stroke="none" d="M 4168,24561 L 4785,24561 4785,25933 4168,25933 4168,24561 Z M 4177,24579 L 4776,24579 4776,25915 4177,25915 4177,24579 Z"/>
             <path fill="rgb(117,117,117)" stroke="none" d="M 4177,24579 L 4776,24579 4776,25915 4177,25915 4177,24579 Z M 4185,24598 L 4768,24598 4768,25896 4185,25896 4185,24598 Z"/>
             <path fill="rgb(118,118,118)" stroke="none" d="M 4185,24598 L 4768,24598 4768,25896 4185,25896 4185,24598 Z M 4194,24616 L 4759,24616 4759,25878 4194,25878 4194,24616 Z"/>
             <path fill="rgb(119,119,119)" stroke="none" d="M 4194,24616 L 4759,24616 4759,25878 4194,25878 4194,24616 Z M 4202,24635 L 4751,24635 4751,25859 4202,25859 4202,24635 Z"/>
             <path fill="rgb(120,120,120)" stroke="none" d="M 4202,24635 L 4751,24635 4751,25859 4202,25859 4202,24635 Z M 4209,24653 L 4743,24653 4743,25841 4209,25841 4209,24653 Z"/>
             <path fill="rgb(121,121,121)" stroke="none" d="M 4209,24653 L 4743,24653 4743,25841 4209,25841 4209,24653 Z M 4218,24671 L 4734,24671 4734,25822 4218,25822 4218,24671 Z"/>
             <path fill="rgb(122,122,122)" stroke="none" d="M 4218,24671 L 4734,24671 4734,25822 4218,25822 4218,24671 Z M 4226,24690 L 4726,24690 4726,25803 4226,25803 4226,24690 Z"/>
             <path fill="rgb(123,123,123)" stroke="none" d="M 4226,24690 L 4726,24690 4726,25803 4226,25803 4226,24690 Z M 4234,24708 L 4718,24708 4718,25785 4234,25785 4234,24708 Z"/>
             <path fill="rgb(124,124,124)" stroke="none" d="M 4234,24708 L 4718,24708 4718,25785 4234,25785 4234,24708 Z M 4243,24727 L 4709,24727 4709,25766 4243,25766 4243,24727 Z"/>
             <path fill="rgb(125,125,125)" stroke="none" d="M 4243,24727 L 4709,24727 4709,25766 4243,25766 4243,24727 Z M 4251,24745 L 4701,24745 4701,25748 4251,25748 4251,24745 Z"/>
             <path fill="rgb(126,126,126)" stroke="none" d="M 4251,24745 L 4701,24745 4701,25748 4251,25748 4251,24745 Z M 4259,24764 L 4693,24764 4693,25729 4259,25729 4259,24764 Z"/>
             <path fill="rgb(127,127,127)" stroke="none" d="M 4259,24764 L 4693,24764 4693,25729 4259,25729 4259,24764 Z M 4268,24783 L 4684,24783 4684,25710 4268,25710 4268,24783 Z"/>
             <path fill="rgb(128,128,128)" stroke="none" d="M 4268,24783 L 4684,24783 4684,25710 4268,25710 4268,24783 Z M 4276,24801 L 4676,24801 4676,25692 4276,25692 4276,24801 Z"/>
             <path fill="rgb(129,129,129)" stroke="none" d="M 4276,24801 L 4676,24801 4676,25692 4276,25692 4276,24801 Z M 4284,24820 L 4668,24820 4668,25673 4284,25673 4284,24820 Z"/>
             <path fill="rgb(130,130,130)" stroke="none" d="M 4284,24820 L 4668,24820 4668,25673 4284,25673 4284,24820 Z M 4293,24838 L 4659,24838 4659,25655 4293,25655 4293,24838 Z"/>
             <path fill="rgb(131,131,131)" stroke="none" d="M 4293,24838 L 4659,24838 4659,25655 4293,25655 4293,24838 Z M 4301,24857 L 4651,24857 4651,25636 4301,25636 4301,24857 Z"/>
             <path fill="rgb(132,132,132)" stroke="none" d="M 4301,24857 L 4651,24857 4651,25636 4301,25636 4301,24857 Z M 4309,24875 L 4643,24875 4643,25618 4309,25618 4309,24875 Z"/>
             <path fill="rgb(133,133,133)" stroke="none" d="M 4309,24875 L 4643,24875 4643,25618 4309,25618 4309,24875 Z M 4318,24894 L 4634,24894 4634,25599 4318,25599 4318,24894 Z"/>
             <path fill="rgb(134,134,134)" stroke="none" d="M 4318,24894 L 4634,24894 4634,25599 4318,25599 4318,24894 Z M 4326,24913 L 4626,24913 4626,25580 4326,25580 4326,24913 Z"/>
             <path fill="rgb(135,135,135)" stroke="none" d="M 4326,24913 L 4626,24913 4626,25580 4326,25580 4326,24913 Z M 4335,24931 L 4617,24931 4617,25562 4335,25562 4335,24931 Z"/>
             <path fill="rgb(136,136,136)" stroke="none" d="M 4335,24931 L 4617,24931 4617,25562 4335,25562 4335,24931 Z M 4343,24950 L 4609,24950 4609,25543 4343,25543 4343,24950 Z"/>
             <path fill="rgb(137,137,137)" stroke="none" d="M 4343,24950 L 4609,24950 4609,25543 4343,25543 4343,24950 Z M 4351,24968 L 4601,24968 4601,25525 4351,25525 4351,24968 Z"/>
             <path fill="rgb(138,138,138)" stroke="none" d="M 4351,24968 L 4601,24968 4601,25525 4351,25525 4351,24968 Z M 4360,24987 L 4592,24987 4592,25506 4360,25506 4360,24987 Z"/>
             <path fill="rgb(139,139,139)" stroke="none" d="M 4360,24987 L 4592,24987 4592,25506 4360,25506 4360,24987 Z M 4368,25005 L 4584,25005 4584,25488 4368,25488 4368,25005 Z"/>
             <path fill="rgb(140,140,140)" stroke="none" d="M 4368,25005 L 4584,25005 4584,25488 4368,25488 4368,25005 Z M 4376,25024 L 4576,25024 4576,25469 4376,25469 4376,25024 Z"/>
             <path fill="rgb(141,141,141)" stroke="none" d="M 4376,25024 L 4576,25024 4576,25469 4376,25469 4376,25024 Z M 4385,25043 L 4567,25043 4567,25450 4385,25450 4385,25043 Z"/>
             <path fill="rgb(142,142,142)" stroke="none" d="M 4385,25043 L 4567,25043 4567,25450 4385,25450 4385,25043 Z M 4393,25061 L 4559,25061 4559,25432 4393,25432 4393,25061 Z"/>
             <path fill="rgb(143,143,143)" stroke="none" d="M 4393,25061 L 4559,25061 4559,25432 4393,25432 4393,25061 Z M 4401,25080 L 4551,25080 4551,25413 4401,25413 4401,25080 Z"/>
             <path fill="rgb(144,144,144)" stroke="none" d="M 4401,25080 L 4551,25080 4551,25413 4401,25413 4401,25080 Z M 4410,25098 L 4542,25098 4542,25395 4410,25395 4410,25098 Z"/>
             <path fill="rgb(145,145,145)" stroke="none" d="M 4410,25098 L 4542,25098 4542,25395 4410,25395 4410,25098 Z M 4418,25117 L 4534,25117 4534,25376 4418,25376 4418,25117 Z"/>
             <path fill="rgb(146,146,146)" stroke="none" d="M 4418,25117 L 4534,25117 4534,25376 4418,25376 4418,25117 Z M 4426,25136 L 4526,25136 4526,25357 4426,25357 4426,25136 Z"/>
             <path fill="rgb(147,147,147)" stroke="none" d="M 4426,25136 L 4526,25136 4526,25357 4426,25357 4426,25136 Z M 4435,25154 L 4517,25154 4517,25339 4435,25339 4435,25154 Z"/>
             <path fill="rgb(148,148,148)" stroke="none" d="M 4435,25154 L 4517,25154 4517,25339 4435,25339 4435,25154 Z M 4443,25173 L 4509,25173 4509,25320 4443,25320 4443,25173 Z"/>
             <path fill="rgb(149,149,149)" stroke="none" d="M 4443,25173 L 4509,25173 4509,25320 4443,25320 4443,25173 Z M 4451,25191 L 4501,25191 4501,25302 4451,25302 4451,25191 Z"/>
             <path fill="rgb(150,150,150)" stroke="none" d="M 4451,25191 L 4501,25191 4501,25302 4451,25302 4451,25191 Z M 4460,25210 L 4492,25210 4492,25283 4460,25283 4460,25210 Z"/>
             <path fill="rgb(151,151,151)" stroke="none" d="M 4460,25210 L 4492,25210 4492,25283 4460,25283 4460,25210 Z M 4468,25228 L 4484,25228 4484,25265 4468,25265 4468,25228 Z"/>
             <path fill="rgb(153,153,153)" stroke="none" d="M 4468,25228 L 4484,25228 4484,25265 4468,25265 4468,25228 Z"/>
            </g>
           </pattern>
          </defs>
          <path style="fill:url(#pattern1)" d="M 5072,26362 L 4587,24680 4223,24890 4708,26572 5072,26362 Z"/>
         </g>
         <path fill="none" stroke="rgb(178,178,178)" stroke-width="40" stroke-linejoin="round" d="M 5072,26362 L 4587,24680 4223,24890 4708,26572 5072,26362 Z"/>
        </g>
       </g>
       <g class="com.sun.star.drawing.PolyPolygonShape">
        <g id="id5">
         <rect class="BoundingBox" stroke="none" fill="none" x="3960" y="25011" width="769" height="1582"/>
         <g>
          <defs>
           <linearGradient id="gradient1" x1="4709" y1="25801" x2="3978" y2="25801" gradientUnits="userSpaceOnUse">
            <stop offset="0.1" style="stop-color:rgb(102,102,102)"/>
            <stop offset="1" style="stop-color:rgb(153,153,153)"/>
           </linearGradient>
          </defs>
          <path style="fill:url(#gradient1)" d="M 4708,26572 L 4344,25241 3980,25031 4344,26362 4708,26572 Z"/>
         </g>
         <path fill="none" stroke="rgb(178,178,178)" stroke-width="40" stroke-linejoin="round" d="M 4708,26572 L 4344,25241 3980,25031 4344,26362 4708,26572 Z"/>
        </g>
       </g>
       <g class="com.sun.star.drawing.PolyPolygonShape">
        <g id="id6">
         <rect class="BoundingBox" stroke="none" fill="none" x="2869" y="23749" width="3315" height="1933"/>
         <g>
          <defs>
           <linearGradient id="gradient2" x1="4526" y1="23769" x2="4526" y2="25661" gradientUnits="userSpaceOnUse">
            <stop offset="0.1" style="stop-color:rgb(51,51,51)"/>
            <stop offset="1" style="stop-color:rgb(153,153,153)"/>
           </linearGradient>
          </defs>
          <path style="fill:url(#gradient2)" d="M 5193,25661 L 6163,25100 3860,23769 2890,24330 5193,25661 Z"/>
         </g>
         <path fill="none" stroke="rgb(178,178,178)" stroke-width="40" stroke-linejoin="round" d="M 5193,25661 L 6163,25100 3860,23769 2890,24330 5193,25661 Z"/>
        </g>
       </g>
       <g class="com.sun.star.drawing.PolyPolygonShape">
        <g id="id7">
         <rect class="BoundingBox" stroke="none" fill="none" x="4082" y="24450" width="1859" height="1092"/>
         <path fill="rgb(51,51,51)" stroke="none" d="M 5920,25031 L 4950,24470 4102,24961 5071,25521 5920,25031 Z"/>
         <path fill="none" stroke="rgb(178,178,178)" stroke-width="40" stroke-linejoin="round" d="M 5920,25031 L 4950,24470 4102,24961 5071,25521 5920,25031 Z"/>
        </g>
       </g>
       <g class="com.sun.star.drawing.PolyPolygonShape">
        <g id="id8">
         <rect class="BoundingBox" stroke="none" fill="none" x="3232" y="23959" width="1618" height="952"/>
         <g>
          <defs>
           <linearGradient id="gradient3" x1="3252" y1="24434" x2="4829" y2="24434" gradientUnits="userSpaceOnUse">
            <stop offset="0.1" style="stop-color:rgb(147,212,240)"/>
            <stop offset="1" style="stop-color:rgb(233,246,252)"/>
           </linearGradient>
          </defs>
          <path style="fill:url(#gradient3)" d="M 4829,24399 L 4101,23979 3252,24470 3980,24890 4829,24399 Z"/>
         </g>
         <path fill="none" stroke="rgb(51,51,51)" stroke-width="40" stroke-linejoin="round" d="M 4829,24399 L 4101,23979 3252,24470 3980,24890 4829,24399 Z"/>
        </g>
       </g>
       <g class="com.sun.star.drawing.PolyPolygonShape">
        <g id="id9">
         <rect class="BoundingBox" stroke="none" fill="none" x="2870" y="24309" width="2344" height="1724"/>
         <g>
          <defs>
           <linearGradient id="gradient4" x1="2889" y1="25171" x2="5193" y2="25171" gradientUnits="userSpaceOnUse">
            <stop offset="0.1" style="stop-color:rgb(102,102,102)"/>
            <stop offset="1" style="stop-color:rgb(153,153,153)"/>
           </linearGradient>
          </defs>
          <path style="fill:url(#gradient4)" d="M 5193,26012 L 5193,25661 2890,24330 2890,24680 5193,26012 Z"/>
         </g>
         <path fill="none" stroke="rgb(178,178,178)" stroke-width="40" stroke-linejoin="round" d="M 5193,26012 L 5193,25661 2890,24330 2890,24680 5193,26012 Z"/>
        </g>
       </g>
       <g class="com.sun.star.drawing.LineShape">
        <g id="id10">
         <rect class="BoundingBox" stroke="none" fill="none" x="4324" y="24591" width="890" height="532"/>
         <path fill="none" stroke="rgb(178,178,178)" stroke-width="40" stroke-linejoin="round" d="M 5193,24611 L 4344,25102"/>
        </g>
       </g>
       <g class="com.sun.star.drawing.LineShape">
        <g id="id11">
         <rect class="BoundingBox" stroke="none" fill="none" x="4203" y="24870" width="890" height="532"/>
         <path fill="none" stroke="rgb(178,178,178)" stroke-width="40" stroke-linejoin="round" d="M 5072,25381 L 4223,24890"/>
        </g>
       </g>
       <g class="com.sun.star.drawing.LineShape">
        <g id="id12">
         <rect class="BoundingBox" stroke="none" fill="none" x="4809" y="24520" width="1011" height="602"/>
         <path fill="none" stroke="rgb(178,178,178)" stroke-width="40" stroke-linejoin="round" d="M 5799,25101 L 4829,24540"/>
        </g>
       </g>
       <g class="com.sun.star.drawing.LineShape">
        <g id="id13">
         <rect class="BoundingBox" stroke="none" fill="none" x="4688" y="24591" width="1011" height="602"/>
         <path fill="none" stroke="rgb(178,178,178)" stroke-width="40" stroke-linejoin="round" d="M 5678,25172 L 4708,24611"/>
        </g>
       </g>
       <g class="com.sun.star.drawing.LineShape">
        <g id="id14">
         <rect class="BoundingBox" stroke="none" fill="none" x="4688" y="24730" width="890" height="532"/>
         <path fill="none" stroke="rgb(178,178,178)" stroke-width="40" stroke-linejoin="round" d="M 5557,25241 L 4708,24750"/>
        </g>
       </g>
       <g class="com.sun.star.drawing.PolyPolygonShape">
        <g id="id15">
         <rect class="BoundingBox" stroke="none" fill="none" x="5173" y="25080" width="1012" height="953"/>
         <g>
          <defs>
           <pattern id="pattern2" x="5193" y="25100" width="971" height="912" patternUnits="userSpaceOnUse">
            <g transform="translate(-5193,-25100)">
             <path fill="rgb(102,102,102)" stroke="none" d="M 5192,25099 L 6164,25099 6164,26012 5192,26012 5192,25099 Z M 5007,24925 L 5959,24925 5959,25820 5007,25820 5007,24925 Z"/>
             <path fill="rgb(103,103,103)" stroke="none" d="M 5007,24925 L 5959,24925 5959,25820 5007,25820 5007,24925 Z M 5017,24934 L 5949,24934 5949,25811 5017,25811 5017,24934 Z"/>
             <path fill="rgb(104,104,104)" stroke="none" d="M 5017,24934 L 5949,24934 5949,25811 5017,25811 5017,24934 Z M 5026,24943 L 5940,24943 5940,25802 5026,25802 5026,24943 Z"/>
             <path fill="rgb(105,105,105)" stroke="none" d="M 5026,24943 L 5940,24943 5940,25802 5026,25802 5026,24943 Z M 5036,24952 L 5930,24952 5930,25793 5036,25793 5036,24952 Z"/>
             <path fill="rgb(106,106,106)" stroke="none" d="M 5036,24952 L 5930,24952 5930,25793 5036,25793 5036,24952 Z M 5045,24961 L 5921,24961 5921,25784 5045,25784 5045,24961 Z"/>
             <path fill="rgb(107,107,107)" stroke="none" d="M 5045,24961 L 5921,24961 5921,25784 5045,25784 5045,24961 Z M 5055,24970 L 5911,24970 5911,25775 5055,25775 5055,24970 Z"/>
             <path fill="rgb(108,108,108)" stroke="none" d="M 5055,24970 L 5911,24970 5911,25775 5055,25775 5055,24970 Z M 5064,24979 L 5902,24979 5902,25766 5064,25766 5064,24979 Z"/>
             <path fill="rgb(109,109,109)" stroke="none" d="M 5064,24979 L 5902,24979 5902,25766 5064,25766 5064,24979 Z M 5074,24988 L 5892,24988 5892,25757 5074,25757 5074,24988 Z"/>
             <path fill="rgb(110,110,110)" stroke="none" d="M 5074,24988 L 5892,24988 5892,25757 5074,25757 5074,24988 Z M 5083,24997 L 5883,24997 5883,25748 5083,25748 5083,24997 Z"/>
             <path fill="rgb(111,111,111)" stroke="none" d="M 5083,24997 L 5883,24997 5883,25748 5083,25748 5083,24997 Z M 5093,25006 L 5873,25006 5873,25739 5093,25739 5093,25006 Z"/>
             <path fill="rgb(112,112,112)" stroke="none" d="M 5093,25006 L 5873,25006 5873,25739 5093,25739 5093,25006 Z M 5102,25015 L 5864,25015 5864,25730 5102,25730 5102,25015 Z"/>
             <path fill="rgb(113,113,113)" stroke="none" d="M 5102,25015 L 5864,25015 5864,25730 5102,25730 5102,25015 Z M 5112,25024 L 5854,25024 5854,25721 5112,25721 5112,25024 Z"/>
             <path fill="rgb(114,114,114)" stroke="none" d="M 5112,25024 L 5854,25024 5854,25721 5112,25721 5112,25024 Z M 5122,25033 L 5844,25033 5844,25712 5122,25712 5122,25033 Z"/>
             <path fill="rgb(115,115,115)" stroke="none" d="M 5122,25033 L 5844,25033 5844,25712 5122,25712 5122,25033 Z M 5131,25042 L 5835,25042 5835,25703 5131,25703 5131,25042 Z"/>
             <path fill="rgb(116,116,116)" stroke="none" d="M 5131,25042 L 5835,25042 5835,25703 5131,25703 5131,25042 Z M 5141,25051 L 5825,25051 5825,25694 5141,25694 5141,25051 Z"/>
             <path fill="rgb(117,117,117)" stroke="none" d="M 5141,25051 L 5825,25051 5825,25694 5141,25694 5141,25051 Z M 5150,25060 L 5816,25060 5816,25685 5150,25685 5150,25060 Z"/>
             <path fill="rgb(118,118,118)" stroke="none" d="M 5150,25060 L 5816,25060 5816,25685 5150,25685 5150,25060 Z M 5160,25069 L 5806,25069 5806,25676 5160,25676 5160,25069 Z"/>
             <path fill="rgb(119,119,119)" stroke="none" d="M 5160,25069 L 5806,25069 5806,25676 5160,25676 5160,25069 Z M 5169,25078 L 5797,25078 5797,25667 5169,25667 5169,25078 Z"/>
             <path fill="rgb(120,120,120)" stroke="none" d="M 5169,25078 L 5797,25078 5797,25667 5169,25667 5169,25078 Z M 5178,25086 L 5787,25086 5787,25658 5178,25658 5178,25086 Z"/>
             <path fill="rgb(121,121,121)" stroke="none" d="M 5178,25086 L 5787,25086 5787,25658 5178,25658 5178,25086 Z M 5187,25095 L 5778,25095 5778,25649 5187,25649 5187,25095 Z"/>
             <path fill="rgb(122,122,122)" stroke="none" d="M 5187,25095 L 5778,25095 5778,25649 5187,25649 5187,25095 Z M 5197,25104 L 5768,25104 5768,25640 5197,25640 5197,25104 Z"/>
             <path fill="rgb(123,123,123)" stroke="none" d="M 5197,25104 L 5768,25104 5768,25640 5197,25640 5197,25104 Z M 5206,25113 L 5759,25113 5759,25631 5206,25631 5206,25113 Z"/>
             <path fill="rgb(124,124,124)" stroke="none" d="M 5206,25113 L 5759,25113 5759,25631 5206,25631 5206,25113 Z M 5216,25122 L 5749,25122 5749,25622 5216,25622 5216,25122 Z"/>
             <path fill="rgb(125,125,125)" stroke="none" d="M 5216,25122 L 5749,25122 5749,25622 5216,25622 5216,25122 Z M 5225,25131 L 5740,25131 5740,25613 5225,25613 5225,25131 Z"/>
             <path fill="rgb(126,126,126)" stroke="none" d="M 5225,25131 L 5740,25131 5740,25613 5225,25613 5225,25131 Z M 5235,25140 L 5730,25140 5730,25604 5235,25604 5235,25140 Z"/>
             <path fill="rgb(127,127,127)" stroke="none" d="M 5235,25140 L 5730,25140 5730,25604 5235,25604 5235,25140 Z M 5245,25148 L 5720,25148 5720,25596 5245,25596 5245,25148 Z"/>
             <path fill="rgb(128,128,128)" stroke="none" d="M 5245,25148 L 5720,25148 5720,25596 5245,25596 5245,25148 Z M 5254,25157 L 5711,25157 5711,25587 5254,25587 5254,25157 Z"/>
             <path fill="rgb(129,129,129)" stroke="none" d="M 5254,25157 L 5711,25157 5711,25587 5254,25587 5254,25157 Z M 5264,25166 L 5701,25166 5701,25578 5264,25578 5264,25166 Z"/>
             <path fill="rgb(130,130,130)" stroke="none" d="M 5264,25166 L 5701,25166 5701,25578 5264,25578 5264,25166 Z M 5273,25175 L 5692,25175 5692,25569 5273,25569 5273,25175 Z"/>
             <path fill="rgb(131,131,131)" stroke="none" d="M 5273,25175 L 5692,25175 5692,25569 5273,25569 5273,25175 Z M 5283,25184 L 5682,25184 5682,25560 5283,25560 5283,25184 Z"/>
             <path fill="rgb(132,132,132)" stroke="none" d="M 5283,25184 L 5682,25184 5682,25560 5283,25560 5283,25184 Z M 5292,25193 L 5673,25193 5673,25551 5292,25551 5292,25193 Z"/>
             <path fill="rgb(133,133,133)" stroke="none" d="M 5292,25193 L 5673,25193 5673,25551 5292,25551 5292,25193 Z M 5302,25202 L 5663,25202 5663,25542 5302,25542 5302,25202 Z"/>
             <path fill="rgb(134,134,134)" stroke="none" d="M 5302,25202 L 5663,25202 5663,25542 5302,25542 5302,25202 Z M 5311,25211 L 5654,25211 5654,25533 5311,25533 5311,25211 Z"/>
             <path fill="rgb(135,135,135)" stroke="none" d="M 5311,25211 L 5654,25211 5654,25533 5311,25533 5311,25211 Z M 5321,25220 L 5644,25220 5644,25524 5321,25524 5321,25220 Z"/>
             <path fill="rgb(136,136,136)" stroke="none" d="M 5321,25220 L 5644,25220 5644,25524 5321,25524 5321,25220 Z M 5330,25229 L 5635,25229 5635,25515 5330,25515 5330,25229 Z"/>
             <path fill="rgb(137,137,137)" stroke="none" d="M 5330,25229 L 5635,25229 5635,25515 5330,25515 5330,25229 Z M 5340,25238 L 5625,25238 5625,25506 5340,25506 5340,25238 Z"/>
             <path fill="rgb(138,138,138)" stroke="none" d="M 5340,25238 L 5625,25238 5625,25506 5340,25506 5340,25238 Z M 5349,25247 L 5616,25247 5616,25497 5349,25497 5349,25247 Z"/>
             <path fill="rgb(139,139,139)" stroke="none" d="M 5349,25247 L 5616,25247 5616,25497 5349,25497 5349,25247 Z M 5359,25256 L 5606,25256 5606,25488 5359,25488 5359,25256 Z"/>
             <path fill="rgb(140,140,140)" stroke="none" d="M 5359,25256 L 5606,25256 5606,25488 5359,25488 5359,25256 Z M 5369,25265 L 5596,25265 5596,25479 5369,25479 5369,25265 Z"/>
             <path fill="rgb(141,141,141)" stroke="none" d="M 5369,25265 L 5596,25265 5596,25479 5369,25479 5369,25265 Z M 5378,25274 L 5587,25274 5587,25470 5378,25470 5378,25274 Z"/>
             <path fill="rgb(142,142,142)" stroke="none" d="M 5378,25274 L 5587,25274 5587,25470 5378,25470 5378,25274 Z M 5388,25283 L 5577,25283 5577,25461 5388,25461 5388,25283 Z"/>
             <path fill="rgb(143,143,143)" stroke="none" d="M 5388,25283 L 5577,25283 5577,25461 5388,25461 5388,25283 Z M 5397,25292 L 5568,25292 5568,25452 5397,25452 5397,25292 Z"/>
             <path fill="rgb(144,144,144)" stroke="none" d="M 5397,25292 L 5568,25292 5568,25452 5397,25452 5397,25292 Z M 5407,25301 L 5558,25301 5558,25443 5407,25443 5407,25301 Z"/>
             <path fill="rgb(145,145,145)" stroke="none" d="M 5407,25301 L 5558,25301 5558,25443 5407,25443 5407,25301 Z M 5416,25310 L 5549,25310 5549,25434 5416,25434 5416,25310 Z"/>
             <path fill="rgb(146,146,146)" stroke="none" d="M 5416,25310 L 5549,25310 5549,25434 5416,25434 5416,25310 Z M 5426,25319 L 5539,25319 5539,25425 5426,25425 5426,25319 Z"/>
             <path fill="rgb(147,147,147)" stroke="none" d="M 5426,25319 L 5539,25319 5539,25425 5426,25425 5426,25319 Z M 5435,25328 L 5530,25328 5530,25416 5435,25416 5435,25328 Z"/>
             <path fill="rgb(148,148,148)" stroke="none" d="M 5435,25328 L 5530,25328 5530,25416 5435,25416 5435,25328 Z M 5445,25337 L 5520,25337 5520,25407 5445,25407 5445,25337 Z"/>
             <path fill="rgb(149,149,149)" stroke="none" d="M 5445,25337 L 5520,25337 5520,25407 5445,25407 5445,25337 Z M 5454,25346 L 5511,25346 5511,25398 5454,25398 5454,25346 Z"/>
             <path fill="rgb(150,150,150)" stroke="none" d="M 5454,25346 L 5511,25346 5511,25398 5454,25398 5454,25346 Z M 5464,25355 L 5501,25355 5501,25389 5464,25389 5464,25355 Z"/>
             <path fill="rgb(151,151,151)" stroke="none" d="M 5464,25355 L 5501,25355 5501,25389 5464,25389 5464,25355 Z M 5473,25364 L 5492,25364 5492,25380 5473,25380 5473,25364 Z"/>
             <path fill="rgb(153,153,153)" stroke="none" d="M 5473,25364 L 5492,25364 5492,25380 5473,25380 5473,25364 Z"/>
            </g>
           </pattern>
          </defs>
          <path style="fill:url(#pattern2)" d="M 6163,25450 L 6163,25100 5193,25661 5193,26011 6163,25450 Z"/>
         </g>
         <path fill="none" stroke="rgb(178,178,178)" stroke-width="40" stroke-linejoin="round" d="M 6163,25450 L 6163,25100 5193,25661 5193,26011 6163,25450 Z"/>
        </g>
       </g>
       <g class="com.sun.star.drawing.PolyPolygonShape">
        <g id="id16">
         <rect class="BoundingBox" stroke="none" fill="none" x="2869" y="23749" width="3315" height="2844"/>
         <path fill="none" stroke="rgb(0,0,0)" stroke-width="40" stroke-linejoin="round" d="M 6163,25100 L 3860,23769 2890,24330 2890,24680 4102,25381 4345,26362 4708,26572 5072,26362 4950,25872 5193,26011 6163,25451 6163,25100 Z"/>
        </g>
       </g>
       <g class="com.sun.star.drawing.LineShape">
        <g id="id17">
         <rect class="BoundingBox" stroke="none" fill="none" x="4324" y="24801" width="1011" height="602"/>
         <path fill="none" stroke="rgb(178,178,178)" stroke-width="40" stroke-linejoin="round" d="M 5314,25382 L 4344,24821"/>
        </g>
       </g>
       <g class="com.sun.star.drawing.LineShape">
        <g id="id18">
         <rect class="BoundingBox" stroke="none" fill="none" x="4566" y="24801" width="890" height="532"/>
         <path fill="none" stroke="rgb(178,178,178)" stroke-width="40" stroke-linejoin="round" d="M 5435,25312 L 4586,24821"/>
        </g>
       </g>
       <g class="com.sun.star.drawing.LineShape">
        <g id="id19">
         <rect class="BoundingBox" stroke="none" fill="none" x="4203" y="24520" width="890" height="532"/>
         <path fill="none" stroke="rgb(178,178,178)" stroke-width="40" stroke-linejoin="round" d="M 5072,24540 L 4223,25031"/>
        </g>
       </g>
       <g class="com.sun.star.drawing.LineShape">
        <g id="id20">
         <rect class="BoundingBox" stroke="none" fill="none" x="4445" y="24660" width="890" height="532"/>
         <path fill="none" stroke="rgb(178,178,178)" stroke-width="40" stroke-linejoin="round" d="M 5314,24680 L 4465,25171"/>
        </g>
       </g>
       <g class="com.sun.star.drawing.LineShape">
        <g id="id21">
         <rect class="BoundingBox" stroke="none" fill="none" x="4566" y="24730" width="890" height="532"/>
         <path fill="none" stroke="rgb(178,178,178)" stroke-width="40" stroke-linejoin="round" d="M 5435,24750 L 4586,25241"/>
        </g>
       </g>
       <g class="com.sun.star.drawing.LineShape">
        <g id="id22">
         <rect class="BoundingBox" stroke="none" fill="none" x="4688" y="24801" width="890" height="532"/>
         <path fill="none" stroke="rgb(178,178,178)" stroke-width="40" stroke-linejoin="round" d="M 5557,24821 L 4708,25312"/>
        </g>
       </g>
       <g class="com.sun.star.drawing.LineShape">
        <g id="id23">
         <rect class="BoundingBox" stroke="none" fill="none" x="4930" y="24941" width="890" height="532"/>
         <path fill="none" stroke="rgb(178,178,178)" stroke-width="40" stroke-linejoin="round" d="M 5799,24961 L 4950,25452"/>
        </g>
       </g>
       <g class="com.sun.star.drawing.LineShape">
        <g id="id24">
         <rect class="BoundingBox" stroke="none" fill="none" x="4809" y="24870" width="890" height="532"/>
         <path fill="none" stroke="rgb(178,178,178)" stroke-width="40" stroke-linejoin="round" d="M 5678,24890 L 4829,25381"/>
        </g>
       </g>
      </g>
     </g>
    </g>
   </g>
  </g>
 </g>
</svg>