<?xml version="1.0" encoding="UTF-8"?>
<!DOCTYPE svg PUBLIC "-//W3C//DTD SVG 1.1//EN" "http://www.w3.org/Graphics/SVG/1.1/DTD/svg11.dtd">
<svg version="1.2" width="33.13mm" height="28.43mm" viewBox="10772 24271 3313 2843" preserveAspectRatio="xMidYMid" fill-rule="evenodd" stroke-width="28.222" stroke-linejoin="round" xmlns="http://www.w3.org/2000/svg" xmlns:ooo="http://xml.openoffice.org/svg/export" xmlns:xlink="http://www.w3.org/1999/xlink" xmlns:presentation="http://sun.com/xmlns/staroffice/presentation" xmlns:smil="http://www.w3.org/2001/SMIL20/" xmlns:anim="urn:oasis:names:tc:opendocument:xmlns:animation:1.0" xml:space="preserve">
 <defs class="ClipPathGroup">
  <clipPath id="presentation_clip_path" clipPathUnits="userSpaceOnUse">
   <rect x="10772" y="24271" width="3313" height="2843"/>
  </clipPath>
 </defs>
 <defs class="TextShapeIndex">
  <g ooo:slide="id1" ooo:id-list="id3 id4 id5 id6 id7 id8 id9 id10 id11 id12 id13 id14 id15 id16 id17 id18 id19 id20 id21 id22 id23 id24"/>
 </defs>
 <defs class="EmbeddedBulletChars">
  <g id="bullet-char-template(57356)" transform="scale(0.00048828125,-0.00048828125)">
   <path d="M 580,1141 L 1163,571 580,0 -4,571 580,1141 Z"/>
  </g>
  <g id="bullet-char-template(57354)" transform="scale(0.00048828125,-0.00048828125)">
   <path d="M 8,1128 L 1137,1128 1137,0 8,0 8,1128 Z"/>
  </g>
  <g id="bullet-char-template(10146)" transform="scale(0.00048828125,-0.00048828125)">
   <path d="M 174,0 L 602,739 174,1481 1456,739 174,0 Z M 1358,739 L 309,1346 659,739 1358,739 Z"/>
  </g>
  <g id="bullet-char-template(10132)" transform="scale(0.00048828125,-0.00048828125)">
   <path d="M 2015,739 L 1276,0 717,0 1260,543 174,543 174,936 1260,936 717,1481 1274,1481 2015,739 Z"/>
  </g>
  <g id="bullet-char-template(10007)" transform="scale(0.00048828125,-0.00048828125)">
   <path d="M 0,-2 C -7,14 -16,27 -25,37 L 356,567 C 262,823 215,952 215,954 215,979 228,992 255,992 264,992 276,990 289,987 310,991 331,999 354,1012 L 381,999 492,748 772,1049 836,1024 860,1049 C 881,1039 901,1025 922,1006 886,937 835,863 770,784 769,783 710,716 594,584 L 774,223 C 774,196 753,168 711,139 L 727,119 C 717,90 699,76 672,76 641,76 570,178 457,381 L 164,-76 C 142,-110 111,-127 72,-127 30,-127 9,-110 8,-76 1,-67 -2,-52 -2,-32 -2,-23 -1,-13 0,-2 Z"/>
  </g>
  <g id="bullet-char-template(10004)" transform="scale(0.00048828125,-0.00048828125)">
   <path d="M 285,-33 C 182,-33 111,30 74,156 52,228 41,333 41,471 41,549 55,616 82,672 116,743 169,778 240,778 293,778 328,747 346,684 L 369,508 C 377,444 397,411 428,410 L 1163,1116 C 1174,1127 1196,1133 1229,1133 1271,1133 1292,1118 1292,1087 L 1292,965 C 1292,929 1282,901 1262,881 L 442,47 C 390,-6 338,-33 285,-33 Z"/>
  </g>
  <g id="bullet-char-template(9679)" transform="scale(0.00048828125,-0.00048828125)">
   <path d="M 813,0 C 632,0 489,54 383,161 276,268 223,411 223,592 223,773 276,916 383,1023 489,1130 632,1184 813,1184 992,1184 1136,1130 1245,1023 1353,916 1407,772 1407,592 1407,412 1353,268 1245,161 1136,54 992,0 813,0 Z"/>
  </g>
  <g id="bullet-char-template(8226)" transform="scale(0.00048828125,-0.00048828125)">
   <path d="M 346,457 C 273,457 209,483 155,535 101,586 74,649 74,723 74,796 101,859 155,911 209,963 273,989 346,989 419,989 480,963 531,910 582,859 608,796 608,723 608,648 583,586 532,535 482,483 420,457 346,457 Z"/>
  </g>
  <g id="bullet-char-template(8211)" transform="scale(0.00048828125,-0.00048828125)">
   <path d="M -4,459 L 1135,459 1135,606 -4,606 -4,459 Z"/>
  </g>
 </defs>
 <defs class="TextEmbeddedBitmaps"/>
 <g class="SlideGroup">
  <g>
   <g id="id1" class="Slide" clip-path="url(#presentation_clip_path)">
    <g class="Page">
     <g class="Group">
      <g class="com.sun.star.drawing.ClosedBezierShape">
       <g id="id3">
        <rect class="BoundingBox" stroke="none" fill="none" x="12221" y="25743" width="1524" height="1372"/>
        <path fill="rgb(221,221,221)" stroke="none" d="M 12251,27094 C 12585,27094 13580,26744 13701,26324 13822,25903 13428,25763 13096,25763 13096,25973 12131,25553 12251,27094 Z"/>
        <path fill="none" stroke="rgb(221,221,221)" stroke-width="40" stroke-linejoin="round" d="M 12251,27094 C 12585,27094 13580,26744 13701,26324 13822,25903 13428,25763 13096,25763 13096,25973 12131,25553 12251,27094 Z"/>
       </g>
      </g>
      <g class="Group">
       <g class="com.sun.star.drawing.PolyPolygonShape">
        <g id="id4">
         <rect class="BoundingBox" stroke="none" fill="none" x="11862" y="25182" width="891" height="1934"/>
         <g>
          <defs>
           <linearGradient id="gradient1" x1="11882" y1="26148" x2="12732" y2="26148" gradientUnits="userSpaceOnUse">
            <stop offset="0.1" style="stop-color:rgb(51,51,51)"/>
            <stop offset="1" style="stop-color:rgb(153,153,153)"/>
           </linearGradient>
          </defs>
          <path style="fill:url(#gradient1)" d="M 11883,26884 L 12368,25202 12732,25412 12247,27094 11883,26884 Z"/>
         </g>
         <path fill="none" stroke="rgb(178,178,178)" stroke-width="40" stroke-linejoin="round" d="M 11883,26884 L 12368,25202 12732,25412 12247,27094 11883,26884 Z"/>
        </g>
       </g>
       <g class="com.sun.star.drawing.PolyPolygonShape">
        <g id="id5">
         <rect class="BoundingBox" stroke="none" fill="none" x="12227" y="25533" width="770" height="1582"/>
         <g>
          <defs>
           <pattern id="pattern1" x="12247" y="25553" width="729" height="1542" patternUnits="userSpaceOnUse">
            <g transform="translate(-12247,-25553)">
             <path fill="rgb(51,51,51)" stroke="none" d="M 12246,25552 L 12976,25552 12976,27095 12246,27095 12246,25552 Z M 12104,25251 L 12826,25251 12826,26778 12104,26778 12104,25251 Z"/>
             <path fill="rgb(52,52,52)" stroke="none" d="M 12104,25251 L 12826,25251 12826,26778 12104,26778 12104,25251 Z M 12108,25259 L 12822,25259 12822,26770 12108,26770 12108,25259 Z"/>
             <path fill="rgb(53,53,53)" stroke="none" d="M 12108,25259 L 12822,25259 12822,26770 12108,26770 12108,25259 Z M 12111,25266 L 12819,25266 12819,26763 12111,26763 12111,25266 Z"/>
             <path fill="rgb(54,54,54)" stroke="none" d="M 12111,25266 L 12819,25266 12819,26763 12111,26763 12111,25266 Z M 12115,25274 L 12815,25274 12815,26755 12115,26755 12115,25274 Z"/>
             <path fill="rgb(55,55,55)" stroke="none" d="M 12115,25274 L 12815,25274 12815,26755 12115,26755 12115,25274 Z M 12118,25281 L 12812,25281 12812,26748 12118,26748 12118,25281 Z"/>
             <path fill="rgb(56,56,56)" stroke="none" d="M 12118,25281 L 12812,25281 12812,26748 12118,26748 12118,25281 Z M 12122,25289 L 12808,25289 12808,26740 12122,26740 12122,25289 Z"/>
             <path fill="rgb(57,57,57)" stroke="none" d="M 12122,25289 L 12808,25289 12808,26740 12122,26740 12122,25289 Z M 12126,25296 L 12804,25296 12804,26733 12126,26733 12126,25296 Z"/>
             <path fill="rgb(58,58,58)" stroke="none" d="M 12126,25296 L 12804,25296 12804,26733 12126,26733 12126,25296 Z M 12129,25304 L 12801,25304 12801,26725 12129,26725 12129,25304 Z"/>
             <path fill="rgb(59,59,59)" stroke="none" d="M 12129,25304 L 12801,25304 12801,26725 12129,26725 12129,25304 Z M 12133,25312 L 12797,25312 12797,26717 12133,26717 12133,25312 Z"/>
             <path fill="rgb(60,60,60)" stroke="none" d="M 12133,25312 L 12797,25312 12797,26717 12133,26717 12133,25312 Z M 12136,25319 L 12794,25319 12794,26710 12136,26710 12136,25319 Z"/>
             <path fill="rgb(61,61,61)" stroke="none" d="M 12136,25319 L 12794,25319 12794,26710 12136,26710 12136,25319 Z M 12140,25327 L 12790,25327 12790,26702 12140,26702 12140,25327 Z"/>
             <path fill="rgb(62,62,62)" stroke="none" d="M 12140,25327 L 12790,25327 12790,26702 12140,26702 12140,25327 Z M 12143,25334 L 12786,25334 12786,26695 12143,26695 12143,25334 Z"/>
             <path fill="rgb(63,63,63)" stroke="none" d="M 12143,25334 L 12786,25334 12786,26695 12143,26695 12143,25334 Z M 12147,25342 L 12783,25342 12783,26687 12147,26687 12147,25342 Z"/>
             <path fill="rgb(64,64,64)" stroke="none" d="M 12147,25342 L 12783,25342 12783,26687 12147,26687 12147,25342 Z M 12151,25349 L 12779,25349 12779,26680 12151,26680 12151,25349 Z"/>
             <path fill="rgb(65,65,65)" stroke="none" d="M 12151,25349 L 12779,25349 12779,26680 12151,26680 12151,25349 Z M 12154,25357 L 12776,25357 12776,26672 12154,26672 12154,25357 Z"/>
             <path fill="rgb(66,66,66)" stroke="none" d="M 12154,25357 L 12776,25357 12776,26672 12154,26672 12154,25357 Z M 12158,25365 L 12772,25365 12772,26664 12158,26664 12158,25365 Z"/>
             <path fill="rgb(67,67,67)" stroke="none" d="M 12158,25365 L 12772,25365 12772,26664 12158,26664 12158,25365 Z M 12161,25372 L 12769,25372 12769,26657 12161,26657 12161,25372 Z"/>
             <path fill="rgb(68,68,68)" stroke="none" d="M 12161,25372 L 12769,25372 12769,26657 12161,26657 12161,25372 Z M 12165,25380 L 12765,25380 12765,26649 12165,26649 12165,25380 Z"/>
             <path fill="rgb(69,69,69)" stroke="none" d="M 12165,25380 L 12765,25380 12765,26649 12165,26649 12165,25380 Z M 12169,25387 L 12761,25387 12761,26642 12169,26642 12169,25387 Z"/>
             <path fill="rgb(70,70,70)" stroke="none" d="M 12169,25387 L 12761,25387 12761,26642 12169,26642 12169,25387 Z M 12172,25395 L 12758,25395 12758,26634 12172,26634 12172,25395 Z"/>
             <path fill="rgb(71,71,71)" stroke="none" d="M 12172,25395 L 12758,25395 12758,26634 12172,26634 12172,25395 Z M 12176,25402 L 12754,25402 12754,26627 12176,26627 12176,25402 Z"/>
             <path fill="rgb(72,72,72)" stroke="none" d="M 12176,25402 L 12754,25402 12754,26627 12176,26627 12176,25402 Z M 12179,25410 L 12751,25410 12751,26619 12179,26619 12179,25410 Z"/>
             <path fill="rgb(73,73,73)" stroke="none" d="M 12179,25410 L 12751,25410 12751,26619 12179,26619 12179,25410 Z M 12183,25418 L 12747,25418 12747,26611 12183,26611 12183,25418 Z"/>
             <path fill="rgb(74,74,74)" stroke="none" d="M 12183,25418 L 12747,25418 12747,26611 12183,26611 12183,25418 Z M 12186,25425 L 12743,25425 12743,26604 12186,26604 12186,25425 Z"/>
             <path fill="rgb(75,75,75)" stroke="none" d="M 12186,25425 L 12743,25425 12743,26604 12186,26604 12186,25425 Z M 12190,25433 L 12740,25433 12740,26596 12190,26596 12190,25433 Z"/>
             <path fill="rgb(76,76,76)" stroke="none" d="M 12190,25433 L 12740,25433 12740,26596 12190,26596 12190,25433 Z M 12194,25440 L 12736,25440 12736,26589 12194,26589 12194,25440 Z"/>
             <path fill="rgb(77,77,77)" stroke="none" d="M 12194,25440 L 12736,25440 12736,26589 12194,26589 12194,25440 Z M 12197,25448 L 12733,25448 12733,26581 12197,26581 12197,25448 Z"/>
             <path fill="rgb(78,78,78)" stroke="none" d="M 12197,25448 L 12733,25448 12733,26581 12197,26581 12197,25448 Z M 12201,25455 L 12729,25455 12729,26574 12201,26574 12201,25455 Z"/>
             <path fill="rgb(79,79,79)" stroke="none" d="M 12201,25455 L 12729,25455 12729,26574 12201,26574 12201,25455 Z M 12204,25463 L 12726,25463 12726,26566 12204,26566 12204,25463 Z"/>
             <path fill="rgb(80,80,80)" stroke="none" d="M 12204,25463 L 12726,25463 12726,26566 12204,26566 12204,25463 Z M 12208,25471 L 12722,25471 12722,26558 12208,26558 12208,25471 Z"/>
             <path fill="rgb(81,81,81)" stroke="none" d="M 12208,25471 L 12722,25471 12722,26558 12208,26558 12208,25471 Z M 12212,25478 L 12718,25478 12718,26551 12212,26551 12212,25478 Z"/>
             <path fill="rgb(82,82,82)" stroke="none" d="M 12212,25478 L 12718,25478 12718,26551 12212,26551 12212,25478 Z M 12215,25486 L 12715,25486 12715,26543 12215,26543 12215,25486 Z"/>
             <path fill="rgb(83,83,83)" stroke="none" d="M 12215,25486 L 12715,25486 12715,26543 12215,26543 12215,25486 Z M 12219,25493 L 12711,25493 12711,26536 12219,26536 12219,25493 Z"/>
             <path fill="rgb(84,84,84)" stroke="none" d="M 12219,25493 L 12711,25493 12711,26536 12219,26536 12219,25493 Z M 12222,25501 L 12708,25501 12708,26528 12222,26528 12222,25501 Z"/>
             <path fill="rgb(85,85,85)" stroke="none" d="M 12222,25501 L 12708,25501 12708,26528 12222,26528 12222,25501 Z M 12226,25508 L 12704,25508 12704,26521 12226,26521 12226,25508 Z"/>
             <path fill="rgb(86,86,86)" stroke="none" d="M 12226,25508 L 12704,25508 12704,26521 12226,26521 12226,25508 Z M 12228,25516 L 12700,25516 12700,26513 12228,26513 12228,25516 Z"/>
             <path fill="rgb(87,87,87)" stroke="none" d="M 12228,25516 L 12700,25516 12700,26513 12228,26513 12228,25516 Z M 12232,25524 L 12697,25524 12697,26505 12232,26505 12232,25524 Z"/>
             <path fill="rgb(88,88,88)" stroke="none" d="M 12232,25524 L 12697,25524 12697,26505 12232,26505 12232,25524 Z M 12236,25531 L 12693,25531 12693,26498 12236,26498 12236,25531 Z"/>
             <path fill="rgb(89,89,89)" stroke="none" d="M 12236,25531 L 12693,25531 12693,26498 12236,26498 12236,25531 Z M 12239,25538 L 12690,25538 12690,26490 12239,26490 12239,25538 Z"/>
             <path fill="rgb(90,90,90)" stroke="none" d="M 12239,25538 L 12690,25538 12690,26490 12239,26490 12239,25538 Z M 12243,25545 L 12686,25545 12686,26483 12243,26483 12243,25545 Z"/>
             <path fill="rgb(91,91,91)" stroke="none" d="M 12243,25545 L 12686,25545 12686,26483 12243,26483 12243,25545 Z M 12246,25553 L 12683,25553 12683,26475 12246,26475 12246,25553 Z"/>
             <path fill="rgb(92,92,92)" stroke="none" d="M 12246,25553 L 12683,25553 12683,26475 12246,26475 12246,25553 Z M 12250,25560 L 12679,25560 12679,26468 12250,26468 12250,25560 Z"/>
             <path fill="rgb(93,93,93)" stroke="none" d="M 12250,25560 L 12679,25560 12679,26468 12250,26468 12250,25560 Z M 12254,25568 L 12675,25568 12675,26460 12254,26460 12254,25568 Z"/>
             <path fill="rgb(94,94,94)" stroke="none" d="M 12254,25568 L 12675,25568 12675,26460 12254,26460 12254,25568 Z M 12257,25576 L 12672,25576 12672,26452 12257,26452 12257,25576 Z"/>
             <path fill="rgb(95,95,95)" stroke="none" d="M 12257,25576 L 12672,25576 12672,26452 12257,26452 12257,25576 Z M 12261,25583 L 12668,25583 12668,26445 12261,26445 12261,25583 Z"/>
             <path fill="rgb(96,96,96)" stroke="none" d="M 12261,25583 L 12668,25583 12668,26445 12261,26445 12261,25583 Z M 12264,25591 L 12665,25591 12665,26437 12264,26437 12264,25591 Z"/>
             <path fill="rgb(97,97,97)" stroke="none" d="M 12264,25591 L 12665,25591 12665,26437 12264,26437 12264,25591 Z M 12268,25598 L 12661,25598 12661,26430 12268,26430 12268,25598 Z"/>
             <path fill="rgb(98,98,98)" stroke="none" d="M 12268,25598 L 12661,25598 12661,26430 12268,26430 12268,25598 Z M 12271,25606 L 12657,25606 12657,26422 12271,26422 12271,25606 Z"/>
             <path fill="rgb(99,99,99)" stroke="none" d="M 12271,25606 L 12657,25606 12657,26422 12271,26422 12271,25606 Z M 12275,25613 L 12654,25613 12654,26415 12275,26415 12275,25613 Z"/>
             <path fill="rgb(100,100,100)" stroke="none" d="M 12275,25613 L 12654,25613 12654,26415 12275,26415 12275,25613 Z M 12279,25621 L 12650,25621 12650,26407 12279,26407 12279,25621 Z"/>
             <path fill="rgb(101,101,101)" stroke="none" d="M 12279,25621 L 12650,25621 12650,26407 12279,26407 12279,25621 Z M 12282,25628 L 12647,25628 12647,26400 12282,26400 12282,25628 Z"/>
             <path fill="rgb(102,102,102)" stroke="none" d="M 12282,25628 L 12647,25628 12647,26400 12282,26400 12282,25628 Z M 12286,25636 L 12643,25636 12643,26392 12286,26392 12286,25636 Z"/>
             <path fill="rgb(103,103,103)" stroke="none" d="M 12286,25636 L 12643,25636 12643,26392 12286,26392 12286,25636 Z M 12289,25644 L 12640,25644 12640,26384 12289,26384 12289,25644 Z"/>
             <path fill="rgb(104,104,104)" stroke="none" d="M 12289,25644 L 12640,25644 12640,26384 12289,26384 12289,25644 Z M 12293,25651 L 12636,25651 12636,26377 12293,26377 12293,25651 Z"/>
             <path fill="rgb(105,105,105)" stroke="none" d="M 12293,25651 L 12636,25651 12636,26377 12293,26377 12293,25651 Z M 12297,25659 L 12632,25659 12632,26369 12297,26369 12297,25659 Z"/>
             <path fill="rgb(106,106,106)" stroke="none" d="M 12297,25659 L 12632,25659 12632,26369 12297,26369 12297,25659 Z M 12300,25666 L 12629,25666 12629,26362 12300,26362 12300,25666 Z"/>
             <path fill="rgb(107,107,107)" stroke="none" d="M 12300,25666 L 12629,25666 12629,26362 12300,26362 12300,25666 Z M 12304,25674 L 12625,25674 12625,26354 12304,26354 12304,25674 Z"/>
             <path fill="rgb(108,108,108)" stroke="none" d="M 12304,25674 L 12625,25674 12625,26354 12304,26354 12304,25674 Z M 12307,25681 L 12622,25681 12622,26347 12307,26347 12307,25681 Z"/>
             <path fill="rgb(109,109,109)" stroke="none" d="M 12307,25681 L 12622,25681 12622,26347 12307,26347 12307,25681 Z M 12311,25689 L 12618,25689 12618,26339 12311,26339 12311,25689 Z"/>
             <path fill="rgb(110,110,110)" stroke="none" d="M 12311,25689 L 12618,25689 12618,26339 12311,26339 12311,25689 Z M 12314,25697 L 12614,25697 12614,26331 12314,26331 12314,25697 Z"/>
             <path fill="rgb(111,111,111)" stroke="none" d="M 12314,25697 L 12614,25697 12614,26331 12314,26331 12314,25697 Z M 12318,25704 L 12611,25704 12611,26324 12318,26324 12318,25704 Z"/>
             <path fill="rgb(112,112,112)" stroke="none" d="M 12318,25704 L 12611,25704 12611,26324 12318,26324 12318,25704 Z M 12322,25712 L 12607,25712 12607,26316 12322,26316 12322,25712 Z"/>
             <path fill="rgb(113,113,113)" stroke="none" d="M 12322,25712 L 12607,25712 12607,26316 12322,26316 12322,25712 Z M 12325,25719 L 12604,25719 12604,26309 12325,26309 12325,25719 Z"/>
             <path fill="rgb(114,114,114)" stroke="none" d="M 12325,25719 L 12604,25719 12604,26309 12325,26309 12325,25719 Z M 12329,25727 L 12600,25727 12600,26301 12329,26301 12329,25727 Z"/>
             <path fill="rgb(115,115,115)" stroke="none" d="M 12329,25727 L 12600,25727 12600,26301 12329,26301 12329,25727 Z M 12332,25734 L 12597,25734 12597,26294 12332,26294 12332,25734 Z"/>
             <path fill="rgb(116,116,116)" stroke="none" d="M 12332,25734 L 12597,25734 12597,26294 12332,26294 12332,25734 Z M 12336,25742 L 12593,25742 12593,26286 12336,26286 12336,25742 Z"/>
             <path fill="rgb(117,117,117)" stroke="none" d="M 12336,25742 L 12593,25742 12593,26286 12336,26286 12336,25742 Z M 12340,25750 L 12589,25750 12589,26278 12340,26278 12340,25750 Z"/>
             <path fill="rgb(118,118,118)" stroke="none" d="M 12340,25750 L 12589,25750 12589,26278 12340,26278 12340,25750 Z M 12343,25757 L 12586,25757 12586,26271 12343,26271 12343,25757 Z"/>
             <path fill="rgb(119,119,119)" stroke="none" d="M 12343,25757 L 12586,25757 12586,26271 12343,26271 12343,25757 Z M 12347,25765 L 12582,25765 12582,26263 12347,26263 12347,25765 Z"/>
             <path fill="rgb(120,120,120)" stroke="none" d="M 12347,25765 L 12582,25765 12582,26263 12347,26263 12347,25765 Z M 12350,25772 L 12579,25772 12579,26256 12350,26256 12350,25772 Z"/>
             <path fill="rgb(121,121,121)" stroke="none" d="M 12350,25772 L 12579,25772 12579,26256 12350,26256 12350,25772 Z M 12354,25780 L 12575,25780 12575,26248 12354,26248 12354,25780 Z"/>
             <path fill="rgb(122,122,122)" stroke="none" d="M 12354,25780 L 12575,25780 12575,26248 12354,26248 12354,25780 Z M 12357,25787 L 12571,25787 12571,26241 12357,26241 12357,25787 Z"/>
             <path fill="rgb(123,123,123)" stroke="none" d="M 12357,25787 L 12571,25787 12571,26241 12357,26241 12357,25787 Z M 12361,25795 L 12568,25795 12568,26233 12361,26233 12361,25795 Z"/>
             <path fill="rgb(124,124,124)" stroke="none" d="M 12361,25795 L 12568,25795 12568,26233 12361,26233 12361,25795 Z M 12365,25803 L 12564,25803 12564,26225 12365,26225 12365,25803 Z"/>
             <path fill="rgb(125,125,125)" stroke="none" d="M 12365,25803 L 12564,25803 12564,26225 12365,26225 12365,25803 Z M 12368,25810 L 12561,25810 12561,26218 12368,26218 12368,25810 Z"/>
             <path fill="rgb(126,126,126)" stroke="none" d="M 12368,25810 L 12561,25810 12561,26218 12368,26218 12368,25810 Z M 12372,25818 L 12557,25818 12557,26210 12372,26210 12372,25818 Z"/>
             <path fill="rgb(127,127,127)" stroke="none" d="M 12372,25818 L 12557,25818 12557,26210 12372,26210 12372,25818 Z M 12375,25825 L 12554,25825 12554,26203 12375,26203 12375,25825 Z"/>
             <path fill="rgb(128,128,128)" stroke="none" d="M 12375,25825 L 12554,25825 12554,26203 12375,26203 12375,25825 Z M 12379,25833 L 12550,25833 12550,26195 12379,26195 12379,25833 Z"/>
             <path fill="rgb(129,129,129)" stroke="none" d="M 12379,25833 L 12550,25833 12550,26195 12379,26195 12379,25833 Z M 12383,25840 L 12546,25840 12546,26188 12383,26188 12383,25840 Z"/>
             <path fill="rgb(130,130,130)" stroke="none" d="M 12383,25840 L 12546,25840 12546,26188 12383,26188 12383,25840 Z M 12386,25848 L 12543,25848 12543,26180 12386,26180 12386,25848 Z"/>
             <path fill="rgb(131,131,131)" stroke="none" d="M 12386,25848 L 12543,25848 12543,26180 12386,26180 12386,25848 Z M 12390,25856 L 12539,25856 12539,26172 12390,26172 12390,25856 Z"/>
             <path fill="rgb(132,132,132)" stroke="none" d="M 12390,25856 L 12539,25856 12539,26172 12390,26172 12390,25856 Z M 12393,25863 L 12536,25863 12536,26165 12393,26165 12393,25863 Z"/>
             <path fill="rgb(133,133,133)" stroke="none" d="M 12393,25863 L 12536,25863 12536,26165 12393,26165 12393,25863 Z M 12397,25871 L 12532,25871 12532,26157 12397,26157 12397,25871 Z"/>
             <path fill="rgb(134,134,134)" stroke="none" d="M 12397,25871 L 12532,25871 12532,26157 12397,26157 12397,25871 Z M 12401,25878 L 12529,25878 12529,26150 12401,26150 12401,25878 Z"/>
             <path fill="rgb(135,135,135)" stroke="none" d="M 12401,25878 L 12529,25878 12529,26150 12401,26150 12401,25878 Z M 12404,25886 L 12525,25886 12525,26142 12404,26142 12404,25886 Z"/>
             <path fill="rgb(136,136,136)" stroke="none" d="M 12404,25886 L 12525,25886 12525,26142 12404,26142 12404,25886 Z M 12408,25893 L 12521,25893 12521,26135 12408,26135 12408,25893 Z"/>
             <path fill="rgb(137,137,137)" stroke="none" d="M 12408,25893 L 12521,25893 12521,26135 12408,26135 12408,25893 Z M 12411,25901 L 12518,25901 12518,26127 12411,26127 12411,25901 Z"/>
             <path fill="rgb(138,138,138)" stroke="none" d="M 12411,25901 L 12518,25901 12518,26127 12411,26127 12411,25901 Z M 12415,25909 L 12514,25909 12514,26119 12415,26119 12415,25909 Z"/>
             <path fill="rgb(139,139,139)" stroke="none" d="M 12415,25909 L 12514,25909 12514,26119 12415,26119 12415,25909 Z M 12418,25916 L 12511,25916 12511,26112 12418,26112 12418,25916 Z"/>
             <path fill="rgb(140,140,140)" stroke="none" d="M 12418,25916 L 12511,25916 12511,26112 12418,26112 12418,25916 Z M 12422,25924 L 12507,25924 12507,26104 12422,26104 12422,25924 Z"/>
             <path fill="rgb(141,141,141)" stroke="none" d="M 12422,25924 L 12507,25924 12507,26104 12422,26104 12422,25924 Z M 12426,25931 L 12503,25931 12503,26097 12426,26097 12426,25931 Z"/>
             <path fill="rgb(142,142,142)" stroke="none" d="M 12426,25931 L 12503,25931 12503,26097 12426,26097 12426,25931 Z M 12429,25939 L 12500,25939 12500,26089 12429,26089 12429,25939 Z"/>
             <path fill="rgb(143,143,143)" stroke="none" d="M 12429,25939 L 12500,25939 12500,26089 12429,26089 12429,25939 Z M 12433,25946 L 12496,25946 12496,26082 12433,26082 12433,25946 Z"/>
             <path fill="rgb(144,144,144)" stroke="none" d="M 12433,25946 L 12496,25946 12496,26082 12433,26082 12433,25946 Z M 12436,25954 L 12493,25954 12493,26074 12436,26074 12436,25954 Z"/>
             <path fill="rgb(145,145,145)" stroke="none" d="M 12436,25954 L 12493,25954 12493,26074 12436,26074 12436,25954 Z M 12440,25962 L 12489,25962 12489,26066 12440,26066 12440,25962 Z"/>
             <path fill="rgb(146,146,146)" stroke="none" d="M 12440,25962 L 12489,25962 12489,26066 12440,26066 12440,25962 Z M 12444,25969 L 12486,25969 12486,26059 12444,26059 12444,25969 Z"/>
             <path fill="rgb(147,147,147)" stroke="none" d="M 12444,25969 L 12486,25969 12486,26059 12444,26059 12444,25969 Z M 12447,25977 L 12482,25977 12482,26051 12447,26051 12447,25977 Z"/>
             <path fill="rgb(148,148,148)" stroke="none" d="M 12447,25977 L 12482,25977 12482,26051 12447,26051 12447,25977 Z M 12451,25984 L 12478,25984 12478,26044 12451,26044 12451,25984 Z"/>
             <path fill="rgb(149,149,149)" stroke="none" d="M 12451,25984 L 12478,25984 12478,26044 12451,26044 12451,25984 Z M 12454,25992 L 12475,25992 12475,26036 12454,26036 12454,25992 Z"/>
             <path fill="rgb(150,150,150)" stroke="none" d="M 12454,25992 L 12475,25992 12475,26036 12454,26036 12454,25992 Z M 12458,25999 L 12471,25999 12471,26029 12458,26029 12458,25999 Z"/>
             <path fill="rgb(151,151,151)" stroke="none" d="M 12458,25999 L 12471,25999 12471,26029 12458,26029 12458,25999 Z M 12461,26007 L 12468,26007 12468,26021 12461,26021 12461,26007 Z"/>
             <path fill="rgb(153,153,153)" stroke="none" d="M 12461,26007 L 12468,26007 12468,26021 12461,26021 12461,26007 Z"/>
            </g>
           </pattern>
          </defs>
          <path style="fill:url(#pattern1)" d="M 12247,27094 L 12611,25763 12975,25553 12611,26884 12247,27094 Z"/>
         </g>
         <path fill="none" stroke="rgb(178,178,178)" stroke-width="40" stroke-linejoin="round" d="M 12247,27094 L 12611,25763 12975,25553 12611,26884 12247,27094 Z"/>
        </g>
       </g>
       <g class="com.sun.star.drawing.PolyPolygonShape">
        <g id="id6">
         <rect class="BoundingBox" stroke="none" fill="none" x="10772" y="24271" width="3314" height="1934"/>
         <g>
          <defs>
           <linearGradient id="gradient2" x1="12428" y1="24291" x2="12428" y2="26183" gradientUnits="userSpaceOnUse">
            <stop offset="0.1" style="stop-color:rgb(51,51,51)"/>
            <stop offset="1" style="stop-color:rgb(153,153,153)"/>
           </linearGradient>
          </defs>
          <path style="fill:url(#gradient2)" d="M 11762,26183 L 10792,25622 13095,24291 14065,24852 11762,26183 Z"/>
         </g>
         <path fill="none" stroke="rgb(178,178,178)" stroke-width="40" stroke-linejoin="round" d="M 11762,26183 L 10792,25622 13095,24291 14065,24852 11762,26183 Z"/>
        </g>
       </g>
       <g class="com.sun.star.drawing.PolyPolygonShape">
        <g id="id7">
         <rect class="BoundingBox" stroke="none" fill="none" x="11015" y="24972" width="1859" height="1092"/>
         <path fill="rgb(51,51,51)" stroke="none" d="M 11035,25553 L 12005,24992 12853,25483 11884,26043 11035,25553 Z"/>
         <path fill="none" stroke="rgb(178,178,178)" stroke-width="40" stroke-linejoin="round" d="M 11035,25553 L 12005,24992 12853,25483 11884,26043 11035,25553 Z"/>
        </g>
       </g>
       <g class="com.sun.star.drawing.PolyPolygonShape">
        <g id="id8">
         <rect class="BoundingBox" stroke="none" fill="none" x="12106" y="24481" width="1618" height="952"/>
         <g>
          <defs>
           <linearGradient id="gradient3" x1="12126" y1="24956" x2="13703" y2="24956" gradientUnits="userSpaceOnUse">
            <stop offset="0.1" style="stop-color:rgb(147,212,240)"/>
            <stop offset="1" style="stop-color:rgb(233,246,252)"/>
           </linearGradient>
          </defs>
          <path style="fill:url(#gradient3)" d="M 12126,24921 L 12854,24501 13703,24992 12975,25412 12126,24921 Z"/>
         </g>
         <path fill="none" stroke="rgb(51,51,51)" stroke-width="40" stroke-linejoin="round" d="M 12126,24921 L 12854,24501 13703,24992 12975,25412 12126,24921 Z"/>
        </g>
       </g>
       <g class="com.sun.star.drawing.PolyPolygonShape">
        <g id="id9">
         <rect class="BoundingBox" stroke="none" fill="none" x="11742" y="24831" width="2344" height="1724"/>
         <g>
          <defs>
           <pattern id="pattern2" x="11762" y="24852" width="2304" height="1683" patternUnits="userSpaceOnUse">
            <g transform="translate(-11762,-24852)">
             <path fill="rgb(51,51,51)" stroke="none" d="M 11761,24851 L 14066,24851 14066,26535 11761,26535 11761,24851 Z M 11311,24523 L 13592,24523 13592,26189 11311,26189 11311,24523 Z"/>
             <path fill="rgb(52,52,52)" stroke="none" d="M 11311,24523 L 13592,24523 13592,26189 11311,26189 11311,24523 Z M 11322,24531 L 13581,24531 13581,26181 11322,26181 11322,24531 Z"/>
             <path fill="rgb(53,53,53)" stroke="none" d="M 11322,24531 L 13581,24531 13581,26181 11322,26181 11322,24531 Z M 11333,24539 L 13570,24539 13570,26173 11333,26173 11333,24539 Z"/>
             <path fill="rgb(54,54,54)" stroke="none" d="M 11333,24539 L 13570,24539 13570,26173 11333,26173 11333,24539 Z M 11345,24548 L 13558,24548 13558,26164 11345,26164 11345,24548 Z"/>
             <path fill="rgb(55,55,55)" stroke="none" d="M 11345,24548 L 13558,24548 13558,26164 11345,26164 11345,24548 Z M 11356,24556 L 13547,24556 13547,26156 11356,26156 11356,24556 Z"/>
             <path fill="rgb(56,56,56)" stroke="none" d="M 11356,24556 L 13547,24556 13547,26156 11356,26156 11356,24556 Z M 11367,24564 L 13536,24564 13536,26148 11367,26148 11367,24564 Z"/>
             <path fill="rgb(57,57,57)" stroke="none" d="M 11367,24564 L 13536,24564 13536,26148 11367,26148 11367,24564 Z M 11379,24572 L 13524,24572 13524,26140 11379,26140 11379,24572 Z"/>
             <path fill="rgb(58,58,58)" stroke="none" d="M 11379,24572 L 13524,24572 13524,26140 11379,26140 11379,24572 Z M 11390,24581 L 13513,24581 13513,26131 11390,26131 11390,24581 Z"/>
             <path fill="rgb(59,59,59)" stroke="none" d="M 11390,24581 L 13513,24581 13513,26131 11390,26131 11390,24581 Z M 11401,24589 L 13502,24589 13502,26123 11401,26123 11401,24589 Z"/>
             <path fill="rgb(60,60,60)" stroke="none" d="M 11401,24589 L 13502,24589 13502,26123 11401,26123 11401,24589 Z M 11413,24597 L 13490,24597 13490,26115 11413,26115 11413,24597 Z"/>
             <path fill="rgb(61,61,61)" stroke="none" d="M 11413,24597 L 13490,24597 13490,26115 11413,26115 11413,24597 Z M 11424,24605 L 13479,24605 13479,26107 11424,26107 11424,24605 Z"/>
             <path fill="rgb(62,62,62)" stroke="none" d="M 11424,24605 L 13479,24605 13479,26107 11424,26107 11424,24605 Z M 11435,24614 L 13468,24614 13468,26098 11435,26098 11435,24614 Z"/>
             <path fill="rgb(63,63,63)" stroke="none" d="M 11435,24614 L 13468,24614 13468,26098 11435,26098 11435,24614 Z M 11446,24622 L 13457,24622 13457,26090 11446,26090 11446,24622 Z"/>
             <path fill="rgb(64,64,64)" stroke="none" d="M 11446,24622 L 13457,24622 13457,26090 11446,26090 11446,24622 Z M 11458,24630 L 13445,24630 13445,26082 11458,26082 11458,24630 Z"/>
             <path fill="rgb(65,65,65)" stroke="none" d="M 11458,24630 L 13445,24630 13445,26082 11458,26082 11458,24630 Z M 11469,24638 L 13434,24638 13434,26074 11469,26074 11469,24638 Z"/>
             <path fill="rgb(66,66,66)" stroke="none" d="M 11469,24638 L 13434,24638 13434,26074 11469,26074 11469,24638 Z M 11480,24647 L 13423,24647 13423,26065 11480,26065 11480,24647 Z"/>
             <path fill="rgb(67,67,67)" stroke="none" d="M 11480,24647 L 13423,24647 13423,26065 11480,26065 11480,24647 Z M 11492,24655 L 13411,24655 13411,26057 11492,26057 11492,24655 Z"/>
             <path fill="rgb(68,68,68)" stroke="none" d="M 11492,24655 L 13411,24655 13411,26057 11492,26057 11492,24655 Z M 11503,24663 L 13400,24663 13400,26049 11503,26049 11503,24663 Z"/>
             <path fill="rgb(69,69,69)" stroke="none" d="M 11503,24663 L 13400,24663 13400,26049 11503,26049 11503,24663 Z M 11514,24671 L 13389,24671 13389,26041 11514,26041 11514,24671 Z"/>
             <path fill="rgb(70,70,70)" stroke="none" d="M 11514,24671 L 13389,24671 13389,26041 11514,26041 11514,24671 Z M 11526,24680 L 13377,24680 13377,26032 11526,26032 11526,24680 Z"/>
             <path fill="rgb(71,71,71)" stroke="none" d="M 11526,24680 L 13377,24680 13377,26032 11526,26032 11526,24680 Z M 11537,24688 L 13366,24688 13366,26024 11537,26024 11537,24688 Z"/>
             <path fill="rgb(72,72,72)" stroke="none" d="M 11537,24688 L 13366,24688 13366,26024 11537,26024 11537,24688 Z M 11548,24696 L 13355,24696 13355,26016 11548,26016 11548,24696 Z"/>
             <path fill="rgb(73,73,73)" stroke="none" d="M 11548,24696 L 13355,24696 13355,26016 11548,26016 11548,24696 Z M 11559,24704 L 13344,24704 13344,26008 11559,26008 11559,24704 Z"/>
             <path fill="rgb(74,74,74)" stroke="none" d="M 11559,24704 L 13344,24704 13344,26008 11559,26008 11559,24704 Z M 11571,24713 L 13332,24713 13332,25999 11571,25999 11571,24713 Z"/>
             <path fill="rgb(75,75,75)" stroke="none" d="M 11571,24713 L 13332,24713 13332,25999 11571,25999 11571,24713 Z M 11582,24721 L 13321,24721 13321,25991 11582,25991 11582,24721 Z"/>
             <path fill="rgb(76,76,76)" stroke="none" d="M 11582,24721 L 13321,24721 13321,25991 11582,25991 11582,24721 Z M 11593,24729 L 13310,24729 13310,25983 11593,25983 11593,24729 Z"/>
             <path fill="rgb(77,77,77)" stroke="none" d="M 11593,24729 L 13310,24729 13310,25983 11593,25983 11593,24729 Z M 11605,24738 L 13298,24738 13298,25974 11605,25974 11605,24738 Z"/>
             <path fill="rgb(78,78,78)" stroke="none" d="M 11605,24738 L 13298,24738 13298,25974 11605,25974 11605,24738 Z M 11616,24746 L 13287,24746 13287,25966 11616,25966 11616,24746 Z"/>
             <path fill="rgb(79,79,79)" stroke="none" d="M 11616,24746 L 13287,24746 13287,25966 11616,25966 11616,24746 Z M 11627,24754 L 13276,24754 13276,25958 11627,25958 11627,24754 Z"/>
             <path fill="rgb(80,80,80)" stroke="none" d="M 11627,24754 L 13276,24754 13276,25958 11627,25958 11627,24754 Z M 11639,24762 L 13264,24762 13264,25950 11639,25950 11639,24762 Z"/>
             <path fill="rgb(81,81,81)" stroke="none" d="M 11639,24762 L 13264,24762 13264,25950 11639,25950 11639,24762 Z M 11650,24771 L 13253,24771 13253,25941 11650,25941 11650,24771 Z"/>
             <path fill="rgb(82,82,82)" stroke="none" d="M 11650,24771 L 13253,24771 13253,25941 11650,25941 11650,24771 Z M 11661,24779 L 13242,24779 13242,25933 11661,25933 11661,24779 Z"/>
             <path fill="rgb(83,83,83)" stroke="none" d="M 11661,24779 L 13242,24779 13242,25933 11661,25933 11661,24779 Z M 11673,24787 L 13230,24787 13230,25925 11673,25925 11673,24787 Z"/>
             <path fill="rgb(84,84,84)" stroke="none" d="M 11673,24787 L 13230,24787 13230,25925 11673,25925 11673,24787 Z M 11684,24795 L 13219,24795 13219,25917 11684,25917 11684,24795 Z"/>
             <path fill="rgb(85,85,85)" stroke="none" d="M 11684,24795 L 13219,24795 13219,25917 11684,25917 11684,24795 Z M 11695,24804 L 13208,24804 13208,25908 11695,25908 11695,24804 Z"/>
             <path fill="rgb(86,86,86)" stroke="none" d="M 11695,24804 L 13208,24804 13208,25908 11695,25908 11695,24804 Z M 11706,24812 L 13197,24812 13197,25900 11706,25900 11706,24812 Z"/>
             <path fill="rgb(87,87,87)" stroke="none" d="M 11706,24812 L 13197,24812 13197,25900 11706,25900 11706,24812 Z M 11718,24820 L 13185,24820 13185,25892 11718,25892 11718,24820 Z"/>
             <path fill="rgb(88,88,88)" stroke="none" d="M 11718,24820 L 13185,24820 13185,25892 11718,25892 11718,24820 Z M 11729,24828 L 13174,24828 13174,25884 11729,25884 11729,24828 Z"/>
             <path fill="rgb(89,89,89)" stroke="none" d="M 11729,24828 L 13174,24828 13174,25884 11729,25884 11729,24828 Z M 11740,24836 L 13163,24836 13163,25875 11740,25875 11740,24836 Z"/>
             <path fill="rgb(90,90,90)" stroke="none" d="M 11740,24836 L 13163,24836 13163,25875 11740,25875 11740,24836 Z M 11751,24844 L 13151,24844 13151,25867 11751,25867 11751,24844 Z"/>
             <path fill="rgb(91,91,91)" stroke="none" d="M 11751,24844 L 13151,24844 13151,25867 11751,25867 11751,24844 Z M 11762,24852 L 13140,24852 13140,25859 11762,25859 11762,24852 Z"/>
             <path fill="rgb(92,92,92)" stroke="none" d="M 11762,24852 L 13140,24852 13140,25859 11762,25859 11762,24852 Z M 11773,24860 L 13129,24860 13129,25851 11773,25851 11773,24860 Z"/>
             <path fill="rgb(93,93,93)" stroke="none" d="M 11773,24860 L 13129,24860 13129,25851 11773,25851 11773,24860 Z M 11785,24869 L 13117,24869 13117,25842 11785,25842 11785,24869 Z"/>
             <path fill="rgb(94,94,94)" stroke="none" d="M 11785,24869 L 13117,24869 13117,25842 11785,25842 11785,24869 Z M 11796,24877 L 13106,24877 13106,25834 11796,25834 11796,24877 Z"/>
             <path fill="rgb(95,95,95)" stroke="none" d="M 11796,24877 L 13106,24877 13106,25834 11796,25834 11796,24877 Z M 11807,24885 L 13095,24885 13095,25826 11807,25826 11807,24885 Z"/>
             <path fill="rgb(96,96,96)" stroke="none" d="M 11807,24885 L 13095,24885 13095,25826 11807,25826 11807,24885 Z M 11818,24893 L 13084,24893 13084,25818 11818,25818 11818,24893 Z"/>
             <path fill="rgb(97,97,97)" stroke="none" d="M 11818,24893 L 13084,24893 13084,25818 11818,25818 11818,24893 Z M 11830,24902 L 13072,24902 13072,25809 11830,25809 11830,24902 Z"/>
             <path fill="rgb(98,98,98)" stroke="none" d="M 11830,24902 L 13072,24902 13072,25809 11830,25809 11830,24902 Z M 11841,24910 L 13061,24910 13061,25801 11841,25801 11841,24910 Z"/>
             <path fill="rgb(99,99,99)" stroke="none" d="M 11841,24910 L 13061,24910 13061,25801 11841,25801 11841,24910 Z M 11852,24918 L 13050,24918 13050,25793 11852,25793 11852,24918 Z"/>
             <path fill="rgb(100,100,100)" stroke="none" d="M 11852,24918 L 13050,24918 13050,25793 11852,25793 11852,24918 Z M 11864,24926 L 13038,24926 13038,25785 11864,25785 11864,24926 Z"/>
             <path fill="rgb(101,101,101)" stroke="none" d="M 11864,24926 L 13038,24926 13038,25785 11864,25785 11864,24926 Z M 11875,24935 L 13027,24935 13027,25776 11875,25776 11875,24935 Z"/>
             <path fill="rgb(102,102,102)" stroke="none" d="M 11875,24935 L 13027,24935 13027,25776 11875,25776 11875,24935 Z M 11886,24943 L 13016,24943 13016,25768 11886,25768 11886,24943 Z"/>
             <path fill="rgb(103,103,103)" stroke="none" d="M 11886,24943 L 13016,24943 13016,25768 11886,25768 11886,24943 Z M 11898,24951 L 13004,24951 13004,25760 11898,25760 11898,24951 Z"/>
             <path fill="rgb(104,104,104)" stroke="none" d="M 11898,24951 L 13004,24951 13004,25760 11898,25760 11898,24951 Z M 11909,24960 L 12993,24960 12993,25751 11909,25751 11909,24960 Z"/>
             <path fill="rgb(105,105,105)" stroke="none" d="M 11909,24960 L 12993,24960 12993,25751 11909,25751 11909,24960 Z M 11920,24968 L 12982,24968 12982,25743 11920,25743 11920,24968 Z"/>
             <path fill="rgb(106,106,106)" stroke="none" d="M 11920,24968 L 12982,24968 12982,25743 11920,25743 11920,24968 Z M 11932,24976 L 12970,24976 12970,25735 11932,25735 11932,24976 Z"/>
             <path fill="rgb(107,107,107)" stroke="none" d="M 11932,24976 L 12970,24976 12970,25735 11932,25735 11932,24976 Z M 11943,24984 L 12959,24984 12959,25727 11943,25727 11943,24984 Z"/>
             <path fill="rgb(108,108,108)" stroke="none" d="M 11943,24984 L 12959,24984 12959,25727 11943,25727 11943,24984 Z M 11954,24993 L 12948,24993 12948,25718 11954,25718 11954,24993 Z"/>
             <path fill="rgb(109,109,109)" stroke="none" d="M 11954,24993 L 12948,24993 12948,25718 11954,25718 11954,24993 Z M 11965,25001 L 12937,25001 12937,25710 11965,25710 11965,25001 Z"/>
             <path fill="rgb(110,110,110)" stroke="none" d="M 11965,25001 L 12937,25001 12937,25710 11965,25710 11965,25001 Z M 11977,25009 L 12925,25009 12925,25702 11977,25702 11977,25009 Z"/>
             <path fill="rgb(111,111,111)" stroke="none" d="M 11977,25009 L 12925,25009 12925,25702 11977,25702 11977,25009 Z M 11988,25017 L 12914,25017 12914,25694 11988,25694 11988,25017 Z"/>
             <path fill="rgb(112,112,112)" stroke="none" d="M 11988,25017 L 12914,25017 12914,25694 11988,25694 11988,25017 Z M 11999,25026 L 12903,25026 12903,25685 11999,25685 11999,25026 Z"/>
             <path fill="rgb(113,113,113)" stroke="none" d="M 11999,25026 L 12903,25026 12903,25685 11999,25685 11999,25026 Z M 12011,25034 L 12891,25034 12891,25677 12011,25677 12011,25034 Z"/>
             <path fill="rgb(114,114,114)" stroke="none" d="M 12011,25034 L 12891,25034 12891,25677 12011,25677 12011,25034 Z M 12022,25042 L 12880,25042 12880,25669 12022,25669 12022,25042 Z"/>
             <path fill="rgb(115,115,115)" stroke="none" d="M 12022,25042 L 12880,25042 12880,25669 12022,25669 12022,25042 Z M 12033,25050 L 12869,25050 12869,25661 12033,25661 12033,25050 Z"/>
             <path fill="rgb(116,116,116)" stroke="none" d="M 12033,25050 L 12869,25050 12869,25661 12033,25661 12033,25050 Z M 12045,25059 L 12857,25059 12857,25652 12045,25652 12045,25059 Z"/>
             <path fill="rgb(117,117,117)" stroke="none" d="M 12045,25059 L 12857,25059 12857,25652 12045,25652 12045,25059 Z M 12056,25067 L 12846,25067 12846,25644 12056,25644 12056,25067 Z"/>
             <path fill="rgb(118,118,118)" stroke="none" d="M 12056,25067 L 12846,25067 12846,25644 12056,25644 12056,25067 Z M 12067,25075 L 12835,25075 12835,25636 12067,25636 12067,25075 Z"/>
             <path fill="rgb(119,119,119)" stroke="none" d="M 12067,25075 L 12835,25075 12835,25636 12067,25636 12067,25075 Z M 12078,25083 L 12824,25083 12824,25628 12078,25628 12078,25083 Z"/>
             <path fill="rgb(120,120,120)" stroke="none" d="M 12078,25083 L 12824,25083 12824,25628 12078,25628 12078,25083 Z M 12090,25092 L 12812,25092 12812,25619 12090,25619 12090,25092 Z"/>
             <path fill="rgb(121,121,121)" stroke="none" d="M 12090,25092 L 12812,25092 12812,25619 12090,25619 12090,25092 Z M 12101,25100 L 12801,25100 12801,25611 12101,25611 12101,25100 Z"/>
             <path fill="rgb(122,122,122)" stroke="none" d="M 12101,25100 L 12801,25100 12801,25611 12101,25611 12101,25100 Z M 12112,25108 L 12790,25108 12790,25603 12112,25603 12112,25108 Z"/>
             <path fill="rgb(123,123,123)" stroke="none" d="M 12112,25108 L 12790,25108 12790,25603 12112,25603 12112,25108 Z M 12124,25116 L 12778,25116 12778,25595 12124,25595 12124,25116 Z"/>
             <path fill="rgb(124,124,124)" stroke="none" d="M 12124,25116 L 12778,25116 12778,25595 12124,25595 12124,25116 Z M 12135,25125 L 12767,25125 12767,25586 12135,25586 12135,25125 Z"/>
             <path fill="rgb(125,125,125)" stroke="none" d="M 12135,25125 L 12767,25125 12767,25586 12135,25586 12135,25125 Z M 12146,25133 L 12756,25133 12756,25578 12146,25578 12146,25133 Z"/>
             <path fill="rgb(126,126,126)" stroke="none" d="M 12146,25133 L 12756,25133 12756,25578 12146,25578 12146,25133 Z M 12158,25141 L 12744,25141 12744,25570 12158,25570 12158,25141 Z"/>
             <path fill="rgb(127,127,127)" stroke="none" d="M 12158,25141 L 12744,25141 12744,25570 12158,25570 12158,25141 Z M 12169,25150 L 12733,25150 12733,25561 12169,25561 12169,25150 Z"/>
             <path fill="rgb(128,128,128)" stroke="none" d="M 12169,25150 L 12733,25150 12733,25561 12169,25561 12169,25150 Z M 12180,25158 L 12722,25158 12722,25553 12180,25553 12180,25158 Z"/>
             <path fill="rgb(129,129,129)" stroke="none" d="M 12180,25158 L 12722,25158 12722,25553 12180,25553 12180,25158 Z M 12192,25166 L 12710,25166 12710,25545 12192,25545 12192,25166 Z"/>
             <path fill="rgb(130,130,130)" stroke="none" d="M 12192,25166 L 12710,25166 12710,25545 12192,25545 12192,25166 Z M 12203,25174 L 12699,25174 12699,25537 12203,25537 12203,25174 Z"/>
             <path fill="rgb(131,131,131)" stroke="none" d="M 12203,25174 L 12699,25174 12699,25537 12203,25537 12203,25174 Z M 12214,25183 L 12688,25183 12688,25528 12214,25528 12214,25183 Z"/>
             <path fill="rgb(132,132,132)" stroke="none" d="M 12214,25183 L 12688,25183 12688,25528 12214,25528 12214,25183 Z M 12225,25191 L 12677,25191 12677,25520 12225,25520 12225,25191 Z"/>
             <path fill="rgb(133,133,133)" stroke="none" d="M 12225,25191 L 12677,25191 12677,25520 12225,25520 12225,25191 Z M 12237,25199 L 12665,25199 12665,25512 12237,25512 12237,25199 Z"/>
             <path fill="rgb(134,134,134)" stroke="none" d="M 12237,25199 L 12665,25199 12665,25512 12237,25512 12237,25199 Z M 12248,25207 L 12654,25207 12654,25504 12248,25504 12248,25207 Z"/>
             <path fill="rgb(135,135,135)" stroke="none" d="M 12248,25207 L 12654,25207 12654,25504 12248,25504 12248,25207 Z M 12259,25216 L 12643,25216 12643,25495 12259,25495 12259,25216 Z"/>
             <path fill="rgb(136,136,136)" stroke="none" d="M 12259,25216 L 12643,25216 12643,25495 12259,25495 12259,25216 Z M 12271,25224 L 12631,25224 12631,25487 12271,25487 12271,25224 Z"/>
             <path fill="rgb(137,137,137)" stroke="none" d="M 12271,25224 L 12631,25224 12631,25487 12271,25487 12271,25224 Z M 12282,25232 L 12620,25232 12620,25479 12282,25479 12282,25232 Z"/>
             <path fill="rgb(138,138,138)" stroke="none" d="M 12282,25232 L 12620,25232 12620,25479 12282,25479 12282,25232 Z M 12293,25240 L 12609,25240 12609,25471 12293,25471 12293,25240 Z"/>
             <path fill="rgb(139,139,139)" stroke="none" d="M 12293,25240 L 12609,25240 12609,25471 12293,25471 12293,25240 Z M 12305,25249 L 12597,25249 12597,25462 12305,25462 12305,25249 Z"/>
             <path fill="rgb(140,140,140)" stroke="none" d="M 12305,25249 L 12597,25249 12597,25462 12305,25462 12305,25249 Z M 12316,25257 L 12586,25257 12586,25454 12316,25454 12316,25257 Z"/>
             <path fill="rgb(141,141,141)" stroke="none" d="M 12316,25257 L 12586,25257 12586,25454 12316,25454 12316,25257 Z M 12327,25265 L 12575,25265 12575,25446 12327,25446 12327,25265 Z"/>
             <path fill="rgb(142,142,142)" stroke="none" d="M 12327,25265 L 12575,25265 12575,25446 12327,25446 12327,25265 Z M 12338,25273 L 12564,25273 12564,25438 12338,25438 12338,25273 Z"/>
             <path fill="rgb(143,143,143)" stroke="none" d="M 12338,25273 L 12564,25273 12564,25438 12338,25438 12338,25273 Z M 12350,25282 L 12552,25282 12552,25429 12350,25429 12350,25282 Z"/>
             <path fill="rgb(144,144,144)" stroke="none" d="M 12350,25282 L 12552,25282 12552,25429 12350,25429 12350,25282 Z M 12361,25290 L 12541,25290 12541,25421 12361,25421 12361,25290 Z"/>
             <path fill="rgb(145,145,145)" stroke="none" d="M 12361,25290 L 12541,25290 12541,25421 12361,25421 12361,25290 Z M 12372,25298 L 12530,25298 12530,25413 12372,25413 12372,25298 Z"/>
             <path fill="rgb(146,146,146)" stroke="none" d="M 12372,25298 L 12530,25298 12530,25413 12372,25413 12372,25298 Z M 12384,25306 L 12518,25306 12518,25405 12384,25405 12384,25306 Z"/>
             <path fill="rgb(147,147,147)" stroke="none" d="M 12384,25306 L 12518,25306 12518,25405 12384,25405 12384,25306 Z M 12395,25315 L 12507,25315 12507,25396 12395,25396 12395,25315 Z"/>
             <path fill="rgb(148,148,148)" stroke="none" d="M 12395,25315 L 12507,25315 12507,25396 12395,25396 12395,25315 Z M 12406,25323 L 12496,25323 12496,25388 12406,25388 12406,25323 Z"/>
             <path fill="rgb(149,149,149)" stroke="none" d="M 12406,25323 L 12496,25323 12496,25388 12406,25388 12406,25323 Z M 12418,25331 L 12484,25331 12484,25380 12418,25380 12418,25331 Z"/>
             <path fill="rgb(150,150,150)" stroke="none" d="M 12418,25331 L 12484,25331 12484,25380 12418,25380 12418,25331 Z M 12429,25339 L 12473,25339 12473,25372 12429,25372 12429,25339 Z"/>
             <path fill="rgb(151,151,151)" stroke="none" d="M 12429,25339 L 12473,25339 12473,25372 12429,25372 12429,25339 Z M 12440,25348 L 12462,25348 12462,25363 12440,25363 12440,25348 Z"/>
             <path fill="rgb(153,153,153)" stroke="none" d="M 12440,25348 L 12462,25348 12462,25363 12440,25363 12440,25348 Z"/>
            </g>
           </pattern>
          </defs>
          <path style="fill:url(#pattern2)" d="M 11762,26534 L 11762,26183 14065,24852 14065,25202 11762,26534 Z"/>
         </g>
         <path fill="none" stroke="rgb(178,178,178)" stroke-width="40" stroke-linejoin="round" d="M 11762,26534 L 11762,26183 14065,24852 14065,25202 11762,26534 Z"/>
        </g>
       </g>
       <g class="com.sun.star.drawing.LineShape">
        <g id="id10">
         <rect class="BoundingBox" stroke="none" fill="none" x="11742" y="25113" width="890" height="532"/>
         <path fill="none" stroke="rgb(178,178,178)" stroke-width="40" stroke-linejoin="round" d="M 11762,25133 L 12611,25624"/>
        </g>
       </g>
       <g class="com.sun.star.drawing.LineShape">
        <g id="id11">
         <rect class="BoundingBox" stroke="none" fill="none" x="11863" y="25392" width="890" height="532"/>
         <path fill="none" stroke="rgb(178,178,178)" stroke-width="40" stroke-linejoin="round" d="M 11883,25903 L 12732,25412"/>
        </g>
       </g>
       <g class="com.sun.star.drawing.LineShape">
        <g id="id12">
         <rect class="BoundingBox" stroke="none" fill="none" x="11136" y="25042" width="1011" height="602"/>
         <path fill="none" stroke="rgb(178,178,178)" stroke-width="40" stroke-linejoin="round" d="M 11156,25623 L 12126,25062"/>
        </g>
       </g>
       <g class="com.sun.star.drawing.LineShape">
        <g id="id13">
         <rect class="BoundingBox" stroke="none" fill="none" x="11257" y="25113" width="1011" height="602"/>
         <path fill="none" stroke="rgb(178,178,178)" stroke-width="40" stroke-linejoin="round" d="M 11277,25694 L 12247,25133"/>
        </g>
       </g>
       <g class="com.sun.star.drawing.LineShape">
        <g id="id14">
         <rect class="BoundingBox" stroke="none" fill="none" x="11378" y="25252" width="890" height="532"/>
         <path fill="none" stroke="rgb(178,178,178)" stroke-width="40" stroke-linejoin="round" d="M 11398,25763 L 12247,25272"/>
        </g>
       </g>
       <g class="com.sun.star.drawing.PolyPolygonShape">
        <g id="id15">
         <rect class="BoundingBox" stroke="none" fill="none" x="10772" y="25602" width="1011" height="952"/>
         <g>
          <defs>
           <linearGradient id="gradient4" x1="10792" y1="26077" x2="11763" y2="26077" gradientUnits="userSpaceOnUse">
            <stop offset="0.1" style="stop-color:rgb(51,51,51)"/>
            <stop offset="1" style="stop-color:rgb(153,153,153)"/>
           </linearGradient>
          </defs>
          <path style="fill:url(#gradient4)" d="M 10792,25972 L 10792,25622 11762,26183 11762,26533 10792,25972 Z"/>
         </g>
         <path fill="none" stroke="rgb(178,178,178)" stroke-width="40" stroke-linejoin="round" d="M 10792,25972 L 10792,25622 11762,26183 11762,26533 10792,25972 Z"/>
        </g>
       </g>
       <g class="com.sun.star.drawing.PolyPolygonShape">
        <g id="id16">
         <rect class="BoundingBox" stroke="none" fill="none" x="10772" y="24271" width="3314" height="2844"/>
         <path fill="none" stroke="rgb(0,0,0)" stroke-width="40" stroke-linejoin="round" d="M 10792,25622 L 13095,24291 14065,24852 14065,25202 12853,25903 12610,26884 12247,27094 11883,26884 12005,26394 11762,26533 10792,25973 10792,25622 Z"/>
        </g>
       </g>
       <g class="com.sun.star.drawing.LineShape">
        <g id="id17">
         <rect class="BoundingBox" stroke="none" fill="none" x="11621" y="25323" width="1011" height="602"/>
         <path fill="none" stroke="rgb(178,178,178)" stroke-width="40" stroke-linejoin="round" d="M 11641,25904 L 12611,25343"/>
        </g>
       </g>
       <g class="com.sun.star.drawing.LineShape">
        <g id="id18">
         <rect class="BoundingBox" stroke="none" fill="none" x="11500" y="25323" width="890" height="532"/>
         <path fill="none" stroke="rgb(178,178,178)" stroke-width="40" stroke-linejoin="round" d="M 11520,25834 L 12369,25343"/>
        </g>
       </g>
       <g class="com.sun.star.drawing.LineShape">
        <g id="id19">
         <rect class="BoundingBox" stroke="none" fill="none" x="11863" y="25042" width="890" height="532"/>
         <path fill="none" stroke="rgb(178,178,178)" stroke-width="40" stroke-linejoin="round" d="M 11883,25062 L 12732,25553"/>
        </g>
       </g>
       <g class="com.sun.star.drawing.LineShape">
        <g id="id20">
         <rect class="BoundingBox" stroke="none" fill="none" x="11621" y="25182" width="890" height="532"/>
         <path fill="none" stroke="rgb(178,178,178)" stroke-width="40" stroke-linejoin="round" d="M 11641,25202 L 12490,25693"/>
        </g>
       </g>
       <g class="com.sun.star.drawing.LineShape">
        <g id="id21">
         <rect class="BoundingBox" stroke="none" fill="none" x="11500" y="25252" width="890" height="532"/>
         <path fill="none" stroke="rgb(178,178,178)" stroke-width="40" stroke-linejoin="round" d="M 11520,25272 L 12369,25763"/>
        </g>
       </g>
       <g class="com.sun.star.drawing.LineShape">
        <g id="id22">
         <rect class="BoundingBox" stroke="none" fill="none" x="11378" y="25323" width="890" height="532"/>
         <path fill="none" stroke="rgb(178,178,178)" stroke-width="40" stroke-linejoin="round" d="M 11398,25343 L 12247,25834"/>
        </g>
       </g>
       <g class="com.sun.star.drawing.LineShape">
        <g id="id23">
         <rect class="BoundingBox" stroke="none" fill="none" x="11136" y="25463" width="890" height="532"/>
         <path fill="none" stroke="rgb(178,178,178)" stroke-width="40" stroke-linejoin="round" d="M 11156,25483 L 12005,25974"/>
        </g>
       </g>
       <g class="com.sun.star.drawing.LineShape">
        <g id="id24">
         <rect class="BoundingBox" stroke="none" fill="none" x="11257" y="25392" width="890" height="532"/>
         <path fill="none" stroke="rgb(178,178,178)" stroke-width="40" stroke-linejoin="round" d="M 11277,25412 L 12126,25903"/>
        </g>
       </g>
      </g>
     </g>
    </g>
   </g>
  </g>
 </g>
</svg>