<?xml version="1.0" encoding="UTF-8"?>
<!DOCTYPE svg PUBLIC "-//W3C//DTD SVG 1.1//EN" "http://www.w3.org/Graphics/SVG/1.1/DTD/svg11.dtd">
<svg version="1.2" width="64mm" height="45.4mm" viewBox="17479 4901 6400 4540" preserveAspectRatio="xMidYMid" fill-rule="evenodd" stroke-width="28.222" stroke-linejoin="round" xmlns="http://www.w3.org/2000/svg" xmlns:ooo="http://xml.openoffice.org/svg/export" xmlns:xlink="http://www.w3.org/1999/xlink" xmlns:presentation="http://sun.com/xmlns/staroffice/presentation" xmlns:smil="http://www.w3.org/2001/SMIL20/" xmlns:anim="urn:oasis:names:tc:opendocument:xmlns:animation:1.0" xml:space="preserve">
 <defs class="ClipPathGroup">
  <clipPath id="presentation_clip_path" clipPathUnits="userSpaceOnUse">
   <rect x="17479" y="4901" width="6400" height="4540"/>
  </clipPath>
 </defs>
 <defs class="TextShapeIndex">
  <g ooo:slide="id1" ooo:id-list="id3 id4 id5 id6 id7 id8 id9 id10 id11 id12 id13 id14 id15"/>
 </defs>
 <defs class="EmbeddedBulletChars">
  <g id="bullet-char-template(57356)" transform="scale(0.00048828125,-0.00048828125)">
   <path d="M 580,1141 L 1163,571 580,0 -4,571 580,1141 Z"/>
  </g>
  <g id="bullet-char-template(57354)" transform="scale(0.00048828125,-0.00048828125)">
   <path d="M 8,1128 L 1137,1128 1137,0 8,0 8,1128 Z"/>
  </g>
  <g id="bullet-char-template(10146)" transform="scale(0.00048828125,-0.00048828125)">
   <path d="M 174,0 L 602,739 174,1481 1456,739 174,0 Z M 1358,739 L 309,1346 659,739 1358,739 Z"/>
  </g>
  <g id="bullet-char-template(10132)" transform="scale(0.00048828125,-0.00048828125)">
   <path d="M 2015,739 L 1276,0 717,0 1260,543 174,543 174,936 1260,936 717,1481 1274,1481 2015,739 Z"/>
  </g>
  <g id="bullet-char-template(10007)" transform="scale(0.00048828125,-0.00048828125)">
   <path d="M 0,-2 C -7,14 -16,27 -25,37 L 356,567 C 262,823 215,952 215,954 215,979 228,992 255,992 264,992 276,990 289,987 310,991 331,999 354,1012 L 381,999 492,748 772,1049 836,1024 860,1049 C 881,1039 901,1025 922,1006 886,937 835,863 770,784 769,783 710,716 594,584 L 774,223 C 774,196 753,168 711,139 L 727,119 C 717,90 699,76 672,76 641,76 570,178 457,381 L 164,-76 C 142,-110 111,-127 72,-127 30,-127 9,-110 8,-76 1,-67 -2,-52 -2,-32 -2,-23 -1,-13 0,-2 Z"/>
  </g>
  <g id="bullet-char-template(10004)" transform="scale(0.00048828125,-0.00048828125)">
   <path d="M 285,-33 C 182,-33 111,30 74,156 52,228 41,333 41,471 41,549 55,616 82,672 116,743 169,778 240,778 293,778 328,747 346,684 L 369,508 C 377,444 397,411 428,410 L 1163,1116 C 1174,1127 1196,1133 1229,1133 1271,1133 1292,1118 1292,1087 L 1292,965 C 1292,929 1282,901 1262,881 L 442,47 C 390,-6 338,-33 285,-33 Z"/>
  </g>
  <g id="bullet-char-template(9679)" transform="scale(0.00048828125,-0.00048828125)">
   <path d="M 813,0 C 632,0 489,54 383,161 276,268 223,411 223,592 223,773 276,916 383,1023 489,1130 632,1184 813,1184 992,1184 1136,1130 1245,1023 1353,916 1407,772 1407,592 1407,412 1353,268 1245,161 1136,54 992,0 813,0 Z"/>
  </g>
  <g id="bullet-char-template(8226)" transform="scale(0.00048828125,-0.00048828125)">
   <path d="M 346,457 C 273,457 209,483 155,535 101,586 74,649 74,723 74,796 101,859 155,911 209,963 273,989 346,989 419,989 480,963 531,910 582,859 608,796 608,723 608,648 583,586 532,535 482,483 420,457 346,457 Z"/>
  </g>
  <g id="bullet-char-template(8211)" transform="scale(0.00048828125,-0.00048828125)">
   <path d="M -4,459 L 1135,459 1135,606 -4,606 -4,459 Z"/>
  </g>
 </defs>
 <defs class="TextEmbeddedBitmaps"/>
 <g class="SlideGroup">
  <g>
   <g id="id1" class="Slide" clip-path="url(#presentation_clip_path)">
    <g class="Page">
     <g class="Group">
      <g class="com.sun.star.drawing.ClosedBezierShape">
       <g id="id3">
        <rect class="BoundingBox" stroke="none" fill="none" x="21802" y="8201" width="2079" height="1242"/>
        <path fill="rgb(221,221,221)" stroke="none" d="M 21825,9421 C 22063,9421 23300,9018 23728,8696 24007,8486 23789,8221 23552,8221 23552,8371 21739,8321 21825,9421 Z"/>
        <path fill="none" stroke="rgb(221,221,221)" stroke-width="40" stroke-linejoin="round" d="M 21825,9421 C 22063,9421 23300,9018 23728,8696 24007,8486 23789,8221 23552,8221 23552,8371 21739,8321 21825,9421 Z"/>
       </g>
      </g>
      <g class="Group">
       <g class="com.sun.star.drawing.PolyPolygonShape">
        <g id="id4">
         <rect class="BoundingBox" stroke="none" fill="none" x="18343" y="5901" width="3501" height="3541"/>
         <g>
          <defs>
           <linearGradient id="gradient1" x1="18362" y1="7671" x2="21822" y2="7671" gradientUnits="userSpaceOnUse">
            <stop offset="0.1" style="stop-color:rgb(51,51,51)"/>
            <stop offset="1" style="stop-color:rgb(153,153,153)"/>
           </linearGradient>
          </defs>
          <path style="fill:url(#gradient1)" d="M 18363,7421 L 18363,5921 21822,7921 21822,9421 18363,7421 Z"/>
         </g>
         <path fill="none" stroke="rgb(178,178,178)" stroke-width="40" stroke-linejoin="round" d="M 18363,7421 L 18363,5921 21822,7921 21822,9421 18363,7421 Z"/>
        </g>
       </g>
       <g class="com.sun.star.drawing.PolyPolygonShape">
        <g id="id5">
         <rect class="BoundingBox" stroke="none" fill="none" x="21801" y="6901" width="1771" height="2541"/>
         <g>
          <defs>
           <pattern id="pattern1" x="21822" y="6921" width="1730" height="2501" patternUnits="userSpaceOnUse">
            <g transform="translate(-21822,-6921)">
             <path fill="rgb(51,51,51)" stroke="none" d="M 21821,6920 L 23552,6920 23552,9422 21821,9422 21821,6920 Z M 21483,6432 L 23196,6432 23196,8908 21483,8908 21483,6432 Z"/>
             <path fill="rgb(52,52,52)" stroke="none" d="M 21483,6432 L 23196,6432 23196,8908 21483,8908 21483,6432 Z M 21491,6444 L 23188,6444 23188,8896 21491,8896 21491,6444 Z"/>
             <path fill="rgb(53,53,53)" stroke="none" d="M 21491,6444 L 23188,6444 23188,8896 21491,8896 21491,6444 Z M 21500,6456 L 23179,6456 23179,8884 21500,8884 21500,6456 Z"/>
             <path fill="rgb(54,54,54)" stroke="none" d="M 21500,6456 L 23179,6456 23179,8884 21500,8884 21500,6456 Z M 21508,6469 L 23171,6469 23171,8871 21508,8871 21508,6469 Z"/>
             <path fill="rgb(55,55,55)" stroke="none" d="M 21508,6469 L 23171,6469 23171,8871 21508,8871 21508,6469 Z M 21517,6481 L 23162,6481 23162,8859 21517,8859 21517,6481 Z"/>
             <path fill="rgb(56,56,56)" stroke="none" d="M 21517,6481 L 23162,6481 23162,8859 21517,8859 21517,6481 Z M 21525,6493 L 23154,6493 23154,8847 21525,8847 21525,6493 Z"/>
             <path fill="rgb(57,57,57)" stroke="none" d="M 21525,6493 L 23154,6493 23154,8847 21525,8847 21525,6493 Z M 21534,6505 L 23145,6505 23145,8835 21534,8835 21534,6505 Z"/>
             <path fill="rgb(58,58,58)" stroke="none" d="M 21534,6505 L 23145,6505 23145,8835 21534,8835 21534,6505 Z M 21542,6518 L 23137,6518 23137,8822 21542,8822 21542,6518 Z"/>
             <path fill="rgb(59,59,59)" stroke="none" d="M 21542,6518 L 23137,6518 23137,8822 21542,8822 21542,6518 Z M 21551,6530 L 23128,6530 23128,8810 21551,8810 21551,6530 Z"/>
             <path fill="rgb(60,60,60)" stroke="none" d="M 21551,6530 L 23128,6530 23128,8810 21551,8810 21551,6530 Z M 21559,6542 L 23120,6542 23120,8798 21559,8798 21559,6542 Z"/>
             <path fill="rgb(61,61,61)" stroke="none" d="M 21559,6542 L 23120,6542 23120,8798 21559,8798 21559,6542 Z M 21568,6554 L 23111,6554 23111,8786 21568,8786 21568,6554 Z"/>
             <path fill="rgb(62,62,62)" stroke="none" d="M 21568,6554 L 23111,6554 23111,8786 21568,8786 21568,6554 Z M 21576,6567 L 23103,6567 23103,8773 21576,8773 21576,6567 Z"/>
             <path fill="rgb(63,63,63)" stroke="none" d="M 21576,6567 L 23103,6567 23103,8773 21576,8773 21576,6567 Z M 21585,6579 L 23094,6579 23094,8761 21585,8761 21585,6579 Z"/>
             <path fill="rgb(64,64,64)" stroke="none" d="M 21585,6579 L 23094,6579 23094,8761 21585,8761 21585,6579 Z M 21593,6591 L 23086,6591 23086,8749 21593,8749 21593,6591 Z"/>
             <path fill="rgb(65,65,65)" stroke="none" d="M 21593,6591 L 23086,6591 23086,8749 21593,8749 21593,6591 Z M 21602,6604 L 23077,6604 23077,8736 21602,8736 21602,6604 Z"/>
             <path fill="rgb(66,66,66)" stroke="none" d="M 21602,6604 L 23077,6604 23077,8736 21602,8736 21602,6604 Z M 21610,6616 L 23069,6616 23069,8724 21610,8724 21610,6616 Z"/>
             <path fill="rgb(67,67,67)" stroke="none" d="M 21610,6616 L 23069,6616 23069,8724 21610,8724 21610,6616 Z M 21619,6628 L 23060,6628 23060,8712 21619,8712 21619,6628 Z"/>
             <path fill="rgb(68,68,68)" stroke="none" d="M 21619,6628 L 23060,6628 23060,8712 21619,8712 21619,6628 Z M 21627,6640 L 23052,6640 23052,8700 21627,8700 21627,6640 Z"/>
             <path fill="rgb(69,69,69)" stroke="none" d="M 21627,6640 L 23052,6640 23052,8700 21627,8700 21627,6640 Z M 21636,6653 L 23043,6653 23043,8687 21636,8687 21636,6653 Z"/>
             <path fill="rgb(70,70,70)" stroke="none" d="M 21636,6653 L 23043,6653 23043,8687 21636,8687 21636,6653 Z M 21644,6665 L 23035,6665 23035,8675 21644,8675 21644,6665 Z"/>
             <path fill="rgb(71,71,71)" stroke="none" d="M 21644,6665 L 23035,6665 23035,8675 21644,8675 21644,6665 Z M 21653,6677 L 23026,6677 23026,8663 21653,8663 21653,6677 Z"/>
             <path fill="rgb(72,72,72)" stroke="none" d="M 21653,6677 L 23026,6677 23026,8663 21653,8663 21653,6677 Z M 21661,6689 L 23018,6689 23018,8651 21661,8651 21661,6689 Z"/>
             <path fill="rgb(73,73,73)" stroke="none" d="M 21661,6689 L 23018,6689 23018,8651 21661,8651 21661,6689 Z M 21670,6702 L 23009,6702 23009,8638 21670,8638 21670,6702 Z"/>
             <path fill="rgb(74,74,74)" stroke="none" d="M 21670,6702 L 23009,6702 23009,8638 21670,8638 21670,6702 Z M 21678,6714 L 23001,6714 23001,8626 21678,8626 21678,6714 Z"/>
             <path fill="rgb(75,75,75)" stroke="none" d="M 21678,6714 L 23001,6714 23001,8626 21678,8626 21678,6714 Z M 21687,6726 L 22992,6726 22992,8614 21687,8614 21687,6726 Z"/>
             <path fill="rgb(76,76,76)" stroke="none" d="M 21687,6726 L 22992,6726 22992,8614 21687,8614 21687,6726 Z M 21695,6739 L 22984,6739 22984,8601 21695,8601 21695,6739 Z"/>
             <path fill="rgb(77,77,77)" stroke="none" d="M 21695,6739 L 22984,6739 22984,8601 21695,8601 21695,6739 Z M 21704,6751 L 22975,6751 22975,8589 21704,8589 21704,6751 Z"/>
             <path fill="rgb(78,78,78)" stroke="none" d="M 21704,6751 L 22975,6751 22975,8589 21704,8589 21704,6751 Z M 21712,6763 L 22967,6763 22967,8577 21712,8577 21712,6763 Z"/>
             <path fill="rgb(79,79,79)" stroke="none" d="M 21712,6763 L 22967,6763 22967,8577 21712,8577 21712,6763 Z M 21721,6775 L 22958,6775 22958,8565 21721,8565 21721,6775 Z"/>
             <path fill="rgb(80,80,80)" stroke="none" d="M 21721,6775 L 22958,6775 22958,8565 21721,8565 21721,6775 Z M 21729,6788 L 22950,6788 22950,8552 21729,8552 21729,6788 Z"/>
             <path fill="rgb(81,81,81)" stroke="none" d="M 21729,6788 L 22950,6788 22950,8552 21729,8552 21729,6788 Z M 21738,6800 L 22941,6800 22941,8540 21738,8540 21738,6800 Z"/>
             <path fill="rgb(82,82,82)" stroke="none" d="M 21738,6800 L 22941,6800 22941,8540 21738,8540 21738,6800 Z M 21746,6812 L 22933,6812 22933,8528 21746,8528 21746,6812 Z"/>
             <path fill="rgb(83,83,83)" stroke="none" d="M 21746,6812 L 22933,6812 22933,8528 21746,8528 21746,6812 Z M 21755,6824 L 22924,6824 22924,8516 21755,8516 21755,6824 Z"/>
             <path fill="rgb(84,84,84)" stroke="none" d="M 21755,6824 L 22924,6824 22924,8516 21755,8516 21755,6824 Z M 21763,6837 L 22916,6837 22916,8503 21763,8503 21763,6837 Z"/>
             <path fill="rgb(85,85,85)" stroke="none" d="M 21763,6837 L 22916,6837 22916,8503 21763,8503 21763,6837 Z M 21772,6849 L 22907,6849 22907,8491 21772,8491 21772,6849 Z"/>
             <path fill="rgb(86,86,86)" stroke="none" d="M 21772,6849 L 22907,6849 22907,8491 21772,8491 21772,6849 Z M 21780,6861 L 22899,6861 22899,8479 21780,8479 21780,6861 Z"/>
             <path fill="rgb(87,87,87)" stroke="none" d="M 21780,6861 L 22899,6861 22899,8479 21780,8479 21780,6861 Z M 21789,6873 L 22890,6873 22890,8467 21789,8467 21789,6873 Z"/>
             <path fill="rgb(88,88,88)" stroke="none" d="M 21789,6873 L 22890,6873 22890,8467 21789,8467 21789,6873 Z M 21797,6886 L 22882,6886 22882,8454 21797,8454 21797,6886 Z"/>
             <path fill="rgb(89,89,89)" stroke="none" d="M 21797,6886 L 22882,6886 22882,8454 21797,8454 21797,6886 Z M 21805,6898 L 22873,6898 22873,8442 21805,8442 21805,6898 Z"/>
             <path fill="rgb(90,90,90)" stroke="none" d="M 21805,6898 L 22873,6898 22873,8442 21805,8442 21805,6898 Z M 21813,6909 L 22865,6909 22865,8430 21813,8430 21813,6909 Z"/>
             <path fill="rgb(91,91,91)" stroke="none" d="M 21813,6909 L 22865,6909 22865,8430 21813,8430 21813,6909 Z M 21822,6922 L 22856,6922 22856,8417 21822,8417 21822,6922 Z"/>
             <path fill="rgb(92,92,92)" stroke="none" d="M 21822,6922 L 22856,6922 22856,8417 21822,8417 21822,6922 Z M 21830,6934 L 22848,6934 22848,8405 21830,8405 21830,6934 Z"/>
             <path fill="rgb(93,93,93)" stroke="none" d="M 21830,6934 L 22848,6934 22848,8405 21830,8405 21830,6934 Z M 21839,6946 L 22839,6946 22839,8393 21839,8393 21839,6946 Z"/>
             <path fill="rgb(94,94,94)" stroke="none" d="M 21839,6946 L 22839,6946 22839,8393 21839,8393 21839,6946 Z M 21847,6958 L 22831,6958 22831,8381 21847,8381 21847,6958 Z"/>
             <path fill="rgb(95,95,95)" stroke="none" d="M 21847,6958 L 22831,6958 22831,8381 21847,8381 21847,6958 Z M 21856,6971 L 22822,6971 22822,8368 21856,8368 21856,6971 Z"/>
             <path fill="rgb(96,96,96)" stroke="none" d="M 21856,6971 L 22822,6971 22822,8368 21856,8368 21856,6971 Z M 21864,6983 L 22814,6983 22814,8356 21864,8356 21864,6983 Z"/>
             <path fill="rgb(97,97,97)" stroke="none" d="M 21864,6983 L 22814,6983 22814,8356 21864,8356 21864,6983 Z M 21873,6995 L 22805,6995 22805,8344 21873,8344 21873,6995 Z"/>
             <path fill="rgb(98,98,98)" stroke="none" d="M 21873,6995 L 22805,6995 22805,8344 21873,8344 21873,6995 Z M 21881,7007 L 22797,7007 22797,8332 21881,8332 21881,7007 Z"/>
             <path fill="rgb(99,99,99)" stroke="none" d="M 21881,7007 L 22797,7007 22797,8332 21881,8332 21881,7007 Z M 21890,7020 L 22788,7020 22788,8319 21890,8319 21890,7020 Z"/>
             <path fill="rgb(100,100,100)" stroke="none" d="M 21890,7020 L 22788,7020 22788,8319 21890,8319 21890,7020 Z M 21898,7032 L 22780,7032 22780,8307 21898,8307 21898,7032 Z"/>
             <path fill="rgb(101,101,101)" stroke="none" d="M 21898,7032 L 22780,7032 22780,8307 21898,8307 21898,7032 Z M 21907,7044 L 22771,7044 22771,8295 21907,8295 21907,7044 Z"/>
             <path fill="rgb(102,102,102)" stroke="none" d="M 21907,7044 L 22771,7044 22771,8295 21907,8295 21907,7044 Z M 21915,7057 L 22763,7057 22763,8282 21915,8282 21915,7057 Z"/>
             <path fill="rgb(103,103,103)" stroke="none" d="M 21915,7057 L 22763,7057 22763,8282 21915,8282 21915,7057 Z M 21923,7069 L 22755,7069 22755,8270 21923,8270 21923,7069 Z"/>
             <path fill="rgb(104,104,104)" stroke="none" d="M 21923,7069 L 22755,7069 22755,8270 21923,8270 21923,7069 Z M 21932,7081 L 22746,7081 22746,8258 21932,8258 21932,7081 Z"/>
             <path fill="rgb(105,105,105)" stroke="none" d="M 21932,7081 L 22746,7081 22746,8258 21932,8258 21932,7081 Z M 21940,7093 L 22738,7093 22738,8246 21940,8246 21940,7093 Z"/>
             <path fill="rgb(106,106,106)" stroke="none" d="M 21940,7093 L 22738,7093 22738,8246 21940,8246 21940,7093 Z M 21949,7106 L 22729,7106 22729,8233 21949,8233 21949,7106 Z"/>
             <path fill="rgb(107,107,107)" stroke="none" d="M 21949,7106 L 22729,7106 22729,8233 21949,8233 21949,7106 Z M 21957,7118 L 22721,7118 22721,8221 21957,8221 21957,7118 Z"/>
             <path fill="rgb(108,108,108)" stroke="none" d="M 21957,7118 L 22721,7118 22721,8221 21957,8221 21957,7118 Z M 21966,7130 L 22712,7130 22712,8209 21966,8209 21966,7130 Z"/>
             <path fill="rgb(109,109,109)" stroke="none" d="M 21966,7130 L 22712,7130 22712,8209 21966,8209 21966,7130 Z M 21974,7142 L 22704,7142 22704,8197 21974,8197 21974,7142 Z"/>
             <path fill="rgb(110,110,110)" stroke="none" d="M 21974,7142 L 22704,7142 22704,8197 21974,8197 21974,7142 Z M 21983,7155 L 22695,7155 22695,8184 21983,8184 21983,7155 Z"/>
             <path fill="rgb(111,111,111)" stroke="none" d="M 21983,7155 L 22695,7155 22695,8184 21983,8184 21983,7155 Z M 21991,7167 L 22687,7167 22687,8172 21991,8172 21991,7167 Z"/>
             <path fill="rgb(112,112,112)" stroke="none" d="M 21991,7167 L 22687,7167 22687,8172 21991,8172 21991,7167 Z M 22000,7179 L 22678,7179 22678,8160 22000,8160 22000,7179 Z"/>
             <path fill="rgb(113,113,113)" stroke="none" d="M 22000,7179 L 22678,7179 22678,8160 22000,8160 22000,7179 Z M 22008,7191 L 22670,7191 22670,8148 22008,8148 22008,7191 Z"/>
             <path fill="rgb(114,114,114)" stroke="none" d="M 22008,7191 L 22670,7191 22670,8148 22008,8148 22008,7191 Z M 22017,7204 L 22661,7204 22661,8135 22017,8135 22017,7204 Z"/>
             <path fill="rgb(115,115,115)" stroke="none" d="M 22017,7204 L 22661,7204 22661,8135 22017,8135 22017,7204 Z M 22025,7216 L 22653,7216 22653,8123 22025,8123 22025,7216 Z"/>
             <path fill="rgb(116,116,116)" stroke="none" d="M 22025,7216 L 22653,7216 22653,8123 22025,8123 22025,7216 Z M 22034,7228 L 22644,7228 22644,8111 22034,8111 22034,7228 Z"/>
             <path fill="rgb(117,117,117)" stroke="none" d="M 22034,7228 L 22644,7228 22644,8111 22034,8111 22034,7228 Z M 22042,7241 L 22636,7241 22636,8098 22042,8098 22042,7241 Z"/>
             <path fill="rgb(118,118,118)" stroke="none" d="M 22042,7241 L 22636,7241 22636,8098 22042,8098 22042,7241 Z M 22051,7253 L 22627,7253 22627,8086 22051,8086 22051,7253 Z"/>
             <path fill="rgb(119,119,119)" stroke="none" d="M 22051,7253 L 22627,7253 22627,8086 22051,8086 22051,7253 Z M 22059,7265 L 22619,7265 22619,8074 22059,8074 22059,7265 Z"/>
             <path fill="rgb(120,120,120)" stroke="none" d="M 22059,7265 L 22619,7265 22619,8074 22059,8074 22059,7265 Z M 22068,7277 L 22610,7277 22610,8062 22068,8062 22068,7277 Z"/>
             <path fill="rgb(121,121,121)" stroke="none" d="M 22068,7277 L 22610,7277 22610,8062 22068,8062 22068,7277 Z M 22076,7290 L 22602,7290 22602,8049 22076,8049 22076,7290 Z"/>
             <path fill="rgb(122,122,122)" stroke="none" d="M 22076,7290 L 22602,7290 22602,8049 22076,8049 22076,7290 Z M 22085,7302 L 22593,7302 22593,8037 22085,8037 22085,7302 Z"/>
             <path fill="rgb(123,123,123)" stroke="none" d="M 22085,7302 L 22593,7302 22593,8037 22085,8037 22085,7302 Z M 22093,7314 L 22585,7314 22585,8025 22093,8025 22093,7314 Z"/>
             <path fill="rgb(124,124,124)" stroke="none" d="M 22093,7314 L 22585,7314 22585,8025 22093,8025 22093,7314 Z M 22102,7326 L 22576,7326 22576,8013 22102,8013 22102,7326 Z"/>
             <path fill="rgb(125,125,125)" stroke="none" d="M 22102,7326 L 22576,7326 22576,8013 22102,8013 22102,7326 Z M 22110,7339 L 22568,7339 22568,8000 22110,8000 22110,7339 Z"/>
             <path fill="rgb(126,126,126)" stroke="none" d="M 22110,7339 L 22568,7339 22568,8000 22110,8000 22110,7339 Z M 22119,7351 L 22559,7351 22559,7988 22119,7988 22119,7351 Z"/>
             <path fill="rgb(127,127,127)" stroke="none" d="M 22119,7351 L 22559,7351 22559,7988 22119,7988 22119,7351 Z M 22127,7363 L 22551,7363 22551,7976 22127,7976 22127,7363 Z"/>
             <path fill="rgb(128,128,128)" stroke="none" d="M 22127,7363 L 22551,7363 22551,7976 22127,7976 22127,7363 Z M 22136,7376 L 22542,7376 22542,7963 22136,7963 22136,7376 Z"/>
             <path fill="rgb(129,129,129)" stroke="none" d="M 22136,7376 L 22542,7376 22542,7963 22136,7963 22136,7376 Z M 22144,7388 L 22534,7388 22534,7951 22144,7951 22144,7388 Z"/>
             <path fill="rgb(130,130,130)" stroke="none" d="M 22144,7388 L 22534,7388 22534,7951 22144,7951 22144,7388 Z M 22153,7400 L 22525,7400 22525,7939 22153,7939 22153,7400 Z"/>
             <path fill="rgb(131,131,131)" stroke="none" d="M 22153,7400 L 22525,7400 22525,7939 22153,7939 22153,7400 Z M 22161,7412 L 22517,7412 22517,7927 22161,7927 22161,7412 Z"/>
             <path fill="rgb(132,132,132)" stroke="none" d="M 22161,7412 L 22517,7412 22517,7927 22161,7927 22161,7412 Z M 22170,7425 L 22508,7425 22508,7914 22170,7914 22170,7425 Z"/>
             <path fill="rgb(133,133,133)" stroke="none" d="M 22170,7425 L 22508,7425 22508,7914 22170,7914 22170,7425 Z M 22178,7437 L 22500,7437 22500,7902 22178,7902 22178,7437 Z"/>
             <path fill="rgb(134,134,134)" stroke="none" d="M 22178,7437 L 22500,7437 22500,7902 22178,7902 22178,7437 Z M 22187,7449 L 22491,7449 22491,7890 22187,7890 22187,7449 Z"/>
             <path fill="rgb(135,135,135)" stroke="none" d="M 22187,7449 L 22491,7449 22491,7890 22187,7890 22187,7449 Z M 22195,7461 L 22483,7461 22483,7878 22195,7878 22195,7461 Z"/>
             <path fill="rgb(136,136,136)" stroke="none" d="M 22195,7461 L 22483,7461 22483,7878 22195,7878 22195,7461 Z M 22204,7474 L 22474,7474 22474,7865 22204,7865 22204,7474 Z"/>
             <path fill="rgb(137,137,137)" stroke="none" d="M 22204,7474 L 22474,7474 22474,7865 22204,7865 22204,7474 Z M 22212,7486 L 22466,7486 22466,7853 22212,7853 22212,7486 Z"/>
             <path fill="rgb(138,138,138)" stroke="none" d="M 22212,7486 L 22466,7486 22466,7853 22212,7853 22212,7486 Z M 22221,7498 L 22457,7498 22457,7841 22221,7841 22221,7498 Z"/>
             <path fill="rgb(139,139,139)" stroke="none" d="M 22221,7498 L 22457,7498 22457,7841 22221,7841 22221,7498 Z M 22229,7510 L 22449,7510 22449,7829 22229,7829 22229,7510 Z"/>
             <path fill="rgb(140,140,140)" stroke="none" d="M 22229,7510 L 22449,7510 22449,7829 22229,7829 22229,7510 Z M 22238,7523 L 22440,7523 22440,7816 22238,7816 22238,7523 Z"/>
             <path fill="rgb(141,141,141)" stroke="none" d="M 22238,7523 L 22440,7523 22440,7816 22238,7816 22238,7523 Z M 22246,7535 L 22432,7535 22432,7804 22246,7804 22246,7535 Z"/>
             <path fill="rgb(142,142,142)" stroke="none" d="M 22246,7535 L 22432,7535 22432,7804 22246,7804 22246,7535 Z M 22255,7547 L 22423,7547 22423,7792 22255,7792 22255,7547 Z"/>
             <path fill="rgb(143,143,143)" stroke="none" d="M 22255,7547 L 22423,7547 22423,7792 22255,7792 22255,7547 Z M 22263,7560 L 22415,7560 22415,7779 22263,7779 22263,7560 Z"/>
             <path fill="rgb(144,144,144)" stroke="none" d="M 22263,7560 L 22415,7560 22415,7779 22263,7779 22263,7560 Z M 22272,7572 L 22406,7572 22406,7767 22272,7767 22272,7572 Z"/>
             <path fill="rgb(145,145,145)" stroke="none" d="M 22272,7572 L 22406,7572 22406,7767 22272,7767 22272,7572 Z M 22280,7584 L 22398,7584 22398,7755 22280,7755 22280,7584 Z"/>
             <path fill="rgb(146,146,146)" stroke="none" d="M 22280,7584 L 22398,7584 22398,7755 22280,7755 22280,7584 Z M 22289,7596 L 22389,7596 22389,7743 22289,7743 22289,7596 Z"/>
             <path fill="rgb(147,147,147)" stroke="none" d="M 22289,7596 L 22389,7596 22389,7743 22289,7743 22289,7596 Z M 22297,7609 L 22381,7609 22381,7730 22297,7730 22297,7609 Z"/>
             <path fill="rgb(148,148,148)" stroke="none" d="M 22297,7609 L 22381,7609 22381,7730 22297,7730 22297,7609 Z M 22306,7621 L 22372,7621 22372,7718 22306,7718 22306,7621 Z"/>
             <path fill="rgb(149,149,149)" stroke="none" d="M 22306,7621 L 22372,7621 22372,7718 22306,7718 22306,7621 Z M 22314,7633 L 22364,7633 22364,7706 22314,7706 22314,7633 Z"/>
             <path fill="rgb(150,150,150)" stroke="none" d="M 22314,7633 L 22364,7633 22364,7706 22314,7706 22314,7633 Z M 22323,7645 L 22355,7645 22355,7694 22323,7694 22323,7645 Z"/>
             <path fill="rgb(151,151,151)" stroke="none" d="M 22323,7645 L 22355,7645 22355,7694 22323,7694 22323,7645 Z M 22331,7658 L 22347,7658 22347,7681 22331,7681 22331,7658 Z"/>
             <path fill="rgb(153,153,153)" stroke="none" d="M 22331,7658 L 22347,7658 22347,7681 22331,7681 22331,7658 Z"/>
            </g>
           </pattern>
          </defs>
          <path style="fill:url(#pattern1)" d="M 21822,9421 L 21822,7921 23551,6921 23551,8421 21822,9421 Z"/>
         </g>
         <path fill="none" stroke="rgb(178,178,178)" stroke-width="40" stroke-linejoin="round" d="M 21822,9421 L 21822,7921 23551,6921 23551,8421 21822,9421 Z"/>
        </g>
       </g>
       <g class="com.sun.star.drawing.PolyPolygonShape">
        <g id="id6">
         <rect class="BoundingBox" stroke="none" fill="none" x="18343" y="4900" width="5229" height="3042"/>
         <g>
          <defs>
           <linearGradient id="gradient2" x1="20957" y1="4921" x2="20957" y2="7921" gradientUnits="userSpaceOnUse">
            <stop offset="0.1" style="stop-color:rgb(51,51,51)"/>
            <stop offset="1" style="stop-color:rgb(153,153,153)"/>
           </linearGradient>
          </defs>
          <path style="fill:url(#gradient2)" d="M 21822,7921 L 18363,5921 20092,4921 23551,6921 21822,7921 Z"/>
         </g>
         <path fill="none" stroke="rgb(178,178,178)" stroke-width="40" stroke-linejoin="round" d="M 21822,7921 L 18363,5921 20092,4921 23551,6921 21822,7921 Z"/>
        </g>
       </g>
       <g class="com.sun.star.drawing.PolyPolygonShape">
        <g id="id7">
         <rect class="BoundingBox" stroke="none" fill="none" x="21457" y="7951" width="214" height="341"/>
         <path fill="rgb(57,181,74)" stroke="none" d="M 21477,8171 L 21477,7971 21650,8071 21650,8271 21477,8171 Z"/>
         <path fill="none" stroke="rgb(102,102,102)" stroke-width="40" stroke-linejoin="round" d="M 21477,8171 L 21477,7971 21650,8071 21650,8271 21477,8171 Z"/>
        </g>
       </g>
       <g class="com.sun.star.drawing.PolyPolygonShape">
        <g id="id8">
         <rect class="BoundingBox" stroke="none" fill="none" x="19208" y="8351" width="1770" height="991"/>
         <g>
          <defs>
           <pattern id="pattern2" x="19228" y="8371" width="1730" height="951" patternUnits="userSpaceOnUse">
            <g transform="translate(-19228,-8371)">
             <path fill="rgb(51,51,51)" stroke="none" d="M 19227,8370 L 20958,8370 20958,9322 19227,9322 19227,8370 Z M 18889,8184 L 20602,8184 20602,9126 18889,9126 18889,8184 Z"/>
             <path fill="rgb(52,52,52)" stroke="none" d="M 18889,8184 L 20602,8184 20602,9126 18889,9126 18889,8184 Z M 18897,8189 L 20594,8189 20594,9121 18897,9121 18897,8189 Z"/>
             <path fill="rgb(53,53,53)" stroke="none" d="M 18897,8189 L 20594,8189 20594,9121 18897,9121 18897,8189 Z M 18906,8194 L 20585,8194 20585,9116 18906,9116 18906,8194 Z"/>
             <path fill="rgb(54,54,54)" stroke="none" d="M 18906,8194 L 20585,8194 20585,9116 18906,9116 18906,8194 Z M 18914,8198 L 20577,8198 20577,9112 18914,9112 18914,8198 Z"/>
             <path fill="rgb(55,55,55)" stroke="none" d="M 18914,8198 L 20577,8198 20577,9112 18914,9112 18914,8198 Z M 18923,8203 L 20568,8203 20568,9107 18923,9107 18923,8203 Z"/>
             <path fill="rgb(56,56,56)" stroke="none" d="M 18923,8203 L 20568,8203 20568,9107 18923,9107 18923,8203 Z M 18931,8208 L 20560,8208 20560,9102 18931,9102 18931,8208 Z"/>
             <path fill="rgb(57,57,57)" stroke="none" d="M 18931,8208 L 20560,8208 20560,9102 18931,9102 18931,8208 Z M 18940,8212 L 20551,8212 20551,9098 18940,9098 18940,8212 Z"/>
             <path fill="rgb(58,58,58)" stroke="none" d="M 18940,8212 L 20551,8212 20551,9098 18940,9098 18940,8212 Z M 18948,8217 L 20543,8217 20543,9093 18948,9093 18948,8217 Z"/>
             <path fill="rgb(59,59,59)" stroke="none" d="M 18948,8217 L 20543,8217 20543,9093 18948,9093 18948,8217 Z M 18957,8222 L 20534,8222 20534,9088 18957,9088 18957,8222 Z"/>
             <path fill="rgb(60,60,60)" stroke="none" d="M 18957,8222 L 20534,8222 20534,9088 18957,9088 18957,8222 Z M 18965,8226 L 20526,8226 20526,9084 18965,9084 18965,8226 Z"/>
             <path fill="rgb(61,61,61)" stroke="none" d="M 18965,8226 L 20526,8226 20526,9084 18965,9084 18965,8226 Z M 18974,8231 L 20517,8231 20517,9079 18974,9079 18974,8231 Z"/>
             <path fill="rgb(62,62,62)" stroke="none" d="M 18974,8231 L 20517,8231 20517,9079 18974,9079 18974,8231 Z M 18982,8236 L 20509,8236 20509,9074 18982,9074 18982,8236 Z"/>
             <path fill="rgb(63,63,63)" stroke="none" d="M 18982,8236 L 20509,8236 20509,9074 18982,9074 18982,8236 Z M 18991,8240 L 20500,8240 20500,9070 18991,9070 18991,8240 Z"/>
             <path fill="rgb(64,64,64)" stroke="none" d="M 18991,8240 L 20500,8240 20500,9070 18991,9070 18991,8240 Z M 18999,8245 L 20492,8245 20492,9065 18999,9065 18999,8245 Z"/>
             <path fill="rgb(65,65,65)" stroke="none" d="M 18999,8245 L 20492,8245 20492,9065 18999,9065 18999,8245 Z M 19008,8250 L 20483,8250 20483,9060 19008,9060 19008,8250 Z"/>
             <path fill="rgb(66,66,66)" stroke="none" d="M 19008,8250 L 20483,8250 20483,9060 19008,9060 19008,8250 Z M 19016,8254 L 20475,8254 20475,9056 19016,9056 19016,8254 Z"/>
             <path fill="rgb(67,67,67)" stroke="none" d="M 19016,8254 L 20475,8254 20475,9056 19016,9056 19016,8254 Z M 19025,8259 L 20466,8259 20466,9051 19025,9051 19025,8259 Z"/>
             <path fill="rgb(68,68,68)" stroke="none" d="M 19025,8259 L 20466,8259 20466,9051 19025,9051 19025,8259 Z M 19033,8264 L 20458,8264 20458,9046 19033,9046 19033,8264 Z"/>
             <path fill="rgb(69,69,69)" stroke="none" d="M 19033,8264 L 20458,8264 20458,9046 19033,9046 19033,8264 Z M 19042,8268 L 20449,8268 20449,9042 19042,9042 19042,8268 Z"/>
             <path fill="rgb(70,70,70)" stroke="none" d="M 19042,8268 L 20449,8268 20449,9042 19042,9042 19042,8268 Z M 19050,8273 L 20441,8273 20441,9037 19050,9037 19050,8273 Z"/>
             <path fill="rgb(71,71,71)" stroke="none" d="M 19050,8273 L 20441,8273 20441,9037 19050,9037 19050,8273 Z M 19059,8278 L 20432,8278 20432,9032 19059,9032 19059,8278 Z"/>
             <path fill="rgb(72,72,72)" stroke="none" d="M 19059,8278 L 20432,8278 20432,9032 19059,9032 19059,8278 Z M 19067,8282 L 20424,8282 20424,9028 19067,9028 19067,8282 Z"/>
             <path fill="rgb(73,73,73)" stroke="none" d="M 19067,8282 L 20424,8282 20424,9028 19067,9028 19067,8282 Z M 19076,8287 L 20415,8287 20415,9023 19076,9023 19076,8287 Z"/>
             <path fill="rgb(74,74,74)" stroke="none" d="M 19076,8287 L 20415,8287 20415,9023 19076,9023 19076,8287 Z M 19084,8292 L 20407,8292 20407,9018 19084,9018 19084,8292 Z"/>
             <path fill="rgb(75,75,75)" stroke="none" d="M 19084,8292 L 20407,8292 20407,9018 19084,9018 19084,8292 Z M 19093,8296 L 20398,8296 20398,9014 19093,9014 19093,8296 Z"/>
             <path fill="rgb(76,76,76)" stroke="none" d="M 19093,8296 L 20398,8296 20398,9014 19093,9014 19093,8296 Z M 19101,8301 L 20390,8301 20390,9009 19101,9009 19101,8301 Z"/>
             <path fill="rgb(77,77,77)" stroke="none" d="M 19101,8301 L 20390,8301 20390,9009 19101,9009 19101,8301 Z M 19110,8306 L 20381,8306 20381,9004 19110,9004 19110,8306 Z"/>
             <path fill="rgb(78,78,78)" stroke="none" d="M 19110,8306 L 20381,8306 20381,9004 19110,9004 19110,8306 Z M 19118,8310 L 20373,8310 20373,9000 19118,9000 19118,8310 Z"/>
             <path fill="rgb(79,79,79)" stroke="none" d="M 19118,8310 L 20373,8310 20373,9000 19118,9000 19118,8310 Z M 19127,8315 L 20364,8315 20364,8995 19127,8995 19127,8315 Z"/>
             <path fill="rgb(80,80,80)" stroke="none" d="M 19127,8315 L 20364,8315 20364,8995 19127,8995 19127,8315 Z M 19135,8320 L 20356,8320 20356,8990 19135,8990 19135,8320 Z"/>
             <path fill="rgb(81,81,81)" stroke="none" d="M 19135,8320 L 20356,8320 20356,8990 19135,8990 19135,8320 Z M 19144,8324 L 20347,8324 20347,8986 19144,8986 19144,8324 Z"/>
             <path fill="rgb(82,82,82)" stroke="none" d="M 19144,8324 L 20347,8324 20347,8986 19144,8986 19144,8324 Z M 19152,8329 L 20339,8329 20339,8981 19152,8981 19152,8329 Z"/>
             <path fill="rgb(83,83,83)" stroke="none" d="M 19152,8329 L 20339,8329 20339,8981 19152,8981 19152,8329 Z M 19161,8334 L 20330,8334 20330,8976 19161,8976 19161,8334 Z"/>
             <path fill="rgb(84,84,84)" stroke="none" d="M 19161,8334 L 20330,8334 20330,8976 19161,8976 19161,8334 Z M 19169,8338 L 20322,8338 20322,8972 19169,8972 19169,8338 Z"/>
             <path fill="rgb(85,85,85)" stroke="none" d="M 19169,8338 L 20322,8338 20322,8972 19169,8972 19169,8338 Z M 19178,8343 L 20313,8343 20313,8967 19178,8967 19178,8343 Z"/>
             <path fill="rgb(86,86,86)" stroke="none" d="M 19178,8343 L 20313,8343 20313,8967 19178,8967 19178,8343 Z M 19186,8348 L 20305,8348 20305,8962 19186,8962 19186,8348 Z"/>
             <path fill="rgb(87,87,87)" stroke="none" d="M 19186,8348 L 20305,8348 20305,8962 19186,8962 19186,8348 Z M 19195,8351 L 20296,8351 20296,8958 19195,8958 19195,8351 Z"/>
             <path fill="rgb(88,88,88)" stroke="none" d="M 19195,8351 L 20296,8351 20296,8958 19195,8958 19195,8351 Z M 19203,8356 L 20288,8356 20288,8953 19203,8953 19203,8356 Z"/>
             <path fill="rgb(89,89,89)" stroke="none" d="M 19203,8356 L 20288,8356 20288,8953 19203,8953 19203,8356 Z M 19211,8361 L 20279,8361 20279,8948 19211,8948 19211,8361 Z"/>
             <path fill="rgb(90,90,90)" stroke="none" d="M 19211,8361 L 20279,8361 20279,8948 19211,8948 19211,8361 Z M 19219,8365 L 20271,8365 20271,8944 19219,8944 19219,8365 Z"/>
             <path fill="rgb(91,91,91)" stroke="none" d="M 19219,8365 L 20271,8365 20271,8944 19219,8944 19219,8365 Z M 19228,8370 L 20262,8370 20262,8939 19228,8939 19228,8370 Z"/>
             <path fill="rgb(92,92,92)" stroke="none" d="M 19228,8370 L 20262,8370 20262,8939 19228,8939 19228,8370 Z M 19236,8375 L 20254,8375 20254,8934 19236,8934 19236,8375 Z"/>
             <path fill="rgb(93,93,93)" stroke="none" d="M 19236,8375 L 20254,8375 20254,8934 19236,8934 19236,8375 Z M 19245,8379 L 20245,8379 20245,8930 19245,8930 19245,8379 Z"/>
             <path fill="rgb(94,94,94)" stroke="none" d="M 19245,8379 L 20245,8379 20245,8930 19245,8930 19245,8379 Z M 19253,8384 L 20237,8384 20237,8925 19253,8925 19253,8384 Z"/>
             <path fill="rgb(95,95,95)" stroke="none" d="M 19253,8384 L 20237,8384 20237,8925 19253,8925 19253,8384 Z M 19262,8389 L 20228,8389 20228,8920 19262,8920 19262,8389 Z"/>
             <path fill="rgb(96,96,96)" stroke="none" d="M 19262,8389 L 20228,8389 20228,8920 19262,8920 19262,8389 Z M 19270,8393 L 20220,8393 20220,8916 19270,8916 19270,8393 Z"/>
             <path fill="rgb(97,97,97)" stroke="none" d="M 19270,8393 L 20220,8393 20220,8916 19270,8916 19270,8393 Z M 19279,8398 L 20211,8398 20211,8911 19279,8911 19279,8398 Z"/>
             <path fill="rgb(98,98,98)" stroke="none" d="M 19279,8398 L 20211,8398 20211,8911 19279,8911 19279,8398 Z M 19287,8403 L 20203,8403 20203,8906 19287,8906 19287,8403 Z"/>
             <path fill="rgb(99,99,99)" stroke="none" d="M 19287,8403 L 20203,8403 20203,8906 19287,8906 19287,8403 Z M 19296,8407 L 20194,8407 20194,8902 19296,8902 19296,8407 Z"/>
             <path fill="rgb(100,100,100)" stroke="none" d="M 19296,8407 L 20194,8407 20194,8902 19296,8902 19296,8407 Z M 19304,8412 L 20186,8412 20186,8897 19304,8897 19304,8412 Z"/>
             <path fill="rgb(101,101,101)" stroke="none" d="M 19304,8412 L 20186,8412 20186,8897 19304,8897 19304,8412 Z M 19313,8417 L 20177,8417 20177,8892 19313,8892 19313,8417 Z"/>
             <path fill="rgb(102,102,102)" stroke="none" d="M 19313,8417 L 20177,8417 20177,8892 19313,8892 19313,8417 Z M 19321,8421 L 20169,8421 20169,8888 19321,8888 19321,8421 Z"/>
             <path fill="rgb(103,103,103)" stroke="none" d="M 19321,8421 L 20169,8421 20169,8888 19321,8888 19321,8421 Z M 19329,8426 L 20161,8426 20161,8883 19329,8883 19329,8426 Z"/>
             <path fill="rgb(104,104,104)" stroke="none" d="M 19329,8426 L 20161,8426 20161,8883 19329,8883 19329,8426 Z M 19338,8431 L 20152,8431 20152,8878 19338,8878 19338,8431 Z"/>
             <path fill="rgb(105,105,105)" stroke="none" d="M 19338,8431 L 20152,8431 20152,8878 19338,8878 19338,8431 Z M 19346,8435 L 20144,8435 20144,8874 19346,8874 19346,8435 Z"/>
             <path fill="rgb(106,106,106)" stroke="none" d="M 19346,8435 L 20144,8435 20144,8874 19346,8874 19346,8435 Z M 19355,8440 L 20135,8440 20135,8869 19355,8869 19355,8440 Z"/>
             <path fill="rgb(107,107,107)" stroke="none" d="M 19355,8440 L 20135,8440 20135,8869 19355,8869 19355,8440 Z M 19363,8445 L 20127,8445 20127,8864 19363,8864 19363,8445 Z"/>
             <path fill="rgb(108,108,108)" stroke="none" d="M 19363,8445 L 20127,8445 20127,8864 19363,8864 19363,8445 Z M 19372,8449 L 20118,8449 20118,8860 19372,8860 19372,8449 Z"/>
             <path fill="rgb(109,109,109)" stroke="none" d="M 19372,8449 L 20118,8449 20118,8860 19372,8860 19372,8449 Z M 19380,8454 L 20110,8454 20110,8855 19380,8855 19380,8454 Z"/>
             <path fill="rgb(110,110,110)" stroke="none" d="M 19380,8454 L 20110,8454 20110,8855 19380,8855 19380,8454 Z M 19389,8459 L 20101,8459 20101,8850 19389,8850 19389,8459 Z"/>
             <path fill="rgb(111,111,111)" stroke="none" d="M 19389,8459 L 20101,8459 20101,8850 19389,8850 19389,8459 Z M 19397,8463 L 20093,8463 20093,8846 19397,8846 19397,8463 Z"/>
             <path fill="rgb(112,112,112)" stroke="none" d="M 19397,8463 L 20093,8463 20093,8846 19397,8846 19397,8463 Z M 19406,8468 L 20084,8468 20084,8841 19406,8841 19406,8468 Z"/>
             <path fill="rgb(113,113,113)" stroke="none" d="M 19406,8468 L 20084,8468 20084,8841 19406,8841 19406,8468 Z M 19414,8473 L 20076,8473 20076,8836 19414,8836 19414,8473 Z"/>
             <path fill="rgb(114,114,114)" stroke="none" d="M 19414,8473 L 20076,8473 20076,8836 19414,8836 19414,8473 Z M 19423,8477 L 20067,8477 20067,8832 19423,8832 19423,8477 Z"/>
             <path fill="rgb(115,115,115)" stroke="none" d="M 19423,8477 L 20067,8477 20067,8832 19423,8832 19423,8477 Z M 19431,8482 L 20059,8482 20059,8827 19431,8827 19431,8482 Z"/>
             <path fill="rgb(116,116,116)" stroke="none" d="M 19431,8482 L 20059,8482 20059,8827 19431,8827 19431,8482 Z M 19440,8487 L 20050,8487 20050,8822 19440,8822 19440,8487 Z"/>
             <path fill="rgb(117,117,117)" stroke="none" d="M 19440,8487 L 20050,8487 20050,8822 19440,8822 19440,8487 Z M 19448,8491 L 20042,8491 20042,8818 19448,8818 19448,8491 Z"/>
             <path fill="rgb(118,118,118)" stroke="none" d="M 19448,8491 L 20042,8491 20042,8818 19448,8818 19448,8491 Z M 19457,8496 L 20033,8496 20033,8813 19457,8813 19457,8496 Z"/>
             <path fill="rgb(119,119,119)" stroke="none" d="M 19457,8496 L 20033,8496 20033,8813 19457,8813 19457,8496 Z M 19465,8501 L 20025,8501 20025,8808 19465,8808 19465,8501 Z"/>
             <path fill="rgb(120,120,120)" stroke="none" d="M 19465,8501 L 20025,8501 20025,8808 19465,8808 19465,8501 Z M 19474,8506 L 20016,8506 20016,8803 19474,8803 19474,8506 Z"/>
             <path fill="rgb(121,121,121)" stroke="none" d="M 19474,8506 L 20016,8506 20016,8803 19474,8803 19474,8506 Z M 19482,8510 L 20008,8510 20008,8799 19482,8799 19482,8510 Z"/>
             <path fill="rgb(122,122,122)" stroke="none" d="M 19482,8510 L 20008,8510 20008,8799 19482,8799 19482,8510 Z M 19491,8515 L 19999,8515 19999,8794 19491,8794 19491,8515 Z"/>
             <path fill="rgb(123,123,123)" stroke="none" d="M 19491,8515 L 19999,8515 19999,8794 19491,8794 19491,8515 Z M 19499,8520 L 19991,8520 19991,8789 19499,8789 19499,8520 Z"/>
             <path fill="rgb(124,124,124)" stroke="none" d="M 19499,8520 L 19991,8520 19991,8789 19499,8789 19499,8520 Z M 19508,8524 L 19982,8524 19982,8785 19508,8785 19508,8524 Z"/>
             <path fill="rgb(125,125,125)" stroke="none" d="M 19508,8524 L 19982,8524 19982,8785 19508,8785 19508,8524 Z M 19516,8529 L 19974,8529 19974,8780 19516,8780 19516,8529 Z"/>
             <path fill="rgb(126,126,126)" stroke="none" d="M 19516,8529 L 19974,8529 19974,8780 19516,8780 19516,8529 Z M 19525,8534 L 19965,8534 19965,8775 19525,8775 19525,8534 Z"/>
             <path fill="rgb(127,127,127)" stroke="none" d="M 19525,8534 L 19965,8534 19965,8775 19525,8775 19525,8534 Z M 19533,8538 L 19957,8538 19957,8771 19533,8771 19533,8538 Z"/>
             <path fill="rgb(128,128,128)" stroke="none" d="M 19533,8538 L 19957,8538 19957,8771 19533,8771 19533,8538 Z M 19542,8543 L 19948,8543 19948,8766 19542,8766 19542,8543 Z"/>
             <path fill="rgb(129,129,129)" stroke="none" d="M 19542,8543 L 19948,8543 19948,8766 19542,8766 19542,8543 Z M 19550,8548 L 19940,8548 19940,8761 19550,8761 19550,8548 Z"/>
             <path fill="rgb(130,130,130)" stroke="none" d="M 19550,8548 L 19940,8548 19940,8761 19550,8761 19550,8548 Z M 19559,8552 L 19931,8552 19931,8757 19559,8757 19559,8552 Z"/>
             <path fill="rgb(131,131,131)" stroke="none" d="M 19559,8552 L 19931,8552 19931,8757 19559,8757 19559,8552 Z M 19567,8557 L 19923,8557 19923,8752 19567,8752 19567,8557 Z"/>
             <path fill="rgb(132,132,132)" stroke="none" d="M 19567,8557 L 19923,8557 19923,8752 19567,8752 19567,8557 Z M 19576,8562 L 19914,8562 19914,8747 19576,8747 19576,8562 Z"/>
             <path fill="rgb(133,133,133)" stroke="none" d="M 19576,8562 L 19914,8562 19914,8747 19576,8747 19576,8562 Z M 19584,8566 L 19906,8566 19906,8743 19584,8743 19584,8566 Z"/>
             <path fill="rgb(134,134,134)" stroke="none" d="M 19584,8566 L 19906,8566 19906,8743 19584,8743 19584,8566 Z M 19593,8571 L 19897,8571 19897,8738 19593,8738 19593,8571 Z"/>
             <path fill="rgb(135,135,135)" stroke="none" d="M 19593,8571 L 19897,8571 19897,8738 19593,8738 19593,8571 Z M 19601,8576 L 19889,8576 19889,8733 19601,8733 19601,8576 Z"/>
             <path fill="rgb(136,136,136)" stroke="none" d="M 19601,8576 L 19889,8576 19889,8733 19601,8733 19601,8576 Z M 19610,8580 L 19880,8580 19880,8729 19610,8729 19610,8580 Z"/>
             <path fill="rgb(137,137,137)" stroke="none" d="M 19610,8580 L 19880,8580 19880,8729 19610,8729 19610,8580 Z M 19618,8585 L 19872,8585 19872,8724 19618,8724 19618,8585 Z"/>
             <path fill="rgb(138,138,138)" stroke="none" d="M 19618,8585 L 19872,8585 19872,8724 19618,8724 19618,8585 Z M 19627,8590 L 19863,8590 19863,8719 19627,8719 19627,8590 Z"/>
             <path fill="rgb(139,139,139)" stroke="none" d="M 19627,8590 L 19863,8590 19863,8719 19627,8719 19627,8590 Z M 19635,8594 L 19855,8594 19855,8715 19635,8715 19635,8594 Z"/>
             <path fill="rgb(140,140,140)" stroke="none" d="M 19635,8594 L 19855,8594 19855,8715 19635,8715 19635,8594 Z M 19644,8599 L 19846,8599 19846,8710 19644,8710 19644,8599 Z"/>
             <path fill="rgb(141,141,141)" stroke="none" d="M 19644,8599 L 19846,8599 19846,8710 19644,8710 19644,8599 Z M 19652,8604 L 19838,8604 19838,8705 19652,8705 19652,8604 Z"/>
             <path fill="rgb(142,142,142)" stroke="none" d="M 19652,8604 L 19838,8604 19838,8705 19652,8705 19652,8604 Z M 19661,8608 L 19829,8608 19829,8701 19661,8701 19661,8608 Z"/>
             <path fill="rgb(143,143,143)" stroke="none" d="M 19661,8608 L 19829,8608 19829,8701 19661,8701 19661,8608 Z M 19669,8613 L 19821,8613 19821,8696 19669,8696 19669,8613 Z"/>
             <path fill="rgb(144,144,144)" stroke="none" d="M 19669,8613 L 19821,8613 19821,8696 19669,8696 19669,8613 Z M 19678,8618 L 19812,8618 19812,8691 19678,8691 19678,8618 Z"/>
             <path fill="rgb(145,145,145)" stroke="none" d="M 19678,8618 L 19812,8618 19812,8691 19678,8691 19678,8618 Z M 19686,8622 L 19804,8622 19804,8687 19686,8687 19686,8622 Z"/>
             <path fill="rgb(146,146,146)" stroke="none" d="M 19686,8622 L 19804,8622 19804,8687 19686,8687 19686,8622 Z M 19695,8627 L 19795,8627 19795,8682 19695,8682 19695,8627 Z"/>
             <path fill="rgb(147,147,147)" stroke="none" d="M 19695,8627 L 19795,8627 19795,8682 19695,8682 19695,8627 Z M 19703,8632 L 19787,8632 19787,8677 19703,8677 19703,8632 Z"/>
             <path fill="rgb(148,148,148)" stroke="none" d="M 19703,8632 L 19787,8632 19787,8677 19703,8677 19703,8632 Z M 19712,8636 L 19778,8636 19778,8673 19712,8673 19712,8636 Z"/>
             <path fill="rgb(149,149,149)" stroke="none" d="M 19712,8636 L 19778,8636 19778,8673 19712,8673 19712,8636 Z M 19720,8641 L 19770,8641 19770,8668 19720,8668 19720,8641 Z"/>
             <path fill="rgb(150,150,150)" stroke="none" d="M 19720,8641 L 19770,8641 19770,8668 19720,8668 19720,8641 Z M 19729,8646 L 19761,8646 19761,8663 19729,8663 19729,8646 Z"/>
             <path fill="rgb(151,151,151)" stroke="none" d="M 19729,8646 L 19761,8646 19761,8663 19729,8663 19729,8646 Z M 19737,8650 L 19753,8650 19753,8659 19737,8659 19737,8650 Z"/>
             <path fill="rgb(153,153,153)" stroke="none" d="M 19737,8650 L 19753,8650 19753,8659 19737,8659 19737,8650 Z"/>
            </g>
           </pattern>
          </defs>
          <path style="fill:url(#pattern2)" d="M 19228,9071 L 20957,8371 20957,8771 19228,9321 19228,9071 Z"/>
         </g>
         <path fill="none" stroke="rgb(178,178,178)" stroke-width="40" stroke-linejoin="round" d="M 19228,9071 L 20957,8371 20957,8771 19228,9321 19228,9071 Z"/>
        </g>
       </g>
       <g class="com.sun.star.drawing.PolyPolygonShape">
        <g id="id9">
         <rect class="BoundingBox" stroke="none" fill="none" x="17479" y="7351" width="3500" height="1741"/>
         <g>
          <defs>
           <linearGradient id="gradient3" x1="19228" y1="7371" x2="19228" y2="9071" gradientUnits="userSpaceOnUse">
            <stop offset="0.1" style="stop-color:rgb(51,51,51)"/>
            <stop offset="1" style="stop-color:rgb(153,153,153)"/>
           </linearGradient>
          </defs>
          <path style="fill:url(#gradient3)" d="M 19228,9071 L 17499,8071 19228,7371 20958,8371 19228,9071 Z"/>
         </g>
         <path fill="none" stroke="rgb(178,178,178)" stroke-width="40" stroke-linejoin="round" d="M 19228,9071 L 17499,8071 19228,7371 20958,8371 19228,9071 Z"/>
        </g>
       </g>
       <g class="com.sun.star.drawing.PolyPolygonShape">
        <g id="id10">
         <rect class="BoundingBox" stroke="none" fill="none" x="17479" y="8051" width="1770" height="1291"/>
         <g>
          <defs>
           <linearGradient id="gradient4" x1="17498" y1="8696" x2="19228" y2="8696" gradientUnits="userSpaceOnUse">
            <stop offset="0.1" style="stop-color:rgb(51,51,51)"/>
            <stop offset="1" style="stop-color:rgb(153,153,153)"/>
           </linearGradient>
          </defs>
          <path style="fill:url(#gradient4)" d="M 17499,8321 L 17499,8071 19228,9071 19228,9321 17499,8321 Z"/>
         </g>
         <path fill="none" stroke="rgb(178,178,178)" stroke-width="40" stroke-linejoin="round" d="M 17499,8321 L 17499,8071 19228,9071 19228,9321 17499,8321 Z"/>
        </g>
       </g>
       <g class="com.sun.star.drawing.PolyPolygonShape">
        <g id="id11">
         <rect class="BoundingBox" stroke="none" fill="none" x="17479" y="4901" width="6093" height="4541"/>
         <path fill="none" stroke="rgb(0,0,0)" stroke-width="40" stroke-linejoin="round" d="M 18363,7421 L 18363,5921 20093,4921 23551,6921 23551,8421 21822,9421 20785,8821 19228,9321 17499,8321 17499,8071 18710,7571 18363,7421 Z"/>
        </g>
       </g>
       <g class="com.sun.star.drawing.ClosedBezierShape">
        <g id="id12">
         <rect class="BoundingBox" stroke="none" fill="none" x="17566" y="7500" width="3153" height="1492"/>
         <path fill="rgb(255,255,255)" stroke="none" d="M 18797,8971 C 18450,8771 17932,8471 17586,8271 18018,8021 18883,7671 19489,7521 19834,7721 20266,7971 20698,8221 20180,8371 19315,8721 18797,8971 Z"/>
         <path fill="none" stroke="rgb(102,102,102)" stroke-width="40" stroke-linejoin="round" d="M 18797,8971 C 18450,8771 17932,8471 17586,8271 18018,8021 18883,7671 19489,7521 19834,7721 20266,7971 20698,8221 20180,8371 19315,8721 18797,8971 Z"/>
        </g>
       </g>
       <g class="com.sun.star.drawing.PolyLineShape">
        <g id="id13">
         <rect class="BoundingBox" stroke="none" fill="none" x="19208" y="7151" width="1770" height="1191"/>
         <path fill="none" stroke="rgb(102,102,102)" stroke-width="40" stroke-linejoin="round" d="M 19228,7371 L 19228,7171 20957,8171 20957,8321"/>
        </g>
       </g>
       <g class="com.sun.star.drawing.PolyPolygonShape">
        <g id="id14">
         <rect class="BoundingBox" stroke="none" fill="none" x="19208" y="5501" width="3327" height="1941"/>
         <g>
          <defs>
           <linearGradient id="gradient5" x1="20871" y1="5521" x2="20871" y2="7421" gradientUnits="userSpaceOnUse">
            <stop offset="0.1" style="stop-color:rgb(51,51,51)"/>
            <stop offset="1" style="stop-color:rgb(153,153,153)"/>
           </linearGradient>
          </defs>
          <path style="fill:url(#gradient5)" d="M 20957,7421 L 19228,6421 20784,5521 22514,6521 20957,7421 Z"/>
         </g>
         <path fill="none" stroke="rgb(178,178,178)" stroke-width="40" stroke-linejoin="round" d="M 20957,7421 L 19228,6421 20784,5521 22514,6521 20957,7421 Z"/>
        </g>
       </g>
       <g class="com.sun.star.drawing.PolyPolygonShape">
        <g id="id15">
         <rect class="BoundingBox" stroke="none" fill="none" x="19208" y="6401" width="1770" height="1541"/>
         <g>
          <defs>
           <linearGradient id="gradient6" x1="19227" y1="7171" x2="20957" y2="7171" gradientUnits="userSpaceOnUse">
            <stop offset="0.1" style="stop-color:rgb(51,51,51)"/>
            <stop offset="1" style="stop-color:rgb(153,153,153)"/>
           </linearGradient>
          </defs>
          <path style="fill:url(#gradient6)" d="M 19228,6921 L 19228,6421 20957,7421 20957,7921 19228,6921 Z"/>
         </g>
         <path fill="none" stroke="rgb(178,178,178)" stroke-width="40" stroke-linejoin="round" d="M 19228,6921 L 19228,6421 20957,7421 20957,7921 19228,6921 Z"/>
        </g>
       </g>
      </g>
     </g>
    </g>
   </g>
  </g>
 </g>
</svg>