<?xml version="1.0" encoding="UTF-8"?>
<!DOCTYPE svg PUBLIC "-//W3C//DTD SVG 1.1//EN" "http://www.w3.org/Graphics/SVG/1.1/DTD/svg11.dtd">
<svg version="1.2" width="60.92mm" height="45.4mm" viewBox="11854 11794 6092 4540" preserveAspectRatio="xMidYMid" fill-rule="evenodd" stroke-width="28.222" stroke-linejoin="round" xmlns="http://www.w3.org/2000/svg" xmlns:ooo="http://xml.openoffice.org/svg/export" xmlns:xlink="http://www.w3.org/1999/xlink" xmlns:presentation="http://sun.com/xmlns/staroffice/presentation" xmlns:smil="http://www.w3.org/2001/SMIL20/" xmlns:anim="urn:oasis:names:tc:opendocument:xmlns:animation:1.0" xml:space="preserve">
 <defs class="ClipPathGroup">
  <clipPath id="presentation_clip_path" clipPathUnits="userSpaceOnUse">
   <rect x="11854" y="11794" width="6092" height="4540"/>
  </clipPath>
 </defs>
 <defs class="TextShapeIndex">
  <g ooo:slide="id1" ooo:id-list="id3 id4 id5 id6 id7 id8 id9 id10 id11 id12 id13 id14 id15"/>
 </defs>
 <defs class="EmbeddedBulletChars">
  <g id="bullet-char-template(57356)" transform="scale(0.00048828125,-0.00048828125)">
   <path d="M 580,1141 L 1163,571 580,0 -4,571 580,1141 Z"/>
  </g>
  <g id="bullet-char-template(57354)" transform="scale(0.00048828125,-0.00048828125)">
   <path d="M 8,1128 L 1137,1128 1137,0 8,0 8,1128 Z"/>
  </g>
  <g id="bullet-char-template(10146)" transform="scale(0.00048828125,-0.00048828125)">
   <path d="M 174,0 L 602,739 174,1481 1456,739 174,0 Z M 1358,739 L 309,1346 659,739 1358,739 Z"/>
  </g>
  <g id="bullet-char-template(10132)" transform="scale(0.00048828125,-0.00048828125)">
   <path d="M 2015,739 L 1276,0 717,0 1260,543 174,543 174,936 1260,936 717,1481 1274,1481 2015,739 Z"/>
  </g>
  <g id="bullet-char-template(10007)" transform="scale(0.00048828125,-0.00048828125)">
   <path d="M 0,-2 C -7,14 -16,27 -25,37 L 356,567 C 262,823 215,952 215,954 215,979 228,992 255,992 264,992 276,990 289,987 310,991 331,999 354,1012 L 381,999 492,748 772,1049 836,1024 860,1049 C 881,1039 901,1025 922,1006 886,937 835,863 770,784 769,783 710,716 594,584 L 774,223 C 774,196 753,168 711,139 L 727,119 C 717,90 699,76 672,76 641,76 570,178 457,381 L 164,-76 C 142,-110 111,-127 72,-127 30,-127 9,-110 8,-76 1,-67 -2,-52 -2,-32 -2,-23 -1,-13 0,-2 Z"/>
  </g>
  <g id="bullet-char-template(10004)" transform="scale(0.00048828125,-0.00048828125)">
   <path d="M 285,-33 C 182,-33 111,30 74,156 52,228 41,333 41,471 41,549 55,616 82,672 116,743 169,778 240,778 293,778 328,747 346,684 L 369,508 C 377,444 397,411 428,410 L 1163,1116 C 1174,1127 1196,1133 1229,1133 1271,1133 1292,1118 1292,1087 L 1292,965 C 1292,929 1282,901 1262,881 L 442,47 C 390,-6 338,-33 285,-33 Z"/>
  </g>
  <g id="bullet-char-template(9679)" transform="scale(0.00048828125,-0.00048828125)">
   <path d="M 813,0 C 632,0 489,54 383,161 276,268 223,411 223,592 223,773 276,916 383,1023 489,1130 632,1184 813,1184 992,1184 1136,1130 1245,1023 1353,916 1407,772 1407,592 1407,412 1353,268 1245,161 1136,54 992,0 813,0 Z"/>
  </g>
  <g id="bullet-char-template(8226)" transform="scale(0.00048828125,-0.00048828125)">
   <path d="M 346,457 C 273,457 209,483 155,535 101,586 74,649 74,723 74,796 101,859 155,911 209,963 273,989 346,989 419,989 480,963 531,910 582,859 608,796 608,723 608,648 583,586 532,535 482,483 420,457 346,457 Z"/>
  </g>
  <g id="bullet-char-template(8211)" transform="scale(0.00048828125,-0.00048828125)">
   <path d="M -4,459 L 1135,459 1135,606 -4,606 -4,459 Z"/>
  </g>
 </defs>
 <defs class="TextEmbeddedBitmaps"/>
 <g class="SlideGroup">
  <g>
   <g id="id1" class="Slide" clip-path="url(#presentation_clip_path)">
    <g class="Page">
     <g class="Group">
      <g class="com.sun.star.drawing.ClosedBezierShape">
       <g id="id3">
        <rect class="BoundingBox" stroke="none" fill="none" x="15326" y="14054" width="2079" height="1241"/>
        <path fill="rgb(221,221,221)" stroke="none" d="M 15349,15274 C 15587,15274 16824,14871 17252,14549 17531,14339 17313,14074 17076,14074 17076,14224 15263,14174 15349,15274 Z"/>
        <path fill="none" stroke="rgb(221,221,221)" stroke-width="40" stroke-linejoin="round" d="M 15349,15274 C 15587,15274 16824,14871 17252,14549 17531,14339 17313,14074 17076,14074 17076,14224 15263,14174 15349,15274 Z"/>
       </g>
      </g>
      <g class="Group">
       <g class="com.sun.star.drawing.PolyPolygonShape">
        <g id="id4">
         <rect class="BoundingBox" stroke="none" fill="none" x="13583" y="12794" width="3500" height="3542"/>
         <g>
          <defs>
           <pattern id="pattern1" x="13603" y="12814" width="3460" height="3501" patternUnits="userSpaceOnUse">
            <g transform="translate(-13603,-12814)">
             <path fill="rgb(102,102,102)" stroke="none" d="M 13602,12813 L 17063,12813 17063,16315 13602,16315 13602,12813 Z M 12943,12147 L 16336,12147 16336,15579 12943,15579 12943,12147 Z"/>
             <path fill="rgb(103,103,103)" stroke="none" d="M 12943,12147 L 16336,12147 16336,15579 12943,15579 12943,12147 Z M 12977,12181 L 16302,12181 16302,15545 12977,15545 12977,12181 Z"/>
             <path fill="rgb(104,104,104)" stroke="none" d="M 12977,12181 L 16302,12181 16302,15545 12977,15545 12977,12181 Z M 13011,12216 L 16268,12216 16268,15510 13011,15510 13011,12216 Z"/>
             <path fill="rgb(105,105,105)" stroke="none" d="M 13011,12216 L 16268,12216 16268,15510 13011,15510 13011,12216 Z M 13045,12250 L 16234,12250 16234,15476 13045,15476 13045,12250 Z"/>
             <path fill="rgb(106,106,106)" stroke="none" d="M 13045,12250 L 16234,12250 16234,15476 13045,15476 13045,12250 Z M 13079,12284 L 16200,12284 16200,15442 13079,15442 13079,12284 Z"/>
             <path fill="rgb(107,107,107)" stroke="none" d="M 13079,12284 L 16200,12284 16200,15442 13079,15442 13079,12284 Z M 13113,12319 L 16166,12319 16166,15407 13113,15407 13113,12319 Z"/>
             <path fill="rgb(108,108,108)" stroke="none" d="M 13113,12319 L 16166,12319 16166,15407 13113,15407 13113,12319 Z M 13147,12353 L 16132,12353 16132,15373 13147,15373 13147,12353 Z"/>
             <path fill="rgb(109,109,109)" stroke="none" d="M 13147,12353 L 16132,12353 16132,15373 13147,15373 13147,12353 Z M 13181,12387 L 16098,12387 16098,15339 13181,15339 13181,12387 Z"/>
             <path fill="rgb(110,110,110)" stroke="none" d="M 13181,12387 L 16098,12387 16098,15339 13181,15339 13181,12387 Z M 13215,12422 L 16064,12422 16064,15304 13215,15304 13215,12422 Z"/>
             <path fill="rgb(111,111,111)" stroke="none" d="M 13215,12422 L 16064,12422 16064,15304 13215,15304 13215,12422 Z M 13249,12456 L 16030,12456 16030,15270 13249,15270 13249,12456 Z"/>
             <path fill="rgb(112,112,112)" stroke="none" d="M 13249,12456 L 16030,12456 16030,15270 13249,15270 13249,12456 Z M 13283,12490 L 15996,12490 15996,15236 13283,15236 13283,12490 Z"/>
             <path fill="rgb(113,113,113)" stroke="none" d="M 13283,12490 L 15996,12490 15996,15236 13283,15236 13283,12490 Z M 13317,12525 L 15962,12525 15962,15201 13317,15201 13317,12525 Z"/>
             <path fill="rgb(114,114,114)" stroke="none" d="M 13317,12525 L 15962,12525 15962,15201 13317,15201 13317,12525 Z M 13351,12559 L 15928,12559 15928,15167 13351,15167 13351,12559 Z"/>
             <path fill="rgb(115,115,115)" stroke="none" d="M 13351,12559 L 15928,12559 15928,15167 13351,15167 13351,12559 Z M 13385,12593 L 15894,12593 15894,15133 13385,15133 13385,12593 Z"/>
             <path fill="rgb(116,116,116)" stroke="none" d="M 13385,12593 L 15894,12593 15894,15133 13385,15133 13385,12593 Z M 13419,12628 L 15860,12628 15860,15098 13419,15098 13419,12628 Z"/>
             <path fill="rgb(117,117,117)" stroke="none" d="M 13419,12628 L 15860,12628 15860,15098 13419,15098 13419,12628 Z M 13453,12662 L 15826,12662 15826,15064 13453,15064 13453,12662 Z"/>
             <path fill="rgb(118,118,118)" stroke="none" d="M 13453,12662 L 15826,12662 15826,15064 13453,15064 13453,12662 Z M 13487,12696 L 15792,12696 15792,15030 13487,15030 13487,12696 Z"/>
             <path fill="rgb(119,119,119)" stroke="none" d="M 13487,12696 L 15792,12696 15792,15030 13487,15030 13487,12696 Z M 13520,12731 L 15759,12731 15759,14995 13520,14995 13520,12731 Z"/>
             <path fill="rgb(120,120,120)" stroke="none" d="M 13520,12731 L 15759,12731 15759,14995 13520,14995 13520,12731 Z M 13554,12765 L 15725,12765 15725,14961 13554,14961 13554,12765 Z"/>
             <path fill="rgb(121,121,121)" stroke="none" d="M 13554,12765 L 15725,12765 15725,14961 13554,14961 13554,12765 Z M 13587,12798 L 15691,12798 15691,14927 13587,14927 13587,12798 Z"/>
             <path fill="rgb(122,122,122)" stroke="none" d="M 13587,12798 L 15691,12798 15691,14927 13587,14927 13587,12798 Z M 13621,12833 L 15657,12833 15657,14892 13621,14892 13621,12833 Z"/>
             <path fill="rgb(123,123,123)" stroke="none" d="M 13621,12833 L 15657,12833 15657,14892 13621,14892 13621,12833 Z M 13655,12867 L 15623,12867 15623,14858 13655,14858 13655,12867 Z"/>
             <path fill="rgb(124,124,124)" stroke="none" d="M 13655,12867 L 15623,12867 15623,14858 13655,14858 13655,12867 Z M 13689,12901 L 15589,12901 15589,14824 13689,14824 13689,12901 Z"/>
             <path fill="rgb(125,125,125)" stroke="none" d="M 13689,12901 L 15589,12901 15589,14824 13689,14824 13689,12901 Z M 13723,12936 L 15555,12936 15555,14789 13723,14789 13723,12936 Z"/>
             <path fill="rgb(126,126,126)" stroke="none" d="M 13723,12936 L 15555,12936 15555,14789 13723,14789 13723,12936 Z M 13757,12970 L 15521,12970 15521,14755 13757,14755 13757,12970 Z"/>
             <path fill="rgb(127,127,127)" stroke="none" d="M 13757,12970 L 15521,12970 15521,14755 13757,14755 13757,12970 Z M 13791,13004 L 15487,13004 15487,14721 13791,14721 13791,13004 Z"/>
             <path fill="rgb(128,128,128)" stroke="none" d="M 13791,13004 L 15487,13004 15487,14721 13791,14721 13791,13004 Z M 13825,13039 L 15453,13039 15453,14686 13825,14686 13825,13039 Z"/>
             <path fill="rgb(129,129,129)" stroke="none" d="M 13825,13039 L 15453,13039 15453,14686 13825,14686 13825,13039 Z M 13859,13073 L 15419,13073 15419,14652 13859,14652 13859,13073 Z"/>
             <path fill="rgb(130,130,130)" stroke="none" d="M 13859,13073 L 15419,13073 15419,14652 13859,14652 13859,13073 Z M 13893,13107 L 15385,13107 15385,14618 13893,14618 13893,13107 Z"/>
             <path fill="rgb(131,131,131)" stroke="none" d="M 13893,13107 L 15385,13107 15385,14618 13893,14618 13893,13107 Z M 13927,13142 L 15351,13142 15351,14583 13927,14583 13927,13142 Z"/>
             <path fill="rgb(132,132,132)" stroke="none" d="M 13927,13142 L 15351,13142 15351,14583 13927,14583 13927,13142 Z M 13961,13176 L 15317,13176 15317,14549 13961,14549 13961,13176 Z"/>
             <path fill="rgb(133,133,133)" stroke="none" d="M 13961,13176 L 15317,13176 15317,14549 13961,14549 13961,13176 Z M 13995,13210 L 15283,13210 15283,14515 13995,14515 13995,13210 Z"/>
             <path fill="rgb(134,134,134)" stroke="none" d="M 13995,13210 L 15283,13210 15283,14515 13995,14515 13995,13210 Z M 14029,13245 L 15249,13245 15249,14480 14029,14480 14029,13245 Z"/>
             <path fill="rgb(135,135,135)" stroke="none" d="M 14029,13245 L 15249,13245 15249,14480 14029,14480 14029,13245 Z M 14063,13279 L 15215,13279 15215,14446 14063,14446 14063,13279 Z"/>
             <path fill="rgb(136,136,136)" stroke="none" d="M 14063,13279 L 15215,13279 15215,14446 14063,14446 14063,13279 Z M 14096,13314 L 15182,13314 15182,14411 14096,14411 14096,13314 Z"/>
             <path fill="rgb(137,137,137)" stroke="none" d="M 14096,13314 L 15182,13314 15182,14411 14096,14411 14096,13314 Z M 14130,13348 L 15148,13348 15148,14377 14130,14377 14130,13348 Z"/>
             <path fill="rgb(138,138,138)" stroke="none" d="M 14130,13348 L 15148,13348 15148,14377 14130,14377 14130,13348 Z M 14164,13382 L 15114,13382 15114,14343 14164,14343 14164,13382 Z"/>
             <path fill="rgb(139,139,139)" stroke="none" d="M 14164,13382 L 15114,13382 15114,14343 14164,14343 14164,13382 Z M 14198,13417 L 15080,13417 15080,14308 14198,14308 14198,13417 Z"/>
             <path fill="rgb(140,140,140)" stroke="none" d="M 14198,13417 L 15080,13417 15080,14308 14198,14308 14198,13417 Z M 14232,13451 L 15046,13451 15046,14274 14232,14274 14232,13451 Z"/>
             <path fill="rgb(141,141,141)" stroke="none" d="M 14232,13451 L 15046,13451 15046,14274 14232,14274 14232,13451 Z M 14266,13485 L 15012,13485 15012,14240 14266,14240 14266,13485 Z"/>
             <path fill="rgb(142,142,142)" stroke="none" d="M 14266,13485 L 15012,13485 15012,14240 14266,14240 14266,13485 Z M 14300,13520 L 14978,13520 14978,14205 14300,14205 14300,13520 Z"/>
             <path fill="rgb(143,143,143)" stroke="none" d="M 14300,13520 L 14978,13520 14978,14205 14300,14205 14300,13520 Z M 14334,13554 L 14944,13554 14944,14171 14334,14171 14334,13554 Z"/>
             <path fill="rgb(144,144,144)" stroke="none" d="M 14334,13554 L 14944,13554 14944,14171 14334,14171 14334,13554 Z M 14368,13588 L 14910,13588 14910,14137 14368,14137 14368,13588 Z"/>
             <path fill="rgb(145,145,145)" stroke="none" d="M 14368,13588 L 14910,13588 14910,14137 14368,14137 14368,13588 Z M 14402,13623 L 14876,13623 14876,14102 14402,14102 14402,13623 Z"/>
             <path fill="rgb(146,146,146)" stroke="none" d="M 14402,13623 L 14876,13623 14876,14102 14402,14102 14402,13623 Z M 14436,13657 L 14842,13657 14842,14068 14436,14068 14436,13657 Z"/>
             <path fill="rgb(147,147,147)" stroke="none" d="M 14436,13657 L 14842,13657 14842,14068 14436,14068 14436,13657 Z M 14470,13691 L 14808,13691 14808,14034 14470,14034 14470,13691 Z"/>
             <path fill="rgb(148,148,148)" stroke="none" d="M 14470,13691 L 14808,13691 14808,14034 14470,14034 14470,13691 Z M 14504,13726 L 14774,13726 14774,13999 14504,13999 14504,13726 Z"/>
             <path fill="rgb(149,149,149)" stroke="none" d="M 14504,13726 L 14774,13726 14774,13999 14504,13999 14504,13726 Z M 14538,13760 L 14740,13760 14740,13965 14538,13965 14538,13760 Z"/>
             <path fill="rgb(150,150,150)" stroke="none" d="M 14538,13760 L 14740,13760 14740,13965 14538,13965 14538,13760 Z M 14572,13794 L 14706,13794 14706,13931 14572,13931 14572,13794 Z"/>
             <path fill="rgb(151,151,151)" stroke="none" d="M 14572,13794 L 14706,13794 14706,13931 14572,13931 14572,13794 Z M 14606,13829 L 14672,13829 14672,13896 14606,13896 14606,13829 Z"/>
             <path fill="rgb(153,153,153)" stroke="none" d="M 14606,13829 L 14672,13829 14672,13896 14606,13896 14606,13829 Z"/>
            </g>
           </pattern>
          </defs>
          <path style="fill:url(#pattern1)" d="M 17062,14314 L 17062,12814 13603,14814 13603,16314 17062,14314 Z"/>
         </g>
         <path fill="none" stroke="rgb(178,178,178)" stroke-width="40" stroke-linejoin="round" d="M 17062,14314 L 17062,12814 13603,14814 13603,16314 17062,14314 Z"/>
        </g>
       </g>
       <g class="com.sun.star.drawing.PolyPolygonShape">
        <g id="id5">
         <rect class="BoundingBox" stroke="none" fill="none" x="11853" y="13794" width="1771" height="2542"/>
         <g>
          <defs>
           <linearGradient id="gradient1" x1="11872" y1="15064" x2="13604" y2="15064" gradientUnits="userSpaceOnUse">
            <stop offset="0.1" style="stop-color:rgb(102,102,102)"/>
            <stop offset="1" style="stop-color:rgb(153,153,153)"/>
           </linearGradient>
          </defs>
          <path style="fill:url(#gradient1)" d="M 13603,16314 L 13603,14814 11874,13814 11874,15314 13603,16314 Z"/>
         </g>
         <path fill="none" stroke="rgb(178,178,178)" stroke-width="40" stroke-linejoin="round" d="M 13603,16314 L 13603,14814 11874,13814 11874,15314 13603,16314 Z"/>
        </g>
       </g>
       <g class="com.sun.star.drawing.PolyPolygonShape">
        <g id="id6">
         <rect class="BoundingBox" stroke="none" fill="none" x="11854" y="11793" width="5229" height="3042"/>
         <g>
          <defs>
           <linearGradient id="gradient2" x1="14468" y1="11814" x2="14468" y2="14814" gradientUnits="userSpaceOnUse">
            <stop offset="0.1" style="stop-color:rgb(51,51,51)"/>
            <stop offset="1" style="stop-color:rgb(153,153,153)"/>
           </linearGradient>
          </defs>
          <path style="fill:url(#gradient2)" d="M 13603,14814 L 17062,12814 15333,11814 11874,13814 13603,14814 Z"/>
         </g>
         <path fill="none" stroke="rgb(178,178,178)" stroke-width="40" stroke-linejoin="round" d="M 13603,14814 L 17062,12814 15333,11814 11874,13814 13603,14814 Z"/>
        </g>
       </g>
       <g class="com.sun.star.drawing.PolyPolygonShape">
        <g id="id7">
         <rect class="BoundingBox" stroke="none" fill="none" x="16658" y="13124" width="215" height="342"/>
         <path fill="rgb(57,181,74)" stroke="none" d="M 16852,13344 L 16852,13144 16679,13244 16679,13444 16852,13344 Z"/>
         <path fill="none" stroke="rgb(51,51,51)" stroke-width="40" stroke-linejoin="round" d="M 16852,13344 L 16852,13144 16679,13244 16679,13444 16852,13344 Z"/>
        </g>
       </g>
       <g class="com.sun.star.drawing.PolyPolygonShape">
        <g id="id8">
         <rect class="BoundingBox" stroke="none" fill="none" x="14446" y="15244" width="1771" height="991"/>
         <g>
          <defs>
           <linearGradient id="gradient3" x1="14466" y1="15739" x2="16196" y2="15739" gradientUnits="userSpaceOnUse">
            <stop offset="0.1" style="stop-color:rgb(102,102,102)"/>
            <stop offset="1" style="stop-color:rgb(153,153,153)"/>
           </linearGradient>
          </defs>
          <path style="fill:url(#gradient3)" d="M 16196,15964 L 14467,15264 14467,15664 16196,16214 16196,15964 Z"/>
         </g>
         <path fill="none" stroke="rgb(178,178,178)" stroke-width="40" stroke-linejoin="round" d="M 16196,15964 L 14467,15264 14467,15664 16196,16214 16196,15964 Z"/>
        </g>
       </g>
       <g class="com.sun.star.drawing.PolyPolygonShape">
        <g id="id9">
         <rect class="BoundingBox" stroke="none" fill="none" x="14447" y="14244" width="3501" height="1741"/>
         <g>
          <defs>
           <linearGradient id="gradient4" x1="16196" y1="14264" x2="16196" y2="15964" gradientUnits="userSpaceOnUse">
            <stop offset="0.1" style="stop-color:rgb(51,51,51)"/>
            <stop offset="1" style="stop-color:rgb(153,153,153)"/>
           </linearGradient>
          </defs>
          <path style="fill:url(#gradient4)" d="M 16196,15964 L 17926,14964 16196,14264 14467,15264 16196,15964 Z"/>
         </g>
         <path fill="none" stroke="rgb(178,178,178)" stroke-width="40" stroke-linejoin="round" d="M 16196,15964 L 17926,14964 16196,14264 14467,15264 16196,15964 Z"/>
        </g>
       </g>
       <g class="com.sun.star.drawing.PolyPolygonShape">
        <g id="id10">
         <rect class="BoundingBox" stroke="none" fill="none" x="16177" y="14944" width="1770" height="1292"/>
         <g>
          <defs>
           <pattern id="pattern2" x="16197" y="14964" width="1730" height="1251" patternUnits="userSpaceOnUse">
            <g transform="translate(-16197,-14964)">
             <path fill="rgb(102,102,102)" stroke="none" d="M 16196,14963 L 17927,14963 17927,16215 16196,16215 16196,14963 Z M 15866,14725 L 17563,14725 17563,15951 15866,15951 15866,14725 Z"/>
             <path fill="rgb(103,103,103)" stroke="none" d="M 15866,14725 L 17563,14725 17563,15951 15866,15951 15866,14725 Z M 15883,14737 L 17546,14737 17546,15939 15883,15939 15883,14737 Z"/>
             <path fill="rgb(104,104,104)" stroke="none" d="M 15883,14737 L 17546,14737 17546,15939 15883,15939 15883,14737 Z M 15900,14749 L 17529,14749 17529,15927 15900,15927 15900,14749 Z"/>
             <path fill="rgb(105,105,105)" stroke="none" d="M 15900,14749 L 17529,14749 17529,15927 15900,15927 15900,14749 Z M 15917,14762 L 17512,14762 17512,15914 15917,15914 15917,14762 Z"/>
             <path fill="rgb(106,106,106)" stroke="none" d="M 15917,14762 L 17512,14762 17512,15914 15917,15914 15917,14762 Z M 15934,14774 L 17495,14774 17495,15902 15934,15902 15934,14774 Z"/>
             <path fill="rgb(107,107,107)" stroke="none" d="M 15934,14774 L 17495,14774 17495,15902 15934,15902 15934,14774 Z M 15951,14786 L 17478,14786 17478,15890 15951,15890 15951,14786 Z"/>
             <path fill="rgb(108,108,108)" stroke="none" d="M 15951,14786 L 17478,14786 17478,15890 15951,15890 15951,14786 Z M 15968,14798 L 17461,14798 17461,15878 15968,15878 15968,14798 Z"/>
             <path fill="rgb(109,109,109)" stroke="none" d="M 15968,14798 L 17461,14798 17461,15878 15968,15878 15968,14798 Z M 15985,14811 L 17444,14811 17444,15865 15985,15865 15985,14811 Z"/>
             <path fill="rgb(110,110,110)" stroke="none" d="M 15985,14811 L 17444,14811 17444,15865 15985,15865 15985,14811 Z M 16002,14823 L 17427,14823 17427,15853 16002,15853 16002,14823 Z"/>
             <path fill="rgb(111,111,111)" stroke="none" d="M 16002,14823 L 17427,14823 17427,15853 16002,15853 16002,14823 Z M 16019,14835 L 17410,14835 17410,15841 16019,15841 16019,14835 Z"/>
             <path fill="rgb(112,112,112)" stroke="none" d="M 16019,14835 L 17410,14835 17410,15841 16019,15841 16019,14835 Z M 16036,14848 L 17393,14848 17393,15828 16036,15828 16036,14848 Z"/>
             <path fill="rgb(113,113,113)" stroke="none" d="M 16036,14848 L 17393,14848 17393,15828 16036,15828 16036,14848 Z M 16053,14860 L 17376,14860 17376,15816 16053,15816 16053,14860 Z"/>
             <path fill="rgb(114,114,114)" stroke="none" d="M 16053,14860 L 17376,14860 17376,15816 16053,15816 16053,14860 Z M 16070,14872 L 17359,14872 17359,15804 16070,15804 16070,14872 Z"/>
             <path fill="rgb(115,115,115)" stroke="none" d="M 16070,14872 L 17359,14872 17359,15804 16070,15804 16070,14872 Z M 16087,14884 L 17342,14884 17342,15792 16087,15792 16087,14884 Z"/>
             <path fill="rgb(116,116,116)" stroke="none" d="M 16087,14884 L 17342,14884 17342,15792 16087,15792 16087,14884 Z M 16104,14897 L 17325,14897 17325,15779 16104,15779 16104,14897 Z"/>
             <path fill="rgb(117,117,117)" stroke="none" d="M 16104,14897 L 17325,14897 17325,15779 16104,15779 16104,14897 Z M 16121,14909 L 17308,14909 17308,15767 16121,15767 16121,14909 Z"/>
             <path fill="rgb(118,118,118)" stroke="none" d="M 16121,14909 L 17308,14909 17308,15767 16121,15767 16121,14909 Z M 16138,14921 L 17291,14921 17291,15755 16138,15755 16138,14921 Z"/>
             <path fill="rgb(119,119,119)" stroke="none" d="M 16138,14921 L 17291,14921 17291,15755 16138,15755 16138,14921 Z M 16155,14934 L 17274,14934 17274,15742 16155,15742 16155,14934 Z"/>
             <path fill="rgb(120,120,120)" stroke="none" d="M 16155,14934 L 17274,14934 17274,15742 16155,15742 16155,14934 Z M 16172,14945 L 17257,14945 17257,15730 16172,15730 16172,14945 Z"/>
             <path fill="rgb(121,121,121)" stroke="none" d="M 16172,14945 L 17257,14945 17257,15730 16172,15730 16172,14945 Z M 16188,14957 L 17240,14957 17240,15718 16188,15718 16188,14957 Z"/>
             <path fill="rgb(122,122,122)" stroke="none" d="M 16188,14957 L 17240,14957 17240,15718 16188,15718 16188,14957 Z M 16205,14969 L 17223,14969 17223,15706 16205,15706 16205,14969 Z"/>
             <path fill="rgb(123,123,123)" stroke="none" d="M 16205,14969 L 17223,14969 17223,15706 16205,15706 16205,14969 Z M 16222,14982 L 17206,14982 17206,15693 16222,15693 16222,14982 Z"/>
             <path fill="rgb(124,124,124)" stroke="none" d="M 16222,14982 L 17206,14982 17206,15693 16222,15693 16222,14982 Z M 16239,14994 L 17189,14994 17189,15681 16239,15681 16239,14994 Z"/>
             <path fill="rgb(125,125,125)" stroke="none" d="M 16239,14994 L 17189,14994 17189,15681 16239,15681 16239,14994 Z M 16256,15006 L 17172,15006 17172,15669 16256,15669 16256,15006 Z"/>
             <path fill="rgb(126,126,126)" stroke="none" d="M 16256,15006 L 17172,15006 17172,15669 16256,15669 16256,15006 Z M 16273,15019 L 17155,15019 17155,15656 16273,15656 16273,15019 Z"/>
             <path fill="rgb(127,127,127)" stroke="none" d="M 16273,15019 L 17155,15019 17155,15656 16273,15656 16273,15019 Z M 16290,15031 L 17138,15031 17138,15644 16290,15644 16290,15031 Z"/>
             <path fill="rgb(128,128,128)" stroke="none" d="M 16290,15031 L 17138,15031 17138,15644 16290,15644 16290,15031 Z M 16307,15043 L 17121,15043 17121,15632 16307,15632 16307,15043 Z"/>
             <path fill="rgb(129,129,129)" stroke="none" d="M 16307,15043 L 17121,15043 17121,15632 16307,15632 16307,15043 Z M 16324,15055 L 17104,15055 17104,15620 16324,15620 16324,15055 Z"/>
             <path fill="rgb(130,130,130)" stroke="none" d="M 16324,15055 L 17104,15055 17104,15620 16324,15620 16324,15055 Z M 16341,15068 L 17087,15068 17087,15607 16341,15607 16341,15068 Z"/>
             <path fill="rgb(131,131,131)" stroke="none" d="M 16341,15068 L 17087,15068 17087,15607 16341,15607 16341,15068 Z M 16358,15080 L 17070,15080 17070,15595 16358,15595 16358,15080 Z"/>
             <path fill="rgb(132,132,132)" stroke="none" d="M 16358,15080 L 17070,15080 17070,15595 16358,15595 16358,15080 Z M 16375,15092 L 17053,15092 17053,15583 16375,15583 16375,15092 Z"/>
             <path fill="rgb(133,133,133)" stroke="none" d="M 16375,15092 L 17053,15092 17053,15583 16375,15583 16375,15092 Z M 16392,15105 L 17036,15105 17036,15570 16392,15570 16392,15105 Z"/>
             <path fill="rgb(134,134,134)" stroke="none" d="M 16392,15105 L 17036,15105 17036,15570 16392,15570 16392,15105 Z M 16409,15117 L 17019,15117 17019,15558 16409,15558 16409,15117 Z"/>
             <path fill="rgb(135,135,135)" stroke="none" d="M 16409,15117 L 17019,15117 17019,15558 16409,15558 16409,15117 Z M 16426,15129 L 17002,15129 17002,15546 16426,15546 16426,15129 Z"/>
             <path fill="rgb(136,136,136)" stroke="none" d="M 16426,15129 L 17002,15129 17002,15546 16426,15546 16426,15129 Z M 16443,15141 L 16985,15141 16985,15534 16443,15534 16443,15141 Z"/>
             <path fill="rgb(137,137,137)" stroke="none" d="M 16443,15141 L 16985,15141 16985,15534 16443,15534 16443,15141 Z M 16460,15154 L 16968,15154 16968,15521 16460,15521 16460,15154 Z"/>
             <path fill="rgb(138,138,138)" stroke="none" d="M 16460,15154 L 16968,15154 16968,15521 16460,15521 16460,15154 Z M 16477,15166 L 16951,15166 16951,15509 16477,15509 16477,15166 Z"/>
             <path fill="rgb(139,139,139)" stroke="none" d="M 16477,15166 L 16951,15166 16951,15509 16477,15509 16477,15166 Z M 16494,15178 L 16934,15178 16934,15497 16494,15497 16494,15178 Z"/>
             <path fill="rgb(140,140,140)" stroke="none" d="M 16494,15178 L 16934,15178 16934,15497 16494,15497 16494,15178 Z M 16511,15191 L 16917,15191 16917,15484 16511,15484 16511,15191 Z"/>
             <path fill="rgb(141,141,141)" stroke="none" d="M 16511,15191 L 16917,15191 16917,15484 16511,15484 16511,15191 Z M 16528,15203 L 16900,15203 16900,15472 16528,15472 16528,15203 Z"/>
             <path fill="rgb(142,142,142)" stroke="none" d="M 16528,15203 L 16900,15203 16900,15472 16528,15472 16528,15203 Z M 16545,15215 L 16883,15215 16883,15460 16545,15460 16545,15215 Z"/>
             <path fill="rgb(143,143,143)" stroke="none" d="M 16545,15215 L 16883,15215 16883,15460 16545,15460 16545,15215 Z M 16562,15227 L 16866,15227 16866,15448 16562,15448 16562,15227 Z"/>
             <path fill="rgb(144,144,144)" stroke="none" d="M 16562,15227 L 16866,15227 16866,15448 16562,15448 16562,15227 Z M 16579,15240 L 16849,15240 16849,15435 16579,15435 16579,15240 Z"/>
             <path fill="rgb(145,145,145)" stroke="none" d="M 16579,15240 L 16849,15240 16849,15435 16579,15435 16579,15240 Z M 16596,15252 L 16832,15252 16832,15423 16596,15423 16596,15252 Z"/>
             <path fill="rgb(146,146,146)" stroke="none" d="M 16596,15252 L 16832,15252 16832,15423 16596,15423 16596,15252 Z M 16613,15264 L 16815,15264 16815,15411 16613,15411 16613,15264 Z"/>
             <path fill="rgb(147,147,147)" stroke="none" d="M 16613,15264 L 16815,15264 16815,15411 16613,15411 16613,15264 Z M 16630,15277 L 16798,15277 16798,15398 16630,15398 16630,15277 Z"/>
             <path fill="rgb(148,148,148)" stroke="none" d="M 16630,15277 L 16798,15277 16798,15398 16630,15398 16630,15277 Z M 16647,15289 L 16781,15289 16781,15386 16647,15386 16647,15289 Z"/>
             <path fill="rgb(149,149,149)" stroke="none" d="M 16647,15289 L 16781,15289 16781,15386 16647,15386 16647,15289 Z M 16664,15301 L 16764,15301 16764,15374 16664,15374 16664,15301 Z"/>
             <path fill="rgb(150,150,150)" stroke="none" d="M 16664,15301 L 16764,15301 16764,15374 16664,15374 16664,15301 Z M 16681,15313 L 16747,15313 16747,15362 16681,15362 16681,15313 Z"/>
             <path fill="rgb(151,151,151)" stroke="none" d="M 16681,15313 L 16747,15313 16747,15362 16681,15362 16681,15313 Z M 16698,15326 L 16730,15326 16730,15349 16698,15349 16698,15326 Z"/>
             <path fill="rgb(153,153,153)" stroke="none" d="M 16698,15326 L 16730,15326 16730,15349 16698,15349 16698,15326 Z"/>
            </g>
           </pattern>
          </defs>
          <path style="fill:url(#pattern2)" d="M 17926,15214 L 17926,14964 16197,15964 16197,16214 17926,15214 Z"/>
         </g>
         <path fill="none" stroke="rgb(178,178,178)" stroke-width="40" stroke-linejoin="round" d="M 17926,15214 L 17926,14964 16197,15964 16197,16214 17926,15214 Z"/>
        </g>
       </g>
       <g class="com.sun.star.drawing.PolyPolygonShape">
        <g id="id11">
         <rect class="BoundingBox" stroke="none" fill="none" x="11854" y="11794" width="6093" height="4541"/>
         <path fill="none" stroke="rgb(0,0,0)" stroke-width="40" stroke-linejoin="round" d="M 17062,14314 L 17062,12814 15333,11814 11874,13814 11874,15314 13603,16314 14641,15714 16197,16214 17926,15214 17926,14964 16716,14464 17062,14314 Z"/>
        </g>
       </g>
       <g class="com.sun.star.drawing.ClosedBezierShape">
        <g id="id12">
         <rect class="BoundingBox" stroke="none" fill="none" x="14707" y="14394" width="3153" height="1491"/>
         <path fill="rgb(255,255,255)" stroke="none" d="M 16629,15864 C 16975,15664 17494,15364 17839,15164 17407,14914 16542,14564 15937,14414 15591,14614 15159,14864 14727,15114 15246,15264 16110,15614 16629,15864 Z"/>
         <path fill="none" stroke="rgb(102,102,102)" stroke-width="40" stroke-linejoin="round" d="M 16629,15864 C 16975,15664 17494,15364 17839,15164 17407,14914 16542,14564 15937,14414 15591,14614 15159,14864 14727,15114 15246,15264 16110,15614 16629,15864 Z"/>
        </g>
       </g>
       <g class="com.sun.star.drawing.PolyLineShape">
        <g id="id13">
         <rect class="BoundingBox" stroke="none" fill="none" x="14446" y="14044" width="1771" height="1191"/>
         <path fill="none" stroke="rgb(102,102,102)" stroke-width="40" stroke-linejoin="round" d="M 16196,14264 L 16196,14064 14467,15064 14467,15214"/>
        </g>
       </g>
       <g class="com.sun.star.drawing.PolyPolygonShape">
        <g id="id14">
         <rect class="BoundingBox" stroke="none" fill="none" x="12891" y="12394" width="3328" height="1941"/>
         <g>
          <defs>
           <linearGradient id="gradient5" x1="14554" y1="12414" x2="14554" y2="14314" gradientUnits="userSpaceOnUse">
            <stop offset="0.1" style="stop-color:rgb(51,51,51)"/>
            <stop offset="1" style="stop-color:rgb(153,153,153)"/>
           </linearGradient>
          </defs>
          <path style="fill:url(#gradient5)" d="M 14467,14314 L 16197,13314 14640,12414 12911,13414 14467,14314 Z"/>
         </g>
         <path fill="none" stroke="rgb(178,178,178)" stroke-width="40" stroke-linejoin="round" d="M 14467,14314 L 16197,13314 14640,12414 12911,13414 14467,14314 Z"/>
        </g>
       </g>
       <g class="com.sun.star.drawing.PolyPolygonShape">
        <g id="id15">
         <rect class="BoundingBox" stroke="none" fill="none" x="14446" y="13294" width="1771" height="1541"/>
         <g>
          <defs>
           <pattern id="pattern3" x="14467" y="13314" width="1730" height="1501" patternUnits="userSpaceOnUse">
            <g transform="translate(-14467,-13314)">
             <path fill="rgb(102,102,102)" stroke="none" d="M 14466,13313 L 16197,13313 16197,14815 14466,14815 14466,13313 Z M 14136,13027 L 15833,13027 15833,14499 14136,14499 14136,13027 Z"/>
             <path fill="rgb(103,103,103)" stroke="none" d="M 14136,13027 L 15833,13027 15833,14499 14136,14499 14136,13027 Z M 14153,13042 L 15816,13042 15816,14484 14153,14484 14153,13042 Z"/>
             <path fill="rgb(104,104,104)" stroke="none" d="M 14153,13042 L 15816,13042 15816,14484 14153,14484 14153,13042 Z M 14170,13057 L 15799,13057 15799,14469 14170,14469 14170,13057 Z"/>
             <path fill="rgb(105,105,105)" stroke="none" d="M 14170,13057 L 15799,13057 15799,14469 14170,14469 14170,13057 Z M 14187,13071 L 15782,13071 15782,14455 14187,14455 14187,13071 Z"/>
             <path fill="rgb(106,106,106)" stroke="none" d="M 14187,13071 L 15782,13071 15782,14455 14187,14455 14187,13071 Z M 14204,13086 L 15765,13086 15765,14440 14204,14440 14204,13086 Z"/>
             <path fill="rgb(107,107,107)" stroke="none" d="M 14204,13086 L 15765,13086 15765,14440 14204,14440 14204,13086 Z M 14221,13101 L 15748,13101 15748,14425 14221,14425 14221,13101 Z"/>
             <path fill="rgb(108,108,108)" stroke="none" d="M 14221,13101 L 15748,13101 15748,14425 14221,14425 14221,13101 Z M 14238,13116 L 15731,13116 15731,14410 14238,14410 14238,13116 Z"/>
             <path fill="rgb(109,109,109)" stroke="none" d="M 14238,13116 L 15731,13116 15731,14410 14238,14410 14238,13116 Z M 14255,13130 L 15714,13130 15714,14396 14255,14396 14255,13130 Z"/>
             <path fill="rgb(110,110,110)" stroke="none" d="M 14255,13130 L 15714,13130 15714,14396 14255,14396 14255,13130 Z M 14272,13145 L 15697,13145 15697,14381 14272,14381 14272,13145 Z"/>
             <path fill="rgb(111,111,111)" stroke="none" d="M 14272,13145 L 15697,13145 15697,14381 14272,14381 14272,13145 Z M 14289,13160 L 15680,13160 15680,14366 14289,14366 14289,13160 Z"/>
             <path fill="rgb(112,112,112)" stroke="none" d="M 14289,13160 L 15680,13160 15680,14366 14289,14366 14289,13160 Z M 14306,13175 L 15663,13175 15663,14351 14306,14351 14306,13175 Z"/>
             <path fill="rgb(113,113,113)" stroke="none" d="M 14306,13175 L 15663,13175 15663,14351 14306,14351 14306,13175 Z M 14323,13189 L 15646,13189 15646,14337 14323,14337 14323,13189 Z"/>
             <path fill="rgb(114,114,114)" stroke="none" d="M 14323,13189 L 15646,13189 15646,14337 14323,14337 14323,13189 Z M 14340,13204 L 15629,13204 15629,14322 14340,14322 14340,13204 Z"/>
             <path fill="rgb(115,115,115)" stroke="none" d="M 14340,13204 L 15629,13204 15629,14322 14340,14322 14340,13204 Z M 14357,13219 L 15612,13219 15612,14307 14357,14307 14357,13219 Z"/>
             <path fill="rgb(116,116,116)" stroke="none" d="M 14357,13219 L 15612,13219 15612,14307 14357,14307 14357,13219 Z M 14374,13234 L 15595,13234 15595,14292 14374,14292 14374,13234 Z"/>
             <path fill="rgb(117,117,117)" stroke="none" d="M 14374,13234 L 15595,13234 15595,14292 14374,14292 14374,13234 Z M 14391,13248 L 15578,13248 15578,14278 14391,14278 14391,13248 Z"/>
             <path fill="rgb(118,118,118)" stroke="none" d="M 14391,13248 L 15578,13248 15578,14278 14391,14278 14391,13248 Z M 14408,13263 L 15561,13263 15561,14263 14408,14263 14408,13263 Z"/>
             <path fill="rgb(119,119,119)" stroke="none" d="M 14408,13263 L 15561,13263 15561,14263 14408,14263 14408,13263 Z M 14425,13278 L 15544,13278 15544,14248 14425,14248 14425,13278 Z"/>
             <path fill="rgb(120,120,120)" stroke="none" d="M 14425,13278 L 15544,13278 15544,14248 14425,14248 14425,13278 Z M 14442,13292 L 15527,13292 15527,14234 14442,14234 14442,13292 Z"/>
             <path fill="rgb(121,121,121)" stroke="none" d="M 14442,13292 L 15527,13292 15527,14234 14442,14234 14442,13292 Z M 14458,13306 L 15510,13306 15510,14219 14458,14219 14458,13306 Z"/>
             <path fill="rgb(122,122,122)" stroke="none" d="M 14458,13306 L 15510,13306 15510,14219 14458,14219 14458,13306 Z M 14475,13321 L 15493,13321 15493,14204 14475,14204 14475,13321 Z"/>
             <path fill="rgb(123,123,123)" stroke="none" d="M 14475,13321 L 15493,13321 15493,14204 14475,14204 14475,13321 Z M 14492,13336 L 15476,13336 15476,14189 14492,14189 14492,13336 Z"/>
             <path fill="rgb(124,124,124)" stroke="none" d="M 14492,13336 L 15476,13336 15476,14189 14492,14189 14492,13336 Z M 14509,13350 L 15459,13350 15459,14175 14509,14175 14509,13350 Z"/>
             <path fill="rgb(125,125,125)" stroke="none" d="M 14509,13350 L 15459,13350 15459,14175 14509,14175 14509,13350 Z M 14526,13365 L 15442,13365 15442,14160 14526,14160 14526,13365 Z"/>
             <path fill="rgb(126,126,126)" stroke="none" d="M 14526,13365 L 15442,13365 15442,14160 14526,14160 14526,13365 Z M 14543,13380 L 15425,13380 15425,14145 14543,14145 14543,13380 Z"/>
             <path fill="rgb(127,127,127)" stroke="none" d="M 14543,13380 L 15425,13380 15425,14145 14543,14145 14543,13380 Z M 14560,13395 L 15408,13395 15408,14130 14560,14130 14560,13395 Z"/>
             <path fill="rgb(128,128,128)" stroke="none" d="M 14560,13395 L 15408,13395 15408,14130 14560,14130 14560,13395 Z M 14577,13409 L 15391,13409 15391,14116 14577,14116 14577,13409 Z"/>
             <path fill="rgb(129,129,129)" stroke="none" d="M 14577,13409 L 15391,13409 15391,14116 14577,14116 14577,13409 Z M 14594,13424 L 15374,13424 15374,14101 14594,14101 14594,13424 Z"/>
             <path fill="rgb(130,130,130)" stroke="none" d="M 14594,13424 L 15374,13424 15374,14101 14594,14101 14594,13424 Z M 14611,13439 L 15357,13439 15357,14086 14611,14086 14611,13439 Z"/>
             <path fill="rgb(131,131,131)" stroke="none" d="M 14611,13439 L 15357,13439 15357,14086 14611,14086 14611,13439 Z M 14628,13454 L 15340,13454 15340,14071 14628,14071 14628,13454 Z"/>
             <path fill="rgb(132,132,132)" stroke="none" d="M 14628,13454 L 15340,13454 15340,14071 14628,14071 14628,13454 Z M 14645,13468 L 15323,13468 15323,14057 14645,14057 14645,13468 Z"/>
             <path fill="rgb(133,133,133)" stroke="none" d="M 14645,13468 L 15323,13468 15323,14057 14645,14057 14645,13468 Z M 14662,13483 L 15306,13483 15306,14042 14662,14042 14662,13483 Z"/>
             <path fill="rgb(134,134,134)" stroke="none" d="M 14662,13483 L 15306,13483 15306,14042 14662,14042 14662,13483 Z M 14679,13498 L 15289,13498 15289,14027 14679,14027 14679,13498 Z"/>
             <path fill="rgb(135,135,135)" stroke="none" d="M 14679,13498 L 15289,13498 15289,14027 14679,14027 14679,13498 Z M 14696,13513 L 15272,13513 15272,14012 14696,14012 14696,13513 Z"/>
             <path fill="rgb(136,136,136)" stroke="none" d="M 14696,13513 L 15272,13513 15272,14012 14696,14012 14696,13513 Z M 14713,13527 L 15255,13527 15255,13998 14713,13998 14713,13527 Z"/>
             <path fill="rgb(137,137,137)" stroke="none" d="M 14713,13527 L 15255,13527 15255,13998 14713,13998 14713,13527 Z M 14730,13542 L 15238,13542 15238,13983 14730,13983 14730,13542 Z"/>
             <path fill="rgb(138,138,138)" stroke="none" d="M 14730,13542 L 15238,13542 15238,13983 14730,13983 14730,13542 Z M 14747,13557 L 15221,13557 15221,13968 14747,13968 14747,13557 Z"/>
             <path fill="rgb(139,139,139)" stroke="none" d="M 14747,13557 L 15221,13557 15221,13968 14747,13968 14747,13557 Z M 14764,13571 L 15204,13571 15204,13954 14764,13954 14764,13571 Z"/>
             <path fill="rgb(140,140,140)" stroke="none" d="M 14764,13571 L 15204,13571 15204,13954 14764,13954 14764,13571 Z M 14781,13586 L 15187,13586 15187,13939 14781,13939 14781,13586 Z"/>
             <path fill="rgb(141,141,141)" stroke="none" d="M 14781,13586 L 15187,13586 15187,13939 14781,13939 14781,13586 Z M 14798,13601 L 15170,13601 15170,13924 14798,13924 14798,13601 Z"/>
             <path fill="rgb(142,142,142)" stroke="none" d="M 14798,13601 L 15170,13601 15170,13924 14798,13924 14798,13601 Z M 14815,13616 L 15153,13616 15153,13909 14815,13909 14815,13616 Z"/>
             <path fill="rgb(143,143,143)" stroke="none" d="M 14815,13616 L 15153,13616 15153,13909 14815,13909 14815,13616 Z M 14832,13630 L 15136,13630 15136,13895 14832,13895 14832,13630 Z"/>
             <path fill="rgb(144,144,144)" stroke="none" d="M 14832,13630 L 15136,13630 15136,13895 14832,13895 14832,13630 Z M 14849,13645 L 15119,13645 15119,13880 14849,13880 14849,13645 Z"/>
             <path fill="rgb(145,145,145)" stroke="none" d="M 14849,13645 L 15119,13645 15119,13880 14849,13880 14849,13645 Z M 14866,13660 L 15102,13660 15102,13865 14866,13865 14866,13660 Z"/>
             <path fill="rgb(146,146,146)" stroke="none" d="M 14866,13660 L 15102,13660 15102,13865 14866,13865 14866,13660 Z M 14883,13675 L 15085,13675 15085,13850 14883,13850 14883,13675 Z"/>
             <path fill="rgb(147,147,147)" stroke="none" d="M 14883,13675 L 15085,13675 15085,13850 14883,13850 14883,13675 Z M 14900,13689 L 15068,13689 15068,13836 14900,13836 14900,13689 Z"/>
             <path fill="rgb(148,148,148)" stroke="none" d="M 14900,13689 L 15068,13689 15068,13836 14900,13836 14900,13689 Z M 14917,13704 L 15051,13704 15051,13821 14917,13821 14917,13704 Z"/>
             <path fill="rgb(149,149,149)" stroke="none" d="M 14917,13704 L 15051,13704 15051,13821 14917,13821 14917,13704 Z M 14934,13719 L 15034,13719 15034,13806 14934,13806 14934,13719 Z"/>
             <path fill="rgb(150,150,150)" stroke="none" d="M 14934,13719 L 15034,13719 15034,13806 14934,13806 14934,13719 Z M 14951,13734 L 15017,13734 15017,13791 14951,13791 14951,13734 Z"/>
             <path fill="rgb(151,151,151)" stroke="none" d="M 14951,13734 L 15017,13734 15017,13791 14951,13791 14951,13734 Z M 14968,13748 L 15000,13748 15000,13777 14968,13777 14968,13748 Z"/>
             <path fill="rgb(153,153,153)" stroke="none" d="M 14968,13748 L 15000,13748 15000,13777 14968,13777 14968,13748 Z"/>
            </g>
           </pattern>
          </defs>
          <path style="fill:url(#pattern3)" d="M 16196,13814 L 16196,13314 14467,14314 14467,14814 16196,13814 Z"/>
         </g>
         <path fill="none" stroke="rgb(178,178,178)" stroke-width="40" stroke-linejoin="round" d="M 16196,13814 L 16196,13314 14467,14314 14467,14814 16196,13814 Z"/>
        </g>
       </g>
      </g>
     </g>
    </g>
   </g>
  </g>
 </g>
</svg>