<?xml version="1.0" encoding="UTF-8"?>
<!DOCTYPE svg PUBLIC "-//W3C//DTD SVG 1.1//EN" "http://www.w3.org/Graphics/SVG/1.1/DTD/svg11.dtd">
<svg version="1.2" width="46.38mm" height="49.4mm" viewBox="1928 8183 4638 4940" preserveAspectRatio="xMidYMid" fill-rule="evenodd" stroke-width="28.222" stroke-linejoin="round" xmlns="http://www.w3.org/2000/svg" xmlns:ooo="http://xml.openoffice.org/svg/export" xmlns:xlink="http://www.w3.org/1999/xlink" xmlns:presentation="http://sun.com/xmlns/staroffice/presentation" xmlns:smil="http://www.w3.org/2001/SMIL20/" xmlns:anim="urn:oasis:names:tc:opendocument:xmlns:animation:1.0" xml:space="preserve">
 <defs class="ClipPathGroup">
  <clipPath id="presentation_clip_path" clipPathUnits="userSpaceOnUse">
   <rect x="1928" y="8183" width="4638" height="4940"/>
  </clipPath>
 </defs>
 <defs class="TextShapeIndex">
  <g ooo:slide="id1" ooo:id-list="id3 id4 id5 id6 id7 id8 id9 id10 id11 id12 id13 id14 id15 id16 id17 id18 id19 id20 id21 id22 id23 id24 id25 id26 id27 id28 id29 id30 id31 id32 id33 id34 id35 id36 id37 id38 id39 id40 id41 id42 id43 id44 id45 id46 id47 id48 id49 id50 id51"/>
 </defs>
 <defs class="EmbeddedBulletChars">
  <g id="bullet-char-template(57356)" transform="scale(0.00048828125,-0.00048828125)">
   <path d="M 580,1141 L 1163,571 580,0 -4,571 580,1141 Z"/>
  </g>
  <g id="bullet-char-template(57354)" transform="scale(0.00048828125,-0.00048828125)">
   <path d="M 8,1128 L 1137,1128 1137,0 8,0 8,1128 Z"/>
  </g>
  <g id="bullet-char-template(10146)" transform="scale(0.00048828125,-0.00048828125)">
   <path d="M 174,0 L 602,739 174,1481 1456,739 174,0 Z M 1358,739 L 309,1346 659,739 1358,739 Z"/>
  </g>
  <g id="bullet-char-template(10132)" transform="scale(0.00048828125,-0.00048828125)">
   <path d="M 2015,739 L 1276,0 717,0 1260,543 174,543 174,936 1260,936 717,1481 1274,1481 2015,739 Z"/>
  </g>
  <g id="bullet-char-template(10007)" transform="scale(0.00048828125,-0.00048828125)">
   <path d="M 0,-2 C -7,14 -16,27 -25,37 L 356,567 C 262,823 215,952 215,954 215,979 228,992 255,992 264,992 276,990 289,987 310,991 331,999 354,1012 L 381,999 492,748 772,1049 836,1024 860,1049 C 881,1039 901,1025 922,1006 886,937 835,863 770,784 769,783 710,716 594,584 L 774,223 C 774,196 753,168 711,139 L 727,119 C 717,90 699,76 672,76 641,76 570,178 457,381 L 164,-76 C 142,-110 111,-127 72,-127 30,-127 9,-110 8,-76 1,-67 -2,-52 -2,-32 -2,-23 -1,-13 0,-2 Z"/>
  </g>
  <g id="bullet-char-template(10004)" transform="scale(0.00048828125,-0.00048828125)">
   <path d="M 285,-33 C 182,-33 111,30 74,156 52,228 41,333 41,471 41,549 55,616 82,672 116,743 169,778 240,778 293,778 328,747 346,684 L 369,508 C 377,444 397,411 428,410 L 1163,1116 C 1174,1127 1196,1133 1229,1133 1271,1133 1292,1118 1292,1087 L 1292,965 C 1292,929 1282,901 1262,881 L 442,47 C 390,-6 338,-33 285,-33 Z"/>
  </g>
  <g id="bullet-char-template(9679)" transform="scale(0.00048828125,-0.00048828125)">
   <path d="M 813,0 C 632,0 489,54 383,161 276,268 223,411 223,592 223,773 276,916 383,1023 489,1130 632,1184 813,1184 992,1184 1136,1130 1245,1023 1353,916 1407,772 1407,592 1407,412 1353,268 1245,161 1136,54 992,0 813,0 Z"/>
  </g>
  <g id="bullet-char-template(8226)" transform="scale(0.00048828125,-0.00048828125)">
   <path d="M 346,457 C 273,457 209,483 155,535 101,586 74,649 74,723 74,796 101,859 155,911 209,963 273,989 346,989 419,989 480,963 531,910 582,859 608,796 608,723 608,648 583,586 532,535 482,483 420,457 346,457 Z"/>
  </g>
  <g id="bullet-char-template(8211)" transform="scale(0.00048828125,-0.00048828125)">
   <path d="M -4,459 L 1135,459 1135,606 -4,606 -4,459 Z"/>
  </g>
 </defs>
 <defs class="TextEmbeddedBitmaps"/>
 <g class="SlideGroup">
  <g>
   <g id="id1" class="Slide" clip-path="url(#presentation_clip_path)">
    <g class="Page">
     <g class="Group">
      <g class="com.sun.star.drawing.ClosedBezierShape">
       <g id="id3">
        <rect class="BoundingBox" stroke="none" fill="none" x="4445" y="11473" width="2122" height="1232"/>
        <path fill="rgb(221,221,221)" stroke="none" d="M 4465,12683 C 4465,12683 6042,12245 6405,11913 6740,11606 6403,11493 6162,11493 6162,11645 4465,12613 4465,12683 Z"/>
        <path fill="none" stroke="rgb(221,221,221)" stroke-width="40" stroke-linejoin="round" d="M 4465,12683 C 4465,12683 6042,12245 6405,11913 6740,11606 6403,11493 6162,11493 6162,11645 4465,12613 4465,12683 Z"/>
       </g>
      </g>
      <g class="Group">
       <g class="com.sun.star.drawing.PolyPolygonShape">
        <g id="id4">
         <rect class="BoundingBox" stroke="none" fill="none" x="2016" y="10456" width="4148" height="2415"/>
         <g>
          <defs>
           <linearGradient id="gradient1" x1="4089" y1="10476" x2="4089" y2="12850" gradientUnits="userSpaceOnUse">
            <stop offset="0.1" style="stop-color:rgb(179,179,179)"/>
            <stop offset="1" style="stop-color:rgb(229,229,229)"/>
           </linearGradient>
          </defs>
          <path style="fill:url(#gradient1)" d="M 3696,12850 L 6143,11436 4483,10476 2036,11890 3696,12850 Z"/>
         </g>
         <path fill="none" stroke="rgb(255,255,255)" stroke-width="40" stroke-linejoin="round" d="M 3696,12850 L 6143,11436 4483,10476 2036,11890 3696,12850 Z"/>
        </g>
       </g>
       <g class="com.sun.star.drawing.PolyPolygonShape">
        <g id="id5">
         <rect class="BoundingBox" stroke="none" fill="none" x="2452" y="10709" width="2751" height="1607"/>
         <path fill="rgb(127,127,127)" stroke="none" d="M 5182,11133 L 4483,10729 2473,11891 3172,12295 5182,11133 Z"/>
         <path fill="none" stroke="rgb(255,255,255)" stroke-width="40" stroke-linejoin="round" d="M 5182,11133 L 4483,10729 2473,11891 3172,12295 5182,11133 Z"/>
        </g>
       </g>
       <g class="com.sun.star.drawing.PolyPolygonShape">
        <g id="id6">
         <rect class="BoundingBox" stroke="none" fill="none" x="2016" y="8234" width="2488" height="3678"/>
         <g>
          <defs>
           <pattern id="pattern1" x="2036" y="8254" width="2448" height="3638" patternUnits="userSpaceOnUse">
            <g transform="translate(-2036,-8254)">
             <path fill="rgb(179,179,179)" stroke="none" d="M 2035,8253 L 4484,8253 4484,11892 2035,11892 2035,8253 Z M 1570,7562 L 3969,7562 3969,11127 1570,11127 1570,7562 Z"/>
             <path fill="rgb(180,180,180)" stroke="none" d="M 1570,7562 L 3969,7562 3969,11127 1570,11127 1570,7562 Z M 1594,7598 L 3945,7598 3945,11091 1594,11091 1594,7598 Z"/>
             <path fill="rgb(181,181,181)" stroke="none" d="M 1594,7598 L 3945,7598 3945,11091 1594,11091 1594,7598 Z M 1619,7635 L 3920,7635 3920,11054 1619,11054 1619,7635 Z"/>
             <path fill="rgb(182,182,182)" stroke="none" d="M 1619,7635 L 3920,7635 3920,11054 1619,11054 1619,7635 Z M 1643,7671 L 3896,7671 3896,11018 1643,11018 1643,7671 Z"/>
             <path fill="rgb(183,183,183)" stroke="none" d="M 1643,7671 L 3896,7671 3896,11018 1643,11018 1643,7671 Z M 1668,7707 L 3871,7707 3871,10981 1668,10981 1668,7707 Z"/>
             <path fill="rgb(184,184,184)" stroke="none" d="M 1668,7707 L 3871,7707 3871,10981 1668,10981 1668,7707 Z M 1692,7744 L 3847,7744 3847,10945 1692,10945 1692,7744 Z"/>
             <path fill="rgb(185,185,185)" stroke="none" d="M 1692,7744 L 3847,7744 3847,10945 1692,10945 1692,7744 Z M 1717,7780 L 3822,7780 3822,10909 1717,10909 1717,7780 Z"/>
             <path fill="rgb(186,186,186)" stroke="none" d="M 1717,7780 L 3822,7780 3822,10909 1717,10909 1717,7780 Z M 1741,7817 L 3798,7817 3798,10872 1741,10872 1741,7817 Z"/>
             <path fill="rgb(187,187,187)" stroke="none" d="M 1741,7817 L 3798,7817 3798,10872 1741,10872 1741,7817 Z M 1766,7853 L 3773,7853 3773,10836 1766,10836 1766,7853 Z"/>
             <path fill="rgb(188,188,188)" stroke="none" d="M 1766,7853 L 3773,7853 3773,10836 1766,10836 1766,7853 Z M 1790,7889 L 3749,7889 3749,10799 1790,10799 1790,7889 Z"/>
             <path fill="rgb(189,189,189)" stroke="none" d="M 1790,7889 L 3749,7889 3749,10799 1790,10799 1790,7889 Z M 1815,7926 L 3724,7926 3724,10763 1815,10763 1815,7926 Z"/>
             <path fill="rgb(190,190,190)" stroke="none" d="M 1815,7926 L 3724,7926 3724,10763 1815,10763 1815,7926 Z M 1839,7962 L 3700,7962 3700,10727 1839,10727 1839,7962 Z"/>
             <path fill="rgb(191,191,191)" stroke="none" d="M 1839,7962 L 3700,7962 3700,10727 1839,10727 1839,7962 Z M 1864,7999 L 3675,7999 3675,10690 1864,10690 1864,7999 Z"/>
             <path fill="rgb(192,192,192)" stroke="none" d="M 1864,7999 L 3675,7999 3675,10690 1864,10690 1864,7999 Z M 1888,8035 L 3651,8035 3651,10654 1888,10654 1888,8035 Z"/>
             <path fill="rgb(193,193,193)" stroke="none" d="M 1888,8035 L 3651,8035 3651,10654 1888,10654 1888,8035 Z M 1913,8071 L 3626,8071 3626,10617 1913,10617 1913,8071 Z"/>
             <path fill="rgb(194,194,194)" stroke="none" d="M 1913,8071 L 3626,8071 3626,10617 1913,10617 1913,8071 Z M 1937,8108 L 3602,8108 3602,10581 1937,10581 1937,8108 Z"/>
             <path fill="rgb(195,195,195)" stroke="none" d="M 1937,8108 L 3602,8108 3602,10581 1937,10581 1937,8108 Z M 1962,8144 L 3577,8144 3577,10545 1962,10545 1962,8144 Z"/>
             <path fill="rgb(196,196,196)" stroke="none" d="M 1962,8144 L 3577,8144 3577,10545 1962,10545 1962,8144 Z M 1986,8181 L 3553,8181 3553,10508 1986,10508 1986,8181 Z"/>
             <path fill="rgb(197,197,197)" stroke="none" d="M 1986,8181 L 3553,8181 3553,10508 1986,10508 1986,8181 Z M 2011,8217 L 3528,8217 3528,10472 2011,10472 2011,8217 Z"/>
             <path fill="rgb(198,198,198)" stroke="none" d="M 2011,8217 L 3528,8217 3528,10472 2011,10472 2011,8217 Z M 2035,8252 L 3504,8252 3504,10435 2035,10435 2035,8252 Z"/>
             <path fill="rgb(199,199,199)" stroke="none" d="M 2035,8252 L 3504,8252 3504,10435 2035,10435 2035,8252 Z M 2059,8289 L 3479,8289 3479,10399 2059,10399 2059,8289 Z"/>
             <path fill="rgb(200,200,200)" stroke="none" d="M 2059,8289 L 3479,8289 3479,10399 2059,10399 2059,8289 Z M 2084,8325 L 3455,8325 3455,10363 2084,10363 2084,8325 Z"/>
             <path fill="rgb(201,201,201)" stroke="none" d="M 2084,8325 L 3455,8325 3455,10363 2084,10363 2084,8325 Z M 2108,8362 L 3430,8362 3430,10326 2108,10326 2108,8362 Z"/>
             <path fill="rgb(202,202,202)" stroke="none" d="M 2108,8362 L 3430,8362 3430,10326 2108,10326 2108,8362 Z M 2133,8398 L 3406,8398 3406,10290 2133,10290 2133,8398 Z"/>
             <path fill="rgb(203,203,203)" stroke="none" d="M 2133,8398 L 3406,8398 3406,10290 2133,10290 2133,8398 Z M 2157,8434 L 3381,8434 3381,10253 2157,10253 2157,8434 Z"/>
             <path fill="rgb(204,204,204)" stroke="none" d="M 2157,8434 L 3381,8434 3381,10253 2157,10253 2157,8434 Z M 2182,8471 L 3357,8471 3357,10217 2182,10217 2182,8471 Z"/>
             <path fill="rgb(205,205,205)" stroke="none" d="M 2182,8471 L 3357,8471 3357,10217 2182,10217 2182,8471 Z M 2206,8507 L 3332,8507 3332,10181 2206,10181 2206,8507 Z"/>
             <path fill="rgb(206,206,206)" stroke="none" d="M 2206,8507 L 3332,8507 3332,10181 2206,10181 2206,8507 Z M 2231,8544 L 3308,8544 3308,10144 2231,10144 2231,8544 Z"/>
             <path fill="rgb(207,207,207)" stroke="none" d="M 2231,8544 L 3308,8544 3308,10144 2231,10144 2231,8544 Z M 2255,8580 L 3283,8580 3283,10108 2255,10108 2255,8580 Z"/>
             <path fill="rgb(208,208,208)" stroke="none" d="M 2255,8580 L 3283,8580 3283,10108 2255,10108 2255,8580 Z M 2280,8616 L 3259,8616 3259,10071 2280,10071 2280,8616 Z"/>
             <path fill="rgb(209,209,209)" stroke="none" d="M 2280,8616 L 3259,8616 3259,10071 2280,10071 2280,8616 Z M 2304,8653 L 3234,8653 3234,10035 2304,10035 2304,8653 Z"/>
             <path fill="rgb(210,210,210)" stroke="none" d="M 2304,8653 L 3234,8653 3234,10035 2304,10035 2304,8653 Z M 2329,8689 L 3210,8689 3210,9999 2329,9999 2329,8689 Z"/>
             <path fill="rgb(211,211,211)" stroke="none" d="M 2329,8689 L 3210,8689 3210,9999 2329,9999 2329,8689 Z M 2353,8726 L 3185,8726 3185,9962 2353,9962 2353,8726 Z"/>
             <path fill="rgb(212,212,212)" stroke="none" d="M 2353,8726 L 3185,8726 3185,9962 2353,9962 2353,8726 Z M 2378,8762 L 3161,8762 3161,9926 2378,9926 2378,8762 Z"/>
             <path fill="rgb(213,213,213)" stroke="none" d="M 2378,8762 L 3161,8762 3161,9926 2378,9926 2378,8762 Z M 2402,8798 L 3136,8798 3136,9889 2402,9889 2402,8798 Z"/>
             <path fill="rgb(214,214,214)" stroke="none" d="M 2402,8798 L 3136,8798 3136,9889 2402,9889 2402,8798 Z M 2427,8835 L 3112,8835 3112,9853 2427,9853 2427,8835 Z"/>
             <path fill="rgb(215,215,215)" stroke="none" d="M 2427,8835 L 3112,8835 3112,9853 2427,9853 2427,8835 Z M 2451,8871 L 3087,8871 3087,9817 2451,9817 2451,8871 Z"/>
             <path fill="rgb(216,216,216)" stroke="none" d="M 2451,8871 L 3087,8871 3087,9817 2451,9817 2451,8871 Z M 2476,8908 L 3063,8908 3063,9780 2476,9780 2476,8908 Z"/>
             <path fill="rgb(217,217,217)" stroke="none" d="M 2476,8908 L 3063,8908 3063,9780 2476,9780 2476,8908 Z M 2500,8944 L 3038,8944 3038,9744 2500,9744 2500,8944 Z"/>
             <path fill="rgb(218,218,218)" stroke="none" d="M 2500,8944 L 3038,8944 3038,9744 2500,9744 2500,8944 Z M 2525,8980 L 3014,8980 3014,9707 2525,9707 2525,8980 Z"/>
             <path fill="rgb(219,219,219)" stroke="none" d="M 2525,8980 L 3014,8980 3014,9707 2525,9707 2525,8980 Z M 2549,9017 L 2989,9017 2989,9671 2549,9671 2549,9017 Z"/>
             <path fill="rgb(220,220,220)" stroke="none" d="M 2549,9017 L 2989,9017 2989,9671 2549,9671 2549,9017 Z M 2574,9053 L 2965,9053 2965,9635 2574,9635 2574,9053 Z"/>
             <path fill="rgb(221,221,221)" stroke="none" d="M 2574,9053 L 2965,9053 2965,9635 2574,9635 2574,9053 Z M 2598,9090 L 2940,9090 2940,9598 2598,9598 2598,9090 Z"/>
             <path fill="rgb(222,222,222)" stroke="none" d="M 2598,9090 L 2940,9090 2940,9598 2598,9598 2598,9090 Z M 2623,9126 L 2916,9126 2916,9562 2623,9562 2623,9126 Z"/>
             <path fill="rgb(223,223,223)" stroke="none" d="M 2623,9126 L 2916,9126 2916,9562 2623,9562 2623,9126 Z M 2647,9162 L 2891,9162 2891,9525 2647,9525 2647,9162 Z"/>
             <path fill="rgb(224,224,224)" stroke="none" d="M 2647,9162 L 2891,9162 2891,9525 2647,9525 2647,9162 Z M 2672,9199 L 2867,9199 2867,9489 2672,9489 2672,9199 Z"/>
             <path fill="rgb(225,225,225)" stroke="none" d="M 2672,9199 L 2867,9199 2867,9489 2672,9489 2672,9199 Z M 2696,9235 L 2842,9235 2842,9453 2696,9453 2696,9235 Z"/>
             <path fill="rgb(226,226,226)" stroke="none" d="M 2696,9235 L 2842,9235 2842,9453 2696,9453 2696,9235 Z M 2721,9272 L 2818,9272 2818,9416 2721,9416 2721,9272 Z"/>
             <path fill="rgb(227,227,227)" stroke="none" d="M 2721,9272 L 2818,9272 2818,9416 2721,9416 2721,9272 Z M 2745,9308 L 2793,9308 2793,9380 2745,9380 2745,9308 Z"/>
             <path fill="rgb(229,229,229)" stroke="none" d="M 2745,9308 L 2793,9308 2793,9380 2745,9380 2745,9308 Z"/>
            </g>
           </pattern>
          </defs>
          <path style="fill:url(#pattern1)" d="M 4483,10477 L 4483,8254 2036,9668 2036,11891 4483,10477 Z"/>
         </g>
         <path fill="none" stroke="rgb(255,255,255)" stroke-width="40" stroke-linejoin="round" d="M 4483,10477 L 4483,8254 2036,9668 2036,11891 4483,10477 Z"/>
        </g>
       </g>
       <g class="com.sun.star.drawing.PolyPolygonShape">
        <g id="id7">
         <rect class="BoundingBox" stroke="none" fill="none" x="2103" y="8385" width="2313" height="3223"/>
         <g>
          <defs>
           <linearGradient id="gradient2" x1="2122" y1="9996" x2="4396" y2="9996" gradientUnits="userSpaceOnUse">
            <stop offset="0.1" style="stop-color:rgb(147,212,240)"/>
            <stop offset="1" style="stop-color:rgb(233,246,252)"/>
           </linearGradient>
          </defs>
          <path style="fill:url(#gradient2)" d="M 4395,10274 L 4395,8405 2123,9718 2123,11587 4395,10274 Z"/>
         </g>
         <path fill="none" stroke="rgb(127,127,127)" stroke-width="40" stroke-linejoin="round" d="M 4395,10274 L 4395,8405 2123,9718 2123,11587 4395,10274 Z"/>
        </g>
       </g>
       <g class="com.sun.star.drawing.PolyPolygonShape">
        <g id="id8">
         <rect class="BoundingBox" stroke="none" fill="none" x="1929" y="8183" width="2575" height="1506"/>
         <g>
          <defs>
           <linearGradient id="gradient3" x1="3216" y1="8203" x2="3216" y2="9668" gradientUnits="userSpaceOnUse">
            <stop offset="0.1" style="stop-color:rgb(179,179,179)"/>
            <stop offset="1" style="stop-color:rgb(229,229,229)"/>
           </linearGradient>
          </defs>
          <path style="fill:url(#gradient3)" d="M 2036,9668 L 4483,8254 4396,8203 1949,9617 2036,9668 Z"/>
         </g>
         <path fill="none" stroke="rgb(255,255,255)" stroke-width="40" stroke-linejoin="round" d="M 2036,9668 L 4483,8254 4396,8203 1949,9617 2036,9668 Z"/>
        </g>
       </g>
       <g class="com.sun.star.drawing.PolyPolygonShape">
        <g id="id9">
         <rect class="BoundingBox" stroke="none" fill="none" x="1929" y="9597" width="128" height="2314"/>
         <g>
          <defs>
           <linearGradient id="gradient4" x1="1948" y1="10753" x2="2037" y2="10753" gradientUnits="userSpaceOnUse">
            <stop offset="0.1" style="stop-color:rgb(179,179,179)"/>
            <stop offset="1" style="stop-color:rgb(229,229,229)"/>
           </linearGradient>
          </defs>
          <path style="fill:url(#gradient4)" d="M 2036,11890 L 2036,9668 1949,9617 1949,11840 2036,11890 Z"/>
         </g>
         <path fill="none" stroke="rgb(255,255,255)" stroke-width="40" stroke-linejoin="round" d="M 2036,11890 L 2036,9668 1949,9617 1949,11840 2036,11890 Z"/>
        </g>
       </g>
       <g class="com.sun.star.drawing.PolyPolygonShape">
        <g id="id10">
         <rect class="BoundingBox" stroke="none" fill="none" x="2016" y="11870" width="1702" height="1253"/>
         <g>
          <defs>
           <linearGradient id="gradient5" x1="2036" y1="12496" x2="3696" y2="12496" gradientUnits="userSpaceOnUse">
            <stop offset="0.1" style="stop-color:rgb(179,179,179)"/>
            <stop offset="1" style="stop-color:rgb(229,229,229)"/>
           </linearGradient>
          </defs>
          <path style="fill:url(#gradient5)" d="M 3696,13102 L 3696,12850 2036,11890 2036,12143 3696,13102 Z"/>
         </g>
         <path fill="none" stroke="rgb(255,255,255)" stroke-width="40" stroke-linejoin="round" d="M 3696,13102 L 3696,12850 2036,11890 2036,12143 3696,13102 Z"/>
        </g>
       </g>
       <g class="com.sun.star.drawing.LineShape">
        <g id="id11">
         <rect class="BoundingBox" stroke="none" fill="none" x="2976" y="11012" width="2052" height="1203"/>
         <path fill="none" stroke="rgb(229,229,229)" stroke-width="40" stroke-linejoin="round" d="M 5007,11032 L 2997,12194"/>
        </g>
       </g>
       <g class="com.sun.star.drawing.LineShape">
        <g id="id12">
         <rect class="BoundingBox" stroke="none" fill="none" x="2801" y="10911" width="2052" height="1203"/>
         <path fill="none" stroke="rgb(229,229,229)" stroke-width="40" stroke-linejoin="round" d="M 4832,10931 L 2822,12093"/>
        </g>
       </g>
       <g class="com.sun.star.drawing.LineShape">
        <g id="id13">
         <rect class="BoundingBox" stroke="none" fill="none" x="2626" y="10810" width="2052" height="1203"/>
         <path fill="none" stroke="rgb(229,229,229)" stroke-width="40" stroke-linejoin="round" d="M 4657,10830 L 2647,11992"/>
        </g>
       </g>
       <g class="com.sun.star.drawing.LineShape">
        <g id="id14">
         <rect class="BoundingBox" stroke="none" fill="none" x="2715" y="11719" width="216" height="142"/>
         <path fill="none" stroke="rgb(229,229,229)" stroke-width="40" stroke-linejoin="round" d="M 2910,11840 L 2735,11739"/>
        </g>
       </g>
       <g class="com.sun.star.drawing.LineShape">
        <g id="id15">
         <rect class="BoundingBox" stroke="none" fill="none" x="2889" y="11618" width="216" height="142"/>
         <path fill="none" stroke="rgb(229,229,229)" stroke-width="40" stroke-linejoin="round" d="M 3084,11739 L 2909,11638"/>
        </g>
       </g>
       <g class="com.sun.star.drawing.LineShape">
        <g id="id16">
         <rect class="BoundingBox" stroke="none" fill="none" x="3064" y="11517" width="216" height="142"/>
         <path fill="none" stroke="rgb(229,229,229)" stroke-width="40" stroke-linejoin="round" d="M 3259,11638 L 3084,11537"/>
        </g>
       </g>
       <g class="com.sun.star.drawing.LineShape">
        <g id="id17">
         <rect class="BoundingBox" stroke="none" fill="none" x="2977" y="11769" width="216" height="142"/>
         <path fill="none" stroke="rgb(229,229,229)" stroke-width="40" stroke-linejoin="round" d="M 3172,11890 L 2997,11789"/>
        </g>
       </g>
       <g class="com.sun.star.drawing.LineShape">
        <g id="id18">
         <rect class="BoundingBox" stroke="none" fill="none" x="3152" y="11668" width="216" height="142"/>
         <path fill="none" stroke="rgb(229,229,229)" stroke-width="40" stroke-linejoin="round" d="M 3347,11789 L 3172,11688"/>
        </g>
       </g>
       <g class="com.sun.star.drawing.LineShape">
        <g id="id19">
         <rect class="BoundingBox" stroke="none" fill="none" x="3326" y="11567" width="216" height="142"/>
         <path fill="none" stroke="rgb(229,229,229)" stroke-width="40" stroke-linejoin="round" d="M 3521,11688 L 3346,11587"/>
        </g>
       </g>
       <g class="com.sun.star.drawing.LineShape">
        <g id="id20">
         <rect class="BoundingBox" stroke="none" fill="none" x="3239" y="11416" width="216" height="142"/>
         <path fill="none" stroke="rgb(229,229,229)" stroke-width="40" stroke-linejoin="round" d="M 3434,11537 L 3259,11436"/>
        </g>
       </g>
       <g class="com.sun.star.drawing.LineShape">
        <g id="id21">
         <rect class="BoundingBox" stroke="none" fill="none" x="3501" y="11466" width="216" height="142"/>
         <path fill="none" stroke="rgb(229,229,229)" stroke-width="40" stroke-linejoin="round" d="M 3696,11587 L 3521,11486"/>
        </g>
       </g>
       <g class="com.sun.star.drawing.LineShape">
        <g id="id22">
         <rect class="BoundingBox" stroke="none" fill="none" x="3414" y="11315" width="216" height="142"/>
         <path fill="none" stroke="rgb(229,229,229)" stroke-width="40" stroke-linejoin="round" d="M 3609,11436 L 3434,11335"/>
        </g>
       </g>
       <g class="com.sun.star.drawing.LineShape">
        <g id="id23">
         <rect class="BoundingBox" stroke="none" fill="none" x="3589" y="11214" width="216" height="142"/>
         <path fill="none" stroke="rgb(229,229,229)" stroke-width="40" stroke-linejoin="round" d="M 3784,11335 L 3609,11234"/>
        </g>
       </g>
       <g class="com.sun.star.drawing.LineShape">
        <g id="id24">
         <rect class="BoundingBox" stroke="none" fill="none" x="3763" y="11113" width="216" height="142"/>
         <path fill="none" stroke="rgb(229,229,229)" stroke-width="40" stroke-linejoin="round" d="M 3958,11234 L 3783,11133"/>
        </g>
       </g>
       <g class="com.sun.star.drawing.LineShape">
        <g id="id25">
         <rect class="BoundingBox" stroke="none" fill="none" x="3676" y="11365" width="216" height="142"/>
         <path fill="none" stroke="rgb(229,229,229)" stroke-width="40" stroke-linejoin="round" d="M 3871,11486 L 3696,11385"/>
        </g>
       </g>
       <g class="com.sun.star.drawing.LineShape">
        <g id="id26">
         <rect class="BoundingBox" stroke="none" fill="none" x="3851" y="11264" width="216" height="142"/>
         <path fill="none" stroke="rgb(229,229,229)" stroke-width="40" stroke-linejoin="round" d="M 4046,11385 L 3871,11284"/>
        </g>
       </g>
       <g class="com.sun.star.drawing.LineShape">
        <g id="id27">
         <rect class="BoundingBox" stroke="none" fill="none" x="4025" y="11163" width="216" height="142"/>
         <path fill="none" stroke="rgb(229,229,229)" stroke-width="40" stroke-linejoin="round" d="M 4220,11284 L 4045,11183"/>
        </g>
       </g>
       <g class="com.sun.star.drawing.LineShape">
        <g id="id28">
         <rect class="BoundingBox" stroke="none" fill="none" x="3938" y="11012" width="216" height="142"/>
         <path fill="none" stroke="rgb(229,229,229)" stroke-width="40" stroke-linejoin="round" d="M 4133,11133 L 3958,11032"/>
        </g>
       </g>
       <g class="com.sun.star.drawing.LineShape">
        <g id="id29">
         <rect class="BoundingBox" stroke="none" fill="none" x="4200" y="11062" width="216" height="142"/>
         <path fill="none" stroke="rgb(229,229,229)" stroke-width="40" stroke-linejoin="round" d="M 4395,11183 L 4220,11082"/>
        </g>
       </g>
       <g class="com.sun.star.drawing.LineShape">
        <g id="id30">
         <rect class="BoundingBox" stroke="none" fill="none" x="4113" y="10911" width="216" height="142"/>
         <path fill="none" stroke="rgb(229,229,229)" stroke-width="40" stroke-linejoin="round" d="M 4308,11032 L 4133,10931"/>
        </g>
       </g>
       <g class="com.sun.star.drawing.LineShape">
        <g id="id31">
         <rect class="BoundingBox" stroke="none" fill="none" x="4288" y="10810" width="216" height="142"/>
         <path fill="none" stroke="rgb(229,229,229)" stroke-width="40" stroke-linejoin="round" d="M 4483,10931 L 4308,10830"/>
        </g>
       </g>
       <g class="com.sun.star.drawing.LineShape">
        <g id="id32">
         <rect class="BoundingBox" stroke="none" fill="none" x="4375" y="10961" width="216" height="142"/>
         <path fill="none" stroke="rgb(229,229,229)" stroke-width="40" stroke-linejoin="round" d="M 4570,11082 L 4395,10981"/>
        </g>
       </g>
       <g class="com.sun.star.drawing.LineShape">
        <g id="id33">
         <rect class="BoundingBox" stroke="none" fill="none" x="3239" y="11820" width="216" height="142"/>
         <path fill="none" stroke="rgb(229,229,229)" stroke-width="40" stroke-linejoin="round" d="M 3434,11941 L 3259,11840"/>
        </g>
       </g>
       <g class="com.sun.star.drawing.LineShape">
        <g id="id34">
         <rect class="BoundingBox" stroke="none" fill="none" x="3414" y="11719" width="216" height="142"/>
         <path fill="none" stroke="rgb(229,229,229)" stroke-width="40" stroke-linejoin="round" d="M 3609,11840 L 3434,11739"/>
        </g>
       </g>
       <g class="com.sun.star.drawing.LineShape">
        <g id="id35">
         <rect class="BoundingBox" stroke="none" fill="none" x="3589" y="11618" width="216" height="142"/>
         <path fill="none" stroke="rgb(229,229,229)" stroke-width="40" stroke-linejoin="round" d="M 3784,11739 L 3609,11638"/>
        </g>
       </g>
       <g class="com.sun.star.drawing.LineShape">
        <g id="id36">
         <rect class="BoundingBox" stroke="none" fill="none" x="3676" y="11769" width="216" height="142"/>
         <path fill="none" stroke="rgb(229,229,229)" stroke-width="40" stroke-linejoin="round" d="M 3871,11890 L 3696,11789"/>
        </g>
       </g>
       <g class="com.sun.star.drawing.LineShape">
        <g id="id37">
         <rect class="BoundingBox" stroke="none" fill="none" x="3851" y="11668" width="216" height="142"/>
         <path fill="none" stroke="rgb(229,229,229)" stroke-width="40" stroke-linejoin="round" d="M 4046,11789 L 3871,11688"/>
        </g>
       </g>
       <g class="com.sun.star.drawing.LineShape">
        <g id="id38">
         <rect class="BoundingBox" stroke="none" fill="none" x="3763" y="11517" width="216" height="142"/>
         <path fill="none" stroke="rgb(229,229,229)" stroke-width="40" stroke-linejoin="round" d="M 3958,11638 L 3783,11537"/>
        </g>
       </g>
       <g class="com.sun.star.drawing.LineShape">
        <g id="id39">
         <rect class="BoundingBox" stroke="none" fill="none" x="3938" y="11416" width="216" height="142"/>
         <path fill="none" stroke="rgb(229,229,229)" stroke-width="40" stroke-linejoin="round" d="M 4133,11537 L 3958,11436"/>
        </g>
       </g>
       <g class="com.sun.star.drawing.LineShape">
        <g id="id40">
         <rect class="BoundingBox" stroke="none" fill="none" x="4113" y="11315" width="216" height="142"/>
         <path fill="none" stroke="rgb(229,229,229)" stroke-width="40" stroke-linejoin="round" d="M 4308,11436 L 4133,11335"/>
        </g>
       </g>
       <g class="com.sun.star.drawing.LineShape">
        <g id="id41">
         <rect class="BoundingBox" stroke="none" fill="none" x="4288" y="11214" width="216" height="142"/>
         <path fill="none" stroke="rgb(229,229,229)" stroke-width="40" stroke-linejoin="round" d="M 4483,11335 L 4308,11234"/>
        </g>
       </g>
       <g class="com.sun.star.drawing.LineShape">
        <g id="id42">
         <rect class="BoundingBox" stroke="none" fill="none" x="4550" y="11264" width="216" height="142"/>
         <path fill="none" stroke="rgb(229,229,229)" stroke-width="40" stroke-linejoin="round" d="M 4745,11385 L 4570,11284"/>
        </g>
       </g>
       <g class="com.sun.star.drawing.LineShape">
        <g id="id43">
         <rect class="BoundingBox" stroke="none" fill="none" x="4462" y="11113" width="216" height="142"/>
         <path fill="none" stroke="rgb(229,229,229)" stroke-width="40" stroke-linejoin="round" d="M 4657,11234 L 4482,11133"/>
        </g>
       </g>
       <g class="com.sun.star.drawing.LineShape">
        <g id="id44">
         <rect class="BoundingBox" stroke="none" fill="none" x="4725" y="11163" width="216" height="142"/>
         <path fill="none" stroke="rgb(229,229,229)" stroke-width="40" stroke-linejoin="round" d="M 4920,11284 L 4745,11183"/>
        </g>
       </g>
       <g class="com.sun.star.drawing.LineShape">
        <g id="id45">
         <rect class="BoundingBox" stroke="none" fill="none" x="3326" y="11972" width="216" height="142"/>
         <path fill="none" stroke="rgb(229,229,229)" stroke-width="40" stroke-linejoin="round" d="M 3521,12093 L 3346,11992"/>
        </g>
       </g>
       <g class="com.sun.star.drawing.LineShape">
        <g id="id46">
         <rect class="BoundingBox" stroke="none" fill="none" x="3501" y="11870" width="216" height="142"/>
         <path fill="none" stroke="rgb(229,229,229)" stroke-width="40" stroke-linejoin="round" d="M 3696,11991 L 3521,11890"/>
        </g>
       </g>
       <g class="com.sun.star.drawing.PolyPolygonShape">
        <g id="id47">
         <rect class="BoundingBox" stroke="none" fill="none" x="3676" y="11416" width="2488" height="1708"/>
         <g>
          <defs>
           <pattern id="pattern2" x="3696" y="11436" width="2448" height="1668" patternUnits="userSpaceOnUse">
            <g transform="translate(-3696,-11436)">
             <path fill="rgb(179,179,179)" stroke="none" d="M 3695,11435 L 6144,11435 6144,13104 3695,13104 3695,11435 Z M 3230,11118 L 5629,11118 5629,12753 3230,12753 3230,11118 Z"/>
             <path fill="rgb(180,180,180)" stroke="none" d="M 3230,11118 L 5629,11118 5629,12753 3230,12753 3230,11118 Z M 3254,11135 L 5605,11135 5605,12736 3254,12736 3254,11135 Z"/>
             <path fill="rgb(181,181,181)" stroke="none" d="M 3254,11135 L 5605,11135 5605,12736 3254,12736 3254,11135 Z M 3279,11152 L 5580,11152 5580,12719 3279,12719 3279,11152 Z"/>
             <path fill="rgb(182,182,182)" stroke="none" d="M 3279,11152 L 5580,11152 5580,12719 3279,12719 3279,11152 Z M 3303,11168 L 5556,11168 5556,12703 3303,12703 3303,11168 Z"/>
             <path fill="rgb(183,183,183)" stroke="none" d="M 3303,11168 L 5556,11168 5556,12703 3303,12703 3303,11168 Z M 3328,11185 L 5531,11185 5531,12686 3328,12686 3328,11185 Z"/>
             <path fill="rgb(184,184,184)" stroke="none" d="M 3328,11185 L 5531,11185 5531,12686 3328,12686 3328,11185 Z M 3352,11202 L 5507,11202 5507,12669 3352,12669 3352,11202 Z"/>
             <path fill="rgb(185,185,185)" stroke="none" d="M 3352,11202 L 5507,11202 5507,12669 3352,12669 3352,11202 Z M 3377,11218 L 5482,11218 5482,12653 3377,12653 3377,11218 Z"/>
             <path fill="rgb(186,186,186)" stroke="none" d="M 3377,11218 L 5482,11218 5482,12653 3377,12653 3377,11218 Z M 3401,11235 L 5458,11235 5458,12636 3401,12636 3401,11235 Z"/>
             <path fill="rgb(187,187,187)" stroke="none" d="M 3401,11235 L 5458,11235 5458,12636 3401,12636 3401,11235 Z M 3426,11252 L 5433,11252 5433,12619 3426,12619 3426,11252 Z"/>
             <path fill="rgb(188,188,188)" stroke="none" d="M 3426,11252 L 5433,11252 5433,12619 3426,12619 3426,11252 Z M 3450,11268 L 5409,11268 5409,12602 3450,12602 3450,11268 Z"/>
             <path fill="rgb(189,189,189)" stroke="none" d="M 3450,11268 L 5409,11268 5409,12602 3450,12602 3450,11268 Z M 3475,11285 L 5384,11285 5384,12586 3475,12586 3475,11285 Z"/>
             <path fill="rgb(190,190,190)" stroke="none" d="M 3475,11285 L 5384,11285 5384,12586 3475,12586 3475,11285 Z M 3499,11302 L 5360,11302 5360,12569 3499,12569 3499,11302 Z"/>
             <path fill="rgb(191,191,191)" stroke="none" d="M 3499,11302 L 5360,11302 5360,12569 3499,12569 3499,11302 Z M 3524,11319 L 5335,11319 5335,12552 3524,12552 3524,11319 Z"/>
             <path fill="rgb(192,192,192)" stroke="none" d="M 3524,11319 L 5335,11319 5335,12552 3524,12552 3524,11319 Z M 3548,11335 L 5311,11335 5311,12536 3548,12536 3548,11335 Z"/>
             <path fill="rgb(193,193,193)" stroke="none" d="M 3548,11335 L 5311,11335 5311,12536 3548,12536 3548,11335 Z M 3573,11352 L 5286,11352 5286,12519 3573,12519 3573,11352 Z"/>
             <path fill="rgb(194,194,194)" stroke="none" d="M 3573,11352 L 5286,11352 5286,12519 3573,12519 3573,11352 Z M 3597,11369 L 5262,11369 5262,12502 3597,12502 3597,11369 Z"/>
             <path fill="rgb(195,195,195)" stroke="none" d="M 3597,11369 L 5262,11369 5262,12502 3597,12502 3597,11369 Z M 3622,11385 L 5237,11385 5237,12486 3622,12486 3622,11385 Z"/>
             <path fill="rgb(196,196,196)" stroke="none" d="M 3622,11385 L 5237,11385 5237,12486 3622,12486 3622,11385 Z M 3646,11402 L 5213,11402 5213,12469 3646,12469 3646,11402 Z"/>
             <path fill="rgb(197,197,197)" stroke="none" d="M 3646,11402 L 5213,11402 5213,12469 3646,12469 3646,11402 Z M 3671,11418 L 5188,11418 5188,12452 3671,12452 3671,11418 Z"/>
             <path fill="rgb(198,198,198)" stroke="none" d="M 3671,11418 L 5188,11418 5188,12452 3671,12452 3671,11418 Z M 3695,11434 L 5164,11434 5164,12435 3695,12435 3695,11434 Z"/>
             <path fill="rgb(199,199,199)" stroke="none" d="M 3695,11434 L 5164,11434 5164,12435 3695,12435 3695,11434 Z M 3719,11451 L 5139,11451 5139,12419 3719,12419 3719,11451 Z"/>
             <path fill="rgb(200,200,200)" stroke="none" d="M 3719,11451 L 5139,11451 5139,12419 3719,12419 3719,11451 Z M 3744,11468 L 5115,11468 5115,12402 3744,12402 3744,11468 Z"/>
             <path fill="rgb(201,201,201)" stroke="none" d="M 3744,11468 L 5115,11468 5115,12402 3744,12402 3744,11468 Z M 3768,11485 L 5090,11485 5090,12385 3768,12385 3768,11485 Z"/>
             <path fill="rgb(202,202,202)" stroke="none" d="M 3768,11485 L 5090,11485 5090,12385 3768,12385 3768,11485 Z M 3793,11501 L 5066,11501 5066,12369 3793,12369 3793,11501 Z"/>
             <path fill="rgb(203,203,203)" stroke="none" d="M 3793,11501 L 5066,11501 5066,12369 3793,12369 3793,11501 Z M 3817,11518 L 5041,11518 5041,12352 3817,12352 3817,11518 Z"/>
             <path fill="rgb(204,204,204)" stroke="none" d="M 3817,11518 L 5041,11518 5041,12352 3817,12352 3817,11518 Z M 3842,11535 L 5017,11535 5017,12335 3842,12335 3842,11535 Z"/>
             <path fill="rgb(205,205,205)" stroke="none" d="M 3842,11535 L 5017,11535 5017,12335 3842,12335 3842,11535 Z M 3866,11551 L 4992,11551 4992,12319 3866,12319 3866,11551 Z"/>
             <path fill="rgb(206,206,206)" stroke="none" d="M 3866,11551 L 4992,11551 4992,12319 3866,12319 3866,11551 Z M 3891,11568 L 4968,11568 4968,12302 3891,12302 3891,11568 Z"/>
             <path fill="rgb(207,207,207)" stroke="none" d="M 3891,11568 L 4968,11568 4968,12302 3891,12302 3891,11568 Z M 3915,11585 L 4943,11585 4943,12285 3915,12285 3915,11585 Z"/>
             <path fill="rgb(208,208,208)" stroke="none" d="M 3915,11585 L 4943,11585 4943,12285 3915,12285 3915,11585 Z M 3940,11601 L 4919,11601 4919,12268 3940,12268 3940,11601 Z"/>
             <path fill="rgb(209,209,209)" stroke="none" d="M 3940,11601 L 4919,11601 4919,12268 3940,12268 3940,11601 Z M 3964,11618 L 4894,11618 4894,12252 3964,12252 3964,11618 Z"/>
             <path fill="rgb(210,210,210)" stroke="none" d="M 3964,11618 L 4894,11618 4894,12252 3964,12252 3964,11618 Z M 3989,11635 L 4870,11635 4870,12235 3989,12235 3989,11635 Z"/>
             <path fill="rgb(211,211,211)" stroke="none" d="M 3989,11635 L 4870,11635 4870,12235 3989,12235 3989,11635 Z M 4013,11652 L 4845,11652 4845,12218 4013,12218 4013,11652 Z"/>
             <path fill="rgb(212,212,212)" stroke="none" d="M 4013,11652 L 4845,11652 4845,12218 4013,12218 4013,11652 Z M 4038,11668 L 4821,11668 4821,12202 4038,12202 4038,11668 Z"/>
             <path fill="rgb(213,213,213)" stroke="none" d="M 4038,11668 L 4821,11668 4821,12202 4038,12202 4038,11668 Z M 4062,11685 L 4796,11685 4796,12185 4062,12185 4062,11685 Z"/>
             <path fill="rgb(214,214,214)" stroke="none" d="M 4062,11685 L 4796,11685 4796,12185 4062,12185 4062,11685 Z M 4087,11702 L 4772,11702 4772,12168 4087,12168 4087,11702 Z"/>
             <path fill="rgb(215,215,215)" stroke="none" d="M 4087,11702 L 4772,11702 4772,12168 4087,12168 4087,11702 Z M 4111,11718 L 4747,11718 4747,12152 4111,12152 4111,11718 Z"/>
             <path fill="rgb(216,216,216)" stroke="none" d="M 4111,11718 L 4747,11718 4747,12152 4111,12152 4111,11718 Z M 4136,11735 L 4723,11735 4723,12135 4136,12135 4136,11735 Z"/>
             <path fill="rgb(217,217,217)" stroke="none" d="M 4136,11735 L 4723,11735 4723,12135 4136,12135 4136,11735 Z M 4160,11752 L 4698,11752 4698,12118 4160,12118 4160,11752 Z"/>
             <path fill="rgb(218,218,218)" stroke="none" d="M 4160,11752 L 4698,11752 4698,12118 4160,12118 4160,11752 Z M 4185,11768 L 4674,11768 4674,12101 4185,12101 4185,11768 Z"/>
             <path fill="rgb(219,219,219)" stroke="none" d="M 4185,11768 L 4674,11768 4674,12101 4185,12101 4185,11768 Z M 4209,11785 L 4649,11785 4649,12085 4209,12085 4209,11785 Z"/>
             <path fill="rgb(220,220,220)" stroke="none" d="M 4209,11785 L 4649,11785 4649,12085 4209,12085 4209,11785 Z M 4234,11802 L 4625,11802 4625,12068 4234,12068 4234,11802 Z"/>
             <path fill="rgb(221,221,221)" stroke="none" d="M 4234,11802 L 4625,11802 4625,12068 4234,12068 4234,11802 Z M 4258,11819 L 4600,11819 4600,12051 4258,12051 4258,11819 Z"/>
             <path fill="rgb(222,222,222)" stroke="none" d="M 4258,11819 L 4600,11819 4600,12051 4258,12051 4258,11819 Z M 4283,11835 L 4576,11835 4576,12035 4283,12035 4283,11835 Z"/>
             <path fill="rgb(223,223,223)" stroke="none" d="M 4283,11835 L 4576,11835 4576,12035 4283,12035 4283,11835 Z M 4307,11852 L 4551,11852 4551,12018 4307,12018 4307,11852 Z"/>
             <path fill="rgb(224,224,224)" stroke="none" d="M 4307,11852 L 4551,11852 4551,12018 4307,12018 4307,11852 Z M 4332,11869 L 4527,11869 4527,12001 4332,12001 4332,11869 Z"/>
             <path fill="rgb(225,225,225)" stroke="none" d="M 4332,11869 L 4527,11869 4527,12001 4332,12001 4332,11869 Z M 4356,11885 L 4502,11885 4502,11985 4356,11985 4356,11885 Z"/>
             <path fill="rgb(226,226,226)" stroke="none" d="M 4356,11885 L 4502,11885 4502,11985 4356,11985 4356,11885 Z M 4381,11902 L 4478,11902 4478,11968 4381,11968 4381,11902 Z"/>
             <path fill="rgb(227,227,227)" stroke="none" d="M 4381,11902 L 4478,11902 4478,11968 4381,11968 4381,11902 Z M 4405,11919 L 4453,11919 4453,11951 4405,11951 4405,11919 Z"/>
             <path fill="rgb(229,229,229)" stroke="none" d="M 4405,11919 L 4453,11919 4453,11951 4405,11951 4405,11919 Z"/>
            </g>
           </pattern>
          </defs>
          <path style="fill:url(#pattern2)" d="M 6143,11689 L 6143,11436 3696,12850 3696,13103 6143,11689 Z"/>
         </g>
         <path fill="none" stroke="rgb(255,255,255)" stroke-width="40" stroke-linejoin="round" d="M 6143,11689 L 6143,11436 3696,12850 3696,13103 6143,11689 Z"/>
        </g>
       </g>
       <g class="com.sun.star.drawing.PolyPolygonShape">
        <g id="id48">
         <rect class="BoundingBox" stroke="none" fill="none" x="1928" y="8183" width="4236" height="4941"/>
         <path fill="none" stroke="rgb(0,0,0)" stroke-width="40" stroke-linejoin="round" d="M 4395,8203 L 1948,9617 1948,11840 2036,11890 2036,12143 3696,13103 6143,11688 6143,11436 4483,10476 4483,8254 4395,8203 Z"/>
        </g>
       </g>
       <g class="com.sun.star.drawing.PolyPolygonShape">
        <g id="id49">
         <rect class="BoundingBox" stroke="none" fill="none" x="4025" y="11567" width="1090" height="647"/>
         <path fill="rgb(179,179,179)" stroke="none" d="M 5094,11840 L 4657,11587 4045,11941 4482,12193 5094,11840 Z"/>
         <path fill="none" stroke="rgb(255,255,255)" stroke-width="40" stroke-linejoin="round" d="M 5094,11840 L 4657,11587 4045,11941 4482,12193 5094,11840 Z"/>
        </g>
       </g>
       <g class="com.sun.star.drawing.LineShape">
        <g id="id50">
         <rect class="BoundingBox" stroke="none" fill="none" x="2802" y="11870" width="216" height="142"/>
         <path fill="none" stroke="rgb(229,229,229)" stroke-width="40" stroke-linejoin="round" d="M 2997,11991 L 2822,11890"/>
        </g>
       </g>
       <g class="com.sun.star.drawing.LineShape">
        <g id="id51">
         <rect class="BoundingBox" stroke="none" fill="none" x="3064" y="11921" width="216" height="142"/>
         <path fill="none" stroke="rgb(229,229,229)" stroke-width="40" stroke-linejoin="round" d="M 3259,12042 L 3084,11941"/>
        </g>
       </g>
      </g>
     </g>
    </g>
   </g>
  </g>
 </g>
</svg>