<?xml version="1.0" encoding="UTF-8"?>
<!DOCTYPE svg PUBLIC "-//W3C//DTD SVG 1.1//EN" "http://www.w3.org/Graphics/SVG/1.1/DTD/svg11.dtd">
<svg version="1.2" width="47.67mm" height="49.49mm" viewBox="11264 1460 4767 4949" preserveAspectRatio="xMidYMid" fill-rule="evenodd" stroke-width="28.222" stroke-linejoin="round" xmlns="http://www.w3.org/2000/svg" xmlns:ooo="http://xml.openoffice.org/svg/export" xmlns:xlink="http://www.w3.org/1999/xlink" xmlns:presentation="http://sun.com/xmlns/staroffice/presentation" xmlns:smil="http://www.w3.org/2001/SMIL20/" xmlns:anim="urn:oasis:names:tc:opendocument:xmlns:animation:1.0" xml:space="preserve">
 <defs class="ClipPathGroup">
  <clipPath id="presentation_clip_path" clipPathUnits="userSpaceOnUse">
   <rect x="11264" y="1460" width="4767" height="4949"/>
  </clipPath>
 </defs>
 <defs class="TextShapeIndex">
  <g ooo:slide="id1" ooo:id-list="id3 id4 id5 id6 id7 id8 id9 id10 id11 id12 id13 id14 id15 id16 id17 id18 id19 id20 id21 id22 id23 id24 id25 id26 id27 id28 id29 id30 id31 id32 id33 id34 id35 id36 id37 id38 id39 id40 id41 id42 id43 id44 id45 id46 id47 id48 id49 id50 id51"/>
 </defs>
 <defs class="EmbeddedBulletChars">
  <g id="bullet-char-template(57356)" transform="scale(0.00048828125,-0.00048828125)">
   <path d="M 580,1141 L 1163,571 580,0 -4,571 580,1141 Z"/>
  </g>
  <g id="bullet-char-template(57354)" transform="scale(0.00048828125,-0.00048828125)">
   <path d="M 8,1128 L 1137,1128 1137,0 8,0 8,1128 Z"/>
  </g>
  <g id="bullet-char-template(10146)" transform="scale(0.00048828125,-0.00048828125)">
   <path d="M 174,0 L 602,739 174,1481 1456,739 174,0 Z M 1358,739 L 309,1346 659,739 1358,739 Z"/>
  </g>
  <g id="bullet-char-template(10132)" transform="scale(0.00048828125,-0.00048828125)">
   <path d="M 2015,739 L 1276,0 717,0 1260,543 174,543 174,936 1260,936 717,1481 1274,1481 2015,739 Z"/>
  </g>
  <g id="bullet-char-template(10007)" transform="scale(0.00048828125,-0.00048828125)">
   <path d="M 0,-2 C -7,14 -16,27 -25,37 L 356,567 C 262,823 215,952 215,954 215,979 228,992 255,992 264,992 276,990 289,987 310,991 331,999 354,1012 L 381,999 492,748 772,1049 836,1024 860,1049 C 881,1039 901,1025 922,1006 886,937 835,863 770,784 769,783 710,716 594,584 L 774,223 C 774,196 753,168 711,139 L 727,119 C 717,90 699,76 672,76 641,76 570,178 457,381 L 164,-76 C 142,-110 111,-127 72,-127 30,-127 9,-110 8,-76 1,-67 -2,-52 -2,-32 -2,-23 -1,-13 0,-2 Z"/>
  </g>
  <g id="bullet-char-template(10004)" transform="scale(0.00048828125,-0.00048828125)">
   <path d="M 285,-33 C 182,-33 111,30 74,156 52,228 41,333 41,471 41,549 55,616 82,672 116,743 169,778 240,778 293,778 328,747 346,684 L 369,508 C 377,444 397,411 428,410 L 1163,1116 C 1174,1127 1196,1133 1229,1133 1271,1133 1292,1118 1292,1087 L 1292,965 C 1292,929 1282,901 1262,881 L 442,47 C 390,-6 338,-33 285,-33 Z"/>
  </g>
  <g id="bullet-char-template(9679)" transform="scale(0.00048828125,-0.00048828125)">
   <path d="M 813,0 C 632,0 489,54 383,161 276,268 223,411 223,592 223,773 276,916 383,1023 489,1130 632,1184 813,1184 992,1184 1136,1130 1245,1023 1353,916 1407,772 1407,592 1407,412 1353,268 1245,161 1136,54 992,0 813,0 Z"/>
  </g>
  <g id="bullet-char-template(8226)" transform="scale(0.00048828125,-0.00048828125)">
   <path d="M 346,457 C 273,457 209,483 155,535 101,586 74,649 74,723 74,796 101,859 155,911 209,963 273,989 346,989 419,989 480,963 531,910 582,859 608,796 608,723 608,648 583,586 532,535 482,483 420,457 346,457 Z"/>
  </g>
  <g id="bullet-char-template(8211)" transform="scale(0.00048828125,-0.00048828125)">
   <path d="M -4,459 L 1135,459 1135,606 -4,606 -4,459 Z"/>
  </g>
 </defs>
 <defs class="TextEmbeddedBitmaps"/>
 <g class="SlideGroup">
  <g>
   <g id="id1" class="Slide" clip-path="url(#presentation_clip_path)">
    <g class="Page">
     <g class="Group">
      <g class="com.sun.star.drawing.ClosedBezierShape">
       <g id="id3">
        <rect class="BoundingBox" stroke="none" fill="none" x="13714" y="4952" width="2318" height="1459"/>
        <path fill="rgb(221,221,221)" stroke="none" d="M 13738,6389 C 13978,6389 16011,5883 16011,5427 16011,4972 15464,4972 15223,4972 15223,5124 13650,5276 13738,6389 Z"/>
        <path fill="none" stroke="rgb(221,221,221)" stroke-width="40" stroke-linejoin="round" d="M 13738,6389 C 13978,6389 16011,5883 16011,5427 16011,4972 15464,4972 15223,4972 15223,5124 13650,5276 13738,6389 Z"/>
       </g>
      </g>
      <g class="Group">
       <g class="com.sun.star.drawing.PolyPolygonShape">
        <g id="id4">
         <rect class="BoundingBox" stroke="none" fill="none" x="11264" y="3737" width="4156" height="2420"/>
         <g>
          <defs>
           <linearGradient id="gradient1" x1="13341" y1="3757" x2="13341" y2="6136" gradientUnits="userSpaceOnUse">
            <stop offset="0.1" style="stop-color:rgb(51,51,51)"/>
            <stop offset="1" style="stop-color:rgb(153,153,153)"/>
           </linearGradient>
          </defs>
          <path style="fill:url(#gradient1)" d="M 13735,6136 L 11284,4719 12947,3757 15399,5174 13735,6136 Z"/>
         </g>
         <path fill="none" stroke="rgb(178,178,178)" stroke-width="40" stroke-linejoin="round" d="M 13735,6136 L 11284,4719 12947,3757 15399,5174 13735,6136 Z"/>
        </g>
       </g>
       <g class="com.sun.star.drawing.PolyPolygonShape">
        <g id="id5">
         <rect class="BoundingBox" stroke="none" fill="none" x="12227" y="3990" width="2756" height="1610"/>
         <path fill="rgb(102,102,102)" stroke="none" d="M 12247,4415 L 12947,4010 14961,5174 14261,5579 12247,4415 Z"/>
         <path fill="none" stroke="rgb(178,178,178)" stroke-width="40" stroke-linejoin="round" d="M 12247,4415 L 12947,4010 14961,5174 14261,5579 12247,4415 Z"/>
        </g>
       </g>
       <g class="com.sun.star.drawing.PolyPolygonShape">
        <g id="id6">
         <rect class="BoundingBox" stroke="none" fill="none" x="12927" y="1511" width="2492" height="3685"/>
         <g>
          <defs>
           <linearGradient id="gradient2" x1="12946" y1="3353" x2="15398" y2="3353" gradientUnits="userSpaceOnUse">
            <stop offset="0.1" style="stop-color:rgb(51,51,51)"/>
            <stop offset="1" style="stop-color:rgb(153,153,153)"/>
           </linearGradient>
          </defs>
          <path style="fill:url(#gradient2)" d="M 12947,3758 L 12947,1531 15398,2948 15398,5175 12947,3758 Z"/>
         </g>
         <path fill="none" stroke="rgb(178,178,178)" stroke-width="40" stroke-linejoin="round" d="M 12947,3758 L 12947,1531 15398,2948 15398,5175 12947,3758 Z"/>
        </g>
       </g>
       <g class="com.sun.star.drawing.PolyPolygonShape">
        <g id="id7">
         <rect class="BoundingBox" stroke="none" fill="none" x="13015" y="1662" width="2317" height="3229"/>
         <g>
          <defs>
           <linearGradient id="gradient3" x1="13034" y1="3276" x2="15312" y2="3276" gradientUnits="userSpaceOnUse">
            <stop offset="0.1" style="stop-color:rgb(147,212,240)"/>
            <stop offset="1" style="stop-color:rgb(233,246,252)"/>
           </linearGradient>
          </defs>
          <path style="fill:url(#gradient3)" d="M 13035,3554 L 13035,1682 15311,2998 15311,4870 13035,3554 Z"/>
         </g>
         <path fill="none" stroke="rgb(102,102,102)" stroke-width="40" stroke-linejoin="round" d="M 13035,3554 L 13035,1682 15311,2998 15311,4870 13035,3554 Z"/>
        </g>
       </g>
       <g class="com.sun.star.drawing.PolyPolygonShape">
        <g id="id8">
         <rect class="BoundingBox" stroke="none" fill="none" x="12927" y="1460" width="2580" height="1509"/>
         <g>
          <defs>
           <linearGradient id="gradient4" x1="14216" y1="1480" x2="14216" y2="2948" gradientUnits="userSpaceOnUse">
            <stop offset="0.1" style="stop-color:rgb(51,51,51)"/>
            <stop offset="1" style="stop-color:rgb(153,153,153)"/>
           </linearGradient>
          </defs>
          <path style="fill:url(#gradient4)" d="M 15398,2948 L 12947,1531 13035,1480 15486,2897 15398,2948 Z"/>
         </g>
         <path fill="none" stroke="rgb(178,178,178)" stroke-width="40" stroke-linejoin="round" d="M 15398,2948 L 12947,1531 13035,1480 15486,2897 15398,2948 Z"/>
        </g>
       </g>
       <g class="com.sun.star.drawing.PolyPolygonShape">
        <g id="id9">
         <rect class="BoundingBox" stroke="none" fill="none" x="15379" y="2877" width="129" height="2318"/>
         <g>
          <defs>
           <pattern id="pattern1" x="15399" y="2897" width="89" height="2278" patternUnits="userSpaceOnUse">
            <g transform="translate(-15399,-2897)">
             <path fill="rgb(51,51,51)" stroke="none" d="M 15398,2896 L 15488,2896 15488,5175 15398,5175 15398,2896 Z M 15380,2453 L 15469,2453 15469,4706 15380,4706 15380,2453 Z"/>
             <path fill="rgb(52,52,52)" stroke="none" d="M 15380,2453 L 15469,2453 15469,4706 15380,4706 15380,2453 Z M 15381,2466 L 15469,2466 15469,4693 15381,4693 15381,2466 Z"/>
             <path fill="rgb(53,53,53)" stroke="none" d="M 15381,2466 L 15469,2466 15469,4693 15381,4693 15381,2466 Z M 15381,2478 L 15468,2478 15468,4681 15381,4681 15381,2478 Z"/>
             <path fill="rgb(54,54,54)" stroke="none" d="M 15381,2478 L 15468,2478 15468,4681 15381,4681 15381,2478 Z M 15382,2491 L 15468,2491 15468,4668 15382,4668 15382,2491 Z"/>
             <path fill="rgb(55,55,55)" stroke="none" d="M 15382,2491 L 15468,2491 15468,4668 15382,4668 15382,2491 Z M 15382,2503 L 15467,2503 15467,4656 15382,4656 15382,2503 Z"/>
             <path fill="rgb(56,56,56)" stroke="none" d="M 15382,2503 L 15467,2503 15467,4656 15382,4656 15382,2503 Z M 15383,2516 L 15467,2516 15467,4643 15383,4643 15383,2516 Z"/>
             <path fill="rgb(57,57,57)" stroke="none" d="M 15383,2516 L 15467,2516 15467,4643 15383,4643 15383,2516 Z M 15383,2528 L 15466,2528 15466,4631 15383,4631 15383,2528 Z"/>
             <path fill="rgb(58,58,58)" stroke="none" d="M 15383,2528 L 15466,2528 15466,4631 15383,4631 15383,2528 Z M 15384,2541 L 15466,2541 15466,4618 15384,4618 15384,2541 Z"/>
             <path fill="rgb(59,59,59)" stroke="none" d="M 15384,2541 L 15466,2541 15466,4618 15384,4618 15384,2541 Z M 15384,2553 L 15465,2553 15465,4606 15384,4606 15384,2553 Z"/>
             <path fill="rgb(61,61,61)" stroke="none" d="M 15384,2553 L 15465,2553 15465,4606 15384,4606 15384,2553 Z M 15385,2566 L 15465,2566 15465,4593 15385,4593 15385,2566 Z"/>
             <path fill="rgb(62,62,62)" stroke="none" d="M 15385,2566 L 15465,2566 15465,4593 15385,4593 15385,2566 Z M 15385,2578 L 15464,2578 15464,4581 15385,4581 15385,2578 Z"/>
             <path fill="rgb(63,63,63)" stroke="none" d="M 15385,2578 L 15464,2578 15464,4581 15385,4581 15385,2578 Z M 15386,2591 L 15464,2591 15464,4568 15386,4568 15386,2591 Z"/>
             <path fill="rgb(64,64,64)" stroke="none" d="M 15386,2591 L 15464,2591 15464,4568 15386,4568 15386,2591 Z M 15386,2603 L 15463,2603 15463,4556 15386,4556 15386,2603 Z"/>
             <path fill="rgb(65,65,65)" stroke="none" d="M 15386,2603 L 15463,2603 15463,4556 15386,4556 15386,2603 Z M 15387,2616 L 15463,2616 15463,4543 15387,4543 15387,2616 Z"/>
             <path fill="rgb(66,66,66)" stroke="none" d="M 15387,2616 L 15463,2616 15463,4543 15387,4543 15387,2616 Z M 15387,2628 L 15462,2628 15462,4531 15387,4531 15387,2628 Z"/>
             <path fill="rgb(67,67,67)" stroke="none" d="M 15387,2628 L 15462,2628 15462,4531 15387,4531 15387,2628 Z M 15388,2641 L 15462,2641 15462,4518 15388,4518 15388,2641 Z"/>
             <path fill="rgb(68,68,68)" stroke="none" d="M 15388,2641 L 15462,2641 15462,4518 15388,4518 15388,2641 Z M 15388,2653 L 15461,2653 15461,4506 15388,4506 15388,2653 Z"/>
             <path fill="rgb(70,70,70)" stroke="none" d="M 15388,2653 L 15461,2653 15461,4506 15388,4506 15388,2653 Z M 15389,2666 L 15461,2666 15461,4493 15389,4493 15389,2666 Z"/>
             <path fill="rgb(71,71,71)" stroke="none" d="M 15389,2666 L 15461,2666 15461,4493 15389,4493 15389,2666 Z M 15389,2679 L 15460,2679 15460,4480 15389,4480 15389,2679 Z"/>
             <path fill="rgb(72,72,72)" stroke="none" d="M 15389,2679 L 15460,2679 15460,4480 15389,4480 15389,2679 Z M 15390,2691 L 15460,2691 15460,4468 15390,4468 15390,2691 Z"/>
             <path fill="rgb(73,73,73)" stroke="none" d="M 15390,2691 L 15460,2691 15460,4468 15390,4468 15390,2691 Z M 15390,2704 L 15459,2704 15459,4455 15390,4455 15390,2704 Z"/>
             <path fill="rgb(74,74,74)" stroke="none" d="M 15390,2704 L 15459,2704 15459,4455 15390,4455 15390,2704 Z M 15391,2716 L 15459,2716 15459,4443 15391,4443 15391,2716 Z"/>
             <path fill="rgb(75,75,75)" stroke="none" d="M 15391,2716 L 15459,2716 15459,4443 15391,4443 15391,2716 Z M 15391,2729 L 15458,2729 15458,4430 15391,4430 15391,2729 Z"/>
             <path fill="rgb(76,76,76)" stroke="none" d="M 15391,2729 L 15458,2729 15458,4430 15391,4430 15391,2729 Z M 15392,2741 L 15458,2741 15458,4418 15392,4418 15392,2741 Z"/>
             <path fill="rgb(77,77,77)" stroke="none" d="M 15392,2741 L 15458,2741 15458,4418 15392,4418 15392,2741 Z M 15392,2754 L 15457,2754 15457,4405 15392,4405 15392,2754 Z"/>
             <path fill="rgb(79,79,79)" stroke="none" d="M 15392,2754 L 15457,2754 15457,4405 15392,4405 15392,2754 Z M 15393,2766 L 15457,2766 15457,4393 15393,4393 15393,2766 Z"/>
             <path fill="rgb(80,80,80)" stroke="none" d="M 15393,2766 L 15457,2766 15457,4393 15393,4393 15393,2766 Z M 15393,2779 L 15456,2779 15456,4380 15393,4380 15393,2779 Z"/>
             <path fill="rgb(81,81,81)" stroke="none" d="M 15393,2779 L 15456,2779 15456,4380 15393,4380 15393,2779 Z M 15394,2791 L 15456,2791 15456,4368 15394,4368 15394,2791 Z"/>
             <path fill="rgb(82,82,82)" stroke="none" d="M 15394,2791 L 15456,2791 15456,4368 15394,4368 15394,2791 Z M 15394,2804 L 15455,2804 15455,4355 15394,4355 15394,2804 Z"/>
             <path fill="rgb(83,83,83)" stroke="none" d="M 15394,2804 L 15455,2804 15455,4355 15394,4355 15394,2804 Z M 15395,2816 L 15455,2816 15455,4343 15395,4343 15395,2816 Z"/>
             <path fill="rgb(84,84,84)" stroke="none" d="M 15395,2816 L 15455,2816 15455,4343 15395,4343 15395,2816 Z M 15395,2829 L 15454,2829 15454,4330 15395,4330 15395,2829 Z"/>
             <path fill="rgb(85,85,85)" stroke="none" d="M 15395,2829 L 15454,2829 15454,4330 15395,4330 15395,2829 Z M 15396,2841 L 15454,2841 15454,4318 15396,4318 15396,2841 Z"/>
             <path fill="rgb(86,86,86)" stroke="none" d="M 15396,2841 L 15454,2841 15454,4318 15396,4318 15396,2841 Z M 15396,2854 L 15453,2854 15453,4305 15396,4305 15396,2854 Z"/>
             <path fill="rgb(87,87,87)" stroke="none" d="M 15396,2854 L 15453,2854 15453,4305 15396,4305 15396,2854 Z M 15397,2866 L 15453,2866 15453,4293 15397,4293 15397,2866 Z"/>
             <path fill="rgb(89,89,89)" stroke="none" d="M 15397,2866 L 15453,2866 15453,4293 15397,4293 15397,2866 Z M 15397,2878 L 15452,2878 15452,4280 15397,4280 15397,2878 Z"/>
             <path fill="rgb(90,90,90)" stroke="none" d="M 15397,2878 L 15452,2878 15452,4280 15397,4280 15397,2878 Z M 15398,2890 L 15452,2890 15452,4268 15398,4268 15398,2890 Z"/>
             <path fill="rgb(91,91,91)" stroke="none" d="M 15398,2890 L 15452,2890 15452,4268 15398,4268 15398,2890 Z M 15398,2903 L 15451,2903 15451,4255 15398,4255 15398,2903 Z"/>
             <path fill="rgb(92,92,92)" stroke="none" d="M 15398,2903 L 15451,2903 15451,4255 15398,4255 15398,2903 Z M 15399,2916 L 15451,2916 15451,4242 15399,4242 15399,2916 Z"/>
             <path fill="rgb(93,93,93)" stroke="none" d="M 15399,2916 L 15451,2916 15451,4242 15399,4242 15399,2916 Z M 15399,2928 L 15450,2928 15450,4230 15399,4230 15399,2928 Z"/>
             <path fill="rgb(94,94,94)" stroke="none" d="M 15399,2928 L 15450,2928 15450,4230 15399,4230 15399,2928 Z M 15400,2941 L 15450,2941 15450,4217 15400,4217 15400,2941 Z"/>
             <path fill="rgb(95,95,95)" stroke="none" d="M 15400,2941 L 15450,2941 15450,4217 15400,4217 15400,2941 Z M 15400,2953 L 15449,2953 15449,4205 15400,4205 15400,2953 Z"/>
             <path fill="rgb(96,96,96)" stroke="none" d="M 15400,2953 L 15449,2953 15449,4205 15400,4205 15400,2953 Z M 15401,2966 L 15449,2966 15449,4192 15401,4192 15401,2966 Z"/>
             <path fill="rgb(98,98,98)" stroke="none" d="M 15401,2966 L 15449,2966 15449,4192 15401,4192 15401,2966 Z M 15401,2978 L 15448,2978 15448,4180 15401,4180 15401,2978 Z"/>
             <path fill="rgb(99,99,99)" stroke="none" d="M 15401,2978 L 15448,2978 15448,4180 15401,4180 15401,2978 Z M 15402,2991 L 15448,2991 15448,4167 15402,4167 15402,2991 Z"/>
             <path fill="rgb(100,100,100)" stroke="none" d="M 15402,2991 L 15448,2991 15448,4167 15402,4167 15402,2991 Z M 15402,3003 L 15447,3003 15447,4155 15402,4155 15402,3003 Z"/>
             <path fill="rgb(101,101,101)" stroke="none" d="M 15402,3003 L 15447,3003 15447,4155 15402,4155 15402,3003 Z M 15403,3016 L 15447,3016 15447,4142 15403,4142 15403,3016 Z"/>
             <path fill="rgb(102,102,102)" stroke="none" d="M 15403,3016 L 15447,3016 15447,4142 15403,4142 15403,3016 Z M 15403,3028 L 15446,3028 15446,4130 15403,4130 15403,3028 Z"/>
             <path fill="rgb(103,103,103)" stroke="none" d="M 15403,3028 L 15446,3028 15446,4130 15403,4130 15403,3028 Z M 15404,3041 L 15446,3041 15446,4117 15404,4117 15404,3041 Z"/>
             <path fill="rgb(104,104,104)" stroke="none" d="M 15404,3041 L 15446,3041 15446,4117 15404,4117 15404,3041 Z M 15404,3053 L 15445,3053 15445,4105 15404,4105 15404,3053 Z"/>
             <path fill="rgb(105,105,105)" stroke="none" d="M 15404,3053 L 15445,3053 15445,4105 15404,4105 15404,3053 Z M 15405,3066 L 15445,3066 15445,4092 15405,4092 15405,3066 Z"/>
             <path fill="rgb(107,107,107)" stroke="none" d="M 15405,3066 L 15445,3066 15445,4092 15405,4092 15405,3066 Z M 15405,3078 L 15444,3078 15444,4080 15405,4080 15405,3078 Z"/>
             <path fill="rgb(108,108,108)" stroke="none" d="M 15405,3078 L 15444,3078 15444,4080 15405,4080 15405,3078 Z M 15406,3091 L 15444,3091 15444,4067 15406,4067 15406,3091 Z"/>
             <path fill="rgb(109,109,109)" stroke="none" d="M 15406,3091 L 15444,3091 15444,4067 15406,4067 15406,3091 Z M 15406,3103 L 15443,3103 15443,4055 15406,4055 15406,3103 Z"/>
             <path fill="rgb(110,110,110)" stroke="none" d="M 15406,3103 L 15443,3103 15443,4055 15406,4055 15406,3103 Z M 15407,3116 L 15443,3116 15443,4042 15407,4042 15407,3116 Z"/>
             <path fill="rgb(111,111,111)" stroke="none" d="M 15407,3116 L 15443,3116 15443,4042 15407,4042 15407,3116 Z M 15407,3129 L 15442,3129 15442,4029 15407,4029 15407,3129 Z"/>
             <path fill="rgb(112,112,112)" stroke="none" d="M 15407,3129 L 15442,3129 15442,4029 15407,4029 15407,3129 Z M 15408,3141 L 15442,3141 15442,4017 15408,4017 15408,3141 Z"/>
             <path fill="rgb(113,113,113)" stroke="none" d="M 15408,3141 L 15442,3141 15442,4017 15408,4017 15408,3141 Z M 15408,3154 L 15441,3154 15441,4004 15408,4004 15408,3154 Z"/>
             <path fill="rgb(114,114,114)" stroke="none" d="M 15408,3154 L 15441,3154 15441,4004 15408,4004 15408,3154 Z M 15409,3166 L 15441,3166 15441,3992 15409,3992 15409,3166 Z"/>
             <path fill="rgb(116,116,116)" stroke="none" d="M 15409,3166 L 15441,3166 15441,3992 15409,3992 15409,3166 Z M 15409,3179 L 15440,3179 15440,3979 15409,3979 15409,3179 Z"/>
             <path fill="rgb(117,117,117)" stroke="none" d="M 15409,3179 L 15440,3179 15440,3979 15409,3979 15409,3179 Z M 15410,3191 L 15440,3191 15440,3967 15410,3967 15410,3191 Z"/>
             <path fill="rgb(118,118,118)" stroke="none" d="M 15410,3191 L 15440,3191 15440,3967 15410,3967 15410,3191 Z M 15410,3204 L 15439,3204 15439,3954 15410,3954 15410,3204 Z"/>
             <path fill="rgb(119,119,119)" stroke="none" d="M 15410,3204 L 15439,3204 15439,3954 15410,3954 15410,3204 Z M 15411,3216 L 15439,3216 15439,3942 15411,3942 15411,3216 Z"/>
             <path fill="rgb(120,120,120)" stroke="none" d="M 15411,3216 L 15439,3216 15439,3942 15411,3942 15411,3216 Z M 15411,3229 L 15438,3229 15438,3929 15411,3929 15411,3229 Z"/>
             <path fill="rgb(121,121,121)" stroke="none" d="M 15411,3229 L 15438,3229 15438,3929 15411,3929 15411,3229 Z M 15412,3241 L 15438,3241 15438,3917 15412,3917 15412,3241 Z"/>
             <path fill="rgb(122,122,122)" stroke="none" d="M 15412,3241 L 15438,3241 15438,3917 15412,3917 15412,3241 Z M 15412,3254 L 15437,3254 15437,3904 15412,3904 15412,3254 Z"/>
             <path fill="rgb(123,123,123)" stroke="none" d="M 15412,3254 L 15437,3254 15437,3904 15412,3904 15412,3254 Z M 15413,3266 L 15437,3266 15437,3892 15413,3892 15413,3266 Z"/>
             <path fill="rgb(124,124,124)" stroke="none" d="M 15413,3266 L 15437,3266 15437,3892 15413,3892 15413,3266 Z M 15413,3279 L 15436,3279 15436,3879 15413,3879 15413,3279 Z"/>
             <path fill="rgb(126,126,126)" stroke="none" d="M 15413,3279 L 15436,3279 15436,3879 15413,3879 15413,3279 Z M 15414,3291 L 15436,3291 15436,3867 15414,3867 15414,3291 Z"/>
             <path fill="rgb(127,127,127)" stroke="none" d="M 15414,3291 L 15436,3291 15436,3867 15414,3867 15414,3291 Z M 15414,3304 L 15435,3304 15435,3854 15414,3854 15414,3304 Z"/>
             <path fill="rgb(128,128,128)" stroke="none" d="M 15414,3304 L 15435,3304 15435,3854 15414,3854 15414,3304 Z M 15415,3316 L 15435,3316 15435,3842 15415,3842 15415,3316 Z"/>
             <path fill="rgb(129,129,129)" stroke="none" d="M 15415,3316 L 15435,3316 15435,3842 15415,3842 15415,3316 Z M 15415,3329 L 15434,3329 15434,3829 15415,3829 15415,3329 Z"/>
             <path fill="rgb(130,130,130)" stroke="none" d="M 15415,3329 L 15434,3329 15434,3829 15415,3829 15415,3329 Z M 15416,3341 L 15434,3341 15434,3817 15416,3817 15416,3341 Z"/>
             <path fill="rgb(131,131,131)" stroke="none" d="M 15416,3341 L 15434,3341 15434,3817 15416,3817 15416,3341 Z M 15416,3354 L 15433,3354 15433,3804 15416,3804 15416,3354 Z"/>
             <path fill="rgb(132,132,132)" stroke="none" d="M 15416,3354 L 15433,3354 15433,3804 15416,3804 15416,3354 Z M 15417,3367 L 15433,3367 15433,3791 15417,3791 15417,3367 Z"/>
             <path fill="rgb(133,133,133)" stroke="none" d="M 15417,3367 L 15433,3367 15433,3791 15417,3791 15417,3367 Z M 15417,3379 L 15432,3379 15432,3779 15417,3779 15417,3379 Z"/>
             <path fill="rgb(135,135,135)" stroke="none" d="M 15417,3379 L 15432,3379 15432,3779 15417,3779 15417,3379 Z M 15418,3392 L 15432,3392 15432,3766 15418,3766 15418,3392 Z"/>
             <path fill="rgb(136,136,136)" stroke="none" d="M 15418,3392 L 15432,3392 15432,3766 15418,3766 15418,3392 Z M 15418,3404 L 15431,3404 15431,3754 15418,3754 15418,3404 Z"/>
             <path fill="rgb(137,137,137)" stroke="none" d="M 15418,3404 L 15431,3404 15431,3754 15418,3754 15418,3404 Z M 15419,3417 L 15431,3417 15431,3741 15419,3741 15419,3417 Z"/>
             <path fill="rgb(138,138,138)" stroke="none" d="M 15419,3417 L 15431,3417 15431,3741 15419,3741 15419,3417 Z M 15419,3429 L 15430,3429 15430,3729 15419,3729 15419,3429 Z"/>
             <path fill="rgb(139,139,139)" stroke="none" d="M 15419,3429 L 15430,3429 15430,3729 15419,3729 15419,3429 Z M 15420,3442 L 15430,3442 15430,3716 15420,3716 15420,3442 Z"/>
             <path fill="rgb(140,140,140)" stroke="none" d="M 15420,3442 L 15430,3442 15430,3716 15420,3716 15420,3442 Z M 15420,3454 L 15429,3454 15429,3704 15420,3704 15420,3454 Z"/>
             <path fill="rgb(141,141,141)" stroke="none" d="M 15420,3454 L 15429,3454 15429,3704 15420,3704 15420,3454 Z M 15421,3467 L 15429,3467 15429,3691 15421,3691 15421,3467 Z"/>
             <path fill="rgb(142,142,142)" stroke="none" d="M 15421,3467 L 15429,3467 15429,3691 15421,3691 15421,3467 Z M 15421,3479 L 15428,3479 15428,3679 15421,3679 15421,3479 Z"/>
             <path fill="rgb(144,144,144)" stroke="none" d="M 15421,3479 L 15428,3479 15428,3679 15421,3679 15421,3479 Z M 15422,3492 L 15428,3492 15428,3666 15422,3666 15422,3492 Z"/>
             <path fill="rgb(145,145,145)" stroke="none" d="M 15422,3492 L 15428,3492 15428,3666 15422,3666 15422,3492 Z M 15422,3504 L 15427,3504 15427,3654 15422,3654 15422,3504 Z"/>
             <path fill="rgb(146,146,146)" stroke="none" d="M 15422,3504 L 15427,3504 15427,3654 15422,3654 15422,3504 Z M 15423,3517 L 15427,3517 15427,3641 15423,3641 15423,3517 Z"/>
             <path fill="rgb(147,147,147)" stroke="none" d="M 15423,3517 L 15427,3517 15427,3641 15423,3641 15423,3517 Z M 15423,3529 L 15426,3529 15426,3629 15423,3629 15423,3529 Z"/>
             <path fill="rgb(148,148,148)" stroke="none" d="M 15423,3529 L 15426,3529 15426,3629 15423,3629 15423,3529 Z M 15424,3542 L 15426,3542 15426,3616 15424,3616 15424,3542 Z"/>
             <path fill="rgb(149,149,149)" stroke="none" d="M 15424,3542 L 15426,3542 15426,3616 15424,3616 15424,3542 Z M 15424,3554 L 15425,3554 15425,3604 15424,3604 15424,3554 Z"/>
             <path fill="rgb(153,153,153)" stroke="none" d="M 15424,3554 L 15425,3554 15425,3604 15424,3604 15424,3554 Z"/>
            </g>
           </pattern>
          </defs>
          <path style="fill:url(#pattern1)" d="M 15399,5174 L 15399,2948 15487,2897 15487,5124 15399,5174 Z"/>
         </g>
         <path fill="none" stroke="rgb(178,178,178)" stroke-width="40" stroke-linejoin="round" d="M 15399,5174 L 15399,2948 15487,2897 15487,5124 15399,5174 Z"/>
        </g>
       </g>
       <g class="com.sun.star.drawing.PolyPolygonShape">
        <g id="id10">
         <rect class="BoundingBox" stroke="none" fill="none" x="13715" y="5154" width="1704" height="1256"/>
         <g>
          <defs>
           <pattern id="pattern2" x="13735" y="5174" width="1664" height="1216" patternUnits="userSpaceOnUse">
            <g transform="translate(-13735,-5174)">
             <path fill="rgb(51,51,51)" stroke="none" d="M 13734,5173 L 15399,5173 15399,6390 13734,6390 13734,5173 Z M 13409,4935 L 15056,4935 15056,6140 13409,6140 13409,4935 Z"/>
             <path fill="rgb(52,52,52)" stroke="none" d="M 13409,4935 L 15056,4935 15056,6140 13409,6140 13409,4935 Z M 13417,4941 L 15048,4941 15048,6134 13417,6134 13417,4941 Z"/>
             <path fill="rgb(53,53,53)" stroke="none" d="M 13417,4941 L 15048,4941 15048,6134 13417,6134 13417,4941 Z M 13425,4947 L 15040,4947 15040,6128 13425,6128 13425,4947 Z"/>
             <path fill="rgb(54,54,54)" stroke="none" d="M 13425,4947 L 15040,4947 15040,6128 13425,6128 13425,4947 Z M 13433,4953 L 15032,4953 15032,6122 13433,6122 13433,4953 Z"/>
             <path fill="rgb(55,55,55)" stroke="none" d="M 13433,4953 L 15032,4953 15032,6122 13433,6122 13433,4953 Z M 13441,4959 L 15024,4959 15024,6116 13441,6116 13441,4959 Z"/>
             <path fill="rgb(56,56,56)" stroke="none" d="M 13441,4959 L 15024,4959 15024,6116 13441,6116 13441,4959 Z M 13450,4965 L 15015,4965 15015,6110 13450,6110 13450,4965 Z"/>
             <path fill="rgb(57,57,57)" stroke="none" d="M 13450,4965 L 15015,4965 15015,6110 13450,6110 13450,4965 Z M 13458,4971 L 15007,4971 15007,6104 13458,6104 13458,4971 Z"/>
             <path fill="rgb(58,58,58)" stroke="none" d="M 13458,4971 L 15007,4971 15007,6104 13458,6104 13458,4971 Z M 13466,4977 L 14999,4977 14999,6098 13466,6098 13466,4977 Z"/>
             <path fill="rgb(59,59,59)" stroke="none" d="M 13466,4977 L 14999,4977 14999,6098 13466,6098 13466,4977 Z M 13474,4983 L 14991,4983 14991,6092 13474,6092 13474,4983 Z"/>
             <path fill="rgb(60,60,60)" stroke="none" d="M 13474,4983 L 14991,4983 14991,6092 13474,6092 13474,4983 Z M 13482,4989 L 14983,4989 14983,6086 13482,6086 13482,4989 Z"/>
             <path fill="rgb(61,61,61)" stroke="none" d="M 13482,4989 L 14983,4989 14983,6086 13482,6086 13482,4989 Z M 13490,4995 L 14975,4995 14975,6080 13490,6080 13490,4995 Z"/>
             <path fill="rgb(62,62,62)" stroke="none" d="M 13490,4995 L 14975,4995 14975,6080 13490,6080 13490,4995 Z M 13499,5001 L 14966,5001 14966,6074 13499,6074 13499,5001 Z"/>
             <path fill="rgb(63,63,63)" stroke="none" d="M 13499,5001 L 14966,5001 14966,6074 13499,6074 13499,5001 Z M 13507,5007 L 14958,5007 14958,6068 13507,6068 13507,5007 Z"/>
             <path fill="rgb(64,64,64)" stroke="none" d="M 13507,5007 L 14958,5007 14958,6068 13507,6068 13507,5007 Z M 13515,5013 L 14950,5013 14950,6062 13515,6062 13515,5013 Z"/>
             <path fill="rgb(65,65,65)" stroke="none" d="M 13515,5013 L 14950,5013 14950,6062 13515,6062 13515,5013 Z M 13523,5019 L 14942,5019 14942,6056 13523,6056 13523,5019 Z"/>
             <path fill="rgb(66,66,66)" stroke="none" d="M 13523,5019 L 14942,5019 14942,6056 13523,6056 13523,5019 Z M 13531,5025 L 14934,5025 14934,6050 13531,6050 13531,5025 Z"/>
             <path fill="rgb(67,67,67)" stroke="none" d="M 13531,5025 L 14934,5025 14934,6050 13531,6050 13531,5025 Z M 13539,5031 L 14926,5031 14926,6044 13539,6044 13539,5031 Z"/>
             <path fill="rgb(68,68,68)" stroke="none" d="M 13539,5031 L 14926,5031 14926,6044 13539,6044 13539,5031 Z M 13548,5037 L 14917,5037 14917,6038 13548,6038 13548,5037 Z"/>
             <path fill="rgb(69,69,69)" stroke="none" d="M 13548,5037 L 14917,5037 14917,6038 13548,6038 13548,5037 Z M 13556,5043 L 14909,5043 14909,6032 13556,6032 13556,5043 Z"/>
             <path fill="rgb(70,70,70)" stroke="none" d="M 13556,5043 L 14909,5043 14909,6032 13556,6032 13556,5043 Z M 13564,5049 L 14901,5049 14901,6026 13564,6026 13564,5049 Z"/>
             <path fill="rgb(71,71,71)" stroke="none" d="M 13564,5049 L 14901,5049 14901,6026 13564,6026 13564,5049 Z M 13572,5055 L 14893,5055 14893,6020 13572,6020 13572,5055 Z"/>
             <path fill="rgb(72,72,72)" stroke="none" d="M 13572,5055 L 14893,5055 14893,6020 13572,6020 13572,5055 Z M 13580,5061 L 14885,5061 14885,6014 13580,6014 13580,5061 Z"/>
             <path fill="rgb(73,73,73)" stroke="none" d="M 13580,5061 L 14885,5061 14885,6014 13580,6014 13580,5061 Z M 13588,5067 L 14877,5067 14877,6008 13588,6008 13588,5067 Z"/>
             <path fill="rgb(74,74,74)" stroke="none" d="M 13588,5067 L 14877,5067 14877,6008 13588,6008 13588,5067 Z M 13596,5073 L 14868,5073 14868,6002 13596,6002 13596,5073 Z"/>
             <path fill="rgb(75,75,75)" stroke="none" d="M 13596,5073 L 14868,5073 14868,6002 13596,6002 13596,5073 Z M 13605,5079 L 14860,5079 14860,5996 13605,5996 13605,5079 Z"/>
             <path fill="rgb(76,76,76)" stroke="none" d="M 13605,5079 L 14860,5079 14860,5996 13605,5996 13605,5079 Z M 13613,5085 L 14852,5085 14852,5990 13613,5990 13613,5085 Z"/>
             <path fill="rgb(77,77,77)" stroke="none" d="M 13613,5085 L 14852,5085 14852,5990 13613,5990 13613,5085 Z M 13621,5091 L 14844,5091 14844,5984 13621,5984 13621,5091 Z"/>
             <path fill="rgb(78,78,78)" stroke="none" d="M 13621,5091 L 14844,5091 14844,5984 13621,5984 13621,5091 Z M 13629,5097 L 14836,5097 14836,5978 13629,5978 13629,5097 Z"/>
             <path fill="rgb(79,79,79)" stroke="none" d="M 13629,5097 L 14836,5097 14836,5978 13629,5978 13629,5097 Z M 13637,5103 L 14828,5103 14828,5972 13637,5972 13637,5103 Z"/>
             <path fill="rgb(80,80,80)" stroke="none" d="M 13637,5103 L 14828,5103 14828,5972 13637,5972 13637,5103 Z M 13646,5109 L 14819,5109 14819,5966 13646,5966 13646,5109 Z"/>
             <path fill="rgb(81,81,81)" stroke="none" d="M 13646,5109 L 14819,5109 14819,5966 13646,5966 13646,5109 Z M 13654,5115 L 14811,5115 14811,5960 13654,5960 13654,5115 Z"/>
             <path fill="rgb(82,82,82)" stroke="none" d="M 13654,5115 L 14811,5115 14811,5960 13654,5960 13654,5115 Z M 13662,5121 L 14803,5121 14803,5954 13662,5954 13662,5121 Z"/>
             <path fill="rgb(83,83,83)" stroke="none" d="M 13662,5121 L 14803,5121 14803,5954 13662,5954 13662,5121 Z M 13670,5127 L 14795,5127 14795,5948 13670,5948 13670,5127 Z"/>
             <path fill="rgb(84,84,84)" stroke="none" d="M 13670,5127 L 14795,5127 14795,5948 13670,5948 13670,5127 Z M 13678,5132 L 14787,5132 14787,5942 13678,5942 13678,5132 Z"/>
             <path fill="rgb(85,85,85)" stroke="none" d="M 13678,5132 L 14787,5132 14787,5942 13678,5942 13678,5132 Z M 13686,5138 L 14779,5138 14779,5937 13686,5937 13686,5138 Z"/>
             <path fill="rgb(86,86,86)" stroke="none" d="M 13686,5138 L 14779,5138 14779,5937 13686,5937 13686,5138 Z M 13695,5144 L 14770,5144 14770,5931 13695,5931 13695,5144 Z"/>
             <path fill="rgb(87,87,87)" stroke="none" d="M 13695,5144 L 14770,5144 14770,5931 13695,5931 13695,5144 Z M 13703,5150 L 14762,5150 14762,5925 13703,5925 13703,5150 Z"/>
             <path fill="rgb(88,88,88)" stroke="none" d="M 13703,5150 L 14762,5150 14762,5925 13703,5925 13703,5150 Z M 13711,5155 L 14754,5155 14754,5919 13711,5919 13711,5155 Z"/>
             <path fill="rgb(89,89,89)" stroke="none" d="M 13711,5155 L 14754,5155 14754,5919 13711,5919 13711,5155 Z M 13718,5161 L 14746,5161 14746,5913 13718,5913 13718,5161 Z"/>
             <path fill="rgb(90,90,90)" stroke="none" d="M 13718,5161 L 14746,5161 14746,5913 13718,5913 13718,5161 Z M 13726,5167 L 14738,5167 14738,5907 13726,5907 13726,5167 Z"/>
             <path fill="rgb(91,91,91)" stroke="none" d="M 13726,5167 L 14738,5167 14738,5907 13726,5907 13726,5167 Z M 13734,5173 L 14730,5173 14730,5901 13734,5901 13734,5173 Z"/>
             <path fill="rgb(92,92,92)" stroke="none" d="M 13734,5173 L 14730,5173 14730,5901 13734,5901 13734,5173 Z M 13743,5179 L 14721,5179 14721,5895 13743,5895 13743,5179 Z"/>
             <path fill="rgb(93,93,93)" stroke="none" d="M 13743,5179 L 14721,5179 14721,5895 13743,5895 13743,5179 Z M 13751,5185 L 14713,5185 14713,5889 13751,5889 13751,5185 Z"/>
             <path fill="rgb(94,94,94)" stroke="none" d="M 13751,5185 L 14713,5185 14713,5889 13751,5889 13751,5185 Z M 13759,5191 L 14705,5191 14705,5883 13759,5883 13759,5191 Z"/>
             <path fill="rgb(95,95,95)" stroke="none" d="M 13759,5191 L 14705,5191 14705,5883 13759,5883 13759,5191 Z M 13767,5197 L 14697,5197 14697,5877 13767,5877 13767,5197 Z"/>
             <path fill="rgb(96,96,96)" stroke="none" d="M 13767,5197 L 14697,5197 14697,5877 13767,5877 13767,5197 Z M 13775,5203 L 14689,5203 14689,5871 13775,5871 13775,5203 Z"/>
             <path fill="rgb(97,97,97)" stroke="none" d="M 13775,5203 L 14689,5203 14689,5871 13775,5871 13775,5203 Z M 13783,5209 L 14681,5209 14681,5865 13783,5865 13783,5209 Z"/>
             <path fill="rgb(98,98,98)" stroke="none" d="M 13783,5209 L 14681,5209 14681,5865 13783,5865 13783,5209 Z M 13792,5215 L 14672,5215 14672,5859 13792,5859 13792,5215 Z"/>
             <path fill="rgb(99,99,99)" stroke="none" d="M 13792,5215 L 14672,5215 14672,5859 13792,5859 13792,5215 Z M 13800,5221 L 14664,5221 14664,5853 13800,5853 13800,5221 Z"/>
             <path fill="rgb(100,100,100)" stroke="none" d="M 13800,5221 L 14664,5221 14664,5853 13800,5853 13800,5221 Z M 13808,5227 L 14656,5227 14656,5847 13808,5847 13808,5227 Z"/>
             <path fill="rgb(101,101,101)" stroke="none" d="M 13808,5227 L 14656,5227 14656,5847 13808,5847 13808,5227 Z M 13816,5233 L 14648,5233 14648,5841 13816,5841 13816,5233 Z"/>
             <path fill="rgb(102,102,102)" stroke="none" d="M 13816,5233 L 14648,5233 14648,5841 13816,5841 13816,5233 Z M 13824,5239 L 14640,5239 14640,5835 13824,5835 13824,5239 Z"/>
             <path fill="rgb(103,103,103)" stroke="none" d="M 13824,5239 L 14640,5239 14640,5835 13824,5835 13824,5239 Z M 13832,5245 L 14632,5245 14632,5829 13832,5829 13832,5245 Z"/>
             <path fill="rgb(104,104,104)" stroke="none" d="M 13832,5245 L 14632,5245 14632,5829 13832,5829 13832,5245 Z M 13841,5251 L 14623,5251 14623,5823 13841,5823 13841,5251 Z"/>
             <path fill="rgb(105,105,105)" stroke="none" d="M 13841,5251 L 14623,5251 14623,5823 13841,5823 13841,5251 Z M 13849,5257 L 14615,5257 14615,5817 13849,5817 13849,5257 Z"/>
             <path fill="rgb(106,106,106)" stroke="none" d="M 13849,5257 L 14615,5257 14615,5817 13849,5817 13849,5257 Z M 13857,5263 L 14607,5263 14607,5811 13857,5811 13857,5263 Z"/>
             <path fill="rgb(107,107,107)" stroke="none" d="M 13857,5263 L 14607,5263 14607,5811 13857,5811 13857,5263 Z M 13865,5269 L 14599,5269 14599,5805 13865,5805 13865,5269 Z"/>
             <path fill="rgb(108,108,108)" stroke="none" d="M 13865,5269 L 14599,5269 14599,5805 13865,5805 13865,5269 Z M 13873,5275 L 14591,5275 14591,5799 13873,5799 13873,5275 Z"/>
             <path fill="rgb(109,109,109)" stroke="none" d="M 13873,5275 L 14591,5275 14591,5799 13873,5799 13873,5275 Z M 13881,5281 L 14583,5281 14583,5793 13881,5793 13881,5281 Z"/>
             <path fill="rgb(110,110,110)" stroke="none" d="M 13881,5281 L 14583,5281 14583,5793 13881,5793 13881,5281 Z M 13889,5287 L 14574,5287 14574,5787 13889,5787 13889,5287 Z"/>
             <path fill="rgb(111,111,111)" stroke="none" d="M 13889,5287 L 14574,5287 14574,5787 13889,5787 13889,5287 Z M 13898,5293 L 14566,5293 14566,5781 13898,5781 13898,5293 Z"/>
             <path fill="rgb(112,112,112)" stroke="none" d="M 13898,5293 L 14566,5293 14566,5781 13898,5781 13898,5293 Z M 13906,5299 L 14558,5299 14558,5775 13906,5775 13906,5299 Z"/>
             <path fill="rgb(113,113,113)" stroke="none" d="M 13906,5299 L 14558,5299 14558,5775 13906,5775 13906,5299 Z M 13914,5305 L 14550,5305 14550,5769 13914,5769 13914,5305 Z"/>
             <path fill="rgb(114,114,114)" stroke="none" d="M 13914,5305 L 14550,5305 14550,5769 13914,5769 13914,5305 Z M 13922,5311 L 14542,5311 14542,5763 13922,5763 13922,5311 Z"/>
             <path fill="rgb(115,115,115)" stroke="none" d="M 13922,5311 L 14542,5311 14542,5763 13922,5763 13922,5311 Z M 13930,5317 L 14534,5317 14534,5757 13930,5757 13930,5317 Z"/>
             <path fill="rgb(116,116,116)" stroke="none" d="M 13930,5317 L 14534,5317 14534,5757 13930,5757 13930,5317 Z M 13938,5323 L 14525,5323 14525,5751 13938,5751 13938,5323 Z"/>
             <path fill="rgb(117,117,117)" stroke="none" d="M 13938,5323 L 14525,5323 14525,5751 13938,5751 13938,5323 Z M 13947,5329 L 14517,5329 14517,5745 13947,5745 13947,5329 Z"/>
             <path fill="rgb(118,118,118)" stroke="none" d="M 13947,5329 L 14517,5329 14517,5745 13947,5745 13947,5329 Z M 13955,5334 L 14509,5334 14509,5739 13955,5739 13955,5334 Z"/>
             <path fill="rgb(119,119,119)" stroke="none" d="M 13955,5334 L 14509,5334 14509,5739 13955,5739 13955,5334 Z M 13963,5340 L 14501,5340 14501,5734 13963,5734 13963,5340 Z"/>
             <path fill="rgb(120,120,120)" stroke="none" d="M 13963,5340 L 14501,5340 14501,5734 13963,5734 13963,5340 Z M 13971,5346 L 14493,5346 14493,5728 13971,5728 13971,5346 Z"/>
             <path fill="rgb(121,121,121)" stroke="none" d="M 13971,5346 L 14493,5346 14493,5728 13971,5728 13971,5346 Z M 13979,5352 L 14485,5352 14485,5722 13979,5722 13979,5352 Z"/>
             <path fill="rgb(122,122,122)" stroke="none" d="M 13979,5352 L 14485,5352 14485,5722 13979,5722 13979,5352 Z M 13987,5358 L 14476,5358 14476,5716 13987,5716 13987,5358 Z"/>
             <path fill="rgb(123,123,123)" stroke="none" d="M 13987,5358 L 14476,5358 14476,5716 13987,5716 13987,5358 Z M 13996,5364 L 14468,5364 14468,5710 13996,5710 13996,5364 Z"/>
             <path fill="rgb(124,124,124)" stroke="none" d="M 13996,5364 L 14468,5364 14468,5710 13996,5710 13996,5364 Z M 14004,5370 L 14460,5370 14460,5704 14004,5704 14004,5370 Z"/>
             <path fill="rgb(125,125,125)" stroke="none" d="M 14004,5370 L 14460,5370 14460,5704 14004,5704 14004,5370 Z M 14012,5376 L 14452,5376 14452,5698 14012,5698 14012,5376 Z"/>
             <path fill="rgb(126,126,126)" stroke="none" d="M 14012,5376 L 14452,5376 14452,5698 14012,5698 14012,5376 Z M 14020,5382 L 14444,5382 14444,5692 14020,5692 14020,5382 Z"/>
             <path fill="rgb(127,127,127)" stroke="none" d="M 14020,5382 L 14444,5382 14444,5692 14020,5692 14020,5382 Z M 14028,5388 L 14436,5388 14436,5686 14028,5686 14028,5388 Z"/>
             <path fill="rgb(128,128,128)" stroke="none" d="M 14028,5388 L 14436,5388 14436,5686 14028,5686 14028,5388 Z M 14037,5394 L 14427,5394 14427,5680 14037,5680 14037,5394 Z"/>
             <path fill="rgb(129,129,129)" stroke="none" d="M 14037,5394 L 14427,5394 14427,5680 14037,5680 14037,5394 Z M 14045,5400 L 14419,5400 14419,5674 14045,5674 14045,5400 Z"/>
             <path fill="rgb(130,130,130)" stroke="none" d="M 14045,5400 L 14419,5400 14419,5674 14045,5674 14045,5400 Z M 14053,5406 L 14411,5406 14411,5668 14053,5668 14053,5406 Z"/>
             <path fill="rgb(131,131,131)" stroke="none" d="M 14053,5406 L 14411,5406 14411,5668 14053,5668 14053,5406 Z M 14061,5412 L 14403,5412 14403,5662 14061,5662 14061,5412 Z"/>
             <path fill="rgb(132,132,132)" stroke="none" d="M 14061,5412 L 14403,5412 14403,5662 14061,5662 14061,5412 Z M 14069,5418 L 14395,5418 14395,5656 14069,5656 14069,5418 Z"/>
             <path fill="rgb(133,133,133)" stroke="none" d="M 14069,5418 L 14395,5418 14395,5656 14069,5656 14069,5418 Z M 14077,5424 L 14387,5424 14387,5650 14077,5650 14077,5424 Z"/>
             <path fill="rgb(134,134,134)" stroke="none" d="M 14077,5424 L 14387,5424 14387,5650 14077,5650 14077,5424 Z M 14086,5430 L 14378,5430 14378,5644 14086,5644 14086,5430 Z"/>
             <path fill="rgb(135,135,135)" stroke="none" d="M 14086,5430 L 14378,5430 14378,5644 14086,5644 14086,5430 Z M 14094,5436 L 14370,5436 14370,5638 14094,5638 14094,5436 Z"/>
             <path fill="rgb(136,136,136)" stroke="none" d="M 14094,5436 L 14370,5436 14370,5638 14094,5638 14094,5436 Z M 14102,5442 L 14362,5442 14362,5632 14102,5632 14102,5442 Z"/>
             <path fill="rgb(137,137,137)" stroke="none" d="M 14102,5442 L 14362,5442 14362,5632 14102,5632 14102,5442 Z M 14110,5448 L 14354,5448 14354,5626 14110,5626 14110,5448 Z"/>
             <path fill="rgb(138,138,138)" stroke="none" d="M 14110,5448 L 14354,5448 14354,5626 14110,5626 14110,5448 Z M 14118,5454 L 14346,5454 14346,5620 14118,5620 14118,5454 Z"/>
             <path fill="rgb(139,139,139)" stroke="none" d="M 14118,5454 L 14346,5454 14346,5620 14118,5620 14118,5454 Z M 14126,5460 L 14338,5460 14338,5614 14126,5614 14126,5460 Z"/>
             <path fill="rgb(140,140,140)" stroke="none" d="M 14126,5460 L 14338,5460 14338,5614 14126,5614 14126,5460 Z M 14135,5466 L 14329,5466 14329,5608 14135,5608 14135,5466 Z"/>
             <path fill="rgb(141,141,141)" stroke="none" d="M 14135,5466 L 14329,5466 14329,5608 14135,5608 14135,5466 Z M 14143,5472 L 14321,5472 14321,5602 14143,5602 14143,5472 Z"/>
             <path fill="rgb(142,142,142)" stroke="none" d="M 14143,5472 L 14321,5472 14321,5602 14143,5602 14143,5472 Z M 14151,5478 L 14313,5478 14313,5596 14151,5596 14151,5478 Z"/>
             <path fill="rgb(143,143,143)" stroke="none" d="M 14151,5478 L 14313,5478 14313,5596 14151,5596 14151,5478 Z M 14159,5484 L 14305,5484 14305,5590 14159,5590 14159,5484 Z"/>
             <path fill="rgb(144,144,144)" stroke="none" d="M 14159,5484 L 14305,5484 14305,5590 14159,5590 14159,5484 Z M 14167,5490 L 14297,5490 14297,5584 14167,5584 14167,5490 Z"/>
             <path fill="rgb(145,145,145)" stroke="none" d="M 14167,5490 L 14297,5490 14297,5584 14167,5584 14167,5490 Z M 14175,5496 L 14289,5496 14289,5578 14175,5578 14175,5496 Z"/>
             <path fill="rgb(146,146,146)" stroke="none" d="M 14175,5496 L 14289,5496 14289,5578 14175,5578 14175,5496 Z M 14184,5502 L 14280,5502 14280,5572 14184,5572 14184,5502 Z"/>
             <path fill="rgb(147,147,147)" stroke="none" d="M 14184,5502 L 14280,5502 14280,5572 14184,5572 14184,5502 Z M 14192,5508 L 14272,5508 14272,5566 14192,5566 14192,5508 Z"/>
             <path fill="rgb(148,148,148)" stroke="none" d="M 14192,5508 L 14272,5508 14272,5566 14192,5566 14192,5508 Z M 14200,5514 L 14264,5514 14264,5560 14200,5560 14200,5514 Z"/>
             <path fill="rgb(149,149,149)" stroke="none" d="M 14200,5514 L 14264,5514 14264,5560 14200,5560 14200,5514 Z M 14208,5520 L 14256,5520 14256,5554 14208,5554 14208,5520 Z"/>
             <path fill="rgb(150,150,150)" stroke="none" d="M 14208,5520 L 14256,5520 14256,5554 14208,5554 14208,5520 Z M 14216,5526 L 14248,5526 14248,5548 14216,5548 14216,5526 Z"/>
             <path fill="rgb(151,151,151)" stroke="none" d="M 14216,5526 L 14248,5526 14248,5548 14216,5548 14216,5526 Z M 14224,5532 L 14240,5532 14240,5542 14224,5542 14224,5532 Z"/>
             <path fill="rgb(153,153,153)" stroke="none" d="M 14224,5532 L 14240,5532 14240,5542 14224,5542 14224,5532 Z"/>
            </g>
           </pattern>
          </defs>
          <path style="fill:url(#pattern2)" d="M 13735,6389 L 13735,6136 15398,5174 15398,5427 13735,6389 Z"/>
         </g>
         <path fill="none" stroke="rgb(178,178,178)" stroke-width="40" stroke-linejoin="round" d="M 13735,6389 L 13735,6136 15398,5174 15398,5427 13735,6389 Z"/>
        </g>
       </g>
       <g class="com.sun.star.drawing.LineShape">
        <g id="id11">
         <rect class="BoundingBox" stroke="none" fill="none" x="12402" y="4294" width="2055" height="1205"/>
         <path fill="none" stroke="rgb(178,178,178)" stroke-width="40" stroke-linejoin="round" d="M 12422,4314 L 14436,5478"/>
        </g>
       </g>
       <g class="com.sun.star.drawing.LineShape">
        <g id="id12">
         <rect class="BoundingBox" stroke="none" fill="none" x="12577" y="4193" width="2055" height="1205"/>
         <path fill="none" stroke="rgb(178,178,178)" stroke-width="40" stroke-linejoin="round" d="M 12597,4213 L 14611,5377"/>
        </g>
       </g>
       <g class="com.sun.star.drawing.LineShape">
        <g id="id13">
         <rect class="BoundingBox" stroke="none" fill="none" x="12752" y="4092" width="2055" height="1205"/>
         <path fill="none" stroke="rgb(178,178,178)" stroke-width="40" stroke-linejoin="round" d="M 12772,4112 L 14786,5276"/>
        </g>
       </g>
       <g class="com.sun.star.drawing.LineShape">
        <g id="id14">
         <rect class="BoundingBox" stroke="none" fill="none" x="14503" y="5003" width="216" height="142"/>
         <path fill="none" stroke="rgb(178,178,178)" stroke-width="40" stroke-linejoin="round" d="M 14523,5124 L 14698,5023"/>
        </g>
       </g>
       <g class="com.sun.star.drawing.LineShape">
        <g id="id15">
         <rect class="BoundingBox" stroke="none" fill="none" x="14328" y="4901" width="216" height="142"/>
         <path fill="none" stroke="rgb(178,178,178)" stroke-width="40" stroke-linejoin="round" d="M 14348,5022 L 14523,4921"/>
        </g>
       </g>
       <g class="com.sun.star.drawing.LineShape">
        <g id="id16">
         <rect class="BoundingBox" stroke="none" fill="none" x="14153" y="4800" width="216" height="142"/>
         <path fill="none" stroke="rgb(178,178,178)" stroke-width="40" stroke-linejoin="round" d="M 14173,4921 L 14348,4820"/>
        </g>
       </g>
       <g class="com.sun.star.drawing.LineShape">
        <g id="id17">
         <rect class="BoundingBox" stroke="none" fill="none" x="14241" y="5053" width="216" height="142"/>
         <path fill="none" stroke="rgb(178,178,178)" stroke-width="40" stroke-linejoin="round" d="M 14261,5174 L 14436,5073"/>
        </g>
       </g>
       <g class="com.sun.star.drawing.LineShape">
        <g id="id18">
         <rect class="BoundingBox" stroke="none" fill="none" x="14066" y="4952" width="216" height="142"/>
         <path fill="none" stroke="rgb(178,178,178)" stroke-width="40" stroke-linejoin="round" d="M 14086,5073 L 14261,4972"/>
        </g>
       </g>
       <g class="com.sun.star.drawing.LineShape">
        <g id="id19">
         <rect class="BoundingBox" stroke="none" fill="none" x="13891" y="4851" width="216" height="142"/>
         <path fill="none" stroke="rgb(178,178,178)" stroke-width="40" stroke-linejoin="round" d="M 13911,4972 L 14086,4871"/>
        </g>
       </g>
       <g class="com.sun.star.drawing.LineShape">
        <g id="id20">
         <rect class="BoundingBox" stroke="none" fill="none" x="13978" y="4699" width="216" height="142"/>
         <path fill="none" stroke="rgb(178,178,178)" stroke-width="40" stroke-linejoin="round" d="M 13998,4820 L 14173,4719"/>
        </g>
       </g>
       <g class="com.sun.star.drawing.LineShape">
        <g id="id21">
         <rect class="BoundingBox" stroke="none" fill="none" x="13715" y="4749" width="216" height="142"/>
         <path fill="none" stroke="rgb(178,178,178)" stroke-width="40" stroke-linejoin="round" d="M 13735,4870 L 13910,4769"/>
        </g>
       </g>
       <g class="com.sun.star.drawing.LineShape">
        <g id="id22">
         <rect class="BoundingBox" stroke="none" fill="none" x="13803" y="4598" width="216" height="142"/>
         <path fill="none" stroke="rgb(178,178,178)" stroke-width="40" stroke-linejoin="round" d="M 13823,4719 L 13998,4618"/>
        </g>
       </g>
       <g class="com.sun.star.drawing.LineShape">
        <g id="id23">
         <rect class="BoundingBox" stroke="none" fill="none" x="13628" y="4496" width="216" height="142"/>
         <path fill="none" stroke="rgb(178,178,178)" stroke-width="40" stroke-linejoin="round" d="M 13648,4617 L 13823,4516"/>
        </g>
       </g>
       <g class="com.sun.star.drawing.LineShape">
        <g id="id24">
         <rect class="BoundingBox" stroke="none" fill="none" x="13453" y="4395" width="216" height="142"/>
         <path fill="none" stroke="rgb(178,178,178)" stroke-width="40" stroke-linejoin="round" d="M 13473,4516 L 13648,4415"/>
        </g>
       </g>
       <g class="com.sun.star.drawing.LineShape">
        <g id="id25">
         <rect class="BoundingBox" stroke="none" fill="none" x="13540" y="4648" width="216" height="142"/>
         <path fill="none" stroke="rgb(178,178,178)" stroke-width="40" stroke-linejoin="round" d="M 13560,4769 L 13735,4668"/>
        </g>
       </g>
       <g class="com.sun.star.drawing.LineShape">
        <g id="id26">
         <rect class="BoundingBox" stroke="none" fill="none" x="13365" y="4547" width="216" height="142"/>
         <path fill="none" stroke="rgb(178,178,178)" stroke-width="40" stroke-linejoin="round" d="M 13385,4668 L 13560,4567"/>
        </g>
       </g>
       <g class="com.sun.star.drawing.LineShape">
        <g id="id27">
         <rect class="BoundingBox" stroke="none" fill="none" x="13190" y="4446" width="216" height="142"/>
         <path fill="none" stroke="rgb(178,178,178)" stroke-width="40" stroke-linejoin="round" d="M 13210,4567 L 13385,4466"/>
        </g>
       </g>
       <g class="com.sun.star.drawing.LineShape">
        <g id="id28">
         <rect class="BoundingBox" stroke="none" fill="none" x="13278" y="4294" width="216" height="142"/>
         <path fill="none" stroke="rgb(178,178,178)" stroke-width="40" stroke-linejoin="round" d="M 13298,4415 L 13473,4314"/>
        </g>
       </g>
       <g class="com.sun.star.drawing.LineShape">
        <g id="id29">
         <rect class="BoundingBox" stroke="none" fill="none" x="13015" y="4345" width="216" height="142"/>
         <path fill="none" stroke="rgb(178,178,178)" stroke-width="40" stroke-linejoin="round" d="M 13035,4466 L 13210,4365"/>
        </g>
       </g>
       <g class="com.sun.star.drawing.LineShape">
        <g id="id30">
         <rect class="BoundingBox" stroke="none" fill="none" x="13103" y="4193" width="216" height="142"/>
         <path fill="none" stroke="rgb(178,178,178)" stroke-width="40" stroke-linejoin="round" d="M 13123,4314 L 13298,4213"/>
        </g>
       </g>
       <g class="com.sun.star.drawing.LineShape">
        <g id="id31">
         <rect class="BoundingBox" stroke="none" fill="none" x="12927" y="4092" width="216" height="142"/>
         <path fill="none" stroke="rgb(178,178,178)" stroke-width="40" stroke-linejoin="round" d="M 12947,4213 L 13122,4112"/>
        </g>
       </g>
       <g class="com.sun.star.drawing.LineShape">
        <g id="id32">
         <rect class="BoundingBox" stroke="none" fill="none" x="12840" y="4243" width="216" height="142"/>
         <path fill="none" stroke="rgb(178,178,178)" stroke-width="40" stroke-linejoin="round" d="M 12860,4364 L 13035,4263"/>
        </g>
       </g>
       <g class="com.sun.star.drawing.LineShape">
        <g id="id33">
         <rect class="BoundingBox" stroke="none" fill="none" x="13978" y="5104" width="216" height="142"/>
         <path fill="none" stroke="rgb(178,178,178)" stroke-width="40" stroke-linejoin="round" d="M 13998,5225 L 14173,5124"/>
        </g>
       </g>
       <g class="com.sun.star.drawing.LineShape">
        <g id="id34">
         <rect class="BoundingBox" stroke="none" fill="none" x="13803" y="5003" width="216" height="142"/>
         <path fill="none" stroke="rgb(178,178,178)" stroke-width="40" stroke-linejoin="round" d="M 13823,5124 L 13998,5023"/>
        </g>
       </g>
       <g class="com.sun.star.drawing.LineShape">
        <g id="id35">
         <rect class="BoundingBox" stroke="none" fill="none" x="13628" y="4901" width="216" height="142"/>
         <path fill="none" stroke="rgb(178,178,178)" stroke-width="40" stroke-linejoin="round" d="M 13648,5022 L 13823,4921"/>
        </g>
       </g>
       <g class="com.sun.star.drawing.LineShape">
        <g id="id36">
         <rect class="BoundingBox" stroke="none" fill="none" x="13540" y="5053" width="216" height="142"/>
         <path fill="none" stroke="rgb(178,178,178)" stroke-width="40" stroke-linejoin="round" d="M 13560,5174 L 13735,5073"/>
        </g>
       </g>
       <g class="com.sun.star.drawing.LineShape">
        <g id="id37">
         <rect class="BoundingBox" stroke="none" fill="none" x="13365" y="4952" width="216" height="142"/>
         <path fill="none" stroke="rgb(178,178,178)" stroke-width="40" stroke-linejoin="round" d="M 13385,5073 L 13560,4972"/>
        </g>
       </g>
       <g class="com.sun.star.drawing.LineShape">
        <g id="id38">
         <rect class="BoundingBox" stroke="none" fill="none" x="13453" y="4800" width="216" height="142"/>
         <path fill="none" stroke="rgb(178,178,178)" stroke-width="40" stroke-linejoin="round" d="M 13473,4921 L 13648,4820"/>
        </g>
       </g>
       <g class="com.sun.star.drawing.LineShape">
        <g id="id39">
         <rect class="BoundingBox" stroke="none" fill="none" x="13278" y="4699" width="216" height="142"/>
         <path fill="none" stroke="rgb(178,178,178)" stroke-width="40" stroke-linejoin="round" d="M 13298,4820 L 13473,4719"/>
        </g>
       </g>
       <g class="com.sun.star.drawing.LineShape">
        <g id="id40">
         <rect class="BoundingBox" stroke="none" fill="none" x="13103" y="4598" width="216" height="142"/>
         <path fill="none" stroke="rgb(178,178,178)" stroke-width="40" stroke-linejoin="round" d="M 13123,4719 L 13298,4618"/>
        </g>
       </g>
       <g class="com.sun.star.drawing.LineShape">
        <g id="id41">
         <rect class="BoundingBox" stroke="none" fill="none" x="12927" y="4496" width="216" height="142"/>
         <path fill="none" stroke="rgb(178,178,178)" stroke-width="40" stroke-linejoin="round" d="M 12947,4617 L 13122,4516"/>
        </g>
       </g>
       <g class="com.sun.star.drawing.LineShape">
        <g id="id42">
         <rect class="BoundingBox" stroke="none" fill="none" x="12665" y="4547" width="216" height="142"/>
         <path fill="none" stroke="rgb(178,178,178)" stroke-width="40" stroke-linejoin="round" d="M 12685,4668 L 12860,4567"/>
        </g>
       </g>
       <g class="com.sun.star.drawing.LineShape">
        <g id="id43">
         <rect class="BoundingBox" stroke="none" fill="none" x="12752" y="4395" width="216" height="142"/>
         <path fill="none" stroke="rgb(178,178,178)" stroke-width="40" stroke-linejoin="round" d="M 12772,4516 L 12947,4415"/>
        </g>
       </g>
       <g class="com.sun.star.drawing.LineShape">
        <g id="id44">
         <rect class="BoundingBox" stroke="none" fill="none" x="12490" y="4446" width="216" height="142"/>
         <path fill="none" stroke="rgb(178,178,178)" stroke-width="40" stroke-linejoin="round" d="M 12510,4567 L 12685,4466"/>
        </g>
       </g>
       <g class="com.sun.star.drawing.LineShape">
        <g id="id45">
         <rect class="BoundingBox" stroke="none" fill="none" x="13891" y="5256" width="216" height="142"/>
         <path fill="none" stroke="rgb(178,178,178)" stroke-width="40" stroke-linejoin="round" d="M 13911,5377 L 14086,5276"/>
        </g>
       </g>
       <g class="com.sun.star.drawing.LineShape">
        <g id="id46">
         <rect class="BoundingBox" stroke="none" fill="none" x="13715" y="5154" width="216" height="142"/>
         <path fill="none" stroke="rgb(178,178,178)" stroke-width="40" stroke-linejoin="round" d="M 13735,5275 L 13910,5174"/>
        </g>
       </g>
       <g class="com.sun.star.drawing.PolyPolygonShape">
        <g id="id47">
         <rect class="BoundingBox" stroke="none" fill="none" x="11264" y="4699" width="2492" height="1711"/>
         <g>
          <defs>
           <linearGradient id="gradient5" x1="11283" y1="5554" x2="13735" y2="5554" gradientUnits="userSpaceOnUse">
            <stop offset="0.1" style="stop-color:rgb(51,51,51)"/>
            <stop offset="1" style="stop-color:rgb(153,153,153)"/>
           </linearGradient>
          </defs>
          <path style="fill:url(#gradient5)" d="M 11284,4972 L 11284,4719 13735,6136 13735,6389 11284,4972 Z"/>
         </g>
         <path fill="none" stroke="rgb(178,178,178)" stroke-width="40" stroke-linejoin="round" d="M 11284,4972 L 11284,4719 13735,6136 13735,6389 11284,4972 Z"/>
        </g>
       </g>
       <g class="com.sun.star.drawing.PolyPolygonShape">
        <g id="id48">
         <rect class="BoundingBox" stroke="none" fill="none" x="11263" y="1460" width="4244" height="4950"/>
         <path fill="none" stroke="rgb(0,0,0)" stroke-width="40" stroke-linejoin="round" d="M 13035,1480 L 15486,2897 15486,5124 15399,5174 15399,5427 13735,6389 11284,4972 11284,4719 12947,3757 12947,1531 13035,1480 Z"/>
        </g>
       </g>
       <g class="com.sun.star.drawing.PolyPolygonShape">
        <g id="id49">
         <rect class="BoundingBox" stroke="none" fill="none" x="12315" y="4851" width="1092" height="648"/>
         <path fill="rgb(102,102,102)" stroke="none" d="M 12335,5124 L 12773,4871 13386,5225 12948,5478 12335,5124 Z"/>
         <path fill="none" stroke="rgb(178,178,178)" stroke-width="40" stroke-linejoin="round" d="M 12335,5124 L 12773,4871 13386,5225 12948,5478 12335,5124 Z"/>
        </g>
       </g>
       <g class="com.sun.star.drawing.LineShape">
        <g id="id50">
         <rect class="BoundingBox" stroke="none" fill="none" x="14416" y="5154" width="216" height="142"/>
         <path fill="none" stroke="rgb(178,178,178)" stroke-width="40" stroke-linejoin="round" d="M 14436,5275 L 14611,5174"/>
        </g>
       </g>
       <g class="com.sun.star.drawing.LineShape">
        <g id="id51">
         <rect class="BoundingBox" stroke="none" fill="none" x="14153" y="5205" width="216" height="142"/>
         <path fill="none" stroke="rgb(178,178,178)" stroke-width="40" stroke-linejoin="round" d="M 14173,5326 L 14348,5225"/>
        </g>
       </g>
      </g>
     </g>
    </g>
   </g>
  </g>
 </g>
</svg>