<?xml version="1.0" encoding="UTF-8"?>
<!DOCTYPE svg PUBLIC "-//W3C//DTD SVG 1.1//EN" "http://www.w3.org/Graphics/SVG/1.1/DTD/svg11.dtd">
<svg version="1.2" width="11.45mm" height="16.5mm" viewBox="7853 18670 1145 1650" preserveAspectRatio="xMidYMid" fill-rule="evenodd" stroke-width="28.222" stroke-linejoin="round" xmlns="http://www.w3.org/2000/svg" xmlns:ooo="http://xml.openoffice.org/svg/export" xmlns:xlink="http://www.w3.org/1999/xlink" xmlns:presentation="http://sun.com/xmlns/staroffice/presentation" xmlns:smil="http://www.w3.org/2001/SMIL20/" xmlns:anim="urn:oasis:names:tc:opendocument:xmlns:animation:1.0" xml:space="preserve">
 <defs class="ClipPathGroup">
  <clipPath id="presentation_clip_path" clipPathUnits="userSpaceOnUse">
   <rect x="7853" y="18670" width="1145" height="1650"/>
  </clipPath>
 </defs>
 <defs class="TextShapeIndex">
  <g ooo:slide="id1" ooo:id-list="id3 id4 id5 id6 id7 id8 id9"/>
 </defs>
 <defs class="EmbeddedBulletChars">
  <g id="bullet-char-template(57356)" transform="scale(0.00048828125,-0.00048828125)">
   <path d="M 580,1141 L 1163,571 580,0 -4,571 580,1141 Z"/>
  </g>
  <g id="bullet-char-template(57354)" transform="scale(0.00048828125,-0.00048828125)">
   <path d="M 8,1128 L 1137,1128 1137,0 8,0 8,1128 Z"/>
  </g>
  <g id="bullet-char-template(10146)" transform="scale(0.00048828125,-0.00048828125)">
   <path d="M 174,0 L 602,739 174,1481 1456,739 174,0 Z M 1358,739 L 309,1346 659,739 1358,739 Z"/>
  </g>
  <g id="bullet-char-template(10132)" transform="scale(0.00048828125,-0.00048828125)">
   <path d="M 2015,739 L 1276,0 717,0 1260,543 174,543 174,936 1260,936 717,1481 1274,1481 2015,739 Z"/>
  </g>
  <g id="bullet-char-template(10007)" transform="scale(0.00048828125,-0.00048828125)">
   <path d="M 0,-2 C -7,14 -16,27 -25,37 L 356,567 C 262,823 215,952 215,954 215,979 228,992 255,992 264,992 276,990 289,987 310,991 331,999 354,1012 L 381,999 492,748 772,1049 836,1024 860,1049 C 881,1039 901,1025 922,1006 886,937 835,863 770,784 769,783 710,716 594,584 L 774,223 C 774,196 753,168 711,139 L 727,119 C 717,90 699,76 672,76 641,76 570,178 457,381 L 164,-76 C 142,-110 111,-127 72,-127 30,-127 9,-110 8,-76 1,-67 -2,-52 -2,-32 -2,-23 -1,-13 0,-2 Z"/>
  </g>
  <g id="bullet-char-template(10004)" transform="scale(0.00048828125,-0.00048828125)">
   <path d="M 285,-33 C 182,-33 111,30 74,156 52,228 41,333 41,471 41,549 55,616 82,672 116,743 169,778 240,778 293,778 328,747 346,684 L 369,508 C 377,444 397,411 428,410 L 1163,1116 C 1174,1127 1196,1133 1229,1133 1271,1133 1292,1118 1292,1087 L 1292,965 C 1292,929 1282,901 1262,881 L 442,47 C 390,-6 338,-33 285,-33 Z"/>
  </g>
  <g id="bullet-char-template(9679)" transform="scale(0.00048828125,-0.00048828125)">
   <path d="M 813,0 C 632,0 489,54 383,161 276,268 223,411 223,592 223,773 276,916 383,1023 489,1130 632,1184 813,1184 992,1184 1136,1130 1245,1023 1353,916 1407,772 1407,592 1407,412 1353,268 1245,161 1136,54 992,0 813,0 Z"/>
  </g>
  <g id="bullet-char-template(8226)" transform="scale(0.00048828125,-0.00048828125)">
   <path d="M 346,457 C 273,457 209,483 155,535 101,586 74,649 74,723 74,796 101,859 155,911 209,963 273,989 346,989 419,989 480,963 531,910 582,859 608,796 608,723 608,648 583,586 532,535 482,483 420,457 346,457 Z"/>
  </g>
  <g id="bullet-char-template(8211)" transform="scale(0.00048828125,-0.00048828125)">
   <path d="M -4,459 L 1135,459 1135,606 -4,606 -4,459 Z"/>
  </g>
 </defs>
 <defs class="TextEmbeddedBitmaps"/>
 <g class="SlideGroup">
  <g>
   <g id="id1" class="Slide" clip-path="url(#presentation_clip_path)">
    <g class="Page">
     <g class="Group">
      <g class="com.sun.star.drawing.ClosedBezierShape">
       <g id="id3">
        <rect class="BoundingBox" stroke="none" fill="none" x="8479" y="19813" width="521" height="508"/>
        <path fill="rgb(221,221,221)" stroke="none" d="M 8529,20300 C 8775,20300 9051,20248 8961,20041 8872,19833 8838,19833 8592,19833 8592,19989 8435,19781 8529,20300 Z"/>
        <path fill="none" stroke="rgb(221,221,221)" stroke-width="40" stroke-linejoin="round" d="M 8529,20300 C 8775,20300 9051,20248 8961,20041 8872,19833 8838,19833 8592,19833 8592,19989 8435,19781 8529,20300 Z"/>
       </g>
      </g>
      <g class="Group">
       <g class="com.sun.star.drawing.PolyPolygonShape">
        <g id="id4">
         <rect class="BoundingBox" stroke="none" fill="none" x="7853" y="18722" width="670" height="1599"/>
         <g>
          <defs>
           <linearGradient id="gradient1" x1="7871" y1="19521" x2="8503" y2="19521" gradientUnits="userSpaceOnUse">
            <stop offset="0.1" style="stop-color:rgb(179,179,179)"/>
            <stop offset="1" style="stop-color:rgb(229,229,229)"/>
           </linearGradient>
          </defs>
          <path style="fill:url(#gradient1)" d="M 7873,19937 L 7873,18742 8502,19106 8502,20300 7873,19937 Z"/>
         </g>
         <path fill="none" stroke="rgb(255,255,255)" stroke-width="40" stroke-linejoin="round" d="M 7873,19937 L 7873,18742 8502,19106 8502,20300 7873,19937 Z"/>
        </g>
       </g>
       <g class="com.sun.star.drawing.PolyPolygonShape">
        <g id="id5">
         <rect class="BoundingBox" stroke="none" fill="none" x="7942" y="18878" width="491" height="1132"/>
         <g>
          <defs>
           <linearGradient id="gradient2" x1="7962" y1="19443" x2="8413" y2="19443" gradientUnits="userSpaceOnUse">
            <stop offset="0.1" style="stop-color:rgb(147,212,240)"/>
            <stop offset="1" style="stop-color:rgb(233,246,252)"/>
           </linearGradient>
          </defs>
          <path style="fill:url(#gradient2)" d="M 7963,19729 L 7963,18898 8412,19158 8412,19989 7963,19729 Z"/>
         </g>
         <path fill="none" stroke="rgb(127,127,127)" stroke-width="40" stroke-linejoin="round" d="M 7963,19729 L 7963,18898 8412,19158 8412,19989 7963,19729 Z"/>
        </g>
       </g>
       <g class="com.sun.star.drawing.PolyPolygonShape">
        <g id="id6">
         <rect class="BoundingBox" stroke="none" fill="none" x="7853" y="18670" width="760" height="456"/>
         <g>
          <defs>
           <linearGradient id="gradient3" x1="8232" y1="18690" x2="8232" y2="19105" gradientUnits="userSpaceOnUse">
            <stop offset="0.1" style="stop-color:rgb(179,179,179)"/>
            <stop offset="1" style="stop-color:rgb(229,229,229)"/>
           </linearGradient>
          </defs>
          <path style="fill:url(#gradient3)" d="M 8502,19105 L 7873,18742 7963,18690 8592,19054 8502,19105 Z"/>
         </g>
         <path fill="none" stroke="rgb(255,255,255)" stroke-width="40" stroke-linejoin="round" d="M 8502,19105 L 7873,18742 7963,18690 8592,19054 8502,19105 Z"/>
        </g>
       </g>
       <g class="com.sun.star.drawing.PolyPolygonShape">
        <g id="id7">
         <rect class="BoundingBox" stroke="none" fill="none" x="8482" y="19034" width="131" height="1288"/>
         <g>
          <defs>
           <pattern id="pattern1" x="8502" y="19054" width="91" height="1247" patternUnits="userSpaceOnUse">
            <g transform="translate(-8502,-19054)">
             <path fill="rgb(179,179,179)" stroke="none" d="M 8501,19053 L 8593,19053 8593,20301 8501,20301 8501,19053 Z M 8482,18816 L 8573,18816 8573,20038 8482,20038 8482,18816 Z"/>
             <path fill="rgb(180,180,180)" stroke="none" d="M 8482,18816 L 8573,18816 8573,20038 8482,20038 8482,18816 Z M 8483,18828 L 8572,18828 8572,20026 8483,20026 8483,18828 Z"/>
             <path fill="rgb(181,181,181)" stroke="none" d="M 8483,18828 L 8572,18828 8572,20026 8483,20026 8483,18828 Z M 8484,18841 L 8571,18841 8571,20013 8484,20013 8484,18841 Z"/>
             <path fill="rgb(182,182,182)" stroke="none" d="M 8484,18841 L 8571,18841 8571,20013 8484,20013 8484,18841 Z M 8485,18853 L 8570,18853 8570,20001 8485,20001 8485,18853 Z"/>
             <path fill="rgb(183,183,183)" stroke="none" d="M 8485,18853 L 8570,18853 8570,20001 8485,20001 8485,18853 Z M 8486,18866 L 8569,18866 8569,19988 8486,19988 8486,18866 Z"/>
             <path fill="rgb(184,184,184)" stroke="none" d="M 8486,18866 L 8569,18866 8569,19988 8486,19988 8486,18866 Z M 8487,18878 L 8568,18878 8568,19976 8487,19976 8487,18878 Z"/>
             <path fill="rgb(185,185,185)" stroke="none" d="M 8487,18878 L 8568,18878 8568,19976 8487,19976 8487,18878 Z M 8488,18891 L 8567,18891 8567,19963 8488,19963 8488,18891 Z"/>
             <path fill="rgb(186,186,186)" stroke="none" d="M 8488,18891 L 8567,18891 8567,19963 8488,19963 8488,18891 Z M 8489,18903 L 8566,18903 8566,19951 8489,19951 8489,18903 Z"/>
             <path fill="rgb(187,187,187)" stroke="none" d="M 8489,18903 L 8566,18903 8566,19951 8489,19951 8489,18903 Z M 8490,18916 L 8565,18916 8565,19938 8490,19938 8490,18916 Z"/>
             <path fill="rgb(188,188,188)" stroke="none" d="M 8490,18916 L 8565,18916 8565,19938 8490,19938 8490,18916 Z M 8491,18928 L 8564,18928 8564,19926 8491,19926 8491,18928 Z"/>
             <path fill="rgb(189,189,189)" stroke="none" d="M 8491,18928 L 8564,18928 8564,19926 8491,19926 8491,18928 Z M 8492,18941 L 8563,18941 8563,19913 8492,19913 8492,18941 Z"/>
             <path fill="rgb(190,190,190)" stroke="none" d="M 8492,18941 L 8563,18941 8563,19913 8492,19913 8492,18941 Z M 8493,18953 L 8562,18953 8562,19901 8493,19901 8493,18953 Z"/>
             <path fill="rgb(191,191,191)" stroke="none" d="M 8493,18953 L 8562,18953 8562,19901 8493,19901 8493,18953 Z M 8494,18966 L 8561,18966 8561,19888 8494,19888 8494,18966 Z"/>
             <path fill="rgb(192,192,192)" stroke="none" d="M 8494,18966 L 8561,18966 8561,19888 8494,19888 8494,18966 Z M 8495,18978 L 8560,18978 8560,19876 8495,19876 8495,18978 Z"/>
             <path fill="rgb(193,193,193)" stroke="none" d="M 8495,18978 L 8560,18978 8560,19876 8495,19876 8495,18978 Z M 8495,18991 L 8560,18991 8560,19863 8495,19863 8495,18991 Z"/>
             <path fill="rgb(194,194,194)" stroke="none" d="M 8495,18991 L 8560,18991 8560,19863 8495,19863 8495,18991 Z M 8496,19003 L 8559,19003 8559,19851 8496,19851 8496,19003 Z"/>
             <path fill="rgb(195,195,195)" stroke="none" d="M 8496,19003 L 8559,19003 8559,19851 8496,19851 8496,19003 Z M 8497,19016 L 8558,19016 8558,19838 8497,19838 8497,19016 Z"/>
             <path fill="rgb(196,196,196)" stroke="none" d="M 8497,19016 L 8558,19016 8558,19838 8497,19838 8497,19016 Z M 8498,19028 L 8557,19028 8557,19826 8498,19826 8498,19028 Z"/>
             <path fill="rgb(197,197,197)" stroke="none" d="M 8498,19028 L 8557,19028 8557,19826 8498,19826 8498,19028 Z M 8499,19040 L 8556,19040 8556,19813 8499,19813 8499,19040 Z"/>
             <path fill="rgb(198,198,198)" stroke="none" d="M 8499,19040 L 8556,19040 8556,19813 8499,19813 8499,19040 Z M 8500,19052 L 8555,19052 8555,19801 8500,19801 8500,19052 Z"/>
             <path fill="rgb(199,199,199)" stroke="none" d="M 8500,19052 L 8555,19052 8555,19801 8500,19801 8500,19052 Z M 8501,19065 L 8554,19065 8554,19788 8501,19788 8501,19065 Z"/>
             <path fill="rgb(200,200,200)" stroke="none" d="M 8501,19065 L 8554,19065 8554,19788 8501,19788 8501,19065 Z M 8502,19077 L 8553,19077 8553,19776 8502,19776 8502,19077 Z"/>
             <path fill="rgb(201,201,201)" stroke="none" d="M 8502,19077 L 8553,19077 8553,19776 8502,19776 8502,19077 Z M 8503,19090 L 8552,19090 8552,19763 8503,19763 8503,19090 Z"/>
             <path fill="rgb(202,202,202)" stroke="none" d="M 8503,19090 L 8552,19090 8552,19763 8503,19763 8503,19090 Z M 8504,19102 L 8551,19102 8551,19751 8504,19751 8504,19102 Z"/>
             <path fill="rgb(203,203,203)" stroke="none" d="M 8504,19102 L 8551,19102 8551,19751 8504,19751 8504,19102 Z M 8505,19115 L 8550,19115 8550,19738 8505,19738 8505,19115 Z"/>
             <path fill="rgb(204,204,204)" stroke="none" d="M 8505,19115 L 8550,19115 8550,19738 8505,19738 8505,19115 Z M 8506,19127 L 8549,19127 8549,19726 8506,19726 8506,19127 Z"/>
             <path fill="rgb(205,205,205)" stroke="none" d="M 8506,19127 L 8549,19127 8549,19726 8506,19726 8506,19127 Z M 8507,19140 L 8548,19140 8548,19713 8507,19713 8507,19140 Z"/>
             <path fill="rgb(206,206,206)" stroke="none" d="M 8507,19140 L 8548,19140 8548,19713 8507,19713 8507,19140 Z M 8508,19152 L 8547,19152 8547,19701 8508,19701 8508,19152 Z"/>
             <path fill="rgb(207,207,207)" stroke="none" d="M 8508,19152 L 8547,19152 8547,19701 8508,19701 8508,19152 Z M 8508,19165 L 8547,19165 8547,19688 8508,19688 8508,19165 Z"/>
             <path fill="rgb(208,208,208)" stroke="none" d="M 8508,19165 L 8547,19165 8547,19688 8508,19688 8508,19165 Z M 8509,19177 L 8546,19177 8546,19676 8509,19676 8509,19177 Z"/>
             <path fill="rgb(209,209,209)" stroke="none" d="M 8509,19177 L 8546,19177 8546,19676 8509,19676 8509,19177 Z M 8510,19190 L 8545,19190 8545,19663 8510,19663 8510,19190 Z"/>
             <path fill="rgb(210,210,210)" stroke="none" d="M 8510,19190 L 8545,19190 8545,19663 8510,19663 8510,19190 Z M 8511,19202 L 8544,19202 8544,19651 8511,19651 8511,19202 Z"/>
             <path fill="rgb(211,211,211)" stroke="none" d="M 8511,19202 L 8544,19202 8544,19651 8511,19651 8511,19202 Z M 8512,19215 L 8543,19215 8543,19638 8512,19638 8512,19215 Z"/>
             <path fill="rgb(212,212,212)" stroke="none" d="M 8512,19215 L 8543,19215 8543,19638 8512,19638 8512,19215 Z M 8513,19227 L 8542,19227 8542,19626 8513,19626 8513,19227 Z"/>
             <path fill="rgb(213,213,213)" stroke="none" d="M 8513,19227 L 8542,19227 8542,19626 8513,19626 8513,19227 Z M 8514,19240 L 8541,19240 8541,19613 8514,19613 8514,19240 Z"/>
             <path fill="rgb(214,214,214)" stroke="none" d="M 8514,19240 L 8541,19240 8541,19613 8514,19613 8514,19240 Z M 8515,19252 L 8540,19252 8540,19601 8515,19601 8515,19252 Z"/>
             <path fill="rgb(215,215,215)" stroke="none" d="M 8515,19252 L 8540,19252 8540,19601 8515,19601 8515,19252 Z M 8516,19265 L 8539,19265 8539,19588 8516,19588 8516,19265 Z"/>
             <path fill="rgb(216,216,216)" stroke="none" d="M 8516,19265 L 8539,19265 8539,19588 8516,19588 8516,19265 Z M 8517,19277 L 8538,19277 8538,19576 8517,19576 8517,19277 Z"/>
             <path fill="rgb(217,217,217)" stroke="none" d="M 8517,19277 L 8538,19277 8538,19576 8517,19576 8517,19277 Z M 8518,19290 L 8537,19290 8537,19563 8518,19563 8518,19290 Z"/>
             <path fill="rgb(218,218,218)" stroke="none" d="M 8518,19290 L 8537,19290 8537,19563 8518,19563 8518,19290 Z M 8519,19302 L 8536,19302 8536,19551 8519,19551 8519,19302 Z"/>
             <path fill="rgb(219,219,219)" stroke="none" d="M 8519,19302 L 8536,19302 8536,19551 8519,19551 8519,19302 Z M 8520,19315 L 8535,19315 8535,19538 8520,19538 8520,19315 Z"/>
             <path fill="rgb(220,220,220)" stroke="none" d="M 8520,19315 L 8535,19315 8535,19538 8520,19538 8520,19315 Z M 8521,19327 L 8534,19327 8534,19526 8521,19526 8521,19327 Z"/>
             <path fill="rgb(221,221,221)" stroke="none" d="M 8521,19327 L 8534,19327 8534,19526 8521,19526 8521,19327 Z M 8521,19340 L 8534,19340 8534,19513 8521,19513 8521,19340 Z"/>
             <path fill="rgb(222,222,222)" stroke="none" d="M 8521,19340 L 8534,19340 8534,19513 8521,19513 8521,19340 Z M 8522,19352 L 8533,19352 8533,19501 8522,19501 8522,19352 Z"/>
             <path fill="rgb(223,223,223)" stroke="none" d="M 8522,19352 L 8533,19352 8533,19501 8522,19501 8522,19352 Z M 8523,19365 L 8532,19365 8532,19488 8523,19488 8523,19365 Z"/>
             <path fill="rgb(224,224,224)" stroke="none" d="M 8523,19365 L 8532,19365 8532,19488 8523,19488 8523,19365 Z M 8524,19377 L 8531,19377 8531,19476 8524,19476 8524,19377 Z"/>
             <path fill="rgb(225,225,225)" stroke="none" d="M 8524,19377 L 8531,19377 8531,19476 8524,19476 8524,19377 Z M 8525,19390 L 8530,19390 8530,19463 8525,19463 8525,19390 Z"/>
             <path fill="rgb(226,226,226)" stroke="none" d="M 8525,19390 L 8530,19390 8530,19463 8525,19463 8525,19390 Z M 8526,19402 L 8529,19402 8529,19451 8526,19451 8526,19402 Z"/>
             <path fill="rgb(227,227,227)" stroke="none" d="M 8526,19402 L 8529,19402 8529,19451 8526,19451 8526,19402 Z M 8527,19415 L 8528,19415 8528,19438 8527,19438 8527,19415 Z"/>
             <path fill="rgb(229,229,229)" stroke="none" d="M 8527,19415 L 8528,19415 8528,19438 8527,19438 8527,19415 Z"/>
            </g>
           </pattern>
          </defs>
          <path style="fill:url(#pattern1)" d="M 8502,20300 L 8502,19106 8592,19054 8592,20249 8502,20300 Z"/>
         </g>
         <path fill="none" stroke="rgb(255,255,255)" stroke-width="40" stroke-linejoin="round" d="M 8502,20300 L 8502,19106 8592,19054 8592,20249 8502,20300 Z"/>
        </g>
       </g>
       <g class="com.sun.star.drawing.PolyPolygonShape">
        <g id="id8">
         <rect class="BoundingBox" stroke="none" fill="none" x="7853" y="18670" width="760" height="1652"/>
         <path fill="none" stroke="rgb(0,0,0)" stroke-width="40" stroke-linejoin="round" d="M 7963,18690 L 8592,19054 8592,20248 8502,20300 7873,19936 7873,18742 7963,18690 Z"/>
        </g>
       </g>
       <g class="com.sun.star.drawing.LineShape">
        <g id="id9">
         <rect class="BoundingBox" stroke="none" fill="none" x="8033" y="19865" width="311" height="197"/>
         <path fill="none" stroke="rgb(127,127,127)" stroke-width="40" stroke-linejoin="round" d="M 8053,19885 L 8323,20041"/>
        </g>
       </g>
      </g>
     </g>
    </g>
   </g>
  </g>
 </g>
</svg>