<?xml version="1.0" encoding="UTF-8"?>
<!DOCTYPE svg PUBLIC "-//W3C//DTD SVG 1.1//EN" "http://www.w3.org/Graphics/SVG/1.1/DTD/svg11.dtd">
<svg version="1.2" width="30.63mm" height="35.4mm" viewBox="13613 7177 3063 3540" preserveAspectRatio="xMidYMid" fill-rule="evenodd" stroke-width="28.222" stroke-linejoin="round" xmlns="http://www.w3.org/2000/svg" xmlns:ooo="http://xml.openoffice.org/svg/export" xmlns:xlink="http://www.w3.org/1999/xlink" xmlns:presentation="http://sun.com/xmlns/staroffice/presentation" xmlns:smil="http://www.w3.org/2001/SMIL20/" xmlns:anim="urn:oasis:names:tc:opendocument:xmlns:animation:1.0" xml:space="preserve">
 <defs class="ClipPathGroup">
  <clipPath id="presentation_clip_path" clipPathUnits="userSpaceOnUse">
   <rect x="13613" y="7177" width="3063" height="3540"/>
  </clipPath>
 </defs>
 <defs class="TextShapeIndex">
  <g ooo:slide="id1" ooo:id-list="id3 id4 id5 id6 id7 id8 id9 id10 id11 id12 id13 id14 id15 id16 id17 id18 id19 id20 id21 id22 id23 id24 id25 id26 id27 id28 id29 id30"/>
 </defs>
 <defs class="EmbeddedBulletChars">
  <g id="bullet-char-template(57356)" transform="scale(0.00048828125,-0.00048828125)">
   <path d="M 580,1141 L 1163,571 580,0 -4,571 580,1141 Z"/>
  </g>
  <g id="bullet-char-template(57354)" transform="scale(0.00048828125,-0.00048828125)">
   <path d="M 8,1128 L 1137,1128 1137,0 8,0 8,1128 Z"/>
  </g>
  <g id="bullet-char-template(10146)" transform="scale(0.00048828125,-0.00048828125)">
   <path d="M 174,0 L 602,739 174,1481 1456,739 174,0 Z M 1358,739 L 309,1346 659,739 1358,739 Z"/>
  </g>
  <g id="bullet-char-template(10132)" transform="scale(0.00048828125,-0.00048828125)">
   <path d="M 2015,739 L 1276,0 717,0 1260,543 174,543 174,936 1260,936 717,1481 1274,1481 2015,739 Z"/>
  </g>
  <g id="bullet-char-template(10007)" transform="scale(0.00048828125,-0.00048828125)">
   <path d="M 0,-2 C -7,14 -16,27 -25,37 L 356,567 C 262,823 215,952 215,954 215,979 228,992 255,992 264,992 276,990 289,987 310,991 331,999 354,1012 L 381,999 492,748 772,1049 836,1024 860,1049 C 881,1039 901,1025 922,1006 886,937 835,863 770,784 769,783 710,716 594,584 L 774,223 C 774,196 753,168 711,139 L 727,119 C 717,90 699,76 672,76 641,76 570,178 457,381 L 164,-76 C 142,-110 111,-127 72,-127 30,-127 9,-110 8,-76 1,-67 -2,-52 -2,-32 -2,-23 -1,-13 0,-2 Z"/>
  </g>
  <g id="bullet-char-template(10004)" transform="scale(0.00048828125,-0.00048828125)">
   <path d="M 285,-33 C 182,-33 111,30 74,156 52,228 41,333 41,471 41,549 55,616 82,672 116,743 169,778 240,778 293,778 328,747 346,684 L 369,508 C 377,444 397,411 428,410 L 1163,1116 C 1174,1127 1196,1133 1229,1133 1271,1133 1292,1118 1292,1087 L 1292,965 C 1292,929 1282,901 1262,881 L 442,47 C 390,-6 338,-33 285,-33 Z"/>
  </g>
  <g id="bullet-char-template(9679)" transform="scale(0.00048828125,-0.00048828125)">
   <path d="M 813,0 C 632,0 489,54 383,161 276,268 223,411 223,592 223,773 276,916 383,1023 489,1130 632,1184 813,1184 992,1184 1136,1130 1245,1023 1353,916 1407,772 1407,592 1407,412 1353,268 1245,161 1136,54 992,0 813,0 Z"/>
  </g>
  <g id="bullet-char-template(8226)" transform="scale(0.00048828125,-0.00048828125)">
   <path d="M 346,457 C 273,457 209,483 155,535 101,586 74,649 74,723 74,796 101,859 155,911 209,963 273,989 346,989 419,989 480,963 531,910 582,859 608,796 608,723 608,648 583,586 532,535 482,483 420,457 346,457 Z"/>
  </g>
  <g id="bullet-char-template(8211)" transform="scale(0.00048828125,-0.00048828125)">
   <path d="M -4,459 L 1135,459 1135,606 -4,606 -4,459 Z"/>
  </g>
 </defs>
 <defs class="TextEmbeddedBitmaps"/>
 <g class="SlideGroup">
  <g>
   <g id="id1" class="Slide" clip-path="url(#presentation_clip_path)">
    <g class="Page">
     <g class="Group">
      <g class="com.sun.star.drawing.PolyPolygonShape">
       <g id="id3">
        <rect class="BoundingBox" stroke="none" fill="none" x="13714" y="8635" width="847" height="1908"/>
        <g>
         <defs>
          <linearGradient id="gradient1" x1="13733" y1="9589" x2="14541" y2="9589" gradientUnits="userSpaceOnUse">
           <stop offset="0.1" style="stop-color:rgb(102,102,102)"/>
           <stop offset="1" style="stop-color:rgb(153,153,153)"/>
          </linearGradient>
         </defs>
         <path style="fill:url(#gradient1)" d="M 13734,8656 L 13734,10056 14540,10522 13734,8656 Z"/>
        </g>
        <path fill="none" stroke="rgb(178,178,178)" stroke-width="40" stroke-linejoin="round" d="M 13734,8656 L 13734,10056 14540,10522 13734,8656 Z"/>
       </g>
      </g>
      <g class="com.sun.star.drawing.PolyPolygonShape">
       <g id="id4">
        <rect class="BoundingBox" stroke="none" fill="none" x="13613" y="8343" width="1049" height="2375"/>
        <g>
         <defs>
          <linearGradient id="gradient2" x1="13632" y1="9530" x2="14642" y2="9530" gradientUnits="userSpaceOnUse">
           <stop offset="0.1" style="stop-color:rgb(102,102,102)"/>
           <stop offset="1" style="stop-color:rgb(153,153,153)"/>
          </linearGradient>
         </defs>
         <path style="fill:url(#gradient2)" d="M 13633,8363 L 13633,8713 14439,10579 14641,10697 13633,8363 Z"/>
        </g>
        <path fill="none" stroke="rgb(127,127,127)" stroke-width="40" stroke-linejoin="round" d="M 13633,8363 L 13633,8713 14439,10579 14641,10697 13633,8363 Z"/>
       </g>
      </g>
      <g class="com.sun.star.drawing.PolyPolygonShape">
       <g id="id5">
        <rect class="BoundingBox" stroke="none" fill="none" x="13613" y="7177" width="3065" height="3541"/>
        <g>
         <defs>
          <pattern id="pattern1" x="13633" y="7197" width="3024" height="3501" patternUnits="userSpaceOnUse">
           <g transform="translate(-13633,-7197)">
            <path fill="rgb(102,102,102)" stroke="none" d="M 13632,7196 L 16657,7196 16657,10698 13632,10698 13632,7196 Z M 13056,6530 L 16021,6530 16021,9962 13056,9962 13056,6530 Z"/>
            <path fill="rgb(103,103,103)" stroke="none" d="M 13056,6530 L 16021,6530 16021,9962 13056,9962 13056,6530 Z M 13086,6564 L 15991,6564 15991,9928 13086,9928 13086,6564 Z"/>
            <path fill="rgb(104,104,104)" stroke="none" d="M 13086,6564 L 15991,6564 15991,9928 13086,9928 13086,6564 Z M 13115,6599 L 15962,6599 15962,9893 13115,9893 13115,6599 Z"/>
            <path fill="rgb(105,105,105)" stroke="none" d="M 13115,6599 L 15962,6599 15962,9893 13115,9893 13115,6599 Z M 13145,6633 L 15932,6633 15932,9859 13145,9859 13145,6633 Z"/>
            <path fill="rgb(106,106,106)" stroke="none" d="M 13145,6633 L 15932,6633 15932,9859 13145,9859 13145,6633 Z M 13175,6667 L 15902,6667 15902,9825 13175,9825 13175,6667 Z"/>
            <path fill="rgb(107,107,107)" stroke="none" d="M 13175,6667 L 15902,6667 15902,9825 13175,9825 13175,6667 Z M 13204,6702 L 15873,6702 15873,9790 13204,9790 13204,6702 Z"/>
            <path fill="rgb(108,108,108)" stroke="none" d="M 13204,6702 L 15873,6702 15873,9790 13204,9790 13204,6702 Z M 13234,6736 L 15843,6736 15843,9756 13234,9756 13234,6736 Z"/>
            <path fill="rgb(109,109,109)" stroke="none" d="M 13234,6736 L 15843,6736 15843,9756 13234,9756 13234,6736 Z M 13264,6770 L 15813,6770 15813,9722 13264,9722 13264,6770 Z"/>
            <path fill="rgb(110,110,110)" stroke="none" d="M 13264,6770 L 15813,6770 15813,9722 13264,9722 13264,6770 Z M 13294,6805 L 15784,6805 15784,9687 13294,9687 13294,6805 Z"/>
            <path fill="rgb(111,111,111)" stroke="none" d="M 13294,6805 L 15784,6805 15784,9687 13294,9687 13294,6805 Z M 13323,6839 L 15754,6839 15754,9653 13323,9653 13323,6839 Z"/>
            <path fill="rgb(112,112,112)" stroke="none" d="M 13323,6839 L 15754,6839 15754,9653 13323,9653 13323,6839 Z M 13353,6873 L 15724,6873 15724,9619 13353,9619 13353,6873 Z"/>
            <path fill="rgb(113,113,113)" stroke="none" d="M 13353,6873 L 15724,6873 15724,9619 13353,9619 13353,6873 Z M 13383,6908 L 15695,6908 15695,9584 13383,9584 13383,6908 Z"/>
            <path fill="rgb(114,114,114)" stroke="none" d="M 13383,6908 L 15695,6908 15695,9584 13383,9584 13383,6908 Z M 13412,6942 L 15665,6942 15665,9550 13412,9550 13412,6942 Z"/>
            <path fill="rgb(115,115,115)" stroke="none" d="M 13412,6942 L 15665,6942 15665,9550 13412,9550 13412,6942 Z M 13442,6976 L 15635,6976 15635,9516 13442,9516 13442,6976 Z"/>
            <path fill="rgb(116,116,116)" stroke="none" d="M 13442,6976 L 15635,6976 15635,9516 13442,9516 13442,6976 Z M 13472,7011 L 15606,7011 15606,9481 13472,9481 13472,7011 Z"/>
            <path fill="rgb(117,117,117)" stroke="none" d="M 13472,7011 L 15606,7011 15606,9481 13472,9481 13472,7011 Z M 13501,7045 L 15576,7045 15576,9447 13501,9447 13501,7045 Z"/>
            <path fill="rgb(118,118,118)" stroke="none" d="M 13501,7045 L 15576,7045 15576,9447 13501,9447 13501,7045 Z M 13531,7079 L 15546,7079 15546,9413 13531,9413 13531,7079 Z"/>
            <path fill="rgb(119,119,119)" stroke="none" d="M 13531,7079 L 15546,7079 15546,9413 13531,9413 13531,7079 Z M 13561,7114 L 15517,7114 15517,9378 13561,9378 13561,7114 Z"/>
            <path fill="rgb(120,120,120)" stroke="none" d="M 13561,7114 L 15517,7114 15517,9378 13561,9378 13561,7114 Z M 13590,7148 L 15487,7148 15487,9344 13590,9344 13590,7148 Z"/>
            <path fill="rgb(121,121,121)" stroke="none" d="M 13590,7148 L 15487,7148 15487,9344 13590,9344 13590,7148 Z M 13619,7181 L 15457,7181 15457,9310 13619,9310 13619,7181 Z"/>
            <path fill="rgb(122,122,122)" stroke="none" d="M 13619,7181 L 15457,7181 15457,9310 13619,9310 13619,7181 Z M 13649,7216 L 15428,7216 15428,9275 13649,9275 13649,7216 Z"/>
            <path fill="rgb(123,123,123)" stroke="none" d="M 13649,7216 L 15428,7216 15428,9275 13649,9275 13649,7216 Z M 13678,7250 L 15398,7250 15398,9241 13678,9241 13678,7250 Z"/>
            <path fill="rgb(124,124,124)" stroke="none" d="M 13678,7250 L 15398,7250 15398,9241 13678,9241 13678,7250 Z M 13708,7284 L 15368,7284 15368,9207 13708,9207 13708,7284 Z"/>
            <path fill="rgb(125,125,125)" stroke="none" d="M 13708,7284 L 15368,7284 15368,9207 13708,9207 13708,7284 Z M 13738,7319 L 15339,7319 15339,9172 13738,9172 13738,7319 Z"/>
            <path fill="rgb(126,126,126)" stroke="none" d="M 13738,7319 L 15339,7319 15339,9172 13738,9172 13738,7319 Z M 13767,7353 L 15309,7353 15309,9138 13767,9138 13767,7353 Z"/>
            <path fill="rgb(127,127,127)" stroke="none" d="M 13767,7353 L 15309,7353 15309,9138 13767,9138 13767,7353 Z M 13797,7387 L 15279,7387 15279,9104 13797,9104 13797,7387 Z"/>
            <path fill="rgb(128,128,128)" stroke="none" d="M 13797,7387 L 15279,7387 15279,9104 13797,9104 13797,7387 Z M 13827,7422 L 15250,7422 15250,9069 13827,9069 13827,7422 Z"/>
            <path fill="rgb(129,129,129)" stroke="none" d="M 13827,7422 L 15250,7422 15250,9069 13827,9069 13827,7422 Z M 13856,7456 L 15220,7456 15220,9035 13856,9035 13856,7456 Z"/>
            <path fill="rgb(130,130,130)" stroke="none" d="M 13856,7456 L 15220,7456 15220,9035 13856,9035 13856,7456 Z M 13886,7490 L 15190,7490 15190,9001 13886,9001 13886,7490 Z"/>
            <path fill="rgb(131,131,131)" stroke="none" d="M 13886,7490 L 15190,7490 15190,9001 13886,9001 13886,7490 Z M 13916,7525 L 15161,7525 15161,8966 13916,8966 13916,7525 Z"/>
            <path fill="rgb(132,132,132)" stroke="none" d="M 13916,7525 L 15161,7525 15161,8966 13916,8966 13916,7525 Z M 13945,7559 L 15131,7559 15131,8932 13945,8932 13945,7559 Z"/>
            <path fill="rgb(133,133,133)" stroke="none" d="M 13945,7559 L 15131,7559 15131,8932 13945,8932 13945,7559 Z M 13975,7593 L 15101,7593 15101,8898 13975,8898 13975,7593 Z"/>
            <path fill="rgb(134,134,134)" stroke="none" d="M 13975,7593 L 15101,7593 15101,8898 13975,8898 13975,7593 Z M 14005,7628 L 15072,7628 15072,8863 14005,8863 14005,7628 Z"/>
            <path fill="rgb(135,135,135)" stroke="none" d="M 14005,7628 L 15072,7628 15072,8863 14005,8863 14005,7628 Z M 14034,7662 L 15042,7662 15042,8829 14034,8829 14034,7662 Z"/>
            <path fill="rgb(136,136,136)" stroke="none" d="M 14034,7662 L 15042,7662 15042,8829 14034,8829 14034,7662 Z M 14064,7697 L 15012,7697 15012,8794 14064,8794 14064,7697 Z"/>
            <path fill="rgb(137,137,137)" stroke="none" d="M 14064,7697 L 15012,7697 15012,8794 14064,8794 14064,7697 Z M 14094,7731 L 14983,7731 14983,8760 14094,8760 14094,7731 Z"/>
            <path fill="rgb(138,138,138)" stroke="none" d="M 14094,7731 L 14983,7731 14983,8760 14094,8760 14094,7731 Z M 14123,7765 L 14953,7765 14953,8726 14123,8726 14123,7765 Z"/>
            <path fill="rgb(139,139,139)" stroke="none" d="M 14123,7765 L 14953,7765 14953,8726 14123,8726 14123,7765 Z M 14153,7800 L 14923,7800 14923,8691 14153,8691 14153,7800 Z"/>
            <path fill="rgb(140,140,140)" stroke="none" d="M 14153,7800 L 14923,7800 14923,8691 14153,8691 14153,7800 Z M 14183,7834 L 14894,7834 14894,8657 14183,8657 14183,7834 Z"/>
            <path fill="rgb(141,141,141)" stroke="none" d="M 14183,7834 L 14894,7834 14894,8657 14183,8657 14183,7834 Z M 14212,7868 L 14864,7868 14864,8623 14212,8623 14212,7868 Z"/>
            <path fill="rgb(142,142,142)" stroke="none" d="M 14212,7868 L 14864,7868 14864,8623 14212,8623 14212,7868 Z M 14242,7903 L 14834,7903 14834,8588 14242,8588 14242,7903 Z"/>
            <path fill="rgb(143,143,143)" stroke="none" d="M 14242,7903 L 14834,7903 14834,8588 14242,8588 14242,7903 Z M 14272,7937 L 14804,7937 14804,8554 14272,8554 14272,7937 Z"/>
            <path fill="rgb(144,144,144)" stroke="none" d="M 14272,7937 L 14804,7937 14804,8554 14272,8554 14272,7937 Z M 14301,7971 L 14775,7971 14775,8520 14301,8520 14301,7971 Z"/>
            <path fill="rgb(145,145,145)" stroke="none" d="M 14301,7971 L 14775,7971 14775,8520 14301,8520 14301,7971 Z M 14331,8006 L 14745,8006 14745,8485 14331,8485 14331,8006 Z"/>
            <path fill="rgb(146,146,146)" stroke="none" d="M 14331,8006 L 14745,8006 14745,8485 14331,8485 14331,8006 Z M 14360,8040 L 14715,8040 14715,8451 14360,8451 14360,8040 Z"/>
            <path fill="rgb(147,147,147)" stroke="none" d="M 14360,8040 L 14715,8040 14715,8451 14360,8451 14360,8040 Z M 14390,8074 L 14686,8074 14686,8417 14390,8417 14390,8074 Z"/>
            <path fill="rgb(148,148,148)" stroke="none" d="M 14390,8074 L 14686,8074 14686,8417 14390,8417 14390,8074 Z M 14420,8109 L 14656,8109 14656,8382 14420,8382 14420,8109 Z"/>
            <path fill="rgb(149,149,149)" stroke="none" d="M 14420,8109 L 14656,8109 14656,8382 14420,8382 14420,8109 Z M 14449,8143 L 14626,8143 14626,8348 14449,8348 14449,8143 Z"/>
            <path fill="rgb(150,150,150)" stroke="none" d="M 14449,8143 L 14626,8143 14626,8348 14449,8348 14449,8143 Z M 14479,8177 L 14597,8177 14597,8314 14479,8314 14479,8177 Z"/>
            <path fill="rgb(151,151,151)" stroke="none" d="M 14479,8177 L 14597,8177 14597,8314 14479,8314 14479,8177 Z M 14509,8212 L 14567,8212 14567,8279 14509,8279 14509,8212 Z"/>
            <path fill="rgb(153,153,153)" stroke="none" d="M 14509,8212 L 14567,8212 14567,8279 14509,8279 14509,8212 Z"/>
           </g>
          </pattern>
         </defs>
         <path style="fill:url(#pattern1)" d="M 16656,9531 L 15648,7197 13633,8363 14641,10697 16656,9531 Z"/>
        </g>
        <path fill="none" stroke="rgb(178,178,178)" stroke-width="40" stroke-linejoin="round" d="M 16656,9531 L 15648,7197 13633,8363 14641,10697 16656,9531 Z"/>
       </g>
      </g>
      <g class="com.sun.star.drawing.ClosedBezierShape">
       <g id="id6">
        <rect class="BoundingBox" stroke="none" fill="none" x="13779" y="8087" width="1453" height="2375"/>
        <g>
         <defs>
          <pattern id="pattern2" x="13799" y="8107" width="1412" height="2335" patternUnits="userSpaceOnUse">
           <g transform="translate(-13799,-8107)">
            <path fill="rgb(102,102,102)" stroke="none" d="M 13798,8106 L 15211,8106 15211,10442 13798,10442 13798,8106 Z M 13529,7662 L 14914,7662 14914,9952 13529,9952 13529,7662 Z"/>
            <path fill="rgb(103,103,103)" stroke="none" d="M 13529,7662 L 14914,7662 14914,9952 13529,9952 13529,7662 Z M 13543,7685 L 14900,7685 14900,9929 13543,9929 13543,7685 Z"/>
            <path fill="rgb(104,104,104)" stroke="none" d="M 13543,7685 L 14900,7685 14900,9929 13543,9929 13543,7685 Z M 13557,7708 L 14886,7708 14886,9906 13557,9906 13557,7708 Z"/>
            <path fill="rgb(105,105,105)" stroke="none" d="M 13557,7708 L 14886,7708 14886,9906 13557,9906 13557,7708 Z M 13571,7731 L 14872,7731 14872,9883 13571,9883 13571,7731 Z"/>
            <path fill="rgb(106,106,106)" stroke="none" d="M 13571,7731 L 14872,7731 14872,9883 13571,9883 13571,7731 Z M 13585,7754 L 14858,7754 14858,9860 13585,9860 13585,7754 Z"/>
            <path fill="rgb(107,107,107)" stroke="none" d="M 13585,7754 L 14858,7754 14858,9860 13585,9860 13585,7754 Z M 13599,7777 L 14844,7777 14844,9837 13599,9837 13599,7777 Z"/>
            <path fill="rgb(108,108,108)" stroke="none" d="M 13599,7777 L 14844,7777 14844,9837 13599,9837 13599,7777 Z M 13613,7800 L 14830,7800 14830,9814 13613,9814 13613,7800 Z"/>
            <path fill="rgb(109,109,109)" stroke="none" d="M 13613,7800 L 14830,7800 14830,9814 13613,9814 13613,7800 Z M 13626,7823 L 14817,7823 14817,9791 13626,9791 13626,7823 Z"/>
            <path fill="rgb(110,110,110)" stroke="none" d="M 13626,7823 L 14817,7823 14817,9791 13626,9791 13626,7823 Z M 13640,7846 L 14803,7846 14803,9768 13640,9768 13640,7846 Z"/>
            <path fill="rgb(111,111,111)" stroke="none" d="M 13640,7846 L 14803,7846 14803,9768 13640,9768 13640,7846 Z M 13654,7869 L 14789,7869 14789,9745 13654,9745 13654,7869 Z"/>
            <path fill="rgb(112,112,112)" stroke="none" d="M 13654,7869 L 14789,7869 14789,9745 13654,9745 13654,7869 Z M 13668,7892 L 14775,7892 14775,9722 13668,9722 13668,7892 Z"/>
            <path fill="rgb(113,113,113)" stroke="none" d="M 13668,7892 L 14775,7892 14775,9722 13668,9722 13668,7892 Z M 13682,7914 L 14761,7914 14761,9700 13682,9700 13682,7914 Z"/>
            <path fill="rgb(114,114,114)" stroke="none" d="M 13682,7914 L 14761,7914 14761,9700 13682,9700 13682,7914 Z M 13696,7937 L 14747,7937 14747,9677 13696,9677 13696,7937 Z"/>
            <path fill="rgb(115,115,115)" stroke="none" d="M 13696,7937 L 14747,7937 14747,9677 13696,9677 13696,7937 Z M 13710,7960 L 14733,7960 14733,9654 13710,9654 13710,7960 Z"/>
            <path fill="rgb(116,116,116)" stroke="none" d="M 13710,7960 L 14733,7960 14733,9654 13710,9654 13710,7960 Z M 13723,7983 L 14720,7983 14720,9631 13723,9631 13723,7983 Z"/>
            <path fill="rgb(117,117,117)" stroke="none" d="M 13723,7983 L 14720,7983 14720,9631 13723,9631 13723,7983 Z M 13737,8006 L 14706,8006 14706,9608 13737,9608 13737,8006 Z"/>
            <path fill="rgb(118,118,118)" stroke="none" d="M 13737,8006 L 14706,8006 14706,9608 13737,9608 13737,8006 Z M 13751,8029 L 14692,8029 14692,9585 13751,9585 13751,8029 Z"/>
            <path fill="rgb(119,119,119)" stroke="none" d="M 13751,8029 L 14692,8029 14692,9585 13751,9585 13751,8029 Z M 13765,8052 L 14678,8052 14678,9562 13765,9562 13765,8052 Z"/>
            <path fill="rgb(120,120,120)" stroke="none" d="M 13765,8052 L 14678,8052 14678,9562 13765,9562 13765,8052 Z M 13779,8075 L 14664,8075 14664,9539 13779,9539 13779,8075 Z"/>
            <path fill="rgb(121,121,121)" stroke="none" d="M 13779,8075 L 14664,8075 14664,9539 13779,9539 13779,8075 Z M 13792,8097 L 14650,8097 14650,9516 13792,9516 13792,8097 Z"/>
            <path fill="rgb(122,122,122)" stroke="none" d="M 13792,8097 L 14650,8097 14650,9516 13792,9516 13792,8097 Z M 13806,8120 L 14636,8120 14636,9493 13806,9493 13806,8120 Z"/>
            <path fill="rgb(123,123,123)" stroke="none" d="M 13806,8120 L 14636,8120 14636,9493 13806,9493 13806,8120 Z M 13819,8143 L 14623,8143 14623,9470 13819,9470 13819,8143 Z"/>
            <path fill="rgb(124,124,124)" stroke="none" d="M 13819,8143 L 14623,8143 14623,9470 13819,9470 13819,8143 Z M 13833,8165 L 14609,8165 14609,9448 13833,9448 13833,8165 Z"/>
            <path fill="rgb(125,125,125)" stroke="none" d="M 13833,8165 L 14609,8165 14609,9448 13833,9448 13833,8165 Z M 13847,8188 L 14595,8188 14595,9425 13847,9425 13847,8188 Z"/>
            <path fill="rgb(126,126,126)" stroke="none" d="M 13847,8188 L 14595,8188 14595,9425 13847,9425 13847,8188 Z M 13861,8211 L 14581,8211 14581,9402 13861,9402 13861,8211 Z"/>
            <path fill="rgb(127,127,127)" stroke="none" d="M 13861,8211 L 14581,8211 14581,9402 13861,9402 13861,8211 Z M 13875,8234 L 14567,8234 14567,9379 13875,9379 13875,8234 Z"/>
            <path fill="rgb(128,128,128)" stroke="none" d="M 13875,8234 L 14567,8234 14567,9379 13875,9379 13875,8234 Z M 13889,8257 L 14553,8257 14553,9356 13889,9356 13889,8257 Z"/>
            <path fill="rgb(129,129,129)" stroke="none" d="M 13889,8257 L 14553,8257 14553,9356 13889,9356 13889,8257 Z M 13903,8280 L 14539,8280 14539,9333 13903,9333 13903,8280 Z"/>
            <path fill="rgb(130,130,130)" stroke="none" d="M 13903,8280 L 14539,8280 14539,9333 13903,9333 13903,8280 Z M 13917,8303 L 14525,8303 14525,9310 13917,9310 13917,8303 Z"/>
            <path fill="rgb(131,131,131)" stroke="none" d="M 13917,8303 L 14525,8303 14525,9310 13917,9310 13917,8303 Z M 13930,8326 L 14512,8326 14512,9287 13930,9287 13930,8326 Z"/>
            <path fill="rgb(132,132,132)" stroke="none" d="M 13930,8326 L 14512,8326 14512,9287 13930,9287 13930,8326 Z M 13944,8349 L 14498,8349 14498,9264 13944,9264 13944,8349 Z"/>
            <path fill="rgb(133,133,133)" stroke="none" d="M 13944,8349 L 14498,8349 14498,9264 13944,9264 13944,8349 Z M 13958,8372 L 14484,8372 14484,9241 13958,9241 13958,8372 Z"/>
            <path fill="rgb(134,134,134)" stroke="none" d="M 13958,8372 L 14484,8372 14484,9241 13958,9241 13958,8372 Z M 13972,8395 L 14470,8395 14470,9218 13972,9218 13972,8395 Z"/>
            <path fill="rgb(135,135,135)" stroke="none" d="M 13972,8395 L 14470,8395 14470,9218 13972,9218 13972,8395 Z M 13986,8418 L 14456,8418 14456,9195 13986,9195 13986,8418 Z"/>
            <path fill="rgb(136,136,136)" stroke="none" d="M 13986,8418 L 14456,8418 14456,9195 13986,9195 13986,8418 Z M 14000,8440 L 14442,8440 14442,9173 14000,9173 14000,8440 Z"/>
            <path fill="rgb(137,137,137)" stroke="none" d="M 14000,8440 L 14442,8440 14442,9173 14000,9173 14000,8440 Z M 14014,8463 L 14428,8463 14428,9150 14014,9150 14014,8463 Z"/>
            <path fill="rgb(138,138,138)" stroke="none" d="M 14014,8463 L 14428,8463 14428,9150 14014,9150 14014,8463 Z M 14027,8486 L 14415,8486 14415,9127 14027,9127 14027,8486 Z"/>
            <path fill="rgb(139,139,139)" stroke="none" d="M 14027,8486 L 14415,8486 14415,9127 14027,9127 14027,8486 Z M 14041,8509 L 14401,8509 14401,9104 14041,9104 14041,8509 Z"/>
            <path fill="rgb(140,140,140)" stroke="none" d="M 14041,8509 L 14401,8509 14401,9104 14041,9104 14041,8509 Z M 14055,8532 L 14387,8532 14387,9081 14055,9081 14055,8532 Z"/>
            <path fill="rgb(141,141,141)" stroke="none" d="M 14055,8532 L 14387,8532 14387,9081 14055,9081 14055,8532 Z M 14069,8555 L 14373,8555 14373,9058 14069,9058 14069,8555 Z"/>
            <path fill="rgb(142,142,142)" stroke="none" d="M 14069,8555 L 14373,8555 14373,9058 14069,9058 14069,8555 Z M 14083,8578 L 14359,8578 14359,9035 14083,9035 14083,8578 Z"/>
            <path fill="rgb(143,143,143)" stroke="none" d="M 14083,8578 L 14359,8578 14359,9035 14083,9035 14083,8578 Z M 14097,8601 L 14345,8601 14345,9012 14097,9012 14097,8601 Z"/>
            <path fill="rgb(144,144,144)" stroke="none" d="M 14097,8601 L 14345,8601 14345,9012 14097,9012 14097,8601 Z M 14111,8624 L 14331,8624 14331,8989 14111,8989 14111,8624 Z"/>
            <path fill="rgb(145,145,145)" stroke="none" d="M 14111,8624 L 14331,8624 14331,8989 14111,8989 14111,8624 Z M 14124,8647 L 14318,8647 14318,8966 14124,8966 14124,8647 Z"/>
            <path fill="rgb(146,146,146)" stroke="none" d="M 14124,8647 L 14318,8647 14318,8966 14124,8966 14124,8647 Z M 14138,8670 L 14304,8670 14304,8943 14138,8943 14138,8670 Z"/>
            <path fill="rgb(147,147,147)" stroke="none" d="M 14138,8670 L 14304,8670 14304,8943 14138,8943 14138,8670 Z M 14152,8692 L 14290,8692 14290,8921 14152,8921 14152,8692 Z"/>
            <path fill="rgb(148,148,148)" stroke="none" d="M 14152,8692 L 14290,8692 14290,8921 14152,8921 14152,8692 Z M 14166,8715 L 14276,8715 14276,8898 14166,8898 14166,8715 Z"/>
            <path fill="rgb(149,149,149)" stroke="none" d="M 14166,8715 L 14276,8715 14276,8898 14166,8898 14166,8715 Z M 14180,8738 L 14262,8738 14262,8875 14180,8875 14180,8738 Z"/>
            <path fill="rgb(150,150,150)" stroke="none" d="M 14180,8738 L 14262,8738 14262,8875 14180,8875 14180,8738 Z M 14194,8761 L 14248,8761 14248,8852 14194,8852 14194,8761 Z"/>
            <path fill="rgb(151,151,151)" stroke="none" d="M 14194,8761 L 14248,8761 14248,8852 14194,8852 14194,8761 Z M 14208,8784 L 14234,8784 14234,8829 14208,8829 14208,8784 Z"/>
            <path fill="rgb(153,153,153)" stroke="none" d="M 14208,8784 L 14234,8784 14234,8829 14208,8829 14208,8784 Z"/>
           </g>
          </pattern>
         </defs>
         <path style="fill:url(#pattern2)" d="M 14303,8107 L 14245,8134 14196,8160 14101,8216 13799,8398 14001,8807 14011,8808 14021,8810 14042,8819 14065,8833 14089,8852 14139,8905 14193,8973 14247,9054 14302,9145 14404,9347 14487,9553 14518,9651 14539,9742 14550,9822 14551,9858 14549,9890 14544,9917 14535,9941 14529,9951 14522,9959 14514,9967 14505,9973 14706,10441 15210,10148 15208,10117 15203,10079 15183,9984 15111,9731 15003,9420 14870,9084 14723,8753 14573,8459 14499,8335 14429,8233 14363,8156 14332,8127 14303,8107 Z"/>
        </g>
        <path fill="none" stroke="rgb(178,178,178)" stroke-width="40" stroke-linejoin="round" d="M 14303,8107 C 14135,8184 14101,8223 13799,8398 13866,8534 13934,8671 14001,8807 14202,8807 14706,9857 14505,9973 14571,10130 14639,10284 14706,10441 14874,10343 15043,10246 15210,10148 15210,9857 14606,8282 14303,8107 Z"/>
       </g>
      </g>
      <g class="com.sun.star.drawing.OpenBezierShape">
       <g id="id7">
        <rect class="BoundingBox" stroke="none" fill="none" x="13881" y="8437" width="880" height="1907"/>
        <path fill="none" stroke="rgb(178,178,178)" stroke-width="40" stroke-linejoin="round" d="M 14707,10323 C 14909,9623 14103,8458 13901,8457"/>
       </g>
      </g>
      <g class="com.sun.star.drawing.LineShape">
       <g id="id8">
        <rect class="BoundingBox" stroke="none" fill="none" x="14426" y="7877" width="1049" height="2375"/>
        <path fill="none" stroke="rgb(178,178,178)" stroke-width="40" stroke-linejoin="round" d="M 15454,10231 L 14446,7897"/>
       </g>
      </g>
      <g class="Group">
       <g class="com.sun.star.drawing.PolyPolygonShape">
        <g id="id9">
         <rect class="BoundingBox" stroke="none" fill="none" x="15142" y="8675" width="1351" height="1325"/>
         <g>
          <defs>
           <pattern id="pattern3" x="15162" y="8695" width="1311" height="1285" patternUnits="userSpaceOnUse">
            <g transform="translate(-15162,-8695)">
             <path fill="rgb(102,102,102)" stroke="none" d="M 15161,8694 L 16473,8694 16473,9980 15161,9980 15161,8694 Z M 14911,8450 L 16197,8450 16197,9710 14911,9710 14911,8450 Z"/>
             <path fill="rgb(103,103,103)" stroke="none" d="M 14911,8450 L 16197,8450 16197,9710 14911,9710 14911,8450 Z M 14924,8463 L 16184,8463 16184,9697 14924,9697 14924,8463 Z"/>
             <path fill="rgb(104,104,104)" stroke="none" d="M 14924,8463 L 16184,8463 16184,9697 14924,9697 14924,8463 Z M 14937,8475 L 16171,8475 16171,9685 14937,9685 14937,8475 Z"/>
             <path fill="rgb(105,105,105)" stroke="none" d="M 14937,8475 L 16171,8475 16171,9685 14937,9685 14937,8475 Z M 14950,8488 L 16158,8488 16158,9672 14950,9672 14950,8488 Z"/>
             <path fill="rgb(106,106,106)" stroke="none" d="M 14950,8488 L 16158,8488 16158,9672 14950,9672 14950,8488 Z M 14963,8501 L 16145,8501 16145,9659 14963,9659 14963,8501 Z"/>
             <path fill="rgb(107,107,107)" stroke="none" d="M 14963,8501 L 16145,8501 16145,9659 14963,9659 14963,8501 Z M 14976,8513 L 16132,8513 16132,9647 14976,9647 14976,8513 Z"/>
             <path fill="rgb(108,108,108)" stroke="none" d="M 14976,8513 L 16132,8513 16132,9647 14976,9647 14976,8513 Z M 14989,8526 L 16119,8526 16119,9634 14989,9634 14989,8526 Z"/>
             <path fill="rgb(109,109,109)" stroke="none" d="M 14989,8526 L 16119,8526 16119,9634 14989,9634 14989,8526 Z M 15001,8538 L 16107,8538 16107,9622 15001,9622 15001,8538 Z"/>
             <path fill="rgb(110,110,110)" stroke="none" d="M 15001,8538 L 16107,8538 16107,9622 15001,9622 15001,8538 Z M 15014,8551 L 16094,8551 16094,9609 15014,9609 15014,8551 Z"/>
             <path fill="rgb(111,111,111)" stroke="none" d="M 15014,8551 L 16094,8551 16094,9609 15014,9609 15014,8551 Z M 15027,8564 L 16081,8564 16081,9596 15027,9596 15027,8564 Z"/>
             <path fill="rgb(112,112,112)" stroke="none" d="M 15027,8564 L 16081,8564 16081,9596 15027,9596 15027,8564 Z M 15040,8576 L 16068,8576 16068,9584 15040,9584 15040,8576 Z"/>
             <path fill="rgb(113,113,113)" stroke="none" d="M 15040,8576 L 16068,8576 16068,9584 15040,9584 15040,8576 Z M 15053,8589 L 16055,8589 16055,9571 15053,9571 15053,8589 Z"/>
             <path fill="rgb(114,114,114)" stroke="none" d="M 15053,8589 L 16055,8589 16055,9571 15053,9571 15053,8589 Z M 15066,8602 L 16042,8602 16042,9558 15066,9558 15066,8602 Z"/>
             <path fill="rgb(115,115,115)" stroke="none" d="M 15066,8602 L 16042,8602 16042,9558 15066,9558 15066,8602 Z M 15079,8614 L 16029,8614 16029,9546 15079,9546 15079,8614 Z"/>
             <path fill="rgb(116,116,116)" stroke="none" d="M 15079,8614 L 16029,8614 16029,9546 15079,9546 15079,8614 Z M 15092,8627 L 16016,8627 16016,9533 15092,9533 15092,8627 Z"/>
             <path fill="rgb(117,117,117)" stroke="none" d="M 15092,8627 L 16016,8627 16016,9533 15092,9533 15092,8627 Z M 15104,8639 L 16004,8639 16004,9521 15104,9521 15104,8639 Z"/>
             <path fill="rgb(118,118,118)" stroke="none" d="M 15104,8639 L 16004,8639 16004,9521 15104,9521 15104,8639 Z M 15117,8652 L 15991,8652 15991,9508 15117,9508 15117,8652 Z"/>
             <path fill="rgb(119,119,119)" stroke="none" d="M 15117,8652 L 15991,8652 15991,9508 15117,9508 15117,8652 Z M 15130,8665 L 15978,8665 15978,9495 15130,9495 15130,8665 Z"/>
             <path fill="rgb(120,120,120)" stroke="none" d="M 15130,8665 L 15978,8665 15978,9495 15130,9495 15130,8665 Z M 15142,8676 L 15965,8676 15965,9483 15142,9483 15142,8676 Z"/>
             <path fill="rgb(121,121,121)" stroke="none" d="M 15142,8676 L 15965,8676 15965,9483 15142,9483 15142,8676 Z M 15155,8689 L 15952,8689 15952,9470 15155,9470 15155,8689 Z"/>
             <path fill="rgb(122,122,122)" stroke="none" d="M 15155,8689 L 15952,8689 15952,9470 15155,9470 15155,8689 Z M 15168,8701 L 15939,8701 15939,9458 15168,9458 15168,8701 Z"/>
             <path fill="rgb(123,123,123)" stroke="none" d="M 15168,8701 L 15939,8701 15939,9458 15168,9458 15168,8701 Z M 15181,8714 L 15926,8714 15926,9445 15181,9445 15181,8714 Z"/>
             <path fill="rgb(124,124,124)" stroke="none" d="M 15181,8714 L 15926,8714 15926,9445 15181,9445 15181,8714 Z M 15194,8727 L 15913,8727 15913,9432 15194,9432 15194,8727 Z"/>
             <path fill="rgb(125,125,125)" stroke="none" d="M 15194,8727 L 15913,8727 15913,9432 15194,9432 15194,8727 Z M 15206,8739 L 15901,8739 15901,9420 15206,9420 15206,8739 Z"/>
             <path fill="rgb(126,126,126)" stroke="none" d="M 15206,8739 L 15901,8739 15901,9420 15206,9420 15206,8739 Z M 15219,8752 L 15888,8752 15888,9407 15219,9407 15219,8752 Z"/>
             <path fill="rgb(127,127,127)" stroke="none" d="M 15219,8752 L 15888,8752 15888,9407 15219,9407 15219,8752 Z M 15232,8765 L 15875,8765 15875,9394 15232,9394 15232,8765 Z"/>
             <path fill="rgb(128,128,128)" stroke="none" d="M 15232,8765 L 15875,8765 15875,9394 15232,9394 15232,8765 Z M 15245,8777 L 15862,8777 15862,9382 15245,9382 15245,8777 Z"/>
             <path fill="rgb(129,129,129)" stroke="none" d="M 15245,8777 L 15862,8777 15862,9382 15245,9382 15245,8777 Z M 15258,8790 L 15849,8790 15849,9369 15258,9369 15258,8790 Z"/>
             <path fill="rgb(130,130,130)" stroke="none" d="M 15258,8790 L 15849,8790 15849,9369 15258,9369 15258,8790 Z M 15271,8802 L 15836,8802 15836,9357 15271,9357 15271,8802 Z"/>
             <path fill="rgb(131,131,131)" stroke="none" d="M 15271,8802 L 15836,8802 15836,9357 15271,9357 15271,8802 Z M 15284,8815 L 15823,8815 15823,9344 15284,9344 15284,8815 Z"/>
             <path fill="rgb(132,132,132)" stroke="none" d="M 15284,8815 L 15823,8815 15823,9344 15284,9344 15284,8815 Z M 15297,8828 L 15810,8828 15810,9331 15297,9331 15297,8828 Z"/>
             <path fill="rgb(133,133,133)" stroke="none" d="M 15297,8828 L 15810,8828 15810,9331 15297,9331 15297,8828 Z M 15309,8840 L 15798,8840 15798,9319 15309,9319 15309,8840 Z"/>
             <path fill="rgb(134,134,134)" stroke="none" d="M 15309,8840 L 15798,8840 15798,9319 15309,9319 15309,8840 Z M 15322,8853 L 15785,8853 15785,9306 15322,9306 15322,8853 Z"/>
             <path fill="rgb(135,135,135)" stroke="none" d="M 15322,8853 L 15785,8853 15785,9306 15322,9306 15322,8853 Z M 15335,8866 L 15772,8866 15772,9293 15335,9293 15335,8866 Z"/>
             <path fill="rgb(136,136,136)" stroke="none" d="M 15335,8866 L 15772,8866 15772,9293 15335,9293 15335,8866 Z M 15348,8878 L 15759,8878 15759,9281 15348,9281 15348,8878 Z"/>
             <path fill="rgb(137,137,137)" stroke="none" d="M 15348,8878 L 15759,8878 15759,9281 15348,9281 15348,8878 Z M 15361,8891 L 15746,8891 15746,9268 15361,9268 15361,8891 Z"/>
             <path fill="rgb(138,138,138)" stroke="none" d="M 15361,8891 L 15746,8891 15746,9268 15361,9268 15361,8891 Z M 15374,8903 L 15733,8903 15733,9256 15374,9256 15374,8903 Z"/>
             <path fill="rgb(139,139,139)" stroke="none" d="M 15374,8903 L 15733,8903 15733,9256 15374,9256 15374,8903 Z M 15387,8916 L 15720,8916 15720,9243 15387,9243 15387,8916 Z"/>
             <path fill="rgb(140,140,140)" stroke="none" d="M 15387,8916 L 15720,8916 15720,9243 15387,9243 15387,8916 Z M 15400,8929 L 15707,8929 15707,9230 15400,9230 15400,8929 Z"/>
             <path fill="rgb(141,141,141)" stroke="none" d="M 15400,8929 L 15707,8929 15707,9230 15400,9230 15400,8929 Z M 15412,8941 L 15695,8941 15695,9218 15412,9218 15412,8941 Z"/>
             <path fill="rgb(142,142,142)" stroke="none" d="M 15412,8941 L 15695,8941 15695,9218 15412,9218 15412,8941 Z M 15425,8954 L 15682,8954 15682,9205 15425,9205 15425,8954 Z"/>
             <path fill="rgb(143,143,143)" stroke="none" d="M 15425,8954 L 15682,8954 15682,9205 15425,9205 15425,8954 Z M 15438,8966 L 15669,8966 15669,9193 15438,9193 15438,8966 Z"/>
             <path fill="rgb(144,144,144)" stroke="none" d="M 15438,8966 L 15669,8966 15669,9193 15438,9193 15438,8966 Z M 15451,8979 L 15656,8979 15656,9180 15451,9180 15451,8979 Z"/>
             <path fill="rgb(145,145,145)" stroke="none" d="M 15451,8979 L 15656,8979 15656,9180 15451,9180 15451,8979 Z M 15464,8992 L 15643,8992 15643,9167 15464,9167 15464,8992 Z"/>
             <path fill="rgb(146,146,146)" stroke="none" d="M 15464,8992 L 15643,8992 15643,9167 15464,9167 15464,8992 Z M 15477,9004 L 15630,9004 15630,9155 15477,9155 15477,9004 Z"/>
             <path fill="rgb(147,147,147)" stroke="none" d="M 15477,9004 L 15630,9004 15630,9155 15477,9155 15477,9004 Z M 15490,9017 L 15617,9017 15617,9142 15490,9142 15490,9017 Z"/>
             <path fill="rgb(148,148,148)" stroke="none" d="M 15490,9017 L 15617,9017 15617,9142 15490,9142 15490,9017 Z M 15503,9030 L 15604,9030 15604,9129 15503,9129 15503,9030 Z"/>
             <path fill="rgb(149,149,149)" stroke="none" d="M 15503,9030 L 15604,9030 15604,9129 15503,9129 15503,9030 Z M 15515,9042 L 15592,9042 15592,9117 15515,9117 15515,9042 Z"/>
             <path fill="rgb(150,150,150)" stroke="none" d="M 15515,9042 L 15592,9042 15592,9117 15515,9117 15515,9042 Z M 15528,9055 L 15579,9055 15579,9104 15528,9104 15528,9055 Z"/>
             <path fill="rgb(151,151,151)" stroke="none" d="M 15528,9055 L 15579,9055 15579,9104 15528,9104 15528,9055 Z M 15541,9067 L 15566,9067 15566,9092 15541,9092 15541,9067 Z"/>
             <path fill="rgb(153,153,153)" stroke="none" d="M 15541,9067 L 15566,9067 15566,9092 15541,9092 15541,9067 Z"/>
            </g>
           </pattern>
          </defs>
          <path style="fill:url(#pattern3)" d="M 16472,9395 L 16170,8695 15162,9279 15464,9979 16472,9395 Z"/>
         </g>
         <path fill="none" stroke="rgb(178,178,178)" stroke-width="40" stroke-linejoin="round" d="M 16472,9395 L 16170,8695 15162,9279 15464,9979 16472,9395 Z"/>
        </g>
       </g>
       <g class="com.sun.star.drawing.LineShape">
        <g id="id10">
         <rect class="BoundingBox" stroke="none" fill="none" x="15342" y="9141" width="1049" height="625"/>
         <path fill="none" stroke="rgb(178,178,178)" stroke-width="40" stroke-linejoin="round" d="M 16370,9161 L 15362,9745"/>
        </g>
       </g>
       <g class="com.sun.star.drawing.LineShape">
        <g id="id11">
         <rect class="BoundingBox" stroke="none" fill="none" x="15242" y="8909" width="1049" height="625"/>
         <path fill="none" stroke="rgb(178,178,178)" stroke-width="40" stroke-linejoin="round" d="M 15262,9513 L 16270,8929"/>
        </g>
       </g>
       <g class="com.sun.star.drawing.LineShape">
        <g id="id12">
         <rect class="BoundingBox" stroke="none" fill="none" x="15948" y="8791" width="343" height="741"/>
         <path fill="none" stroke="rgb(178,178,178)" stroke-width="40" stroke-linejoin="round" d="M 15968,8811 L 16270,9511"/>
        </g>
       </g>
       <g class="com.sun.star.drawing.LineShape">
        <g id="id13">
         <rect class="BoundingBox" stroke="none" fill="none" x="15746" y="8909" width="343" height="741"/>
         <path fill="none" stroke="rgb(178,178,178)" stroke-width="40" stroke-linejoin="round" d="M 15766,8929 L 16068,9629"/>
        </g>
       </g>
       <g class="com.sun.star.drawing.LineShape">
        <g id="id14">
         <rect class="BoundingBox" stroke="none" fill="none" x="15544" y="9025" width="343" height="741"/>
         <path fill="none" stroke="rgb(178,178,178)" stroke-width="40" stroke-linejoin="round" d="M 15564,9045 L 15866,9745"/>
        </g>
       </g>
       <g class="com.sun.star.drawing.LineShape">
        <g id="id15">
         <rect class="BoundingBox" stroke="none" fill="none" x="15343" y="9141" width="343" height="741"/>
         <path fill="none" stroke="rgb(178,178,178)" stroke-width="40" stroke-linejoin="round" d="M 15363,9161 L 15665,9861"/>
        </g>
       </g>
      </g>
      <g class="com.sun.star.drawing.PolyPolygonShape">
       <g id="id16">
        <rect class="BoundingBox" stroke="none" fill="none" x="14833" y="7656" width="847" height="857"/>
        <g>
         <defs>
          <linearGradient id="gradient3" x1="14852" y1="8084" x2="15660" y2="8084" gradientUnits="userSpaceOnUse">
           <stop offset="0.1" style="stop-color:rgb(147,212,240)"/>
           <stop offset="1" style="stop-color:rgb(233,246,252)"/>
          </linearGradient>
         </defs>
         <path style="fill:url(#gradient3)" d="M 15659,8142 L 15457,7676 14853,8026 15055,8492 15659,8142 Z"/>
        </g>
        <path fill="none" stroke="rgb(51,51,51)" stroke-width="40" stroke-linejoin="round" d="M 15659,8142 L 15457,7676 14853,8026 15055,8492 15659,8142 Z"/>
       </g>
      </g>
      <g class="com.sun.star.drawing.PolyPolygonShape">
       <g id="id17">
        <rect class="BoundingBox" stroke="none" fill="none" x="15437" y="8531" width="243" height="332"/>
        <path fill="rgb(255,255,255)" stroke="none" d="M 15659,8785 L 15558,8551 15457,8610 15558,8842 15659,8785 Z"/>
        <path fill="none" stroke="rgb(51,51,51)" stroke-width="40" stroke-linejoin="round" d="M 15659,8785 L 15558,8551 15457,8610 15558,8842 15659,8785 Z"/>
       </g>
      </g>
      <g class="com.sun.star.drawing.LineShape">
       <g id="id18">
        <rect class="BoundingBox" stroke="none" fill="none" x="14674" y="8065" width="141" height="100"/>
        <path fill="none" stroke="rgb(178,178,178)" stroke-width="40" stroke-linejoin="round" d="M 14794,8085 L 14694,8144"/>
       </g>
      </g>
      <g class="com.sun.star.drawing.LineShape">
       <g id="id19">
        <rect class="BoundingBox" stroke="none" fill="none" x="14731" y="8181" width="141" height="100"/>
        <path fill="none" stroke="rgb(178,178,178)" stroke-width="40" stroke-linejoin="round" d="M 14851,8201 L 14751,8260"/>
       </g>
      </g>
      <g class="com.sun.star.drawing.LineShape">
       <g id="id20">
        <rect class="BoundingBox" stroke="none" fill="none" x="14774" y="8297" width="141" height="100"/>
        <path fill="none" stroke="rgb(178,178,178)" stroke-width="40" stroke-linejoin="round" d="M 14894,8317 L 14794,8376"/>
       </g>
      </g>
      <g class="com.sun.star.drawing.LineShape">
       <g id="id21">
        <rect class="BoundingBox" stroke="none" fill="none" x="14833" y="8415" width="141" height="100"/>
        <path fill="none" stroke="rgb(178,178,178)" stroke-width="40" stroke-linejoin="round" d="M 14953,8435 L 14853,8494"/>
       </g>
      </g>
      <g class="com.sun.star.drawing.LineShape">
       <g id="id22">
        <rect class="BoundingBox" stroke="none" fill="none" x="15538" y="7597" width="141" height="100"/>
        <path fill="none" stroke="rgb(178,178,178)" stroke-width="40" stroke-linejoin="round" d="M 15658,7617 L 15558,7676"/>
       </g>
      </g>
      <g class="com.sun.star.drawing.LineShape">
       <g id="id23">
        <rect class="BoundingBox" stroke="none" fill="none" x="15596" y="7715" width="141" height="100"/>
        <path fill="none" stroke="rgb(178,178,178)" stroke-width="40" stroke-linejoin="round" d="M 15716,7735 L 15616,7794"/>
       </g>
      </g>
      <g class="com.sun.star.drawing.LineShape">
       <g id="id24">
        <rect class="BoundingBox" stroke="none" fill="none" x="15639" y="7831" width="141" height="100"/>
        <path fill="none" stroke="rgb(178,178,178)" stroke-width="40" stroke-linejoin="round" d="M 15759,7851 L 15659,7910"/>
       </g>
      </g>
      <g class="com.sun.star.drawing.LineShape">
       <g id="id25">
        <rect class="BoundingBox" stroke="none" fill="none" x="15697" y="7947" width="141" height="100"/>
        <path fill="none" stroke="rgb(178,178,178)" stroke-width="40" stroke-linejoin="round" d="M 15817,7967 L 15717,8026"/>
       </g>
      </g>
      <g class="com.sun.star.drawing.LineShape">
       <g id="id26">
        <rect class="BoundingBox" stroke="none" fill="none" x="15639" y="8181" width="141" height="100"/>
        <path fill="none" stroke="rgb(178,178,178)" stroke-width="40" stroke-linejoin="round" d="M 15759,8201 L 15659,8260"/>
       </g>
      </g>
      <g class="com.sun.star.drawing.LineShape">
       <g id="id27">
        <rect class="BoundingBox" stroke="none" fill="none" x="15437" y="8297" width="141" height="100"/>
        <path fill="none" stroke="rgb(178,178,178)" stroke-width="40" stroke-linejoin="round" d="M 15557,8317 L 15457,8376"/>
       </g>
      </g>
      <g class="com.sun.star.drawing.LineShape">
       <g id="id28">
        <rect class="BoundingBox" stroke="none" fill="none" x="15235" y="8415" width="141" height="100"/>
        <path fill="none" stroke="rgb(178,178,178)" stroke-width="40" stroke-linejoin="round" d="M 15355,8435 L 15255,8494"/>
       </g>
      </g>
      <g class="com.sun.star.drawing.LineShape">
       <g id="id29">
        <rect class="BoundingBox" stroke="none" fill="none" x="15033" y="8531" width="141" height="100"/>
        <path fill="none" stroke="rgb(178,178,178)" stroke-width="40" stroke-linejoin="round" d="M 15153,8551 L 15053,8610"/>
       </g>
      </g>
      <g class="com.sun.star.drawing.PolyPolygonShape">
       <g id="id30">
        <rect class="BoundingBox" stroke="none" fill="none" x="13613" y="7177" width="3065" height="3541"/>
        <path fill="none" stroke="rgb(0,0,0)" stroke-width="40" stroke-linejoin="round" d="M 16656,9531 L 15648,7197 13633,8363 13633,8713 13733,8947 13733,10056 14338,10406 14439,10581 14641,10697 16656,9531 Z"/>
       </g>
      </g>
     </g>
    </g>
   </g>
  </g>
 </g>
</svg>