<?xml version="1.0" encoding="UTF-8"?>
<!DOCTYPE svg PUBLIC "-//W3C//DTD SVG 1.1//EN" "http://www.w3.org/Graphics/SVG/1.1/DTD/svg11.dtd">
<svg version="1.2" width="30.63mm" height="35.4mm" viewBox="6302 9196 3063 3540" preserveAspectRatio="xMidYMid" fill-rule="evenodd" stroke-width="28.222" stroke-linejoin="round" xmlns="http://www.w3.org/2000/svg" xmlns:ooo="http://xml.openoffice.org/svg/export" xmlns:xlink="http://www.w3.org/1999/xlink" xmlns:presentation="http://sun.com/xmlns/staroffice/presentation" xmlns:smil="http://www.w3.org/2001/SMIL20/" xmlns:anim="urn:oasis:names:tc:opendocument:xmlns:animation:1.0" xml:space="preserve">
 <defs class="ClipPathGroup">
  <clipPath id="presentation_clip_path" clipPathUnits="userSpaceOnUse">
   <rect x="6302" y="9196" width="3063" height="3540"/>
  </clipPath>
 </defs>
 <defs class="TextShapeIndex">
  <g ooo:slide="id1" ooo:id-list="id3 id4 id5 id6 id7 id8 id9 id10 id11 id12 id13 id14 id15 id16 id17 id18 id19 id20 id21 id22 id23 id24 id25 id26 id27 id28 id29 id30"/>
 </defs>
 <defs class="EmbeddedBulletChars">
  <g id="bullet-char-template(57356)" transform="scale(0.00048828125,-0.00048828125)">
   <path d="M 580,1141 L 1163,571 580,0 -4,571 580,1141 Z"/>
  </g>
  <g id="bullet-char-template(57354)" transform="scale(0.00048828125,-0.00048828125)">
   <path d="M 8,1128 L 1137,1128 1137,0 8,0 8,1128 Z"/>
  </g>
  <g id="bullet-char-template(10146)" transform="scale(0.00048828125,-0.00048828125)">
   <path d="M 174,0 L 602,739 174,1481 1456,739 174,0 Z M 1358,739 L 309,1346 659,739 1358,739 Z"/>
  </g>
  <g id="bullet-char-template(10132)" transform="scale(0.00048828125,-0.00048828125)">
   <path d="M 2015,739 L 1276,0 717,0 1260,543 174,543 174,936 1260,936 717,1481 1274,1481 2015,739 Z"/>
  </g>
  <g id="bullet-char-template(10007)" transform="scale(0.00048828125,-0.00048828125)">
   <path d="M 0,-2 C -7,14 -16,27 -25,37 L 356,567 C 262,823 215,952 215,954 215,979 228,992 255,992 264,992 276,990 289,987 310,991 331,999 354,1012 L 381,999 492,748 772,1049 836,1024 860,1049 C 881,1039 901,1025 922,1006 886,937 835,863 770,784 769,783 710,716 594,584 L 774,223 C 774,196 753,168 711,139 L 727,119 C 717,90 699,76 672,76 641,76 570,178 457,381 L 164,-76 C 142,-110 111,-127 72,-127 30,-127 9,-110 8,-76 1,-67 -2,-52 -2,-32 -2,-23 -1,-13 0,-2 Z"/>
  </g>
  <g id="bullet-char-template(10004)" transform="scale(0.00048828125,-0.00048828125)">
   <path d="M 285,-33 C 182,-33 111,30 74,156 52,228 41,333 41,471 41,549 55,616 82,672 116,743 169,778 240,778 293,778 328,747 346,684 L 369,508 C 377,444 397,411 428,410 L 1163,1116 C 1174,1127 1196,1133 1229,1133 1271,1133 1292,1118 1292,1087 L 1292,965 C 1292,929 1282,901 1262,881 L 442,47 C 390,-6 338,-33 285,-33 Z"/>
  </g>
  <g id="bullet-char-template(9679)" transform="scale(0.00048828125,-0.00048828125)">
   <path d="M 813,0 C 632,0 489,54 383,161 276,268 223,411 223,592 223,773 276,916 383,1023 489,1130 632,1184 813,1184 992,1184 1136,1130 1245,1023 1353,916 1407,772 1407,592 1407,412 1353,268 1245,161 1136,54 992,0 813,0 Z"/>
  </g>
  <g id="bullet-char-template(8226)" transform="scale(0.00048828125,-0.00048828125)">
   <path d="M 346,457 C 273,457 209,483 155,535 101,586 74,649 74,723 74,796 101,859 155,911 209,963 273,989 346,989 419,989 480,963 531,910 582,859 608,796 608,723 608,648 583,586 532,535 482,483 420,457 346,457 Z"/>
  </g>
  <g id="bullet-char-template(8211)" transform="scale(0.00048828125,-0.00048828125)">
   <path d="M -4,459 L 1135,459 1135,606 -4,606 -4,459 Z"/>
  </g>
 </defs>
 <defs class="TextEmbeddedBitmaps"/>
 <g class="SlideGroup">
  <g>
   <g id="id1" class="Slide" clip-path="url(#presentation_clip_path)">
    <g class="Page">
     <g class="Group">
      <g class="com.sun.star.drawing.PolyPolygonShape">
       <g id="id3">
        <rect class="BoundingBox" stroke="none" fill="none" x="6403" y="10655" width="847" height="1907"/>
        <g>
         <defs>
          <linearGradient id="gradient1" x1="6422" y1="11608" x2="7230" y2="11608" gradientUnits="userSpaceOnUse">
           <stop offset="0.1" style="stop-color:rgb(179,179,179)"/>
           <stop offset="1" style="stop-color:rgb(229,229,229)"/>
          </linearGradient>
         </defs>
         <path style="fill:url(#gradient1)" d="M 6423,10675 L 6423,12075 7229,12541 6423,10675 Z"/>
        </g>
        <path fill="none" stroke="rgb(128,128,128)" stroke-width="40" stroke-linejoin="round" d="M 6423,10675 L 6423,12075 7229,12541 6423,10675 Z"/>
       </g>
      </g>
      <g class="com.sun.star.drawing.PolyPolygonShape">
       <g id="id4">
        <rect class="BoundingBox" stroke="none" fill="none" x="6301" y="10362" width="1050" height="2375"/>
        <g>
         <defs>
          <linearGradient id="gradient2" x1="6321" y1="11549" x2="7331" y2="11549" gradientUnits="userSpaceOnUse">
           <stop offset="0.1" style="stop-color:rgb(179,179,179)"/>
           <stop offset="1" style="stop-color:rgb(229,229,229)"/>
          </linearGradient>
         </defs>
         <path style="fill:url(#gradient2)" d="M 6322,10382 L 6322,10732 7128,12598 7330,12716 6322,10382 Z"/>
        </g>
        <path fill="none" stroke="rgb(127,127,127)" stroke-width="40" stroke-linejoin="round" d="M 6322,10382 L 6322,10732 7128,12598 7330,12716 6322,10382 Z"/>
       </g>
      </g>
      <g class="com.sun.star.drawing.PolyPolygonShape">
       <g id="id5">
        <rect class="BoundingBox" stroke="none" fill="none" x="6302" y="9196" width="3065" height="3542"/>
        <g>
         <defs>
          <pattern id="pattern1" x="6322" y="9216" width="3024" height="3501" patternUnits="userSpaceOnUse">
           <g transform="translate(-6322,-9216)">
            <path fill="rgb(179,179,179)" stroke="none" d="M 6321,9215 L 9346,9215 9346,12717 6321,12717 6321,9215 Z M 5746,8550 L 8709,8550 8709,11980 5746,11980 5746,8550 Z"/>
            <path fill="rgb(180,180,180)" stroke="none" d="M 5746,8550 L 8709,8550 8709,11980 5746,11980 5746,8550 Z M 5776,8585 L 8679,8585 8679,11945 5776,11945 5776,8585 Z"/>
            <path fill="rgb(181,181,181)" stroke="none" d="M 5776,8585 L 8679,8585 8679,11945 5776,11945 5776,8585 Z M 5806,8620 L 8649,8620 8649,11910 5806,11910 5806,8620 Z"/>
            <path fill="rgb(182,182,182)" stroke="none" d="M 5806,8620 L 8649,8620 8649,11910 5806,11910 5806,8620 Z M 5837,8655 L 8618,8655 8618,11875 5837,11875 5837,8655 Z"/>
            <path fill="rgb(183,183,183)" stroke="none" d="M 5837,8655 L 8618,8655 8618,11875 5837,11875 5837,8655 Z M 5867,8690 L 8588,8690 8588,11840 5867,11840 5867,8690 Z"/>
            <path fill="rgb(184,184,184)" stroke="none" d="M 5867,8690 L 8588,8690 8588,11840 5867,11840 5867,8690 Z M 5897,8725 L 8558,8725 8558,11805 5897,11805 5897,8725 Z"/>
            <path fill="rgb(185,185,185)" stroke="none" d="M 5897,8725 L 8558,8725 8558,11805 5897,11805 5897,8725 Z M 5927,8760 L 8528,8760 8528,11770 5927,11770 5927,8760 Z"/>
            <path fill="rgb(186,186,186)" stroke="none" d="M 5927,8760 L 8528,8760 8528,11770 5927,11770 5927,8760 Z M 5958,8795 L 8497,8795 8497,11735 5958,11735 5958,8795 Z"/>
            <path fill="rgb(187,187,187)" stroke="none" d="M 5958,8795 L 8497,8795 8497,11735 5958,11735 5958,8795 Z M 5988,8830 L 8467,8830 8467,11700 5988,11700 5988,8830 Z"/>
            <path fill="rgb(188,188,188)" stroke="none" d="M 5988,8830 L 8467,8830 8467,11700 5988,11700 5988,8830 Z M 6018,8865 L 8437,8865 8437,11665 6018,11665 6018,8865 Z"/>
            <path fill="rgb(189,189,189)" stroke="none" d="M 6018,8865 L 8437,8865 8437,11665 6018,11665 6018,8865 Z M 6048,8900 L 8407,8900 8407,11630 6048,11630 6048,8900 Z"/>
            <path fill="rgb(190,190,190)" stroke="none" d="M 6048,8900 L 8407,8900 8407,11630 6048,11630 6048,8900 Z M 6079,8935 L 8376,8935 8376,11595 6079,11595 6079,8935 Z"/>
            <path fill="rgb(191,191,191)" stroke="none" d="M 6079,8935 L 8376,8935 8376,11595 6079,11595 6079,8935 Z M 6109,8970 L 8346,8970 8346,11560 6109,11560 6109,8970 Z"/>
            <path fill="rgb(192,192,192)" stroke="none" d="M 6109,8970 L 8346,8970 8346,11560 6109,11560 6109,8970 Z M 6139,9005 L 8316,9005 8316,11525 6139,11525 6139,9005 Z"/>
            <path fill="rgb(193,193,193)" stroke="none" d="M 6139,9005 L 8316,9005 8316,11525 6139,11525 6139,9005 Z M 6169,9040 L 8286,9040 8286,11490 6169,11490 6169,9040 Z"/>
            <path fill="rgb(194,194,194)" stroke="none" d="M 6169,9040 L 8286,9040 8286,11490 6169,11490 6169,9040 Z M 6200,9075 L 8255,9075 8255,11455 6200,11455 6200,9075 Z"/>
            <path fill="rgb(195,195,195)" stroke="none" d="M 6200,9075 L 8255,9075 8255,11455 6200,11455 6200,9075 Z M 6230,9110 L 8225,9110 8225,11420 6230,11420 6230,9110 Z"/>
            <path fill="rgb(196,196,196)" stroke="none" d="M 6230,9110 L 8225,9110 8225,11420 6230,11420 6230,9110 Z M 6260,9145 L 8195,9145 8195,11385 6260,11385 6260,9145 Z"/>
            <path fill="rgb(197,197,197)" stroke="none" d="M 6260,9145 L 8195,9145 8195,11385 6260,11385 6260,9145 Z M 6290,9180 L 8165,9180 8165,11350 6290,11350 6290,9180 Z"/>
            <path fill="rgb(198,198,198)" stroke="none" d="M 6290,9180 L 8165,9180 8165,11350 6290,11350 6290,9180 Z M 6320,9214 L 8134,9214 8134,11315 6320,11315 6320,9214 Z"/>
            <path fill="rgb(199,199,199)" stroke="none" d="M 6320,9214 L 8134,9214 8134,11315 6320,11315 6320,9214 Z M 6350,9249 L 8104,9249 8104,11280 6350,11280 6350,9249 Z"/>
            <path fill="rgb(200,200,200)" stroke="none" d="M 6350,9249 L 8104,9249 8104,11280 6350,11280 6350,9249 Z M 6380,9284 L 8074,9284 8074,11245 6380,11245 6380,9284 Z"/>
            <path fill="rgb(201,201,201)" stroke="none" d="M 6380,9284 L 8074,9284 8074,11245 6380,11245 6380,9284 Z M 6410,9319 L 8044,9319 8044,11210 6410,11210 6410,9319 Z"/>
            <path fill="rgb(202,202,202)" stroke="none" d="M 6410,9319 L 8044,9319 8044,11210 6410,11210 6410,9319 Z M 6441,9354 L 8013,9354 8013,11175 6441,11175 6441,9354 Z"/>
            <path fill="rgb(203,203,203)" stroke="none" d="M 6441,9354 L 8013,9354 8013,11175 6441,11175 6441,9354 Z M 6471,9389 L 7983,9389 7983,11140 6471,11140 6471,9389 Z"/>
            <path fill="rgb(204,204,204)" stroke="none" d="M 6471,9389 L 7983,9389 7983,11140 6471,11140 6471,9389 Z M 6501,9424 L 7953,9424 7953,11105 6501,11105 6501,9424 Z"/>
            <path fill="rgb(205,205,205)" stroke="none" d="M 6501,9424 L 7953,9424 7953,11105 6501,11105 6501,9424 Z M 6532,9459 L 7922,9459 7922,11070 6532,11070 6532,9459 Z"/>
            <path fill="rgb(206,206,206)" stroke="none" d="M 6532,9459 L 7922,9459 7922,11070 6532,11070 6532,9459 Z M 6562,9494 L 7892,9494 7892,11035 6562,11035 6562,9494 Z"/>
            <path fill="rgb(207,207,207)" stroke="none" d="M 6562,9494 L 7892,9494 7892,11035 6562,11035 6562,9494 Z M 6592,9529 L 7862,9529 7862,11000 6592,11000 6592,9529 Z"/>
            <path fill="rgb(208,208,208)" stroke="none" d="M 6592,9529 L 7862,9529 7862,11000 6592,11000 6592,9529 Z M 6622,9564 L 7832,9564 7832,10965 6622,10965 6622,9564 Z"/>
            <path fill="rgb(209,209,209)" stroke="none" d="M 6622,9564 L 7832,9564 7832,10965 6622,10965 6622,9564 Z M 6653,9599 L 7801,9599 7801,10930 6653,10930 6653,9599 Z"/>
            <path fill="rgb(210,210,210)" stroke="none" d="M 6653,9599 L 7801,9599 7801,10930 6653,10930 6653,9599 Z M 6683,9634 L 7771,9634 7771,10895 6683,10895 6683,9634 Z"/>
            <path fill="rgb(211,211,211)" stroke="none" d="M 6683,9634 L 7771,9634 7771,10895 6683,10895 6683,9634 Z M 6713,9669 L 7741,9669 7741,10860 6713,10860 6713,9669 Z"/>
            <path fill="rgb(212,212,212)" stroke="none" d="M 6713,9669 L 7741,9669 7741,10860 6713,10860 6713,9669 Z M 6743,9705 L 7711,9705 7711,10824 6743,10824 6743,9705 Z"/>
            <path fill="rgb(213,213,213)" stroke="none" d="M 6743,9705 L 7711,9705 7711,10824 6743,10824 6743,9705 Z M 6774,9740 L 7680,9740 7680,10789 6774,10789 6774,9740 Z"/>
            <path fill="rgb(214,214,214)" stroke="none" d="M 6774,9740 L 7680,9740 7680,10789 6774,10789 6774,9740 Z M 6804,9775 L 7650,9775 7650,10754 6804,10754 6804,9775 Z"/>
            <path fill="rgb(215,215,215)" stroke="none" d="M 6804,9775 L 7650,9775 7650,10754 6804,10754 6804,9775 Z M 6834,9810 L 7620,9810 7620,10719 6834,10719 6834,9810 Z"/>
            <path fill="rgb(216,216,216)" stroke="none" d="M 6834,9810 L 7620,9810 7620,10719 6834,10719 6834,9810 Z M 6864,9845 L 7590,9845 7590,10684 6864,10684 6864,9845 Z"/>
            <path fill="rgb(217,217,217)" stroke="none" d="M 6864,9845 L 7590,9845 7590,10684 6864,10684 6864,9845 Z M 6895,9880 L 7559,9880 7559,10649 6895,10649 6895,9880 Z"/>
            <path fill="rgb(218,218,218)" stroke="none" d="M 6895,9880 L 7559,9880 7559,10649 6895,10649 6895,9880 Z M 6925,9915 L 7529,9915 7529,10614 6925,10614 6925,9915 Z"/>
            <path fill="rgb(219,219,219)" stroke="none" d="M 6925,9915 L 7529,9915 7529,10614 6925,10614 6925,9915 Z M 6955,9950 L 7499,9950 7499,10579 6955,10579 6955,9950 Z"/>
            <path fill="rgb(220,220,220)" stroke="none" d="M 6955,9950 L 7499,9950 7499,10579 6955,10579 6955,9950 Z M 6985,9985 L 7469,9985 7469,10544 6985,10544 6985,9985 Z"/>
            <path fill="rgb(221,221,221)" stroke="none" d="M 6985,9985 L 7469,9985 7469,10544 6985,10544 6985,9985 Z M 7016,10020 L 7438,10020 7438,10509 7016,10509 7016,10020 Z"/>
            <path fill="rgb(222,222,222)" stroke="none" d="M 7016,10020 L 7438,10020 7438,10509 7016,10509 7016,10020 Z M 7046,10055 L 7408,10055 7408,10474 7046,10474 7046,10055 Z"/>
            <path fill="rgb(223,223,223)" stroke="none" d="M 7046,10055 L 7408,10055 7408,10474 7046,10474 7046,10055 Z M 7076,10090 L 7378,10090 7378,10439 7076,10439 7076,10090 Z"/>
            <path fill="rgb(224,224,224)" stroke="none" d="M 7076,10090 L 7378,10090 7378,10439 7076,10439 7076,10090 Z M 7106,10125 L 7348,10125 7348,10404 7106,10404 7106,10125 Z"/>
            <path fill="rgb(225,225,225)" stroke="none" d="M 7106,10125 L 7348,10125 7348,10404 7106,10404 7106,10125 Z M 7137,10160 L 7317,10160 7317,10369 7137,10369 7137,10160 Z"/>
            <path fill="rgb(226,226,226)" stroke="none" d="M 7137,10160 L 7317,10160 7317,10369 7137,10369 7137,10160 Z M 7167,10195 L 7287,10195 7287,10334 7167,10334 7167,10195 Z"/>
            <path fill="rgb(227,227,227)" stroke="none" d="M 7167,10195 L 7287,10195 7287,10334 7167,10334 7167,10195 Z M 7197,10230 L 7257,10230 7257,10299 7197,10299 7197,10230 Z"/>
            <path fill="rgb(229,229,229)" stroke="none" d="M 7197,10230 L 7257,10230 7257,10299 7197,10299 7197,10230 Z"/>
           </g>
          </pattern>
         </defs>
         <path style="fill:url(#pattern1)" d="M 9345,11550 L 8337,9216 6322,10382 7330,12716 9345,11550 Z"/>
        </g>
        <path fill="none" stroke="rgb(255,255,255)" stroke-width="40" stroke-linejoin="round" d="M 9345,11550 L 8337,9216 6322,10382 7330,12716 9345,11550 Z"/>
       </g>
      </g>
      <g class="Group">
       <g class="com.sun.star.drawing.ClosedBezierShape">
        <g id="id6">
         <rect class="BoundingBox" stroke="none" fill="none" x="6468" y="10106" width="1452" height="2375"/>
         <g>
          <defs>
           <pattern id="pattern2" x="6488" y="10126" width="1412" height="2335" patternUnits="userSpaceOnUse">
            <g transform="translate(-6488,-10126)">
             <path fill="rgb(179,179,179)" stroke="none" d="M 6487,10125 L 7900,10125 7900,12461 6487,12461 6487,10125 Z M 6219,9682 L 7602,9682 7602,11970 6219,11970 6219,9682 Z"/>
             <path fill="rgb(180,180,180)" stroke="none" d="M 6219,9682 L 7602,9682 7602,11970 6219,11970 6219,9682 Z M 6233,9705 L 7588,9705 7588,11947 6233,11947 6233,9705 Z"/>
             <path fill="rgb(181,181,181)" stroke="none" d="M 6233,9705 L 7588,9705 7588,11947 6233,11947 6233,9705 Z M 6247,9729 L 7574,9729 7574,11923 6247,11923 6247,9729 Z"/>
             <path fill="rgb(182,182,182)" stroke="none" d="M 6247,9729 L 7574,9729 7574,11923 6247,11923 6247,9729 Z M 6261,9752 L 7560,9752 7560,11900 6261,11900 6261,9752 Z"/>
             <path fill="rgb(183,183,183)" stroke="none" d="M 6261,9752 L 7560,9752 7560,11900 6261,11900 6261,9752 Z M 6275,9775 L 7546,9775 7546,11877 6275,11877 6275,9775 Z"/>
             <path fill="rgb(184,184,184)" stroke="none" d="M 6275,9775 L 7546,9775 7546,11877 6275,11877 6275,9775 Z M 6289,9799 L 7532,9799 7532,11853 6289,11853 6289,9799 Z"/>
             <path fill="rgb(185,185,185)" stroke="none" d="M 6289,9799 L 7532,9799 7532,11853 6289,11853 6289,9799 Z M 6303,9822 L 7518,9822 7518,11830 6303,11830 6303,9822 Z"/>
             <path fill="rgb(186,186,186)" stroke="none" d="M 6303,9822 L 7518,9822 7518,11830 6303,11830 6303,9822 Z M 6318,9845 L 7503,9845 7503,11807 6318,11807 6318,9845 Z"/>
             <path fill="rgb(187,187,187)" stroke="none" d="M 6318,9845 L 7503,9845 7503,11807 6318,11807 6318,9845 Z M 6332,9869 L 7489,9869 7489,11783 6332,11783 6332,9869 Z"/>
             <path fill="rgb(188,188,188)" stroke="none" d="M 6332,9869 L 7489,9869 7489,11783 6332,11783 6332,9869 Z M 6346,9892 L 7475,9892 7475,11760 6346,11760 6346,9892 Z"/>
             <path fill="rgb(189,189,189)" stroke="none" d="M 6346,9892 L 7475,9892 7475,11760 6346,11760 6346,9892 Z M 6360,9916 L 7461,9916 7461,11736 6360,11736 6360,9916 Z"/>
             <path fill="rgb(190,190,190)" stroke="none" d="M 6360,9916 L 7461,9916 7461,11736 6360,11736 6360,9916 Z M 6374,9939 L 7447,9939 7447,11713 6374,11713 6374,9939 Z"/>
             <path fill="rgb(191,191,191)" stroke="none" d="M 6374,9939 L 7447,9939 7447,11713 6374,11713 6374,9939 Z M 6388,9962 L 7433,9962 7433,11690 6388,11690 6388,9962 Z"/>
             <path fill="rgb(192,192,192)" stroke="none" d="M 6388,9962 L 7433,9962 7433,11690 6388,11690 6388,9962 Z M 6402,9986 L 7419,9986 7419,11666 6402,11666 6402,9986 Z"/>
             <path fill="rgb(193,193,193)" stroke="none" d="M 6402,9986 L 7419,9986 7419,11666 6402,11666 6402,9986 Z M 6417,10009 L 7404,10009 7404,11643 6417,11643 6417,10009 Z"/>
             <path fill="rgb(194,194,194)" stroke="none" d="M 6417,10009 L 7404,10009 7404,11643 6417,11643 6417,10009 Z M 6431,10032 L 7390,10032 7390,11620 6431,11620 6431,10032 Z"/>
             <path fill="rgb(195,195,195)" stroke="none" d="M 6431,10032 L 7390,10032 7390,11620 6431,11620 6431,10032 Z M 6445,10056 L 7376,10056 7376,11596 6445,11596 6445,10056 Z"/>
             <path fill="rgb(196,196,196)" stroke="none" d="M 6445,10056 L 7376,10056 7376,11596 6445,11596 6445,10056 Z M 6459,10079 L 7362,10079 7362,11573 6459,11573 6459,10079 Z"/>
             <path fill="rgb(197,197,197)" stroke="none" d="M 6459,10079 L 7362,10079 7362,11573 6459,11573 6459,10079 Z M 6472,10103 L 7348,10103 7348,11549 6472,11549 6472,10103 Z"/>
             <path fill="rgb(198,198,198)" stroke="none" d="M 6472,10103 L 7348,10103 7348,11549 6472,11549 6472,10103 Z M 6486,10125 L 7334,10125 7334,11526 6486,11526 6486,10125 Z"/>
             <path fill="rgb(199,199,199)" stroke="none" d="M 6486,10125 L 7334,10125 7334,11526 6486,11526 6486,10125 Z M 6500,10148 L 7320,10148 7320,11503 6500,11503 6500,10148 Z"/>
             <path fill="rgb(200,200,200)" stroke="none" d="M 6500,10148 L 7320,10148 7320,11503 6500,11503 6500,10148 Z M 6515,10172 L 7305,10172 7305,11479 6515,11479 6515,10172 Z"/>
             <path fill="rgb(201,201,201)" stroke="none" d="M 6515,10172 L 7305,10172 7305,11479 6515,11479 6515,10172 Z M 6529,10195 L 7291,10195 7291,11456 6529,11456 6529,10195 Z"/>
             <path fill="rgb(202,202,202)" stroke="none" d="M 6529,10195 L 7291,10195 7291,11456 6529,11456 6529,10195 Z M 6543,10218 L 7277,10218 7277,11433 6543,11433 6543,10218 Z"/>
             <path fill="rgb(203,203,203)" stroke="none" d="M 6543,10218 L 7277,10218 7277,11433 6543,11433 6543,10218 Z M 6557,10242 L 7263,10242 7263,11409 6557,11409 6557,10242 Z"/>
             <path fill="rgb(204,204,204)" stroke="none" d="M 6557,10242 L 7263,10242 7263,11409 6557,11409 6557,10242 Z M 6571,10265 L 7249,10265 7249,11386 6571,11386 6571,10265 Z"/>
             <path fill="rgb(205,205,205)" stroke="none" d="M 6571,10265 L 7249,10265 7249,11386 6571,11386 6571,10265 Z M 6585,10288 L 7235,10288 7235,11363 6585,11363 6585,10288 Z"/>
             <path fill="rgb(206,206,206)" stroke="none" d="M 6585,10288 L 7235,10288 7235,11363 6585,11363 6585,10288 Z M 6599,10312 L 7221,10312 7221,11339 6599,11339 6599,10312 Z"/>
             <path fill="rgb(207,207,207)" stroke="none" d="M 6599,10312 L 7221,10312 7221,11339 6599,11339 6599,10312 Z M 6614,10335 L 7206,10335 7206,11316 6614,11316 6614,10335 Z"/>
             <path fill="rgb(208,208,208)" stroke="none" d="M 6614,10335 L 7206,10335 7206,11316 6614,11316 6614,10335 Z M 6628,10359 L 7192,10359 7192,11292 6628,11292 6628,10359 Z"/>
             <path fill="rgb(209,209,209)" stroke="none" d="M 6628,10359 L 7192,10359 7192,11292 6628,11292 6628,10359 Z M 6642,10382 L 7178,10382 7178,11269 6642,11269 6642,10382 Z"/>
             <path fill="rgb(210,210,210)" stroke="none" d="M 6642,10382 L 7178,10382 7178,11269 6642,11269 6642,10382 Z M 6656,10405 L 7164,10405 7164,11246 6656,11246 6656,10405 Z"/>
             <path fill="rgb(211,211,211)" stroke="none" d="M 6656,10405 L 7164,10405 7164,11246 6656,11246 6656,10405 Z M 6670,10429 L 7150,10429 7150,11222 6670,11222 6670,10429 Z"/>
             <path fill="rgb(212,212,212)" stroke="none" d="M 6670,10429 L 7150,10429 7150,11222 6670,11222 6670,10429 Z M 6684,10452 L 7136,10452 7136,11199 6684,11199 6684,10452 Z"/>
             <path fill="rgb(213,213,213)" stroke="none" d="M 6684,10452 L 7136,10452 7136,11199 6684,11199 6684,10452 Z M 6698,10475 L 7122,10475 7122,11176 6698,11176 6698,10475 Z"/>
             <path fill="rgb(214,214,214)" stroke="none" d="M 6698,10475 L 7122,10475 7122,11176 6698,11176 6698,10475 Z M 6713,10499 L 7107,10499 7107,11152 6713,11152 6713,10499 Z"/>
             <path fill="rgb(215,215,215)" stroke="none" d="M 6713,10499 L 7107,10499 7107,11152 6713,11152 6713,10499 Z M 6727,10522 L 7093,10522 7093,11129 6727,11129 6727,10522 Z"/>
             <path fill="rgb(216,216,216)" stroke="none" d="M 6727,10522 L 7093,10522 7093,11129 6727,11129 6727,10522 Z M 6741,10546 L 7079,10546 7079,11105 6741,11105 6741,10546 Z"/>
             <path fill="rgb(217,217,217)" stroke="none" d="M 6741,10546 L 7079,10546 7079,11105 6741,11105 6741,10546 Z M 6755,10569 L 7065,10569 7065,11082 6755,11082 6755,10569 Z"/>
             <path fill="rgb(218,218,218)" stroke="none" d="M 6755,10569 L 7065,10569 7065,11082 6755,11082 6755,10569 Z M 6769,10592 L 7051,10592 7051,11059 6769,11059 6769,10592 Z"/>
             <path fill="rgb(219,219,219)" stroke="none" d="M 6769,10592 L 7051,10592 7051,11059 6769,11059 6769,10592 Z M 6783,10616 L 7037,10616 7037,11035 6783,11035 6783,10616 Z"/>
             <path fill="rgb(220,220,220)" stroke="none" d="M 6783,10616 L 7037,10616 7037,11035 6783,11035 6783,10616 Z M 6797,10639 L 7023,10639 7023,11012 6797,11012 6797,10639 Z"/>
             <path fill="rgb(221,221,221)" stroke="none" d="M 6797,10639 L 7023,10639 7023,11012 6797,11012 6797,10639 Z M 6812,10662 L 7008,10662 7008,10989 6812,10989 6812,10662 Z"/>
             <path fill="rgb(222,222,222)" stroke="none" d="M 6812,10662 L 7008,10662 7008,10989 6812,10989 6812,10662 Z M 6826,10686 L 6994,10686 6994,10965 6826,10965 6826,10686 Z"/>
             <path fill="rgb(223,223,223)" stroke="none" d="M 6826,10686 L 6994,10686 6994,10965 6826,10965 6826,10686 Z M 6840,10709 L 6980,10709 6980,10942 6840,10942 6840,10709 Z"/>
             <path fill="rgb(224,224,224)" stroke="none" d="M 6840,10709 L 6980,10709 6980,10942 6840,10942 6840,10709 Z M 6854,10733 L 6966,10733 6966,10918 6854,10918 6854,10733 Z"/>
             <path fill="rgb(225,225,225)" stroke="none" d="M 6854,10733 L 6966,10733 6966,10918 6854,10918 6854,10733 Z M 6868,10756 L 6952,10756 6952,10895 6868,10895 6868,10756 Z"/>
             <path fill="rgb(226,226,226)" stroke="none" d="M 6868,10756 L 6952,10756 6952,10895 6868,10895 6868,10756 Z M 6882,10779 L 6938,10779 6938,10872 6882,10872 6882,10779 Z"/>
             <path fill="rgb(227,227,227)" stroke="none" d="M 6882,10779 L 6938,10779 6938,10872 6882,10872 6882,10779 Z M 6896,10803 L 6924,10803 6924,10848 6896,10848 6896,10803 Z"/>
             <path fill="rgb(229,229,229)" stroke="none" d="M 6896,10803 L 6924,10803 6924,10848 6896,10848 6896,10803 Z"/>
            </g>
           </pattern>
          </defs>
          <path style="fill:url(#pattern2)" d="M 6992,10126 L 6934,10153 6885,10179 6790,10235 6488,10417 6690,10826 6700,10827 6710,10829 6731,10838 6754,10852 6778,10871 6828,10924 6882,10992 6936,11073 6991,11164 7093,11366 7176,11572 7207,11670 7228,11761 7239,11841 7240,11877 7238,11909 7233,11936 7224,11960 7218,11970 7211,11978 7203,11986 7194,11992 7395,12460 7899,12167 7897,12136 7892,12098 7872,12003 7800,11750 7692,11439 7559,11103 7412,10772 7262,10478 7188,10354 7118,10252 7052,10175 7021,10146 6992,10126 Z"/>
         </g>
         <path fill="none" stroke="rgb(127,127,127)" stroke-width="40" stroke-linejoin="round" d="M 6992,10126 C 6824,10203 6790,10242 6488,10417 6555,10553 6623,10690 6690,10826 6891,10826 7395,11876 7194,11992 7260,12149 7328,12303 7395,12460 7563,12362 7732,12265 7899,12167 7899,11876 7295,10301 6992,10126 Z"/>
        </g>
       </g>
       <g class="com.sun.star.drawing.OpenBezierShape">
        <g id="id7">
         <rect class="BoundingBox" stroke="none" fill="none" x="6570" y="10456" width="880" height="1907"/>
         <path fill="none" stroke="rgb(229,229,229)" stroke-width="40" stroke-linejoin="round" d="M 7396,12342 C 7598,11642 6792,10477 6590,10476"/>
        </g>
       </g>
      </g>
      <g class="com.sun.star.drawing.LineShape">
       <g id="id8">
        <rect class="BoundingBox" stroke="none" fill="none" x="7115" y="9896" width="1049" height="2375"/>
        <path fill="none" stroke="rgb(255,255,255)" stroke-width="40" stroke-linejoin="round" d="M 8143,12250 L 7135,9916"/>
       </g>
      </g>
      <g class="Group">
       <g class="com.sun.star.drawing.PolyPolygonShape">
        <g id="id9">
         <rect class="BoundingBox" stroke="none" fill="none" x="7831" y="10694" width="1351" height="1325"/>
         <g>
          <defs>
           <pattern id="pattern3" x="7851" y="10714" width="1311" height="1285" patternUnits="userSpaceOnUse">
            <g transform="translate(-7851,-10714)">
             <path fill="rgb(179,179,179)" stroke="none" d="M 7850,10713 L 9162,10713 9162,11999 7850,11999 7850,10713 Z M 7601,10469 L 8885,10469 8885,11729 7601,11729 7601,10469 Z"/>
             <path fill="rgb(180,180,180)" stroke="none" d="M 7601,10469 L 8885,10469 8885,11729 7601,11729 7601,10469 Z M 7614,10482 L 8872,10482 8872,11716 7614,11716 7614,10482 Z"/>
             <path fill="rgb(181,181,181)" stroke="none" d="M 7614,10482 L 8872,10482 8872,11716 7614,11716 7614,10482 Z M 7627,10495 L 8859,10495 8859,11703 7627,11703 7627,10495 Z"/>
             <path fill="rgb(182,182,182)" stroke="none" d="M 7627,10495 L 8859,10495 8859,11703 7627,11703 7627,10495 Z M 7640,10508 L 8846,10508 8846,11690 7640,11690 7640,10508 Z"/>
             <path fill="rgb(183,183,183)" stroke="none" d="M 7640,10508 L 8846,10508 8846,11690 7640,11690 7640,10508 Z M 7653,10521 L 8833,10521 8833,11677 7653,11677 7653,10521 Z"/>
             <path fill="rgb(184,184,184)" stroke="none" d="M 7653,10521 L 8833,10521 8833,11677 7653,11677 7653,10521 Z M 7666,10534 L 8820,10534 8820,11664 7666,11664 7666,10534 Z"/>
             <path fill="rgb(185,185,185)" stroke="none" d="M 7666,10534 L 8820,10534 8820,11664 7666,11664 7666,10534 Z M 7679,10547 L 8807,10547 8807,11651 7679,11651 7679,10547 Z"/>
             <path fill="rgb(186,186,186)" stroke="none" d="M 7679,10547 L 8807,10547 8807,11651 7679,11651 7679,10547 Z M 7693,10559 L 8793,10559 8793,11639 7693,11639 7693,10559 Z"/>
             <path fill="rgb(187,187,187)" stroke="none" d="M 7693,10559 L 8793,10559 8793,11639 7693,11639 7693,10559 Z M 7706,10572 L 8780,10572 8780,11626 7706,11626 7706,10572 Z"/>
             <path fill="rgb(188,188,188)" stroke="none" d="M 7706,10572 L 8780,10572 8780,11626 7706,11626 7706,10572 Z M 7719,10585 L 8767,10585 8767,11613 7719,11613 7719,10585 Z"/>
             <path fill="rgb(189,189,189)" stroke="none" d="M 7719,10585 L 8767,10585 8767,11613 7719,11613 7719,10585 Z M 7732,10598 L 8754,10598 8754,11600 7732,11600 7732,10598 Z"/>
             <path fill="rgb(190,190,190)" stroke="none" d="M 7732,10598 L 8754,10598 8754,11600 7732,11600 7732,10598 Z M 7745,10611 L 8741,10611 8741,11587 7745,11587 7745,10611 Z"/>
             <path fill="rgb(191,191,191)" stroke="none" d="M 7745,10611 L 8741,10611 8741,11587 7745,11587 7745,10611 Z M 7758,10624 L 8728,10624 8728,11574 7758,11574 7758,10624 Z"/>
             <path fill="rgb(192,192,192)" stroke="none" d="M 7758,10624 L 8728,10624 8728,11574 7758,11574 7758,10624 Z M 7771,10637 L 8715,10637 8715,11561 7771,11561 7771,10637 Z"/>
             <path fill="rgb(193,193,193)" stroke="none" d="M 7771,10637 L 8715,10637 8715,11561 7771,11561 7771,10637 Z M 7784,10650 L 8702,10650 8702,11548 7784,11548 7784,10650 Z"/>
             <path fill="rgb(194,194,194)" stroke="none" d="M 7784,10650 L 8702,10650 8702,11548 7784,11548 7784,10650 Z M 7798,10662 L 8688,10662 8688,11536 7798,11536 7798,10662 Z"/>
             <path fill="rgb(195,195,195)" stroke="none" d="M 7798,10662 L 8688,10662 8688,11536 7798,11536 7798,10662 Z M 7811,10675 L 8675,10675 8675,11523 7811,11523 7811,10675 Z"/>
             <path fill="rgb(196,196,196)" stroke="none" d="M 7811,10675 L 8675,10675 8675,11523 7811,11523 7811,10675 Z M 7824,10688 L 8662,10688 8662,11510 7824,11510 7824,10688 Z"/>
             <path fill="rgb(197,197,197)" stroke="none" d="M 7824,10688 L 8662,10688 8662,11510 7824,11510 7824,10688 Z M 7836,10700 L 8649,10700 8649,11497 7836,11497 7836,10700 Z"/>
             <path fill="rgb(198,198,198)" stroke="none" d="M 7836,10700 L 8649,10700 8649,11497 7836,11497 7836,10700 Z M 7849,10713 L 8636,10713 8636,11484 7849,11484 7849,10713 Z"/>
             <path fill="rgb(199,199,199)" stroke="none" d="M 7849,10713 L 8636,10713 8636,11484 7849,11484 7849,10713 Z M 7862,10726 L 8623,10726 8623,11471 7862,11471 7862,10726 Z"/>
             <path fill="rgb(200,200,200)" stroke="none" d="M 7862,10726 L 8623,10726 8623,11471 7862,11471 7862,10726 Z M 7875,10739 L 8610,10739 8610,11458 7875,11458 7875,10739 Z"/>
             <path fill="rgb(201,201,201)" stroke="none" d="M 7875,10739 L 8610,10739 8610,11458 7875,11458 7875,10739 Z M 7888,10752 L 8597,10752 8597,11445 7888,11445 7888,10752 Z"/>
             <path fill="rgb(202,202,202)" stroke="none" d="M 7888,10752 L 8597,10752 8597,11445 7888,11445 7888,10752 Z M 7902,10764 L 8583,10764 8583,11433 7902,11433 7902,10764 Z"/>
             <path fill="rgb(203,203,203)" stroke="none" d="M 7902,10764 L 8583,10764 8583,11433 7902,11433 7902,10764 Z M 7915,10777 L 8570,10777 8570,11420 7915,11420 7915,10777 Z"/>
             <path fill="rgb(204,204,204)" stroke="none" d="M 7915,10777 L 8570,10777 8570,11420 7915,11420 7915,10777 Z M 7928,10790 L 8557,10790 8557,11407 7928,11407 7928,10790 Z"/>
             <path fill="rgb(205,205,205)" stroke="none" d="M 7928,10790 L 8557,10790 8557,11407 7928,11407 7928,10790 Z M 7941,10803 L 8544,10803 8544,11394 7941,11394 7941,10803 Z"/>
             <path fill="rgb(206,206,206)" stroke="none" d="M 7941,10803 L 8544,10803 8544,11394 7941,11394 7941,10803 Z M 7954,10816 L 8531,10816 8531,11381 7954,11381 7954,10816 Z"/>
             <path fill="rgb(207,207,207)" stroke="none" d="M 7954,10816 L 8531,10816 8531,11381 7954,11381 7954,10816 Z M 7967,10829 L 8518,10829 8518,11368 7967,11368 7967,10829 Z"/>
             <path fill="rgb(208,208,208)" stroke="none" d="M 7967,10829 L 8518,10829 8518,11368 7967,11368 7967,10829 Z M 7980,10842 L 8505,10842 8505,11355 7980,11355 7980,10842 Z"/>
             <path fill="rgb(209,209,209)" stroke="none" d="M 7980,10842 L 8505,10842 8505,11355 7980,11355 7980,10842 Z M 7994,10854 L 8491,10854 8491,11343 7994,11343 7994,10854 Z"/>
             <path fill="rgb(210,210,210)" stroke="none" d="M 7994,10854 L 8491,10854 8491,11343 7994,11343 7994,10854 Z M 8007,10867 L 8478,10867 8478,11330 8007,11330 8007,10867 Z"/>
             <path fill="rgb(211,211,211)" stroke="none" d="M 8007,10867 L 8478,10867 8478,11330 8007,11330 8007,10867 Z M 8020,10880 L 8465,10880 8465,11317 8020,11317 8020,10880 Z"/>
             <path fill="rgb(212,212,212)" stroke="none" d="M 8020,10880 L 8465,10880 8465,11317 8020,11317 8020,10880 Z M 8033,10893 L 8452,10893 8452,11304 8033,11304 8033,10893 Z"/>
             <path fill="rgb(213,213,213)" stroke="none" d="M 8033,10893 L 8452,10893 8452,11304 8033,11304 8033,10893 Z M 8046,10906 L 8439,10906 8439,11291 8046,11291 8046,10906 Z"/>
             <path fill="rgb(214,214,214)" stroke="none" d="M 8046,10906 L 8439,10906 8439,11291 8046,11291 8046,10906 Z M 8059,10919 L 8426,10919 8426,11278 8059,11278 8059,10919 Z"/>
             <path fill="rgb(215,215,215)" stroke="none" d="M 8059,10919 L 8426,10919 8426,11278 8059,11278 8059,10919 Z M 8072,10932 L 8413,10932 8413,11265 8072,11265 8072,10932 Z"/>
             <path fill="rgb(216,216,216)" stroke="none" d="M 8072,10932 L 8413,10932 8413,11265 8072,11265 8072,10932 Z M 8085,10945 L 8400,10945 8400,11252 8085,11252 8085,10945 Z"/>
             <path fill="rgb(217,217,217)" stroke="none" d="M 8085,10945 L 8400,10945 8400,11252 8085,11252 8085,10945 Z M 8099,10957 L 8386,10957 8386,11240 8099,11240 8099,10957 Z"/>
             <path fill="rgb(218,218,218)" stroke="none" d="M 8099,10957 L 8386,10957 8386,11240 8099,11240 8099,10957 Z M 8112,10970 L 8373,10970 8373,11227 8112,11227 8112,10970 Z"/>
             <path fill="rgb(219,219,219)" stroke="none" d="M 8112,10970 L 8373,10970 8373,11227 8112,11227 8112,10970 Z M 8125,10983 L 8360,10983 8360,11214 8125,11214 8125,10983 Z"/>
             <path fill="rgb(220,220,220)" stroke="none" d="M 8125,10983 L 8360,10983 8360,11214 8125,11214 8125,10983 Z M 8138,10996 L 8347,10996 8347,11201 8138,11201 8138,10996 Z"/>
             <path fill="rgb(221,221,221)" stroke="none" d="M 8138,10996 L 8347,10996 8347,11201 8138,11201 8138,10996 Z M 8151,11009 L 8334,11009 8334,11188 8151,11188 8151,11009 Z"/>
             <path fill="rgb(222,222,222)" stroke="none" d="M 8151,11009 L 8334,11009 8334,11188 8151,11188 8151,11009 Z M 8164,11022 L 8321,11022 8321,11175 8164,11175 8164,11022 Z"/>
             <path fill="rgb(223,223,223)" stroke="none" d="M 8164,11022 L 8321,11022 8321,11175 8164,11175 8164,11022 Z M 8177,11035 L 8308,11035 8308,11162 8177,11162 8177,11035 Z"/>
             <path fill="rgb(224,224,224)" stroke="none" d="M 8177,11035 L 8308,11035 8308,11162 8177,11162 8177,11035 Z M 8190,11048 L 8295,11048 8295,11149 8190,11149 8190,11048 Z"/>
             <path fill="rgb(225,225,225)" stroke="none" d="M 8190,11048 L 8295,11048 8295,11149 8190,11149 8190,11048 Z M 8204,11060 L 8281,11060 8281,11137 8204,11137 8204,11060 Z"/>
             <path fill="rgb(226,226,226)" stroke="none" d="M 8204,11060 L 8281,11060 8281,11137 8204,11137 8204,11060 Z M 8217,11073 L 8268,11073 8268,11124 8217,11124 8217,11073 Z"/>
             <path fill="rgb(227,227,227)" stroke="none" d="M 8217,11073 L 8268,11073 8268,11124 8217,11124 8217,11073 Z M 8230,11086 L 8255,11086 8255,11111 8230,11111 8230,11086 Z"/>
             <path fill="rgb(229,229,229)" stroke="none" d="M 8230,11086 L 8255,11086 8255,11111 8230,11111 8230,11086 Z"/>
            </g>
           </pattern>
          </defs>
          <path style="fill:url(#pattern3)" d="M 9161,11414 L 8859,10714 7851,11298 8153,11998 9161,11414 Z"/>
         </g>
         <path fill="none" stroke="rgb(127,127,127)" stroke-width="40" stroke-linejoin="round" d="M 9161,11414 L 8859,10714 7851,11298 8153,11998 9161,11414 Z"/>
        </g>
       </g>
       <g class="com.sun.star.drawing.LineShape">
        <g id="id10">
         <rect class="BoundingBox" stroke="none" fill="none" x="8031" y="11160" width="1049" height="625"/>
         <path fill="none" stroke="rgb(127,127,127)" stroke-width="40" stroke-linejoin="round" d="M 9059,11180 L 8051,11764"/>
        </g>
       </g>
       <g class="com.sun.star.drawing.LineShape">
        <g id="id11">
         <rect class="BoundingBox" stroke="none" fill="none" x="7931" y="10928" width="1049" height="625"/>
         <path fill="none" stroke="rgb(127,127,127)" stroke-width="40" stroke-linejoin="round" d="M 7951,11532 L 8959,10948"/>
        </g>
       </g>
       <g class="com.sun.star.drawing.LineShape">
        <g id="id12">
         <rect class="BoundingBox" stroke="none" fill="none" x="8637" y="10810" width="343" height="741"/>
         <path fill="none" stroke="rgb(127,127,127)" stroke-width="40" stroke-linejoin="round" d="M 8657,10830 L 8959,11530"/>
        </g>
       </g>
       <g class="com.sun.star.drawing.LineShape">
        <g id="id13">
         <rect class="BoundingBox" stroke="none" fill="none" x="8435" y="10928" width="343" height="741"/>
         <path fill="none" stroke="rgb(127,127,127)" stroke-width="40" stroke-linejoin="round" d="M 8455,10948 L 8757,11648"/>
        </g>
       </g>
       <g class="com.sun.star.drawing.LineShape">
        <g id="id14">
         <rect class="BoundingBox" stroke="none" fill="none" x="8233" y="11044" width="343" height="741"/>
         <path fill="none" stroke="rgb(127,127,127)" stroke-width="40" stroke-linejoin="round" d="M 8253,11064 L 8555,11764"/>
        </g>
       </g>
       <g class="com.sun.star.drawing.LineShape">
        <g id="id15">
         <rect class="BoundingBox" stroke="none" fill="none" x="8032" y="11160" width="343" height="741"/>
         <path fill="none" stroke="rgb(127,127,127)" stroke-width="40" stroke-linejoin="round" d="M 8052,11180 L 8354,11880"/>
        </g>
       </g>
      </g>
      <g class="Group">
       <g class="com.sun.star.drawing.PolyPolygonShape">
        <g id="id16">
         <rect class="BoundingBox" stroke="none" fill="none" x="7522" y="9675" width="847" height="857"/>
         <g>
          <defs>
           <linearGradient id="gradient3" x1="7541" y1="10103" x2="8349" y2="10103" gradientUnits="userSpaceOnUse">
            <stop offset="0.1" style="stop-color:rgb(147,212,240)"/>
            <stop offset="1" style="stop-color:rgb(233,246,252)"/>
           </linearGradient>
          </defs>
          <path style="fill:url(#gradient3)" d="M 8348,10161 L 8146,9695 7542,10045 7744,10511 8348,10161 Z"/>
         </g>
         <path fill="none" stroke="rgb(127,127,127)" stroke-width="40" stroke-linejoin="round" d="M 8348,10161 L 8146,9695 7542,10045 7744,10511 8348,10161 Z"/>
        </g>
       </g>
       <g class="com.sun.star.drawing.PolyPolygonShape">
        <g id="id17">
         <rect class="BoundingBox" stroke="none" fill="none" x="8126" y="10550" width="243" height="332"/>
         <path fill="rgb(255,255,255)" stroke="none" d="M 8348,10804 L 8247,10570 8146,10629 8247,10861 8348,10804 Z"/>
         <path fill="none" stroke="rgb(127,127,127)" stroke-width="40" stroke-linejoin="round" d="M 8348,10804 L 8247,10570 8146,10629 8247,10861 8348,10804 Z"/>
        </g>
       </g>
       <g class="com.sun.star.drawing.LineShape">
        <g id="id18">
         <rect class="BoundingBox" stroke="none" fill="none" x="7363" y="10084" width="141" height="100"/>
         <path fill="none" stroke="rgb(127,127,127)" stroke-width="40" stroke-linejoin="round" d="M 7483,10104 L 7383,10163"/>
        </g>
       </g>
       <g class="com.sun.star.drawing.LineShape">
        <g id="id19">
         <rect class="BoundingBox" stroke="none" fill="none" x="7420" y="10200" width="141" height="100"/>
         <path fill="none" stroke="rgb(127,127,127)" stroke-width="40" stroke-linejoin="round" d="M 7540,10220 L 7440,10279"/>
        </g>
       </g>
       <g class="com.sun.star.drawing.LineShape">
        <g id="id20">
         <rect class="BoundingBox" stroke="none" fill="none" x="7463" y="10316" width="141" height="100"/>
         <path fill="none" stroke="rgb(127,127,127)" stroke-width="40" stroke-linejoin="round" d="M 7583,10336 L 7483,10395"/>
        </g>
       </g>
       <g class="com.sun.star.drawing.LineShape">
        <g id="id21">
         <rect class="BoundingBox" stroke="none" fill="none" x="7522" y="10434" width="141" height="100"/>
         <path fill="none" stroke="rgb(127,127,127)" stroke-width="40" stroke-linejoin="round" d="M 7642,10454 L 7542,10513"/>
        </g>
       </g>
       <g class="com.sun.star.drawing.LineShape">
        <g id="id22">
         <rect class="BoundingBox" stroke="none" fill="none" x="8227" y="9616" width="141" height="100"/>
         <path fill="none" stroke="rgb(127,127,127)" stroke-width="40" stroke-linejoin="round" d="M 8347,9636 L 8247,9695"/>
        </g>
       </g>
       <g class="com.sun.star.drawing.LineShape">
        <g id="id23">
         <rect class="BoundingBox" stroke="none" fill="none" x="8285" y="9734" width="141" height="100"/>
         <path fill="none" stroke="rgb(127,127,127)" stroke-width="40" stroke-linejoin="round" d="M 8405,9754 L 8305,9813"/>
        </g>
       </g>
       <g class="com.sun.star.drawing.LineShape">
        <g id="id24">
         <rect class="BoundingBox" stroke="none" fill="none" x="8328" y="9850" width="141" height="100"/>
         <path fill="none" stroke="rgb(127,127,127)" stroke-width="40" stroke-linejoin="round" d="M 8448,9870 L 8348,9929"/>
        </g>
       </g>
       <g class="com.sun.star.drawing.LineShape">
        <g id="id25">
         <rect class="BoundingBox" stroke="none" fill="none" x="8386" y="9966" width="141" height="100"/>
         <path fill="none" stroke="rgb(127,127,127)" stroke-width="40" stroke-linejoin="round" d="M 8506,9986 L 8406,10045"/>
        </g>
       </g>
       <g class="com.sun.star.drawing.LineShape">
        <g id="id26">
         <rect class="BoundingBox" stroke="none" fill="none" x="8328" y="10200" width="141" height="100"/>
         <path fill="none" stroke="rgb(127,127,127)" stroke-width="40" stroke-linejoin="round" d="M 8448,10220 L 8348,10279"/>
        </g>
       </g>
       <g class="com.sun.star.drawing.LineShape">
        <g id="id27">
         <rect class="BoundingBox" stroke="none" fill="none" x="8126" y="10316" width="141" height="100"/>
         <path fill="none" stroke="rgb(127,127,127)" stroke-width="40" stroke-linejoin="round" d="M 8246,10336 L 8146,10395"/>
        </g>
       </g>
       <g class="com.sun.star.drawing.LineShape">
        <g id="id28">
         <rect class="BoundingBox" stroke="none" fill="none" x="7924" y="10434" width="141" height="100"/>
         <path fill="none" stroke="rgb(127,127,127)" stroke-width="40" stroke-linejoin="round" d="M 8044,10454 L 7944,10513"/>
        </g>
       </g>
       <g class="com.sun.star.drawing.LineShape">
        <g id="id29">
         <rect class="BoundingBox" stroke="none" fill="none" x="7722" y="10550" width="141" height="100"/>
         <path fill="none" stroke="rgb(127,127,127)" stroke-width="40" stroke-linejoin="round" d="M 7842,10570 L 7742,10629"/>
        </g>
       </g>
      </g>
      <g class="com.sun.star.drawing.PolyPolygonShape">
       <g id="id30">
        <rect class="BoundingBox" stroke="none" fill="none" x="6302" y="9196" width="3065" height="3542"/>
        <path fill="none" stroke="rgb(0,0,0)" stroke-width="40" stroke-linejoin="round" d="M 9345,11550 L 8337,9216 6322,10382 6322,10732 6422,10966 6422,12075 7027,12425 7128,12600 7330,12716 9345,11550 Z"/>
       </g>
      </g>
     </g>
    </g>
   </g>
  </g>
 </g>
</svg>