<?xml version="1.0" encoding="UTF-8"?>
<!DOCTYPE svg PUBLIC "-//W3C//DTD SVG 1.1//EN" "http://www.w3.org/Graphics/SVG/1.1/DTD/svg11.dtd">
<svg version="1.2" width="21.65mm" height="31.9mm" viewBox="5045 17865 2165 3190" preserveAspectRatio="xMidYMid" fill-rule="evenodd" stroke-width="28.222" stroke-linejoin="round" xmlns="http://www.w3.org/2000/svg" xmlns:ooo="http://xml.openoffice.org/svg/export" xmlns:xlink="http://www.w3.org/1999/xlink" xmlns:presentation="http://sun.com/xmlns/staroffice/presentation" xmlns:smil="http://www.w3.org/2001/SMIL20/" xmlns:anim="urn:oasis:names:tc:opendocument:xmlns:animation:1.0" xml:space="preserve">
 <defs class="ClipPathGroup">
  <clipPath id="presentation_clip_path" clipPathUnits="userSpaceOnUse">
   <rect x="5045" y="17865" width="2165" height="3190"/>
  </clipPath>
 </defs>
 <defs class="TextShapeIndex">
  <g ooo:slide="id1" ooo:id-list="id3 id4 id5 id6 id7 id8 id9 id10 id11 id12"/>
 </defs>
 <defs class="EmbeddedBulletChars">
  <g id="bullet-char-template(57356)" transform="scale(0.00048828125,-0.00048828125)">
   <path d="M 580,1141 L 1163,571 580,0 -4,571 580,1141 Z"/>
  </g>
  <g id="bullet-char-template(57354)" transform="scale(0.00048828125,-0.00048828125)">
   <path d="M 8,1128 L 1137,1128 1137,0 8,0 8,1128 Z"/>
  </g>
  <g id="bullet-char-template(10146)" transform="scale(0.00048828125,-0.00048828125)">
   <path d="M 174,0 L 602,739 174,1481 1456,739 174,0 Z M 1358,739 L 309,1346 659,739 1358,739 Z"/>
  </g>
  <g id="bullet-char-template(10132)" transform="scale(0.00048828125,-0.00048828125)">
   <path d="M 2015,739 L 1276,0 717,0 1260,543 174,543 174,936 1260,936 717,1481 1274,1481 2015,739 Z"/>
  </g>
  <g id="bullet-char-template(10007)" transform="scale(0.00048828125,-0.00048828125)">
   <path d="M 0,-2 C -7,14 -16,27 -25,37 L 356,567 C 262,823 215,952 215,954 215,979 228,992 255,992 264,992 276,990 289,987 310,991 331,999 354,1012 L 381,999 492,748 772,1049 836,1024 860,1049 C 881,1039 901,1025 922,1006 886,937 835,863 770,784 769,783 710,716 594,584 L 774,223 C 774,196 753,168 711,139 L 727,119 C 717,90 699,76 672,76 641,76 570,178 457,381 L 164,-76 C 142,-110 111,-127 72,-127 30,-127 9,-110 8,-76 1,-67 -2,-52 -2,-32 -2,-23 -1,-13 0,-2 Z"/>
  </g>
  <g id="bullet-char-template(10004)" transform="scale(0.00048828125,-0.00048828125)">
   <path d="M 285,-33 C 182,-33 111,30 74,156 52,228 41,333 41,471 41,549 55,616 82,672 116,743 169,778 240,778 293,778 328,747 346,684 L 369,508 C 377,444 397,411 428,410 L 1163,1116 C 1174,1127 1196,1133 1229,1133 1271,1133 1292,1118 1292,1087 L 1292,965 C 1292,929 1282,901 1262,881 L 442,47 C 390,-6 338,-33 285,-33 Z"/>
  </g>
  <g id="bullet-char-template(9679)" transform="scale(0.00048828125,-0.00048828125)">
   <path d="M 813,0 C 632,0 489,54 383,161 276,268 223,411 223,592 223,773 276,916 383,1023 489,1130 632,1184 813,1184 992,1184 1136,1130 1245,1023 1353,916 1407,772 1407,592 1407,412 1353,268 1245,161 1136,54 992,0 813,0 Z"/>
  </g>
  <g id="bullet-char-template(8226)" transform="scale(0.00048828125,-0.00048828125)">
   <path d="M 346,457 C 273,457 209,483 155,535 101,586 74,649 74,723 74,796 101,859 155,911 209,963 273,989 346,989 419,989 480,963 531,910 582,859 608,796 608,723 608,648 583,586 532,535 482,483 420,457 346,457 Z"/>
  </g>
  <g id="bullet-char-template(8211)" transform="scale(0.00048828125,-0.00048828125)">
   <path d="M -4,459 L 1135,459 1135,606 -4,606 -4,459 Z"/>
  </g>
 </defs>
 <defs class="TextEmbeddedBitmaps"/>
 <g class="SlideGroup">
  <g>
   <g id="id1" class="Slide" clip-path="url(#presentation_clip_path)">
    <g class="Page">
     <g class="Group">
      <g class="com.sun.star.drawing.ClosedBezierShape">
       <g id="id3">
        <rect class="BoundingBox" stroke="none" fill="none" x="5893" y="20035" width="1319" height="1021"/>
        <path fill="rgb(221,221,221)" stroke="none" d="M 5913,21035 C 6294,21035 6641,20825 7005,20615 7369,20405 7126,20055 6883,20055 6898,20086 5913,21035 5913,21035 Z"/>
        <path fill="none" stroke="rgb(221,221,221)" stroke-width="40" stroke-linejoin="round" d="M 5913,21035 C 6294,21035 6641,20825 7005,20615 7369,20405 7126,20055 6883,20055 6898,20086 5913,21035 5913,21035 Z"/>
       </g>
      </g>
      <g class="Group">
       <g class="com.sun.star.drawing.PolyPolygonShape">
        <g id="id4">
         <rect class="BoundingBox" stroke="none" fill="none" x="5045" y="17865" width="1859" height="1091"/>
         <g>
          <defs>
           <linearGradient id="gradient1" x1="5974" y1="17885" x2="5974" y2="18935" gradientUnits="userSpaceOnUse">
            <stop offset="0.1" style="stop-color:rgb(179,179,179)"/>
            <stop offset="1" style="stop-color:rgb(229,229,229)"/>
           </linearGradient>
          </defs>
          <path style="fill:url(#gradient1)" d="M 5428,18935 L 5065,18725 6520,17885 6883,18095 5428,18935 Z"/>
         </g>
         <path fill="none" stroke="rgb(255,255,255)" stroke-width="40" stroke-linejoin="round" d="M 5428,18935 L 5065,18725 6520,17885 6883,18095 5428,18935 Z"/>
        </g>
       </g>
       <g class="com.sun.star.drawing.PolyPolygonShape">
        <g id="id5">
         <rect class="BoundingBox" stroke="none" fill="none" x="5183" y="19042" width="180" height="362"/>
         <path fill="rgb(57,181,74)" stroke="none" d="M 5203,19303 L 5203,19062 5342,19142 5342,19383 5203,19303 Z"/>
         <path fill="none" stroke="rgb(51,51,51)" stroke-width="40" stroke-linejoin="round" d="M 5203,19303 L 5203,19062 5342,19142 5342,19383 5203,19303 Z"/>
        </g>
       </g>
       <g class="com.sun.star.drawing.PolyPolygonShape">
        <g id="id6">
         <rect class="BoundingBox" stroke="none" fill="none" x="5286" y="20525" width="648" height="531"/>
         <g>
          <defs>
           <linearGradient id="gradient2" x1="5305" y1="20790" x2="5913" y2="20790" gradientUnits="userSpaceOnUse">
            <stop offset="0.1" style="stop-color:rgb(179,179,179)"/>
            <stop offset="1" style="stop-color:rgb(229,229,229)"/>
           </linearGradient>
          </defs>
          <path style="fill:url(#gradient2)" d="M 5306,20685 L 5306,20545 5913,20895 5913,21035 5306,20685 Z"/>
         </g>
         <path fill="none" stroke="rgb(255,255,255)" stroke-width="40" stroke-linejoin="round" d="M 5306,20685 L 5306,20545 5913,20895 5913,21035 5306,20685 Z"/>
        </g>
       </g>
       <g class="com.sun.star.drawing.PolyPolygonShape">
        <g id="id7">
         <rect class="BoundingBox" stroke="none" fill="none" x="5045" y="18705" width="404" height="2351"/>
         <g>
          <defs>
           <linearGradient id="gradient3" x1="5064" y1="19880" x2="5428" y2="19880" gradientUnits="userSpaceOnUse">
            <stop offset="0.1" style="stop-color:rgb(179,179,179)"/>
            <stop offset="1" style="stop-color:rgb(229,229,229)"/>
           </linearGradient>
          </defs>
          <path style="fill:url(#gradient3)" d="M 5065,20825 L 5065,18725 5428,18935 5428,21035 5065,20825 Z"/>
         </g>
         <path fill="none" stroke="rgb(255,255,255)" stroke-width="40" stroke-linejoin="round" d="M 5065,20825 L 5065,18725 5428,18935 5428,21035 5065,20825 Z"/>
        </g>
       </g>
       <g class="com.sun.star.drawing.PolyPolygonShape">
        <g id="id8">
         <rect class="BoundingBox" stroke="none" fill="none" x="5892" y="20385" width="892" height="671"/>
         <g>
          <defs>
           <pattern id="pattern1" x="5912" y="20405" width="852" height="631" patternUnits="userSpaceOnUse">
            <g transform="translate(-5912,-20405)">
             <path fill="rgb(179,179,179)" stroke="none" d="M 5911,20404 L 6764,20404 6764,21036 5911,21036 5911,20404 Z M 5749,20284 L 6584,20284 6584,20902 5749,20902 5749,20284 Z"/>
             <path fill="rgb(180,180,180)" stroke="none" d="M 5749,20284 L 6584,20284 6584,20902 5749,20902 5749,20284 Z M 5758,20290 L 6575,20290 6575,20896 5758,20896 5758,20290 Z"/>
             <path fill="rgb(181,181,181)" stroke="none" d="M 5758,20290 L 6575,20290 6575,20896 5758,20896 5758,20290 Z M 5766,20296 L 6567,20296 6567,20890 5766,20890 5766,20296 Z"/>
             <path fill="rgb(182,182,182)" stroke="none" d="M 5766,20296 L 6567,20296 6567,20890 5766,20890 5766,20296 Z M 5775,20303 L 6558,20303 6558,20883 5775,20883 5775,20303 Z"/>
             <path fill="rgb(183,183,183)" stroke="none" d="M 5775,20303 L 6558,20303 6558,20883 5775,20883 5775,20303 Z M 5783,20309 L 6550,20309 6550,20877 5783,20877 5783,20309 Z"/>
             <path fill="rgb(184,184,184)" stroke="none" d="M 5783,20309 L 6550,20309 6550,20877 5783,20877 5783,20309 Z M 5792,20315 L 6541,20315 6541,20871 5792,20871 5792,20315 Z"/>
             <path fill="rgb(185,185,185)" stroke="none" d="M 5792,20315 L 6541,20315 6541,20871 5792,20871 5792,20315 Z M 5800,20322 L 6533,20322 6533,20864 5800,20864 5800,20322 Z"/>
             <path fill="rgb(186,186,186)" stroke="none" d="M 5800,20322 L 6533,20322 6533,20864 5800,20864 5800,20322 Z M 5809,20328 L 6524,20328 6524,20858 5809,20858 5809,20328 Z"/>
             <path fill="rgb(187,187,187)" stroke="none" d="M 5809,20328 L 6524,20328 6524,20858 5809,20858 5809,20328 Z M 5817,20334 L 6516,20334 6516,20852 5817,20852 5817,20334 Z"/>
             <path fill="rgb(188,188,188)" stroke="none" d="M 5817,20334 L 6516,20334 6516,20852 5817,20852 5817,20334 Z M 5826,20341 L 6507,20341 6507,20845 5826,20845 5826,20341 Z"/>
             <path fill="rgb(189,189,189)" stroke="none" d="M 5826,20341 L 6507,20341 6507,20845 5826,20845 5826,20341 Z M 5834,20347 L 6499,20347 6499,20839 5834,20839 5834,20347 Z"/>
             <path fill="rgb(190,190,190)" stroke="none" d="M 5834,20347 L 6499,20347 6499,20839 5834,20839 5834,20347 Z M 5843,20353 L 6490,20353 6490,20833 5843,20833 5843,20353 Z"/>
             <path fill="rgb(191,191,191)" stroke="none" d="M 5843,20353 L 6490,20353 6490,20833 5843,20833 5843,20353 Z M 5852,20360 L 6481,20360 6481,20826 5852,20826 5852,20360 Z"/>
             <path fill="rgb(192,192,192)" stroke="none" d="M 5852,20360 L 6481,20360 6481,20826 5852,20826 5852,20360 Z M 5860,20366 L 6473,20366 6473,20820 5860,20820 5860,20366 Z"/>
             <path fill="rgb(193,193,193)" stroke="none" d="M 5860,20366 L 6473,20366 6473,20820 5860,20820 5860,20366 Z M 5869,20372 L 6464,20372 6464,20814 5869,20814 5869,20372 Z"/>
             <path fill="rgb(194,194,194)" stroke="none" d="M 5869,20372 L 6464,20372 6464,20814 5869,20814 5869,20372 Z M 5877,20379 L 6456,20379 6456,20807 5877,20807 5877,20379 Z"/>
             <path fill="rgb(195,195,195)" stroke="none" d="M 5877,20379 L 6456,20379 6456,20807 5877,20807 5877,20379 Z M 5886,20385 L 6447,20385 6447,20801 5886,20801 5886,20385 Z"/>
             <path fill="rgb(196,196,196)" stroke="none" d="M 5886,20385 L 6447,20385 6447,20801 5886,20801 5886,20385 Z M 5893,20390 L 6439,20390 6439,20795 5893,20795 5893,20390 Z"/>
             <path fill="rgb(197,197,197)" stroke="none" d="M 5893,20390 L 6439,20390 6439,20795 5893,20795 5893,20390 Z M 5902,20397 L 6430,20397 6430,20788 5902,20788 5902,20397 Z"/>
             <path fill="rgb(198,198,198)" stroke="none" d="M 5902,20397 L 6430,20397 6430,20788 5902,20788 5902,20397 Z M 5910,20403 L 6422,20403 6422,20782 5910,20782 5910,20403 Z"/>
             <path fill="rgb(199,199,199)" stroke="none" d="M 5910,20403 L 6422,20403 6422,20782 5910,20782 5910,20403 Z M 5919,20409 L 6413,20409 6413,20776 5919,20776 5919,20409 Z"/>
             <path fill="rgb(200,200,200)" stroke="none" d="M 5919,20409 L 6413,20409 6413,20776 5919,20776 5919,20409 Z M 5927,20416 L 6405,20416 6405,20769 5927,20769 5927,20416 Z"/>
             <path fill="rgb(201,201,201)" stroke="none" d="M 5927,20416 L 6405,20416 6405,20769 5927,20769 5927,20416 Z M 5936,20422 L 6396,20422 6396,20763 5936,20763 5936,20422 Z"/>
             <path fill="rgb(202,202,202)" stroke="none" d="M 5936,20422 L 6396,20422 6396,20763 5936,20763 5936,20422 Z M 5944,20428 L 6388,20428 6388,20757 5944,20757 5944,20428 Z"/>
             <path fill="rgb(203,203,203)" stroke="none" d="M 5944,20428 L 6388,20428 6388,20757 5944,20757 5944,20428 Z M 5953,20435 L 6379,20435 6379,20750 5953,20750 5953,20435 Z"/>
             <path fill="rgb(204,204,204)" stroke="none" d="M 5953,20435 L 6379,20435 6379,20750 5953,20750 5953,20435 Z M 5962,20441 L 6370,20441 6370,20744 5962,20744 5962,20441 Z"/>
             <path fill="rgb(205,205,205)" stroke="none" d="M 5962,20441 L 6370,20441 6370,20744 5962,20744 5962,20441 Z M 5970,20447 L 6362,20447 6362,20738 5970,20738 5970,20447 Z"/>
             <path fill="rgb(206,206,206)" stroke="none" d="M 5970,20447 L 6362,20447 6362,20738 5970,20738 5970,20447 Z M 5979,20454 L 6353,20454 6353,20731 5979,20731 5979,20454 Z"/>
             <path fill="rgb(207,207,207)" stroke="none" d="M 5979,20454 L 6353,20454 6353,20731 5979,20731 5979,20454 Z M 5987,20460 L 6345,20460 6345,20725 5987,20725 5987,20460 Z"/>
             <path fill="rgb(208,208,208)" stroke="none" d="M 5987,20460 L 6345,20460 6345,20725 5987,20725 5987,20460 Z M 5996,20466 L 6336,20466 6336,20719 5996,20719 5996,20466 Z"/>
             <path fill="rgb(209,209,209)" stroke="none" d="M 5996,20466 L 6336,20466 6336,20719 5996,20719 5996,20466 Z M 6004,20473 L 6328,20473 6328,20712 6004,20712 6004,20473 Z"/>
             <path fill="rgb(210,210,210)" stroke="none" d="M 6004,20473 L 6328,20473 6328,20712 6004,20712 6004,20473 Z M 6013,20479 L 6319,20479 6319,20706 6013,20706 6013,20479 Z"/>
             <path fill="rgb(211,211,211)" stroke="none" d="M 6013,20479 L 6319,20479 6319,20706 6013,20706 6013,20479 Z M 6021,20485 L 6311,20485 6311,20700 6021,20700 6021,20485 Z"/>
             <path fill="rgb(212,212,212)" stroke="none" d="M 6021,20485 L 6311,20485 6311,20700 6021,20700 6021,20485 Z M 6030,20492 L 6302,20492 6302,20693 6030,20693 6030,20492 Z"/>
             <path fill="rgb(213,213,213)" stroke="none" d="M 6030,20492 L 6302,20492 6302,20693 6030,20693 6030,20492 Z M 6038,20498 L 6294,20498 6294,20687 6038,20687 6038,20498 Z"/>
             <path fill="rgb(214,214,214)" stroke="none" d="M 6038,20498 L 6294,20498 6294,20687 6038,20687 6038,20498 Z M 6047,20504 L 6285,20504 6285,20681 6047,20681 6047,20504 Z"/>
             <path fill="rgb(215,215,215)" stroke="none" d="M 6047,20504 L 6285,20504 6285,20681 6047,20681 6047,20504 Z M 6055,20511 L 6277,20511 6277,20674 6055,20674 6055,20511 Z"/>
             <path fill="rgb(216,216,216)" stroke="none" d="M 6055,20511 L 6277,20511 6277,20674 6055,20674 6055,20511 Z M 6064,20517 L 6268,20517 6268,20668 6064,20668 6064,20517 Z"/>
             <path fill="rgb(217,217,217)" stroke="none" d="M 6064,20517 L 6268,20517 6268,20668 6064,20668 6064,20517 Z M 6073,20523 L 6259,20523 6259,20662 6073,20662 6073,20523 Z"/>
             <path fill="rgb(218,218,218)" stroke="none" d="M 6073,20523 L 6259,20523 6259,20662 6073,20662 6073,20523 Z M 6081,20530 L 6251,20530 6251,20655 6081,20655 6081,20530 Z"/>
             <path fill="rgb(219,219,219)" stroke="none" d="M 6081,20530 L 6251,20530 6251,20655 6081,20655 6081,20530 Z M 6090,20536 L 6242,20536 6242,20649 6090,20649 6090,20536 Z"/>
             <path fill="rgb(220,220,220)" stroke="none" d="M 6090,20536 L 6242,20536 6242,20649 6090,20649 6090,20536 Z M 6098,20542 L 6234,20542 6234,20643 6098,20643 6098,20542 Z"/>
             <path fill="rgb(221,221,221)" stroke="none" d="M 6098,20542 L 6234,20542 6234,20643 6098,20643 6098,20542 Z M 6107,20549 L 6225,20549 6225,20636 6107,20636 6107,20549 Z"/>
             <path fill="rgb(222,222,222)" stroke="none" d="M 6107,20549 L 6225,20549 6225,20636 6107,20636 6107,20549 Z M 6115,20555 L 6217,20555 6217,20630 6115,20630 6115,20555 Z"/>
             <path fill="rgb(223,223,223)" stroke="none" d="M 6115,20555 L 6217,20555 6217,20630 6115,20630 6115,20555 Z M 6124,20561 L 6208,20561 6208,20624 6124,20624 6124,20561 Z"/>
             <path fill="rgb(224,224,224)" stroke="none" d="M 6124,20561 L 6208,20561 6208,20624 6124,20624 6124,20561 Z M 6132,20568 L 6200,20568 6200,20617 6132,20617 6132,20568 Z"/>
             <path fill="rgb(225,225,225)" stroke="none" d="M 6132,20568 L 6200,20568 6200,20617 6132,20617 6132,20568 Z M 6141,20574 L 6191,20574 6191,20611 6141,20611 6141,20574 Z"/>
             <path fill="rgb(226,226,226)" stroke="none" d="M 6141,20574 L 6191,20574 6191,20611 6141,20611 6141,20574 Z M 6149,20580 L 6183,20580 6183,20605 6149,20605 6149,20580 Z"/>
             <path fill="rgb(227,227,227)" stroke="none" d="M 6149,20580 L 6183,20580 6183,20605 6149,20605 6149,20580 Z M 6158,20587 L 6174,20587 6174,20598 6158,20598 6158,20587 Z"/>
             <path fill="rgb(229,229,229)" stroke="none" d="M 6158,20587 L 6174,20587 6174,20598 6158,20598 6158,20587 Z"/>
            </g>
           </pattern>
          </defs>
          <path style="fill:url(#pattern1)" d="M 5913,21035 L 5912,20895 6762,20405 6763,20545 5913,21035 Z"/>
         </g>
         <path fill="none" stroke="rgb(255,255,255)" stroke-width="40" stroke-linejoin="round" d="M 5913,21035 L 5912,20895 6762,20405 6763,20545 5913,21035 Z"/>
        </g>
       </g>
       <g class="com.sun.star.drawing.PolyPolygonShape">
        <g id="id9">
         <rect class="BoundingBox" stroke="none" fill="none" x="5651" y="20245" width="1132" height="671"/>
         <g>
          <defs>
           <linearGradient id="gradient4" x1="6216" y1="20265" x2="6216" y2="20895" gradientUnits="userSpaceOnUse">
            <stop offset="0.1" style="stop-color:rgb(179,179,179)"/>
            <stop offset="1" style="stop-color:rgb(229,229,229)"/>
           </linearGradient>
          </defs>
          <path style="fill:url(#gradient4)" d="M 5913,20895 L 5671,20755 6520,20265 6762,20405 5913,20895 Z"/>
         </g>
         <path fill="none" stroke="rgb(255,255,255)" stroke-width="40" stroke-linejoin="round" d="M 5913,20895 L 5671,20755 6520,20265 6762,20405 5913,20895 Z"/>
        </g>
       </g>
       <g class="com.sun.star.drawing.PolyPolygonShape">
        <g id="id10">
         <rect class="BoundingBox" stroke="none" fill="none" x="5408" y="18074" width="1496" height="2982"/>
         <g>
          <defs>
           <pattern id="pattern2" x="5428" y="18095" width="1456" height="2941" patternUnits="userSpaceOnUse">
            <g transform="translate(-5428,-18095)">
             <path fill="rgb(179,179,179)" stroke="none" d="M 5427,18094 L 6884,18094 6884,21036 5427,21036 5427,18094 Z M 5150,17535 L 6577,17535 6577,20417 5150,20417 5150,17535 Z"/>
             <path fill="rgb(180,180,180)" stroke="none" d="M 5150,17535 L 6577,17535 6577,20417 5150,20417 5150,17535 Z M 5165,17564 L 6562,17564 6562,20388 5165,20388 5165,17564 Z"/>
             <path fill="rgb(181,181,181)" stroke="none" d="M 5165,17564 L 6562,17564 6562,20388 5165,20388 5165,17564 Z M 5179,17594 L 6548,17594 6548,20358 5179,20358 5179,17594 Z"/>
             <path fill="rgb(182,182,182)" stroke="none" d="M 5179,17594 L 6548,17594 6548,20358 5179,20358 5179,17594 Z M 5194,17623 L 6533,17623 6533,20329 5194,20329 5194,17623 Z"/>
             <path fill="rgb(183,183,183)" stroke="none" d="M 5194,17623 L 6533,17623 6533,20329 5194,20329 5194,17623 Z M 5208,17653 L 6519,17653 6519,20299 5208,20299 5208,17653 Z"/>
             <path fill="rgb(184,184,184)" stroke="none" d="M 5208,17653 L 6519,17653 6519,20299 5208,20299 5208,17653 Z M 5223,17682 L 6504,17682 6504,20270 5223,20270 5223,17682 Z"/>
             <path fill="rgb(185,185,185)" stroke="none" d="M 5223,17682 L 6504,17682 6504,20270 5223,20270 5223,17682 Z M 5238,17712 L 6489,17712 6489,20240 5238,20240 5238,17712 Z"/>
             <path fill="rgb(186,186,186)" stroke="none" d="M 5238,17712 L 6489,17712 6489,20240 5238,20240 5238,17712 Z M 5252,17741 L 6475,17741 6475,20211 5252,20211 5252,17741 Z"/>
             <path fill="rgb(187,187,187)" stroke="none" d="M 5252,17741 L 6475,17741 6475,20211 5252,20211 5252,17741 Z M 5267,17770 L 6460,17770 6460,20182 5267,20182 5267,17770 Z"/>
             <path fill="rgb(188,188,188)" stroke="none" d="M 5267,17770 L 6460,17770 6460,20182 5267,20182 5267,17770 Z M 5281,17800 L 6446,17800 6446,20152 5281,20152 5281,17800 Z"/>
             <path fill="rgb(189,189,189)" stroke="none" d="M 5281,17800 L 6446,17800 6446,20152 5281,20152 5281,17800 Z M 5296,17829 L 6431,17829 6431,20123 5296,20123 5296,17829 Z"/>
             <path fill="rgb(190,190,190)" stroke="none" d="M 5296,17829 L 6431,17829 6431,20123 5296,20123 5296,17829 Z M 5310,17859 L 6417,17859 6417,20093 5310,20093 5310,17859 Z"/>
             <path fill="rgb(191,191,191)" stroke="none" d="M 5310,17859 L 6417,17859 6417,20093 5310,20093 5310,17859 Z M 5325,17888 L 6402,17888 6402,20064 5325,20064 5325,17888 Z"/>
             <path fill="rgb(192,192,192)" stroke="none" d="M 5325,17888 L 6402,17888 6402,20064 5325,20064 5325,17888 Z M 5340,17918 L 6387,17918 6387,20034 5340,20034 5340,17918 Z"/>
             <path fill="rgb(193,193,193)" stroke="none" d="M 5340,17918 L 6387,17918 6387,20034 5340,20034 5340,17918 Z M 5354,17947 L 6373,17947 6373,20005 5354,20005 5354,17947 Z"/>
             <path fill="rgb(194,194,194)" stroke="none" d="M 5354,17947 L 6373,17947 6373,20005 5354,20005 5354,17947 Z M 5369,17976 L 6358,17976 6358,19976 5369,19976 5369,17976 Z"/>
             <path fill="rgb(195,195,195)" stroke="none" d="M 5369,17976 L 6358,17976 6358,19976 5369,19976 5369,17976 Z M 5383,18006 L 6344,18006 6344,19946 5383,19946 5383,18006 Z"/>
             <path fill="rgb(196,196,196)" stroke="none" d="M 5383,18006 L 6344,18006 6344,19946 5383,19946 5383,18006 Z M 5398,18035 L 6329,18035 6329,19917 5398,19917 5398,18035 Z"/>
             <path fill="rgb(197,197,197)" stroke="none" d="M 5398,18035 L 6329,18035 6329,19917 5398,19917 5398,18035 Z M 5412,18065 L 6314,18065 6314,19887 5412,19887 5412,18065 Z"/>
             <path fill="rgb(198,198,198)" stroke="none" d="M 5412,18065 L 6314,18065 6314,19887 5412,19887 5412,18065 Z M 5426,18093 L 6300,18093 6300,19858 5426,19858 5426,18093 Z"/>
             <path fill="rgb(199,199,199)" stroke="none" d="M 5426,18093 L 6300,18093 6300,19858 5426,19858 5426,18093 Z M 5441,18123 L 6285,18123 6285,19828 5441,19828 5441,18123 Z"/>
             <path fill="rgb(200,200,200)" stroke="none" d="M 5441,18123 L 6285,18123 6285,19828 5441,19828 5441,18123 Z M 5455,18152 L 6271,18152 6271,19799 5455,19799 5455,18152 Z"/>
             <path fill="rgb(201,201,201)" stroke="none" d="M 5455,18152 L 6271,18152 6271,19799 5455,19799 5455,18152 Z M 5470,18181 L 6256,18181 6256,19770 5470,19770 5470,18181 Z"/>
             <path fill="rgb(202,202,202)" stroke="none" d="M 5470,18181 L 6256,18181 6256,19770 5470,19770 5470,18181 Z M 5484,18211 L 6242,18211 6242,19740 5484,19740 5484,18211 Z"/>
             <path fill="rgb(203,203,203)" stroke="none" d="M 5484,18211 L 6242,18211 6242,19740 5484,19740 5484,18211 Z M 5499,18240 L 6227,18240 6227,19711 5499,19711 5499,18240 Z"/>
             <path fill="rgb(204,204,204)" stroke="none" d="M 5499,18240 L 6227,18240 6227,19711 5499,19711 5499,18240 Z M 5514,18270 L 6212,18270 6212,19681 5514,19681 5514,18270 Z"/>
             <path fill="rgb(205,205,205)" stroke="none" d="M 5514,18270 L 6212,18270 6212,19681 5514,19681 5514,18270 Z M 5528,18299 L 6198,18299 6198,19652 5528,19652 5528,18299 Z"/>
             <path fill="rgb(206,206,206)" stroke="none" d="M 5528,18299 L 6198,18299 6198,19652 5528,19652 5528,18299 Z M 5543,18329 L 6183,18329 6183,19622 5543,19622 5543,18329 Z"/>
             <path fill="rgb(207,207,207)" stroke="none" d="M 5543,18329 L 6183,18329 6183,19622 5543,19622 5543,18329 Z M 5557,18358 L 6169,18358 6169,19593 5557,19593 5557,18358 Z"/>
             <path fill="rgb(208,208,208)" stroke="none" d="M 5557,18358 L 6169,18358 6169,19593 5557,19593 5557,18358 Z M 5572,18387 L 6154,18387 6154,19564 5572,19564 5572,18387 Z"/>
             <path fill="rgb(209,209,209)" stroke="none" d="M 5572,18387 L 6154,18387 6154,19564 5572,19564 5572,18387 Z M 5586,18417 L 6140,18417 6140,19534 5586,19534 5586,18417 Z"/>
             <path fill="rgb(210,210,210)" stroke="none" d="M 5586,18417 L 6140,18417 6140,19534 5586,19534 5586,18417 Z M 5601,18446 L 6125,18446 6125,19505 5601,19505 5601,18446 Z"/>
             <path fill="rgb(211,211,211)" stroke="none" d="M 5601,18446 L 6125,18446 6125,19505 5601,19505 5601,18446 Z M 5616,18476 L 6110,18476 6110,19475 5616,19475 5616,18476 Z"/>
             <path fill="rgb(212,212,212)" stroke="none" d="M 5616,18476 L 6110,18476 6110,19475 5616,19475 5616,18476 Z M 5630,18505 L 6096,18505 6096,19446 5630,19446 5630,18505 Z"/>
             <path fill="rgb(213,213,213)" stroke="none" d="M 5630,18505 L 6096,18505 6096,19446 5630,19446 5630,18505 Z M 5645,18535 L 6081,18535 6081,19416 5645,19416 5645,18535 Z"/>
             <path fill="rgb(214,214,214)" stroke="none" d="M 5645,18535 L 6081,18535 6081,19416 5645,19416 5645,18535 Z M 5659,18564 L 6067,18564 6067,19387 5659,19387 5659,18564 Z"/>
             <path fill="rgb(215,215,215)" stroke="none" d="M 5659,18564 L 6067,18564 6067,19387 5659,19387 5659,18564 Z M 5674,18593 L 6052,18593 6052,19358 5674,19358 5674,18593 Z"/>
             <path fill="rgb(216,216,216)" stroke="none" d="M 5674,18593 L 6052,18593 6052,19358 5674,19358 5674,18593 Z M 5689,18623 L 6037,18623 6037,19328 5689,19328 5689,18623 Z"/>
             <path fill="rgb(217,217,217)" stroke="none" d="M 5689,18623 L 6037,18623 6037,19328 5689,19328 5689,18623 Z M 5703,18652 L 6023,18652 6023,19299 5703,19299 5703,18652 Z"/>
             <path fill="rgb(218,218,218)" stroke="none" d="M 5703,18652 L 6023,18652 6023,19299 5703,19299 5703,18652 Z M 5718,18682 L 6008,18682 6008,19269 5718,19269 5718,18682 Z"/>
             <path fill="rgb(219,219,219)" stroke="none" d="M 5718,18682 L 6008,18682 6008,19269 5718,19269 5718,18682 Z M 5732,18711 L 5994,18711 5994,19240 5732,19240 5732,18711 Z"/>
             <path fill="rgb(220,220,220)" stroke="none" d="M 5732,18711 L 5994,18711 5994,19240 5732,19240 5732,18711 Z M 5747,18741 L 5979,18741 5979,19210 5747,19210 5747,18741 Z"/>
             <path fill="rgb(221,221,221)" stroke="none" d="M 5747,18741 L 5979,18741 5979,19210 5747,19210 5747,18741 Z M 5761,18770 L 5965,18770 5965,19181 5761,19181 5761,18770 Z"/>
             <path fill="rgb(222,222,222)" stroke="none" d="M 5761,18770 L 5965,18770 5965,19181 5761,19181 5761,18770 Z M 5776,18799 L 5950,18799 5950,19152 5776,19152 5776,18799 Z"/>
             <path fill="rgb(223,223,223)" stroke="none" d="M 5776,18799 L 5950,18799 5950,19152 5776,19152 5776,18799 Z M 5791,18829 L 5935,18829 5935,19122 5791,19122 5791,18829 Z"/>
             <path fill="rgb(224,224,224)" stroke="none" d="M 5791,18829 L 5935,18829 5935,19122 5791,19122 5791,18829 Z M 5805,18858 L 5921,18858 5921,19093 5805,19093 5805,18858 Z"/>
             <path fill="rgb(225,225,225)" stroke="none" d="M 5805,18858 L 5921,18858 5921,19093 5805,19093 5805,18858 Z M 5820,18888 L 5906,18888 5906,19063 5820,19063 5820,18888 Z"/>
             <path fill="rgb(226,226,226)" stroke="none" d="M 5820,18888 L 5906,18888 5906,19063 5820,19063 5820,18888 Z M 5834,18917 L 5892,18917 5892,19034 5834,19034 5834,18917 Z"/>
             <path fill="rgb(227,227,227)" stroke="none" d="M 5834,18917 L 5892,18917 5892,19034 5834,19034 5834,18917 Z M 5849,18947 L 5877,18947 5877,19004 5849,19004 5849,18947 Z"/>
             <path fill="rgb(229,229,229)" stroke="none" d="M 5849,18947 L 5877,18947 5877,19004 5849,19004 5849,18947 Z"/>
            </g>
           </pattern>
          </defs>
          <path style="fill:url(#pattern2)" d="M 5428,21035 L 5428,18935 6883,18095 6883,20195 5428,21035 Z"/>
         </g>
         <path fill="none" stroke="rgb(255,255,255)" stroke-width="40" stroke-linejoin="round" d="M 5428,21035 L 5428,18935 6883,18095 6883,20195 5428,21035 Z"/>
        </g>
       </g>
       <g class="com.sun.star.drawing.PolyPolygonShape">
        <g id="id11">
         <rect class="BoundingBox" stroke="none" fill="none" x="5045" y="17865" width="1859" height="3191"/>
         <path fill="none" stroke="rgb(0,0,0)" stroke-width="40" stroke-linejoin="round" d="M 5065,20825 L 5065,18725 6520,17885 6883,18095 6883,20195 6641,20335 6762,20405 6762,20545 5913,21035 5671,20895 5428,21035 5065,20825 Z"/>
        </g>
       </g>
       <g class="com.sun.star.drawing.PolyPolygonShape">
        <g id="id12">
         <rect class="BoundingBox" stroke="none" fill="none" x="5166" y="19685" width="162" height="252"/>
         <path fill="rgb(102,102,255)" stroke="none" d="M 5186,19845 L 5186,19705 5307,19775 5307,19915 5186,19845 Z"/>
         <path fill="none" stroke="rgb(51,51,51)" stroke-width="40" stroke-linejoin="round" d="M 5186,19845 L 5186,19705 5307,19775 5307,19915 5186,19845 Z"/>
        </g>
       </g>
      </g>
     </g>
    </g>
   </g>
  </g>
 </g>
</svg>