<?xml version="1.0" encoding="UTF-8"?>
<!DOCTYPE svg PUBLIC "-//W3C//DTD SVG 1.1//EN" "http://www.w3.org/Graphics/SVG/1.1/DTD/svg11.dtd">
<svg version="1.2" width="13.45mm" height="10.14mm" viewBox="9668 33854 1345 1014" preserveAspectRatio="xMidYMid" fill-rule="evenodd" stroke-width="28.222" stroke-linejoin="round" xmlns="http://www.w3.org/2000/svg" xmlns:ooo="http://xml.openoffice.org/svg/export" xmlns:xlink="http://www.w3.org/1999/xlink" xmlns:presentation="http://sun.com/xmlns/staroffice/presentation" xmlns:smil="http://www.w3.org/2001/SMIL20/" xmlns:anim="urn:oasis:names:tc:opendocument:xmlns:animation:1.0" xml:space="preserve">
 <defs class="ClipPathGroup">
  <clipPath id="presentation_clip_path" clipPathUnits="userSpaceOnUse">
   <rect x="9668" y="33854" width="1345" height="1014"/>
  </clipPath>
 </defs>
 <defs class="TextShapeIndex">
  <g ooo:slide="id1" ooo:id-list="id3 id4 id5 id6 id7 id8 id9"/>
 </defs>
 <defs class="EmbeddedBulletChars">
  <g id="bullet-char-template(57356)" transform="scale(0.00048828125,-0.00048828125)">
   <path d="M 580,1141 L 1163,571 580,0 -4,571 580,1141 Z"/>
  </g>
  <g id="bullet-char-template(57354)" transform="scale(0.00048828125,-0.00048828125)">
   <path d="M 8,1128 L 1137,1128 1137,0 8,0 8,1128 Z"/>
  </g>
  <g id="bullet-char-template(10146)" transform="scale(0.00048828125,-0.00048828125)">
   <path d="M 174,0 L 602,739 174,1481 1456,739 174,0 Z M 1358,739 L 309,1346 659,739 1358,739 Z"/>
  </g>
  <g id="bullet-char-template(10132)" transform="scale(0.00048828125,-0.00048828125)">
   <path d="M 2015,739 L 1276,0 717,0 1260,543 174,543 174,936 1260,936 717,1481 1274,1481 2015,739 Z"/>
  </g>
  <g id="bullet-char-template(10007)" transform="scale(0.00048828125,-0.00048828125)">
   <path d="M 0,-2 C -7,14 -16,27 -25,37 L 356,567 C 262,823 215,952 215,954 215,979 228,992 255,992 264,992 276,990 289,987 310,991 331,999 354,1012 L 381,999 492,748 772,1049 836,1024 860,1049 C 881,1039 901,1025 922,1006 886,937 835,863 770,784 769,783 710,716 594,584 L 774,223 C 774,196 753,168 711,139 L 727,119 C 717,90 699,76 672,76 641,76 570,178 457,381 L 164,-76 C 142,-110 111,-127 72,-127 30,-127 9,-110 8,-76 1,-67 -2,-52 -2,-32 -2,-23 -1,-13 0,-2 Z"/>
  </g>
  <g id="bullet-char-template(10004)" transform="scale(0.00048828125,-0.00048828125)">
   <path d="M 285,-33 C 182,-33 111,30 74,156 52,228 41,333 41,471 41,549 55,616 82,672 116,743 169,778 240,778 293,778 328,747 346,684 L 369,508 C 377,444 397,411 428,410 L 1163,1116 C 1174,1127 1196,1133 1229,1133 1271,1133 1292,1118 1292,1087 L 1292,965 C 1292,929 1282,901 1262,881 L 442,47 C 390,-6 338,-33 285,-33 Z"/>
  </g>
  <g id="bullet-char-template(9679)" transform="scale(0.00048828125,-0.00048828125)">
   <path d="M 813,0 C 632,0 489,54 383,161 276,268 223,411 223,592 223,773 276,916 383,1023 489,1130 632,1184 813,1184 992,1184 1136,1130 1245,1023 1353,916 1407,772 1407,592 1407,412 1353,268 1245,161 1136,54 992,0 813,0 Z"/>
  </g>
  <g id="bullet-char-template(8226)" transform="scale(0.00048828125,-0.00048828125)">
   <path d="M 346,457 C 273,457 209,483 155,535 101,586 74,649 74,723 74,796 101,859 155,911 209,963 273,989 346,989 419,989 480,963 531,910 582,859 608,796 608,723 608,648 583,586 532,535 482,483 420,457 346,457 Z"/>
  </g>
  <g id="bullet-char-template(8211)" transform="scale(0.00048828125,-0.00048828125)">
   <path d="M -4,459 L 1135,459 1135,606 -4,606 -4,459 Z"/>
  </g>
 </defs>
 <defs class="TextEmbeddedBitmaps"/>
 <g class="SlideGroup">
  <g>
   <g id="id1" class="Slide" clip-path="url(#presentation_clip_path)">
    <g class="Page">
     <g class="Group">
      <g class="com.sun.star.drawing.PolyPolygonShape">
       <g id="id3">
        <rect class="BoundingBox" stroke="none" fill="none" x="9667" y="34297" width="426" height="572"/>
        <g>
         <defs>
          <linearGradient id="gradient1" x1="9687" y1="34582" x2="10074" y2="34582" gradientUnits="userSpaceOnUse">
           <stop offset="0.1" style="stop-color:rgb(51,51,51)"/>
           <stop offset="1" style="stop-color:rgb(153,153,153)"/>
          </linearGradient>
         </defs>
         <path style="fill:url(#gradient1)" d="M 9688,34627 L 9689,34317 10072,34538 10072,34848 9688,34627 Z"/>
        </g>
        <path fill="none" stroke="rgb(178,178,178)" stroke-width="40" stroke-linejoin="round" d="M 9688,34627 L 9689,34317 10072,34538 10072,34848 9688,34627 Z"/>
       </g>
      </g>
      <g class="com.sun.star.drawing.PolyPolygonShape">
       <g id="id4">
        <rect class="BoundingBox" stroke="none" fill="none" x="10510" y="33987" width="272" height="307"/>
        <g>
         <defs>
          <linearGradient id="gradient2" x1="10528" y1="34140" x2="10762" y2="34140" gradientUnits="userSpaceOnUse">
           <stop offset="0.1" style="stop-color:rgb(179,179,179)"/>
           <stop offset="1" style="stop-color:rgb(229,229,229)"/>
          </linearGradient>
         </defs>
         <path style="fill:url(#gradient2)" d="M 10530,34140 L 10530,34007 10761,34140 10760,34273 10530,34140 Z"/>
        </g>
        <path fill="none" stroke="rgb(255,255,255)" stroke-width="40" stroke-linejoin="round" d="M 10530,34140 L 10530,34007 10761,34140 10760,34273 10530,34140 Z"/>
       </g>
      </g>
      <g class="com.sun.star.drawing.PolyPolygonShape">
       <g id="id5">
        <rect class="BoundingBox" stroke="none" fill="none" x="10741" y="33987" width="273" height="307"/>
        <g>
         <defs>
          <pattern id="pattern1" x="10761" y="34007" width="233" height="267" patternUnits="userSpaceOnUse">
           <g transform="translate(-10761,-34007)">
            <path fill="rgb(179,179,179)" stroke="none" d="M 10760,34006 L 10994,34006 10994,34274 10760,34274 10760,34006 Z M 10716,33955 L 10944,33955 10944,34217 10716,34217 10716,33955 Z"/>
            <path fill="rgb(180,180,180)" stroke="none" d="M 10716,33955 L 10944,33955 10944,34217 10716,34217 10716,33955 Z M 10718,33958 L 10942,33958 10942,34214 10718,34214 10718,33958 Z"/>
            <path fill="rgb(181,181,181)" stroke="none" d="M 10718,33958 L 10942,33958 10942,34214 10718,34214 10718,33958 Z M 10721,33961 L 10939,33961 10939,34211 10721,34211 10721,33961 Z"/>
            <path fill="rgb(182,182,182)" stroke="none" d="M 10721,33961 L 10939,33961 10939,34211 10721,34211 10721,33961 Z M 10723,33963 L 10937,33963 10937,34209 10723,34209 10723,33963 Z"/>
            <path fill="rgb(183,183,183)" stroke="none" d="M 10723,33963 L 10937,33963 10937,34209 10723,34209 10723,33963 Z M 10725,33966 L 10935,33966 10935,34206 10725,34206 10725,33966 Z"/>
            <path fill="rgb(184,184,184)" stroke="none" d="M 10725,33966 L 10935,33966 10935,34206 10725,34206 10725,33966 Z M 10728,33969 L 10932,33969 10932,34203 10728,34203 10728,33969 Z"/>
            <path fill="rgb(185,185,185)" stroke="none" d="M 10728,33969 L 10932,33969 10932,34203 10728,34203 10728,33969 Z M 10730,33971 L 10930,33971 10930,34201 10730,34201 10730,33971 Z"/>
            <path fill="rgb(186,186,186)" stroke="none" d="M 10730,33971 L 10930,33971 10930,34201 10730,34201 10730,33971 Z M 10732,33974 L 10928,33974 10928,34198 10732,34198 10732,33974 Z"/>
            <path fill="rgb(187,187,187)" stroke="none" d="M 10732,33974 L 10928,33974 10928,34198 10732,34198 10732,33974 Z M 10735,33977 L 10925,33977 10925,34195 10735,34195 10735,33977 Z"/>
            <path fill="rgb(188,188,188)" stroke="none" d="M 10735,33977 L 10925,33977 10925,34195 10735,34195 10735,33977 Z M 10737,33979 L 10923,33979 10923,34193 10737,34193 10737,33979 Z"/>
            <path fill="rgb(189,189,189)" stroke="none" d="M 10737,33979 L 10923,33979 10923,34193 10737,34193 10737,33979 Z M 10739,33982 L 10921,33982 10921,34190 10739,34190 10739,33982 Z"/>
            <path fill="rgb(190,190,190)" stroke="none" d="M 10739,33982 L 10921,33982 10921,34190 10739,34190 10739,33982 Z M 10741,33985 L 10918,33985 10918,34187 10741,34187 10741,33985 Z"/>
            <path fill="rgb(191,191,191)" stroke="none" d="M 10741,33985 L 10918,33985 10918,34187 10741,34187 10741,33985 Z M 10743,33987 L 10916,33987 10916,34185 10743,34185 10743,33987 Z"/>
            <path fill="rgb(192,192,192)" stroke="none" d="M 10743,33987 L 10916,33987 10916,34185 10743,34185 10743,33987 Z M 10745,33989 L 10914,33989 10914,34182 10745,34182 10745,33989 Z"/>
            <path fill="rgb(193,193,193)" stroke="none" d="M 10745,33989 L 10914,33989 10914,34182 10745,34182 10745,33989 Z M 10748,33992 L 10911,33992 10911,34179 10748,34179 10748,33992 Z"/>
            <path fill="rgb(194,194,194)" stroke="none" d="M 10748,33992 L 10911,33992 10911,34179 10748,34179 10748,33992 Z M 10750,33995 L 10909,33995 10909,34176 10750,34176 10750,33995 Z"/>
            <path fill="rgb(195,195,195)" stroke="none" d="M 10750,33995 L 10909,33995 10909,34176 10750,34176 10750,33995 Z M 10752,33997 L 10907,33997 10907,34174 10752,34174 10752,33997 Z"/>
            <path fill="rgb(196,196,196)" stroke="none" d="M 10752,33997 L 10907,33997 10907,34174 10752,34174 10752,33997 Z M 10755,34000 L 10904,34000 10904,34171 10755,34171 10755,34000 Z"/>
            <path fill="rgb(197,197,197)" stroke="none" d="M 10755,34000 L 10904,34000 10904,34171 10755,34171 10755,34000 Z M 10757,34003 L 10902,34003 10902,34168 10757,34168 10757,34003 Z"/>
            <path fill="rgb(198,198,198)" stroke="none" d="M 10757,34003 L 10902,34003 10902,34168 10757,34168 10757,34003 Z M 10760,34005 L 10900,34005 10900,34166 10760,34166 10760,34005 Z"/>
            <path fill="rgb(199,199,199)" stroke="none" d="M 10760,34005 L 10900,34005 10900,34166 10760,34166 10760,34005 Z M 10762,34008 L 10897,34008 10897,34163 10762,34163 10762,34008 Z"/>
            <path fill="rgb(200,200,200)" stroke="none" d="M 10762,34008 L 10897,34008 10897,34163 10762,34163 10762,34008 Z M 10764,34011 L 10895,34011 10895,34160 10764,34160 10764,34011 Z"/>
            <path fill="rgb(201,201,201)" stroke="none" d="M 10764,34011 L 10895,34011 10895,34160 10764,34160 10764,34011 Z M 10767,34013 L 10892,34013 10892,34158 10767,34158 10767,34013 Z"/>
            <path fill="rgb(202,202,202)" stroke="none" d="M 10767,34013 L 10892,34013 10892,34158 10767,34158 10767,34013 Z M 10769,34016 L 10890,34016 10890,34155 10769,34155 10769,34016 Z"/>
            <path fill="rgb(203,203,203)" stroke="none" d="M 10769,34016 L 10890,34016 10890,34155 10769,34155 10769,34016 Z M 10771,34019 L 10888,34019 10888,34152 10771,34152 10771,34019 Z"/>
            <path fill="rgb(204,204,204)" stroke="none" d="M 10771,34019 L 10888,34019 10888,34152 10771,34152 10771,34019 Z M 10774,34021 L 10885,34021 10885,34150 10774,34150 10774,34021 Z"/>
            <path fill="rgb(205,205,205)" stroke="none" d="M 10774,34021 L 10885,34021 10885,34150 10774,34150 10774,34021 Z M 10776,34024 L 10883,34024 10883,34147 10776,34147 10776,34024 Z"/>
            <path fill="rgb(206,206,206)" stroke="none" d="M 10776,34024 L 10883,34024 10883,34147 10776,34147 10776,34024 Z M 10778,34027 L 10881,34027 10881,34144 10778,34144 10778,34027 Z"/>
            <path fill="rgb(207,207,207)" stroke="none" d="M 10778,34027 L 10881,34027 10881,34144 10778,34144 10778,34027 Z M 10781,34030 L 10878,34030 10878,34141 10781,34141 10781,34030 Z"/>
            <path fill="rgb(208,208,208)" stroke="none" d="M 10781,34030 L 10878,34030 10878,34141 10781,34141 10781,34030 Z M 10783,34032 L 10876,34032 10876,34139 10783,34139 10783,34032 Z"/>
            <path fill="rgb(209,209,209)" stroke="none" d="M 10783,34032 L 10876,34032 10876,34139 10783,34139 10783,34032 Z M 10785,34035 L 10874,34035 10874,34136 10785,34136 10785,34035 Z"/>
            <path fill="rgb(210,210,210)" stroke="none" d="M 10785,34035 L 10874,34035 10874,34136 10785,34136 10785,34035 Z M 10788,34038 L 10871,34038 10871,34133 10788,34133 10788,34038 Z"/>
            <path fill="rgb(211,211,211)" stroke="none" d="M 10788,34038 L 10871,34038 10871,34133 10788,34133 10788,34038 Z M 10790,34040 L 10869,34040 10869,34131 10790,34131 10790,34040 Z"/>
            <path fill="rgb(212,212,212)" stroke="none" d="M 10790,34040 L 10869,34040 10869,34131 10790,34131 10790,34040 Z M 10792,34043 L 10867,34043 10867,34128 10792,34128 10792,34043 Z"/>
            <path fill="rgb(213,213,213)" stroke="none" d="M 10792,34043 L 10867,34043 10867,34128 10792,34128 10792,34043 Z M 10795,34046 L 10864,34046 10864,34125 10795,34125 10795,34046 Z"/>
            <path fill="rgb(214,214,214)" stroke="none" d="M 10795,34046 L 10864,34046 10864,34125 10795,34125 10795,34046 Z M 10797,34048 L 10862,34048 10862,34123 10797,34123 10797,34048 Z"/>
            <path fill="rgb(215,215,215)" stroke="none" d="M 10797,34048 L 10862,34048 10862,34123 10797,34123 10797,34048 Z M 10799,34051 L 10860,34051 10860,34120 10799,34120 10799,34051 Z"/>
            <path fill="rgb(216,216,216)" stroke="none" d="M 10799,34051 L 10860,34051 10860,34120 10799,34120 10799,34051 Z M 10802,34054 L 10857,34054 10857,34117 10802,34117 10802,34054 Z"/>
            <path fill="rgb(217,217,217)" stroke="none" d="M 10802,34054 L 10857,34054 10857,34117 10802,34117 10802,34054 Z M 10804,34056 L 10855,34056 10855,34115 10804,34115 10804,34056 Z"/>
            <path fill="rgb(218,218,218)" stroke="none" d="M 10804,34056 L 10855,34056 10855,34115 10804,34115 10804,34056 Z M 10807,34059 L 10853,34059 10853,34112 10807,34112 10807,34059 Z"/>
            <path fill="rgb(219,219,219)" stroke="none" d="M 10807,34059 L 10853,34059 10853,34112 10807,34112 10807,34059 Z M 10809,34062 L 10850,34062 10850,34109 10809,34109 10809,34062 Z"/>
            <path fill="rgb(220,220,220)" stroke="none" d="M 10809,34062 L 10850,34062 10850,34109 10809,34109 10809,34062 Z M 10811,34064 L 10848,34064 10848,34107 10811,34107 10811,34064 Z"/>
            <path fill="rgb(221,221,221)" stroke="none" d="M 10811,34064 L 10848,34064 10848,34107 10811,34107 10811,34064 Z M 10814,34067 L 10845,34067 10845,34104 10814,34104 10814,34067 Z"/>
            <path fill="rgb(222,222,222)" stroke="none" d="M 10814,34067 L 10845,34067 10845,34104 10814,34104 10814,34067 Z M 10816,34070 L 10843,34070 10843,34101 10816,34101 10816,34070 Z"/>
            <path fill="rgb(223,223,223)" stroke="none" d="M 10816,34070 L 10843,34070 10843,34101 10816,34101 10816,34070 Z M 10818,34073 L 10841,34073 10841,34098 10818,34098 10818,34073 Z"/>
            <path fill="rgb(224,224,224)" stroke="none" d="M 10818,34073 L 10841,34073 10841,34098 10818,34098 10818,34073 Z M 10821,34075 L 10838,34075 10838,34096 10821,34096 10821,34075 Z"/>
            <path fill="rgb(225,225,225)" stroke="none" d="M 10821,34075 L 10838,34075 10838,34096 10821,34096 10821,34075 Z M 10823,34078 L 10836,34078 10836,34093 10823,34093 10823,34078 Z"/>
            <path fill="rgb(226,226,226)" stroke="none" d="M 10823,34078 L 10836,34078 10836,34093 10823,34093 10823,34078 Z M 10825,34081 L 10834,34081 10834,34090 10825,34090 10825,34081 Z"/>
            <path fill="rgb(227,227,227)" stroke="none" d="M 10825,34081 L 10834,34081 10834,34090 10825,34090 10825,34081 Z M 10828,34083 L 10831,34083 10831,34088 10828,34088 10828,34083 Z"/>
            <path fill="rgb(229,229,229)" stroke="none" d="M 10828,34083 L 10831,34083 10831,34088 10828,34088 10828,34083 Z"/>
           </g>
          </pattern>
         </defs>
         <path style="fill:url(#pattern1)" d="M 10761,34273 L 10761,34140 10993,34007 10991,34140 10761,34273 Z"/>
        </g>
        <path fill="none" stroke="rgb(255,255,255)" stroke-width="40" stroke-linejoin="round" d="M 10761,34273 L 10761,34140 10993,34007 10991,34140 10761,34273 Z"/>
       </g>
      </g>
      <g class="com.sun.star.drawing.PolyPolygonShape">
       <g id="id6">
        <rect class="BoundingBox" stroke="none" fill="none" x="10511" y="33854" width="501" height="307"/>
        <g>
         <defs>
          <linearGradient id="gradient3" x1="10761" y1="33874" x2="10761" y2="34140" gradientUnits="userSpaceOnUse">
           <stop offset="0.1" style="stop-color:rgb(179,179,179)"/>
           <stop offset="1" style="stop-color:rgb(229,229,229)"/>
          </linearGradient>
         </defs>
         <path style="fill:url(#gradient3)" d="M 10761,34140 L 10531,34007 10761,33874 10991,34007 10761,34140 Z"/>
        </g>
        <path fill="none" stroke="rgb(255,255,255)" stroke-width="40" stroke-linejoin="round" d="M 10761,34140 L 10531,34007 10761,33874 10991,34007 10761,34140 Z"/>
       </g>
      </g>
      <g class="com.sun.star.drawing.PolyPolygonShape">
       <g id="id7">
        <rect class="BoundingBox" stroke="none" fill="none" x="9669" y="33854" width="1192" height="705"/>
        <g>
         <defs>
          <linearGradient id="gradient4" x1="10264" y1="33874" x2="10264" y2="34538" gradientUnits="userSpaceOnUse">
           <stop offset="0.1" style="stop-color:rgb(51,51,51)"/>
           <stop offset="1" style="stop-color:rgb(153,153,153)"/>
          </linearGradient>
         </defs>
         <path style="fill:url(#gradient4)" d="M 10072,34538 L 9689,34317 10457,33874 10840,34095 10072,34538 Z"/>
        </g>
        <path fill="none" stroke="rgb(178,178,178)" stroke-width="40" stroke-linejoin="round" d="M 10072,34538 L 9689,34317 10457,33874 10840,34095 10072,34538 Z"/>
       </g>
      </g>
      <g class="com.sun.star.drawing.PolyPolygonShape">
       <g id="id8">
        <rect class="BoundingBox" stroke="none" fill="none" x="10050" y="34074" width="813" height="795"/>
        <g>
         <defs>
          <pattern id="pattern2" x="10070" y="34095" width="773" height="754" patternUnits="userSpaceOnUse">
           <g transform="translate(-10070,-34095)">
            <path fill="rgb(51,51,51)" stroke="none" d="M 10069,34094 L 10843,34094 10843,34849 10069,34849 10069,34094 Z M 9918,33946 L 10684,33946 10684,34693 9918,34693 9918,33946 Z"/>
            <path fill="rgb(52,52,52)" stroke="none" d="M 9918,33946 L 10684,33946 10684,34693 9918,34693 9918,33946 Z M 9922,33950 L 10680,33950 10680,34689 9922,34689 9922,33950 Z"/>
            <path fill="rgb(53,53,53)" stroke="none" d="M 9922,33950 L 10680,33950 10680,34689 9922,34689 9922,33950 Z M 9926,33954 L 10676,33954 10676,34685 9926,34685 9926,33954 Z"/>
            <path fill="rgb(54,54,54)" stroke="none" d="M 9926,33954 L 10676,33954 10676,34685 9926,34685 9926,33954 Z M 9930,33957 L 10672,33957 10672,34682 9930,34682 9930,33957 Z"/>
            <path fill="rgb(55,55,55)" stroke="none" d="M 9930,33957 L 10672,33957 10672,34682 9930,34682 9930,33957 Z M 9933,33961 L 10669,33961 10669,34678 9933,34678 9933,33961 Z"/>
            <path fill="rgb(56,56,56)" stroke="none" d="M 9933,33961 L 10669,33961 10669,34678 9933,34678 9933,33961 Z M 9937,33965 L 10665,33965 10665,34674 9937,34674 9937,33965 Z"/>
            <path fill="rgb(57,57,57)" stroke="none" d="M 9937,33965 L 10665,33965 10665,34674 9937,34674 9937,33965 Z M 9941,33968 L 10661,33968 10661,34671 9941,34671 9941,33968 Z"/>
            <path fill="rgb(58,58,58)" stroke="none" d="M 9941,33968 L 10661,33968 10661,34671 9941,34671 9941,33968 Z M 9945,33972 L 10657,33972 10657,34667 9945,34667 9945,33972 Z"/>
            <path fill="rgb(59,59,59)" stroke="none" d="M 9945,33972 L 10657,33972 10657,34667 9945,34667 9945,33972 Z M 9949,33976 L 10653,33976 10653,34663 9949,34663 9949,33976 Z"/>
            <path fill="rgb(60,60,60)" stroke="none" d="M 9949,33976 L 10653,33976 10653,34663 9949,34663 9949,33976 Z M 9952,33980 L 10650,33980 10650,34659 9952,34659 9952,33980 Z"/>
            <path fill="rgb(61,61,61)" stroke="none" d="M 9952,33980 L 10650,33980 10650,34659 9952,34659 9952,33980 Z M 9956,33983 L 10646,33983 10646,34656 9956,34656 9956,33983 Z"/>
            <path fill="rgb(62,62,62)" stroke="none" d="M 9956,33983 L 10646,33983 10646,34656 9956,34656 9956,33983 Z M 9960,33987 L 10642,33987 10642,34652 9960,34652 9960,33987 Z"/>
            <path fill="rgb(63,63,63)" stroke="none" d="M 9960,33987 L 10642,33987 10642,34652 9960,34652 9960,33987 Z M 9964,33991 L 10638,33991 10638,34648 9964,34648 9964,33991 Z"/>
            <path fill="rgb(64,64,64)" stroke="none" d="M 9964,33991 L 10638,33991 10638,34648 9964,34648 9964,33991 Z M 9968,33994 L 10634,33994 10634,34645 9968,34645 9968,33994 Z"/>
            <path fill="rgb(65,65,65)" stroke="none" d="M 9968,33994 L 10634,33994 10634,34645 9968,34645 9968,33994 Z M 9971,33998 L 10631,33998 10631,34641 9971,34641 9971,33998 Z"/>
            <path fill="rgb(66,66,66)" stroke="none" d="M 9971,33998 L 10631,33998 10631,34641 9971,34641 9971,33998 Z M 9975,34002 L 10627,34002 10627,34637 9975,34637 9975,34002 Z"/>
            <path fill="rgb(67,67,67)" stroke="none" d="M 9975,34002 L 10627,34002 10627,34637 9975,34637 9975,34002 Z M 9979,34005 L 10623,34005 10623,34633 9979,34633 9979,34005 Z"/>
            <path fill="rgb(68,68,68)" stroke="none" d="M 9979,34005 L 10623,34005 10623,34633 9979,34633 9979,34005 Z M 9983,34009 L 10619,34009 10619,34630 9983,34630 9983,34009 Z"/>
            <path fill="rgb(69,69,69)" stroke="none" d="M 9983,34009 L 10619,34009 10619,34630 9983,34630 9983,34009 Z M 9987,34013 L 10615,34013 10615,34626 9987,34626 9987,34013 Z"/>
            <path fill="rgb(70,70,70)" stroke="none" d="M 9987,34013 L 10615,34013 10615,34626 9987,34626 9987,34013 Z M 9990,34017 L 10612,34017 10612,34622 9990,34622 9990,34017 Z"/>
            <path fill="rgb(71,71,71)" stroke="none" d="M 9990,34017 L 10612,34017 10612,34622 9990,34622 9990,34017 Z M 9994,34020 L 10608,34020 10608,34619 9994,34619 9994,34020 Z"/>
            <path fill="rgb(72,72,72)" stroke="none" d="M 9994,34020 L 10608,34020 10608,34619 9994,34619 9994,34020 Z M 9998,34024 L 10604,34024 10604,34615 9998,34615 9998,34024 Z"/>
            <path fill="rgb(73,73,73)" stroke="none" d="M 9998,34024 L 10604,34024 10604,34615 9998,34615 9998,34024 Z M 10002,34028 L 10600,34028 10600,34611 10002,34611 10002,34028 Z"/>
            <path fill="rgb(74,74,74)" stroke="none" d="M 10002,34028 L 10600,34028 10600,34611 10002,34611 10002,34028 Z M 10006,34031 L 10596,34031 10596,34608 10006,34608 10006,34031 Z"/>
            <path fill="rgb(75,75,75)" stroke="none" d="M 10006,34031 L 10596,34031 10596,34608 10006,34608 10006,34031 Z M 10009,34035 L 10593,34035 10593,34604 10009,34604 10009,34035 Z"/>
            <path fill="rgb(76,76,76)" stroke="none" d="M 10009,34035 L 10593,34035 10593,34604 10009,34604 10009,34035 Z M 10013,34039 L 10589,34039 10589,34600 10013,34600 10013,34039 Z"/>
            <path fill="rgb(77,77,77)" stroke="none" d="M 10013,34039 L 10589,34039 10589,34600 10013,34600 10013,34039 Z M 10017,34043 L 10585,34043 10585,34596 10017,34596 10017,34043 Z"/>
            <path fill="rgb(78,78,78)" stroke="none" d="M 10017,34043 L 10585,34043 10585,34596 10017,34596 10017,34043 Z M 10021,34046 L 10581,34046 10581,34593 10021,34593 10021,34046 Z"/>
            <path fill="rgb(79,79,79)" stroke="none" d="M 10021,34046 L 10581,34046 10581,34593 10021,34593 10021,34046 Z M 10025,34050 L 10577,34050 10577,34589 10025,34589 10025,34050 Z"/>
            <path fill="rgb(80,80,80)" stroke="none" d="M 10025,34050 L 10577,34050 10577,34589 10025,34589 10025,34050 Z M 10028,34054 L 10574,34054 10574,34585 10028,34585 10028,34054 Z"/>
            <path fill="rgb(81,81,81)" stroke="none" d="M 10028,34054 L 10574,34054 10574,34585 10028,34585 10028,34054 Z M 10032,34057 L 10570,34057 10570,34582 10032,34582 10032,34057 Z"/>
            <path fill="rgb(82,82,82)" stroke="none" d="M 10032,34057 L 10570,34057 10570,34582 10032,34582 10032,34057 Z M 10036,34061 L 10566,34061 10566,34578 10036,34578 10036,34061 Z"/>
            <path fill="rgb(83,83,83)" stroke="none" d="M 10036,34061 L 10566,34061 10566,34578 10036,34578 10036,34061 Z M 10040,34065 L 10562,34065 10562,34574 10040,34574 10040,34065 Z"/>
            <path fill="rgb(84,84,84)" stroke="none" d="M 10040,34065 L 10562,34065 10562,34574 10040,34574 10040,34065 Z M 10044,34068 L 10558,34068 10558,34570 10044,34570 10044,34068 Z"/>
            <path fill="rgb(85,85,85)" stroke="none" d="M 10044,34068 L 10558,34068 10558,34570 10044,34570 10044,34068 Z M 10047,34072 L 10555,34072 10555,34567 10047,34567 10047,34072 Z"/>
            <path fill="rgb(86,86,86)" stroke="none" d="M 10047,34072 L 10555,34072 10555,34567 10047,34567 10047,34072 Z M 10050,34075 L 10551,34075 10551,34563 10050,34563 10050,34075 Z"/>
            <path fill="rgb(87,87,87)" stroke="none" d="M 10050,34075 L 10551,34075 10551,34563 10050,34563 10050,34075 Z M 10054,34079 L 10547,34079 10547,34559 10054,34559 10054,34079 Z"/>
            <path fill="rgb(88,88,88)" stroke="none" d="M 10054,34079 L 10547,34079 10547,34559 10054,34559 10054,34079 Z M 10058,34082 L 10543,34082 10543,34556 10058,34556 10058,34082 Z"/>
            <path fill="rgb(89,89,89)" stroke="none" d="M 10058,34082 L 10543,34082 10543,34556 10058,34556 10058,34082 Z M 10062,34086 L 10539,34086 10539,34552 10062,34552 10062,34086 Z"/>
            <path fill="rgb(90,90,90)" stroke="none" d="M 10062,34086 L 10539,34086 10539,34552 10062,34552 10062,34086 Z M 10065,34090 L 10536,34090 10536,34548 10065,34548 10065,34090 Z"/>
            <path fill="rgb(91,91,91)" stroke="none" d="M 10065,34090 L 10536,34090 10536,34548 10065,34548 10065,34090 Z M 10069,34093 L 10532,34093 10532,34545 10069,34545 10069,34093 Z"/>
            <path fill="rgb(92,92,92)" stroke="none" d="M 10069,34093 L 10532,34093 10532,34545 10069,34545 10069,34093 Z M 10073,34097 L 10528,34097 10528,34541 10073,34541 10073,34097 Z"/>
            <path fill="rgb(93,93,93)" stroke="none" d="M 10073,34097 L 10528,34097 10528,34541 10073,34541 10073,34097 Z M 10077,34101 L 10524,34101 10524,34537 10077,34537 10077,34101 Z"/>
            <path fill="rgb(94,94,94)" stroke="none" d="M 10077,34101 L 10524,34101 10524,34537 10077,34537 10077,34101 Z M 10081,34105 L 10520,34105 10520,34533 10081,34533 10081,34105 Z"/>
            <path fill="rgb(95,95,95)" stroke="none" d="M 10081,34105 L 10520,34105 10520,34533 10081,34533 10081,34105 Z M 10084,34108 L 10517,34108 10517,34530 10084,34530 10084,34108 Z"/>
            <path fill="rgb(96,96,96)" stroke="none" d="M 10084,34108 L 10517,34108 10517,34530 10084,34530 10084,34108 Z M 10088,34112 L 10513,34112 10513,34526 10088,34526 10088,34112 Z"/>
            <path fill="rgb(97,97,97)" stroke="none" d="M 10088,34112 L 10513,34112 10513,34526 10088,34526 10088,34112 Z M 10092,34116 L 10509,34116 10509,34522 10092,34522 10092,34116 Z"/>
            <path fill="rgb(98,98,98)" stroke="none" d="M 10092,34116 L 10509,34116 10509,34522 10092,34522 10092,34116 Z M 10096,34119 L 10505,34119 10505,34519 10096,34519 10096,34119 Z"/>
            <path fill="rgb(99,99,99)" stroke="none" d="M 10096,34119 L 10505,34119 10505,34519 10096,34519 10096,34119 Z M 10100,34123 L 10501,34123 10501,34515 10100,34515 10100,34123 Z"/>
            <path fill="rgb(100,100,100)" stroke="none" d="M 10100,34123 L 10501,34123 10501,34515 10100,34515 10100,34123 Z M 10103,34127 L 10498,34127 10498,34511 10103,34511 10103,34127 Z"/>
            <path fill="rgb(101,101,101)" stroke="none" d="M 10103,34127 L 10498,34127 10498,34511 10103,34511 10103,34127 Z M 10107,34130 L 10494,34130 10494,34507 10107,34507 10107,34130 Z"/>
            <path fill="rgb(102,102,102)" stroke="none" d="M 10107,34130 L 10494,34130 10494,34507 10107,34507 10107,34130 Z M 10111,34134 L 10490,34134 10490,34504 10111,34504 10111,34134 Z"/>
            <path fill="rgb(103,103,103)" stroke="none" d="M 10111,34134 L 10490,34134 10490,34504 10111,34504 10111,34134 Z M 10115,34138 L 10486,34138 10486,34500 10115,34500 10115,34138 Z"/>
            <path fill="rgb(104,104,104)" stroke="none" d="M 10115,34138 L 10486,34138 10486,34500 10115,34500 10115,34138 Z M 10119,34142 L 10482,34142 10482,34496 10119,34496 10119,34142 Z"/>
            <path fill="rgb(105,105,105)" stroke="none" d="M 10119,34142 L 10482,34142 10482,34496 10119,34496 10119,34142 Z M 10122,34145 L 10479,34145 10479,34493 10122,34493 10122,34145 Z"/>
            <path fill="rgb(106,106,106)" stroke="none" d="M 10122,34145 L 10479,34145 10479,34493 10122,34493 10122,34145 Z M 10126,34149 L 10475,34149 10475,34489 10126,34489 10126,34149 Z"/>
            <path fill="rgb(107,107,107)" stroke="none" d="M 10126,34149 L 10475,34149 10475,34489 10126,34489 10126,34149 Z M 10130,34153 L 10471,34153 10471,34485 10130,34485 10130,34153 Z"/>
            <path fill="rgb(108,108,108)" stroke="none" d="M 10130,34153 L 10471,34153 10471,34485 10130,34485 10130,34153 Z M 10134,34156 L 10467,34156 10467,34482 10134,34482 10134,34156 Z"/>
            <path fill="rgb(109,109,109)" stroke="none" d="M 10134,34156 L 10467,34156 10467,34482 10134,34482 10134,34156 Z M 10138,34160 L 10463,34160 10463,34478 10138,34478 10138,34160 Z"/>
            <path fill="rgb(110,110,110)" stroke="none" d="M 10138,34160 L 10463,34160 10463,34478 10138,34478 10138,34160 Z M 10141,34164 L 10460,34164 10460,34474 10141,34474 10141,34164 Z"/>
            <path fill="rgb(111,111,111)" stroke="none" d="M 10141,34164 L 10460,34164 10460,34474 10141,34474 10141,34164 Z M 10145,34168 L 10456,34168 10456,34470 10145,34470 10145,34168 Z"/>
            <path fill="rgb(112,112,112)" stroke="none" d="M 10145,34168 L 10456,34168 10456,34470 10145,34470 10145,34168 Z M 10149,34171 L 10452,34171 10452,34467 10149,34467 10149,34171 Z"/>
            <path fill="rgb(113,113,113)" stroke="none" d="M 10149,34171 L 10452,34171 10452,34467 10149,34467 10149,34171 Z M 10153,34175 L 10448,34175 10448,34463 10153,34463 10153,34175 Z"/>
            <path fill="rgb(114,114,114)" stroke="none" d="M 10153,34175 L 10448,34175 10448,34463 10153,34463 10153,34175 Z M 10157,34179 L 10444,34179 10444,34459 10157,34459 10157,34179 Z"/>
            <path fill="rgb(115,115,115)" stroke="none" d="M 10157,34179 L 10444,34179 10444,34459 10157,34459 10157,34179 Z M 10160,34182 L 10441,34182 10441,34456 10160,34456 10160,34182 Z"/>
            <path fill="rgb(116,116,116)" stroke="none" d="M 10160,34182 L 10441,34182 10441,34456 10160,34456 10160,34182 Z M 10164,34186 L 10437,34186 10437,34452 10164,34452 10164,34186 Z"/>
            <path fill="rgb(117,117,117)" stroke="none" d="M 10164,34186 L 10437,34186 10437,34452 10164,34452 10164,34186 Z M 10168,34190 L 10433,34190 10433,34448 10168,34448 10168,34190 Z"/>
            <path fill="rgb(118,118,118)" stroke="none" d="M 10168,34190 L 10433,34190 10433,34448 10168,34448 10168,34190 Z M 10172,34193 L 10429,34193 10429,34444 10172,34444 10172,34193 Z"/>
            <path fill="rgb(119,119,119)" stroke="none" d="M 10172,34193 L 10429,34193 10429,34444 10172,34444 10172,34193 Z M 10176,34197 L 10425,34197 10425,34441 10176,34441 10176,34197 Z"/>
            <path fill="rgb(120,120,120)" stroke="none" d="M 10176,34197 L 10425,34197 10425,34441 10176,34441 10176,34197 Z M 10179,34201 L 10422,34201 10422,34437 10179,34437 10179,34201 Z"/>
            <path fill="rgb(121,121,121)" stroke="none" d="M 10179,34201 L 10422,34201 10422,34437 10179,34437 10179,34201 Z M 10183,34205 L 10418,34205 10418,34433 10183,34433 10183,34205 Z"/>
            <path fill="rgb(122,122,122)" stroke="none" d="M 10183,34205 L 10418,34205 10418,34433 10183,34433 10183,34205 Z M 10187,34208 L 10414,34208 10414,34430 10187,34430 10187,34208 Z"/>
            <path fill="rgb(123,123,123)" stroke="none" d="M 10187,34208 L 10414,34208 10414,34430 10187,34430 10187,34208 Z M 10191,34212 L 10410,34212 10410,34426 10191,34426 10191,34212 Z"/>
            <path fill="rgb(124,124,124)" stroke="none" d="M 10191,34212 L 10410,34212 10410,34426 10191,34426 10191,34212 Z M 10195,34216 L 10406,34216 10406,34422 10195,34422 10195,34216 Z"/>
            <path fill="rgb(125,125,125)" stroke="none" d="M 10195,34216 L 10406,34216 10406,34422 10195,34422 10195,34216 Z M 10198,34219 L 10403,34219 10403,34419 10198,34419 10198,34219 Z"/>
            <path fill="rgb(126,126,126)" stroke="none" d="M 10198,34219 L 10403,34219 10403,34419 10198,34419 10198,34219 Z M 10202,34223 L 10399,34223 10399,34415 10202,34415 10202,34223 Z"/>
            <path fill="rgb(127,127,127)" stroke="none" d="M 10202,34223 L 10399,34223 10399,34415 10202,34415 10202,34223 Z M 10206,34227 L 10395,34227 10395,34411 10206,34411 10206,34227 Z"/>
            <path fill="rgb(128,128,128)" stroke="none" d="M 10206,34227 L 10395,34227 10395,34411 10206,34411 10206,34227 Z M 10210,34231 L 10391,34231 10391,34407 10210,34407 10210,34231 Z"/>
            <path fill="rgb(129,129,129)" stroke="none" d="M 10210,34231 L 10391,34231 10391,34407 10210,34407 10210,34231 Z M 10214,34234 L 10387,34234 10387,34404 10214,34404 10214,34234 Z"/>
            <path fill="rgb(130,130,130)" stroke="none" d="M 10214,34234 L 10387,34234 10387,34404 10214,34404 10214,34234 Z M 10217,34238 L 10384,34238 10384,34400 10217,34400 10217,34238 Z"/>
            <path fill="rgb(131,131,131)" stroke="none" d="M 10217,34238 L 10384,34238 10384,34400 10217,34400 10217,34238 Z M 10221,34242 L 10380,34242 10380,34396 10221,34396 10221,34242 Z"/>
            <path fill="rgb(132,132,132)" stroke="none" d="M 10221,34242 L 10380,34242 10380,34396 10221,34396 10221,34242 Z M 10225,34245 L 10376,34245 10376,34393 10225,34393 10225,34245 Z"/>
            <path fill="rgb(133,133,133)" stroke="none" d="M 10225,34245 L 10376,34245 10376,34393 10225,34393 10225,34245 Z M 10229,34249 L 10372,34249 10372,34389 10229,34389 10229,34249 Z"/>
            <path fill="rgb(134,134,134)" stroke="none" d="M 10229,34249 L 10372,34249 10372,34389 10229,34389 10229,34249 Z M 10233,34253 L 10368,34253 10368,34385 10233,34385 10233,34253 Z"/>
            <path fill="rgb(135,135,135)" stroke="none" d="M 10233,34253 L 10368,34253 10368,34385 10233,34385 10233,34253 Z M 10236,34257 L 10365,34257 10365,34381 10236,34381 10236,34257 Z"/>
            <path fill="rgb(136,136,136)" stroke="none" d="M 10236,34257 L 10365,34257 10365,34381 10236,34381 10236,34257 Z M 10240,34260 L 10361,34260 10361,34378 10240,34378 10240,34260 Z"/>
            <path fill="rgb(137,137,137)" stroke="none" d="M 10240,34260 L 10361,34260 10361,34378 10240,34378 10240,34260 Z M 10244,34264 L 10357,34264 10357,34374 10244,34374 10244,34264 Z"/>
            <path fill="rgb(138,138,138)" stroke="none" d="M 10244,34264 L 10357,34264 10357,34374 10244,34374 10244,34264 Z M 10248,34268 L 10353,34268 10353,34370 10248,34370 10248,34268 Z"/>
            <path fill="rgb(139,139,139)" stroke="none" d="M 10248,34268 L 10353,34268 10353,34370 10248,34370 10248,34268 Z M 10252,34271 L 10349,34271 10349,34367 10252,34367 10252,34271 Z"/>
            <path fill="rgb(140,140,140)" stroke="none" d="M 10252,34271 L 10349,34271 10349,34367 10252,34367 10252,34271 Z M 10255,34275 L 10346,34275 10346,34363 10255,34363 10255,34275 Z"/>
            <path fill="rgb(141,141,141)" stroke="none" d="M 10255,34275 L 10346,34275 10346,34363 10255,34363 10255,34275 Z M 10259,34279 L 10342,34279 10342,34359 10259,34359 10259,34279 Z"/>
            <path fill="rgb(142,142,142)" stroke="none" d="M 10259,34279 L 10342,34279 10342,34359 10259,34359 10259,34279 Z M 10263,34282 L 10338,34282 10338,34356 10263,34356 10263,34282 Z"/>
            <path fill="rgb(143,143,143)" stroke="none" d="M 10263,34282 L 10338,34282 10338,34356 10263,34356 10263,34282 Z M 10267,34286 L 10334,34286 10334,34352 10267,34352 10267,34286 Z"/>
            <path fill="rgb(144,144,144)" stroke="none" d="M 10267,34286 L 10334,34286 10334,34352 10267,34352 10267,34286 Z M 10271,34290 L 10330,34290 10330,34348 10271,34348 10271,34290 Z"/>
            <path fill="rgb(145,145,145)" stroke="none" d="M 10271,34290 L 10330,34290 10330,34348 10271,34348 10271,34290 Z M 10274,34294 L 10327,34294 10327,34344 10274,34344 10274,34294 Z"/>
            <path fill="rgb(146,146,146)" stroke="none" d="M 10274,34294 L 10327,34294 10327,34344 10274,34344 10274,34294 Z M 10278,34297 L 10323,34297 10323,34341 10278,34341 10278,34297 Z"/>
            <path fill="rgb(147,147,147)" stroke="none" d="M 10278,34297 L 10323,34297 10323,34341 10278,34341 10278,34297 Z M 10282,34301 L 10319,34301 10319,34337 10282,34337 10282,34301 Z"/>
            <path fill="rgb(148,148,148)" stroke="none" d="M 10282,34301 L 10319,34301 10319,34337 10282,34337 10282,34301 Z M 10286,34305 L 10315,34305 10315,34333 10286,34333 10286,34305 Z"/>
            <path fill="rgb(149,149,149)" stroke="none" d="M 10286,34305 L 10315,34305 10315,34333 10286,34333 10286,34305 Z M 10290,34308 L 10311,34308 10311,34330 10290,34330 10290,34308 Z"/>
            <path fill="rgb(150,150,150)" stroke="none" d="M 10290,34308 L 10311,34308 10311,34330 10290,34330 10290,34308 Z M 10293,34312 L 10308,34312 10308,34326 10293,34326 10293,34312 Z"/>
            <path fill="rgb(151,151,151)" stroke="none" d="M 10293,34312 L 10308,34312 10308,34326 10293,34326 10293,34312 Z M 10297,34316 L 10304,34316 10304,34322 10297,34322 10297,34316 Z"/>
            <path fill="rgb(153,153,153)" stroke="none" d="M 10297,34316 L 10304,34316 10304,34322 10297,34322 10297,34316 Z"/>
           </g>
          </pattern>
         </defs>
         <path style="fill:url(#pattern2)" d="M 10070,34848 L 10070,34538 10842,34095 10840,34405 10070,34848 Z"/>
        </g>
        <path fill="none" stroke="rgb(178,178,178)" stroke-width="40" stroke-linejoin="round" d="M 10070,34848 L 10070,34538 10842,34095 10840,34405 10070,34848 Z"/>
       </g>
      </g>
      <g class="com.sun.star.drawing.PolyPolygonShape">
       <g id="id9">
        <rect class="BoundingBox" stroke="none" fill="none" x="9668" y="33854" width="1345" height="1015"/>
        <path fill="none" stroke="rgb(0,0,0)" stroke-width="40" stroke-linejoin="round" d="M 9688,34627 L 9689,34317 10457,33874 10609,33963 10761,33874 10991,34007 10991,34140 10840,34228 10840,34405 10071,34848 9688,34627 Z"/>
       </g>
      </g>
     </g>
    </g>
   </g>
  </g>
 </g>
</svg>