<?xml version="1.0" encoding="UTF-8"?>
<!DOCTYPE svg PUBLIC "-//W3C//DTD SVG 1.1//EN" "http://www.w3.org/Graphics/SVG/1.1/DTD/svg11.dtd">
<svg version="1.2" width="11.92mm" height="11.03mm" viewBox="15801 16682 1192 1103" preserveAspectRatio="xMidYMid" fill-rule="evenodd" stroke-width="28.222" stroke-linejoin="round" xmlns="http://www.w3.org/2000/svg" xmlns:ooo="http://xml.openoffice.org/svg/export" xmlns:xlink="http://www.w3.org/1999/xlink" xmlns:presentation="http://sun.com/xmlns/staroffice/presentation" xmlns:smil="http://www.w3.org/2001/SMIL20/" xmlns:anim="urn:oasis:names:tc:opendocument:xmlns:animation:1.0" xml:space="preserve">
 <defs class="ClipPathGroup">
  <clipPath id="presentation_clip_path" clipPathUnits="userSpaceOnUse">
   <rect x="15801" y="16682" width="1192" height="1103"/>
  </clipPath>
 </defs>
 <defs class="TextShapeIndex">
  <g ooo:slide="id1" ooo:id-list="id3 id4 id5 id6 id7 id8 id9"/>
 </defs>
 <defs class="EmbeddedBulletChars">
  <g id="bullet-char-template(57356)" transform="scale(0.00048828125,-0.00048828125)">
   <path d="M 580,1141 L 1163,571 580,0 -4,571 580,1141 Z"/>
  </g>
  <g id="bullet-char-template(57354)" transform="scale(0.00048828125,-0.00048828125)">
   <path d="M 8,1128 L 1137,1128 1137,0 8,0 8,1128 Z"/>
  </g>
  <g id="bullet-char-template(10146)" transform="scale(0.00048828125,-0.00048828125)">
   <path d="M 174,0 L 602,739 174,1481 1456,739 174,0 Z M 1358,739 L 309,1346 659,739 1358,739 Z"/>
  </g>
  <g id="bullet-char-template(10132)" transform="scale(0.00048828125,-0.00048828125)">
   <path d="M 2015,739 L 1276,0 717,0 1260,543 174,543 174,936 1260,936 717,1481 1274,1481 2015,739 Z"/>
  </g>
  <g id="bullet-char-template(10007)" transform="scale(0.00048828125,-0.00048828125)">
   <path d="M 0,-2 C -7,14 -16,27 -25,37 L 356,567 C 262,823 215,952 215,954 215,979 228,992 255,992 264,992 276,990 289,987 310,991 331,999 354,1012 L 381,999 492,748 772,1049 836,1024 860,1049 C 881,1039 901,1025 922,1006 886,937 835,863 770,784 769,783 710,716 594,584 L 774,223 C 774,196 753,168 711,139 L 727,119 C 717,90 699,76 672,76 641,76 570,178 457,381 L 164,-76 C 142,-110 111,-127 72,-127 30,-127 9,-110 8,-76 1,-67 -2,-52 -2,-32 -2,-23 -1,-13 0,-2 Z"/>
  </g>
  <g id="bullet-char-template(10004)" transform="scale(0.00048828125,-0.00048828125)">
   <path d="M 285,-33 C 182,-33 111,30 74,156 52,228 41,333 41,471 41,549 55,616 82,672 116,743 169,778 240,778 293,778 328,747 346,684 L 369,508 C 377,444 397,411 428,410 L 1163,1116 C 1174,1127 1196,1133 1229,1133 1271,1133 1292,1118 1292,1087 L 1292,965 C 1292,929 1282,901 1262,881 L 442,47 C 390,-6 338,-33 285,-33 Z"/>
  </g>
  <g id="bullet-char-template(9679)" transform="scale(0.00048828125,-0.00048828125)">
   <path d="M 813,0 C 632,0 489,54 383,161 276,268 223,411 223,592 223,773 276,916 383,1023 489,1130 632,1184 813,1184 992,1184 1136,1130 1245,1023 1353,916 1407,772 1407,592 1407,412 1353,268 1245,161 1136,54 992,0 813,0 Z"/>
  </g>
  <g id="bullet-char-template(8226)" transform="scale(0.00048828125,-0.00048828125)">
   <path d="M 346,457 C 273,457 209,483 155,535 101,586 74,649 74,723 74,796 101,859 155,911 209,963 273,989 346,989 419,989 480,963 531,910 582,859 608,796 608,723 608,648 583,586 532,535 482,483 420,457 346,457 Z"/>
  </g>
  <g id="bullet-char-template(8211)" transform="scale(0.00048828125,-0.00048828125)">
   <path d="M -4,459 L 1135,459 1135,606 -4,606 -4,459 Z"/>
  </g>
 </defs>
 <defs class="TextEmbeddedBitmaps"/>
 <g class="SlideGroup">
  <g>
   <g id="id1" class="Slide" clip-path="url(#presentation_clip_path)">
    <g class="Page">
     <g class="Group">
      <g class="com.sun.star.drawing.PolyPolygonShape">
       <g id="id3">
        <rect class="BoundingBox" stroke="none" fill="none" x="15801" y="16815" width="813" height="971"/>
        <g>
         <defs>
          <linearGradient id="gradient1" x1="15820" y1="17300" x2="16594" y2="17300" gradientUnits="userSpaceOnUse">
           <stop offset="0.1" style="stop-color:rgb(102,102,102)"/>
           <stop offset="1" style="stop-color:rgb(153,153,153)"/>
          </linearGradient>
         </defs>
         <path style="fill:url(#gradient1)" d="M 16591,17765 L 16593,17278 15821,16835 15821,17322 16591,17765 Z"/>
        </g>
        <path fill="none" stroke="rgb(178,178,178)" stroke-width="40" stroke-linejoin="round" d="M 16591,17765 L 16593,17278 15821,16835 15821,17322 16591,17765 Z"/>
       </g>
      </g>
      <g class="com.sun.star.drawing.PolyPolygonShape">
       <g id="id4">
        <rect class="BoundingBox" stroke="none" fill="none" x="15801" y="16681" width="1040" height="618"/>
        <g>
         <defs>
          <linearGradient id="gradient2" x1="16320" y1="16702" x2="16320" y2="17278" gradientUnits="userSpaceOnUse">
           <stop offset="0.1" style="stop-color:rgb(102,102,102)"/>
           <stop offset="1" style="stop-color:rgb(153,153,153)"/>
          </linearGradient>
         </defs>
         <path style="fill:url(#gradient2)" d="M 16589,17278 L 16820,17145 16052,16702 15821,16835 16589,17278 Z"/>
        </g>
        <path fill="none" stroke="rgb(178,178,178)" stroke-width="40" stroke-linejoin="round" d="M 16589,17278 L 16820,17145 16052,16702 15821,16835 16589,17278 Z"/>
       </g>
      </g>
      <g class="com.sun.star.drawing.PolyPolygonShape">
       <g id="id5">
        <rect class="BoundingBox" stroke="none" fill="none" x="16569" y="17125" width="272" height="661"/>
        <g>
         <defs>
          <pattern id="pattern1" x="16589" y="17145" width="232" height="621" patternUnits="userSpaceOnUse">
           <g transform="translate(-16589,-17145)">
            <path fill="rgb(102,102,102)" stroke="none" d="M 16588,17144 L 16821,17144 16821,17766 16588,17766 16588,17144 Z M 16544,17026 L 16771,17026 16771,17634 16544,17634 16544,17026 Z"/>
            <path fill="rgb(103,103,103)" stroke="none" d="M 16544,17026 L 16771,17026 16771,17634 16544,17634 16544,17026 Z M 16546,17032 L 16769,17032 16769,17628 16546,17628 16546,17032 Z"/>
            <path fill="rgb(104,104,104)" stroke="none" d="M 16546,17032 L 16769,17032 16769,17628 16546,17628 16546,17032 Z M 16548,17038 L 16767,17038 16767,17622 16548,17622 16548,17038 Z"/>
            <path fill="rgb(105,105,105)" stroke="none" d="M 16548,17038 L 16767,17038 16767,17622 16548,17622 16548,17038 Z M 16551,17044 L 16764,17044 16764,17616 16551,17616 16551,17044 Z"/>
            <path fill="rgb(106,106,106)" stroke="none" d="M 16551,17044 L 16764,17044 16764,17616 16551,17616 16551,17044 Z M 16553,17050 L 16762,17050 16762,17610 16553,17610 16553,17050 Z"/>
            <path fill="rgb(107,107,107)" stroke="none" d="M 16553,17050 L 16762,17050 16762,17610 16553,17610 16553,17050 Z M 16555,17056 L 16760,17056 16760,17604 16555,17604 16555,17056 Z"/>
            <path fill="rgb(108,108,108)" stroke="none" d="M 16555,17056 L 16760,17056 16760,17604 16555,17604 16555,17056 Z M 16558,17062 L 16757,17062 16757,17598 16558,17598 16558,17062 Z"/>
            <path fill="rgb(109,109,109)" stroke="none" d="M 16558,17062 L 16757,17062 16757,17598 16558,17598 16558,17062 Z M 16560,17068 L 16755,17068 16755,17592 16560,17592 16560,17068 Z"/>
            <path fill="rgb(110,110,110)" stroke="none" d="M 16560,17068 L 16755,17068 16755,17592 16560,17592 16560,17068 Z M 16562,17074 L 16753,17074 16753,17586 16562,17586 16562,17074 Z"/>
            <path fill="rgb(111,111,111)" stroke="none" d="M 16562,17074 L 16753,17074 16753,17586 16562,17586 16562,17074 Z M 16564,17081 L 16751,17081 16751,17579 16564,17579 16564,17081 Z"/>
            <path fill="rgb(112,112,112)" stroke="none" d="M 16564,17081 L 16751,17081 16751,17579 16564,17579 16564,17081 Z M 16567,17087 L 16748,17087 16748,17573 16567,17573 16567,17087 Z"/>
            <path fill="rgb(113,113,113)" stroke="none" d="M 16567,17087 L 16748,17087 16748,17573 16567,17573 16567,17087 Z M 16569,17093 L 16746,17093 16746,17567 16569,17567 16569,17093 Z"/>
            <path fill="rgb(114,114,114)" stroke="none" d="M 16569,17093 L 16746,17093 16746,17567 16569,17567 16569,17093 Z M 16570,17099 L 16744,17099 16744,17561 16570,17561 16570,17099 Z"/>
            <path fill="rgb(115,115,115)" stroke="none" d="M 16570,17099 L 16744,17099 16744,17561 16570,17561 16570,17099 Z M 16573,17105 L 16741,17105 16741,17555 16573,17555 16573,17105 Z"/>
            <path fill="rgb(116,116,116)" stroke="none" d="M 16573,17105 L 16741,17105 16741,17555 16573,17555 16573,17105 Z M 16575,17111 L 16739,17111 16739,17549 16575,17549 16575,17111 Z"/>
            <path fill="rgb(117,117,117)" stroke="none" d="M 16575,17111 L 16739,17111 16739,17549 16575,17549 16575,17111 Z M 16577,17117 L 16737,17117 16737,17543 16577,17543 16577,17117 Z"/>
            <path fill="rgb(118,118,118)" stroke="none" d="M 16577,17117 L 16737,17117 16737,17543 16577,17543 16577,17117 Z M 16579,17123 L 16735,17123 16735,17537 16579,17537 16579,17123 Z"/>
            <path fill="rgb(119,119,119)" stroke="none" d="M 16579,17123 L 16735,17123 16735,17537 16579,17537 16579,17123 Z M 16582,17128 L 16732,17128 16732,17531 16582,17531 16582,17128 Z"/>
            <path fill="rgb(120,120,120)" stroke="none" d="M 16582,17128 L 16732,17128 16732,17531 16582,17531 16582,17128 Z M 16584,17135 L 16730,17135 16730,17524 16584,17524 16584,17135 Z"/>
            <path fill="rgb(121,121,121)" stroke="none" d="M 16584,17135 L 16730,17135 16730,17524 16584,17524 16584,17135 Z M 16586,17141 L 16728,17141 16728,17518 16586,17518 16586,17141 Z"/>
            <path fill="rgb(122,122,122)" stroke="none" d="M 16586,17141 L 16728,17141 16728,17518 16586,17518 16586,17141 Z M 16589,17147 L 16725,17147 16725,17512 16589,17512 16589,17147 Z"/>
            <path fill="rgb(123,123,123)" stroke="none" d="M 16589,17147 L 16725,17147 16725,17512 16589,17512 16589,17147 Z M 16591,17153 L 16723,17153 16723,17506 16591,17506 16591,17153 Z"/>
            <path fill="rgb(124,124,124)" stroke="none" d="M 16591,17153 L 16723,17153 16723,17506 16591,17506 16591,17153 Z M 16593,17159 L 16721,17159 16721,17500 16593,17500 16593,17159 Z"/>
            <path fill="rgb(125,125,125)" stroke="none" d="M 16593,17159 L 16721,17159 16721,17500 16593,17500 16593,17159 Z M 16596,17165 L 16718,17165 16718,17494 16596,17494 16596,17165 Z"/>
            <path fill="rgb(126,126,126)" stroke="none" d="M 16596,17165 L 16718,17165 16718,17494 16596,17494 16596,17165 Z M 16598,17171 L 16716,17171 16716,17488 16598,17488 16598,17171 Z"/>
            <path fill="rgb(127,127,127)" stroke="none" d="M 16598,17171 L 16716,17171 16716,17488 16598,17488 16598,17171 Z M 16600,17177 L 16714,17177 16714,17482 16600,17482 16600,17177 Z"/>
            <path fill="rgb(128,128,128)" stroke="none" d="M 16600,17177 L 16714,17177 16714,17482 16600,17482 16600,17177 Z M 16602,17183 L 16712,17183 16712,17476 16602,17476 16602,17183 Z"/>
            <path fill="rgb(129,129,129)" stroke="none" d="M 16602,17183 L 16712,17183 16712,17476 16602,17476 16602,17183 Z M 16605,17190 L 16709,17190 16709,17469 16605,17469 16605,17190 Z"/>
            <path fill="rgb(130,130,130)" stroke="none" d="M 16605,17190 L 16709,17190 16709,17469 16605,17469 16605,17190 Z M 16607,17196 L 16707,17196 16707,17463 16607,17463 16607,17196 Z"/>
            <path fill="rgb(131,131,131)" stroke="none" d="M 16607,17196 L 16707,17196 16707,17463 16607,17463 16607,17196 Z M 16609,17202 L 16705,17202 16705,17457 16609,17457 16609,17202 Z"/>
            <path fill="rgb(132,132,132)" stroke="none" d="M 16609,17202 L 16705,17202 16705,17457 16609,17457 16609,17202 Z M 16612,17208 L 16702,17208 16702,17451 16612,17451 16612,17208 Z"/>
            <path fill="rgb(133,133,133)" stroke="none" d="M 16612,17208 L 16702,17208 16702,17451 16612,17451 16612,17208 Z M 16614,17214 L 16700,17214 16700,17445 16614,17445 16614,17214 Z"/>
            <path fill="rgb(134,134,134)" stroke="none" d="M 16614,17214 L 16700,17214 16700,17445 16614,17445 16614,17214 Z M 16616,17220 L 16698,17220 16698,17439 16616,17439 16616,17220 Z"/>
            <path fill="rgb(135,135,135)" stroke="none" d="M 16616,17220 L 16698,17220 16698,17439 16616,17439 16616,17220 Z M 16619,17226 L 16696,17226 16696,17433 16619,17433 16619,17226 Z"/>
            <path fill="rgb(136,136,136)" stroke="none" d="M 16619,17226 L 16696,17226 16696,17433 16619,17433 16619,17226 Z M 16621,17232 L 16693,17232 16693,17427 16621,17427 16621,17232 Z"/>
            <path fill="rgb(137,137,137)" stroke="none" d="M 16621,17232 L 16693,17232 16693,17427 16621,17427 16621,17232 Z M 16623,17238 L 16691,17238 16691,17421 16623,17421 16623,17238 Z"/>
            <path fill="rgb(138,138,138)" stroke="none" d="M 16623,17238 L 16691,17238 16691,17421 16623,17421 16623,17238 Z M 16625,17244 L 16689,17244 16689,17415 16625,17415 16625,17244 Z"/>
            <path fill="rgb(139,139,139)" stroke="none" d="M 16625,17244 L 16689,17244 16689,17415 16625,17415 16625,17244 Z M 16628,17251 L 16686,17251 16686,17408 16628,17408 16628,17251 Z"/>
            <path fill="rgb(140,140,140)" stroke="none" d="M 16628,17251 L 16686,17251 16686,17408 16628,17408 16628,17251 Z M 16630,17257 L 16684,17257 16684,17402 16630,17402 16630,17257 Z"/>
            <path fill="rgb(141,141,141)" stroke="none" d="M 16630,17257 L 16684,17257 16684,17402 16630,17402 16630,17257 Z M 16632,17263 L 16682,17263 16682,17396 16632,17396 16632,17263 Z"/>
            <path fill="rgb(142,142,142)" stroke="none" d="M 16632,17263 L 16682,17263 16682,17396 16632,17396 16632,17263 Z M 16635,17269 L 16679,17269 16679,17390 16635,17390 16635,17269 Z"/>
            <path fill="rgb(143,143,143)" stroke="none" d="M 16635,17269 L 16679,17269 16679,17390 16635,17390 16635,17269 Z M 16637,17275 L 16677,17275 16677,17384 16637,17384 16637,17275 Z"/>
            <path fill="rgb(144,144,144)" stroke="none" d="M 16637,17275 L 16677,17275 16677,17384 16637,17384 16637,17275 Z M 16639,17281 L 16675,17281 16675,17378 16639,17378 16639,17281 Z"/>
            <path fill="rgb(145,145,145)" stroke="none" d="M 16639,17281 L 16675,17281 16675,17378 16639,17378 16639,17281 Z M 16641,17287 L 16673,17287 16673,17372 16641,17372 16641,17287 Z"/>
            <path fill="rgb(146,146,146)" stroke="none" d="M 16641,17287 L 16673,17287 16673,17372 16641,17372 16641,17287 Z M 16644,17293 L 16670,17293 16670,17366 16644,17366 16644,17293 Z"/>
            <path fill="rgb(147,147,147)" stroke="none" d="M 16644,17293 L 16670,17293 16670,17366 16644,17366 16644,17293 Z M 16646,17299 L 16668,17299 16668,17360 16646,17360 16646,17299 Z"/>
            <path fill="rgb(148,148,148)" stroke="none" d="M 16646,17299 L 16668,17299 16668,17360 16646,17360 16646,17299 Z M 16648,17306 L 16666,17306 16666,17353 16648,17353 16648,17306 Z"/>
            <path fill="rgb(149,149,149)" stroke="none" d="M 16648,17306 L 16666,17306 16666,17353 16648,17353 16648,17306 Z M 16651,17312 L 16663,17312 16663,17347 16651,17347 16651,17312 Z"/>
            <path fill="rgb(150,150,150)" stroke="none" d="M 16651,17312 L 16663,17312 16663,17347 16651,17347 16651,17312 Z M 16653,17318 L 16661,17318 16661,17341 16653,17341 16653,17318 Z"/>
            <path fill="rgb(151,151,151)" stroke="none" d="M 16653,17318 L 16661,17318 16661,17341 16653,17341 16653,17318 Z M 16655,17324 L 16659,17324 16659,17335 16655,17335 16655,17324 Z"/>
            <path fill="rgb(153,153,153)" stroke="none" d="M 16655,17324 L 16659,17324 16659,17335 16655,17335 16655,17324 Z"/>
           </g>
          </pattern>
         </defs>
         <path style="fill:url(#pattern1)" d="M 16820,17632 L 16820,17145 16589,17278 16589,17765 16820,17632 Z"/>
        </g>
        <path fill="none" stroke="rgb(178,178,178)" stroke-width="40" stroke-linejoin="round" d="M 16820,17632 L 16820,17145 16589,17278 16589,17765 16820,17632 Z"/>
       </g>
      </g>
      <g class="com.sun.star.drawing.PolyPolygonShape">
       <g id="id6">
        <rect class="BoundingBox" stroke="none" fill="none" x="16876" y="17391" width="119" height="395"/>
        <g>
         <defs>
          <pattern id="pattern2" x="16896" y="17411" width="78" height="355" patternUnits="userSpaceOnUse">
           <g transform="translate(-16896,-17411)">
            <path fill="rgb(179,179,179)" stroke="none" d="M 16895,17410 L 16974,17410 16974,17766 16895,17766 16895,17410 Z M 16879,17343 L 16957,17343 16957,17691 16879,17691 16879,17343 Z"/>
            <path fill="rgb(180,180,180)" stroke="none" d="M 16879,17343 L 16957,17343 16957,17691 16879,17691 16879,17343 Z M 16880,17347 L 16956,17347 16956,17687 16880,17687 16880,17347 Z"/>
            <path fill="rgb(181,181,181)" stroke="none" d="M 16880,17347 L 16956,17347 16956,17687 16880,17687 16880,17347 Z M 16881,17350 L 16955,17350 16955,17684 16881,17684 16881,17350 Z"/>
            <path fill="rgb(182,182,182)" stroke="none" d="M 16881,17350 L 16955,17350 16955,17684 16881,17684 16881,17350 Z M 16882,17354 L 16954,17354 16954,17680 16882,17680 16882,17354 Z"/>
            <path fill="rgb(183,183,183)" stroke="none" d="M 16882,17354 L 16954,17354 16954,17680 16882,17680 16882,17354 Z M 16882,17357 L 16954,17357 16954,17677 16882,17677 16882,17357 Z"/>
            <path fill="rgb(184,184,184)" stroke="none" d="M 16882,17357 L 16954,17357 16954,17677 16882,17677 16882,17357 Z M 16883,17361 L 16953,17361 16953,17673 16883,17673 16883,17361 Z"/>
            <path fill="rgb(185,185,185)" stroke="none" d="M 16883,17361 L 16953,17361 16953,17673 16883,17673 16883,17361 Z M 16884,17364 L 16952,17364 16952,17670 16884,17670 16884,17364 Z"/>
            <path fill="rgb(186,186,186)" stroke="none" d="M 16884,17364 L 16952,17364 16952,17670 16884,17670 16884,17364 Z M 16885,17368 L 16951,17368 16951,17666 16885,17666 16885,17368 Z"/>
            <path fill="rgb(187,187,187)" stroke="none" d="M 16885,17368 L 16951,17368 16951,17666 16885,17666 16885,17368 Z M 16886,17372 L 16950,17372 16950,17662 16886,17662 16886,17372 Z"/>
            <path fill="rgb(188,188,188)" stroke="none" d="M 16886,17372 L 16950,17372 16950,17662 16886,17662 16886,17372 Z M 16887,17375 L 16950,17375 16950,17659 16887,17659 16887,17375 Z"/>
            <path fill="rgb(189,189,189)" stroke="none" d="M 16887,17375 L 16950,17375 16950,17659 16887,17659 16887,17375 Z M 16887,17379 L 16949,17379 16949,17655 16887,17655 16887,17379 Z"/>
            <path fill="rgb(190,190,190)" stroke="none" d="M 16887,17379 L 16949,17379 16949,17655 16887,17655 16887,17379 Z M 16888,17382 L 16948,17382 16948,17652 16888,17652 16888,17382 Z"/>
            <path fill="rgb(191,191,191)" stroke="none" d="M 16888,17382 L 16948,17382 16948,17652 16888,17652 16888,17382 Z M 16889,17386 L 16947,17386 16947,17648 16889,17648 16889,17386 Z"/>
            <path fill="rgb(192,192,192)" stroke="none" d="M 16889,17386 L 16947,17386 16947,17648 16889,17648 16889,17386 Z M 16890,17389 L 16946,17389 16946,17645 16890,17645 16890,17389 Z"/>
            <path fill="rgb(193,193,193)" stroke="none" d="M 16890,17389 L 16946,17389 16946,17645 16890,17645 16890,17389 Z M 16891,17392 L 16946,17392 16946,17641 16891,17641 16891,17392 Z"/>
            <path fill="rgb(194,194,194)" stroke="none" d="M 16891,17392 L 16946,17392 16946,17641 16891,17641 16891,17392 Z M 16891,17396 L 16945,17396 16945,17637 16891,17637 16891,17396 Z"/>
            <path fill="rgb(195,195,195)" stroke="none" d="M 16891,17396 L 16945,17396 16945,17637 16891,17637 16891,17396 Z M 16892,17399 L 16944,17399 16944,17634 16892,17634 16892,17399 Z"/>
            <path fill="rgb(196,196,196)" stroke="none" d="M 16892,17399 L 16944,17399 16944,17634 16892,17634 16892,17399 Z M 16893,17403 L 16943,17403 16943,17630 16893,17630 16893,17403 Z"/>
            <path fill="rgb(197,197,197)" stroke="none" d="M 16893,17403 L 16943,17403 16943,17630 16893,17630 16893,17403 Z M 16894,17406 L 16942,17406 16942,17627 16894,17627 16894,17406 Z"/>
            <path fill="rgb(198,198,198)" stroke="none" d="M 16894,17406 L 16942,17406 16942,17627 16894,17627 16894,17406 Z M 16895,17410 L 16942,17410 16942,17623 16895,17623 16895,17410 Z"/>
            <path fill="rgb(199,199,199)" stroke="none" d="M 16895,17410 L 16942,17410 16942,17623 16895,17623 16895,17410 Z M 16895,17413 L 16941,17413 16941,17620 16895,17620 16895,17413 Z"/>
            <path fill="rgb(200,200,200)" stroke="none" d="M 16895,17413 L 16941,17413 16941,17620 16895,17620 16895,17413 Z M 16896,17417 L 16940,17417 16940,17616 16896,17616 16896,17417 Z"/>
            <path fill="rgb(201,201,201)" stroke="none" d="M 16896,17417 L 16940,17417 16940,17616 16896,17616 16896,17417 Z M 16897,17421 L 16939,17421 16939,17612 16897,17612 16897,17421 Z"/>
            <path fill="rgb(202,202,202)" stroke="none" d="M 16897,17421 L 16939,17421 16939,17612 16897,17612 16897,17421 Z M 16898,17424 L 16938,17424 16938,17609 16898,17609 16898,17424 Z"/>
            <path fill="rgb(203,203,203)" stroke="none" d="M 16898,17424 L 16938,17424 16938,17609 16898,17609 16898,17424 Z M 16899,17428 L 16938,17428 16938,17605 16899,17605 16899,17428 Z"/>
            <path fill="rgb(204,204,204)" stroke="none" d="M 16899,17428 L 16938,17428 16938,17605 16899,17605 16899,17428 Z M 16899,17431 L 16937,17431 16937,17602 16899,17602 16899,17431 Z"/>
            <path fill="rgb(205,205,205)" stroke="none" d="M 16899,17431 L 16937,17431 16937,17602 16899,17602 16899,17431 Z M 16900,17435 L 16936,17435 16936,17598 16900,17598 16900,17435 Z"/>
            <path fill="rgb(206,206,206)" stroke="none" d="M 16900,17435 L 16936,17435 16936,17598 16900,17598 16900,17435 Z M 16901,17438 L 16935,17438 16935,17595 16901,17595 16901,17438 Z"/>
            <path fill="rgb(207,207,207)" stroke="none" d="M 16901,17438 L 16935,17438 16935,17595 16901,17595 16901,17438 Z M 16902,17442 L 16934,17442 16934,17591 16902,17591 16902,17442 Z"/>
            <path fill="rgb(208,208,208)" stroke="none" d="M 16902,17442 L 16934,17442 16934,17591 16902,17591 16902,17442 Z M 16903,17446 L 16934,17446 16934,17587 16903,17587 16903,17446 Z"/>
            <path fill="rgb(209,209,209)" stroke="none" d="M 16903,17446 L 16934,17446 16934,17587 16903,17587 16903,17446 Z M 16903,17449 L 16933,17449 16933,17584 16903,17584 16903,17449 Z"/>
            <path fill="rgb(210,210,210)" stroke="none" d="M 16903,17449 L 16933,17449 16933,17584 16903,17584 16903,17449 Z M 16904,17453 L 16932,17453 16932,17580 16904,17580 16904,17453 Z"/>
            <path fill="rgb(211,211,211)" stroke="none" d="M 16904,17453 L 16932,17453 16932,17580 16904,17580 16904,17453 Z M 16905,17456 L 16931,17456 16931,17577 16905,17577 16905,17456 Z"/>
            <path fill="rgb(212,212,212)" stroke="none" d="M 16905,17456 L 16931,17456 16931,17577 16905,17577 16905,17456 Z M 16906,17460 L 16930,17460 16930,17573 16906,17573 16906,17460 Z"/>
            <path fill="rgb(213,213,213)" stroke="none" d="M 16906,17460 L 16930,17460 16930,17573 16906,17573 16906,17460 Z M 16907,17463 L 16930,17463 16930,17570 16907,17570 16907,17463 Z"/>
            <path fill="rgb(214,214,214)" stroke="none" d="M 16907,17463 L 16930,17463 16930,17570 16907,17570 16907,17463 Z M 16907,17467 L 16929,17467 16929,17566 16907,17566 16907,17467 Z"/>
            <path fill="rgb(215,215,215)" stroke="none" d="M 16907,17467 L 16929,17467 16929,17566 16907,17566 16907,17467 Z M 16908,17471 L 16928,17471 16928,17562 16908,17562 16908,17471 Z"/>
            <path fill="rgb(216,216,216)" stroke="none" d="M 16908,17471 L 16928,17471 16928,17562 16908,17562 16908,17471 Z M 16909,17474 L 16927,17474 16927,17559 16909,17559 16909,17474 Z"/>
            <path fill="rgb(217,217,217)" stroke="none" d="M 16909,17474 L 16927,17474 16927,17559 16909,17559 16909,17474 Z M 16910,17478 L 16926,17478 16926,17555 16910,17555 16910,17478 Z"/>
            <path fill="rgb(218,218,218)" stroke="none" d="M 16910,17478 L 16926,17478 16926,17555 16910,17555 16910,17478 Z M 16911,17481 L 16926,17481 16926,17552 16911,17552 16911,17481 Z"/>
            <path fill="rgb(219,219,219)" stroke="none" d="M 16911,17481 L 16926,17481 16926,17552 16911,17552 16911,17481 Z M 16911,17485 L 16925,17485 16925,17548 16911,17548 16911,17485 Z"/>
            <path fill="rgb(220,220,220)" stroke="none" d="M 16911,17485 L 16925,17485 16925,17548 16911,17548 16911,17485 Z M 16912,17488 L 16924,17488 16924,17545 16912,17545 16912,17488 Z"/>
            <path fill="rgb(221,221,221)" stroke="none" d="M 16912,17488 L 16924,17488 16924,17545 16912,17545 16912,17488 Z M 16913,17492 L 16923,17492 16923,17541 16913,17541 16913,17492 Z"/>
            <path fill="rgb(222,222,222)" stroke="none" d="M 16913,17492 L 16923,17492 16923,17541 16913,17541 16913,17492 Z M 16914,17496 L 16922,17496 16922,17537 16914,17537 16914,17496 Z"/>
            <path fill="rgb(223,223,223)" stroke="none" d="M 16914,17496 L 16922,17496 16922,17537 16914,17537 16914,17496 Z M 16914,17499 L 16922,17499 16922,17534 16914,17534 16914,17499 Z"/>
            <path fill="rgb(224,224,224)" stroke="none" d="M 16914,17499 L 16922,17499 16922,17534 16914,17534 16914,17499 Z M 16915,17503 L 16921,17503 16921,17530 16915,17530 16915,17503 Z"/>
            <path fill="rgb(225,225,225)" stroke="none" d="M 16915,17503 L 16921,17503 16921,17530 16915,17530 16915,17503 Z M 16916,17506 L 16920,17506 16920,17527 16916,17527 16916,17506 Z"/>
            <path fill="rgb(226,226,226)" stroke="none" d="M 16916,17506 L 16920,17506 16920,17527 16916,17527 16916,17506 Z M 16917,17510 L 16919,17510 16919,17523 16917,17523 16917,17510 Z"/>
            <path fill="rgb(229,229,229)" stroke="none" d="M 16917,17510 L 16919,17510 16919,17523 16917,17523 16917,17510 Z"/>
           </g>
          </pattern>
         </defs>
         <path style="fill:url(#pattern2)" d="M 16973,17721 L 16973,17411 16896,17455 16896,17765 16973,17721 Z"/>
        </g>
        <path fill="none" stroke="rgb(255,255,255)" stroke-width="40" stroke-linejoin="round" d="M 16973,17721 L 16973,17411 16896,17455 16896,17765 16973,17721 Z"/>
       </g>
      </g>
      <g class="com.sun.star.drawing.PolyPolygonShape">
       <g id="id7">
        <rect class="BoundingBox" stroke="none" fill="none" x="16646" y="17302" width="273" height="484"/>
        <g>
         <defs>
          <linearGradient id="gradient3" x1="16665" y1="17543" x2="16900" y2="17543" gradientUnits="userSpaceOnUse">
           <stop offset="0.1" style="stop-color:rgb(179,179,179)"/>
           <stop offset="1" style="stop-color:rgb(229,229,229)"/>
          </linearGradient>
         </defs>
         <path style="fill:url(#gradient3)" d="M 16896,17765 L 16898,17455 16666,17322 16666,17632 16896,17765 Z"/>
        </g>
        <path fill="none" stroke="rgb(255,255,255)" stroke-width="40" stroke-linejoin="round" d="M 16896,17765 L 16898,17455 16666,17322 16666,17632 16896,17765 Z"/>
       </g>
      </g>
      <g class="com.sun.star.drawing.PolyPolygonShape">
       <g id="id8">
        <rect class="BoundingBox" stroke="none" fill="none" x="16646" y="17258" width="349" height="218"/>
        <g>
         <defs>
          <linearGradient id="gradient4" x1="16819" y1="17278" x2="16819" y2="17455" gradientUnits="userSpaceOnUse">
           <stop offset="0.1" style="stop-color:rgb(179,179,179)"/>
           <stop offset="1" style="stop-color:rgb(229,229,229)"/>
          </linearGradient>
         </defs>
         <path style="fill:url(#gradient4)" d="M 16896,17455 L 16973,17411 16743,17278 16666,17322 16896,17455 Z"/>
        </g>
        <path fill="none" stroke="rgb(255,255,255)" stroke-width="40" stroke-linejoin="round" d="M 16896,17455 L 16973,17411 16743,17278 16666,17322 16896,17455 Z"/>
       </g>
      </g>
      <g class="com.sun.star.drawing.PolyPolygonShape">
       <g id="id9">
        <rect class="BoundingBox" stroke="none" fill="none" x="15800" y="16682" width="1194" height="1104"/>
        <path fill="none" stroke="rgb(0,0,0)" stroke-width="40" stroke-linejoin="round" d="M 16743,17676 L 16896,17765 16973,17721 16973,17411 16819,17322 16819,17145 16052,16702 15821,16835 15821,17322 16590,17765 16743,17676 Z"/>
       </g>
      </g>
     </g>
    </g>
   </g>
  </g>
 </g>
</svg>