<?xml version="1.0" encoding="UTF-8"?>
<!DOCTYPE svg PUBLIC "-//W3C//DTD SVG 1.1//EN" "http://www.w3.org/Graphics/SVG/1.1/DTD/svg11.dtd">
<svg version="1.2" width="11.92mm" height="11.03mm" viewBox="23599 19432 1192 1103" preserveAspectRatio="xMidYMid" fill-rule="evenodd" stroke-width="28.222" stroke-linejoin="round" xmlns="http://www.w3.org/2000/svg" xmlns:ooo="http://xml.openoffice.org/svg/export" xmlns:xlink="http://www.w3.org/1999/xlink" xmlns:presentation="http://sun.com/xmlns/staroffice/presentation" xmlns:smil="http://www.w3.org/2001/SMIL20/" xmlns:anim="urn:oasis:names:tc:opendocument:xmlns:animation:1.0" xml:space="preserve">
 <defs class="ClipPathGroup">
  <clipPath id="presentation_clip_path" clipPathUnits="userSpaceOnUse">
   <rect x="23599" y="19432" width="1192" height="1103"/>
  </clipPath>
 </defs>
 <defs class="TextShapeIndex">
  <g ooo:slide="id1" ooo:id-list="id3 id4 id5 id6 id7 id8 id9"/>
 </defs>
 <defs class="EmbeddedBulletChars">
  <g id="bullet-char-template(57356)" transform="scale(0.00048828125,-0.00048828125)">
   <path d="M 580,1141 L 1163,571 580,0 -4,571 580,1141 Z"/>
  </g>
  <g id="bullet-char-template(57354)" transform="scale(0.00048828125,-0.00048828125)">
   <path d="M 8,1128 L 1137,1128 1137,0 8,0 8,1128 Z"/>
  </g>
  <g id="bullet-char-template(10146)" transform="scale(0.00048828125,-0.00048828125)">
   <path d="M 174,0 L 602,739 174,1481 1456,739 174,0 Z M 1358,739 L 309,1346 659,739 1358,739 Z"/>
  </g>
  <g id="bullet-char-template(10132)" transform="scale(0.00048828125,-0.00048828125)">
   <path d="M 2015,739 L 1276,0 717,0 1260,543 174,543 174,936 1260,936 717,1481 1274,1481 2015,739 Z"/>
  </g>
  <g id="bullet-char-template(10007)" transform="scale(0.00048828125,-0.00048828125)">
   <path d="M 0,-2 C -7,14 -16,27 -25,37 L 356,567 C 262,823 215,952 215,954 215,979 228,992 255,992 264,992 276,990 289,987 310,991 331,999 354,1012 L 381,999 492,748 772,1049 836,1024 860,1049 C 881,1039 901,1025 922,1006 886,937 835,863 770,784 769,783 710,716 594,584 L 774,223 C 774,196 753,168 711,139 L 727,119 C 717,90 699,76 672,76 641,76 570,178 457,381 L 164,-76 C 142,-110 111,-127 72,-127 30,-127 9,-110 8,-76 1,-67 -2,-52 -2,-32 -2,-23 -1,-13 0,-2 Z"/>
  </g>
  <g id="bullet-char-template(10004)" transform="scale(0.00048828125,-0.00048828125)">
   <path d="M 285,-33 C 182,-33 111,30 74,156 52,228 41,333 41,471 41,549 55,616 82,672 116,743 169,778 240,778 293,778 328,747 346,684 L 369,508 C 377,444 397,411 428,410 L 1163,1116 C 1174,1127 1196,1133 1229,1133 1271,1133 1292,1118 1292,1087 L 1292,965 C 1292,929 1282,901 1262,881 L 442,47 C 390,-6 338,-33 285,-33 Z"/>
  </g>
  <g id="bullet-char-template(9679)" transform="scale(0.00048828125,-0.00048828125)">
   <path d="M 813,0 C 632,0 489,54 383,161 276,268 223,411 223,592 223,773 276,916 383,1023 489,1130 632,1184 813,1184 992,1184 1136,1130 1245,1023 1353,916 1407,772 1407,592 1407,412 1353,268 1245,161 1136,54 992,0 813,0 Z"/>
  </g>
  <g id="bullet-char-template(8226)" transform="scale(0.00048828125,-0.00048828125)">
   <path d="M 346,457 C 273,457 209,483 155,535 101,586 74,649 74,723 74,796 101,859 155,911 209,963 273,989 346,989 419,989 480,963 531,910 582,859 608,796 608,723 608,648 583,586 532,535 482,483 420,457 346,457 Z"/>
  </g>
  <g id="bullet-char-template(8211)" transform="scale(0.00048828125,-0.00048828125)">
   <path d="M -4,459 L 1135,459 1135,606 -4,606 -4,459 Z"/>
  </g>
 </defs>
 <defs class="TextEmbeddedBitmaps"/>
 <g class="SlideGroup">
  <g>
   <g id="id1" class="Slide" clip-path="url(#presentation_clip_path)">
    <g class="Page">
     <g class="Group">
      <g class="com.sun.star.drawing.PolyPolygonShape">
       <g id="id3">
        <rect class="BoundingBox" stroke="none" fill="none" x="24520" y="19875" width="272" height="661"/>
        <g>
         <defs>
          <pattern id="pattern1" x="24540" y="19895" width="232" height="621" patternUnits="userSpaceOnUse">
           <g transform="translate(-24540,-19895)">
            <path fill="rgb(102,102,102)" stroke="none" d="M 24539,19894 L 24772,19894 24772,20516 24539,20516 24539,19894 Z M 24495,19776 L 24722,19776 24722,20384 24495,20384 24495,19776 Z"/>
            <path fill="rgb(103,103,103)" stroke="none" d="M 24495,19776 L 24722,19776 24722,20384 24495,20384 24495,19776 Z M 24497,19782 L 24720,19782 24720,20378 24497,20378 24497,19782 Z"/>
            <path fill="rgb(104,104,104)" stroke="none" d="M 24497,19782 L 24720,19782 24720,20378 24497,20378 24497,19782 Z M 24499,19788 L 24718,19788 24718,20372 24499,20372 24499,19788 Z"/>
            <path fill="rgb(105,105,105)" stroke="none" d="M 24499,19788 L 24718,19788 24718,20372 24499,20372 24499,19788 Z M 24502,19794 L 24715,19794 24715,20366 24502,20366 24502,19794 Z"/>
            <path fill="rgb(106,106,106)" stroke="none" d="M 24502,19794 L 24715,19794 24715,20366 24502,20366 24502,19794 Z M 24504,19800 L 24713,19800 24713,20360 24504,20360 24504,19800 Z"/>
            <path fill="rgb(107,107,107)" stroke="none" d="M 24504,19800 L 24713,19800 24713,20360 24504,20360 24504,19800 Z M 24506,19806 L 24711,19806 24711,20354 24506,20354 24506,19806 Z"/>
            <path fill="rgb(108,108,108)" stroke="none" d="M 24506,19806 L 24711,19806 24711,20354 24506,20354 24506,19806 Z M 24509,19812 L 24708,19812 24708,20348 24509,20348 24509,19812 Z"/>
            <path fill="rgb(109,109,109)" stroke="none" d="M 24509,19812 L 24708,19812 24708,20348 24509,20348 24509,19812 Z M 24511,19818 L 24706,19818 24706,20342 24511,20342 24511,19818 Z"/>
            <path fill="rgb(110,110,110)" stroke="none" d="M 24511,19818 L 24706,19818 24706,20342 24511,20342 24511,19818 Z M 24513,19824 L 24704,19824 24704,20336 24513,20336 24513,19824 Z"/>
            <path fill="rgb(111,111,111)" stroke="none" d="M 24513,19824 L 24704,19824 24704,20336 24513,20336 24513,19824 Z M 24515,19831 L 24702,19831 24702,20329 24515,20329 24515,19831 Z"/>
            <path fill="rgb(112,112,112)" stroke="none" d="M 24515,19831 L 24702,19831 24702,20329 24515,20329 24515,19831 Z M 24518,19837 L 24699,19837 24699,20323 24518,20323 24518,19837 Z"/>
            <path fill="rgb(113,113,113)" stroke="none" d="M 24518,19837 L 24699,19837 24699,20323 24518,20323 24518,19837 Z M 24520,19843 L 24697,19843 24697,20317 24520,20317 24520,19843 Z"/>
            <path fill="rgb(114,114,114)" stroke="none" d="M 24520,19843 L 24697,19843 24697,20317 24520,20317 24520,19843 Z M 24521,19849 L 24695,19849 24695,20311 24521,20311 24521,19849 Z"/>
            <path fill="rgb(115,115,115)" stroke="none" d="M 24521,19849 L 24695,19849 24695,20311 24521,20311 24521,19849 Z M 24524,19855 L 24692,19855 24692,20305 24524,20305 24524,19855 Z"/>
            <path fill="rgb(116,116,116)" stroke="none" d="M 24524,19855 L 24692,19855 24692,20305 24524,20305 24524,19855 Z M 24526,19861 L 24690,19861 24690,20299 24526,20299 24526,19861 Z"/>
            <path fill="rgb(117,117,117)" stroke="none" d="M 24526,19861 L 24690,19861 24690,20299 24526,20299 24526,19861 Z M 24528,19867 L 24688,19867 24688,20293 24528,20293 24528,19867 Z"/>
            <path fill="rgb(118,118,118)" stroke="none" d="M 24528,19867 L 24688,19867 24688,20293 24528,20293 24528,19867 Z M 24530,19873 L 24686,19873 24686,20287 24530,20287 24530,19873 Z"/>
            <path fill="rgb(119,119,119)" stroke="none" d="M 24530,19873 L 24686,19873 24686,20287 24530,20287 24530,19873 Z M 24533,19878 L 24683,19878 24683,20281 24533,20281 24533,19878 Z"/>
            <path fill="rgb(120,120,120)" stroke="none" d="M 24533,19878 L 24683,19878 24683,20281 24533,20281 24533,19878 Z M 24535,19885 L 24681,19885 24681,20274 24535,20274 24535,19885 Z"/>
            <path fill="rgb(121,121,121)" stroke="none" d="M 24535,19885 L 24681,19885 24681,20274 24535,20274 24535,19885 Z M 24537,19891 L 24679,19891 24679,20268 24537,20268 24537,19891 Z"/>
            <path fill="rgb(122,122,122)" stroke="none" d="M 24537,19891 L 24679,19891 24679,20268 24537,20268 24537,19891 Z M 24540,19897 L 24676,19897 24676,20262 24540,20262 24540,19897 Z"/>
            <path fill="rgb(123,123,123)" stroke="none" d="M 24540,19897 L 24676,19897 24676,20262 24540,20262 24540,19897 Z M 24542,19903 L 24674,19903 24674,20256 24542,20256 24542,19903 Z"/>
            <path fill="rgb(124,124,124)" stroke="none" d="M 24542,19903 L 24674,19903 24674,20256 24542,20256 24542,19903 Z M 24544,19909 L 24672,19909 24672,20250 24544,20250 24544,19909 Z"/>
            <path fill="rgb(125,125,125)" stroke="none" d="M 24544,19909 L 24672,19909 24672,20250 24544,20250 24544,19909 Z M 24547,19915 L 24669,19915 24669,20244 24547,20244 24547,19915 Z"/>
            <path fill="rgb(126,126,126)" stroke="none" d="M 24547,19915 L 24669,19915 24669,20244 24547,20244 24547,19915 Z M 24549,19921 L 24667,19921 24667,20238 24549,20238 24549,19921 Z"/>
            <path fill="rgb(127,127,127)" stroke="none" d="M 24549,19921 L 24667,19921 24667,20238 24549,20238 24549,19921 Z M 24551,19927 L 24665,19927 24665,20232 24551,20232 24551,19927 Z"/>
            <path fill="rgb(128,128,128)" stroke="none" d="M 24551,19927 L 24665,19927 24665,20232 24551,20232 24551,19927 Z M 24553,19933 L 24663,19933 24663,20226 24553,20226 24553,19933 Z"/>
            <path fill="rgb(129,129,129)" stroke="none" d="M 24553,19933 L 24663,19933 24663,20226 24553,20226 24553,19933 Z M 24556,19940 L 24660,19940 24660,20219 24556,20219 24556,19940 Z"/>
            <path fill="rgb(130,130,130)" stroke="none" d="M 24556,19940 L 24660,19940 24660,20219 24556,20219 24556,19940 Z M 24558,19946 L 24658,19946 24658,20213 24558,20213 24558,19946 Z"/>
            <path fill="rgb(131,131,131)" stroke="none" d="M 24558,19946 L 24658,19946 24658,20213 24558,20213 24558,19946 Z M 24560,19952 L 24656,19952 24656,20207 24560,20207 24560,19952 Z"/>
            <path fill="rgb(132,132,132)" stroke="none" d="M 24560,19952 L 24656,19952 24656,20207 24560,20207 24560,19952 Z M 24563,19958 L 24653,19958 24653,20201 24563,20201 24563,19958 Z"/>
            <path fill="rgb(133,133,133)" stroke="none" d="M 24563,19958 L 24653,19958 24653,20201 24563,20201 24563,19958 Z M 24565,19964 L 24651,19964 24651,20195 24565,20195 24565,19964 Z"/>
            <path fill="rgb(134,134,134)" stroke="none" d="M 24565,19964 L 24651,19964 24651,20195 24565,20195 24565,19964 Z M 24567,19970 L 24649,19970 24649,20189 24567,20189 24567,19970 Z"/>
            <path fill="rgb(135,135,135)" stroke="none" d="M 24567,19970 L 24649,19970 24649,20189 24567,20189 24567,19970 Z M 24570,19976 L 24647,19976 24647,20183 24570,20183 24570,19976 Z"/>
            <path fill="rgb(136,136,136)" stroke="none" d="M 24570,19976 L 24647,19976 24647,20183 24570,20183 24570,19976 Z M 24572,19982 L 24644,19982 24644,20177 24572,20177 24572,19982 Z"/>
            <path fill="rgb(137,137,137)" stroke="none" d="M 24572,19982 L 24644,19982 24644,20177 24572,20177 24572,19982 Z M 24574,19988 L 24642,19988 24642,20171 24574,20171 24574,19988 Z"/>
            <path fill="rgb(138,138,138)" stroke="none" d="M 24574,19988 L 24642,19988 24642,20171 24574,20171 24574,19988 Z M 24576,19994 L 24640,19994 24640,20165 24576,20165 24576,19994 Z"/>
            <path fill="rgb(139,139,139)" stroke="none" d="M 24576,19994 L 24640,19994 24640,20165 24576,20165 24576,19994 Z M 24579,20001 L 24637,20001 24637,20158 24579,20158 24579,20001 Z"/>
            <path fill="rgb(140,140,140)" stroke="none" d="M 24579,20001 L 24637,20001 24637,20158 24579,20158 24579,20001 Z M 24581,20007 L 24635,20007 24635,20152 24581,20152 24581,20007 Z"/>
            <path fill="rgb(141,141,141)" stroke="none" d="M 24581,20007 L 24635,20007 24635,20152 24581,20152 24581,20007 Z M 24583,20013 L 24633,20013 24633,20146 24583,20146 24583,20013 Z"/>
            <path fill="rgb(142,142,142)" stroke="none" d="M 24583,20013 L 24633,20013 24633,20146 24583,20146 24583,20013 Z M 24586,20019 L 24630,20019 24630,20140 24586,20140 24586,20019 Z"/>
            <path fill="rgb(143,143,143)" stroke="none" d="M 24586,20019 L 24630,20019 24630,20140 24586,20140 24586,20019 Z M 24588,20025 L 24628,20025 24628,20134 24588,20134 24588,20025 Z"/>
            <path fill="rgb(144,144,144)" stroke="none" d="M 24588,20025 L 24628,20025 24628,20134 24588,20134 24588,20025 Z M 24590,20031 L 24626,20031 24626,20128 24590,20128 24590,20031 Z"/>
            <path fill="rgb(145,145,145)" stroke="none" d="M 24590,20031 L 24626,20031 24626,20128 24590,20128 24590,20031 Z M 24592,20037 L 24624,20037 24624,20122 24592,20122 24592,20037 Z"/>
            <path fill="rgb(146,146,146)" stroke="none" d="M 24592,20037 L 24624,20037 24624,20122 24592,20122 24592,20037 Z M 24595,20043 L 24621,20043 24621,20116 24595,20116 24595,20043 Z"/>
            <path fill="rgb(147,147,147)" stroke="none" d="M 24595,20043 L 24621,20043 24621,20116 24595,20116 24595,20043 Z M 24597,20049 L 24619,20049 24619,20110 24597,20110 24597,20049 Z"/>
            <path fill="rgb(148,148,148)" stroke="none" d="M 24597,20049 L 24619,20049 24619,20110 24597,20110 24597,20049 Z M 24599,20056 L 24617,20056 24617,20103 24599,20103 24599,20056 Z"/>
            <path fill="rgb(149,149,149)" stroke="none" d="M 24599,20056 L 24617,20056 24617,20103 24599,20103 24599,20056 Z M 24602,20062 L 24614,20062 24614,20097 24602,20097 24602,20062 Z"/>
            <path fill="rgb(150,150,150)" stroke="none" d="M 24602,20062 L 24614,20062 24614,20097 24602,20097 24602,20062 Z M 24604,20068 L 24612,20068 24612,20091 24604,20091 24604,20068 Z"/>
            <path fill="rgb(151,151,151)" stroke="none" d="M 24604,20068 L 24612,20068 24612,20091 24604,20091 24604,20068 Z M 24606,20074 L 24610,20074 24610,20085 24606,20085 24606,20074 Z"/>
            <path fill="rgb(153,153,153)" stroke="none" d="M 24606,20074 L 24610,20074 24610,20085 24606,20085 24606,20074 Z"/>
           </g>
          </pattern>
         </defs>
         <path style="fill:url(#pattern1)" d="M 24771,20382 L 24771,19895 24540,20028 24540,20515 24771,20382 Z"/>
        </g>
        <path fill="none" stroke="rgb(178,178,178)" stroke-width="40" stroke-linejoin="round" d="M 24771,20382 L 24771,19895 24540,20028 24540,20515 24771,20382 Z"/>
       </g>
      </g>
      <g class="com.sun.star.drawing.PolyPolygonShape">
       <g id="id4">
        <rect class="BoundingBox" stroke="none" fill="none" x="23829" y="19565" width="118" height="395"/>
        <g>
         <defs>
          <linearGradient id="gradient1" x1="23848" y1="19762" x2="23926" y2="19762" gradientUnits="userSpaceOnUse">
           <stop offset="0.1" style="stop-color:rgb(179,179,179)"/>
           <stop offset="1" style="stop-color:rgb(229,229,229)"/>
          </linearGradient>
         </defs>
         <path style="fill:url(#gradient1)" d="M 23926,19895 L 23926,19585 23849,19629 23849,19939 23926,19895 Z"/>
        </g>
        <path fill="none" stroke="rgb(255,255,255)" stroke-width="40" stroke-linejoin="round" d="M 23926,19895 L 23926,19585 23849,19629 23849,19939 23926,19895 Z"/>
       </g>
      </g>
      <g class="com.sun.star.drawing.PolyPolygonShape">
       <g id="id5">
        <rect class="BoundingBox" stroke="none" fill="none" x="23599" y="19475" width="273" height="485"/>
        <g>
         <defs>
          <linearGradient id="gradient2" x1="23618" y1="19717" x2="23853" y2="19717" gradientUnits="userSpaceOnUse">
           <stop offset="0.1" style="stop-color:rgb(179,179,179)"/>
           <stop offset="1" style="stop-color:rgb(229,229,229)"/>
          </linearGradient>
         </defs>
         <path style="fill:url(#gradient2)" d="M 23849,19939 L 23851,19629 23619,19496 23619,19806 23849,19939 Z"/>
        </g>
        <path fill="none" stroke="rgb(255,255,255)" stroke-width="40" stroke-linejoin="round" d="M 23849,19939 L 23851,19629 23619,19496 23619,19806 23849,19939 Z"/>
       </g>
      </g>
      <g class="com.sun.star.drawing.PolyPolygonShape">
       <g id="id6">
        <rect class="BoundingBox" stroke="none" fill="none" x="23599" y="19432" width="348" height="218"/>
        <g>
         <defs>
          <linearGradient id="gradient3" x1="23772" y1="19452" x2="23772" y2="19629" gradientUnits="userSpaceOnUse">
           <stop offset="0.1" style="stop-color:rgb(179,179,179)"/>
           <stop offset="1" style="stop-color:rgb(229,229,229)"/>
          </linearGradient>
         </defs>
         <path style="fill:url(#gradient3)" d="M 23849,19629 L 23926,19585 23696,19452 23619,19496 23849,19629 Z"/>
        </g>
        <path fill="none" stroke="rgb(255,255,255)" stroke-width="40" stroke-linejoin="round" d="M 23849,19629 L 23926,19585 23696,19452 23619,19496 23849,19629 Z"/>
       </g>
      </g>
      <g class="com.sun.star.drawing.PolyPolygonShape">
       <g id="id7">
        <rect class="BoundingBox" stroke="none" fill="none" x="23752" y="19565" width="814" height="971"/>
        <g>
         <defs>
          <linearGradient id="gradient4" x1="23771" y1="20050" x2="24545" y2="20050" gradientUnits="userSpaceOnUse">
           <stop offset="0.1" style="stop-color:rgb(102,102,102)"/>
           <stop offset="1" style="stop-color:rgb(153,153,153)"/>
          </linearGradient>
         </defs>
         <path style="fill:url(#gradient4)" d="M 24542,20515 L 24544,20028 23772,19585 23772,20072 24542,20515 Z"/>
        </g>
        <path fill="none" stroke="rgb(178,178,178)" stroke-width="40" stroke-linejoin="round" d="M 24542,20515 L 24544,20028 23772,19585 23772,20072 24542,20515 Z"/>
       </g>
      </g>
      <g class="com.sun.star.drawing.PolyPolygonShape">
       <g id="id8">
        <rect class="BoundingBox" stroke="none" fill="none" x="23752" y="19431" width="1040" height="618"/>
        <g>
         <defs>
          <linearGradient id="gradient5" x1="24271" y1="19452" x2="24271" y2="20028" gradientUnits="userSpaceOnUse">
           <stop offset="0.1" style="stop-color:rgb(51,51,51)"/>
           <stop offset="1" style="stop-color:rgb(153,153,153)"/>
          </linearGradient>
         </defs>
         <path style="fill:url(#gradient5)" d="M 24540,20028 L 24771,19895 24003,19452 23772,19585 24540,20028 Z"/>
        </g>
        <path fill="none" stroke="rgb(178,178,178)" stroke-width="40" stroke-linejoin="round" d="M 24540,20028 L 24771,19895 24003,19452 23772,19585 24540,20028 Z"/>
       </g>
      </g>
      <g class="com.sun.star.drawing.PolyPolygonShape">
       <g id="id9">
        <rect class="BoundingBox" stroke="none" fill="none" x="23598" y="19432" width="1194" height="1104"/>
        <path fill="none" stroke="rgb(0,0,0)" stroke-width="40" stroke-linejoin="round" d="M 24771,20382 L 24771,19895 24003,19452 23849,19541 23696,19452 23619,19496 23619,19806 23772,19895 23772,20072 24541,20515 24771,20382 Z"/>
       </g>
      </g>
     </g>
    </g>
   </g>
  </g>
 </g>
</svg>