<?xml version="1.0" encoding="UTF-8"?>
<!DOCTYPE svg PUBLIC "-//W3C//DTD SVG 1.1//EN" "http://www.w3.org/Graphics/SVG/1.1/DTD/svg11.dtd">
<svg version="1.2" width="20.76mm" height="23.5mm" viewBox="13853 19504 2076 2350" preserveAspectRatio="xMidYMid" fill-rule="evenodd" stroke-width="28.222" stroke-linejoin="round" xmlns="http://www.w3.org/2000/svg" xmlns:ooo="http://xml.openoffice.org/svg/export" xmlns:xlink="http://www.w3.org/1999/xlink" xmlns:presentation="http://sun.com/xmlns/staroffice/presentation" xmlns:smil="http://www.w3.org/2001/SMIL20/" xmlns:anim="urn:oasis:names:tc:opendocument:xmlns:animation:1.0" xml:space="preserve">
 <defs class="ClipPathGroup">
  <clipPath id="presentation_clip_path" clipPathUnits="userSpaceOnUse">
   <rect x="13853" y="19504" width="2076" height="2350"/>
  </clipPath>
 </defs>
 <defs class="TextShapeIndex">
  <g ooo:slide="id1" ooo:id-list="id3 id4 id5 id6 id7 id8 id9 id10 id11 id12 id13 id14"/>
 </defs>
 <defs class="EmbeddedBulletChars">
  <g id="bullet-char-template(57356)" transform="scale(0.00048828125,-0.00048828125)">
   <path d="M 580,1141 L 1163,571 580,0 -4,571 580,1141 Z"/>
  </g>
  <g id="bullet-char-template(57354)" transform="scale(0.00048828125,-0.00048828125)">
   <path d="M 8,1128 L 1137,1128 1137,0 8,0 8,1128 Z"/>
  </g>
  <g id="bullet-char-template(10146)" transform="scale(0.00048828125,-0.00048828125)">
   <path d="M 174,0 L 602,739 174,1481 1456,739 174,0 Z M 1358,739 L 309,1346 659,739 1358,739 Z"/>
  </g>
  <g id="bullet-char-template(10132)" transform="scale(0.00048828125,-0.00048828125)">
   <path d="M 2015,739 L 1276,0 717,0 1260,543 174,543 174,936 1260,936 717,1481 1274,1481 2015,739 Z"/>
  </g>
  <g id="bullet-char-template(10007)" transform="scale(0.00048828125,-0.00048828125)">
   <path d="M 0,-2 C -7,14 -16,27 -25,37 L 356,567 C 262,823 215,952 215,954 215,979 228,992 255,992 264,992 276,990 289,987 310,991 331,999 354,1012 L 381,999 492,748 772,1049 836,1024 860,1049 C 881,1039 901,1025 922,1006 886,937 835,863 770,784 769,783 710,716 594,584 L 774,223 C 774,196 753,168 711,139 L 727,119 C 717,90 699,76 672,76 641,76 570,178 457,381 L 164,-76 C 142,-110 111,-127 72,-127 30,-127 9,-110 8,-76 1,-67 -2,-52 -2,-32 -2,-23 -1,-13 0,-2 Z"/>
  </g>
  <g id="bullet-char-template(10004)" transform="scale(0.00048828125,-0.00048828125)">
   <path d="M 285,-33 C 182,-33 111,30 74,156 52,228 41,333 41,471 41,549 55,616 82,672 116,743 169,778 240,778 293,778 328,747 346,684 L 369,508 C 377,444 397,411 428,410 L 1163,1116 C 1174,1127 1196,1133 1229,1133 1271,1133 1292,1118 1292,1087 L 1292,965 C 1292,929 1282,901 1262,881 L 442,47 C 390,-6 338,-33 285,-33 Z"/>
  </g>
  <g id="bullet-char-template(9679)" transform="scale(0.00048828125,-0.00048828125)">
   <path d="M 813,0 C 632,0 489,54 383,161 276,268 223,411 223,592 223,773 276,916 383,1023 489,1130 632,1184 813,1184 992,1184 1136,1130 1245,1023 1353,916 1407,772 1407,592 1407,412 1353,268 1245,161 1136,54 992,0 813,0 Z"/>
  </g>
  <g id="bullet-char-template(8226)" transform="scale(0.00048828125,-0.00048828125)">
   <path d="M 346,457 C 273,457 209,483 155,535 101,586 74,649 74,723 74,796 101,859 155,911 209,963 273,989 346,989 419,989 480,963 531,910 582,859 608,796 608,723 608,648 583,586 532,535 482,483 420,457 346,457 Z"/>
  </g>
  <g id="bullet-char-template(8211)" transform="scale(0.00048828125,-0.00048828125)">
   <path d="M -4,459 L 1135,459 1135,606 -4,606 -4,459 Z"/>
  </g>
 </defs>
 <defs class="TextEmbeddedBitmaps"/>
 <g class="SlideGroup">
  <g>
   <g id="id1" class="Slide" clip-path="url(#presentation_clip_path)">
    <g class="Page">
     <g class="Group">
      <g class="com.sun.star.drawing.ClosedBezierShape">
       <g id="id3">
        <rect class="BoundingBox" stroke="none" fill="none" x="15014" y="21239" width="916" height="597"/>
        <path fill="rgb(221,221,221)" stroke="none" d="M 15015,21834 C 15172,21834 15928,21735 15928,21603 15928,21471 15743,21240 15586,21240 15586,21339 15015,21702 15015,21834 Z"/>
        <path fill="none" stroke="rgb(221,221,221)" d="M 15015,21834 C 15172,21834 15928,21735 15928,21603 15928,21471 15743,21240 15586,21240 15586,21339 15015,21702 15015,21834 Z"/>
       </g>
      </g>
      <g class="Group">
       <g class="com.sun.star.drawing.PolyPolygonShape">
        <g id="id4">
         <rect class="BoundingBox" stroke="none" fill="none" x="13853" y="19504" width="1755" height="1031"/>
         <g>
          <defs>
           <linearGradient id="gradient1" x1="14729" y1="19524" x2="14729" y2="20514" gradientUnits="userSpaceOnUse">
            <stop offset="0.1" style="stop-color:rgb(179,179,179)"/>
            <stop offset="1" style="stop-color:rgb(229,229,229)"/>
           </linearGradient>
          </defs>
          <path style="fill:url(#gradient1)" d="M 14444,19524 L 13873,19854 13873,20184 14444,20514 15015,20514 15586,20184 14444,19524 Z"/>
         </g>
         <path fill="none" stroke="rgb(255,255,255)" stroke-width="40" stroke-linejoin="round" d="M 14444,19524 L 13873,19854 13873,20184 14444,20514 15015,20514 15586,20184 14444,19524 Z"/>
        </g>
       </g>
       <g class="com.sun.star.drawing.PolyPolygonShape">
        <g id="id5">
         <rect class="BoundingBox" stroke="none" fill="none" x="14995" y="20659" width="612" height="1031"/>
         <g>
          <defs>
           <pattern id="pattern1" x="15015" y="20679" width="572" height="991" patternUnits="userSpaceOnUse">
            <g transform="translate(-15015,-20679)">
             <path fill="rgb(51,51,51)" stroke="none" d="M 15014,20678 L 15587,20678 15587,21670 15014,21670 15014,20678 Z M 14902,20484 L 15469,20484 15469,21466 14902,21466 14902,20484 Z"/>
             <path fill="rgb(52,52,52)" stroke="none" d="M 14902,20484 L 15469,20484 15469,21466 14902,21466 14902,20484 Z M 14905,20489 L 15466,20489 15466,21461 14905,21461 14905,20489 Z"/>
             <path fill="rgb(53,53,53)" stroke="none" d="M 14905,20489 L 15466,20489 15466,21461 14905,21461 14905,20489 Z M 14908,20494 L 15463,20494 15463,21456 14908,21456 14908,20494 Z"/>
             <path fill="rgb(54,54,54)" stroke="none" d="M 14908,20494 L 15463,20494 15463,21456 14908,21456 14908,20494 Z M 14911,20499 L 15460,20499 15460,21451 14911,21451 14911,20499 Z"/>
             <path fill="rgb(55,55,55)" stroke="none" d="M 14911,20499 L 15460,20499 15460,21451 14911,21451 14911,20499 Z M 14914,20504 L 15457,20504 15457,21446 14914,21446 14914,20504 Z"/>
             <path fill="rgb(56,56,56)" stroke="none" d="M 14914,20504 L 15457,20504 15457,21446 14914,21446 14914,20504 Z M 14916,20509 L 15455,20509 15455,21441 14916,21441 14916,20509 Z"/>
             <path fill="rgb(57,57,57)" stroke="none" d="M 14916,20509 L 15455,20509 15455,21441 14916,21441 14916,20509 Z M 14919,20514 L 15452,20514 15452,21436 14919,21436 14919,20514 Z"/>
             <path fill="rgb(58,58,58)" stroke="none" d="M 14919,20514 L 15452,20514 15452,21436 14919,21436 14919,20514 Z M 14922,20518 L 15449,20518 15449,21432 14922,21432 14922,20518 Z"/>
             <path fill="rgb(59,59,59)" stroke="none" d="M 14922,20518 L 15449,20518 15449,21432 14922,21432 14922,20518 Z M 14925,20523 L 15446,20523 15446,21427 14925,21427 14925,20523 Z"/>
             <path fill="rgb(60,60,60)" stroke="none" d="M 14925,20523 L 15446,20523 15446,21427 14925,21427 14925,20523 Z M 14928,20528 L 15443,20528 15443,21422 14928,21422 14928,20528 Z"/>
             <path fill="rgb(61,61,61)" stroke="none" d="M 14928,20528 L 15443,20528 15443,21422 14928,21422 14928,20528 Z M 14930,20533 L 15441,20533 15441,21417 14930,21417 14930,20533 Z"/>
             <path fill="rgb(62,62,62)" stroke="none" d="M 14930,20533 L 15441,20533 15441,21417 14930,21417 14930,20533 Z M 14933,20538 L 15438,20538 15438,21412 14933,21412 14933,20538 Z"/>
             <path fill="rgb(63,63,63)" stroke="none" d="M 14933,20538 L 15438,20538 15438,21412 14933,21412 14933,20538 Z M 14936,20543 L 15435,20543 15435,21407 14936,21407 14936,20543 Z"/>
             <path fill="rgb(64,64,64)" stroke="none" d="M 14936,20543 L 15435,20543 15435,21407 14936,21407 14936,20543 Z M 14939,20548 L 15432,20548 15432,21402 14939,21402 14939,20548 Z"/>
             <path fill="rgb(65,65,65)" stroke="none" d="M 14939,20548 L 15432,20548 15432,21402 14939,21402 14939,20548 Z M 14942,20553 L 15429,20553 15429,21397 14942,21397 14942,20553 Z"/>
             <path fill="rgb(66,66,66)" stroke="none" d="M 14942,20553 L 15429,20553 15429,21397 14942,21397 14942,20553 Z M 14945,20557 L 15426,20557 15426,21393 14945,21393 14945,20557 Z"/>
             <path fill="rgb(67,67,67)" stroke="none" d="M 14945,20557 L 15426,20557 15426,21393 14945,21393 14945,20557 Z M 14947,20562 L 15424,20562 15424,21388 14947,21388 14947,20562 Z"/>
             <path fill="rgb(68,68,68)" stroke="none" d="M 14947,20562 L 15424,20562 15424,21388 14947,21388 14947,20562 Z M 14950,20567 L 15421,20567 15421,21383 14950,21383 14950,20567 Z"/>
             <path fill="rgb(69,69,69)" stroke="none" d="M 14950,20567 L 15421,20567 15421,21383 14950,21383 14950,20567 Z M 14953,20572 L 15418,20572 15418,21378 14953,21378 14953,20572 Z"/>
             <path fill="rgb(70,70,70)" stroke="none" d="M 14953,20572 L 15418,20572 15418,21378 14953,21378 14953,20572 Z M 14956,20577 L 15415,20577 15415,21373 14956,21373 14956,20577 Z"/>
             <path fill="rgb(71,71,71)" stroke="none" d="M 14956,20577 L 15415,20577 15415,21373 14956,21373 14956,20577 Z M 14959,20582 L 15412,20582 15412,21368 14959,21368 14959,20582 Z"/>
             <path fill="rgb(72,72,72)" stroke="none" d="M 14959,20582 L 15412,20582 15412,21368 14959,21368 14959,20582 Z M 14961,20587 L 15410,20587 15410,21363 14961,21363 14961,20587 Z"/>
             <path fill="rgb(73,73,73)" stroke="none" d="M 14961,20587 L 15410,20587 15410,21363 14961,21363 14961,20587 Z M 14964,20591 L 15407,20591 15407,21359 14964,21359 14964,20591 Z"/>
             <path fill="rgb(74,74,74)" stroke="none" d="M 14964,20591 L 15407,20591 15407,21359 14964,21359 14964,20591 Z M 14967,20596 L 15404,20596 15404,21354 14967,21354 14967,20596 Z"/>
             <path fill="rgb(75,75,75)" stroke="none" d="M 14967,20596 L 15404,20596 15404,21354 14967,21354 14967,20596 Z M 14970,20601 L 15401,20601 15401,21349 14970,21349 14970,20601 Z"/>
             <path fill="rgb(76,76,76)" stroke="none" d="M 14970,20601 L 15401,20601 15401,21349 14970,21349 14970,20601 Z M 14973,20606 L 15398,20606 15398,21344 14973,21344 14973,20606 Z"/>
             <path fill="rgb(77,77,77)" stroke="none" d="M 14973,20606 L 15398,20606 15398,21344 14973,21344 14973,20606 Z M 14975,20611 L 15396,20611 15396,21339 14975,21339 14975,20611 Z"/>
             <path fill="rgb(78,78,78)" stroke="none" d="M 14975,20611 L 15396,20611 15396,21339 14975,21339 14975,20611 Z M 14978,20616 L 15393,20616 15393,21334 14978,21334 14978,20616 Z"/>
             <path fill="rgb(79,79,79)" stroke="none" d="M 14978,20616 L 15393,20616 15393,21334 14978,21334 14978,20616 Z M 14981,20621 L 15390,20621 15390,21329 14981,21329 14981,20621 Z"/>
             <path fill="rgb(80,80,80)" stroke="none" d="M 14981,20621 L 15390,20621 15390,21329 14981,21329 14981,20621 Z M 14984,20626 L 15387,20626 15387,21324 14984,21324 14984,20626 Z"/>
             <path fill="rgb(81,81,81)" stroke="none" d="M 14984,20626 L 15387,20626 15387,21324 14984,21324 14984,20626 Z M 14987,20630 L 15384,20630 15384,21320 14987,21320 14987,20630 Z"/>
             <path fill="rgb(82,82,82)" stroke="none" d="M 14987,20630 L 15384,20630 15384,21320 14987,21320 14987,20630 Z M 14990,20635 L 15381,20635 15381,21315 14990,21315 14990,20635 Z"/>
             <path fill="rgb(83,83,83)" stroke="none" d="M 14990,20635 L 15381,20635 15381,21315 14990,21315 14990,20635 Z M 14992,20640 L 15379,20640 15379,21310 14992,21310 14992,20640 Z"/>
             <path fill="rgb(84,84,84)" stroke="none" d="M 14992,20640 L 15379,20640 15379,21310 14992,21310 14992,20640 Z M 14995,20645 L 15376,20645 15376,21305 14995,21305 14995,20645 Z"/>
             <path fill="rgb(85,85,85)" stroke="none" d="M 14995,20645 L 15376,20645 15376,21305 14995,21305 14995,20645 Z M 14997,20650 L 15373,20650 15373,21300 14997,21300 14997,20650 Z"/>
             <path fill="rgb(86,86,86)" stroke="none" d="M 14997,20650 L 15373,20650 15373,21300 14997,21300 14997,20650 Z M 15000,20655 L 15370,20655 15370,21295 15000,21295 15000,20655 Z"/>
             <path fill="rgb(87,87,87)" stroke="none" d="M 15000,20655 L 15370,20655 15370,21295 15000,21295 15000,20655 Z M 15003,20659 L 15367,20659 15367,21290 15003,21290 15003,20659 Z"/>
             <path fill="rgb(88,88,88)" stroke="none" d="M 15003,20659 L 15367,20659 15367,21290 15003,21290 15003,20659 Z M 15005,20663 L 15365,20663 15365,21286 15005,21286 15005,20663 Z"/>
             <path fill="rgb(89,89,89)" stroke="none" d="M 15005,20663 L 15365,20663 15365,21286 15005,21286 15005,20663 Z M 15008,20668 L 15362,20668 15362,21281 15008,21281 15008,20668 Z"/>
             <path fill="rgb(90,90,90)" stroke="none" d="M 15008,20668 L 15362,20668 15362,21281 15008,21281 15008,20668 Z M 15011,20673 L 15359,20673 15359,21276 15011,21276 15011,20673 Z"/>
             <path fill="rgb(91,91,91)" stroke="none" d="M 15011,20673 L 15359,20673 15359,21276 15011,21276 15011,20673 Z M 15014,20678 L 15356,20678 15356,21271 15014,21271 15014,20678 Z"/>
             <path fill="rgb(92,92,92)" stroke="none" d="M 15014,20678 L 15356,20678 15356,21271 15014,21271 15014,20678 Z M 15017,20683 L 15353,20683 15353,21266 15017,21266 15017,20683 Z"/>
             <path fill="rgb(93,93,93)" stroke="none" d="M 15017,20683 L 15353,20683 15353,21266 15017,21266 15017,20683 Z M 15019,20688 L 15351,20688 15351,21261 15019,21261 15019,20688 Z"/>
             <path fill="rgb(94,94,94)" stroke="none" d="M 15019,20688 L 15351,20688 15351,21261 15019,21261 15019,20688 Z M 15022,20693 L 15348,20693 15348,21256 15022,21256 15022,20693 Z"/>
             <path fill="rgb(95,95,95)" stroke="none" d="M 15022,20693 L 15348,20693 15348,21256 15022,21256 15022,20693 Z M 15025,20698 L 15345,20698 15345,21251 15025,21251 15025,20698 Z"/>
             <path fill="rgb(96,96,96)" stroke="none" d="M 15025,20698 L 15345,20698 15345,21251 15025,21251 15025,20698 Z M 15028,20702 L 15342,20702 15342,21247 15028,21247 15028,20702 Z"/>
             <path fill="rgb(97,97,97)" stroke="none" d="M 15028,20702 L 15342,20702 15342,21247 15028,21247 15028,20702 Z M 15031,20707 L 15339,20707 15339,21242 15031,21242 15031,20707 Z"/>
             <path fill="rgb(98,98,98)" stroke="none" d="M 15031,20707 L 15339,20707 15339,21242 15031,21242 15031,20707 Z M 15034,20712 L 15336,20712 15336,21237 15034,21237 15034,20712 Z"/>
             <path fill="rgb(99,99,99)" stroke="none" d="M 15034,20712 L 15336,20712 15336,21237 15034,21237 15034,20712 Z M 15036,20717 L 15334,20717 15334,21232 15036,21232 15036,20717 Z"/>
             <path fill="rgb(100,100,100)" stroke="none" d="M 15036,20717 L 15334,20717 15334,21232 15036,21232 15036,20717 Z M 15039,20722 L 15331,20722 15331,21227 15039,21227 15039,20722 Z"/>
             <path fill="rgb(101,101,101)" stroke="none" d="M 15039,20722 L 15331,20722 15331,21227 15039,21227 15039,20722 Z M 15042,20727 L 15328,20727 15328,21222 15042,21222 15042,20727 Z"/>
             <path fill="rgb(102,102,102)" stroke="none" d="M 15042,20727 L 15328,20727 15328,21222 15042,21222 15042,20727 Z M 15045,20732 L 15325,20732 15325,21217 15045,21217 15045,20732 Z"/>
             <path fill="rgb(103,103,103)" stroke="none" d="M 15045,20732 L 15325,20732 15325,21217 15045,21217 15045,20732 Z M 15048,20736 L 15322,20736 15322,21213 15048,21213 15048,20736 Z"/>
             <path fill="rgb(104,104,104)" stroke="none" d="M 15048,20736 L 15322,20736 15322,21213 15048,21213 15048,20736 Z M 15050,20741 L 15320,20741 15320,21208 15050,21208 15050,20741 Z"/>
             <path fill="rgb(105,105,105)" stroke="none" d="M 15050,20741 L 15320,20741 15320,21208 15050,21208 15050,20741 Z M 15053,20746 L 15317,20746 15317,21203 15053,21203 15053,20746 Z"/>
             <path fill="rgb(106,106,106)" stroke="none" d="M 15053,20746 L 15317,20746 15317,21203 15053,21203 15053,20746 Z M 15056,20751 L 15314,20751 15314,21198 15056,21198 15056,20751 Z"/>
             <path fill="rgb(107,107,107)" stroke="none" d="M 15056,20751 L 15314,20751 15314,21198 15056,21198 15056,20751 Z M 15059,20756 L 15311,20756 15311,21193 15059,21193 15059,20756 Z"/>
             <path fill="rgb(108,108,108)" stroke="none" d="M 15059,20756 L 15311,20756 15311,21193 15059,21193 15059,20756 Z M 15062,20761 L 15308,20761 15308,21188 15062,21188 15062,20761 Z"/>
             <path fill="rgb(109,109,109)" stroke="none" d="M 15062,20761 L 15308,20761 15308,21188 15062,21188 15062,20761 Z M 15065,20766 L 15305,20766 15305,21183 15065,21183 15065,20766 Z"/>
             <path fill="rgb(110,110,110)" stroke="none" d="M 15065,20766 L 15305,20766 15305,21183 15065,21183 15065,20766 Z M 15067,20771 L 15303,20771 15303,21178 15067,21178 15067,20771 Z"/>
             <path fill="rgb(111,111,111)" stroke="none" d="M 15067,20771 L 15303,20771 15303,21178 15067,21178 15067,20771 Z M 15070,20775 L 15300,20775 15300,21174 15070,21174 15070,20775 Z"/>
             <path fill="rgb(112,112,112)" stroke="none" d="M 15070,20775 L 15300,20775 15300,21174 15070,21174 15070,20775 Z M 15073,20780 L 15297,20780 15297,21169 15073,21169 15073,20780 Z"/>
             <path fill="rgb(113,113,113)" stroke="none" d="M 15073,20780 L 15297,20780 15297,21169 15073,21169 15073,20780 Z M 15076,20785 L 15294,20785 15294,21164 15076,21164 15076,20785 Z"/>
             <path fill="rgb(114,114,114)" stroke="none" d="M 15076,20785 L 15294,20785 15294,21164 15076,21164 15076,20785 Z M 15079,20790 L 15291,20790 15291,21159 15079,21159 15079,20790 Z"/>
             <path fill="rgb(115,115,115)" stroke="none" d="M 15079,20790 L 15291,20790 15291,21159 15079,21159 15079,20790 Z M 15081,20795 L 15289,20795 15289,21154 15081,21154 15081,20795 Z"/>
             <path fill="rgb(116,116,116)" stroke="none" d="M 15081,20795 L 15289,20795 15289,21154 15081,21154 15081,20795 Z M 15084,20800 L 15286,20800 15286,21149 15084,21149 15084,20800 Z"/>
             <path fill="rgb(117,117,117)" stroke="none" d="M 15084,20800 L 15286,20800 15286,21149 15084,21149 15084,20800 Z M 15087,20805 L 15283,20805 15283,21144 15087,21144 15087,20805 Z"/>
             <path fill="rgb(118,118,118)" stroke="none" d="M 15087,20805 L 15283,20805 15283,21144 15087,21144 15087,20805 Z M 15090,20810 L 15280,20810 15280,21139 15090,21139 15090,20810 Z"/>
             <path fill="rgb(119,119,119)" stroke="none" d="M 15090,20810 L 15280,20810 15280,21139 15090,21139 15090,20810 Z M 15093,20814 L 15277,20814 15277,21135 15093,21135 15093,20814 Z"/>
             <path fill="rgb(120,120,120)" stroke="none" d="M 15093,20814 L 15277,20814 15277,21135 15093,21135 15093,20814 Z M 15095,20819 L 15275,20819 15275,21130 15095,21130 15095,20819 Z"/>
             <path fill="rgb(121,121,121)" stroke="none" d="M 15095,20819 L 15275,20819 15275,21130 15095,21130 15095,20819 Z M 15098,20824 L 15272,20824 15272,21125 15098,21125 15098,20824 Z"/>
             <path fill="rgb(122,122,122)" stroke="none" d="M 15098,20824 L 15272,20824 15272,21125 15098,21125 15098,20824 Z M 15101,20829 L 15269,20829 15269,21120 15101,21120 15101,20829 Z"/>
             <path fill="rgb(123,123,123)" stroke="none" d="M 15101,20829 L 15269,20829 15269,21120 15101,21120 15101,20829 Z M 15104,20834 L 15266,20834 15266,21115 15104,21115 15104,20834 Z"/>
             <path fill="rgb(124,124,124)" stroke="none" d="M 15104,20834 L 15266,20834 15266,21115 15104,21115 15104,20834 Z M 15107,20839 L 15263,20839 15263,21110 15107,21110 15107,20839 Z"/>
             <path fill="rgb(125,125,125)" stroke="none" d="M 15107,20839 L 15263,20839 15263,21110 15107,21110 15107,20839 Z M 15110,20844 L 15260,20844 15260,21105 15110,21105 15110,20844 Z"/>
             <path fill="rgb(126,126,126)" stroke="none" d="M 15110,20844 L 15260,20844 15260,21105 15110,21105 15110,20844 Z M 15112,20848 L 15258,20848 15258,21101 15112,21101 15112,20848 Z"/>
             <path fill="rgb(127,127,127)" stroke="none" d="M 15112,20848 L 15258,20848 15258,21101 15112,21101 15112,20848 Z M 15115,20853 L 15255,20853 15255,21096 15115,21096 15115,20853 Z"/>
             <path fill="rgb(128,128,128)" stroke="none" d="M 15115,20853 L 15255,20853 15255,21096 15115,21096 15115,20853 Z M 15118,20858 L 15252,20858 15252,21091 15118,21091 15118,20858 Z"/>
             <path fill="rgb(129,129,129)" stroke="none" d="M 15118,20858 L 15252,20858 15252,21091 15118,21091 15118,20858 Z M 15121,20863 L 15249,20863 15249,21086 15121,21086 15121,20863 Z"/>
             <path fill="rgb(130,130,130)" stroke="none" d="M 15121,20863 L 15249,20863 15249,21086 15121,21086 15121,20863 Z M 15124,20868 L 15246,20868 15246,21081 15124,21081 15124,20868 Z"/>
             <path fill="rgb(131,131,131)" stroke="none" d="M 15124,20868 L 15246,20868 15246,21081 15124,21081 15124,20868 Z M 15126,20873 L 15244,20873 15244,21076 15126,21076 15126,20873 Z"/>
             <path fill="rgb(132,132,132)" stroke="none" d="M 15126,20873 L 15244,20873 15244,21076 15126,21076 15126,20873 Z M 15129,20878 L 15241,20878 15241,21071 15129,21071 15129,20878 Z"/>
             <path fill="rgb(133,133,133)" stroke="none" d="M 15129,20878 L 15241,20878 15241,21071 15129,21071 15129,20878 Z M 15132,20883 L 15238,20883 15238,21066 15132,21066 15132,20883 Z"/>
             <path fill="rgb(134,134,134)" stroke="none" d="M 15132,20883 L 15238,20883 15238,21066 15132,21066 15132,20883 Z M 15135,20887 L 15235,20887 15235,21062 15135,21062 15135,20887 Z"/>
             <path fill="rgb(135,135,135)" stroke="none" d="M 15135,20887 L 15235,20887 15235,21062 15135,21062 15135,20887 Z M 15138,20892 L 15232,20892 15232,21057 15138,21057 15138,20892 Z"/>
             <path fill="rgb(136,136,136)" stroke="none" d="M 15138,20892 L 15232,20892 15232,21057 15138,21057 15138,20892 Z M 15140,20897 L 15230,20897 15230,21052 15140,21052 15140,20897 Z"/>
             <path fill="rgb(137,137,137)" stroke="none" d="M 15140,20897 L 15230,20897 15230,21052 15140,21052 15140,20897 Z M 15143,20902 L 15227,20902 15227,21047 15143,21047 15143,20902 Z"/>
             <path fill="rgb(138,138,138)" stroke="none" d="M 15143,20902 L 15227,20902 15227,21047 15143,21047 15143,20902 Z M 15146,20907 L 15224,20907 15224,21042 15146,21042 15146,20907 Z"/>
             <path fill="rgb(139,139,139)" stroke="none" d="M 15146,20907 L 15224,20907 15224,21042 15146,21042 15146,20907 Z M 15149,20912 L 15221,20912 15221,21037 15149,21037 15149,20912 Z"/>
             <path fill="rgb(140,140,140)" stroke="none" d="M 15149,20912 L 15221,20912 15221,21037 15149,21037 15149,20912 Z M 15152,20917 L 15218,20917 15218,21032 15152,21032 15152,20917 Z"/>
             <path fill="rgb(141,141,141)" stroke="none" d="M 15152,20917 L 15218,20917 15218,21032 15152,21032 15152,20917 Z M 15155,20921 L 15215,20921 15215,21028 15155,21028 15155,20921 Z"/>
             <path fill="rgb(142,142,142)" stroke="none" d="M 15155,20921 L 15215,20921 15215,21028 15155,21028 15155,20921 Z M 15157,20926 L 15213,20926 15213,21023 15157,21023 15157,20926 Z"/>
             <path fill="rgb(143,143,143)" stroke="none" d="M 15157,20926 L 15213,20926 15213,21023 15157,21023 15157,20926 Z M 15160,20931 L 15210,20931 15210,21018 15160,21018 15160,20931 Z"/>
             <path fill="rgb(144,144,144)" stroke="none" d="M 15160,20931 L 15210,20931 15210,21018 15160,21018 15160,20931 Z M 15163,20936 L 15207,20936 15207,21013 15163,21013 15163,20936 Z"/>
             <path fill="rgb(145,145,145)" stroke="none" d="M 15163,20936 L 15207,20936 15207,21013 15163,21013 15163,20936 Z M 15166,20941 L 15204,20941 15204,21008 15166,21008 15166,20941 Z"/>
             <path fill="rgb(146,146,146)" stroke="none" d="M 15166,20941 L 15204,20941 15204,21008 15166,21008 15166,20941 Z M 15169,20946 L 15201,20946 15201,21003 15169,21003 15169,20946 Z"/>
             <path fill="rgb(147,147,147)" stroke="none" d="M 15169,20946 L 15201,20946 15201,21003 15169,21003 15169,20946 Z M 15171,20951 L 15199,20951 15199,20998 15171,20998 15171,20951 Z"/>
             <path fill="rgb(148,148,148)" stroke="none" d="M 15171,20951 L 15199,20951 15199,20998 15171,20998 15171,20951 Z M 15174,20956 L 15196,20956 15196,20993 15174,20993 15174,20956 Z"/>
             <path fill="rgb(149,149,149)" stroke="none" d="M 15174,20956 L 15196,20956 15196,20993 15174,20993 15174,20956 Z M 15177,20960 L 15193,20960 15193,20989 15177,20989 15177,20960 Z"/>
             <path fill="rgb(150,150,150)" stroke="none" d="M 15177,20960 L 15193,20960 15193,20989 15177,20989 15177,20960 Z M 15180,20965 L 15190,20965 15190,20984 15180,20984 15180,20965 Z"/>
             <path fill="rgb(151,151,151)" stroke="none" d="M 15180,20965 L 15190,20965 15190,20984 15180,20984 15180,20965 Z M 15183,20970 L 15187,20970 15187,20979 15183,20979 15183,20970 Z"/>
             <path fill="rgb(153,153,153)" stroke="none" d="M 15183,20970 L 15187,20970 15187,20979 15183,20979 15183,20970 Z"/>
            </g>
           </pattern>
          </defs>
          <path style="fill:url(#pattern1)" d="M 15586,21339 L 15586,20679 15015,21009 15015,21669 15586,21339 Z"/>
         </g>
         <path fill="none" stroke="rgb(178,178,178)" stroke-width="40" stroke-linejoin="round" d="M 15586,21339 L 15586,20679 15015,21009 15015,21669 15586,21339 Z"/>
        </g>
       </g>
       <g class="com.sun.star.drawing.PolyPolygonShape">
        <g id="id6">
         <rect class="BoundingBox" stroke="none" fill="none" x="14424" y="20989" width="612" height="701"/>
         <g>
          <defs>
           <linearGradient id="gradient2" x1="14729" y1="21669" x2="14729" y2="21009" gradientUnits="userSpaceOnUse">
            <stop offset="0.1" style="stop-color:rgb(102,102,102)"/>
            <stop offset="1" style="stop-color:rgb(153,153,153)"/>
           </linearGradient>
          </defs>
          <path style="fill:url(#gradient2)" d="M 15015,21669 L 15015,21009 14444,21009 14444,21669 15015,21669 Z"/>
         </g>
         <path fill="none" stroke="rgb(178,178,178)" stroke-width="40" stroke-linejoin="round" d="M 15015,21669 L 15015,21009 14444,21009 14444,21669 15015,21669 Z"/>
        </g>
       </g>
       <g class="com.sun.star.drawing.PolyPolygonShape">
        <g id="id7">
         <rect class="BoundingBox" stroke="none" fill="none" x="13853" y="20659" width="612" height="1031"/>
         <g>
          <defs>
           <linearGradient id="gradient3" x1="14158" y1="21669" x2="14158" y2="20679" gradientUnits="userSpaceOnUse">
            <stop offset="0.1" style="stop-color:rgb(102,102,102)"/>
            <stop offset="1" style="stop-color:rgb(153,153,153)"/>
           </linearGradient>
          </defs>
          <path style="fill:url(#gradient3)" d="M 14444,21669 L 14444,21009 13873,20679 13873,21339 14444,21669 Z"/>
         </g>
         <path fill="none" stroke="rgb(178,178,178)" stroke-width="40" stroke-linejoin="round" d="M 14444,21669 L 14444,21009 13873,20679 13873,21339 14444,21669 Z"/>
        </g>
       </g>
       <g class="com.sun.star.drawing.PolyPolygonShape">
        <g id="id8">
         <rect class="BoundingBox" stroke="none" fill="none" x="14995" y="20164" width="612" height="866"/>
         <g>
          <defs>
           <pattern id="pattern2" x="15015" y="20184" width="572" height="826" patternUnits="userSpaceOnUse">
            <g transform="translate(-15015,-20184)">
             <path fill="rgb(179,179,179)" stroke="none" d="M 15014,20183 L 15587,20183 15587,21010 15014,21010 15014,20183 Z M 14905,20026 L 15466,20026 15466,20835 14905,20835 14905,20026 Z"/>
             <path fill="rgb(180,180,180)" stroke="none" d="M 14905,20026 L 15466,20026 15466,20835 14905,20835 14905,20026 Z M 14911,20034 L 15460,20034 15460,20827 14911,20827 14911,20034 Z"/>
             <path fill="rgb(181,181,181)" stroke="none" d="M 14911,20034 L 15460,20034 15460,20827 14911,20827 14911,20034 Z M 14917,20042 L 15454,20042 15454,20819 14917,20819 14917,20042 Z"/>
             <path fill="rgb(182,182,182)" stroke="none" d="M 14917,20042 L 15454,20042 15454,20819 14917,20819 14917,20042 Z M 14922,20051 L 15449,20051 15449,20810 14922,20810 14922,20051 Z"/>
             <path fill="rgb(183,183,183)" stroke="none" d="M 14922,20051 L 15449,20051 15449,20810 14922,20810 14922,20051 Z M 14928,20059 L 15443,20059 15443,20802 14928,20802 14928,20059 Z"/>
             <path fill="rgb(184,184,184)" stroke="none" d="M 14928,20059 L 15443,20059 15443,20802 14928,20802 14928,20059 Z M 14934,20067 L 15437,20067 15437,20794 14934,20794 14934,20067 Z"/>
             <path fill="rgb(185,185,185)" stroke="none" d="M 14934,20067 L 15437,20067 15437,20794 14934,20794 14934,20067 Z M 14940,20075 L 15431,20075 15431,20786 14940,20786 14940,20075 Z"/>
             <path fill="rgb(186,186,186)" stroke="none" d="M 14940,20075 L 15431,20075 15431,20786 14940,20786 14940,20075 Z M 14945,20084 L 15426,20084 15426,20777 14945,20777 14945,20084 Z"/>
             <path fill="rgb(187,187,187)" stroke="none" d="M 14945,20084 L 15426,20084 15426,20777 14945,20777 14945,20084 Z M 14951,20092 L 15420,20092 15420,20769 14951,20769 14951,20092 Z"/>
             <path fill="rgb(188,188,188)" stroke="none" d="M 14951,20092 L 15420,20092 15420,20769 14951,20769 14951,20092 Z M 14957,20100 L 15414,20100 15414,20761 14957,20761 14957,20100 Z"/>
             <path fill="rgb(189,189,189)" stroke="none" d="M 14957,20100 L 15414,20100 15414,20761 14957,20761 14957,20100 Z M 14963,20109 L 15408,20109 15408,20752 14963,20752 14963,20109 Z"/>
             <path fill="rgb(190,190,190)" stroke="none" d="M 14963,20109 L 15408,20109 15408,20752 14963,20752 14963,20109 Z M 14968,20117 L 15403,20117 15403,20744 14968,20744 14968,20117 Z"/>
             <path fill="rgb(191,191,191)" stroke="none" d="M 14968,20117 L 15403,20117 15403,20744 14968,20744 14968,20117 Z M 14974,20125 L 15397,20125 15397,20736 14974,20736 14974,20125 Z"/>
             <path fill="rgb(192,192,192)" stroke="none" d="M 14974,20125 L 15397,20125 15397,20736 14974,20736 14974,20125 Z M 14980,20133 L 15391,20133 15391,20728 14980,20728 14980,20133 Z"/>
             <path fill="rgb(193,193,193)" stroke="none" d="M 14980,20133 L 15391,20133 15391,20728 14980,20728 14980,20133 Z M 14986,20142 L 15385,20142 15385,20719 14986,20719 14986,20142 Z"/>
             <path fill="rgb(194,194,194)" stroke="none" d="M 14986,20142 L 15385,20142 15385,20719 14986,20719 14986,20142 Z M 14991,20150 L 15380,20150 15380,20711 14991,20711 14991,20150 Z"/>
             <path fill="rgb(195,195,195)" stroke="none" d="M 14991,20150 L 15380,20150 15380,20711 14991,20711 14991,20150 Z M 14996,20158 L 15374,20158 15374,20703 14996,20703 14996,20158 Z"/>
             <path fill="rgb(196,196,196)" stroke="none" d="M 14996,20158 L 15374,20158 15374,20703 14996,20703 14996,20158 Z M 15002,20166 L 15368,20166 15368,20694 15002,20694 15002,20166 Z"/>
             <path fill="rgb(197,197,197)" stroke="none" d="M 15002,20166 L 15368,20166 15368,20694 15002,20694 15002,20166 Z M 15008,20174 L 15362,20174 15362,20686 15008,20686 15008,20174 Z"/>
             <path fill="rgb(198,198,198)" stroke="none" d="M 15008,20174 L 15362,20174 15362,20686 15008,20686 15008,20174 Z M 15013,20182 L 15357,20182 15357,20678 15013,20678 15013,20182 Z"/>
             <path fill="rgb(199,199,199)" stroke="none" d="M 15013,20182 L 15357,20182 15357,20678 15013,20678 15013,20182 Z M 15019,20190 L 15351,20190 15351,20670 15019,20670 15019,20190 Z"/>
             <path fill="rgb(200,200,200)" stroke="none" d="M 15019,20190 L 15351,20190 15351,20670 15019,20670 15019,20190 Z M 15025,20199 L 15345,20199 15345,20661 15025,20661 15025,20199 Z"/>
             <path fill="rgb(201,201,201)" stroke="none" d="M 15025,20199 L 15345,20199 15345,20661 15025,20661 15025,20199 Z M 15031,20207 L 15339,20207 15339,20653 15031,20653 15031,20207 Z"/>
             <path fill="rgb(202,202,202)" stroke="none" d="M 15031,20207 L 15339,20207 15339,20653 15031,20653 15031,20207 Z M 15036,20215 L 15334,20215 15334,20645 15036,20645 15036,20215 Z"/>
             <path fill="rgb(203,203,203)" stroke="none" d="M 15036,20215 L 15334,20215 15334,20645 15036,20645 15036,20215 Z M 15042,20224 L 15328,20224 15328,20637 15042,20637 15042,20224 Z"/>
             <path fill="rgb(204,204,204)" stroke="none" d="M 15042,20224 L 15328,20224 15328,20637 15042,20637 15042,20224 Z M 15048,20232 L 15322,20232 15322,20628 15048,20628 15048,20232 Z"/>
             <path fill="rgb(205,205,205)" stroke="none" d="M 15048,20232 L 15322,20232 15322,20628 15048,20628 15048,20232 Z M 15053,20240 L 15317,20240 15317,20620 15053,20620 15053,20240 Z"/>
             <path fill="rgb(206,206,206)" stroke="none" d="M 15053,20240 L 15317,20240 15317,20620 15053,20620 15053,20240 Z M 15059,20248 L 15311,20248 15311,20612 15059,20612 15059,20248 Z"/>
             <path fill="rgb(207,207,207)" stroke="none" d="M 15059,20248 L 15311,20248 15311,20612 15059,20612 15059,20248 Z M 15065,20257 L 15305,20257 15305,20603 15065,20603 15065,20257 Z"/>
             <path fill="rgb(208,208,208)" stroke="none" d="M 15065,20257 L 15305,20257 15305,20603 15065,20603 15065,20257 Z M 15071,20265 L 15299,20265 15299,20595 15071,20595 15071,20265 Z"/>
             <path fill="rgb(209,209,209)" stroke="none" d="M 15071,20265 L 15299,20265 15299,20595 15071,20595 15071,20265 Z M 15076,20273 L 15294,20273 15294,20587 15076,20587 15076,20273 Z"/>
             <path fill="rgb(210,210,210)" stroke="none" d="M 15076,20273 L 15294,20273 15294,20587 15076,20587 15076,20273 Z M 15082,20281 L 15288,20281 15288,20579 15082,20579 15082,20281 Z"/>
             <path fill="rgb(211,211,211)" stroke="none" d="M 15082,20281 L 15288,20281 15288,20579 15082,20579 15082,20281 Z M 15088,20290 L 15282,20290 15282,20570 15088,20570 15088,20290 Z"/>
             <path fill="rgb(212,212,212)" stroke="none" d="M 15088,20290 L 15282,20290 15282,20570 15088,20570 15088,20290 Z M 15094,20298 L 15276,20298 15276,20562 15094,20562 15094,20298 Z"/>
             <path fill="rgb(213,213,213)" stroke="none" d="M 15094,20298 L 15276,20298 15276,20562 15094,20562 15094,20298 Z M 15099,20306 L 15271,20306 15271,20554 15099,20554 15099,20306 Z"/>
             <path fill="rgb(214,214,214)" stroke="none" d="M 15099,20306 L 15271,20306 15271,20554 15099,20554 15099,20306 Z M 15105,20315 L 15265,20315 15265,20545 15105,20545 15105,20315 Z"/>
             <path fill="rgb(215,215,215)" stroke="none" d="M 15105,20315 L 15265,20315 15265,20545 15105,20545 15105,20315 Z M 15111,20323 L 15259,20323 15259,20537 15111,20537 15111,20323 Z"/>
             <path fill="rgb(216,216,216)" stroke="none" d="M 15111,20323 L 15259,20323 15259,20537 15111,20537 15111,20323 Z M 15117,20331 L 15253,20331 15253,20529 15117,20529 15117,20331 Z"/>
             <path fill="rgb(217,217,217)" stroke="none" d="M 15117,20331 L 15253,20331 15253,20529 15117,20529 15117,20331 Z M 15122,20339 L 15248,20339 15248,20521 15122,20521 15122,20339 Z"/>
             <path fill="rgb(218,218,218)" stroke="none" d="M 15122,20339 L 15248,20339 15248,20521 15122,20521 15122,20339 Z M 15128,20348 L 15242,20348 15242,20512 15128,20512 15128,20348 Z"/>
             <path fill="rgb(219,219,219)" stroke="none" d="M 15128,20348 L 15242,20348 15242,20512 15128,20512 15128,20348 Z M 15134,20356 L 15236,20356 15236,20504 15134,20504 15134,20356 Z"/>
             <path fill="rgb(220,220,220)" stroke="none" d="M 15134,20356 L 15236,20356 15236,20504 15134,20504 15134,20356 Z M 15140,20364 L 15230,20364 15230,20496 15140,20496 15140,20364 Z"/>
             <path fill="rgb(221,221,221)" stroke="none" d="M 15140,20364 L 15230,20364 15230,20496 15140,20496 15140,20364 Z M 15145,20373 L 15225,20373 15225,20487 15145,20487 15145,20373 Z"/>
             <path fill="rgb(222,222,222)" stroke="none" d="M 15145,20373 L 15225,20373 15225,20487 15145,20487 15145,20373 Z M 15151,20381 L 15219,20381 15219,20479 15151,20479 15151,20381 Z"/>
             <path fill="rgb(223,223,223)" stroke="none" d="M 15151,20381 L 15219,20381 15219,20479 15151,20479 15151,20381 Z M 15157,20389 L 15213,20389 15213,20471 15157,20471 15157,20389 Z"/>
             <path fill="rgb(224,224,224)" stroke="none" d="M 15157,20389 L 15213,20389 15213,20471 15157,20471 15157,20389 Z M 15163,20397 L 15207,20397 15207,20463 15163,20463 15163,20397 Z"/>
             <path fill="rgb(225,225,225)" stroke="none" d="M 15163,20397 L 15207,20397 15207,20463 15163,20463 15163,20397 Z M 15168,20406 L 15202,20406 15202,20454 15168,20454 15168,20406 Z"/>
             <path fill="rgb(226,226,226)" stroke="none" d="M 15168,20406 L 15202,20406 15202,20454 15168,20454 15168,20406 Z M 15174,20414 L 15196,20414 15196,20446 15174,20446 15174,20414 Z"/>
             <path fill="rgb(227,227,227)" stroke="none" d="M 15174,20414 L 15196,20414 15196,20446 15174,20446 15174,20414 Z M 15180,20422 L 15190,20422 15190,20438 15180,20438 15180,20422 Z"/>
             <path fill="rgb(229,229,229)" stroke="none" d="M 15180,20422 L 15190,20422 15190,20438 15180,20438 15180,20422 Z"/>
            </g>
           </pattern>
          </defs>
          <path style="fill:url(#pattern2)" d="M 15586,20679 L 15586,20184 15015,20514 15015,21009 15586,20679 Z"/>
         </g>
         <path fill="none" stroke="rgb(255,255,255)" stroke-width="40" stroke-linejoin="round" d="M 15586,20679 L 15586,20184 15015,20514 15015,21009 15586,20679 Z"/>
        </g>
       </g>
       <g class="com.sun.star.drawing.PolyPolygonShape">
        <g id="id9">
         <rect class="BoundingBox" stroke="none" fill="none" x="14424" y="20494" width="612" height="536"/>
         <g>
          <defs>
           <linearGradient id="gradient4" x1="14729" y1="21008" x2="14729" y2="20513" gradientUnits="userSpaceOnUse">
            <stop offset="0.1" style="stop-color:rgb(179,179,179)"/>
            <stop offset="1" style="stop-color:rgb(229,229,229)"/>
           </linearGradient>
          </defs>
          <path style="fill:url(#gradient4)" d="M 15015,21009 L 15015,20514 14444,20514 14444,21009 15015,21009 Z"/>
         </g>
         <path fill="none" stroke="rgb(255,255,255)" stroke-width="40" stroke-linejoin="round" d="M 15015,21009 L 15015,20514 14444,20514 14444,21009 15015,21009 Z"/>
        </g>
       </g>
       <g class="com.sun.star.drawing.PolyPolygonShape">
        <g id="id10">
         <rect class="BoundingBox" stroke="none" fill="none" x="13853" y="20164" width="612" height="866"/>
         <g>
          <defs>
           <linearGradient id="gradient5" x1="13872" y1="20596" x2="14445" y2="20596" gradientUnits="userSpaceOnUse">
            <stop offset="0.1" style="stop-color:rgb(179,179,179)"/>
            <stop offset="1" style="stop-color:rgb(229,229,229)"/>
           </linearGradient>
          </defs>
          <path style="fill:url(#gradient5)" d="M 14444,21009 L 14444,20514 13873,20184 13873,20679 14444,21009 Z"/>
         </g>
         <path fill="none" stroke="rgb(255,255,255)" stroke-width="40" stroke-linejoin="round" d="M 14444,21009 L 14444,20514 13873,20184 13873,20679 14444,21009 Z"/>
        </g>
       </g>
       <g class="com.sun.star.drawing.PolyPolygonShape">
        <g id="id11">
         <rect class="BoundingBox" stroke="none" fill="none" x="14995" y="21319" width="612" height="536"/>
         <g>
          <defs>
           <linearGradient id="gradient6" x1="15015" y1="21586" x2="15586" y2="21586" gradientUnits="userSpaceOnUse">
            <stop offset="0.1" style="stop-color:rgb(179,179,179)"/>
            <stop offset="1" style="stop-color:rgb(229,229,229)"/>
           </linearGradient>
          </defs>
          <path style="fill:url(#gradient6)" d="M 15586,21504 L 15586,21339 15015,21669 15015,21834 15586,21504 Z"/>
         </g>
         <path fill="none" stroke="rgb(255,255,255)" stroke-width="40" stroke-linejoin="round" d="M 15586,21504 L 15586,21339 15015,21669 15015,21834 15586,21504 Z"/>
        </g>
       </g>
       <g class="com.sun.star.drawing.PolyPolygonShape">
        <g id="id12">
         <rect class="BoundingBox" stroke="none" fill="none" x="14424" y="21649" width="612" height="206"/>
         <g>
          <defs>
           <linearGradient id="gradient7" x1="14729" y1="21833" x2="14729" y2="21668" gradientUnits="userSpaceOnUse">
            <stop offset="0.1" style="stop-color:rgb(179,179,179)"/>
            <stop offset="1" style="stop-color:rgb(229,229,229)"/>
           </linearGradient>
          </defs>
          <path style="fill:url(#gradient7)" d="M 15015,21834 L 15015,21669 14444,21669 14444,21834 15015,21834 Z"/>
         </g>
         <path fill="none" stroke="rgb(255,255,255)" stroke-width="40" stroke-linejoin="round" d="M 15015,21834 L 15015,21669 14444,21669 14444,21834 15015,21834 Z"/>
        </g>
       </g>
       <g class="com.sun.star.drawing.PolyPolygonShape">
        <g id="id13">
         <rect class="BoundingBox" stroke="none" fill="none" x="13853" y="21319" width="612" height="536"/>
         <g>
          <defs>
           <linearGradient id="gradient8" x1="13873" y1="21586" x2="14444" y2="21586" gradientUnits="userSpaceOnUse">
            <stop offset="0.1" style="stop-color:rgb(179,179,179)"/>
            <stop offset="1" style="stop-color:rgb(229,229,229)"/>
           </linearGradient>
          </defs>
          <path style="fill:url(#gradient8)" d="M 14444,21834 L 14444,21669 13873,21339 13873,21504 14444,21834 Z"/>
         </g>
         <path fill="none" stroke="rgb(255,255,255)" stroke-width="40" stroke-linejoin="round" d="M 14444,21834 L 14444,21669 13873,21339 13873,21504 14444,21834 Z"/>
        </g>
       </g>
       <g class="com.sun.star.drawing.PolyPolygonShape">
        <g id="id14">
         <rect class="BoundingBox" stroke="none" fill="none" x="13853" y="19504" width="1755" height="2351"/>
         <path fill="none" stroke="rgb(0,0,0)" stroke-width="40" stroke-linejoin="round" d="M 15586,21504 L 15586,20184 14444,19524 13873,19854 13873,20844 13873,21504 14444,21834 15015,21834 15586,21504 Z"/>
        </g>
       </g>
      </g>
     </g>
    </g>
   </g>
  </g>
 </g>
</svg>