<?xml version="1.0" encoding="UTF-8"?>
<!DOCTYPE svg PUBLIC "-//W3C//DTD SVG 1.1//EN" "http://www.w3.org/Graphics/SVG/1.1/DTD/svg11.dtd">
<svg version="1.2" width="155.56mm" height="175.4mm" viewBox="-512 8114 15556 17540" preserveAspectRatio="xMidYMid" fill-rule="evenodd" stroke-width="28.222" stroke-linejoin="round" xmlns="http://www.w3.org/2000/svg" xmlns:ooo="http://xml.openoffice.org/svg/export" xmlns:xlink="http://www.w3.org/1999/xlink" xmlns:presentation="http://sun.com/xmlns/staroffice/presentation" xmlns:smil="http://www.w3.org/2001/SMIL20/" xmlns:anim="urn:oasis:names:tc:opendocument:xmlns:animation:1.0" xml:space="preserve">
 <defs class="ClipPathGroup">
  <clipPath id="presentation_clip_path" clipPathUnits="userSpaceOnUse">
   <rect x="-512" y="8114" width="15556" height="17540"/>
  </clipPath>
 </defs>
 <defs class="TextShapeIndex">
  <g ooo:slide="id1" ooo:id-list="id3 id4 id5 id6 id7 id8 id9 id10 id11 id12 id13 id14 id15 id16 id17 id18 id19 id20 id21"/>
 </defs>
 <defs class="EmbeddedBulletChars">
  <g id="bullet-char-template(57356)" transform="scale(0.00048828125,-0.00048828125)">
   <path d="M 580,1141 L 1163,571 580,0 -4,571 580,1141 Z"/>
  </g>
  <g id="bullet-char-template(57354)" transform="scale(0.00048828125,-0.00048828125)">
   <path d="M 8,1128 L 1137,1128 1137,0 8,0 8,1128 Z"/>
  </g>
  <g id="bullet-char-template(10146)" transform="scale(0.00048828125,-0.00048828125)">
   <path d="M 174,0 L 602,739 174,1481 1456,739 174,0 Z M 1358,739 L 309,1346 659,739 1358,739 Z"/>
  </g>
  <g id="bullet-char-template(10132)" transform="scale(0.00048828125,-0.00048828125)">
   <path d="M 2015,739 L 1276,0 717,0 1260,543 174,543 174,936 1260,936 717,1481 1274,1481 2015,739 Z"/>
  </g>
  <g id="bullet-char-template(10007)" transform="scale(0.00048828125,-0.00048828125)">
   <path d="M 0,-2 C -7,14 -16,27 -25,37 L 356,567 C 262,823 215,952 215,954 215,979 228,992 255,992 264,992 276,990 289,987 310,991 331,999 354,1012 L 381,999 492,748 772,1049 836,1024 860,1049 C 881,1039 901,1025 922,1006 886,937 835,863 770,784 769,783 710,716 594,584 L 774,223 C 774,196 753,168 711,139 L 727,119 C 717,90 699,76 672,76 641,76 570,178 457,381 L 164,-76 C 142,-110 111,-127 72,-127 30,-127 9,-110 8,-76 1,-67 -2,-52 -2,-32 -2,-23 -1,-13 0,-2 Z"/>
  </g>
  <g id="bullet-char-template(10004)" transform="scale(0.00048828125,-0.00048828125)">
   <path d="M 285,-33 C 182,-33 111,30 74,156 52,228 41,333 41,471 41,549 55,616 82,672 116,743 169,778 240,778 293,778 328,747 346,684 L 369,508 C 377,444 397,411 428,410 L 1163,1116 C 1174,1127 1196,1133 1229,1133 1271,1133 1292,1118 1292,1087 L 1292,965 C 1292,929 1282,901 1262,881 L 442,47 C 390,-6 338,-33 285,-33 Z"/>
  </g>
  <g id="bullet-char-template(9679)" transform="scale(0.00048828125,-0.00048828125)">
   <path d="M 813,0 C 632,0 489,54 383,161 276,268 223,411 223,592 223,773 276,916 383,1023 489,1130 632,1184 813,1184 992,1184 1136,1130 1245,1023 1353,916 1407,772 1407,592 1407,412 1353,268 1245,161 1136,54 992,0 813,0 Z"/>
  </g>
  <g id="bullet-char-template(8226)" transform="scale(0.00048828125,-0.00048828125)">
   <path d="M 346,457 C 273,457 209,483 155,535 101,586 74,649 74,723 74,796 101,859 155,911 209,963 273,989 346,989 419,989 480,963 531,910 582,859 608,796 608,723 608,648 583,586 532,535 482,483 420,457 346,457 Z"/>
  </g>
  <g id="bullet-char-template(8211)" transform="scale(0.00048828125,-0.00048828125)">
   <path d="M -4,459 L 1135,459 1135,606 -4,606 -4,459 Z"/>
  </g>
 </defs>
 <defs class="TextEmbeddedBitmaps"/>
 <g class="SlideGroup">
  <g>
   <g id="id1" class="Slide" clip-path="url(#presentation_clip_path)">
    <g class="Page">
     <g class="Group">
      <g class="com.sun.star.drawing.ClosedBezierShape">
       <g id="id3">
        <rect class="BoundingBox" stroke="none" fill="none" x="14057" y="25073" width="989" height="563"/>
        <path fill="rgb(221,221,221)" stroke="none" d="M 14058,25634 C 14450,25634 14907,25634 15028,25494 15149,25354 14543,25074 14300,25074 14300,25074 14056,25634 14058,25634 Z"/>
        <path fill="none" stroke="rgb(221,221,221)" d="M 14058,25634 C 14450,25634 14907,25634 15028,25494 15149,25354 14543,25074 14300,25074 14300,25074 14056,25634 14058,25634 Z"/>
       </g>
      </g>
      <g class="Group">
       <g class="com.sun.star.drawing.PolyPolygonShape">
        <g id="id4">
         <rect class="BoundingBox" stroke="none" fill="none" x="9188" y="13854" width="4891" height="7321"/>
         <g>
          <defs>
           <linearGradient id="gradient1" x1="9207" y1="17514" x2="14059" y2="17514" gradientUnits="userSpaceOnUse">
            <stop offset="0.1" style="stop-color:rgb(51,51,51)"/>
            <stop offset="1" style="stop-color:rgb(153,153,153)"/>
           </linearGradient>
          </defs>
          <path style="fill:url(#gradient1)" d="M 9208,18354 L 9208,13874 14058,16674 14054,21154 9208,18354 Z"/>
         </g>
         <path fill="none" stroke="rgb(178,178,178)" stroke-width="40" stroke-linejoin="round" d="M 9208,18354 L 9208,13874 14058,16674 14054,21154 9208,18354 Z"/>
        </g>
       </g>
       <g class="com.sun.star.drawing.PolyPolygonShape">
        <g id="id5">
         <rect class="BoundingBox" stroke="none" fill="none" x="9309" y="14063" width="4648" height="6902"/>
         <g>
          <defs>
           <linearGradient id="gradient2" x1="9328" y1="17514" x2="13936" y2="17514" gradientUnits="userSpaceOnUse">
            <stop offset="0.1" style="stop-color:rgb(147,212,240)"/>
            <stop offset="1" style="stop-color:rgb(233,246,252)"/>
           </linearGradient>
          </defs>
          <path style="fill:url(#gradient2)" d="M 9329,18284 L 9329,14084 13936,16744 13936,20944 9329,18284 Z"/>
         </g>
         <path fill="none" stroke="rgb(102,102,102)" stroke-width="40" stroke-linejoin="round" d="M 9329,18284 L 9329,14084 13936,16744 13936,20944 9329,18284 Z"/>
        </g>
       </g>
       <g class="com.sun.star.drawing.PolyPolygonShape">
        <g id="id6">
         <rect class="BoundingBox" stroke="none" fill="none" x="9188" y="13713" width="5134" height="2982"/>
         <g>
          <defs>
           <linearGradient id="gradient3" x1="11754" y1="13734" x2="11754" y2="16674" gradientUnits="userSpaceOnUse">
            <stop offset="0.1" style="stop-color:rgb(51,51,51)"/>
            <stop offset="1" style="stop-color:rgb(153,153,153)"/>
           </linearGradient>
          </defs>
          <path style="fill:url(#gradient3)" d="M 14058,16674 L 9208,13874 9450,13734 14300,16534 14058,16674 Z"/>
         </g>
         <path fill="none" stroke="rgb(178,178,178)" stroke-width="40" stroke-linejoin="round" d="M 14058,16674 L 9208,13874 9450,13734 14300,16534 14058,16674 Z"/>
        </g>
       </g>
       <g class="com.sun.star.drawing.PolyPolygonShape">
        <g id="id7">
         <rect class="BoundingBox" stroke="none" fill="none" x="14038" y="16514" width="283" height="4661"/>
         <g>
          <defs>
           <pattern id="pattern1" x="14058" y="16534" width="243" height="4621" patternUnits="userSpaceOnUse">
            <g transform="translate(-14058,-16534)">
             <path fill="rgb(51,51,51)" stroke="none" d="M 14057,16533 L 14301,16533 14301,21155 14057,21155 14057,16533 Z M 14010,15631 L 14250,15631 14250,20207 14010,20207 14010,15631 Z"/>
             <path fill="rgb(52,52,52)" stroke="none" d="M 14010,15631 L 14250,15631 14250,20207 14010,20207 14010,15631 Z M 14011,15654 L 14249,15654 14249,20184 14011,20184 14011,15654 Z"/>
             <path fill="rgb(53,53,53)" stroke="none" d="M 14011,15654 L 14249,15654 14249,20184 14011,20184 14011,15654 Z M 14012,15676 L 14248,15676 14248,20162 14012,20162 14012,15676 Z"/>
             <path fill="rgb(54,54,54)" stroke="none" d="M 14012,15676 L 14248,15676 14248,20162 14012,20162 14012,15676 Z M 14013,15699 L 14247,15699 14247,20139 14013,20139 14013,15699 Z"/>
             <path fill="rgb(55,55,55)" stroke="none" d="M 14013,15699 L 14247,15699 14247,20139 14013,20139 14013,15699 Z M 14015,15722 L 14245,15722 14245,20116 14015,20116 14015,15722 Z"/>
             <path fill="rgb(56,56,56)" stroke="none" d="M 14015,15722 L 14245,15722 14245,20116 14015,20116 14015,15722 Z M 14016,15744 L 14244,15744 14244,20094 14016,20094 14016,15744 Z"/>
             <path fill="rgb(57,57,57)" stroke="none" d="M 14016,15744 L 14244,15744 14244,20094 14016,20094 14016,15744 Z M 14017,15767 L 14243,15767 14243,20071 14017,20071 14017,15767 Z"/>
             <path fill="rgb(58,58,58)" stroke="none" d="M 14017,15767 L 14243,15767 14243,20071 14017,20071 14017,15767 Z M 14018,15790 L 14242,15790 14242,20048 14018,20048 14018,15790 Z"/>
             <path fill="rgb(59,59,59)" stroke="none" d="M 14018,15790 L 14242,15790 14242,20048 14018,20048 14018,15790 Z M 14019,15812 L 14241,15812 14241,20026 14019,20026 14019,15812 Z"/>
             <path fill="rgb(60,60,60)" stroke="none" d="M 14019,15812 L 14241,15812 14241,20026 14019,20026 14019,15812 Z M 14021,15835 L 14239,15835 14239,20003 14021,20003 14021,15835 Z"/>
             <path fill="rgb(61,61,61)" stroke="none" d="M 14021,15835 L 14239,15835 14239,20003 14021,20003 14021,15835 Z M 14022,15858 L 14238,15858 14238,19980 14022,19980 14022,15858 Z"/>
             <path fill="rgb(62,62,62)" stroke="none" d="M 14022,15858 L 14238,15858 14238,19980 14022,19980 14022,15858 Z M 14023,15880 L 14237,15880 14237,19958 14023,19958 14023,15880 Z"/>
             <path fill="rgb(63,63,63)" stroke="none" d="M 14023,15880 L 14237,15880 14237,19958 14023,19958 14023,15880 Z M 14024,15903 L 14236,15903 14236,19935 14024,19935 14024,15903 Z"/>
             <path fill="rgb(64,64,64)" stroke="none" d="M 14024,15903 L 14236,15903 14236,19935 14024,19935 14024,15903 Z M 14025,15926 L 14235,15926 14235,19912 14025,19912 14025,15926 Z"/>
             <path fill="rgb(65,65,65)" stroke="none" d="M 14025,15926 L 14235,15926 14235,19912 14025,19912 14025,15926 Z M 14027,15948 L 14233,15948 14233,19890 14027,19890 14027,15948 Z"/>
             <path fill="rgb(66,66,66)" stroke="none" d="M 14027,15948 L 14233,15948 14233,19890 14027,19890 14027,15948 Z M 14028,15971 L 14232,15971 14232,19867 14028,19867 14028,15971 Z"/>
             <path fill="rgb(67,67,67)" stroke="none" d="M 14028,15971 L 14232,15971 14232,19867 14028,19867 14028,15971 Z M 14029,15994 L 14231,15994 14231,19844 14029,19844 14029,15994 Z"/>
             <path fill="rgb(68,68,68)" stroke="none" d="M 14029,15994 L 14231,15994 14231,19844 14029,19844 14029,15994 Z M 14030,16016 L 14230,16016 14230,19822 14030,19822 14030,16016 Z"/>
             <path fill="rgb(69,69,69)" stroke="none" d="M 14030,16016 L 14230,16016 14230,19822 14030,19822 14030,16016 Z M 14031,16039 L 14229,16039 14229,19799 14031,19799 14031,16039 Z"/>
             <path fill="rgb(70,70,70)" stroke="none" d="M 14031,16039 L 14229,16039 14229,19799 14031,19799 14031,16039 Z M 14033,16062 L 14227,16062 14227,19776 14033,19776 14033,16062 Z"/>
             <path fill="rgb(71,71,71)" stroke="none" d="M 14033,16062 L 14227,16062 14227,19776 14033,19776 14033,16062 Z M 14034,16084 L 14226,16084 14226,19754 14034,19754 14034,16084 Z"/>
             <path fill="rgb(72,72,72)" stroke="none" d="M 14034,16084 L 14226,16084 14226,19754 14034,19754 14034,16084 Z M 14035,16107 L 14225,16107 14225,19731 14035,19731 14035,16107 Z"/>
             <path fill="rgb(73,73,73)" stroke="none" d="M 14035,16107 L 14225,16107 14225,19731 14035,19731 14035,16107 Z M 14036,16130 L 14224,16130 14224,19708 14036,19708 14036,16130 Z"/>
             <path fill="rgb(74,74,74)" stroke="none" d="M 14036,16130 L 14224,16130 14224,19708 14036,19708 14036,16130 Z M 14037,16152 L 14223,16152 14223,19686 14037,19686 14037,16152 Z"/>
             <path fill="rgb(75,75,75)" stroke="none" d="M 14037,16152 L 14223,16152 14223,19686 14037,19686 14037,16152 Z M 14038,16175 L 14221,16175 14221,19663 14038,19663 14038,16175 Z"/>
             <path fill="rgb(76,76,76)" stroke="none" d="M 14038,16175 L 14221,16175 14221,19663 14038,19663 14038,16175 Z M 14039,16198 L 14220,16198 14220,19640 14039,19640 14039,16198 Z"/>
             <path fill="rgb(77,77,77)" stroke="none" d="M 14039,16198 L 14220,16198 14220,19640 14039,19640 14039,16198 Z M 14040,16220 L 14219,16220 14219,19618 14040,19618 14040,16220 Z"/>
             <path fill="rgb(78,78,78)" stroke="none" d="M 14040,16220 L 14219,16220 14219,19618 14040,19618 14040,16220 Z M 14041,16243 L 14218,16243 14218,19595 14041,19595 14041,16243 Z"/>
             <path fill="rgb(79,79,79)" stroke="none" d="M 14041,16243 L 14218,16243 14218,19595 14041,19595 14041,16243 Z M 14042,16266 L 14217,16266 14217,19572 14042,19572 14042,16266 Z"/>
             <path fill="rgb(80,80,80)" stroke="none" d="M 14042,16266 L 14217,16266 14217,19572 14042,19572 14042,16266 Z M 14044,16288 L 14215,16288 14215,19550 14044,19550 14044,16288 Z"/>
             <path fill="rgb(81,81,81)" stroke="none" d="M 14044,16288 L 14215,16288 14215,19550 14044,19550 14044,16288 Z M 14045,16311 L 14214,16311 14214,19527 14045,19527 14045,16311 Z"/>
             <path fill="rgb(82,82,82)" stroke="none" d="M 14045,16311 L 14214,16311 14214,19527 14045,19527 14045,16311 Z M 14046,16334 L 14213,16334 14213,19504 14046,19504 14046,16334 Z"/>
             <path fill="rgb(83,83,83)" stroke="none" d="M 14046,16334 L 14213,16334 14213,19504 14046,19504 14046,16334 Z M 14047,16356 L 14212,16356 14212,19482 14047,19482 14047,16356 Z"/>
             <path fill="rgb(84,84,84)" stroke="none" d="M 14047,16356 L 14212,16356 14212,19482 14047,19482 14047,16356 Z M 14048,16379 L 14211,16379 14211,19459 14048,19459 14048,16379 Z"/>
             <path fill="rgb(85,85,85)" stroke="none" d="M 14048,16379 L 14211,16379 14211,19459 14048,19459 14048,16379 Z M 14050,16402 L 14209,16402 14209,19436 14050,19436 14050,16402 Z"/>
             <path fill="rgb(86,86,86)" stroke="none" d="M 14050,16402 L 14209,16402 14209,19436 14050,19436 14050,16402 Z M 14051,16424 L 14208,16424 14208,19414 14051,19414 14051,16424 Z"/>
             <path fill="rgb(87,87,87)" stroke="none" d="M 14051,16424 L 14208,16424 14208,19414 14051,19414 14051,16424 Z M 14052,16447 L 14207,16447 14207,19391 14052,19391 14052,16447 Z"/>
             <path fill="rgb(88,88,88)" stroke="none" d="M 14052,16447 L 14207,16447 14207,19391 14052,19391 14052,16447 Z M 14053,16470 L 14206,16470 14206,19368 14053,19368 14053,16470 Z"/>
             <path fill="rgb(89,89,89)" stroke="none" d="M 14053,16470 L 14206,16470 14206,19368 14053,19368 14053,16470 Z M 14054,16492 L 14205,16492 14205,19346 14054,19346 14054,16492 Z"/>
             <path fill="rgb(90,90,90)" stroke="none" d="M 14054,16492 L 14205,16492 14205,19346 14054,19346 14054,16492 Z M 14056,16514 L 14203,16514 14203,19323 14056,19323 14056,16514 Z"/>
             <path fill="rgb(91,91,91)" stroke="none" d="M 14056,16514 L 14203,16514 14203,19323 14056,19323 14056,16514 Z M 14057,16537 L 14202,16537 14202,19300 14057,19300 14057,16537 Z"/>
             <path fill="rgb(92,92,92)" stroke="none" d="M 14057,16537 L 14202,16537 14202,19300 14057,19300 14057,16537 Z M 14058,16559 L 14201,16559 14201,19278 14058,19278 14058,16559 Z"/>
             <path fill="rgb(93,93,93)" stroke="none" d="M 14058,16559 L 14201,16559 14201,19278 14058,19278 14058,16559 Z M 14059,16582 L 14200,16582 14200,19255 14059,19255 14059,16582 Z"/>
             <path fill="rgb(94,94,94)" stroke="none" d="M 14059,16582 L 14200,16582 14200,19255 14059,19255 14059,16582 Z M 14060,16605 L 14199,16605 14199,19232 14060,19232 14060,16605 Z"/>
             <path fill="rgb(95,95,95)" stroke="none" d="M 14060,16605 L 14199,16605 14199,19232 14060,19232 14060,16605 Z M 14062,16627 L 14197,16627 14197,19210 14062,19210 14062,16627 Z"/>
             <path fill="rgb(96,96,96)" stroke="none" d="M 14062,16627 L 14197,16627 14197,19210 14062,19210 14062,16627 Z M 14063,16650 L 14196,16650 14196,19187 14063,19187 14063,16650 Z"/>
             <path fill="rgb(97,97,97)" stroke="none" d="M 14063,16650 L 14196,16650 14196,19187 14063,19187 14063,16650 Z M 14064,16673 L 14195,16673 14195,19164 14064,19164 14064,16673 Z"/>
             <path fill="rgb(98,98,98)" stroke="none" d="M 14064,16673 L 14195,16673 14195,19164 14064,19164 14064,16673 Z M 14065,16695 L 14194,16695 14194,19142 14065,19142 14065,16695 Z"/>
             <path fill="rgb(99,99,99)" stroke="none" d="M 14065,16695 L 14194,16695 14194,19142 14065,19142 14065,16695 Z M 14066,16718 L 14193,16718 14193,19119 14066,19119 14066,16718 Z"/>
             <path fill="rgb(100,100,100)" stroke="none" d="M 14066,16718 L 14193,16718 14193,19119 14066,19119 14066,16718 Z M 14068,16741 L 14191,16741 14191,19096 14068,19096 14068,16741 Z"/>
             <path fill="rgb(101,101,101)" stroke="none" d="M 14068,16741 L 14191,16741 14191,19096 14068,19096 14068,16741 Z M 14069,16763 L 14190,16763 14190,19074 14069,19074 14069,16763 Z"/>
             <path fill="rgb(102,102,102)" stroke="none" d="M 14069,16763 L 14190,16763 14190,19074 14069,19074 14069,16763 Z M 14070,16786 L 14189,16786 14189,19051 14070,19051 14070,16786 Z"/>
             <path fill="rgb(103,103,103)" stroke="none" d="M 14070,16786 L 14189,16786 14189,19051 14070,19051 14070,16786 Z M 14071,16809 L 14188,16809 14188,19028 14071,19028 14071,16809 Z"/>
             <path fill="rgb(104,104,104)" stroke="none" d="M 14071,16809 L 14188,16809 14188,19028 14071,19028 14071,16809 Z M 14072,16831 L 14187,16831 14187,19006 14072,19006 14072,16831 Z"/>
             <path fill="rgb(105,105,105)" stroke="none" d="M 14072,16831 L 14187,16831 14187,19006 14072,19006 14072,16831 Z M 14074,16854 L 14185,16854 14185,18983 14074,18983 14074,16854 Z"/>
             <path fill="rgb(106,106,106)" stroke="none" d="M 14074,16854 L 14185,16854 14185,18983 14074,18983 14074,16854 Z M 14075,16877 L 14184,16877 14184,18960 14075,18960 14075,16877 Z"/>
             <path fill="rgb(107,107,107)" stroke="none" d="M 14075,16877 L 14184,16877 14184,18960 14075,18960 14075,16877 Z M 14076,16899 L 14183,16899 14183,18938 14076,18938 14076,16899 Z"/>
             <path fill="rgb(108,108,108)" stroke="none" d="M 14076,16899 L 14183,16899 14183,18938 14076,18938 14076,16899 Z M 14077,16922 L 14182,16922 14182,18915 14077,18915 14077,16922 Z"/>
             <path fill="rgb(109,109,109)" stroke="none" d="M 14077,16922 L 14182,16922 14182,18915 14077,18915 14077,16922 Z M 14078,16945 L 14181,16945 14181,18892 14078,18892 14078,16945 Z"/>
             <path fill="rgb(110,110,110)" stroke="none" d="M 14078,16945 L 14181,16945 14181,18892 14078,18892 14078,16945 Z M 14080,16967 L 14179,16967 14179,18870 14080,18870 14080,16967 Z"/>
             <path fill="rgb(111,111,111)" stroke="none" d="M 14080,16967 L 14179,16967 14179,18870 14080,18870 14080,16967 Z M 14081,16990 L 14178,16990 14178,18847 14081,18847 14081,16990 Z"/>
             <path fill="rgb(112,112,112)" stroke="none" d="M 14081,16990 L 14178,16990 14178,18847 14081,18847 14081,16990 Z M 14082,17013 L 14177,17013 14177,18824 14082,18824 14082,17013 Z"/>
             <path fill="rgb(113,113,113)" stroke="none" d="M 14082,17013 L 14177,17013 14177,18824 14082,18824 14082,17013 Z M 14083,17035 L 14176,17035 14176,18802 14083,18802 14083,17035 Z"/>
             <path fill="rgb(114,114,114)" stroke="none" d="M 14083,17035 L 14176,17035 14176,18802 14083,18802 14083,17035 Z M 14084,17058 L 14175,17058 14175,18779 14084,18779 14084,17058 Z"/>
             <path fill="rgb(115,115,115)" stroke="none" d="M 14084,17058 L 14175,17058 14175,18779 14084,18779 14084,17058 Z M 14086,17081 L 14173,17081 14173,18756 14086,18756 14086,17081 Z"/>
             <path fill="rgb(116,116,116)" stroke="none" d="M 14086,17081 L 14173,17081 14173,18756 14086,18756 14086,17081 Z M 14087,17103 L 14172,17103 14172,18734 14087,18734 14087,17103 Z"/>
             <path fill="rgb(117,117,117)" stroke="none" d="M 14087,17103 L 14172,17103 14172,18734 14087,18734 14087,17103 Z M 14088,17126 L 14171,17126 14171,18711 14088,18711 14088,17126 Z"/>
             <path fill="rgb(118,118,118)" stroke="none" d="M 14088,17126 L 14171,17126 14171,18711 14088,18711 14088,17126 Z M 14089,17148 L 14170,17148 14170,18688 14089,18688 14089,17148 Z"/>
             <path fill="rgb(119,119,119)" stroke="none" d="M 14089,17148 L 14170,17148 14170,18688 14089,18688 14089,17148 Z M 14090,17171 L 14169,17171 14169,18666 14090,18666 14090,17171 Z"/>
             <path fill="rgb(120,120,120)" stroke="none" d="M 14090,17171 L 14169,17171 14169,18666 14090,18666 14090,17171 Z M 14092,17194 L 14167,17194 14167,18643 14092,18643 14092,17194 Z"/>
             <path fill="rgb(121,121,121)" stroke="none" d="M 14092,17194 L 14167,17194 14167,18643 14092,18643 14092,17194 Z M 14093,17216 L 14166,17216 14166,18621 14093,18621 14093,17216 Z"/>
             <path fill="rgb(122,122,122)" stroke="none" d="M 14093,17216 L 14166,17216 14166,18621 14093,18621 14093,17216 Z M 14094,17239 L 14165,17239 14165,18598 14094,18598 14094,17239 Z"/>
             <path fill="rgb(123,123,123)" stroke="none" d="M 14094,17239 L 14165,17239 14165,18598 14094,18598 14094,17239 Z M 14095,17262 L 14164,17262 14164,18575 14095,18575 14095,17262 Z"/>
             <path fill="rgb(124,124,124)" stroke="none" d="M 14095,17262 L 14164,17262 14164,18575 14095,18575 14095,17262 Z M 14096,17284 L 14163,17284 14163,18553 14096,18553 14096,17284 Z"/>
             <path fill="rgb(125,125,125)" stroke="none" d="M 14096,17284 L 14163,17284 14163,18553 14096,18553 14096,17284 Z M 14098,17307 L 14161,17307 14161,18530 14098,18530 14098,17307 Z"/>
             <path fill="rgb(126,126,126)" stroke="none" d="M 14098,17307 L 14161,17307 14161,18530 14098,18530 14098,17307 Z M 14099,17330 L 14160,17330 14160,18507 14099,18507 14099,17330 Z"/>
             <path fill="rgb(127,127,127)" stroke="none" d="M 14099,17330 L 14160,17330 14160,18507 14099,18507 14099,17330 Z M 14100,17352 L 14159,17352 14159,18485 14100,18485 14100,17352 Z"/>
             <path fill="rgb(128,128,128)" stroke="none" d="M 14100,17352 L 14159,17352 14159,18485 14100,18485 14100,17352 Z M 14101,17375 L 14158,17375 14158,18462 14101,18462 14101,17375 Z"/>
             <path fill="rgb(129,129,129)" stroke="none" d="M 14101,17375 L 14158,17375 14158,18462 14101,18462 14101,17375 Z M 14102,17398 L 14157,17398 14157,18439 14102,18439 14102,17398 Z"/>
             <path fill="rgb(130,130,130)" stroke="none" d="M 14102,17398 L 14157,17398 14157,18439 14102,18439 14102,17398 Z M 14104,17420 L 14155,17420 14155,18417 14104,18417 14104,17420 Z"/>
             <path fill="rgb(131,131,131)" stroke="none" d="M 14104,17420 L 14155,17420 14155,18417 14104,18417 14104,17420 Z M 14105,17443 L 14154,17443 14154,18394 14105,18394 14105,17443 Z"/>
             <path fill="rgb(132,132,132)" stroke="none" d="M 14105,17443 L 14154,17443 14154,18394 14105,18394 14105,17443 Z M 14106,17466 L 14153,17466 14153,18371 14106,18371 14106,17466 Z"/>
             <path fill="rgb(133,133,133)" stroke="none" d="M 14106,17466 L 14153,17466 14153,18371 14106,18371 14106,17466 Z M 14107,17488 L 14152,17488 14152,18349 14107,18349 14107,17488 Z"/>
             <path fill="rgb(134,134,134)" stroke="none" d="M 14107,17488 L 14152,17488 14152,18349 14107,18349 14107,17488 Z M 14108,17511 L 14151,17511 14151,18326 14108,18326 14108,17511 Z"/>
             <path fill="rgb(135,135,135)" stroke="none" d="M 14108,17511 L 14151,17511 14151,18326 14108,18326 14108,17511 Z M 14110,17534 L 14149,17534 14149,18303 14110,18303 14110,17534 Z"/>
             <path fill="rgb(136,136,136)" stroke="none" d="M 14110,17534 L 14149,17534 14149,18303 14110,18303 14110,17534 Z M 14111,17556 L 14148,17556 14148,18281 14111,18281 14111,17556 Z"/>
             <path fill="rgb(137,137,137)" stroke="none" d="M 14111,17556 L 14148,17556 14148,18281 14111,18281 14111,17556 Z M 14112,17579 L 14147,17579 14147,18258 14112,18258 14112,17579 Z"/>
             <path fill="rgb(138,138,138)" stroke="none" d="M 14112,17579 L 14147,17579 14147,18258 14112,18258 14112,17579 Z M 14113,17602 L 14146,17602 14146,18235 14113,18235 14113,17602 Z"/>
             <path fill="rgb(139,139,139)" stroke="none" d="M 14113,17602 L 14146,17602 14146,18235 14113,18235 14113,17602 Z M 14114,17624 L 14145,17624 14145,18213 14114,18213 14114,17624 Z"/>
             <path fill="rgb(140,140,140)" stroke="none" d="M 14114,17624 L 14145,17624 14145,18213 14114,18213 14114,17624 Z M 14116,17647 L 14143,17647 14143,18190 14116,18190 14116,17647 Z"/>
             <path fill="rgb(141,141,141)" stroke="none" d="M 14116,17647 L 14143,17647 14143,18190 14116,18190 14116,17647 Z M 14117,17670 L 14142,17670 14142,18167 14117,18167 14117,17670 Z"/>
             <path fill="rgb(142,142,142)" stroke="none" d="M 14117,17670 L 14142,17670 14142,18167 14117,18167 14117,17670 Z M 14118,17692 L 14141,17692 14141,18145 14118,18145 14118,17692 Z"/>
             <path fill="rgb(143,143,143)" stroke="none" d="M 14118,17692 L 14141,17692 14141,18145 14118,18145 14118,17692 Z M 14119,17715 L 14140,17715 14140,18122 14119,18122 14119,17715 Z"/>
             <path fill="rgb(144,144,144)" stroke="none" d="M 14119,17715 L 14140,17715 14140,18122 14119,18122 14119,17715 Z M 14120,17738 L 14139,17738 14139,18099 14120,18099 14120,17738 Z"/>
             <path fill="rgb(145,145,145)" stroke="none" d="M 14120,17738 L 14139,17738 14139,18099 14120,18099 14120,17738 Z M 14122,17760 L 14137,17760 14137,18077 14122,18077 14122,17760 Z"/>
             <path fill="rgb(146,146,146)" stroke="none" d="M 14122,17760 L 14137,17760 14137,18077 14122,18077 14122,17760 Z M 14123,17783 L 14136,17783 14136,18054 14123,18054 14123,17783 Z"/>
             <path fill="rgb(147,147,147)" stroke="none" d="M 14123,17783 L 14136,17783 14136,18054 14123,18054 14123,17783 Z M 14124,17806 L 14135,17806 14135,18031 14124,18031 14124,17806 Z"/>
             <path fill="rgb(148,148,148)" stroke="none" d="M 14124,17806 L 14135,17806 14135,18031 14124,18031 14124,17806 Z M 14125,17828 L 14134,17828 14134,18009 14125,18009 14125,17828 Z"/>
             <path fill="rgb(149,149,149)" stroke="none" d="M 14125,17828 L 14134,17828 14134,18009 14125,18009 14125,17828 Z M 14126,17851 L 14133,17851 14133,17986 14126,17986 14126,17851 Z"/>
             <path fill="rgb(150,150,150)" stroke="none" d="M 14126,17851 L 14133,17851 14133,17986 14126,17986 14126,17851 Z M 14128,17874 L 14131,17874 14131,17963 14128,17963 14128,17874 Z"/>
             <path fill="rgb(151,151,151)" stroke="none" d="M 14128,17874 L 14131,17874 14131,17963 14128,17963 14128,17874 Z M 14129,17896 L 14130,17896 14130,17941 14129,17941 14129,17896 Z"/>
             <path fill="rgb(153,153,153)" stroke="none" d="M 14129,17896 L 14130,17896 14130,17941 14129,17941 14129,17896 Z"/>
            </g>
           </pattern>
          </defs>
          <path style="fill:url(#pattern1)" d="M 14058,21154 L 14058,16674 14300,16534 14300,21014 14058,21154 Z"/>
         </g>
         <path fill="none" stroke="rgb(178,178,178)" stroke-width="40" stroke-linejoin="round" d="M 14058,21154 L 14058,16674 14300,16534 14300,21014 14058,21154 Z"/>
        </g>
       </g>
       <g class="com.sun.star.drawing.PolyPolygonShape">
        <g id="id8">
         <rect class="BoundingBox" stroke="none" fill="none" x="4338" y="11054" width="4891" height="7321"/>
         <g>
          <defs>
           <linearGradient id="gradient4" x1="4357" y1="14714" x2="9209" y2="14714" gradientUnits="userSpaceOnUse">
            <stop offset="0.1" style="stop-color:rgb(51,51,51)"/>
            <stop offset="1" style="stop-color:rgb(153,153,153)"/>
           </linearGradient>
          </defs>
          <path style="fill:url(#gradient4)" d="M 4358,15554 L 4358,11074 9208,13874 9204,18354 4358,15554 Z"/>
         </g>
         <path fill="none" stroke="rgb(178,178,178)" stroke-width="40" stroke-linejoin="round" d="M 4358,15554 L 4358,11074 9208,13874 9204,18354 4358,15554 Z"/>
        </g>
       </g>
       <g class="com.sun.star.drawing.PolyPolygonShape">
        <g id="id9">
         <rect class="BoundingBox" stroke="none" fill="none" x="4459" y="11264" width="4648" height="6901"/>
         <g>
          <defs>
           <linearGradient id="gradient5" x1="4478" y1="14714" x2="9086" y2="14714" gradientUnits="userSpaceOnUse">
            <stop offset="0.1" style="stop-color:rgb(147,212,240)"/>
            <stop offset="1" style="stop-color:rgb(233,246,252)"/>
           </linearGradient>
          </defs>
          <path style="fill:url(#gradient5)" d="M 4479,15484 L 4479,11284 9086,13944 9086,18144 4479,15484 Z"/>
         </g>
         <path fill="none" stroke="rgb(102,102,102)" stroke-width="40" stroke-linejoin="round" d="M 4479,15484 L 4479,11284 9086,13944 9086,18144 4479,15484 Z"/>
        </g>
       </g>
       <g class="com.sun.star.drawing.PolyPolygonShape">
        <g id="id10">
         <rect class="BoundingBox" stroke="none" fill="none" x="4338" y="10913" width="5133" height="2982"/>
         <g>
          <defs>
           <linearGradient id="gradient6" x1="6904" y1="10934" x2="6904" y2="13874" gradientUnits="userSpaceOnUse">
            <stop offset="0.1" style="stop-color:rgb(51,51,51)"/>
            <stop offset="1" style="stop-color:rgb(153,153,153)"/>
           </linearGradient>
          </defs>
          <path style="fill:url(#gradient6)" d="M 9208,13874 L 4358,11074 4600,10934 9450,13734 9208,13874 Z"/>
         </g>
         <path fill="none" stroke="rgb(178,178,178)" stroke-width="40" stroke-linejoin="round" d="M 9208,13874 L 4358,11074 4600,10934 9450,13734 9208,13874 Z"/>
        </g>
       </g>
       <g class="com.sun.star.drawing.PolyPolygonShape">
        <g id="id11">
         <rect class="BoundingBox" stroke="none" fill="none" x="-512" y="8254" width="4891" height="7321"/>
         <g>
          <defs>
           <linearGradient id="gradient7" x1="-493" y1="11914" x2="4359" y2="11914" gradientUnits="userSpaceOnUse">
            <stop offset="0.1" style="stop-color:rgb(51,51,51)"/>
            <stop offset="1" style="stop-color:rgb(153,153,153)"/>
           </linearGradient>
          </defs>
          <path style="fill:url(#gradient7)" d="M -492,12754 L -492,8274 4358,11074 4354,15554 -492,12754 Z"/>
         </g>
         <path fill="none" stroke="rgb(178,178,178)" stroke-width="40" stroke-linejoin="round" d="M -492,12754 L -492,8274 4358,11074 4354,15554 -492,12754 Z"/>
        </g>
       </g>
       <g class="com.sun.star.drawing.PolyPolygonShape">
        <g id="id12">
         <rect class="BoundingBox" stroke="none" fill="none" x="-391" y="8464" width="4648" height="6902"/>
         <g>
          <defs>
           <linearGradient id="gradient8" x1="-372" y1="11914" x2="4236" y2="11914" gradientUnits="userSpaceOnUse">
            <stop offset="0.1" style="stop-color:rgb(147,212,240)"/>
            <stop offset="1" style="stop-color:rgb(233,246,252)"/>
           </linearGradient>
          </defs>
          <path style="fill:url(#gradient8)" d="M -371,12684 L -371,8484 4236,11144 4236,15344 -371,12684 Z"/>
         </g>
         <path fill="none" stroke="rgb(102,102,102)" stroke-width="40" stroke-linejoin="round" d="M -371,12684 L -371,8484 4236,11144 4236,15344 -371,12684 Z"/>
        </g>
       </g>
       <g class="com.sun.star.drawing.PolyPolygonShape">
        <g id="id13">
         <rect class="BoundingBox" stroke="none" fill="none" x="-512" y="8114" width="5133" height="2981"/>
         <g>
          <defs>
           <linearGradient id="gradient9" x1="2054" y1="8134" x2="2054" y2="11074" gradientUnits="userSpaceOnUse">
            <stop offset="0.1" style="stop-color:rgb(51,51,51)"/>
            <stop offset="1" style="stop-color:rgb(153,153,153)"/>
           </linearGradient>
          </defs>
          <path style="fill:url(#gradient9)" d="M 4358,11074 L -492,8274 -250,8134 4600,10934 4358,11074 Z"/>
         </g>
         <path fill="none" stroke="rgb(178,178,178)" stroke-width="40" stroke-linejoin="round" d="M 4358,11074 L -492,8274 -250,8134 4600,10934 4358,11074 Z"/>
        </g>
       </g>
       <g class="com.sun.star.drawing.PolyPolygonShape">
        <g id="id14">
         <rect class="BoundingBox" stroke="none" fill="none" x="-512" y="12734" width="4891" height="7321"/>
         <g>
          <defs>
           <linearGradient id="gradient10" x1="-493" y1="16394" x2="4359" y2="16394" gradientUnits="userSpaceOnUse">
            <stop offset="0.1" style="stop-color:rgb(51,51,51)"/>
            <stop offset="1" style="stop-color:rgb(153,153,153)"/>
           </linearGradient>
          </defs>
          <path style="fill:url(#gradient10)" d="M -492,17234 L -492,12754 4358,15554 4354,20034 -492,17234 Z"/>
         </g>
         <path fill="none" stroke="rgb(178,178,178)" stroke-width="40" stroke-linejoin="round" d="M -492,17234 L -492,12754 4358,15554 4354,20034 -492,17234 Z"/>
        </g>
       </g>
       <g class="com.sun.star.drawing.PolyPolygonShape">
        <g id="id15">
         <rect class="BoundingBox" stroke="none" fill="none" x="-391" y="12944" width="4648" height="6901"/>
         <g>
          <defs>
           <linearGradient id="gradient11" x1="-372" y1="16394" x2="4236" y2="16394" gradientUnits="userSpaceOnUse">
            <stop offset="0.1" style="stop-color:rgb(147,212,240)"/>
            <stop offset="1" style="stop-color:rgb(233,246,252)"/>
           </linearGradient>
          </defs>
          <path style="fill:url(#gradient11)" d="M -371,17164 L -371,12964 4236,15624 4236,19824 -371,17164 Z"/>
         </g>
         <path fill="none" stroke="rgb(102,102,102)" stroke-width="40" stroke-linejoin="round" d="M -371,17164 L -371,12964 4236,15624 4236,19824 -371,17164 Z"/>
        </g>
       </g>
       <g class="com.sun.star.drawing.PolyPolygonShape">
        <g id="id16">
         <rect class="BoundingBox" stroke="none" fill="none" x="4338" y="15534" width="4891" height="7321"/>
         <g>
          <defs>
           <linearGradient id="gradient12" x1="4357" y1="19194" x2="9209" y2="19194" gradientUnits="userSpaceOnUse">
            <stop offset="0.1" style="stop-color:rgb(51,51,51)"/>
            <stop offset="1" style="stop-color:rgb(153,153,153)"/>
           </linearGradient>
          </defs>
          <path style="fill:url(#gradient12)" d="M 4358,20034 L 4358,15554 9208,18354 9204,22834 4358,20034 Z"/>
         </g>
         <path fill="none" stroke="rgb(178,178,178)" stroke-width="40" stroke-linejoin="round" d="M 4358,20034 L 4358,15554 9208,18354 9204,22834 4358,20034 Z"/>
        </g>
       </g>
       <g class="com.sun.star.drawing.PolyPolygonShape">
        <g id="id17">
         <rect class="BoundingBox" stroke="none" fill="none" x="4459" y="15744" width="4648" height="6901"/>
         <g>
          <defs>
           <linearGradient id="gradient13" x1="4478" y1="19194" x2="9086" y2="19194" gradientUnits="userSpaceOnUse">
            <stop offset="0.1" style="stop-color:rgb(147,212,240)"/>
            <stop offset="1" style="stop-color:rgb(233,246,252)"/>
           </linearGradient>
          </defs>
          <path style="fill:url(#gradient13)" d="M 4479,19964 L 4479,15764 9086,18424 9086,22624 4479,19964 Z"/>
         </g>
         <path fill="none" stroke="rgb(102,102,102)" stroke-width="40" stroke-linejoin="round" d="M 4479,19964 L 4479,15764 9086,18424 9086,22624 4479,19964 Z"/>
        </g>
       </g>
       <g class="com.sun.star.drawing.PolyPolygonShape">
        <g id="id18">
         <rect class="BoundingBox" stroke="none" fill="none" x="9188" y="18334" width="4891" height="7321"/>
         <g>
          <defs>
           <linearGradient id="gradient14" x1="9207" y1="21994" x2="14059" y2="21994" gradientUnits="userSpaceOnUse">
            <stop offset="0.1" style="stop-color:rgb(51,51,51)"/>
            <stop offset="1" style="stop-color:rgb(153,153,153)"/>
           </linearGradient>
          </defs>
          <path style="fill:url(#gradient14)" d="M 9208,22834 L 9208,18354 14058,21154 14054,25634 9208,22834 Z"/>
         </g>
         <path fill="none" stroke="rgb(178,178,178)" stroke-width="40" stroke-linejoin="round" d="M 9208,22834 L 9208,18354 14058,21154 14054,25634 9208,22834 Z"/>
        </g>
       </g>
       <g class="com.sun.star.drawing.PolyPolygonShape">
        <g id="id19">
         <rect class="BoundingBox" stroke="none" fill="none" x="9309" y="18544" width="4648" height="6901"/>
         <g>
          <defs>
           <linearGradient id="gradient15" x1="9328" y1="21994" x2="13936" y2="21994" gradientUnits="userSpaceOnUse">
            <stop offset="0.1" style="stop-color:rgb(147,212,240)"/>
            <stop offset="1" style="stop-color:rgb(233,246,252)"/>
           </linearGradient>
          </defs>
          <path style="fill:url(#gradient15)" d="M 9329,22764 L 9329,18564 13936,21224 13936,25424 9329,22764 Z"/>
         </g>
         <path fill="none" stroke="rgb(102,102,102)" stroke-width="40" stroke-linejoin="round" d="M 9329,22764 L 9329,18564 13936,21224 13936,25424 9329,22764 Z"/>
        </g>
       </g>
       <g class="com.sun.star.drawing.PolyPolygonShape">
        <g id="id20">
         <rect class="BoundingBox" stroke="none" fill="none" x="14038" y="20994" width="283" height="4661"/>
         <g>
          <defs>
           <pattern id="pattern2" x="14058" y="21014" width="243" height="4621" patternUnits="userSpaceOnUse">
            <g transform="translate(-14058,-21014)">
             <path fill="rgb(51,51,51)" stroke="none" d="M 14057,21013 L 14301,21013 14301,25635 14057,25635 14057,21013 Z M 14010,20111 L 14250,20111 14250,24687 14010,24687 14010,20111 Z"/>
             <path fill="rgb(52,52,52)" stroke="none" d="M 14010,20111 L 14250,20111 14250,24687 14010,24687 14010,20111 Z M 14011,20134 L 14249,20134 14249,24664 14011,24664 14011,20134 Z"/>
             <path fill="rgb(53,53,53)" stroke="none" d="M 14011,20134 L 14249,20134 14249,24664 14011,24664 14011,20134 Z M 14012,20156 L 14248,20156 14248,24642 14012,24642 14012,20156 Z"/>
             <path fill="rgb(54,54,54)" stroke="none" d="M 14012,20156 L 14248,20156 14248,24642 14012,24642 14012,20156 Z M 14013,20179 L 14247,20179 14247,24619 14013,24619 14013,20179 Z"/>
             <path fill="rgb(55,55,55)" stroke="none" d="M 14013,20179 L 14247,20179 14247,24619 14013,24619 14013,20179 Z M 14015,20202 L 14245,20202 14245,24596 14015,24596 14015,20202 Z"/>
             <path fill="rgb(56,56,56)" stroke="none" d="M 14015,20202 L 14245,20202 14245,24596 14015,24596 14015,20202 Z M 14016,20224 L 14244,20224 14244,24574 14016,24574 14016,20224 Z"/>
             <path fill="rgb(57,57,57)" stroke="none" d="M 14016,20224 L 14244,20224 14244,24574 14016,24574 14016,20224 Z M 14017,20247 L 14243,20247 14243,24551 14017,24551 14017,20247 Z"/>
             <path fill="rgb(58,58,58)" stroke="none" d="M 14017,20247 L 14243,20247 14243,24551 14017,24551 14017,20247 Z M 14018,20270 L 14242,20270 14242,24528 14018,24528 14018,20270 Z"/>
             <path fill="rgb(59,59,59)" stroke="none" d="M 14018,20270 L 14242,20270 14242,24528 14018,24528 14018,20270 Z M 14019,20292 L 14241,20292 14241,24506 14019,24506 14019,20292 Z"/>
             <path fill="rgb(60,60,60)" stroke="none" d="M 14019,20292 L 14241,20292 14241,24506 14019,24506 14019,20292 Z M 14021,20315 L 14239,20315 14239,24483 14021,24483 14021,20315 Z"/>
             <path fill="rgb(61,61,61)" stroke="none" d="M 14021,20315 L 14239,20315 14239,24483 14021,24483 14021,20315 Z M 14022,20338 L 14238,20338 14238,24460 14022,24460 14022,20338 Z"/>
             <path fill="rgb(62,62,62)" stroke="none" d="M 14022,20338 L 14238,20338 14238,24460 14022,24460 14022,20338 Z M 14023,20360 L 14237,20360 14237,24438 14023,24438 14023,20360 Z"/>
             <path fill="rgb(63,63,63)" stroke="none" d="M 14023,20360 L 14237,20360 14237,24438 14023,24438 14023,20360 Z M 14024,20383 L 14236,20383 14236,24415 14024,24415 14024,20383 Z"/>
             <path fill="rgb(64,64,64)" stroke="none" d="M 14024,20383 L 14236,20383 14236,24415 14024,24415 14024,20383 Z M 14025,20406 L 14235,20406 14235,24392 14025,24392 14025,20406 Z"/>
             <path fill="rgb(65,65,65)" stroke="none" d="M 14025,20406 L 14235,20406 14235,24392 14025,24392 14025,20406 Z M 14027,20428 L 14233,20428 14233,24370 14027,24370 14027,20428 Z"/>
             <path fill="rgb(66,66,66)" stroke="none" d="M 14027,20428 L 14233,20428 14233,24370 14027,24370 14027,20428 Z M 14028,20451 L 14232,20451 14232,24347 14028,24347 14028,20451 Z"/>
             <path fill="rgb(67,67,67)" stroke="none" d="M 14028,20451 L 14232,20451 14232,24347 14028,24347 14028,20451 Z M 14029,20474 L 14231,20474 14231,24324 14029,24324 14029,20474 Z"/>
             <path fill="rgb(68,68,68)" stroke="none" d="M 14029,20474 L 14231,20474 14231,24324 14029,24324 14029,20474 Z M 14030,20496 L 14230,20496 14230,24302 14030,24302 14030,20496 Z"/>
             <path fill="rgb(69,69,69)" stroke="none" d="M 14030,20496 L 14230,20496 14230,24302 14030,24302 14030,20496 Z M 14031,20519 L 14229,20519 14229,24279 14031,24279 14031,20519 Z"/>
             <path fill="rgb(70,70,70)" stroke="none" d="M 14031,20519 L 14229,20519 14229,24279 14031,24279 14031,20519 Z M 14033,20542 L 14227,20542 14227,24256 14033,24256 14033,20542 Z"/>
             <path fill="rgb(71,71,71)" stroke="none" d="M 14033,20542 L 14227,20542 14227,24256 14033,24256 14033,20542 Z M 14034,20564 L 14226,20564 14226,24234 14034,24234 14034,20564 Z"/>
             <path fill="rgb(72,72,72)" stroke="none" d="M 14034,20564 L 14226,20564 14226,24234 14034,24234 14034,20564 Z M 14035,20587 L 14225,20587 14225,24211 14035,24211 14035,20587 Z"/>
             <path fill="rgb(73,73,73)" stroke="none" d="M 14035,20587 L 14225,20587 14225,24211 14035,24211 14035,20587 Z M 14036,20610 L 14224,20610 14224,24188 14036,24188 14036,20610 Z"/>
             <path fill="rgb(74,74,74)" stroke="none" d="M 14036,20610 L 14224,20610 14224,24188 14036,24188 14036,20610 Z M 14037,20632 L 14223,20632 14223,24166 14037,24166 14037,20632 Z"/>
             <path fill="rgb(75,75,75)" stroke="none" d="M 14037,20632 L 14223,20632 14223,24166 14037,24166 14037,20632 Z M 14038,20655 L 14221,20655 14221,24143 14038,24143 14038,20655 Z"/>
             <path fill="rgb(76,76,76)" stroke="none" d="M 14038,20655 L 14221,20655 14221,24143 14038,24143 14038,20655 Z M 14039,20678 L 14220,20678 14220,24120 14039,24120 14039,20678 Z"/>
             <path fill="rgb(77,77,77)" stroke="none" d="M 14039,20678 L 14220,20678 14220,24120 14039,24120 14039,20678 Z M 14040,20700 L 14219,20700 14219,24098 14040,24098 14040,20700 Z"/>
             <path fill="rgb(78,78,78)" stroke="none" d="M 14040,20700 L 14219,20700 14219,24098 14040,24098 14040,20700 Z M 14041,20723 L 14218,20723 14218,24075 14041,24075 14041,20723 Z"/>
             <path fill="rgb(79,79,79)" stroke="none" d="M 14041,20723 L 14218,20723 14218,24075 14041,24075 14041,20723 Z M 14042,20746 L 14217,20746 14217,24052 14042,24052 14042,20746 Z"/>
             <path fill="rgb(80,80,80)" stroke="none" d="M 14042,20746 L 14217,20746 14217,24052 14042,24052 14042,20746 Z M 14044,20768 L 14215,20768 14215,24030 14044,24030 14044,20768 Z"/>
             <path fill="rgb(81,81,81)" stroke="none" d="M 14044,20768 L 14215,20768 14215,24030 14044,24030 14044,20768 Z M 14045,20791 L 14214,20791 14214,24007 14045,24007 14045,20791 Z"/>
             <path fill="rgb(82,82,82)" stroke="none" d="M 14045,20791 L 14214,20791 14214,24007 14045,24007 14045,20791 Z M 14046,20814 L 14213,20814 14213,23984 14046,23984 14046,20814 Z"/>
             <path fill="rgb(83,83,83)" stroke="none" d="M 14046,20814 L 14213,20814 14213,23984 14046,23984 14046,20814 Z M 14047,20836 L 14212,20836 14212,23962 14047,23962 14047,20836 Z"/>
             <path fill="rgb(84,84,84)" stroke="none" d="M 14047,20836 L 14212,20836 14212,23962 14047,23962 14047,20836 Z M 14048,20859 L 14211,20859 14211,23939 14048,23939 14048,20859 Z"/>
             <path fill="rgb(85,85,85)" stroke="none" d="M 14048,20859 L 14211,20859 14211,23939 14048,23939 14048,20859 Z M 14050,20882 L 14209,20882 14209,23916 14050,23916 14050,20882 Z"/>
             <path fill="rgb(86,86,86)" stroke="none" d="M 14050,20882 L 14209,20882 14209,23916 14050,23916 14050,20882 Z M 14051,20904 L 14208,20904 14208,23894 14051,23894 14051,20904 Z"/>
             <path fill="rgb(87,87,87)" stroke="none" d="M 14051,20904 L 14208,20904 14208,23894 14051,23894 14051,20904 Z M 14052,20927 L 14207,20927 14207,23871 14052,23871 14052,20927 Z"/>
             <path fill="rgb(88,88,88)" stroke="none" d="M 14052,20927 L 14207,20927 14207,23871 14052,23871 14052,20927 Z M 14053,20950 L 14206,20950 14206,23848 14053,23848 14053,20950 Z"/>
             <path fill="rgb(89,89,89)" stroke="none" d="M 14053,20950 L 14206,20950 14206,23848 14053,23848 14053,20950 Z M 14054,20972 L 14205,20972 14205,23826 14054,23826 14054,20972 Z"/>
             <path fill="rgb(90,90,90)" stroke="none" d="M 14054,20972 L 14205,20972 14205,23826 14054,23826 14054,20972 Z M 14056,20994 L 14203,20994 14203,23803 14056,23803 14056,20994 Z"/>
             <path fill="rgb(91,91,91)" stroke="none" d="M 14056,20994 L 14203,20994 14203,23803 14056,23803 14056,20994 Z M 14057,21017 L 14202,21017 14202,23780 14057,23780 14057,21017 Z"/>
             <path fill="rgb(92,92,92)" stroke="none" d="M 14057,21017 L 14202,21017 14202,23780 14057,23780 14057,21017 Z M 14058,21039 L 14201,21039 14201,23758 14058,23758 14058,21039 Z"/>
             <path fill="rgb(93,93,93)" stroke="none" d="M 14058,21039 L 14201,21039 14201,23758 14058,23758 14058,21039 Z M 14059,21062 L 14200,21062 14200,23735 14059,23735 14059,21062 Z"/>
             <path fill="rgb(94,94,94)" stroke="none" d="M 14059,21062 L 14200,21062 14200,23735 14059,23735 14059,21062 Z M 14060,21085 L 14199,21085 14199,23712 14060,23712 14060,21085 Z"/>
             <path fill="rgb(95,95,95)" stroke="none" d="M 14060,21085 L 14199,21085 14199,23712 14060,23712 14060,21085 Z M 14062,21107 L 14197,21107 14197,23690 14062,23690 14062,21107 Z"/>
             <path fill="rgb(96,96,96)" stroke="none" d="M 14062,21107 L 14197,21107 14197,23690 14062,23690 14062,21107 Z M 14063,21130 L 14196,21130 14196,23667 14063,23667 14063,21130 Z"/>
             <path fill="rgb(97,97,97)" stroke="none" d="M 14063,21130 L 14196,21130 14196,23667 14063,23667 14063,21130 Z M 14064,21153 L 14195,21153 14195,23644 14064,23644 14064,21153 Z"/>
             <path fill="rgb(98,98,98)" stroke="none" d="M 14064,21153 L 14195,21153 14195,23644 14064,23644 14064,21153 Z M 14065,21175 L 14194,21175 14194,23622 14065,23622 14065,21175 Z"/>
             <path fill="rgb(99,99,99)" stroke="none" d="M 14065,21175 L 14194,21175 14194,23622 14065,23622 14065,21175 Z M 14066,21198 L 14193,21198 14193,23599 14066,23599 14066,21198 Z"/>
             <path fill="rgb(100,100,100)" stroke="none" d="M 14066,21198 L 14193,21198 14193,23599 14066,23599 14066,21198 Z M 14068,21221 L 14191,21221 14191,23576 14068,23576 14068,21221 Z"/>
             <path fill="rgb(101,101,101)" stroke="none" d="M 14068,21221 L 14191,21221 14191,23576 14068,23576 14068,21221 Z M 14069,21243 L 14190,21243 14190,23554 14069,23554 14069,21243 Z"/>
             <path fill="rgb(102,102,102)" stroke="none" d="M 14069,21243 L 14190,21243 14190,23554 14069,23554 14069,21243 Z M 14070,21266 L 14189,21266 14189,23531 14070,23531 14070,21266 Z"/>
             <path fill="rgb(103,103,103)" stroke="none" d="M 14070,21266 L 14189,21266 14189,23531 14070,23531 14070,21266 Z M 14071,21289 L 14188,21289 14188,23508 14071,23508 14071,21289 Z"/>
             <path fill="rgb(104,104,104)" stroke="none" d="M 14071,21289 L 14188,21289 14188,23508 14071,23508 14071,21289 Z M 14072,21311 L 14187,21311 14187,23486 14072,23486 14072,21311 Z"/>
             <path fill="rgb(105,105,105)" stroke="none" d="M 14072,21311 L 14187,21311 14187,23486 14072,23486 14072,21311 Z M 14074,21334 L 14185,21334 14185,23463 14074,23463 14074,21334 Z"/>
             <path fill="rgb(106,106,106)" stroke="none" d="M 14074,21334 L 14185,21334 14185,23463 14074,23463 14074,21334 Z M 14075,21357 L 14184,21357 14184,23440 14075,23440 14075,21357 Z"/>
             <path fill="rgb(107,107,107)" stroke="none" d="M 14075,21357 L 14184,21357 14184,23440 14075,23440 14075,21357 Z M 14076,21379 L 14183,21379 14183,23418 14076,23418 14076,21379 Z"/>
             <path fill="rgb(108,108,108)" stroke="none" d="M 14076,21379 L 14183,21379 14183,23418 14076,23418 14076,21379 Z M 14077,21402 L 14182,21402 14182,23395 14077,23395 14077,21402 Z"/>
             <path fill="rgb(109,109,109)" stroke="none" d="M 14077,21402 L 14182,21402 14182,23395 14077,23395 14077,21402 Z M 14078,21425 L 14181,21425 14181,23372 14078,23372 14078,21425 Z"/>
             <path fill="rgb(110,110,110)" stroke="none" d="M 14078,21425 L 14181,21425 14181,23372 14078,23372 14078,21425 Z M 14080,21447 L 14179,21447 14179,23350 14080,23350 14080,21447 Z"/>
             <path fill="rgb(111,111,111)" stroke="none" d="M 14080,21447 L 14179,21447 14179,23350 14080,23350 14080,21447 Z M 14081,21470 L 14178,21470 14178,23327 14081,23327 14081,21470 Z"/>
             <path fill="rgb(112,112,112)" stroke="none" d="M 14081,21470 L 14178,21470 14178,23327 14081,23327 14081,21470 Z M 14082,21493 L 14177,21493 14177,23304 14082,23304 14082,21493 Z"/>
             <path fill="rgb(113,113,113)" stroke="none" d="M 14082,21493 L 14177,21493 14177,23304 14082,23304 14082,21493 Z M 14083,21515 L 14176,21515 14176,23282 14083,23282 14083,21515 Z"/>
             <path fill="rgb(114,114,114)" stroke="none" d="M 14083,21515 L 14176,21515 14176,23282 14083,23282 14083,21515 Z M 14084,21538 L 14175,21538 14175,23259 14084,23259 14084,21538 Z"/>
             <path fill="rgb(115,115,115)" stroke="none" d="M 14084,21538 L 14175,21538 14175,23259 14084,23259 14084,21538 Z M 14086,21561 L 14173,21561 14173,23236 14086,23236 14086,21561 Z"/>
             <path fill="rgb(116,116,116)" stroke="none" d="M 14086,21561 L 14173,21561 14173,23236 14086,23236 14086,21561 Z M 14087,21583 L 14172,21583 14172,23214 14087,23214 14087,21583 Z"/>
             <path fill="rgb(117,117,117)" stroke="none" d="M 14087,21583 L 14172,21583 14172,23214 14087,23214 14087,21583 Z M 14088,21606 L 14171,21606 14171,23191 14088,23191 14088,21606 Z"/>
             <path fill="rgb(118,118,118)" stroke="none" d="M 14088,21606 L 14171,21606 14171,23191 14088,23191 14088,21606 Z M 14089,21628 L 14170,21628 14170,23168 14089,23168 14089,21628 Z"/>
             <path fill="rgb(119,119,119)" stroke="none" d="M 14089,21628 L 14170,21628 14170,23168 14089,23168 14089,21628 Z M 14090,21651 L 14169,21651 14169,23146 14090,23146 14090,21651 Z"/>
             <path fill="rgb(120,120,120)" stroke="none" d="M 14090,21651 L 14169,21651 14169,23146 14090,23146 14090,21651 Z M 14092,21674 L 14167,21674 14167,23123 14092,23123 14092,21674 Z"/>
             <path fill="rgb(121,121,121)" stroke="none" d="M 14092,21674 L 14167,21674 14167,23123 14092,23123 14092,21674 Z M 14093,21696 L 14166,21696 14166,23101 14093,23101 14093,21696 Z"/>
             <path fill="rgb(122,122,122)" stroke="none" d="M 14093,21696 L 14166,21696 14166,23101 14093,23101 14093,21696 Z M 14094,21719 L 14165,21719 14165,23078 14094,23078 14094,21719 Z"/>
             <path fill="rgb(123,123,123)" stroke="none" d="M 14094,21719 L 14165,21719 14165,23078 14094,23078 14094,21719 Z M 14095,21742 L 14164,21742 14164,23055 14095,23055 14095,21742 Z"/>
             <path fill="rgb(124,124,124)" stroke="none" d="M 14095,21742 L 14164,21742 14164,23055 14095,23055 14095,21742 Z M 14096,21764 L 14163,21764 14163,23033 14096,23033 14096,21764 Z"/>
             <path fill="rgb(125,125,125)" stroke="none" d="M 14096,21764 L 14163,21764 14163,23033 14096,23033 14096,21764 Z M 14098,21787 L 14161,21787 14161,23010 14098,23010 14098,21787 Z"/>
             <path fill="rgb(126,126,126)" stroke="none" d="M 14098,21787 L 14161,21787 14161,23010 14098,23010 14098,21787 Z M 14099,21810 L 14160,21810 14160,22987 14099,22987 14099,21810 Z"/>
             <path fill="rgb(127,127,127)" stroke="none" d="M 14099,21810 L 14160,21810 14160,22987 14099,22987 14099,21810 Z M 14100,21832 L 14159,21832 14159,22965 14100,22965 14100,21832 Z"/>
             <path fill="rgb(128,128,128)" stroke="none" d="M 14100,21832 L 14159,21832 14159,22965 14100,22965 14100,21832 Z M 14101,21855 L 14158,21855 14158,22942 14101,22942 14101,21855 Z"/>
             <path fill="rgb(129,129,129)" stroke="none" d="M 14101,21855 L 14158,21855 14158,22942 14101,22942 14101,21855 Z M 14102,21878 L 14157,21878 14157,22919 14102,22919 14102,21878 Z"/>
             <path fill="rgb(130,130,130)" stroke="none" d="M 14102,21878 L 14157,21878 14157,22919 14102,22919 14102,21878 Z M 14104,21900 L 14155,21900 14155,22897 14104,22897 14104,21900 Z"/>
             <path fill="rgb(131,131,131)" stroke="none" d="M 14104,21900 L 14155,21900 14155,22897 14104,22897 14104,21900 Z M 14105,21923 L 14154,21923 14154,22874 14105,22874 14105,21923 Z"/>
             <path fill="rgb(132,132,132)" stroke="none" d="M 14105,21923 L 14154,21923 14154,22874 14105,22874 14105,21923 Z M 14106,21946 L 14153,21946 14153,22851 14106,22851 14106,21946 Z"/>
             <path fill="rgb(133,133,133)" stroke="none" d="M 14106,21946 L 14153,21946 14153,22851 14106,22851 14106,21946 Z M 14107,21968 L 14152,21968 14152,22829 14107,22829 14107,21968 Z"/>
             <path fill="rgb(134,134,134)" stroke="none" d="M 14107,21968 L 14152,21968 14152,22829 14107,22829 14107,21968 Z M 14108,21991 L 14151,21991 14151,22806 14108,22806 14108,21991 Z"/>
             <path fill="rgb(135,135,135)" stroke="none" d="M 14108,21991 L 14151,21991 14151,22806 14108,22806 14108,21991 Z M 14110,22014 L 14149,22014 14149,22783 14110,22783 14110,22014 Z"/>
             <path fill="rgb(136,136,136)" stroke="none" d="M 14110,22014 L 14149,22014 14149,22783 14110,22783 14110,22014 Z M 14111,22036 L 14148,22036 14148,22761 14111,22761 14111,22036 Z"/>
             <path fill="rgb(137,137,137)" stroke="none" d="M 14111,22036 L 14148,22036 14148,22761 14111,22761 14111,22036 Z M 14112,22059 L 14147,22059 14147,22738 14112,22738 14112,22059 Z"/>
             <path fill="rgb(138,138,138)" stroke="none" d="M 14112,22059 L 14147,22059 14147,22738 14112,22738 14112,22059 Z M 14113,22082 L 14146,22082 14146,22715 14113,22715 14113,22082 Z"/>
             <path fill="rgb(139,139,139)" stroke="none" d="M 14113,22082 L 14146,22082 14146,22715 14113,22715 14113,22082 Z M 14114,22104 L 14145,22104 14145,22693 14114,22693 14114,22104 Z"/>
             <path fill="rgb(140,140,140)" stroke="none" d="M 14114,22104 L 14145,22104 14145,22693 14114,22693 14114,22104 Z M 14116,22127 L 14143,22127 14143,22670 14116,22670 14116,22127 Z"/>
             <path fill="rgb(141,141,141)" stroke="none" d="M 14116,22127 L 14143,22127 14143,22670 14116,22670 14116,22127 Z M 14117,22150 L 14142,22150 14142,22647 14117,22647 14117,22150 Z"/>
             <path fill="rgb(142,142,142)" stroke="none" d="M 14117,22150 L 14142,22150 14142,22647 14117,22647 14117,22150 Z M 14118,22172 L 14141,22172 14141,22625 14118,22625 14118,22172 Z"/>
             <path fill="rgb(143,143,143)" stroke="none" d="M 14118,22172 L 14141,22172 14141,22625 14118,22625 14118,22172 Z M 14119,22195 L 14140,22195 14140,22602 14119,22602 14119,22195 Z"/>
             <path fill="rgb(144,144,144)" stroke="none" d="M 14119,22195 L 14140,22195 14140,22602 14119,22602 14119,22195 Z M 14120,22218 L 14139,22218 14139,22579 14120,22579 14120,22218 Z"/>
             <path fill="rgb(145,145,145)" stroke="none" d="M 14120,22218 L 14139,22218 14139,22579 14120,22579 14120,22218 Z M 14122,22240 L 14137,22240 14137,22557 14122,22557 14122,22240 Z"/>
             <path fill="rgb(146,146,146)" stroke="none" d="M 14122,22240 L 14137,22240 14137,22557 14122,22557 14122,22240 Z M 14123,22263 L 14136,22263 14136,22534 14123,22534 14123,22263 Z"/>
             <path fill="rgb(147,147,147)" stroke="none" d="M 14123,22263 L 14136,22263 14136,22534 14123,22534 14123,22263 Z M 14124,22286 L 14135,22286 14135,22511 14124,22511 14124,22286 Z"/>
             <path fill="rgb(148,148,148)" stroke="none" d="M 14124,22286 L 14135,22286 14135,22511 14124,22511 14124,22286 Z M 14125,22308 L 14134,22308 14134,22489 14125,22489 14125,22308 Z"/>
             <path fill="rgb(149,149,149)" stroke="none" d="M 14125,22308 L 14134,22308 14134,22489 14125,22489 14125,22308 Z M 14126,22331 L 14133,22331 14133,22466 14126,22466 14126,22331 Z"/>
             <path fill="rgb(150,150,150)" stroke="none" d="M 14126,22331 L 14133,22331 14133,22466 14126,22466 14126,22331 Z M 14128,22354 L 14131,22354 14131,22443 14128,22443 14128,22354 Z"/>
             <path fill="rgb(151,151,151)" stroke="none" d="M 14128,22354 L 14131,22354 14131,22443 14128,22443 14128,22354 Z M 14129,22376 L 14130,22376 14130,22421 14129,22421 14129,22376 Z"/>
             <path fill="rgb(153,153,153)" stroke="none" d="M 14129,22376 L 14130,22376 14130,22421 14129,22421 14129,22376 Z"/>
            </g>
           </pattern>
          </defs>
          <path style="fill:url(#pattern2)" d="M 14058,25634 L 14058,21154 14300,21014 14300,25494 14058,25634 Z"/>
         </g>
         <path fill="none" stroke="rgb(178,178,178)" stroke-width="40" stroke-linejoin="round" d="M 14058,25634 L 14058,21154 14300,21014 14300,25494 14058,25634 Z"/>
        </g>
       </g>
       <g class="com.sun.star.drawing.PolyPolygonShape">
        <g id="id21">
         <rect class="BoundingBox" stroke="none" fill="none" x="-513" y="8114" width="14834" height="17541"/>
         <path fill="none" stroke="rgb(0,0,0)" stroke-width="40" stroke-linejoin="round" d="M -250,8134 L 14300,16534 14300,25494 14054,25634 -492,17234 -492,8274 -250,8134 Z"/>
        </g>
       </g>
      </g>
     </g>
    </g>
   </g>
  </g>
 </g>
</svg>