<?xml version="1.0" encoding="UTF-8"?>
<!DOCTYPE svg PUBLIC "-//W3C//DTD SVG 1.1//EN" "http://www.w3.org/Graphics/SVG/1.1/DTD/svg11.dtd">
<svg version="1.2" width="36.54mm" height="56.4mm" viewBox="-2532 15248 3654 5640" preserveAspectRatio="xMidYMid" fill-rule="evenodd" stroke-width="28.222" stroke-linejoin="round" xmlns="http://www.w3.org/2000/svg" xmlns:ooo="http://xml.openoffice.org/svg/export" xmlns:xlink="http://www.w3.org/1999/xlink" xmlns:presentation="http://sun.com/xmlns/staroffice/presentation" xmlns:smil="http://www.w3.org/2001/SMIL20/" xmlns:anim="urn:oasis:names:tc:opendocument:xmlns:animation:1.0" xml:space="preserve">
 <defs class="ClipPathGroup">
  <clipPath id="presentation_clip_path" clipPathUnits="userSpaceOnUse">
   <rect x="-2532" y="15248" width="3654" height="5640"/>
  </clipPath>
 </defs>
 <defs class="TextShapeIndex">
  <g ooo:slide="id1" ooo:id-list="id3 id4 id5 id6 id7 id8 id9 id10 id11 id12 id13 id14 id15 id16 id17 id18 id19 id20 id21 id22 id23"/>
 </defs>
 <defs class="EmbeddedBulletChars">
  <g id="bullet-char-template(57356)" transform="scale(0.00048828125,-0.00048828125)">
   <path d="M 580,1141 L 1163,571 580,0 -4,571 580,1141 Z"/>
  </g>
  <g id="bullet-char-template(57354)" transform="scale(0.00048828125,-0.00048828125)">
   <path d="M 8,1128 L 1137,1128 1137,0 8,0 8,1128 Z"/>
  </g>
  <g id="bullet-char-template(10146)" transform="scale(0.00048828125,-0.00048828125)">
   <path d="M 174,0 L 602,739 174,1481 1456,739 174,0 Z M 1358,739 L 309,1346 659,739 1358,739 Z"/>
  </g>
  <g id="bullet-char-template(10132)" transform="scale(0.00048828125,-0.00048828125)">
   <path d="M 2015,739 L 1276,0 717,0 1260,543 174,543 174,936 1260,936 717,1481 1274,1481 2015,739 Z"/>
  </g>
  <g id="bullet-char-template(10007)" transform="scale(0.00048828125,-0.00048828125)">
   <path d="M 0,-2 C -7,14 -16,27 -25,37 L 356,567 C 262,823 215,952 215,954 215,979 228,992 255,992 264,992 276,990 289,987 310,991 331,999 354,1012 L 381,999 492,748 772,1049 836,1024 860,1049 C 881,1039 901,1025 922,1006 886,937 835,863 770,784 769,783 710,716 594,584 L 774,223 C 774,196 753,168 711,139 L 727,119 C 717,90 699,76 672,76 641,76 570,178 457,381 L 164,-76 C 142,-110 111,-127 72,-127 30,-127 9,-110 8,-76 1,-67 -2,-52 -2,-32 -2,-23 -1,-13 0,-2 Z"/>
  </g>
  <g id="bullet-char-template(10004)" transform="scale(0.00048828125,-0.00048828125)">
   <path d="M 285,-33 C 182,-33 111,30 74,156 52,228 41,333 41,471 41,549 55,616 82,672 116,743 169,778 240,778 293,778 328,747 346,684 L 369,508 C 377,444 397,411 428,410 L 1163,1116 C 1174,1127 1196,1133 1229,1133 1271,1133 1292,1118 1292,1087 L 1292,965 C 1292,929 1282,901 1262,881 L 442,47 C 390,-6 338,-33 285,-33 Z"/>
  </g>
  <g id="bullet-char-template(9679)" transform="scale(0.00048828125,-0.00048828125)">
   <path d="M 813,0 C 632,0 489,54 383,161 276,268 223,411 223,592 223,773 276,916 383,1023 489,1130 632,1184 813,1184 992,1184 1136,1130 1245,1023 1353,916 1407,772 1407,592 1407,412 1353,268 1245,161 1136,54 992,0 813,0 Z"/>
  </g>
  <g id="bullet-char-template(8226)" transform="scale(0.00048828125,-0.00048828125)">
   <path d="M 346,457 C 273,457 209,483 155,535 101,586 74,649 74,723 74,796 101,859 155,911 209,963 273,989 346,989 419,989 480,963 531,910 582,859 608,796 608,723 608,648 583,586 532,535 482,483 420,457 346,457 Z"/>
  </g>
  <g id="bullet-char-template(8211)" transform="scale(0.00048828125,-0.00048828125)">
   <path d="M -4,459 L 1135,459 1135,606 -4,606 -4,459 Z"/>
  </g>
 </defs>
 <defs class="TextEmbeddedBitmaps"/>
 <g class="SlideGroup">
  <g>
   <g id="id1" class="Slide" clip-path="url(#presentation_clip_path)">
    <g class="Page">
     <g class="Group">
      <g class="com.sun.star.drawing.ClosedBezierShape">
       <g id="id3">
        <rect class="BoundingBox" stroke="none" fill="none" x="-610" y="19667" width="1733" height="1203"/>
        <path fill="rgb(221,221,221)" stroke="none" d="M -609,20868 C -134,20868 1121,20568 1121,20268 1121,19968 904,19668 429,19668 429,19968 -609,20467 -609,20868 Z"/>
        <path fill="none" stroke="rgb(221,221,221)" d="M -609,20868 C -134,20868 1121,20568 1121,20268 1121,19968 904,19668 429,19668 429,19968 -609,20467 -609,20868 Z"/>
       </g>
      </g>
      <g class="Group">
       <g class="com.sun.star.drawing.PolyPolygonShape">
        <g id="id4">
         <rect class="BoundingBox" stroke="none" fill="none" x="-2532" y="17948" width="1944" height="2941"/>
         <g>
          <defs>
           <linearGradient id="gradient1" x1="-2514" y1="19418" x2="-608" y2="19418" gradientUnits="userSpaceOnUse">
            <stop offset="0.1" style="stop-color:rgb(179,179,179)"/>
            <stop offset="1" style="stop-color:rgb(229,229,229)"/>
           </linearGradient>
          </defs>
          <path style="fill:url(#gradient1)" d="M -2339,19868 L -2512,18968 -2512,17968 -782,18968 -782,19968 -609,20868 -2339,19868 Z"/>
         </g>
         <path fill="none" stroke="rgb(255,255,255)" stroke-width="40" stroke-linejoin="round" d="M -2339,19868 L -2512,18968 -2512,17968 -782,18968 -782,19968 -609,20868 -2339,19868 Z"/>
        </g>
       </g>
       <g class="com.sun.star.drawing.PolyPolygonShape">
        <g id="id5">
         <rect class="BoundingBox" stroke="none" fill="none" x="-2532" y="15648" width="2290" height="1341"/>
         <g>
          <defs>
           <linearGradient id="gradient2" x1="-1388" y1="15668" x2="-1388" y2="16968" gradientUnits="userSpaceOnUse">
            <stop offset="0.1" style="stop-color:rgb(179,179,179)"/>
            <stop offset="1" style="stop-color:rgb(229,229,229)"/>
           </linearGradient>
          </defs>
          <path style="fill:url(#gradient2)" d="M -782,16968 L -2512,15968 -1993,15668 -263,16668 -782,16968 Z"/>
         </g>
         <path fill="none" stroke="rgb(255,255,255)" stroke-width="40" stroke-linejoin="round" d="M -782,16968 L -2512,15968 -1993,15668 -263,16668 -782,16968 Z"/>
        </g>
       </g>
       <g class="com.sun.star.drawing.PolyPolygonShape">
        <g id="id6">
         <rect class="BoundingBox" stroke="none" fill="none" x="-2533" y="15948" width="1772" height="3041"/>
         <g>
          <defs>
           <linearGradient id="gradient3" x1="-2513" y1="17468" x2="-781" y2="17468" gradientUnits="userSpaceOnUse">
            <stop offset="0.1" style="stop-color:rgb(179,179,179)"/>
            <stop offset="1" style="stop-color:rgb(229,229,229)"/>
           </linearGradient>
          </defs>
          <path style="fill:url(#gradient3)" d="M -2512,17968 L -2512,15968 -782,16968 -782,18968 -2512,17968 Z"/>
         </g>
         <path fill="none" stroke="rgb(255,255,255)" stroke-width="40" stroke-linejoin="round" d="M -2512,17968 L -2512,15968 -782,16968 -782,18968 -2512,17968 Z"/>
        </g>
       </g>
       <g class="com.sun.star.drawing.PolyPolygonShape">
        <g id="id7">
         <rect class="BoundingBox" stroke="none" fill="none" x="-2359" y="16348" width="1079" height="1141"/>
         <g>
          <defs>
           <linearGradient id="gradient4" x1="-2340" y1="16918" x2="-1300" y2="16918" gradientUnits="userSpaceOnUse">
            <stop offset="0.1" style="stop-color:rgb(147,212,240)"/>
            <stop offset="1" style="stop-color:rgb(233,246,252)"/>
           </linearGradient>
          </defs>
          <path style="fill:url(#gradient4)" d="M -2339,16868 L -2339,16368 -1301,16968 -1301,17468 -2339,16868 Z"/>
         </g>
         <path fill="none" stroke="rgb(127,127,127)" stroke-width="40" stroke-linejoin="round" d="M -2339,16868 L -2339,16368 -1301,16968 -1301,17468 -2339,16868 Z"/>
        </g>
       </g>
       <g class="com.sun.star.drawing.PolyPolygonShape">
        <g id="id8">
         <rect class="BoundingBox" stroke="none" fill="none" x="-1148" y="17348" width="214" height="342"/>
         <path fill="rgb(0,0,0)" stroke="none" d="M -1128,17568 L -1128,17368 -955,17468 -955,17668 -1128,17568 Z"/>
         <path fill="none" stroke="rgb(127,127,127)" stroke-width="40" stroke-linejoin="round" d="M -1128,17568 L -1128,17368 -955,17468 -955,17668 -1128,17568 Z"/>
        </g>
       </g>
       <g class="com.sun.star.drawing.PolyPolygonShape">
        <g id="id9">
         <rect class="BoundingBox" stroke="none" fill="none" x="-1148" y="17048" width="214" height="342"/>
         <path fill="rgb(0,0,0)" stroke="none" d="M -1128,17268 L -1128,17068 -955,17168 -955,17368 -1128,17268 Z"/>
         <path fill="none" stroke="rgb(127,127,127)" stroke-width="40" stroke-linejoin="round" d="M -1128,17268 L -1128,17068 -955,17168 -955,17368 -1128,17268 Z"/>
        </g>
       </g>
       <g class="com.sun.star.drawing.PolyPolygonShape">
        <g id="id10">
         <rect class="BoundingBox" stroke="none" fill="none" x="-802" y="16248" width="1252" height="4641"/>
         <g>
          <defs>
           <pattern id="pattern1" x="-782" y="16268" width="1212" height="4601" patternUnits="userSpaceOnUse">
            <g transform="translate(782,-16268)">
             <path fill="rgb(179,179,179)" stroke="none" d="M -783,16267 L 430,16267 430,20869 -783,20869 -783,16267 Z M -1013,15393 L 174,15393 174,19901 -1013,19901 -1013,15393 Z"/>
             <path fill="rgb(180,180,180)" stroke="none" d="M -1013,15393 L 174,15393 174,19901 -1013,19901 -1013,15393 Z M -1001,15439 L 162,15439 162,19855 -1001,19855 -1001,15439 Z"/>
             <path fill="rgb(181,181,181)" stroke="none" d="M -1001,15439 L 162,15439 162,19855 -1001,19855 -1001,15439 Z M -989,15485 L 150,15485 150,19809 -989,19809 -989,15485 Z"/>
             <path fill="rgb(182,182,182)" stroke="none" d="M -989,15485 L 150,15485 150,19809 -989,19809 -989,15485 Z M -977,15531 L 138,15531 138,19763 -977,19763 -977,15531 Z"/>
             <path fill="rgb(183,183,183)" stroke="none" d="M -977,15531 L 138,15531 138,19763 -977,19763 -977,15531 Z M -965,15577 L 126,15577 126,19717 -965,19717 -965,15577 Z"/>
             <path fill="rgb(184,184,184)" stroke="none" d="M -965,15577 L 126,15577 126,19717 -965,19717 -965,15577 Z M -953,15623 L 114,15623 114,19671 -953,19671 -953,15623 Z"/>
             <path fill="rgb(185,185,185)" stroke="none" d="M -953,15623 L 114,15623 114,19671 -953,19671 -953,15623 Z M -941,15669 L 102,15669 102,19625 -941,19625 -941,15669 Z"/>
             <path fill="rgb(186,186,186)" stroke="none" d="M -941,15669 L 102,15669 102,19625 -941,19625 -941,15669 Z M -928,15715 L 89,15715 89,19579 -928,19579 -928,15715 Z"/>
             <path fill="rgb(187,187,187)" stroke="none" d="M -928,15715 L 89,15715 89,19579 -928,19579 -928,15715 Z M -916,15761 L 77,15761 77,19533 -916,19533 -916,15761 Z"/>
             <path fill="rgb(188,188,188)" stroke="none" d="M -916,15761 L 77,15761 77,19533 -916,19533 -916,15761 Z M -904,15807 L 65,15807 65,19487 -904,19487 -904,15807 Z"/>
             <path fill="rgb(189,189,189)" stroke="none" d="M -904,15807 L 65,15807 65,19487 -904,19487 -904,15807 Z M -892,15853 L 53,15853 53,19441 -892,19441 -892,15853 Z"/>
             <path fill="rgb(190,190,190)" stroke="none" d="M -892,15853 L 53,15853 53,19441 -892,19441 -892,15853 Z M -880,15899 L 41,15899 41,19395 -880,19395 -880,15899 Z"/>
             <path fill="rgb(191,191,191)" stroke="none" d="M -880,15899 L 41,15899 41,19395 -880,19395 -880,15899 Z M -868,15945 L 29,15945 29,19349 -868,19349 -868,15945 Z"/>
             <path fill="rgb(192,192,192)" stroke="none" d="M -868,15945 L 29,15945 29,19349 -868,19349 -868,15945 Z M -856,15991 L 17,15991 17,19303 -856,19303 -856,15991 Z"/>
             <path fill="rgb(193,193,193)" stroke="none" d="M -856,15991 L 17,15991 17,19303 -856,19303 -856,15991 Z M -843,16037 L 4,16037 4,19257 -843,19257 -843,16037 Z"/>
             <path fill="rgb(194,194,194)" stroke="none" d="M -843,16037 L 4,16037 4,19257 -843,19257 -843,16037 Z M -831,16083 L -8,16083 -8,19211 -831,19211 -831,16083 Z"/>
             <path fill="rgb(195,195,195)" stroke="none" d="M -831,16083 L -8,16083 -8,19211 -831,19211 -831,16083 Z M -819,16129 L -20,16129 -20,19165 -819,19165 -819,16129 Z"/>
             <path fill="rgb(196,196,196)" stroke="none" d="M -819,16129 L -20,16129 -20,19165 -819,19165 -819,16129 Z M -807,16175 L -32,16175 -32,19119 -807,19119 -807,16175 Z"/>
             <path fill="rgb(197,197,197)" stroke="none" d="M -807,16175 L -32,16175 -32,19119 -807,19119 -807,16175 Z M -796,16221 L -44,16221 -44,19073 -796,19073 -796,16221 Z"/>
             <path fill="rgb(198,198,198)" stroke="none" d="M -796,16221 L -44,16221 -44,19073 -796,19073 -796,16221 Z M -784,16266 L -56,16266 -56,19027 -784,19027 -784,16266 Z"/>
             <path fill="rgb(199,199,199)" stroke="none" d="M -784,16266 L -56,16266 -56,19027 -784,19027 -784,16266 Z M -772,16312 L -68,16312 -68,18981 -772,18981 -772,16312 Z"/>
             <path fill="rgb(200,200,200)" stroke="none" d="M -772,16312 L -68,16312 -68,18981 -772,18981 -772,16312 Z M -759,16358 L -81,16358 -81,18935 -759,18935 -759,16358 Z"/>
             <path fill="rgb(201,201,201)" stroke="none" d="M -759,16358 L -81,16358 -81,18935 -759,18935 -759,16358 Z M -747,16404 L -93,16404 -93,18889 -747,18889 -747,16404 Z"/>
             <path fill="rgb(202,202,202)" stroke="none" d="M -747,16404 L -93,16404 -93,18889 -747,18889 -747,16404 Z M -735,16450 L -105,16450 -105,18843 -735,18843 -735,16450 Z"/>
             <path fill="rgb(203,203,203)" stroke="none" d="M -735,16450 L -105,16450 -105,18843 -735,18843 -735,16450 Z M -723,16496 L -117,16496 -117,18797 -723,18797 -723,16496 Z"/>
             <path fill="rgb(204,204,204)" stroke="none" d="M -723,16496 L -117,16496 -117,18797 -723,18797 -723,16496 Z M -711,16542 L -129,16542 -129,18751 -711,18751 -711,16542 Z"/>
             <path fill="rgb(205,205,205)" stroke="none" d="M -711,16542 L -129,16542 -129,18751 -711,18751 -711,16542 Z M -699,16588 L -141,16588 -141,18705 -699,18705 -699,16588 Z"/>
             <path fill="rgb(206,206,206)" stroke="none" d="M -699,16588 L -141,16588 -141,18705 -699,18705 -699,16588 Z M -687,16634 L -153,16634 -153,18659 -687,18659 -687,16634 Z"/>
             <path fill="rgb(207,207,207)" stroke="none" d="M -687,16634 L -153,16634 -153,18659 -687,18659 -687,16634 Z M -674,16680 L -166,16680 -166,18613 -674,18613 -674,16680 Z"/>
             <path fill="rgb(208,208,208)" stroke="none" d="M -674,16680 L -166,16680 -166,18613 -674,18613 -674,16680 Z M -662,16726 L -178,16726 -178,18567 -662,18567 -662,16726 Z"/>
             <path fill="rgb(209,209,209)" stroke="none" d="M -662,16726 L -178,16726 -178,18567 -662,18567 -662,16726 Z M -650,16772 L -190,16772 -190,18521 -650,18521 -650,16772 Z"/>
             <path fill="rgb(210,210,210)" stroke="none" d="M -650,16772 L -190,16772 -190,18521 -650,18521 -650,16772 Z M -638,16818 L -202,16818 -202,18475 -638,18475 -638,16818 Z"/>
             <path fill="rgb(211,211,211)" stroke="none" d="M -638,16818 L -202,16818 -202,18475 -638,18475 -638,16818 Z M -626,16864 L -214,16864 -214,18429 -626,18429 -626,16864 Z"/>
             <path fill="rgb(212,212,212)" stroke="none" d="M -626,16864 L -214,16864 -214,18429 -626,18429 -626,16864 Z M -614,16911 L -226,16911 -226,18382 -614,18382 -614,16911 Z"/>
             <path fill="rgb(213,213,213)" stroke="none" d="M -614,16911 L -226,16911 -226,18382 -614,18382 -614,16911 Z M -602,16957 L -238,16957 -238,18336 -602,18336 -602,16957 Z"/>
             <path fill="rgb(214,214,214)" stroke="none" d="M -602,16957 L -238,16957 -238,18336 -602,18336 -602,16957 Z M -589,17003 L -251,17003 -251,18290 -589,18290 -589,17003 Z"/>
             <path fill="rgb(215,215,215)" stroke="none" d="M -589,17003 L -251,17003 -251,18290 -589,18290 -589,17003 Z M -577,17049 L -263,17049 -263,18244 -577,18244 -577,17049 Z"/>
             <path fill="rgb(216,216,216)" stroke="none" d="M -577,17049 L -263,17049 -263,18244 -577,18244 -577,17049 Z M -565,17095 L -275,17095 -275,18198 -565,18198 -565,17095 Z"/>
             <path fill="rgb(217,217,217)" stroke="none" d="M -565,17095 L -275,17095 -275,18198 -565,18198 -565,17095 Z M -553,17141 L -287,17141 -287,18152 -553,18152 -553,17141 Z"/>
             <path fill="rgb(218,218,218)" stroke="none" d="M -553,17141 L -287,17141 -287,18152 -553,18152 -553,17141 Z M -541,17187 L -299,17187 -299,18106 -541,18106 -541,17187 Z"/>
             <path fill="rgb(219,219,219)" stroke="none" d="M -541,17187 L -299,17187 -299,18106 -541,18106 -541,17187 Z M -529,17233 L -311,17233 -311,18060 -529,18060 -529,17233 Z"/>
             <path fill="rgb(220,220,220)" stroke="none" d="M -529,17233 L -311,17233 -311,18060 -529,18060 -529,17233 Z M -517,17279 L -323,17279 -323,18014 -517,18014 -517,17279 Z"/>
             <path fill="rgb(221,221,221)" stroke="none" d="M -517,17279 L -323,17279 -323,18014 -517,18014 -517,17279 Z M -504,17325 L -336,17325 -336,17968 -504,17968 -504,17325 Z"/>
             <path fill="rgb(222,222,222)" stroke="none" d="M -504,17325 L -336,17325 -336,17968 -504,17968 -504,17325 Z M -492,17371 L -348,17371 -348,17922 -492,17922 -492,17371 Z"/>
             <path fill="rgb(223,223,223)" stroke="none" d="M -492,17371 L -348,17371 -348,17922 -492,17922 -492,17371 Z M -480,17417 L -360,17417 -360,17876 -480,17876 -480,17417 Z"/>
             <path fill="rgb(224,224,224)" stroke="none" d="M -480,17417 L -360,17417 -360,17876 -480,17876 -480,17417 Z M -468,17463 L -372,17463 -372,17830 -468,17830 -468,17463 Z"/>
             <path fill="rgb(225,225,225)" stroke="none" d="M -468,17463 L -372,17463 -372,17830 -468,17830 -468,17463 Z M -456,17509 L -384,17509 -384,17784 -456,17784 -456,17509 Z"/>
             <path fill="rgb(226,226,226)" stroke="none" d="M -456,17509 L -384,17509 -384,17784 -456,17784 -456,17509 Z M -444,17555 L -396,17555 -396,17738 -444,17738 -444,17555 Z"/>
             <path fill="rgb(227,227,227)" stroke="none" d="M -444,17555 L -396,17555 -396,17738 -444,17738 -444,17555 Z M -432,17601 L -408,17601 -408,17692 -432,17692 -432,17601 Z"/>
             <path fill="rgb(229,229,229)" stroke="none" d="M -432,17601 L -408,17601 -408,17692 -432,17692 -432,17601 Z"/>
            </g>
           </pattern>
          </defs>
          <path style="fill:url(#pattern1)" d="M -609,20868 L -782,19968 -782,18968 -263,18668 -263,16668 429,16268 429,20268 -609,20868 Z"/>
         </g>
         <path fill="none" stroke="rgb(255,255,255)" stroke-width="40" stroke-linejoin="round" d="M -609,20868 L -782,19968 -782,18968 -263,18668 -263,16668 429,16268 429,20268 -609,20868 Z"/>
        </g>
       </g>
       <g class="com.sun.star.drawing.PolyPolygonShape">
        <g id="id11">
         <rect class="BoundingBox" stroke="none" fill="none" x="-2013" y="15248" width="2463" height="1441"/>
         <g>
          <defs>
           <linearGradient id="gradient5" x1="-782" y1="15268" x2="-782" y2="16668" gradientUnits="userSpaceOnUse">
            <stop offset="0.1" style="stop-color:rgb(179,179,179)"/>
            <stop offset="1" style="stop-color:rgb(229,229,229)"/>
           </linearGradient>
          </defs>
          <path style="fill:url(#gradient5)" d="M -263,16668 L -1993,15668 -1301,15268 429,16268 -263,16668 Z"/>
         </g>
         <path fill="none" stroke="rgb(255,255,255)" stroke-width="40" stroke-linejoin="round" d="M -263,16668 L -1993,15668 -1301,15268 429,16268 -263,16668 Z"/>
        </g>
       </g>
       <g class="com.sun.star.drawing.LineShape">
        <g id="id12">
         <rect class="BoundingBox" stroke="none" fill="none" x="-2186" y="19148" width="1079" height="641"/>
         <path fill="none" stroke="rgb(0,0,0)" stroke-width="40" stroke-linejoin="round" d="M -2166,19168 L -1128,19768"/>
        </g>
       </g>
       <g class="com.sun.star.drawing.LineShape">
        <g id="id13">
         <rect class="BoundingBox" stroke="none" fill="none" x="-975" y="19448" width="41" height="441"/>
         <path fill="none" stroke="rgb(127,127,127)" stroke-width="40" stroke-linejoin="round" d="M -955,19468 L -955,19868"/>
        </g>
       </g>
       <g class="com.sun.star.drawing.LineShape">
        <g id="id14">
         <rect class="BoundingBox" stroke="none" fill="none" x="-2359" y="18648" width="41" height="441"/>
         <path fill="none" stroke="rgb(127,127,127)" stroke-width="40" stroke-linejoin="round" d="M -2339,18668 L -2339,19068"/>
        </g>
       </g>
       <g class="com.sun.star.drawing.PolyPolygonShape">
        <g id="id15">
         <rect class="BoundingBox" stroke="none" fill="none" x="-802" y="16648" width="560" height="2341"/>
         <g>
          <defs>
           <pattern id="pattern2" x="-782" y="16668" width="520" height="2301" patternUnits="userSpaceOnUse">
            <g transform="translate(782,-16668)">
             <path fill="rgb(179,179,179)" stroke="none" d="M -783,16667 L -262,16667 -262,18969 -783,18969 -783,16667 Z M -882,16230 L -373,16230 -373,18484 -882,18484 -882,16230 Z"/>
             <path fill="rgb(180,180,180)" stroke="none" d="M -882,16230 L -373,16230 -373,18484 -882,18484 -882,16230 Z M -877,16253 L -378,16253 -378,18461 -877,18461 -877,16253 Z"/>
             <path fill="rgb(181,181,181)" stroke="none" d="M -877,16253 L -378,16253 -378,18461 -877,18461 -877,16253 Z M -872,16276 L -383,16276 -383,18438 -872,18438 -872,16276 Z"/>
             <path fill="rgb(182,182,182)" stroke="none" d="M -872,16276 L -383,16276 -383,18438 -872,18438 -872,16276 Z M -867,16299 L -388,16299 -388,18415 -867,18415 -867,16299 Z"/>
             <path fill="rgb(183,183,183)" stroke="none" d="M -867,16299 L -388,16299 -388,18415 -867,18415 -867,16299 Z M -861,16322 L -394,16322 -394,18392 -861,18392 -861,16322 Z"/>
             <path fill="rgb(184,184,184)" stroke="none" d="M -861,16322 L -394,16322 -394,18392 -861,18392 -861,16322 Z M -856,16345 L -399,16345 -399,18369 -856,18369 -856,16345 Z"/>
             <path fill="rgb(185,185,185)" stroke="none" d="M -856,16345 L -399,16345 -399,18369 -856,18369 -856,16345 Z M -851,16368 L -404,16368 -404,18346 -851,18346 -851,16368 Z"/>
             <path fill="rgb(186,186,186)" stroke="none" d="M -851,16368 L -404,16368 -404,18346 -851,18346 -851,16368 Z M -846,16391 L -409,16391 -409,18323 -846,18323 -846,16391 Z"/>
             <path fill="rgb(187,187,187)" stroke="none" d="M -846,16391 L -409,16391 -409,18323 -846,18323 -846,16391 Z M -841,16414 L -414,16414 -414,18300 -841,18300 -841,16414 Z"/>
             <path fill="rgb(188,188,188)" stroke="none" d="M -841,16414 L -414,16414 -414,18300 -841,18300 -841,16414 Z M -835,16437 L -420,16437 -420,18277 -835,18277 -835,16437 Z"/>
             <path fill="rgb(189,189,189)" stroke="none" d="M -835,16437 L -420,16437 -420,18277 -835,18277 -835,16437 Z M -830,16460 L -425,16460 -425,18254 -830,18254 -830,16460 Z"/>
             <path fill="rgb(190,190,190)" stroke="none" d="M -830,16460 L -425,16460 -425,18254 -830,18254 -830,16460 Z M -825,16483 L -430,16483 -430,18231 -825,18231 -825,16483 Z"/>
             <path fill="rgb(191,191,191)" stroke="none" d="M -825,16483 L -430,16483 -430,18231 -825,18231 -825,16483 Z M -820,16506 L -435,16506 -435,18208 -820,18208 -820,16506 Z"/>
             <path fill="rgb(192,192,192)" stroke="none" d="M -820,16506 L -435,16506 -435,18208 -820,18208 -820,16506 Z M -814,16529 L -441,16529 -441,18185 -814,18185 -814,16529 Z"/>
             <path fill="rgb(193,193,193)" stroke="none" d="M -814,16529 L -441,16529 -441,18185 -814,18185 -814,16529 Z M -809,16552 L -446,16552 -446,18162 -809,18162 -809,16552 Z"/>
             <path fill="rgb(194,194,194)" stroke="none" d="M -809,16552 L -446,16552 -446,18162 -809,18162 -809,16552 Z M -804,16575 L -451,16575 -451,18139 -804,18139 -804,16575 Z"/>
             <path fill="rgb(195,195,195)" stroke="none" d="M -804,16575 L -451,16575 -451,18139 -804,18139 -804,16575 Z M -800,16598 L -456,16598 -456,18116 -800,18116 -800,16598 Z"/>
             <path fill="rgb(196,196,196)" stroke="none" d="M -800,16598 L -456,16598 -456,18116 -800,18116 -800,16598 Z M -795,16621 L -461,16621 -461,18093 -795,18093 -795,16621 Z"/>
             <path fill="rgb(197,197,197)" stroke="none" d="M -795,16621 L -461,16621 -461,18093 -795,18093 -795,16621 Z M -789,16644 L -467,16644 -467,18070 -789,18070 -789,16644 Z"/>
             <path fill="rgb(198,198,198)" stroke="none" d="M -789,16644 L -467,16644 -467,18070 -789,18070 -789,16644 Z M -784,16666 L -472,16666 -472,18047 -784,18047 -784,16666 Z"/>
             <path fill="rgb(199,199,199)" stroke="none" d="M -784,16666 L -472,16666 -472,18047 -784,18047 -784,16666 Z M -779,16689 L -477,16689 -477,18024 -779,18024 -779,16689 Z"/>
             <path fill="rgb(200,200,200)" stroke="none" d="M -779,16689 L -477,16689 -477,18024 -779,18024 -779,16689 Z M -774,16712 L -482,16712 -482,18001 -774,18001 -774,16712 Z"/>
             <path fill="rgb(201,201,201)" stroke="none" d="M -774,16712 L -482,16712 -482,18001 -774,18001 -774,16712 Z M -768,16735 L -488,16735 -488,17978 -768,17978 -768,16735 Z"/>
             <path fill="rgb(202,202,202)" stroke="none" d="M -768,16735 L -488,16735 -488,17978 -768,17978 -768,16735 Z M -763,16758 L -493,16758 -493,17955 -763,17955 -763,16758 Z"/>
             <path fill="rgb(203,203,203)" stroke="none" d="M -763,16758 L -493,16758 -493,17955 -763,17955 -763,16758 Z M -758,16781 L -498,16781 -498,17932 -758,17932 -758,16781 Z"/>
             <path fill="rgb(204,204,204)" stroke="none" d="M -758,16781 L -498,16781 -498,17932 -758,17932 -758,16781 Z M -753,16804 L -503,16804 -503,17909 -753,17909 -753,16804 Z"/>
             <path fill="rgb(205,205,205)" stroke="none" d="M -753,16804 L -503,16804 -503,17909 -753,17909 -753,16804 Z M -748,16827 L -508,16827 -508,17886 -748,17886 -748,16827 Z"/>
             <path fill="rgb(206,206,206)" stroke="none" d="M -748,16827 L -508,16827 -508,17886 -748,17886 -748,16827 Z M -742,16850 L -514,16850 -514,17863 -742,17863 -742,16850 Z"/>
             <path fill="rgb(207,207,207)" stroke="none" d="M -742,16850 L -514,16850 -514,17863 -742,17863 -742,16850 Z M -737,16873 L -519,16873 -519,17840 -737,17840 -737,16873 Z"/>
             <path fill="rgb(208,208,208)" stroke="none" d="M -737,16873 L -519,16873 -519,17840 -737,17840 -737,16873 Z M -732,16896 L -524,16896 -524,17817 -732,17817 -732,16896 Z"/>
             <path fill="rgb(209,209,209)" stroke="none" d="M -732,16896 L -524,16896 -524,17817 -732,17817 -732,16896 Z M -727,16919 L -529,16919 -529,17794 -727,17794 -727,16919 Z"/>
             <path fill="rgb(210,210,210)" stroke="none" d="M -727,16919 L -529,16919 -529,17794 -727,17794 -727,16919 Z M -721,16942 L -535,16942 -535,17771 -721,17771 -721,16942 Z"/>
             <path fill="rgb(211,211,211)" stroke="none" d="M -721,16942 L -535,16942 -535,17771 -721,17771 -721,16942 Z M -716,16965 L -540,16965 -540,17748 -716,17748 -716,16965 Z"/>
             <path fill="rgb(212,212,212)" stroke="none" d="M -716,16965 L -540,16965 -540,17748 -716,17748 -716,16965 Z M -711,16989 L -545,16989 -545,17724 -711,17724 -711,16989 Z"/>
             <path fill="rgb(213,213,213)" stroke="none" d="M -711,16989 L -545,16989 -545,17724 -711,17724 -711,16989 Z M -706,17012 L -550,17012 -550,17701 -706,17701 -706,17012 Z"/>
             <path fill="rgb(214,214,214)" stroke="none" d="M -706,17012 L -550,17012 -550,17701 -706,17701 -706,17012 Z M -701,17035 L -555,17035 -555,17678 -701,17678 -701,17035 Z"/>
             <path fill="rgb(215,215,215)" stroke="none" d="M -701,17035 L -555,17035 -555,17678 -701,17678 -701,17035 Z M -695,17058 L -561,17058 -561,17655 -695,17655 -695,17058 Z"/>
             <path fill="rgb(216,216,216)" stroke="none" d="M -695,17058 L -561,17058 -561,17655 -695,17655 -695,17058 Z M -690,17081 L -566,17081 -566,17632 -690,17632 -690,17081 Z"/>
             <path fill="rgb(217,217,217)" stroke="none" d="M -690,17081 L -566,17081 -566,17632 -690,17632 -690,17081 Z M -685,17104 L -571,17104 -571,17609 -685,17609 -685,17104 Z"/>
             <path fill="rgb(218,218,218)" stroke="none" d="M -685,17104 L -571,17104 -571,17609 -685,17609 -685,17104 Z M -680,17127 L -576,17127 -576,17586 -680,17586 -680,17127 Z"/>
             <path fill="rgb(219,219,219)" stroke="none" d="M -680,17127 L -576,17127 -576,17586 -680,17586 -680,17127 Z M -674,17150 L -582,17150 -582,17563 -674,17563 -674,17150 Z"/>
             <path fill="rgb(220,220,220)" stroke="none" d="M -674,17150 L -582,17150 -582,17563 -674,17563 -674,17150 Z M -669,17173 L -587,17173 -587,17540 -669,17540 -669,17173 Z"/>
             <path fill="rgb(221,221,221)" stroke="none" d="M -669,17173 L -587,17173 -587,17540 -669,17540 -669,17173 Z M -664,17196 L -592,17196 -592,17517 -664,17517 -664,17196 Z"/>
             <path fill="rgb(222,222,222)" stroke="none" d="M -664,17196 L -592,17196 -592,17517 -664,17517 -664,17196 Z M -659,17219 L -597,17219 -597,17494 -659,17494 -659,17219 Z"/>
             <path fill="rgb(223,223,223)" stroke="none" d="M -659,17219 L -597,17219 -597,17494 -659,17494 -659,17219 Z M -654,17242 L -602,17242 -602,17471 -654,17471 -654,17242 Z"/>
             <path fill="rgb(224,224,224)" stroke="none" d="M -654,17242 L -602,17242 -602,17471 -654,17471 -654,17242 Z M -648,17265 L -608,17265 -608,17448 -648,17448 -648,17265 Z"/>
             <path fill="rgb(225,225,225)" stroke="none" d="M -648,17265 L -608,17265 -608,17448 -648,17448 -648,17265 Z M -643,17288 L -613,17288 -613,17425 -643,17425 -643,17288 Z"/>
             <path fill="rgb(226,226,226)" stroke="none" d="M -643,17288 L -613,17288 -613,17425 -643,17425 -643,17288 Z M -638,17311 L -618,17311 -618,17402 -638,17402 -638,17311 Z"/>
             <path fill="rgb(227,227,227)" stroke="none" d="M -638,17311 L -618,17311 -618,17402 -638,17402 -638,17311 Z M -633,17334 L -623,17334 -623,17379 -633,17379 -633,17334 Z"/>
             <path fill="rgb(229,229,229)" stroke="none" d="M -633,17334 L -623,17334 -623,17379 -633,17379 -633,17334 Z"/>
            </g>
           </pattern>
          </defs>
          <path style="fill:url(#pattern2)" d="M -782,18968 L -782,16968 -263,16668 -263,18668 -782,18968 Z"/>
         </g>
         <path fill="none" stroke="rgb(255,255,255)" stroke-width="40" stroke-linejoin="round" d="M -782,18968 L -782,16968 -263,16668 -263,18668 -782,18968 Z"/>
        </g>
       </g>
       <g class="com.sun.star.drawing.PolyPolygonShape">
        <g id="id16">
         <rect class="BoundingBox" stroke="none" fill="none" x="-1321" y="18048" width="387" height="642"/>
         <path fill="rgb(127,127,127)" stroke="none" d="M -1301,18468 L -1301,18068 -955,18268 -955,18668 -1301,18468 Z"/>
         <path fill="none" stroke="rgb(0,0,0)" stroke-width="40" stroke-linejoin="round" d="M -1301,18468 L -1301,18068 -955,18268 -955,18668 -1301,18468 Z"/>
        </g>
       </g>
       <g class="com.sun.star.drawing.PolyPolygonShape">
        <g id="id17">
         <rect class="BoundingBox" stroke="none" fill="none" x="-2532" y="15248" width="2982" height="5641"/>
         <path fill="none" stroke="rgb(0,0,0)" stroke-width="40" stroke-linejoin="round" d="M -2339,19868 L -2512,18968 -2512,15968 -1301,15268 429,16268 429,20268 -609,20868 -2339,19868 Z"/>
        </g>
       </g>
       <g class="com.sun.star.drawing.LineShape">
        <g id="id18">
         <rect class="BoundingBox" stroke="none" fill="none" x="-2532" y="17948" width="1771" height="1041"/>
         <path fill="none" stroke="rgb(127,127,127)" stroke-width="40" stroke-linejoin="round" d="M -2512,17968 L -782,18968"/>
        </g>
       </g>
       <g class="com.sun.star.drawing.LineShape">
        <g id="id19">
         <rect class="BoundingBox" stroke="none" fill="none" x="-803" y="18648" width="561" height="341"/>
         <path fill="none" stroke="rgb(127,127,127)" stroke-width="40" stroke-linejoin="round" d="M -263,18668 L -782,18968"/>
        </g>
       </g>
       <g class="com.sun.star.drawing.LineShape">
        <g id="id20">
         <rect class="BoundingBox" stroke="none" fill="none" x="-283" y="16648" width="41" height="2041"/>
         <path fill="none" stroke="rgb(127,127,127)" stroke-width="40" stroke-linejoin="round" d="M -263,16668 L -263,18668"/>
        </g>
       </g>
       <g class="com.sun.star.drawing.LineShape">
        <g id="id21">
         <rect class="BoundingBox" stroke="none" fill="none" x="-2013" y="15648" width="1771" height="1041"/>
         <path fill="none" stroke="rgb(127,127,127)" stroke-width="40" stroke-linejoin="round" d="M -1993,15668 L -263,16668"/>
        </g>
       </g>
       <g class="com.sun.star.drawing.LineShape">
        <g id="id22">
         <rect class="BoundingBox" stroke="none" fill="none" x="-2532" y="16948" width="1771" height="1041"/>
         <path fill="none" stroke="rgb(127,127,127)" stroke-width="40" stroke-linejoin="round" d="M -782,17968 L -2512,16968"/>
        </g>
       </g>
       <g class="com.sun.star.drawing.LineShape">
        <g id="id23">
         <rect class="BoundingBox" stroke="none" fill="none" x="-2532" y="17248" width="1771" height="1041"/>
         <path fill="none" stroke="rgb(127,127,127)" stroke-width="40" stroke-linejoin="round" d="M -782,18268 L -2512,17268"/>
        </g>
       </g>
      </g>
     </g>
    </g>
   </g>
  </g>
 </g>
</svg>