<?xml version="1.0" encoding="UTF-8"?>
<!DOCTYPE svg PUBLIC "-//W3C//DTD SVG 1.1//EN" "http://www.w3.org/Graphics/SVG/1.1/DTD/svg11.dtd">
<svg version="1.2" width="47.49mm" height="42.23mm" viewBox="19026 17106 4749 4223" preserveAspectRatio="xMidYMid" fill-rule="evenodd" stroke-width="28.222" stroke-linejoin="round" xmlns="http://www.w3.org/2000/svg" xmlns:ooo="http://xml.openoffice.org/svg/export" xmlns:xlink="http://www.w3.org/1999/xlink" xmlns:presentation="http://sun.com/xmlns/staroffice/presentation" xmlns:smil="http://www.w3.org/2001/SMIL20/" xmlns:anim="urn:oasis:names:tc:opendocument:xmlns:animation:1.0" xml:space="preserve">
 <defs class="ClipPathGroup">
  <clipPath id="presentation_clip_path" clipPathUnits="userSpaceOnUse">
   <rect x="19026" y="17106" width="4749" height="4223"/>
  </clipPath>
 </defs>
 <defs class="TextShapeIndex">
  <g ooo:slide="id1" ooo:id-list="id3 id4 id5 id6 id7 id8 id9 id10 id11 id12 id13 id14 id15 id16"/>
 </defs>
 <defs class="EmbeddedBulletChars">
  <g id="bullet-char-template(57356)" transform="scale(0.00048828125,-0.00048828125)">
   <path d="M 580,1141 L 1163,571 580,0 -4,571 580,1141 Z"/>
  </g>
  <g id="bullet-char-template(57354)" transform="scale(0.00048828125,-0.00048828125)">
   <path d="M 8,1128 L 1137,1128 1137,0 8,0 8,1128 Z"/>
  </g>
  <g id="bullet-char-template(10146)" transform="scale(0.00048828125,-0.00048828125)">
   <path d="M 174,0 L 602,739 174,1481 1456,739 174,0 Z M 1358,739 L 309,1346 659,739 1358,739 Z"/>
  </g>
  <g id="bullet-char-template(10132)" transform="scale(0.00048828125,-0.00048828125)">
   <path d="M 2015,739 L 1276,0 717,0 1260,543 174,543 174,936 1260,936 717,1481 1274,1481 2015,739 Z"/>
  </g>
  <g id="bullet-char-template(10007)" transform="scale(0.00048828125,-0.00048828125)">
   <path d="M 0,-2 C -7,14 -16,27 -25,37 L 356,567 C 262,823 215,952 215,954 215,979 228,992 255,992 264,992 276,990 289,987 310,991 331,999 354,1012 L 381,999 492,748 772,1049 836,1024 860,1049 C 881,1039 901,1025 922,1006 886,937 835,863 770,784 769,783 710,716 594,584 L 774,223 C 774,196 753,168 711,139 L 727,119 C 717,90 699,76 672,76 641,76 570,178 457,381 L 164,-76 C 142,-110 111,-127 72,-127 30,-127 9,-110 8,-76 1,-67 -2,-52 -2,-32 -2,-23 -1,-13 0,-2 Z"/>
  </g>
  <g id="bullet-char-template(10004)" transform="scale(0.00048828125,-0.00048828125)">
   <path d="M 285,-33 C 182,-33 111,30 74,156 52,228 41,333 41,471 41,549 55,616 82,672 116,743 169,778 240,778 293,778 328,747 346,684 L 369,508 C 377,444 397,411 428,410 L 1163,1116 C 1174,1127 1196,1133 1229,1133 1271,1133 1292,1118 1292,1087 L 1292,965 C 1292,929 1282,901 1262,881 L 442,47 C 390,-6 338,-33 285,-33 Z"/>
  </g>
  <g id="bullet-char-template(9679)" transform="scale(0.00048828125,-0.00048828125)">
   <path d="M 813,0 C 632,0 489,54 383,161 276,268 223,411 223,592 223,773 276,916 383,1023 489,1130 632,1184 813,1184 992,1184 1136,1130 1245,1023 1353,916 1407,772 1407,592 1407,412 1353,268 1245,161 1136,54 992,0 813,0 Z"/>
  </g>
  <g id="bullet-char-template(8226)" transform="scale(0.00048828125,-0.00048828125)">
   <path d="M 346,457 C 273,457 209,483 155,535 101,586 74,649 74,723 74,796 101,859 155,911 209,963 273,989 346,989 419,989 480,963 531,910 582,859 608,796 608,723 608,648 583,586 532,535 482,483 420,457 346,457 Z"/>
  </g>
  <g id="bullet-char-template(8211)" transform="scale(0.00048828125,-0.00048828125)">
   <path d="M -4,459 L 1135,459 1135,606 -4,606 -4,459 Z"/>
  </g>
 </defs>
 <defs class="TextEmbeddedBitmaps"/>
 <g class="SlideGroup">
  <g>
   <g id="id1" class="Slide" clip-path="url(#presentation_clip_path)">
    <g class="Page">
     <g class="Group">
      <g class="com.sun.star.drawing.ClosedBezierShape">
       <g id="id3">
        <rect class="BoundingBox" stroke="none" fill="none" x="21940" y="20081" width="1836" height="1230"/>
        <path fill="rgb(221,221,221)" stroke="none" d="M 21941,21309 C 22206,21309 23774,20584 23774,20417 23774,20249 23653,20082 23388,20082 23388,20249 21941,21030 21941,21309 Z"/>
        <path fill="none" stroke="rgb(221,221,221)" d="M 21941,21309 C 22206,21309 23774,20584 23774,20417 23774,20249 23653,20082 23388,20082 23388,20249 21941,21030 21941,21309 Z"/>
       </g>
      </g>
      <g class="Group">
       <g class="com.sun.star.drawing.PolyPolygonShape">
        <g id="id4">
         <rect class="BoundingBox" stroke="none" fill="none" x="19025" y="17942" width="2937" height="3388"/>
         <g>
          <defs>
           <linearGradient id="gradient1" x1="19045" y1="19636" x2="21941" y2="19636" gradientUnits="userSpaceOnUse">
            <stop offset="0.1" style="stop-color:rgb(179,179,179)"/>
            <stop offset="1" style="stop-color:rgb(229,229,229)"/>
           </linearGradient>
          </defs>
          <path style="fill:url(#gradient1)" d="M 19046,19636 L 19046,17963 21941,19636 21941,21309 19046,19636 Z"/>
         </g>
         <path fill="none" stroke="rgb(255,255,255)" stroke-width="40" stroke-linejoin="round" d="M 19046,19636 L 19046,17963 21941,19636 21941,21309 19046,19636 Z"/>
        </g>
       </g>
       <g class="com.sun.star.drawing.PolyPolygonShape">
        <g id="id5">
         <rect class="BoundingBox" stroke="none" fill="none" x="21921" y="18779" width="1488" height="2551"/>
         <g>
          <defs>
           <pattern id="pattern1" x="21941" y="18799" width="1448" height="2511" patternUnits="userSpaceOnUse">
            <g transform="translate(-21941,-18799)">
             <path fill="rgb(179,179,179)" stroke="none" d="M 21940,18798 L 23389,18798 23389,21310 21940,21310 21940,18798 Z M 21665,18321 L 23084,18321 23084,20781 21665,20781 21665,18321 Z"/>
             <path fill="rgb(180,180,180)" stroke="none" d="M 21665,18321 L 23084,18321 23084,20781 21665,20781 21665,18321 Z M 21679,18346 L 23070,18346 23070,20756 21679,20756 21679,18346 Z"/>
             <path fill="rgb(181,181,181)" stroke="none" d="M 21679,18346 L 23070,18346 23070,20756 21679,20756 21679,18346 Z M 21694,18371 L 23055,18371 23055,20731 21694,20731 21694,18371 Z"/>
             <path fill="rgb(182,182,182)" stroke="none" d="M 21694,18371 L 23055,18371 23055,20731 21694,20731 21694,18371 Z M 21708,18396 L 23041,18396 23041,20706 21708,20706 21708,18396 Z"/>
             <path fill="rgb(183,183,183)" stroke="none" d="M 21708,18396 L 23041,18396 23041,20706 21708,20706 21708,18396 Z M 21723,18421 L 23026,18421 23026,20681 21723,20681 21723,18421 Z"/>
             <path fill="rgb(184,184,184)" stroke="none" d="M 21723,18421 L 23026,18421 23026,20681 21723,20681 21723,18421 Z M 21737,18446 L 23012,18446 23012,20656 21737,20656 21737,18446 Z"/>
             <path fill="rgb(185,185,185)" stroke="none" d="M 21737,18446 L 23012,18446 23012,20656 21737,20656 21737,18446 Z M 21752,18471 L 22997,18471 22997,20631 21752,20631 21752,18471 Z"/>
             <path fill="rgb(186,186,186)" stroke="none" d="M 21752,18471 L 22997,18471 22997,20631 21752,20631 21752,18471 Z M 21766,18497 L 22983,18497 22983,20605 21766,20605 21766,18497 Z"/>
             <path fill="rgb(187,187,187)" stroke="none" d="M 21766,18497 L 22983,18497 22983,20605 21766,20605 21766,18497 Z M 21781,18522 L 22968,18522 22968,20580 21781,20580 21781,18522 Z"/>
             <path fill="rgb(188,188,188)" stroke="none" d="M 21781,18522 L 22968,18522 22968,20580 21781,20580 21781,18522 Z M 21795,18547 L 22954,18547 22954,20555 21795,20555 21795,18547 Z"/>
             <path fill="rgb(189,189,189)" stroke="none" d="M 21795,18547 L 22954,18547 22954,20555 21795,20555 21795,18547 Z M 21810,18572 L 22939,18572 22939,20530 21810,20530 21810,18572 Z"/>
             <path fill="rgb(190,190,190)" stroke="none" d="M 21810,18572 L 22939,18572 22939,20530 21810,20530 21810,18572 Z M 21824,18597 L 22925,18597 22925,20505 21824,20505 21824,18597 Z"/>
             <path fill="rgb(191,191,191)" stroke="none" d="M 21824,18597 L 22925,18597 22925,20505 21824,20505 21824,18597 Z M 21839,18622 L 22910,18622 22910,20480 21839,20480 21839,18622 Z"/>
             <path fill="rgb(192,192,192)" stroke="none" d="M 21839,18622 L 22910,18622 22910,20480 21839,20480 21839,18622 Z M 21853,18647 L 22896,18647 22896,20455 21853,20455 21853,18647 Z"/>
             <path fill="rgb(193,193,193)" stroke="none" d="M 21853,18647 L 22896,18647 22896,20455 21853,20455 21853,18647 Z M 21868,18672 L 22881,18672 22881,20430 21868,20430 21868,18672 Z"/>
             <path fill="rgb(194,194,194)" stroke="none" d="M 21868,18672 L 22881,18672 22881,20430 21868,20430 21868,18672 Z M 21882,18698 L 22867,18698 22867,20404 21882,20404 21882,18698 Z"/>
             <path fill="rgb(195,195,195)" stroke="none" d="M 21882,18698 L 22867,18698 22867,20404 21882,20404 21882,18698 Z M 21897,18723 L 22852,18723 22852,20379 21897,20379 21897,18723 Z"/>
             <path fill="rgb(196,196,196)" stroke="none" d="M 21897,18723 L 22852,18723 22852,20379 21897,20379 21897,18723 Z M 21911,18748 L 22838,18748 22838,20354 21911,20354 21911,18748 Z"/>
             <path fill="rgb(197,197,197)" stroke="none" d="M 21911,18748 L 22838,18748 22838,20354 21911,20354 21911,18748 Z M 21925,18773 L 22823,18773 22823,20329 21925,20329 21925,18773 Z"/>
             <path fill="rgb(198,198,198)" stroke="none" d="M 21925,18773 L 22823,18773 22823,20329 21925,20329 21925,18773 Z M 21940,18797 L 22809,18797 22809,20304 21940,20304 21940,18797 Z"/>
             <path fill="rgb(199,199,199)" stroke="none" d="M 21940,18797 L 22809,18797 22809,20304 21940,20304 21940,18797 Z M 21954,18822 L 22794,18822 22794,20279 21954,20279 21954,18822 Z"/>
             <path fill="rgb(200,200,200)" stroke="none" d="M 21954,18822 L 22794,18822 22794,20279 21954,20279 21954,18822 Z M 21969,18847 L 22780,18847 22780,20254 21969,20254 21969,18847 Z"/>
             <path fill="rgb(201,201,201)" stroke="none" d="M 21969,18847 L 22780,18847 22780,20254 21969,20254 21969,18847 Z M 21983,18872 L 22765,18872 22765,20229 21983,20229 21983,18872 Z"/>
             <path fill="rgb(202,202,202)" stroke="none" d="M 21983,18872 L 22765,18872 22765,20229 21983,20229 21983,18872 Z M 21998,18898 L 22751,18898 22751,20203 21998,20203 21998,18898 Z"/>
             <path fill="rgb(203,203,203)" stroke="none" d="M 21998,18898 L 22751,18898 22751,20203 21998,20203 21998,18898 Z M 22012,18923 L 22736,18923 22736,20178 22012,20178 22012,18923 Z"/>
             <path fill="rgb(204,204,204)" stroke="none" d="M 22012,18923 L 22736,18923 22736,20178 22012,20178 22012,18923 Z M 22027,18948 L 22722,18948 22722,20153 22027,20153 22027,18948 Z"/>
             <path fill="rgb(205,205,205)" stroke="none" d="M 22027,18948 L 22722,18948 22722,20153 22027,20153 22027,18948 Z M 22041,18973 L 22707,18973 22707,20128 22041,20128 22041,18973 Z"/>
             <path fill="rgb(206,206,206)" stroke="none" d="M 22041,18973 L 22707,18973 22707,20128 22041,20128 22041,18973 Z M 22056,18998 L 22693,18998 22693,20103 22056,20103 22056,18998 Z"/>
             <path fill="rgb(207,207,207)" stroke="none" d="M 22056,18998 L 22693,18998 22693,20103 22056,20103 22056,18998 Z M 22070,19023 L 22678,19023 22678,20078 22070,20078 22070,19023 Z"/>
             <path fill="rgb(208,208,208)" stroke="none" d="M 22070,19023 L 22678,19023 22678,20078 22070,20078 22070,19023 Z M 22085,19048 L 22664,19048 22664,20053 22085,20053 22085,19048 Z"/>
             <path fill="rgb(209,209,209)" stroke="none" d="M 22085,19048 L 22664,19048 22664,20053 22085,20053 22085,19048 Z M 22099,19074 L 22649,19074 22649,20027 22099,20027 22099,19074 Z"/>
             <path fill="rgb(210,210,210)" stroke="none" d="M 22099,19074 L 22649,19074 22649,20027 22099,20027 22099,19074 Z M 22114,19099 L 22635,19099 22635,20002 22114,20002 22114,19099 Z"/>
             <path fill="rgb(211,211,211)" stroke="none" d="M 22114,19099 L 22635,19099 22635,20002 22114,20002 22114,19099 Z M 22128,19124 L 22620,19124 22620,19977 22128,19977 22128,19124 Z"/>
             <path fill="rgb(212,212,212)" stroke="none" d="M 22128,19124 L 22620,19124 22620,19977 22128,19977 22128,19124 Z M 22143,19149 L 22606,19149 22606,19952 22143,19952 22143,19149 Z"/>
             <path fill="rgb(213,213,213)" stroke="none" d="M 22143,19149 L 22606,19149 22606,19952 22143,19952 22143,19149 Z M 22157,19174 L 22591,19174 22591,19927 22157,19927 22157,19174 Z"/>
             <path fill="rgb(214,214,214)" stroke="none" d="M 22157,19174 L 22591,19174 22591,19927 22157,19927 22157,19174 Z M 22172,19199 L 22577,19199 22577,19902 22172,19902 22172,19199 Z"/>
             <path fill="rgb(215,215,215)" stroke="none" d="M 22172,19199 L 22577,19199 22577,19902 22172,19902 22172,19199 Z M 22186,19224 L 22562,19224 22562,19877 22186,19877 22186,19224 Z"/>
             <path fill="rgb(216,216,216)" stroke="none" d="M 22186,19224 L 22562,19224 22562,19877 22186,19877 22186,19224 Z M 22201,19249 L 22548,19249 22548,19852 22201,19852 22201,19249 Z"/>
             <path fill="rgb(217,217,217)" stroke="none" d="M 22201,19249 L 22548,19249 22548,19852 22201,19852 22201,19249 Z M 22215,19275 L 22533,19275 22533,19826 22215,19826 22215,19275 Z"/>
             <path fill="rgb(218,218,218)" stroke="none" d="M 22215,19275 L 22533,19275 22533,19826 22215,19826 22215,19275 Z M 22230,19300 L 22519,19300 22519,19801 22230,19801 22230,19300 Z"/>
             <path fill="rgb(219,219,219)" stroke="none" d="M 22230,19300 L 22519,19300 22519,19801 22230,19801 22230,19300 Z M 22244,19325 L 22504,19325 22504,19776 22244,19776 22244,19325 Z"/>
             <path fill="rgb(220,220,220)" stroke="none" d="M 22244,19325 L 22504,19325 22504,19776 22244,19776 22244,19325 Z M 22259,19350 L 22490,19350 22490,19751 22259,19751 22259,19350 Z"/>
             <path fill="rgb(221,221,221)" stroke="none" d="M 22259,19350 L 22490,19350 22490,19751 22259,19751 22259,19350 Z M 22273,19375 L 22475,19375 22475,19726 22273,19726 22273,19375 Z"/>
             <path fill="rgb(222,222,222)" stroke="none" d="M 22273,19375 L 22475,19375 22475,19726 22273,19726 22273,19375 Z M 22288,19400 L 22461,19400 22461,19701 22288,19701 22288,19400 Z"/>
             <path fill="rgb(223,223,223)" stroke="none" d="M 22288,19400 L 22461,19400 22461,19701 22288,19701 22288,19400 Z M 22302,19425 L 22446,19425 22446,19676 22302,19676 22302,19425 Z"/>
             <path fill="rgb(224,224,224)" stroke="none" d="M 22302,19425 L 22446,19425 22446,19676 22302,19676 22302,19425 Z M 22317,19450 L 22432,19450 22432,19651 22317,19651 22317,19450 Z"/>
             <path fill="rgb(225,225,225)" stroke="none" d="M 22317,19450 L 22432,19450 22432,19651 22317,19651 22317,19450 Z M 22331,19476 L 22417,19476 22417,19625 22331,19625 22331,19476 Z"/>
             <path fill="rgb(226,226,226)" stroke="none" d="M 22331,19476 L 22417,19476 22417,19625 22331,19625 22331,19476 Z M 22346,19501 L 22403,19501 22403,19600 22346,19600 22346,19501 Z"/>
             <path fill="rgb(227,227,227)" stroke="none" d="M 22346,19501 L 22403,19501 22403,19600 22346,19600 22346,19501 Z M 22360,19526 L 22388,19526 22388,19575 22360,19575 22360,19526 Z"/>
             <path fill="rgb(229,229,229)" stroke="none" d="M 22360,19526 L 22388,19526 22388,19575 22360,19575 22360,19526 Z"/>
            </g>
           </pattern>
          </defs>
          <path style="fill:url(#pattern1)" d="M 21941,21309 L 21941,19636 23388,18799 23388,20472 21941,21309 Z"/>
         </g>
         <path fill="none" stroke="rgb(255,255,255)" stroke-width="40" stroke-linejoin="round" d="M 21941,21309 L 21941,19636 23388,18799 23388,20472 21941,21309 Z"/>
        </g>
       </g>
       <g class="com.sun.star.drawing.PolyPolygonShape">
        <g id="id6">
         <rect class="BoundingBox" stroke="none" fill="none" x="19026" y="17106" width="4383" height="2551"/>
         <g>
          <defs>
           <linearGradient id="gradient2" x1="21217" y1="17126" x2="21217" y2="19636" gradientUnits="userSpaceOnUse">
            <stop offset="0.1" style="stop-color:rgb(179,179,179)"/>
            <stop offset="1" style="stop-color:rgb(229,229,229)"/>
           </linearGradient>
          </defs>
          <path style="fill:url(#gradient2)" d="M 21941,19636 L 19046,17963 20493,17126 23388,18799 21941,19636 Z"/>
         </g>
         <path fill="none" stroke="rgb(255,255,255)" stroke-width="40" stroke-linejoin="round" d="M 21941,19636 L 19046,17963 20493,17126 23388,18799 21941,19636 Z"/>
        </g>
       </g>
       <g class="com.sun.star.drawing.PolyPolygonShape">
        <g id="id7">
         <rect class="BoundingBox" stroke="none" fill="none" x="19026" y="17106" width="4383" height="4224"/>
         <path fill="none" stroke="rgb(0,0,0)" stroke-width="40" stroke-linejoin="round" d="M 19046,19636 L 19046,17963 20493,17126 23388,18799 23388,20472 21941,21309 19046,19636 Z"/>
        </g>
       </g>
       <g class="com.sun.star.drawing.PolyPolygonShape">
        <g id="id8">
         <rect class="BoundingBox" stroke="none" fill="none" x="19219" y="18276" width="813" height="990"/>
         <path fill="rgb(230,230,230)" stroke="none" d="M 19239,18799 L 19239,18297 20011,18743 20011,19245 19239,18799 Z"/>
         <path fill="none" stroke="rgb(255,255,255)" stroke-width="40" stroke-linejoin="round" d="M 19239,18799 L 19239,18297 20011,18743 20011,19245 19239,18799 Z"/>
        </g>
       </g>
       <g class="com.sun.star.drawing.PolyPolygonShape">
        <g id="id9">
         <rect class="BoundingBox" stroke="none" fill="none" x="21534" y="19058" width="717" height="431"/>
         <path fill="rgb(0,0,0)" stroke="none" d="M 21941,19468 L 21555,19245 21844,19078 22230,19301 21941,19468 Z"/>
         <path fill="none" stroke="rgb(127,127,127)" stroke-width="40" stroke-linejoin="round" d="M 21941,19468 L 21555,19245 21844,19078 22230,19301 21941,19468 Z"/>
        </g>
       </g>
       <g class="com.sun.star.drawing.PolyPolygonShape">
        <g id="id10">
         <rect class="BoundingBox" stroke="none" fill="none" x="21728" y="18947" width="234" height="431"/>
         <path fill="rgb(127,127,127)" stroke="none" d="M 21748,19246 L 21748,18967 21941,19079 21941,19357 21748,19246 Z"/>
         <path fill="none" stroke="rgb(255,255,255)" stroke-width="40" stroke-linejoin="round" d="M 21748,19246 L 21748,18967 21941,19079 21941,19357 21748,19246 Z"/>
        </g>
       </g>
       <g class="com.sun.star.drawing.PolyPolygonShape">
        <g id="id11">
         <rect class="BoundingBox" stroke="none" fill="none" x="21920" y="19002" width="138" height="376"/>
         <path fill="rgb(127,127,127)" stroke="none" d="M 21941,19357 L 21941,19078 22037,19022 22037,19301 21941,19357 Z"/>
         <path fill="none" stroke="rgb(255,255,255)" stroke-width="40" stroke-linejoin="round" d="M 21941,19357 L 21941,19078 22037,19022 22037,19301 21941,19357 Z"/>
        </g>
       </g>
       <g class="com.sun.star.drawing.PolyPolygonShape">
        <g id="id12">
         <rect class="BoundingBox" stroke="none" fill="none" x="21728" y="18891" width="330" height="209"/>
         <path fill="rgb(127,127,127)" stroke="none" d="M 21748,18967 L 21844,18911 22037,19023 21941,19078 21748,18967 Z"/>
         <path fill="none" stroke="rgb(255,255,255)" stroke-width="40" stroke-linejoin="round" d="M 21748,18967 L 21844,18911 22037,19023 21941,19078 21748,18967 Z"/>
        </g>
       </g>
       <g class="com.sun.star.drawing.PolyPolygonShape">
        <g id="id13">
         <rect class="BoundingBox" stroke="none" fill="none" x="19314" y="17775" width="717" height="431"/>
         <path fill="rgb(190,30,45)" stroke="none" d="M 19721,18185 L 19335,17962 19624,17795 20010,18018 19721,18185 Z"/>
         <path fill="none" stroke="rgb(127,127,127)" stroke-width="40" stroke-linejoin="round" d="M 19721,18185 L 19335,17962 19624,17795 20010,18018 19721,18185 Z"/>
        </g>
       </g>
       <g class="com.sun.star.drawing.PolyPolygonShape">
        <g id="id14">
         <rect class="BoundingBox" stroke="none" fill="none" x="19508" y="17664" width="234" height="431"/>
         <path fill="rgb(127,127,127)" stroke="none" d="M 19528,17963 L 19528,17684 19721,17796 19721,18074 19528,17963 Z"/>
         <path fill="none" stroke="rgb(255,255,255)" stroke-width="40" stroke-linejoin="round" d="M 19528,17963 L 19528,17684 19721,17796 19721,18074 19528,17963 Z"/>
        </g>
       </g>
       <g class="com.sun.star.drawing.PolyPolygonShape">
        <g id="id15">
         <rect class="BoundingBox" stroke="none" fill="none" x="19700" y="17720" width="138" height="376"/>
         <path fill="rgb(127,127,127)" stroke="none" d="M 19721,18075 L 19721,17796 19817,17740 19817,18019 19721,18075 Z"/>
         <path fill="none" stroke="rgb(255,255,255)" stroke-width="40" stroke-linejoin="round" d="M 19721,18075 L 19721,17796 19817,17740 19817,18019 19721,18075 Z"/>
        </g>
       </g>
       <g class="com.sun.star.drawing.PolyPolygonShape">
        <g id="id16">
         <rect class="BoundingBox" stroke="none" fill="none" x="19508" y="17608" width="330" height="209"/>
         <path fill="rgb(127,127,127)" stroke="none" d="M 19528,17684 L 19624,17628 19817,17740 19721,17795 19528,17684 Z"/>
         <path fill="none" stroke="rgb(255,255,255)" stroke-width="40" stroke-linejoin="round" d="M 19528,17684 L 19624,17628 19817,17740 19721,17795 19528,17684 Z"/>
        </g>
       </g>
      </g>
     </g>
    </g>
   </g>
  </g>
 </g>
</svg>