<?xml version="1.0" encoding="UTF-8"?>
<!DOCTYPE svg PUBLIC "-//W3C//DTD SVG 1.1//EN" "http://www.w3.org/Graphics/SVG/1.1/DTD/svg11.dtd">
<svg version="1.2" width="30.38mm" height="34mm" viewBox="14660 14383 3038 3400" preserveAspectRatio="xMidYMid" fill-rule="evenodd" stroke-width="28.222" stroke-linejoin="round" xmlns="http://www.w3.org/2000/svg" xmlns:ooo="http://xml.openoffice.org/svg/export" xmlns:xlink="http://www.w3.org/1999/xlink" xmlns:presentation="http://sun.com/xmlns/staroffice/presentation" xmlns:smil="http://www.w3.org/2001/SMIL20/" xmlns:anim="urn:oasis:names:tc:opendocument:xmlns:animation:1.0" xml:space="preserve">
 <defs class="ClipPathGroup">
  <clipPath id="presentation_clip_path" clipPathUnits="userSpaceOnUse">
   <rect x="14660" y="14383" width="3038" height="3400"/>
  </clipPath>
 </defs>
 <defs class="TextShapeIndex">
  <g ooo:slide="id1" ooo:id-list="id3 id4 id5 id6 id7 id8 id9 id10 id11 id12 id13 id14 id15 id16 id17 id18 id19 id20 id21 id22 id23 id24"/>
 </defs>
 <defs class="EmbeddedBulletChars">
  <g id="bullet-char-template(57356)" transform="scale(0.00048828125,-0.00048828125)">
   <path d="M 580,1141 L 1163,571 580,0 -4,571 580,1141 Z"/>
  </g>
  <g id="bullet-char-template(57354)" transform="scale(0.00048828125,-0.00048828125)">
   <path d="M 8,1128 L 1137,1128 1137,0 8,0 8,1128 Z"/>
  </g>
  <g id="bullet-char-template(10146)" transform="scale(0.00048828125,-0.00048828125)">
   <path d="M 174,0 L 602,739 174,1481 1456,739 174,0 Z M 1358,739 L 309,1346 659,739 1358,739 Z"/>
  </g>
  <g id="bullet-char-template(10132)" transform="scale(0.00048828125,-0.00048828125)">
   <path d="M 2015,739 L 1276,0 717,0 1260,543 174,543 174,936 1260,936 717,1481 1274,1481 2015,739 Z"/>
  </g>
  <g id="bullet-char-template(10007)" transform="scale(0.00048828125,-0.00048828125)">
   <path d="M 0,-2 C -7,14 -16,27 -25,37 L 356,567 C 262,823 215,952 215,954 215,979 228,992 255,992 264,992 276,990 289,987 310,991 331,999 354,1012 L 381,999 492,748 772,1049 836,1024 860,1049 C 881,1039 901,1025 922,1006 886,937 835,863 770,784 769,783 710,716 594,584 L 774,223 C 774,196 753,168 711,139 L 727,119 C 717,90 699,76 672,76 641,76 570,178 457,381 L 164,-76 C 142,-110 111,-127 72,-127 30,-127 9,-110 8,-76 1,-67 -2,-52 -2,-32 -2,-23 -1,-13 0,-2 Z"/>
  </g>
  <g id="bullet-char-template(10004)" transform="scale(0.00048828125,-0.00048828125)">
   <path d="M 285,-33 C 182,-33 111,30 74,156 52,228 41,333 41,471 41,549 55,616 82,672 116,743 169,778 240,778 293,778 328,747 346,684 L 369,508 C 377,444 397,411 428,410 L 1163,1116 C 1174,1127 1196,1133 1229,1133 1271,1133 1292,1118 1292,1087 L 1292,965 C 1292,929 1282,901 1262,881 L 442,47 C 390,-6 338,-33 285,-33 Z"/>
  </g>
  <g id="bullet-char-template(9679)" transform="scale(0.00048828125,-0.00048828125)">
   <path d="M 813,0 C 632,0 489,54 383,161 276,268 223,411 223,592 223,773 276,916 383,1023 489,1130 632,1184 813,1184 992,1184 1136,1130 1245,1023 1353,916 1407,772 1407,592 1407,412 1353,268 1245,161 1136,54 992,0 813,0 Z"/>
  </g>
  <g id="bullet-char-template(8226)" transform="scale(0.00048828125,-0.00048828125)">
   <path d="M 346,457 C 273,457 209,483 155,535 101,586 74,649 74,723 74,796 101,859 155,911 209,963 273,989 346,989 419,989 480,963 531,910 582,859 608,796 608,723 608,648 583,586 532,535 482,483 420,457 346,457 Z"/>
  </g>
  <g id="bullet-char-template(8211)" transform="scale(0.00048828125,-0.00048828125)">
   <path d="M -4,459 L 1135,459 1135,606 -4,606 -4,459 Z"/>
  </g>
 </defs>
 <defs class="TextEmbeddedBitmaps"/>
 <g class="SlideGroup">
  <g>
   <g id="id1" class="Slide" clip-path="url(#presentation_clip_path)">
    <g class="Page">
     <g class="Group">
      <g class="com.sun.star.drawing.ClosedBezierShape">
       <g id="id3">
        <rect class="BoundingBox" stroke="none" fill="none" x="16619" y="16953" width="1080" height="812"/>
        <path fill="rgb(221,221,221)" stroke="none" d="M 16620,17763 C 16972,17763 17697,17514 17697,17390 17697,17265 17482,16954 17266,16954 17266,17176 16620,17466 16620,17763 Z"/>
        <path fill="none" stroke="rgb(221,221,221)" d="M 16620,17763 C 16972,17763 17697,17514 17697,17390 17697,17265 17482,16954 17266,16954 17266,17176 16620,17466 16620,17763 Z"/>
       </g>
      </g>
      <g class="Group">
       <g class="com.sun.star.drawing.PolyPolygonShape">
        <g id="id4">
         <rect class="BoundingBox" stroke="none" fill="none" x="14873" y="16111" width="1768" height="1673"/>
         <g>
          <defs>
           <linearGradient id="gradient1" x1="14893" y1="16947" x2="16620" y2="16947" gradientUnits="userSpaceOnUse">
            <stop offset="0.1" style="stop-color:rgb(179,179,179)"/>
            <stop offset="1" style="stop-color:rgb(229,229,229)"/>
           </linearGradient>
          </defs>
          <path style="fill:url(#gradient1)" d="M 14893,16725 L 14893,16132 16620,17141 16620,17763 14893,16725 Z"/>
         </g>
         <path fill="none" stroke="rgb(255,255,255)" stroke-width="40" stroke-linejoin="round" d="M 14893,16725 L 14893,16132 16620,17141 16620,17763 14893,16725 Z"/>
        </g>
       </g>
       <g class="com.sun.star.drawing.PolyPolygonShape">
        <g id="id5">
         <rect class="BoundingBox" stroke="none" fill="none" x="16384" y="17245" width="149" height="352"/>
         <path fill="rgb(127,127,127)" stroke="none" d="M 16404,17514 L 16404,17265 16512,17327 16512,17576 16404,17514 Z"/>
         <path fill="none" stroke="rgb(0,0,0)" stroke-width="40" stroke-linejoin="round" d="M 16404,17514 L 16404,17265 16512,17327 16512,17576 16404,17514 Z"/>
        </g>
       </g>
       <g class="com.sun.star.drawing.PolyPolygonShape">
        <g id="id6">
         <rect class="BoundingBox" stroke="none" fill="none" x="16169" y="17121" width="149" height="352"/>
         <path fill="rgb(127,127,127)" stroke="none" d="M 16189,17390 L 16189,17141 16297,17203 16297,17452 16189,17390 Z"/>
         <path fill="none" stroke="rgb(0,0,0)" stroke-width="40" stroke-linejoin="round" d="M 16189,17390 L 16189,17141 16297,17203 16297,17452 16189,17390 Z"/>
        </g>
       </g>
       <g class="com.sun.star.drawing.PolyPolygonShape">
        <g id="id7">
         <rect class="BoundingBox" stroke="none" fill="none" x="15953" y="16996" width="149" height="352"/>
         <path fill="rgb(127,127,127)" stroke="none" d="M 15973,17265 L 15973,17016 16081,17078 16081,17327 15973,17265 Z"/>
         <path fill="none" stroke="rgb(0,0,0)" stroke-width="40" stroke-linejoin="round" d="M 15973,17265 L 15973,17016 16081,17078 16081,17327 15973,17265 Z"/>
        </g>
       </g>
       <g class="com.sun.star.drawing.PolyPolygonShape">
        <g id="id8">
         <rect class="BoundingBox" stroke="none" fill="none" x="15737" y="16872" width="150" height="352"/>
         <path fill="rgb(127,127,127)" stroke="none" d="M 15758,17141 L 15758,16892 15866,16954 15866,17203 15758,17141 Z"/>
         <path fill="none" stroke="rgb(0,0,0)" stroke-width="40" stroke-linejoin="round" d="M 15758,17141 L 15758,16892 15866,16954 15866,17203 15758,17141 Z"/>
        </g>
       </g>
       <g class="com.sun.star.drawing.PolyPolygonShape">
        <g id="id9">
         <rect class="BoundingBox" stroke="none" fill="none" x="15521" y="16747" width="150" height="352"/>
         <path fill="rgb(127,127,127)" stroke="none" d="M 15542,17016 L 15542,16767 15650,16829 15650,17078 15542,17016 Z"/>
         <path fill="none" stroke="rgb(0,0,0)" stroke-width="40" stroke-linejoin="round" d="M 15542,17016 L 15542,16767 15650,16829 15650,17078 15542,17016 Z"/>
        </g>
       </g>
       <g class="com.sun.star.drawing.PolyPolygonShape">
        <g id="id10">
         <rect class="BoundingBox" stroke="none" fill="none" x="15307" y="16623" width="149" height="352"/>
         <path fill="rgb(127,127,127)" stroke="none" d="M 15327,16892 L 15327,16643 15435,16705 15435,16954 15327,16892 Z"/>
         <path fill="none" stroke="rgb(0,0,0)" stroke-width="40" stroke-linejoin="round" d="M 15327,16892 L 15327,16643 15435,16705 15435,16954 15327,16892 Z"/>
        </g>
       </g>
       <g class="com.sun.star.drawing.PolyPolygonShape">
        <g id="id11">
         <rect class="BoundingBox" stroke="none" fill="none" x="14660" y="15192" width="1981" height="1161"/>
         <g>
          <defs>
           <linearGradient id="gradient2" x1="15650" y1="15212" x2="15650" y2="16332" gradientUnits="userSpaceOnUse">
            <stop offset="0.1" style="stop-color:rgb(179,179,179)"/>
            <stop offset="1" style="stop-color:rgb(229,229,229)"/>
           </linearGradient>
          </defs>
          <path style="fill:url(#gradient2)" d="M 16404,16332 L 14680,15336 14896,15212 16620,16208 16404,16332 Z"/>
         </g>
         <path fill="none" stroke="rgb(255,255,255)" stroke-width="40" stroke-linejoin="round" d="M 16404,16332 L 14680,15336 14896,15212 16620,16208 16404,16332 Z"/>
        </g>
       </g>
       <g class="com.sun.star.drawing.PolyPolygonShape">
        <g id="id12">
         <rect class="BoundingBox" stroke="none" fill="none" x="14660" y="15316" width="1765" height="1970"/>
         <g>
          <defs>
           <linearGradient id="gradient3" x1="14679" y1="16300" x2="16406" y2="16300" gradientUnits="userSpaceOnUse">
            <stop offset="0.1" style="stop-color:rgb(179,179,179)"/>
            <stop offset="1" style="stop-color:rgb(229,229,229)"/>
           </linearGradient>
          </defs>
          <path style="fill:url(#gradient3)" d="M 14680,16269 L 14680,15336 16404,16332 16404,17265 14680,16269 Z"/>
         </g>
         <path fill="none" stroke="rgb(255,255,255)" stroke-width="40" stroke-linejoin="round" d="M 14680,16269 L 14680,15336 16404,16332 16404,17265 14680,16269 Z"/>
        </g>
       </g>
       <g class="com.sun.star.drawing.PolyPolygonShape">
        <g id="id13">
         <rect class="BoundingBox" stroke="none" fill="none" x="16384" y="15378" width="903" height="2406"/>
         <g>
          <defs>
           <pattern id="pattern1" x="16404" y="15399" width="863" height="2365" patternUnits="userSpaceOnUse">
            <g transform="translate(-16404,-15399)">
             <path fill="rgb(179,179,179)" stroke="none" d="M 16403,15398 L 17267,15398 17267,17764 16403,17764 16403,15398 Z M 16239,14949 L 17085,14949 17085,17267 16239,17267 16239,14949 Z"/>
             <path fill="rgb(180,180,180)" stroke="none" d="M 16239,14949 L 17085,14949 17085,17267 16239,17267 16239,14949 Z M 16248,14973 L 17076,14973 17076,17243 16248,17243 16248,14973 Z"/>
             <path fill="rgb(181,181,181)" stroke="none" d="M 16248,14973 L 17076,14973 17076,17243 16248,17243 16248,14973 Z M 16256,14997 L 17068,14997 17068,17219 16256,17219 16256,14997 Z"/>
             <path fill="rgb(182,182,182)" stroke="none" d="M 16256,14997 L 17068,14997 17068,17219 16256,17219 16256,14997 Z M 16265,15020 L 17059,15020 17059,17196 16265,17196 16265,15020 Z"/>
             <path fill="rgb(183,183,183)" stroke="none" d="M 16265,15020 L 17059,15020 17059,17196 16265,17196 16265,15020 Z M 16274,15044 L 17050,15044 17050,17172 16274,17172 16274,15044 Z"/>
             <path fill="rgb(184,184,184)" stroke="none" d="M 16274,15044 L 17050,15044 17050,17172 16274,17172 16274,15044 Z M 16282,15068 L 17042,15068 17042,17148 16282,17148 16282,15068 Z"/>
             <path fill="rgb(185,185,185)" stroke="none" d="M 16282,15068 L 17042,15068 17042,17148 16282,17148 16282,15068 Z M 16291,15091 L 17033,15091 17033,17125 16291,17125 16291,15091 Z"/>
             <path fill="rgb(186,186,186)" stroke="none" d="M 16291,15091 L 17033,15091 17033,17125 16291,17125 16291,15091 Z M 16300,15115 L 17024,15115 17024,17101 16300,17101 16300,15115 Z"/>
             <path fill="rgb(187,187,187)" stroke="none" d="M 16300,15115 L 17024,15115 17024,17101 16300,17101 16300,15115 Z M 16308,15139 L 17016,15139 17016,17077 16308,17077 16308,15139 Z"/>
             <path fill="rgb(188,188,188)" stroke="none" d="M 16308,15139 L 17016,15139 17016,17077 16308,17077 16308,15139 Z M 16317,15162 L 17007,15162 17007,17054 16317,17054 16317,15162 Z"/>
             <path fill="rgb(189,189,189)" stroke="none" d="M 16317,15162 L 17007,15162 17007,17054 16317,17054 16317,15162 Z M 16326,15186 L 16998,15186 16998,17030 16326,17030 16326,15186 Z"/>
             <path fill="rgb(190,190,190)" stroke="none" d="M 16326,15186 L 16998,15186 16998,17030 16326,17030 16326,15186 Z M 16334,15210 L 16990,15210 16990,17006 16334,17006 16334,15210 Z"/>
             <path fill="rgb(191,191,191)" stroke="none" d="M 16334,15210 L 16990,15210 16990,17006 16334,17006 16334,15210 Z M 16343,15233 L 16981,15233 16981,16983 16343,16983 16343,15233 Z"/>
             <path fill="rgb(192,192,192)" stroke="none" d="M 16343,15233 L 16981,15233 16981,16983 16343,16983 16343,15233 Z M 16352,15257 L 16972,15257 16972,16959 16352,16959 16352,15257 Z"/>
             <path fill="rgb(193,193,193)" stroke="none" d="M 16352,15257 L 16972,15257 16972,16959 16352,16959 16352,15257 Z M 16360,15281 L 16964,15281 16964,16935 16360,16935 16360,15281 Z"/>
             <path fill="rgb(194,194,194)" stroke="none" d="M 16360,15281 L 16964,15281 16964,16935 16360,16935 16360,15281 Z M 16369,15304 L 16955,15304 16955,16912 16369,16912 16369,15304 Z"/>
             <path fill="rgb(195,195,195)" stroke="none" d="M 16369,15304 L 16955,15304 16955,16912 16369,16912 16369,15304 Z M 16378,15328 L 16946,15328 16946,16888 16378,16888 16378,15328 Z"/>
             <path fill="rgb(196,196,196)" stroke="none" d="M 16378,15328 L 16946,15328 16946,16888 16378,16888 16378,15328 Z M 16385,15352 L 16938,15352 16938,16864 16385,16864 16385,15352 Z"/>
             <path fill="rgb(197,197,197)" stroke="none" d="M 16385,15352 L 16938,15352 16938,16864 16385,16864 16385,15352 Z M 16394,15375 L 16929,15375 16929,16841 16394,16841 16394,15375 Z"/>
             <path fill="rgb(198,198,198)" stroke="none" d="M 16394,15375 L 16929,15375 16929,16841 16394,16841 16394,15375 Z M 16403,15398 L 16921,15398 16921,16817 16403,16817 16403,15398 Z"/>
             <path fill="rgb(199,199,199)" stroke="none" d="M 16403,15398 L 16921,15398 16921,16817 16403,16817 16403,15398 Z M 16411,15422 L 16912,15422 16912,16793 16411,16793 16411,15422 Z"/>
             <path fill="rgb(200,200,200)" stroke="none" d="M 16411,15422 L 16912,15422 16912,16793 16411,16793 16411,15422 Z M 16420,15445 L 16903,15445 16903,16770 16420,16770 16420,15445 Z"/>
             <path fill="rgb(201,201,201)" stroke="none" d="M 16420,15445 L 16903,15445 16903,16770 16420,16770 16420,15445 Z M 16428,15469 L 16895,15469 16895,16746 16428,16746 16428,15469 Z"/>
             <path fill="rgb(202,202,202)" stroke="none" d="M 16428,15469 L 16895,15469 16895,16746 16428,16746 16428,15469 Z M 16437,15493 L 16886,15493 16886,16722 16437,16722 16437,15493 Z"/>
             <path fill="rgb(203,203,203)" stroke="none" d="M 16437,15493 L 16886,15493 16886,16722 16437,16722 16437,15493 Z M 16446,15516 L 16877,15516 16877,16699 16446,16699 16446,15516 Z"/>
             <path fill="rgb(204,204,204)" stroke="none" d="M 16446,15516 L 16877,15516 16877,16699 16446,16699 16446,15516 Z M 16454,15540 L 16869,15540 16869,16675 16454,16675 16454,15540 Z"/>
             <path fill="rgb(205,205,205)" stroke="none" d="M 16454,15540 L 16869,15540 16869,16675 16454,16675 16454,15540 Z M 16463,15564 L 16860,15564 16860,16651 16463,16651 16463,15564 Z"/>
             <path fill="rgb(206,206,206)" stroke="none" d="M 16463,15564 L 16860,15564 16860,16651 16463,16651 16463,15564 Z M 16472,15587 L 16851,15587 16851,16628 16472,16628 16472,15587 Z"/>
             <path fill="rgb(207,207,207)" stroke="none" d="M 16472,15587 L 16851,15587 16851,16628 16472,16628 16472,15587 Z M 16480,15611 L 16843,15611 16843,16604 16480,16604 16480,15611 Z"/>
             <path fill="rgb(208,208,208)" stroke="none" d="M 16480,15611 L 16843,15611 16843,16604 16480,16604 16480,15611 Z M 16489,15635 L 16834,15635 16834,16580 16489,16580 16489,15635 Z"/>
             <path fill="rgb(209,209,209)" stroke="none" d="M 16489,15635 L 16834,15635 16834,16580 16489,16580 16489,15635 Z M 16498,15658 L 16825,15658 16825,16557 16498,16557 16498,15658 Z"/>
             <path fill="rgb(210,210,210)" stroke="none" d="M 16498,15658 L 16825,15658 16825,16557 16498,16557 16498,15658 Z M 16506,15682 L 16817,15682 16817,16533 16506,16533 16506,15682 Z"/>
             <path fill="rgb(211,211,211)" stroke="none" d="M 16506,15682 L 16817,15682 16817,16533 16506,16533 16506,15682 Z M 16515,15706 L 16808,15706 16808,16509 16515,16509 16515,15706 Z"/>
             <path fill="rgb(212,212,212)" stroke="none" d="M 16515,15706 L 16808,15706 16808,16509 16515,16509 16515,15706 Z M 16524,15729 L 16799,15729 16799,16486 16524,16486 16524,15729 Z"/>
             <path fill="rgb(213,213,213)" stroke="none" d="M 16524,15729 L 16799,15729 16799,16486 16524,16486 16524,15729 Z M 16532,15753 L 16791,15753 16791,16462 16532,16462 16532,15753 Z"/>
             <path fill="rgb(214,214,214)" stroke="none" d="M 16532,15753 L 16791,15753 16791,16462 16532,16462 16532,15753 Z M 16541,15777 L 16782,15777 16782,16438 16541,16438 16541,15777 Z"/>
             <path fill="rgb(215,215,215)" stroke="none" d="M 16541,15777 L 16782,15777 16782,16438 16541,16438 16541,15777 Z M 16550,15800 L 16773,15800 16773,16415 16550,16415 16550,15800 Z"/>
             <path fill="rgb(216,216,216)" stroke="none" d="M 16550,15800 L 16773,15800 16773,16415 16550,16415 16550,15800 Z M 16558,15824 L 16765,15824 16765,16391 16558,16391 16558,15824 Z"/>
             <path fill="rgb(217,217,217)" stroke="none" d="M 16558,15824 L 16765,15824 16765,16391 16558,16391 16558,15824 Z M 16567,15848 L 16756,15848 16756,16367 16567,16367 16567,15848 Z"/>
             <path fill="rgb(218,218,218)" stroke="none" d="M 16567,15848 L 16756,15848 16756,16367 16567,16367 16567,15848 Z M 16576,15871 L 16748,15871 16748,16344 16576,16344 16576,15871 Z"/>
             <path fill="rgb(219,219,219)" stroke="none" d="M 16576,15871 L 16748,15871 16748,16344 16576,16344 16576,15871 Z M 16584,15895 L 16739,15895 16739,16320 16584,16320 16584,15895 Z"/>
             <path fill="rgb(220,220,220)" stroke="none" d="M 16584,15895 L 16739,15895 16739,16320 16584,16320 16584,15895 Z M 16593,15919 L 16730,15919 16730,16296 16593,16296 16593,15919 Z"/>
             <path fill="rgb(221,221,221)" stroke="none" d="M 16593,15919 L 16730,15919 16730,16296 16593,16296 16593,15919 Z M 16601,15942 L 16722,15942 16722,16273 16601,16273 16601,15942 Z"/>
             <path fill="rgb(222,222,222)" stroke="none" d="M 16601,15942 L 16722,15942 16722,16273 16601,16273 16601,15942 Z M 16610,15966 L 16713,15966 16713,16249 16610,16249 16610,15966 Z"/>
             <path fill="rgb(223,223,223)" stroke="none" d="M 16610,15966 L 16713,15966 16713,16249 16610,16249 16610,15966 Z M 16619,15990 L 16704,15990 16704,16225 16619,16225 16619,15990 Z"/>
             <path fill="rgb(224,224,224)" stroke="none" d="M 16619,15990 L 16704,15990 16704,16225 16619,16225 16619,15990 Z M 16627,16013 L 16696,16013 16696,16202 16627,16202 16627,16013 Z"/>
             <path fill="rgb(225,225,225)" stroke="none" d="M 16627,16013 L 16696,16013 16696,16202 16627,16202 16627,16013 Z M 16636,16037 L 16687,16037 16687,16178 16636,16178 16636,16037 Z"/>
             <path fill="rgb(226,226,226)" stroke="none" d="M 16636,16037 L 16687,16037 16687,16178 16636,16178 16636,16037 Z M 16645,16061 L 16678,16061 16678,16154 16645,16154 16645,16061 Z"/>
             <path fill="rgb(227,227,227)" stroke="none" d="M 16645,16061 L 16678,16061 16678,16154 16645,16154 16645,16061 Z M 16653,16084 L 16670,16084 16670,16131 16653,16131 16653,16084 Z"/>
             <path fill="rgb(229,229,229)" stroke="none" d="M 16653,16084 L 16670,16084 16670,16131 16653,16131 16653,16084 Z"/>
            </g>
           </pattern>
          </defs>
          <path style="fill:url(#pattern1)" d="M 16620,17763 L 16620,17141 16404,17266 16404,16332 16620,16208 16620,15772 17266,15399 17266,17390 16620,17763 Z"/>
         </g>
         <path fill="none" stroke="rgb(255,255,255)" stroke-width="40" stroke-linejoin="round" d="M 16620,17763 L 16620,17141 16404,17266 16404,16332 16620,16208 16620,15772 17266,15399 17266,17390 16620,17763 Z"/>
        </g>
       </g>
       <g class="com.sun.star.drawing.PolyPolygonShape">
        <g id="id14">
         <rect class="BoundingBox" stroke="none" fill="none" x="14876" y="14383" width="2412" height="1410"/>
         <g>
          <defs>
           <linearGradient id="gradient4" x1="16081" y1="14403" x2="16081" y2="15772" gradientUnits="userSpaceOnUse">
            <stop offset="0.1" style="stop-color:rgb(179,179,179)"/>
            <stop offset="1" style="stop-color:rgb(229,229,229)"/>
           </linearGradient>
          </defs>
          <path style="fill:url(#gradient4)" d="M 16620,15772 L 14896,14776 15542,14403 17267,15399 16620,15772 Z"/>
         </g>
         <path fill="none" stroke="rgb(255,255,255)" stroke-width="40" stroke-linejoin="round" d="M 16620,15772 L 14896,14776 15542,14403 17267,15399 16620,15772 Z"/>
        </g>
       </g>
       <g class="com.sun.star.drawing.PolyPolygonShape">
        <g id="id15">
         <rect class="BoundingBox" stroke="none" fill="none" x="14876" y="14756" width="1765" height="1472"/>
         <g>
          <defs>
           <linearGradient id="gradient5" x1="14896" y1="15491" x2="16621" y2="15491" gradientUnits="userSpaceOnUse">
            <stop offset="0.1" style="stop-color:rgb(179,179,179)"/>
            <stop offset="1" style="stop-color:rgb(229,229,229)"/>
           </linearGradient>
          </defs>
          <path style="fill:url(#gradient5)" d="M 14896,15212 L 14896,14776 16620,15772 16620,16207 14896,15212 Z"/>
         </g>
         <path fill="none" stroke="rgb(255,255,255)" stroke-width="40" stroke-linejoin="round" d="M 14896,15212 L 14896,14776 16620,15772 16620,16207 14896,15212 Z"/>
        </g>
       </g>
       <g class="com.sun.star.drawing.PolyPolygonShape">
        <g id="id16">
         <rect class="BoundingBox" stroke="none" fill="none" x="14659" y="14383" width="2629" height="3401"/>
         <path fill="none" stroke="rgb(0,0,0)" stroke-width="40" stroke-linejoin="round" d="M 14893,16725 L 14896,16394 14680,16270 14680,15336 14896,15212 14896,14776 15542,14403 17267,15399 17267,17390 16620,17763 14893,16725 Z"/>
        </g>
       </g>
       <g class="com.sun.star.drawing.PolyPolygonShape">
        <g id="id17">
         <rect class="BoundingBox" stroke="none" fill="none" x="15307" y="16373" width="149" height="229"/>
         <path fill="rgb(255,255,255)" stroke="none" d="M 15327,16518 L 15327,16394 15435,16456 15435,16581 15327,16518 Z"/>
         <path fill="none" stroke="rgb(127,127,127)" stroke-width="40" stroke-linejoin="round" d="M 15327,16518 L 15327,16394 15435,16456 15435,16581 15327,16518 Z"/>
        </g>
       </g>
       <g class="com.sun.star.drawing.PolyPolygonShape">
        <g id="id18">
         <rect class="BoundingBox" stroke="none" fill="none" x="15629" y="16560" width="150" height="229"/>
         <path fill="rgb(255,255,255)" stroke="none" d="M 15650,16705 L 15650,16581 15758,16643 15758,16768 15650,16705 Z"/>
         <path fill="none" stroke="rgb(127,127,127)" stroke-width="40" stroke-linejoin="round" d="M 15650,16705 L 15650,16581 15758,16643 15758,16768 15650,16705 Z"/>
        </g>
       </g>
       <g class="com.sun.star.drawing.PolyPolygonShape">
        <g id="id19">
         <rect class="BoundingBox" stroke="none" fill="none" x="14767" y="15503" width="1334" height="1223"/>
         <g>
          <defs>
           <linearGradient id="gradient6" x1="14786" y1="16114" x2="16080" y2="16114" gradientUnits="userSpaceOnUse">
            <stop offset="0.1" style="stop-color:rgb(147,212,240)"/>
            <stop offset="1" style="stop-color:rgb(233,246,252)"/>
           </linearGradient>
          </defs>
          <path style="fill:url(#gradient6)" d="M 14787,15959 L 14787,15523 16080,16270 16080,16705 14787,15959 Z"/>
         </g>
         <path fill="none" stroke="rgb(127,127,127)" stroke-width="40" stroke-linejoin="round" d="M 14787,15959 L 14787,15523 16080,16270 16080,16705 14787,15959 Z"/>
        </g>
       </g>
       <g class="com.sun.star.drawing.PolyPolygonShape">
        <g id="id20">
         <rect class="BoundingBox" stroke="none" fill="none" x="16169" y="16311" width="149" height="229"/>
         <path fill="rgb(116,203,128)" stroke="none" d="M 16189,16456 L 16189,16332 16297,16394 16297,16519 16189,16456 Z"/>
         <path fill="none" stroke="rgb(127,127,127)" stroke-width="40" stroke-linejoin="round" d="M 16189,16456 L 16189,16332 16297,16394 16297,16519 16189,16456 Z"/>
        </g>
       </g>
       <g class="com.sun.star.drawing.PolyPolygonShape">
        <g id="id21">
         <rect class="BoundingBox" stroke="none" fill="none" x="14983" y="14942" width="149" height="291"/>
         <path fill="rgb(0,0,0)" stroke="none" d="M 15003,15150 L 15003,14963 15111,15025 15111,15212 15003,15150 Z"/>
         <path fill="none" stroke="rgb(127,127,127)" stroke-width="40" stroke-linejoin="round" d="M 15003,15150 L 15003,14963 15111,15025 15111,15212 15003,15150 Z"/>
        </g>
       </g>
       <g class="com.sun.star.drawing.PolyPolygonShape">
        <g id="id22">
         <rect class="BoundingBox" stroke="none" fill="none" x="15197" y="15066" width="150" height="291"/>
         <path fill="rgb(0,0,0)" stroke="none" d="M 15218,15274 L 15218,15087 15326,15149 15326,15336 15218,15274 Z"/>
         <path fill="none" stroke="rgb(127,127,127)" stroke-width="40" stroke-linejoin="round" d="M 15218,15274 L 15218,15087 15326,15149 15326,15336 15218,15274 Z"/>
        </g>
       </g>
       <g class="com.sun.star.drawing.PolyPolygonShape">
        <g id="id23">
         <rect class="BoundingBox" stroke="none" fill="none" x="15413" y="15191" width="150" height="291"/>
         <path fill="rgb(0,0,0)" stroke="none" d="M 15434,15399 L 15434,15212 15542,15274 15542,15461 15434,15399 Z"/>
         <path fill="none" stroke="rgb(127,127,127)" stroke-width="40" stroke-linejoin="round" d="M 15434,15399 L 15434,15212 15542,15274 15542,15461 15434,15399 Z"/>
        </g>
       </g>
       <g class="com.sun.star.drawing.PolyPolygonShape">
        <g id="id24">
         <rect class="BoundingBox" stroke="none" fill="none" x="15953" y="16747" width="149" height="228"/>
         <path fill="rgb(255,255,255)" stroke="none" d="M 15973,16891 L 15973,16767 16081,16829 16081,16954 15973,16891 Z"/>
         <path fill="none" stroke="rgb(127,127,127)" stroke-width="40" stroke-linejoin="round" d="M 15973,16891 L 15973,16767 16081,16829 16081,16954 15973,16891 Z"/>
        </g>
       </g>
      </g>
     </g>
    </g>
   </g>
  </g>
 </g>
</svg>