<?xml version="1.0" encoding="UTF-8"?>
<!DOCTYPE svg PUBLIC "-//W3C//DTD SVG 1.1//EN" "http://www.w3.org/Graphics/SVG/1.1/DTD/svg11.dtd">
<svg version="1.2" width="25.95mm" height="27mm" viewBox="9137 17727 2595 2700" preserveAspectRatio="xMidYMid" fill-rule="evenodd" stroke-width="28.222" stroke-linejoin="round" xmlns="http://www.w3.org/2000/svg" xmlns:ooo="http://xml.openoffice.org/svg/export" xmlns:xlink="http://www.w3.org/1999/xlink" xmlns:presentation="http://sun.com/xmlns/staroffice/presentation" xmlns:smil="http://www.w3.org/2001/SMIL20/" xmlns:anim="urn:oasis:names:tc:opendocument:xmlns:animation:1.0" xml:space="preserve">
 <defs class="ClipPathGroup">
  <clipPath id="presentation_clip_path" clipPathUnits="userSpaceOnUse">
   <rect x="9137" y="17727" width="2595" height="2700"/>
  </clipPath>
 </defs>
 <defs class="TextShapeIndex">
  <g ooo:slide="id1" ooo:id-list="id3 id4 id5 id6 id7 id8 id9 id10 id11 id12 id13 id14"/>
 </defs>
 <defs class="EmbeddedBulletChars">
  <g id="bullet-char-template(57356)" transform="scale(0.00048828125,-0.00048828125)">
   <path d="M 580,1141 L 1163,571 580,0 -4,571 580,1141 Z"/>
  </g>
  <g id="bullet-char-template(57354)" transform="scale(0.00048828125,-0.00048828125)">
   <path d="M 8,1128 L 1137,1128 1137,0 8,0 8,1128 Z"/>
  </g>
  <g id="bullet-char-template(10146)" transform="scale(0.00048828125,-0.00048828125)">
   <path d="M 174,0 L 602,739 174,1481 1456,739 174,0 Z M 1358,739 L 309,1346 659,739 1358,739 Z"/>
  </g>
  <g id="bullet-char-template(10132)" transform="scale(0.00048828125,-0.00048828125)">
   <path d="M 2015,739 L 1276,0 717,0 1260,543 174,543 174,936 1260,936 717,1481 1274,1481 2015,739 Z"/>
  </g>
  <g id="bullet-char-template(10007)" transform="scale(0.00048828125,-0.00048828125)">
   <path d="M 0,-2 C -7,14 -16,27 -25,37 L 356,567 C 262,823 215,952 215,954 215,979 228,992 255,992 264,992 276,990 289,987 310,991 331,999 354,1012 L 381,999 492,748 772,1049 836,1024 860,1049 C 881,1039 901,1025 922,1006 886,937 835,863 770,784 769,783 710,716 594,584 L 774,223 C 774,196 753,168 711,139 L 727,119 C 717,90 699,76 672,76 641,76 570,178 457,381 L 164,-76 C 142,-110 111,-127 72,-127 30,-127 9,-110 8,-76 1,-67 -2,-52 -2,-32 -2,-23 -1,-13 0,-2 Z"/>
  </g>
  <g id="bullet-char-template(10004)" transform="scale(0.00048828125,-0.00048828125)">
   <path d="M 285,-33 C 182,-33 111,30 74,156 52,228 41,333 41,471 41,549 55,616 82,672 116,743 169,778 240,778 293,778 328,747 346,684 L 369,508 C 377,444 397,411 428,410 L 1163,1116 C 1174,1127 1196,1133 1229,1133 1271,1133 1292,1118 1292,1087 L 1292,965 C 1292,929 1282,901 1262,881 L 442,47 C 390,-6 338,-33 285,-33 Z"/>
  </g>
  <g id="bullet-char-template(9679)" transform="scale(0.00048828125,-0.00048828125)">
   <path d="M 813,0 C 632,0 489,54 383,161 276,268 223,411 223,592 223,773 276,916 383,1023 489,1130 632,1184 813,1184 992,1184 1136,1130 1245,1023 1353,916 1407,772 1407,592 1407,412 1353,268 1245,161 1136,54 992,0 813,0 Z"/>
  </g>
  <g id="bullet-char-template(8226)" transform="scale(0.00048828125,-0.00048828125)">
   <path d="M 346,457 C 273,457 209,483 155,535 101,586 74,649 74,723 74,796 101,859 155,911 209,963 273,989 346,989 419,989 480,963 531,910 582,859 608,796 608,723 608,648 583,586 532,535 482,483 420,457 346,457 Z"/>
  </g>
  <g id="bullet-char-template(8211)" transform="scale(0.00048828125,-0.00048828125)">
   <path d="M -4,459 L 1135,459 1135,606 -4,606 -4,459 Z"/>
  </g>
 </defs>
 <defs class="TextEmbeddedBitmaps"/>
 <g class="SlideGroup">
  <g>
   <g id="id1" class="Slide" clip-path="url(#presentation_clip_path)">
    <g class="Page">
     <g class="Group">
      <g class="com.sun.star.drawing.ClosedBezierShape">
       <g id="id3">
        <rect class="BoundingBox" stroke="none" fill="none" x="10612" y="19426" width="1121" height="843"/>
        <path fill="rgb(221,221,221)" stroke="none" d="M 10613,20267 C 11088,20267 11583,19987 11704,19777 11825,19567 11513,19427 11340,19427 11340,19727 10613,19866 10613,20267 Z"/>
        <path fill="none" stroke="rgb(221,221,221)" d="M 10613,20267 C 11088,20267 11583,19987 11704,19777 11825,19567 11513,19427 11340,19427 11340,19727 10613,19866 10613,20267 Z"/>
       </g>
      </g>
      <g class="Group">
       <g class="com.sun.star.drawing.PolyPolygonShape">
        <g id="id4">
         <rect class="BoundingBox" stroke="none" fill="none" x="10350" y="18357" width="1011" height="1861"/>
         <g>
          <defs>
           <pattern id="pattern1" x="10371" y="18377" width="970" height="1821" patternUnits="userSpaceOnUse">
            <g transform="translate(-10371,-18377)">
             <path fill="rgb(51,51,51)" stroke="none" d="M 10370,18376 L 11341,18376 11341,20198 10370,20198 10370,18376 Z M 10180,18020 L 11141,18020 11141,19824 10180,19824 10180,18020 Z"/>
             <path fill="rgb(52,52,52)" stroke="none" d="M 10180,18020 L 11141,18020 11141,19824 10180,19824 10180,18020 Z M 10185,18029 L 11136,18029 11136,19815 10185,19815 10185,18029 Z"/>
             <path fill="rgb(53,53,53)" stroke="none" d="M 10185,18029 L 11136,18029 11136,19815 10185,19815 10185,18029 Z M 10190,18038 L 11131,18038 11131,19806 10190,19806 10190,18038 Z"/>
             <path fill="rgb(54,54,54)" stroke="none" d="M 10190,18038 L 11131,18038 11131,19806 10190,19806 10190,18038 Z M 10195,18047 L 11126,18047 11126,19797 10195,19797 10195,18047 Z"/>
             <path fill="rgb(55,55,55)" stroke="none" d="M 10195,18047 L 11126,18047 11126,19797 10195,19797 10195,18047 Z M 10199,18056 L 11122,18056 11122,19788 10199,19788 10199,18056 Z"/>
             <path fill="rgb(56,56,56)" stroke="none" d="M 10199,18056 L 11122,18056 11122,19788 10199,19788 10199,18056 Z M 10204,18065 L 11117,18065 11117,19779 10204,19779 10204,18065 Z"/>
             <path fill="rgb(57,57,57)" stroke="none" d="M 10204,18065 L 11117,18065 11117,19779 10204,19779 10204,18065 Z M 10209,18074 L 11112,18074 11112,19770 10209,19770 10209,18074 Z"/>
             <path fill="rgb(58,58,58)" stroke="none" d="M 10209,18074 L 11112,18074 11112,19770 10209,19770 10209,18074 Z M 10214,18083 L 11107,18083 11107,19761 10214,19761 10214,18083 Z"/>
             <path fill="rgb(59,59,59)" stroke="none" d="M 10214,18083 L 11107,18083 11107,19761 10214,19761 10214,18083 Z M 10218,18092 L 11103,18092 11103,19752 10218,19752 10218,18092 Z"/>
             <path fill="rgb(60,60,60)" stroke="none" d="M 10218,18092 L 11103,18092 11103,19752 10218,19752 10218,18092 Z M 10223,18101 L 11098,18101 11098,19743 10223,19743 10223,18101 Z"/>
             <path fill="rgb(61,61,61)" stroke="none" d="M 10223,18101 L 11098,18101 11098,19743 10223,19743 10223,18101 Z M 10228,18110 L 11093,18110 11093,19734 10228,19734 10228,18110 Z"/>
             <path fill="rgb(62,62,62)" stroke="none" d="M 10228,18110 L 11093,18110 11093,19734 10228,19734 10228,18110 Z M 10233,18119 L 11088,18119 11088,19725 10233,19725 10233,18119 Z"/>
             <path fill="rgb(63,63,63)" stroke="none" d="M 10233,18119 L 11088,18119 11088,19725 10233,19725 10233,18119 Z M 10237,18128 L 11084,18128 11084,19716 10237,19716 10237,18128 Z"/>
             <path fill="rgb(64,64,64)" stroke="none" d="M 10237,18128 L 11084,18128 11084,19716 10237,19716 10237,18128 Z M 10242,18137 L 11079,18137 11079,19707 10242,19707 10242,18137 Z"/>
             <path fill="rgb(65,65,65)" stroke="none" d="M 10242,18137 L 11079,18137 11079,19707 10242,19707 10242,18137 Z M 10247,18146 L 11074,18146 11074,19698 10247,19698 10247,18146 Z"/>
             <path fill="rgb(66,66,66)" stroke="none" d="M 10247,18146 L 11074,18146 11074,19698 10247,19698 10247,18146 Z M 10252,18154 L 11069,18154 11069,19690 10252,19690 10252,18154 Z"/>
             <path fill="rgb(67,67,67)" stroke="none" d="M 10252,18154 L 11069,18154 11069,19690 10252,19690 10252,18154 Z M 10256,18163 L 11065,18163 11065,19681 10256,19681 10256,18163 Z"/>
             <path fill="rgb(68,68,68)" stroke="none" d="M 10256,18163 L 11065,18163 11065,19681 10256,19681 10256,18163 Z M 10261,18172 L 11060,18172 11060,19672 10261,19672 10261,18172 Z"/>
             <path fill="rgb(69,69,69)" stroke="none" d="M 10261,18172 L 11060,18172 11060,19672 10261,19672 10261,18172 Z M 10266,18181 L 11055,18181 11055,19663 10266,19663 10266,18181 Z"/>
             <path fill="rgb(70,70,70)" stroke="none" d="M 10266,18181 L 11055,18181 11055,19663 10266,19663 10266,18181 Z M 10271,18190 L 11050,18190 11050,19654 10271,19654 10271,18190 Z"/>
             <path fill="rgb(71,71,71)" stroke="none" d="M 10271,18190 L 11050,18190 11050,19654 10271,19654 10271,18190 Z M 10276,18199 L 11045,18199 11045,19645 10276,19645 10276,18199 Z"/>
             <path fill="rgb(72,72,72)" stroke="none" d="M 10276,18199 L 11045,18199 11045,19645 10276,19645 10276,18199 Z M 10280,18208 L 11041,18208 11041,19636 10280,19636 10280,18208 Z"/>
             <path fill="rgb(73,73,73)" stroke="none" d="M 10280,18208 L 11041,18208 11041,19636 10280,19636 10280,18208 Z M 10285,18217 L 11036,18217 11036,19627 10285,19627 10285,18217 Z"/>
             <path fill="rgb(74,74,74)" stroke="none" d="M 10285,18217 L 11036,18217 11036,19627 10285,19627 10285,18217 Z M 10290,18226 L 11031,18226 11031,19618 10290,19618 10290,18226 Z"/>
             <path fill="rgb(75,75,75)" stroke="none" d="M 10290,18226 L 11031,18226 11031,19618 10290,19618 10290,18226 Z M 10295,18235 L 11026,18235 11026,19609 10295,19609 10295,18235 Z"/>
             <path fill="rgb(76,76,76)" stroke="none" d="M 10295,18235 L 11026,18235 11026,19609 10295,19609 10295,18235 Z M 10299,18244 L 11022,18244 11022,19600 10299,19600 10299,18244 Z"/>
             <path fill="rgb(77,77,77)" stroke="none" d="M 10299,18244 L 11022,18244 11022,19600 10299,19600 10299,18244 Z M 10304,18253 L 11017,18253 11017,19591 10304,19591 10304,18253 Z"/>
             <path fill="rgb(78,78,78)" stroke="none" d="M 10304,18253 L 11017,18253 11017,19591 10304,19591 10304,18253 Z M 10309,18262 L 11012,18262 11012,19582 10309,19582 10309,18262 Z"/>
             <path fill="rgb(79,79,79)" stroke="none" d="M 10309,18262 L 11012,18262 11012,19582 10309,19582 10309,18262 Z M 10314,18271 L 11007,18271 11007,19573 10314,19573 10314,18271 Z"/>
             <path fill="rgb(80,80,80)" stroke="none" d="M 10314,18271 L 11007,18271 11007,19573 10314,19573 10314,18271 Z M 10318,18280 L 11003,18280 11003,19564 10318,19564 10318,18280 Z"/>
             <path fill="rgb(81,81,81)" stroke="none" d="M 10318,18280 L 11003,18280 11003,19564 10318,19564 10318,18280 Z M 10323,18289 L 10998,18289 10998,19555 10323,19555 10323,18289 Z"/>
             <path fill="rgb(82,82,82)" stroke="none" d="M 10323,18289 L 10998,18289 10998,19555 10323,19555 10323,18289 Z M 10328,18297 L 10993,18297 10993,19547 10328,19547 10328,18297 Z"/>
             <path fill="rgb(83,83,83)" stroke="none" d="M 10328,18297 L 10993,18297 10993,19547 10328,19547 10328,18297 Z M 10333,18306 L 10988,18306 10988,19538 10333,19538 10333,18306 Z"/>
             <path fill="rgb(84,84,84)" stroke="none" d="M 10333,18306 L 10988,18306 10988,19538 10333,19538 10333,18306 Z M 10337,18315 L 10984,18315 10984,19529 10337,19529 10337,18315 Z"/>
             <path fill="rgb(85,85,85)" stroke="none" d="M 10337,18315 L 10984,18315 10984,19529 10337,19529 10337,18315 Z M 10342,18324 L 10979,18324 10979,19520 10342,19520 10342,18324 Z"/>
             <path fill="rgb(86,86,86)" stroke="none" d="M 10342,18324 L 10979,18324 10979,19520 10342,19520 10342,18324 Z M 10347,18333 L 10974,18333 10974,19511 10347,19511 10347,18333 Z"/>
             <path fill="rgb(87,87,87)" stroke="none" d="M 10347,18333 L 10974,18333 10974,19511 10347,19511 10347,18333 Z M 10351,18342 L 10969,18342 10969,19502 10351,19502 10351,18342 Z"/>
             <path fill="rgb(88,88,88)" stroke="none" d="M 10351,18342 L 10969,18342 10969,19502 10351,19502 10351,18342 Z M 10356,18351 L 10964,18351 10964,19493 10356,19493 10356,18351 Z"/>
             <path fill="rgb(89,89,89)" stroke="none" d="M 10356,18351 L 10964,18351 10964,19493 10356,19493 10356,18351 Z M 10360,18359 L 10960,18359 10960,19484 10360,19484 10360,18359 Z"/>
             <path fill="rgb(90,90,90)" stroke="none" d="M 10360,18359 L 10960,18359 10960,19484 10360,19484 10360,18359 Z M 10365,18368 L 10955,18368 10955,19475 10365,19475 10365,18368 Z"/>
             <path fill="rgb(91,91,91)" stroke="none" d="M 10365,18368 L 10955,18368 10955,19475 10365,19475 10365,18368 Z M 10370,18377 L 10950,18377 10950,19466 10370,19466 10370,18377 Z"/>
             <path fill="rgb(92,92,92)" stroke="none" d="M 10370,18377 L 10950,18377 10950,19466 10370,19466 10370,18377 Z M 10375,18386 L 10945,18386 10945,19457 10375,19457 10375,18386 Z"/>
             <path fill="rgb(93,93,93)" stroke="none" d="M 10375,18386 L 10945,18386 10945,19457 10375,19457 10375,18386 Z M 10379,18395 L 10941,18395 10941,19448 10379,19448 10379,18395 Z"/>
             <path fill="rgb(94,94,94)" stroke="none" d="M 10379,18395 L 10941,18395 10941,19448 10379,19448 10379,18395 Z M 10384,18404 L 10936,18404 10936,19439 10384,19439 10384,18404 Z"/>
             <path fill="rgb(95,95,95)" stroke="none" d="M 10384,18404 L 10936,18404 10936,19439 10384,19439 10384,18404 Z M 10389,18413 L 10931,18413 10931,19430 10389,19430 10389,18413 Z"/>
             <path fill="rgb(96,96,96)" stroke="none" d="M 10389,18413 L 10931,18413 10931,19430 10389,19430 10389,18413 Z M 10394,18422 L 10926,18422 10926,19421 10394,19421 10394,18422 Z"/>
             <path fill="rgb(97,97,97)" stroke="none" d="M 10394,18422 L 10926,18422 10926,19421 10394,19421 10394,18422 Z M 10398,18431 L 10922,18431 10922,19412 10398,19412 10398,18431 Z"/>
             <path fill="rgb(98,98,98)" stroke="none" d="M 10398,18431 L 10922,18431 10922,19412 10398,19412 10398,18431 Z M 10403,18439 L 10917,18439 10917,19404 10403,19404 10403,18439 Z"/>
             <path fill="rgb(99,99,99)" stroke="none" d="M 10403,18439 L 10917,18439 10917,19404 10403,19404 10403,18439 Z M 10408,18448 L 10912,18448 10912,19395 10408,19395 10408,18448 Z"/>
             <path fill="rgb(100,100,100)" stroke="none" d="M 10408,18448 L 10912,18448 10912,19395 10408,19395 10408,18448 Z M 10413,18457 L 10907,18457 10907,19386 10413,19386 10413,18457 Z"/>
             <path fill="rgb(101,101,101)" stroke="none" d="M 10413,18457 L 10907,18457 10907,19386 10413,19386 10413,18457 Z M 10417,18466 L 10903,18466 10903,19377 10417,19377 10417,18466 Z"/>
             <path fill="rgb(102,102,102)" stroke="none" d="M 10417,18466 L 10903,18466 10903,19377 10417,19377 10417,18466 Z M 10422,18475 L 10898,18475 10898,19368 10422,19368 10422,18475 Z"/>
             <path fill="rgb(103,103,103)" stroke="none" d="M 10422,18475 L 10898,18475 10898,19368 10422,19368 10422,18475 Z M 10427,18484 L 10893,18484 10893,19359 10427,19359 10427,18484 Z"/>
             <path fill="rgb(104,104,104)" stroke="none" d="M 10427,18484 L 10893,18484 10893,19359 10427,19359 10427,18484 Z M 10432,18493 L 10888,18493 10888,19350 10432,19350 10432,18493 Z"/>
             <path fill="rgb(105,105,105)" stroke="none" d="M 10432,18493 L 10888,18493 10888,19350 10432,19350 10432,18493 Z M 10437,18502 L 10883,18502 10883,19341 10437,19341 10437,18502 Z"/>
             <path fill="rgb(106,106,106)" stroke="none" d="M 10437,18502 L 10883,18502 10883,19341 10437,19341 10437,18502 Z M 10441,18511 L 10879,18511 10879,19332 10441,19332 10441,18511 Z"/>
             <path fill="rgb(107,107,107)" stroke="none" d="M 10441,18511 L 10879,18511 10879,19332 10441,19332 10441,18511 Z M 10446,18520 L 10874,18520 10874,19323 10446,19323 10446,18520 Z"/>
             <path fill="rgb(108,108,108)" stroke="none" d="M 10446,18520 L 10874,18520 10874,19323 10446,19323 10446,18520 Z M 10451,18529 L 10869,18529 10869,19314 10451,19314 10451,18529 Z"/>
             <path fill="rgb(109,109,109)" stroke="none" d="M 10451,18529 L 10869,18529 10869,19314 10451,19314 10451,18529 Z M 10456,18538 L 10864,18538 10864,19305 10456,19305 10456,18538 Z"/>
             <path fill="rgb(110,110,110)" stroke="none" d="M 10456,18538 L 10864,18538 10864,19305 10456,19305 10456,18538 Z M 10460,18547 L 10860,18547 10860,19296 10460,19296 10460,18547 Z"/>
             <path fill="rgb(111,111,111)" stroke="none" d="M 10460,18547 L 10860,18547 10860,19296 10460,19296 10460,18547 Z M 10465,18556 L 10855,18556 10855,19287 10465,19287 10465,18556 Z"/>
             <path fill="rgb(112,112,112)" stroke="none" d="M 10465,18556 L 10855,18556 10855,19287 10465,19287 10465,18556 Z M 10470,18565 L 10850,18565 10850,19278 10470,19278 10470,18565 Z"/>
             <path fill="rgb(113,113,113)" stroke="none" d="M 10470,18565 L 10850,18565 10850,19278 10470,19278 10470,18565 Z M 10475,18573 L 10845,18573 10845,19270 10475,19270 10475,18573 Z"/>
             <path fill="rgb(114,114,114)" stroke="none" d="M 10475,18573 L 10845,18573 10845,19270 10475,19270 10475,18573 Z M 10479,18582 L 10841,18582 10841,19261 10479,19261 10479,18582 Z"/>
             <path fill="rgb(115,115,115)" stroke="none" d="M 10479,18582 L 10841,18582 10841,19261 10479,19261 10479,18582 Z M 10484,18591 L 10836,18591 10836,19252 10484,19252 10484,18591 Z"/>
             <path fill="rgb(116,116,116)" stroke="none" d="M 10484,18591 L 10836,18591 10836,19252 10484,19252 10484,18591 Z M 10489,18600 L 10831,18600 10831,19243 10489,19243 10489,18600 Z"/>
             <path fill="rgb(117,117,117)" stroke="none" d="M 10489,18600 L 10831,18600 10831,19243 10489,19243 10489,18600 Z M 10494,18609 L 10826,18609 10826,19234 10494,19234 10494,18609 Z"/>
             <path fill="rgb(118,118,118)" stroke="none" d="M 10494,18609 L 10826,18609 10826,19234 10494,19234 10494,18609 Z M 10498,18618 L 10822,18618 10822,19225 10498,19225 10498,18618 Z"/>
             <path fill="rgb(119,119,119)" stroke="none" d="M 10498,18618 L 10822,18618 10822,19225 10498,19225 10498,18618 Z M 10503,18627 L 10817,18627 10817,19216 10503,19216 10503,18627 Z"/>
             <path fill="rgb(120,120,120)" stroke="none" d="M 10503,18627 L 10817,18627 10817,19216 10503,19216 10503,18627 Z M 10508,18636 L 10812,18636 10812,19207 10508,19207 10508,18636 Z"/>
             <path fill="rgb(121,121,121)" stroke="none" d="M 10508,18636 L 10812,18636 10812,19207 10508,19207 10508,18636 Z M 10513,18645 L 10807,18645 10807,19198 10513,19198 10513,18645 Z"/>
             <path fill="rgb(122,122,122)" stroke="none" d="M 10513,18645 L 10807,18645 10807,19198 10513,19198 10513,18645 Z M 10518,18654 L 10802,18654 10802,19189 10518,19189 10518,18654 Z"/>
             <path fill="rgb(123,123,123)" stroke="none" d="M 10518,18654 L 10802,18654 10802,19189 10518,19189 10518,18654 Z M 10522,18663 L 10798,18663 10798,19180 10522,19180 10522,18663 Z"/>
             <path fill="rgb(124,124,124)" stroke="none" d="M 10522,18663 L 10798,18663 10798,19180 10522,19180 10522,18663 Z M 10527,18672 L 10793,18672 10793,19171 10527,19171 10527,18672 Z"/>
             <path fill="rgb(125,125,125)" stroke="none" d="M 10527,18672 L 10793,18672 10793,19171 10527,19171 10527,18672 Z M 10532,18681 L 10788,18681 10788,19162 10532,19162 10532,18681 Z"/>
             <path fill="rgb(126,126,126)" stroke="none" d="M 10532,18681 L 10788,18681 10788,19162 10532,19162 10532,18681 Z M 10537,18690 L 10783,18690 10783,19153 10537,19153 10537,18690 Z"/>
             <path fill="rgb(127,127,127)" stroke="none" d="M 10537,18690 L 10783,18690 10783,19153 10537,19153 10537,18690 Z M 10541,18699 L 10779,18699 10779,19144 10541,19144 10541,18699 Z"/>
             <path fill="rgb(128,128,128)" stroke="none" d="M 10541,18699 L 10779,18699 10779,19144 10541,19144 10541,18699 Z M 10546,18708 L 10774,18708 10774,19135 10546,19135 10546,18708 Z"/>
             <path fill="rgb(129,129,129)" stroke="none" d="M 10546,18708 L 10774,18708 10774,19135 10546,19135 10546,18708 Z M 10551,18716 L 10769,18716 10769,19127 10551,19127 10551,18716 Z"/>
             <path fill="rgb(130,130,130)" stroke="none" d="M 10551,18716 L 10769,18716 10769,19127 10551,19127 10551,18716 Z M 10556,18725 L 10764,18725 10764,19118 10556,19118 10556,18725 Z"/>
             <path fill="rgb(131,131,131)" stroke="none" d="M 10556,18725 L 10764,18725 10764,19118 10556,19118 10556,18725 Z M 10560,18734 L 10760,18734 10760,19109 10560,19109 10560,18734 Z"/>
             <path fill="rgb(132,132,132)" stroke="none" d="M 10560,18734 L 10760,18734 10760,19109 10560,19109 10560,18734 Z M 10565,18743 L 10755,18743 10755,19100 10565,19100 10565,18743 Z"/>
             <path fill="rgb(133,133,133)" stroke="none" d="M 10565,18743 L 10755,18743 10755,19100 10565,19100 10565,18743 Z M 10570,18752 L 10750,18752 10750,19091 10570,19091 10570,18752 Z"/>
             <path fill="rgb(134,134,134)" stroke="none" d="M 10570,18752 L 10750,18752 10750,19091 10570,19091 10570,18752 Z M 10575,18761 L 10745,18761 10745,19082 10575,19082 10575,18761 Z"/>
             <path fill="rgb(135,135,135)" stroke="none" d="M 10575,18761 L 10745,18761 10745,19082 10575,19082 10575,18761 Z M 10579,18770 L 10741,18770 10741,19073 10579,19073 10579,18770 Z"/>
             <path fill="rgb(136,136,136)" stroke="none" d="M 10579,18770 L 10741,18770 10741,19073 10579,19073 10579,18770 Z M 10584,18779 L 10736,18779 10736,19064 10584,19064 10584,18779 Z"/>
             <path fill="rgb(137,137,137)" stroke="none" d="M 10584,18779 L 10736,18779 10736,19064 10584,19064 10584,18779 Z M 10589,18788 L 10731,18788 10731,19055 10589,19055 10589,18788 Z"/>
             <path fill="rgb(138,138,138)" stroke="none" d="M 10589,18788 L 10731,18788 10731,19055 10589,19055 10589,18788 Z M 10594,18797 L 10726,18797 10726,19046 10594,19046 10594,18797 Z"/>
             <path fill="rgb(139,139,139)" stroke="none" d="M 10594,18797 L 10726,18797 10726,19046 10594,19046 10594,18797 Z M 10599,18806 L 10721,18806 10721,19037 10599,19037 10599,18806 Z"/>
             <path fill="rgb(140,140,140)" stroke="none" d="M 10599,18806 L 10721,18806 10721,19037 10599,19037 10599,18806 Z M 10603,18815 L 10717,18815 10717,19028 10603,19028 10603,18815 Z"/>
             <path fill="rgb(141,141,141)" stroke="none" d="M 10603,18815 L 10717,18815 10717,19028 10603,19028 10603,18815 Z M 10608,18824 L 10712,18824 10712,19019 10608,19019 10608,18824 Z"/>
             <path fill="rgb(142,142,142)" stroke="none" d="M 10608,18824 L 10712,18824 10712,19019 10608,19019 10608,18824 Z M 10613,18833 L 10707,18833 10707,19010 10613,19010 10613,18833 Z"/>
             <path fill="rgb(143,143,143)" stroke="none" d="M 10613,18833 L 10707,18833 10707,19010 10613,19010 10613,18833 Z M 10618,18842 L 10702,18842 10702,19001 10618,19001 10618,18842 Z"/>
             <path fill="rgb(144,144,144)" stroke="none" d="M 10618,18842 L 10702,18842 10702,19001 10618,19001 10618,18842 Z M 10622,18851 L 10698,18851 10698,18992 10622,18992 10622,18851 Z"/>
             <path fill="rgb(145,145,145)" stroke="none" d="M 10622,18851 L 10698,18851 10698,18992 10622,18992 10622,18851 Z M 10627,18859 L 10693,18859 10693,18984 10627,18984 10627,18859 Z"/>
             <path fill="rgb(146,146,146)" stroke="none" d="M 10627,18859 L 10693,18859 10693,18984 10627,18984 10627,18859 Z M 10632,18868 L 10688,18868 10688,18975 10632,18975 10632,18868 Z"/>
             <path fill="rgb(147,147,147)" stroke="none" d="M 10632,18868 L 10688,18868 10688,18975 10632,18975 10632,18868 Z M 10637,18877 L 10683,18877 10683,18966 10637,18966 10637,18877 Z"/>
             <path fill="rgb(148,148,148)" stroke="none" d="M 10637,18877 L 10683,18877 10683,18966 10637,18966 10637,18877 Z M 10641,18886 L 10679,18886 10679,18957 10641,18957 10641,18886 Z"/>
             <path fill="rgb(149,149,149)" stroke="none" d="M 10641,18886 L 10679,18886 10679,18957 10641,18957 10641,18886 Z M 10646,18895 L 10674,18895 10674,18948 10646,18948 10646,18895 Z"/>
             <path fill="rgb(150,150,150)" stroke="none" d="M 10646,18895 L 10674,18895 10674,18948 10646,18948 10646,18895 Z M 10651,18904 L 10669,18904 10669,18939 10651,18939 10651,18904 Z"/>
             <path fill="rgb(151,151,151)" stroke="none" d="M 10651,18904 L 10669,18904 10669,18939 10651,18939 10651,18904 Z M 10656,18913 L 10664,18913 10664,18930 10656,18930 10656,18913 Z"/>
             <path fill="rgb(153,153,153)" stroke="none" d="M 10656,18913 L 10664,18913 10664,18930 10656,18930 10656,18913 Z"/>
            </g>
           </pattern>
          </defs>
          <path style="fill:url(#pattern1)" d="M 10371,20197 L 10371,18937 11340,18377 11340,19637 10371,20197 Z"/>
         </g>
         <path fill="none" stroke="rgb(178,178,178)" stroke-width="40" stroke-linejoin="round" d="M 10371,20197 L 10371,18937 11340,18377 11340,19637 10371,20197 Z"/>
        </g>
       </g>
       <g class="com.sun.star.drawing.PolyPolygonShape">
        <g id="id5">
         <rect class="BoundingBox" stroke="none" fill="none" x="9258" y="17727" width="2103" height="1231"/>
         <g>
          <defs>
           <linearGradient id="gradient1" x1="10309" y1="17747" x2="10309" y2="18937" gradientUnits="userSpaceOnUse">
            <stop offset="0.1" style="stop-color:rgb(51,51,51)"/>
            <stop offset="1" style="stop-color:rgb(153,153,153)"/>
           </linearGradient>
          </defs>
          <path style="fill:url(#gradient1)" d="M 10370,18937 L 9278,18307 10249,17747 11340,18377 10370,18937 Z"/>
         </g>
         <path fill="none" stroke="rgb(178,178,178)" stroke-width="40" stroke-linejoin="round" d="M 10370,18937 L 9278,18307 10249,17747 11340,18377 10370,18937 Z"/>
        </g>
       </g>
       <g class="com.sun.star.drawing.PolyPolygonShape">
        <g id="id6">
         <rect class="BoundingBox" stroke="none" fill="none" x="10472" y="18777" width="162" height="1651"/>
         <g>
          <defs>
           <pattern id="pattern2" x="10492" y="18797" width="122" height="1611" patternUnits="userSpaceOnUse">
            <g transform="translate(-10492,-18797)">
             <path fill="rgb(51,51,51)" stroke="none" d="M 10491,18796 L 10614,18796 10614,20408 10491,20408 10491,18796 Z M 10467,18481 L 10588,18481 10588,20077 10467,20077 10467,18481 Z"/>
             <path fill="rgb(52,52,52)" stroke="none" d="M 10467,18481 L 10588,18481 10588,20077 10467,20077 10467,18481 Z M 10468,18489 L 10587,18489 10587,20069 10468,20069 10468,18489 Z"/>
             <path fill="rgb(53,53,53)" stroke="none" d="M 10468,18489 L 10587,18489 10587,20069 10468,20069 10468,18489 Z M 10468,18497 L 10587,18497 10587,20061 10468,20061 10468,18497 Z"/>
             <path fill="rgb(54,54,54)" stroke="none" d="M 10468,18497 L 10587,18497 10587,20061 10468,20061 10468,18497 Z M 10469,18505 L 10586,18505 10586,20053 10469,20053 10469,18505 Z"/>
             <path fill="rgb(55,55,55)" stroke="none" d="M 10469,18505 L 10586,18505 10586,20053 10469,20053 10469,18505 Z M 10470,18513 L 10585,18513 10585,20045 10470,20045 10470,18513 Z"/>
             <path fill="rgb(56,56,56)" stroke="none" d="M 10470,18513 L 10585,18513 10585,20045 10470,20045 10470,18513 Z M 10470,18521 L 10585,18521 10585,20037 10470,20037 10470,18521 Z"/>
             <path fill="rgb(57,57,57)" stroke="none" d="M 10470,18521 L 10585,18521 10585,20037 10470,20037 10470,18521 Z M 10471,18529 L 10584,18529 10584,20029 10471,20029 10471,18529 Z"/>
             <path fill="rgb(58,58,58)" stroke="none" d="M 10471,18529 L 10584,18529 10584,20029 10471,20029 10471,18529 Z M 10471,18537 L 10584,18537 10584,20021 10471,20021 10471,18537 Z"/>
             <path fill="rgb(59,59,59)" stroke="none" d="M 10471,18537 L 10584,18537 10584,20021 10471,20021 10471,18537 Z M 10472,18545 L 10583,18545 10583,20013 10472,20013 10472,18545 Z"/>
             <path fill="rgb(60,60,60)" stroke="none" d="M 10472,18545 L 10583,18545 10583,20013 10472,20013 10472,18545 Z M 10472,18553 L 10582,18553 10582,20005 10472,20005 10472,18553 Z"/>
             <path fill="rgb(61,61,61)" stroke="none" d="M 10472,18553 L 10582,18553 10582,20005 10472,20005 10472,18553 Z M 10472,18560 L 10582,18560 10582,19998 10472,19998 10472,18560 Z"/>
             <path fill="rgb(62,62,62)" stroke="none" d="M 10472,18560 L 10582,18560 10582,19998 10472,19998 10472,18560 Z M 10473,18568 L 10581,18568 10581,19990 10473,19990 10473,18568 Z"/>
             <path fill="rgb(63,63,63)" stroke="none" d="M 10473,18568 L 10581,18568 10581,19990 10473,19990 10473,18568 Z M 10473,18576 L 10581,18576 10581,19982 10473,19982 10473,18576 Z"/>
             <path fill="rgb(64,64,64)" stroke="none" d="M 10473,18576 L 10581,18576 10581,19982 10473,19982 10473,18576 Z M 10474,18584 L 10580,18584 10580,19974 10474,19974 10474,18584 Z"/>
             <path fill="rgb(65,65,65)" stroke="none" d="M 10474,18584 L 10580,18584 10580,19974 10474,19974 10474,18584 Z M 10475,18592 L 10579,18592 10579,19966 10475,19966 10475,18592 Z"/>
             <path fill="rgb(66,66,66)" stroke="none" d="M 10475,18592 L 10579,18592 10579,19966 10475,19966 10475,18592 Z M 10475,18600 L 10579,18600 10579,19958 10475,19958 10475,18600 Z"/>
             <path fill="rgb(67,67,67)" stroke="none" d="M 10475,18600 L 10579,18600 10579,19958 10475,19958 10475,18600 Z M 10476,18608 L 10578,18608 10578,19950 10476,19950 10476,18608 Z"/>
             <path fill="rgb(68,68,68)" stroke="none" d="M 10476,18608 L 10578,18608 10578,19950 10476,19950 10476,18608 Z M 10476,18616 L 10578,18616 10578,19942 10476,19942 10476,18616 Z"/>
             <path fill="rgb(69,69,69)" stroke="none" d="M 10476,18616 L 10578,18616 10578,19942 10476,19942 10476,18616 Z M 10477,18624 L 10577,18624 10577,19934 10477,19934 10477,18624 Z"/>
             <path fill="rgb(70,70,70)" stroke="none" d="M 10477,18624 L 10577,18624 10577,19934 10477,19934 10477,18624 Z M 10478,18632 L 10576,18632 10576,19926 10478,19926 10478,18632 Z"/>
             <path fill="rgb(71,71,71)" stroke="none" d="M 10478,18632 L 10576,18632 10576,19926 10478,19926 10478,18632 Z M 10478,18640 L 10576,18640 10576,19918 10478,19918 10478,18640 Z"/>
             <path fill="rgb(72,72,72)" stroke="none" d="M 10478,18640 L 10576,18640 10576,19918 10478,19918 10478,18640 Z M 10479,18647 L 10575,18647 10575,19911 10479,19911 10479,18647 Z"/>
             <path fill="rgb(73,73,73)" stroke="none" d="M 10479,18647 L 10575,18647 10575,19911 10479,19911 10479,18647 Z M 10479,18655 L 10575,18655 10575,19903 10479,19903 10479,18655 Z"/>
             <path fill="rgb(74,74,74)" stroke="none" d="M 10479,18655 L 10575,18655 10575,19903 10479,19903 10479,18655 Z M 10480,18663 L 10574,18663 10574,19895 10480,19895 10480,18663 Z"/>
             <path fill="rgb(75,75,75)" stroke="none" d="M 10480,18663 L 10574,18663 10574,19895 10480,19895 10480,18663 Z M 10481,18671 L 10573,18671 10573,19887 10481,19887 10481,18671 Z"/>
             <path fill="rgb(76,76,76)" stroke="none" d="M 10481,18671 L 10573,18671 10573,19887 10481,19887 10481,18671 Z M 10481,18679 L 10573,18679 10573,19879 10481,19879 10481,18679 Z"/>
             <path fill="rgb(77,77,77)" stroke="none" d="M 10481,18679 L 10573,18679 10573,19879 10481,19879 10481,18679 Z M 10482,18687 L 10572,18687 10572,19871 10482,19871 10482,18687 Z"/>
             <path fill="rgb(78,78,78)" stroke="none" d="M 10482,18687 L 10572,18687 10572,19871 10482,19871 10482,18687 Z M 10483,18695 L 10571,18695 10571,19863 10483,19863 10483,18695 Z"/>
             <path fill="rgb(79,79,79)" stroke="none" d="M 10483,18695 L 10571,18695 10571,19863 10483,19863 10483,18695 Z M 10483,18703 L 10571,18703 10571,19855 10483,19855 10483,18703 Z"/>
             <path fill="rgb(80,80,80)" stroke="none" d="M 10483,18703 L 10571,18703 10571,19855 10483,19855 10483,18703 Z M 10484,18711 L 10570,18711 10570,19847 10484,19847 10484,18711 Z"/>
             <path fill="rgb(81,81,81)" stroke="none" d="M 10484,18711 L 10570,18711 10570,19847 10484,19847 10484,18711 Z M 10484,18719 L 10570,18719 10570,19839 10484,19839 10484,18719 Z"/>
             <path fill="rgb(82,82,82)" stroke="none" d="M 10484,18719 L 10570,18719 10570,19839 10484,19839 10484,18719 Z M 10485,18727 L 10569,18727 10569,19831 10485,19831 10485,18727 Z"/>
             <path fill="rgb(83,83,83)" stroke="none" d="M 10485,18727 L 10569,18727 10569,19831 10485,19831 10485,18727 Z M 10486,18734 L 10568,18734 10568,19824 10486,19824 10486,18734 Z"/>
             <path fill="rgb(84,84,84)" stroke="none" d="M 10486,18734 L 10568,18734 10568,19824 10486,19824 10486,18734 Z M 10486,18742 L 10568,18742 10568,19816 10486,19816 10486,18742 Z"/>
             <path fill="rgb(85,85,85)" stroke="none" d="M 10486,18742 L 10568,18742 10568,19816 10486,19816 10486,18742 Z M 10487,18750 L 10567,18750 10567,19808 10487,19808 10487,18750 Z"/>
             <path fill="rgb(86,86,86)" stroke="none" d="M 10487,18750 L 10567,18750 10567,19808 10487,19808 10487,18750 Z M 10487,18758 L 10567,18758 10567,19800 10487,19800 10487,18758 Z"/>
             <path fill="rgb(87,87,87)" stroke="none" d="M 10487,18758 L 10567,18758 10567,19800 10487,19800 10487,18758 Z M 10488,18766 L 10566,18766 10566,19792 10488,19792 10488,18766 Z"/>
             <path fill="rgb(88,88,88)" stroke="none" d="M 10488,18766 L 10566,18766 10566,19792 10488,19792 10488,18766 Z M 10489,18774 L 10565,18774 10565,19784 10489,19784 10489,18774 Z"/>
             <path fill="rgb(89,89,89)" stroke="none" d="M 10489,18774 L 10565,18774 10565,19784 10489,19784 10489,18774 Z M 10489,18781 L 10565,18781 10565,19776 10489,19776 10489,18781 Z"/>
             <path fill="rgb(90,90,90)" stroke="none" d="M 10489,18781 L 10565,18781 10565,19776 10489,19776 10489,18781 Z M 10490,18789 L 10564,18789 10564,19768 10490,19768 10490,18789 Z"/>
             <path fill="rgb(91,91,91)" stroke="none" d="M 10490,18789 L 10564,18789 10564,19768 10490,19768 10490,18789 Z M 10490,18797 L 10564,18797 10564,19760 10490,19760 10490,18797 Z"/>
             <path fill="rgb(92,92,92)" stroke="none" d="M 10490,18797 L 10564,18797 10564,19760 10490,19760 10490,18797 Z M 10491,18805 L 10563,18805 10563,19752 10491,19752 10491,18805 Z"/>
             <path fill="rgb(93,93,93)" stroke="none" d="M 10491,18805 L 10563,18805 10563,19752 10491,19752 10491,18805 Z M 10492,18812 L 10562,18812 10562,19745 10492,19745 10492,18812 Z"/>
             <path fill="rgb(94,94,94)" stroke="none" d="M 10492,18812 L 10562,18812 10562,19745 10492,19745 10492,18812 Z M 10492,18820 L 10562,18820 10562,19737 10492,19737 10492,18820 Z"/>
             <path fill="rgb(95,95,95)" stroke="none" d="M 10492,18820 L 10562,18820 10562,19737 10492,19737 10492,18820 Z M 10493,18828 L 10561,18828 10561,19729 10493,19729 10493,18828 Z"/>
             <path fill="rgb(96,96,96)" stroke="none" d="M 10493,18828 L 10561,18828 10561,19729 10493,19729 10493,18828 Z M 10493,18836 L 10561,18836 10561,19721 10493,19721 10493,18836 Z"/>
             <path fill="rgb(97,97,97)" stroke="none" d="M 10493,18836 L 10561,18836 10561,19721 10493,19721 10493,18836 Z M 10494,18844 L 10560,18844 10560,19713 10494,19713 10494,18844 Z"/>
             <path fill="rgb(98,98,98)" stroke="none" d="M 10494,18844 L 10560,18844 10560,19713 10494,19713 10494,18844 Z M 10495,18852 L 10559,18852 10559,19705 10495,19705 10495,18852 Z"/>
             <path fill="rgb(99,99,99)" stroke="none" d="M 10495,18852 L 10559,18852 10559,19705 10495,19705 10495,18852 Z M 10495,18860 L 10559,18860 10559,19697 10495,19697 10495,18860 Z"/>
             <path fill="rgb(100,100,100)" stroke="none" d="M 10495,18860 L 10559,18860 10559,19697 10495,19697 10495,18860 Z M 10496,18868 L 10558,18868 10558,19689 10496,19689 10496,18868 Z"/>
             <path fill="rgb(101,101,101)" stroke="none" d="M 10496,18868 L 10558,18868 10558,19689 10496,19689 10496,18868 Z M 10497,18876 L 10557,18876 10557,19681 10497,19681 10497,18876 Z"/>
             <path fill="rgb(102,102,102)" stroke="none" d="M 10497,18876 L 10557,18876 10557,19681 10497,19681 10497,18876 Z M 10497,18884 L 10557,18884 10557,19673 10497,19673 10497,18884 Z"/>
             <path fill="rgb(103,103,103)" stroke="none" d="M 10497,18884 L 10557,18884 10557,19673 10497,19673 10497,18884 Z M 10498,18892 L 10556,18892 10556,19665 10498,19665 10498,18892 Z"/>
             <path fill="rgb(104,104,104)" stroke="none" d="M 10498,18892 L 10556,18892 10556,19665 10498,19665 10498,18892 Z M 10498,18899 L 10556,18899 10556,19658 10498,19658 10498,18899 Z"/>
             <path fill="rgb(105,105,105)" stroke="none" d="M 10498,18899 L 10556,18899 10556,19658 10498,19658 10498,18899 Z M 10499,18907 L 10555,18907 10555,19650 10499,19650 10499,18907 Z"/>
             <path fill="rgb(106,106,106)" stroke="none" d="M 10499,18907 L 10555,18907 10555,19650 10499,19650 10499,18907 Z M 10500,18915 L 10554,18915 10554,19642 10500,19642 10500,18915 Z"/>
             <path fill="rgb(107,107,107)" stroke="none" d="M 10500,18915 L 10554,18915 10554,19642 10500,19642 10500,18915 Z M 10500,18923 L 10554,18923 10554,19634 10500,19634 10500,18923 Z"/>
             <path fill="rgb(108,108,108)" stroke="none" d="M 10500,18923 L 10554,18923 10554,19634 10500,19634 10500,18923 Z M 10501,18931 L 10553,18931 10553,19626 10501,19626 10501,18931 Z"/>
             <path fill="rgb(109,109,109)" stroke="none" d="M 10501,18931 L 10553,18931 10553,19626 10501,19626 10501,18931 Z M 10501,18939 L 10553,18939 10553,19618 10501,19618 10501,18939 Z"/>
             <path fill="rgb(110,110,110)" stroke="none" d="M 10501,18939 L 10553,18939 10553,19618 10501,19618 10501,18939 Z M 10502,18947 L 10552,18947 10552,19610 10502,19610 10502,18947 Z"/>
             <path fill="rgb(111,111,111)" stroke="none" d="M 10502,18947 L 10552,18947 10552,19610 10502,19610 10502,18947 Z M 10503,18955 L 10551,18955 10551,19602 10503,19602 10503,18955 Z"/>
             <path fill="rgb(112,112,112)" stroke="none" d="M 10503,18955 L 10551,18955 10551,19602 10503,19602 10503,18955 Z M 10503,18963 L 10551,18963 10551,19594 10503,19594 10503,18963 Z"/>
             <path fill="rgb(113,113,113)" stroke="none" d="M 10503,18963 L 10551,18963 10551,19594 10503,19594 10503,18963 Z M 10504,18971 L 10550,18971 10550,19586 10504,19586 10504,18971 Z"/>
             <path fill="rgb(114,114,114)" stroke="none" d="M 10504,18971 L 10550,18971 10550,19586 10504,19586 10504,18971 Z M 10504,18979 L 10550,18979 10550,19578 10504,19578 10504,18979 Z"/>
             <path fill="rgb(115,115,115)" stroke="none" d="M 10504,18979 L 10550,18979 10550,19578 10504,19578 10504,18979 Z M 10505,18986 L 10549,18986 10549,19571 10505,19571 10505,18986 Z"/>
             <path fill="rgb(116,116,116)" stroke="none" d="M 10505,18986 L 10549,18986 10549,19571 10505,19571 10505,18986 Z M 10506,18994 L 10548,18994 10548,19563 10506,19563 10506,18994 Z"/>
             <path fill="rgb(117,117,117)" stroke="none" d="M 10506,18994 L 10548,18994 10548,19563 10506,19563 10506,18994 Z M 10506,19002 L 10548,19002 10548,19555 10506,19555 10506,19002 Z"/>
             <path fill="rgb(118,118,118)" stroke="none" d="M 10506,19002 L 10548,19002 10548,19555 10506,19555 10506,19002 Z M 10507,19010 L 10547,19010 10547,19547 10507,19547 10507,19010 Z"/>
             <path fill="rgb(119,119,119)" stroke="none" d="M 10507,19010 L 10547,19010 10547,19547 10507,19547 10507,19010 Z M 10507,19018 L 10547,19018 10547,19539 10507,19539 10507,19018 Z"/>
             <path fill="rgb(120,120,120)" stroke="none" d="M 10507,19018 L 10547,19018 10547,19539 10507,19539 10507,19018 Z M 10508,19026 L 10546,19026 10546,19531 10508,19531 10508,19026 Z"/>
             <path fill="rgb(121,121,121)" stroke="none" d="M 10508,19026 L 10546,19026 10546,19531 10508,19531 10508,19026 Z M 10509,19034 L 10545,19034 10545,19523 10509,19523 10509,19034 Z"/>
             <path fill="rgb(122,122,122)" stroke="none" d="M 10509,19034 L 10545,19034 10545,19523 10509,19523 10509,19034 Z M 10509,19042 L 10545,19042 10545,19515 10509,19515 10509,19042 Z"/>
             <path fill="rgb(123,123,123)" stroke="none" d="M 10509,19042 L 10545,19042 10545,19515 10509,19515 10509,19042 Z M 10510,19050 L 10544,19050 10544,19507 10510,19507 10510,19050 Z"/>
             <path fill="rgb(124,124,124)" stroke="none" d="M 10510,19050 L 10544,19050 10544,19507 10510,19507 10510,19050 Z M 10510,19058 L 10544,19058 10544,19499 10510,19499 10510,19058 Z"/>
             <path fill="rgb(125,125,125)" stroke="none" d="M 10510,19058 L 10544,19058 10544,19499 10510,19499 10510,19058 Z M 10511,19066 L 10543,19066 10543,19491 10511,19491 10511,19066 Z"/>
             <path fill="rgb(126,126,126)" stroke="none" d="M 10511,19066 L 10543,19066 10543,19491 10511,19491 10511,19066 Z M 10512,19073 L 10542,19073 10542,19484 10512,19484 10512,19073 Z"/>
             <path fill="rgb(127,127,127)" stroke="none" d="M 10512,19073 L 10542,19073 10542,19484 10512,19484 10512,19073 Z M 10512,19081 L 10542,19081 10542,19476 10512,19476 10512,19081 Z"/>
             <path fill="rgb(128,128,128)" stroke="none" d="M 10512,19081 L 10542,19081 10542,19476 10512,19476 10512,19081 Z M 10513,19089 L 10541,19089 10541,19468 10513,19468 10513,19089 Z"/>
             <path fill="rgb(129,129,129)" stroke="none" d="M 10513,19089 L 10541,19089 10541,19468 10513,19468 10513,19089 Z M 10514,19097 L 10540,19097 10540,19460 10514,19460 10514,19097 Z"/>
             <path fill="rgb(130,130,130)" stroke="none" d="M 10514,19097 L 10540,19097 10540,19460 10514,19460 10514,19097 Z M 10514,19105 L 10540,19105 10540,19452 10514,19452 10514,19105 Z"/>
             <path fill="rgb(131,131,131)" stroke="none" d="M 10514,19105 L 10540,19105 10540,19452 10514,19452 10514,19105 Z M 10515,19113 L 10539,19113 10539,19444 10515,19444 10515,19113 Z"/>
             <path fill="rgb(132,132,132)" stroke="none" d="M 10515,19113 L 10539,19113 10539,19444 10515,19444 10515,19113 Z M 10515,19121 L 10539,19121 10539,19436 10515,19436 10515,19121 Z"/>
             <path fill="rgb(133,133,133)" stroke="none" d="M 10515,19121 L 10539,19121 10539,19436 10515,19436 10515,19121 Z M 10516,19129 L 10538,19129 10538,19428 10516,19428 10516,19129 Z"/>
             <path fill="rgb(134,134,134)" stroke="none" d="M 10516,19129 L 10538,19129 10538,19428 10516,19428 10516,19129 Z M 10517,19137 L 10537,19137 10537,19420 10517,19420 10517,19137 Z"/>
             <path fill="rgb(135,135,135)" stroke="none" d="M 10517,19137 L 10537,19137 10537,19420 10517,19420 10517,19137 Z M 10517,19145 L 10537,19145 10537,19412 10517,19412 10517,19145 Z"/>
             <path fill="rgb(136,136,136)" stroke="none" d="M 10517,19145 L 10537,19145 10537,19412 10517,19412 10517,19145 Z M 10518,19152 L 10536,19152 10536,19405 10518,19405 10518,19152 Z"/>
             <path fill="rgb(137,137,137)" stroke="none" d="M 10518,19152 L 10536,19152 10536,19405 10518,19405 10518,19152 Z M 10518,19160 L 10536,19160 10536,19397 10518,19397 10518,19160 Z"/>
             <path fill="rgb(138,138,138)" stroke="none" d="M 10518,19160 L 10536,19160 10536,19397 10518,19397 10518,19160 Z M 10519,19168 L 10535,19168 10535,19389 10519,19389 10519,19168 Z"/>
             <path fill="rgb(139,139,139)" stroke="none" d="M 10519,19168 L 10535,19168 10535,19389 10519,19389 10519,19168 Z M 10520,19176 L 10534,19176 10534,19381 10520,19381 10520,19176 Z"/>
             <path fill="rgb(140,140,140)" stroke="none" d="M 10520,19176 L 10534,19176 10534,19381 10520,19381 10520,19176 Z M 10520,19184 L 10534,19184 10534,19373 10520,19373 10520,19184 Z"/>
             <path fill="rgb(141,141,141)" stroke="none" d="M 10520,19184 L 10534,19184 10534,19373 10520,19373 10520,19184 Z M 10521,19192 L 10533,19192 10533,19365 10521,19365 10521,19192 Z"/>
             <path fill="rgb(142,142,142)" stroke="none" d="M 10521,19192 L 10533,19192 10533,19365 10521,19365 10521,19192 Z M 10521,19200 L 10533,19200 10533,19357 10521,19357 10521,19200 Z"/>
             <path fill="rgb(143,143,143)" stroke="none" d="M 10521,19200 L 10533,19200 10533,19357 10521,19357 10521,19200 Z M 10522,19208 L 10532,19208 10532,19349 10522,19349 10522,19208 Z"/>
             <path fill="rgb(144,144,144)" stroke="none" d="M 10522,19208 L 10532,19208 10532,19349 10522,19349 10522,19208 Z M 10523,19216 L 10531,19216 10531,19341 10523,19341 10523,19216 Z"/>
             <path fill="rgb(145,145,145)" stroke="none" d="M 10523,19216 L 10531,19216 10531,19341 10523,19341 10523,19216 Z M 10523,19224 L 10531,19224 10531,19333 10523,19333 10523,19224 Z"/>
             <path fill="rgb(146,146,146)" stroke="none" d="M 10523,19224 L 10531,19224 10531,19333 10523,19333 10523,19224 Z M 10524,19232 L 10530,19232 10530,19325 10524,19325 10524,19232 Z"/>
             <path fill="rgb(147,147,147)" stroke="none" d="M 10524,19232 L 10530,19232 10530,19325 10524,19325 10524,19232 Z M 10524,19239 L 10530,19239 10530,19318 10524,19318 10524,19239 Z"/>
             <path fill="rgb(148,148,148)" stroke="none" d="M 10524,19239 L 10530,19239 10530,19318 10524,19318 10524,19239 Z M 10525,19247 L 10529,19247 10529,19310 10525,19310 10525,19247 Z"/>
             <path fill="rgb(149,149,149)" stroke="none" d="M 10525,19247 L 10529,19247 10529,19310 10525,19310 10525,19247 Z M 10526,19255 L 10528,19255 10528,19302 10526,19302 10526,19255 Z"/>
             <path fill="rgb(150,150,150)" stroke="none" d="M 10526,19255 L 10528,19255 10528,19302 10526,19302 10526,19255 Z M 10526,19263 L 10528,19263 10528,19294 10526,19294 10526,19263 Z"/>
             <path fill="rgb(153,153,153)" stroke="none" d="M 10526,19263 L 10528,19263 10528,19294 10526,19294 10526,19263 Z"/>
            </g>
           </pattern>
          </defs>
          <path style="fill:url(#pattern2)" d="M 10492,20407 L 10492,18867 10613,18797 10613,20337 10492,20407 Z"/>
         </g>
         <path fill="none" stroke="rgb(178,178,178)" stroke-width="40" stroke-linejoin="round" d="M 10492,20407 L 10492,18867 10613,18797 10613,20337 10492,20407 Z"/>
        </g>
       </g>
       <g class="com.sun.star.drawing.PolyPolygonShape">
        <g id="id7">
         <rect class="BoundingBox" stroke="none" fill="none" x="9138" y="18077" width="1375" height="2351"/>
         <g>
          <defs>
           <linearGradient id="gradient2" x1="9157" y1="19252" x2="10493" y2="19252" gradientUnits="userSpaceOnUse">
            <stop offset="0.1" style="stop-color:rgb(51,51,51)"/>
            <stop offset="1" style="stop-color:rgb(153,153,153)"/>
           </linearGradient>
          </defs>
          <path style="fill:url(#gradient2)" d="M 9158,19637 L 9158,18097 10492,18867 10492,20407 9158,19637 Z"/>
         </g>
         <path fill="none" stroke="rgb(178,178,178)" stroke-width="40" stroke-linejoin="round" d="M 9158,19637 L 9158,18097 10492,18867 10492,20407 9158,19637 Z"/>
        </g>
       </g>
       <g class="com.sun.star.drawing.PolyPolygonShape">
        <g id="id8">
         <rect class="BoundingBox" stroke="none" fill="none" x="9137" y="18007" width="1498" height="882"/>
         <g>
          <defs>
           <linearGradient id="gradient3" x1="9885" y1="18027" x2="9885" y2="18867" gradientUnits="userSpaceOnUse">
            <stop offset="0.1" style="stop-color:rgb(51,51,51)"/>
            <stop offset="1" style="stop-color:rgb(153,153,153)"/>
           </linearGradient>
          </defs>
          <path style="fill:url(#gradient3)" d="M 10492,18867 L 9157,18097 9279,18027 10613,18797 10492,18867 Z"/>
         </g>
         <path fill="none" stroke="rgb(178,178,178)" stroke-width="40" stroke-linejoin="round" d="M 10492,18867 L 9157,18097 9279,18027 10613,18797 10492,18867 Z"/>
        </g>
       </g>
       <g class="com.sun.star.drawing.PolyPolygonShape">
        <g id="id9">
         <rect class="BoundingBox" stroke="none" fill="none" x="9744" y="19687" width="162" height="252"/>
         <path fill="rgb(255,255,255)" stroke="none" d="M 9764,19847 L 9764,19707 9885,19777 9885,19917 9764,19847 Z"/>
         <path fill="none" stroke="rgb(178,178,178)" stroke-width="40" stroke-linejoin="round" d="M 9764,19847 L 9764,19707 9885,19777 9885,19917 9764,19847 Z"/>
        </g>
       </g>
       <g class="com.sun.star.drawing.PolyPolygonShape">
        <g id="id10">
         <rect class="BoundingBox" stroke="none" fill="none" x="9138" y="17727" width="2223" height="2701"/>
         <path fill="none" stroke="rgb(0,0,0)" stroke-width="40" stroke-linejoin="round" d="M 9158,19637 L 9158,18097 9280,18027 9522,18167 10249,17747 11340,18377 11340,19637 10613,20057 10613,20337 10492,20407 9158,19637 Z"/>
        </g>
       </g>
       <g class="com.sun.star.drawing.PolyPolygonShape">
        <g id="id11">
         <rect class="BoundingBox" stroke="none" fill="none" x="9259" y="18357" width="1133" height="1581"/>
         <g>
          <defs>
           <linearGradient id="gradient4" x1="9278" y1="19147" x2="10372" y2="19147" gradientUnits="userSpaceOnUse">
            <stop offset="0.1" style="stop-color:rgb(147,212,240)"/>
            <stop offset="1" style="stop-color:rgb(233,246,252)"/>
           </linearGradient>
          </defs>
          <path style="fill:url(#gradient4)" d="M 9279,19287 L 9280,18377 10370,19007 10371,19917 9279,19287 Z"/>
         </g>
         <path fill="none" stroke="rgb(51,51,51)" stroke-width="40" stroke-linejoin="round" d="M 9279,19287 L 9280,18377 10370,19007 10371,19917 9279,19287 Z"/>
        </g>
       </g>
       <g class="com.sun.star.drawing.PolyPolygonShape">
        <g id="id12">
         <rect class="BoundingBox" stroke="none" fill="none" x="9986" y="19827" width="162" height="251"/>
         <path fill="rgb(255,255,255)" stroke="none" d="M 10006,19987 L 10006,19847 10127,19917 10127,20057 10006,19987 Z"/>
         <path fill="none" stroke="rgb(178,178,178)" stroke-width="40" stroke-linejoin="round" d="M 10006,19987 L 10006,19847 10127,19917 10127,20057 10006,19987 Z"/>
        </g>
       </g>
       <g class="com.sun.star.drawing.PolyPolygonShape">
        <g id="id13">
         <rect class="BoundingBox" stroke="none" fill="none" x="10229" y="19967" width="162" height="252"/>
         <path fill="rgb(255,255,255)" stroke="none" d="M 10249,20127 L 10249,19987 10370,20057 10370,20197 10249,20127 Z"/>
         <path fill="none" stroke="rgb(178,178,178)" stroke-width="40" stroke-linejoin="round" d="M 10249,20127 L 10249,19987 10370,20057 10370,20197 10249,20127 Z"/>
        </g>
       </g>
       <g class="com.sun.star.drawing.PolyPolygonShape">
        <g id="id14">
         <rect class="BoundingBox" stroke="none" fill="none" x="9502" y="19547" width="162" height="252"/>
         <path fill="rgb(255,255,255)" stroke="none" d="M 9522,19707 L 9522,19567 9643,19637 9643,19777 9522,19707 Z"/>
         <path fill="none" stroke="rgb(178,178,178)" stroke-width="40" stroke-linejoin="round" d="M 9522,19707 L 9522,19567 9643,19637 9643,19777 9522,19707 Z"/>
        </g>
       </g>
      </g>
     </g>
    </g>
   </g>
  </g>
 </g>
</svg>