<?xml version="1.0" encoding="UTF-8"?>
<!DOCTYPE svg PUBLIC "-//W3C//DTD SVG 1.1//EN" "http://www.w3.org/Graphics/SVG/1.1/DTD/svg11.dtd">
<svg version="1.2" width="24.73mm" height="24.9mm" viewBox="6483 11113 2473 2490" preserveAspectRatio="xMidYMid" fill-rule="evenodd" stroke-width="28.222" stroke-linejoin="round" xmlns="http://www.w3.org/2000/svg" xmlns:ooo="http://xml.openoffice.org/svg/export" xmlns:xlink="http://www.w3.org/1999/xlink" xmlns:presentation="http://sun.com/xmlns/staroffice/presentation" xmlns:smil="http://www.w3.org/2001/SMIL20/" xmlns:anim="urn:oasis:names:tc:opendocument:xmlns:animation:1.0" xml:space="preserve">
 <defs class="ClipPathGroup">
  <clipPath id="presentation_clip_path" clipPathUnits="userSpaceOnUse">
   <rect x="6483" y="11113" width="2473" height="2490"/>
  </clipPath>
 </defs>
 <defs class="TextShapeIndex">
  <g ooo:slide="id1" ooo:id-list="id3 id4 id5 id6 id7 id8 id9 id10 id11 id12 id13"/>
 </defs>
 <defs class="EmbeddedBulletChars">
  <g id="bullet-char-template(57356)" transform="scale(0.00048828125,-0.00048828125)">
   <path d="M 580,1141 L 1163,571 580,0 -4,571 580,1141 Z"/>
  </g>
  <g id="bullet-char-template(57354)" transform="scale(0.00048828125,-0.00048828125)">
   <path d="M 8,1128 L 1137,1128 1137,0 8,0 8,1128 Z"/>
  </g>
  <g id="bullet-char-template(10146)" transform="scale(0.00048828125,-0.00048828125)">
   <path d="M 174,0 L 602,739 174,1481 1456,739 174,0 Z M 1358,739 L 309,1346 659,739 1358,739 Z"/>
  </g>
  <g id="bullet-char-template(10132)" transform="scale(0.00048828125,-0.00048828125)">
   <path d="M 2015,739 L 1276,0 717,0 1260,543 174,543 174,936 1260,936 717,1481 1274,1481 2015,739 Z"/>
  </g>
  <g id="bullet-char-template(10007)" transform="scale(0.00048828125,-0.00048828125)">
   <path d="M 0,-2 C -7,14 -16,27 -25,37 L 356,567 C 262,823 215,952 215,954 215,979 228,992 255,992 264,992 276,990 289,987 310,991 331,999 354,1012 L 381,999 492,748 772,1049 836,1024 860,1049 C 881,1039 901,1025 922,1006 886,937 835,863 770,784 769,783 710,716 594,584 L 774,223 C 774,196 753,168 711,139 L 727,119 C 717,90 699,76 672,76 641,76 570,178 457,381 L 164,-76 C 142,-110 111,-127 72,-127 30,-127 9,-110 8,-76 1,-67 -2,-52 -2,-32 -2,-23 -1,-13 0,-2 Z"/>
  </g>
  <g id="bullet-char-template(10004)" transform="scale(0.00048828125,-0.00048828125)">
   <path d="M 285,-33 C 182,-33 111,30 74,156 52,228 41,333 41,471 41,549 55,616 82,672 116,743 169,778 240,778 293,778 328,747 346,684 L 369,508 C 377,444 397,411 428,410 L 1163,1116 C 1174,1127 1196,1133 1229,1133 1271,1133 1292,1118 1292,1087 L 1292,965 C 1292,929 1282,901 1262,881 L 442,47 C 390,-6 338,-33 285,-33 Z"/>
  </g>
  <g id="bullet-char-template(9679)" transform="scale(0.00048828125,-0.00048828125)">
   <path d="M 813,0 C 632,0 489,54 383,161 276,268 223,411 223,592 223,773 276,916 383,1023 489,1130 632,1184 813,1184 992,1184 1136,1130 1245,1023 1353,916 1407,772 1407,592 1407,412 1353,268 1245,161 1136,54 992,0 813,0 Z"/>
  </g>
  <g id="bullet-char-template(8226)" transform="scale(0.00048828125,-0.00048828125)">
   <path d="M 346,457 C 273,457 209,483 155,535 101,586 74,649 74,723 74,796 101,859 155,911 209,963 273,989 346,989 419,989 480,963 531,910 582,859 608,796 608,723 608,648 583,586 532,535 482,483 420,457 346,457 Z"/>
  </g>
  <g id="bullet-char-template(8211)" transform="scale(0.00048828125,-0.00048828125)">
   <path d="M -4,459 L 1135,459 1135,606 -4,606 -4,459 Z"/>
  </g>
 </defs>
 <defs class="TextEmbeddedBitmaps"/>
 <g class="SlideGroup">
  <g>
   <g id="id1" class="Slide" clip-path="url(#presentation_clip_path)">
    <g class="Page">
     <g class="Group">
      <g class="com.sun.star.drawing.ClosedBezierShape">
       <g id="id3">
        <rect class="BoundingBox" stroke="none" fill="none" x="7836" y="12602" width="1121" height="843"/>
        <path fill="rgb(221,221,221)" stroke="none" d="M 7837,13443 C 8312,13443 8807,13163 8928,12953 9049,12743 8737,12603 8564,12603 8564,12903 7837,13042 7837,13443 Z"/>
        <path fill="none" stroke="rgb(221,221,221)" d="M 7837,13443 C 8312,13443 8807,13163 8928,12953 9049,12743 8737,12603 8564,12603 8564,12903 7837,13042 7837,13443 Z"/>
       </g>
      </g>
      <g class="Group">
       <g class="com.sun.star.drawing.PolyPolygonShape">
        <g id="id4">
         <rect class="BoundingBox" stroke="none" fill="none" x="7574" y="11673" width="1011" height="1721"/>
         <g>
          <defs>
           <pattern id="pattern1" x="7595" y="11693" width="970" height="1681" patternUnits="userSpaceOnUse">
            <g transform="translate(-7595,-11693)">
             <path fill="rgb(179,179,179)" stroke="none" d="M 7594,11692 L 8565,11692 8565,13374 7594,13374 7594,11692 Z M 7409,11372 L 8360,11372 8360,13020 7409,13020 7409,11372 Z"/>
             <path fill="rgb(180,180,180)" stroke="none" d="M 7409,11372 L 8360,11372 8360,13020 7409,13020 7409,11372 Z M 7419,11389 L 8350,11389 8350,13003 7419,13003 7419,11389 Z"/>
             <path fill="rgb(181,181,181)" stroke="none" d="M 7419,11389 L 8350,11389 8350,13003 7419,13003 7419,11389 Z M 7429,11406 L 8340,11406 8340,12986 7429,12986 7429,11406 Z"/>
             <path fill="rgb(182,182,182)" stroke="none" d="M 7429,11406 L 8340,11406 8340,12986 7429,12986 7429,11406 Z M 7438,11423 L 8331,11423 8331,12969 7438,12969 7438,11423 Z"/>
             <path fill="rgb(183,183,183)" stroke="none" d="M 7438,11423 L 8331,11423 8331,12969 7438,12969 7438,11423 Z M 7448,11440 L 8321,11440 8321,12952 7448,12952 7448,11440 Z"/>
             <path fill="rgb(184,184,184)" stroke="none" d="M 7448,11440 L 8321,11440 8321,12952 7448,12952 7448,11440 Z M 7458,11456 L 8311,11456 8311,12936 7458,12936 7458,11456 Z"/>
             <path fill="rgb(185,185,185)" stroke="none" d="M 7458,11456 L 8311,11456 8311,12936 7458,12936 7458,11456 Z M 7468,11473 L 8301,11473 8301,12919 7468,12919 7468,11473 Z"/>
             <path fill="rgb(186,186,186)" stroke="none" d="M 7468,11473 L 8301,11473 8301,12919 7468,12919 7468,11473 Z M 7477,11490 L 8292,11490 8292,12902 7477,12902 7477,11490 Z"/>
             <path fill="rgb(187,187,187)" stroke="none" d="M 7477,11490 L 8292,11490 8292,12902 7477,12902 7477,11490 Z M 7487,11507 L 8282,11507 8282,12885 7487,12885 7487,11507 Z"/>
             <path fill="rgb(188,188,188)" stroke="none" d="M 7487,11507 L 8282,11507 8282,12885 7487,12885 7487,11507 Z M 7497,11524 L 8272,11524 8272,12868 7497,12868 7497,11524 Z"/>
             <path fill="rgb(189,189,189)" stroke="none" d="M 7497,11524 L 8272,11524 8272,12868 7497,12868 7497,11524 Z M 7506,11541 L 8263,11541 8263,12851 7506,12851 7506,11541 Z"/>
             <path fill="rgb(190,190,190)" stroke="none" d="M 7506,11541 L 8263,11541 8263,12851 7506,12851 7506,11541 Z M 7516,11557 L 8253,11557 8253,12835 7516,12835 7516,11557 Z"/>
             <path fill="rgb(191,191,191)" stroke="none" d="M 7516,11557 L 8253,11557 8253,12835 7516,12835 7516,11557 Z M 7526,11574 L 8243,11574 8243,12818 7526,12818 7526,11574 Z"/>
             <path fill="rgb(192,192,192)" stroke="none" d="M 7526,11574 L 8243,11574 8243,12818 7526,12818 7526,11574 Z M 7536,11591 L 8233,11591 8233,12801 7536,12801 7536,11591 Z"/>
             <path fill="rgb(193,193,193)" stroke="none" d="M 7536,11591 L 8233,11591 8233,12801 7536,12801 7536,11591 Z M 7545,11608 L 8224,11608 8224,12784 7545,12784 7545,11608 Z"/>
             <path fill="rgb(194,194,194)" stroke="none" d="M 7545,11608 L 8224,11608 8224,12784 7545,12784 7545,11608 Z M 7555,11625 L 8214,11625 8214,12767 7555,12767 7555,11625 Z"/>
             <path fill="rgb(195,195,195)" stroke="none" d="M 7555,11625 L 8214,11625 8214,12767 7555,12767 7555,11625 Z M 7565,11642 L 8204,11642 8204,12750 7565,12750 7565,11642 Z"/>
             <path fill="rgb(196,196,196)" stroke="none" d="M 7565,11642 L 8204,11642 8204,12750 7565,12750 7565,11642 Z M 7574,11658 L 8195,11658 8195,12734 7574,12734 7574,11658 Z"/>
             <path fill="rgb(197,197,197)" stroke="none" d="M 7574,11658 L 8195,11658 8195,12734 7574,12734 7574,11658 Z M 7583,11674 L 8185,11674 8185,12717 7583,12717 7583,11674 Z"/>
             <path fill="rgb(198,198,198)" stroke="none" d="M 7583,11674 L 8185,11674 8185,12717 7583,12717 7583,11674 Z M 7593,11691 L 8175,11691 8175,12700 7593,12700 7593,11691 Z"/>
             <path fill="rgb(199,199,199)" stroke="none" d="M 7593,11691 L 8175,11691 8175,12700 7593,12700 7593,11691 Z M 7603,11708 L 8165,11708 8165,12683 7603,12683 7603,11708 Z"/>
             <path fill="rgb(200,200,200)" stroke="none" d="M 7603,11708 L 8165,11708 8165,12683 7603,12683 7603,11708 Z M 7612,11725 L 8156,11725 8156,12666 7612,12666 7612,11725 Z"/>
             <path fill="rgb(201,201,201)" stroke="none" d="M 7612,11725 L 8156,11725 8156,12666 7612,12666 7612,11725 Z M 7622,11742 L 8146,11742 8146,12649 7622,12649 7622,11742 Z"/>
             <path fill="rgb(202,202,202)" stroke="none" d="M 7622,11742 L 8146,11742 8146,12649 7622,12649 7622,11742 Z M 7632,11758 L 8136,11758 8136,12633 7632,12633 7632,11758 Z"/>
             <path fill="rgb(203,203,203)" stroke="none" d="M 7632,11758 L 8136,11758 8136,12633 7632,12633 7632,11758 Z M 7641,11775 L 8126,11775 8126,12616 7641,12616 7641,11775 Z"/>
             <path fill="rgb(204,204,204)" stroke="none" d="M 7641,11775 L 8126,11775 8126,12616 7641,12616 7641,11775 Z M 7651,11792 L 8117,11792 8117,12599 7651,12599 7651,11792 Z"/>
             <path fill="rgb(205,205,205)" stroke="none" d="M 7651,11792 L 8117,11792 8117,12599 7651,12599 7651,11792 Z M 7661,11809 L 8107,11809 8107,12582 7661,12582 7661,11809 Z"/>
             <path fill="rgb(206,206,206)" stroke="none" d="M 7661,11809 L 8107,11809 8107,12582 7661,12582 7661,11809 Z M 7671,11826 L 8097,11826 8097,12565 7671,12565 7671,11826 Z"/>
             <path fill="rgb(207,207,207)" stroke="none" d="M 7671,11826 L 8097,11826 8097,12565 7671,12565 7671,11826 Z M 7680,11843 L 8088,11843 8088,12548 7680,12548 7680,11843 Z"/>
             <path fill="rgb(208,208,208)" stroke="none" d="M 7680,11843 L 8088,11843 8088,12548 7680,12548 7680,11843 Z M 7690,11859 L 8078,11859 8078,12532 7690,12532 7690,11859 Z"/>
             <path fill="rgb(209,209,209)" stroke="none" d="M 7690,11859 L 8078,11859 8078,12532 7690,12532 7690,11859 Z M 7700,11876 L 8068,11876 8068,12515 7700,12515 7700,11876 Z"/>
             <path fill="rgb(210,210,210)" stroke="none" d="M 7700,11876 L 8068,11876 8068,12515 7700,12515 7700,11876 Z M 7710,11893 L 8058,11893 8058,12498 7710,12498 7710,11893 Z"/>
             <path fill="rgb(211,211,211)" stroke="none" d="M 7710,11893 L 8058,11893 8058,12498 7710,12498 7710,11893 Z M 7719,11910 L 8049,11910 8049,12481 7719,12481 7719,11910 Z"/>
             <path fill="rgb(212,212,212)" stroke="none" d="M 7719,11910 L 8049,11910 8049,12481 7719,12481 7719,11910 Z M 7729,11927 L 8039,11927 8039,12464 7729,12464 7729,11927 Z"/>
             <path fill="rgb(213,213,213)" stroke="none" d="M 7729,11927 L 8039,11927 8039,12464 7729,12464 7729,11927 Z M 7739,11944 L 8029,11944 8029,12447 7739,12447 7739,11944 Z"/>
             <path fill="rgb(214,214,214)" stroke="none" d="M 7739,11944 L 8029,11944 8029,12447 7739,12447 7739,11944 Z M 7748,11960 L 8020,11960 8020,12431 7748,12431 7748,11960 Z"/>
             <path fill="rgb(215,215,215)" stroke="none" d="M 7748,11960 L 8020,11960 8020,12431 7748,12431 7748,11960 Z M 7758,11977 L 8010,11977 8010,12414 7758,12414 7758,11977 Z"/>
             <path fill="rgb(216,216,216)" stroke="none" d="M 7758,11977 L 8010,11977 8010,12414 7758,12414 7758,11977 Z M 7768,11994 L 8000,11994 8000,12397 7768,12397 7768,11994 Z"/>
             <path fill="rgb(217,217,217)" stroke="none" d="M 7768,11994 L 8000,11994 8000,12397 7768,12397 7768,11994 Z M 7778,12011 L 7990,12011 7990,12380 7778,12380 7778,12011 Z"/>
             <path fill="rgb(218,218,218)" stroke="none" d="M 7778,12011 L 7990,12011 7990,12380 7778,12380 7778,12011 Z M 7787,12028 L 7981,12028 7981,12363 7787,12363 7787,12028 Z"/>
             <path fill="rgb(219,219,219)" stroke="none" d="M 7787,12028 L 7981,12028 7981,12363 7787,12363 7787,12028 Z M 7797,12045 L 7971,12045 7971,12346 7797,12346 7797,12045 Z"/>
             <path fill="rgb(220,220,220)" stroke="none" d="M 7797,12045 L 7971,12045 7971,12346 7797,12346 7797,12045 Z M 7807,12061 L 7961,12061 7961,12330 7807,12330 7807,12061 Z"/>
             <path fill="rgb(221,221,221)" stroke="none" d="M 7807,12061 L 7961,12061 7961,12330 7807,12330 7807,12061 Z M 7816,12078 L 7952,12078 7952,12313 7816,12313 7816,12078 Z"/>
             <path fill="rgb(222,222,222)" stroke="none" d="M 7816,12078 L 7952,12078 7952,12313 7816,12313 7816,12078 Z M 7826,12095 L 7942,12095 7942,12296 7826,12296 7826,12095 Z"/>
             <path fill="rgb(223,223,223)" stroke="none" d="M 7826,12095 L 7942,12095 7942,12296 7826,12296 7826,12095 Z M 7836,12112 L 7932,12112 7932,12279 7836,12279 7836,12112 Z"/>
             <path fill="rgb(224,224,224)" stroke="none" d="M 7836,12112 L 7932,12112 7932,12279 7836,12279 7836,12112 Z M 7846,12129 L 7922,12129 7922,12262 7846,12262 7846,12129 Z"/>
             <path fill="rgb(225,225,225)" stroke="none" d="M 7846,12129 L 7922,12129 7922,12262 7846,12262 7846,12129 Z M 7855,12146 L 7913,12146 7913,12245 7855,12245 7855,12146 Z"/>
             <path fill="rgb(226,226,226)" stroke="none" d="M 7855,12146 L 7913,12146 7913,12245 7855,12245 7855,12146 Z M 7865,12162 L 7903,12162 7903,12229 7865,12229 7865,12162 Z"/>
             <path fill="rgb(227,227,227)" stroke="none" d="M 7865,12162 L 7903,12162 7903,12229 7865,12229 7865,12162 Z M 7875,12179 L 7893,12179 7893,12212 7875,12212 7875,12179 Z"/>
             <path fill="rgb(229,229,229)" stroke="none" d="M 7875,12179 L 7893,12179 7893,12212 7875,12212 7875,12179 Z"/>
            </g>
           </pattern>
          </defs>
          <path style="fill:url(#pattern1)" d="M 7595,13373 L 7595,12253 8564,11693 8564,12813 7595,13373 Z"/>
         </g>
         <path fill="none" stroke="rgb(255,255,255)" stroke-width="40" stroke-linejoin="round" d="M 7595,13373 L 7595,12253 8564,11693 8564,12813 7595,13373 Z"/>
        </g>
       </g>
       <g class="com.sun.star.drawing.PolyPolygonShape">
        <g id="id5">
         <rect class="BoundingBox" stroke="none" fill="none" x="6604" y="11113" width="1981" height="1161"/>
         <g>
          <defs>
           <linearGradient id="gradient1" x1="7594" y1="11133" x2="7594" y2="12253" gradientUnits="userSpaceOnUse">
            <stop offset="0.1" style="stop-color:rgb(179,179,179)"/>
            <stop offset="1" style="stop-color:rgb(229,229,229)"/>
           </linearGradient>
          </defs>
          <path style="fill:url(#gradient1)" d="M 7594,12253 L 6624,11693 7595,11133 8564,11693 7594,12253 Z"/>
         </g>
         <path fill="none" stroke="rgb(255,255,255)" stroke-width="40" stroke-linejoin="round" d="M 7594,12253 L 6624,11693 7595,11133 8564,11693 7594,12253 Z"/>
        </g>
       </g>
       <g class="com.sun.star.drawing.PolyPolygonShape">
        <g id="id6">
         <rect class="BoundingBox" stroke="none" fill="none" x="7696" y="12093" width="162" height="1511"/>
         <g>
          <defs>
           <pattern id="pattern2" x="7716" y="12113" width="122" height="1471" patternUnits="userSpaceOnUse">
            <g transform="translate(-7716,-12113)">
             <path fill="rgb(179,179,179)" stroke="none" d="M 7715,12112 L 7838,12112 7838,13584 7715,13584 7715,12112 Z M 7692,11832 L 7811,11832 7811,13274 7692,13274 7692,11832 Z"/>
             <path fill="rgb(180,180,180)" stroke="none" d="M 7692,11832 L 7811,11832 7811,13274 7692,13274 7692,11832 Z M 7693,11847 L 7810,11847 7810,13259 7693,13259 7693,11847 Z"/>
             <path fill="rgb(181,181,181)" stroke="none" d="M 7693,11847 L 7810,11847 7810,13259 7693,13259 7693,11847 Z M 7694,11862 L 7809,11862 7809,13244 7694,13244 7694,11862 Z"/>
             <path fill="rgb(182,182,182)" stroke="none" d="M 7694,11862 L 7809,11862 7809,13244 7694,13244 7694,11862 Z M 7695,11876 L 7808,11876 7808,13230 7695,13230 7695,11876 Z"/>
             <path fill="rgb(183,183,183)" stroke="none" d="M 7695,11876 L 7808,11876 7808,13230 7695,13230 7695,11876 Z M 7696,11891 L 7806,11891 7806,13215 7696,13215 7696,11891 Z"/>
             <path fill="rgb(184,184,184)" stroke="none" d="M 7696,11891 L 7806,11891 7806,13215 7696,13215 7696,11891 Z M 7697,11906 L 7805,11906 7805,13200 7697,13200 7697,11906 Z"/>
             <path fill="rgb(185,185,185)" stroke="none" d="M 7697,11906 L 7805,11906 7805,13200 7697,13200 7697,11906 Z M 7698,11921 L 7804,11921 7804,13185 7698,13185 7698,11921 Z"/>
             <path fill="rgb(186,186,186)" stroke="none" d="M 7698,11921 L 7804,11921 7804,13185 7698,13185 7698,11921 Z M 7699,11935 L 7803,11935 7803,13171 7699,13171 7699,11935 Z"/>
             <path fill="rgb(187,187,187)" stroke="none" d="M 7699,11935 L 7803,11935 7803,13171 7699,13171 7699,11935 Z M 7701,11950 L 7801,11950 7801,13156 7701,13156 7701,11950 Z"/>
             <path fill="rgb(188,188,188)" stroke="none" d="M 7701,11950 L 7801,11950 7801,13156 7701,13156 7701,11950 Z M 7702,11965 L 7800,11965 7800,13141 7702,13141 7702,11965 Z"/>
             <path fill="rgb(189,189,189)" stroke="none" d="M 7702,11965 L 7800,11965 7800,13141 7702,13141 7702,11965 Z M 7703,11980 L 7799,11980 7799,13126 7703,13126 7703,11980 Z"/>
             <path fill="rgb(190,190,190)" stroke="none" d="M 7703,11980 L 7799,11980 7799,13126 7703,13126 7703,11980 Z M 7704,11994 L 7798,11994 7798,13112 7704,13112 7704,11994 Z"/>
             <path fill="rgb(191,191,191)" stroke="none" d="M 7704,11994 L 7798,11994 7798,13112 7704,13112 7704,11994 Z M 7706,12009 L 7796,12009 7796,13097 7706,13097 7706,12009 Z"/>
             <path fill="rgb(192,192,192)" stroke="none" d="M 7706,12009 L 7796,12009 7796,13097 7706,13097 7706,12009 Z M 7707,12024 L 7795,12024 7795,13082 7707,13082 7707,12024 Z"/>
             <path fill="rgb(193,193,193)" stroke="none" d="M 7707,12024 L 7795,12024 7795,13082 7707,13082 7707,12024 Z M 7708,12038 L 7794,12038 7794,13068 7708,13068 7708,12038 Z"/>
             <path fill="rgb(194,194,194)" stroke="none" d="M 7708,12038 L 7794,12038 7794,13068 7708,13068 7708,12038 Z M 7709,12053 L 7793,12053 7793,13053 7709,13053 7709,12053 Z"/>
             <path fill="rgb(195,195,195)" stroke="none" d="M 7709,12053 L 7793,12053 7793,13053 7709,13053 7709,12053 Z M 7711,12068 L 7791,12068 7791,13038 7711,13038 7711,12068 Z"/>
             <path fill="rgb(196,196,196)" stroke="none" d="M 7711,12068 L 7791,12068 7791,13038 7711,13038 7711,12068 Z M 7712,12083 L 7790,12083 7790,13023 7712,13023 7712,12083 Z"/>
             <path fill="rgb(197,197,197)" stroke="none" d="M 7712,12083 L 7790,12083 7790,13023 7712,13023 7712,12083 Z M 7713,12096 L 7789,12096 7789,13009 7713,13009 7713,12096 Z"/>
             <path fill="rgb(198,198,198)" stroke="none" d="M 7713,12096 L 7789,12096 7789,13009 7713,13009 7713,12096 Z M 7714,12111 L 7788,12111 7788,12994 7714,12994 7714,12111 Z"/>
             <path fill="rgb(199,199,199)" stroke="none" d="M 7714,12111 L 7788,12111 7788,12994 7714,12994 7714,12111 Z M 7716,12126 L 7786,12126 7786,12979 7716,12979 7716,12126 Z"/>
             <path fill="rgb(200,200,200)" stroke="none" d="M 7716,12126 L 7786,12126 7786,12979 7716,12979 7716,12126 Z M 7717,12141 L 7785,12141 7785,12964 7717,12964 7717,12141 Z"/>
             <path fill="rgb(201,201,201)" stroke="none" d="M 7717,12141 L 7785,12141 7785,12964 7717,12964 7717,12141 Z M 7718,12155 L 7784,12155 7784,12950 7718,12950 7718,12155 Z"/>
             <path fill="rgb(202,202,202)" stroke="none" d="M 7718,12155 L 7784,12155 7784,12950 7718,12950 7718,12155 Z M 7719,12170 L 7783,12170 7783,12935 7719,12935 7719,12170 Z"/>
             <path fill="rgb(203,203,203)" stroke="none" d="M 7719,12170 L 7783,12170 7783,12935 7719,12935 7719,12170 Z M 7720,12185 L 7782,12185 7782,12920 7720,12920 7720,12185 Z"/>
             <path fill="rgb(204,204,204)" stroke="none" d="M 7720,12185 L 7782,12185 7782,12920 7720,12920 7720,12185 Z M 7722,12199 L 7780,12199 7780,12906 7722,12906 7722,12199 Z"/>
             <path fill="rgb(205,205,205)" stroke="none" d="M 7722,12199 L 7780,12199 7780,12906 7722,12906 7722,12199 Z M 7723,12214 L 7779,12214 7779,12891 7723,12891 7723,12214 Z"/>
             <path fill="rgb(206,206,206)" stroke="none" d="M 7723,12214 L 7779,12214 7779,12891 7723,12891 7723,12214 Z M 7724,12229 L 7778,12229 7778,12876 7724,12876 7724,12229 Z"/>
             <path fill="rgb(207,207,207)" stroke="none" d="M 7724,12229 L 7778,12229 7778,12876 7724,12876 7724,12229 Z M 7725,12244 L 7777,12244 7777,12861 7725,12861 7725,12244 Z"/>
             <path fill="rgb(208,208,208)" stroke="none" d="M 7725,12244 L 7777,12244 7777,12861 7725,12861 7725,12244 Z M 7727,12258 L 7775,12258 7775,12847 7727,12847 7727,12258 Z"/>
             <path fill="rgb(209,209,209)" stroke="none" d="M 7727,12258 L 7775,12258 7775,12847 7727,12847 7727,12258 Z M 7728,12273 L 7774,12273 7774,12832 7728,12832 7728,12273 Z"/>
             <path fill="rgb(210,210,210)" stroke="none" d="M 7728,12273 L 7774,12273 7774,12832 7728,12832 7728,12273 Z M 7729,12288 L 7773,12288 7773,12817 7729,12817 7729,12288 Z"/>
             <path fill="rgb(211,211,211)" stroke="none" d="M 7729,12288 L 7773,12288 7773,12817 7729,12817 7729,12288 Z M 7730,12303 L 7772,12303 7772,12802 7730,12802 7730,12303 Z"/>
             <path fill="rgb(212,212,212)" stroke="none" d="M 7730,12303 L 7772,12303 7772,12802 7730,12802 7730,12303 Z M 7732,12317 L 7770,12317 7770,12788 7732,12788 7732,12317 Z"/>
             <path fill="rgb(213,213,213)" stroke="none" d="M 7732,12317 L 7770,12317 7770,12788 7732,12788 7732,12317 Z M 7733,12332 L 7769,12332 7769,12773 7733,12773 7733,12332 Z"/>
             <path fill="rgb(214,214,214)" stroke="none" d="M 7733,12332 L 7769,12332 7769,12773 7733,12773 7733,12332 Z M 7734,12347 L 7768,12347 7768,12758 7734,12758 7734,12347 Z"/>
             <path fill="rgb(215,215,215)" stroke="none" d="M 7734,12347 L 7768,12347 7768,12758 7734,12758 7734,12347 Z M 7735,12362 L 7767,12362 7767,12743 7735,12743 7735,12362 Z"/>
             <path fill="rgb(216,216,216)" stroke="none" d="M 7735,12362 L 7767,12362 7767,12743 7735,12743 7735,12362 Z M 7737,12376 L 7765,12376 7765,12729 7737,12729 7737,12376 Z"/>
             <path fill="rgb(217,217,217)" stroke="none" d="M 7737,12376 L 7765,12376 7765,12729 7737,12729 7737,12376 Z M 7738,12391 L 7764,12391 7764,12714 7738,12714 7738,12391 Z"/>
             <path fill="rgb(218,218,218)" stroke="none" d="M 7738,12391 L 7764,12391 7764,12714 7738,12714 7738,12391 Z M 7739,12406 L 7763,12406 7763,12699 7739,12699 7739,12406 Z"/>
             <path fill="rgb(219,219,219)" stroke="none" d="M 7739,12406 L 7763,12406 7763,12699 7739,12699 7739,12406 Z M 7740,12420 L 7762,12420 7762,12685 7740,12685 7740,12420 Z"/>
             <path fill="rgb(220,220,220)" stroke="none" d="M 7740,12420 L 7762,12420 7762,12685 7740,12685 7740,12420 Z M 7742,12435 L 7760,12435 7760,12670 7742,12670 7742,12435 Z"/>
             <path fill="rgb(221,221,221)" stroke="none" d="M 7742,12435 L 7760,12435 7760,12670 7742,12670 7742,12435 Z M 7743,12450 L 7759,12450 7759,12655 7743,12655 7743,12450 Z"/>
             <path fill="rgb(222,222,222)" stroke="none" d="M 7743,12450 L 7759,12450 7759,12655 7743,12655 7743,12450 Z M 7744,12465 L 7758,12465 7758,12640 7744,12640 7744,12465 Z"/>
             <path fill="rgb(223,223,223)" stroke="none" d="M 7744,12465 L 7758,12465 7758,12640 7744,12640 7744,12465 Z M 7745,12479 L 7757,12479 7757,12626 7745,12626 7745,12479 Z"/>
             <path fill="rgb(224,224,224)" stroke="none" d="M 7745,12479 L 7757,12479 7757,12626 7745,12626 7745,12479 Z M 7747,12494 L 7755,12494 7755,12611 7747,12611 7747,12494 Z"/>
             <path fill="rgb(225,225,225)" stroke="none" d="M 7747,12494 L 7755,12494 7755,12611 7747,12611 7747,12494 Z M 7748,12509 L 7754,12509 7754,12596 7748,12596 7748,12509 Z"/>
             <path fill="rgb(226,226,226)" stroke="none" d="M 7748,12509 L 7754,12509 7754,12596 7748,12596 7748,12509 Z M 7749,12524 L 7753,12524 7753,12581 7749,12581 7749,12524 Z"/>
             <path fill="rgb(227,227,227)" stroke="none" d="M 7749,12524 L 7753,12524 7753,12581 7749,12581 7749,12524 Z M 7750,12538 L 7752,12538 7752,12567 7750,12567 7750,12538 Z"/>
             <path fill="rgb(229,229,229)" stroke="none" d="M 7750,12538 L 7752,12538 7752,12567 7750,12567 7750,12538 Z"/>
            </g>
           </pattern>
          </defs>
          <path style="fill:url(#pattern2)" d="M 7716,13583 L 7716,12183 7837,12113 7837,13513 7716,13583 Z"/>
         </g>
         <path fill="none" stroke="rgb(255,255,255)" stroke-width="40" stroke-linejoin="round" d="M 7716,13583 L 7716,12183 7837,12113 7837,13513 7716,13583 Z"/>
        </g>
       </g>
       <g class="com.sun.star.drawing.PolyPolygonShape">
        <g id="id7">
         <rect class="BoundingBox" stroke="none" fill="none" x="6483" y="11463" width="1254" height="2141"/>
         <g>
          <defs>
           <linearGradient id="gradient2" x1="6501" y1="12533" x2="7717" y2="12533" gradientUnits="userSpaceOnUse">
            <stop offset="0.1" style="stop-color:rgb(179,179,179)"/>
            <stop offset="1" style="stop-color:rgb(229,229,229)"/>
           </linearGradient>
          </defs>
          <path style="fill:url(#gradient2)" d="M 6503,12883 L 6503,11483 7716,12183 7716,13583 6503,12883 Z"/>
         </g>
         <path fill="none" stroke="rgb(255,255,255)" stroke-width="40" stroke-linejoin="round" d="M 6503,12883 L 6503,11483 7716,12183 7716,13583 6503,12883 Z"/>
        </g>
       </g>
       <g class="com.sun.star.drawing.PolyPolygonShape">
        <g id="id8">
         <rect class="BoundingBox" stroke="none" fill="none" x="6483" y="11393" width="1375" height="811"/>
         <g>
          <defs>
           <linearGradient id="gradient3" x1="7170" y1="11413" x2="7170" y2="12183" gradientUnits="userSpaceOnUse">
            <stop offset="0.1" style="stop-color:rgb(179,179,179)"/>
            <stop offset="1" style="stop-color:rgb(229,229,229)"/>
           </linearGradient>
          </defs>
          <path style="fill:url(#gradient3)" d="M 7716,12183 L 6503,11483 6625,11413 7837,12113 7716,12183 Z"/>
         </g>
         <path fill="none" stroke="rgb(255,255,255)" stroke-width="40" stroke-linejoin="round" d="M 7716,12183 L 6503,11483 6625,11413 7837,12113 7716,12183 Z"/>
        </g>
       </g>
       <g class="com.sun.star.drawing.PolyPolygonShape">
        <g id="id9">
         <rect class="BoundingBox" stroke="none" fill="none" x="6605" y="12653" width="163" height="252"/>
         <path fill="rgb(255,255,255)" stroke="none" d="M 6625,12813 L 6625,12673 6746,12743 6746,12883 6625,12813 Z"/>
         <path fill="none" stroke="rgb(127,127,127)" stroke-width="40" stroke-linejoin="round" d="M 6625,12813 L 6625,12673 6746,12743 6746,12883 6625,12813 Z"/>
        </g>
       </g>
       <g class="com.sun.star.drawing.PolyPolygonShape">
        <g id="id10">
         <rect class="BoundingBox" stroke="none" fill="none" x="6483" y="11113" width="2102" height="2492"/>
         <path fill="none" stroke="rgb(0,0,0)" stroke-width="40" stroke-linejoin="round" d="M 6503,12883 L 6503,11483 6625,11413 6867,11553 7594,11133 8564,11693 8564,12813 7837,13233 7837,13513 7716,13583 6503,12883 Z"/>
        </g>
       </g>
       <g class="com.sun.star.drawing.PolyPolygonShape">
        <g id="id11">
         <rect class="BoundingBox" stroke="none" fill="none" x="6603" y="11743" width="1013" height="1371"/>
         <g>
          <defs>
           <linearGradient id="gradient4" x1="6622" y1="12428" x2="7596" y2="12428" gradientUnits="userSpaceOnUse">
            <stop offset="0.1" style="stop-color:rgb(147,212,240)"/>
            <stop offset="1" style="stop-color:rgb(233,246,252)"/>
           </linearGradient>
          </defs>
          <path style="fill:url(#gradient4)" d="M 6623,12533 L 6624,11763 7594,12323 7595,13093 6623,12533 Z"/>
         </g>
         <path fill="none" stroke="rgb(102,102,102)" stroke-width="40" stroke-linejoin="round" d="M 6623,12533 L 6624,11763 7594,12323 7595,13093 6623,12533 Z"/>
        </g>
       </g>
       <g class="com.sun.star.drawing.PolyPolygonShape">
        <g id="id12">
         <rect class="BoundingBox" stroke="none" fill="none" x="6847" y="12793" width="163" height="252"/>
         <path fill="rgb(255,255,255)" stroke="none" d="M 6867,12953 L 6867,12813 6988,12883 6988,13023 6867,12953 Z"/>
         <path fill="none" stroke="rgb(127,127,127)" stroke-width="40" stroke-linejoin="round" d="M 6867,12953 L 6867,12813 6988,12883 6988,13023 6867,12953 Z"/>
        </g>
       </g>
       <g class="com.sun.star.drawing.PolyPolygonShape">
        <g id="id13">
         <rect class="BoundingBox" stroke="none" fill="none" x="7090" y="12933" width="162" height="251"/>
         <path fill="rgb(255,255,255)" stroke="none" d="M 7110,13093 L 7110,12953 7231,13023 7231,13163 7110,13093 Z"/>
         <path fill="none" stroke="rgb(127,127,127)" stroke-width="40" stroke-linejoin="round" d="M 7110,13093 L 7110,12953 7231,13023 7231,13163 7110,13093 Z"/>
        </g>
       </g>
      </g>
     </g>
    </g>
   </g>
  </g>
 </g>
</svg>