<?xml version="1.0" encoding="UTF-8"?>
<!DOCTYPE svg PUBLIC "-//W3C//DTD SVG 1.1//EN" "http://www.w3.org/Graphics/SVG/1.1/DTD/svg11.dtd">
<svg version="1.2" width="27.19mm" height="35.4mm" viewBox="10468 5819 2719 3540" preserveAspectRatio="xMidYMid" fill-rule="evenodd" stroke-width="28.222" stroke-linejoin="round" xmlns="http://www.w3.org/2000/svg" xmlns:ooo="http://xml.openoffice.org/svg/export" xmlns:xlink="http://www.w3.org/1999/xlink" xmlns:presentation="http://sun.com/xmlns/staroffice/presentation" xmlns:smil="http://www.w3.org/2001/SMIL20/" xmlns:anim="urn:oasis:names:tc:opendocument:xmlns:animation:1.0" xml:space="preserve">
 <defs class="ClipPathGroup">
  <clipPath id="presentation_clip_path" clipPathUnits="userSpaceOnUse">
   <rect x="10468" y="5819" width="2719" height="3540"/>
  </clipPath>
 </defs>
 <defs class="TextShapeIndex">
  <g ooo:slide="id1" ooo:id-list="id3 id4 id5 id6 id7 id8 id9 id10 id11 id12 id13 id14"/>
 </defs>
 <defs class="EmbeddedBulletChars">
  <g id="bullet-char-template(57356)" transform="scale(0.00048828125,-0.00048828125)">
   <path d="M 580,1141 L 1163,571 580,0 -4,571 580,1141 Z"/>
  </g>
  <g id="bullet-char-template(57354)" transform="scale(0.00048828125,-0.00048828125)">
   <path d="M 8,1128 L 1137,1128 1137,0 8,0 8,1128 Z"/>
  </g>
  <g id="bullet-char-template(10146)" transform="scale(0.00048828125,-0.00048828125)">
   <path d="M 174,0 L 602,739 174,1481 1456,739 174,0 Z M 1358,739 L 309,1346 659,739 1358,739 Z"/>
  </g>
  <g id="bullet-char-template(10132)" transform="scale(0.00048828125,-0.00048828125)">
   <path d="M 2015,739 L 1276,0 717,0 1260,543 174,543 174,936 1260,936 717,1481 1274,1481 2015,739 Z"/>
  </g>
  <g id="bullet-char-template(10007)" transform="scale(0.00048828125,-0.00048828125)">
   <path d="M 0,-2 C -7,14 -16,27 -25,37 L 356,567 C 262,823 215,952 215,954 215,979 228,992 255,992 264,992 276,990 289,987 310,991 331,999 354,1012 L 381,999 492,748 772,1049 836,1024 860,1049 C 881,1039 901,1025 922,1006 886,937 835,863 770,784 769,783 710,716 594,584 L 774,223 C 774,196 753,168 711,139 L 727,119 C 717,90 699,76 672,76 641,76 570,178 457,381 L 164,-76 C 142,-110 111,-127 72,-127 30,-127 9,-110 8,-76 1,-67 -2,-52 -2,-32 -2,-23 -1,-13 0,-2 Z"/>
  </g>
  <g id="bullet-char-template(10004)" transform="scale(0.00048828125,-0.00048828125)">
   <path d="M 285,-33 C 182,-33 111,30 74,156 52,228 41,333 41,471 41,549 55,616 82,672 116,743 169,778 240,778 293,778 328,747 346,684 L 369,508 C 377,444 397,411 428,410 L 1163,1116 C 1174,1127 1196,1133 1229,1133 1271,1133 1292,1118 1292,1087 L 1292,965 C 1292,929 1282,901 1262,881 L 442,47 C 390,-6 338,-33 285,-33 Z"/>
  </g>
  <g id="bullet-char-template(9679)" transform="scale(0.00048828125,-0.00048828125)">
   <path d="M 813,0 C 632,0 489,54 383,161 276,268 223,411 223,592 223,773 276,916 383,1023 489,1130 632,1184 813,1184 992,1184 1136,1130 1245,1023 1353,916 1407,772 1407,592 1407,412 1353,268 1245,161 1136,54 992,0 813,0 Z"/>
  </g>
  <g id="bullet-char-template(8226)" transform="scale(0.00048828125,-0.00048828125)">
   <path d="M 346,457 C 273,457 209,483 155,535 101,586 74,649 74,723 74,796 101,859 155,911 209,963 273,989 346,989 419,989 480,963 531,910 582,859 608,796 608,723 608,648 583,586 532,535 482,483 420,457 346,457 Z"/>
  </g>
  <g id="bullet-char-template(8211)" transform="scale(0.00048828125,-0.00048828125)">
   <path d="M -4,459 L 1135,459 1135,606 -4,606 -4,459 Z"/>
  </g>
 </defs>
 <defs class="TextEmbeddedBitmaps"/>
 <g class="SlideGroup">
  <g>
   <g id="id1" class="Slide" clip-path="url(#presentation_clip_path)">
    <g class="Page">
     <g class="Group">
      <g class="com.sun.star.drawing.ClosedBezierShape">
       <g id="id3">
        <rect class="BoundingBox" stroke="none" fill="none" x="11364" y="8193" width="1824" height="1056"/>
        <path fill="rgb(221,221,221)" stroke="none" d="M 11365,9247 C 11678,9247 13186,8786 13186,8589 13186,8391 13072,8326 12731,8194 12731,8391 11365,8918 11365,9247 Z"/>
        <path fill="none" stroke="rgb(221,221,221)" d="M 11365,9247 C 11678,9247 13186,8786 13186,8589 13186,8391 13072,8326 12731,8194 12731,8391 11365,8918 11365,9247 Z"/>
       </g>
      </g>
      <g class="Group">
       <g class="com.sun.star.drawing.PolyPolygonShape">
        <g id="id4">
         <rect class="BoundingBox" stroke="none" fill="none" x="10468" y="6740" width="679" height="2620"/>
         <g>
          <defs>
           <linearGradient id="gradient1" x1="10488" y1="8049" x2="11127" y2="8049" gradientUnits="userSpaceOnUse">
            <stop offset="0.1" style="stop-color:rgb(51,51,51)"/>
            <stop offset="1" style="stop-color:rgb(153,153,153)"/>
           </linearGradient>
          </defs>
          <path style="fill:url(#gradient1)" d="M 10488,8971 L 10488,6760 11126,7128 11126,9339 10488,8971 Z"/>
         </g>
         <path fill="none" stroke="rgb(178,178,178)" stroke-width="40" stroke-linejoin="round" d="M 10488,8971 L 10488,6760 11126,7128 11126,9339 10488,8971 Z"/>
        </g>
       </g>
       <g class="com.sun.star.drawing.PolyPolygonShape">
        <g id="id5">
         <rect class="BoundingBox" stroke="none" fill="none" x="11106" y="6187" width="1637" height="3174"/>
         <g>
          <defs>
           <pattern id="pattern1" x="11126" y="6207" width="1596" height="3133" patternUnits="userSpaceOnUse">
            <g transform="translate(-11126,-6207)">
             <path fill="rgb(51,51,51)" stroke="none" d="M 11125,6206 L 12722,6206 12722,9340 11125,9340 11125,6206 Z M 10813,5595 L 12394,5595 12394,8697 10813,8697 10813,5595 Z"/>
             <path fill="rgb(52,52,52)" stroke="none" d="M 10813,5595 L 12394,5595 12394,8697 10813,8697 10813,5595 Z M 10821,5610 L 12386,5610 12386,8682 10821,8682 10821,5610 Z"/>
             <path fill="rgb(53,53,53)" stroke="none" d="M 10821,5610 L 12386,5610 12386,8682 10821,8682 10821,5610 Z M 10829,5626 L 12378,5626 12378,8666 10829,8666 10829,5626 Z"/>
             <path fill="rgb(54,54,54)" stroke="none" d="M 10829,5626 L 12378,5626 12378,8666 10829,8666 10829,5626 Z M 10837,5641 L 12370,5641 12370,8651 10837,8651 10837,5641 Z"/>
             <path fill="rgb(55,55,55)" stroke="none" d="M 10837,5641 L 12370,5641 12370,8651 10837,8651 10837,5641 Z M 10845,5656 L 12362,5656 12362,8636 10845,8636 10845,5656 Z"/>
             <path fill="rgb(56,56,56)" stroke="none" d="M 10845,5656 L 12362,5656 12362,8636 10845,8636 10845,5656 Z M 10852,5672 L 12355,5672 12355,8620 10852,8620 10852,5672 Z"/>
             <path fill="rgb(57,57,57)" stroke="none" d="M 10852,5672 L 12355,5672 12355,8620 10852,8620 10852,5672 Z M 10860,5687 L 12347,5687 12347,8605 10860,8605 10860,5687 Z"/>
             <path fill="rgb(58,58,58)" stroke="none" d="M 10860,5687 L 12347,5687 12347,8605 10860,8605 10860,5687 Z M 10868,5702 L 12339,5702 12339,8590 10868,8590 10868,5702 Z"/>
             <path fill="rgb(59,59,59)" stroke="none" d="M 10868,5702 L 12339,5702 12339,8590 10868,8590 10868,5702 Z M 10876,5718 L 12331,5718 12331,8574 10876,8574 10876,5718 Z"/>
             <path fill="rgb(60,60,60)" stroke="none" d="M 10876,5718 L 12331,5718 12331,8574 10876,8574 10876,5718 Z M 10884,5733 L 12323,5733 12323,8559 10884,8559 10884,5733 Z"/>
             <path fill="rgb(61,61,61)" stroke="none" d="M 10884,5733 L 12323,5733 12323,8559 10884,8559 10884,5733 Z M 10892,5749 L 12315,5749 12315,8543 10892,8543 10892,5749 Z"/>
             <path fill="rgb(62,62,62)" stroke="none" d="M 10892,5749 L 12315,5749 12315,8543 10892,8543 10892,5749 Z M 10899,5764 L 12308,5764 12308,8528 10899,8528 10899,5764 Z"/>
             <path fill="rgb(63,63,63)" stroke="none" d="M 10899,5764 L 12308,5764 12308,8528 10899,8528 10899,5764 Z M 10907,5779 L 12300,5779 12300,8513 10907,8513 10907,5779 Z"/>
             <path fill="rgb(64,64,64)" stroke="none" d="M 10907,5779 L 12300,5779 12300,8513 10907,8513 10907,5779 Z M 10915,5795 L 12292,5795 12292,8497 10915,8497 10915,5795 Z"/>
             <path fill="rgb(65,65,65)" stroke="none" d="M 10915,5795 L 12292,5795 12292,8497 10915,8497 10915,5795 Z M 10923,5810 L 12284,5810 12284,8482 10923,8482 10923,5810 Z"/>
             <path fill="rgb(66,66,66)" stroke="none" d="M 10923,5810 L 12284,5810 12284,8482 10923,8482 10923,5810 Z M 10931,5825 L 12276,5825 12276,8467 10931,8467 10931,5825 Z"/>
             <path fill="rgb(67,67,67)" stroke="none" d="M 10931,5825 L 12276,5825 12276,8467 10931,8467 10931,5825 Z M 10939,5841 L 12268,5841 12268,8451 10939,8451 10939,5841 Z"/>
             <path fill="rgb(68,68,68)" stroke="none" d="M 10939,5841 L 12268,5841 12268,8451 10939,8451 10939,5841 Z M 10947,5856 L 12261,5856 12261,8436 10947,8436 10947,5856 Z"/>
             <path fill="rgb(69,69,69)" stroke="none" d="M 10947,5856 L 12261,5856 12261,8436 10947,8436 10947,5856 Z M 10954,5871 L 12253,5871 12253,8421 10954,8421 10954,5871 Z"/>
             <path fill="rgb(70,70,70)" stroke="none" d="M 10954,5871 L 12253,5871 12253,8421 10954,8421 10954,5871 Z M 10962,5887 L 12245,5887 12245,8405 10962,8405 10962,5887 Z"/>
             <path fill="rgb(71,71,71)" stroke="none" d="M 10962,5887 L 12245,5887 12245,8405 10962,8405 10962,5887 Z M 10970,5902 L 12237,5902 12237,8390 10970,8390 10970,5902 Z"/>
             <path fill="rgb(72,72,72)" stroke="none" d="M 10970,5902 L 12237,5902 12237,8390 10970,8390 10970,5902 Z M 10978,5918 L 12229,5918 12229,8374 10978,8374 10978,5918 Z"/>
             <path fill="rgb(73,73,73)" stroke="none" d="M 10978,5918 L 12229,5918 12229,8374 10978,8374 10978,5918 Z M 10986,5933 L 12221,5933 12221,8359 10986,8359 10986,5933 Z"/>
             <path fill="rgb(74,74,74)" stroke="none" d="M 10986,5933 L 12221,5933 12221,8359 10986,8359 10986,5933 Z M 10994,5948 L 12214,5948 12214,8344 10994,8344 10994,5948 Z"/>
             <path fill="rgb(75,75,75)" stroke="none" d="M 10994,5948 L 12214,5948 12214,8344 10994,8344 10994,5948 Z M 11001,5964 L 12206,5964 12206,8328 11001,8328 11001,5964 Z"/>
             <path fill="rgb(76,76,76)" stroke="none" d="M 11001,5964 L 12206,5964 12206,8328 11001,8328 11001,5964 Z M 11009,5979 L 12198,5979 12198,8313 11009,8313 11009,5979 Z"/>
             <path fill="rgb(77,77,77)" stroke="none" d="M 11009,5979 L 12198,5979 12198,8313 11009,8313 11009,5979 Z M 11017,5994 L 12190,5994 12190,8298 11017,8298 11017,5994 Z"/>
             <path fill="rgb(78,78,78)" stroke="none" d="M 11017,5994 L 12190,5994 12190,8298 11017,8298 11017,5994 Z M 11025,6010 L 12182,6010 12182,8282 11025,8282 11025,6010 Z"/>
             <path fill="rgb(79,79,79)" stroke="none" d="M 11025,6010 L 12182,6010 12182,8282 11025,8282 11025,6010 Z M 11033,6025 L 12174,6025 12174,8267 11033,8267 11033,6025 Z"/>
             <path fill="rgb(80,80,80)" stroke="none" d="M 11033,6025 L 12174,6025 12174,8267 11033,8267 11033,6025 Z M 11041,6041 L 12167,6041 12167,8251 11041,8251 11041,6041 Z"/>
             <path fill="rgb(81,81,81)" stroke="none" d="M 11041,6041 L 12167,6041 12167,8251 11041,8251 11041,6041 Z M 11048,6056 L 12159,6056 12159,8236 11048,8236 11048,6056 Z"/>
             <path fill="rgb(82,82,82)" stroke="none" d="M 11048,6056 L 12159,6056 12159,8236 11048,8236 11048,6056 Z M 11056,6071 L 12151,6071 12151,8221 11056,8221 11056,6071 Z"/>
             <path fill="rgb(83,83,83)" stroke="none" d="M 11056,6071 L 12151,6071 12151,8221 11056,8221 11056,6071 Z M 11064,6087 L 12143,6087 12143,8205 11064,8205 11064,6087 Z"/>
             <path fill="rgb(84,84,84)" stroke="none" d="M 11064,6087 L 12143,6087 12143,8205 11064,8205 11064,6087 Z M 11072,6102 L 12135,6102 12135,8190 11072,8190 11072,6102 Z"/>
             <path fill="rgb(85,85,85)" stroke="none" d="M 11072,6102 L 12135,6102 12135,8190 11072,8190 11072,6102 Z M 11080,6117 L 12127,6117 12127,8175 11080,8175 11080,6117 Z"/>
             <path fill="rgb(86,86,86)" stroke="none" d="M 11080,6117 L 12127,6117 12127,8175 11080,8175 11080,6117 Z M 11088,6133 L 12120,6133 12120,8159 11088,8159 11088,6133 Z"/>
             <path fill="rgb(87,87,87)" stroke="none" d="M 11088,6133 L 12120,6133 12120,8159 11088,8159 11088,6133 Z M 11095,6148 L 12112,6148 12112,8144 11095,8144 11095,6148 Z"/>
             <path fill="rgb(88,88,88)" stroke="none" d="M 11095,6148 L 12112,6148 12112,8144 11095,8144 11095,6148 Z M 11103,6163 L 12104,6163 12104,8129 11103,8129 11103,6163 Z"/>
             <path fill="rgb(89,89,89)" stroke="none" d="M 11103,6163 L 12104,6163 12104,8129 11103,8129 11103,6163 Z M 11110,6179 L 12096,6179 12096,8113 11110,8113 11110,6179 Z"/>
             <path fill="rgb(90,90,90)" stroke="none" d="M 11110,6179 L 12096,6179 12096,8113 11110,8113 11110,6179 Z M 11118,6193 L 12088,6193 12088,8098 11118,8098 11118,6193 Z"/>
             <path fill="rgb(91,91,91)" stroke="none" d="M 11118,6193 L 12088,6193 12088,8098 11118,8098 11118,6193 Z M 11126,6209 L 12080,6209 12080,8082 11126,8082 11126,6209 Z"/>
             <path fill="rgb(92,92,92)" stroke="none" d="M 11126,6209 L 12080,6209 12080,8082 11126,8082 11126,6209 Z M 11134,6224 L 12073,6224 12073,8067 11134,8067 11134,6224 Z"/>
             <path fill="rgb(93,93,93)" stroke="none" d="M 11134,6224 L 12073,6224 12073,8067 11134,8067 11134,6224 Z M 11141,6239 L 12065,6239 12065,8052 11141,8052 11141,6239 Z"/>
             <path fill="rgb(94,94,94)" stroke="none" d="M 11141,6239 L 12065,6239 12065,8052 11141,8052 11141,6239 Z M 11149,6255 L 12057,6255 12057,8036 11149,8036 11149,6255 Z"/>
             <path fill="rgb(95,95,95)" stroke="none" d="M 11149,6255 L 12057,6255 12057,8036 11149,8036 11149,6255 Z M 11157,6270 L 12049,6270 12049,8021 11157,8021 11157,6270 Z"/>
             <path fill="rgb(96,96,96)" stroke="none" d="M 11157,6270 L 12049,6270 12049,8021 11157,8021 11157,6270 Z M 11165,6285 L 12041,6285 12041,8006 11165,8006 11165,6285 Z"/>
             <path fill="rgb(97,97,97)" stroke="none" d="M 11165,6285 L 12041,6285 12041,8006 11165,8006 11165,6285 Z M 11173,6301 L 12033,6301 12033,7990 11173,7990 11173,6301 Z"/>
             <path fill="rgb(98,98,98)" stroke="none" d="M 11173,6301 L 12033,6301 12033,7990 11173,7990 11173,6301 Z M 11181,6316 L 12026,6316 12026,7975 11181,7975 11181,6316 Z"/>
             <path fill="rgb(99,99,99)" stroke="none" d="M 11181,6316 L 12026,6316 12026,7975 11181,7975 11181,6316 Z M 11188,6332 L 12018,6332 12018,7959 11188,7959 11188,6332 Z"/>
             <path fill="rgb(100,100,100)" stroke="none" d="M 11188,6332 L 12018,6332 12018,7959 11188,7959 11188,6332 Z M 11196,6347 L 12010,6347 12010,7944 11196,7944 11196,6347 Z"/>
             <path fill="rgb(101,101,101)" stroke="none" d="M 11196,6347 L 12010,6347 12010,7944 11196,7944 11196,6347 Z M 11204,6362 L 12002,6362 12002,7929 11204,7929 11204,6362 Z"/>
             <path fill="rgb(102,102,102)" stroke="none" d="M 11204,6362 L 12002,6362 12002,7929 11204,7929 11204,6362 Z M 11212,6378 L 11994,6378 11994,7913 11212,7913 11212,6378 Z"/>
             <path fill="rgb(103,103,103)" stroke="none" d="M 11212,6378 L 11994,6378 11994,7913 11212,7913 11212,6378 Z M 11220,6393 L 11986,6393 11986,7898 11220,7898 11220,6393 Z"/>
             <path fill="rgb(104,104,104)" stroke="none" d="M 11220,6393 L 11986,6393 11986,7898 11220,7898 11220,6393 Z M 11228,6408 L 11979,6408 11979,7883 11228,7883 11228,6408 Z"/>
             <path fill="rgb(105,105,105)" stroke="none" d="M 11228,6408 L 11979,6408 11979,7883 11228,7883 11228,6408 Z M 11235,6424 L 11971,6424 11971,7867 11235,7867 11235,6424 Z"/>
             <path fill="rgb(106,106,106)" stroke="none" d="M 11235,6424 L 11971,6424 11971,7867 11235,7867 11235,6424 Z M 11243,6439 L 11963,6439 11963,7852 11243,7852 11243,6439 Z"/>
             <path fill="rgb(107,107,107)" stroke="none" d="M 11243,6439 L 11963,6439 11963,7852 11243,7852 11243,6439 Z M 11251,6454 L 11955,6454 11955,7837 11251,7837 11251,6454 Z"/>
             <path fill="rgb(108,108,108)" stroke="none" d="M 11251,6454 L 11955,6454 11955,7837 11251,7837 11251,6454 Z M 11259,6470 L 11947,6470 11947,7821 11259,7821 11259,6470 Z"/>
             <path fill="rgb(109,109,109)" stroke="none" d="M 11259,6470 L 11947,6470 11947,7821 11259,7821 11259,6470 Z M 11267,6485 L 11939,6485 11939,7806 11267,7806 11267,6485 Z"/>
             <path fill="rgb(110,110,110)" stroke="none" d="M 11267,6485 L 11939,6485 11939,7806 11267,7806 11267,6485 Z M 11275,6501 L 11932,6501 11932,7790 11275,7790 11275,6501 Z"/>
             <path fill="rgb(111,111,111)" stroke="none" d="M 11275,6501 L 11932,6501 11932,7790 11275,7790 11275,6501 Z M 11282,6516 L 11924,6516 11924,7775 11282,7775 11282,6516 Z"/>
             <path fill="rgb(112,112,112)" stroke="none" d="M 11282,6516 L 11924,6516 11924,7775 11282,7775 11282,6516 Z M 11290,6531 L 11916,6531 11916,7760 11290,7760 11290,6531 Z"/>
             <path fill="rgb(113,113,113)" stroke="none" d="M 11290,6531 L 11916,6531 11916,7760 11290,7760 11290,6531 Z M 11298,6547 L 11908,6547 11908,7744 11298,7744 11298,6547 Z"/>
             <path fill="rgb(114,114,114)" stroke="none" d="M 11298,6547 L 11908,6547 11908,7744 11298,7744 11298,6547 Z M 11306,6562 L 11900,6562 11900,7729 11306,7729 11306,6562 Z"/>
             <path fill="rgb(115,115,115)" stroke="none" d="M 11306,6562 L 11900,6562 11900,7729 11306,7729 11306,6562 Z M 11314,6577 L 11892,6577 11892,7714 11314,7714 11314,6577 Z"/>
             <path fill="rgb(116,116,116)" stroke="none" d="M 11314,6577 L 11892,6577 11892,7714 11314,7714 11314,6577 Z M 11322,6593 L 11885,6593 11885,7698 11322,7698 11322,6593 Z"/>
             <path fill="rgb(117,117,117)" stroke="none" d="M 11322,6593 L 11885,6593 11885,7698 11322,7698 11322,6593 Z M 11329,6608 L 11877,6608 11877,7683 11329,7683 11329,6608 Z"/>
             <path fill="rgb(118,118,118)" stroke="none" d="M 11329,6608 L 11877,6608 11877,7683 11329,7683 11329,6608 Z M 11337,6624 L 11869,6624 11869,7668 11337,7668 11337,6624 Z"/>
             <path fill="rgb(119,119,119)" stroke="none" d="M 11337,6624 L 11869,6624 11869,7668 11337,7668 11337,6624 Z M 11345,6639 L 11861,6639 11861,7652 11345,7652 11345,6639 Z"/>
             <path fill="rgb(120,120,120)" stroke="none" d="M 11345,6639 L 11861,6639 11861,7652 11345,7652 11345,6639 Z M 11353,6654 L 11853,6654 11853,7637 11353,7637 11353,6654 Z"/>
             <path fill="rgb(121,121,121)" stroke="none" d="M 11353,6654 L 11853,6654 11853,7637 11353,7637 11353,6654 Z M 11361,6670 L 11845,6670 11845,7621 11361,7621 11361,6670 Z"/>
             <path fill="rgb(122,122,122)" stroke="none" d="M 11361,6670 L 11845,6670 11845,7621 11361,7621 11361,6670 Z M 11369,6685 L 11838,6685 11838,7606 11369,7606 11369,6685 Z"/>
             <path fill="rgb(123,123,123)" stroke="none" d="M 11369,6685 L 11838,6685 11838,7606 11369,7606 11369,6685 Z M 11376,6700 L 11830,6700 11830,7591 11376,7591 11376,6700 Z"/>
             <path fill="rgb(124,124,124)" stroke="none" d="M 11376,6700 L 11830,6700 11830,7591 11376,7591 11376,6700 Z M 11384,6716 L 11822,6716 11822,7575 11384,7575 11384,6716 Z"/>
             <path fill="rgb(125,125,125)" stroke="none" d="M 11384,6716 L 11822,6716 11822,7575 11384,7575 11384,6716 Z M 11392,6731 L 11814,6731 11814,7560 11392,7560 11392,6731 Z"/>
             <path fill="rgb(126,126,126)" stroke="none" d="M 11392,6731 L 11814,6731 11814,7560 11392,7560 11392,6731 Z M 11400,6746 L 11806,6746 11806,7545 11400,7545 11400,6746 Z"/>
             <path fill="rgb(127,127,127)" stroke="none" d="M 11400,6746 L 11806,6746 11806,7545 11400,7545 11400,6746 Z M 11408,6762 L 11798,6762 11798,7529 11408,7529 11408,6762 Z"/>
             <path fill="rgb(128,128,128)" stroke="none" d="M 11408,6762 L 11798,6762 11798,7529 11408,7529 11408,6762 Z M 11416,6777 L 11791,6777 11791,7514 11416,7514 11416,6777 Z"/>
             <path fill="rgb(129,129,129)" stroke="none" d="M 11416,6777 L 11791,6777 11791,7514 11416,7514 11416,6777 Z M 11423,6793 L 11783,6793 11783,7498 11423,7498 11423,6793 Z"/>
             <path fill="rgb(130,130,130)" stroke="none" d="M 11423,6793 L 11783,6793 11783,7498 11423,7498 11423,6793 Z M 11431,6808 L 11775,6808 11775,7483 11431,7483 11431,6808 Z"/>
             <path fill="rgb(131,131,131)" stroke="none" d="M 11431,6808 L 11775,6808 11775,7483 11431,7483 11431,6808 Z M 11439,6823 L 11767,6823 11767,7468 11439,7468 11439,6823 Z"/>
             <path fill="rgb(132,132,132)" stroke="none" d="M 11439,6823 L 11767,6823 11767,7468 11439,7468 11439,6823 Z M 11447,6839 L 11759,6839 11759,7452 11447,7452 11447,6839 Z"/>
             <path fill="rgb(133,133,133)" stroke="none" d="M 11447,6839 L 11759,6839 11759,7452 11447,7452 11447,6839 Z M 11455,6854 L 11751,6854 11751,7437 11455,7437 11455,6854 Z"/>
             <path fill="rgb(134,134,134)" stroke="none" d="M 11455,6854 L 11751,6854 11751,7437 11455,7437 11455,6854 Z M 11462,6869 L 11744,6869 11744,7422 11462,7422 11462,6869 Z"/>
             <path fill="rgb(135,135,135)" stroke="none" d="M 11462,6869 L 11744,6869 11744,7422 11462,7422 11462,6869 Z M 11470,6885 L 11736,6885 11736,7406 11470,7406 11470,6885 Z"/>
             <path fill="rgb(136,136,136)" stroke="none" d="M 11470,6885 L 11736,6885 11736,7406 11470,7406 11470,6885 Z M 11478,6900 L 11728,6900 11728,7391 11478,7391 11478,6900 Z"/>
             <path fill="rgb(137,137,137)" stroke="none" d="M 11478,6900 L 11728,6900 11728,7391 11478,7391 11478,6900 Z M 11486,6915 L 11720,6915 11720,7376 11486,7376 11486,6915 Z"/>
             <path fill="rgb(138,138,138)" stroke="none" d="M 11486,6915 L 11720,6915 11720,7376 11486,7376 11486,6915 Z M 11494,6931 L 11712,6931 11712,7360 11494,7360 11494,6931 Z"/>
             <path fill="rgb(139,139,139)" stroke="none" d="M 11494,6931 L 11712,6931 11712,7360 11494,7360 11494,6931 Z M 11502,6946 L 11704,6946 11704,7345 11502,7345 11502,6946 Z"/>
             <path fill="rgb(140,140,140)" stroke="none" d="M 11502,6946 L 11704,6946 11704,7345 11502,7345 11502,6946 Z M 11509,6962 L 11697,6962 11697,7329 11509,7329 11509,6962 Z"/>
             <path fill="rgb(141,141,141)" stroke="none" d="M 11509,6962 L 11697,6962 11697,7329 11509,7329 11509,6962 Z M 11517,6977 L 11689,6977 11689,7314 11517,7314 11517,6977 Z"/>
             <path fill="rgb(142,142,142)" stroke="none" d="M 11517,6977 L 11689,6977 11689,7314 11517,7314 11517,6977 Z M 11525,6992 L 11681,6992 11681,7299 11525,7299 11525,6992 Z"/>
             <path fill="rgb(143,143,143)" stroke="none" d="M 11525,6992 L 11681,6992 11681,7299 11525,7299 11525,6992 Z M 11533,7008 L 11673,7008 11673,7283 11533,7283 11533,7008 Z"/>
             <path fill="rgb(144,144,144)" stroke="none" d="M 11533,7008 L 11673,7008 11673,7283 11533,7283 11533,7008 Z M 11541,7023 L 11665,7023 11665,7268 11541,7268 11541,7023 Z"/>
             <path fill="rgb(145,145,145)" stroke="none" d="M 11541,7023 L 11665,7023 11665,7268 11541,7268 11541,7023 Z M 11549,7038 L 11657,7038 11657,7253 11549,7253 11549,7038 Z"/>
             <path fill="rgb(146,146,146)" stroke="none" d="M 11549,7038 L 11657,7038 11657,7253 11549,7253 11549,7038 Z M 11556,7054 L 11650,7054 11650,7237 11556,7237 11556,7054 Z"/>
             <path fill="rgb(147,147,147)" stroke="none" d="M 11556,7054 L 11650,7054 11650,7237 11556,7237 11556,7054 Z M 11564,7069 L 11642,7069 11642,7222 11564,7222 11564,7069 Z"/>
             <path fill="rgb(148,148,148)" stroke="none" d="M 11564,7069 L 11642,7069 11642,7222 11564,7222 11564,7069 Z M 11572,7085 L 11634,7085 11634,7206 11572,7206 11572,7085 Z"/>
             <path fill="rgb(149,149,149)" stroke="none" d="M 11572,7085 L 11634,7085 11634,7206 11572,7206 11572,7085 Z M 11580,7100 L 11626,7100 11626,7191 11580,7191 11580,7100 Z"/>
             <path fill="rgb(150,150,150)" stroke="none" d="M 11580,7100 L 11626,7100 11626,7191 11580,7191 11580,7100 Z M 11588,7115 L 11618,7115 11618,7176 11588,7176 11588,7115 Z"/>
             <path fill="rgb(151,151,151)" stroke="none" d="M 11588,7115 L 11618,7115 11618,7176 11588,7176 11588,7115 Z M 11596,7131 L 11610,7131 11610,7160 11596,7160 11596,7131 Z"/>
             <path fill="rgb(153,153,153)" stroke="none" d="M 11596,7131 L 11610,7131 11610,7160 11596,7160 11596,7131 Z"/>
            </g>
           </pattern>
          </defs>
          <path style="fill:url(#pattern1)" d="M 11126,9339 L 11126,7128 12721,6207 12721,8418 11126,9339 Z"/>
         </g>
         <path fill="none" stroke="rgb(178,178,178)" stroke-width="40" stroke-linejoin="round" d="M 11126,9339 L 11126,7128 12721,6207 12721,8418 11126,9339 Z"/>
        </g>
       </g>
       <g class="com.sun.star.drawing.PolyPolygonShape">
        <g id="id6">
         <rect class="BoundingBox" stroke="none" fill="none" x="10468" y="5819" width="2275" height="1330"/>
         <g>
          <defs>
           <linearGradient id="gradient2" x1="11605" y1="5839" x2="11605" y2="7128" gradientUnits="userSpaceOnUse">
            <stop offset="0.1" style="stop-color:rgb(51,51,51)"/>
            <stop offset="1" style="stop-color:rgb(153,153,153)"/>
           </linearGradient>
          </defs>
          <path style="fill:url(#gradient2)" d="M 11126,7128 L 10488,6760 12083,5839 12722,6207 11126,7128 Z"/>
         </g>
         <path fill="none" stroke="rgb(178,178,178)" stroke-width="40" stroke-linejoin="round" d="M 11126,7128 L 10488,6760 12083,5839 12722,6207 11126,7128 Z"/>
        </g>
       </g>
       <g class="com.sun.star.drawing.PolyPolygonShape">
        <g id="id7">
         <rect class="BoundingBox" stroke="none" fill="none" x="10468" y="5819" width="2275" height="3541"/>
         <path fill="none" stroke="rgb(0,0,0)" stroke-width="40" stroke-linejoin="round" d="M 10488,8971 L 10488,6760 12083,5839 12722,6207 12722,8418 11126,9339 10488,8971 Z"/>
        </g>
       </g>
       <g class="com.sun.star.drawing.PolyPolygonShape">
        <g id="id8">
         <rect class="BoundingBox" stroke="none" fill="none" x="11743" y="5911" width="520" height="317"/>
         <path fill="rgb(0,0,0)" stroke="none" d="M 11764,6115 L 12083,5931 12242,6023 11923,6207 11764,6115 Z"/>
         <path fill="none" stroke="rgb(178,178,178)" stroke-width="40" stroke-linejoin="round" d="M 11764,6115 L 12083,5931 12242,6023 11923,6207 11764,6115 Z"/>
        </g>
       </g>
       <g class="com.sun.star.drawing.PolyPolygonShape">
        <g id="id9">
         <rect class="BoundingBox" stroke="none" fill="none" x="10626" y="6970" width="361" height="2159"/>
         <path fill="rgb(255,255,255)" stroke="none" d="M 10647,8924 L 10647,6990 10966,7174 10966,9108 10647,8924 Z"/>
         <path fill="none" stroke="rgb(255,255,255)" stroke-width="40" stroke-linejoin="round" d="M 10647,8924 L 10647,6990 10966,7174 10966,9108 10647,8924 Z"/>
        </g>
       </g>
       <g class="com.sun.star.drawing.PolyPolygonShape">
        <g id="id10">
         <rect class="BoundingBox" stroke="none" fill="none" x="11344" y="6141" width="680" height="409"/>
         <path fill="rgb(0,0,0)" stroke="none" d="M 11365,6345 L 11684,6161 12003,6345 11684,6529 11365,6345 Z"/>
         <path fill="none" stroke="rgb(178,178,178)" stroke-width="40" stroke-linejoin="round" d="M 11365,6345 L 11684,6161 12003,6345 11684,6529 11365,6345 Z"/>
        </g>
       </g>
       <g class="com.sun.star.drawing.PolyPolygonShape">
        <g id="id11">
         <rect class="BoundingBox" stroke="none" fill="none" x="11105" y="6372" width="520" height="317"/>
         <path fill="rgb(0,0,0)" stroke="none" d="M 11126,6484 L 11285,6392 11604,6576 11445,6668 11126,6484 Z"/>
         <path fill="none" stroke="rgb(178,178,178)" stroke-width="40" stroke-linejoin="round" d="M 11126,6484 L 11285,6392 11604,6576 11445,6668 11126,6484 Z"/>
        </g>
       </g>
       <g class="com.sun.star.drawing.PolyPolygonShape">
        <g id="id12">
         <rect class="BoundingBox" stroke="none" fill="none" x="10786" y="6510" width="520" height="317"/>
         <path fill="rgb(0,0,0)" stroke="none" d="M 10806,6668 L 11045,6530 11285,6668 11045,6806 10806,6668 Z"/>
         <path fill="none" stroke="rgb(178,178,178)" stroke-width="40" stroke-linejoin="round" d="M 10806,6668 L 11045,6530 11285,6668 11045,6806 10806,6668 Z"/>
        </g>
       </g>
       <g class="com.sun.star.drawing.PolyPolygonShape">
        <g id="id13">
         <rect class="BoundingBox" stroke="none" fill="none" x="10707" y="8720" width="121" height="225"/>
         <path fill="rgb(255,51,51)" stroke="none" d="M 10727,8878 L 10727,8740 10807,8786 10807,8924 10727,8878 Z"/>
         <path fill="none" stroke="rgb(51,51,51)" stroke-width="40" stroke-linejoin="round" d="M 10727,8878 L 10727,8740 10807,8786 10807,8924 10727,8878 Z"/>
        </g>
       </g>
       <g class="com.sun.star.drawing.PolyPolygonShape">
        <g id="id14">
         <rect class="BoundingBox" stroke="none" fill="none" x="10707" y="8490" width="121" height="225"/>
         <path fill="rgb(153,255,102)" stroke="none" d="M 10727,8648 L 10727,8510 10807,8556 10807,8694 10727,8648 Z"/>
         <path fill="none" stroke="rgb(51,51,51)" stroke-width="40" stroke-linejoin="round" d="M 10727,8648 L 10727,8510 10807,8556 10807,8694 10727,8648 Z"/>
        </g>
       </g>
      </g>
     </g>
    </g>
   </g>
  </g>
 </g>
</svg>