<?xml version="1.0" encoding="UTF-8"?>
<!DOCTYPE svg PUBLIC "-//W3C//DTD SVG 1.1//EN" "http://www.w3.org/Graphics/SVG/1.1/DTD/svg11.dtd">
<svg version="1.2" width="69.31mm" height="48.67mm" viewBox="10242 16575 6931 4867" preserveAspectRatio="xMidYMid" fill-rule="evenodd" stroke-width="28.222" stroke-linejoin="round" xmlns="http://www.w3.org/2000/svg" xmlns:ooo="http://xml.openoffice.org/svg/export" xmlns:xlink="http://www.w3.org/1999/xlink" xmlns:presentation="http://sun.com/xmlns/staroffice/presentation" xmlns:smil="http://www.w3.org/2001/SMIL20/" xmlns:anim="urn:oasis:names:tc:opendocument:xmlns:animation:1.0" xml:space="preserve">
 <defs class="ClipPathGroup">
  <clipPath id="presentation_clip_path" clipPathUnits="userSpaceOnUse">
   <rect x="10242" y="16575" width="6931" height="4867"/>
  </clipPath>
 </defs>
 <defs class="TextShapeIndex">
  <g ooo:slide="id1" ooo:id-list="id3 id4 id5 id6 id7 id8 id9 id10 id11 id12 id13 id14 id15 id16 id17 id18 id19 id20 id21 id22"/>
 </defs>
 <defs class="EmbeddedBulletChars">
  <g id="bullet-char-template(57356)" transform="scale(0.00048828125,-0.00048828125)">
   <path d="M 580,1141 L 1163,571 580,0 -4,571 580,1141 Z"/>
  </g>
  <g id="bullet-char-template(57354)" transform="scale(0.00048828125,-0.00048828125)">
   <path d="M 8,1128 L 1137,1128 1137,0 8,0 8,1128 Z"/>
  </g>
  <g id="bullet-char-template(10146)" transform="scale(0.00048828125,-0.00048828125)">
   <path d="M 174,0 L 602,739 174,1481 1456,739 174,0 Z M 1358,739 L 309,1346 659,739 1358,739 Z"/>
  </g>
  <g id="bullet-char-template(10132)" transform="scale(0.00048828125,-0.00048828125)">
   <path d="M 2015,739 L 1276,0 717,0 1260,543 174,543 174,936 1260,936 717,1481 1274,1481 2015,739 Z"/>
  </g>
  <g id="bullet-char-template(10007)" transform="scale(0.00048828125,-0.00048828125)">
   <path d="M 0,-2 C -7,14 -16,27 -25,37 L 356,567 C 262,823 215,952 215,954 215,979 228,992 255,992 264,992 276,990 289,987 310,991 331,999 354,1012 L 381,999 492,748 772,1049 836,1024 860,1049 C 881,1039 901,1025 922,1006 886,937 835,863 770,784 769,783 710,716 594,584 L 774,223 C 774,196 753,168 711,139 L 727,119 C 717,90 699,76 672,76 641,76 570,178 457,381 L 164,-76 C 142,-110 111,-127 72,-127 30,-127 9,-110 8,-76 1,-67 -2,-52 -2,-32 -2,-23 -1,-13 0,-2 Z"/>
  </g>
  <g id="bullet-char-template(10004)" transform="scale(0.00048828125,-0.00048828125)">
   <path d="M 285,-33 C 182,-33 111,30 74,156 52,228 41,333 41,471 41,549 55,616 82,672 116,743 169,778 240,778 293,778 328,747 346,684 L 369,508 C 377,444 397,411 428,410 L 1163,1116 C 1174,1127 1196,1133 1229,1133 1271,1133 1292,1118 1292,1087 L 1292,965 C 1292,929 1282,901 1262,881 L 442,47 C 390,-6 338,-33 285,-33 Z"/>
  </g>
  <g id="bullet-char-template(9679)" transform="scale(0.00048828125,-0.00048828125)">
   <path d="M 813,0 C 632,0 489,54 383,161 276,268 223,411 223,592 223,773 276,916 383,1023 489,1130 632,1184 813,1184 992,1184 1136,1130 1245,1023 1353,916 1407,772 1407,592 1407,412 1353,268 1245,161 1136,54 992,0 813,0 Z"/>
  </g>
  <g id="bullet-char-template(8226)" transform="scale(0.00048828125,-0.00048828125)">
   <path d="M 346,457 C 273,457 209,483 155,535 101,586 74,649 74,723 74,796 101,859 155,911 209,963 273,989 346,989 419,989 480,963 531,910 582,859 608,796 608,723 608,648 583,586 532,535 482,483 420,457 346,457 Z"/>
  </g>
  <g id="bullet-char-template(8211)" transform="scale(0.00048828125,-0.00048828125)">
   <path d="M -4,459 L 1135,459 1135,606 -4,606 -4,459 Z"/>
  </g>
 </defs>
 <defs class="TextEmbeddedBitmaps"/>
 <g class="SlideGroup">
  <g>
   <g id="id1" class="Slide" clip-path="url(#presentation_clip_path)">
    <g class="Page">
     <g class="Group">
      <g class="Group">
       <g class="com.sun.star.drawing.ClosedBezierShape">
        <g id="id3">
         <rect class="BoundingBox" stroke="none" fill="none" x="14002" y="19368" width="3173" height="2056"/>
         <path fill="rgb(221,221,221)" stroke="none" d="M 14006,21422 C 14269,21422 17173,20146 17173,19757 17173,19369 16765,19369 16501,19369 16501,19535 13910,20201 14006,21422 Z"/>
         <path fill="none" stroke="rgb(221,221,221)" d="M 14006,21422 C 14269,21422 17173,20146 17173,19757 17173,19369 16765,19369 16501,19369 16501,19535 13910,20201 14006,21422 Z"/>
        </g>
       </g>
       <g class="Group">
        <g class="com.sun.star.drawing.PolyPolygonShape">
         <g id="id4">
          <rect class="BoundingBox" stroke="none" fill="none" x="10434" y="18239" width="3401" height="3092"/>
          <g>
           <defs>
            <linearGradient id="gradient1" x1="10454" y1="19784" x2="13813" y2="19784" gradientUnits="userSpaceOnUse">
             <stop offset="0.1" style="stop-color:rgb(51,51,51)"/>
             <stop offset="1" style="stop-color:rgb(153,153,153)"/>
            </linearGradient>
           </defs>
           <path style="fill:url(#gradient1)" d="M 10454,19369 L 10454,18259 13813,20201 13813,21310 10454,19369 Z"/>
          </g>
          <path fill="none" stroke="rgb(178,178,178)" stroke-width="40" stroke-linejoin="round" d="M 10454,19369 L 10454,18259 13813,20201 13813,21310 10454,19369 Z"/>
         </g>
        </g>
        <g class="com.sun.star.drawing.PolyPolygonShape">
         <g id="id5">
          <rect class="BoundingBox" stroke="none" fill="none" x="13793" y="18516" width="2920" height="2816"/>
          <g>
           <defs>
            <pattern id="pattern1" x="13813" y="18537" width="2880" height="2775" patternUnits="userSpaceOnUse">
             <g transform="translate(-13813,-18537)">
              <path fill="rgb(51,51,51)" stroke="none" d="M 13812,18536 L 16693,18536 16693,21312 13812,21312 13812,18536 Z M 13250,17995 L 16101,17995 16101,20743 13250,20743 13250,17995 Z"/>
              <path fill="rgb(52,52,52)" stroke="none" d="M 13250,17995 L 16101,17995 16101,20743 13250,20743 13250,17995 Z M 13264,18009 L 16087,18009 16087,20729 13264,20729 13264,18009 Z"/>
              <path fill="rgb(53,53,53)" stroke="none" d="M 13264,18009 L 16087,18009 16087,20729 13264,20729 13264,18009 Z M 13278,18022 L 16073,18022 16073,20716 13278,20716 13278,18022 Z"/>
              <path fill="rgb(54,54,54)" stroke="none" d="M 13278,18022 L 16073,18022 16073,20716 13278,20716 13278,18022 Z M 13292,18036 L 16059,18036 16059,20702 13292,20702 13292,18036 Z"/>
              <path fill="rgb(55,55,55)" stroke="none" d="M 13292,18036 L 16059,18036 16059,20702 13292,20702 13292,18036 Z M 13306,18050 L 16045,18050 16045,20688 13306,20688 13306,18050 Z"/>
              <path fill="rgb(56,56,56)" stroke="none" d="M 13306,18050 L 16045,18050 16045,20688 13306,20688 13306,18050 Z M 13320,18063 L 16031,18063 16031,20675 13320,20675 13320,18063 Z"/>
              <path fill="rgb(57,57,57)" stroke="none" d="M 13320,18063 L 16031,18063 16031,20675 13320,20675 13320,18063 Z M 13334,18077 L 16017,18077 16017,20661 13334,20661 13334,18077 Z"/>
              <path fill="rgb(58,58,58)" stroke="none" d="M 13334,18077 L 16017,18077 16017,20661 13334,20661 13334,18077 Z M 13349,18090 L 16002,18090 16002,20648 13349,20648 13349,18090 Z"/>
              <path fill="rgb(59,59,59)" stroke="none" d="M 13349,18090 L 16002,18090 16002,20648 13349,20648 13349,18090 Z M 13363,18104 L 15988,18104 15988,20634 13363,20634 13363,18104 Z"/>
              <path fill="rgb(60,60,60)" stroke="none" d="M 13363,18104 L 15988,18104 15988,20634 13363,20634 13363,18104 Z M 13377,18118 L 15974,18118 15974,20620 13377,20620 13377,18118 Z"/>
              <path fill="rgb(61,61,61)" stroke="none" d="M 13377,18118 L 15974,18118 15974,20620 13377,20620 13377,18118 Z M 13391,18131 L 15960,18131 15960,20607 13391,20607 13391,18131 Z"/>
              <path fill="rgb(62,62,62)" stroke="none" d="M 13391,18131 L 15960,18131 15960,20607 13391,20607 13391,18131 Z M 13405,18145 L 15946,18145 15946,20593 13405,20593 13405,18145 Z"/>
              <path fill="rgb(63,63,63)" stroke="none" d="M 13405,18145 L 15946,18145 15946,20593 13405,20593 13405,18145 Z M 13419,18158 L 15932,18158 15932,20580 13419,20580 13419,18158 Z"/>
              <path fill="rgb(64,64,64)" stroke="none" d="M 13419,18158 L 15932,18158 15932,20580 13419,20580 13419,18158 Z M 13433,18172 L 15918,18172 15918,20566 13433,20566 13433,18172 Z"/>
              <path fill="rgb(65,65,65)" stroke="none" d="M 13433,18172 L 15918,18172 15918,20566 13433,20566 13433,18172 Z M 13447,18186 L 15904,18186 15904,20552 13447,20552 13447,18186 Z"/>
              <path fill="rgb(66,66,66)" stroke="none" d="M 13447,18186 L 15904,18186 15904,20552 13447,20552 13447,18186 Z M 13462,18199 L 15889,18199 15889,20539 13462,20539 13462,18199 Z"/>
              <path fill="rgb(67,67,67)" stroke="none" d="M 13462,18199 L 15889,18199 15889,20539 13462,20539 13462,18199 Z M 13476,18213 L 15875,18213 15875,20525 13476,20525 13476,18213 Z"/>
              <path fill="rgb(68,68,68)" stroke="none" d="M 13476,18213 L 15875,18213 15875,20525 13476,20525 13476,18213 Z M 13490,18227 L 15861,18227 15861,20511 13490,20511 13490,18227 Z"/>
              <path fill="rgb(69,69,69)" stroke="none" d="M 13490,18227 L 15861,18227 15861,20511 13490,20511 13490,18227 Z M 13504,18240 L 15847,18240 15847,20498 13504,20498 13504,18240 Z"/>
              <path fill="rgb(70,70,70)" stroke="none" d="M 13504,18240 L 15847,18240 15847,20498 13504,20498 13504,18240 Z M 13518,18254 L 15833,18254 15833,20484 13518,20484 13518,18254 Z"/>
              <path fill="rgb(71,71,71)" stroke="none" d="M 13518,18254 L 15833,18254 15833,20484 13518,20484 13518,18254 Z M 13532,18267 L 15819,18267 15819,20471 13532,20471 13532,18267 Z"/>
              <path fill="rgb(72,72,72)" stroke="none" d="M 13532,18267 L 15819,18267 15819,20471 13532,20471 13532,18267 Z M 13546,18281 L 15805,18281 15805,20457 13546,20457 13546,18281 Z"/>
              <path fill="rgb(73,73,73)" stroke="none" d="M 13546,18281 L 15805,18281 15805,20457 13546,20457 13546,18281 Z M 13560,18295 L 15791,18295 15791,20443 13560,20443 13560,18295 Z"/>
              <path fill="rgb(74,74,74)" stroke="none" d="M 13560,18295 L 15791,18295 15791,20443 13560,20443 13560,18295 Z M 13575,18308 L 15776,18308 15776,20430 13575,20430 13575,18308 Z"/>
              <path fill="rgb(75,75,75)" stroke="none" d="M 13575,18308 L 15776,18308 15776,20430 13575,20430 13575,18308 Z M 13589,18322 L 15762,18322 15762,20416 13589,20416 13589,18322 Z"/>
              <path fill="rgb(76,76,76)" stroke="none" d="M 13589,18322 L 15762,18322 15762,20416 13589,20416 13589,18322 Z M 13603,18335 L 15748,18335 15748,20403 13603,20403 13603,18335 Z"/>
              <path fill="rgb(77,77,77)" stroke="none" d="M 13603,18335 L 15748,18335 15748,20403 13603,20403 13603,18335 Z M 13617,18349 L 15734,18349 15734,20389 13617,20389 13617,18349 Z"/>
              <path fill="rgb(78,78,78)" stroke="none" d="M 13617,18349 L 15734,18349 15734,20389 13617,20389 13617,18349 Z M 13631,18363 L 15720,18363 15720,20375 13631,20375 13631,18363 Z"/>
              <path fill="rgb(79,79,79)" stroke="none" d="M 13631,18363 L 15720,18363 15720,20375 13631,20375 13631,18363 Z M 13645,18376 L 15706,18376 15706,20362 13645,20362 13645,18376 Z"/>
              <path fill="rgb(80,80,80)" stroke="none" d="M 13645,18376 L 15706,18376 15706,20362 13645,20362 13645,18376 Z M 13659,18390 L 15692,18390 15692,20348 13659,20348 13659,18390 Z"/>
              <path fill="rgb(81,81,81)" stroke="none" d="M 13659,18390 L 15692,18390 15692,20348 13659,20348 13659,18390 Z M 13673,18403 L 15678,18403 15678,20335 13673,20335 13673,18403 Z"/>
              <path fill="rgb(82,82,82)" stroke="none" d="M 13673,18403 L 15678,18403 15678,20335 13673,20335 13673,18403 Z M 13688,18417 L 15663,18417 15663,20321 13688,20321 13688,18417 Z"/>
              <path fill="rgb(83,83,83)" stroke="none" d="M 13688,18417 L 15663,18417 15663,20321 13688,20321 13688,18417 Z M 13702,18431 L 15649,18431 15649,20307 13702,20307 13702,18431 Z"/>
              <path fill="rgb(84,84,84)" stroke="none" d="M 13702,18431 L 15649,18431 15649,20307 13702,20307 13702,18431 Z M 13716,18444 L 15635,18444 15635,20294 13716,20294 13716,18444 Z"/>
              <path fill="rgb(85,85,85)" stroke="none" d="M 13716,18444 L 15635,18444 15635,20294 13716,20294 13716,18444 Z M 13730,18458 L 15621,18458 15621,20280 13730,20280 13730,18458 Z"/>
              <path fill="rgb(86,86,86)" stroke="none" d="M 13730,18458 L 15621,18458 15621,20280 13730,20280 13730,18458 Z M 13744,18472 L 15607,18472 15607,20266 13744,20266 13744,18472 Z"/>
              <path fill="rgb(87,87,87)" stroke="none" d="M 13744,18472 L 15607,18472 15607,20266 13744,20266 13744,18472 Z M 13758,18485 L 15593,18485 15593,20253 13758,20253 13758,18485 Z"/>
              <path fill="rgb(88,88,88)" stroke="none" d="M 13758,18485 L 15593,18485 15593,20253 13758,20253 13758,18485 Z M 13772,18499 L 15579,18499 15579,20239 13772,20239 13772,18499 Z"/>
              <path fill="rgb(89,89,89)" stroke="none" d="M 13772,18499 L 15579,18499 15579,20239 13772,20239 13772,18499 Z M 13786,18512 L 15565,18512 15565,20226 13786,20226 13786,18512 Z"/>
              <path fill="rgb(90,90,90)" stroke="none" d="M 13786,18512 L 15565,18512 15565,20226 13786,20226 13786,18512 Z M 13800,18525 L 15550,18525 15550,20212 13800,20212 13800,18525 Z"/>
              <path fill="rgb(91,91,91)" stroke="none" d="M 13800,18525 L 15550,18525 15550,20212 13800,20212 13800,18525 Z M 13814,18539 L 15536,18539 15536,20198 13814,20198 13814,18539 Z"/>
              <path fill="rgb(92,92,92)" stroke="none" d="M 13814,18539 L 15536,18539 15536,20198 13814,20198 13814,18539 Z M 13828,18552 L 15522,18552 15522,20185 13828,20185 13828,18552 Z"/>
              <path fill="rgb(93,93,93)" stroke="none" d="M 13828,18552 L 15522,18552 15522,20185 13828,20185 13828,18552 Z M 13842,18566 L 15508,18566 15508,20171 13842,20171 13842,18566 Z"/>
              <path fill="rgb(94,94,94)" stroke="none" d="M 13842,18566 L 15508,18566 15508,20171 13842,20171 13842,18566 Z M 13856,18579 L 15494,18579 15494,20158 13856,20158 13856,18579 Z"/>
              <path fill="rgb(95,95,95)" stroke="none" d="M 13856,18579 L 15494,18579 15494,20158 13856,20158 13856,18579 Z M 13870,18593 L 15480,18593 15480,20144 13870,20144 13870,18593 Z"/>
              <path fill="rgb(96,96,96)" stroke="none" d="M 13870,18593 L 15480,18593 15480,20144 13870,20144 13870,18593 Z M 13884,18607 L 15466,18607 15466,20130 13884,20130 13884,18607 Z"/>
              <path fill="rgb(97,97,97)" stroke="none" d="M 13884,18607 L 15466,18607 15466,20130 13884,20130 13884,18607 Z M 13898,18620 L 15452,18620 15452,20117 13898,20117 13898,18620 Z"/>
              <path fill="rgb(98,98,98)" stroke="none" d="M 13898,18620 L 15452,18620 15452,20117 13898,20117 13898,18620 Z M 13913,18634 L 15437,18634 15437,20103 13913,20103 13913,18634 Z"/>
              <path fill="rgb(99,99,99)" stroke="none" d="M 13913,18634 L 15437,18634 15437,20103 13913,20103 13913,18634 Z M 13927,18648 L 15423,18648 15423,20089 13927,20089 13927,18648 Z"/>
              <path fill="rgb(100,100,100)" stroke="none" d="M 13927,18648 L 15423,18648 15423,20089 13927,20089 13927,18648 Z M 13941,18661 L 15409,18661 15409,20076 13941,20076 13941,18661 Z"/>
              <path fill="rgb(101,101,101)" stroke="none" d="M 13941,18661 L 15409,18661 15409,20076 13941,20076 13941,18661 Z M 13955,18675 L 15395,18675 15395,20062 13955,20062 13955,18675 Z"/>
              <path fill="rgb(102,102,102)" stroke="none" d="M 13955,18675 L 15395,18675 15395,20062 13955,20062 13955,18675 Z M 13969,18688 L 15381,18688 15381,20049 13969,20049 13969,18688 Z"/>
              <path fill="rgb(103,103,103)" stroke="none" d="M 13969,18688 L 15381,18688 15381,20049 13969,20049 13969,18688 Z M 13983,18702 L 15367,18702 15367,20035 13983,20035 13983,18702 Z"/>
              <path fill="rgb(104,104,104)" stroke="none" d="M 13983,18702 L 15367,18702 15367,20035 13983,20035 13983,18702 Z M 13997,18716 L 15353,18716 15353,20021 13997,20021 13997,18716 Z"/>
              <path fill="rgb(105,105,105)" stroke="none" d="M 13997,18716 L 15353,18716 15353,20021 13997,20021 13997,18716 Z M 14012,18729 L 15338,18729 15338,20008 14012,20008 14012,18729 Z"/>
              <path fill="rgb(106,106,106)" stroke="none" d="M 14012,18729 L 15338,18729 15338,20008 14012,20008 14012,18729 Z M 14026,18743 L 15324,18743 15324,19994 14026,19994 14026,18743 Z"/>
              <path fill="rgb(107,107,107)" stroke="none" d="M 14026,18743 L 15324,18743 15324,19994 14026,19994 14026,18743 Z M 14040,18756 L 15310,18756 15310,19981 14040,19981 14040,18756 Z"/>
              <path fill="rgb(108,108,108)" stroke="none" d="M 14040,18756 L 15310,18756 15310,19981 14040,19981 14040,18756 Z M 14054,18770 L 15296,18770 15296,19967 14054,19967 14054,18770 Z"/>
              <path fill="rgb(109,109,109)" stroke="none" d="M 14054,18770 L 15296,18770 15296,19967 14054,19967 14054,18770 Z M 14068,18784 L 15282,18784 15282,19953 14068,19953 14068,18784 Z"/>
              <path fill="rgb(110,110,110)" stroke="none" d="M 14068,18784 L 15282,18784 15282,19953 14068,19953 14068,18784 Z M 14082,18797 L 15268,18797 15268,19940 14082,19940 14082,18797 Z"/>
              <path fill="rgb(111,111,111)" stroke="none" d="M 14082,18797 L 15268,18797 15268,19940 14082,19940 14082,18797 Z M 14096,18811 L 15254,18811 15254,19926 14096,19926 14096,18811 Z"/>
              <path fill="rgb(112,112,112)" stroke="none" d="M 14096,18811 L 15254,18811 15254,19926 14096,19926 14096,18811 Z M 14110,18824 L 15240,18824 15240,19913 14110,19913 14110,18824 Z"/>
              <path fill="rgb(113,113,113)" stroke="none" d="M 14110,18824 L 15240,18824 15240,19913 14110,19913 14110,18824 Z M 14125,18838 L 15225,18838 15225,19899 14125,19899 14125,18838 Z"/>
              <path fill="rgb(114,114,114)" stroke="none" d="M 14125,18838 L 15225,18838 15225,19899 14125,19899 14125,18838 Z M 14139,18852 L 15211,18852 15211,19885 14139,19885 14139,18852 Z"/>
              <path fill="rgb(115,115,115)" stroke="none" d="M 14139,18852 L 15211,18852 15211,19885 14139,19885 14139,18852 Z M 14153,18865 L 15197,18865 15197,19872 14153,19872 14153,18865 Z"/>
              <path fill="rgb(116,116,116)" stroke="none" d="M 14153,18865 L 15197,18865 15197,19872 14153,19872 14153,18865 Z M 14167,18879 L 15183,18879 15183,19858 14167,19858 14167,18879 Z"/>
              <path fill="rgb(117,117,117)" stroke="none" d="M 14167,18879 L 15183,18879 15183,19858 14167,19858 14167,18879 Z M 14181,18893 L 15169,18893 15169,19844 14181,19844 14181,18893 Z"/>
              <path fill="rgb(118,118,118)" stroke="none" d="M 14181,18893 L 15169,18893 15169,19844 14181,19844 14181,18893 Z M 14195,18906 L 15155,18906 15155,19831 14195,19831 14195,18906 Z"/>
              <path fill="rgb(119,119,119)" stroke="none" d="M 14195,18906 L 15155,18906 15155,19831 14195,19831 14195,18906 Z M 14209,18920 L 15141,18920 15141,19817 14209,19817 14209,18920 Z"/>
              <path fill="rgb(120,120,120)" stroke="none" d="M 14209,18920 L 15141,18920 15141,19817 14209,19817 14209,18920 Z M 14223,18933 L 15127,18933 15127,19804 14223,19804 14223,18933 Z"/>
              <path fill="rgb(121,121,121)" stroke="none" d="M 14223,18933 L 15127,18933 15127,19804 14223,19804 14223,18933 Z M 14238,18947 L 15112,18947 15112,19790 14238,19790 14238,18947 Z"/>
              <path fill="rgb(122,122,122)" stroke="none" d="M 14238,18947 L 15112,18947 15112,19790 14238,19790 14238,18947 Z M 14252,18961 L 15098,18961 15098,19776 14252,19776 14252,18961 Z"/>
              <path fill="rgb(123,123,123)" stroke="none" d="M 14252,18961 L 15098,18961 15098,19776 14252,19776 14252,18961 Z M 14266,18974 L 15084,18974 15084,19763 14266,19763 14266,18974 Z"/>
              <path fill="rgb(124,124,124)" stroke="none" d="M 14266,18974 L 15084,18974 15084,19763 14266,19763 14266,18974 Z M 14280,18988 L 15070,18988 15070,19749 14280,19749 14280,18988 Z"/>
              <path fill="rgb(125,125,125)" stroke="none" d="M 14280,18988 L 15070,18988 15070,19749 14280,19749 14280,18988 Z M 14294,19001 L 15056,19001 15056,19736 14294,19736 14294,19001 Z"/>
              <path fill="rgb(126,126,126)" stroke="none" d="M 14294,19001 L 15056,19001 15056,19736 14294,19736 14294,19001 Z M 14308,19015 L 15042,19015 15042,19722 14308,19722 14308,19015 Z"/>
              <path fill="rgb(127,127,127)" stroke="none" d="M 14308,19015 L 15042,19015 15042,19722 14308,19722 14308,19015 Z M 14322,19029 L 15028,19029 15028,19708 14322,19708 14322,19029 Z"/>
              <path fill="rgb(128,128,128)" stroke="none" d="M 14322,19029 L 15028,19029 15028,19708 14322,19708 14322,19029 Z M 14336,19042 L 15014,19042 15014,19695 14336,19695 14336,19042 Z"/>
              <path fill="rgb(129,129,129)" stroke="none" d="M 14336,19042 L 15014,19042 15014,19695 14336,19695 14336,19042 Z M 14351,19056 L 14999,19056 14999,19681 14351,19681 14351,19056 Z"/>
              <path fill="rgb(130,130,130)" stroke="none" d="M 14351,19056 L 14999,19056 14999,19681 14351,19681 14351,19056 Z M 14365,19070 L 14985,19070 14985,19667 14365,19667 14365,19070 Z"/>
              <path fill="rgb(131,131,131)" stroke="none" d="M 14365,19070 L 14985,19070 14985,19667 14365,19667 14365,19070 Z M 14379,19083 L 14971,19083 14971,19654 14379,19654 14379,19083 Z"/>
              <path fill="rgb(132,132,132)" stroke="none" d="M 14379,19083 L 14971,19083 14971,19654 14379,19654 14379,19083 Z M 14393,19097 L 14957,19097 14957,19640 14393,19640 14393,19097 Z"/>
              <path fill="rgb(133,133,133)" stroke="none" d="M 14393,19097 L 14957,19097 14957,19640 14393,19640 14393,19097 Z M 14407,19110 L 14943,19110 14943,19627 14407,19627 14407,19110 Z"/>
              <path fill="rgb(134,134,134)" stroke="none" d="M 14407,19110 L 14943,19110 14943,19627 14407,19627 14407,19110 Z M 14421,19124 L 14929,19124 14929,19613 14421,19613 14421,19124 Z"/>
              <path fill="rgb(135,135,135)" stroke="none" d="M 14421,19124 L 14929,19124 14929,19613 14421,19613 14421,19124 Z M 14435,19138 L 14915,19138 14915,19599 14435,19599 14435,19138 Z"/>
              <path fill="rgb(136,136,136)" stroke="none" d="M 14435,19138 L 14915,19138 14915,19599 14435,19599 14435,19138 Z M 14449,19151 L 14901,19151 14901,19586 14449,19586 14449,19151 Z"/>
              <path fill="rgb(137,137,137)" stroke="none" d="M 14449,19151 L 14901,19151 14901,19586 14449,19586 14449,19151 Z M 14464,19165 L 14886,19165 14886,19572 14464,19572 14464,19165 Z"/>
              <path fill="rgb(138,138,138)" stroke="none" d="M 14464,19165 L 14886,19165 14886,19572 14464,19572 14464,19165 Z M 14478,19178 L 14872,19178 14872,19559 14478,19559 14478,19178 Z"/>
              <path fill="rgb(139,139,139)" stroke="none" d="M 14478,19178 L 14872,19178 14872,19559 14478,19559 14478,19178 Z M 14492,19192 L 14858,19192 14858,19545 14492,19545 14492,19192 Z"/>
              <path fill="rgb(140,140,140)" stroke="none" d="M 14492,19192 L 14858,19192 14858,19545 14492,19545 14492,19192 Z M 14506,19206 L 14844,19206 14844,19531 14506,19531 14506,19206 Z"/>
              <path fill="rgb(141,141,141)" stroke="none" d="M 14506,19206 L 14844,19206 14844,19531 14506,19531 14506,19206 Z M 14520,19219 L 14830,19219 14830,19518 14520,19518 14520,19219 Z"/>
              <path fill="rgb(142,142,142)" stroke="none" d="M 14520,19219 L 14830,19219 14830,19518 14520,19518 14520,19219 Z M 14534,19233 L 14816,19233 14816,19504 14534,19504 14534,19233 Z"/>
              <path fill="rgb(143,143,143)" stroke="none" d="M 14534,19233 L 14816,19233 14816,19504 14534,19504 14534,19233 Z M 14548,19246 L 14802,19246 14802,19491 14548,19491 14548,19246 Z"/>
              <path fill="rgb(144,144,144)" stroke="none" d="M 14548,19246 L 14802,19246 14802,19491 14548,19491 14548,19246 Z M 14562,19260 L 14788,19260 14788,19477 14562,19477 14562,19260 Z"/>
              <path fill="rgb(145,145,145)" stroke="none" d="M 14562,19260 L 14788,19260 14788,19477 14562,19477 14562,19260 Z M 14577,19274 L 14773,19274 14773,19463 14577,19463 14577,19274 Z"/>
              <path fill="rgb(146,146,146)" stroke="none" d="M 14577,19274 L 14773,19274 14773,19463 14577,19463 14577,19274 Z M 14591,19287 L 14759,19287 14759,19450 14591,19450 14591,19287 Z"/>
              <path fill="rgb(147,147,147)" stroke="none" d="M 14591,19287 L 14759,19287 14759,19450 14591,19450 14591,19287 Z M 14605,19301 L 14745,19301 14745,19436 14605,19436 14605,19301 Z"/>
              <path fill="rgb(148,148,148)" stroke="none" d="M 14605,19301 L 14745,19301 14745,19436 14605,19436 14605,19301 Z M 14619,19315 L 14731,19315 14731,19422 14619,19422 14619,19315 Z"/>
              <path fill="rgb(149,149,149)" stroke="none" d="M 14619,19315 L 14731,19315 14731,19422 14619,19422 14619,19315 Z M 14633,19328 L 14717,19328 14717,19409 14633,19409 14633,19328 Z"/>
              <path fill="rgb(150,150,150)" stroke="none" d="M 14633,19328 L 14717,19328 14717,19409 14633,19409 14633,19328 Z M 14647,19342 L 14703,19342 14703,19395 14647,19395 14647,19342 Z"/>
              <path fill="rgb(151,151,151)" stroke="none" d="M 14647,19342 L 14703,19342 14703,19395 14647,19395 14647,19342 Z M 14661,19355 L 14689,19355 14689,19382 14661,19382 14661,19355 Z"/>
              <path fill="rgb(153,153,153)" stroke="none" d="M 14661,19355 L 14689,19355 14689,19382 14661,19382 14661,19355 Z"/>
             </g>
            </pattern>
           </defs>
           <path style="fill:url(#pattern1)" d="M 13813,21311 L 13813,20201 16692,18537 16692,19647 13813,21311 Z"/>
          </g>
          <path fill="none" stroke="rgb(178,178,178)" stroke-width="40" stroke-linejoin="round" d="M 13813,21311 L 13813,20201 16692,18537 16692,19647 13813,21311 Z"/>
         </g>
        </g>
        <g class="com.sun.star.drawing.PolyPolygonShape">
         <g id="id6">
          <rect class="BoundingBox" stroke="none" fill="none" x="10434" y="16575" width="6280" height="3648"/>
          <g>
           <defs>
            <linearGradient id="gradient2" x1="13573" y1="16595" x2="13573" y2="20201" gradientUnits="userSpaceOnUse">
             <stop offset="0.1" style="stop-color:rgb(51,51,51)"/>
             <stop offset="1" style="stop-color:rgb(153,153,153)"/>
            </linearGradient>
           </defs>
           <path style="fill:url(#gradient2)" d="M 13813,20201 L 10454,18259 13333,16595 16693,18537 13813,20201 Z"/>
          </g>
          <path fill="none" stroke="rgb(178,178,178)" stroke-width="40" stroke-linejoin="round" d="M 13813,20201 L 10454,18259 13333,16595 16693,18537 13813,20201 Z"/>
         </g>
        </g>
        <g class="com.sun.star.drawing.LineShape">
         <g id="id7">
          <rect class="BoundingBox" stroke="none" fill="none" x="11586" y="19127" width="41" height="707"/>
          <path fill="none" stroke="rgb(153,153,153)" stroke-width="40" stroke-linejoin="round" d="M 11606,19147 L 11606,19813"/>
         </g>
        </g>
        <g class="com.sun.star.drawing.LineShape">
         <g id="id8">
          <rect class="BoundingBox" stroke="none" fill="none" x="12162" y="19660" width="1577" height="929"/>
          <path fill="none" stroke="rgb(178,178,178)" stroke-width="40" stroke-linejoin="round" d="M 13718,20568 L 12182,19680"/>
         </g>
        </g>
        <g class="com.sun.star.drawing.LineShape">
         <g id="id9">
          <rect class="BoundingBox" stroke="none" fill="none" x="12153" y="19460" width="41" height="263"/>
          <path fill="none" stroke="rgb(178,178,178)" stroke-width="40" stroke-linejoin="round" d="M 12173,19480 L 12173,19702"/>
         </g>
        </g>
        <g class="com.sun.star.drawing.LineShape">
         <g id="id10">
          <rect class="BoundingBox" stroke="none" fill="none" x="13689" y="20348" width="41" height="263"/>
          <path fill="none" stroke="rgb(102,102,102)" stroke-width="40" stroke-linejoin="round" d="M 13709,20368 L 13709,20590"/>
         </g>
        </g>
        <g class="com.sun.star.drawing.LineShape">
         <g id="id11">
          <rect class="BoundingBox" stroke="none" fill="none" x="12153" y="19460" width="1577" height="929"/>
          <path fill="none" stroke="rgb(102,102,102)" stroke-width="40" stroke-linejoin="round" d="M 13709,20368 L 12173,19480"/>
         </g>
        </g>
        <g class="com.sun.star.drawing.PolyPolygonShape">
         <g id="id12">
          <rect class="BoundingBox" stroke="none" fill="none" x="11778" y="19238" width="233" height="374"/>
          <path fill="rgb(57,181,74)" stroke="none" d="M 11798,19480 L 11798,19258 11990,19369 11990,19591 11798,19480 Z"/>
          <path fill="none" stroke="rgb(102,102,102)" stroke-width="40" stroke-linejoin="round" d="M 11798,19480 L 11798,19258 11990,19369 11990,19591 11798,19480 Z"/>
         </g>
        </g>
        <g class="com.sun.star.drawing.LineShape">
         <g id="id13">
          <rect class="BoundingBox" stroke="none" fill="none" x="11394" y="19016" width="41" height="707"/>
          <path fill="none" stroke="rgb(153,153,153)" stroke-width="40" stroke-linejoin="round" d="M 11414,19036 L 11414,19702"/>
         </g>
        </g>
        <g class="com.sun.star.drawing.LineShape">
         <g id="id14">
          <rect class="BoundingBox" stroke="none" fill="none" x="11202" y="18905" width="41" height="707"/>
          <path fill="none" stroke="rgb(153,153,153)" stroke-width="40" stroke-linejoin="round" d="M 11222,18925 L 11222,19591"/>
         </g>
        </g>
        <g class="com.sun.star.drawing.LineShape">
         <g id="id15">
          <rect class="BoundingBox" stroke="none" fill="none" x="11010" y="18794" width="41" height="707"/>
          <path fill="none" stroke="rgb(153,153,153)" stroke-width="40" stroke-linejoin="round" d="M 11030,18814 L 11030,19480"/>
         </g>
        </g>
        <g class="com.sun.star.drawing.LineShape">
         <g id="id16">
          <rect class="BoundingBox" stroke="none" fill="none" x="10818" y="18683" width="41" height="707"/>
          <path fill="none" stroke="rgb(153,153,153)" stroke-width="40" stroke-linejoin="round" d="M 10838,18703 L 10838,19369"/>
         </g>
        </g>
        <g class="com.sun.star.drawing.LineShape">
         <g id="id17">
          <rect class="BoundingBox" stroke="none" fill="none" x="10626" y="18572" width="41" height="707"/>
          <path fill="none" stroke="rgb(153,153,153)" stroke-width="40" stroke-linejoin="round" d="M 10646,18592 L 10646,19258"/>
         </g>
        </g>
        <g class="com.sun.star.drawing.PolyPolygonShape">
         <g id="id18">
          <rect class="BoundingBox" stroke="none" fill="none" x="10242" y="18128" width="233" height="1262"/>
          <g>
           <defs>
            <linearGradient id="gradient3" x1="10262" y1="18758" x2="10455" y2="18758" gradientUnits="userSpaceOnUse">
             <stop offset="0.1" style="stop-color:rgb(51,51,51)"/>
             <stop offset="1" style="stop-color:rgb(153,153,153)"/>
            </linearGradient>
           </defs>
           <path style="fill:url(#gradient3)" d="M 10262,19258 L 10262,18148 10454,18259 10454,19369 10262,19258 Z"/>
          </g>
          <path fill="none" stroke="rgb(178,178,178)" stroke-width="40" stroke-linejoin="round" d="M 10262,19258 L 10262,18148 10454,18259 10454,19369 10262,19258 Z"/>
         </g>
        </g>
        <g class="com.sun.star.drawing.PolyPolygonShape">
         <g id="id19">
          <rect class="BoundingBox" stroke="none" fill="none" x="13793" y="20181" width="233" height="1263"/>
          <g>
           <defs>
            <linearGradient id="gradient4" x1="13813" y1="20811" x2="14006" y2="20811" gradientUnits="userSpaceOnUse">
             <stop offset="0.1" style="stop-color:rgb(51,51,51)"/>
             <stop offset="1" style="stop-color:rgb(153,153,153)"/>
            </linearGradient>
           </defs>
           <path style="fill:url(#gradient4)" d="M 13813,21311 L 13813,20201 14005,20312 14005,21422 13813,21311 Z"/>
          </g>
          <path fill="none" stroke="rgb(178,178,178)" stroke-width="40" stroke-linejoin="round" d="M 13813,21311 L 13813,20201 14005,20312 14005,21422 13813,21311 Z"/>
         </g>
        </g>
        <g class="com.sun.star.drawing.PolyPolygonShape">
         <g id="id20">
          <rect class="BoundingBox" stroke="none" fill="none" x="10242" y="16575" width="6472" height="4868"/>
          <path fill="none" stroke="rgb(0,0,0)" stroke-width="40" stroke-linejoin="round" d="M 10262,19258 L 10262,18148 10454,18259 13333,16595 16693,18537 16693,19646 14005,21200 14005,21422 10262,19258 Z"/>
         </g>
        </g>
       </g>
      </g>
      <g class="Group">
       <g class="com.sun.star.drawing.CustomShape">
        <g id="id21">
         <rect class="BoundingBox" stroke="none" fill="none" x="14849" y="19744" width="975" height="1423"/>
         <g>
          <defs>
           <linearGradient id="gradient5" x1="14868" y1="20455" x2="15803" y2="20455" gradientUnits="userSpaceOnUse">
            <stop offset="0" style="stop-color:rgb(195,232,200)"/>
            <stop offset="0.5" style="stop-color:rgb(235,247,236)"/>
            <stop offset="1" style="stop-color:rgb(195,232,200)"/>
           </linearGradient>
          </defs>
          <path style="fill:url(#gradient5)" d="M 14869,19982 L 14870,19972 14872,19962 14875,19951 14879,19941 14885,19931 14892,19921 14909,19902 14930,19883 14955,19865 14983,19848 15015,19833 15049,19818 15085,19805 15124,19793 15164,19784 15205,19776 15248,19770 15291,19766 15335,19765 15379,19766 15422,19770 15465,19776 15506,19784 15547,19793 15585,19805 15622,19818 15656,19833 15687,19848 15716,19865 15741,19883 15762,19902 15779,19921 15786,19931 15791,19941 15796,19951 15799,19962 15801,19972 15802,19982 15802,20928 15801,20938 15799,20948 15796,20959 15791,20969 15786,20979 15779,20989 15762,21008 15741,21027 15716,21045 15687,21062 15656,21078 15622,21093 15585,21106 15547,21117 15506,21127 15465,21135 15422,21141 15379,21145 15335,21146 15291,21145 15248,21141 15205,21135 15164,21127 15124,21117 15085,21106 15049,21093 15015,21078 14983,21062 14955,21045 14930,21027 14909,21008 14892,20989 14885,20979 14879,20969 14875,20959 14872,20948 14870,20938 14869,20928 14869,19982 Z"/>
         </g>
         <path fill="none" stroke="rgb(0,0,0)" stroke-width="40" stroke-linejoin="round" d="M 14869,19982 C 14869,19873 15102,19765 15335,19765 15568,19765 15802,19873 15802,19982 L 15802,20928 C 15802,21037 15568,21146 15335,21146 15102,21146 14869,21037 14869,20928 L 14869,19982 Z"/>
         <g>
          <defs>
           <linearGradient id="gradient6" x1="14869" y1="20090" x2="15802" y2="20090" gradientUnits="userSpaceOnUse">
            <stop offset="0" style="stop-color:rgb(195,232,200)"/>
            <stop offset="0.5" style="stop-color:rgb(235,247,236)"/>
            <stop offset="1" style="stop-color:rgb(195,232,200)"/>
           </linearGradient>
          </defs>
          <path style="fill:url(#gradient6)" d="M 14869,19982 L 14870,19992 14872,20002 14875,20012 14879,20022 14885,20032 14892,20042 14909,20061 14930,20080 14955,20098 14983,20115 15015,20131 15049,20146 15085,20159 15124,20170 15164,20180 15205,20188 15248,20194 15291,20198 15335,20199 15379,20198 15422,20194 15465,20188 15506,20180 15547,20170 15585,20159 15622,20146 15656,20131 15687,20115 15716,20098 15741,20080 15762,20061 15779,20042 15786,20032 15791,20022 15796,20012 15799,20002 15801,19992 15802,19982 14869,19982 Z"/>
         </g>
         <path fill="none" stroke="rgb(0,0,0)" stroke-width="40" stroke-linejoin="round" d="M 14869,19982 C 14869,20090 15102,20199 15335,20199 15568,20199 15802,20090 15802,19982"/>
         <path fill="none" stroke="rgb(0,0,0)" stroke-width="40" stroke-linejoin="round" d="M 14869,19765 L 14869,19765 Z"/>
         <path fill="none" stroke="rgb(0,0,0)" stroke-width="40" stroke-linejoin="round" d="M 15802,21146 L 15802,21146 Z"/>
        </g>
       </g>
       <g class="com.sun.star.drawing.CustomShape">
        <g id="id22">
         <rect class="BoundingBox" stroke="none" fill="none" x="14849" y="19744" width="975" height="479"/>
         <g>
          <defs>
           <linearGradient id="gradient7" x1="15335" y1="19764" x2="15335" y2="20201" gradientUnits="userSpaceOnUse">
            <stop offset="0.1" style="stop-color:rgb(195,232,200)"/>
            <stop offset="1" style="stop-color:rgb(235,247,236)"/>
           </linearGradient>
          </defs>
          <path style="fill:url(#gradient7)" d="M 15335,19764 L 15431,19768 15519,19781 15560,19790 15598,19800 15634,19813 15667,19827 15697,19842 15723,19859 15746,19876 15765,19896 15781,19916 15787,19926 15792,19937 15796,19948 15799,19959 15800,19970 15801,19982 15800,19994 15799,20005 15796,20016 15792,20027 15787,20038 15781,20048 15765,20069 15746,20088 15723,20106 15697,20123 15667,20138 15634,20152 15598,20164 15560,20175 15519,20184 15431,20197 15335,20201 15239,20197 15151,20184 15110,20175 15072,20164 15036,20152 15003,20138 14973,20123 14947,20106 14924,20088 14905,20069 14889,20048 14883,20038 14878,20027 14874,20016 14871,20005 14870,19994 14869,19982 14870,19970 14871,19959 14874,19948 14878,19937 14883,19926 14889,19916 14905,19896 14924,19876 14947,19859 14973,19842 15003,19827 15036,19813 15072,19800 15110,19790 15151,19781 15239,19768 15335,19764 Z"/>
         </g>
         <path fill="none" stroke="rgb(0,0,0)" stroke-width="40" stroke-linejoin="round" d="M 15335,19764 C 15599,19764 15801,19858 15801,19982 15801,20106 15599,20201 15335,20201 15071,20201 14869,20106 14869,19982 14869,19858 15071,19764 15335,19764 Z"/>
        </g>
       </g>
      </g>
     </g>
    </g>
   </g>
  </g>
 </g>
</svg>