<?xml version="1.0" encoding="UTF-8"?>
<!DOCTYPE svg PUBLIC "-//W3C//DTD SVG 1.1//EN" "http://www.w3.org/Graphics/SVG/1.1/DTD/svg11.dtd">
<svg version="1.2" width="69.31mm" height="48.67mm" viewBox="8884 18385 6931 4867" preserveAspectRatio="xMidYMid" fill-rule="evenodd" stroke-width="28.222" stroke-linejoin="round" xmlns="http://www.w3.org/2000/svg" xmlns:ooo="http://xml.openoffice.org/svg/export" xmlns:xlink="http://www.w3.org/1999/xlink" xmlns:presentation="http://sun.com/xmlns/staroffice/presentation" xmlns:smil="http://www.w3.org/2001/SMIL20/" xmlns:anim="urn:oasis:names:tc:opendocument:xmlns:animation:1.0" xml:space="preserve">
 <defs class="ClipPathGroup">
  <clipPath id="presentation_clip_path" clipPathUnits="userSpaceOnUse">
   <rect x="8884" y="18385" width="6931" height="4867"/>
  </clipPath>
 </defs>
 <defs class="TextShapeIndex">
  <g ooo:slide="id1" ooo:id-list="id3 id4 id5 id6 id7 id8 id9 id10 id11 id12 id13 id14 id15 id16 id17 id18 id19 id20 id21 id22 id23 id24 id25"/>
 </defs>
 <defs class="EmbeddedBulletChars">
  <g id="bullet-char-template(57356)" transform="scale(0.00048828125,-0.00048828125)">
   <path d="M 580,1141 L 1163,571 580,0 -4,571 580,1141 Z"/>
  </g>
  <g id="bullet-char-template(57354)" transform="scale(0.00048828125,-0.00048828125)">
   <path d="M 8,1128 L 1137,1128 1137,0 8,0 8,1128 Z"/>
  </g>
  <g id="bullet-char-template(10146)" transform="scale(0.00048828125,-0.00048828125)">
   <path d="M 174,0 L 602,739 174,1481 1456,739 174,0 Z M 1358,739 L 309,1346 659,739 1358,739 Z"/>
  </g>
  <g id="bullet-char-template(10132)" transform="scale(0.00048828125,-0.00048828125)">
   <path d="M 2015,739 L 1276,0 717,0 1260,543 174,543 174,936 1260,936 717,1481 1274,1481 2015,739 Z"/>
  </g>
  <g id="bullet-char-template(10007)" transform="scale(0.00048828125,-0.00048828125)">
   <path d="M 0,-2 C -7,14 -16,27 -25,37 L 356,567 C 262,823 215,952 215,954 215,979 228,992 255,992 264,992 276,990 289,987 310,991 331,999 354,1012 L 381,999 492,748 772,1049 836,1024 860,1049 C 881,1039 901,1025 922,1006 886,937 835,863 770,784 769,783 710,716 594,584 L 774,223 C 774,196 753,168 711,139 L 727,119 C 717,90 699,76 672,76 641,76 570,178 457,381 L 164,-76 C 142,-110 111,-127 72,-127 30,-127 9,-110 8,-76 1,-67 -2,-52 -2,-32 -2,-23 -1,-13 0,-2 Z"/>
  </g>
  <g id="bullet-char-template(10004)" transform="scale(0.00048828125,-0.00048828125)">
   <path d="M 285,-33 C 182,-33 111,30 74,156 52,228 41,333 41,471 41,549 55,616 82,672 116,743 169,778 240,778 293,778 328,747 346,684 L 369,508 C 377,444 397,411 428,410 L 1163,1116 C 1174,1127 1196,1133 1229,1133 1271,1133 1292,1118 1292,1087 L 1292,965 C 1292,929 1282,901 1262,881 L 442,47 C 390,-6 338,-33 285,-33 Z"/>
  </g>
  <g id="bullet-char-template(9679)" transform="scale(0.00048828125,-0.00048828125)">
   <path d="M 813,0 C 632,0 489,54 383,161 276,268 223,411 223,592 223,773 276,916 383,1023 489,1130 632,1184 813,1184 992,1184 1136,1130 1245,1023 1353,916 1407,772 1407,592 1407,412 1353,268 1245,161 1136,54 992,0 813,0 Z"/>
  </g>
  <g id="bullet-char-template(8226)" transform="scale(0.00048828125,-0.00048828125)">
   <path d="M 346,457 C 273,457 209,483 155,535 101,586 74,649 74,723 74,796 101,859 155,911 209,963 273,989 346,989 419,989 480,963 531,910 582,859 608,796 608,723 608,648 583,586 532,535 482,483 420,457 346,457 Z"/>
  </g>
  <g id="bullet-char-template(8211)" transform="scale(0.00048828125,-0.00048828125)">
   <path d="M -4,459 L 1135,459 1135,606 -4,606 -4,459 Z"/>
  </g>
 </defs>
 <defs class="TextEmbeddedBitmaps"/>
 <g class="SlideGroup">
  <g>
   <g id="id1" class="Slide" clip-path="url(#presentation_clip_path)">
    <g class="Page">
     <g class="Group">
      <g class="Group">
       <g class="com.sun.star.drawing.ClosedBezierShape">
        <g id="id3">
         <rect class="BoundingBox" stroke="none" fill="none" x="12644" y="21178" width="3173" height="2056"/>
         <path fill="rgb(221,221,221)" stroke="none" d="M 12648,23232 C 12911,23232 15815,21956 15815,21567 15815,21179 15407,21179 15143,21179 15143,21345 12552,22011 12648,23232 Z"/>
         <path fill="none" stroke="rgb(221,221,221)" d="M 12648,23232 C 12911,23232 15815,21956 15815,21567 15815,21179 15407,21179 15143,21179 15143,21345 12552,22011 12648,23232 Z"/>
        </g>
       </g>
       <g class="Group">
        <g class="com.sun.star.drawing.PolyPolygonShape">
         <g id="id4">
          <rect class="BoundingBox" stroke="none" fill="none" x="9076" y="20049" width="3400" height="3092"/>
          <g>
           <defs>
            <linearGradient id="gradient1" x1="9096" y1="21594" x2="12455" y2="21594" gradientUnits="userSpaceOnUse">
             <stop offset="0.1" style="stop-color:rgb(51,51,51)"/>
             <stop offset="1" style="stop-color:rgb(153,153,153)"/>
            </linearGradient>
           </defs>
           <path style="fill:url(#gradient1)" d="M 9096,21179 L 9096,20069 12455,22011 12455,23120 9096,21179 Z"/>
          </g>
          <path fill="none" stroke="rgb(178,178,178)" stroke-width="40" stroke-linejoin="round" d="M 9096,21179 L 9096,20069 12455,22011 12455,23120 9096,21179 Z"/>
         </g>
        </g>
        <g class="com.sun.star.drawing.PolyPolygonShape">
         <g id="id5">
          <rect class="BoundingBox" stroke="none" fill="none" x="12435" y="20326" width="2920" height="2816"/>
          <g>
           <defs>
            <pattern id="pattern1" x="12455" y="20347" width="2880" height="2775" patternUnits="userSpaceOnUse">
             <g transform="translate(-12455,-20347)">
              <path fill="rgb(51,51,51)" stroke="none" d="M 12454,20346 L 15335,20346 15335,23122 12454,23122 12454,20346 Z M 11892,19805 L 14743,19805 14743,22553 11892,22553 11892,19805 Z"/>
              <path fill="rgb(52,52,52)" stroke="none" d="M 11892,19805 L 14743,19805 14743,22553 11892,22553 11892,19805 Z M 11906,19819 L 14729,19819 14729,22539 11906,22539 11906,19819 Z"/>
              <path fill="rgb(53,53,53)" stroke="none" d="M 11906,19819 L 14729,19819 14729,22539 11906,22539 11906,19819 Z M 11920,19832 L 14715,19832 14715,22526 11920,22526 11920,19832 Z"/>
              <path fill="rgb(54,54,54)" stroke="none" d="M 11920,19832 L 14715,19832 14715,22526 11920,22526 11920,19832 Z M 11934,19846 L 14701,19846 14701,22512 11934,22512 11934,19846 Z"/>
              <path fill="rgb(55,55,55)" stroke="none" d="M 11934,19846 L 14701,19846 14701,22512 11934,22512 11934,19846 Z M 11948,19860 L 14687,19860 14687,22498 11948,22498 11948,19860 Z"/>
              <path fill="rgb(56,56,56)" stroke="none" d="M 11948,19860 L 14687,19860 14687,22498 11948,22498 11948,19860 Z M 11962,19873 L 14673,19873 14673,22485 11962,22485 11962,19873 Z"/>
              <path fill="rgb(57,57,57)" stroke="none" d="M 11962,19873 L 14673,19873 14673,22485 11962,22485 11962,19873 Z M 11976,19887 L 14659,19887 14659,22471 11976,22471 11976,19887 Z"/>
              <path fill="rgb(58,58,58)" stroke="none" d="M 11976,19887 L 14659,19887 14659,22471 11976,22471 11976,19887 Z M 11991,19900 L 14644,19900 14644,22458 11991,22458 11991,19900 Z"/>
              <path fill="rgb(59,59,59)" stroke="none" d="M 11991,19900 L 14644,19900 14644,22458 11991,22458 11991,19900 Z M 12005,19914 L 14630,19914 14630,22444 12005,22444 12005,19914 Z"/>
              <path fill="rgb(60,60,60)" stroke="none" d="M 12005,19914 L 14630,19914 14630,22444 12005,22444 12005,19914 Z M 12019,19928 L 14616,19928 14616,22430 12019,22430 12019,19928 Z"/>
              <path fill="rgb(61,61,61)" stroke="none" d="M 12019,19928 L 14616,19928 14616,22430 12019,22430 12019,19928 Z M 12033,19941 L 14602,19941 14602,22417 12033,22417 12033,19941 Z"/>
              <path fill="rgb(62,62,62)" stroke="none" d="M 12033,19941 L 14602,19941 14602,22417 12033,22417 12033,19941 Z M 12047,19955 L 14588,19955 14588,22403 12047,22403 12047,19955 Z"/>
              <path fill="rgb(63,63,63)" stroke="none" d="M 12047,19955 L 14588,19955 14588,22403 12047,22403 12047,19955 Z M 12061,19968 L 14574,19968 14574,22390 12061,22390 12061,19968 Z"/>
              <path fill="rgb(64,64,64)" stroke="none" d="M 12061,19968 L 14574,19968 14574,22390 12061,22390 12061,19968 Z M 12075,19982 L 14560,19982 14560,22376 12075,22376 12075,19982 Z"/>
              <path fill="rgb(65,65,65)" stroke="none" d="M 12075,19982 L 14560,19982 14560,22376 12075,22376 12075,19982 Z M 12089,19996 L 14546,19996 14546,22362 12089,22362 12089,19996 Z"/>
              <path fill="rgb(66,66,66)" stroke="none" d="M 12089,19996 L 14546,19996 14546,22362 12089,22362 12089,19996 Z M 12104,20009 L 14531,20009 14531,22349 12104,22349 12104,20009 Z"/>
              <path fill="rgb(67,67,67)" stroke="none" d="M 12104,20009 L 14531,20009 14531,22349 12104,22349 12104,20009 Z M 12118,20023 L 14517,20023 14517,22335 12118,22335 12118,20023 Z"/>
              <path fill="rgb(68,68,68)" stroke="none" d="M 12118,20023 L 14517,20023 14517,22335 12118,22335 12118,20023 Z M 12132,20037 L 14503,20037 14503,22321 12132,22321 12132,20037 Z"/>
              <path fill="rgb(69,69,69)" stroke="none" d="M 12132,20037 L 14503,20037 14503,22321 12132,22321 12132,20037 Z M 12146,20050 L 14489,20050 14489,22308 12146,22308 12146,20050 Z"/>
              <path fill="rgb(70,70,70)" stroke="none" d="M 12146,20050 L 14489,20050 14489,22308 12146,22308 12146,20050 Z M 12160,20064 L 14475,20064 14475,22294 12160,22294 12160,20064 Z"/>
              <path fill="rgb(71,71,71)" stroke="none" d="M 12160,20064 L 14475,20064 14475,22294 12160,22294 12160,20064 Z M 12174,20077 L 14461,20077 14461,22281 12174,22281 12174,20077 Z"/>
              <path fill="rgb(72,72,72)" stroke="none" d="M 12174,20077 L 14461,20077 14461,22281 12174,22281 12174,20077 Z M 12188,20091 L 14447,20091 14447,22267 12188,22267 12188,20091 Z"/>
              <path fill="rgb(73,73,73)" stroke="none" d="M 12188,20091 L 14447,20091 14447,22267 12188,22267 12188,20091 Z M 12202,20105 L 14433,20105 14433,22253 12202,22253 12202,20105 Z"/>
              <path fill="rgb(74,74,74)" stroke="none" d="M 12202,20105 L 14433,20105 14433,22253 12202,22253 12202,20105 Z M 12217,20118 L 14418,20118 14418,22240 12217,22240 12217,20118 Z"/>
              <path fill="rgb(75,75,75)" stroke="none" d="M 12217,20118 L 14418,20118 14418,22240 12217,22240 12217,20118 Z M 12231,20132 L 14404,20132 14404,22226 12231,22226 12231,20132 Z"/>
              <path fill="rgb(76,76,76)" stroke="none" d="M 12231,20132 L 14404,20132 14404,22226 12231,22226 12231,20132 Z M 12245,20145 L 14390,20145 14390,22213 12245,22213 12245,20145 Z"/>
              <path fill="rgb(77,77,77)" stroke="none" d="M 12245,20145 L 14390,20145 14390,22213 12245,22213 12245,20145 Z M 12259,20159 L 14376,20159 14376,22199 12259,22199 12259,20159 Z"/>
              <path fill="rgb(78,78,78)" stroke="none" d="M 12259,20159 L 14376,20159 14376,22199 12259,22199 12259,20159 Z M 12273,20173 L 14362,20173 14362,22185 12273,22185 12273,20173 Z"/>
              <path fill="rgb(79,79,79)" stroke="none" d="M 12273,20173 L 14362,20173 14362,22185 12273,22185 12273,20173 Z M 12287,20186 L 14348,20186 14348,22172 12287,22172 12287,20186 Z"/>
              <path fill="rgb(80,80,80)" stroke="none" d="M 12287,20186 L 14348,20186 14348,22172 12287,22172 12287,20186 Z M 12301,20200 L 14334,20200 14334,22158 12301,22158 12301,20200 Z"/>
              <path fill="rgb(81,81,81)" stroke="none" d="M 12301,20200 L 14334,20200 14334,22158 12301,22158 12301,20200 Z M 12315,20213 L 14320,20213 14320,22145 12315,22145 12315,20213 Z"/>
              <path fill="rgb(82,82,82)" stroke="none" d="M 12315,20213 L 14320,20213 14320,22145 12315,22145 12315,20213 Z M 12330,20227 L 14305,20227 14305,22131 12330,22131 12330,20227 Z"/>
              <path fill="rgb(83,83,83)" stroke="none" d="M 12330,20227 L 14305,20227 14305,22131 12330,22131 12330,20227 Z M 12344,20241 L 14291,20241 14291,22117 12344,22117 12344,20241 Z"/>
              <path fill="rgb(84,84,84)" stroke="none" d="M 12344,20241 L 14291,20241 14291,22117 12344,22117 12344,20241 Z M 12358,20254 L 14277,20254 14277,22104 12358,22104 12358,20254 Z"/>
              <path fill="rgb(85,85,85)" stroke="none" d="M 12358,20254 L 14277,20254 14277,22104 12358,22104 12358,20254 Z M 12372,20268 L 14263,20268 14263,22090 12372,22090 12372,20268 Z"/>
              <path fill="rgb(86,86,86)" stroke="none" d="M 12372,20268 L 14263,20268 14263,22090 12372,22090 12372,20268 Z M 12386,20282 L 14249,20282 14249,22076 12386,22076 12386,20282 Z"/>
              <path fill="rgb(87,87,87)" stroke="none" d="M 12386,20282 L 14249,20282 14249,22076 12386,22076 12386,20282 Z M 12400,20295 L 14235,20295 14235,22063 12400,22063 12400,20295 Z"/>
              <path fill="rgb(88,88,88)" stroke="none" d="M 12400,20295 L 14235,20295 14235,22063 12400,22063 12400,20295 Z M 12414,20309 L 14221,20309 14221,22049 12414,22049 12414,20309 Z"/>
              <path fill="rgb(89,89,89)" stroke="none" d="M 12414,20309 L 14221,20309 14221,22049 12414,22049 12414,20309 Z M 12428,20322 L 14207,20322 14207,22036 12428,22036 12428,20322 Z"/>
              <path fill="rgb(90,90,90)" stroke="none" d="M 12428,20322 L 14207,20322 14207,22036 12428,22036 12428,20322 Z M 12442,20335 L 14192,20335 14192,22022 12442,22022 12442,20335 Z"/>
              <path fill="rgb(91,91,91)" stroke="none" d="M 12442,20335 L 14192,20335 14192,22022 12442,22022 12442,20335 Z M 12456,20349 L 14178,20349 14178,22008 12456,22008 12456,20349 Z"/>
              <path fill="rgb(92,92,92)" stroke="none" d="M 12456,20349 L 14178,20349 14178,22008 12456,22008 12456,20349 Z M 12470,20362 L 14164,20362 14164,21995 12470,21995 12470,20362 Z"/>
              <path fill="rgb(93,93,93)" stroke="none" d="M 12470,20362 L 14164,20362 14164,21995 12470,21995 12470,20362 Z M 12484,20376 L 14150,20376 14150,21981 12484,21981 12484,20376 Z"/>
              <path fill="rgb(94,94,94)" stroke="none" d="M 12484,20376 L 14150,20376 14150,21981 12484,21981 12484,20376 Z M 12498,20389 L 14136,20389 14136,21968 12498,21968 12498,20389 Z"/>
              <path fill="rgb(95,95,95)" stroke="none" d="M 12498,20389 L 14136,20389 14136,21968 12498,21968 12498,20389 Z M 12512,20403 L 14122,20403 14122,21954 12512,21954 12512,20403 Z"/>
              <path fill="rgb(96,96,96)" stroke="none" d="M 12512,20403 L 14122,20403 14122,21954 12512,21954 12512,20403 Z M 12526,20417 L 14108,20417 14108,21940 12526,21940 12526,20417 Z"/>
              <path fill="rgb(97,97,97)" stroke="none" d="M 12526,20417 L 14108,20417 14108,21940 12526,21940 12526,20417 Z M 12540,20430 L 14094,20430 14094,21927 12540,21927 12540,20430 Z"/>
              <path fill="rgb(98,98,98)" stroke="none" d="M 12540,20430 L 14094,20430 14094,21927 12540,21927 12540,20430 Z M 12555,20444 L 14079,20444 14079,21913 12555,21913 12555,20444 Z"/>
              <path fill="rgb(99,99,99)" stroke="none" d="M 12555,20444 L 14079,20444 14079,21913 12555,21913 12555,20444 Z M 12569,20458 L 14065,20458 14065,21899 12569,21899 12569,20458 Z"/>
              <path fill="rgb(100,100,100)" stroke="none" d="M 12569,20458 L 14065,20458 14065,21899 12569,21899 12569,20458 Z M 12583,20471 L 14051,20471 14051,21886 12583,21886 12583,20471 Z"/>
              <path fill="rgb(101,101,101)" stroke="none" d="M 12583,20471 L 14051,20471 14051,21886 12583,21886 12583,20471 Z M 12597,20485 L 14037,20485 14037,21872 12597,21872 12597,20485 Z"/>
              <path fill="rgb(102,102,102)" stroke="none" d="M 12597,20485 L 14037,20485 14037,21872 12597,21872 12597,20485 Z M 12611,20498 L 14023,20498 14023,21859 12611,21859 12611,20498 Z"/>
              <path fill="rgb(103,103,103)" stroke="none" d="M 12611,20498 L 14023,20498 14023,21859 12611,21859 12611,20498 Z M 12625,20512 L 14009,20512 14009,21845 12625,21845 12625,20512 Z"/>
              <path fill="rgb(104,104,104)" stroke="none" d="M 12625,20512 L 14009,20512 14009,21845 12625,21845 12625,20512 Z M 12639,20526 L 13995,20526 13995,21831 12639,21831 12639,20526 Z"/>
              <path fill="rgb(105,105,105)" stroke="none" d="M 12639,20526 L 13995,20526 13995,21831 12639,21831 12639,20526 Z M 12654,20539 L 13980,20539 13980,21818 12654,21818 12654,20539 Z"/>
              <path fill="rgb(106,106,106)" stroke="none" d="M 12654,20539 L 13980,20539 13980,21818 12654,21818 12654,20539 Z M 12668,20553 L 13966,20553 13966,21804 12668,21804 12668,20553 Z"/>
              <path fill="rgb(107,107,107)" stroke="none" d="M 12668,20553 L 13966,20553 13966,21804 12668,21804 12668,20553 Z M 12682,20566 L 13952,20566 13952,21791 12682,21791 12682,20566 Z"/>
              <path fill="rgb(108,108,108)" stroke="none" d="M 12682,20566 L 13952,20566 13952,21791 12682,21791 12682,20566 Z M 12696,20580 L 13938,20580 13938,21777 12696,21777 12696,20580 Z"/>
              <path fill="rgb(109,109,109)" stroke="none" d="M 12696,20580 L 13938,20580 13938,21777 12696,21777 12696,20580 Z M 12710,20594 L 13924,20594 13924,21763 12710,21763 12710,20594 Z"/>
              <path fill="rgb(110,110,110)" stroke="none" d="M 12710,20594 L 13924,20594 13924,21763 12710,21763 12710,20594 Z M 12724,20607 L 13910,20607 13910,21750 12724,21750 12724,20607 Z"/>
              <path fill="rgb(111,111,111)" stroke="none" d="M 12724,20607 L 13910,20607 13910,21750 12724,21750 12724,20607 Z M 12738,20621 L 13896,20621 13896,21736 12738,21736 12738,20621 Z"/>
              <path fill="rgb(112,112,112)" stroke="none" d="M 12738,20621 L 13896,20621 13896,21736 12738,21736 12738,20621 Z M 12752,20634 L 13882,20634 13882,21723 12752,21723 12752,20634 Z"/>
              <path fill="rgb(113,113,113)" stroke="none" d="M 12752,20634 L 13882,20634 13882,21723 12752,21723 12752,20634 Z M 12767,20648 L 13867,20648 13867,21709 12767,21709 12767,20648 Z"/>
              <path fill="rgb(114,114,114)" stroke="none" d="M 12767,20648 L 13867,20648 13867,21709 12767,21709 12767,20648 Z M 12781,20662 L 13853,20662 13853,21695 12781,21695 12781,20662 Z"/>
              <path fill="rgb(115,115,115)" stroke="none" d="M 12781,20662 L 13853,20662 13853,21695 12781,21695 12781,20662 Z M 12795,20675 L 13839,20675 13839,21682 12795,21682 12795,20675 Z"/>
              <path fill="rgb(116,116,116)" stroke="none" d="M 12795,20675 L 13839,20675 13839,21682 12795,21682 12795,20675 Z M 12809,20689 L 13825,20689 13825,21668 12809,21668 12809,20689 Z"/>
              <path fill="rgb(117,117,117)" stroke="none" d="M 12809,20689 L 13825,20689 13825,21668 12809,21668 12809,20689 Z M 12823,20703 L 13811,20703 13811,21654 12823,21654 12823,20703 Z"/>
              <path fill="rgb(118,118,118)" stroke="none" d="M 12823,20703 L 13811,20703 13811,21654 12823,21654 12823,20703 Z M 12837,20716 L 13797,20716 13797,21641 12837,21641 12837,20716 Z"/>
              <path fill="rgb(119,119,119)" stroke="none" d="M 12837,20716 L 13797,20716 13797,21641 12837,21641 12837,20716 Z M 12851,20730 L 13783,20730 13783,21627 12851,21627 12851,20730 Z"/>
              <path fill="rgb(120,120,120)" stroke="none" d="M 12851,20730 L 13783,20730 13783,21627 12851,21627 12851,20730 Z M 12865,20743 L 13769,20743 13769,21614 12865,21614 12865,20743 Z"/>
              <path fill="rgb(121,121,121)" stroke="none" d="M 12865,20743 L 13769,20743 13769,21614 12865,21614 12865,20743 Z M 12880,20757 L 13754,20757 13754,21600 12880,21600 12880,20757 Z"/>
              <path fill="rgb(122,122,122)" stroke="none" d="M 12880,20757 L 13754,20757 13754,21600 12880,21600 12880,20757 Z M 12894,20771 L 13740,20771 13740,21586 12894,21586 12894,20771 Z"/>
              <path fill="rgb(123,123,123)" stroke="none" d="M 12894,20771 L 13740,20771 13740,21586 12894,21586 12894,20771 Z M 12908,20784 L 13726,20784 13726,21573 12908,21573 12908,20784 Z"/>
              <path fill="rgb(124,124,124)" stroke="none" d="M 12908,20784 L 13726,20784 13726,21573 12908,21573 12908,20784 Z M 12922,20798 L 13712,20798 13712,21559 12922,21559 12922,20798 Z"/>
              <path fill="rgb(125,125,125)" stroke="none" d="M 12922,20798 L 13712,20798 13712,21559 12922,21559 12922,20798 Z M 12936,20811 L 13698,20811 13698,21546 12936,21546 12936,20811 Z"/>
              <path fill="rgb(126,126,126)" stroke="none" d="M 12936,20811 L 13698,20811 13698,21546 12936,21546 12936,20811 Z M 12950,20825 L 13684,20825 13684,21532 12950,21532 12950,20825 Z"/>
              <path fill="rgb(127,127,127)" stroke="none" d="M 12950,20825 L 13684,20825 13684,21532 12950,21532 12950,20825 Z M 12964,20839 L 13670,20839 13670,21518 12964,21518 12964,20839 Z"/>
              <path fill="rgb(128,128,128)" stroke="none" d="M 12964,20839 L 13670,20839 13670,21518 12964,21518 12964,20839 Z M 12978,20852 L 13656,20852 13656,21505 12978,21505 12978,20852 Z"/>
              <path fill="rgb(129,129,129)" stroke="none" d="M 12978,20852 L 13656,20852 13656,21505 12978,21505 12978,20852 Z M 12993,20866 L 13641,20866 13641,21491 12993,21491 12993,20866 Z"/>
              <path fill="rgb(130,130,130)" stroke="none" d="M 12993,20866 L 13641,20866 13641,21491 12993,21491 12993,20866 Z M 13007,20880 L 13627,20880 13627,21477 13007,21477 13007,20880 Z"/>
              <path fill="rgb(131,131,131)" stroke="none" d="M 13007,20880 L 13627,20880 13627,21477 13007,21477 13007,20880 Z M 13021,20893 L 13613,20893 13613,21464 13021,21464 13021,20893 Z"/>
              <path fill="rgb(132,132,132)" stroke="none" d="M 13021,20893 L 13613,20893 13613,21464 13021,21464 13021,20893 Z M 13035,20907 L 13599,20907 13599,21450 13035,21450 13035,20907 Z"/>
              <path fill="rgb(133,133,133)" stroke="none" d="M 13035,20907 L 13599,20907 13599,21450 13035,21450 13035,20907 Z M 13049,20920 L 13585,20920 13585,21437 13049,21437 13049,20920 Z"/>
              <path fill="rgb(134,134,134)" stroke="none" d="M 13049,20920 L 13585,20920 13585,21437 13049,21437 13049,20920 Z M 13063,20934 L 13571,20934 13571,21423 13063,21423 13063,20934 Z"/>
              <path fill="rgb(135,135,135)" stroke="none" d="M 13063,20934 L 13571,20934 13571,21423 13063,21423 13063,20934 Z M 13077,20948 L 13557,20948 13557,21409 13077,21409 13077,20948 Z"/>
              <path fill="rgb(136,136,136)" stroke="none" d="M 13077,20948 L 13557,20948 13557,21409 13077,21409 13077,20948 Z M 13091,20961 L 13543,20961 13543,21396 13091,21396 13091,20961 Z"/>
              <path fill="rgb(137,137,137)" stroke="none" d="M 13091,20961 L 13543,20961 13543,21396 13091,21396 13091,20961 Z M 13106,20975 L 13528,20975 13528,21382 13106,21382 13106,20975 Z"/>
              <path fill="rgb(138,138,138)" stroke="none" d="M 13106,20975 L 13528,20975 13528,21382 13106,21382 13106,20975 Z M 13120,20988 L 13514,20988 13514,21369 13120,21369 13120,20988 Z"/>
              <path fill="rgb(139,139,139)" stroke="none" d="M 13120,20988 L 13514,20988 13514,21369 13120,21369 13120,20988 Z M 13134,21002 L 13500,21002 13500,21355 13134,21355 13134,21002 Z"/>
              <path fill="rgb(140,140,140)" stroke="none" d="M 13134,21002 L 13500,21002 13500,21355 13134,21355 13134,21002 Z M 13148,21016 L 13486,21016 13486,21341 13148,21341 13148,21016 Z"/>
              <path fill="rgb(141,141,141)" stroke="none" d="M 13148,21016 L 13486,21016 13486,21341 13148,21341 13148,21016 Z M 13162,21029 L 13472,21029 13472,21328 13162,21328 13162,21029 Z"/>
              <path fill="rgb(142,142,142)" stroke="none" d="M 13162,21029 L 13472,21029 13472,21328 13162,21328 13162,21029 Z M 13176,21043 L 13458,21043 13458,21314 13176,21314 13176,21043 Z"/>
              <path fill="rgb(143,143,143)" stroke="none" d="M 13176,21043 L 13458,21043 13458,21314 13176,21314 13176,21043 Z M 13190,21056 L 13444,21056 13444,21301 13190,21301 13190,21056 Z"/>
              <path fill="rgb(144,144,144)" stroke="none" d="M 13190,21056 L 13444,21056 13444,21301 13190,21301 13190,21056 Z M 13204,21070 L 13430,21070 13430,21287 13204,21287 13204,21070 Z"/>
              <path fill="rgb(145,145,145)" stroke="none" d="M 13204,21070 L 13430,21070 13430,21287 13204,21287 13204,21070 Z M 13219,21084 L 13415,21084 13415,21273 13219,21273 13219,21084 Z"/>
              <path fill="rgb(146,146,146)" stroke="none" d="M 13219,21084 L 13415,21084 13415,21273 13219,21273 13219,21084 Z M 13233,21097 L 13401,21097 13401,21260 13233,21260 13233,21097 Z"/>
              <path fill="rgb(147,147,147)" stroke="none" d="M 13233,21097 L 13401,21097 13401,21260 13233,21260 13233,21097 Z M 13247,21111 L 13387,21111 13387,21246 13247,21246 13247,21111 Z"/>
              <path fill="rgb(148,148,148)" stroke="none" d="M 13247,21111 L 13387,21111 13387,21246 13247,21246 13247,21111 Z M 13261,21125 L 13373,21125 13373,21232 13261,21232 13261,21125 Z"/>
              <path fill="rgb(149,149,149)" stroke="none" d="M 13261,21125 L 13373,21125 13373,21232 13261,21232 13261,21125 Z M 13275,21138 L 13359,21138 13359,21219 13275,21219 13275,21138 Z"/>
              <path fill="rgb(150,150,150)" stroke="none" d="M 13275,21138 L 13359,21138 13359,21219 13275,21219 13275,21138 Z M 13289,21152 L 13345,21152 13345,21205 13289,21205 13289,21152 Z"/>
              <path fill="rgb(151,151,151)" stroke="none" d="M 13289,21152 L 13345,21152 13345,21205 13289,21205 13289,21152 Z M 13303,21165 L 13331,21165 13331,21192 13303,21192 13303,21165 Z"/>
              <path fill="rgb(153,153,153)" stroke="none" d="M 13303,21165 L 13331,21165 13331,21192 13303,21192 13303,21165 Z"/>
             </g>
            </pattern>
           </defs>
           <path style="fill:url(#pattern1)" d="M 12455,23121 L 12455,22011 15334,20347 15334,21457 12455,23121 Z"/>
          </g>
          <path fill="none" stroke="rgb(178,178,178)" stroke-width="40" stroke-linejoin="round" d="M 12455,23121 L 12455,22011 15334,20347 15334,21457 12455,23121 Z"/>
         </g>
        </g>
        <g class="com.sun.star.drawing.PolyPolygonShape">
         <g id="id6">
          <rect class="BoundingBox" stroke="none" fill="none" x="9076" y="18385" width="6280" height="3647"/>
          <g>
           <defs>
            <linearGradient id="gradient2" x1="12215" y1="18405" x2="12215" y2="22011" gradientUnits="userSpaceOnUse">
             <stop offset="0.1" style="stop-color:rgb(51,51,51)"/>
             <stop offset="1" style="stop-color:rgb(153,153,153)"/>
            </linearGradient>
           </defs>
           <path style="fill:url(#gradient2)" d="M 12455,22011 L 9096,20069 11975,18405 15335,20347 12455,22011 Z"/>
          </g>
          <path fill="none" stroke="rgb(178,178,178)" stroke-width="40" stroke-linejoin="round" d="M 12455,22011 L 9096,20069 11975,18405 15335,20347 12455,22011 Z"/>
         </g>
        </g>
        <g class="com.sun.star.drawing.LineShape">
         <g id="id7">
          <rect class="BoundingBox" stroke="none" fill="none" x="10228" y="20937" width="41" height="707"/>
          <path fill="none" stroke="rgb(153,153,153)" stroke-width="40" stroke-linejoin="round" d="M 10248,20957 L 10248,21623"/>
         </g>
        </g>
        <g class="com.sun.star.drawing.LineShape">
         <g id="id8">
          <rect class="BoundingBox" stroke="none" fill="none" x="10804" y="21470" width="1577" height="929"/>
          <path fill="none" stroke="rgb(178,178,178)" stroke-width="40" stroke-linejoin="round" d="M 12360,22378 L 10824,21490"/>
         </g>
        </g>
        <g class="com.sun.star.drawing.LineShape">
         <g id="id9">
          <rect class="BoundingBox" stroke="none" fill="none" x="10795" y="21270" width="41" height="263"/>
          <path fill="none" stroke="rgb(178,178,178)" stroke-width="40" stroke-linejoin="round" d="M 10815,21290 L 10815,21512"/>
         </g>
        </g>
        <g class="com.sun.star.drawing.LineShape">
         <g id="id10">
          <rect class="BoundingBox" stroke="none" fill="none" x="12331" y="22158" width="41" height="263"/>
          <path fill="none" stroke="rgb(102,102,102)" stroke-width="40" stroke-linejoin="round" d="M 12351,22178 L 12351,22400"/>
         </g>
        </g>
        <g class="com.sun.star.drawing.LineShape">
         <g id="id11">
          <rect class="BoundingBox" stroke="none" fill="none" x="10795" y="21270" width="1577" height="929"/>
          <path fill="none" stroke="rgb(102,102,102)" stroke-width="40" stroke-linejoin="round" d="M 12351,22178 L 10815,21290"/>
         </g>
        </g>
        <g class="com.sun.star.drawing.PolyPolygonShape">
         <g id="id12">
          <rect class="BoundingBox" stroke="none" fill="none" x="10420" y="21048" width="233" height="375"/>
          <path fill="rgb(57,181,74)" stroke="none" d="M 10440,21290 L 10440,21068 10632,21179 10632,21401 10440,21290 Z"/>
          <path fill="none" stroke="rgb(102,102,102)" stroke-width="40" stroke-linejoin="round" d="M 10440,21290 L 10440,21068 10632,21179 10632,21401 10440,21290 Z"/>
         </g>
        </g>
        <g class="com.sun.star.drawing.LineShape">
         <g id="id13">
          <rect class="BoundingBox" stroke="none" fill="none" x="10036" y="20826" width="41" height="707"/>
          <path fill="none" stroke="rgb(153,153,153)" stroke-width="40" stroke-linejoin="round" d="M 10056,20846 L 10056,21512"/>
         </g>
        </g>
        <g class="com.sun.star.drawing.LineShape">
         <g id="id14">
          <rect class="BoundingBox" stroke="none" fill="none" x="9844" y="20715" width="41" height="707"/>
          <path fill="none" stroke="rgb(153,153,153)" stroke-width="40" stroke-linejoin="round" d="M 9864,20735 L 9864,21401"/>
         </g>
        </g>
        <g class="com.sun.star.drawing.LineShape">
         <g id="id15">
          <rect class="BoundingBox" stroke="none" fill="none" x="9652" y="20604" width="41" height="707"/>
          <path fill="none" stroke="rgb(153,153,153)" stroke-width="40" stroke-linejoin="round" d="M 9672,20624 L 9672,21290"/>
         </g>
        </g>
        <g class="com.sun.star.drawing.LineShape">
         <g id="id16">
          <rect class="BoundingBox" stroke="none" fill="none" x="9460" y="20493" width="41" height="707"/>
          <path fill="none" stroke="rgb(153,153,153)" stroke-width="40" stroke-linejoin="round" d="M 9480,20513 L 9480,21179"/>
         </g>
        </g>
        <g class="com.sun.star.drawing.LineShape">
         <g id="id17">
          <rect class="BoundingBox" stroke="none" fill="none" x="9268" y="20382" width="41" height="707"/>
          <path fill="none" stroke="rgb(153,153,153)" stroke-width="40" stroke-linejoin="round" d="M 9288,20402 L 9288,21068"/>
         </g>
        </g>
        <g class="com.sun.star.drawing.PolyPolygonShape">
         <g id="id18">
          <rect class="BoundingBox" stroke="none" fill="none" x="8884" y="19938" width="233" height="1263"/>
          <g>
           <defs>
            <linearGradient id="gradient3" x1="8904" y1="20568" x2="9097" y2="20568" gradientUnits="userSpaceOnUse">
             <stop offset="0.1" style="stop-color:rgb(51,51,51)"/>
             <stop offset="1" style="stop-color:rgb(153,153,153)"/>
            </linearGradient>
           </defs>
           <path style="fill:url(#gradient3)" d="M 8904,21068 L 8904,19958 9096,20069 9096,21179 8904,21068 Z"/>
          </g>
          <path fill="none" stroke="rgb(178,178,178)" stroke-width="40" stroke-linejoin="round" d="M 8904,21068 L 8904,19958 9096,20069 9096,21179 8904,21068 Z"/>
         </g>
        </g>
        <g class="com.sun.star.drawing.PolyPolygonShape">
         <g id="id19">
          <rect class="BoundingBox" stroke="none" fill="none" x="12434" y="21991" width="234" height="1262"/>
          <g>
           <defs>
            <linearGradient id="gradient4" x1="12455" y1="22621" x2="12648" y2="22621" gradientUnits="userSpaceOnUse">
             <stop offset="0.1" style="stop-color:rgb(51,51,51)"/>
             <stop offset="1" style="stop-color:rgb(153,153,153)"/>
            </linearGradient>
           </defs>
           <path style="fill:url(#gradient4)" d="M 12455,23121 L 12455,22011 12647,22122 12647,23232 12455,23121 Z"/>
          </g>
          <path fill="none" stroke="rgb(178,178,178)" stroke-width="40" stroke-linejoin="round" d="M 12455,23121 L 12455,22011 12647,22122 12647,23232 12455,23121 Z"/>
         </g>
        </g>
        <g class="com.sun.star.drawing.PolyPolygonShape">
         <g id="id20">
          <rect class="BoundingBox" stroke="none" fill="none" x="8884" y="18385" width="6472" height="4868"/>
          <path fill="none" stroke="rgb(0,0,0)" stroke-width="40" stroke-linejoin="round" d="M 8904,21068 L 8904,19958 9096,20069 11975,18405 15335,20347 15335,21456 12647,23010 12647,23232 8904,21068 Z"/>
         </g>
        </g>
       </g>
      </g>
      <g class="Group">
       <g class="com.sun.star.drawing.PolyPolygonShape">
        <g id="id21">
         <rect class="BoundingBox" stroke="none" fill="none" x="14123" y="22406" width="552" height="781"/>
         <path fill="rgb(252,222,187)" stroke="none" d="M 14654,22426 L 14143,22500 14654,23165 14654,22426 Z"/>
         <path fill="none" stroke="rgb(255,255,255)" stroke-width="40" stroke-linejoin="round" d="M 14654,22426 L 14143,22500 14654,23165 14654,22426 Z"/>
        </g>
       </g>
       <g class="com.sun.star.drawing.PolyPolygonShape">
        <g id="id22">
         <rect class="BoundingBox" stroke="none" fill="none" x="13612" y="21815" width="552" height="781"/>
         <path fill="rgb(252,222,187)" stroke="none" d="M 13632,21835 L 14143,22500 13632,22574 13632,21835 Z"/>
         <path fill="none" stroke="rgb(255,255,255)" stroke-width="40" stroke-linejoin="round" d="M 13632,21835 L 14143,22500 13632,22574 13632,21835 Z"/>
        </g>
       </g>
       <g class="com.sun.star.drawing.PolyPolygonShape">
        <g id="id23">
         <rect class="BoundingBox" stroke="none" fill="none" x="13612" y="22406" width="1064" height="781"/>
         <path fill="rgb(252,222,187)" stroke="none" d="M 14655,23165 L 14143,22426 13632,22574 14655,23165 Z"/>
         <path fill="none" stroke="rgb(251,201,142)" stroke-width="40" stroke-linejoin="round" d="M 14655,23165 L 14143,22426 13632,22574 14655,23165 Z"/>
        </g>
       </g>
       <g class="com.sun.star.drawing.PolyPolygonShape">
        <g id="id24">
         <rect class="BoundingBox" stroke="none" fill="none" x="13612" y="21815" width="1064" height="781"/>
         <path fill="rgb(252,222,187)" stroke="none" d="M 14655,22426 L 14143,22574 13632,21835 14655,22426 Z"/>
         <path fill="none" stroke="rgb(251,201,142)" stroke-width="40" stroke-linejoin="round" d="M 14655,22426 L 14143,22574 13632,21835 14655,22426 Z"/>
        </g>
       </g>
       <g class="com.sun.star.drawing.PolyPolygonShape">
        <g id="id25">
         <rect class="BoundingBox" stroke="none" fill="none" x="13612" y="21815" width="1064" height="1372"/>
         <path fill="none" stroke="rgb(0,0,0)" stroke-width="40" stroke-linejoin="round" d="M 13632,22574 L 13632,21835 14655,22426 14655,23165 13632,22574 Z"/>
        </g>
       </g>
      </g>
     </g>
    </g>
   </g>
  </g>
 </g>
</svg>