<?xml version="1.0" encoding="UTF-8"?>
<!DOCTYPE svg PUBLIC "-//W3C//DTD SVG 1.1//EN" "http://www.w3.org/Graphics/SVG/1.1/DTD/svg11.dtd">
<svg version="1.2" width="69.31mm" height="48.67mm" viewBox="6 18141 6931 4867" preserveAspectRatio="xMidYMid" fill-rule="evenodd" stroke-width="28.222" stroke-linejoin="round" xmlns="http://www.w3.org/2000/svg" xmlns:ooo="http://xml.openoffice.org/svg/export" xmlns:xlink="http://www.w3.org/1999/xlink" xmlns:presentation="http://sun.com/xmlns/staroffice/presentation" xmlns:smil="http://www.w3.org/2001/SMIL20/" xmlns:anim="urn:oasis:names:tc:opendocument:xmlns:animation:1.0" xml:space="preserve">
 <defs class="ClipPathGroup">
  <clipPath id="presentation_clip_path" clipPathUnits="userSpaceOnUse">
   <rect x="6" y="18141" width="6931" height="4867"/>
  </clipPath>
 </defs>
 <defs class="TextShapeIndex">
  <g ooo:slide="id1" ooo:id-list="id3 id4 id5 id6 id7 id8 id9 id10 id11 id12 id13 id14 id15 id16 id17 id18 id19 id20 id21 id22 id23 id24 id25"/>
 </defs>
 <defs class="EmbeddedBulletChars">
  <g id="bullet-char-template(57356)" transform="scale(0.00048828125,-0.00048828125)">
   <path d="M 580,1141 L 1163,571 580,0 -4,571 580,1141 Z"/>
  </g>
  <g id="bullet-char-template(57354)" transform="scale(0.00048828125,-0.00048828125)">
   <path d="M 8,1128 L 1137,1128 1137,0 8,0 8,1128 Z"/>
  </g>
  <g id="bullet-char-template(10146)" transform="scale(0.00048828125,-0.00048828125)">
   <path d="M 174,0 L 602,739 174,1481 1456,739 174,0 Z M 1358,739 L 309,1346 659,739 1358,739 Z"/>
  </g>
  <g id="bullet-char-template(10132)" transform="scale(0.00048828125,-0.00048828125)">
   <path d="M 2015,739 L 1276,0 717,0 1260,543 174,543 174,936 1260,936 717,1481 1274,1481 2015,739 Z"/>
  </g>
  <g id="bullet-char-template(10007)" transform="scale(0.00048828125,-0.00048828125)">
   <path d="M 0,-2 C -7,14 -16,27 -25,37 L 356,567 C 262,823 215,952 215,954 215,979 228,992 255,992 264,992 276,990 289,987 310,991 331,999 354,1012 L 381,999 492,748 772,1049 836,1024 860,1049 C 881,1039 901,1025 922,1006 886,937 835,863 770,784 769,783 710,716 594,584 L 774,223 C 774,196 753,168 711,139 L 727,119 C 717,90 699,76 672,76 641,76 570,178 457,381 L 164,-76 C 142,-110 111,-127 72,-127 30,-127 9,-110 8,-76 1,-67 -2,-52 -2,-32 -2,-23 -1,-13 0,-2 Z"/>
  </g>
  <g id="bullet-char-template(10004)" transform="scale(0.00048828125,-0.00048828125)">
   <path d="M 285,-33 C 182,-33 111,30 74,156 52,228 41,333 41,471 41,549 55,616 82,672 116,743 169,778 240,778 293,778 328,747 346,684 L 369,508 C 377,444 397,411 428,410 L 1163,1116 C 1174,1127 1196,1133 1229,1133 1271,1133 1292,1118 1292,1087 L 1292,965 C 1292,929 1282,901 1262,881 L 442,47 C 390,-6 338,-33 285,-33 Z"/>
  </g>
  <g id="bullet-char-template(9679)" transform="scale(0.00048828125,-0.00048828125)">
   <path d="M 813,0 C 632,0 489,54 383,161 276,268 223,411 223,592 223,773 276,916 383,1023 489,1130 632,1184 813,1184 992,1184 1136,1130 1245,1023 1353,916 1407,772 1407,592 1407,412 1353,268 1245,161 1136,54 992,0 813,0 Z"/>
  </g>
  <g id="bullet-char-template(8226)" transform="scale(0.00048828125,-0.00048828125)">
   <path d="M 346,457 C 273,457 209,483 155,535 101,586 74,649 74,723 74,796 101,859 155,911 209,963 273,989 346,989 419,989 480,963 531,910 582,859 608,796 608,723 608,648 583,586 532,535 482,483 420,457 346,457 Z"/>
  </g>
  <g id="bullet-char-template(8211)" transform="scale(0.00048828125,-0.00048828125)">
   <path d="M -4,459 L 1135,459 1135,606 -4,606 -4,459 Z"/>
  </g>
 </defs>
 <defs class="TextEmbeddedBitmaps"/>
 <g class="SlideGroup">
  <g>
   <g id="id1" class="Slide" clip-path="url(#presentation_clip_path)">
    <g class="Page">
     <g class="Group">
      <g class="Group">
       <g class="com.sun.star.drawing.ClosedBezierShape">
        <g id="id3">
         <rect class="BoundingBox" stroke="none" fill="none" x="3766" y="20934" width="3173" height="2056"/>
         <path fill="rgb(221,221,221)" stroke="none" d="M 3770,22988 C 4033,22988 6937,21712 6937,21323 6937,20935 6529,20935 6265,20935 6265,21101 3674,21767 3770,22988 Z"/>
         <path fill="none" stroke="rgb(221,221,221)" d="M 3770,22988 C 4033,22988 6937,21712 6937,21323 6937,20935 6529,20935 6265,20935 6265,21101 3674,21767 3770,22988 Z"/>
        </g>
       </g>
       <g class="Group">
        <g class="com.sun.star.drawing.PolyPolygonShape">
         <g id="id4">
          <rect class="BoundingBox" stroke="none" fill="none" x="198" y="19805" width="3400" height="3092"/>
          <g>
           <defs>
            <linearGradient id="gradient1" x1="218" y1="21350" x2="3577" y2="21350" gradientUnits="userSpaceOnUse">
             <stop offset="0.1" style="stop-color:rgb(179,179,179)"/>
             <stop offset="1" style="stop-color:rgb(229,229,229)"/>
            </linearGradient>
           </defs>
           <path style="fill:url(#gradient1)" d="M 218,20935 L 218,19825 3577,21767 3577,22876 218,20935 Z"/>
          </g>
          <path fill="none" stroke="rgb(255,255,255)" stroke-width="40" stroke-linejoin="round" d="M 218,20935 L 218,19825 3577,21767 3577,22876 218,20935 Z"/>
         </g>
        </g>
        <g class="com.sun.star.drawing.PolyPolygonShape">
         <g id="id5">
          <rect class="BoundingBox" stroke="none" fill="none" x="3557" y="20082" width="2920" height="2816"/>
          <g>
           <defs>
            <pattern id="pattern1" x="3577" y="20103" width="2880" height="2775" patternUnits="userSpaceOnUse">
             <g transform="translate(-3577,-20103)">
              <path fill="rgb(179,179,179)" stroke="none" d="M 3576,20102 L 6457,20102 6457,22878 3576,22878 3576,20102 Z M 3028,19575 L 5851,19575 5851,22295 3028,22295 3028,19575 Z"/>
              <path fill="rgb(180,180,180)" stroke="none" d="M 3028,19575 L 5851,19575 5851,22295 3028,22295 3028,19575 Z M 3057,19603 L 5822,19603 5822,22267 3057,22267 3057,19603 Z"/>
              <path fill="rgb(181,181,181)" stroke="none" d="M 3057,19603 L 5822,19603 5822,22267 3057,22267 3057,19603 Z M 3086,19631 L 5793,19631 5793,22239 3086,22239 3086,19631 Z"/>
              <path fill="rgb(182,182,182)" stroke="none" d="M 3086,19631 L 5793,19631 5793,22239 3086,22239 3086,19631 Z M 3115,19659 L 5764,19659 5764,22211 3115,22211 3115,19659 Z"/>
              <path fill="rgb(183,183,183)" stroke="none" d="M 3115,19659 L 5764,19659 5764,22211 3115,22211 3115,19659 Z M 3144,19686 L 5735,19686 5735,22184 3144,22184 3144,19686 Z"/>
              <path fill="rgb(184,184,184)" stroke="none" d="M 3144,19686 L 5735,19686 5735,22184 3144,22184 3144,19686 Z M 3172,19714 L 5707,19714 5707,22156 3172,22156 3172,19714 Z"/>
              <path fill="rgb(185,185,185)" stroke="none" d="M 3172,19714 L 5707,19714 5707,22156 3172,22156 3172,19714 Z M 3201,19742 L 5678,19742 5678,22128 3201,22128 3201,19742 Z"/>
              <path fill="rgb(186,186,186)" stroke="none" d="M 3201,19742 L 5678,19742 5678,22128 3201,22128 3201,19742 Z M 3230,19770 L 5649,19770 5649,22100 3230,22100 3230,19770 Z"/>
              <path fill="rgb(187,187,187)" stroke="none" d="M 3230,19770 L 5649,19770 5649,22100 3230,22100 3230,19770 Z M 3259,19797 L 5620,19797 5620,22073 3259,22073 3259,19797 Z"/>
              <path fill="rgb(188,188,188)" stroke="none" d="M 3259,19797 L 5620,19797 5620,22073 3259,22073 3259,19797 Z M 3288,19825 L 5591,19825 5591,22045 3288,22045 3288,19825 Z"/>
              <path fill="rgb(189,189,189)" stroke="none" d="M 3288,19825 L 5591,19825 5591,22045 3288,22045 3288,19825 Z M 3317,19853 L 5562,19853 5562,22017 3317,22017 3317,19853 Z"/>
              <path fill="rgb(190,190,190)" stroke="none" d="M 3317,19853 L 5562,19853 5562,22017 3317,22017 3317,19853 Z M 3345,19881 L 5534,19881 5534,21989 3345,21989 3345,19881 Z"/>
              <path fill="rgb(191,191,191)" stroke="none" d="M 3345,19881 L 5534,19881 5534,21989 3345,21989 3345,19881 Z M 3374,19909 L 5505,19909 5505,21961 3374,21961 3374,19909 Z"/>
              <path fill="rgb(192,192,192)" stroke="none" d="M 3374,19909 L 5505,19909 5505,21961 3374,21961 3374,19909 Z M 3403,19936 L 5476,19936 5476,21934 3403,21934 3403,19936 Z"/>
              <path fill="rgb(193,193,193)" stroke="none" d="M 3403,19936 L 5476,19936 5476,21934 3403,21934 3403,19936 Z M 3432,19964 L 5447,19964 5447,21906 3432,21906 3432,19964 Z"/>
              <path fill="rgb(194,194,194)" stroke="none" d="M 3432,19964 L 5447,19964 5447,21906 3432,21906 3432,19964 Z M 3461,19992 L 5418,19992 5418,21878 3461,21878 3461,19992 Z"/>
              <path fill="rgb(195,195,195)" stroke="none" d="M 3461,19992 L 5418,19992 5418,21878 3461,21878 3461,19992 Z M 3489,20020 L 5390,20020 5390,21850 3489,21850 3489,20020 Z"/>
              <path fill="rgb(196,196,196)" stroke="none" d="M 3489,20020 L 5390,20020 5390,21850 3489,21850 3489,20020 Z M 3518,20047 L 5361,20047 5361,21823 3518,21823 3518,20047 Z"/>
              <path fill="rgb(197,197,197)" stroke="none" d="M 3518,20047 L 5361,20047 5361,21823 3518,21823 3518,20047 Z M 3547,20075 L 5332,20075 5332,21795 3547,21795 3547,20075 Z"/>
              <path fill="rgb(198,198,198)" stroke="none" d="M 3547,20075 L 5332,20075 5332,21795 3547,21795 3547,20075 Z M 3575,20102 L 5303,20102 5303,21767 3575,21767 3575,20102 Z"/>
              <path fill="rgb(199,199,199)" stroke="none" d="M 3575,20102 L 5303,20102 5303,21767 3575,21767 3575,20102 Z M 3604,20130 L 5274,20130 5274,21739 3604,21739 3604,20130 Z"/>
              <path fill="rgb(200,200,200)" stroke="none" d="M 3604,20130 L 5274,20130 5274,21739 3604,21739 3604,20130 Z M 3633,20157 L 5245,20157 5245,21712 3633,21712 3633,20157 Z"/>
              <path fill="rgb(201,201,201)" stroke="none" d="M 3633,20157 L 5245,20157 5245,21712 3633,21712 3633,20157 Z M 3661,20185 L 5217,20185 5217,21684 3661,21684 3661,20185 Z"/>
              <path fill="rgb(202,202,202)" stroke="none" d="M 3661,20185 L 5217,20185 5217,21684 3661,21684 3661,20185 Z M 3690,20213 L 5188,20213 5188,21656 3690,21656 3690,20213 Z"/>
              <path fill="rgb(203,203,203)" stroke="none" d="M 3690,20213 L 5188,20213 5188,21656 3690,21656 3690,20213 Z M 3719,20241 L 5159,20241 5159,21628 3719,21628 3719,20241 Z"/>
              <path fill="rgb(204,204,204)" stroke="none" d="M 3719,20241 L 5159,20241 5159,21628 3719,21628 3719,20241 Z M 3748,20269 L 5130,20269 5130,21600 3748,21600 3748,20269 Z"/>
              <path fill="rgb(205,205,205)" stroke="none" d="M 3748,20269 L 5130,20269 5130,21600 3748,21600 3748,20269 Z M 3777,20296 L 5101,20296 5101,21573 3777,21573 3777,20296 Z"/>
              <path fill="rgb(206,206,206)" stroke="none" d="M 3777,20296 L 5101,20296 5101,21573 3777,21573 3777,20296 Z M 3805,20324 L 5073,20324 5073,21545 3805,21545 3805,20324 Z"/>
              <path fill="rgb(207,207,207)" stroke="none" d="M 3805,20324 L 5073,20324 5073,21545 3805,21545 3805,20324 Z M 3834,20352 L 5044,20352 5044,21517 3834,21517 3834,20352 Z"/>
              <path fill="rgb(208,208,208)" stroke="none" d="M 3834,20352 L 5044,20352 5044,21517 3834,21517 3834,20352 Z M 3863,20380 L 5015,20380 5015,21489 3863,21489 3863,20380 Z"/>
              <path fill="rgb(209,209,209)" stroke="none" d="M 3863,20380 L 5015,20380 5015,21489 3863,21489 3863,20380 Z M 3892,20407 L 4986,20407 4986,21462 3892,21462 3892,20407 Z"/>
              <path fill="rgb(210,210,210)" stroke="none" d="M 3892,20407 L 4986,20407 4986,21462 3892,21462 3892,20407 Z M 3921,20435 L 4957,20435 4957,21434 3921,21434 3921,20435 Z"/>
              <path fill="rgb(211,211,211)" stroke="none" d="M 3921,20435 L 4957,20435 4957,21434 3921,21434 3921,20435 Z M 3950,20463 L 4928,20463 4928,21406 3950,21406 3950,20463 Z"/>
              <path fill="rgb(212,212,212)" stroke="none" d="M 3950,20463 L 4928,20463 4928,21406 3950,21406 3950,20463 Z M 3978,20491 L 4900,20491 4900,21378 3978,21378 3978,20491 Z"/>
              <path fill="rgb(213,213,213)" stroke="none" d="M 3978,20491 L 4900,20491 4900,21378 3978,21378 3978,20491 Z M 4007,20518 L 4871,20518 4871,21351 4007,21351 4007,20518 Z"/>
              <path fill="rgb(214,214,214)" stroke="none" d="M 4007,20518 L 4871,20518 4871,21351 4007,21351 4007,20518 Z M 4036,20546 L 4842,20546 4842,21323 4036,21323 4036,20546 Z"/>
              <path fill="rgb(215,215,215)" stroke="none" d="M 4036,20546 L 4842,20546 4842,21323 4036,21323 4036,20546 Z M 4065,20574 L 4813,20574 4813,21295 4065,21295 4065,20574 Z"/>
              <path fill="rgb(216,216,216)" stroke="none" d="M 4065,20574 L 4813,20574 4813,21295 4065,21295 4065,20574 Z M 4094,20602 L 4784,20602 4784,21267 4094,21267 4094,20602 Z"/>
              <path fill="rgb(217,217,217)" stroke="none" d="M 4094,20602 L 4784,20602 4784,21267 4094,21267 4094,20602 Z M 4122,20630 L 4756,20630 4756,21239 4122,21239 4122,20630 Z"/>
              <path fill="rgb(218,218,218)" stroke="none" d="M 4122,20630 L 4756,20630 4756,21239 4122,21239 4122,20630 Z M 4151,20657 L 4727,20657 4727,21212 4151,21212 4151,20657 Z"/>
              <path fill="rgb(219,219,219)" stroke="none" d="M 4151,20657 L 4727,20657 4727,21212 4151,21212 4151,20657 Z M 4180,20685 L 4698,20685 4698,21184 4180,21184 4180,20685 Z"/>
              <path fill="rgb(220,220,220)" stroke="none" d="M 4180,20685 L 4698,20685 4698,21184 4180,21184 4180,20685 Z M 4209,20713 L 4669,20713 4669,21156 4209,21156 4209,20713 Z"/>
              <path fill="rgb(221,221,221)" stroke="none" d="M 4209,20713 L 4669,20713 4669,21156 4209,21156 4209,20713 Z M 4238,20741 L 4640,20741 4640,21128 4238,21128 4238,20741 Z"/>
              <path fill="rgb(222,222,222)" stroke="none" d="M 4238,20741 L 4640,20741 4640,21128 4238,21128 4238,20741 Z M 4267,20768 L 4611,20768 4611,21101 4267,21101 4267,20768 Z"/>
              <path fill="rgb(223,223,223)" stroke="none" d="M 4267,20768 L 4611,20768 4611,21101 4267,21101 4267,20768 Z M 4295,20796 L 4583,20796 4583,21073 4295,21073 4295,20796 Z"/>
              <path fill="rgb(224,224,224)" stroke="none" d="M 4295,20796 L 4583,20796 4583,21073 4295,21073 4295,20796 Z M 4324,20824 L 4554,20824 4554,21045 4324,21045 4324,20824 Z"/>
              <path fill="rgb(225,225,225)" stroke="none" d="M 4324,20824 L 4554,20824 4554,21045 4324,21045 4324,20824 Z M 4353,20852 L 4525,20852 4525,21017 4353,21017 4353,20852 Z"/>
              <path fill="rgb(226,226,226)" stroke="none" d="M 4353,20852 L 4525,20852 4525,21017 4353,21017 4353,20852 Z M 4382,20879 L 4496,20879 4496,20990 4382,20990 4382,20879 Z"/>
              <path fill="rgb(227,227,227)" stroke="none" d="M 4382,20879 L 4496,20879 4496,20990 4382,20990 4382,20879 Z M 4411,20907 L 4467,20907 4467,20962 4411,20962 4411,20907 Z"/>
              <path fill="rgb(229,229,229)" stroke="none" d="M 4411,20907 L 4467,20907 4467,20962 4411,20962 4411,20907 Z"/>
             </g>
            </pattern>
           </defs>
           <path style="fill:url(#pattern1)" d="M 3577,22877 L 3577,21767 6456,20103 6456,21213 3577,22877 Z"/>
          </g>
          <path fill="none" stroke="rgb(255,255,255)" stroke-width="40" stroke-linejoin="round" d="M 3577,22877 L 3577,21767 6456,20103 6456,21213 3577,22877 Z"/>
         </g>
        </g>
        <g class="com.sun.star.drawing.PolyPolygonShape">
         <g id="id6">
          <rect class="BoundingBox" stroke="none" fill="none" x="198" y="18141" width="6280" height="3647"/>
          <g>
           <defs>
            <linearGradient id="gradient2" x1="3337" y1="18161" x2="3337" y2="21767" gradientUnits="userSpaceOnUse">
             <stop offset="0.1" style="stop-color:rgb(179,179,179)"/>
             <stop offset="1" style="stop-color:rgb(229,229,229)"/>
            </linearGradient>
           </defs>
           <path style="fill:url(#gradient2)" d="M 3577,21767 L 218,19825 3097,18161 6457,20103 3577,21767 Z"/>
          </g>
          <path fill="none" stroke="rgb(255,255,255)" stroke-width="40" stroke-linejoin="round" d="M 3577,21767 L 218,19825 3097,18161 6457,20103 3577,21767 Z"/>
         </g>
        </g>
        <g class="com.sun.star.drawing.LineShape">
         <g id="id7">
          <rect class="BoundingBox" stroke="none" fill="none" x="1350" y="20693" width="41" height="707"/>
          <path fill="none" stroke="rgb(127,127,127)" stroke-width="40" stroke-linejoin="round" d="M 1370,20713 L 1370,21379"/>
         </g>
        </g>
        <g class="com.sun.star.drawing.LineShape">
         <g id="id8">
          <rect class="BoundingBox" stroke="none" fill="none" x="1925" y="21226" width="1578" height="929"/>
          <path fill="none" stroke="rgb(255,255,255)" stroke-width="40" stroke-linejoin="round" d="M 3482,22134 L 1946,21246"/>
         </g>
        </g>
        <g class="com.sun.star.drawing.LineShape">
         <g id="id9">
          <rect class="BoundingBox" stroke="none" fill="none" x="1917" y="21026" width="41" height="263"/>
          <path fill="none" stroke="rgb(255,255,255)" stroke-width="40" stroke-linejoin="round" d="M 1937,21046 L 1937,21268"/>
         </g>
        </g>
        <g class="com.sun.star.drawing.LineShape">
         <g id="id10">
          <rect class="BoundingBox" stroke="none" fill="none" x="3453" y="21914" width="41" height="263"/>
          <path fill="none" stroke="rgb(0,0,0)" stroke-width="40" stroke-linejoin="round" d="M 3473,21934 L 3473,22156"/>
         </g>
        </g>
        <g class="com.sun.star.drawing.LineShape">
         <g id="id11">
          <rect class="BoundingBox" stroke="none" fill="none" x="1916" y="21026" width="1578" height="929"/>
          <path fill="none" stroke="rgb(0,0,0)" stroke-width="40" stroke-linejoin="round" d="M 3473,21934 L 1937,21046"/>
         </g>
        </g>
        <g class="com.sun.star.drawing.PolyPolygonShape">
         <g id="id12">
          <rect class="BoundingBox" stroke="none" fill="none" x="1542" y="20804" width="233" height="374"/>
          <path fill="rgb(57,181,74)" stroke="none" d="M 1562,21046 L 1562,20824 1754,20935 1754,21157 1562,21046 Z"/>
          <path fill="none" stroke="rgb(0,0,0)" stroke-width="40" stroke-linejoin="round" d="M 1562,21046 L 1562,20824 1754,20935 1754,21157 1562,21046 Z"/>
         </g>
        </g>
        <g class="com.sun.star.drawing.LineShape">
         <g id="id13">
          <rect class="BoundingBox" stroke="none" fill="none" x="1158" y="20582" width="41" height="707"/>
          <path fill="none" stroke="rgb(127,127,127)" stroke-width="40" stroke-linejoin="round" d="M 1178,20602 L 1178,21268"/>
         </g>
        </g>
        <g class="com.sun.star.drawing.LineShape">
         <g id="id14">
          <rect class="BoundingBox" stroke="none" fill="none" x="966" y="20471" width="41" height="707"/>
          <path fill="none" stroke="rgb(127,127,127)" stroke-width="40" stroke-linejoin="round" d="M 986,20491 L 986,21157"/>
         </g>
        </g>
        <g class="com.sun.star.drawing.LineShape">
         <g id="id15">
          <rect class="BoundingBox" stroke="none" fill="none" x="774" y="20360" width="41" height="707"/>
          <path fill="none" stroke="rgb(127,127,127)" stroke-width="40" stroke-linejoin="round" d="M 794,20380 L 794,21046"/>
         </g>
        </g>
        <g class="com.sun.star.drawing.LineShape">
         <g id="id16">
          <rect class="BoundingBox" stroke="none" fill="none" x="582" y="20249" width="41" height="707"/>
          <path fill="none" stroke="rgb(127,127,127)" stroke-width="40" stroke-linejoin="round" d="M 602,20269 L 602,20935"/>
         </g>
        </g>
        <g class="com.sun.star.drawing.LineShape">
         <g id="id17">
          <rect class="BoundingBox" stroke="none" fill="none" x="390" y="20138" width="41" height="707"/>
          <path fill="none" stroke="rgb(127,127,127)" stroke-width="40" stroke-linejoin="round" d="M 410,20158 L 410,20824"/>
         </g>
        </g>
        <g class="com.sun.star.drawing.PolyPolygonShape">
         <g id="id18">
          <rect class="BoundingBox" stroke="none" fill="none" x="6" y="19694" width="233" height="1262"/>
          <g>
           <defs>
            <linearGradient id="gradient3" x1="26" y1="20324" x2="219" y2="20324" gradientUnits="userSpaceOnUse">
             <stop offset="0.1" style="stop-color:rgb(179,179,179)"/>
             <stop offset="1" style="stop-color:rgb(229,229,229)"/>
            </linearGradient>
           </defs>
           <path style="fill:url(#gradient3)" d="M 26,20824 L 26,19714 218,19825 218,20935 26,20824 Z"/>
          </g>
          <path fill="none" stroke="rgb(255,255,255)" stroke-width="40" stroke-linejoin="round" d="M 26,20824 L 26,19714 218,19825 218,20935 26,20824 Z"/>
         </g>
        </g>
        <g class="com.sun.star.drawing.PolyPolygonShape">
         <g id="id19">
          <rect class="BoundingBox" stroke="none" fill="none" x="3557" y="21747" width="233" height="1263"/>
          <g>
           <defs>
            <linearGradient id="gradient4" x1="3577" y1="22377" x2="3770" y2="22377" gradientUnits="userSpaceOnUse">
             <stop offset="0.1" style="stop-color:rgb(179,179,179)"/>
             <stop offset="1" style="stop-color:rgb(229,229,229)"/>
            </linearGradient>
           </defs>
           <path style="fill:url(#gradient4)" d="M 3577,22877 L 3577,21767 3769,21878 3769,22988 3577,22877 Z"/>
          </g>
          <path fill="none" stroke="rgb(255,255,255)" stroke-width="40" stroke-linejoin="round" d="M 3577,22877 L 3577,21767 3769,21878 3769,22988 3577,22877 Z"/>
         </g>
        </g>
        <g class="com.sun.star.drawing.PolyPolygonShape">
         <g id="id20">
          <rect class="BoundingBox" stroke="none" fill="none" x="6" y="18141" width="6472" height="4868"/>
          <path fill="none" stroke="rgb(0,0,0)" stroke-width="40" stroke-linejoin="round" d="M 26,20824 L 26,19714 218,19825 3097,18161 6457,20103 6457,21212 3769,22766 3769,22988 26,20824 Z"/>
         </g>
        </g>
       </g>
      </g>
      <g class="Group">
       <g class="com.sun.star.drawing.PolyPolygonShape">
        <g id="id21">
         <rect class="BoundingBox" stroke="none" fill="none" x="5245" y="22159" width="552" height="781"/>
         <path fill="rgb(252,222,187)" stroke="none" d="M 5776,22179 L 5265,22253 5776,22918 5776,22179 Z"/>
         <path fill="none" stroke="rgb(255,255,255)" stroke-width="40" stroke-linejoin="round" d="M 5776,22179 L 5265,22253 5776,22918 5776,22179 Z"/>
        </g>
       </g>
       <g class="com.sun.star.drawing.PolyPolygonShape">
        <g id="id22">
         <rect class="BoundingBox" stroke="none" fill="none" x="4734" y="21568" width="552" height="781"/>
         <path fill="rgb(252,222,187)" stroke="none" d="M 4754,21588 L 5265,22253 4754,22327 4754,21588 Z"/>
         <path fill="none" stroke="rgb(255,255,255)" stroke-width="40" stroke-linejoin="round" d="M 4754,21588 L 5265,22253 4754,22327 4754,21588 Z"/>
        </g>
       </g>
       <g class="com.sun.star.drawing.PolyPolygonShape">
        <g id="id23">
         <rect class="BoundingBox" stroke="none" fill="none" x="4734" y="22159" width="1064" height="781"/>
         <path fill="rgb(252,222,187)" stroke="none" d="M 5777,22918 L 5265,22179 4754,22327 5777,22918 Z"/>
         <path fill="none" stroke="rgb(251,201,142)" stroke-width="40" stroke-linejoin="round" d="M 5777,22918 L 5265,22179 4754,22327 5777,22918 Z"/>
        </g>
       </g>
       <g class="com.sun.star.drawing.PolyPolygonShape">
        <g id="id24">
         <rect class="BoundingBox" stroke="none" fill="none" x="4734" y="21568" width="1064" height="781"/>
         <path fill="rgb(252,222,187)" stroke="none" d="M 5777,22179 L 5265,22327 4754,21588 5777,22179 Z"/>
         <path fill="none" stroke="rgb(251,201,142)" stroke-width="40" stroke-linejoin="round" d="M 5777,22179 L 5265,22327 4754,21588 5777,22179 Z"/>
        </g>
       </g>
       <g class="com.sun.star.drawing.PolyPolygonShape">
        <g id="id25">
         <rect class="BoundingBox" stroke="none" fill="none" x="4734" y="21568" width="1064" height="1371"/>
         <path fill="none" stroke="rgb(0,0,0)" stroke-width="40" stroke-linejoin="round" d="M 4754,22327 L 4754,21588 5777,22179 5777,22918 4754,22327 Z"/>
        </g>
       </g>
      </g>
     </g>
    </g>
   </g>
  </g>
 </g>
</svg>