<?xml version="1.0" encoding="UTF-8"?>
<!DOCTYPE svg PUBLIC "-//W3C//DTD SVG 1.1//EN" "http://www.w3.org/Graphics/SVG/1.1/DTD/svg11.dtd">
<svg version="1.2" width="39.84mm" height="48.7mm" viewBox="2420 12430 3984 4870" preserveAspectRatio="xMidYMid" fill-rule="evenodd" stroke-width="28.222" stroke-linejoin="round" xmlns="http://www.w3.org/2000/svg" xmlns:ooo="http://xml.openoffice.org/svg/export" xmlns:xlink="http://www.w3.org/1999/xlink" xmlns:presentation="http://sun.com/xmlns/staroffice/presentation" xmlns:smil="http://www.w3.org/2001/SMIL20/" xmlns:anim="urn:oasis:names:tc:opendocument:xmlns:animation:1.0" xml:space="preserve">
 <defs class="ClipPathGroup">
  <clipPath id="presentation_clip_path" clipPathUnits="userSpaceOnUse">
   <rect x="2420" y="12430" width="3984" height="4870"/>
  </clipPath>
 </defs>
 <defs class="TextShapeIndex">
  <g ooo:slide="id1" ooo:id-list="id3 id4 id5 id6 id7 id8 id9 id10 id11 id12 id13 id14 id15 id16 id17 id18 id19 id20 id21 id22 id23 id24 id25 id26 id27 id28 id29 id30 id31 id32 id33 id34 id35 id36 id37 id38 id39 id40 id41"/>
 </defs>
 <defs class="EmbeddedBulletChars">
  <g id="bullet-char-template(57356)" transform="scale(0.00048828125,-0.00048828125)">
   <path d="M 580,1141 L 1163,571 580,0 -4,571 580,1141 Z"/>
  </g>
  <g id="bullet-char-template(57354)" transform="scale(0.00048828125,-0.00048828125)">
   <path d="M 8,1128 L 1137,1128 1137,0 8,0 8,1128 Z"/>
  </g>
  <g id="bullet-char-template(10146)" transform="scale(0.00048828125,-0.00048828125)">
   <path d="M 174,0 L 602,739 174,1481 1456,739 174,0 Z M 1358,739 L 309,1346 659,739 1358,739 Z"/>
  </g>
  <g id="bullet-char-template(10132)" transform="scale(0.00048828125,-0.00048828125)">
   <path d="M 2015,739 L 1276,0 717,0 1260,543 174,543 174,936 1260,936 717,1481 1274,1481 2015,739 Z"/>
  </g>
  <g id="bullet-char-template(10007)" transform="scale(0.00048828125,-0.00048828125)">
   <path d="M 0,-2 C -7,14 -16,27 -25,37 L 356,567 C 262,823 215,952 215,954 215,979 228,992 255,992 264,992 276,990 289,987 310,991 331,999 354,1012 L 381,999 492,748 772,1049 836,1024 860,1049 C 881,1039 901,1025 922,1006 886,937 835,863 770,784 769,783 710,716 594,584 L 774,223 C 774,196 753,168 711,139 L 727,119 C 717,90 699,76 672,76 641,76 570,178 457,381 L 164,-76 C 142,-110 111,-127 72,-127 30,-127 9,-110 8,-76 1,-67 -2,-52 -2,-32 -2,-23 -1,-13 0,-2 Z"/>
  </g>
  <g id="bullet-char-template(10004)" transform="scale(0.00048828125,-0.00048828125)">
   <path d="M 285,-33 C 182,-33 111,30 74,156 52,228 41,333 41,471 41,549 55,616 82,672 116,743 169,778 240,778 293,778 328,747 346,684 L 369,508 C 377,444 397,411 428,410 L 1163,1116 C 1174,1127 1196,1133 1229,1133 1271,1133 1292,1118 1292,1087 L 1292,965 C 1292,929 1282,901 1262,881 L 442,47 C 390,-6 338,-33 285,-33 Z"/>
  </g>
  <g id="bullet-char-template(9679)" transform="scale(0.00048828125,-0.00048828125)">
   <path d="M 813,0 C 632,0 489,54 383,161 276,268 223,411 223,592 223,773 276,916 383,1023 489,1130 632,1184 813,1184 992,1184 1136,1130 1245,1023 1353,916 1407,772 1407,592 1407,412 1353,268 1245,161 1136,54 992,0 813,0 Z"/>
  </g>
  <g id="bullet-char-template(8226)" transform="scale(0.00048828125,-0.00048828125)">
   <path d="M 346,457 C 273,457 209,483 155,535 101,586 74,649 74,723 74,796 101,859 155,911 209,963 273,989 346,989 419,989 480,963 531,910 582,859 608,796 608,723 608,648 583,586 532,535 482,483 420,457 346,457 Z"/>
  </g>
  <g id="bullet-char-template(8211)" transform="scale(0.00048828125,-0.00048828125)">
   <path d="M -4,459 L 1135,459 1135,606 -4,606 -4,459 Z"/>
  </g>
 </defs>
 <defs class="TextEmbeddedBitmaps"/>
 <g class="SlideGroup">
  <g>
   <g id="id1" class="Slide" clip-path="url(#presentation_clip_path)">
    <g class="Page">
     <g class="Group">
      <g class="com.sun.star.drawing.ClosedBezierShape">
       <g id="id3">
        <rect class="BoundingBox" stroke="none" fill="none" x="3894" y="15809" width="2511" height="1473"/>
        <path fill="rgb(221,221,221)" stroke="none" d="M 3895,17280 C 4605,17280 5718,16816 6198,16510 6678,16204 6198,15810 5956,15810 L 3895,17280 Z"/>
        <path fill="none" stroke="rgb(221,221,221)" d="M 3895,17280 C 4605,17280 5718,16816 6198,16510 6678,16204 6198,15810 5956,15810 L 3895,17280 Z"/>
       </g>
      </g>
      <g class="Group">
       <g class="com.sun.star.drawing.PolyPolygonShape">
        <g id="id4">
         <rect class="BoundingBox" stroke="none" fill="none" x="2420" y="13620" width="1496" height="3681"/>
         <g>
          <defs>
           <linearGradient id="gradient1" x1="2439" y1="15460" x2="3895" y2="15460" gradientUnits="userSpaceOnUse">
            <stop offset="0.1" style="stop-color:rgb(179,179,179)"/>
            <stop offset="1" style="stop-color:rgb(229,229,229)"/>
           </linearGradient>
          </defs>
          <path style="fill:url(#gradient1)" d="M 2440,16440 L 2440,13640 3895,14480 3895,17280 2440,16440 Z"/>
         </g>
         <path fill="none" stroke="rgb(255,255,255)" stroke-width="40" stroke-linejoin="round" d="M 2440,16440 L 2440,13640 3895,14480 3895,17280 2440,16440 Z"/>
        </g>
       </g>
       <g class="com.sun.star.drawing.PolyPolygonShape">
        <g id="id5">
         <rect class="BoundingBox" stroke="none" fill="none" x="3875" y="13269" width="2102" height="4032"/>
         <g>
          <defs>
           <pattern id="pattern1" x="3895" y="13290" width="2062" height="3991" patternUnits="userSpaceOnUse">
            <g transform="translate(-3895,-13290)">
             <path fill="rgb(179,179,179)" stroke="none" d="M 3894,13289 L 5957,13289 5957,17281 3894,17281 3894,13289 Z M 3502,12530 L 5523,12530 5523,16442 3502,16442 3502,12530 Z"/>
             <path fill="rgb(180,180,180)" stroke="none" d="M 3502,12530 L 5523,12530 5523,16442 3502,16442 3502,12530 Z M 3523,12570 L 5502,12570 5502,16402 3523,16402 3523,12570 Z"/>
             <path fill="rgb(181,181,181)" stroke="none" d="M 3523,12570 L 5502,12570 5502,16402 3523,16402 3523,12570 Z M 3543,12610 L 5482,12610 5482,16362 3543,16362 3543,12610 Z"/>
             <path fill="rgb(182,182,182)" stroke="none" d="M 3543,12610 L 5482,12610 5482,16362 3543,16362 3543,12610 Z M 3564,12650 L 5461,12650 5461,16322 3564,16322 3564,12650 Z"/>
             <path fill="rgb(183,183,183)" stroke="none" d="M 3564,12650 L 5461,12650 5461,16322 3564,16322 3564,12650 Z M 3585,12690 L 5440,12690 5440,16282 3585,16282 3585,12690 Z"/>
             <path fill="rgb(184,184,184)" stroke="none" d="M 3585,12690 L 5440,12690 5440,16282 3585,16282 3585,12690 Z M 3605,12730 L 5420,12730 5420,16242 3605,16242 3605,12730 Z"/>
             <path fill="rgb(185,185,185)" stroke="none" d="M 3605,12730 L 5420,12730 5420,16242 3605,16242 3605,12730 Z M 3626,12770 L 5399,12770 5399,16202 3626,16202 3626,12770 Z"/>
             <path fill="rgb(186,186,186)" stroke="none" d="M 3626,12770 L 5399,12770 5399,16202 3626,16202 3626,12770 Z M 3647,12810 L 5378,12810 5378,16162 3647,16162 3647,12810 Z"/>
             <path fill="rgb(187,187,187)" stroke="none" d="M 3647,12810 L 5378,12810 5378,16162 3647,16162 3647,12810 Z M 3667,12850 L 5358,12850 5358,16122 3667,16122 3667,12850 Z"/>
             <path fill="rgb(188,188,188)" stroke="none" d="M 3667,12850 L 5358,12850 5358,16122 3667,16122 3667,12850 Z M 3688,12890 L 5337,12890 5337,16082 3688,16082 3688,12890 Z"/>
             <path fill="rgb(189,189,189)" stroke="none" d="M 3688,12890 L 5337,12890 5337,16082 3688,16082 3688,12890 Z M 3709,12930 L 5316,12930 5316,16042 3709,16042 3709,12930 Z"/>
             <path fill="rgb(190,190,190)" stroke="none" d="M 3709,12930 L 5316,12930 5316,16042 3709,16042 3709,12930 Z M 3729,12970 L 5296,12970 5296,16002 3729,16002 3729,12970 Z"/>
             <path fill="rgb(191,191,191)" stroke="none" d="M 3729,12970 L 5296,12970 5296,16002 3729,16002 3729,12970 Z M 3750,13010 L 5275,13010 5275,15962 3750,15962 3750,13010 Z"/>
             <path fill="rgb(192,192,192)" stroke="none" d="M 3750,13010 L 5275,13010 5275,15962 3750,15962 3750,13010 Z M 3770,13050 L 5255,13050 5255,15922 3770,15922 3770,13050 Z"/>
             <path fill="rgb(193,193,193)" stroke="none" d="M 3770,13050 L 5255,13050 5255,15922 3770,15922 3770,13050 Z M 3791,13089 L 5234,13089 5234,15883 3791,15883 3791,13089 Z"/>
             <path fill="rgb(194,194,194)" stroke="none" d="M 3791,13089 L 5234,13089 5234,15883 3791,15883 3791,13089 Z M 3812,13129 L 5213,13129 5213,15843 3812,15843 3812,13129 Z"/>
             <path fill="rgb(195,195,195)" stroke="none" d="M 3812,13129 L 5213,13129 5213,15843 3812,15843 3812,13129 Z M 3832,13169 L 5193,13169 5193,15803 3832,15803 3832,13169 Z"/>
             <path fill="rgb(196,196,196)" stroke="none" d="M 3832,13169 L 5193,13169 5193,15803 3832,15803 3832,13169 Z M 3853,13209 L 5172,13209 5172,15763 3853,15763 3853,13209 Z"/>
             <path fill="rgb(197,197,197)" stroke="none" d="M 3853,13209 L 5172,13209 5172,15763 3853,15763 3853,13209 Z M 3874,13249 L 5151,13249 5151,15723 3874,15723 3874,13249 Z"/>
             <path fill="rgb(198,198,198)" stroke="none" d="M 3874,13249 L 5151,13249 5151,15723 3874,15723 3874,13249 Z M 3893,13288 L 5131,13288 5131,15683 3893,15683 3893,13288 Z"/>
             <path fill="rgb(199,199,199)" stroke="none" d="M 3893,13288 L 5131,13288 5131,15683 3893,15683 3893,13288 Z M 3914,13328 L 5110,13328 5110,15643 3914,15643 3914,13328 Z"/>
             <path fill="rgb(200,200,200)" stroke="none" d="M 3914,13328 L 5110,13328 5110,15643 3914,15643 3914,13328 Z M 3935,13368 L 5089,13368 5089,15603 3935,15603 3935,13368 Z"/>
             <path fill="rgb(201,201,201)" stroke="none" d="M 3935,13368 L 5089,13368 5089,15603 3935,15603 3935,13368 Z M 3955,13408 L 5069,13408 5069,15563 3955,15563 3955,13408 Z"/>
             <path fill="rgb(202,202,202)" stroke="none" d="M 3955,13408 L 5069,13408 5069,15563 3955,15563 3955,13408 Z M 3976,13448 L 5048,13448 5048,15523 3976,15523 3976,13448 Z"/>
             <path fill="rgb(203,203,203)" stroke="none" d="M 3976,13448 L 5048,13448 5048,15523 3976,15523 3976,13448 Z M 3996,13488 L 5027,13488 5027,15483 3996,15483 3996,13488 Z"/>
             <path fill="rgb(204,204,204)" stroke="none" d="M 3996,13488 L 5027,13488 5027,15483 3996,15483 3996,13488 Z M 4017,13528 L 5007,13528 5007,15443 4017,15443 4017,13528 Z"/>
             <path fill="rgb(205,205,205)" stroke="none" d="M 4017,13528 L 5007,13528 5007,15443 4017,15443 4017,13528 Z M 4038,13568 L 4986,13568 4986,15403 4038,15403 4038,13568 Z"/>
             <path fill="rgb(206,206,206)" stroke="none" d="M 4038,13568 L 4986,13568 4986,15403 4038,15403 4038,13568 Z M 4058,13608 L 4966,13608 4966,15363 4058,15363 4058,13608 Z"/>
             <path fill="rgb(207,207,207)" stroke="none" d="M 4058,13608 L 4966,13608 4966,15363 4058,15363 4058,13608 Z M 4079,13647 L 4945,13647 4945,15324 4079,15324 4079,13647 Z"/>
             <path fill="rgb(208,208,208)" stroke="none" d="M 4079,13647 L 4945,13647 4945,15324 4079,15324 4079,13647 Z M 4100,13687 L 4924,13687 4924,15284 4100,15284 4100,13687 Z"/>
             <path fill="rgb(209,209,209)" stroke="none" d="M 4100,13687 L 4924,13687 4924,15284 4100,15284 4100,13687 Z M 4120,13727 L 4904,13727 4904,15244 4120,15244 4120,13727 Z"/>
             <path fill="rgb(210,210,210)" stroke="none" d="M 4120,13727 L 4904,13727 4904,15244 4120,15244 4120,13727 Z M 4141,13767 L 4883,13767 4883,15204 4141,15204 4141,13767 Z"/>
             <path fill="rgb(211,211,211)" stroke="none" d="M 4141,13767 L 4883,13767 4883,15204 4141,15204 4141,13767 Z M 4162,13807 L 4862,13807 4862,15164 4162,15164 4162,13807 Z"/>
             <path fill="rgb(212,212,212)" stroke="none" d="M 4162,13807 L 4862,13807 4862,15164 4162,15164 4162,13807 Z M 4182,13847 L 4842,13847 4842,15124 4182,15124 4182,13847 Z"/>
             <path fill="rgb(213,213,213)" stroke="none" d="M 4182,13847 L 4842,13847 4842,15124 4182,15124 4182,13847 Z M 4203,13887 L 4821,13887 4821,15084 4203,15084 4203,13887 Z"/>
             <path fill="rgb(214,214,214)" stroke="none" d="M 4203,13887 L 4821,13887 4821,15084 4203,15084 4203,13887 Z M 4224,13927 L 4800,13927 4800,15044 4224,15044 4224,13927 Z"/>
             <path fill="rgb(215,215,215)" stroke="none" d="M 4224,13927 L 4800,13927 4800,15044 4224,15044 4224,13927 Z M 4244,13967 L 4780,13967 4780,15004 4244,15004 4244,13967 Z"/>
             <path fill="rgb(216,216,216)" stroke="none" d="M 4244,13967 L 4780,13967 4780,15004 4244,15004 4244,13967 Z M 4265,14007 L 4759,14007 4759,14964 4265,14964 4265,14007 Z"/>
             <path fill="rgb(217,217,217)" stroke="none" d="M 4265,14007 L 4759,14007 4759,14964 4265,14964 4265,14007 Z M 4285,14047 L 4739,14047 4739,14924 4285,14924 4285,14047 Z"/>
             <path fill="rgb(218,218,218)" stroke="none" d="M 4285,14047 L 4739,14047 4739,14924 4285,14924 4285,14047 Z M 4306,14087 L 4718,14087 4718,14884 4306,14884 4306,14087 Z"/>
             <path fill="rgb(219,219,219)" stroke="none" d="M 4306,14087 L 4718,14087 4718,14884 4306,14884 4306,14087 Z M 4327,14127 L 4697,14127 4697,14844 4327,14844 4327,14127 Z"/>
             <path fill="rgb(220,220,220)" stroke="none" d="M 4327,14127 L 4697,14127 4697,14844 4327,14844 4327,14127 Z M 4347,14167 L 4677,14167 4677,14804 4347,14804 4347,14167 Z"/>
             <path fill="rgb(221,221,221)" stroke="none" d="M 4347,14167 L 4677,14167 4677,14804 4347,14804 4347,14167 Z M 4368,14206 L 4656,14206 4656,14765 4368,14765 4368,14206 Z"/>
             <path fill="rgb(222,222,222)" stroke="none" d="M 4368,14206 L 4656,14206 4656,14765 4368,14765 4368,14206 Z M 4389,14246 L 4635,14246 4635,14725 4389,14725 4389,14246 Z"/>
             <path fill="rgb(223,223,223)" stroke="none" d="M 4389,14246 L 4635,14246 4635,14725 4389,14725 4389,14246 Z M 4409,14286 L 4615,14286 4615,14685 4409,14685 4409,14286 Z"/>
             <path fill="rgb(224,224,224)" stroke="none" d="M 4409,14286 L 4615,14286 4615,14685 4409,14685 4409,14286 Z M 4430,14326 L 4594,14326 4594,14645 4430,14645 4430,14326 Z"/>
             <path fill="rgb(225,225,225)" stroke="none" d="M 4430,14326 L 4594,14326 4594,14645 4430,14645 4430,14326 Z M 4451,14366 L 4573,14366 4573,14605 4451,14605 4451,14366 Z"/>
             <path fill="rgb(226,226,226)" stroke="none" d="M 4451,14366 L 4573,14366 4573,14605 4451,14605 4451,14366 Z M 4471,14406 L 4553,14406 4553,14565 4471,14565 4471,14406 Z"/>
             <path fill="rgb(227,227,227)" stroke="none" d="M 4471,14406 L 4553,14406 4553,14565 4471,14565 4471,14406 Z M 4492,14446 L 4532,14446 4532,14525 4492,14525 4492,14446 Z"/>
             <path fill="rgb(229,229,229)" stroke="none" d="M 4492,14446 L 4532,14446 4532,14525 4492,14525 4492,14446 Z"/>
            </g>
           </pattern>
          </defs>
          <path style="fill:url(#pattern1)" d="M 3895,17280 L 3895,14480 5956,13290 5956,16090 3895,17280 Z"/>
         </g>
         <path fill="none" stroke="rgb(255,255,255)" stroke-width="40" stroke-linejoin="round" d="M 3895,17280 L 3895,14480 5956,13290 5956,16090 3895,17280 Z"/>
        </g>
       </g>
       <g class="com.sun.star.drawing.PolyPolygonShape">
        <g id="id6">
         <rect class="BoundingBox" stroke="none" fill="none" x="2419" y="12429" width="3558" height="2072"/>
         <g>
          <defs>
           <linearGradient id="gradient2" x1="4198" y1="14480" x2="4198" y2="12450" gradientUnits="userSpaceOnUse">
            <stop offset="0.1" style="stop-color:rgb(179,179,179)"/>
            <stop offset="1" style="stop-color:rgb(229,229,229)"/>
           </linearGradient>
          </defs>
          <path style="fill:url(#gradient2)" d="M 3895,14480 L 2440,13640 4501,12450 5956,13290 3895,14480 Z"/>
         </g>
         <path fill="none" stroke="rgb(255,255,255)" stroke-width="40" stroke-linejoin="round" d="M 3895,14480 L 2440,13640 4501,12450 5956,13290 3895,14480 Z"/>
        </g>
       </g>
       <g class="com.sun.star.drawing.PolyPolygonShape">
        <g id="id7">
         <rect class="BoundingBox" stroke="none" fill="none" x="2419" y="12430" width="3558" height="4871"/>
         <path fill="none" stroke="rgb(0,0,0)" stroke-width="40" stroke-linejoin="round" d="M 2440,16440 L 2440,13640 4501,12450 5956,13290 5956,16090 3895,17280 2440,16440 Z"/>
        </g>
       </g>
       <g class="com.sun.star.drawing.LineShape">
        <g id="id8">
         <rect class="BoundingBox" stroke="none" fill="none" x="2662" y="16000" width="1011" height="601"/>
         <path fill="none" stroke="rgb(128,128,128)" stroke-width="40" stroke-linejoin="round" d="M 3652,16580 L 2682,16020"/>
        </g>
       </g>
       <g class="com.sun.star.drawing.LineShape">
        <g id="id9">
         <rect class="BoundingBox" stroke="none" fill="none" x="2662" y="16280" width="1011" height="601"/>
         <path fill="none" stroke="rgb(128,128,128)" stroke-width="40" stroke-linejoin="round" d="M 3652,16860 L 2682,16300"/>
        </g>
       </g>
       <g class="com.sun.star.drawing.LineShape">
        <g id="id10">
         <rect class="BoundingBox" stroke="none" fill="none" x="2662" y="16140" width="1011" height="601"/>
         <path fill="none" stroke="rgb(128,128,128)" stroke-width="40" stroke-linejoin="round" d="M 3652,16720 L 2682,16160"/>
        </g>
       </g>
       <g class="com.sun.star.drawing.PolyLineShape">
        <g id="id11">
         <rect class="BoundingBox" stroke="none" fill="none" x="2541" y="14040" width="1253" height="882"/>
         <path fill="none" stroke="rgb(255,255,255)" stroke-width="40" stroke-linejoin="round" d="M 3773,14900 L 2561,14200 2561,14060"/>
        </g>
       </g>
       <g class="com.sun.star.drawing.PolyLineShape">
        <g id="id12">
         <rect class="BoundingBox" stroke="none" fill="none" x="2562" y="14037" width="1232" height="884"/>
         <path fill="none" stroke="rgb(128,128,128)" stroke-width="40" stroke-linejoin="round" d="M 3773,14900 L 3773,14760 2582,14057"/>
        </g>
       </g>
       <g class="com.sun.star.drawing.PolyPolygonShape">
        <g id="id13">
         <rect class="BoundingBox" stroke="none" fill="none" x="2990" y="15437" width="183" height="288"/>
         <path fill="rgb(57,181,74)" stroke="none" d="M 3010,15622 L 3010,15457 3152,15539 3152,15704 3010,15622 Z"/>
         <path fill="none" stroke="rgb(128,128,128)" stroke-width="40" stroke-linejoin="round" d="M 3010,15622 L 3010,15457 3152,15539 3152,15704 3010,15622 Z"/>
        </g>
       </g>
       <g class="com.sun.star.drawing.LineShape">
        <g id="id14">
         <rect class="BoundingBox" stroke="none" fill="none" x="2662" y="15860" width="1011" height="601"/>
         <path fill="none" stroke="rgb(128,128,128)" stroke-width="40" stroke-linejoin="round" d="M 3652,16440 L 2682,15880"/>
        </g>
       </g>
      </g>
      <g class="Group">
       <g class="com.sun.star.drawing.PolyPolygonShape">
        <g id="id15">
         <rect class="BoundingBox" stroke="none" fill="none" x="5364" y="14879" width="927" height="1193"/>
         <path fill="rgb(252,222,187)" stroke="none" d="M 5384,15540 L 5384,14900 5992,15252 6048,15156 6269,15284 6269,16051 5384,15540 Z"/>
         <path fill="none" stroke="rgb(251,201,142)" stroke-width="40" stroke-linejoin="round" d="M 5384,15540 L 5384,14900 5992,15252 6048,15156 6269,15284 6269,16051 5384,15540 Z"/>
        </g>
       </g>
       <g class="com.sun.star.drawing.PolyPolygonShape">
        <g id="id16">
         <rect class="BoundingBox" stroke="none" fill="none" x="5253" y="14944" width="1037" height="1128"/>
         <path fill="rgb(254,244,232)" stroke="none" d="M 5384,15540 L 5273,14964 6158,15476 6269,16051 5384,15540 Z"/>
         <path fill="none" stroke="rgb(251,201,142)" stroke-width="40" stroke-linejoin="round" d="M 5384,15540 L 5273,14964 6158,15476 6269,16051 5384,15540 Z"/>
        </g>
       </g>
       <g class="com.sun.star.drawing.PolyPolygonShape">
        <g id="id17">
         <rect class="BoundingBox" stroke="none" fill="none" x="5142" y="15040" width="1148" height="1032"/>
         <path fill="rgb(254,244,232)" stroke="none" d="M 5384,15540 L 5162,15060 6047,15572 6269,16051 5384,15540 Z"/>
         <path fill="none" stroke="rgb(251,201,142)" stroke-width="40" stroke-linejoin="round" d="M 5384,15540 L 5162,15060 6047,15572 6269,16051 5384,15540 Z"/>
        </g>
       </g>
       <g class="com.sun.star.drawing.PolyPolygonShape">
        <g id="id18">
         <rect class="BoundingBox" stroke="none" fill="none" x="5087" y="15167" width="1204" height="905"/>
         <path fill="rgb(252,222,187)" stroke="none" d="M 5384,15540 L 5107,15188 5937,15636 6269,16051 5384,15540 Z"/>
         <path fill="none" stroke="rgb(251,201,142)" stroke-width="40" stroke-linejoin="round" d="M 5384,15540 L 5107,15188 5937,15636 6269,16051 5384,15540 Z"/>
        </g>
       </g>
       <g class="com.sun.star.drawing.PolyPolygonShape">
        <g id="id19">
         <rect class="BoundingBox" stroke="none" fill="none" x="5087" y="14879" width="1204" height="1193"/>
         <path fill="none" stroke="rgb(0,0,0)" stroke-width="40" stroke-linejoin="round" d="M 5384,15028 L 5384,14900 5992,15252 6047,15156 6269,15284 6269,16051 5384,15540 5107,15188 5261,15268 5162,15060 5305,15144 5273,14964 5384,15028 Z"/>
        </g>
       </g>
      </g>
      <g class="Group">
       <g class="com.sun.star.drawing.PolyPolygonShape">
        <g id="id20">
         <rect class="BoundingBox" stroke="none" fill="none" x="5718" y="16342" width="553" height="781"/>
         <path fill="rgb(252,222,187)" stroke="none" d="M 6250,16362 L 5739,16436 6250,17101 6250,16362 Z"/>
         <path fill="none" stroke="rgb(255,255,255)" stroke-width="40" stroke-linejoin="round" d="M 6250,16362 L 5739,16436 6250,17101 6250,16362 Z"/>
        </g>
       </g>
       <g class="com.sun.star.drawing.PolyPolygonShape">
        <g id="id21">
         <rect class="BoundingBox" stroke="none" fill="none" x="5207" y="15751" width="553" height="781"/>
         <path fill="rgb(252,222,187)" stroke="none" d="M 5228,15771 L 5739,16436 5228,16510 5228,15771 Z"/>
         <path fill="none" stroke="rgb(255,255,255)" stroke-width="40" stroke-linejoin="round" d="M 5228,15771 L 5739,16436 5228,16510 5228,15771 Z"/>
        </g>
       </g>
       <g class="com.sun.star.drawing.PolyPolygonShape">
        <g id="id22">
         <rect class="BoundingBox" stroke="none" fill="none" x="5208" y="16342" width="1064" height="781"/>
         <path fill="rgb(252,222,187)" stroke="none" d="M 6251,17101 L 5739,16362 5228,16510 6251,17101 Z"/>
         <path fill="none" stroke="rgb(251,201,142)" stroke-width="40" stroke-linejoin="round" d="M 6251,17101 L 5739,16362 5228,16510 6251,17101 Z"/>
        </g>
       </g>
       <g class="com.sun.star.drawing.PolyPolygonShape">
        <g id="id23">
         <rect class="BoundingBox" stroke="none" fill="none" x="5208" y="15751" width="1064" height="781"/>
         <path fill="rgb(252,222,187)" stroke="none" d="M 6251,16362 L 5739,16510 5228,15771 6251,16362 Z"/>
         <path fill="none" stroke="rgb(251,201,142)" stroke-width="40" stroke-linejoin="round" d="M 6251,16362 L 5739,16510 5228,15771 6251,16362 Z"/>
        </g>
       </g>
       <g class="com.sun.star.drawing.PolyPolygonShape">
        <g id="id24">
         <rect class="BoundingBox" stroke="none" fill="none" x="5208" y="15751" width="1064" height="1371"/>
         <path fill="none" stroke="rgb(0,0,0)" stroke-width="40" stroke-linejoin="round" d="M 5228,16510 L 5228,15771 6251,16362 6251,17101 5228,16510 Z"/>
        </g>
       </g>
      </g>
      <g class="Group">
       <g class="com.sun.star.drawing.CustomShape">
        <g id="id25">
         <rect class="BoundingBox" stroke="none" fill="none" x="4398" y="15841" width="974" height="1422"/>
         <g>
          <defs>
           <linearGradient id="gradient3" x1="4417" y1="16551" x2="5352" y2="16551" gradientUnits="userSpaceOnUse">
            <stop offset="0" style="stop-color:rgb(195,232,200)"/>
            <stop offset="0.5" style="stop-color:rgb(235,247,236)"/>
            <stop offset="1" style="stop-color:rgb(195,232,200)"/>
           </linearGradient>
          </defs>
          <path style="fill:url(#gradient3)" d="M 4418,16078 L 4419,16068 4421,16058 4424,16047 4428,16037 4434,16027 4441,16017 4458,15998 4479,15979 4504,15961 4532,15944 4564,15929 4598,15914 4634,15901 4673,15889 4713,15880 4754,15872 4797,15866 4840,15862 4884,15861 4928,15862 4971,15866 5014,15872 5055,15880 5096,15889 5134,15901 5171,15914 5205,15929 5236,15944 5265,15961 5290,15979 5311,15998 5328,16017 5335,16027 5340,16037 5345,16047 5348,16058 5350,16068 5351,16078 5351,17024 5350,17034 5348,17044 5345,17055 5340,17065 5335,17075 5328,17085 5311,17104 5290,17123 5265,17141 5236,17158 5205,17174 5171,17189 5134,17202 5096,17213 5055,17223 5014,17231 4971,17237 4928,17241 4884,17242 4840,17241 4797,17237 4754,17231 4713,17223 4673,17213 4634,17202 4598,17189 4564,17174 4532,17158 4504,17141 4479,17123 4458,17104 4441,17085 4434,17075 4428,17065 4424,17055 4421,17044 4419,17034 4418,17024 4418,16078 Z"/>
         </g>
         <path fill="none" stroke="rgb(0,0,0)" stroke-width="40" stroke-linejoin="round" d="M 4418,16078 C 4418,15969 4651,15861 4884,15861 5117,15861 5351,15969 5351,16078 L 5351,17024 C 5351,17133 5117,17242 4884,17242 4651,17242 4418,17133 4418,17024 L 4418,16078 Z"/>
         <g>
          <defs>
           <linearGradient id="gradient4" x1="4418" y1="16186" x2="5351" y2="16186" gradientUnits="userSpaceOnUse">
            <stop offset="0" style="stop-color:rgb(195,232,200)"/>
            <stop offset="0.5" style="stop-color:rgb(235,247,236)"/>
            <stop offset="1" style="stop-color:rgb(195,232,200)"/>
           </linearGradient>
          </defs>
          <path style="fill:url(#gradient4)" d="M 4418,16078 L 4419,16088 4421,16098 4424,16108 4428,16118 4434,16128 4441,16138 4458,16157 4479,16176 4504,16194 4532,16211 4564,16227 4598,16242 4634,16255 4673,16266 4713,16276 4754,16284 4797,16290 4840,16294 4884,16295 4928,16294 4971,16290 5014,16284 5055,16276 5096,16266 5134,16255 5171,16242 5205,16227 5236,16211 5265,16194 5290,16176 5311,16157 5328,16138 5335,16128 5340,16118 5345,16108 5348,16098 5350,16088 5351,16078 4418,16078 Z"/>
         </g>
         <path fill="none" stroke="rgb(0,0,0)" stroke-width="40" stroke-linejoin="round" d="M 4418,16078 C 4418,16186 4651,16295 4884,16295 5117,16295 5351,16186 5351,16078"/>
         <path fill="none" stroke="rgb(0,0,0)" stroke-width="40" stroke-linejoin="round" d="M 4418,15861 L 4418,15861 Z"/>
         <path fill="none" stroke="rgb(0,0,0)" stroke-width="40" stroke-linejoin="round" d="M 5351,17242 L 5351,17242 Z"/>
        </g>
       </g>
       <g class="com.sun.star.drawing.CustomShape">
        <g id="id26">
         <rect class="BoundingBox" stroke="none" fill="none" x="4398" y="15840" width="974" height="479"/>
         <g>
          <defs>
           <linearGradient id="gradient5" x1="4884" y1="15860" x2="4884" y2="16297" gradientUnits="userSpaceOnUse">
            <stop offset="0.1" style="stop-color:rgb(195,232,200)"/>
            <stop offset="1" style="stop-color:rgb(235,247,236)"/>
           </linearGradient>
          </defs>
          <path style="fill:url(#gradient5)" d="M 4884,15860 L 4980,15864 5068,15877 5109,15886 5147,15896 5183,15909 5216,15923 5246,15938 5272,15955 5295,15972 5314,15992 5330,16012 5336,16022 5341,16033 5345,16044 5348,16055 5349,16066 5350,16078 5349,16090 5348,16101 5345,16112 5341,16123 5336,16134 5330,16144 5314,16165 5295,16184 5272,16202 5246,16219 5216,16234 5183,16248 5147,16260 5109,16271 5068,16280 4980,16293 4884,16297 4788,16293 4700,16280 4659,16271 4621,16260 4585,16248 4552,16234 4522,16219 4496,16202 4473,16184 4454,16165 4438,16144 4432,16134 4427,16123 4423,16112 4420,16101 4419,16090 4418,16078 4419,16066 4420,16055 4423,16044 4427,16033 4432,16022 4438,16012 4454,15992 4473,15972 4496,15955 4522,15938 4552,15923 4585,15909 4621,15896 4659,15886 4700,15877 4788,15864 4884,15860 Z"/>
         </g>
         <path fill="none" stroke="rgb(0,0,0)" stroke-width="40" stroke-linejoin="round" d="M 4884,15860 C 5148,15860 5350,15954 5350,16078 5350,16202 5148,16297 4884,16297 4620,16297 4418,16202 4418,16078 4418,15954 4620,15860 4884,15860 Z"/>
        </g>
       </g>
      </g>
      <g class="Group">
       <g class="com.sun.star.drawing.CustomShape">
        <g id="id27">
         <rect class="BoundingBox" stroke="none" fill="none" x="4359" y="15085" width="1063" height="1057"/>
         <g>
          <defs>
           <pattern id="pattern2" x="4379" y="15105" width="1022" height="1016" patternUnits="userSpaceOnUse">
            <g transform="translate(-4379,-15105)">
             <path fill="rgb(0,115,188)" stroke="none" d="M 4378,15104 L 5401,15104 5401,16121 4378,16121 4378,15104 Z M 4178,14905 L 5191,14905 5191,15912 4178,15912 4178,14905 Z"/>
             <path fill="rgb(1,115,188)" stroke="none" d="M 4178,14905 L 5191,14905 5191,15912 4178,15912 4178,14905 Z M 4182,14909 L 5187,14909 5187,15908 4182,15908 4182,14909 Z"/>
             <path fill="rgb(2,116,188)" stroke="none" d="M 4182,14909 L 5187,14909 5187,15908 4182,15908 4182,14909 Z M 4186,14913 L 5183,14913 5183,15904 4186,15904 4186,14913 Z"/>
             <path fill="rgb(3,116,188)" stroke="none" d="M 4186,14913 L 5183,14913 5183,15904 4186,15904 4186,14913 Z M 4190,14917 L 5179,14917 5179,15900 4190,15900 4190,14917 Z"/>
             <path fill="rgb(4,117,189)" stroke="none" d="M 4190,14917 L 5179,14917 5179,15900 4190,15900 4190,14917 Z M 4194,14921 L 5175,14921 5175,15896 4194,15896 4194,14921 Z"/>
             <path fill="rgb(5,117,189)" stroke="none" d="M 4194,14921 L 5175,14921 5175,15896 4194,15896 4194,14921 Z M 4198,14925 L 5171,14925 5171,15892 4198,15892 4198,14925 Z"/>
             <path fill="rgb(6,118,189)" stroke="none" d="M 4198,14925 L 5171,14925 5171,15892 4198,15892 4198,14925 Z M 4202,14929 L 5167,14929 5167,15888 4202,15888 4202,14929 Z"/>
             <path fill="rgb(7,118,189)" stroke="none" d="M 4202,14929 L 5167,14929 5167,15888 4202,15888 4202,14929 Z M 4206,14933 L 5163,14933 5163,15884 4206,15884 4206,14933 Z"/>
             <path fill="rgb(8,119,190)" stroke="none" d="M 4206,14933 L 5163,14933 5163,15884 4206,15884 4206,14933 Z M 4210,14937 L 5159,14937 5159,15880 4210,15880 4210,14937 Z"/>
             <path fill="rgb(9,119,190)" stroke="none" d="M 4210,14937 L 5159,14937 5159,15880 4210,15880 4210,14937 Z M 4214,14941 L 5155,14941 5155,15876 4214,15876 4214,14941 Z"/>
             <path fill="rgb(10,120,190)" stroke="none" d="M 4214,14941 L 5155,14941 5155,15876 4214,15876 4214,14941 Z M 4218,14945 L 5151,14945 5151,15872 4218,15872 4218,14945 Z"/>
             <path fill="rgb(11,121,190)" stroke="none" d="M 4218,14945 L 5151,14945 5151,15872 4218,15872 4218,14945 Z M 4222,14949 L 5147,14949 5147,15868 4222,15868 4222,14949 Z"/>
             <path fill="rgb(12,121,191)" stroke="none" d="M 4222,14949 L 5147,14949 5147,15868 4222,15868 4222,14949 Z M 4226,14953 L 5143,14953 5143,15864 4226,15864 4226,14953 Z"/>
             <path fill="rgb(13,122,191)" stroke="none" d="M 4226,14953 L 5143,14953 5143,15864 4226,15864 4226,14953 Z M 4230,14957 L 5139,14957 5139,15860 4230,15860 4230,14957 Z"/>
             <path fill="rgb(14,122,191)" stroke="none" d="M 4230,14957 L 5139,14957 5139,15860 4230,15860 4230,14957 Z M 4234,14961 L 5135,14961 5135,15856 4234,15856 4234,14961 Z"/>
             <path fill="rgb(15,123,191)" stroke="none" d="M 4234,14961 L 5135,14961 5135,15856 4234,15856 4234,14961 Z M 4238,14965 L 5131,14965 5131,15852 4238,15852 4238,14965 Z"/>
             <path fill="rgb(16,123,192)" stroke="none" d="M 4238,14965 L 5131,14965 5131,15852 4238,15852 4238,14965 Z M 4242,14969 L 5127,14969 5127,15848 4242,15848 4242,14969 Z"/>
             <path fill="rgb(17,124,192)" stroke="none" d="M 4242,14969 L 5127,14969 5127,15848 4242,15848 4242,14969 Z M 4246,14973 L 5123,14973 5123,15844 4246,15844 4246,14973 Z"/>
             <path fill="rgb(18,124,192)" stroke="none" d="M 4246,14973 L 5123,14973 5123,15844 4246,15844 4246,14973 Z M 4250,14977 L 5119,14977 5119,15840 4250,15840 4250,14977 Z"/>
             <path fill="rgb(19,125,192)" stroke="none" d="M 4250,14977 L 5119,14977 5119,15840 4250,15840 4250,14977 Z M 4254,14981 L 5115,14981 5115,15836 4254,15836 4254,14981 Z"/>
             <path fill="rgb(20,126,193)" stroke="none" d="M 4254,14981 L 5115,14981 5115,15836 4254,15836 4254,14981 Z M 4258,14985 L 5111,14985 5111,15832 4258,15832 4258,14985 Z"/>
             <path fill="rgb(21,126,193)" stroke="none" d="M 4258,14985 L 5111,14985 5111,15832 4258,15832 4258,14985 Z M 4262,14989 L 5107,14989 5107,15828 4262,15828 4262,14989 Z"/>
             <path fill="rgb(22,127,193)" stroke="none" d="M 4262,14989 L 5107,14989 5107,15828 4262,15828 4262,14989 Z M 4266,14993 L 5103,14993 5103,15824 4266,15824 4266,14993 Z"/>
             <path fill="rgb(23,127,193)" stroke="none" d="M 4266,14993 L 5103,14993 5103,15824 4266,15824 4266,14993 Z M 4270,14997 L 5099,14997 5099,15820 4270,15820 4270,14997 Z"/>
             <path fill="rgb(24,128,194)" stroke="none" d="M 4270,14997 L 5099,14997 5099,15820 4270,15820 4270,14997 Z M 4274,15001 L 5095,15001 5095,15816 4274,15816 4274,15001 Z"/>
             <path fill="rgb(25,128,194)" stroke="none" d="M 4274,15001 L 5095,15001 5095,15816 4274,15816 4274,15001 Z M 4278,15005 L 5091,15005 5091,15812 4278,15812 4278,15005 Z"/>
             <path fill="rgb(26,129,194)" stroke="none" d="M 4278,15005 L 5091,15005 5091,15812 4278,15812 4278,15005 Z M 4282,15009 L 5087,15009 5087,15808 4282,15808 4282,15009 Z"/>
             <path fill="rgb(27,129,195)" stroke="none" d="M 4282,15009 L 5087,15009 5087,15808 4282,15808 4282,15009 Z M 4286,15013 L 5083,15013 5083,15804 4286,15804 4286,15013 Z"/>
             <path fill="rgb(28,130,195)" stroke="none" d="M 4286,15013 L 5083,15013 5083,15804 4286,15804 4286,15013 Z M 4290,15017 L 5079,15017 5079,15800 4290,15800 4290,15017 Z"/>
             <path fill="rgb(29,130,195)" stroke="none" d="M 4290,15017 L 5079,15017 5079,15800 4290,15800 4290,15017 Z M 4294,15021 L 5075,15021 5075,15796 4294,15796 4294,15021 Z"/>
             <path fill="rgb(30,131,195)" stroke="none" d="M 4294,15021 L 5075,15021 5075,15796 4294,15796 4294,15021 Z M 4298,15025 L 5071,15025 5071,15792 4298,15792 4298,15025 Z"/>
             <path fill="rgb(31,132,196)" stroke="none" d="M 4298,15025 L 5071,15025 5071,15792 4298,15792 4298,15025 Z M 4303,15029 L 5066,15029 5066,15788 4303,15788 4303,15029 Z"/>
             <path fill="rgb(32,132,196)" stroke="none" d="M 4303,15029 L 5066,15029 5066,15788 4303,15788 4303,15029 Z M 4307,15033 L 5062,15033 5062,15784 4307,15784 4307,15033 Z"/>
             <path fill="rgb(33,133,196)" stroke="none" d="M 4307,15033 L 5062,15033 5062,15784 4307,15784 4307,15033 Z M 4311,15037 L 5058,15037 5058,15780 4311,15780 4311,15037 Z"/>
             <path fill="rgb(34,133,196)" stroke="none" d="M 4311,15037 L 5058,15037 5058,15780 4311,15780 4311,15037 Z M 4315,15041 L 5054,15041 5054,15776 4315,15776 4315,15041 Z"/>
             <path fill="rgb(35,134,197)" stroke="none" d="M 4315,15041 L 5054,15041 5054,15776 4315,15776 4315,15041 Z M 4319,15045 L 5050,15045 5050,15772 4319,15772 4319,15045 Z"/>
             <path fill="rgb(36,134,197)" stroke="none" d="M 4319,15045 L 5050,15045 5050,15772 4319,15772 4319,15045 Z M 4323,15049 L 5046,15049 5046,15768 4323,15768 4323,15049 Z"/>
             <path fill="rgb(37,135,197)" stroke="none" d="M 4323,15049 L 5046,15049 5046,15768 4323,15768 4323,15049 Z M 4327,15053 L 5042,15053 5042,15764 4327,15764 4327,15053 Z"/>
             <path fill="rgb(38,135,197)" stroke="none" d="M 4327,15053 L 5042,15053 5042,15764 4327,15764 4327,15053 Z M 4331,15057 L 5038,15057 5038,15760 4331,15760 4331,15057 Z"/>
             <path fill="rgb(39,136,198)" stroke="none" d="M 4331,15057 L 5038,15057 5038,15760 4331,15760 4331,15057 Z M 4335,15061 L 5034,15061 5034,15756 4335,15756 4335,15061 Z"/>
             <path fill="rgb(40,137,198)" stroke="none" d="M 4335,15061 L 5034,15061 5034,15756 4335,15756 4335,15061 Z M 4339,15065 L 5030,15065 5030,15752 4339,15752 4339,15065 Z"/>
             <path fill="rgb(41,137,198)" stroke="none" d="M 4339,15065 L 5030,15065 5030,15752 4339,15752 4339,15065 Z M 4343,15069 L 5026,15069 5026,15748 4343,15748 4343,15069 Z"/>
             <path fill="rgb(42,138,198)" stroke="none" d="M 4343,15069 L 5026,15069 5026,15748 4343,15748 4343,15069 Z M 4347,15073 L 5022,15073 5022,15744 4347,15744 4347,15073 Z"/>
             <path fill="rgb(43,138,199)" stroke="none" d="M 4347,15073 L 5022,15073 5022,15744 4347,15744 4347,15073 Z M 4351,15077 L 5018,15077 5018,15740 4351,15740 4351,15077 Z"/>
             <path fill="rgb(44,139,199)" stroke="none" d="M 4351,15077 L 5018,15077 5018,15740 4351,15740 4351,15077 Z M 4355,15081 L 5014,15081 5014,15736 4355,15736 4355,15081 Z"/>
             <path fill="rgb(45,139,199)" stroke="none" d="M 4355,15081 L 5014,15081 5014,15736 4355,15736 4355,15081 Z M 4359,15085 L 5010,15085 5010,15732 4359,15732 4359,15085 Z"/>
             <path fill="rgb(46,140,199)" stroke="none" d="M 4359,15085 L 5010,15085 5010,15732 4359,15732 4359,15085 Z M 4362,15088 L 5006,15088 5006,15728 4362,15728 4362,15088 Z"/>
             <path fill="rgb(47,140,200)" stroke="none" d="M 4362,15088 L 5006,15088 5006,15728 4362,15728 4362,15088 Z M 4366,15092 L 5002,15092 5002,15724 4366,15724 4366,15092 Z"/>
             <path fill="rgb(48,141,200)" stroke="none" d="M 4366,15092 L 5002,15092 5002,15724 4366,15724 4366,15092 Z M 4370,15096 L 4998,15096 4998,15720 4370,15720 4370,15096 Z"/>
             <path fill="rgb(49,142,200)" stroke="none" d="M 4370,15096 L 4998,15096 4998,15720 4370,15720 4370,15096 Z M 4374,15100 L 4994,15100 4994,15716 4374,15716 4374,15100 Z"/>
             <path fill="rgb(50,142,200)" stroke="none" d="M 4374,15100 L 4994,15100 4994,15716 4374,15716 4374,15100 Z M 4378,15104 L 4990,15104 4990,15712 4378,15712 4378,15104 Z"/>
             <path fill="rgb(51,143,201)" stroke="none" d="M 4378,15104 L 4990,15104 4990,15712 4378,15712 4378,15104 Z M 4382,15108 L 4986,15108 4986,15708 4382,15708 4382,15108 Z"/>
             <path fill="rgb(52,143,201)" stroke="none" d="M 4382,15108 L 4986,15108 4986,15708 4382,15708 4382,15108 Z M 4386,15112 L 4982,15112 4982,15704 4386,15704 4386,15112 Z"/>
             <path fill="rgb(53,144,201)" stroke="none" d="M 4386,15112 L 4982,15112 4982,15704 4386,15704 4386,15112 Z M 4390,15116 L 4978,15116 4978,15700 4390,15700 4390,15116 Z"/>
             <path fill="rgb(54,144,202)" stroke="none" d="M 4390,15116 L 4978,15116 4978,15700 4390,15700 4390,15116 Z M 4394,15120 L 4974,15120 4974,15696 4394,15696 4394,15120 Z"/>
             <path fill="rgb(55,145,202)" stroke="none" d="M 4394,15120 L 4974,15120 4974,15696 4394,15696 4394,15120 Z M 4398,15124 L 4970,15124 4970,15692 4398,15692 4398,15124 Z"/>
             <path fill="rgb(56,145,202)" stroke="none" d="M 4398,15124 L 4970,15124 4970,15692 4398,15692 4398,15124 Z M 4402,15128 L 4966,15128 4966,15688 4402,15688 4402,15128 Z"/>
             <path fill="rgb(57,146,202)" stroke="none" d="M 4402,15128 L 4966,15128 4966,15688 4402,15688 4402,15128 Z M 4406,15132 L 4962,15132 4962,15684 4406,15684 4406,15132 Z"/>
             <path fill="rgb(58,146,203)" stroke="none" d="M 4406,15132 L 4962,15132 4962,15684 4406,15684 4406,15132 Z M 4410,15136 L 4958,15136 4958,15680 4410,15680 4410,15136 Z"/>
             <path fill="rgb(59,147,203)" stroke="none" d="M 4410,15136 L 4958,15136 4958,15680 4410,15680 4410,15136 Z M 4414,15140 L 4954,15140 4954,15676 4414,15676 4414,15140 Z"/>
             <path fill="rgb(60,148,203)" stroke="none" d="M 4414,15140 L 4954,15140 4954,15676 4414,15676 4414,15140 Z M 4418,15144 L 4950,15144 4950,15672 4418,15672 4418,15144 Z"/>
             <path fill="rgb(61,148,203)" stroke="none" d="M 4418,15144 L 4950,15144 4950,15672 4418,15672 4418,15144 Z M 4422,15148 L 4946,15148 4946,15668 4422,15668 4422,15148 Z"/>
             <path fill="rgb(62,149,204)" stroke="none" d="M 4422,15148 L 4946,15148 4946,15668 4422,15668 4422,15148 Z M 4426,15152 L 4942,15152 4942,15664 4426,15664 4426,15152 Z"/>
             <path fill="rgb(63,149,204)" stroke="none" d="M 4426,15152 L 4942,15152 4942,15664 4426,15664 4426,15152 Z M 4431,15156 L 4937,15156 4937,15660 4431,15660 4431,15156 Z"/>
             <path fill="rgb(64,150,204)" stroke="none" d="M 4431,15156 L 4937,15156 4937,15660 4431,15660 4431,15156 Z M 4435,15160 L 4933,15160 4933,15656 4435,15656 4435,15160 Z"/>
             <path fill="rgb(65,150,204)" stroke="none" d="M 4435,15160 L 4933,15160 4933,15656 4435,15656 4435,15160 Z M 4439,15164 L 4929,15164 4929,15652 4439,15652 4439,15164 Z"/>
             <path fill="rgb(66,151,205)" stroke="none" d="M 4439,15164 L 4929,15164 4929,15652 4439,15652 4439,15164 Z M 4443,15168 L 4925,15168 4925,15648 4443,15648 4443,15168 Z"/>
             <path fill="rgb(67,151,205)" stroke="none" d="M 4443,15168 L 4925,15168 4925,15648 4443,15648 4443,15168 Z M 4447,15172 L 4921,15172 4921,15644 4447,15644 4447,15172 Z"/>
             <path fill="rgb(68,152,205)" stroke="none" d="M 4447,15172 L 4921,15172 4921,15644 4447,15644 4447,15172 Z M 4451,15176 L 4917,15176 4917,15640 4451,15640 4451,15176 Z"/>
             <path fill="rgb(69,153,205)" stroke="none" d="M 4451,15176 L 4917,15176 4917,15640 4451,15640 4451,15176 Z M 4455,15180 L 4913,15180 4913,15636 4455,15636 4455,15180 Z"/>
             <path fill="rgb(70,153,206)" stroke="none" d="M 4455,15180 L 4913,15180 4913,15636 4455,15636 4455,15180 Z M 4459,15184 L 4909,15184 4909,15632 4459,15632 4459,15184 Z"/>
             <path fill="rgb(71,154,206)" stroke="none" d="M 4459,15184 L 4909,15184 4909,15632 4459,15632 4459,15184 Z M 4463,15188 L 4905,15188 4905,15628 4463,15628 4463,15188 Z"/>
             <path fill="rgb(72,154,206)" stroke="none" d="M 4463,15188 L 4905,15188 4905,15628 4463,15628 4463,15188 Z M 4467,15192 L 4901,15192 4901,15624 4467,15624 4467,15192 Z"/>
             <path fill="rgb(73,155,206)" stroke="none" d="M 4467,15192 L 4901,15192 4901,15624 4467,15624 4467,15192 Z M 4471,15196 L 4897,15196 4897,15620 4471,15620 4471,15196 Z"/>
             <path fill="rgb(74,155,207)" stroke="none" d="M 4471,15196 L 4897,15196 4897,15620 4471,15620 4471,15196 Z M 4475,15200 L 4893,15200 4893,15616 4475,15616 4475,15200 Z"/>
             <path fill="rgb(75,156,207)" stroke="none" d="M 4475,15200 L 4893,15200 4893,15616 4475,15616 4475,15200 Z M 4479,15204 L 4889,15204 4889,15612 4479,15612 4479,15204 Z"/>
             <path fill="rgb(76,156,207)" stroke="none" d="M 4479,15204 L 4889,15204 4889,15612 4479,15612 4479,15204 Z M 4483,15208 L 4885,15208 4885,15608 4483,15608 4483,15208 Z"/>
             <path fill="rgb(77,157,208)" stroke="none" d="M 4483,15208 L 4885,15208 4885,15608 4483,15608 4483,15208 Z M 4487,15212 L 4881,15212 4881,15604 4487,15604 4487,15212 Z"/>
             <path fill="rgb(78,157,208)" stroke="none" d="M 4487,15212 L 4881,15212 4881,15604 4487,15604 4487,15212 Z M 4491,15216 L 4877,15216 4877,15600 4491,15600 4491,15216 Z"/>
             <path fill="rgb(79,158,208)" stroke="none" d="M 4491,15216 L 4877,15216 4877,15600 4491,15600 4491,15216 Z M 4495,15220 L 4873,15220 4873,15596 4495,15596 4495,15220 Z"/>
             <path fill="rgb(80,159,208)" stroke="none" d="M 4495,15220 L 4873,15220 4873,15596 4495,15596 4495,15220 Z M 4499,15224 L 4869,15224 4869,15592 4499,15592 4499,15224 Z"/>
             <path fill="rgb(81,159,209)" stroke="none" d="M 4499,15224 L 4869,15224 4869,15592 4499,15592 4499,15224 Z M 4503,15228 L 4865,15228 4865,15588 4503,15588 4503,15228 Z"/>
             <path fill="rgb(82,160,209)" stroke="none" d="M 4503,15228 L 4865,15228 4865,15588 4503,15588 4503,15228 Z M 4507,15232 L 4861,15232 4861,15584 4507,15584 4507,15232 Z"/>
             <path fill="rgb(83,160,209)" stroke="none" d="M 4507,15232 L 4861,15232 4861,15584 4507,15584 4507,15232 Z M 4511,15236 L 4857,15236 4857,15580 4511,15580 4511,15236 Z"/>
             <path fill="rgb(84,161,209)" stroke="none" d="M 4511,15236 L 4857,15236 4857,15580 4511,15580 4511,15236 Z M 4515,15240 L 4853,15240 4853,15576 4515,15576 4515,15240 Z"/>
             <path fill="rgb(85,161,210)" stroke="none" d="M 4515,15240 L 4853,15240 4853,15576 4515,15576 4515,15240 Z M 4519,15244 L 4849,15244 4849,15572 4519,15572 4519,15244 Z"/>
             <path fill="rgb(86,162,210)" stroke="none" d="M 4519,15244 L 4849,15244 4849,15572 4519,15572 4519,15244 Z M 4523,15248 L 4845,15248 4845,15568 4523,15568 4523,15248 Z"/>
             <path fill="rgb(87,162,210)" stroke="none" d="M 4523,15248 L 4845,15248 4845,15568 4523,15568 4523,15248 Z M 4527,15252 L 4841,15252 4841,15564 4527,15564 4527,15252 Z"/>
             <path fill="rgb(88,163,210)" stroke="none" d="M 4527,15252 L 4841,15252 4841,15564 4527,15564 4527,15252 Z M 4531,15256 L 4837,15256 4837,15560 4531,15560 4531,15256 Z"/>
             <path fill="rgb(89,164,211)" stroke="none" d="M 4531,15256 L 4837,15256 4837,15560 4531,15560 4531,15256 Z M 4535,15260 L 4833,15260 4833,15556 4535,15556 4535,15260 Z"/>
             <path fill="rgb(90,164,211)" stroke="none" d="M 4535,15260 L 4833,15260 4833,15556 4535,15556 4535,15260 Z M 4539,15264 L 4829,15264 4829,15552 4539,15552 4539,15264 Z"/>
             <path fill="rgb(91,165,211)" stroke="none" d="M 4539,15264 L 4829,15264 4829,15552 4539,15552 4539,15264 Z M 4543,15268 L 4825,15268 4825,15548 4543,15548 4543,15268 Z"/>
             <path fill="rgb(92,165,211)" stroke="none" d="M 4543,15268 L 4825,15268 4825,15548 4543,15548 4543,15268 Z M 4547,15272 L 4821,15272 4821,15544 4547,15544 4547,15272 Z"/>
             <path fill="rgb(93,166,212)" stroke="none" d="M 4547,15272 L 4821,15272 4821,15544 4547,15544 4547,15272 Z M 4551,15276 L 4817,15276 4817,15540 4551,15540 4551,15276 Z"/>
             <path fill="rgb(94,166,212)" stroke="none" d="M 4551,15276 L 4817,15276 4817,15540 4551,15540 4551,15276 Z M 4555,15280 L 4813,15280 4813,15536 4555,15536 4555,15280 Z"/>
             <path fill="rgb(95,167,212)" stroke="none" d="M 4555,15280 L 4813,15280 4813,15536 4555,15536 4555,15280 Z M 4560,15284 L 4808,15284 4808,15532 4560,15532 4560,15284 Z"/>
             <path fill="rgb(96,167,212)" stroke="none" d="M 4560,15284 L 4808,15284 4808,15532 4560,15532 4560,15284 Z M 4564,15288 L 4804,15288 4804,15528 4564,15528 4564,15288 Z"/>
             <path fill="rgb(97,168,213)" stroke="none" d="M 4564,15288 L 4804,15288 4804,15528 4564,15528 4564,15288 Z M 4568,15292 L 4800,15292 4800,15524 4568,15524 4568,15292 Z"/>
             <path fill="rgb(98,169,213)" stroke="none" d="M 4568,15292 L 4800,15292 4800,15524 4568,15524 4568,15292 Z M 4572,15296 L 4796,15296 4796,15520 4572,15520 4572,15296 Z"/>
             <path fill="rgb(99,169,213)" stroke="none" d="M 4572,15296 L 4796,15296 4796,15520 4572,15520 4572,15296 Z M 4576,15300 L 4792,15300 4792,15516 4576,15516 4576,15300 Z"/>
             <path fill="rgb(100,170,213)" stroke="none" d="M 4576,15300 L 4792,15300 4792,15516 4576,15516 4576,15300 Z M 4580,15304 L 4788,15304 4788,15512 4580,15512 4580,15304 Z"/>
             <path fill="rgb(101,170,214)" stroke="none" d="M 4580,15304 L 4788,15304 4788,15512 4580,15512 4580,15304 Z M 4584,15308 L 4784,15308 4784,15508 4584,15508 4584,15308 Z"/>
             <path fill="rgb(102,171,214)" stroke="none" d="M 4584,15308 L 4784,15308 4784,15508 4584,15508 4584,15308 Z M 4588,15312 L 4780,15312 4780,15504 4588,15504 4588,15312 Z"/>
             <path fill="rgb(103,171,214)" stroke="none" d="M 4588,15312 L 4780,15312 4780,15504 4588,15504 4588,15312 Z M 4592,15316 L 4776,15316 4776,15500 4592,15500 4592,15316 Z"/>
             <path fill="rgb(104,172,215)" stroke="none" d="M 4592,15316 L 4776,15316 4776,15500 4592,15500 4592,15316 Z M 4596,15320 L 4772,15320 4772,15496 4596,15496 4596,15320 Z"/>
             <path fill="rgb(105,172,215)" stroke="none" d="M 4596,15320 L 4772,15320 4772,15496 4596,15496 4596,15320 Z M 4600,15324 L 4768,15324 4768,15492 4600,15492 4600,15324 Z"/>
             <path fill="rgb(106,173,215)" stroke="none" d="M 4600,15324 L 4768,15324 4768,15492 4600,15492 4600,15324 Z M 4604,15328 L 4764,15328 4764,15488 4604,15488 4604,15328 Z"/>
             <path fill="rgb(107,173,215)" stroke="none" d="M 4604,15328 L 4764,15328 4764,15488 4604,15488 4604,15328 Z M 4608,15332 L 4760,15332 4760,15484 4608,15484 4608,15332 Z"/>
             <path fill="rgb(108,174,216)" stroke="none" d="M 4608,15332 L 4760,15332 4760,15484 4608,15484 4608,15332 Z M 4612,15336 L 4756,15336 4756,15480 4612,15480 4612,15336 Z"/>
             <path fill="rgb(109,175,216)" stroke="none" d="M 4612,15336 L 4756,15336 4756,15480 4612,15480 4612,15336 Z M 4616,15340 L 4752,15340 4752,15476 4616,15476 4616,15340 Z"/>
             <path fill="rgb(110,175,216)" stroke="none" d="M 4616,15340 L 4752,15340 4752,15476 4616,15476 4616,15340 Z M 4620,15344 L 4748,15344 4748,15472 4620,15472 4620,15344 Z"/>
             <path fill="rgb(111,176,216)" stroke="none" d="M 4620,15344 L 4748,15344 4748,15472 4620,15472 4620,15344 Z M 4624,15348 L 4744,15348 4744,15468 4624,15468 4624,15348 Z"/>
             <path fill="rgb(112,176,217)" stroke="none" d="M 4624,15348 L 4744,15348 4744,15468 4624,15468 4624,15348 Z M 4628,15352 L 4740,15352 4740,15464 4628,15464 4628,15352 Z"/>
             <path fill="rgb(113,177,217)" stroke="none" d="M 4628,15352 L 4740,15352 4740,15464 4628,15464 4628,15352 Z M 4632,15356 L 4736,15356 4736,15460 4632,15460 4632,15356 Z"/>
             <path fill="rgb(114,177,217)" stroke="none" d="M 4632,15356 L 4736,15356 4736,15460 4632,15460 4632,15356 Z M 4636,15360 L 4732,15360 4732,15456 4636,15456 4636,15360 Z"/>
             <path fill="rgb(115,178,217)" stroke="none" d="M 4636,15360 L 4732,15360 4732,15456 4636,15456 4636,15360 Z M 4640,15364 L 4728,15364 4728,15452 4640,15452 4640,15364 Z"/>
             <path fill="rgb(116,178,218)" stroke="none" d="M 4640,15364 L 4728,15364 4728,15452 4640,15452 4640,15364 Z M 4644,15368 L 4724,15368 4724,15448 4644,15448 4644,15368 Z"/>
             <path fill="rgb(117,179,218)" stroke="none" d="M 4644,15368 L 4724,15368 4724,15448 4644,15448 4644,15368 Z M 4648,15372 L 4720,15372 4720,15444 4648,15444 4648,15372 Z"/>
             <path fill="rgb(118,180,218)" stroke="none" d="M 4648,15372 L 4720,15372 4720,15444 4648,15444 4648,15372 Z M 4652,15376 L 4716,15376 4716,15440 4652,15440 4652,15376 Z"/>
             <path fill="rgb(119,180,218)" stroke="none" d="M 4652,15376 L 4716,15376 4716,15440 4652,15440 4652,15376 Z M 4656,15380 L 4712,15380 4712,15436 4656,15436 4656,15380 Z"/>
             <path fill="rgb(120,181,219)" stroke="none" d="M 4656,15380 L 4712,15380 4712,15436 4656,15436 4656,15380 Z M 4660,15384 L 4708,15384 4708,15432 4660,15432 4660,15384 Z"/>
             <path fill="rgb(121,181,219)" stroke="none" d="M 4660,15384 L 4708,15384 4708,15432 4660,15432 4660,15384 Z M 4664,15388 L 4704,15388 4704,15428 4664,15428 4664,15388 Z"/>
             <path fill="rgb(122,182,219)" stroke="none" d="M 4664,15388 L 4704,15388 4704,15428 4664,15428 4664,15388 Z M 4668,15392 L 4700,15392 4700,15424 4668,15424 4668,15392 Z"/>
             <path fill="rgb(123,182,219)" stroke="none" d="M 4668,15392 L 4700,15392 4700,15424 4668,15424 4668,15392 Z M 4672,15396 L 4696,15396 4696,15420 4672,15420 4672,15396 Z"/>
             <path fill="rgb(124,183,220)" stroke="none" d="M 4672,15396 L 4696,15396 4696,15420 4672,15420 4672,15396 Z M 4676,15400 L 4692,15400 4692,15416 4676,15416 4676,15400 Z"/>
             <path fill="rgb(125,183,220)" stroke="none" d="M 4676,15400 L 4692,15400 4692,15416 4676,15416 4676,15400 Z M 4680,15404 L 4688,15404 4688,15412 4680,15412 4680,15404 Z"/>
             <path fill="rgb(127,185,221)" stroke="none" d="M 4680,15404 L 4688,15404 4688,15412 4680,15412 4680,15404 Z"/>
            </g>
           </pattern>
          </defs>
          <path style="fill:url(#pattern2)" d="M 4889,15105 L 4942,15108 4994,15115 5043,15127 5091,15144 5136,15165 5178,15189 5217,15218 5253,15251 5286,15286 5315,15325 5340,15367 5361,15411 5378,15458 5390,15508 5397,15559 5400,15612 5397,15665 5390,15717 5378,15766 5361,15813 5340,15857 5315,15899 5286,15938 5253,15974 5217,16006 5178,16035 5136,16060 5091,16081 5043,16098 4994,16110 4942,16117 4889,16120 4836,16117 4784,16110 4735,16098 4687,16081 4643,16060 4601,16035 4562,16006 4526,15974 4493,15938 4464,15899 4439,15857 4418,15813 4401,15766 4389,15717 4382,15665 4379,15612 4382,15559 4389,15508 4401,15458 4418,15411 4439,15367 4464,15325 4493,15286 4526,15251 4562,15218 4601,15189 4643,15165 4687,15144 4735,15127 4784,15115 4836,15108 4889,15105 Z"/>
         </g>
         <path fill="none" stroke="rgb(0,0,0)" stroke-width="40" stroke-linejoin="round" d="M 4889,15105 C 5178,15105 5400,15324 5400,15612 5400,15900 5178,16120 4889,16120 4600,16120 4379,15900 4379,15612 4379,15324 4600,15105 4889,15105 Z"/>
        </g>
       </g>
       <g class="com.sun.star.drawing.PolyPolygonShape">
        <g id="id28">
         <rect class="BoundingBox" stroke="none" fill="none" x="4586" y="15118" width="665" height="991"/>
         <path fill="rgb(57,181,74)" stroke="none" d="M 4607,15204 L 4720,15204 4777,15171 4890,15138 5060,15204 4947,15204 5004,15302 4834,15465 4777,15498 4720,15531 4834,15597 4890,15662 5060,15662 5230,15760 5117,15957 4947,16088 4947,15892 4834,15760 4890,15695 4777,15597 4664,15564 4607,15433 4607,15204 Z"/>
         <path fill="none" stroke="rgb(128,128,128)" stroke-width="40" stroke-linejoin="round" d="M 4607,15204 L 4720,15204 4777,15171 4890,15138 5060,15204 4947,15204 5004,15302 4834,15465 4777,15498 4720,15531 4834,15597 4890,15662 5060,15662 5230,15760 5117,15957 4947,16088 4947,15892 4834,15760 4890,15695 4777,15597 4664,15564 4607,15433 4607,15204 Z"/>
        </g>
       </g>
       <g class="com.sun.star.drawing.ClosedBezierShape">
        <g id="id29">
         <rect class="BoundingBox" stroke="none" fill="none" x="5097" y="15176" width="299" height="475"/>
         <path fill="rgb(57,181,74)" stroke="none" d="M 5344,15630 L 5344,15597 5287,15499 5287,15400 5230,15269 5117,15204 C 5230,15139 5457,15564 5344,15630 Z"/>
         <path fill="none" stroke="rgb(128,128,128)" stroke-width="40" stroke-linejoin="round" d="M 5344,15630 L 5344,15597 5287,15499 5287,15400 5230,15269 5117,15204 C 5230,15139 5457,15564 5344,15630 Z"/>
        </g>
       </g>
       <g class="Group">
        <g class="com.sun.star.drawing.LineShape">
         <g id="id30">
          <rect class="BoundingBox" stroke="none" fill="none" x="4757" y="15511" width="98" height="270"/>
          <path fill="none" stroke="rgb(255,255,255)" stroke-width="40" stroke-linejoin="round" d="M 4834,15760 L 4777,15531"/>
         </g>
        </g>
        <g class="com.sun.star.drawing.LineShape">
         <g id="id31">
          <rect class="BoundingBox" stroke="none" fill="none" x="4813" y="15577" width="98" height="205"/>
          <path fill="none" stroke="rgb(255,255,255)" stroke-width="40" stroke-linejoin="round" d="M 4833,15761 L 4890,15597"/>
         </g>
        </g>
        <g class="com.sun.star.drawing.LineShape">
         <g id="id32">
          <rect class="BoundingBox" stroke="none" fill="none" x="4870" y="15577" width="98" height="205"/>
          <path fill="none" stroke="rgb(255,255,255)" stroke-width="40" stroke-linejoin="round" d="M 4947,15761 L 4890,15597"/>
         </g>
        </g>
        <g class="com.sun.star.drawing.LineShape">
         <g id="id33">
          <rect class="BoundingBox" stroke="none" fill="none" x="4927" y="15511" width="98" height="270"/>
          <path fill="none" stroke="rgb(255,255,255)" stroke-width="40" stroke-linejoin="round" d="M 4947,15760 L 5004,15531"/>
         </g>
        </g>
       </g>
       <g class="Group">
        <g class="com.sun.star.drawing.LineShape">
         <g id="id34">
          <rect class="BoundingBox" stroke="none" fill="none" x="5097" y="15511" width="98" height="270"/>
          <path fill="none" stroke="rgb(255,255,255)" stroke-width="40" stroke-linejoin="round" d="M 5174,15760 L 5117,15531"/>
         </g>
        </g>
        <g class="com.sun.star.drawing.LineShape">
         <g id="id35">
          <rect class="BoundingBox" stroke="none" fill="none" x="5153" y="15577" width="98" height="205"/>
          <path fill="none" stroke="rgb(255,255,255)" stroke-width="40" stroke-linejoin="round" d="M 5173,15761 L 5230,15597"/>
         </g>
        </g>
        <g class="com.sun.star.drawing.LineShape">
         <g id="id36">
          <rect class="BoundingBox" stroke="none" fill="none" x="5210" y="15577" width="98" height="205"/>
          <path fill="none" stroke="rgb(255,255,255)" stroke-width="40" stroke-linejoin="round" d="M 5287,15761 L 5230,15597"/>
         </g>
        </g>
        <g class="com.sun.star.drawing.LineShape">
         <g id="id37">
          <rect class="BoundingBox" stroke="none" fill="none" x="5267" y="15511" width="98" height="270"/>
          <path fill="none" stroke="rgb(255,255,255)" stroke-width="40" stroke-linejoin="round" d="M 5287,15760 L 5344,15531"/>
         </g>
        </g>
       </g>
       <g class="Group">
        <g class="com.sun.star.drawing.LineShape">
         <g id="id38">
          <rect class="BoundingBox" stroke="none" fill="none" x="4417" y="15511" width="98" height="270"/>
          <path fill="none" stroke="rgb(255,255,255)" stroke-width="40" stroke-linejoin="round" d="M 4494,15760 L 4437,15531"/>
         </g>
        </g>
        <g class="com.sun.star.drawing.LineShape">
         <g id="id39">
          <rect class="BoundingBox" stroke="none" fill="none" x="4473" y="15577" width="98" height="205"/>
          <path fill="none" stroke="rgb(255,255,255)" stroke-width="40" stroke-linejoin="round" d="M 4493,15761 L 4550,15597"/>
         </g>
        </g>
        <g class="com.sun.star.drawing.LineShape">
         <g id="id40">
          <rect class="BoundingBox" stroke="none" fill="none" x="4530" y="15577" width="98" height="205"/>
          <path fill="none" stroke="rgb(255,255,255)" stroke-width="40" stroke-linejoin="round" d="M 4607,15761 L 4550,15597"/>
         </g>
        </g>
        <g class="com.sun.star.drawing.LineShape">
         <g id="id41">
          <rect class="BoundingBox" stroke="none" fill="none" x="4587" y="15511" width="98" height="270"/>
          <path fill="none" stroke="rgb(255,255,255)" stroke-width="40" stroke-linejoin="round" d="M 4607,15760 L 4664,15531"/>
         </g>
        </g>
       </g>
      </g>
     </g>
    </g>
   </g>
  </g>
 </g>
</svg>