<?xml version="1.0" encoding="UTF-8"?>
<!DOCTYPE svg PUBLIC "-//W3C//DTD SVG 1.1//EN" "http://www.w3.org/Graphics/SVG/1.1/DTD/svg11.dtd">
<svg version="1.2" width="19.8mm" height="29.58mm" viewBox="5242 4230 1980 2958" preserveAspectRatio="xMidYMid" fill-rule="evenodd" stroke-width="28.222" stroke-linejoin="round" xmlns="http://www.w3.org/2000/svg" xmlns:ooo="http://xml.openoffice.org/svg/export" xmlns:xlink="http://www.w3.org/1999/xlink" xmlns:presentation="http://sun.com/xmlns/staroffice/presentation" xmlns:smil="http://www.w3.org/2001/SMIL20/" xmlns:anim="urn:oasis:names:tc:opendocument:xmlns:animation:1.0" xml:space="preserve">
 <defs class="ClipPathGroup">
  <clipPath id="presentation_clip_path" clipPathUnits="userSpaceOnUse">
   <rect x="5242" y="4230" width="1980" height="2958"/>
  </clipPath>
 </defs>
 <defs class="TextShapeIndex">
  <g ooo:slide="id1" ooo:id-list="id3 id4 id5 id6 id7 id8 id9 id10"/>
 </defs>
 <defs class="EmbeddedBulletChars">
  <g id="bullet-char-template(57356)" transform="scale(0.00048828125,-0.00048828125)">
   <path d="M 580,1141 L 1163,571 580,0 -4,571 580,1141 Z"/>
  </g>
  <g id="bullet-char-template(57354)" transform="scale(0.00048828125,-0.00048828125)">
   <path d="M 8,1128 L 1137,1128 1137,0 8,0 8,1128 Z"/>
  </g>
  <g id="bullet-char-template(10146)" transform="scale(0.00048828125,-0.00048828125)">
   <path d="M 174,0 L 602,739 174,1481 1456,739 174,0 Z M 1358,739 L 309,1346 659,739 1358,739 Z"/>
  </g>
  <g id="bullet-char-template(10132)" transform="scale(0.00048828125,-0.00048828125)">
   <path d="M 2015,739 L 1276,0 717,0 1260,543 174,543 174,936 1260,936 717,1481 1274,1481 2015,739 Z"/>
  </g>
  <g id="bullet-char-template(10007)" transform="scale(0.00048828125,-0.00048828125)">
   <path d="M 0,-2 C -7,14 -16,27 -25,37 L 356,567 C 262,823 215,952 215,954 215,979 228,992 255,992 264,992 276,990 289,987 310,991 331,999 354,1012 L 381,999 492,748 772,1049 836,1024 860,1049 C 881,1039 901,1025 922,1006 886,937 835,863 770,784 769,783 710,716 594,584 L 774,223 C 774,196 753,168 711,139 L 727,119 C 717,90 699,76 672,76 641,76 570,178 457,381 L 164,-76 C 142,-110 111,-127 72,-127 30,-127 9,-110 8,-76 1,-67 -2,-52 -2,-32 -2,-23 -1,-13 0,-2 Z"/>
  </g>
  <g id="bullet-char-template(10004)" transform="scale(0.00048828125,-0.00048828125)">
   <path d="M 285,-33 C 182,-33 111,30 74,156 52,228 41,333 41,471 41,549 55,616 82,672 116,743 169,778 240,778 293,778 328,747 346,684 L 369,508 C 377,444 397,411 428,410 L 1163,1116 C 1174,1127 1196,1133 1229,1133 1271,1133 1292,1118 1292,1087 L 1292,965 C 1292,929 1282,901 1262,881 L 442,47 C 390,-6 338,-33 285,-33 Z"/>
  </g>
  <g id="bullet-char-template(9679)" transform="scale(0.00048828125,-0.00048828125)">
   <path d="M 813,0 C 632,0 489,54 383,161 276,268 223,411 223,592 223,773 276,916 383,1023 489,1130 632,1184 813,1184 992,1184 1136,1130 1245,1023 1353,916 1407,772 1407,592 1407,412 1353,268 1245,161 1136,54 992,0 813,0 Z"/>
  </g>
  <g id="bullet-char-template(8226)" transform="scale(0.00048828125,-0.00048828125)">
   <path d="M 346,457 C 273,457 209,483 155,535 101,586 74,649 74,723 74,796 101,859 155,911 209,963 273,989 346,989 419,989 480,963 531,910 582,859 608,796 608,723 608,648 583,586 532,535 482,483 420,457 346,457 Z"/>
  </g>
  <g id="bullet-char-template(8211)" transform="scale(0.00048828125,-0.00048828125)">
   <path d="M -4,459 L 1135,459 1135,606 -4,606 -4,459 Z"/>
  </g>
 </defs>
 <defs class="TextEmbeddedBitmaps"/>
 <g class="SlideGroup">
  <g>
   <g id="id1" class="Slide" clip-path="url(#presentation_clip_path)">
    <g class="Page">
     <g class="Group">
      <g class="com.sun.star.drawing.PolyPolygonShape">
       <g id="id3">
        <rect class="BoundingBox" stroke="none" fill="none" x="5242" y="4702" width="1981" height="1161"/>
        <g>
         <defs>
          <linearGradient id="gradient1" x1="6232" y1="4722" x2="6232" y2="5842" gradientUnits="userSpaceOnUse">
           <stop offset="0.1" style="stop-color:rgb(222,142,150)"/>
           <stop offset="1" style="stop-color:rgb(248,232,234)"/>
          </linearGradient>
         </defs>
         <path style="fill:url(#gradient1)" d="M 6672,5842 L 7202,5537 5792,4722 5262,5028 6672,5842 Z"/>
        </g>
        <path fill="none" stroke="rgb(255,255,255)" stroke-width="40" stroke-linejoin="round" d="M 6672,5842 L 7202,5537 5792,4722 5262,5028 6672,5842 Z"/>
       </g>
      </g>
      <g class="com.sun.star.drawing.ClosedBezierShape">
       <g id="id4">
        <rect class="BoundingBox" stroke="none" fill="none" x="5595" y="4257" width="1276" height="1403"/>
        <g>
         <defs>
          <linearGradient id="gradient2" x1="5614" y1="4958" x2="6850" y2="4958" gradientUnits="userSpaceOnUse">
           <stop offset="0.1" style="stop-color:rgb(179,179,179)"/>
           <stop offset="1" style="stop-color:rgb(229,229,229)"/>
          </linearGradient>
         </defs>
         <path style="fill:url(#gradient2)" d="M 6850,5562 L 6836,5323 6797,5105 6736,4910 6657,4737 6564,4590 6459,4470 6404,4420 6348,4377 6290,4342 6233,4314 6175,4294 6117,4282 6061,4278 6006,4282 5952,4295 5901,4317 5853,4348 5808,4387 5766,4436 5729,4494 5696,4562 5668,4640 5646,4728 5629,4826 5615,5053 5674,5086 5720,5110 5740,5119 5758,5124 5775,5128 5792,5129 5809,5128 5826,5124 5844,5119 5863,5110 5910,5086 5968,5053 5974,4933 5991,4840 6003,4804 6017,4774 6033,4749 6051,4731 6070,4718 6091,4711 6113,4709 6135,4712 6159,4720 6183,4733 6208,4751 6233,4773 6282,4828 6330,4900 6374,4984 6414,5081 6448,5189 6474,5306 6491,5431 6497,5562 6555,5595 6602,5619 6621,5628 6639,5633 6656,5637 6673,5638 6690,5637 6707,5633 6725,5628 6745,5619 6791,5595 6850,5562 Z"/>
        </g>
        <path fill="none" stroke="rgb(255,255,255)" stroke-width="40" stroke-linejoin="round" d="M 6850,5562 C 6850,4238 5615,3728 5615,5053 5792,5155 5792,5155 5968,5053 5968,4339 6497,4850 6497,5562 6673,5664 6673,5664 6850,5562 Z"/>
       </g>
      </g>
      <g class="com.sun.star.drawing.OpenBezierShape">
       <g id="id5">
        <rect class="BoundingBox" stroke="none" fill="none" x="5772" y="4543" width="748" height="1015"/>
        <path fill="none" stroke="rgb(255,255,255)" stroke-width="40" stroke-linejoin="round" d="M 6499,5537 C 6497,4620 5794,4214 5792,4926"/>
       </g>
      </g>
      <g class="com.sun.star.drawing.PolyPolygonShape">
       <g id="id6">
        <rect class="BoundingBox" stroke="none" fill="none" x="5242" y="5008" width="1452" height="2181"/>
        <g>
         <defs>
          <linearGradient id="gradient3" x1="5261" y1="6098" x2="6673" y2="6098" gradientUnits="userSpaceOnUse">
           <stop offset="0.1" style="stop-color:rgb(222,142,150)"/>
           <stop offset="1" style="stop-color:rgb(248,232,234)"/>
          </linearGradient>
         </defs>
         <path style="fill:url(#gradient3)" d="M 6672,7168 L 6672,5843 5262,5028 5262,6353 6672,7168 Z"/>
        </g>
        <path fill="none" stroke="rgb(255,255,255)" stroke-width="40" stroke-linejoin="round" d="M 6672,7168 L 6672,5843 5262,5028 5262,6353 6672,7168 Z"/>
       </g>
      </g>
      <g class="com.sun.star.drawing.ClosedBezierShape">
       <g id="id7">
        <rect class="BoundingBox" stroke="none" fill="none" x="5819" y="5823" width="346" height="569"/>
        <g>
         <defs>
          <linearGradient id="gradient4" x1="5991" y1="5843" x2="5991" y2="6371" gradientUnits="userSpaceOnUse">
           <stop offset="0.1" style="stop-color:rgb(0,0,0)"/>
           <stop offset="1" style="stop-color:rgb(255,255,255)"/>
          </linearGradient>
         </defs>
         <path style="fill:url(#gradient4)" d="M 5868,6066 L 5845,5982 5840,5948 5839,5920 5842,5896 5849,5877 5853,5870 5858,5863 5864,5857 5870,5852 5877,5849 5885,5846 5901,5843 5919,5844 5939,5847 5959,5854 5980,5863 6022,5887 6061,5919 6096,5956 6111,5976 6123,5996 6133,6017 6140,6037 6143,6057 6143,6077 6138,6095 6130,6113 6116,6129 6097,6144 6073,6157 6043,6168 6043,6371 5868,6270 5868,6066 Z"/>
        </g>
        <path fill="none" stroke="rgb(255,255,255)" stroke-width="40" stroke-linejoin="round" d="M 5868,6066 C 5691,5557 6396,6066 6043,6168 L 6043,6371 5868,6270 5868,6066 Z"/>
       </g>
      </g>
      <g class="com.sun.star.drawing.PolyPolygonShape">
       <g id="id8">
        <rect class="BoundingBox" stroke="none" fill="none" x="6652" y="5517" width="571" height="1672"/>
        <g>
         <defs>
          <pattern id="pattern1" x="6672" y="5537" width="531" height="1632" patternUnits="userSpaceOnUse">
           <g transform="translate(-6672,-5537)">
            <path fill="rgb(222,142,150)" stroke="none" d="M 6671,5536 L 7203,5536 7203,7169 6671,7169 6671,5536 Z M 6567,5219 L 7093,5219 7093,6832 6567,6832 6567,5219 Z"/>
            <path fill="rgb(222,143,150)" stroke="none" d="M 6567,5219 L 7093,5219 7093,6832 6567,6832 6567,5219 Z M 6570,5228 L 7090,5228 7090,6823 6570,6823 6570,5228 Z"/>
            <path fill="rgb(222,144,151)" stroke="none" d="M 6570,5228 L 7090,5228 7090,6823 6570,6823 6570,5228 Z M 6573,5237 L 7087,5237 7087,6814 6573,6814 6573,5237 Z"/>
            <path fill="rgb(222,145,152)" stroke="none" d="M 6573,5237 L 7087,5237 7087,6814 6573,6814 6573,5237 Z M 6576,5246 L 7084,5246 7084,6805 6576,6805 6576,5246 Z"/>
            <path fill="rgb(223,146,153)" stroke="none" d="M 6576,5246 L 7084,5246 7084,6805 6576,6805 6576,5246 Z M 6579,5255 L 7081,5255 7081,6796 6579,6796 6579,5255 Z"/>
            <path fill="rgb(223,147,154)" stroke="none" d="M 6579,5255 L 7081,5255 7081,6796 6579,6796 6579,5255 Z M 6582,5264 L 7078,5264 7078,6787 6582,6787 6582,5264 Z"/>
            <path fill="rgb(223,148,155)" stroke="none" d="M 6582,5264 L 7078,5264 7078,6787 6582,6787 6582,5264 Z M 6585,5273 L 7075,5273 7075,6778 6585,6778 6585,5273 Z"/>
            <path fill="rgb(224,149,156)" stroke="none" d="M 6585,5273 L 7075,5273 7075,6778 6585,6778 6585,5273 Z M 6588,5282 L 7072,5282 7072,6769 6588,6769 6588,5282 Z"/>
            <path fill="rgb(224,150,157)" stroke="none" d="M 6588,5282 L 7072,5282 7072,6769 6588,6769 6588,5282 Z M 6591,5291 L 7069,5291 7069,6760 6591,6760 6591,5291 Z"/>
            <path fill="rgb(224,151,158)" stroke="none" d="M 6591,5291 L 7069,5291 7069,6760 6591,6760 6591,5291 Z M 6594,5300 L 7066,5300 7066,6751 6594,6751 6594,5300 Z"/>
            <path fill="rgb(224,152,159)" stroke="none" d="M 6594,5300 L 7066,5300 7066,6751 6594,6751 6594,5300 Z M 6597,5309 L 7063,5309 7063,6742 6597,6742 6597,5309 Z"/>
            <path fill="rgb(225,153,160)" stroke="none" d="M 6597,5309 L 7063,5309 7063,6742 6597,6742 6597,5309 Z M 6600,5318 L 7060,5318 7060,6733 6600,6733 6600,5318 Z"/>
            <path fill="rgb(225,154,161)" stroke="none" d="M 6600,5318 L 7060,5318 7060,6733 6600,6733 6600,5318 Z M 6603,5328 L 7057,5328 7057,6723 6603,6723 6603,5328 Z"/>
            <path fill="rgb(225,155,162)" stroke="none" d="M 6603,5328 L 7057,5328 7057,6723 6603,6723 6603,5328 Z M 6606,5337 L 7054,5337 7054,6714 6606,6714 6606,5337 Z"/>
            <path fill="rgb(226,156,163)" stroke="none" d="M 6606,5337 L 7054,5337 7054,6714 6606,6714 6606,5337 Z M 6609,5346 L 7051,5346 7051,6705 6609,6705 6609,5346 Z"/>
            <path fill="rgb(226,157,164)" stroke="none" d="M 6609,5346 L 7051,5346 7051,6705 6609,6705 6609,5346 Z M 6612,5355 L 7048,5355 7048,6696 6612,6696 6612,5355 Z"/>
            <path fill="rgb(226,158,164)" stroke="none" d="M 6612,5355 L 7048,5355 7048,6696 6612,6696 6612,5355 Z M 6615,5364 L 7045,5364 7045,6687 6615,6687 6615,5364 Z"/>
            <path fill="rgb(226,159,165)" stroke="none" d="M 6615,5364 L 7045,5364 7045,6687 6615,6687 6615,5364 Z M 6618,5373 L 7042,5373 7042,6678 6618,6678 6618,5373 Z"/>
            <path fill="rgb(227,160,166)" stroke="none" d="M 6618,5373 L 7042,5373 7042,6678 6618,6678 6618,5373 Z M 6621,5382 L 7039,5382 7039,6669 6621,6669 6621,5382 Z"/>
            <path fill="rgb(227,161,167)" stroke="none" d="M 6621,5382 L 7039,5382 7039,6669 6621,6669 6621,5382 Z M 6624,5391 L 7036,5391 7036,6660 6624,6660 6624,5391 Z"/>
            <path fill="rgb(227,162,168)" stroke="none" d="M 6624,5391 L 7036,5391 7036,6660 6624,6660 6624,5391 Z M 6627,5400 L 7033,5400 7033,6651 6627,6651 6627,5400 Z"/>
            <path fill="rgb(228,163,169)" stroke="none" d="M 6627,5400 L 7033,5400 7033,6651 6627,6651 6627,5400 Z M 6630,5409 L 7030,5409 7030,6642 6630,6642 6630,5409 Z"/>
            <path fill="rgb(228,164,170)" stroke="none" d="M 6630,5409 L 7030,5409 7030,6642 6630,6642 6630,5409 Z M 6633,5418 L 7027,5418 7027,6633 6633,6633 6633,5418 Z"/>
            <path fill="rgb(228,165,171)" stroke="none" d="M 6633,5418 L 7027,5418 7027,6633 6633,6633 6633,5418 Z M 6636,5427 L 7024,5427 7024,6624 6636,6624 6636,5427 Z"/>
            <path fill="rgb(228,166,172)" stroke="none" d="M 6636,5427 L 7024,5427 7024,6624 6636,6624 6636,5427 Z M 6639,5436 L 7021,5436 7021,6615 6639,6615 6639,5436 Z"/>
            <path fill="rgb(229,167,173)" stroke="none" d="M 6639,5436 L 7021,5436 7021,6615 6639,6615 6639,5436 Z M 6641,5446 L 7019,5446 7019,6605 6641,6605 6641,5446 Z"/>
            <path fill="rgb(229,168,174)" stroke="none" d="M 6641,5446 L 7019,5446 7019,6605 6641,6605 6641,5446 Z M 6644,5455 L 7016,5455 7016,6596 6644,6596 6644,5455 Z"/>
            <path fill="rgb(229,169,175)" stroke="none" d="M 6644,5455 L 7016,5455 7016,6596 6644,6596 6644,5455 Z M 6647,5464 L 7013,5464 7013,6587 6647,6587 6647,5464 Z"/>
            <path fill="rgb(230,170,176)" stroke="none" d="M 6647,5464 L 7013,5464 7013,6587 6647,6587 6647,5464 Z M 6650,5473 L 7010,5473 7010,6578 6650,6578 6650,5473 Z"/>
            <path fill="rgb(230,171,177)" stroke="none" d="M 6650,5473 L 7010,5473 7010,6578 6650,6578 6650,5473 Z M 6652,5482 L 7007,5482 7007,6569 6652,6569 6652,5482 Z"/>
            <path fill="rgb(230,172,178)" stroke="none" d="M 6652,5482 L 7007,5482 7007,6569 6652,6569 6652,5482 Z M 6655,5491 L 7004,5491 7004,6560 6655,6560 6655,5491 Z"/>
            <path fill="rgb(230,173,178)" stroke="none" d="M 6655,5491 L 7004,5491 7004,6560 6655,6560 6655,5491 Z M 6658,5500 L 7001,5500 7001,6551 6658,6551 6658,5500 Z"/>
            <path fill="rgb(231,174,179)" stroke="none" d="M 6658,5500 L 7001,5500 7001,6551 6658,6551 6658,5500 Z M 6661,5509 L 6998,5509 6998,6542 6661,6542 6661,5509 Z"/>
            <path fill="rgb(231,175,180)" stroke="none" d="M 6661,5509 L 6998,5509 6998,6542 6661,6542 6661,5509 Z M 6664,5517 L 6995,5517 6995,6533 6664,6533 6664,5517 Z"/>
            <path fill="rgb(231,176,181)" stroke="none" d="M 6664,5517 L 6995,5517 6995,6533 6664,6533 6664,5517 Z M 6667,5526 L 6992,5526 6992,6524 6667,6524 6667,5526 Z"/>
            <path fill="rgb(232,177,182)" stroke="none" d="M 6667,5526 L 6992,5526 6992,6524 6667,6524 6667,5526 Z M 6670,5535 L 6989,5535 6989,6515 6670,6515 6670,5535 Z"/>
            <path fill="rgb(232,178,183)" stroke="none" d="M 6670,5535 L 6989,5535 6989,6515 6670,6515 6670,5535 Z M 6673,5544 L 6986,5544 6986,6506 6673,6506 6673,5544 Z"/>
            <path fill="rgb(232,179,184)" stroke="none" d="M 6673,5544 L 6986,5544 6986,6506 6673,6506 6673,5544 Z M 6676,5553 L 6983,5553 6983,6497 6676,6497 6676,5553 Z"/>
            <path fill="rgb(232,180,185)" stroke="none" d="M 6676,5553 L 6983,5553 6983,6497 6676,6497 6676,5553 Z M 6679,5563 L 6980,5563 6980,6487 6679,6487 6679,5563 Z"/>
            <path fill="rgb(233,181,186)" stroke="none" d="M 6679,5563 L 6980,5563 6980,6487 6679,6487 6679,5563 Z M 6682,5572 L 6977,5572 6977,6478 6682,6478 6682,5572 Z"/>
            <path fill="rgb(233,182,187)" stroke="none" d="M 6682,5572 L 6977,5572 6977,6478 6682,6478 6682,5572 Z M 6685,5581 L 6974,5581 6974,6469 6685,6469 6685,5581 Z"/>
            <path fill="rgb(233,183,188)" stroke="none" d="M 6685,5581 L 6974,5581 6974,6469 6685,6469 6685,5581 Z M 6688,5590 L 6971,5590 6971,6460 6688,6460 6688,5590 Z"/>
            <path fill="rgb(234,184,189)" stroke="none" d="M 6688,5590 L 6971,5590 6971,6460 6688,6460 6688,5590 Z M 6691,5599 L 6968,5599 6968,6451 6691,6451 6691,5599 Z"/>
            <path fill="rgb(234,185,190)" stroke="none" d="M 6691,5599 L 6968,5599 6968,6451 6691,6451 6691,5599 Z M 6694,5608 L 6965,5608 6965,6442 6694,6442 6694,5608 Z"/>
            <path fill="rgb(234,186,191)" stroke="none" d="M 6694,5608 L 6965,5608 6965,6442 6694,6442 6694,5608 Z M 6697,5617 L 6962,5617 6962,6433 6697,6433 6697,5617 Z"/>
            <path fill="rgb(235,187,192)" stroke="none" d="M 6697,5617 L 6962,5617 6962,6433 6697,6433 6697,5617 Z M 6700,5626 L 6959,5626 6959,6424 6700,6424 6700,5626 Z"/>
            <path fill="rgb(235,188,192)" stroke="none" d="M 6700,5626 L 6959,5626 6959,6424 6700,6424 6700,5626 Z M 6703,5635 L 6956,5635 6956,6415 6703,6415 6703,5635 Z"/>
            <path fill="rgb(235,189,193)" stroke="none" d="M 6703,5635 L 6956,5635 6956,6415 6703,6415 6703,5635 Z M 6706,5644 L 6953,5644 6953,6406 6706,6406 6706,5644 Z"/>
            <path fill="rgb(235,190,194)" stroke="none" d="M 6706,5644 L 6953,5644 6953,6406 6706,6406 6706,5644 Z M 6709,5653 L 6950,5653 6950,6397 6709,6397 6709,5653 Z"/>
            <path fill="rgb(236,191,195)" stroke="none" d="M 6709,5653 L 6950,5653 6950,6397 6709,6397 6709,5653 Z M 6712,5662 L 6947,5662 6947,6388 6712,6388 6712,5662 Z"/>
            <path fill="rgb(236,192,196)" stroke="none" d="M 6712,5662 L 6947,5662 6947,6388 6712,6388 6712,5662 Z M 6715,5671 L 6944,5671 6944,6379 6715,6379 6715,5671 Z"/>
            <path fill="rgb(236,193,197)" stroke="none" d="M 6715,5671 L 6944,5671 6944,6379 6715,6379 6715,5671 Z M 6717,5681 L 6942,5681 6942,6369 6717,6369 6717,5681 Z"/>
            <path fill="rgb(237,194,198)" stroke="none" d="M 6717,5681 L 6942,5681 6942,6369 6717,6369 6717,5681 Z M 6720,5690 L 6939,5690 6939,6360 6720,6360 6720,5690 Z"/>
            <path fill="rgb(237,195,199)" stroke="none" d="M 6720,5690 L 6939,5690 6939,6360 6720,6360 6720,5690 Z M 6723,5699 L 6936,5699 6936,6351 6723,6351 6723,5699 Z"/>
            <path fill="rgb(237,196,200)" stroke="none" d="M 6723,5699 L 6936,5699 6936,6351 6723,6351 6723,5699 Z M 6726,5708 L 6933,5708 6933,6342 6726,6342 6726,5708 Z"/>
            <path fill="rgb(237,197,201)" stroke="none" d="M 6726,5708 L 6933,5708 6933,6342 6726,6342 6726,5708 Z M 6729,5717 L 6930,5717 6930,6333 6729,6333 6729,5717 Z"/>
            <path fill="rgb(238,198,202)" stroke="none" d="M 6729,5717 L 6930,5717 6930,6333 6729,6333 6729,5717 Z M 6732,5726 L 6927,5726 6927,6324 6732,6324 6732,5726 Z"/>
            <path fill="rgb(238,199,203)" stroke="none" d="M 6732,5726 L 6927,5726 6927,6324 6732,6324 6732,5726 Z M 6735,5735 L 6924,5735 6924,6315 6735,6315 6735,5735 Z"/>
            <path fill="rgb(238,200,204)" stroke="none" d="M 6735,5735 L 6924,5735 6924,6315 6735,6315 6735,5735 Z M 6738,5744 L 6921,5744 6921,6306 6738,6306 6738,5744 Z"/>
            <path fill="rgb(239,201,205)" stroke="none" d="M 6738,5744 L 6921,5744 6921,6306 6738,6306 6738,5744 Z M 6741,5753 L 6918,5753 6918,6297 6741,6297 6741,5753 Z"/>
            <path fill="rgb(239,202,206)" stroke="none" d="M 6741,5753 L 6918,5753 6918,6297 6741,6297 6741,5753 Z M 6744,5762 L 6915,5762 6915,6288 6744,6288 6744,5762 Z"/>
            <path fill="rgb(239,203,206)" stroke="none" d="M 6744,5762 L 6915,5762 6915,6288 6744,6288 6744,5762 Z M 6747,5771 L 6912,5771 6912,6279 6747,6279 6747,5771 Z"/>
            <path fill="rgb(239,204,207)" stroke="none" d="M 6747,5771 L 6912,5771 6912,6279 6747,6279 6747,5771 Z M 6750,5780 L 6909,5780 6909,6270 6750,6270 6750,5780 Z"/>
            <path fill="rgb(240,205,208)" stroke="none" d="M 6750,5780 L 6909,5780 6909,6270 6750,6270 6750,5780 Z M 6753,5789 L 6906,5789 6906,6261 6753,6261 6753,5789 Z"/>
            <path fill="rgb(240,206,209)" stroke="none" d="M 6753,5789 L 6906,5789 6906,6261 6753,6261 6753,5789 Z M 6756,5799 L 6903,5799 6903,6251 6756,6251 6756,5799 Z"/>
            <path fill="rgb(240,207,210)" stroke="none" d="M 6756,5799 L 6903,5799 6903,6251 6756,6251 6756,5799 Z M 6759,5808 L 6900,5808 6900,6242 6759,6242 6759,5808 Z"/>
            <path fill="rgb(241,208,211)" stroke="none" d="M 6759,5808 L 6900,5808 6900,6242 6759,6242 6759,5808 Z M 6762,5817 L 6897,5817 6897,6233 6762,6233 6762,5817 Z"/>
            <path fill="rgb(241,209,212)" stroke="none" d="M 6762,5817 L 6897,5817 6897,6233 6762,6233 6762,5817 Z M 6765,5826 L 6894,5826 6894,6224 6765,6224 6765,5826 Z"/>
            <path fill="rgb(241,210,213)" stroke="none" d="M 6765,5826 L 6894,5826 6894,6224 6765,6224 6765,5826 Z M 6768,5835 L 6891,5835 6891,6215 6768,6215 6768,5835 Z"/>
            <path fill="rgb(241,211,214)" stroke="none" d="M 6768,5835 L 6891,5835 6891,6215 6768,6215 6768,5835 Z M 6771,5844 L 6888,5844 6888,6206 6771,6206 6771,5844 Z"/>
            <path fill="rgb(242,212,215)" stroke="none" d="M 6771,5844 L 6888,5844 6888,6206 6771,6206 6771,5844 Z M 6774,5853 L 6885,5853 6885,6197 6774,6197 6774,5853 Z"/>
            <path fill="rgb(242,213,216)" stroke="none" d="M 6774,5853 L 6885,5853 6885,6197 6774,6197 6774,5853 Z M 6777,5862 L 6882,5862 6882,6188 6777,6188 6777,5862 Z"/>
            <path fill="rgb(242,214,217)" stroke="none" d="M 6777,5862 L 6882,5862 6882,6188 6777,6188 6777,5862 Z M 6780,5871 L 6879,5871 6879,6179 6780,6179 6780,5871 Z"/>
            <path fill="rgb(243,215,218)" stroke="none" d="M 6780,5871 L 6879,5871 6879,6179 6780,6179 6780,5871 Z M 6783,5880 L 6876,5880 6876,6170 6783,6170 6783,5880 Z"/>
            <path fill="rgb(243,216,219)" stroke="none" d="M 6783,5880 L 6876,5880 6876,6170 6783,6170 6783,5880 Z M 6786,5889 L 6873,5889 6873,6161 6786,6161 6786,5889 Z"/>
            <path fill="rgb(243,217,220)" stroke="none" d="M 6786,5889 L 6873,5889 6873,6161 6786,6161 6786,5889 Z M 6789,5898 L 6870,5898 6870,6152 6789,6152 6789,5898 Z"/>
            <path fill="rgb(243,218,220)" stroke="none" d="M 6789,5898 L 6870,5898 6870,6152 6789,6152 6789,5898 Z M 6792,5907 L 6867,5907 6867,6143 6792,6143 6792,5907 Z"/>
            <path fill="rgb(244,219,221)" stroke="none" d="M 6792,5907 L 6867,5907 6867,6143 6792,6143 6792,5907 Z M 6794,5917 L 6865,5917 6865,6133 6794,6133 6794,5917 Z"/>
            <path fill="rgb(244,220,222)" stroke="none" d="M 6794,5917 L 6865,5917 6865,6133 6794,6133 6794,5917 Z M 6797,5926 L 6862,5926 6862,6124 6797,6124 6797,5926 Z"/>
            <path fill="rgb(244,221,223)" stroke="none" d="M 6797,5926 L 6862,5926 6862,6124 6797,6124 6797,5926 Z M 6800,5935 L 6859,5935 6859,6115 6800,6115 6800,5935 Z"/>
            <path fill="rgb(245,222,224)" stroke="none" d="M 6800,5935 L 6859,5935 6859,6115 6800,6115 6800,5935 Z M 6803,5944 L 6856,5944 6856,6106 6803,6106 6803,5944 Z"/>
            <path fill="rgb(245,223,225)" stroke="none" d="M 6803,5944 L 6856,5944 6856,6106 6803,6106 6803,5944 Z M 6806,5953 L 6853,5953 6853,6097 6806,6097 6806,5953 Z"/>
            <path fill="rgb(245,224,226)" stroke="none" d="M 6806,5953 L 6853,5953 6853,6097 6806,6097 6806,5953 Z M 6809,5962 L 6850,5962 6850,6088 6809,6088 6809,5962 Z"/>
            <path fill="rgb(245,225,227)" stroke="none" d="M 6809,5962 L 6850,5962 6850,6088 6809,6088 6809,5962 Z M 6812,5971 L 6847,5971 6847,6079 6812,6079 6812,5971 Z"/>
            <path fill="rgb(246,226,228)" stroke="none" d="M 6812,5971 L 6847,5971 6847,6079 6812,6079 6812,5971 Z M 6815,5980 L 6844,5980 6844,6070 6815,6070 6815,5980 Z"/>
            <path fill="rgb(246,227,229)" stroke="none" d="M 6815,5980 L 6844,5980 6844,6070 6815,6070 6815,5980 Z M 6818,5989 L 6841,5989 6841,6061 6818,6061 6818,5989 Z"/>
            <path fill="rgb(246,228,230)" stroke="none" d="M 6818,5989 L 6841,5989 6841,6061 6818,6061 6818,5989 Z M 6821,5998 L 6838,5998 6838,6052 6821,6052 6821,5998 Z"/>
            <path fill="rgb(247,229,231)" stroke="none" d="M 6821,5998 L 6838,5998 6838,6052 6821,6052 6821,5998 Z M 6824,6007 L 6835,6007 6835,6043 6824,6043 6824,6007 Z"/>
            <path fill="rgb(247,230,232)" stroke="none" d="M 6824,6007 L 6835,6007 6835,6043 6824,6043 6824,6007 Z M 6827,6016 L 6832,6016 6832,6034 6827,6034 6827,6016 Z"/>
            <path fill="rgb(248,232,234)" stroke="none" d="M 6827,6016 L 6832,6016 6832,6034 6827,6034 6827,6016 Z"/>
           </g>
          </pattern>
         </defs>
         <path style="fill:url(#pattern1)" d="M 6672,7168 L 6672,5843 7202,5537 7202,6862 6672,7168 Z"/>
        </g>
        <path fill="none" stroke="rgb(255,255,255)" stroke-width="40" stroke-linejoin="round" d="M 6672,7168 L 6672,5843 7202,5537 7202,6862 6672,7168 Z"/>
       </g>
      </g>
      <g class="com.sun.star.drawing.ClosedBezierShape">
       <g id="id9">
        <rect class="BoundingBox" stroke="none" fill="none" x="5242" y="4230" width="1981" height="2959"/>
        <path fill="none" stroke="rgb(0,0,0)" stroke-width="40" stroke-linejoin="round" d="M 5615,4823 C 5792,3703 6849,4417 6849,5334 L 7202,5537 7202,6862 6672,7168 5262,6351 5262,5028 5615,4823 Z"/>
       </g>
      </g>
      <g class="com.sun.star.drawing.ClosedBezierShape">
       <g id="id10">
        <rect class="BoundingBox" stroke="none" fill="none" x="5989" y="4713" width="392" height="367"/>
        <path fill="none" stroke="rgb(128,128,128)" stroke-width="40" stroke-linejoin="round" d="M 6009,4839 C 6094,4578 6336,4856 6360,5058 L 6009,4839 Z"/>
       </g>
      </g>
     </g>
    </g>
   </g>
  </g>
 </g>
</svg>