<?xml version="1.0" encoding="UTF-8"?>
<!DOCTYPE svg PUBLIC "-//W3C//DTD SVG 1.1//EN" "http://www.w3.org/Graphics/SVG/1.1/DTD/svg11.dtd">
<svg version="1.2" width="19.18mm" height="28.22mm" viewBox="5412 12410 1918 2822" preserveAspectRatio="xMidYMid" fill-rule="evenodd" stroke-width="28.222" stroke-linejoin="round" xmlns="http://www.w3.org/2000/svg" xmlns:ooo="http://xml.openoffice.org/svg/export" xmlns:xlink="http://www.w3.org/1999/xlink" xmlns:presentation="http://sun.com/xmlns/staroffice/presentation" xmlns:smil="http://www.w3.org/2001/SMIL20/" xmlns:anim="urn:oasis:names:tc:opendocument:xmlns:animation:1.0" xml:space="preserve">
 <defs class="ClipPathGroup">
  <clipPath id="presentation_clip_path" clipPathUnits="userSpaceOnUse">
   <rect x="5412" y="12410" width="1918" height="2822"/>
  </clipPath>
 </defs>
 <defs class="TextShapeIndex">
  <g ooo:slide="id1" ooo:id-list="id3 id4"/>
 </defs>
 <defs class="EmbeddedBulletChars">
  <g id="bullet-char-template(57356)" transform="scale(0.00048828125,-0.00048828125)">
   <path d="M 580,1141 L 1163,571 580,0 -4,571 580,1141 Z"/>
  </g>
  <g id="bullet-char-template(57354)" transform="scale(0.00048828125,-0.00048828125)">
   <path d="M 8,1128 L 1137,1128 1137,0 8,0 8,1128 Z"/>
  </g>
  <g id="bullet-char-template(10146)" transform="scale(0.00048828125,-0.00048828125)">
   <path d="M 174,0 L 602,739 174,1481 1456,739 174,0 Z M 1358,739 L 309,1346 659,739 1358,739 Z"/>
  </g>
  <g id="bullet-char-template(10132)" transform="scale(0.00048828125,-0.00048828125)">
   <path d="M 2015,739 L 1276,0 717,0 1260,543 174,543 174,936 1260,936 717,1481 1274,1481 2015,739 Z"/>
  </g>
  <g id="bullet-char-template(10007)" transform="scale(0.00048828125,-0.00048828125)">
   <path d="M 0,-2 C -7,14 -16,27 -25,37 L 356,567 C 262,823 215,952 215,954 215,979 228,992 255,992 264,992 276,990 289,987 310,991 331,999 354,1012 L 381,999 492,748 772,1049 836,1024 860,1049 C 881,1039 901,1025 922,1006 886,937 835,863 770,784 769,783 710,716 594,584 L 774,223 C 774,196 753,168 711,139 L 727,119 C 717,90 699,76 672,76 641,76 570,178 457,381 L 164,-76 C 142,-110 111,-127 72,-127 30,-127 9,-110 8,-76 1,-67 -2,-52 -2,-32 -2,-23 -1,-13 0,-2 Z"/>
  </g>
  <g id="bullet-char-template(10004)" transform="scale(0.00048828125,-0.00048828125)">
   <path d="M 285,-33 C 182,-33 111,30 74,156 52,228 41,333 41,471 41,549 55,616 82,672 116,743 169,778 240,778 293,778 328,747 346,684 L 369,508 C 377,444 397,411 428,410 L 1163,1116 C 1174,1127 1196,1133 1229,1133 1271,1133 1292,1118 1292,1087 L 1292,965 C 1292,929 1282,901 1262,881 L 442,47 C 390,-6 338,-33 285,-33 Z"/>
  </g>
  <g id="bullet-char-template(9679)" transform="scale(0.00048828125,-0.00048828125)">
   <path d="M 813,0 C 632,0 489,54 383,161 276,268 223,411 223,592 223,773 276,916 383,1023 489,1130 632,1184 813,1184 992,1184 1136,1130 1245,1023 1353,916 1407,772 1407,592 1407,412 1353,268 1245,161 1136,54 992,0 813,0 Z"/>
  </g>
  <g id="bullet-char-template(8226)" transform="scale(0.00048828125,-0.00048828125)">
   <path d="M 346,457 C 273,457 209,483 155,535 101,586 74,649 74,723 74,796 101,859 155,911 209,963 273,989 346,989 419,989 480,963 531,910 582,859 608,796 608,723 608,648 583,586 532,535 482,483 420,457 346,457 Z"/>
  </g>
  <g id="bullet-char-template(8211)" transform="scale(0.00048828125,-0.00048828125)">
   <path d="M -4,459 L 1135,459 1135,606 -4,606 -4,459 Z"/>
  </g>
 </defs>
 <defs class="TextEmbeddedBitmaps"/>
 <g class="SlideGroup">
  <g>
   <g id="id1" class="Slide" clip-path="url(#presentation_clip_path)">
    <g class="Page">
     <g class="Group">
      <g class="com.sun.star.drawing.CustomShape">
       <g id="id3">
        <rect class="BoundingBox" stroke="none" fill="none" x="5412" y="12411" width="1920" height="2822"/>
        <g>
         <defs>
          <linearGradient id="gradient1" x1="5431" y1="13821" x2="7312" y2="13821" gradientUnits="userSpaceOnUse">
           <stop offset="0" style="stop-color:rgb(195,232,200)"/>
           <stop offset="0.5" style="stop-color:rgb(235,247,236)"/>
           <stop offset="1" style="stop-color:rgb(195,232,200)"/>
          </linearGradient>
         </defs>
         <path style="fill:url(#gradient1)" d="M 5432,12868 L 5433,12847 5437,12827 5444,12807 5453,12786 5465,12766 5478,12746 5513,12707 5555,12670 5605,12633 5662,12599 5725,12567 5794,12538 5867,12512 5945,12488 6026,12468 6110,12453 6196,12441 6283,12434 6371,12431 6459,12434 6546,12441 6632,12453 6716,12468 6797,12488 6874,12512 6948,12538 7016,12567 7080,12599 7137,12633 7187,12670 7229,12707 7264,12746 7277,12766 7289,12786 7298,12807 7305,12827 7309,12847 7310,12868 7310,14774 7309,14795 7305,14815 7298,14835 7289,14856 7277,14876 7264,14896 7229,14935 7187,14973 7137,15009 7080,15043 7016,15075 6948,15105 6874,15131 6797,15155 6716,15174 6632,15190 6546,15202 6459,15209 6371,15212 6283,15209 6196,15202 6110,15190 6026,15174 5945,15155 5867,15131 5794,15105 5725,15075 5662,15043 5605,15009 5555,14973 5513,14935 5478,14896 5465,14876 5453,14856 5444,14835 5437,14815 5433,14795 5432,14774 5432,12868 Z"/>
        </g>
        <path fill="none" stroke="rgb(0,0,0)" stroke-width="40" stroke-linejoin="round" d="M 5432,12868 C 5432,12649 5901,12431 6371,12431 6840,12431 7310,12649 7310,12868 L 7310,14774 C 7310,14993 6840,15212 6371,15212 5901,15212 5432,14993 5432,14774 L 5432,12868 Z"/>
        <g>
         <defs>
          <linearGradient id="gradient2" x1="5432" y1="13087" x2="7310" y2="13087" gradientUnits="userSpaceOnUse">
           <stop offset="0" style="stop-color:rgb(195,232,200)"/>
           <stop offset="0.5" style="stop-color:rgb(235,247,236)"/>
           <stop offset="1" style="stop-color:rgb(195,232,200)"/>
          </linearGradient>
         </defs>
         <path style="fill:url(#gradient2)" d="M 5432,12868 L 5433,12889 5437,12909 5444,12929 5453,12950 5465,12970 5478,12990 5513,13029 5555,13067 5605,13103 5662,13137 5725,13169 5794,13199 5867,13225 5945,13249 6026,13268 6110,13284 6196,13296 6283,13303 6371,13306 6459,13303 6546,13296 6632,13284 6716,13268 6797,13249 6874,13225 6948,13199 7016,13169 7080,13137 7137,13103 7187,13067 7229,13029 7264,12990 7277,12970 7289,12950 7298,12929 7305,12909 7309,12889 7310,12868 5432,12868 Z"/>
        </g>
        <path fill="none" stroke="rgb(0,0,0)" stroke-width="40" stroke-linejoin="round" d="M 5432,12868 C 5432,13087 5901,13306 6371,13306 6840,13306 7310,13087 7310,12868"/>
        <path fill="none" stroke="rgb(0,0,0)" stroke-width="40" stroke-linejoin="round" d="M 5432,12431 L 5432,12431 Z"/>
        <path fill="none" stroke="rgb(0,0,0)" stroke-width="40" stroke-linejoin="round" d="M 7310,15212 L 7310,15212 Z"/>
       </g>
      </g>
      <g class="com.sun.star.drawing.CustomShape">
       <g id="id4">
        <rect class="BoundingBox" stroke="none" fill="none" x="5412" y="12410" width="1920" height="923"/>
        <g>
         <defs>
          <linearGradient id="gradient3" x1="6370" y1="12430" x2="6370" y2="13311" gradientUnits="userSpaceOnUse">
           <stop offset="0.1" style="stop-color:rgb(195,232,200)"/>
           <stop offset="1" style="stop-color:rgb(235,247,236)"/>
          </linearGradient>
         </defs>
         <path style="fill:url(#gradient3)" d="M 6370,12430 L 6563,12439 6741,12464 6824,12482 6901,12503 6973,12528 7039,12556 7099,12587 7152,12621 7198,12657 7237,12696 7268,12737 7280,12758 7290,12779 7299,12801 7304,12824 7308,12847 7309,12870 7308,12893 7304,12916 7299,12939 7290,12961 7280,12982 7268,13004 7237,13044 7198,13083 7152,13119 7099,13153 7039,13184 6973,13212 6901,13237 6824,13259 6741,13277 6563,13302 6370,13311 6177,13302 5999,13277 5917,13259 5839,13237 5768,13212 5702,13184 5642,13153 5589,13119 5542,13083 5504,13044 5473,13004 5461,12982 5450,12961 5442,12939 5437,12916 5433,12893 5432,12870 5433,12847 5437,12824 5442,12801 5450,12779 5461,12758 5473,12737 5504,12696 5542,12657 5589,12621 5642,12587 5702,12556 5768,12528 5839,12503 5917,12482 5999,12464 6177,12439 6370,12430 Z"/>
        </g>
        <path fill="none" stroke="rgb(0,0,0)" stroke-width="40" stroke-linejoin="round" d="M 6370,12430 C 6902,12430 7309,12620 7309,12870 7309,13120 6902,13311 6370,13311 5838,13311 5432,13120 5432,12870 5432,12620 5838,12430 6370,12430 Z"/>
       </g>
      </g>
     </g>
    </g>
   </g>
  </g>
 </g>
</svg>