<?xml version="1.0" encoding="UTF-8"?>
<!DOCTYPE svg PUBLIC "-//W3C//DTD SVG 1.1//EN" "http://www.w3.org/Graphics/SVG/1.1/DTD/svg11.dtd">
<svg version="1.2" width="19.81mm" height="19.72mm" viewBox="13179 12800 1981 1972" preserveAspectRatio="xMidYMid" fill-rule="evenodd" stroke-width="28.222" stroke-linejoin="round" xmlns="http://www.w3.org/2000/svg" xmlns:ooo="http://xml.openoffice.org/svg/export" xmlns:xlink="http://www.w3.org/1999/xlink" xmlns:presentation="http://sun.com/xmlns/staroffice/presentation" xmlns:smil="http://www.w3.org/2001/SMIL20/" xmlns:anim="urn:oasis:names:tc:opendocument:xmlns:animation:1.0" xml:space="preserve">
 <defs class="ClipPathGroup">
  <clipPath id="presentation_clip_path" clipPathUnits="userSpaceOnUse">
   <rect x="13179" y="12800" width="1981" height="1972"/>
  </clipPath>
 </defs>
 <defs class="TextShapeIndex">
  <g ooo:slide="id1" ooo:id-list="id3 id4 id5 id6 id7 id8 id9 id10 id11 id12 id13 id14 id15 id16 id17"/>
 </defs>
 <defs class="EmbeddedBulletChars">
  <g id="bullet-char-template(57356)" transform="scale(0.00048828125,-0.00048828125)">
   <path d="M 580,1141 L 1163,571 580,0 -4,571 580,1141 Z"/>
  </g>
  <g id="bullet-char-template(57354)" transform="scale(0.00048828125,-0.00048828125)">
   <path d="M 8,1128 L 1137,1128 1137,0 8,0 8,1128 Z"/>
  </g>
  <g id="bullet-char-template(10146)" transform="scale(0.00048828125,-0.00048828125)">
   <path d="M 174,0 L 602,739 174,1481 1456,739 174,0 Z M 1358,739 L 309,1346 659,739 1358,739 Z"/>
  </g>
  <g id="bullet-char-template(10132)" transform="scale(0.00048828125,-0.00048828125)">
   <path d="M 2015,739 L 1276,0 717,0 1260,543 174,543 174,936 1260,936 717,1481 1274,1481 2015,739 Z"/>
  </g>
  <g id="bullet-char-template(10007)" transform="scale(0.00048828125,-0.00048828125)">
   <path d="M 0,-2 C -7,14 -16,27 -25,37 L 356,567 C 262,823 215,952 215,954 215,979 228,992 255,992 264,992 276,990 289,987 310,991 331,999 354,1012 L 381,999 492,748 772,1049 836,1024 860,1049 C 881,1039 901,1025 922,1006 886,937 835,863 770,784 769,783 710,716 594,584 L 774,223 C 774,196 753,168 711,139 L 727,119 C 717,90 699,76 672,76 641,76 570,178 457,381 L 164,-76 C 142,-110 111,-127 72,-127 30,-127 9,-110 8,-76 1,-67 -2,-52 -2,-32 -2,-23 -1,-13 0,-2 Z"/>
  </g>
  <g id="bullet-char-template(10004)" transform="scale(0.00048828125,-0.00048828125)">
   <path d="M 285,-33 C 182,-33 111,30 74,156 52,228 41,333 41,471 41,549 55,616 82,672 116,743 169,778 240,778 293,778 328,747 346,684 L 369,508 C 377,444 397,411 428,410 L 1163,1116 C 1174,1127 1196,1133 1229,1133 1271,1133 1292,1118 1292,1087 L 1292,965 C 1292,929 1282,901 1262,881 L 442,47 C 390,-6 338,-33 285,-33 Z"/>
  </g>
  <g id="bullet-char-template(9679)" transform="scale(0.00048828125,-0.00048828125)">
   <path d="M 813,0 C 632,0 489,54 383,161 276,268 223,411 223,592 223,773 276,916 383,1023 489,1130 632,1184 813,1184 992,1184 1136,1130 1245,1023 1353,916 1407,772 1407,592 1407,412 1353,268 1245,161 1136,54 992,0 813,0 Z"/>
  </g>
  <g id="bullet-char-template(8226)" transform="scale(0.00048828125,-0.00048828125)">
   <path d="M 346,457 C 273,457 209,483 155,535 101,586 74,649 74,723 74,796 101,859 155,911 209,963 273,989 346,989 419,989 480,963 531,910 582,859 608,796 608,723 608,648 583,586 532,535 482,483 420,457 346,457 Z"/>
  </g>
  <g id="bullet-char-template(8211)" transform="scale(0.00048828125,-0.00048828125)">
   <path d="M -4,459 L 1135,459 1135,606 -4,606 -4,459 Z"/>
  </g>
 </defs>
 <defs class="TextEmbeddedBitmaps"/>
 <g class="SlideGroup">
  <g>
   <g id="id1" class="Slide" clip-path="url(#presentation_clip_path)">
    <g class="Page">
     <g class="Group">
      <g class="com.sun.star.drawing.CustomShape">
       <g id="id3">
        <rect class="BoundingBox" stroke="none" fill="none" x="13179" y="12800" width="1982" height="1974"/>
        <g>
         <defs>
          <pattern id="pattern1" x="13199" y="12820" width="1941" height="1931" patternUnits="userSpaceOnUse">
           <g transform="translate(-13199,-12820)">
            <path fill="rgb(0,115,188)" stroke="none" d="M 13198,12819 L 15140,12819 15140,14751 13198,14751 13198,12819 Z M 12817,12440 L 14743,12440 14743,14356 12817,14356 12817,12440 Z"/>
            <path fill="rgb(1,115,188)" stroke="none" d="M 12817,12440 L 14743,12440 14743,14356 12817,14356 12817,12440 Z M 12825,12448 L 14735,12448 14735,14348 12825,14348 12825,12448 Z"/>
            <path fill="rgb(2,116,188)" stroke="none" d="M 12825,12448 L 14735,12448 14735,14348 12825,14348 12825,12448 Z M 12832,12455 L 14728,12455 14728,14341 12832,14341 12832,12455 Z"/>
            <path fill="rgb(3,116,188)" stroke="none" d="M 12832,12455 L 14728,12455 14728,14341 12832,14341 12832,12455 Z M 12840,12463 L 14720,12463 14720,14333 12840,14333 12840,12463 Z"/>
            <path fill="rgb(4,117,189)" stroke="none" d="M 12840,12463 L 14720,12463 14720,14333 12840,14333 12840,12463 Z M 12848,12471 L 14712,12471 14712,14325 12848,14325 12848,12471 Z"/>
            <path fill="rgb(5,117,189)" stroke="none" d="M 12848,12471 L 14712,12471 14712,14325 12848,14325 12848,12471 Z M 12855,12478 L 14705,12478 14705,14318 12855,14318 12855,12478 Z"/>
            <path fill="rgb(6,118,189)" stroke="none" d="M 12855,12478 L 14705,12478 14705,14318 12855,14318 12855,12478 Z M 12863,12486 L 14697,12486 14697,14310 12863,14310 12863,12486 Z"/>
            <path fill="rgb(7,118,189)" stroke="none" d="M 12863,12486 L 14697,12486 14697,14310 12863,14310 12863,12486 Z M 12871,12493 L 14689,12493 14689,14303 12871,14303 12871,12493 Z"/>
            <path fill="rgb(8,119,190)" stroke="none" d="M 12871,12493 L 14689,12493 14689,14303 12871,14303 12871,12493 Z M 12878,12501 L 14682,12501 14682,14295 12878,14295 12878,12501 Z"/>
            <path fill="rgb(9,119,190)" stroke="none" d="M 12878,12501 L 14682,12501 14682,14295 12878,14295 12878,12501 Z M 12886,12509 L 14674,12509 14674,14287 12886,14287 12886,12509 Z"/>
            <path fill="rgb(10,120,190)" stroke="none" d="M 12886,12509 L 14674,12509 14674,14287 12886,14287 12886,12509 Z M 12894,12516 L 14666,12516 14666,14280 12894,14280 12894,12516 Z"/>
            <path fill="rgb(11,121,190)" stroke="none" d="M 12894,12516 L 14666,12516 14666,14280 12894,14280 12894,12516 Z M 12901,12524 L 14659,12524 14659,14272 12901,14272 12901,12524 Z"/>
            <path fill="rgb(12,121,191)" stroke="none" d="M 12901,12524 L 14659,12524 14659,14272 12901,14272 12901,12524 Z M 12909,12531 L 14651,12531 14651,14265 12909,14265 12909,12531 Z"/>
            <path fill="rgb(13,122,191)" stroke="none" d="M 12909,12531 L 14651,12531 14651,14265 12909,14265 12909,12531 Z M 12917,12539 L 14643,12539 14643,14257 12917,14257 12917,12539 Z"/>
            <path fill="rgb(14,122,191)" stroke="none" d="M 12917,12539 L 14643,12539 14643,14257 12917,14257 12917,12539 Z M 12924,12547 L 14636,12547 14636,14249 12924,14249 12924,12547 Z"/>
            <path fill="rgb(15,123,191)" stroke="none" d="M 12924,12547 L 14636,12547 14636,14249 12924,14249 12924,12547 Z M 12932,12554 L 14628,12554 14628,14242 12932,14242 12932,12554 Z"/>
            <path fill="rgb(16,123,192)" stroke="none" d="M 12932,12554 L 14628,12554 14628,14242 12932,14242 12932,12554 Z M 12940,12562 L 14620,12562 14620,14234 12940,14234 12940,12562 Z"/>
            <path fill="rgb(17,124,192)" stroke="none" d="M 12940,12562 L 14620,12562 14620,14234 12940,14234 12940,12562 Z M 12947,12569 L 14613,12569 14613,14227 12947,14227 12947,12569 Z"/>
            <path fill="rgb(18,124,192)" stroke="none" d="M 12947,12569 L 14613,12569 14613,14227 12947,14227 12947,12569 Z M 12955,12577 L 14605,12577 14605,14219 12955,14219 12955,12577 Z"/>
            <path fill="rgb(19,125,192)" stroke="none" d="M 12955,12577 L 14605,12577 14605,14219 12955,14219 12955,12577 Z M 12962,12585 L 14598,12585 14598,14211 12962,14211 12962,12585 Z"/>
            <path fill="rgb(20,126,193)" stroke="none" d="M 12962,12585 L 14598,12585 14598,14211 12962,14211 12962,12585 Z M 12970,12592 L 14590,12592 14590,14204 12970,14204 12970,12592 Z"/>
            <path fill="rgb(21,126,193)" stroke="none" d="M 12970,12592 L 14590,12592 14590,14204 12970,14204 12970,12592 Z M 12978,12600 L 14582,12600 14582,14196 12978,14196 12978,12600 Z"/>
            <path fill="rgb(22,127,193)" stroke="none" d="M 12978,12600 L 14582,12600 14582,14196 12978,14196 12978,12600 Z M 12985,12608 L 14575,12608 14575,14188 12985,14188 12985,12608 Z"/>
            <path fill="rgb(23,127,193)" stroke="none" d="M 12985,12608 L 14575,12608 14575,14188 12985,14188 12985,12608 Z M 12993,12615 L 14567,12615 14567,14181 12993,14181 12993,12615 Z"/>
            <path fill="rgb(24,128,194)" stroke="none" d="M 12993,12615 L 14567,12615 14567,14181 12993,14181 12993,12615 Z M 13001,12623 L 14559,12623 14559,14173 13001,14173 13001,12623 Z"/>
            <path fill="rgb(25,128,194)" stroke="none" d="M 13001,12623 L 14559,12623 14559,14173 13001,14173 13001,12623 Z M 13008,12630 L 14552,12630 14552,14166 13008,14166 13008,12630 Z"/>
            <path fill="rgb(26,129,194)" stroke="none" d="M 13008,12630 L 14552,12630 14552,14166 13008,14166 13008,12630 Z M 13016,12638 L 14544,12638 14544,14158 13016,14158 13016,12638 Z"/>
            <path fill="rgb(27,129,195)" stroke="none" d="M 13016,12638 L 14544,12638 14544,14158 13016,14158 13016,12638 Z M 13024,12646 L 14536,12646 14536,14150 13024,14150 13024,12646 Z"/>
            <path fill="rgb(28,130,195)" stroke="none" d="M 13024,12646 L 14536,12646 14536,14150 13024,14150 13024,12646 Z M 13031,12653 L 14529,12653 14529,14143 13031,14143 13031,12653 Z"/>
            <path fill="rgb(29,130,195)" stroke="none" d="M 13031,12653 L 14529,12653 14529,14143 13031,14143 13031,12653 Z M 13039,12661 L 14521,12661 14521,14135 13039,14135 13039,12661 Z"/>
            <path fill="rgb(30,131,195)" stroke="none" d="M 13039,12661 L 14521,12661 14521,14135 13039,14135 13039,12661 Z M 13047,12668 L 14513,12668 14513,14128 13047,14128 13047,12668 Z"/>
            <path fill="rgb(31,132,196)" stroke="none" d="M 13047,12668 L 14513,12668 14513,14128 13047,14128 13047,12668 Z M 13054,12676 L 14506,12676 14506,14120 13054,14120 13054,12676 Z"/>
            <path fill="rgb(32,132,196)" stroke="none" d="M 13054,12676 L 14506,12676 14506,14120 13054,14120 13054,12676 Z M 13062,12684 L 14498,12684 14498,14112 13062,14112 13062,12684 Z"/>
            <path fill="rgb(33,133,196)" stroke="none" d="M 13062,12684 L 14498,12684 14498,14112 13062,14112 13062,12684 Z M 13070,12691 L 14490,12691 14490,14105 13070,14105 13070,12691 Z"/>
            <path fill="rgb(34,133,196)" stroke="none" d="M 13070,12691 L 14490,12691 14490,14105 13070,14105 13070,12691 Z M 13077,12699 L 14483,12699 14483,14097 13077,14097 13077,12699 Z"/>
            <path fill="rgb(35,134,197)" stroke="none" d="M 13077,12699 L 14483,12699 14483,14097 13077,14097 13077,12699 Z M 13085,12706 L 14475,12706 14475,14090 13085,14090 13085,12706 Z"/>
            <path fill="rgb(36,134,197)" stroke="none" d="M 13085,12706 L 14475,12706 14475,14090 13085,14090 13085,12706 Z M 13093,12714 L 14467,12714 14467,14082 13093,14082 13093,12714 Z"/>
            <path fill="rgb(37,135,197)" stroke="none" d="M 13093,12714 L 14467,12714 14467,14082 13093,14082 13093,12714 Z M 13100,12722 L 14460,12722 14460,14074 13100,14074 13100,12722 Z"/>
            <path fill="rgb(38,135,197)" stroke="none" d="M 13100,12722 L 14460,12722 14460,14074 13100,14074 13100,12722 Z M 13108,12729 L 14452,12729 14452,14067 13108,14067 13108,12729 Z"/>
            <path fill="rgb(39,136,198)" stroke="none" d="M 13108,12729 L 14452,12729 14452,14067 13108,14067 13108,12729 Z M 13115,12737 L 14445,12737 14445,14059 13115,14059 13115,12737 Z"/>
            <path fill="rgb(40,137,198)" stroke="none" d="M 13115,12737 L 14445,12737 14445,14059 13115,14059 13115,12737 Z M 13123,12745 L 14437,12745 14437,14051 13123,14051 13123,12745 Z"/>
            <path fill="rgb(41,137,198)" stroke="none" d="M 13123,12745 L 14437,12745 14437,14051 13123,14051 13123,12745 Z M 13131,12752 L 14429,12752 14429,14044 13131,14044 13131,12752 Z"/>
            <path fill="rgb(42,138,198)" stroke="none" d="M 13131,12752 L 14429,12752 14429,14044 13131,14044 13131,12752 Z M 13138,12760 L 14422,12760 14422,14036 13138,14036 13138,12760 Z"/>
            <path fill="rgb(43,138,199)" stroke="none" d="M 13138,12760 L 14422,12760 14422,14036 13138,14036 13138,12760 Z M 13146,12767 L 14414,12767 14414,14029 13146,14029 13146,12767 Z"/>
            <path fill="rgb(44,139,199)" stroke="none" d="M 13146,12767 L 14414,12767 14414,14029 13146,14029 13146,12767 Z M 13154,12775 L 14406,12775 14406,14021 13154,14021 13154,12775 Z"/>
            <path fill="rgb(45,139,199)" stroke="none" d="M 13154,12775 L 14406,12775 14406,14021 13154,14021 13154,12775 Z M 13161,12783 L 14399,12783 14399,14013 13161,14013 13161,12783 Z"/>
            <path fill="rgb(46,140,199)" stroke="none" d="M 13161,12783 L 14399,12783 14399,14013 13161,14013 13161,12783 Z M 13169,12790 L 14391,12790 14391,14006 13169,14006 13169,12790 Z"/>
            <path fill="rgb(47,140,200)" stroke="none" d="M 13169,12790 L 14391,12790 14391,14006 13169,14006 13169,12790 Z M 13177,12798 L 14383,12798 14383,13998 13177,13998 13177,12798 Z"/>
            <path fill="rgb(48,141,200)" stroke="none" d="M 13177,12798 L 14383,12798 14383,13998 13177,13998 13177,12798 Z M 13183,12804 L 14376,12804 14376,13991 13183,13991 13183,12804 Z"/>
            <path fill="rgb(49,142,200)" stroke="none" d="M 13183,12804 L 14376,12804 14376,13991 13183,13991 13183,12804 Z M 13191,12812 L 14368,12812 14368,13983 13191,13983 13191,12812 Z"/>
            <path fill="rgb(50,142,200)" stroke="none" d="M 13191,12812 L 14368,12812 14368,13983 13191,13983 13191,12812 Z M 13199,12820 L 14360,12820 14360,13975 13199,13975 13199,12820 Z"/>
            <path fill="rgb(51,143,201)" stroke="none" d="M 13199,12820 L 14360,12820 14360,13975 13199,13975 13199,12820 Z M 13206,12827 L 14353,12827 14353,13968 13206,13968 13206,12827 Z"/>
            <path fill="rgb(52,143,201)" stroke="none" d="M 13206,12827 L 14353,12827 14353,13968 13206,13968 13206,12827 Z M 13214,12835 L 14345,12835 14345,13960 13214,13960 13214,12835 Z"/>
            <path fill="rgb(53,144,201)" stroke="none" d="M 13214,12835 L 14345,12835 14345,13960 13214,13960 13214,12835 Z M 13222,12842 L 14337,12842 14337,13953 13222,13953 13222,12842 Z"/>
            <path fill="rgb(54,144,202)" stroke="none" d="M 13222,12842 L 14337,12842 14337,13953 13222,13953 13222,12842 Z M 13229,12850 L 14330,12850 14330,13945 13229,13945 13229,12850 Z"/>
            <path fill="rgb(55,145,202)" stroke="none" d="M 13229,12850 L 14330,12850 14330,13945 13229,13945 13229,12850 Z M 13237,12858 L 14322,12858 14322,13937 13237,13937 13237,12858 Z"/>
            <path fill="rgb(56,145,202)" stroke="none" d="M 13237,12858 L 14322,12858 14322,13937 13237,13937 13237,12858 Z M 13245,12865 L 14314,12865 14314,13930 13245,13930 13245,12865 Z"/>
            <path fill="rgb(57,146,202)" stroke="none" d="M 13245,12865 L 14314,12865 14314,13930 13245,13930 13245,12865 Z M 13252,12873 L 14307,12873 14307,13922 13252,13922 13252,12873 Z"/>
            <path fill="rgb(58,146,203)" stroke="none" d="M 13252,12873 L 14307,12873 14307,13922 13252,13922 13252,12873 Z M 13260,12881 L 14299,12881 14299,13914 13260,13914 13260,12881 Z"/>
            <path fill="rgb(59,147,203)" stroke="none" d="M 13260,12881 L 14299,12881 14299,13914 13260,13914 13260,12881 Z M 13267,12888 L 14292,12888 14292,13907 13267,13907 13267,12888 Z"/>
            <path fill="rgb(60,148,203)" stroke="none" d="M 13267,12888 L 14292,12888 14292,13907 13267,13907 13267,12888 Z M 13275,12896 L 14284,12896 14284,13899 13275,13899 13275,12896 Z"/>
            <path fill="rgb(61,148,203)" stroke="none" d="M 13275,12896 L 14284,12896 14284,13899 13275,13899 13275,12896 Z M 13283,12903 L 14276,12903 14276,13892 13283,13892 13283,12903 Z"/>
            <path fill="rgb(62,149,204)" stroke="none" d="M 13283,12903 L 14276,12903 14276,13892 13283,13892 13283,12903 Z M 13290,12911 L 14269,12911 14269,13884 13290,13884 13290,12911 Z"/>
            <path fill="rgb(63,149,204)" stroke="none" d="M 13290,12911 L 14269,12911 14269,13884 13290,13884 13290,12911 Z M 13298,12919 L 14261,12919 14261,13876 13298,13876 13298,12919 Z"/>
            <path fill="rgb(64,150,204)" stroke="none" d="M 13298,12919 L 14261,12919 14261,13876 13298,13876 13298,12919 Z M 13306,12926 L 14253,12926 14253,13869 13306,13869 13306,12926 Z"/>
            <path fill="rgb(65,150,204)" stroke="none" d="M 13306,12926 L 14253,12926 14253,13869 13306,13869 13306,12926 Z M 13313,12934 L 14246,12934 14246,13861 13313,13861 13313,12934 Z"/>
            <path fill="rgb(66,151,205)" stroke="none" d="M 13313,12934 L 14246,12934 14246,13861 13313,13861 13313,12934 Z M 13321,12941 L 14238,12941 14238,13854 13321,13854 13321,12941 Z"/>
            <path fill="rgb(67,151,205)" stroke="none" d="M 13321,12941 L 14238,12941 14238,13854 13321,13854 13321,12941 Z M 13329,12949 L 14230,12949 14230,13846 13329,13846 13329,12949 Z"/>
            <path fill="rgb(68,152,205)" stroke="none" d="M 13329,12949 L 14230,12949 14230,13846 13329,13846 13329,12949 Z M 13336,12957 L 14223,12957 14223,13838 13336,13838 13336,12957 Z"/>
            <path fill="rgb(69,153,205)" stroke="none" d="M 13336,12957 L 14223,12957 14223,13838 13336,13838 13336,12957 Z M 13344,12964 L 14215,12964 14215,13831 13344,13831 13344,12964 Z"/>
            <path fill="rgb(70,153,206)" stroke="none" d="M 13344,12964 L 14215,12964 14215,13831 13344,13831 13344,12964 Z M 13352,12972 L 14207,12972 14207,13823 13352,13823 13352,12972 Z"/>
            <path fill="rgb(71,154,206)" stroke="none" d="M 13352,12972 L 14207,12972 14207,13823 13352,13823 13352,12972 Z M 13359,12979 L 14200,12979 14200,13816 13359,13816 13359,12979 Z"/>
            <path fill="rgb(72,154,206)" stroke="none" d="M 13359,12979 L 14200,12979 14200,13816 13359,13816 13359,12979 Z M 13367,12987 L 14192,12987 14192,13808 13367,13808 13367,12987 Z"/>
            <path fill="rgb(73,155,206)" stroke="none" d="M 13367,12987 L 14192,12987 14192,13808 13367,13808 13367,12987 Z M 13375,12995 L 14184,12995 14184,13800 13375,13800 13375,12995 Z"/>
            <path fill="rgb(74,155,207)" stroke="none" d="M 13375,12995 L 14184,12995 14184,13800 13375,13800 13375,12995 Z M 13382,13002 L 14177,13002 14177,13793 13382,13793 13382,13002 Z"/>
            <path fill="rgb(75,156,207)" stroke="none" d="M 13382,13002 L 14177,13002 14177,13793 13382,13793 13382,13002 Z M 13390,13010 L 14169,13010 14169,13785 13390,13785 13390,13010 Z"/>
            <path fill="rgb(76,156,207)" stroke="none" d="M 13390,13010 L 14169,13010 14169,13785 13390,13785 13390,13010 Z M 13398,13017 L 14161,13017 14161,13778 13398,13778 13398,13017 Z"/>
            <path fill="rgb(77,157,208)" stroke="none" d="M 13398,13017 L 14161,13017 14161,13778 13398,13778 13398,13017 Z M 13405,13025 L 14154,13025 14154,13770 13405,13770 13405,13025 Z"/>
            <path fill="rgb(78,157,208)" stroke="none" d="M 13405,13025 L 14154,13025 14154,13770 13405,13770 13405,13025 Z M 13413,13033 L 14146,13033 14146,13762 13413,13762 13413,13033 Z"/>
            <path fill="rgb(79,158,208)" stroke="none" d="M 13413,13033 L 14146,13033 14146,13762 13413,13762 13413,13033 Z M 13420,13040 L 14139,13040 14139,13755 13420,13755 13420,13040 Z"/>
            <path fill="rgb(80,159,208)" stroke="none" d="M 13420,13040 L 14139,13040 14139,13755 13420,13755 13420,13040 Z M 13428,13048 L 14131,13048 14131,13747 13428,13747 13428,13048 Z"/>
            <path fill="rgb(81,159,209)" stroke="none" d="M 13428,13048 L 14131,13048 14131,13747 13428,13747 13428,13048 Z M 13436,13056 L 14123,13056 14123,13739 13436,13739 13436,13056 Z"/>
            <path fill="rgb(82,160,209)" stroke="none" d="M 13436,13056 L 14123,13056 14123,13739 13436,13739 13436,13056 Z M 13443,13063 L 14116,13063 14116,13732 13443,13732 13443,13063 Z"/>
            <path fill="rgb(83,160,209)" stroke="none" d="M 13443,13063 L 14116,13063 14116,13732 13443,13732 13443,13063 Z M 13451,13071 L 14108,13071 14108,13724 13451,13724 13451,13071 Z"/>
            <path fill="rgb(84,161,209)" stroke="none" d="M 13451,13071 L 14108,13071 14108,13724 13451,13724 13451,13071 Z M 13459,13078 L 14100,13078 14100,13717 13459,13717 13459,13078 Z"/>
            <path fill="rgb(85,161,210)" stroke="none" d="M 13459,13078 L 14100,13078 14100,13717 13459,13717 13459,13078 Z M 13466,13086 L 14093,13086 14093,13709 13466,13709 13466,13086 Z"/>
            <path fill="rgb(86,162,210)" stroke="none" d="M 13466,13086 L 14093,13086 14093,13709 13466,13709 13466,13086 Z M 13474,13094 L 14085,13094 14085,13701 13474,13701 13474,13094 Z"/>
            <path fill="rgb(87,162,210)" stroke="none" d="M 13474,13094 L 14085,13094 14085,13701 13474,13701 13474,13094 Z M 13482,13101 L 14077,13101 14077,13694 13482,13694 13482,13101 Z"/>
            <path fill="rgb(88,163,210)" stroke="none" d="M 13482,13101 L 14077,13101 14077,13694 13482,13694 13482,13101 Z M 13489,13109 L 14070,13109 14070,13686 13489,13686 13489,13109 Z"/>
            <path fill="rgb(89,164,211)" stroke="none" d="M 13489,13109 L 14070,13109 14070,13686 13489,13686 13489,13109 Z M 13497,13116 L 14062,13116 14062,13679 13497,13679 13497,13116 Z"/>
            <path fill="rgb(90,164,211)" stroke="none" d="M 13497,13116 L 14062,13116 14062,13679 13497,13679 13497,13116 Z M 13505,13124 L 14054,13124 14054,13671 13505,13671 13505,13124 Z"/>
            <path fill="rgb(91,165,211)" stroke="none" d="M 13505,13124 L 14054,13124 14054,13671 13505,13671 13505,13124 Z M 13512,13132 L 14047,13132 14047,13663 13512,13663 13512,13132 Z"/>
            <path fill="rgb(92,165,211)" stroke="none" d="M 13512,13132 L 14047,13132 14047,13663 13512,13663 13512,13132 Z M 13520,13139 L 14039,13139 14039,13656 13520,13656 13520,13139 Z"/>
            <path fill="rgb(93,166,212)" stroke="none" d="M 13520,13139 L 14039,13139 14039,13656 13520,13656 13520,13139 Z M 13528,13147 L 14031,13147 14031,13648 13528,13648 13528,13147 Z"/>
            <path fill="rgb(94,166,212)" stroke="none" d="M 13528,13147 L 14031,13147 14031,13648 13528,13648 13528,13147 Z M 13535,13154 L 14024,13154 14024,13641 13535,13641 13535,13154 Z"/>
            <path fill="rgb(95,167,212)" stroke="none" d="M 13535,13154 L 14024,13154 14024,13641 13535,13641 13535,13154 Z M 13543,13162 L 14016,13162 14016,13633 13543,13633 13543,13162 Z"/>
            <path fill="rgb(96,167,212)" stroke="none" d="M 13543,13162 L 14016,13162 14016,13633 13543,13633 13543,13162 Z M 13551,13170 L 14008,13170 14008,13625 13551,13625 13551,13170 Z"/>
            <path fill="rgb(97,168,213)" stroke="none" d="M 13551,13170 L 14008,13170 14008,13625 13551,13625 13551,13170 Z M 13558,13177 L 14001,13177 14001,13618 13558,13618 13558,13177 Z"/>
            <path fill="rgb(98,169,213)" stroke="none" d="M 13558,13177 L 14001,13177 14001,13618 13558,13618 13558,13177 Z M 13566,13185 L 13993,13185 13993,13610 13566,13610 13566,13185 Z"/>
            <path fill="rgb(99,169,213)" stroke="none" d="M 13566,13185 L 13993,13185 13993,13610 13566,13610 13566,13185 Z M 13573,13193 L 13986,13193 13986,13602 13573,13602 13573,13193 Z"/>
            <path fill="rgb(100,170,213)" stroke="none" d="M 13573,13193 L 13986,13193 13986,13602 13573,13602 13573,13193 Z M 13581,13200 L 13978,13200 13978,13595 13581,13595 13581,13200 Z"/>
            <path fill="rgb(101,170,214)" stroke="none" d="M 13581,13200 L 13978,13200 13978,13595 13581,13595 13581,13200 Z M 13589,13208 L 13970,13208 13970,13587 13589,13587 13589,13208 Z"/>
            <path fill="rgb(102,171,214)" stroke="none" d="M 13589,13208 L 13970,13208 13970,13587 13589,13587 13589,13208 Z M 13596,13215 L 13963,13215 13963,13580 13596,13580 13596,13215 Z"/>
            <path fill="rgb(103,171,214)" stroke="none" d="M 13596,13215 L 13963,13215 13963,13580 13596,13580 13596,13215 Z M 13604,13223 L 13955,13223 13955,13572 13604,13572 13604,13223 Z"/>
            <path fill="rgb(104,172,215)" stroke="none" d="M 13604,13223 L 13955,13223 13955,13572 13604,13572 13604,13223 Z M 13612,13231 L 13947,13231 13947,13564 13612,13564 13612,13231 Z"/>
            <path fill="rgb(105,172,215)" stroke="none" d="M 13612,13231 L 13947,13231 13947,13564 13612,13564 13612,13231 Z M 13619,13238 L 13940,13238 13940,13557 13619,13557 13619,13238 Z"/>
            <path fill="rgb(106,173,215)" stroke="none" d="M 13619,13238 L 13940,13238 13940,13557 13619,13557 13619,13238 Z M 13627,13246 L 13932,13246 13932,13549 13627,13549 13627,13246 Z"/>
            <path fill="rgb(107,173,215)" stroke="none" d="M 13627,13246 L 13932,13246 13932,13549 13627,13549 13627,13246 Z M 13635,13253 L 13924,13253 13924,13542 13635,13542 13635,13253 Z"/>
            <path fill="rgb(108,174,216)" stroke="none" d="M 13635,13253 L 13924,13253 13924,13542 13635,13542 13635,13253 Z M 13642,13261 L 13917,13261 13917,13534 13642,13534 13642,13261 Z"/>
            <path fill="rgb(109,175,216)" stroke="none" d="M 13642,13261 L 13917,13261 13917,13534 13642,13534 13642,13261 Z M 13650,13269 L 13909,13269 13909,13526 13650,13526 13650,13269 Z"/>
            <path fill="rgb(110,175,216)" stroke="none" d="M 13650,13269 L 13909,13269 13909,13526 13650,13526 13650,13269 Z M 13658,13276 L 13901,13276 13901,13519 13658,13519 13658,13276 Z"/>
            <path fill="rgb(111,176,216)" stroke="none" d="M 13658,13276 L 13901,13276 13901,13519 13658,13519 13658,13276 Z M 13665,13284 L 13894,13284 13894,13511 13665,13511 13665,13284 Z"/>
            <path fill="rgb(112,176,217)" stroke="none" d="M 13665,13284 L 13894,13284 13894,13511 13665,13511 13665,13284 Z M 13673,13291 L 13886,13291 13886,13504 13673,13504 13673,13291 Z"/>
            <path fill="rgb(113,177,217)" stroke="none" d="M 13673,13291 L 13886,13291 13886,13504 13673,13504 13673,13291 Z M 13681,13299 L 13878,13299 13878,13496 13681,13496 13681,13299 Z"/>
            <path fill="rgb(114,177,217)" stroke="none" d="M 13681,13299 L 13878,13299 13878,13496 13681,13496 13681,13299 Z M 13688,13307 L 13871,13307 13871,13488 13688,13488 13688,13307 Z"/>
            <path fill="rgb(115,178,217)" stroke="none" d="M 13688,13307 L 13871,13307 13871,13488 13688,13488 13688,13307 Z M 13696,13314 L 13863,13314 13863,13481 13696,13481 13696,13314 Z"/>
            <path fill="rgb(116,178,218)" stroke="none" d="M 13696,13314 L 13863,13314 13863,13481 13696,13481 13696,13314 Z M 13704,13322 L 13855,13322 13855,13473 13704,13473 13704,13322 Z"/>
            <path fill="rgb(117,179,218)" stroke="none" d="M 13704,13322 L 13855,13322 13855,13473 13704,13473 13704,13322 Z M 13711,13330 L 13848,13330 13848,13465 13711,13465 13711,13330 Z"/>
            <path fill="rgb(118,180,218)" stroke="none" d="M 13711,13330 L 13848,13330 13848,13465 13711,13465 13711,13330 Z M 13719,13337 L 13840,13337 13840,13458 13719,13458 13719,13337 Z"/>
            <path fill="rgb(119,180,218)" stroke="none" d="M 13719,13337 L 13840,13337 13840,13458 13719,13458 13719,13337 Z M 13726,13345 L 13833,13345 13833,13450 13726,13450 13726,13345 Z"/>
            <path fill="rgb(120,181,219)" stroke="none" d="M 13726,13345 L 13833,13345 13833,13450 13726,13450 13726,13345 Z M 13734,13352 L 13825,13352 13825,13443 13734,13443 13734,13352 Z"/>
            <path fill="rgb(121,181,219)" stroke="none" d="M 13734,13352 L 13825,13352 13825,13443 13734,13443 13734,13352 Z M 13742,13360 L 13817,13360 13817,13435 13742,13435 13742,13360 Z"/>
            <path fill="rgb(122,182,219)" stroke="none" d="M 13742,13360 L 13817,13360 13817,13435 13742,13435 13742,13360 Z M 13749,13368 L 13810,13368 13810,13427 13749,13427 13749,13368 Z"/>
            <path fill="rgb(123,182,219)" stroke="none" d="M 13749,13368 L 13810,13368 13810,13427 13749,13427 13749,13368 Z M 13757,13375 L 13802,13375 13802,13420 13757,13420 13757,13375 Z"/>
            <path fill="rgb(124,183,220)" stroke="none" d="M 13757,13375 L 13802,13375 13802,13420 13757,13420 13757,13375 Z M 13765,13383 L 13794,13383 13794,13412 13765,13412 13765,13383 Z"/>
            <path fill="rgb(125,183,220)" stroke="none" d="M 13765,13383 L 13794,13383 13794,13412 13765,13412 13765,13383 Z M 13772,13390 L 13787,13390 13787,13405 13772,13405 13772,13390 Z"/>
            <path fill="rgb(127,185,221)" stroke="none" d="M 13772,13390 L 13787,13390 13787,13405 13772,13405 13772,13390 Z"/>
           </g>
          </pattern>
         </defs>
         <path style="fill:url(#pattern1)" d="M 14169,12820 L 14271,12825 14369,12839 14463,12862 14553,12894 14638,12934 14718,12981 14792,13036 14860,13097 14922,13165 14977,13239 15025,13319 15065,13403 15097,13493 15120,13586 15134,13684 15139,13785 15134,13886 15120,13984 15097,14077 15065,14167 15025,14251 14977,14331 14922,14405 14860,14473 14792,14534 14718,14589 14638,14636 14553,14676 14463,14708 14369,14731 14271,14745 14169,14750 14067,14745 13969,14731 13875,14708 13785,14676 13700,14636 13620,14589 13546,14534 13478,14473 13416,14405 13361,14331 13313,14251 13273,14167 13241,14077 13218,13984 13204,13886 13199,13785 13204,13684 13218,13586 13241,13493 13273,13403 13313,13319 13361,13239 13416,13165 13478,13097 13546,13036 13620,12981 13700,12934 13785,12894 13875,12862 13969,12839 14067,12825 14169,12820 Z"/>
        </g>
        <path fill="none" stroke="rgb(0,0,0)" stroke-width="40" stroke-linejoin="round" d="M 14169,12820 C 14719,12820 15139,13238 15139,13785 15139,14332 14719,14750 14169,14750 13619,14750 13199,14332 13199,13785 13199,13238 13619,12820 14169,12820 Z"/>
       </g>
      </g>
      <g class="com.sun.star.drawing.PolyPolygonShape">
       <g id="id4">
        <rect class="BoundingBox" stroke="none" fill="none" x="13610" y="12862" width="1227" height="1849"/>
        <path fill="rgb(57,181,74)" stroke="none" d="M 13630,13008 L 13846,13008 13953,12945 14169,12883 14492,13008 14277,13008 14384,13194 14061,13506 13953,13568 13846,13631 14061,13755 14169,13880 14492,13880 14816,14067 14600,14440 14277,14690 14277,14316 14061,14067 14169,13942 13953,13755 13738,13693 13630,13444 13630,13008 Z"/>
        <path fill="none" stroke="rgb(128,128,128)" stroke-width="40" stroke-linejoin="round" d="M 13630,13008 L 13846,13008 13953,12945 14169,12883 14492,13008 14277,13008 14384,13194 14061,13506 13953,13568 13846,13631 14061,13755 14169,13880 14492,13880 14816,14067 14600,14440 14277,14690 14277,14316 14061,14067 14169,13942 13953,13755 13738,13693 13630,13444 13630,13008 Z"/>
       </g>
      </g>
      <g class="com.sun.star.drawing.ClosedBezierShape">
       <g id="id5">
        <rect class="BoundingBox" stroke="none" fill="none" x="14580" y="12975" width="531" height="865"/>
        <path fill="rgb(57,181,74)" stroke="none" d="M 15031,13818 L 15031,13756 14923,13569 14923,13382 14816,13133 14600,13008 C 14816,12883 15247,13693 15031,13818 Z"/>
        <path fill="none" stroke="rgb(128,128,128)" stroke-width="40" stroke-linejoin="round" d="M 15031,13818 L 15031,13756 14923,13569 14923,13382 14816,13133 14600,13008 C 14816,12883 15247,13693 15031,13818 Z"/>
       </g>
      </g>
      <g class="Group">
       <g class="com.sun.star.drawing.LineShape">
        <g id="id6">
         <rect class="BoundingBox" stroke="none" fill="none" x="13933" y="13611" width="149" height="477"/>
         <path fill="none" stroke="rgb(255,255,255)" stroke-width="40" stroke-linejoin="round" d="M 14061,14067 L 13953,13631"/>
        </g>
       </g>
       <g class="com.sun.star.drawing.LineShape">
        <g id="id7">
         <rect class="BoundingBox" stroke="none" fill="none" x="14041" y="13735" width="149" height="352"/>
         <path fill="none" stroke="rgb(255,255,255)" stroke-width="40" stroke-linejoin="round" d="M 14061,14066 L 14169,13755"/>
        </g>
       </g>
       <g class="com.sun.star.drawing.LineShape">
        <g id="id8">
         <rect class="BoundingBox" stroke="none" fill="none" x="14149" y="13735" width="149" height="352"/>
         <path fill="none" stroke="rgb(255,255,255)" stroke-width="40" stroke-linejoin="round" d="M 14277,14066 L 14169,13755"/>
        </g>
       </g>
       <g class="com.sun.star.drawing.LineShape">
        <g id="id9">
         <rect class="BoundingBox" stroke="none" fill="none" x="14257" y="13611" width="149" height="477"/>
         <path fill="none" stroke="rgb(255,255,255)" stroke-width="40" stroke-linejoin="round" d="M 14277,14067 L 14385,13631"/>
        </g>
       </g>
      </g>
      <g class="Group">
       <g class="com.sun.star.drawing.LineShape">
        <g id="id10">
         <rect class="BoundingBox" stroke="none" fill="none" x="14580" y="13611" width="149" height="477"/>
         <path fill="none" stroke="rgb(255,255,255)" stroke-width="40" stroke-linejoin="round" d="M 14708,14067 L 14600,13631"/>
        </g>
       </g>
       <g class="com.sun.star.drawing.LineShape">
        <g id="id11">
         <rect class="BoundingBox" stroke="none" fill="none" x="14688" y="13735" width="149" height="352"/>
         <path fill="none" stroke="rgb(255,255,255)" stroke-width="40" stroke-linejoin="round" d="M 14708,14066 L 14816,13755"/>
        </g>
       </g>
       <g class="com.sun.star.drawing.LineShape">
        <g id="id12">
         <rect class="BoundingBox" stroke="none" fill="none" x="14796" y="13735" width="149" height="352"/>
         <path fill="none" stroke="rgb(255,255,255)" stroke-width="40" stroke-linejoin="round" d="M 14924,14066 L 14816,13755"/>
        </g>
       </g>
       <g class="com.sun.star.drawing.LineShape">
        <g id="id13">
         <rect class="BoundingBox" stroke="none" fill="none" x="14903" y="13611" width="149" height="477"/>
         <path fill="none" stroke="rgb(255,255,255)" stroke-width="40" stroke-linejoin="round" d="M 14923,14067 L 15031,13631"/>
        </g>
       </g>
      </g>
      <g class="Group">
       <g class="com.sun.star.drawing.LineShape">
        <g id="id14">
         <rect class="BoundingBox" stroke="none" fill="none" x="13287" y="13611" width="149" height="477"/>
         <path fill="none" stroke="rgb(255,255,255)" stroke-width="40" stroke-linejoin="round" d="M 13415,14067 L 13307,13631"/>
        </g>
       </g>
       <g class="com.sun.star.drawing.LineShape">
        <g id="id15">
         <rect class="BoundingBox" stroke="none" fill="none" x="13395" y="13735" width="149" height="352"/>
         <path fill="none" stroke="rgb(255,255,255)" stroke-width="40" stroke-linejoin="round" d="M 13415,14066 L 13523,13755"/>
        </g>
       </g>
       <g class="com.sun.star.drawing.LineShape">
        <g id="id16">
         <rect class="BoundingBox" stroke="none" fill="none" x="13502" y="13735" width="149" height="352"/>
         <path fill="none" stroke="rgb(255,255,255)" stroke-width="40" stroke-linejoin="round" d="M 13630,14066 L 13522,13755"/>
        </g>
       </g>
       <g class="com.sun.star.drawing.LineShape">
        <g id="id17">
         <rect class="BoundingBox" stroke="none" fill="none" x="13610" y="13611" width="149" height="477"/>
         <path fill="none" stroke="rgb(255,255,255)" stroke-width="40" stroke-linejoin="round" d="M 13630,14067 L 13738,13631"/>
        </g>
       </g>
      </g>
     </g>
    </g>
   </g>
  </g>
 </g>
</svg>