<?xml version="1.0" encoding="UTF-8"?>
<!DOCTYPE svg PUBLIC "-//W3C//DTD SVG 1.1//EN" "http://www.w3.org/Graphics/SVG/1.1/DTD/svg11.dtd">
<svg version="1.2" width="22.58mm" height="20mm" viewBox="15233 7912 2258 2000" preserveAspectRatio="xMidYMid" fill-rule="evenodd" stroke-width="28.222" stroke-linejoin="round" xmlns="http://www.w3.org/2000/svg" xmlns:ooo="http://xml.openoffice.org/svg/export" xmlns:xlink="http://www.w3.org/1999/xlink" xmlns:presentation="http://sun.com/xmlns/staroffice/presentation" xmlns:smil="http://www.w3.org/2001/SMIL20/" xmlns:anim="urn:oasis:names:tc:opendocument:xmlns:animation:1.0" xml:space="preserve">
 <defs class="ClipPathGroup">
  <clipPath id="presentation_clip_path" clipPathUnits="userSpaceOnUse">
   <rect x="15233" y="7912" width="2258" height="2000"/>
  </clipPath>
 </defs>
 <defs class="TextShapeIndex">
  <g ooo:slide="id1" ooo:id-list="id3 id4 id5 id6 id7 id8 id9 id10 id11 id12 id13"/>
 </defs>
 <defs class="EmbeddedBulletChars">
  <g id="bullet-char-template(57356)" transform="scale(0.00048828125,-0.00048828125)">
   <path d="M 580,1141 L 1163,571 580,0 -4,571 580,1141 Z"/>
  </g>
  <g id="bullet-char-template(57354)" transform="scale(0.00048828125,-0.00048828125)">
   <path d="M 8,1128 L 1137,1128 1137,0 8,0 8,1128 Z"/>
  </g>
  <g id="bullet-char-template(10146)" transform="scale(0.00048828125,-0.00048828125)">
   <path d="M 174,0 L 602,739 174,1481 1456,739 174,0 Z M 1358,739 L 309,1346 659,739 1358,739 Z"/>
  </g>
  <g id="bullet-char-template(10132)" transform="scale(0.00048828125,-0.00048828125)">
   <path d="M 2015,739 L 1276,0 717,0 1260,543 174,543 174,936 1260,936 717,1481 1274,1481 2015,739 Z"/>
  </g>
  <g id="bullet-char-template(10007)" transform="scale(0.00048828125,-0.00048828125)">
   <path d="M 0,-2 C -7,14 -16,27 -25,37 L 356,567 C 262,823 215,952 215,954 215,979 228,992 255,992 264,992 276,990 289,987 310,991 331,999 354,1012 L 381,999 492,748 772,1049 836,1024 860,1049 C 881,1039 901,1025 922,1006 886,937 835,863 770,784 769,783 710,716 594,584 L 774,223 C 774,196 753,168 711,139 L 727,119 C 717,90 699,76 672,76 641,76 570,178 457,381 L 164,-76 C 142,-110 111,-127 72,-127 30,-127 9,-110 8,-76 1,-67 -2,-52 -2,-32 -2,-23 -1,-13 0,-2 Z"/>
  </g>
  <g id="bullet-char-template(10004)" transform="scale(0.00048828125,-0.00048828125)">
   <path d="M 285,-33 C 182,-33 111,30 74,156 52,228 41,333 41,471 41,549 55,616 82,672 116,743 169,778 240,778 293,778 328,747 346,684 L 369,508 C 377,444 397,411 428,410 L 1163,1116 C 1174,1127 1196,1133 1229,1133 1271,1133 1292,1118 1292,1087 L 1292,965 C 1292,929 1282,901 1262,881 L 442,47 C 390,-6 338,-33 285,-33 Z"/>
  </g>
  <g id="bullet-char-template(9679)" transform="scale(0.00048828125,-0.00048828125)">
   <path d="M 813,0 C 632,0 489,54 383,161 276,268 223,411 223,592 223,773 276,916 383,1023 489,1130 632,1184 813,1184 992,1184 1136,1130 1245,1023 1353,916 1407,772 1407,592 1407,412 1353,268 1245,161 1136,54 992,0 813,0 Z"/>
  </g>
  <g id="bullet-char-template(8226)" transform="scale(0.00048828125,-0.00048828125)">
   <path d="M 346,457 C 273,457 209,483 155,535 101,586 74,649 74,723 74,796 101,859 155,911 209,963 273,989 346,989 419,989 480,963 531,910 582,859 608,796 608,723 608,648 583,586 532,535 482,483 420,457 346,457 Z"/>
  </g>
  <g id="bullet-char-template(8211)" transform="scale(0.00048828125,-0.00048828125)">
   <path d="M -4,459 L 1135,459 1135,606 -4,606 -4,459 Z"/>
  </g>
 </defs>
 <defs class="TextEmbeddedBitmaps"/>
 <g class="SlideGroup">
  <g>
   <g id="id1" class="Slide" clip-path="url(#presentation_clip_path)">
    <g class="Page">
     <g class="Group">
      <g class="com.sun.star.drawing.ClosedBezierShape">
       <g id="id3">
        <rect class="BoundingBox" stroke="none" fill="none" x="15233" y="8901" width="1286" height="978"/>
        <g>
         <defs>
          <pattern id="pattern1" x="15253" y="8921" width="1245" height="937" patternUnits="userSpaceOnUse">
           <g transform="translate(-15253,-8921)">
            <path fill="rgb(0,115,188)" stroke="none" d="M 15252,8920 L 16498,8920 16498,9858 15252,9858 15252,8920 Z M 15008,8736 L 16244,8736 16244,9666 15008,9666 15008,8736 Z"/>
            <path fill="rgb(1,115,188)" stroke="none" d="M 15008,8736 L 16244,8736 16244,9666 15008,9666 15008,8736 Z M 15013,8740 L 16239,8740 16239,9662 15013,9662 15013,8740 Z"/>
            <path fill="rgb(2,116,188)" stroke="none" d="M 15013,8740 L 16239,8740 16239,9662 15013,9662 15013,8740 Z M 15018,8744 L 16234,8744 16234,9658 15018,9658 15018,8744 Z"/>
            <path fill="rgb(3,116,188)" stroke="none" d="M 15018,8744 L 16234,8744 16234,9658 15018,9658 15018,8744 Z M 15023,8747 L 16229,8747 16229,9655 15023,9655 15023,8747 Z"/>
            <path fill="rgb(4,117,189)" stroke="none" d="M 15023,8747 L 16229,8747 16229,9655 15023,9655 15023,8747 Z M 15028,8751 L 16224,8751 16224,9651 15028,9651 15028,8751 Z"/>
            <path fill="rgb(5,117,189)" stroke="none" d="M 15028,8751 L 16224,8751 16224,9651 15028,9651 15028,8751 Z M 15033,8755 L 16219,8755 16219,9647 15033,9647 15033,8755 Z"/>
            <path fill="rgb(6,118,189)" stroke="none" d="M 15033,8755 L 16219,8755 16219,9647 15033,9647 15033,8755 Z M 15038,8758 L 16214,8758 16214,9644 15038,9644 15038,8758 Z"/>
            <path fill="rgb(7,118,189)" stroke="none" d="M 15038,8758 L 16214,8758 16214,9644 15038,9644 15038,8758 Z M 15043,8762 L 16209,8762 16209,9640 15043,9640 15043,8762 Z"/>
            <path fill="rgb(8,119,190)" stroke="none" d="M 15043,8762 L 16209,8762 16209,9640 15043,9640 15043,8762 Z M 15048,8766 L 16204,8766 16204,9636 15048,9636 15048,8766 Z"/>
            <path fill="rgb(9,119,190)" stroke="none" d="M 15048,8766 L 16204,8766 16204,9636 15048,9636 15048,8766 Z M 15053,8769 L 16199,8769 16199,9633 15053,9633 15053,8769 Z"/>
            <path fill="rgb(10,120,190)" stroke="none" d="M 15053,8769 L 16199,8769 16199,9633 15053,9633 15053,8769 Z M 15058,8773 L 16194,8773 16194,9629 15058,9629 15058,8773 Z"/>
            <path fill="rgb(11,121,190)" stroke="none" d="M 15058,8773 L 16194,8773 16194,9629 15058,9629 15058,8773 Z M 15062,8777 L 16190,8777 16190,9625 15062,9625 15062,8777 Z"/>
            <path fill="rgb(12,121,191)" stroke="none" d="M 15062,8777 L 16190,8777 16190,9625 15062,9625 15062,8777 Z M 15067,8781 L 16185,8781 16185,9621 15067,9621 15067,8781 Z"/>
            <path fill="rgb(13,122,191)" stroke="none" d="M 15067,8781 L 16185,8781 16185,9621 15067,9621 15067,8781 Z M 15072,8784 L 16180,8784 16180,9618 15072,9618 15072,8784 Z"/>
            <path fill="rgb(14,122,191)" stroke="none" d="M 15072,8784 L 16180,8784 16180,9618 15072,9618 15072,8784 Z M 15077,8788 L 16175,8788 16175,9614 15077,9614 15077,8788 Z"/>
            <path fill="rgb(15,123,191)" stroke="none" d="M 15077,8788 L 16175,8788 16175,9614 15077,9614 15077,8788 Z M 15082,8792 L 16170,8792 16170,9610 15082,9610 15082,8792 Z"/>
            <path fill="rgb(16,123,192)" stroke="none" d="M 15082,8792 L 16170,8792 16170,9610 15082,9610 15082,8792 Z M 15087,8795 L 16165,8795 16165,9607 15087,9607 15087,8795 Z"/>
            <path fill="rgb(17,124,192)" stroke="none" d="M 15087,8795 L 16165,8795 16165,9607 15087,9607 15087,8795 Z M 15092,8799 L 16160,8799 16160,9603 15092,9603 15092,8799 Z"/>
            <path fill="rgb(18,124,192)" stroke="none" d="M 15092,8799 L 16160,8799 16160,9603 15092,9603 15092,8799 Z M 15097,8803 L 16155,8803 16155,9599 15097,9599 15097,8803 Z"/>
            <path fill="rgb(19,125,192)" stroke="none" d="M 15097,8803 L 16155,8803 16155,9599 15097,9599 15097,8803 Z M 15102,8806 L 16150,8806 16150,9596 15102,9596 15102,8806 Z"/>
            <path fill="rgb(20,126,193)" stroke="none" d="M 15102,8806 L 16150,8806 16150,9596 15102,9596 15102,8806 Z M 15107,8810 L 16145,8810 16145,9592 15107,9592 15107,8810 Z"/>
            <path fill="rgb(21,126,193)" stroke="none" d="M 15107,8810 L 16145,8810 16145,9592 15107,9592 15107,8810 Z M 15112,8814 L 16140,8814 16140,9588 15112,9588 15112,8814 Z"/>
            <path fill="rgb(22,127,193)" stroke="none" d="M 15112,8814 L 16140,8814 16140,9588 15112,9588 15112,8814 Z M 15116,8818 L 16136,8818 16136,9584 15116,9584 15116,8818 Z"/>
            <path fill="rgb(23,127,193)" stroke="none" d="M 15116,8818 L 16136,8818 16136,9584 15116,9584 15116,8818 Z M 15121,8821 L 16131,8821 16131,9581 15121,9581 15121,8821 Z"/>
            <path fill="rgb(24,128,194)" stroke="none" d="M 15121,8821 L 16131,8821 16131,9581 15121,9581 15121,8821 Z M 15126,8825 L 16126,8825 16126,9577 15126,9577 15126,8825 Z"/>
            <path fill="rgb(25,128,194)" stroke="none" d="M 15126,8825 L 16126,8825 16126,9577 15126,9577 15126,8825 Z M 15131,8829 L 16121,8829 16121,9573 15131,9573 15131,8829 Z"/>
            <path fill="rgb(26,129,194)" stroke="none" d="M 15131,8829 L 16121,8829 16121,9573 15131,9573 15131,8829 Z M 15136,8832 L 16116,8832 16116,9570 15136,9570 15136,8832 Z"/>
            <path fill="rgb(27,129,195)" stroke="none" d="M 15136,8832 L 16116,8832 16116,9570 15136,9570 15136,8832 Z M 15141,8836 L 16111,8836 16111,9566 15141,9566 15141,8836 Z"/>
            <path fill="rgb(28,130,195)" stroke="none" d="M 15141,8836 L 16111,8836 16111,9566 15141,9566 15141,8836 Z M 15146,8840 L 16106,8840 16106,9562 15146,9562 15146,8840 Z"/>
            <path fill="rgb(29,130,195)" stroke="none" d="M 15146,8840 L 16106,8840 16106,9562 15146,9562 15146,8840 Z M 15151,8843 L 16101,8843 16101,9559 15151,9559 15151,8843 Z"/>
            <path fill="rgb(30,131,195)" stroke="none" d="M 15151,8843 L 16101,8843 16101,9559 15151,9559 15151,8843 Z M 15156,8847 L 16096,8847 16096,9555 15156,9555 15156,8847 Z"/>
            <path fill="rgb(31,132,196)" stroke="none" d="M 15156,8847 L 16096,8847 16096,9555 15156,9555 15156,8847 Z M 15161,8851 L 16091,8851 16091,9551 15161,9551 15161,8851 Z"/>
            <path fill="rgb(32,132,196)" stroke="none" d="M 15161,8851 L 16091,8851 16091,9551 15161,9551 15161,8851 Z M 15166,8854 L 16086,8854 16086,9548 15166,9548 15166,8854 Z"/>
            <path fill="rgb(33,133,196)" stroke="none" d="M 15166,8854 L 16086,8854 16086,9548 15166,9548 15166,8854 Z M 15170,8858 L 16082,8858 16082,9544 15170,9544 15170,8858 Z"/>
            <path fill="rgb(34,133,196)" stroke="none" d="M 15170,8858 L 16082,8858 16082,9544 15170,9544 15170,8858 Z M 15175,8862 L 16077,8862 16077,9540 15175,9540 15175,8862 Z"/>
            <path fill="rgb(35,134,197)" stroke="none" d="M 15175,8862 L 16077,8862 16077,9540 15175,9540 15175,8862 Z M 15180,8866 L 16072,8866 16072,9536 15180,9536 15180,8866 Z"/>
            <path fill="rgb(36,134,197)" stroke="none" d="M 15180,8866 L 16072,8866 16072,9536 15180,9536 15180,8866 Z M 15185,8869 L 16067,8869 16067,9533 15185,9533 15185,8869 Z"/>
            <path fill="rgb(37,135,197)" stroke="none" d="M 15185,8869 L 16067,8869 16067,9533 15185,9533 15185,8869 Z M 15190,8873 L 16062,8873 16062,9529 15190,9529 15190,8873 Z"/>
            <path fill="rgb(38,135,197)" stroke="none" d="M 15190,8873 L 16062,8873 16062,9529 15190,9529 15190,8873 Z M 15195,8877 L 16057,8877 16057,9525 15195,9525 15195,8877 Z"/>
            <path fill="rgb(39,136,198)" stroke="none" d="M 15195,8877 L 16057,8877 16057,9525 15195,9525 15195,8877 Z M 15200,8880 L 16052,8880 16052,9522 15200,9522 15200,8880 Z"/>
            <path fill="rgb(40,137,198)" stroke="none" d="M 15200,8880 L 16052,8880 16052,9522 15200,9522 15200,8880 Z M 15205,8884 L 16047,8884 16047,9518 15205,9518 15205,8884 Z"/>
            <path fill="rgb(41,137,198)" stroke="none" d="M 15205,8884 L 16047,8884 16047,9518 15205,9518 15205,8884 Z M 15210,8888 L 16042,8888 16042,9514 15210,9514 15210,8888 Z"/>
            <path fill="rgb(42,138,198)" stroke="none" d="M 15210,8888 L 16042,8888 16042,9514 15210,9514 15210,8888 Z M 15215,8891 L 16037,8891 16037,9511 15215,9511 15215,8891 Z"/>
            <path fill="rgb(43,138,199)" stroke="none" d="M 15215,8891 L 16037,8891 16037,9511 15215,9511 15215,8891 Z M 15220,8895 L 16032,8895 16032,9507 15220,9507 15220,8895 Z"/>
            <path fill="rgb(44,139,199)" stroke="none" d="M 15220,8895 L 16032,8895 16032,9507 15220,9507 15220,8895 Z M 15224,8899 L 16028,8899 16028,9503 15224,9503 15224,8899 Z"/>
            <path fill="rgb(45,139,199)" stroke="none" d="M 15224,8899 L 16028,8899 16028,9503 15224,9503 15224,8899 Z M 15229,8902 L 16023,8902 16023,9499 15229,9499 15229,8902 Z"/>
            <path fill="rgb(46,140,199)" stroke="none" d="M 15229,8902 L 16023,8902 16023,9499 15229,9499 15229,8902 Z M 15233,8905 L 16018,8905 16018,9496 15233,9496 15233,8905 Z"/>
            <path fill="rgb(47,140,200)" stroke="none" d="M 15233,8905 L 16018,8905 16018,9496 15233,9496 15233,8905 Z M 15238,8909 L 16013,8909 16013,9492 15238,9492 15238,8909 Z"/>
            <path fill="rgb(48,141,200)" stroke="none" d="M 15238,8909 L 16013,8909 16013,9492 15238,9492 15238,8909 Z M 15243,8913 L 16008,8913 16008,9488 15243,9488 15243,8913 Z"/>
            <path fill="rgb(49,142,200)" stroke="none" d="M 15243,8913 L 16008,8913 16008,9488 15243,9488 15243,8913 Z M 15248,8916 L 16003,8916 16003,9485 15248,9485 15248,8916 Z"/>
            <path fill="rgb(50,142,200)" stroke="none" d="M 15248,8916 L 16003,8916 16003,9485 15248,9485 15248,8916 Z M 15253,8920 L 15998,8920 15998,9481 15253,9481 15253,8920 Z"/>
            <path fill="rgb(51,143,201)" stroke="none" d="M 15253,8920 L 15998,8920 15998,9481 15253,9481 15253,8920 Z M 15258,8924 L 15993,8924 15993,9477 15258,9477 15258,8924 Z"/>
            <path fill="rgb(52,143,201)" stroke="none" d="M 15258,8924 L 15993,8924 15993,9477 15258,9477 15258,8924 Z M 15263,8927 L 15988,8927 15988,9474 15263,9474 15263,8927 Z"/>
            <path fill="rgb(53,144,201)" stroke="none" d="M 15263,8927 L 15988,8927 15988,9474 15263,9474 15263,8927 Z M 15268,8931 L 15983,8931 15983,9470 15268,9470 15268,8931 Z"/>
            <path fill="rgb(54,144,202)" stroke="none" d="M 15268,8931 L 15983,8931 15983,9470 15268,9470 15268,8931 Z M 15273,8935 L 15978,8935 15978,9466 15273,9466 15273,8935 Z"/>
            <path fill="rgb(55,145,202)" stroke="none" d="M 15273,8935 L 15978,8935 15978,9466 15273,9466 15273,8935 Z M 15277,8939 L 15974,8939 15974,9462 15277,9462 15277,8939 Z"/>
            <path fill="rgb(56,145,202)" stroke="none" d="M 15277,8939 L 15974,8939 15974,9462 15277,9462 15277,8939 Z M 15282,8942 L 15969,8942 15969,9459 15282,9459 15282,8942 Z"/>
            <path fill="rgb(57,146,202)" stroke="none" d="M 15282,8942 L 15969,8942 15969,9459 15282,9459 15282,8942 Z M 15287,8946 L 15964,8946 15964,9455 15287,9455 15287,8946 Z"/>
            <path fill="rgb(58,146,203)" stroke="none" d="M 15287,8946 L 15964,8946 15964,9455 15287,9455 15287,8946 Z M 15292,8950 L 15959,8950 15959,9451 15292,9451 15292,8950 Z"/>
            <path fill="rgb(59,147,203)" stroke="none" d="M 15292,8950 L 15959,8950 15959,9451 15292,9451 15292,8950 Z M 15297,8953 L 15954,8953 15954,9448 15297,9448 15297,8953 Z"/>
            <path fill="rgb(60,148,203)" stroke="none" d="M 15297,8953 L 15954,8953 15954,9448 15297,9448 15297,8953 Z M 15302,8957 L 15949,8957 15949,9444 15302,9444 15302,8957 Z"/>
            <path fill="rgb(61,148,203)" stroke="none" d="M 15302,8957 L 15949,8957 15949,9444 15302,9444 15302,8957 Z M 15307,8961 L 15944,8961 15944,9440 15307,9440 15307,8961 Z"/>
            <path fill="rgb(62,149,204)" stroke="none" d="M 15307,8961 L 15944,8961 15944,9440 15307,9440 15307,8961 Z M 15312,8964 L 15939,8964 15939,9437 15312,9437 15312,8964 Z"/>
            <path fill="rgb(63,149,204)" stroke="none" d="M 15312,8964 L 15939,8964 15939,9437 15312,9437 15312,8964 Z M 15317,8968 L 15934,8968 15934,9433 15317,9433 15317,8968 Z"/>
            <path fill="rgb(64,150,204)" stroke="none" d="M 15317,8968 L 15934,8968 15934,9433 15317,9433 15317,8968 Z M 15322,8972 L 15929,8972 15929,9429 15322,9429 15322,8972 Z"/>
            <path fill="rgb(65,150,204)" stroke="none" d="M 15322,8972 L 15929,8972 15929,9429 15322,9429 15322,8972 Z M 15327,8975 L 15924,8975 15924,9426 15327,9426 15327,8975 Z"/>
            <path fill="rgb(66,151,205)" stroke="none" d="M 15327,8975 L 15924,8975 15924,9426 15327,9426 15327,8975 Z M 15331,8979 L 15920,8979 15920,9422 15331,9422 15331,8979 Z"/>
            <path fill="rgb(67,151,205)" stroke="none" d="M 15331,8979 L 15920,8979 15920,9422 15331,9422 15331,8979 Z M 15336,8983 L 15915,8983 15915,9418 15336,9418 15336,8983 Z"/>
            <path fill="rgb(68,152,205)" stroke="none" d="M 15336,8983 L 15915,8983 15915,9418 15336,9418 15336,8983 Z M 15341,8987 L 15910,8987 15910,9414 15341,9414 15341,8987 Z"/>
            <path fill="rgb(69,153,205)" stroke="none" d="M 15341,8987 L 15910,8987 15910,9414 15341,9414 15341,8987 Z M 15346,8990 L 15905,8990 15905,9411 15346,9411 15346,8990 Z"/>
            <path fill="rgb(70,153,206)" stroke="none" d="M 15346,8990 L 15905,8990 15905,9411 15346,9411 15346,8990 Z M 15351,8994 L 15900,8994 15900,9407 15351,9407 15351,8994 Z"/>
            <path fill="rgb(71,154,206)" stroke="none" d="M 15351,8994 L 15900,8994 15900,9407 15351,9407 15351,8994 Z M 15356,8998 L 15895,8998 15895,9403 15356,9403 15356,8998 Z"/>
            <path fill="rgb(72,154,206)" stroke="none" d="M 15356,8998 L 15895,8998 15895,9403 15356,9403 15356,8998 Z M 15361,9001 L 15890,9001 15890,9400 15361,9400 15361,9001 Z"/>
            <path fill="rgb(73,155,206)" stroke="none" d="M 15361,9001 L 15890,9001 15890,9400 15361,9400 15361,9001 Z M 15366,9005 L 15885,9005 15885,9396 15366,9396 15366,9005 Z"/>
            <path fill="rgb(74,155,207)" stroke="none" d="M 15366,9005 L 15885,9005 15885,9396 15366,9396 15366,9005 Z M 15371,9009 L 15880,9009 15880,9392 15371,9392 15371,9009 Z"/>
            <path fill="rgb(75,156,207)" stroke="none" d="M 15371,9009 L 15880,9009 15880,9392 15371,9392 15371,9009 Z M 15376,9012 L 15875,9012 15875,9389 15376,9389 15376,9012 Z"/>
            <path fill="rgb(76,156,207)" stroke="none" d="M 15376,9012 L 15875,9012 15875,9389 15376,9389 15376,9012 Z M 15381,9016 L 15870,9016 15870,9385 15381,9385 15381,9016 Z"/>
            <path fill="rgb(77,157,208)" stroke="none" d="M 15381,9016 L 15870,9016 15870,9385 15381,9385 15381,9016 Z M 15385,9020 L 15866,9020 15866,9381 15385,9381 15385,9020 Z"/>
            <path fill="rgb(78,157,208)" stroke="none" d="M 15385,9020 L 15866,9020 15866,9381 15385,9381 15385,9020 Z M 15390,9024 L 15861,9024 15861,9377 15390,9377 15390,9024 Z"/>
            <path fill="rgb(79,158,208)" stroke="none" d="M 15390,9024 L 15861,9024 15861,9377 15390,9377 15390,9024 Z M 15395,9027 L 15856,9027 15856,9374 15395,9374 15395,9027 Z"/>
            <path fill="rgb(80,159,208)" stroke="none" d="M 15395,9027 L 15856,9027 15856,9374 15395,9374 15395,9027 Z M 15400,9031 L 15851,9031 15851,9370 15400,9370 15400,9031 Z"/>
            <path fill="rgb(81,159,209)" stroke="none" d="M 15400,9031 L 15851,9031 15851,9370 15400,9370 15400,9031 Z M 15405,9035 L 15846,9035 15846,9366 15405,9366 15405,9035 Z"/>
            <path fill="rgb(82,160,209)" stroke="none" d="M 15405,9035 L 15846,9035 15846,9366 15405,9366 15405,9035 Z M 15410,9038 L 15841,9038 15841,9363 15410,9363 15410,9038 Z"/>
            <path fill="rgb(83,160,209)" stroke="none" d="M 15410,9038 L 15841,9038 15841,9363 15410,9363 15410,9038 Z M 15415,9042 L 15836,9042 15836,9359 15415,9359 15415,9042 Z"/>
            <path fill="rgb(84,161,209)" stroke="none" d="M 15415,9042 L 15836,9042 15836,9359 15415,9359 15415,9042 Z M 15420,9046 L 15831,9046 15831,9355 15420,9355 15420,9046 Z"/>
            <path fill="rgb(85,161,210)" stroke="none" d="M 15420,9046 L 15831,9046 15831,9355 15420,9355 15420,9046 Z M 15425,9049 L 15826,9049 15826,9352 15425,9352 15425,9049 Z"/>
            <path fill="rgb(86,162,210)" stroke="none" d="M 15425,9049 L 15826,9049 15826,9352 15425,9352 15425,9049 Z M 15430,9053 L 15821,9053 15821,9348 15430,9348 15430,9053 Z"/>
            <path fill="rgb(87,162,210)" stroke="none" d="M 15430,9053 L 15821,9053 15821,9348 15430,9348 15430,9053 Z M 15435,9057 L 15816,9057 15816,9344 15435,9344 15435,9057 Z"/>
            <path fill="rgb(88,163,210)" stroke="none" d="M 15435,9057 L 15816,9057 15816,9344 15435,9344 15435,9057 Z M 15439,9061 L 15812,9061 15812,9340 15439,9340 15439,9061 Z"/>
            <path fill="rgb(89,164,211)" stroke="none" d="M 15439,9061 L 15812,9061 15812,9340 15439,9340 15439,9061 Z M 15444,9064 L 15807,9064 15807,9337 15444,9337 15444,9064 Z"/>
            <path fill="rgb(90,164,211)" stroke="none" d="M 15444,9064 L 15807,9064 15807,9337 15444,9337 15444,9064 Z M 15449,9068 L 15802,9068 15802,9333 15449,9333 15449,9068 Z"/>
            <path fill="rgb(91,165,211)" stroke="none" d="M 15449,9068 L 15802,9068 15802,9333 15449,9333 15449,9068 Z M 15454,9072 L 15797,9072 15797,9329 15454,9329 15454,9072 Z"/>
            <path fill="rgb(92,165,211)" stroke="none" d="M 15454,9072 L 15797,9072 15797,9329 15454,9329 15454,9072 Z M 15459,9075 L 15792,9075 15792,9326 15459,9326 15459,9075 Z"/>
            <path fill="rgb(93,166,212)" stroke="none" d="M 15459,9075 L 15792,9075 15792,9326 15459,9326 15459,9075 Z M 15464,9079 L 15787,9079 15787,9322 15464,9322 15464,9079 Z"/>
            <path fill="rgb(94,166,212)" stroke="none" d="M 15464,9079 L 15787,9079 15787,9322 15464,9322 15464,9079 Z M 15469,9083 L 15782,9083 15782,9318 15469,9318 15469,9083 Z"/>
            <path fill="rgb(95,167,212)" stroke="none" d="M 15469,9083 L 15782,9083 15782,9318 15469,9318 15469,9083 Z M 15474,9086 L 15777,9086 15777,9315 15474,9315 15474,9086 Z"/>
            <path fill="rgb(96,167,212)" stroke="none" d="M 15474,9086 L 15777,9086 15777,9315 15474,9315 15474,9086 Z M 15479,9090 L 15772,9090 15772,9311 15479,9311 15479,9090 Z"/>
            <path fill="rgb(97,168,213)" stroke="none" d="M 15479,9090 L 15772,9090 15772,9311 15479,9311 15479,9090 Z M 15484,9094 L 15767,9094 15767,9307 15484,9307 15484,9094 Z"/>
            <path fill="rgb(98,169,213)" stroke="none" d="M 15484,9094 L 15767,9094 15767,9307 15484,9307 15484,9094 Z M 15489,9097 L 15762,9097 15762,9304 15489,9304 15489,9097 Z"/>
            <path fill="rgb(99,169,213)" stroke="none" d="M 15489,9097 L 15762,9097 15762,9304 15489,9304 15489,9097 Z M 15493,9101 L 15758,9101 15758,9300 15493,9300 15493,9101 Z"/>
            <path fill="rgb(100,170,213)" stroke="none" d="M 15493,9101 L 15758,9101 15758,9300 15493,9300 15493,9101 Z M 15498,9105 L 15753,9105 15753,9296 15498,9296 15498,9105 Z"/>
            <path fill="rgb(101,170,214)" stroke="none" d="M 15498,9105 L 15753,9105 15753,9296 15498,9296 15498,9105 Z M 15503,9109 L 15748,9109 15748,9292 15503,9292 15503,9109 Z"/>
            <path fill="rgb(102,171,214)" stroke="none" d="M 15503,9109 L 15748,9109 15748,9292 15503,9292 15503,9109 Z M 15508,9112 L 15743,9112 15743,9289 15508,9289 15508,9112 Z"/>
            <path fill="rgb(103,171,214)" stroke="none" d="M 15508,9112 L 15743,9112 15743,9289 15508,9289 15508,9112 Z M 15513,9116 L 15738,9116 15738,9285 15513,9285 15513,9116 Z"/>
            <path fill="rgb(104,172,215)" stroke="none" d="M 15513,9116 L 15738,9116 15738,9285 15513,9285 15513,9116 Z M 15518,9120 L 15733,9120 15733,9281 15518,9281 15518,9120 Z"/>
            <path fill="rgb(105,172,215)" stroke="none" d="M 15518,9120 L 15733,9120 15733,9281 15518,9281 15518,9120 Z M 15523,9123 L 15728,9123 15728,9278 15523,9278 15523,9123 Z"/>
            <path fill="rgb(106,173,215)" stroke="none" d="M 15523,9123 L 15728,9123 15728,9278 15523,9278 15523,9123 Z M 15528,9127 L 15723,9127 15723,9274 15528,9274 15528,9127 Z"/>
            <path fill="rgb(107,173,215)" stroke="none" d="M 15528,9127 L 15723,9127 15723,9274 15528,9274 15528,9127 Z M 15533,9131 L 15718,9131 15718,9270 15533,9270 15533,9131 Z"/>
            <path fill="rgb(108,174,216)" stroke="none" d="M 15533,9131 L 15718,9131 15718,9270 15533,9270 15533,9131 Z M 15538,9134 L 15713,9134 15713,9267 15538,9267 15538,9134 Z"/>
            <path fill="rgb(109,175,216)" stroke="none" d="M 15538,9134 L 15713,9134 15713,9267 15538,9267 15538,9134 Z M 15543,9138 L 15708,9138 15708,9263 15543,9263 15543,9138 Z"/>
            <path fill="rgb(110,175,216)" stroke="none" d="M 15543,9138 L 15708,9138 15708,9263 15543,9263 15543,9138 Z M 15547,9142 L 15704,9142 15704,9259 15547,9259 15547,9142 Z"/>
            <path fill="rgb(111,176,216)" stroke="none" d="M 15547,9142 L 15704,9142 15704,9259 15547,9259 15547,9142 Z M 15552,9146 L 15699,9146 15699,9255 15552,9255 15552,9146 Z"/>
            <path fill="rgb(112,176,217)" stroke="none" d="M 15552,9146 L 15699,9146 15699,9255 15552,9255 15552,9146 Z M 15557,9149 L 15694,9149 15694,9252 15557,9252 15557,9149 Z"/>
            <path fill="rgb(113,177,217)" stroke="none" d="M 15557,9149 L 15694,9149 15694,9252 15557,9252 15557,9149 Z M 15562,9153 L 15689,9153 15689,9248 15562,9248 15562,9153 Z"/>
            <path fill="rgb(114,177,217)" stroke="none" d="M 15562,9153 L 15689,9153 15689,9248 15562,9248 15562,9153 Z M 15567,9157 L 15684,9157 15684,9244 15567,9244 15567,9157 Z"/>
            <path fill="rgb(115,178,217)" stroke="none" d="M 15567,9157 L 15684,9157 15684,9244 15567,9244 15567,9157 Z M 15572,9160 L 15679,9160 15679,9241 15572,9241 15572,9160 Z"/>
            <path fill="rgb(116,178,218)" stroke="none" d="M 15572,9160 L 15679,9160 15679,9241 15572,9241 15572,9160 Z M 15577,9164 L 15674,9164 15674,9237 15577,9237 15577,9164 Z"/>
            <path fill="rgb(117,179,218)" stroke="none" d="M 15577,9164 L 15674,9164 15674,9237 15577,9237 15577,9164 Z M 15582,9168 L 15669,9168 15669,9233 15582,9233 15582,9168 Z"/>
            <path fill="rgb(118,180,218)" stroke="none" d="M 15582,9168 L 15669,9168 15669,9233 15582,9233 15582,9168 Z M 15587,9171 L 15664,9171 15664,9230 15587,9230 15587,9171 Z"/>
            <path fill="rgb(119,180,218)" stroke="none" d="M 15587,9171 L 15664,9171 15664,9230 15587,9230 15587,9171 Z M 15592,9175 L 15659,9175 15659,9226 15592,9226 15592,9175 Z"/>
            <path fill="rgb(120,181,219)" stroke="none" d="M 15592,9175 L 15659,9175 15659,9226 15592,9226 15592,9175 Z M 15597,9179 L 15654,9179 15654,9222 15597,9222 15597,9179 Z"/>
            <path fill="rgb(121,181,219)" stroke="none" d="M 15597,9179 L 15654,9179 15654,9222 15597,9222 15597,9179 Z M 15601,9183 L 15650,9183 15650,9218 15601,9218 15601,9183 Z"/>
            <path fill="rgb(122,182,219)" stroke="none" d="M 15601,9183 L 15650,9183 15650,9218 15601,9218 15601,9183 Z M 15606,9186 L 15645,9186 15645,9215 15606,9215 15606,9186 Z"/>
            <path fill="rgb(123,182,219)" stroke="none" d="M 15606,9186 L 15645,9186 15645,9215 15606,9215 15606,9186 Z M 15611,9190 L 15640,9190 15640,9211 15611,9211 15611,9190 Z"/>
            <path fill="rgb(124,183,220)" stroke="none" d="M 15611,9190 L 15640,9190 15640,9211 15611,9211 15611,9190 Z M 15616,9194 L 15635,9194 15635,9207 15616,9207 15616,9194 Z"/>
            <path fill="rgb(125,183,220)" stroke="none" d="M 15616,9194 L 15635,9194 15635,9207 15616,9207 15616,9194 Z M 15621,9197 L 15630,9197 15630,9204 15621,9204 15621,9197 Z"/>
            <path fill="rgb(127,185,221)" stroke="none" d="M 15621,9197 L 15630,9197 15630,9204 15621,9204 15621,9197 Z"/>
           </g>
          </pattern>
         </defs>
         <path style="fill:url(#pattern1)" d="M 15867,8921 L 15963,8925 16049,8937 16126,8955 16194,8980 16253,9011 16304,9048 16348,9089 16385,9135 16415,9184 16440,9236 16460,9291 16475,9348 16485,9406 16492,9465 16497,9583 16457,9622 16406,9660 16345,9697 16275,9732 16198,9763 16115,9792 16028,9816 15937,9836 15844,9849 15751,9857 15658,9857 15568,9850 15481,9835 15399,9810 15323,9776 15288,9755 15255,9731 15253,9672 15254,9609 15258,9543 15267,9476 15280,9408 15298,9341 15322,9275 15351,9212 15388,9152 15431,9097 15482,9048 15541,9005 15608,8970 15685,8943 15771,8927 15867,8921 Z"/>
        </g>
        <path fill="none" stroke="rgb(255,255,255)" stroke-width="40" stroke-linejoin="round" d="M 15867,8921 C 16407,8921 16497,9270 16497,9583 16317,9791 15596,9999 15255,9731 15236,9427 15326,8921 15867,8921 Z"/>
       </g>
      </g>
      <g class="com.sun.star.drawing.ClosedBezierShape">
       <g id="id4">
        <rect class="BoundingBox" stroke="none" fill="none" x="15847" y="9058" width="311" height="719"/>
        <path fill="rgb(255,255,255)" stroke="none" d="M 15867,9130 C 15927,9095 16077,9113 16137,9078 16137,9286 16137,9755 16137,9755 16137,9519 15927,9303 15867,9130 Z"/>
        <path fill="none" stroke="rgb(255,255,255)" stroke-width="40" stroke-linejoin="round" d="M 15867,9130 C 15927,9095 16077,9113 16137,9078 16137,9286 16137,9755 16137,9755 16137,9519 15927,9303 15867,9130 Z"/>
       </g>
      </g>
      <g class="com.sun.star.drawing.ClosedBezierShape">
       <g id="id5">
        <rect class="BoundingBox" stroke="none" fill="none" x="15732" y="8589" width="451" height="606"/>
        <path fill="rgb(249,180,96)" stroke="none" d="M 15932,8609 C 16085,8609 16134,8799 16134,8903 16134,9007 16227,9130 16069,9163 15911,9196 15752,9157 15752,8921 15752,8685 15779,8609 15932,8609 Z"/>
        <path fill="none" stroke="rgb(255,255,255)" stroke-width="40" stroke-linejoin="round" d="M 15932,8609 C 16085,8609 16134,8799 16134,8903 16134,9007 16227,9130 16069,9163 15911,9196 15752,9157 15752,8921 15752,8685 15779,8609 15932,8609 Z"/>
       </g>
      </g>
      <g class="com.sun.star.drawing.ClosedBezierShape">
       <g id="id6">
        <rect class="BoundingBox" stroke="none" fill="none" x="15757" y="8120" width="672" height="875"/>
        <g>
         <defs>
          <pattern id="pattern2" x="15777" y="8141" width="632" height="834" patternUnits="userSpaceOnUse">
           <g transform="translate(-15777,-8141)">
            <path fill="rgb(251,201,142)" stroke="none" d="M 15776,8140 L 16409,8140 16409,8975 15776,8975 15776,8140 Z M 15653,7977 L 16278,7977 16278,8802 15653,8802 15653,7977 Z"/>
            <path fill="rgb(251,201,143)" stroke="none" d="M 15653,7977 L 16278,7977 16278,8802 15653,8802 15653,7977 Z M 15657,7982 L 16274,7982 16274,8797 15657,8797 15657,7982 Z"/>
            <path fill="rgb(251,201,144)" stroke="none" d="M 15657,7982 L 16274,7982 16274,8797 15657,8797 15657,7982 Z M 15660,7986 L 16271,7986 16271,8793 15660,8793 15660,7986 Z"/>
            <path fill="rgb(251,202,145)" stroke="none" d="M 15660,7986 L 16271,7986 16271,8793 15660,8793 15660,7986 Z M 15664,7991 L 16267,7991 16267,8788 15664,8788 15664,7991 Z"/>
            <path fill="rgb(251,202,146)" stroke="none" d="M 15664,7991 L 16267,7991 16267,8788 15664,8788 15664,7991 Z M 15667,7996 L 16264,7996 16264,8783 15667,8783 15667,7996 Z"/>
            <path fill="rgb(251,203,147)" stroke="none" d="M 15667,7996 L 16264,7996 16264,8783 15667,8783 15667,7996 Z M 15671,8000 L 16260,8000 16260,8779 15671,8779 15671,8000 Z"/>
            <path fill="rgb(251,203,148)" stroke="none" d="M 15671,8000 L 16260,8000 16260,8779 15671,8779 15671,8000 Z M 15674,8005 L 16257,8005 16257,8774 15674,8774 15674,8005 Z"/>
            <path fill="rgb(251,204,149)" stroke="none" d="M 15674,8005 L 16257,8005 16257,8774 15674,8774 15674,8005 Z M 15678,8010 L 16253,8010 16253,8769 15678,8769 15678,8010 Z"/>
            <path fill="rgb(251,204,150)" stroke="none" d="M 15678,8010 L 16253,8010 16253,8769 15678,8769 15678,8010 Z M 15681,8014 L 16250,8014 16250,8765 15681,8765 15681,8014 Z"/>
            <path fill="rgb(251,205,151)" stroke="none" d="M 15681,8014 L 16250,8014 16250,8765 15681,8765 15681,8014 Z M 15685,8019 L 16246,8019 16246,8760 15685,8760 15685,8019 Z"/>
            <path fill="rgb(251,205,152)" stroke="none" d="M 15685,8019 L 16246,8019 16246,8760 15685,8760 15685,8019 Z M 15688,8024 L 16243,8024 16243,8755 15688,8755 15688,8024 Z"/>
            <path fill="rgb(251,206,153)" stroke="none" d="M 15688,8024 L 16243,8024 16243,8755 15688,8755 15688,8024 Z M 15692,8028 L 16239,8028 16239,8751 15692,8751 15692,8028 Z"/>
            <path fill="rgb(251,206,154)" stroke="none" d="M 15692,8028 L 16239,8028 16239,8751 15692,8751 15692,8028 Z M 15695,8033 L 16236,8033 16236,8746 15695,8746 15695,8033 Z"/>
            <path fill="rgb(251,207,155)" stroke="none" d="M 15695,8033 L 16236,8033 16236,8746 15695,8746 15695,8033 Z M 15699,8038 L 16232,8038 16232,8741 15699,8741 15699,8038 Z"/>
            <path fill="rgb(251,207,156)" stroke="none" d="M 15699,8038 L 16232,8038 16232,8741 15699,8741 15699,8038 Z M 15702,8042 L 16229,8042 16229,8737 15702,8737 15702,8042 Z"/>
            <path fill="rgb(251,208,157)" stroke="none" d="M 15702,8042 L 16229,8042 16229,8737 15702,8737 15702,8042 Z M 15706,8047 L 16225,8047 16225,8732 15706,8732 15706,8047 Z"/>
            <path fill="rgb(251,208,158)" stroke="none" d="M 15706,8047 L 16225,8047 16225,8732 15706,8732 15706,8047 Z M 15709,8051 L 16222,8051 16222,8728 15709,8728 15709,8051 Z"/>
            <path fill="rgb(251,209,159)" stroke="none" d="M 15709,8051 L 16222,8051 16222,8728 15709,8728 15709,8051 Z M 15713,8056 L 16218,8056 16218,8723 15713,8723 15713,8056 Z"/>
            <path fill="rgb(251,209,160)" stroke="none" d="M 15713,8056 L 16218,8056 16218,8723 15713,8723 15713,8056 Z M 15716,8061 L 16215,8061 16215,8718 15716,8718 15716,8061 Z"/>
            <path fill="rgb(251,210,161)" stroke="none" d="M 15716,8061 L 16215,8061 16215,8718 15716,8718 15716,8061 Z M 15720,8065 L 16211,8065 16211,8714 15720,8714 15720,8065 Z"/>
            <path fill="rgb(251,210,162)" stroke="none" d="M 15720,8065 L 16211,8065 16211,8714 15720,8714 15720,8065 Z M 15723,8070 L 16208,8070 16208,8709 15723,8709 15723,8070 Z"/>
            <path fill="rgb(251,211,163)" stroke="none" d="M 15723,8070 L 16208,8070 16208,8709 15723,8709 15723,8070 Z M 15727,8075 L 16204,8075 16204,8704 15727,8704 15727,8075 Z"/>
            <path fill="rgb(251,211,164)" stroke="none" d="M 15727,8075 L 16204,8075 16204,8704 15727,8704 15727,8075 Z M 15731,8079 L 16200,8079 16200,8700 15731,8700 15731,8079 Z"/>
            <path fill="rgb(251,211,165)" stroke="none" d="M 15731,8079 L 16200,8079 16200,8700 15731,8700 15731,8079 Z M 15734,8084 L 16197,8084 16197,8695 15734,8695 15734,8084 Z"/>
            <path fill="rgb(251,212,166)" stroke="none" d="M 15734,8084 L 16197,8084 16197,8695 15734,8695 15734,8084 Z M 15738,8089 L 16193,8089 16193,8690 15738,8690 15738,8089 Z"/>
            <path fill="rgb(251,212,167)" stroke="none" d="M 15738,8089 L 16193,8089 16193,8690 15738,8690 15738,8089 Z M 15741,8093 L 16190,8093 16190,8686 15741,8686 15741,8093 Z"/>
            <path fill="rgb(251,213,168)" stroke="none" d="M 15741,8093 L 16190,8093 16190,8686 15741,8686 15741,8093 Z M 15745,8098 L 16186,8098 16186,8681 15745,8681 15745,8098 Z"/>
            <path fill="rgb(251,213,169)" stroke="none" d="M 15745,8098 L 16186,8098 16186,8681 15745,8681 15745,8098 Z M 15748,8103 L 16183,8103 16183,8676 15748,8676 15748,8103 Z"/>
            <path fill="rgb(251,214,170)" stroke="none" d="M 15748,8103 L 16183,8103 16183,8676 15748,8676 15748,8103 Z M 15752,8107 L 16179,8107 16179,8672 15752,8672 15752,8107 Z"/>
            <path fill="rgb(251,214,171)" stroke="none" d="M 15752,8107 L 16179,8107 16179,8672 15752,8672 15752,8107 Z M 15755,8112 L 16176,8112 16176,8667 15755,8667 15755,8112 Z"/>
            <path fill="rgb(252,215,172)" stroke="none" d="M 15755,8112 L 16176,8112 16176,8667 15755,8667 15755,8112 Z M 15758,8116 L 16172,8116 16172,8663 15758,8663 15758,8116 Z"/>
            <path fill="rgb(252,215,173)" stroke="none" d="M 15758,8116 L 16172,8116 16172,8663 15758,8663 15758,8116 Z M 15761,8120 L 16169,8120 16169,8658 15761,8658 15761,8120 Z"/>
            <path fill="rgb(252,216,174)" stroke="none" d="M 15761,8120 L 16169,8120 16169,8658 15761,8658 15761,8120 Z M 15765,8125 L 16165,8125 16165,8653 15765,8653 15765,8125 Z"/>
            <path fill="rgb(252,216,175)" stroke="none" d="M 15765,8125 L 16165,8125 16165,8653 15765,8653 15765,8125 Z M 15768,8129 L 16162,8129 16162,8649 15768,8649 15768,8129 Z"/>
            <path fill="rgb(252,217,176)" stroke="none" d="M 15768,8129 L 16162,8129 16162,8649 15768,8649 15768,8129 Z M 15772,8134 L 16158,8134 16158,8644 15772,8644 15772,8134 Z"/>
            <path fill="rgb(252,217,177)" stroke="none" d="M 15772,8134 L 16158,8134 16158,8644 15772,8644 15772,8134 Z M 15775,8139 L 16155,8139 16155,8639 15775,8639 15775,8139 Z"/>
            <path fill="rgb(252,218,178)" stroke="none" d="M 15775,8139 L 16155,8139 16155,8639 15775,8639 15775,8139 Z M 15779,8143 L 16151,8143 16151,8635 15779,8635 15779,8143 Z"/>
            <path fill="rgb(252,218,179)" stroke="none" d="M 15779,8143 L 16151,8143 16151,8635 15779,8635 15779,8143 Z M 15782,8148 L 16148,8148 16148,8630 15782,8630 15782,8148 Z"/>
            <path fill="rgb(252,219,180)" stroke="none" d="M 15782,8148 L 16148,8148 16148,8630 15782,8630 15782,8148 Z M 15786,8153 L 16144,8153 16144,8625 15786,8625 15786,8153 Z"/>
            <path fill="rgb(252,219,181)" stroke="none" d="M 15786,8153 L 16144,8153 16144,8625 15786,8625 15786,8153 Z M 15789,8157 L 16141,8157 16141,8621 15789,8621 15789,8157 Z"/>
            <path fill="rgb(252,220,182)" stroke="none" d="M 15789,8157 L 16141,8157 16141,8621 15789,8621 15789,8157 Z M 15793,8162 L 16137,8162 16137,8616 15793,8616 15793,8162 Z"/>
            <path fill="rgb(252,220,183)" stroke="none" d="M 15793,8162 L 16137,8162 16137,8616 15793,8616 15793,8162 Z M 15796,8167 L 16134,8167 16134,8611 15796,8611 15796,8167 Z"/>
            <path fill="rgb(252,221,184)" stroke="none" d="M 15796,8167 L 16134,8167 16134,8611 15796,8611 15796,8167 Z M 15800,8171 L 16130,8171 16130,8607 15800,8607 15800,8171 Z"/>
            <path fill="rgb(252,221,185)" stroke="none" d="M 15800,8171 L 16130,8171 16130,8607 15800,8607 15800,8171 Z M 15803,8176 L 16127,8176 16127,8602 15803,8602 15803,8176 Z"/>
            <path fill="rgb(252,222,186)" stroke="none" d="M 15803,8176 L 16127,8176 16127,8602 15803,8602 15803,8176 Z M 15807,8181 L 16123,8181 16123,8598 15807,8598 15807,8181 Z"/>
            <path fill="rgb(252,222,187)" stroke="none" d="M 15807,8181 L 16123,8181 16123,8598 15807,8598 15807,8181 Z M 15811,8185 L 16119,8185 16119,8593 15811,8593 15811,8185 Z"/>
            <path fill="rgb(252,222,188)" stroke="none" d="M 15811,8185 L 16119,8185 16119,8593 15811,8593 15811,8185 Z M 15814,8190 L 16116,8190 16116,8588 15814,8588 15814,8190 Z"/>
            <path fill="rgb(252,223,189)" stroke="none" d="M 15814,8190 L 16116,8190 16116,8588 15814,8588 15814,8190 Z M 15818,8194 L 16112,8194 16112,8584 15818,8584 15818,8194 Z"/>
            <path fill="rgb(252,223,190)" stroke="none" d="M 15818,8194 L 16112,8194 16112,8584 15818,8584 15818,8194 Z M 15821,8199 L 16109,8199 16109,8579 15821,8579 15821,8199 Z"/>
            <path fill="rgb(252,224,191)" stroke="none" d="M 15821,8199 L 16109,8199 16109,8579 15821,8579 15821,8199 Z M 15825,8204 L 16105,8204 16105,8574 15825,8574 15825,8204 Z"/>
            <path fill="rgb(252,224,192)" stroke="none" d="M 15825,8204 L 16105,8204 16105,8574 15825,8574 15825,8204 Z M 15828,8208 L 16102,8208 16102,8570 15828,8570 15828,8208 Z"/>
            <path fill="rgb(252,225,193)" stroke="none" d="M 15828,8208 L 16102,8208 16102,8570 15828,8570 15828,8208 Z M 15832,8213 L 16098,8213 16098,8565 15832,8565 15832,8213 Z"/>
            <path fill="rgb(252,225,194)" stroke="none" d="M 15832,8213 L 16098,8213 16098,8565 15832,8565 15832,8213 Z M 15835,8218 L 16095,8218 16095,8560 15835,8560 15835,8218 Z"/>
            <path fill="rgb(252,226,195)" stroke="none" d="M 15835,8218 L 16095,8218 16095,8560 15835,8560 15835,8218 Z M 15839,8222 L 16091,8222 16091,8556 15839,8556 15839,8222 Z"/>
            <path fill="rgb(252,226,196)" stroke="none" d="M 15839,8222 L 16091,8222 16091,8556 15839,8556 15839,8222 Z M 15842,8227 L 16088,8227 16088,8551 15842,8551 15842,8227 Z"/>
            <path fill="rgb(252,227,197)" stroke="none" d="M 15842,8227 L 16088,8227 16088,8551 15842,8551 15842,8227 Z M 15846,8232 L 16084,8232 16084,8546 15846,8546 15846,8232 Z"/>
            <path fill="rgb(252,227,198)" stroke="none" d="M 15846,8232 L 16084,8232 16084,8546 15846,8546 15846,8232 Z M 15849,8236 L 16081,8236 16081,8542 15849,8542 15849,8236 Z"/>
            <path fill="rgb(252,228,199)" stroke="none" d="M 15849,8236 L 16081,8236 16081,8542 15849,8542 15849,8236 Z M 15853,8241 L 16077,8241 16077,8537 15853,8537 15853,8241 Z"/>
            <path fill="rgb(252,228,200)" stroke="none" d="M 15853,8241 L 16077,8241 16077,8537 15853,8537 15853,8241 Z M 15856,8246 L 16074,8246 16074,8532 15856,8532 15856,8246 Z"/>
            <path fill="rgb(252,229,201)" stroke="none" d="M 15856,8246 L 16074,8246 16074,8532 15856,8532 15856,8246 Z M 15860,8250 L 16070,8250 16070,8528 15860,8528 15860,8250 Z"/>
            <path fill="rgb(253,229,202)" stroke="none" d="M 15860,8250 L 16070,8250 16070,8528 15860,8528 15860,8250 Z M 15863,8255 L 16067,8255 16067,8523 15863,8523 15863,8255 Z"/>
            <path fill="rgb(253,230,203)" stroke="none" d="M 15863,8255 L 16067,8255 16067,8523 15863,8523 15863,8255 Z M 15867,8259 L 16063,8259 16063,8519 15867,8519 15867,8259 Z"/>
            <path fill="rgb(253,230,204)" stroke="none" d="M 15867,8259 L 16063,8259 16063,8519 15867,8519 15867,8259 Z M 15870,8264 L 16060,8264 16060,8514 15870,8514 15870,8264 Z"/>
            <path fill="rgb(253,231,205)" stroke="none" d="M 15870,8264 L 16060,8264 16060,8514 15870,8514 15870,8264 Z M 15874,8269 L 16056,8269 16056,8509 15874,8509 15874,8269 Z"/>
            <path fill="rgb(253,231,206)" stroke="none" d="M 15874,8269 L 16056,8269 16056,8509 15874,8509 15874,8269 Z M 15877,8273 L 16053,8273 16053,8505 15877,8505 15877,8273 Z"/>
            <path fill="rgb(253,232,207)" stroke="none" d="M 15877,8273 L 16053,8273 16053,8505 15877,8505 15877,8273 Z M 15881,8278 L 16049,8278 16049,8500 15881,8500 15881,8278 Z"/>
            <path fill="rgb(253,232,208)" stroke="none" d="M 15881,8278 L 16049,8278 16049,8500 15881,8500 15881,8278 Z M 15884,8283 L 16046,8283 16046,8495 15884,8495 15884,8283 Z"/>
            <path fill="rgb(253,233,209)" stroke="none" d="M 15884,8283 L 16046,8283 16046,8495 15884,8495 15884,8283 Z M 15888,8287 L 16042,8287 16042,8491 15888,8491 15888,8287 Z"/>
            <path fill="rgb(253,233,210)" stroke="none" d="M 15888,8287 L 16042,8287 16042,8491 15888,8491 15888,8287 Z M 15892,8292 L 16038,8292 16038,8486 15892,8486 15892,8292 Z"/>
            <path fill="rgb(253,233,211)" stroke="none" d="M 15892,8292 L 16038,8292 16038,8486 15892,8486 15892,8292 Z M 15895,8297 L 16035,8297 16035,8481 15895,8481 15895,8297 Z"/>
            <path fill="rgb(253,234,212)" stroke="none" d="M 15895,8297 L 16035,8297 16035,8481 15895,8481 15895,8297 Z M 15899,8301 L 16031,8301 16031,8477 15899,8477 15899,8301 Z"/>
            <path fill="rgb(253,234,213)" stroke="none" d="M 15899,8301 L 16031,8301 16031,8477 15899,8477 15899,8301 Z M 15902,8306 L 16028,8306 16028,8472 15902,8472 15902,8306 Z"/>
            <path fill="rgb(253,235,214)" stroke="none" d="M 15902,8306 L 16028,8306 16028,8472 15902,8472 15902,8306 Z M 15906,8311 L 16024,8311 16024,8467 15906,8467 15906,8311 Z"/>
            <path fill="rgb(253,235,215)" stroke="none" d="M 15906,8311 L 16024,8311 16024,8467 15906,8467 15906,8311 Z M 15909,8315 L 16021,8315 16021,8463 15909,8463 15909,8315 Z"/>
            <path fill="rgb(253,236,216)" stroke="none" d="M 15909,8315 L 16021,8315 16021,8463 15909,8463 15909,8315 Z M 15913,8320 L 16017,8320 16017,8458 15913,8458 15913,8320 Z"/>
            <path fill="rgb(253,236,217)" stroke="none" d="M 15913,8320 L 16017,8320 16017,8458 15913,8458 15913,8320 Z M 15916,8324 L 16014,8324 16014,8454 15916,8454 15916,8324 Z"/>
            <path fill="rgb(253,237,218)" stroke="none" d="M 15916,8324 L 16014,8324 16014,8454 15916,8454 15916,8324 Z M 15920,8329 L 16010,8329 16010,8449 15920,8449 15920,8329 Z"/>
            <path fill="rgb(253,237,219)" stroke="none" d="M 15920,8329 L 16010,8329 16010,8449 15920,8449 15920,8329 Z M 15923,8334 L 16007,8334 16007,8444 15923,8444 15923,8334 Z"/>
            <path fill="rgb(253,238,220)" stroke="none" d="M 15923,8334 L 16007,8334 16007,8444 15923,8444 15923,8334 Z M 15927,8338 L 16003,8338 16003,8440 15927,8440 15927,8338 Z"/>
            <path fill="rgb(253,238,221)" stroke="none" d="M 15927,8338 L 16003,8338 16003,8440 15927,8440 15927,8338 Z M 15930,8343 L 16000,8343 16000,8435 15930,8435 15930,8343 Z"/>
            <path fill="rgb(253,239,222)" stroke="none" d="M 15930,8343 L 16000,8343 16000,8435 15930,8435 15930,8343 Z M 15934,8348 L 15996,8348 15996,8430 15934,8430 15934,8348 Z"/>
            <path fill="rgb(253,239,223)" stroke="none" d="M 15934,8348 L 15996,8348 15996,8430 15934,8430 15934,8348 Z M 15937,8352 L 15993,8352 15993,8426 15937,8426 15937,8352 Z"/>
            <path fill="rgb(253,240,224)" stroke="none" d="M 15937,8352 L 15993,8352 15993,8426 15937,8426 15937,8352 Z M 15941,8357 L 15989,8357 15989,8421 15941,8421 15941,8357 Z"/>
            <path fill="rgb(253,240,225)" stroke="none" d="M 15941,8357 L 15989,8357 15989,8421 15941,8421 15941,8357 Z M 15944,8362 L 15986,8362 15986,8416 15944,8416 15944,8362 Z"/>
            <path fill="rgb(253,241,226)" stroke="none" d="M 15944,8362 L 15986,8362 15986,8416 15944,8416 15944,8362 Z M 15948,8366 L 15982,8366 15982,8412 15948,8412 15948,8366 Z"/>
            <path fill="rgb(253,241,227)" stroke="none" d="M 15948,8366 L 15982,8366 15982,8412 15948,8412 15948,8366 Z M 15951,8371 L 15979,8371 15979,8407 15951,8407 15951,8371 Z"/>
            <path fill="rgb(253,242,228)" stroke="none" d="M 15951,8371 L 15979,8371 15979,8407 15951,8407 15951,8371 Z M 15955,8376 L 15975,8376 15975,8402 15955,8402 15955,8376 Z"/>
            <path fill="rgb(253,242,229)" stroke="none" d="M 15955,8376 L 15975,8376 15975,8402 15955,8402 15955,8376 Z M 15958,8380 L 15972,8380 15972,8398 15958,8398 15958,8380 Z"/>
            <path fill="rgb(253,243,230)" stroke="none" d="M 15958,8380 L 15972,8380 15972,8398 15958,8398 15958,8380 Z M 15962,8385 L 15968,8385 15968,8393 15962,8393 15962,8385 Z"/>
            <path fill="rgb(254,244,232)" stroke="none" d="M 15962,8385 L 15968,8385 15968,8393 15962,8393 15962,8385 Z"/>
           </g>
          </pattern>
         </defs>
         <path style="fill:url(#pattern2)" d="M 16137,8141 L 16193,8142 16219,8143 16244,8147 16268,8152 16290,8160 16311,8171 16321,8178 16330,8186 16339,8196 16347,8206 16363,8230 16376,8259 16387,8295 16396,8336 16403,8385 16407,8441 16408,8505 16403,8630 16396,8683 16387,8732 16376,8775 16363,8813 16347,8847 16330,8876 16311,8901 16290,8922 16268,8939 16244,8952 16219,8962 16193,8969 16165,8973 16137,8974 16123,8973 16108,8971 16078,8964 16047,8951 16016,8934 15986,8913 15956,8888 15927,8859 15900,8828 15874,8794 15851,8757 15830,8718 15812,8678 15797,8636 15786,8593 15779,8549 15777,8505 15779,8462 15786,8422 15797,8384 15812,8349 15830,8316 15851,8286 15874,8259 15900,8234 15927,8213 15956,8194 15986,8178 16016,8165 16047,8154 16078,8147 16108,8142 16137,8141 Z"/>
        </g>
        <path fill="none" stroke="rgb(255,255,255)" stroke-width="40" stroke-linejoin="round" d="M 16137,8141 C 16290,8141 16408,8141 16408,8505 16408,8869 16290,8974 16137,8974 15984,8974 15777,8741 15777,8505 15777,8269 15984,8141 16137,8141 Z"/>
       </g>
      </g>
      <g class="com.sun.star.drawing.ClosedBezierShape">
       <g id="id7">
        <rect class="BoundingBox" stroke="none" fill="none" x="15607" y="7912" width="805" height="830"/>
        <g>
         <defs>
          <linearGradient id="gradient1" x1="16009" y1="8720" x2="16009" y2="7932" gradientUnits="userSpaceOnUse">
           <stop offset="0.1" style="stop-color:rgb(0,0,0)"/>
           <stop offset="1" style="stop-color:rgb(255,255,255)"/>
          </linearGradient>
         </defs>
         <path style="fill:url(#gradient1)" d="M 15957,7932 L 16028,7932 16103,7935 16178,7943 16214,7949 16248,7958 16279,7969 16308,7983 16334,8000 16345,8009 16355,8020 16364,8031 16372,8044 16379,8057 16384,8071 16388,8087 16390,8103 16391,8121 16390,8140 16381,8148 16371,8156 16360,8163 16347,8169 16321,8178 16291,8185 16259,8190 16226,8194 16158,8198 16091,8201 16032,8208 16007,8213 15986,8221 15977,8225 15969,8231 15962,8237 15957,8244 15945,8267 15934,8290 15919,8339 15910,8389 15905,8439 15903,8620 15900,8655 15897,8670 15893,8683 15887,8695 15880,8705 15871,8712 15861,8717 15848,8720 15833,8720 15816,8718 15796,8713 15747,8693 15686,8661 15658,8576 15639,8495 15629,8420 15627,8349 15633,8284 15645,8224 15664,8170 15687,8121 15714,8077 15745,8039 15778,8007 15814,7980 15850,7959 15887,7944 15923,7935 15940,7933 15957,7932 Z"/>
        </g>
        <path fill="none" stroke="rgb(102,102,102)" stroke-width="40" stroke-linejoin="round" d="M 15957,7932 C 16137,7932 16407,7932 16390,8140 16299,8235 16005,8165 15957,8244 15813,8483 16047,8869 15686,8661 15506,8192 15777,7932 15957,7932 Z"/>
       </g>
      </g>
      <g class="com.sun.star.drawing.ClosedBezierShape">
       <g id="id8">
        <rect class="BoundingBox" stroke="none" fill="none" x="16387" y="9110" width="1106" height="804"/>
        <g>
         <defs>
          <pattern id="pattern3" x="16407" y="9130" width="1065" height="763" patternUnits="userSpaceOnUse">
           <g transform="translate(-16407,-9130)">
            <path fill="rgb(200,147,199)" stroke="none" d="M 16406,9129 L 17472,9129 17472,9893 16406,9893 16406,9129 Z M 16200,8981 L 17252,8981 17252,9735 16200,9735 16200,8981 Z"/>
            <path fill="rgb(200,148,199)" stroke="none" d="M 16200,8981 L 17252,8981 17252,9735 16200,9735 16200,8981 Z M 16206,8985 L 17246,8985 17246,9731 16206,9731 16206,8985 Z"/>
            <path fill="rgb(201,149,200)" stroke="none" d="M 16206,8985 L 17246,8985 17246,9731 16206,9731 16206,8985 Z M 16212,8990 L 17240,8990 17240,9726 16212,9726 16212,8990 Z"/>
            <path fill="rgb(201,150,200)" stroke="none" d="M 16212,8990 L 17240,8990 17240,9726 16212,9726 16212,8990 Z M 16218,8994 L 17234,8994 17234,9722 16218,9722 16218,8994 Z"/>
            <path fill="rgb(202,151,201)" stroke="none" d="M 16218,8994 L 17234,8994 17234,9722 16218,9722 16218,8994 Z M 16225,8999 L 17227,8999 17227,9717 16225,9717 16225,8999 Z"/>
            <path fill="rgb(202,152,201)" stroke="none" d="M 16225,8999 L 17227,8999 17227,9717 16225,9717 16225,8999 Z M 16231,9003 L 17221,9003 17221,9713 16231,9713 16231,9003 Z"/>
            <path fill="rgb(203,153,202)" stroke="none" d="M 16231,9003 L 17221,9003 17221,9713 16231,9713 16231,9003 Z M 16237,9008 L 17215,9008 17215,9708 16237,9708 16237,9008 Z"/>
            <path fill="rgb(203,154,202)" stroke="none" d="M 16237,9008 L 17215,9008 17215,9708 16237,9708 16237,9008 Z M 16243,9012 L 17209,9012 17209,9704 16243,9704 16243,9012 Z"/>
            <path fill="rgb(204,155,203)" stroke="none" d="M 16243,9012 L 17209,9012 17209,9704 16243,9704 16243,9012 Z M 16249,9017 L 17203,9017 17203,9699 16249,9699 16249,9017 Z"/>
            <path fill="rgb(204,156,203)" stroke="none" d="M 16249,9017 L 17203,9017 17203,9699 16249,9699 16249,9017 Z M 16256,9021 L 17196,9021 17196,9695 16256,9695 16256,9021 Z"/>
            <path fill="rgb(205,157,204)" stroke="none" d="M 16256,9021 L 17196,9021 17196,9695 16256,9695 16256,9021 Z M 16262,9025 L 17190,9025 17190,9691 16262,9691 16262,9025 Z"/>
            <path fill="rgb(205,158,204)" stroke="none" d="M 16262,9025 L 17190,9025 17190,9691 16262,9691 16262,9025 Z M 16268,9030 L 17184,9030 17184,9686 16268,9686 16268,9030 Z"/>
            <path fill="rgb(206,159,205)" stroke="none" d="M 16268,9030 L 17184,9030 17184,9686 16268,9686 16268,9030 Z M 16274,9034 L 17178,9034 17178,9682 16274,9682 16274,9034 Z"/>
            <path fill="rgb(206,160,205)" stroke="none" d="M 16274,9034 L 17178,9034 17178,9682 16274,9682 16274,9034 Z M 16280,9039 L 17172,9039 17172,9677 16280,9677 16280,9039 Z"/>
            <path fill="rgb(207,161,206)" stroke="none" d="M 16280,9039 L 17172,9039 17172,9677 16280,9677 16280,9039 Z M 16287,9043 L 17165,9043 17165,9673 16287,9673 16287,9043 Z"/>
            <path fill="rgb(207,162,206)" stroke="none" d="M 16287,9043 L 17165,9043 17165,9673 16287,9673 16287,9043 Z M 16293,9048 L 17159,9048 17159,9668 16293,9668 16293,9048 Z"/>
            <path fill="rgb(208,163,207)" stroke="none" d="M 16293,9048 L 17159,9048 17159,9668 16293,9668 16293,9048 Z M 16299,9052 L 17153,9052 17153,9664 16299,9664 16299,9052 Z"/>
            <path fill="rgb(208,164,207)" stroke="none" d="M 16299,9052 L 17153,9052 17153,9664 16299,9664 16299,9052 Z M 16305,9057 L 17147,9057 17147,9659 16305,9659 16305,9057 Z"/>
            <path fill="rgb(209,165,208)" stroke="none" d="M 16305,9057 L 17147,9057 17147,9659 16305,9659 16305,9057 Z M 16311,9061 L 17141,9061 17141,9655 16311,9655 16311,9061 Z"/>
            <path fill="rgb(209,166,208)" stroke="none" d="M 16311,9061 L 17141,9061 17141,9655 16311,9655 16311,9061 Z M 16318,9065 L 17134,9065 17134,9651 16318,9651 16318,9065 Z"/>
            <path fill="rgb(210,167,209)" stroke="none" d="M 16318,9065 L 17134,9065 17134,9651 16318,9651 16318,9065 Z M 16324,9070 L 17128,9070 17128,9646 16324,9646 16324,9070 Z"/>
            <path fill="rgb(210,168,209)" stroke="none" d="M 16324,9070 L 17128,9070 17128,9646 16324,9646 16324,9070 Z M 16330,9074 L 17122,9074 17122,9642 16330,9642 16330,9074 Z"/>
            <path fill="rgb(211,169,210)" stroke="none" d="M 16330,9074 L 17122,9074 17122,9642 16330,9642 16330,9074 Z M 16336,9079 L 17116,9079 17116,9637 16336,9637 16336,9079 Z"/>
            <path fill="rgb(211,170,210)" stroke="none" d="M 16336,9079 L 17116,9079 17116,9637 16336,9637 16336,9079 Z M 16342,9083 L 17110,9083 17110,9633 16342,9633 16342,9083 Z"/>
            <path fill="rgb(212,171,211)" stroke="none" d="M 16342,9083 L 17110,9083 17110,9633 16342,9633 16342,9083 Z M 16349,9088 L 17103,9088 17103,9628 16349,9628 16349,9088 Z"/>
            <path fill="rgb(212,172,211)" stroke="none" d="M 16349,9088 L 17103,9088 17103,9628 16349,9628 16349,9088 Z M 16355,9092 L 17097,9092 17097,9624 16355,9624 16355,9092 Z"/>
            <path fill="rgb(213,173,212)" stroke="none" d="M 16355,9092 L 17097,9092 17097,9624 16355,9624 16355,9092 Z M 16361,9097 L 17091,9097 17091,9619 16361,9619 16361,9097 Z"/>
            <path fill="rgb(213,174,212)" stroke="none" d="M 16361,9097 L 17091,9097 17091,9619 16361,9619 16361,9097 Z M 16367,9101 L 17085,9101 17085,9615 16367,9615 16367,9101 Z"/>
            <path fill="rgb(214,175,213)" stroke="none" d="M 16367,9101 L 17085,9101 17085,9615 16367,9615 16367,9101 Z M 16373,9105 L 17079,9105 17079,9611 16373,9611 16373,9105 Z"/>
            <path fill="rgb(214,176,213)" stroke="none" d="M 16373,9105 L 17079,9105 17079,9611 16373,9611 16373,9105 Z M 16380,9110 L 17072,9110 17072,9606 16380,9606 16380,9110 Z"/>
            <path fill="rgb(215,177,214)" stroke="none" d="M 16380,9110 L 17072,9110 17072,9606 16380,9606 16380,9110 Z M 16386,9113 L 17066,9113 17066,9602 16386,9602 16386,9113 Z"/>
            <path fill="rgb(215,178,214)" stroke="none" d="M 16386,9113 L 17066,9113 17066,9602 16386,9602 16386,9113 Z M 16391,9118 L 17060,9118 17060,9597 16391,9597 16391,9118 Z"/>
            <path fill="rgb(216,179,215)" stroke="none" d="M 16391,9118 L 17060,9118 17060,9597 16391,9597 16391,9118 Z M 16397,9122 L 17054,9122 17054,9593 16397,9593 16397,9122 Z"/>
            <path fill="rgb(216,180,215)" stroke="none" d="M 16397,9122 L 17054,9122 17054,9593 16397,9593 16397,9122 Z M 16403,9127 L 17048,9127 17048,9588 16403,9588 16403,9127 Z"/>
            <path fill="rgb(217,181,216)" stroke="none" d="M 16403,9127 L 17048,9127 17048,9588 16403,9588 16403,9127 Z M 16410,9131 L 17041,9131 17041,9584 16410,9584 16410,9131 Z"/>
            <path fill="rgb(217,182,216)" stroke="none" d="M 16410,9131 L 17041,9131 17041,9584 16410,9584 16410,9131 Z M 16416,9136 L 17035,9136 17035,9579 16416,9579 16416,9136 Z"/>
            <path fill="rgb(218,183,217)" stroke="none" d="M 16416,9136 L 17035,9136 17035,9579 16416,9579 16416,9136 Z M 16422,9140 L 17029,9140 17029,9575 16422,9575 16422,9140 Z"/>
            <path fill="rgb(218,184,217)" stroke="none" d="M 16422,9140 L 17029,9140 17029,9575 16422,9575 16422,9140 Z M 16428,9145 L 17023,9145 17023,9570 16428,9570 16428,9145 Z"/>
            <path fill="rgb(219,185,218)" stroke="none" d="M 16428,9145 L 17023,9145 17023,9570 16428,9570 16428,9145 Z M 16434,9149 L 17017,9149 17017,9566 16434,9566 16434,9149 Z"/>
            <path fill="rgb(219,186,218)" stroke="none" d="M 16434,9149 L 17017,9149 17017,9566 16434,9566 16434,9149 Z M 16441,9153 L 17010,9153 17010,9562 16441,9562 16441,9153 Z"/>
            <path fill="rgb(220,187,219)" stroke="none" d="M 16441,9153 L 17010,9153 17010,9562 16441,9562 16441,9153 Z M 16447,9158 L 17004,9158 17004,9557 16447,9557 16447,9158 Z"/>
            <path fill="rgb(220,188,219)" stroke="none" d="M 16447,9158 L 17004,9158 17004,9557 16447,9557 16447,9158 Z M 16453,9162 L 16998,9162 16998,9553 16453,9553 16453,9162 Z"/>
            <path fill="rgb(221,189,220)" stroke="none" d="M 16453,9162 L 16998,9162 16998,9553 16453,9553 16453,9162 Z M 16459,9167 L 16992,9167 16992,9548 16459,9548 16459,9167 Z"/>
            <path fill="rgb(222,190,221)" stroke="none" d="M 16459,9167 L 16992,9167 16992,9548 16459,9548 16459,9167 Z M 16465,9171 L 16986,9171 16986,9544 16465,9544 16465,9171 Z"/>
            <path fill="rgb(222,191,221)" stroke="none" d="M 16465,9171 L 16986,9171 16986,9544 16465,9544 16465,9171 Z M 16472,9176 L 16979,9176 16979,9539 16472,9539 16472,9176 Z"/>
            <path fill="rgb(223,192,222)" stroke="none" d="M 16472,9176 L 16979,9176 16979,9539 16472,9539 16472,9176 Z M 16478,9180 L 16973,9180 16973,9535 16478,9535 16478,9180 Z"/>
            <path fill="rgb(223,193,222)" stroke="none" d="M 16478,9180 L 16973,9180 16973,9535 16478,9535 16478,9180 Z M 16484,9185 L 16967,9185 16967,9530 16484,9530 16484,9185 Z"/>
            <path fill="rgb(224,194,223)" stroke="none" d="M 16484,9185 L 16967,9185 16967,9530 16484,9530 16484,9185 Z M 16490,9189 L 16961,9189 16961,9526 16490,9526 16490,9189 Z"/>
            <path fill="rgb(224,195,223)" stroke="none" d="M 16490,9189 L 16961,9189 16961,9526 16490,9526 16490,9189 Z M 16496,9193 L 16955,9193 16955,9522 16496,9522 16496,9193 Z"/>
            <path fill="rgb(225,196,224)" stroke="none" d="M 16496,9193 L 16955,9193 16955,9522 16496,9522 16496,9193 Z M 16503,9198 L 16948,9198 16948,9517 16503,9517 16503,9198 Z"/>
            <path fill="rgb(225,197,224)" stroke="none" d="M 16503,9198 L 16948,9198 16948,9517 16503,9517 16503,9198 Z M 16509,9202 L 16942,9202 16942,9513 16509,9513 16509,9202 Z"/>
            <path fill="rgb(226,198,225)" stroke="none" d="M 16509,9202 L 16942,9202 16942,9513 16509,9513 16509,9202 Z M 16515,9207 L 16936,9207 16936,9508 16515,9508 16515,9207 Z"/>
            <path fill="rgb(226,199,225)" stroke="none" d="M 16515,9207 L 16936,9207 16936,9508 16515,9508 16515,9207 Z M 16521,9211 L 16930,9211 16930,9504 16521,9504 16521,9211 Z"/>
            <path fill="rgb(227,200,226)" stroke="none" d="M 16521,9211 L 16930,9211 16930,9504 16521,9504 16521,9211 Z M 16527,9216 L 16924,9216 16924,9499 16527,9499 16527,9216 Z"/>
            <path fill="rgb(227,201,226)" stroke="none" d="M 16527,9216 L 16924,9216 16924,9499 16527,9499 16527,9216 Z M 16534,9220 L 16917,9220 16917,9495 16534,9495 16534,9220 Z"/>
            <path fill="rgb(228,202,227)" stroke="none" d="M 16534,9220 L 16917,9220 16917,9495 16534,9495 16534,9220 Z M 16540,9225 L 16911,9225 16911,9490 16540,9490 16540,9225 Z"/>
            <path fill="rgb(228,203,227)" stroke="none" d="M 16540,9225 L 16911,9225 16911,9490 16540,9490 16540,9225 Z M 16546,9229 L 16905,9229 16905,9486 16546,9486 16546,9229 Z"/>
            <path fill="rgb(229,204,228)" stroke="none" d="M 16546,9229 L 16905,9229 16905,9486 16546,9486 16546,9229 Z M 16552,9233 L 16899,9233 16899,9482 16552,9482 16552,9233 Z"/>
            <path fill="rgb(229,205,228)" stroke="none" d="M 16552,9233 L 16899,9233 16899,9482 16552,9482 16552,9233 Z M 16559,9238 L 16892,9238 16892,9477 16559,9477 16559,9238 Z"/>
            <path fill="rgb(230,206,229)" stroke="none" d="M 16559,9238 L 16892,9238 16892,9477 16559,9477 16559,9238 Z M 16565,9242 L 16886,9242 16886,9473 16565,9473 16565,9242 Z"/>
            <path fill="rgb(230,207,229)" stroke="none" d="M 16565,9242 L 16886,9242 16886,9473 16565,9473 16565,9242 Z M 16571,9247 L 16880,9247 16880,9468 16571,9468 16571,9247 Z"/>
            <path fill="rgb(231,208,230)" stroke="none" d="M 16571,9247 L 16880,9247 16880,9468 16571,9468 16571,9247 Z M 16577,9251 L 16874,9251 16874,9464 16577,9464 16577,9251 Z"/>
            <path fill="rgb(231,209,230)" stroke="none" d="M 16577,9251 L 16874,9251 16874,9464 16577,9464 16577,9251 Z M 16583,9256 L 16868,9256 16868,9459 16583,9459 16583,9256 Z"/>
            <path fill="rgb(232,210,231)" stroke="none" d="M 16583,9256 L 16868,9256 16868,9459 16583,9459 16583,9256 Z M 16590,9260 L 16861,9260 16861,9455 16590,9455 16590,9260 Z"/>
            <path fill="rgb(232,211,231)" stroke="none" d="M 16590,9260 L 16861,9260 16861,9455 16590,9455 16590,9260 Z M 16596,9265 L 16855,9265 16855,9450 16596,9450 16596,9265 Z"/>
            <path fill="rgb(233,212,232)" stroke="none" d="M 16596,9265 L 16855,9265 16855,9450 16596,9450 16596,9265 Z M 16602,9269 L 16849,9269 16849,9446 16602,9446 16602,9269 Z"/>
            <path fill="rgb(233,213,232)" stroke="none" d="M 16602,9269 L 16849,9269 16849,9446 16602,9446 16602,9269 Z M 16608,9273 L 16843,9273 16843,9442 16608,9442 16608,9273 Z"/>
            <path fill="rgb(234,214,233)" stroke="none" d="M 16608,9273 L 16843,9273 16843,9442 16608,9442 16608,9273 Z M 16614,9278 L 16837,9278 16837,9437 16614,9437 16614,9278 Z"/>
            <path fill="rgb(234,215,233)" stroke="none" d="M 16614,9278 L 16837,9278 16837,9437 16614,9437 16614,9278 Z M 16621,9282 L 16830,9282 16830,9433 16621,9433 16621,9282 Z"/>
            <path fill="rgb(235,216,234)" stroke="none" d="M 16621,9282 L 16830,9282 16830,9433 16621,9433 16621,9282 Z M 16627,9287 L 16824,9287 16824,9428 16627,9428 16627,9287 Z"/>
            <path fill="rgb(235,217,234)" stroke="none" d="M 16627,9287 L 16824,9287 16824,9428 16627,9428 16627,9287 Z M 16633,9291 L 16818,9291 16818,9424 16633,9424 16633,9291 Z"/>
            <path fill="rgb(236,218,235)" stroke="none" d="M 16633,9291 L 16818,9291 16818,9424 16633,9424 16633,9291 Z M 16639,9296 L 16812,9296 16812,9419 16639,9419 16639,9296 Z"/>
            <path fill="rgb(236,219,235)" stroke="none" d="M 16639,9296 L 16812,9296 16812,9419 16639,9419 16639,9296 Z M 16645,9300 L 16806,9300 16806,9415 16645,9415 16645,9300 Z"/>
            <path fill="rgb(237,220,236)" stroke="none" d="M 16645,9300 L 16806,9300 16806,9415 16645,9415 16645,9300 Z M 16652,9305 L 16799,9305 16799,9410 16652,9410 16652,9305 Z"/>
            <path fill="rgb(237,221,236)" stroke="none" d="M 16652,9305 L 16799,9305 16799,9410 16652,9410 16652,9305 Z M 16658,9309 L 16793,9309 16793,9406 16658,9406 16658,9309 Z"/>
            <path fill="rgb(238,222,237)" stroke="none" d="M 16658,9309 L 16793,9309 16793,9406 16658,9406 16658,9309 Z M 16664,9314 L 16787,9314 16787,9401 16664,9401 16664,9314 Z"/>
            <path fill="rgb(238,223,237)" stroke="none" d="M 16664,9314 L 16787,9314 16787,9401 16664,9401 16664,9314 Z M 16670,9318 L 16781,9318 16781,9397 16670,9397 16670,9318 Z"/>
            <path fill="rgb(239,224,238)" stroke="none" d="M 16670,9318 L 16781,9318 16781,9397 16670,9397 16670,9318 Z M 16676,9322 L 16775,9322 16775,9393 16676,9393 16676,9322 Z"/>
            <path fill="rgb(239,225,238)" stroke="none" d="M 16676,9322 L 16775,9322 16775,9393 16676,9393 16676,9322 Z M 16683,9327 L 16768,9327 16768,9388 16683,9388 16683,9327 Z"/>
            <path fill="rgb(240,226,239)" stroke="none" d="M 16683,9327 L 16768,9327 16768,9388 16683,9388 16683,9327 Z M 16689,9331 L 16762,9331 16762,9384 16689,9384 16689,9331 Z"/>
            <path fill="rgb(240,227,239)" stroke="none" d="M 16689,9331 L 16762,9331 16762,9384 16689,9384 16689,9331 Z M 16695,9336 L 16756,9336 16756,9379 16695,9379 16695,9336 Z"/>
            <path fill="rgb(241,228,240)" stroke="none" d="M 16695,9336 L 16756,9336 16756,9379 16695,9379 16695,9336 Z M 16701,9340 L 16750,9340 16750,9375 16701,9375 16701,9340 Z"/>
            <path fill="rgb(241,229,240)" stroke="none" d="M 16701,9340 L 16750,9340 16750,9375 16701,9375 16701,9340 Z M 16707,9345 L 16744,9345 16744,9370 16707,9370 16707,9345 Z"/>
            <path fill="rgb(242,230,241)" stroke="none" d="M 16707,9345 L 16744,9345 16744,9370 16707,9370 16707,9345 Z M 16714,9349 L 16737,9349 16737,9366 16714,9366 16714,9349 Z"/>
            <path fill="rgb(242,231,241)" stroke="none" d="M 16714,9349 L 16737,9349 16737,9366 16714,9366 16714,9349 Z M 16720,9354 L 16731,9354 16731,9361 16720,9361 16720,9354 Z"/>
            <path fill="rgb(244,233,243)" stroke="none" d="M 16720,9354 L 16731,9354 16731,9361 16720,9361 16720,9354 Z"/>
           </g>
          </pattern>
         </defs>
         <path style="fill:url(#pattern3)" d="M 16948,9130 L 17043,9134 17126,9146 17197,9164 17258,9189 17284,9204 17309,9220 17331,9238 17351,9257 17369,9277 17385,9298 17412,9344 17433,9393 17448,9445 17458,9500 17465,9557 17471,9674 17471,9792 17453,9810 17431,9827 17407,9841 17381,9854 17321,9874 17254,9886 17181,9892 17103,9891 17022,9884 16939,9871 16856,9853 16775,9829 16697,9801 16624,9768 16557,9731 16497,9690 16447,9646 16425,9623 16407,9599 16422,9559 16434,9519 16453,9438 16475,9359 16490,9321 16508,9286 16532,9253 16547,9238 16563,9223 16581,9210 16601,9197 16648,9174 16705,9155 16773,9142 16854,9133 16948,9130 Z"/>
        </g>
        <path fill="none" stroke="rgb(255,255,255)" stroke-width="40" stroke-linejoin="round" d="M 16948,9130 C 17488,9130 17471,9479 17471,9792 17291,10000 16587,9859 16407,9599 16497,9390 16407,9130 16948,9130 Z"/>
       </g>
      </g>
      <g class="com.sun.star.drawing.ClosedBezierShape">
       <g id="id9">
        <rect class="BoundingBox" stroke="none" fill="none" x="16658" y="9265" width="311" height="563"/>
        <path fill="rgb(255,255,255)" stroke="none" d="M 16678,9286 C 16768,9338 16888,9321 16948,9286 16768,9442 16678,9807 16678,9807 16678,9571 16678,9494 16678,9286 Z"/>
        <path fill="none" stroke="rgb(255,255,255)" stroke-width="40" stroke-linejoin="round" d="M 16678,9286 C 16768,9338 16888,9321 16948,9286 16768,9442 16678,9807 16678,9807 16678,9571 16678,9494 16678,9286 Z"/>
       </g>
      </g>
      <g class="com.sun.star.drawing.ClosedBezierShape">
       <g id="id10">
        <rect class="BoundingBox" stroke="none" fill="none" x="16658" y="8849" width="414" height="472"/>
        <path fill="rgb(249,180,96)" stroke="none" d="M 16948,8869 C 17101,8869 17038,9025 17038,9129 17038,9234 16858,9338 16768,9286 16678,9234 16678,9234 16678,9077 16678,8921 16795,8869 16948,8869 Z"/>
        <path fill="none" stroke="rgb(255,255,255)" stroke-width="40" stroke-linejoin="round" d="M 16948,8869 C 17101,8869 17038,9025 17038,9129 17038,9234 16858,9338 16768,9286 16678,9234 16678,9234 16678,9077 16678,8921 16795,8869 16948,8869 Z"/>
       </g>
      </g>
      <g class="com.sun.star.drawing.ClosedBezierShape">
       <g id="id11">
        <rect class="BoundingBox" stroke="none" fill="none" x="16478" y="8433" width="582" height="718"/>
        <g>
         <defs>
          <linearGradient id="gradient2" x1="16497" y1="8791" x2="17040" y2="8791" gradientUnits="userSpaceOnUse">
           <stop offset="0" style="stop-color:rgb(251,201,142)"/>
           <stop offset="0.5" style="stop-color:rgb(254,244,232)"/>
           <stop offset="1" style="stop-color:rgb(251,201,142)"/>
          </linearGradient>
         </defs>
         <path style="fill:url(#gradient2)" d="M 16768,8453 L 16796,8454 16824,8456 16850,8459 16875,8464 16899,8471 16921,8480 16942,8492 16961,8505 16978,8521 16994,8539 17007,8561 17018,8585 17027,8612 17034,8642 17038,8676 17039,8713 17038,8752 17034,8791 17027,8829 17018,8866 17007,8902 16994,8937 16978,8969 16961,9000 16942,9028 16921,9053 16899,9075 16875,9094 16850,9109 16824,9121 16796,9128 16782,9129 16768,9130 16740,9128 16712,9122 16686,9112 16661,9098 16638,9081 16615,9060 16595,9037 16576,9010 16558,8981 16543,8949 16530,8914 16519,8878 16510,8839 16503,8799 16499,8757 16498,8713 16499,8671 16503,8634 16510,8601 16519,8573 16530,8548 16543,8527 16558,8509 16576,8495 16595,8483 16615,8473 16638,8466 16661,8460 16686,8457 16712,8454 16768,8453 Z"/>
        </g>
        <path fill="none" stroke="rgb(255,255,255)" stroke-width="40" stroke-linejoin="round" d="M 16768,8453 C 16921,8453 17039,8505 17039,8713 17039,8922 16921,9130 16768,9130 16615,9130 16498,8949 16498,8713 16498,8477 16615,8453 16768,8453 Z"/>
       </g>
      </g>
      <g class="com.sun.star.drawing.ClosedBezierShape">
       <g id="id12">
        <rect class="BoundingBox" stroke="none" fill="none" x="16477" y="8172" width="794" height="994"/>
        <g>
         <defs>
          <linearGradient id="gradient3" x1="16873" y1="9144" x2="16873" y2="8191" gradientUnits="userSpaceOnUse">
           <stop offset="0.1" style="stop-color:rgb(179,179,179)"/>
           <stop offset="1" style="stop-color:rgb(229,229,229)"/>
          </linearGradient>
         </defs>
         <path style="fill:url(#gradient3)" d="M 16979,8192 L 16906,8195 16825,8203 16743,8219 16703,8231 16664,8244 16628,8260 16595,8278 16565,8300 16540,8324 16530,8337 16520,8351 16512,8366 16506,8381 16501,8398 16498,8415 16497,8433 16498,8452 16507,8460 16517,8468 16529,8475 16541,8481 16569,8490 16600,8497 16633,8502 16667,8506 16739,8510 16808,8514 16870,8520 16896,8526 16918,8533 16928,8538 16936,8544 16942,8550 16948,8557 16971,8604 16988,8654 16999,8707 17006,8761 17012,8870 17012,8971 17016,9056 17021,9090 17025,9105 17031,9117 17037,9127 17045,9135 17049,9138 17054,9141 17065,9144 17078,9145 17092,9142 17109,9137 17128,9129 17172,9033 17206,8939 17230,8849 17244,8763 17249,8681 17247,8604 17237,8532 17222,8466 17201,8405 17176,8351 17147,8305 17116,8265 17082,8234 17065,8221 17048,8211 17030,8203 17013,8197 16996,8193 16979,8192 Z"/>
        </g>
        <path fill="none" stroke="rgb(178,178,178)" stroke-width="40" stroke-linejoin="round" d="M 16979,8192 C 16799,8192 16481,8244 16498,8452 16589,8547 16900,8477 16948,8557 17091,8795 16917,9233 17128,9129 17398,8609 17159,8192 16979,8192 Z"/>
       </g>
      </g>
      <g class="com.sun.star.drawing.ClosedBezierShape">
       <g id="id13">
        <rect class="BoundingBox" stroke="none" fill="none" x="15248" y="7912" width="2245" height="1974"/>
        <path fill="none" stroke="rgb(0,0,0)" stroke-width="40" stroke-linejoin="round" d="M 15957,7932 C 16137,7932 16424,7932 16407,8140 16401,8160 16347,8175 16317,8192 16497,8557 16317,8973 16137,8973 16317,9026 16435,9149 16474,9354 16510,9232 16596,9169 16677,9182 L 16675,9106 C 16487,8999 16431,8626 16587,8505 16587,8505 16473,8484 16497,8453 16470,8200 17010,8151 17064,8216 17222,8287 17360,8803 17112,9161 17486,9141 17470,9657 17471,9792 17061,9956 16604,9816 16434,9636 16168,9857 15505,9927 15271,9744 15241,9350 15412,8965 15747,8935 15745,8850 15762,8784 15762,8697 15732,8680 15708,8683 15686,8661 15506,8192 15777,7932 15957,7932 Z"/>
       </g>
      </g>
     </g>
    </g>
   </g>
  </g>
 </g>
</svg>