<?xml version="1.0" encoding="UTF-8"?>
<!DOCTYPE svg PUBLIC "-//W3C//DTD SVG 1.1//EN" "http://www.w3.org/Graphics/SVG/1.1/DTD/svg11.dtd">
<svg version="1.2" width="36.78mm" height="28.4mm" viewBox="18248 5925 3678 2840" preserveAspectRatio="xMidYMid" fill-rule="evenodd" stroke-width="28.222" stroke-linejoin="round" xmlns="http://www.w3.org/2000/svg" xmlns:ooo="http://xml.openoffice.org/svg/export" xmlns:xlink="http://www.w3.org/1999/xlink" xmlns:presentation="http://sun.com/xmlns/staroffice/presentation" xmlns:smil="http://www.w3.org/2001/SMIL20/" xmlns:anim="urn:oasis:names:tc:opendocument:xmlns:animation:1.0" xml:space="preserve">
 <defs class="ClipPathGroup">
  <clipPath id="presentation_clip_path" clipPathUnits="userSpaceOnUse">
   <rect x="18248" y="5925" width="3678" height="2840"/>
  </clipPath>
 </defs>
 <defs class="TextShapeIndex">
  <g ooo:slide="id1" ooo:id-list="id3 id4 id5 id6 id7 id8 id9 id10 id11"/>
 </defs>
 <defs class="EmbeddedBulletChars">
  <g id="bullet-char-template(57356)" transform="scale(0.00048828125,-0.00048828125)">
   <path d="M 580,1141 L 1163,571 580,0 -4,571 580,1141 Z"/>
  </g>
  <g id="bullet-char-template(57354)" transform="scale(0.00048828125,-0.00048828125)">
   <path d="M 8,1128 L 1137,1128 1137,0 8,0 8,1128 Z"/>
  </g>
  <g id="bullet-char-template(10146)" transform="scale(0.00048828125,-0.00048828125)">
   <path d="M 174,0 L 602,739 174,1481 1456,739 174,0 Z M 1358,739 L 309,1346 659,739 1358,739 Z"/>
  </g>
  <g id="bullet-char-template(10132)" transform="scale(0.00048828125,-0.00048828125)">
   <path d="M 2015,739 L 1276,0 717,0 1260,543 174,543 174,936 1260,936 717,1481 1274,1481 2015,739 Z"/>
  </g>
  <g id="bullet-char-template(10007)" transform="scale(0.00048828125,-0.00048828125)">
   <path d="M 0,-2 C -7,14 -16,27 -25,37 L 356,567 C 262,823 215,952 215,954 215,979 228,992 255,992 264,992 276,990 289,987 310,991 331,999 354,1012 L 381,999 492,748 772,1049 836,1024 860,1049 C 881,1039 901,1025 922,1006 886,937 835,863 770,784 769,783 710,716 594,584 L 774,223 C 774,196 753,168 711,139 L 727,119 C 717,90 699,76 672,76 641,76 570,178 457,381 L 164,-76 C 142,-110 111,-127 72,-127 30,-127 9,-110 8,-76 1,-67 -2,-52 -2,-32 -2,-23 -1,-13 0,-2 Z"/>
  </g>
  <g id="bullet-char-template(10004)" transform="scale(0.00048828125,-0.00048828125)">
   <path d="M 285,-33 C 182,-33 111,30 74,156 52,228 41,333 41,471 41,549 55,616 82,672 116,743 169,778 240,778 293,778 328,747 346,684 L 369,508 C 377,444 397,411 428,410 L 1163,1116 C 1174,1127 1196,1133 1229,1133 1271,1133 1292,1118 1292,1087 L 1292,965 C 1292,929 1282,901 1262,881 L 442,47 C 390,-6 338,-33 285,-33 Z"/>
  </g>
  <g id="bullet-char-template(9679)" transform="scale(0.00048828125,-0.00048828125)">
   <path d="M 813,0 C 632,0 489,54 383,161 276,268 223,411 223,592 223,773 276,916 383,1023 489,1130 632,1184 813,1184 992,1184 1136,1130 1245,1023 1353,916 1407,772 1407,592 1407,412 1353,268 1245,161 1136,54 992,0 813,0 Z"/>
  </g>
  <g id="bullet-char-template(8226)" transform="scale(0.00048828125,-0.00048828125)">
   <path d="M 346,457 C 273,457 209,483 155,535 101,586 74,649 74,723 74,796 101,859 155,911 209,963 273,989 346,989 419,989 480,963 531,910 582,859 608,796 608,723 608,648 583,586 532,535 482,483 420,457 346,457 Z"/>
  </g>
  <g id="bullet-char-template(8211)" transform="scale(0.00048828125,-0.00048828125)">
   <path d="M -4,459 L 1135,459 1135,606 -4,606 -4,459 Z"/>
  </g>
 </defs>
 <defs class="TextEmbeddedBitmaps"/>
 <g class="SlideGroup">
  <g>
   <g id="id1" class="Slide" clip-path="url(#presentation_clip_path)">
    <g class="Page">
     <g class="Group">
      <g class="com.sun.star.drawing.ClosedBezierShape">
       <g id="id3">
        <rect class="BoundingBox" stroke="none" fill="none" x="20034" y="7465" width="1893" height="1232"/>
        <path fill="rgb(221,221,221)" stroke="none" d="M 20054,8675 C 20529,8675 21752,8115 21873,7905 21994,7695 21752,7485 21631,7485 21631,7785 20054,8175 20054,8675 Z"/>
        <path fill="none" stroke="rgb(221,221,221)" stroke-width="40" stroke-linejoin="round" d="M 20054,8675 C 20529,8675 21752,8115 21873,7905 21994,7695 21752,7485 21631,7485 21631,7785 20054,8175 20054,8675 Z"/>
       </g>
      </g>
      <g class="Group">
       <g class="com.sun.star.drawing.PolyPolygonShape">
        <g id="id4">
         <rect class="BoundingBox" stroke="none" fill="none" x="18248" y="6905" width="1739" height="1861"/>
         <g>
          <defs>
           <linearGradient id="gradient1" x1="18267" y1="7835" x2="19967" y2="7835" gradientUnits="userSpaceOnUse">
            <stop offset="0.1" style="stop-color:rgb(0,115,188)"/>
            <stop offset="1" style="stop-color:rgb(127,185,221)"/>
           </linearGradient>
          </defs>
          <path style="fill:url(#gradient1)" d="M 18268,7765 L 18268,6925 19966,7905 19966,8745 18268,7765 Z"/>
         </g>
         <path fill="none" stroke="rgb(255,255,255)" stroke-width="40" stroke-linejoin="round" d="M 18268,7765 L 18268,6925 19966,7905 19966,8745 18268,7765 Z"/>
        </g>
       </g>
       <g class="com.sun.star.drawing.PolyPolygonShape">
        <g id="id5">
         <rect class="BoundingBox" stroke="none" fill="none" x="19946" y="6905" width="1738" height="1861"/>
         <g>
          <defs>
           <pattern id="pattern1" x="19966" y="6925" width="1698" height="1821" patternUnits="userSpaceOnUse">
            <g transform="translate(-19966,-6925)">
             <path fill="rgb(0,115,188)" stroke="none" d="M 19965,6924 L 21664,6924 21664,8746 19965,8746 19965,6924 Z M 19632,6567 L 21317,6567 21317,8373 19632,8373 19632,6567 Z"/>
             <path fill="rgb(1,115,188)" stroke="none" d="M 19632,6567 L 21317,6567 21317,8373 19632,8373 19632,6567 Z M 19639,6574 L 21310,6574 21310,8366 19639,8366 19639,6574 Z"/>
             <path fill="rgb(2,116,188)" stroke="none" d="M 19639,6574 L 21310,6574 21310,8366 19639,8366 19639,6574 Z M 19646,6581 L 21303,6581 21303,8359 19646,8359 19646,6581 Z"/>
             <path fill="rgb(3,116,188)" stroke="none" d="M 19646,6581 L 21303,6581 21303,8359 19646,8359 19646,6581 Z M 19652,6588 L 21297,6588 21297,8352 19652,8352 19652,6588 Z"/>
             <path fill="rgb(4,117,189)" stroke="none" d="M 19652,6588 L 21297,6588 21297,8352 19652,8352 19652,6588 Z M 19659,6595 L 21290,6595 21290,8345 19659,8345 19659,6595 Z"/>
             <path fill="rgb(5,117,189)" stroke="none" d="M 19659,6595 L 21290,6595 21290,8345 19659,8345 19659,6595 Z M 19666,6603 L 21283,6603 21283,8337 19666,8337 19666,6603 Z"/>
             <path fill="rgb(6,118,189)" stroke="none" d="M 19666,6603 L 21283,6603 21283,8337 19666,8337 19666,6603 Z M 19672,6610 L 21277,6610 21277,8330 19672,8330 19672,6610 Z"/>
             <path fill="rgb(7,118,189)" stroke="none" d="M 19672,6610 L 21277,6610 21277,8330 19672,8330 19672,6610 Z M 19679,6617 L 21270,6617 21270,8323 19679,8323 19679,6617 Z"/>
             <path fill="rgb(8,119,190)" stroke="none" d="M 19679,6617 L 21270,6617 21270,8323 19679,8323 19679,6617 Z M 19686,6624 L 21263,6624 21263,8316 19686,8316 19686,6624 Z"/>
             <path fill="rgb(9,119,190)" stroke="none" d="M 19686,6624 L 21263,6624 21263,8316 19686,8316 19686,6624 Z M 19692,6631 L 21257,6631 21257,8309 19692,8309 19692,6631 Z"/>
             <path fill="rgb(10,120,190)" stroke="none" d="M 19692,6631 L 21257,6631 21257,8309 19692,8309 19692,6631 Z M 19699,6638 L 21250,6638 21250,8302 19699,8302 19699,6638 Z"/>
             <path fill="rgb(11,121,190)" stroke="none" d="M 19699,6638 L 21250,6638 21250,8302 19699,8302 19699,6638 Z M 19706,6646 L 21243,6646 21243,8294 19706,8294 19706,6646 Z"/>
             <path fill="rgb(12,121,191)" stroke="none" d="M 19706,6646 L 21243,6646 21243,8294 19706,8294 19706,6646 Z M 19713,6653 L 21236,6653 21236,8287 19713,8287 19713,6653 Z"/>
             <path fill="rgb(13,122,191)" stroke="none" d="M 19713,6653 L 21236,6653 21236,8287 19713,8287 19713,6653 Z M 19719,6660 L 21230,6660 21230,8280 19719,8280 19719,6660 Z"/>
             <path fill="rgb(14,122,191)" stroke="none" d="M 19719,6660 L 21230,6660 21230,8280 19719,8280 19719,6660 Z M 19726,6667 L 21223,6667 21223,8273 19726,8273 19726,6667 Z"/>
             <path fill="rgb(15,123,191)" stroke="none" d="M 19726,6667 L 21223,6667 21223,8273 19726,8273 19726,6667 Z M 19733,6674 L 21216,6674 21216,8266 19733,8266 19733,6674 Z"/>
             <path fill="rgb(16,123,192)" stroke="none" d="M 19733,6674 L 21216,6674 21216,8266 19733,8266 19733,6674 Z M 19739,6682 L 21210,6682 21210,8258 19739,8258 19739,6682 Z"/>
             <path fill="rgb(17,124,192)" stroke="none" d="M 19739,6682 L 21210,6682 21210,8258 19739,8258 19739,6682 Z M 19746,6689 L 21203,6689 21203,8251 19746,8251 19746,6689 Z"/>
             <path fill="rgb(18,124,192)" stroke="none" d="M 19746,6689 L 21203,6689 21203,8251 19746,8251 19746,6689 Z M 19753,6696 L 21196,6696 21196,8244 19753,8244 19753,6696 Z"/>
             <path fill="rgb(19,125,192)" stroke="none" d="M 19753,6696 L 21196,6696 21196,8244 19753,8244 19753,6696 Z M 19759,6703 L 21190,6703 21190,8237 19759,8237 19759,6703 Z"/>
             <path fill="rgb(20,126,193)" stroke="none" d="M 19759,6703 L 21190,6703 21190,8237 19759,8237 19759,6703 Z M 19766,6710 L 21183,6710 21183,8230 19766,8230 19766,6710 Z"/>
             <path fill="rgb(21,126,193)" stroke="none" d="M 19766,6710 L 21183,6710 21183,8230 19766,8230 19766,6710 Z M 19773,6717 L 21176,6717 21176,8223 19773,8223 19773,6717 Z"/>
             <path fill="rgb(22,127,193)" stroke="none" d="M 19773,6717 L 21176,6717 21176,8223 19773,8223 19773,6717 Z M 19779,6725 L 21170,6725 21170,8215 19779,8215 19779,6725 Z"/>
             <path fill="rgb(23,127,193)" stroke="none" d="M 19779,6725 L 21170,6725 21170,8215 19779,8215 19779,6725 Z M 19786,6732 L 21163,6732 21163,8208 19786,8208 19786,6732 Z"/>
             <path fill="rgb(24,128,194)" stroke="none" d="M 19786,6732 L 21163,6732 21163,8208 19786,8208 19786,6732 Z M 19793,6739 L 21156,6739 21156,8201 19793,8201 19793,6739 Z"/>
             <path fill="rgb(25,128,194)" stroke="none" d="M 19793,6739 L 21156,6739 21156,8201 19793,8201 19793,6739 Z M 19800,6746 L 21149,6746 21149,8194 19800,8194 19800,6746 Z"/>
             <path fill="rgb(26,129,194)" stroke="none" d="M 19800,6746 L 21149,6746 21149,8194 19800,8194 19800,6746 Z M 19806,6753 L 21143,6753 21143,8187 19806,8187 19806,6753 Z"/>
             <path fill="rgb(27,129,195)" stroke="none" d="M 19806,6753 L 21143,6753 21143,8187 19806,8187 19806,6753 Z M 19813,6760 L 21136,6760 21136,8180 19813,8180 19813,6760 Z"/>
             <path fill="rgb(28,130,195)" stroke="none" d="M 19813,6760 L 21136,6760 21136,8180 19813,8180 19813,6760 Z M 19820,6768 L 21129,6768 21129,8172 19820,8172 19820,6768 Z"/>
             <path fill="rgb(29,130,195)" stroke="none" d="M 19820,6768 L 21129,6768 21129,8172 19820,8172 19820,6768 Z M 19826,6775 L 21123,6775 21123,8165 19826,8165 19826,6775 Z"/>
             <path fill="rgb(30,131,195)" stroke="none" d="M 19826,6775 L 21123,6775 21123,8165 19826,8165 19826,6775 Z M 19833,6782 L 21116,6782 21116,8158 19833,8158 19833,6782 Z"/>
             <path fill="rgb(31,132,196)" stroke="none" d="M 19833,6782 L 21116,6782 21116,8158 19833,8158 19833,6782 Z M 19840,6789 L 21109,6789 21109,8151 19840,8151 19840,6789 Z"/>
             <path fill="rgb(32,132,196)" stroke="none" d="M 19840,6789 L 21109,6789 21109,8151 19840,8151 19840,6789 Z M 19846,6796 L 21103,6796 21103,8144 19846,8144 19846,6796 Z"/>
             <path fill="rgb(33,133,196)" stroke="none" d="M 19846,6796 L 21103,6796 21103,8144 19846,8144 19846,6796 Z M 19853,6804 L 21096,6804 21096,8136 19853,8136 19853,6804 Z"/>
             <path fill="rgb(34,133,196)" stroke="none" d="M 19853,6804 L 21096,6804 21096,8136 19853,8136 19853,6804 Z M 19860,6811 L 21089,6811 21089,8129 19860,8129 19860,6811 Z"/>
             <path fill="rgb(35,134,197)" stroke="none" d="M 19860,6811 L 21089,6811 21089,8129 19860,8129 19860,6811 Z M 19866,6818 L 21083,6818 21083,8122 19866,8122 19866,6818 Z"/>
             <path fill="rgb(36,134,197)" stroke="none" d="M 19866,6818 L 21083,6818 21083,8122 19866,8122 19866,6818 Z M 19873,6825 L 21076,6825 21076,8115 19873,8115 19873,6825 Z"/>
             <path fill="rgb(37,135,197)" stroke="none" d="M 19873,6825 L 21076,6825 21076,8115 19873,8115 19873,6825 Z M 19880,6832 L 21069,6832 21069,8108 19880,8108 19880,6832 Z"/>
             <path fill="rgb(38,135,197)" stroke="none" d="M 19880,6832 L 21069,6832 21069,8108 19880,8108 19880,6832 Z M 19887,6839 L 21062,6839 21062,8101 19887,8101 19887,6839 Z"/>
             <path fill="rgb(39,136,198)" stroke="none" d="M 19887,6839 L 21062,6839 21062,8101 19887,8101 19887,6839 Z M 19893,6847 L 21056,6847 21056,8093 19893,8093 19893,6847 Z"/>
             <path fill="rgb(40,137,198)" stroke="none" d="M 19893,6847 L 21056,6847 21056,8093 19893,8093 19893,6847 Z M 19900,6854 L 21049,6854 21049,8086 19900,8086 19900,6854 Z"/>
             <path fill="rgb(41,137,198)" stroke="none" d="M 19900,6854 L 21049,6854 21049,8086 19900,8086 19900,6854 Z M 19907,6861 L 21042,6861 21042,8079 19907,8079 19907,6861 Z"/>
             <path fill="rgb(42,138,198)" stroke="none" d="M 19907,6861 L 21042,6861 21042,8079 19907,8079 19907,6861 Z M 19913,6868 L 21036,6868 21036,8072 19913,8072 19913,6868 Z"/>
             <path fill="rgb(43,138,199)" stroke="none" d="M 19913,6868 L 21036,6868 21036,8072 19913,8072 19913,6868 Z M 19920,6875 L 21029,6875 21029,8065 19920,8065 19920,6875 Z"/>
             <path fill="rgb(44,139,199)" stroke="none" d="M 19920,6875 L 21029,6875 21029,8065 19920,8065 19920,6875 Z M 19927,6882 L 21022,6882 21022,8058 19927,8058 19927,6882 Z"/>
             <path fill="rgb(45,139,199)" stroke="none" d="M 19927,6882 L 21022,6882 21022,8058 19927,8058 19927,6882 Z M 19933,6890 L 21016,6890 21016,8050 19933,8050 19933,6890 Z"/>
             <path fill="rgb(46,140,199)" stroke="none" d="M 19933,6890 L 21016,6890 21016,8050 19933,8050 19933,6890 Z M 19940,6897 L 21009,6897 21009,8043 19940,8043 19940,6897 Z"/>
             <path fill="rgb(47,140,200)" stroke="none" d="M 19940,6897 L 21009,6897 21009,8043 19940,8043 19940,6897 Z M 19946,6904 L 21002,6904 21002,8036 19946,8036 19946,6904 Z"/>
             <path fill="rgb(48,141,200)" stroke="none" d="M 19946,6904 L 21002,6904 21002,8036 19946,8036 19946,6904 Z M 19952,6910 L 20996,6910 20996,8029 19952,8029 19952,6910 Z"/>
             <path fill="rgb(49,142,200)" stroke="none" d="M 19952,6910 L 20996,6910 20996,8029 19952,8029 19952,6910 Z M 19959,6917 L 20989,6917 20989,8022 19959,8022 19959,6917 Z"/>
             <path fill="rgb(50,142,200)" stroke="none" d="M 19959,6917 L 20989,6917 20989,8022 19959,8022 19959,6917 Z M 19966,6925 L 20982,6925 20982,8014 19966,8014 19966,6925 Z"/>
             <path fill="rgb(51,143,201)" stroke="none" d="M 19966,6925 L 20982,6925 20982,8014 19966,8014 19966,6925 Z M 19973,6932 L 20975,6932 20975,8007 19973,8007 19973,6932 Z"/>
             <path fill="rgb(52,143,201)" stroke="none" d="M 19973,6932 L 20975,6932 20975,8007 19973,8007 19973,6932 Z M 19979,6939 L 20969,6939 20969,8000 19979,8000 19979,6939 Z"/>
             <path fill="rgb(53,144,201)" stroke="none" d="M 19979,6939 L 20969,6939 20969,8000 19979,8000 19979,6939 Z M 19986,6946 L 20962,6946 20962,7993 19986,7993 19986,6946 Z"/>
             <path fill="rgb(54,144,202)" stroke="none" d="M 19986,6946 L 20962,6946 20962,7993 19986,7993 19986,6946 Z M 19993,6953 L 20955,6953 20955,7986 19993,7986 19993,6953 Z"/>
             <path fill="rgb(55,145,202)" stroke="none" d="M 19993,6953 L 20955,6953 20955,7986 19993,7986 19993,6953 Z M 19999,6960 L 20949,6960 20949,7979 19999,7979 19999,6960 Z"/>
             <path fill="rgb(56,145,202)" stroke="none" d="M 19999,6960 L 20949,6960 20949,7979 19999,7979 19999,6960 Z M 20006,6968 L 20942,6968 20942,7971 20006,7971 20006,6968 Z"/>
             <path fill="rgb(57,146,202)" stroke="none" d="M 20006,6968 L 20942,6968 20942,7971 20006,7971 20006,6968 Z M 20013,6975 L 20935,6975 20935,7964 20013,7964 20013,6975 Z"/>
             <path fill="rgb(58,146,203)" stroke="none" d="M 20013,6975 L 20935,6975 20935,7964 20013,7964 20013,6975 Z M 20019,6982 L 20929,6982 20929,7957 20019,7957 20019,6982 Z"/>
             <path fill="rgb(59,147,203)" stroke="none" d="M 20019,6982 L 20929,6982 20929,7957 20019,7957 20019,6982 Z M 20026,6989 L 20922,6989 20922,7950 20026,7950 20026,6989 Z"/>
             <path fill="rgb(60,148,203)" stroke="none" d="M 20026,6989 L 20922,6989 20922,7950 20026,7950 20026,6989 Z M 20033,6996 L 20915,6996 20915,7943 20033,7943 20033,6996 Z"/>
             <path fill="rgb(61,148,203)" stroke="none" d="M 20033,6996 L 20915,6996 20915,7943 20033,7943 20033,6996 Z M 20039,7003 L 20909,7003 20909,7936 20039,7936 20039,7003 Z"/>
             <path fill="rgb(62,149,204)" stroke="none" d="M 20039,7003 L 20909,7003 20909,7936 20039,7936 20039,7003 Z M 20046,7011 L 20902,7011 20902,7928 20046,7928 20046,7011 Z"/>
             <path fill="rgb(63,149,204)" stroke="none" d="M 20046,7011 L 20902,7011 20902,7928 20046,7928 20046,7011 Z M 20053,7018 L 20895,7018 20895,7921 20053,7921 20053,7018 Z"/>
             <path fill="rgb(64,150,204)" stroke="none" d="M 20053,7018 L 20895,7018 20895,7921 20053,7921 20053,7018 Z M 20060,7025 L 20888,7025 20888,7914 20060,7914 20060,7025 Z"/>
             <path fill="rgb(65,150,204)" stroke="none" d="M 20060,7025 L 20888,7025 20888,7914 20060,7914 20060,7025 Z M 20066,7032 L 20882,7032 20882,7907 20066,7907 20066,7032 Z"/>
             <path fill="rgb(66,151,205)" stroke="none" d="M 20066,7032 L 20882,7032 20882,7907 20066,7907 20066,7032 Z M 20073,7039 L 20875,7039 20875,7900 20073,7900 20073,7039 Z"/>
             <path fill="rgb(67,151,205)" stroke="none" d="M 20073,7039 L 20875,7039 20875,7900 20073,7900 20073,7039 Z M 20080,7047 L 20868,7047 20868,7892 20080,7892 20080,7047 Z"/>
             <path fill="rgb(68,152,205)" stroke="none" d="M 20080,7047 L 20868,7047 20868,7892 20080,7892 20080,7047 Z M 20086,7054 L 20862,7054 20862,7885 20086,7885 20086,7054 Z"/>
             <path fill="rgb(69,153,205)" stroke="none" d="M 20086,7054 L 20862,7054 20862,7885 20086,7885 20086,7054 Z M 20093,7061 L 20855,7061 20855,7878 20093,7878 20093,7061 Z"/>
             <path fill="rgb(70,153,206)" stroke="none" d="M 20093,7061 L 20855,7061 20855,7878 20093,7878 20093,7061 Z M 20100,7068 L 20848,7068 20848,7871 20100,7871 20100,7068 Z"/>
             <path fill="rgb(71,154,206)" stroke="none" d="M 20100,7068 L 20848,7068 20848,7871 20100,7871 20100,7068 Z M 20106,7075 L 20842,7075 20842,7864 20106,7864 20106,7075 Z"/>
             <path fill="rgb(72,154,206)" stroke="none" d="M 20106,7075 L 20842,7075 20842,7864 20106,7864 20106,7075 Z M 20113,7082 L 20835,7082 20835,7857 20113,7857 20113,7082 Z"/>
             <path fill="rgb(73,155,206)" stroke="none" d="M 20113,7082 L 20835,7082 20835,7857 20113,7857 20113,7082 Z M 20120,7090 L 20828,7090 20828,7849 20120,7849 20120,7090 Z"/>
             <path fill="rgb(74,155,207)" stroke="none" d="M 20120,7090 L 20828,7090 20828,7849 20120,7849 20120,7090 Z M 20126,7097 L 20822,7097 20822,7842 20126,7842 20126,7097 Z"/>
             <path fill="rgb(75,156,207)" stroke="none" d="M 20126,7097 L 20822,7097 20822,7842 20126,7842 20126,7097 Z M 20133,7104 L 20815,7104 20815,7835 20133,7835 20133,7104 Z"/>
             <path fill="rgb(76,156,207)" stroke="none" d="M 20133,7104 L 20815,7104 20815,7835 20133,7835 20133,7104 Z M 20140,7111 L 20808,7111 20808,7828 20140,7828 20140,7111 Z"/>
             <path fill="rgb(77,157,208)" stroke="none" d="M 20140,7111 L 20808,7111 20808,7828 20140,7828 20140,7111 Z M 20147,7118 L 20801,7118 20801,7821 20147,7821 20147,7118 Z"/>
             <path fill="rgb(78,157,208)" stroke="none" d="M 20147,7118 L 20801,7118 20801,7821 20147,7821 20147,7118 Z M 20153,7125 L 20795,7125 20795,7814 20153,7814 20153,7125 Z"/>
             <path fill="rgb(79,158,208)" stroke="none" d="M 20153,7125 L 20795,7125 20795,7814 20153,7814 20153,7125 Z M 20160,7133 L 20788,7133 20788,7806 20160,7806 20160,7133 Z"/>
             <path fill="rgb(80,159,208)" stroke="none" d="M 20160,7133 L 20788,7133 20788,7806 20160,7806 20160,7133 Z M 20167,7140 L 20781,7140 20781,7799 20167,7799 20167,7140 Z"/>
             <path fill="rgb(81,159,209)" stroke="none" d="M 20167,7140 L 20781,7140 20781,7799 20167,7799 20167,7140 Z M 20173,7147 L 20775,7147 20775,7792 20173,7792 20173,7147 Z"/>
             <path fill="rgb(82,160,209)" stroke="none" d="M 20173,7147 L 20775,7147 20775,7792 20173,7792 20173,7147 Z M 20180,7154 L 20768,7154 20768,7785 20180,7785 20180,7154 Z"/>
             <path fill="rgb(83,160,209)" stroke="none" d="M 20180,7154 L 20768,7154 20768,7785 20180,7785 20180,7154 Z M 20187,7161 L 20761,7161 20761,7778 20187,7778 20187,7161 Z"/>
             <path fill="rgb(84,161,209)" stroke="none" d="M 20187,7161 L 20761,7161 20761,7778 20187,7778 20187,7161 Z M 20193,7169 L 20755,7169 20755,7770 20193,7770 20193,7169 Z"/>
             <path fill="rgb(85,161,210)" stroke="none" d="M 20193,7169 L 20755,7169 20755,7770 20193,7770 20193,7169 Z M 20200,7176 L 20748,7176 20748,7763 20200,7763 20200,7176 Z"/>
             <path fill="rgb(86,162,210)" stroke="none" d="M 20200,7176 L 20748,7176 20748,7763 20200,7763 20200,7176 Z M 20207,7183 L 20741,7183 20741,7756 20207,7756 20207,7183 Z"/>
             <path fill="rgb(87,162,210)" stroke="none" d="M 20207,7183 L 20741,7183 20741,7756 20207,7756 20207,7183 Z M 20213,7190 L 20735,7190 20735,7749 20213,7749 20213,7190 Z"/>
             <path fill="rgb(88,163,210)" stroke="none" d="M 20213,7190 L 20735,7190 20735,7749 20213,7749 20213,7190 Z M 20220,7197 L 20728,7197 20728,7742 20220,7742 20220,7197 Z"/>
             <path fill="rgb(89,164,211)" stroke="none" d="M 20220,7197 L 20728,7197 20728,7742 20220,7742 20220,7197 Z M 20227,7204 L 20721,7204 20721,7735 20227,7735 20227,7204 Z"/>
             <path fill="rgb(90,164,211)" stroke="none" d="M 20227,7204 L 20721,7204 20721,7735 20227,7735 20227,7204 Z M 20234,7212 L 20714,7212 20714,7727 20234,7727 20234,7212 Z"/>
             <path fill="rgb(91,165,211)" stroke="none" d="M 20234,7212 L 20714,7212 20714,7727 20234,7727 20234,7212 Z M 20240,7219 L 20708,7219 20708,7720 20240,7720 20240,7219 Z"/>
             <path fill="rgb(92,165,211)" stroke="none" d="M 20240,7219 L 20708,7219 20708,7720 20240,7720 20240,7219 Z M 20247,7226 L 20701,7226 20701,7713 20247,7713 20247,7226 Z"/>
             <path fill="rgb(93,166,212)" stroke="none" d="M 20247,7226 L 20701,7226 20701,7713 20247,7713 20247,7226 Z M 20254,7233 L 20694,7233 20694,7706 20254,7706 20254,7233 Z"/>
             <path fill="rgb(94,166,212)" stroke="none" d="M 20254,7233 L 20694,7233 20694,7706 20254,7706 20254,7233 Z M 20260,7240 L 20688,7240 20688,7699 20260,7699 20260,7240 Z"/>
             <path fill="rgb(95,167,212)" stroke="none" d="M 20260,7240 L 20688,7240 20688,7699 20260,7699 20260,7240 Z M 20267,7248 L 20681,7248 20681,7691 20267,7691 20267,7248 Z"/>
             <path fill="rgb(96,167,212)" stroke="none" d="M 20267,7248 L 20681,7248 20681,7691 20267,7691 20267,7248 Z M 20274,7255 L 20674,7255 20674,7684 20274,7684 20274,7255 Z"/>
             <path fill="rgb(97,168,213)" stroke="none" d="M 20274,7255 L 20674,7255 20674,7684 20274,7684 20274,7255 Z M 20280,7262 L 20668,7262 20668,7677 20280,7677 20280,7262 Z"/>
             <path fill="rgb(98,169,213)" stroke="none" d="M 20280,7262 L 20668,7262 20668,7677 20280,7677 20280,7262 Z M 20287,7269 L 20661,7269 20661,7670 20287,7670 20287,7269 Z"/>
             <path fill="rgb(99,169,213)" stroke="none" d="M 20287,7269 L 20661,7269 20661,7670 20287,7670 20287,7269 Z M 20294,7276 L 20654,7276 20654,7663 20294,7663 20294,7276 Z"/>
             <path fill="rgb(100,170,213)" stroke="none" d="M 20294,7276 L 20654,7276 20654,7663 20294,7663 20294,7276 Z M 20300,7283 L 20648,7283 20648,7656 20300,7656 20300,7283 Z"/>
             <path fill="rgb(101,170,214)" stroke="none" d="M 20300,7283 L 20648,7283 20648,7656 20300,7656 20300,7283 Z M 20307,7291 L 20641,7291 20641,7648 20307,7648 20307,7291 Z"/>
             <path fill="rgb(102,171,214)" stroke="none" d="M 20307,7291 L 20641,7291 20641,7648 20307,7648 20307,7291 Z M 20314,7298 L 20634,7298 20634,7641 20314,7641 20314,7298 Z"/>
             <path fill="rgb(103,171,214)" stroke="none" d="M 20314,7298 L 20634,7298 20634,7641 20314,7641 20314,7298 Z M 20321,7305 L 20627,7305 20627,7634 20321,7634 20321,7305 Z"/>
             <path fill="rgb(104,172,215)" stroke="none" d="M 20321,7305 L 20627,7305 20627,7634 20321,7634 20321,7305 Z M 20327,7312 L 20621,7312 20621,7627 20327,7627 20327,7312 Z"/>
             <path fill="rgb(105,172,215)" stroke="none" d="M 20327,7312 L 20621,7312 20621,7627 20327,7627 20327,7312 Z M 20334,7319 L 20614,7319 20614,7620 20334,7620 20334,7319 Z"/>
             <path fill="rgb(106,173,215)" stroke="none" d="M 20334,7319 L 20614,7319 20614,7620 20334,7620 20334,7319 Z M 20341,7326 L 20607,7326 20607,7613 20341,7613 20341,7326 Z"/>
             <path fill="rgb(107,173,215)" stroke="none" d="M 20341,7326 L 20607,7326 20607,7613 20341,7613 20341,7326 Z M 20347,7334 L 20601,7334 20601,7605 20347,7605 20347,7334 Z"/>
             <path fill="rgb(108,174,216)" stroke="none" d="M 20347,7334 L 20601,7334 20601,7605 20347,7605 20347,7334 Z M 20354,7341 L 20594,7341 20594,7598 20354,7598 20354,7341 Z"/>
             <path fill="rgb(109,175,216)" stroke="none" d="M 20354,7341 L 20594,7341 20594,7598 20354,7598 20354,7341 Z M 20361,7348 L 20587,7348 20587,7591 20361,7591 20361,7348 Z"/>
             <path fill="rgb(110,175,216)" stroke="none" d="M 20361,7348 L 20587,7348 20587,7591 20361,7591 20361,7348 Z M 20367,7355 L 20581,7355 20581,7584 20367,7584 20367,7355 Z"/>
             <path fill="rgb(111,176,216)" stroke="none" d="M 20367,7355 L 20581,7355 20581,7584 20367,7584 20367,7355 Z M 20374,7362 L 20574,7362 20574,7577 20374,7577 20374,7362 Z"/>
             <path fill="rgb(112,176,217)" stroke="none" d="M 20374,7362 L 20574,7362 20574,7577 20374,7577 20374,7362 Z M 20381,7370 L 20567,7370 20567,7569 20381,7569 20381,7370 Z"/>
             <path fill="rgb(113,177,217)" stroke="none" d="M 20381,7370 L 20567,7370 20567,7569 20381,7569 20381,7370 Z M 20387,7377 L 20561,7377 20561,7562 20387,7562 20387,7377 Z"/>
             <path fill="rgb(114,177,217)" stroke="none" d="M 20387,7377 L 20561,7377 20561,7562 20387,7562 20387,7377 Z M 20394,7384 L 20554,7384 20554,7555 20394,7555 20394,7384 Z"/>
             <path fill="rgb(115,178,217)" stroke="none" d="M 20394,7384 L 20554,7384 20554,7555 20394,7555 20394,7384 Z M 20401,7391 L 20547,7391 20547,7548 20401,7548 20401,7391 Z"/>
             <path fill="rgb(116,178,218)" stroke="none" d="M 20401,7391 L 20547,7391 20547,7548 20401,7548 20401,7391 Z M 20408,7398 L 20540,7398 20540,7541 20408,7541 20408,7398 Z"/>
             <path fill="rgb(117,179,218)" stroke="none" d="M 20408,7398 L 20540,7398 20540,7541 20408,7541 20408,7398 Z M 20414,7405 L 20534,7405 20534,7534 20414,7534 20414,7405 Z"/>
             <path fill="rgb(118,180,218)" stroke="none" d="M 20414,7405 L 20534,7405 20534,7534 20414,7534 20414,7405 Z M 20421,7413 L 20527,7413 20527,7526 20421,7526 20421,7413 Z"/>
             <path fill="rgb(119,180,218)" stroke="none" d="M 20421,7413 L 20527,7413 20527,7526 20421,7526 20421,7413 Z M 20428,7420 L 20520,7420 20520,7519 20428,7519 20428,7420 Z"/>
             <path fill="rgb(120,181,219)" stroke="none" d="M 20428,7420 L 20520,7420 20520,7519 20428,7519 20428,7420 Z M 20434,7427 L 20514,7427 20514,7512 20434,7512 20434,7427 Z"/>
             <path fill="rgb(121,181,219)" stroke="none" d="M 20434,7427 L 20514,7427 20514,7512 20434,7512 20434,7427 Z M 20441,7434 L 20507,7434 20507,7505 20441,7505 20441,7434 Z"/>
             <path fill="rgb(122,182,219)" stroke="none" d="M 20441,7434 L 20507,7434 20507,7505 20441,7505 20441,7434 Z M 20448,7441 L 20500,7441 20500,7498 20448,7498 20448,7441 Z"/>
             <path fill="rgb(123,182,219)" stroke="none" d="M 20448,7441 L 20500,7441 20500,7498 20448,7498 20448,7441 Z M 20454,7448 L 20494,7448 20494,7491 20454,7491 20454,7448 Z"/>
             <path fill="rgb(124,183,220)" stroke="none" d="M 20454,7448 L 20494,7448 20494,7491 20454,7491 20454,7448 Z M 20461,7456 L 20487,7456 20487,7483 20461,7483 20461,7456 Z"/>
             <path fill="rgb(125,183,220)" stroke="none" d="M 20461,7456 L 20487,7456 20487,7483 20461,7483 20461,7456 Z M 20468,7463 L 20480,7463 20480,7476 20468,7476 20468,7463 Z"/>
             <path fill="rgb(127,185,221)" stroke="none" d="M 20468,7463 L 20480,7463 20480,7476 20468,7476 20468,7463 Z"/>
            </g>
           </pattern>
          </defs>
          <path style="fill:url(#pattern1)" d="M 19966,8745 L 19966,7905 21663,6925 21663,7765 19966,8745 Z"/>
         </g>
         <path fill="none" stroke="rgb(255,255,255)" stroke-width="40" stroke-linejoin="round" d="M 19966,8745 L 19966,7905 21663,6925 21663,7765 19966,8745 Z"/>
        </g>
       </g>
       <g class="com.sun.star.drawing.PolyPolygonShape">
        <g id="id6">
         <rect class="BoundingBox" stroke="none" fill="none" x="18247" y="5925" width="3437" height="2002"/>
         <g>
          <defs>
           <linearGradient id="gradient2" x1="19965" y1="5945" x2="19965" y2="7905" gradientUnits="userSpaceOnUse">
            <stop offset="0.1" style="stop-color:rgb(0,115,188)"/>
            <stop offset="1" style="stop-color:rgb(127,185,221)"/>
           </linearGradient>
          </defs>
          <path style="fill:url(#gradient2)" d="M 19966,7905 L 18268,6925 19966,5945 21663,6925 19966,7905 Z"/>
         </g>
         <path fill="none" stroke="rgb(255,255,255)" stroke-width="40" stroke-linejoin="round" d="M 19966,7905 L 18268,6925 19966,5945 21663,6925 19966,7905 Z"/>
        </g>
       </g>
       <g class="com.sun.star.drawing.PolyPolygonShape">
        <g id="id7">
         <rect class="BoundingBox" stroke="none" fill="none" x="18247" y="5925" width="3437" height="2841"/>
         <path fill="none" stroke="rgb(0,0,0)" stroke-width="40" stroke-linejoin="round" d="M 18268,7765 L 18268,6925 19966,5945 21663,6925 21663,7765 19966,8745 18268,7765 Z"/>
        </g>
       </g>
       <g class="com.sun.star.drawing.PolyPolygonShape">
        <g id="id8">
         <rect class="BoundingBox" stroke="none" fill="none" x="19944" y="6765" width="1133" height="321"/>
         <path fill="rgb(255,255,255)" stroke="none" d="M 20935,6925 L 20692,7065 19964,6995 19964,6855 20692,6925 20814,6855 20693,6785 21056,6785 21056,6995 20935,6925 Z"/>
         <path fill="none" stroke="rgb(255,255,255)" stroke-width="40" stroke-linejoin="round" d="M 20935,6925 L 20692,7065 19964,6995 19964,6855 20692,6925 20814,6855 20693,6785 21056,6785 21056,6995 20935,6925 Z"/>
        </g>
       </g>
       <g class="com.sun.star.drawing.PolyPolygonShape">
        <g id="id9">
         <rect class="BoundingBox" stroke="none" fill="none" x="19702" y="6905" width="526" height="671"/>
         <path fill="rgb(255,255,255)" stroke="none" d="M 19965,7485 L 20086,7555 19722,7555 19722,7345 19843,7415 19964,7345 19843,6925 20086,6925 20207,7345 19965,7485 Z"/>
         <path fill="none" stroke="rgb(255,255,255)" stroke-width="40" stroke-linejoin="round" d="M 19965,7485 L 20086,7555 19722,7555 19722,7345 19843,7415 19964,7345 19843,6925 20086,6925 20207,7345 19965,7485 Z"/>
        </g>
       </g>
       <g class="com.sun.star.drawing.PolyPolygonShape">
        <g id="id10">
         <rect class="BoundingBox" stroke="none" fill="none" x="19702" y="6275" width="526" height="671"/>
         <path fill="rgb(255,255,255)" stroke="none" d="M 20086,6435 L 19964,6505 20086,6925 19843,6925 19722,6505 19965,6365 19844,6295 20207,6295 20207,6505 20086,6435 Z"/>
         <path fill="none" stroke="rgb(255,255,255)" stroke-width="40" stroke-linejoin="round" d="M 20086,6435 L 19964,6505 20086,6925 19843,6925 19722,6505 19965,6365 19844,6295 20207,6295 20207,6505 20086,6435 Z"/>
        </g>
       </g>
       <g class="com.sun.star.drawing.PolyPolygonShape">
        <g id="id11">
         <rect class="BoundingBox" stroke="none" fill="none" x="18854" y="6765" width="1131" height="321"/>
         <path fill="rgb(255,255,255)" stroke="none" d="M 19117,6995 L 19238,7065 18874,7065 18874,6855 18995,6925 19237,6785 19964,6855 19964,6995 19237,6925 19117,6995 Z"/>
         <path fill="none" stroke="rgb(255,255,255)" stroke-width="40" stroke-linejoin="round" d="M 19117,6995 L 19238,7065 18874,7065 18874,6855 18995,6925 19237,6785 19964,6855 19964,6995 19237,6925 19117,6995 Z"/>
        </g>
       </g>
      </g>
     </g>
    </g>
   </g>
  </g>
 </g>
</svg>