<?xml version="1.0" encoding="UTF-8"?>
<!DOCTYPE svg PUBLIC "-//W3C//DTD SVG 1.1//EN" "http://www.w3.org/Graphics/SVG/1.1/DTD/svg11.dtd">
<svg version="1.2" width="26.85mm" height="18mm" viewBox="16542 4008 2685 1800" preserveAspectRatio="xMidYMid" fill-rule="evenodd" stroke-width="28.222" stroke-linejoin="round" xmlns="http://www.w3.org/2000/svg" xmlns:ooo="http://xml.openoffice.org/svg/export" xmlns:xlink="http://www.w3.org/1999/xlink" xmlns:presentation="http://sun.com/xmlns/staroffice/presentation" xmlns:smil="http://www.w3.org/2001/SMIL20/" xmlns:anim="urn:oasis:names:tc:opendocument:xmlns:animation:1.0" xml:space="preserve">
 <defs class="ClipPathGroup">
  <clipPath id="presentation_clip_path" clipPathUnits="userSpaceOnUse">
   <rect x="16542" y="4008" width="2685" height="1800"/>
  </clipPath>
 </defs>
 <defs class="TextShapeIndex">
  <g ooo:slide="id1" ooo:id-list="id3 id4 id5 id6 id7 id8"/>
 </defs>
 <defs class="EmbeddedBulletChars">
  <g id="bullet-char-template(57356)" transform="scale(0.00048828125,-0.00048828125)">
   <path d="M 580,1141 L 1163,571 580,0 -4,571 580,1141 Z"/>
  </g>
  <g id="bullet-char-template(57354)" transform="scale(0.00048828125,-0.00048828125)">
   <path d="M 8,1128 L 1137,1128 1137,0 8,0 8,1128 Z"/>
  </g>
  <g id="bullet-char-template(10146)" transform="scale(0.00048828125,-0.00048828125)">
   <path d="M 174,0 L 602,739 174,1481 1456,739 174,0 Z M 1358,739 L 309,1346 659,739 1358,739 Z"/>
  </g>
  <g id="bullet-char-template(10132)" transform="scale(0.00048828125,-0.00048828125)">
   <path d="M 2015,739 L 1276,0 717,0 1260,543 174,543 174,936 1260,936 717,1481 1274,1481 2015,739 Z"/>
  </g>
  <g id="bullet-char-template(10007)" transform="scale(0.00048828125,-0.00048828125)">
   <path d="M 0,-2 C -7,14 -16,27 -25,37 L 356,567 C 262,823 215,952 215,954 215,979 228,992 255,992 264,992 276,990 289,987 310,991 331,999 354,1012 L 381,999 492,748 772,1049 836,1024 860,1049 C 881,1039 901,1025 922,1006 886,937 835,863 770,784 769,783 710,716 594,584 L 774,223 C 774,196 753,168 711,139 L 727,119 C 717,90 699,76 672,76 641,76 570,178 457,381 L 164,-76 C 142,-110 111,-127 72,-127 30,-127 9,-110 8,-76 1,-67 -2,-52 -2,-32 -2,-23 -1,-13 0,-2 Z"/>
  </g>
  <g id="bullet-char-template(10004)" transform="scale(0.00048828125,-0.00048828125)">
   <path d="M 285,-33 C 182,-33 111,30 74,156 52,228 41,333 41,471 41,549 55,616 82,672 116,743 169,778 240,778 293,778 328,747 346,684 L 369,508 C 377,444 397,411 428,410 L 1163,1116 C 1174,1127 1196,1133 1229,1133 1271,1133 1292,1118 1292,1087 L 1292,965 C 1292,929 1282,901 1262,881 L 442,47 C 390,-6 338,-33 285,-33 Z"/>
  </g>
  <g id="bullet-char-template(9679)" transform="scale(0.00048828125,-0.00048828125)">
   <path d="M 813,0 C 632,0 489,54 383,161 276,268 223,411 223,592 223,773 276,916 383,1023 489,1130 632,1184 813,1184 992,1184 1136,1130 1245,1023 1353,916 1407,772 1407,592 1407,412 1353,268 1245,161 1136,54 992,0 813,0 Z"/>
  </g>
  <g id="bullet-char-template(8226)" transform="scale(0.00048828125,-0.00048828125)">
   <path d="M 346,457 C 273,457 209,483 155,535 101,586 74,649 74,723 74,796 101,859 155,911 209,963 273,989 346,989 419,989 480,963 531,910 582,859 608,796 608,723 608,648 583,586 532,535 482,483 420,457 346,457 Z"/>
  </g>
  <g id="bullet-char-template(8211)" transform="scale(0.00048828125,-0.00048828125)">
   <path d="M -4,459 L 1135,459 1135,606 -4,606 -4,459 Z"/>
  </g>
 </defs>
 <defs class="TextEmbeddedBitmaps"/>
 <g class="SlideGroup">
  <g>
   <g id="id1" class="Slide" clip-path="url(#presentation_clip_path)">
    <g class="Page">
     <g class="Group">
      <g class="com.sun.star.drawing.ClosedBezierShape">
       <g id="id3">
        <rect class="BoundingBox" stroke="none" fill="none" x="17512" y="4742" width="1716" height="1048"/>
        <path fill="rgb(221,221,221)" stroke="none" d="M 17513,5788 C 17774,5788 19226,5238 19226,5018 19226,4798 19035,4743 18940,4743 18940,4908 17513,5567 17513,5788 Z"/>
        <path fill="none" stroke="rgb(221,221,221)" d="M 17513,5788 C 17774,5788 19226,5238 19226,5018 19226,4798 19035,4743 18940,4743 18940,4908 17513,5567 17513,5788 Z"/>
       </g>
      </g>
      <g class="Group">
       <g class="com.sun.star.drawing.PolyPolygonShape">
        <g id="id4">
         <rect class="BoundingBox" stroke="none" fill="none" x="17493" y="4558" width="1468" height="1251"/>
         <g>
          <defs>
           <pattern id="pattern1" x="17513" y="4578" width="1428" height="1211" patternUnits="userSpaceOnUse">
            <g transform="translate(-17513,-4578)">
             <path fill="rgb(179,179,179)" stroke="none" d="M 17512,4577 L 18941,4577 18941,5789 17512,5789 17512,4577 Z M 17241,4347 L 18640,4347 18640,5533 17241,5533 17241,4347 Z"/>
             <path fill="rgb(180,180,180)" stroke="none" d="M 17241,4347 L 18640,4347 18640,5533 17241,5533 17241,4347 Z M 17255,4359 L 18626,4359 18626,5521 17255,5521 17255,4359 Z"/>
             <path fill="rgb(181,181,181)" stroke="none" d="M 17255,4359 L 18626,4359 18626,5521 17255,5521 17255,4359 Z M 17269,4371 L 18612,4371 18612,5509 17269,5509 17269,4371 Z"/>
             <path fill="rgb(182,182,182)" stroke="none" d="M 17269,4371 L 18612,4371 18612,5509 17269,5509 17269,4371 Z M 17284,4383 L 18597,4383 18597,5497 17284,5497 17284,4383 Z"/>
             <path fill="rgb(183,183,183)" stroke="none" d="M 17284,4383 L 18597,4383 18597,5497 17284,5497 17284,4383 Z M 17298,4395 L 18583,4395 18583,5485 17298,5485 17298,4395 Z"/>
             <path fill="rgb(184,184,184)" stroke="none" d="M 17298,4395 L 18583,4395 18583,5485 17298,5485 17298,4395 Z M 17312,4407 L 18569,4407 18569,5473 17312,5473 17312,4407 Z"/>
             <path fill="rgb(185,185,185)" stroke="none" d="M 17312,4407 L 18569,4407 18569,5473 17312,5473 17312,4407 Z M 17327,4419 L 18554,4419 18554,5461 17327,5461 17327,4419 Z"/>
             <path fill="rgb(186,186,186)" stroke="none" d="M 17327,4419 L 18554,4419 18554,5461 17327,5461 17327,4419 Z M 17341,4432 L 18540,4432 18540,5448 17341,5448 17341,4432 Z"/>
             <path fill="rgb(187,187,187)" stroke="none" d="M 17341,4432 L 18540,4432 18540,5448 17341,5448 17341,4432 Z M 17355,4444 L 18526,4444 18526,5436 17355,5436 17355,4444 Z"/>
             <path fill="rgb(188,188,188)" stroke="none" d="M 17355,4444 L 18526,4444 18526,5436 17355,5436 17355,4444 Z M 17370,4456 L 18512,4456 18512,5424 17370,5424 17370,4456 Z"/>
             <path fill="rgb(189,189,189)" stroke="none" d="M 17370,4456 L 18512,4456 18512,5424 17370,5424 17370,4456 Z M 17384,4468 L 18497,4468 18497,5412 17384,5412 17384,4468 Z"/>
             <path fill="rgb(190,190,190)" stroke="none" d="M 17384,4468 L 18497,4468 18497,5412 17384,5412 17384,4468 Z M 17398,4480 L 18483,4480 18483,5400 17398,5400 17398,4480 Z"/>
             <path fill="rgb(191,191,191)" stroke="none" d="M 17398,4480 L 18483,4480 18483,5400 17398,5400 17398,4480 Z M 17412,4492 L 18469,4492 18469,5388 17412,5388 17412,4492 Z"/>
             <path fill="rgb(192,192,192)" stroke="none" d="M 17412,4492 L 18469,4492 18469,5388 17412,5388 17412,4492 Z M 17427,4504 L 18454,4504 18454,5376 17427,5376 17427,4504 Z"/>
             <path fill="rgb(193,193,193)" stroke="none" d="M 17427,4504 L 18454,4504 18454,5376 17427,5376 17427,4504 Z M 17441,4516 L 18440,4516 18440,5364 17441,5364 17441,4516 Z"/>
             <path fill="rgb(194,194,194)" stroke="none" d="M 17441,4516 L 18440,4516 18440,5364 17441,5364 17441,4516 Z M 17455,4529 L 18426,4529 18426,5351 17455,5351 17455,4529 Z"/>
             <path fill="rgb(195,195,195)" stroke="none" d="M 17455,4529 L 18426,4529 18426,5351 17455,5351 17455,4529 Z M 17470,4541 L 18411,4541 18411,5339 17470,5339 17470,4541 Z"/>
             <path fill="rgb(196,196,196)" stroke="none" d="M 17470,4541 L 18411,4541 18411,5339 17470,5339 17470,4541 Z M 17484,4553 L 18397,4553 18397,5327 17484,5327 17484,4553 Z"/>
             <path fill="rgb(197,197,197)" stroke="none" d="M 17484,4553 L 18397,4553 18397,5327 17484,5327 17484,4553 Z M 17497,4564 L 18383,4564 18383,5315 17497,5315 17497,4564 Z"/>
             <path fill="rgb(198,198,198)" stroke="none" d="M 17497,4564 L 18383,4564 18383,5315 17497,5315 17497,4564 Z M 17512,4576 L 18369,4576 18369,5303 17512,5303 17512,4576 Z"/>
             <path fill="rgb(199,199,199)" stroke="none" d="M 17512,4576 L 18369,4576 18369,5303 17512,5303 17512,4576 Z M 17526,4588 L 18354,4588 18354,5291 17526,5291 17526,4588 Z"/>
             <path fill="rgb(200,200,200)" stroke="none" d="M 17526,4588 L 18354,4588 18354,5291 17526,5291 17526,4588 Z M 17540,4600 L 18340,4600 18340,5279 17540,5279 17540,4600 Z"/>
             <path fill="rgb(201,201,201)" stroke="none" d="M 17540,4600 L 18340,4600 18340,5279 17540,5279 17540,4600 Z M 17554,4612 L 18326,4612 18326,5267 17554,5267 17554,4612 Z"/>
             <path fill="rgb(202,202,202)" stroke="none" d="M 17554,4612 L 18326,4612 18326,5267 17554,5267 17554,4612 Z M 17569,4625 L 18311,4625 18311,5254 17569,5254 17569,4625 Z"/>
             <path fill="rgb(203,203,203)" stroke="none" d="M 17569,4625 L 18311,4625 18311,5254 17569,5254 17569,4625 Z M 17583,4637 L 18297,4637 18297,5242 17583,5242 17583,4637 Z"/>
             <path fill="rgb(204,204,204)" stroke="none" d="M 17583,4637 L 18297,4637 18297,5242 17583,5242 17583,4637 Z M 17597,4649 L 18283,4649 18283,5230 17597,5230 17597,4649 Z"/>
             <path fill="rgb(205,205,205)" stroke="none" d="M 17597,4649 L 18283,4649 18283,5230 17597,5230 17597,4649 Z M 17612,4661 L 18268,4661 18268,5218 17612,5218 17612,4661 Z"/>
             <path fill="rgb(206,206,206)" stroke="none" d="M 17612,4661 L 18268,4661 18268,5218 17612,5218 17612,4661 Z M 17626,4673 L 18254,4673 18254,5206 17626,5206 17626,4673 Z"/>
             <path fill="rgb(207,207,207)" stroke="none" d="M 17626,4673 L 18254,4673 18254,5206 17626,5206 17626,4673 Z M 17640,4685 L 18240,4685 18240,5194 17640,5194 17640,4685 Z"/>
             <path fill="rgb(208,208,208)" stroke="none" d="M 17640,4685 L 18240,4685 18240,5194 17640,5194 17640,4685 Z M 17655,4697 L 18226,4697 18226,5182 17655,5182 17655,4697 Z"/>
             <path fill="rgb(209,209,209)" stroke="none" d="M 17655,4697 L 18226,4697 18226,5182 17655,5182 17655,4697 Z M 17669,4710 L 18211,4710 18211,5169 17669,5169 17669,4710 Z"/>
             <path fill="rgb(210,210,210)" stroke="none" d="M 17669,4710 L 18211,4710 18211,5169 17669,5169 17669,4710 Z M 17683,4722 L 18197,4722 18197,5157 17683,5157 17683,4722 Z"/>
             <path fill="rgb(211,211,211)" stroke="none" d="M 17683,4722 L 18197,4722 18197,5157 17683,5157 17683,4722 Z M 17697,4734 L 18183,4734 18183,5145 17697,5145 17697,4734 Z"/>
             <path fill="rgb(212,212,212)" stroke="none" d="M 17697,4734 L 18183,4734 18183,5145 17697,5145 17697,4734 Z M 17712,4746 L 18168,4746 18168,5133 17712,5133 17712,4746 Z"/>
             <path fill="rgb(213,213,213)" stroke="none" d="M 17712,4746 L 18168,4746 18168,5133 17712,5133 17712,4746 Z M 17726,4758 L 18154,4758 18154,5121 17726,5121 17726,4758 Z"/>
             <path fill="rgb(214,214,214)" stroke="none" d="M 17726,4758 L 18154,4758 18154,5121 17726,5121 17726,4758 Z M 17740,4770 L 18140,4770 18140,5109 17740,5109 17740,4770 Z"/>
             <path fill="rgb(215,215,215)" stroke="none" d="M 17740,4770 L 18140,4770 18140,5109 17740,5109 17740,4770 Z M 17755,4782 L 18125,4782 18125,5097 17755,5097 17755,4782 Z"/>
             <path fill="rgb(216,216,216)" stroke="none" d="M 17755,4782 L 18125,4782 18125,5097 17755,5097 17755,4782 Z M 17769,4794 L 18111,4794 18111,5085 17769,5085 17769,4794 Z"/>
             <path fill="rgb(217,217,217)" stroke="none" d="M 17769,4794 L 18111,4794 18111,5085 17769,5085 17769,4794 Z M 17783,4807 L 18097,4807 18097,5072 17783,5072 17783,4807 Z"/>
             <path fill="rgb(218,218,218)" stroke="none" d="M 17783,4807 L 18097,4807 18097,5072 17783,5072 17783,4807 Z M 17798,4819 L 18083,4819 18083,5060 17798,5060 17798,4819 Z"/>
             <path fill="rgb(219,219,219)" stroke="none" d="M 17798,4819 L 18083,4819 18083,5060 17798,5060 17798,4819 Z M 17812,4831 L 18068,4831 18068,5048 17812,5048 17812,4831 Z"/>
             <path fill="rgb(220,220,220)" stroke="none" d="M 17812,4831 L 18068,4831 18068,5048 17812,5048 17812,4831 Z M 17826,4843 L 18054,4843 18054,5036 17826,5036 17826,4843 Z"/>
             <path fill="rgb(221,221,221)" stroke="none" d="M 17826,4843 L 18054,4843 18054,5036 17826,5036 17826,4843 Z M 17840,4855 L 18040,4855 18040,5024 17840,5024 17840,4855 Z"/>
             <path fill="rgb(222,222,222)" stroke="none" d="M 17840,4855 L 18040,4855 18040,5024 17840,5024 17840,4855 Z M 17855,4867 L 18025,4867 18025,5012 17855,5012 17855,4867 Z"/>
             <path fill="rgb(223,223,223)" stroke="none" d="M 17855,4867 L 18025,4867 18025,5012 17855,5012 17855,4867 Z M 17869,4879 L 18011,4879 18011,5000 17869,5000 17869,4879 Z"/>
             <path fill="rgb(224,224,224)" stroke="none" d="M 17869,4879 L 18011,4879 18011,5000 17869,5000 17869,4879 Z M 17883,4891 L 17997,4891 17997,4988 17883,4988 17883,4891 Z"/>
             <path fill="rgb(225,225,225)" stroke="none" d="M 17883,4891 L 17997,4891 17997,4988 17883,4988 17883,4891 Z M 17898,4904 L 17982,4904 17982,4975 17898,4975 17898,4904 Z"/>
             <path fill="rgb(226,226,226)" stroke="none" d="M 17898,4904 L 17982,4904 17982,4975 17898,4975 17898,4904 Z M 17912,4916 L 17968,4916 17968,4963 17912,4963 17912,4916 Z"/>
             <path fill="rgb(227,227,227)" stroke="none" d="M 17912,4916 L 17968,4916 17968,4963 17912,4963 17912,4916 Z M 17926,4928 L 17954,4928 17954,4951 17926,4951 17926,4928 Z"/>
             <path fill="rgb(229,229,229)" stroke="none" d="M 17926,4928 L 17954,4928 17954,4951 17926,4951 17926,4928 Z"/>
            </g>
           </pattern>
          </defs>
          <path style="fill:url(#pattern1)" d="M 17513,5788 L 17513,5403 18940,4578 18940,4963 17513,5788 Z"/>
         </g>
         <path fill="none" stroke="rgb(255,255,255)" stroke-width="40" stroke-linejoin="round" d="M 17513,5788 L 17513,5403 18940,4578 18940,4963 17513,5788 Z"/>
        </g>
       </g>
       <g class="com.sun.star.drawing.PolyPolygonShape">
        <g id="id5">
         <rect class="BoundingBox" stroke="none" fill="none" x="16542" y="4008" width="2420" height="1416"/>
         <g>
          <defs>
           <linearGradient id="gradient1" x1="17751" y1="4028" x2="17751" y2="5403" gradientUnits="userSpaceOnUse">
            <stop offset="0.1" style="stop-color:rgb(179,179,179)"/>
            <stop offset="1" style="stop-color:rgb(229,229,229)"/>
           </linearGradient>
          </defs>
          <path style="fill:url(#gradient1)" d="M 17513,5403 L 16562,4853 17989,4028 18941,4578 17513,5403 Z"/>
         </g>
         <path fill="none" stroke="rgb(255,255,255)" stroke-width="40" stroke-linejoin="round" d="M 17513,5403 L 16562,4853 17989,4028 18941,4578 17513,5403 Z"/>
        </g>
       </g>
       <g class="com.sun.star.drawing.PolyPolygonShape">
        <g id="id6">
         <rect class="BoundingBox" stroke="none" fill="none" x="16542" y="4833" width="992" height="976"/>
         <g>
          <defs>
           <linearGradient id="gradient2" x1="16562" y1="5320" x2="17513" y2="5320" gradientUnits="userSpaceOnUse">
            <stop offset="0.1" style="stop-color:rgb(179,179,179)"/>
            <stop offset="1" style="stop-color:rgb(229,229,229)"/>
           </linearGradient>
          </defs>
          <path style="fill:url(#gradient2)" d="M 16562,5238 L 16562,4853 17513,5403 17513,5788 16562,5238 Z"/>
         </g>
         <path fill="none" stroke="rgb(255,255,255)" stroke-width="40" stroke-linejoin="round" d="M 16562,5238 L 16562,4853 17513,5403 17513,5788 16562,5238 Z"/>
        </g>
       </g>
       <g class="com.sun.star.drawing.PolyPolygonShape">
        <g id="id7">
         <rect class="BoundingBox" stroke="none" fill="none" x="16542" y="4008" width="2420" height="1801"/>
         <path fill="none" stroke="rgb(0,0,0)" stroke-width="40" stroke-linejoin="round" d="M 16562,5238 L 16562,4853 17989,4028 18941,4578 18941,4963 17513,5788 16562,5238 Z"/>
        </g>
       </g>
       <g class="com.sun.star.drawing.PolyPolygonShape">
        <g id="id8">
         <rect class="BoundingBox" stroke="none" fill="none" x="17208" y="5328" width="136" height="261"/>
         <path fill="rgb(209,97,108)" stroke="none" d="M 17228,5513 L 17228,5348 17323,5403 17323,5568 17228,5513 Z"/>
         <path fill="none" stroke="rgb(127,127,127)" stroke-width="40" stroke-linejoin="round" d="M 17228,5513 L 17228,5348 17323,5403 17323,5568 17228,5513 Z"/>
        </g>
       </g>
      </g>
     </g>
    </g>
   </g>
  </g>
 </g>
</svg>