<?xml version="1.0" encoding="UTF-8"?>
<!DOCTYPE svg PUBLIC "-//W3C//DTD SVG 1.1//EN" "http://www.w3.org/Graphics/SVG/1.1/DTD/svg11.dtd">
<svg version="1.2" width="23.41mm" height="34mm" viewBox="14033 15985 2341 3400" preserveAspectRatio="xMidYMid" fill-rule="evenodd" stroke-width="28.222" stroke-linejoin="round" xmlns="http://www.w3.org/2000/svg" xmlns:ooo="http://xml.openoffice.org/svg/export" xmlns:xlink="http://www.w3.org/1999/xlink" xmlns:presentation="http://sun.com/xmlns/staroffice/presentation" xmlns:smil="http://www.w3.org/2001/SMIL20/" xmlns:anim="urn:oasis:names:tc:opendocument:xmlns:animation:1.0" xml:space="preserve">
 <defs class="ClipPathGroup">
  <clipPath id="presentation_clip_path" clipPathUnits="userSpaceOnUse">
   <rect x="14033" y="15985" width="2341" height="3400"/>
  </clipPath>
 </defs>
 <defs class="TextShapeIndex">
  <g ooo:slide="id1" ooo:id-list="id3 id4 id5 id6 id7 id8 id9 id10 id11 id12 id13 id14 id15"/>
 </defs>
 <defs class="EmbeddedBulletChars">
  <g id="bullet-char-template(57356)" transform="scale(0.00048828125,-0.00048828125)">
   <path d="M 580,1141 L 1163,571 580,0 -4,571 580,1141 Z"/>
  </g>
  <g id="bullet-char-template(57354)" transform="scale(0.00048828125,-0.00048828125)">
   <path d="M 8,1128 L 1137,1128 1137,0 8,0 8,1128 Z"/>
  </g>
  <g id="bullet-char-template(10146)" transform="scale(0.00048828125,-0.00048828125)">
   <path d="M 174,0 L 602,739 174,1481 1456,739 174,0 Z M 1358,739 L 309,1346 659,739 1358,739 Z"/>
  </g>
  <g id="bullet-char-template(10132)" transform="scale(0.00048828125,-0.00048828125)">
   <path d="M 2015,739 L 1276,0 717,0 1260,543 174,543 174,936 1260,936 717,1481 1274,1481 2015,739 Z"/>
  </g>
  <g id="bullet-char-template(10007)" transform="scale(0.00048828125,-0.00048828125)">
   <path d="M 0,-2 C -7,14 -16,27 -25,37 L 356,567 C 262,823 215,952 215,954 215,979 228,992 255,992 264,992 276,990 289,987 310,991 331,999 354,1012 L 381,999 492,748 772,1049 836,1024 860,1049 C 881,1039 901,1025 922,1006 886,937 835,863 770,784 769,783 710,716 594,584 L 774,223 C 774,196 753,168 711,139 L 727,119 C 717,90 699,76 672,76 641,76 570,178 457,381 L 164,-76 C 142,-110 111,-127 72,-127 30,-127 9,-110 8,-76 1,-67 -2,-52 -2,-32 -2,-23 -1,-13 0,-2 Z"/>
  </g>
  <g id="bullet-char-template(10004)" transform="scale(0.00048828125,-0.00048828125)">
   <path d="M 285,-33 C 182,-33 111,30 74,156 52,228 41,333 41,471 41,549 55,616 82,672 116,743 169,778 240,778 293,778 328,747 346,684 L 369,508 C 377,444 397,411 428,410 L 1163,1116 C 1174,1127 1196,1133 1229,1133 1271,1133 1292,1118 1292,1087 L 1292,965 C 1292,929 1282,901 1262,881 L 442,47 C 390,-6 338,-33 285,-33 Z"/>
  </g>
  <g id="bullet-char-template(9679)" transform="scale(0.00048828125,-0.00048828125)">
   <path d="M 813,0 C 632,0 489,54 383,161 276,268 223,411 223,592 223,773 276,916 383,1023 489,1130 632,1184 813,1184 992,1184 1136,1130 1245,1023 1353,916 1407,772 1407,592 1407,412 1353,268 1245,161 1136,54 992,0 813,0 Z"/>
  </g>
  <g id="bullet-char-template(8226)" transform="scale(0.00048828125,-0.00048828125)">
   <path d="M 346,457 C 273,457 209,483 155,535 101,586 74,649 74,723 74,796 101,859 155,911 209,963 273,989 346,989 419,989 480,963 531,910 582,859 608,796 608,723 608,648 583,586 532,535 482,483 420,457 346,457 Z"/>
  </g>
  <g id="bullet-char-template(8211)" transform="scale(0.00048828125,-0.00048828125)">
   <path d="M -4,459 L 1135,459 1135,606 -4,606 -4,459 Z"/>
  </g>
 </defs>
 <defs class="TextEmbeddedBitmaps"/>
 <g class="SlideGroup">
  <g>
   <g id="id1" class="Slide" clip-path="url(#presentation_clip_path)">
    <g class="Page">
     <g class="Group">
      <g class="com.sun.star.drawing.ClosedBezierShape">
       <g id="id3">
        <rect class="BoundingBox" stroke="none" fill="none" x="14697" y="18243" width="1678" height="1123"/>
        <path fill="rgb(221,221,221)" stroke="none" d="M 14698,19364 C 15052,19364 16373,18990 16373,18692 16373,18393 16341,18244 15986,18244 15986,18468 14698,19065 14698,19364 Z"/>
        <path fill="none" stroke="rgb(221,221,221)" d="M 14698,19364 C 15052,19364 16373,18990 16373,18692 16373,18393 16341,18244 15986,18244 15986,18468 14698,19065 14698,19364 Z"/>
       </g>
      </g>
      <g class="Group">
       <g class="com.sun.star.drawing.PolyPolygonShape">
        <g id="id4">
         <rect class="BoundingBox" stroke="none" fill="none" x="14678" y="16359" width="1329" height="3027"/>
         <g>
          <defs>
           <pattern id="pattern1" x="14698" y="16379" width="1289" height="2987" patternUnits="userSpaceOnUse">
            <g transform="translate(-14698,-16379)">
             <path fill="rgb(179,179,179)" stroke="none" d="M 14697,16378 L 15987,16378 15987,19366 14697,19366 14697,16378 Z M 14452,15810 L 15716,15810 15716,18738 14452,18738 14452,15810 Z"/>
             <path fill="rgb(180,180,180)" stroke="none" d="M 14452,15810 L 15716,15810 15716,18738 14452,18738 14452,15810 Z M 14465,15840 L 15703,15840 15703,18708 14465,18708 14465,15840 Z"/>
             <path fill="rgb(181,181,181)" stroke="none" d="M 14465,15840 L 15703,15840 15703,18708 14465,18708 14465,15840 Z M 14478,15870 L 15690,15870 15690,18678 14478,18678 14478,15870 Z"/>
             <path fill="rgb(182,182,182)" stroke="none" d="M 14478,15870 L 15690,15870 15690,18678 14478,18678 14478,15870 Z M 14491,15900 L 15677,15900 15677,18648 14491,18648 14491,15900 Z"/>
             <path fill="rgb(183,183,183)" stroke="none" d="M 14491,15900 L 15677,15900 15677,18648 14491,18648 14491,15900 Z M 14504,15930 L 15664,15930 15664,18618 14504,18618 14504,15930 Z"/>
             <path fill="rgb(184,184,184)" stroke="none" d="M 14504,15930 L 15664,15930 15664,18618 14504,18618 14504,15930 Z M 14517,15960 L 15651,15960 15651,18588 14517,18588 14517,15960 Z"/>
             <path fill="rgb(185,185,185)" stroke="none" d="M 14517,15960 L 15651,15960 15651,18588 14517,18588 14517,15960 Z M 14530,15990 L 15638,15990 15638,18558 14530,18558 14530,15990 Z"/>
             <path fill="rgb(186,186,186)" stroke="none" d="M 14530,15990 L 15638,15990 15638,18558 14530,18558 14530,15990 Z M 14543,16020 L 15625,16020 15625,18528 14543,18528 14543,16020 Z"/>
             <path fill="rgb(187,187,187)" stroke="none" d="M 14543,16020 L 15625,16020 15625,18528 14543,18528 14543,16020 Z M 14556,16050 L 15612,16050 15612,18498 14556,18498 14556,16050 Z"/>
             <path fill="rgb(188,188,188)" stroke="none" d="M 14556,16050 L 15612,16050 15612,18498 14556,18498 14556,16050 Z M 14569,16079 L 15599,16079 15599,18469 14569,18469 14569,16079 Z"/>
             <path fill="rgb(189,189,189)" stroke="none" d="M 14569,16079 L 15599,16079 15599,18469 14569,18469 14569,16079 Z M 14582,16109 L 15586,16109 15586,18439 14582,18439 14582,16109 Z"/>
             <path fill="rgb(190,190,190)" stroke="none" d="M 14582,16109 L 15586,16109 15586,18439 14582,18439 14582,16109 Z M 14594,16139 L 15574,16139 15574,18409 14594,18409 14594,16139 Z"/>
             <path fill="rgb(191,191,191)" stroke="none" d="M 14594,16139 L 15574,16139 15574,18409 14594,18409 14594,16139 Z M 14607,16169 L 15561,16169 15561,18379 14607,18379 14607,16169 Z"/>
             <path fill="rgb(192,192,192)" stroke="none" d="M 14607,16169 L 15561,16169 15561,18379 14607,18379 14607,16169 Z M 14620,16199 L 15548,16199 15548,18349 14620,18349 14620,16199 Z"/>
             <path fill="rgb(193,193,193)" stroke="none" d="M 14620,16199 L 15548,16199 15548,18349 14620,18349 14620,16199 Z M 14633,16229 L 15535,16229 15535,18319 14633,18319 14633,16229 Z"/>
             <path fill="rgb(194,194,194)" stroke="none" d="M 14633,16229 L 15535,16229 15535,18319 14633,18319 14633,16229 Z M 14646,16259 L 15522,16259 15522,18289 14646,18289 14646,16259 Z"/>
             <path fill="rgb(195,195,195)" stroke="none" d="M 14646,16259 L 15522,16259 15522,18289 14646,18289 14646,16259 Z M 14659,16289 L 15509,16289 15509,18259 14659,18259 14659,16289 Z"/>
             <path fill="rgb(196,196,196)" stroke="none" d="M 14659,16289 L 15509,16289 15509,18259 14659,18259 14659,16289 Z M 14672,16319 L 15496,16319 15496,18229 14672,18229 14672,16319 Z"/>
             <path fill="rgb(197,197,197)" stroke="none" d="M 14672,16319 L 15496,16319 15496,18229 14672,18229 14672,16319 Z M 14684,16348 L 15483,16348 15483,18200 14684,18200 14684,16348 Z"/>
             <path fill="rgb(198,198,198)" stroke="none" d="M 14684,16348 L 15483,16348 15483,18200 14684,18200 14684,16348 Z M 14697,16377 L 15470,16377 15470,18170 14697,18170 14697,16377 Z"/>
             <path fill="rgb(199,199,199)" stroke="none" d="M 14697,16377 L 15470,16377 15470,18170 14697,18170 14697,16377 Z M 14710,16407 L 15457,16407 15457,18140 14710,18140 14710,16407 Z"/>
             <path fill="rgb(200,200,200)" stroke="none" d="M 14710,16407 L 15457,16407 15457,18140 14710,18140 14710,16407 Z M 14723,16437 L 15444,16437 15444,18110 14723,18110 14723,16437 Z"/>
             <path fill="rgb(201,201,201)" stroke="none" d="M 14723,16437 L 15444,16437 15444,18110 14723,18110 14723,16437 Z M 14735,16467 L 15432,16467 15432,18080 14735,18080 14735,16467 Z"/>
             <path fill="rgb(202,202,202)" stroke="none" d="M 14735,16467 L 15432,16467 15432,18080 14735,18080 14735,16467 Z M 14748,16497 L 15419,16497 15419,18050 14748,18050 14748,16497 Z"/>
             <path fill="rgb(203,203,203)" stroke="none" d="M 14748,16497 L 15419,16497 15419,18050 14748,18050 14748,16497 Z M 14761,16527 L 15406,16527 15406,18020 14761,18020 14761,16527 Z"/>
             <path fill="rgb(204,204,204)" stroke="none" d="M 14761,16527 L 15406,16527 15406,18020 14761,18020 14761,16527 Z M 14774,16557 L 15393,16557 15393,17990 14774,17990 14774,16557 Z"/>
             <path fill="rgb(205,205,205)" stroke="none" d="M 14774,16557 L 15393,16557 15393,17990 14774,17990 14774,16557 Z M 14787,16587 L 15380,16587 15380,17960 14787,17960 14787,16587 Z"/>
             <path fill="rgb(206,206,206)" stroke="none" d="M 14787,16587 L 15380,16587 15380,17960 14787,17960 14787,16587 Z M 14800,16616 L 15367,16616 15367,17931 14800,17931 14800,16616 Z"/>
             <path fill="rgb(207,207,207)" stroke="none" d="M 14800,16616 L 15367,16616 15367,17931 14800,17931 14800,16616 Z M 14813,16646 L 15354,16646 15354,17901 14813,17901 14813,16646 Z"/>
             <path fill="rgb(208,208,208)" stroke="none" d="M 14813,16646 L 15354,16646 15354,17901 14813,17901 14813,16646 Z M 14826,16676 L 15341,16676 15341,17871 14826,17871 14826,16676 Z"/>
             <path fill="rgb(209,209,209)" stroke="none" d="M 14826,16676 L 15341,16676 15341,17871 14826,17871 14826,16676 Z M 14839,16706 L 15328,16706 15328,17841 14839,17841 14839,16706 Z"/>
             <path fill="rgb(210,210,210)" stroke="none" d="M 14839,16706 L 15328,16706 15328,17841 14839,17841 14839,16706 Z M 14852,16736 L 15315,16736 15315,17811 14852,17811 14852,16736 Z"/>
             <path fill="rgb(211,211,211)" stroke="none" d="M 14852,16736 L 15315,16736 15315,17811 14852,17811 14852,16736 Z M 14865,16766 L 15302,16766 15302,17781 14865,17781 14865,16766 Z"/>
             <path fill="rgb(212,212,212)" stroke="none" d="M 14865,16766 L 15302,16766 15302,17781 14865,17781 14865,16766 Z M 14877,16796 L 15290,16796 15290,17751 14877,17751 14877,16796 Z"/>
             <path fill="rgb(213,213,213)" stroke="none" d="M 14877,16796 L 15290,16796 15290,17751 14877,17751 14877,16796 Z M 14890,16826 L 15277,16826 15277,17721 14890,17721 14890,16826 Z"/>
             <path fill="rgb(214,214,214)" stroke="none" d="M 14890,16826 L 15277,16826 15277,17721 14890,17721 14890,16826 Z M 14903,16856 L 15264,16856 15264,17691 14903,17691 14903,16856 Z"/>
             <path fill="rgb(215,215,215)" stroke="none" d="M 14903,16856 L 15264,16856 15264,17691 14903,17691 14903,16856 Z M 14916,16885 L 15251,16885 15251,17662 14916,17662 14916,16885 Z"/>
             <path fill="rgb(216,216,216)" stroke="none" d="M 14916,16885 L 15251,16885 15251,17662 14916,17662 14916,16885 Z M 14929,16915 L 15238,16915 15238,17632 14929,17632 14929,16915 Z"/>
             <path fill="rgb(217,217,217)" stroke="none" d="M 14929,16915 L 15238,16915 15238,17632 14929,17632 14929,16915 Z M 14942,16945 L 15225,16945 15225,17602 14942,17602 14942,16945 Z"/>
             <path fill="rgb(218,218,218)" stroke="none" d="M 14942,16945 L 15225,16945 15225,17602 14942,17602 14942,16945 Z M 14955,16975 L 15212,16975 15212,17572 14955,17572 14955,16975 Z"/>
             <path fill="rgb(219,219,219)" stroke="none" d="M 14955,16975 L 15212,16975 15212,17572 14955,17572 14955,16975 Z M 14968,17005 L 15199,17005 15199,17542 14968,17542 14968,17005 Z"/>
             <path fill="rgb(220,220,220)" stroke="none" d="M 14968,17005 L 15199,17005 15199,17542 14968,17542 14968,17005 Z M 14981,17035 L 15186,17035 15186,17512 14981,17512 14981,17035 Z"/>
             <path fill="rgb(221,221,221)" stroke="none" d="M 14981,17035 L 15186,17035 15186,17512 14981,17512 14981,17035 Z M 14994,17065 L 15173,17065 15173,17482 14994,17482 14994,17065 Z"/>
             <path fill="rgb(222,222,222)" stroke="none" d="M 14994,17065 L 15173,17065 15173,17482 14994,17482 14994,17065 Z M 15007,17095 L 15160,17095 15160,17452 15007,17452 15007,17095 Z"/>
             <path fill="rgb(223,223,223)" stroke="none" d="M 15007,17095 L 15160,17095 15160,17452 15007,17452 15007,17095 Z M 15019,17125 L 15148,17125 15148,17422 15019,17422 15019,17125 Z"/>
             <path fill="rgb(224,224,224)" stroke="none" d="M 15019,17125 L 15148,17125 15148,17422 15019,17422 15019,17125 Z M 15032,17154 L 15135,17154 15135,17393 15032,17393 15032,17154 Z"/>
             <path fill="rgb(225,225,225)" stroke="none" d="M 15032,17154 L 15135,17154 15135,17393 15032,17393 15032,17154 Z M 15045,17184 L 15122,17184 15122,17363 15045,17363 15045,17184 Z"/>
             <path fill="rgb(226,226,226)" stroke="none" d="M 15045,17184 L 15122,17184 15122,17363 15045,17363 15045,17184 Z M 15058,17214 L 15109,17214 15109,17333 15058,17333 15058,17214 Z"/>
             <path fill="rgb(227,227,227)" stroke="none" d="M 15058,17214 L 15109,17214 15109,17333 15058,17333 15058,17214 Z M 15071,17244 L 15096,17244 15096,17303 15071,17303 15071,17244 Z"/>
             <path fill="rgb(229,229,229)" stroke="none" d="M 15071,17244 L 15096,17244 15096,17303 15071,17303 15071,17244 Z"/>
            </g>
           </pattern>
          </defs>
          <path style="fill:url(#pattern1)" d="M 14698,19365 L 14698,17125 15986,16379 15986,18618 14698,19365 Z"/>
         </g>
         <path fill="none" stroke="rgb(255,255,255)" stroke-width="40" stroke-linejoin="round" d="M 14698,19365 L 14698,17125 15986,16379 15986,18618 14698,19365 Z"/>
        </g>
       </g>
       <g class="com.sun.star.drawing.PolyPolygonShape">
        <g id="id5">
         <rect class="BoundingBox" stroke="none" fill="none" x="14033" y="15985" width="1974" height="1161"/>
         <g>
          <defs>
           <linearGradient id="gradient1" x1="15019" y1="16005" x2="15019" y2="17125" gradientUnits="userSpaceOnUse">
            <stop offset="0.1" style="stop-color:rgb(179,179,179)"/>
            <stop offset="1" style="stop-color:rgb(229,229,229)"/>
           </linearGradient>
          </defs>
          <path style="fill:url(#gradient1)" d="M 14698,17125 L 14053,16751 15341,16005 15986,16379 14698,17125 Z"/>
         </g>
         <path fill="none" stroke="rgb(255,255,255)" stroke-width="40" stroke-linejoin="round" d="M 14698,17125 L 14053,16751 15341,16005 15986,16379 14698,17125 Z"/>
        </g>
       </g>
       <g class="com.sun.star.drawing.PolyPolygonShape">
        <g id="id6">
         <rect class="BoundingBox" stroke="none" fill="none" x="14033" y="16731" width="686" height="2654"/>
         <g>
          <defs>
           <linearGradient id="gradient2" x1="14052" y1="18057" x2="14699" y2="18057" gradientUnits="userSpaceOnUse">
            <stop offset="0.1" style="stop-color:rgb(179,179,179)"/>
            <stop offset="1" style="stop-color:rgb(229,229,229)"/>
           </linearGradient>
          </defs>
          <path style="fill:url(#gradient2)" d="M 14053,18990 L 14053,16751 14698,17125 14698,19364 14053,18990 Z"/>
         </g>
         <path fill="none" stroke="rgb(255,255,255)" stroke-width="40" stroke-linejoin="round" d="M 14053,18990 L 14053,16751 14698,17125 14698,19364 14053,18990 Z"/>
        </g>
       </g>
       <g class="com.sun.star.drawing.PolyPolygonShape">
        <g id="id7">
         <rect class="BoundingBox" stroke="none" fill="none" x="14033" y="15985" width="1974" height="3400"/>
         <path fill="none" stroke="rgb(0,0,0)" stroke-width="40" stroke-linejoin="round" d="M 14053,18991 L 14053,16751 15341,16005 15986,16379 15986,18618 14698,19364 14053,18991 Z"/>
        </g>
       </g>
       <g class="com.sun.star.drawing.PolyPolygonShape">
        <g id="id8">
         <rect class="BoundingBox" stroke="none" fill="none" x="14162" y="18598" width="170" height="339"/>
         <path fill="rgb(127,127,127)" stroke="none" d="M 14182,18842 L 14182,18618 14311,18693 14311,18916 14182,18842 Z"/>
         <path fill="none" stroke="rgb(0,0,0)" stroke-width="40" stroke-linejoin="round" d="M 14182,18842 L 14182,18618 14311,18693 14311,18916 14182,18842 Z"/>
        </g>
       </g>
       <g class="com.sun.star.drawing.PolyPolygonShape">
        <g id="id9">
         <rect class="BoundingBox" stroke="none" fill="none" x="14420" y="18747" width="170" height="339"/>
         <path fill="rgb(127,127,127)" stroke="none" d="M 14440,18991 L 14440,18767 14569,18842 14569,19065 14440,18991 Z"/>
         <path fill="none" stroke="rgb(0,0,0)" stroke-width="40" stroke-linejoin="round" d="M 14440,18991 L 14440,18767 14569,18842 14569,19065 14440,18991 Z"/>
        </g>
       </g>
       <g class="com.sun.star.drawing.PolyPolygonShape">
        <g id="id10">
         <rect class="BoundingBox" stroke="none" fill="none" x="14162" y="18224" width="170" height="339"/>
         <path fill="rgb(127,127,127)" stroke="none" d="M 14182,18468 L 14182,18244 14311,18319 14311,18542 14182,18468 Z"/>
         <path fill="none" stroke="rgb(0,0,0)" stroke-width="40" stroke-linejoin="round" d="M 14182,18468 L 14182,18244 14311,18319 14311,18542 14182,18468 Z"/>
        </g>
       </g>
       <g class="com.sun.star.drawing.PolyPolygonShape">
        <g id="id11">
         <rect class="BoundingBox" stroke="none" fill="none" x="14420" y="18374" width="170" height="339"/>
         <path fill="rgb(127,127,127)" stroke="none" d="M 14440,18618 L 14440,18394 14569,18469 14569,18692 14440,18618 Z"/>
         <path fill="none" stroke="rgb(0,0,0)" stroke-width="40" stroke-linejoin="round" d="M 14440,18618 L 14440,18394 14569,18469 14569,18692 14440,18618 Z"/>
        </g>
       </g>
       <g class="com.sun.star.drawing.PolyPolygonShape">
        <g id="id12">
         <rect class="BoundingBox" stroke="none" fill="none" x="14420" y="17628" width="170" height="564"/>
         <path fill="rgb(127,127,127)" stroke="none" d="M 14440,18096 L 14440,17648 14569,17723 14569,18171 14440,18096 Z"/>
         <path fill="none" stroke="rgb(0,0,0)" stroke-width="40" stroke-linejoin="round" d="M 14440,18096 L 14440,17648 14569,17723 14569,18171 14440,18096 Z"/>
        </g>
       </g>
       <g class="com.sun.star.drawing.PolyPolygonShape">
        <g id="id13">
         <rect class="BoundingBox" stroke="none" fill="none" x="14162" y="17478" width="170" height="564"/>
         <path fill="rgb(127,127,127)" stroke="none" d="M 14182,17946 L 14182,17498 14311,17573 14311,18021 14182,17946 Z"/>
         <path fill="none" stroke="rgb(0,0,0)" stroke-width="40" stroke-linejoin="round" d="M 14182,17946 L 14182,17498 14311,17573 14311,18021 14182,17946 Z"/>
        </g>
       </g>
       <g class="com.sun.star.drawing.PolyPolygonShape">
        <g id="id14">
         <rect class="BoundingBox" stroke="none" fill="none" x="14162" y="17029" width="170" height="340"/>
         <path fill="rgb(57,181,74)" stroke="none" d="M 14182,17274 L 14182,17050 14311,17125 14311,17348 14182,17274 Z"/>
         <path fill="none" stroke="rgb(127,127,127)" stroke-width="40" stroke-linejoin="round" d="M 14182,17274 L 14182,17050 14311,17125 14311,17348 14182,17274 Z"/>
        </g>
       </g>
       <g class="com.sun.star.drawing.PolyPolygonShape">
        <g id="id15">
         <rect class="BoundingBox" stroke="none" fill="none" x="14420" y="17180" width="170" height="339"/>
         <path fill="rgb(209,97,108)" stroke="none" d="M 14440,17424 L 14440,17200 14569,17275 14569,17498 14440,17424 Z"/>
         <path fill="none" stroke="rgb(127,127,127)" stroke-width="40" stroke-linejoin="round" d="M 14440,17424 L 14440,17200 14569,17275 14569,17498 14440,17424 Z"/>
        </g>
       </g>
      </g>
     </g>
    </g>
   </g>
  </g>
 </g>
</svg>