<?xml version="1.0" encoding="UTF-8"?>
<!DOCTYPE svg PUBLIC "-//W3C//DTD SVG 1.1//EN" "http://www.w3.org/Graphics/SVG/1.1/DTD/svg11.dtd">
<svg version="1.2" width="23.41mm" height="34mm" viewBox="14730 6829 2341 3400" preserveAspectRatio="xMidYMid" fill-rule="evenodd" stroke-width="28.222" stroke-linejoin="round" xmlns="http://www.w3.org/2000/svg" xmlns:ooo="http://xml.openoffice.org/svg/export" xmlns:xlink="http://www.w3.org/1999/xlink" xmlns:presentation="http://sun.com/xmlns/staroffice/presentation" xmlns:smil="http://www.w3.org/2001/SMIL20/" xmlns:anim="urn:oasis:names:tc:opendocument:xmlns:animation:1.0" xml:space="preserve">
 <defs class="ClipPathGroup">
  <clipPath id="presentation_clip_path" clipPathUnits="userSpaceOnUse">
   <rect x="14730" y="6829" width="2341" height="3400"/>
  </clipPath>
 </defs>
 <defs class="TextShapeIndex">
  <g ooo:slide="id1" ooo:id-list="id3 id4 id5 id6 id7 id8 id9 id10 id11 id12 id13 id14 id15"/>
 </defs>
 <defs class="EmbeddedBulletChars">
  <g id="bullet-char-template(57356)" transform="scale(0.00048828125,-0.00048828125)">
   <path d="M 580,1141 L 1163,571 580,0 -4,571 580,1141 Z"/>
  </g>
  <g id="bullet-char-template(57354)" transform="scale(0.00048828125,-0.00048828125)">
   <path d="M 8,1128 L 1137,1128 1137,0 8,0 8,1128 Z"/>
  </g>
  <g id="bullet-char-template(10146)" transform="scale(0.00048828125,-0.00048828125)">
   <path d="M 174,0 L 602,739 174,1481 1456,739 174,0 Z M 1358,739 L 309,1346 659,739 1358,739 Z"/>
  </g>
  <g id="bullet-char-template(10132)" transform="scale(0.00048828125,-0.00048828125)">
   <path d="M 2015,739 L 1276,0 717,0 1260,543 174,543 174,936 1260,936 717,1481 1274,1481 2015,739 Z"/>
  </g>
  <g id="bullet-char-template(10007)" transform="scale(0.00048828125,-0.00048828125)">
   <path d="M 0,-2 C -7,14 -16,27 -25,37 L 356,567 C 262,823 215,952 215,954 215,979 228,992 255,992 264,992 276,990 289,987 310,991 331,999 354,1012 L 381,999 492,748 772,1049 836,1024 860,1049 C 881,1039 901,1025 922,1006 886,937 835,863 770,784 769,783 710,716 594,584 L 774,223 C 774,196 753,168 711,139 L 727,119 C 717,90 699,76 672,76 641,76 570,178 457,381 L 164,-76 C 142,-110 111,-127 72,-127 30,-127 9,-110 8,-76 1,-67 -2,-52 -2,-32 -2,-23 -1,-13 0,-2 Z"/>
  </g>
  <g id="bullet-char-template(10004)" transform="scale(0.00048828125,-0.00048828125)">
   <path d="M 285,-33 C 182,-33 111,30 74,156 52,228 41,333 41,471 41,549 55,616 82,672 116,743 169,778 240,778 293,778 328,747 346,684 L 369,508 C 377,444 397,411 428,410 L 1163,1116 C 1174,1127 1196,1133 1229,1133 1271,1133 1292,1118 1292,1087 L 1292,965 C 1292,929 1282,901 1262,881 L 442,47 C 390,-6 338,-33 285,-33 Z"/>
  </g>
  <g id="bullet-char-template(9679)" transform="scale(0.00048828125,-0.00048828125)">
   <path d="M 813,0 C 632,0 489,54 383,161 276,268 223,411 223,592 223,773 276,916 383,1023 489,1130 632,1184 813,1184 992,1184 1136,1130 1245,1023 1353,916 1407,772 1407,592 1407,412 1353,268 1245,161 1136,54 992,0 813,0 Z"/>
  </g>
  <g id="bullet-char-template(8226)" transform="scale(0.00048828125,-0.00048828125)">
   <path d="M 346,457 C 273,457 209,483 155,535 101,586 74,649 74,723 74,796 101,859 155,911 209,963 273,989 346,989 419,989 480,963 531,910 582,859 608,796 608,723 608,648 583,586 532,535 482,483 420,457 346,457 Z"/>
  </g>
  <g id="bullet-char-template(8211)" transform="scale(0.00048828125,-0.00048828125)">
   <path d="M -4,459 L 1135,459 1135,606 -4,606 -4,459 Z"/>
  </g>
 </defs>
 <defs class="TextEmbeddedBitmaps"/>
 <g class="SlideGroup">
  <g>
   <g id="id1" class="Slide" clip-path="url(#presentation_clip_path)">
    <g class="Page">
     <g class="Group">
      <g class="com.sun.star.drawing.ClosedBezierShape">
       <g id="id3">
        <rect class="BoundingBox" stroke="none" fill="none" x="15394" y="9087" width="1678" height="1123"/>
        <path fill="rgb(221,221,221)" stroke="none" d="M 15395,10208 C 15749,10208 17070,9834 17070,9536 17070,9237 17038,9088 16683,9088 16683,9312 15395,9909 15395,10208 Z"/>
        <path fill="none" stroke="rgb(221,221,221)" d="M 15395,10208 C 15749,10208 17070,9834 17070,9536 17070,9237 17038,9088 16683,9088 16683,9312 15395,9909 15395,10208 Z"/>
       </g>
      </g>
      <g class="Group">
       <g class="com.sun.star.drawing.PolyPolygonShape">
        <g id="id4">
         <rect class="BoundingBox" stroke="none" fill="none" x="15375" y="7202" width="1329" height="3028"/>
         <g>
          <defs>
           <pattern id="pattern1" x="15395" y="7223" width="1289" height="2987" patternUnits="userSpaceOnUse">
            <g transform="translate(-15395,-7223)">
             <path fill="rgb(51,51,51)" stroke="none" d="M 15394,7222 L 16684,7222 16684,10210 15394,10210 15394,7222 Z M 15143,6639 L 16419,6639 16419,9597 15143,9597 15143,6639 Z"/>
             <path fill="rgb(52,52,52)" stroke="none" d="M 15143,6639 L 16419,6639 16419,9597 15143,9597 15143,6639 Z M 15149,6654 L 16413,6654 16413,9582 15149,9582 15149,6654 Z"/>
             <path fill="rgb(53,53,53)" stroke="none" d="M 15149,6654 L 16413,6654 16413,9582 15149,9582 15149,6654 Z M 15155,6668 L 16407,6668 16407,9568 15155,9568 15155,6668 Z"/>
             <path fill="rgb(54,54,54)" stroke="none" d="M 15155,6668 L 16407,6668 16407,9568 15155,9568 15155,6668 Z M 15162,6683 L 16400,6683 16400,9553 15162,9553 15162,6683 Z"/>
             <path fill="rgb(55,55,55)" stroke="none" d="M 15162,6683 L 16400,6683 16400,9553 15162,9553 15162,6683 Z M 15168,6698 L 16394,6698 16394,9538 15168,9538 15168,6698 Z"/>
             <path fill="rgb(56,56,56)" stroke="none" d="M 15168,6698 L 16394,6698 16394,9538 15168,9538 15168,6698 Z M 15174,6712 L 16388,6712 16388,9524 15174,9524 15174,6712 Z"/>
             <path fill="rgb(57,57,57)" stroke="none" d="M 15174,6712 L 16388,6712 16388,9524 15174,9524 15174,6712 Z M 15181,6727 L 16381,6727 16381,9509 15181,9509 15181,6727 Z"/>
             <path fill="rgb(58,58,58)" stroke="none" d="M 15181,6727 L 16381,6727 16381,9509 15181,9509 15181,6727 Z M 15187,6742 L 16375,6742 16375,9494 15187,9494 15187,6742 Z"/>
             <path fill="rgb(59,59,59)" stroke="none" d="M 15187,6742 L 16375,6742 16375,9494 15187,9494 15187,6742 Z M 15193,6756 L 16369,6756 16369,9480 15193,9480 15193,6756 Z"/>
             <path fill="rgb(60,60,60)" stroke="none" d="M 15193,6756 L 16369,6756 16369,9480 15193,9480 15193,6756 Z M 15200,6771 L 16362,6771 16362,9465 15200,9465 15200,6771 Z"/>
             <path fill="rgb(61,61,61)" stroke="none" d="M 15200,6771 L 16362,6771 16362,9465 15200,9465 15200,6771 Z M 15206,6786 L 16356,6786 16356,9450 15206,9450 15206,6786 Z"/>
             <path fill="rgb(62,62,62)" stroke="none" d="M 15206,6786 L 16356,6786 16356,9450 15206,9450 15206,6786 Z M 15212,6800 L 16350,6800 16350,9436 15212,9436 15212,6800 Z"/>
             <path fill="rgb(63,63,63)" stroke="none" d="M 15212,6800 L 16350,6800 16350,9436 15212,9436 15212,6800 Z M 15219,6815 L 16343,6815 16343,9421 15219,9421 15219,6815 Z"/>
             <path fill="rgb(64,64,64)" stroke="none" d="M 15219,6815 L 16343,6815 16343,9421 15219,9421 15219,6815 Z M 15225,6830 L 16337,6830 16337,9406 15225,9406 15225,6830 Z"/>
             <path fill="rgb(65,65,65)" stroke="none" d="M 15225,6830 L 16337,6830 16337,9406 15225,9406 15225,6830 Z M 15231,6844 L 16331,6844 16331,9392 15231,9392 15231,6844 Z"/>
             <path fill="rgb(66,66,66)" stroke="none" d="M 15231,6844 L 16331,6844 16331,9392 15231,9392 15231,6844 Z M 15238,6859 L 16324,6859 16324,9377 15238,9377 15238,6859 Z"/>
             <path fill="rgb(67,67,67)" stroke="none" d="M 15238,6859 L 16324,6859 16324,9377 15238,9377 15238,6859 Z M 15244,6874 L 16318,6874 16318,9362 15244,9362 15244,6874 Z"/>
             <path fill="rgb(68,68,68)" stroke="none" d="M 15244,6874 L 16318,6874 16318,9362 15244,9362 15244,6874 Z M 15250,6888 L 16312,6888 16312,9348 15250,9348 15250,6888 Z"/>
             <path fill="rgb(69,69,69)" stroke="none" d="M 15250,6888 L 16312,6888 16312,9348 15250,9348 15250,6888 Z M 15257,6903 L 16305,6903 16305,9333 15257,9333 15257,6903 Z"/>
             <path fill="rgb(70,70,70)" stroke="none" d="M 15257,6903 L 16305,6903 16305,9333 15257,9333 15257,6903 Z M 15263,6918 L 16299,6918 16299,9318 15263,9318 15263,6918 Z"/>
             <path fill="rgb(71,71,71)" stroke="none" d="M 15263,6918 L 16299,6918 16299,9318 15263,9318 15263,6918 Z M 15269,6932 L 16293,6932 16293,9304 15269,9304 15269,6932 Z"/>
             <path fill="rgb(72,72,72)" stroke="none" d="M 15269,6932 L 16293,6932 16293,9304 15269,9304 15269,6932 Z M 15276,6947 L 16286,6947 16286,9289 15276,9289 15276,6947 Z"/>
             <path fill="rgb(73,73,73)" stroke="none" d="M 15276,6947 L 16286,6947 16286,9289 15276,9289 15276,6947 Z M 15282,6961 L 16280,6961 16280,9275 15282,9275 15282,6961 Z"/>
             <path fill="rgb(74,74,74)" stroke="none" d="M 15282,6961 L 16280,6961 16280,9275 15282,9275 15282,6961 Z M 15288,6976 L 16274,6976 16274,9260 15288,9260 15288,6976 Z"/>
             <path fill="rgb(75,75,75)" stroke="none" d="M 15288,6976 L 16274,6976 16274,9260 15288,9260 15288,6976 Z M 15295,6991 L 16267,6991 16267,9245 15295,9245 15295,6991 Z"/>
             <path fill="rgb(76,76,76)" stroke="none" d="M 15295,6991 L 16267,6991 16267,9245 15295,9245 15295,6991 Z M 15301,7005 L 16261,7005 16261,9231 15301,9231 15301,7005 Z"/>
             <path fill="rgb(77,77,77)" stroke="none" d="M 15301,7005 L 16261,7005 16261,9231 15301,9231 15301,7005 Z M 15307,7020 L 16255,7020 16255,9216 15307,9216 15307,7020 Z"/>
             <path fill="rgb(78,78,78)" stroke="none" d="M 15307,7020 L 16255,7020 16255,9216 15307,9216 15307,7020 Z M 15314,7035 L 16248,7035 16248,9201 15314,9201 15314,7035 Z"/>
             <path fill="rgb(79,79,79)" stroke="none" d="M 15314,7035 L 16248,7035 16248,9201 15314,9201 15314,7035 Z M 15320,7049 L 16242,7049 16242,9187 15320,9187 15320,7049 Z"/>
             <path fill="rgb(80,80,80)" stroke="none" d="M 15320,7049 L 16242,7049 16242,9187 15320,9187 15320,7049 Z M 15326,7064 L 16236,7064 16236,9172 15326,9172 15326,7064 Z"/>
             <path fill="rgb(81,81,81)" stroke="none" d="M 15326,7064 L 16236,7064 16236,9172 15326,9172 15326,7064 Z M 15333,7079 L 16229,7079 16229,9157 15333,9157 15333,7079 Z"/>
             <path fill="rgb(82,82,82)" stroke="none" d="M 15333,7079 L 16229,7079 16229,9157 15333,9157 15333,7079 Z M 15339,7093 L 16223,7093 16223,9143 15339,9143 15339,7093 Z"/>
             <path fill="rgb(83,83,83)" stroke="none" d="M 15339,7093 L 16223,7093 16223,9143 15339,9143 15339,7093 Z M 15345,7108 L 16217,7108 16217,9128 15345,9128 15345,7108 Z"/>
             <path fill="rgb(84,84,84)" stroke="none" d="M 15345,7108 L 16217,7108 16217,9128 15345,9128 15345,7108 Z M 15352,7123 L 16210,7123 16210,9113 15352,9113 15352,7123 Z"/>
             <path fill="rgb(85,85,85)" stroke="none" d="M 15352,7123 L 16210,7123 16210,9113 15352,9113 15352,7123 Z M 15358,7137 L 16204,7137 16204,9099 15358,9099 15358,7137 Z"/>
             <path fill="rgb(86,86,86)" stroke="none" d="M 15358,7137 L 16204,7137 16204,9099 15358,9099 15358,7137 Z M 15364,7152 L 16198,7152 16198,9084 15364,9084 15364,7152 Z"/>
             <path fill="rgb(87,87,87)" stroke="none" d="M 15364,7152 L 16198,7152 16198,9084 15364,9084 15364,7152 Z M 15371,7167 L 16191,7167 16191,9069 15371,9069 15371,7167 Z"/>
             <path fill="rgb(88,88,88)" stroke="none" d="M 15371,7167 L 16191,7167 16191,9069 15371,9069 15371,7167 Z M 15376,7181 L 16185,7181 16185,9055 15376,9055 15376,7181 Z"/>
             <path fill="rgb(89,89,89)" stroke="none" d="M 15376,7181 L 16185,7181 16185,9055 15376,9055 15376,7181 Z M 15382,7196 L 16179,7196 16179,9040 15382,9040 15382,7196 Z"/>
             <path fill="rgb(90,90,90)" stroke="none" d="M 15382,7196 L 16179,7196 16179,9040 15382,9040 15382,7196 Z M 15389,7210 L 16172,7210 16172,9025 15389,9025 15389,7210 Z"/>
             <path fill="rgb(91,91,91)" stroke="none" d="M 15389,7210 L 16172,7210 16172,9025 15389,9025 15389,7210 Z M 15395,7224 L 16166,7224 16166,9011 15395,9011 15395,7224 Z"/>
             <path fill="rgb(92,92,92)" stroke="none" d="M 15395,7224 L 16166,7224 16166,9011 15395,9011 15395,7224 Z M 15401,7239 L 16160,7239 16160,8996 15401,8996 15401,7239 Z"/>
             <path fill="rgb(93,93,93)" stroke="none" d="M 15401,7239 L 16160,7239 16160,8996 15401,8996 15401,7239 Z M 15408,7254 L 16153,7254 16153,8981 15408,8981 15408,7254 Z"/>
             <path fill="rgb(94,94,94)" stroke="none" d="M 15408,7254 L 16153,7254 16153,8981 15408,8981 15408,7254 Z M 15414,7268 L 16147,7268 16147,8967 15414,8967 15414,7268 Z"/>
             <path fill="rgb(95,95,95)" stroke="none" d="M 15414,7268 L 16147,7268 16147,8967 15414,8967 15414,7268 Z M 15420,7283 L 16141,7283 16141,8952 15420,8952 15420,7283 Z"/>
             <path fill="rgb(96,96,96)" stroke="none" d="M 15420,7283 L 16141,7283 16141,8952 15420,8952 15420,7283 Z M 15427,7297 L 16134,7297 16134,8938 15427,8938 15427,7297 Z"/>
             <path fill="rgb(97,97,97)" stroke="none" d="M 15427,7297 L 16134,7297 16134,8938 15427,8938 15427,7297 Z M 15433,7312 L 16128,7312 16128,8923 15433,8923 15433,7312 Z"/>
             <path fill="rgb(98,98,98)" stroke="none" d="M 15433,7312 L 16128,7312 16128,8923 15433,8923 15433,7312 Z M 15439,7327 L 16122,7327 16122,8908 15439,8908 15439,7327 Z"/>
             <path fill="rgb(99,99,99)" stroke="none" d="M 15439,7327 L 16122,7327 16122,8908 15439,8908 15439,7327 Z M 15446,7341 L 16115,7341 16115,8894 15446,8894 15446,7341 Z"/>
             <path fill="rgb(100,100,100)" stroke="none" d="M 15446,7341 L 16115,7341 16115,8894 15446,8894 15446,7341 Z M 15452,7356 L 16109,7356 16109,8879 15452,8879 15452,7356 Z"/>
             <path fill="rgb(101,101,101)" stroke="none" d="M 15452,7356 L 16109,7356 16109,8879 15452,8879 15452,7356 Z M 15458,7371 L 16103,7371 16103,8864 15458,8864 15458,7371 Z"/>
             <path fill="rgb(102,102,102)" stroke="none" d="M 15458,7371 L 16103,7371 16103,8864 15458,8864 15458,7371 Z M 15465,7385 L 16096,7385 16096,8850 15465,8850 15465,7385 Z"/>
             <path fill="rgb(103,103,103)" stroke="none" d="M 15465,7385 L 16096,7385 16096,8850 15465,8850 15465,7385 Z M 15471,7400 L 16090,7400 16090,8835 15471,8835 15471,7400 Z"/>
             <path fill="rgb(104,104,104)" stroke="none" d="M 15471,7400 L 16090,7400 16090,8835 15471,8835 15471,7400 Z M 15477,7415 L 16084,7415 16084,8820 15477,8820 15477,7415 Z"/>
             <path fill="rgb(105,105,105)" stroke="none" d="M 15477,7415 L 16084,7415 16084,8820 15477,8820 15477,7415 Z M 15484,7429 L 16077,7429 16077,8806 15484,8806 15484,7429 Z"/>
             <path fill="rgb(106,106,106)" stroke="none" d="M 15484,7429 L 16077,7429 16077,8806 15484,8806 15484,7429 Z M 15490,7444 L 16071,7444 16071,8791 15490,8791 15490,7444 Z"/>
             <path fill="rgb(107,107,107)" stroke="none" d="M 15490,7444 L 16071,7444 16071,8791 15490,8791 15490,7444 Z M 15496,7459 L 16065,7459 16065,8776 15496,8776 15496,7459 Z"/>
             <path fill="rgb(108,108,108)" stroke="none" d="M 15496,7459 L 16065,7459 16065,8776 15496,8776 15496,7459 Z M 15503,7473 L 16058,7473 16058,8762 15503,8762 15503,7473 Z"/>
             <path fill="rgb(109,109,109)" stroke="none" d="M 15503,7473 L 16058,7473 16058,8762 15503,8762 15503,7473 Z M 15509,7488 L 16052,7488 16052,8747 15509,8747 15509,7488 Z"/>
             <path fill="rgb(110,110,110)" stroke="none" d="M 15509,7488 L 16052,7488 16052,8747 15509,8747 15509,7488 Z M 15515,7503 L 16046,7503 16046,8732 15515,8732 15515,7503 Z"/>
             <path fill="rgb(111,111,111)" stroke="none" d="M 15515,7503 L 16046,7503 16046,8732 15515,8732 15515,7503 Z M 15522,7517 L 16039,7517 16039,8718 15522,8718 15522,7517 Z"/>
             <path fill="rgb(112,112,112)" stroke="none" d="M 15522,7517 L 16039,7517 16039,8718 15522,8718 15522,7517 Z M 15528,7532 L 16033,7532 16033,8703 15528,8703 15528,7532 Z"/>
             <path fill="rgb(113,113,113)" stroke="none" d="M 15528,7532 L 16033,7532 16033,8703 15528,8703 15528,7532 Z M 15534,7547 L 16027,7547 16027,8688 15534,8688 15534,7547 Z"/>
             <path fill="rgb(114,114,114)" stroke="none" d="M 15534,7547 L 16027,7547 16027,8688 15534,8688 15534,7547 Z M 15541,7561 L 16020,7561 16020,8674 15541,8674 15541,7561 Z"/>
             <path fill="rgb(115,115,115)" stroke="none" d="M 15541,7561 L 16020,7561 16020,8674 15541,8674 15541,7561 Z M 15547,7576 L 16014,7576 16014,8659 15547,8659 15547,7576 Z"/>
             <path fill="rgb(116,116,116)" stroke="none" d="M 15547,7576 L 16014,7576 16014,8659 15547,8659 15547,7576 Z M 15553,7591 L 16008,7591 16008,8644 15553,8644 15553,7591 Z"/>
             <path fill="rgb(117,117,117)" stroke="none" d="M 15553,7591 L 16008,7591 16008,8644 15553,8644 15553,7591 Z M 15560,7605 L 16001,7605 16001,8630 15560,8630 15560,7605 Z"/>
             <path fill="rgb(118,118,118)" stroke="none" d="M 15560,7605 L 16001,7605 16001,8630 15560,8630 15560,7605 Z M 15566,7620 L 15995,7620 15995,8615 15566,8615 15566,7620 Z"/>
             <path fill="rgb(119,119,119)" stroke="none" d="M 15566,7620 L 15995,7620 15995,8615 15566,8615 15566,7620 Z M 15572,7634 L 15989,7634 15989,8601 15572,8601 15572,7634 Z"/>
             <path fill="rgb(120,120,120)" stroke="none" d="M 15572,7634 L 15989,7634 15989,8601 15572,8601 15572,7634 Z M 15578,7649 L 15983,7649 15983,8586 15578,8586 15578,7649 Z"/>
             <path fill="rgb(121,121,121)" stroke="none" d="M 15578,7649 L 15983,7649 15983,8586 15578,8586 15578,7649 Z M 15585,7664 L 15976,7664 15976,8571 15585,8571 15585,7664 Z"/>
             <path fill="rgb(122,122,122)" stroke="none" d="M 15585,7664 L 15976,7664 15976,8571 15585,8571 15585,7664 Z M 15591,7678 L 15970,7678 15970,8557 15591,8557 15591,7678 Z"/>
             <path fill="rgb(123,123,123)" stroke="none" d="M 15591,7678 L 15970,7678 15970,8557 15591,8557 15591,7678 Z M 15597,7693 L 15964,7693 15964,8542 15597,8542 15597,7693 Z"/>
             <path fill="rgb(124,124,124)" stroke="none" d="M 15597,7693 L 15964,7693 15964,8542 15597,8542 15597,7693 Z M 15604,7708 L 15957,7708 15957,8527 15604,8527 15604,7708 Z"/>
             <path fill="rgb(125,125,125)" stroke="none" d="M 15604,7708 L 15957,7708 15957,8527 15604,8527 15604,7708 Z M 15610,7722 L 15951,7722 15951,8513 15610,8513 15610,7722 Z"/>
             <path fill="rgb(126,126,126)" stroke="none" d="M 15610,7722 L 15951,7722 15951,8513 15610,8513 15610,7722 Z M 15616,7737 L 15945,7737 15945,8498 15616,8498 15616,7737 Z"/>
             <path fill="rgb(127,127,127)" stroke="none" d="M 15616,7737 L 15945,7737 15945,8498 15616,8498 15616,7737 Z M 15623,7752 L 15938,7752 15938,8483 15623,8483 15623,7752 Z"/>
             <path fill="rgb(128,128,128)" stroke="none" d="M 15623,7752 L 15938,7752 15938,8483 15623,8483 15623,7752 Z M 15629,7766 L 15932,7766 15932,8469 15629,8469 15629,7766 Z"/>
             <path fill="rgb(129,129,129)" stroke="none" d="M 15629,7766 L 15932,7766 15932,8469 15629,8469 15629,7766 Z M 15635,7781 L 15926,7781 15926,8454 15635,8454 15635,7781 Z"/>
             <path fill="rgb(130,130,130)" stroke="none" d="M 15635,7781 L 15926,7781 15926,8454 15635,8454 15635,7781 Z M 15642,7796 L 15919,7796 15919,8439 15642,8439 15642,7796 Z"/>
             <path fill="rgb(131,131,131)" stroke="none" d="M 15642,7796 L 15919,7796 15919,8439 15642,8439 15642,7796 Z M 15648,7810 L 15913,7810 15913,8425 15648,8425 15648,7810 Z"/>
             <path fill="rgb(132,132,132)" stroke="none" d="M 15648,7810 L 15913,7810 15913,8425 15648,8425 15648,7810 Z M 15654,7825 L 15907,7825 15907,8410 15654,8410 15654,7825 Z"/>
             <path fill="rgb(133,133,133)" stroke="none" d="M 15654,7825 L 15907,7825 15907,8410 15654,8410 15654,7825 Z M 15661,7840 L 15900,7840 15900,8395 15661,8395 15661,7840 Z"/>
             <path fill="rgb(134,134,134)" stroke="none" d="M 15661,7840 L 15900,7840 15900,8395 15661,8395 15661,7840 Z M 15667,7854 L 15894,7854 15894,8381 15667,8381 15667,7854 Z"/>
             <path fill="rgb(135,135,135)" stroke="none" d="M 15667,7854 L 15894,7854 15894,8381 15667,8381 15667,7854 Z M 15673,7869 L 15888,7869 15888,8366 15673,8366 15673,7869 Z"/>
             <path fill="rgb(136,136,136)" stroke="none" d="M 15673,7869 L 15888,7869 15888,8366 15673,8366 15673,7869 Z M 15680,7884 L 15881,7884 15881,8351 15680,8351 15680,7884 Z"/>
             <path fill="rgb(137,137,137)" stroke="none" d="M 15680,7884 L 15881,7884 15881,8351 15680,8351 15680,7884 Z M 15686,7898 L 15875,7898 15875,8337 15686,8337 15686,7898 Z"/>
             <path fill="rgb(138,138,138)" stroke="none" d="M 15686,7898 L 15875,7898 15875,8337 15686,8337 15686,7898 Z M 15692,7913 L 15869,7913 15869,8322 15692,8322 15692,7913 Z"/>
             <path fill="rgb(139,139,139)" stroke="none" d="M 15692,7913 L 15869,7913 15869,8322 15692,8322 15692,7913 Z M 15699,7928 L 15862,7928 15862,8307 15699,8307 15699,7928 Z"/>
             <path fill="rgb(140,140,140)" stroke="none" d="M 15699,7928 L 15862,7928 15862,8307 15699,8307 15699,7928 Z M 15705,7942 L 15856,7942 15856,8293 15705,8293 15705,7942 Z"/>
             <path fill="rgb(141,141,141)" stroke="none" d="M 15705,7942 L 15856,7942 15856,8293 15705,8293 15705,7942 Z M 15711,7957 L 15850,7957 15850,8278 15711,8278 15711,7957 Z"/>
             <path fill="rgb(142,142,142)" stroke="none" d="M 15711,7957 L 15850,7957 15850,8278 15711,8278 15711,7957 Z M 15718,7971 L 15843,7971 15843,8264 15718,8264 15718,7971 Z"/>
             <path fill="rgb(143,143,143)" stroke="none" d="M 15718,7971 L 15843,7971 15843,8264 15718,8264 15718,7971 Z M 15724,7986 L 15837,7986 15837,8249 15724,8249 15724,7986 Z"/>
             <path fill="rgb(144,144,144)" stroke="none" d="M 15724,7986 L 15837,7986 15837,8249 15724,8249 15724,7986 Z M 15730,8001 L 15831,8001 15831,8234 15730,8234 15730,8001 Z"/>
             <path fill="rgb(145,145,145)" stroke="none" d="M 15730,8001 L 15831,8001 15831,8234 15730,8234 15730,8001 Z M 15737,8015 L 15824,8015 15824,8220 15737,8220 15737,8015 Z"/>
             <path fill="rgb(146,146,146)" stroke="none" d="M 15737,8015 L 15824,8015 15824,8220 15737,8220 15737,8015 Z M 15743,8030 L 15818,8030 15818,8205 15743,8205 15743,8030 Z"/>
             <path fill="rgb(147,147,147)" stroke="none" d="M 15743,8030 L 15818,8030 15818,8205 15743,8205 15743,8030 Z M 15749,8045 L 15812,8045 15812,8190 15749,8190 15749,8045 Z"/>
             <path fill="rgb(148,148,148)" stroke="none" d="M 15749,8045 L 15812,8045 15812,8190 15749,8190 15749,8045 Z M 15756,8059 L 15805,8059 15805,8176 15756,8176 15756,8059 Z"/>
             <path fill="rgb(149,149,149)" stroke="none" d="M 15756,8059 L 15805,8059 15805,8176 15756,8176 15756,8059 Z M 15762,8074 L 15799,8074 15799,8161 15762,8161 15762,8074 Z"/>
             <path fill="rgb(150,150,150)" stroke="none" d="M 15762,8074 L 15799,8074 15799,8161 15762,8161 15762,8074 Z M 15768,8089 L 15793,8089 15793,8146 15768,8146 15768,8089 Z"/>
             <path fill="rgb(151,151,151)" stroke="none" d="M 15768,8089 L 15793,8089 15793,8146 15768,8146 15768,8089 Z M 15775,8103 L 15786,8103 15786,8132 15775,8132 15775,8103 Z"/>
             <path fill="rgb(153,153,153)" stroke="none" d="M 15775,8103 L 15786,8103 15786,8132 15775,8132 15775,8103 Z"/>
            </g>
           </pattern>
          </defs>
          <path style="fill:url(#pattern1)" d="M 15395,10209 L 15395,7969 16683,7223 16683,9462 15395,10209 Z"/>
         </g>
         <path fill="none" stroke="rgb(178,178,178)" stroke-width="40" stroke-linejoin="round" d="M 15395,10209 L 15395,7969 16683,7223 16683,9462 15395,10209 Z"/>
        </g>
       </g>
       <g class="com.sun.star.drawing.PolyPolygonShape">
        <g id="id5">
         <rect class="BoundingBox" stroke="none" fill="none" x="14730" y="6829" width="1974" height="1161"/>
         <g>
          <defs>
           <linearGradient id="gradient1" x1="15716" y1="6849" x2="15716" y2="7969" gradientUnits="userSpaceOnUse">
            <stop offset="0.1" style="stop-color:rgb(51,51,51)"/>
            <stop offset="1" style="stop-color:rgb(153,153,153)"/>
           </linearGradient>
          </defs>
          <path style="fill:url(#gradient1)" d="M 15395,7969 L 14750,7595 16038,6849 16683,7223 15395,7969 Z"/>
         </g>
         <path fill="none" stroke="rgb(178,178,178)" stroke-width="40" stroke-linejoin="round" d="M 15395,7969 L 14750,7595 16038,6849 16683,7223 15395,7969 Z"/>
        </g>
       </g>
       <g class="com.sun.star.drawing.PolyPolygonShape">
        <g id="id6">
         <rect class="BoundingBox" stroke="none" fill="none" x="14729" y="7575" width="687" height="2654"/>
         <g>
          <defs>
           <linearGradient id="gradient2" x1="14749" y1="8901" x2="15396" y2="8901" gradientUnits="userSpaceOnUse">
            <stop offset="0.1" style="stop-color:rgb(51,51,51)"/>
            <stop offset="1" style="stop-color:rgb(153,153,153)"/>
           </linearGradient>
          </defs>
          <path style="fill:url(#gradient2)" d="M 14750,9834 L 14750,7595 15395,7969 15395,10208 14750,9834 Z"/>
         </g>
         <path fill="none" stroke="rgb(178,178,178)" stroke-width="40" stroke-linejoin="round" d="M 14750,9834 L 14750,7595 15395,7969 15395,10208 14750,9834 Z"/>
        </g>
       </g>
       <g class="com.sun.star.drawing.PolyPolygonShape">
        <g id="id7">
         <rect class="BoundingBox" stroke="none" fill="none" x="14730" y="6829" width="1974" height="3401"/>
         <path fill="none" stroke="rgb(0,0,0)" stroke-width="40" stroke-linejoin="round" d="M 14750,9835 L 14750,7595 16038,6849 16683,7223 16683,9462 15395,10208 14750,9835 Z"/>
        </g>
       </g>
       <g class="com.sun.star.drawing.PolyPolygonShape">
        <g id="id8">
         <rect class="BoundingBox" stroke="none" fill="none" x="14859" y="9442" width="170" height="339"/>
         <path fill="rgb(0,0,0)" stroke="none" d="M 14879,9686 L 14879,9462 15008,9537 15008,9760 14879,9686 Z"/>
         <path fill="none" stroke="rgb(178,178,178)" stroke-width="40" stroke-linejoin="round" d="M 14879,9686 L 14879,9462 15008,9537 15008,9760 14879,9686 Z"/>
        </g>
       </g>
       <g class="com.sun.star.drawing.PolyPolygonShape">
        <g id="id9">
         <rect class="BoundingBox" stroke="none" fill="none" x="15117" y="9591" width="170" height="339"/>
         <path fill="rgb(0,0,0)" stroke="none" d="M 15137,9835 L 15137,9611 15266,9686 15266,9909 15137,9835 Z"/>
         <path fill="none" stroke="rgb(178,178,178)" stroke-width="40" stroke-linejoin="round" d="M 15137,9835 L 15137,9611 15266,9686 15266,9909 15137,9835 Z"/>
        </g>
       </g>
       <g class="com.sun.star.drawing.PolyPolygonShape">
        <g id="id10">
         <rect class="BoundingBox" stroke="none" fill="none" x="14859" y="9068" width="170" height="339"/>
         <path fill="rgb(0,0,0)" stroke="none" d="M 14879,9312 L 14879,9088 15008,9163 15008,9386 14879,9312 Z"/>
         <path fill="none" stroke="rgb(178,178,178)" stroke-width="40" stroke-linejoin="round" d="M 14879,9312 L 14879,9088 15008,9163 15008,9386 14879,9312 Z"/>
        </g>
       </g>
       <g class="com.sun.star.drawing.PolyPolygonShape">
        <g id="id11">
         <rect class="BoundingBox" stroke="none" fill="none" x="15117" y="9218" width="170" height="339"/>
         <path fill="rgb(0,0,0)" stroke="none" d="M 15137,9462 L 15137,9238 15266,9313 15266,9536 15137,9462 Z"/>
         <path fill="none" stroke="rgb(178,178,178)" stroke-width="40" stroke-linejoin="round" d="M 15137,9462 L 15137,9238 15266,9313 15266,9536 15137,9462 Z"/>
        </g>
       </g>
       <g class="com.sun.star.drawing.PolyPolygonShape">
        <g id="id12">
         <rect class="BoundingBox" stroke="none" fill="none" x="15117" y="8471" width="170" height="565"/>
         <path fill="rgb(0,0,0)" stroke="none" d="M 15137,8940 L 15137,8492 15266,8567 15266,9015 15137,8940 Z"/>
         <path fill="none" stroke="rgb(178,178,178)" stroke-width="40" stroke-linejoin="round" d="M 15137,8940 L 15137,8492 15266,8567 15266,9015 15137,8940 Z"/>
        </g>
       </g>
       <g class="com.sun.star.drawing.PolyPolygonShape">
        <g id="id13">
         <rect class="BoundingBox" stroke="none" fill="none" x="14859" y="8321" width="170" height="565"/>
         <path fill="rgb(0,0,0)" stroke="none" d="M 14879,8790 L 14879,8342 15008,8417 15008,8865 14879,8790 Z"/>
         <path fill="none" stroke="rgb(178,178,178)" stroke-width="40" stroke-linejoin="round" d="M 14879,8790 L 14879,8342 15008,8417 15008,8865 14879,8790 Z"/>
        </g>
       </g>
       <g class="com.sun.star.drawing.PolyPolygonShape">
        <g id="id14">
         <rect class="BoundingBox" stroke="none" fill="none" x="14859" y="7874" width="170" height="339"/>
         <path fill="rgb(57,181,74)" stroke="none" d="M 14879,8118 L 14879,7894 15008,7969 15008,8192 14879,8118 Z"/>
         <path fill="none" stroke="rgb(51,51,51)" stroke-width="40" stroke-linejoin="round" d="M 14879,8118 L 14879,7894 15008,7969 15008,8192 14879,8118 Z"/>
        </g>
       </g>
       <g class="com.sun.star.drawing.PolyPolygonShape">
        <g id="id15">
         <rect class="BoundingBox" stroke="none" fill="none" x="15117" y="8024" width="170" height="339"/>
         <path fill="rgb(209,97,108)" stroke="none" d="M 15137,8268 L 15137,8044 15266,8119 15266,8342 15137,8268 Z"/>
         <path fill="none" stroke="rgb(51,51,51)" stroke-width="40" stroke-linejoin="round" d="M 15137,8268 L 15137,8044 15266,8119 15266,8342 15137,8268 Z"/>
        </g>
       </g>
      </g>
     </g>
    </g>
   </g>
  </g>
 </g>
</svg>