<?xml version="1.0" encoding="UTF-8"?>
<!DOCTYPE svg PUBLIC "-//W3C//DTD SVG 1.1//EN" "http://www.w3.org/Graphics/SVG/1.1/DTD/svg11.dtd">
<svg version="1.2" width="24.91mm" height="34.51mm" viewBox="4071 6864 2491 3451" preserveAspectRatio="xMidYMid" fill-rule="evenodd" stroke-width="28.222" stroke-linejoin="round" xmlns="http://www.w3.org/2000/svg" xmlns:ooo="http://xml.openoffice.org/svg/export" xmlns:xlink="http://www.w3.org/1999/xlink" xmlns:presentation="http://sun.com/xmlns/staroffice/presentation" xmlns:smil="http://www.w3.org/2001/SMIL20/" xmlns:anim="urn:oasis:names:tc:opendocument:xmlns:animation:1.0" xml:space="preserve">
 <defs class="ClipPathGroup">
  <clipPath id="presentation_clip_path" clipPathUnits="userSpaceOnUse">
   <rect x="4071" y="6864" width="2491" height="3451"/>
  </clipPath>
 </defs>
 <defs class="TextShapeIndex">
  <g ooo:slide="id1" ooo:id-list="id3 id4 id5 id6 id7 id8 id9 id10 id11"/>
 </defs>
 <defs class="EmbeddedBulletChars">
  <g id="bullet-char-template(57356)" transform="scale(0.00048828125,-0.00048828125)">
   <path d="M 580,1141 L 1163,571 580,0 -4,571 580,1141 Z"/>
  </g>
  <g id="bullet-char-template(57354)" transform="scale(0.00048828125,-0.00048828125)">
   <path d="M 8,1128 L 1137,1128 1137,0 8,0 8,1128 Z"/>
  </g>
  <g id="bullet-char-template(10146)" transform="scale(0.00048828125,-0.00048828125)">
   <path d="M 174,0 L 602,739 174,1481 1456,739 174,0 Z M 1358,739 L 309,1346 659,739 1358,739 Z"/>
  </g>
  <g id="bullet-char-template(10132)" transform="scale(0.00048828125,-0.00048828125)">
   <path d="M 2015,739 L 1276,0 717,0 1260,543 174,543 174,936 1260,936 717,1481 1274,1481 2015,739 Z"/>
  </g>
  <g id="bullet-char-template(10007)" transform="scale(0.00048828125,-0.00048828125)">
   <path d="M 0,-2 C -7,14 -16,27 -25,37 L 356,567 C 262,823 215,952 215,954 215,979 228,992 255,992 264,992 276,990 289,987 310,991 331,999 354,1012 L 381,999 492,748 772,1049 836,1024 860,1049 C 881,1039 901,1025 922,1006 886,937 835,863 770,784 769,783 710,716 594,584 L 774,223 C 774,196 753,168 711,139 L 727,119 C 717,90 699,76 672,76 641,76 570,178 457,381 L 164,-76 C 142,-110 111,-127 72,-127 30,-127 9,-110 8,-76 1,-67 -2,-52 -2,-32 -2,-23 -1,-13 0,-2 Z"/>
  </g>
  <g id="bullet-char-template(10004)" transform="scale(0.00048828125,-0.00048828125)">
   <path d="M 285,-33 C 182,-33 111,30 74,156 52,228 41,333 41,471 41,549 55,616 82,672 116,743 169,778 240,778 293,778 328,747 346,684 L 369,508 C 377,444 397,411 428,410 L 1163,1116 C 1174,1127 1196,1133 1229,1133 1271,1133 1292,1118 1292,1087 L 1292,965 C 1292,929 1282,901 1262,881 L 442,47 C 390,-6 338,-33 285,-33 Z"/>
  </g>
  <g id="bullet-char-template(9679)" transform="scale(0.00048828125,-0.00048828125)">
   <path d="M 813,0 C 632,0 489,54 383,161 276,268 223,411 223,592 223,773 276,916 383,1023 489,1130 632,1184 813,1184 992,1184 1136,1130 1245,1023 1353,916 1407,772 1407,592 1407,412 1353,268 1245,161 1136,54 992,0 813,0 Z"/>
  </g>
  <g id="bullet-char-template(8226)" transform="scale(0.00048828125,-0.00048828125)">
   <path d="M 346,457 C 273,457 209,483 155,535 101,586 74,649 74,723 74,796 101,859 155,911 209,963 273,989 346,989 419,989 480,963 531,910 582,859 608,796 608,723 608,648 583,586 532,535 482,483 420,457 346,457 Z"/>
  </g>
  <g id="bullet-char-template(8211)" transform="scale(0.00048828125,-0.00048828125)">
   <path d="M -4,459 L 1135,459 1135,606 -4,606 -4,459 Z"/>
  </g>
 </defs>
 <defs class="TextEmbeddedBitmaps"/>
 <g class="SlideGroup">
  <g>
   <g id="id1" class="Slide" clip-path="url(#presentation_clip_path)">
    <g class="Page">
     <g class="Group">
      <g class="com.sun.star.drawing.ClosedBezierShape">
       <g id="id3">
        <rect class="BoundingBox" stroke="none" fill="none" x="5580" y="9617" width="984" height="699"/>
        <path fill="rgb(221,221,221)" stroke="none" d="M 5581,10314 C 5817,10314 6355,10314 6527,9966 6699,9618 6183,9618 6097,9618 6097,9767 5581,10115 5581,10314 Z"/>
        <path fill="none" stroke="rgb(221,221,221)" d="M 5581,10314 C 5817,10314 6355,10314 6527,9966 6699,9618 6183,9618 6097,9618 6097,9767 5581,10115 5581,10314 Z"/>
       </g>
      </g>
      <g class="Group">
       <g class="com.sun.star.drawing.ClosedBezierShape">
        <g id="id4">
         <rect class="BoundingBox" stroke="none" fill="none" x="4959" y="8654" width="1245" height="1657"/>
         <g>
          <defs>
           <pattern id="pattern1" x="4979" y="8674" width="1205" height="1617" patternUnits="userSpaceOnUse">
            <g transform="translate(-4979,-8674)">
             <path fill="rgb(179,179,179)" stroke="none" d="M 4978,8673 L 6184,8673 6184,10291 4978,10291 4978,8673 Z M 4750,8366 L 5930,8366 5930,9950 4750,9950 4750,8366 Z"/>
             <path fill="rgb(180,180,180)" stroke="none" d="M 4750,8366 L 5930,8366 5930,9950 4750,9950 4750,8366 Z M 4762,8382 L 5918,8382 5918,9934 4762,9934 4762,8382 Z"/>
             <path fill="rgb(181,181,181)" stroke="none" d="M 4762,8382 L 5918,8382 5918,9934 4762,9934 4762,8382 Z M 4774,8398 L 5906,8398 5906,9918 4774,9918 4774,8398 Z"/>
             <path fill="rgb(182,182,182)" stroke="none" d="M 4774,8398 L 5906,8398 5906,9918 4774,9918 4774,8398 Z M 4786,8414 L 5894,8414 5894,9902 4786,9902 4786,8414 Z"/>
             <path fill="rgb(183,183,183)" stroke="none" d="M 4786,8414 L 5894,8414 5894,9902 4786,9902 4786,8414 Z M 4798,8430 L 5882,8430 5882,9886 4798,9886 4798,8430 Z"/>
             <path fill="rgb(184,184,184)" stroke="none" d="M 4798,8430 L 5882,8430 5882,9886 4798,9886 4798,8430 Z M 4810,8447 L 5870,8447 5870,9869 4810,9869 4810,8447 Z"/>
             <path fill="rgb(185,185,185)" stroke="none" d="M 4810,8447 L 5870,8447 5870,9869 4810,9869 4810,8447 Z M 4822,8463 L 5858,8463 5858,9853 4822,9853 4822,8463 Z"/>
             <path fill="rgb(186,186,186)" stroke="none" d="M 4822,8463 L 5858,8463 5858,9853 4822,9853 4822,8463 Z M 4834,8479 L 5846,8479 5846,9837 4834,9837 4834,8479 Z"/>
             <path fill="rgb(187,187,187)" stroke="none" d="M 4834,8479 L 5846,8479 5846,9837 4834,9837 4834,8479 Z M 4846,8495 L 5834,8495 5834,9821 4846,9821 4846,8495 Z"/>
             <path fill="rgb(188,188,188)" stroke="none" d="M 4846,8495 L 5834,8495 5834,9821 4846,9821 4846,8495 Z M 4858,8511 L 5822,8511 5822,9805 4858,9805 4858,8511 Z"/>
             <path fill="rgb(189,189,189)" stroke="none" d="M 4858,8511 L 5822,8511 5822,9805 4858,9805 4858,8511 Z M 4870,8528 L 5810,8528 5810,9788 4870,9788 4870,8528 Z"/>
             <path fill="rgb(190,190,190)" stroke="none" d="M 4870,8528 L 5810,8528 5810,9788 4870,9788 4870,8528 Z M 4882,8544 L 5798,8544 5798,9772 4882,9772 4882,8544 Z"/>
             <path fill="rgb(191,191,191)" stroke="none" d="M 4882,8544 L 5798,8544 5798,9772 4882,9772 4882,8544 Z M 4894,8560 L 5786,8560 5786,9756 4894,9756 4894,8560 Z"/>
             <path fill="rgb(192,192,192)" stroke="none" d="M 4894,8560 L 5786,8560 5786,9756 4894,9756 4894,8560 Z M 4906,8576 L 5774,8576 5774,9740 4906,9740 4906,8576 Z"/>
             <path fill="rgb(193,193,193)" stroke="none" d="M 4906,8576 L 5774,8576 5774,9740 4906,9740 4906,8576 Z M 4919,8592 L 5761,8592 5761,9724 4919,9724 4919,8592 Z"/>
             <path fill="rgb(194,194,194)" stroke="none" d="M 4919,8592 L 5761,8592 5761,9724 4919,9724 4919,8592 Z M 4931,8609 L 5749,8609 5749,9707 4931,9707 4931,8609 Z"/>
             <path fill="rgb(195,195,195)" stroke="none" d="M 4931,8609 L 5749,8609 5749,9707 4931,9707 4931,8609 Z M 4943,8625 L 5737,8625 5737,9691 4943,9691 4943,8625 Z"/>
             <path fill="rgb(196,196,196)" stroke="none" d="M 4943,8625 L 5737,8625 5737,9691 4943,9691 4943,8625 Z M 4955,8641 L 5725,8641 5725,9675 4955,9675 4955,8641 Z"/>
             <path fill="rgb(197,197,197)" stroke="none" d="M 4955,8641 L 5725,8641 5725,9675 4955,9675 4955,8641 Z M 4966,8656 L 5713,8656 5713,9659 4966,9659 4966,8656 Z"/>
             <path fill="rgb(198,198,198)" stroke="none" d="M 4966,8656 L 5713,8656 5713,9659 4966,9659 4966,8656 Z M 4978,8672 L 5701,8672 5701,9643 4978,9643 4978,8672 Z"/>
             <path fill="rgb(199,199,199)" stroke="none" d="M 4978,8672 L 5701,8672 5701,9643 4978,9643 4978,8672 Z M 4990,8688 L 5689,8688 5689,9627 4990,9627 4990,8688 Z"/>
             <path fill="rgb(200,200,200)" stroke="none" d="M 4990,8688 L 5689,8688 5689,9627 4990,9627 4990,8688 Z M 5002,8705 L 5677,8705 5677,9610 5002,9610 5002,8705 Z"/>
             <path fill="rgb(201,201,201)" stroke="none" d="M 5002,8705 L 5677,8705 5677,9610 5002,9610 5002,8705 Z M 5014,8721 L 5665,8721 5665,9594 5014,9594 5014,8721 Z"/>
             <path fill="rgb(202,202,202)" stroke="none" d="M 5014,8721 L 5665,8721 5665,9594 5014,9594 5014,8721 Z M 5026,8737 L 5653,8737 5653,9578 5026,9578 5026,8737 Z"/>
             <path fill="rgb(203,203,203)" stroke="none" d="M 5026,8737 L 5653,8737 5653,9578 5026,9578 5026,8737 Z M 5038,8753 L 5641,8753 5641,9562 5038,9562 5038,8753 Z"/>
             <path fill="rgb(204,204,204)" stroke="none" d="M 5038,8753 L 5641,8753 5641,9562 5038,9562 5038,8753 Z M 5050,8769 L 5629,8769 5629,9546 5050,9546 5050,8769 Z"/>
             <path fill="rgb(205,205,205)" stroke="none" d="M 5050,8769 L 5629,8769 5629,9546 5050,9546 5050,8769 Z M 5062,8786 L 5617,8786 5617,9529 5062,9529 5062,8786 Z"/>
             <path fill="rgb(206,206,206)" stroke="none" d="M 5062,8786 L 5617,8786 5617,9529 5062,9529 5062,8786 Z M 5074,8802 L 5605,8802 5605,9513 5074,9513 5074,8802 Z"/>
             <path fill="rgb(207,207,207)" stroke="none" d="M 5074,8802 L 5605,8802 5605,9513 5074,9513 5074,8802 Z M 5087,8818 L 5592,8818 5592,9497 5087,9497 5087,8818 Z"/>
             <path fill="rgb(208,208,208)" stroke="none" d="M 5087,8818 L 5592,8818 5592,9497 5087,9497 5087,8818 Z M 5099,8834 L 5580,8834 5580,9481 5099,9481 5099,8834 Z"/>
             <path fill="rgb(209,209,209)" stroke="none" d="M 5099,8834 L 5580,8834 5580,9481 5099,9481 5099,8834 Z M 5111,8850 L 5568,8850 5568,9465 5111,9465 5111,8850 Z"/>
             <path fill="rgb(210,210,210)" stroke="none" d="M 5111,8850 L 5568,8850 5568,9465 5111,9465 5111,8850 Z M 5123,8867 L 5556,8867 5556,9448 5123,9448 5123,8867 Z"/>
             <path fill="rgb(211,211,211)" stroke="none" d="M 5123,8867 L 5556,8867 5556,9448 5123,9448 5123,8867 Z M 5135,8883 L 5544,8883 5544,9432 5135,9432 5135,8883 Z"/>
             <path fill="rgb(212,212,212)" stroke="none" d="M 5135,8883 L 5544,8883 5544,9432 5135,9432 5135,8883 Z M 5147,8899 L 5532,8899 5532,9416 5147,9416 5147,8899 Z"/>
             <path fill="rgb(213,213,213)" stroke="none" d="M 5147,8899 L 5532,8899 5532,9416 5147,9416 5147,8899 Z M 5159,8915 L 5520,8915 5520,9400 5159,9400 5159,8915 Z"/>
             <path fill="rgb(214,214,214)" stroke="none" d="M 5159,8915 L 5520,8915 5520,9400 5159,9400 5159,8915 Z M 5171,8931 L 5508,8931 5508,9384 5171,9384 5171,8931 Z"/>
             <path fill="rgb(215,215,215)" stroke="none" d="M 5171,8931 L 5508,8931 5508,9384 5171,9384 5171,8931 Z M 5183,8948 L 5496,8948 5496,9367 5183,9367 5183,8948 Z"/>
             <path fill="rgb(216,216,216)" stroke="none" d="M 5183,8948 L 5496,8948 5496,9367 5183,9367 5183,8948 Z M 5195,8964 L 5484,8964 5484,9351 5195,9351 5195,8964 Z"/>
             <path fill="rgb(217,217,217)" stroke="none" d="M 5195,8964 L 5484,8964 5484,9351 5195,9351 5195,8964 Z M 5207,8980 L 5472,8980 5472,9335 5207,9335 5207,8980 Z"/>
             <path fill="rgb(218,218,218)" stroke="none" d="M 5207,8980 L 5472,8980 5472,9335 5207,9335 5207,8980 Z M 5219,8996 L 5460,8996 5460,9319 5219,9319 5219,8996 Z"/>
             <path fill="rgb(219,219,219)" stroke="none" d="M 5219,8996 L 5460,8996 5460,9319 5219,9319 5219,8996 Z M 5231,9012 L 5448,9012 5448,9303 5231,9303 5231,9012 Z"/>
             <path fill="rgb(220,220,220)" stroke="none" d="M 5231,9012 L 5448,9012 5448,9303 5231,9303 5231,9012 Z M 5243,9028 L 5436,9028 5436,9287 5243,9287 5243,9028 Z"/>
             <path fill="rgb(221,221,221)" stroke="none" d="M 5243,9028 L 5436,9028 5436,9287 5243,9287 5243,9028 Z M 5256,9045 L 5423,9045 5423,9270 5256,9270 5256,9045 Z"/>
             <path fill="rgb(222,222,222)" stroke="none" d="M 5256,9045 L 5423,9045 5423,9270 5256,9270 5256,9045 Z M 5268,9061 L 5411,9061 5411,9254 5268,9254 5268,9061 Z"/>
             <path fill="rgb(223,223,223)" stroke="none" d="M 5268,9061 L 5411,9061 5411,9254 5268,9254 5268,9061 Z M 5280,9077 L 5399,9077 5399,9238 5280,9238 5280,9077 Z"/>
             <path fill="rgb(224,224,224)" stroke="none" d="M 5280,9077 L 5399,9077 5399,9238 5280,9238 5280,9077 Z M 5292,9093 L 5387,9093 5387,9222 5292,9222 5292,9093 Z"/>
             <path fill="rgb(225,225,225)" stroke="none" d="M 5292,9093 L 5387,9093 5387,9222 5292,9222 5292,9093 Z M 5304,9109 L 5375,9109 5375,9206 5304,9206 5304,9109 Z"/>
             <path fill="rgb(226,226,226)" stroke="none" d="M 5304,9109 L 5375,9109 5375,9206 5304,9206 5304,9109 Z M 5316,9126 L 5363,9126 5363,9189 5316,9189 5316,9126 Z"/>
             <path fill="rgb(227,227,227)" stroke="none" d="M 5316,9126 L 5363,9126 5363,9189 5316,9189 5316,9126 Z M 5328,9142 L 5351,9142 5351,9173 5328,9173 5328,9142 Z"/>
             <path fill="rgb(229,229,229)" stroke="none" d="M 5328,9142 L 5351,9142 5351,9173 5328,9173 5328,9142 Z"/>
            </g>
           </pattern>
          </defs>
          <path style="fill:url(#pattern1)" d="M 4979,9917 L 5100,8873 5167,8866 5238,8862 5387,8863 5685,8867 5752,8863 5813,8855 5869,8842 5894,8834 5917,8824 5938,8812 5956,8799 5972,8783 5986,8766 5997,8747 6005,8725 6009,8701 6011,8674 6183,9917 6180,9962 6169,10004 6153,10044 6131,10080 6104,10114 6072,10144 6035,10172 5995,10197 5904,10237 5802,10266 5693,10284 5581,10290 5469,10284 5360,10266 5258,10237 5167,10197 5127,10172 5090,10144 5058,10114 5031,10080 5009,10044 4993,10004 4982,9962 4979,9917 Z"/>
         </g>
         <path fill="none" stroke="rgb(255,255,255)" stroke-width="40" stroke-linejoin="round" d="M 4979,9917 L 5100,8873 C 5444,8823 6011,8972 6011,8674 L 6183,9917 C 6183,10414 4979,10414 4979,9917 Z"/>
        </g>
       </g>
       <g class="com.sun.star.drawing.ClosedBezierShape">
        <g id="id5">
         <rect class="BoundingBox" stroke="none" fill="none" x="5131" y="8406" width="901" height="539"/>
         <g>
          <defs>
           <linearGradient id="gradient1" x1="5581" y1="8426" x2="5581" y2="8923" gradientUnits="userSpaceOnUse">
            <stop offset="0.1" style="stop-color:rgb(179,179,179)"/>
            <stop offset="1" style="stop-color:rgb(229,229,229)"/>
           </linearGradient>
          </defs>
          <path style="fill:url(#gradient1)" d="M 5893,8494 L 5921,8512 5945,8532 5965,8553 5981,8576 5994,8599 6003,8624 6009,8649 6011,8674 6009,8700 6003,8725 5994,8749 5981,8773 5965,8796 5945,8817 5921,8837 5893,8855 5862,8871 5828,8885 5791,8896 5751,8906 5710,8914 5668,8919 5581,8923 5493,8919 5451,8914 5410,8906 5370,8896 5333,8885 5299,8871 5268,8855 5241,8837 5217,8817 5197,8796 5180,8773 5167,8749 5158,8725 5153,8700 5151,8674 5153,8649 5158,8624 5167,8599 5180,8576 5197,8553 5217,8532 5241,8512 5268,8494 5299,8478 5334,8464 5371,8452 5410,8443 5451,8435 5494,8430 5581,8426 5668,8430 5711,8436 5752,8443 5791,8453 5828,8464 5862,8478 5893,8494 Z"/>
         </g>
         <path fill="none" stroke="rgb(255,255,255)" stroke-width="40" stroke-linejoin="round" d="M 5893,8494 C 6050,8584 6050,8765 5893,8855 5737,8946 5424,8946 5268,8855 5112,8765 5112,8584 5268,8494 5425,8403 5737,8404 5893,8494 Z"/>
        </g>
       </g>
       <g class="com.sun.star.drawing.ClosedBezierShape">
        <g id="id6">
         <rect class="BoundingBox" stroke="none" fill="none" x="4070" y="6910" width="2085" height="2044"/>
         <g>
          <defs>
           <linearGradient id="gradient2" x1="5111" y1="8930" x2="5111" y2="6929" gradientUnits="userSpaceOnUse">
            <stop offset="0.1" style="stop-color:rgb(179,179,179)"/>
            <stop offset="1" style="stop-color:rgb(229,229,229)"/>
           </linearGradient>
          </defs>
          <path style="fill:url(#gradient2)" d="M 6027,7011 L 6034,7016 6041,7022 6054,7038 6067,7059 6078,7084 6098,7147 6114,7225 6125,7315 6132,7415 6129,7637 6104,7872 6083,7988 6054,8102 6020,8209 5978,8309 5929,8398 5873,8475 5838,8524 5799,8571 5710,8654 5608,8726 5495,8786 5373,8836 5245,8874 5114,8903 4981,8921 4849,8931 4720,8931 4597,8923 4483,8908 4378,8884 4287,8853 4212,8816 4180,8795 4154,8773 4132,8748 4115,8721 4103,8692 4095,8660 4091,8626 4092,8591 4096,8554 4104,8515 4129,8434 4167,8349 4215,8260 4272,8170 4405,7988 4553,7815 4703,7658 4842,7530 5113,7284 5259,7162 5333,7106 5408,7055 5484,7011 5561,6975 5638,6949 5716,6933 5755,6930 5794,6931 5832,6934 5871,6941 5910,6953 5949,6968 5988,6987 6027,7011 Z"/>
         </g>
         <path fill="none" stroke="rgb(255,255,255)" stroke-width="40" stroke-linejoin="round" d="M 6027,7011 C 6184,7101 6195,8103 5873,8475 5529,9021 4412,9021 4154,8773 3896,8524 4498,7828 4842,7530 5185,7232 5615,6735 6027,7011 Z"/>
        </g>
       </g>
       <g class="com.sun.star.drawing.ClosedBezierShape">
        <g id="id7">
         <rect class="BoundingBox" stroke="none" fill="none" x="4093" y="6885" width="1928" height="1945"/>
         <g>
          <defs>
           <linearGradient id="gradient3" x1="5056" y1="6906" x2="5056" y2="8808" gradientUnits="userSpaceOnUse">
            <stop offset="0.1" style="stop-color:rgb(179,179,179)"/>
            <stop offset="1" style="stop-color:rgb(229,229,229)"/>
           </linearGradient>
          </defs>
          <path style="fill:url(#gradient3)" d="M 5959,6933 L 5966,6938 5972,6944 5983,6957 5991,6974 5996,6994 5999,7017 5999,7042 5993,7100 5979,7166 5957,7239 5895,7399 5814,7567 5721,7732 5622,7880 5572,7945 5524,8001 5400,8121 5227,8265 5025,8418 4808,8564 4596,8688 4496,8737 4404,8775 4322,8799 4285,8806 4251,8808 4221,8806 4194,8800 4172,8789 4162,8782 4153,8773 4139,8753 4128,8730 4120,8705 4116,8677 4114,8647 4115,8615 4126,8545 4147,8468 4177,8387 4215,8302 4261,8214 4368,8036 4492,7864 4623,7709 4690,7641 4755,7580 5040,7332 5197,7205 5357,7089 5438,7038 5518,6994 5597,6957 5674,6929 5750,6912 5823,6906 5858,6908 5893,6913 5926,6921 5959,6933 Z"/>
         </g>
         <path fill="none" stroke="rgb(255,255,255)" stroke-width="40" stroke-linejoin="round" d="M 5959,6933 C 6116,7024 5776,7727 5524,8001 5271,8275 4325,8971 4153,8773 3981,8574 4411,7878 4755,7580 5099,7281 5615,6784 5959,6933 Z"/>
        </g>
       </g>
       <g class="com.sun.star.drawing.ClosedBezierShape">
        <g id="id8">
         <rect class="BoundingBox" stroke="none" fill="none" x="4095" y="6887" width="2109" height="3424"/>
         <path fill="none" stroke="rgb(0,0,0)" stroke-width="40" stroke-linejoin="round" d="M 4979,9917 L 5100,8922 C 5100,8922 4326,9022 4154,8773 3982,8525 4419,7872 4756,7580 5094,7287 5616,6785 5960,6934 6304,7083 6132,8177 5874,8475 5874,8475 6040,8587 6011,8674 L 6183,9917 C 6183,10414 4979,10414 4979,9917 Z"/>
        </g>
       </g>
       <g class="com.sun.star.drawing.PolyPolygonShape">
        <g id="id9">
         <rect class="BoundingBox" stroke="none" fill="none" x="4392" y="6864" width="213" height="1333"/>
         <path fill="rgb(204,204,204)" stroke="none" d="M 4498,8176 L 4498,7083 4412,6983 4498,6884 4584,6983 4498,7083 4498,8176 Z"/>
         <path fill="none" stroke="rgb(0,0,0)" stroke-width="40" stroke-linejoin="round" d="M 4498,8176 L 4498,7083 4412,6983 4498,6884 4584,6983 4498,7083 4498,8176 Z"/>
        </g>
       </g>
       <g class="com.sun.star.drawing.LineShape">
        <g id="id10">
         <rect class="BoundingBox" stroke="none" fill="none" x="4478" y="6963" width="815" height="1135"/>
         <path fill="none" stroke="rgb(0,0,0)" stroke-width="40" stroke-linejoin="round" d="M 5272,8077 L 4498,6983"/>
        </g>
       </g>
       <g class="com.sun.star.drawing.LineShape">
        <g id="id11">
         <rect class="BoundingBox" stroke="none" fill="none" x="4564" y="6963" width="987" height="290"/>
         <path fill="none" stroke="rgb(0,0,0)" stroke-width="40" stroke-linejoin="round" d="M 4584,6983 L 5530,7232"/>
        </g>
       </g>
      </g>
     </g>
    </g>
   </g>
  </g>
 </g>
</svg>