<?xml version="1.0" encoding="UTF-8"?>
<!DOCTYPE svg PUBLIC "-//W3C//DTD SVG 1.1//EN" "http://www.w3.org/Graphics/SVG/1.1/DTD/svg11.dtd">
<svg version="1.2" width="39.76mm" height="27.5mm" viewBox="15061 9765 3976 2750" preserveAspectRatio="xMidYMid" fill-rule="evenodd" stroke-width="28.222" stroke-linejoin="round" xmlns="http://www.w3.org/2000/svg" xmlns:ooo="http://xml.openoffice.org/svg/export" xmlns:xlink="http://www.w3.org/1999/xlink" xmlns:presentation="http://sun.com/xmlns/staroffice/presentation" xmlns:smil="http://www.w3.org/2001/SMIL20/" xmlns:anim="urn:oasis:names:tc:opendocument:xmlns:animation:1.0" xml:space="preserve">
 <defs class="ClipPathGroup">
  <clipPath id="presentation_clip_path" clipPathUnits="userSpaceOnUse">
   <rect x="15061" y="9765" width="3976" height="2750"/>
  </clipPath>
 </defs>
 <defs class="TextShapeIndex">
  <g ooo:slide="id1" ooo:id-list="id3 id4 id5 id6 id7 id8 id9 id10 id11 id12 id13"/>
 </defs>
 <defs class="EmbeddedBulletChars">
  <g id="bullet-char-template(57356)" transform="scale(0.00048828125,-0.00048828125)">
   <path d="M 580,1141 L 1163,571 580,0 -4,571 580,1141 Z"/>
  </g>
  <g id="bullet-char-template(57354)" transform="scale(0.00048828125,-0.00048828125)">
   <path d="M 8,1128 L 1137,1128 1137,0 8,0 8,1128 Z"/>
  </g>
  <g id="bullet-char-template(10146)" transform="scale(0.00048828125,-0.00048828125)">
   <path d="M 174,0 L 602,739 174,1481 1456,739 174,0 Z M 1358,739 L 309,1346 659,739 1358,739 Z"/>
  </g>
  <g id="bullet-char-template(10132)" transform="scale(0.00048828125,-0.00048828125)">
   <path d="M 2015,739 L 1276,0 717,0 1260,543 174,543 174,936 1260,936 717,1481 1274,1481 2015,739 Z"/>
  </g>
  <g id="bullet-char-template(10007)" transform="scale(0.00048828125,-0.00048828125)">
   <path d="M 0,-2 C -7,14 -16,27 -25,37 L 356,567 C 262,823 215,952 215,954 215,979 228,992 255,992 264,992 276,990 289,987 310,991 331,999 354,1012 L 381,999 492,748 772,1049 836,1024 860,1049 C 881,1039 901,1025 922,1006 886,937 835,863 770,784 769,783 710,716 594,584 L 774,223 C 774,196 753,168 711,139 L 727,119 C 717,90 699,76 672,76 641,76 570,178 457,381 L 164,-76 C 142,-110 111,-127 72,-127 30,-127 9,-110 8,-76 1,-67 -2,-52 -2,-32 -2,-23 -1,-13 0,-2 Z"/>
  </g>
  <g id="bullet-char-template(10004)" transform="scale(0.00048828125,-0.00048828125)">
   <path d="M 285,-33 C 182,-33 111,30 74,156 52,228 41,333 41,471 41,549 55,616 82,672 116,743 169,778 240,778 293,778 328,747 346,684 L 369,508 C 377,444 397,411 428,410 L 1163,1116 C 1174,1127 1196,1133 1229,1133 1271,1133 1292,1118 1292,1087 L 1292,965 C 1292,929 1282,901 1262,881 L 442,47 C 390,-6 338,-33 285,-33 Z"/>
  </g>
  <g id="bullet-char-template(9679)" transform="scale(0.00048828125,-0.00048828125)">
   <path d="M 813,0 C 632,0 489,54 383,161 276,268 223,411 223,592 223,773 276,916 383,1023 489,1130 632,1184 813,1184 992,1184 1136,1130 1245,1023 1353,916 1407,772 1407,592 1407,412 1353,268 1245,161 1136,54 992,0 813,0 Z"/>
  </g>
  <g id="bullet-char-template(8226)" transform="scale(0.00048828125,-0.00048828125)">
   <path d="M 346,457 C 273,457 209,483 155,535 101,586 74,649 74,723 74,796 101,859 155,911 209,963 273,989 346,989 419,989 480,963 531,910 582,859 608,796 608,723 608,648 583,586 532,535 482,483 420,457 346,457 Z"/>
  </g>
  <g id="bullet-char-template(8211)" transform="scale(0.00048828125,-0.00048828125)">
   <path d="M -4,459 L 1135,459 1135,606 -4,606 -4,459 Z"/>
  </g>
 </defs>
 <defs class="TextEmbeddedBitmaps"/>
 <g class="SlideGroup">
  <g>
   <g id="id1" class="Slide" clip-path="url(#presentation_clip_path)">
    <g class="Page">
     <g class="Group">
      <g class="com.sun.star.drawing.ClosedBezierShape">
       <g id="id3">
        <rect class="BoundingBox" stroke="none" fill="none" x="17278" y="11393" width="1761" height="1104"/>
        <path fill="rgb(221,221,221)" stroke="none" d="M 17279,12495 C 17681,12495 19037,12072 19037,11733 19037,11394 18891,11394 18744,11394 18744,11648 17279,12155 17279,12495 Z"/>
        <path fill="none" stroke="rgb(221,221,221)" d="M 17279,12495 C 17681,12495 19037,12072 19037,11733 19037,11394 18891,11394 18744,11394 18744,11648 17279,12155 17279,12495 Z"/>
       </g>
      </g>
      <g class="Group">
       <g class="com.sun.star.drawing.PolyPolygonShape">
        <g id="id4">
         <rect class="BoundingBox" stroke="none" fill="none" x="17259" y="11035" width="1507" height="1482"/>
         <g>
          <defs>
           <pattern id="pattern1" x="17279" y="11055" width="1466" height="1441" patternUnits="userSpaceOnUse">
            <g transform="translate(-17279,-11055)">
             <path fill="rgb(51,51,51)" stroke="none" d="M 17278,11054 L 18745,11054 18745,12496 17278,12496 17278,11054 Z M 16992,10773 L 18443,10773 18443,12199 16992,12199 16992,10773 Z"/>
             <path fill="rgb(52,52,52)" stroke="none" d="M 16992,10773 L 18443,10773 18443,12199 16992,12199 16992,10773 Z M 16999,10780 L 18436,10780 18436,12192 16999,12192 16999,10780 Z"/>
             <path fill="rgb(53,53,53)" stroke="none" d="M 16999,10780 L 18436,10780 18436,12192 16999,12192 16999,10780 Z M 17006,10787 L 18429,10787 18429,12185 17006,12185 17006,10787 Z"/>
             <path fill="rgb(54,54,54)" stroke="none" d="M 17006,10787 L 18429,10787 18429,12185 17006,12185 17006,10787 Z M 17013,10794 L 18422,10794 18422,12178 17013,12178 17013,10794 Z"/>
             <path fill="rgb(55,55,55)" stroke="none" d="M 17013,10794 L 18422,10794 18422,12178 17013,12178 17013,10794 Z M 17020,10801 L 18415,10801 18415,12171 17020,12171 17020,10801 Z"/>
             <path fill="rgb(56,56,56)" stroke="none" d="M 17020,10801 L 18415,10801 18415,12171 17020,12171 17020,10801 Z M 17028,10808 L 18407,10808 18407,12164 17028,12164 17028,10808 Z"/>
             <path fill="rgb(57,57,57)" stroke="none" d="M 17028,10808 L 18407,10808 18407,12164 17028,12164 17028,10808 Z M 17035,10815 L 18400,10815 18400,12157 17035,12157 17035,10815 Z"/>
             <path fill="rgb(58,58,58)" stroke="none" d="M 17035,10815 L 18400,10815 18400,12157 17035,12157 17035,10815 Z M 17042,10822 L 18393,10822 18393,12150 17042,12150 17042,10822 Z"/>
             <path fill="rgb(59,59,59)" stroke="none" d="M 17042,10822 L 18393,10822 18393,12150 17042,12150 17042,10822 Z M 17049,10829 L 18386,10829 18386,12143 17049,12143 17049,10829 Z"/>
             <path fill="rgb(60,60,60)" stroke="none" d="M 17049,10829 L 18386,10829 18386,12143 17049,12143 17049,10829 Z M 17056,10836 L 18379,10836 18379,12136 17056,12136 17056,10836 Z"/>
             <path fill="rgb(61,61,61)" stroke="none" d="M 17056,10836 L 18379,10836 18379,12136 17056,12136 17056,10836 Z M 17064,10843 L 18371,10843 18371,12129 17064,12129 17064,10843 Z"/>
             <path fill="rgb(62,62,62)" stroke="none" d="M 17064,10843 L 18371,10843 18371,12129 17064,12129 17064,10843 Z M 17071,10850 L 18364,10850 18364,12122 17071,12122 17071,10850 Z"/>
             <path fill="rgb(63,63,63)" stroke="none" d="M 17071,10850 L 18364,10850 18364,12122 17071,12122 17071,10850 Z M 17078,10857 L 18357,10857 18357,12115 17078,12115 17078,10857 Z"/>
             <path fill="rgb(64,64,64)" stroke="none" d="M 17078,10857 L 18357,10857 18357,12115 17078,12115 17078,10857 Z M 17085,10865 L 18350,10865 18350,12107 17085,12107 17085,10865 Z"/>
             <path fill="rgb(65,65,65)" stroke="none" d="M 17085,10865 L 18350,10865 18350,12107 17085,12107 17085,10865 Z M 17092,10872 L 18343,10872 18343,12100 17092,12100 17092,10872 Z"/>
             <path fill="rgb(66,66,66)" stroke="none" d="M 17092,10872 L 18343,10872 18343,12100 17092,12100 17092,10872 Z M 17100,10879 L 18335,10879 18335,12093 17100,12093 17100,10879 Z"/>
             <path fill="rgb(67,67,67)" stroke="none" d="M 17100,10879 L 18335,10879 18335,12093 17100,12093 17100,10879 Z M 17107,10886 L 18328,10886 18328,12086 17107,12086 17107,10886 Z"/>
             <path fill="rgb(68,68,68)" stroke="none" d="M 17107,10886 L 18328,10886 18328,12086 17107,12086 17107,10886 Z M 17114,10893 L 18321,10893 18321,12079 17114,12079 17114,10893 Z"/>
             <path fill="rgb(69,69,69)" stroke="none" d="M 17114,10893 L 18321,10893 18321,12079 17114,12079 17114,10893 Z M 17121,10900 L 18314,10900 18314,12072 17121,12072 17121,10900 Z"/>
             <path fill="rgb(70,70,70)" stroke="none" d="M 17121,10900 L 18314,10900 18314,12072 17121,12072 17121,10900 Z M 17128,10907 L 18307,10907 18307,12065 17128,12065 17128,10907 Z"/>
             <path fill="rgb(71,71,71)" stroke="none" d="M 17128,10907 L 18307,10907 18307,12065 17128,12065 17128,10907 Z M 17136,10914 L 18299,10914 18299,12058 17136,12058 17136,10914 Z"/>
             <path fill="rgb(72,72,72)" stroke="none" d="M 17136,10914 L 18299,10914 18299,12058 17136,12058 17136,10914 Z M 17143,10921 L 18292,10921 18292,12051 17143,12051 17143,10921 Z"/>
             <path fill="rgb(73,73,73)" stroke="none" d="M 17143,10921 L 18292,10921 18292,12051 17143,12051 17143,10921 Z M 17150,10928 L 18285,10928 18285,12044 17150,12044 17150,10928 Z"/>
             <path fill="rgb(74,74,74)" stroke="none" d="M 17150,10928 L 18285,10928 18285,12044 17150,12044 17150,10928 Z M 17157,10935 L 18278,10935 18278,12037 17157,12037 17157,10935 Z"/>
             <path fill="rgb(75,75,75)" stroke="none" d="M 17157,10935 L 18278,10935 18278,12037 17157,12037 17157,10935 Z M 17164,10942 L 18271,10942 18271,12030 17164,12030 17164,10942 Z"/>
             <path fill="rgb(76,76,76)" stroke="none" d="M 17164,10942 L 18271,10942 18271,12030 17164,12030 17164,10942 Z M 17172,10949 L 18263,10949 18263,12023 17172,12023 17172,10949 Z"/>
             <path fill="rgb(77,77,77)" stroke="none" d="M 17172,10949 L 18263,10949 18263,12023 17172,12023 17172,10949 Z M 17179,10956 L 18256,10956 18256,12016 17179,12016 17179,10956 Z"/>
             <path fill="rgb(78,78,78)" stroke="none" d="M 17179,10956 L 18256,10956 18256,12016 17179,12016 17179,10956 Z M 17186,10964 L 18249,10964 18249,12008 17186,12008 17186,10964 Z"/>
             <path fill="rgb(79,79,79)" stroke="none" d="M 17186,10964 L 18249,10964 18249,12008 17186,12008 17186,10964 Z M 17193,10971 L 18242,10971 18242,12001 17193,12001 17193,10971 Z"/>
             <path fill="rgb(80,80,80)" stroke="none" d="M 17193,10971 L 18242,10971 18242,12001 17193,12001 17193,10971 Z M 17200,10978 L 18235,10978 18235,11994 17200,11994 17200,10978 Z"/>
             <path fill="rgb(81,81,81)" stroke="none" d="M 17200,10978 L 18235,10978 18235,11994 17200,11994 17200,10978 Z M 17208,10985 L 18227,10985 18227,11987 17208,11987 17208,10985 Z"/>
             <path fill="rgb(82,82,82)" stroke="none" d="M 17208,10985 L 18227,10985 18227,11987 17208,11987 17208,10985 Z M 17215,10992 L 18220,10992 18220,11980 17215,11980 17215,10992 Z"/>
             <path fill="rgb(83,83,83)" stroke="none" d="M 17215,10992 L 18220,10992 18220,11980 17215,11980 17215,10992 Z M 17222,10999 L 18213,10999 18213,11973 17222,11973 17222,10999 Z"/>
             <path fill="rgb(84,84,84)" stroke="none" d="M 17222,10999 L 18213,10999 18213,11973 17222,11973 17222,10999 Z M 17229,11006 L 18206,11006 18206,11966 17229,11966 17229,11006 Z"/>
             <path fill="rgb(85,85,85)" stroke="none" d="M 17229,11006 L 18206,11006 18206,11966 17229,11966 17229,11006 Z M 17236,11013 L 18199,11013 18199,11959 17236,11959 17236,11013 Z"/>
             <path fill="rgb(86,86,86)" stroke="none" d="M 17236,11013 L 18199,11013 18199,11959 17236,11959 17236,11013 Z M 17244,11020 L 18191,11020 18191,11952 17244,11952 17244,11020 Z"/>
             <path fill="rgb(87,87,87)" stroke="none" d="M 17244,11020 L 18191,11020 18191,11952 17244,11952 17244,11020 Z M 17251,11027 L 18184,11027 18184,11945 17251,11945 17251,11027 Z"/>
             <path fill="rgb(88,88,88)" stroke="none" d="M 17251,11027 L 18184,11027 18184,11945 17251,11945 17251,11027 Z M 17258,11034 L 18177,11034 18177,11938 17258,11938 17258,11034 Z"/>
             <path fill="rgb(89,89,89)" stroke="none" d="M 17258,11034 L 18177,11034 18177,11938 17258,11938 17258,11034 Z M 17264,11040 L 18170,11040 18170,11931 17264,11931 17264,11040 Z"/>
             <path fill="rgb(90,90,90)" stroke="none" d="M 17264,11040 L 18170,11040 18170,11931 17264,11931 17264,11040 Z M 17271,11047 L 18163,11047 18163,11924 17271,11924 17271,11047 Z"/>
             <path fill="rgb(91,91,91)" stroke="none" d="M 17271,11047 L 18163,11047 18163,11924 17271,11924 17271,11047 Z M 17279,11055 L 18155,11055 18155,11916 17279,11916 17279,11055 Z"/>
             <path fill="rgb(92,92,92)" stroke="none" d="M 17279,11055 L 18155,11055 18155,11916 17279,11916 17279,11055 Z M 17286,11062 L 18148,11062 18148,11909 17286,11909 17286,11062 Z"/>
             <path fill="rgb(93,93,93)" stroke="none" d="M 17286,11062 L 18148,11062 18148,11909 17286,11909 17286,11062 Z M 17293,11069 L 18141,11069 18141,11902 17293,11902 17293,11069 Z"/>
             <path fill="rgb(94,94,94)" stroke="none" d="M 17293,11069 L 18141,11069 18141,11902 17293,11902 17293,11069 Z M 17300,11076 L 18134,11076 18134,11895 17300,11895 17300,11076 Z"/>
             <path fill="rgb(95,95,95)" stroke="none" d="M 17300,11076 L 18134,11076 18134,11895 17300,11895 17300,11076 Z M 17307,11083 L 18127,11083 18127,11888 17307,11888 17307,11083 Z"/>
             <path fill="rgb(96,96,96)" stroke="none" d="M 17307,11083 L 18127,11083 18127,11888 17307,11888 17307,11083 Z M 17315,11090 L 18119,11090 18119,11881 17315,11881 17315,11090 Z"/>
             <path fill="rgb(97,97,97)" stroke="none" d="M 17315,11090 L 18119,11090 18119,11881 17315,11881 17315,11090 Z M 17322,11097 L 18112,11097 18112,11874 17322,11874 17322,11097 Z"/>
             <path fill="rgb(98,98,98)" stroke="none" d="M 17322,11097 L 18112,11097 18112,11874 17322,11874 17322,11097 Z M 17329,11104 L 18105,11104 18105,11867 17329,11867 17329,11104 Z"/>
             <path fill="rgb(99,99,99)" stroke="none" d="M 17329,11104 L 18105,11104 18105,11867 17329,11867 17329,11104 Z M 17336,11111 L 18098,11111 18098,11860 17336,11860 17336,11111 Z"/>
             <path fill="rgb(100,100,100)" stroke="none" d="M 17336,11111 L 18098,11111 18098,11860 17336,11860 17336,11111 Z M 17343,11118 L 18091,11118 18091,11853 17343,11853 17343,11118 Z"/>
             <path fill="rgb(101,101,101)" stroke="none" d="M 17343,11118 L 18091,11118 18091,11853 17343,11853 17343,11118 Z M 17350,11125 L 18083,11125 18083,11846 17350,11846 17350,11125 Z"/>
             <path fill="rgb(102,102,102)" stroke="none" d="M 17350,11125 L 18083,11125 18083,11846 17350,11846 17350,11125 Z M 17358,11132 L 18076,11132 18076,11839 17358,11839 17358,11132 Z"/>
             <path fill="rgb(103,103,103)" stroke="none" d="M 17358,11132 L 18076,11132 18076,11839 17358,11839 17358,11132 Z M 17365,11139 L 18069,11139 18069,11832 17365,11832 17365,11139 Z"/>
             <path fill="rgb(104,104,104)" stroke="none" d="M 17365,11139 L 18069,11139 18069,11832 17365,11832 17365,11139 Z M 17372,11146 L 18062,11146 18062,11825 17372,11825 17372,11146 Z"/>
             <path fill="rgb(105,105,105)" stroke="none" d="M 17372,11146 L 18062,11146 18062,11825 17372,11825 17372,11146 Z M 17379,11154 L 18055,11154 18055,11817 17379,11817 17379,11154 Z"/>
             <path fill="rgb(106,106,106)" stroke="none" d="M 17379,11154 L 18055,11154 18055,11817 17379,11817 17379,11154 Z M 17386,11161 L 18048,11161 18048,11810 17386,11810 17386,11161 Z"/>
             <path fill="rgb(107,107,107)" stroke="none" d="M 17386,11161 L 18048,11161 18048,11810 17386,11810 17386,11161 Z M 17394,11168 L 18040,11168 18040,11803 17394,11803 17394,11168 Z"/>
             <path fill="rgb(108,108,108)" stroke="none" d="M 17394,11168 L 18040,11168 18040,11803 17394,11803 17394,11168 Z M 17401,11175 L 18033,11175 18033,11796 17401,11796 17401,11175 Z"/>
             <path fill="rgb(109,109,109)" stroke="none" d="M 17401,11175 L 18033,11175 18033,11796 17401,11796 17401,11175 Z M 17408,11182 L 18026,11182 18026,11789 17408,11789 17408,11182 Z"/>
             <path fill="rgb(110,110,110)" stroke="none" d="M 17408,11182 L 18026,11182 18026,11789 17408,11789 17408,11182 Z M 17415,11189 L 18019,11189 18019,11782 17415,11782 17415,11189 Z"/>
             <path fill="rgb(111,111,111)" stroke="none" d="M 17415,11189 L 18019,11189 18019,11782 17415,11782 17415,11189 Z M 17422,11196 L 18012,11196 18012,11775 17422,11775 17422,11196 Z"/>
             <path fill="rgb(112,112,112)" stroke="none" d="M 17422,11196 L 18012,11196 18012,11775 17422,11775 17422,11196 Z M 17430,11203 L 18004,11203 18004,11768 17430,11768 17430,11203 Z"/>
             <path fill="rgb(113,113,113)" stroke="none" d="M 17430,11203 L 18004,11203 18004,11768 17430,11768 17430,11203 Z M 17437,11210 L 17997,11210 17997,11761 17437,11761 17437,11210 Z"/>
             <path fill="rgb(114,114,114)" stroke="none" d="M 17437,11210 L 17997,11210 17997,11761 17437,11761 17437,11210 Z M 17444,11217 L 17990,11217 17990,11754 17444,11754 17444,11217 Z"/>
             <path fill="rgb(115,115,115)" stroke="none" d="M 17444,11217 L 17990,11217 17990,11754 17444,11754 17444,11217 Z M 17451,11224 L 17983,11224 17983,11747 17451,11747 17451,11224 Z"/>
             <path fill="rgb(116,116,116)" stroke="none" d="M 17451,11224 L 17983,11224 17983,11747 17451,11747 17451,11224 Z M 17458,11231 L 17976,11231 17976,11740 17458,11740 17458,11231 Z"/>
             <path fill="rgb(117,117,117)" stroke="none" d="M 17458,11231 L 17976,11231 17976,11740 17458,11740 17458,11231 Z M 17466,11238 L 17968,11238 17968,11733 17466,11733 17466,11238 Z"/>
             <path fill="rgb(118,118,118)" stroke="none" d="M 17466,11238 L 17968,11238 17968,11733 17466,11733 17466,11238 Z M 17473,11245 L 17961,11245 17961,11725 17473,11725 17473,11245 Z"/>
             <path fill="rgb(119,119,119)" stroke="none" d="M 17473,11245 L 17961,11245 17961,11725 17473,11725 17473,11245 Z M 17480,11253 L 17954,11253 17954,11718 17480,11718 17480,11253 Z"/>
             <path fill="rgb(120,120,120)" stroke="none" d="M 17480,11253 L 17954,11253 17954,11718 17480,11718 17480,11253 Z M 17487,11260 L 17947,11260 17947,11711 17487,11711 17487,11260 Z"/>
             <path fill="rgb(121,121,121)" stroke="none" d="M 17487,11260 L 17947,11260 17947,11711 17487,11711 17487,11260 Z M 17494,11267 L 17940,11267 17940,11704 17494,11704 17494,11267 Z"/>
             <path fill="rgb(122,122,122)" stroke="none" d="M 17494,11267 L 17940,11267 17940,11704 17494,11704 17494,11267 Z M 17502,11274 L 17932,11274 17932,11697 17502,11697 17502,11274 Z"/>
             <path fill="rgb(123,123,123)" stroke="none" d="M 17502,11274 L 17932,11274 17932,11697 17502,11697 17502,11274 Z M 17509,11281 L 17925,11281 17925,11690 17509,11690 17509,11281 Z"/>
             <path fill="rgb(124,124,124)" stroke="none" d="M 17509,11281 L 17925,11281 17925,11690 17509,11690 17509,11281 Z M 17516,11288 L 17918,11288 17918,11683 17516,11683 17516,11288 Z"/>
             <path fill="rgb(125,125,125)" stroke="none" d="M 17516,11288 L 17918,11288 17918,11683 17516,11683 17516,11288 Z M 17523,11295 L 17911,11295 17911,11676 17523,11676 17523,11295 Z"/>
             <path fill="rgb(126,126,126)" stroke="none" d="M 17523,11295 L 17911,11295 17911,11676 17523,11676 17523,11295 Z M 17530,11302 L 17904,11302 17904,11669 17530,11669 17530,11302 Z"/>
             <path fill="rgb(127,127,127)" stroke="none" d="M 17530,11302 L 17904,11302 17904,11669 17530,11669 17530,11302 Z M 17538,11309 L 17896,11309 17896,11662 17538,11662 17538,11309 Z"/>
             <path fill="rgb(128,128,128)" stroke="none" d="M 17538,11309 L 17896,11309 17896,11662 17538,11662 17538,11309 Z M 17545,11316 L 17889,11316 17889,11655 17545,11655 17545,11316 Z"/>
             <path fill="rgb(129,129,129)" stroke="none" d="M 17545,11316 L 17889,11316 17889,11655 17545,11655 17545,11316 Z M 17552,11323 L 17882,11323 17882,11648 17552,11648 17552,11323 Z"/>
             <path fill="rgb(130,130,130)" stroke="none" d="M 17552,11323 L 17882,11323 17882,11648 17552,11648 17552,11323 Z M 17559,11330 L 17875,11330 17875,11641 17559,11641 17559,11330 Z"/>
             <path fill="rgb(131,131,131)" stroke="none" d="M 17559,11330 L 17875,11330 17875,11641 17559,11641 17559,11330 Z M 17566,11337 L 17868,11337 17868,11634 17566,11634 17566,11337 Z"/>
             <path fill="rgb(132,132,132)" stroke="none" d="M 17566,11337 L 17868,11337 17868,11634 17566,11634 17566,11337 Z M 17574,11345 L 17860,11345 17860,11626 17574,11626 17574,11345 Z"/>
             <path fill="rgb(133,133,133)" stroke="none" d="M 17574,11345 L 17860,11345 17860,11626 17574,11626 17574,11345 Z M 17581,11352 L 17853,11352 17853,11619 17581,11619 17581,11352 Z"/>
             <path fill="rgb(134,134,134)" stroke="none" d="M 17581,11352 L 17853,11352 17853,11619 17581,11619 17581,11352 Z M 17588,11359 L 17846,11359 17846,11612 17588,11612 17588,11359 Z"/>
             <path fill="rgb(135,135,135)" stroke="none" d="M 17588,11359 L 17846,11359 17846,11612 17588,11612 17588,11359 Z M 17595,11366 L 17839,11366 17839,11605 17595,11605 17595,11366 Z"/>
             <path fill="rgb(136,136,136)" stroke="none" d="M 17595,11366 L 17839,11366 17839,11605 17595,11605 17595,11366 Z M 17602,11373 L 17832,11373 17832,11598 17602,11598 17602,11373 Z"/>
             <path fill="rgb(137,137,137)" stroke="none" d="M 17602,11373 L 17832,11373 17832,11598 17602,11598 17602,11373 Z M 17610,11380 L 17824,11380 17824,11591 17610,11591 17610,11380 Z"/>
             <path fill="rgb(138,138,138)" stroke="none" d="M 17610,11380 L 17824,11380 17824,11591 17610,11591 17610,11380 Z M 17617,11387 L 17817,11387 17817,11584 17617,11584 17617,11387 Z"/>
             <path fill="rgb(139,139,139)" stroke="none" d="M 17617,11387 L 17817,11387 17817,11584 17617,11584 17617,11387 Z M 17624,11394 L 17810,11394 17810,11577 17624,11577 17624,11394 Z"/>
             <path fill="rgb(140,140,140)" stroke="none" d="M 17624,11394 L 17810,11394 17810,11577 17624,11577 17624,11394 Z M 17631,11401 L 17803,11401 17803,11570 17631,11570 17631,11401 Z"/>
             <path fill="rgb(141,141,141)" stroke="none" d="M 17631,11401 L 17803,11401 17803,11570 17631,11570 17631,11401 Z M 17638,11408 L 17796,11408 17796,11563 17638,11563 17638,11408 Z"/>
             <path fill="rgb(142,142,142)" stroke="none" d="M 17638,11408 L 17796,11408 17796,11563 17638,11563 17638,11408 Z M 17646,11415 L 17788,11415 17788,11556 17646,11556 17646,11415 Z"/>
             <path fill="rgb(143,143,143)" stroke="none" d="M 17646,11415 L 17788,11415 17788,11556 17646,11556 17646,11415 Z M 17653,11422 L 17781,11422 17781,11549 17653,11549 17653,11422 Z"/>
             <path fill="rgb(144,144,144)" stroke="none" d="M 17653,11422 L 17781,11422 17781,11549 17653,11549 17653,11422 Z M 17660,11429 L 17774,11429 17774,11542 17660,11542 17660,11429 Z"/>
             <path fill="rgb(145,145,145)" stroke="none" d="M 17660,11429 L 17774,11429 17774,11542 17660,11542 17660,11429 Z M 17667,11436 L 17767,11436 17767,11535 17667,11535 17667,11436 Z"/>
             <path fill="rgb(146,146,146)" stroke="none" d="M 17667,11436 L 17767,11436 17767,11535 17667,11535 17667,11436 Z M 17674,11444 L 17760,11444 17760,11527 17674,11527 17674,11444 Z"/>
             <path fill="rgb(147,147,147)" stroke="none" d="M 17674,11444 L 17760,11444 17760,11527 17674,11527 17674,11444 Z M 17682,11451 L 17752,11451 17752,11520 17682,11520 17682,11451 Z"/>
             <path fill="rgb(148,148,148)" stroke="none" d="M 17682,11451 L 17752,11451 17752,11520 17682,11520 17682,11451 Z M 17689,11458 L 17745,11458 17745,11513 17689,11513 17689,11458 Z"/>
             <path fill="rgb(149,149,149)" stroke="none" d="M 17689,11458 L 17745,11458 17745,11513 17689,11513 17689,11458 Z M 17696,11465 L 17738,11465 17738,11506 17696,11506 17696,11465 Z"/>
             <path fill="rgb(150,150,150)" stroke="none" d="M 17696,11465 L 17738,11465 17738,11506 17696,11506 17696,11465 Z M 17703,11472 L 17731,11472 17731,11499 17703,11499 17703,11472 Z"/>
             <path fill="rgb(151,151,151)" stroke="none" d="M 17703,11472 L 17731,11472 17731,11499 17703,11499 17703,11472 Z M 17710,11479 L 17724,11479 17724,11492 17710,11492 17710,11479 Z"/>
             <path fill="rgb(153,153,153)" stroke="none" d="M 17710,11479 L 17724,11479 17724,11492 17710,11492 17710,11479 Z"/>
            </g>
           </pattern>
          </defs>
          <path style="fill:url(#pattern1)" d="M 17279,12495 L 17279,11902 18744,11055 18744,11648 17279,12495 Z"/>
         </g>
         <path fill="none" stroke="rgb(178,178,178)" stroke-width="40" stroke-linejoin="round" d="M 17279,12495 L 17279,11902 18744,11055 18744,11648 17279,12495 Z"/>
        </g>
       </g>
       <g class="com.sun.star.drawing.PolyPolygonShape">
        <g id="id5">
         <rect class="BoundingBox" stroke="none" fill="none" x="15061" y="9765" width="3704" height="2158"/>
         <g>
          <defs>
           <linearGradient id="gradient1" x1="16912" y1="9785" x2="16912" y2="11902" gradientUnits="userSpaceOnUse">
            <stop offset="0.1" style="stop-color:rgb(51,51,51)"/>
            <stop offset="1" style="stop-color:rgb(153,153,153)"/>
           </linearGradient>
          </defs>
          <path style="fill:url(#gradient1)" d="M 17279,11902 L 15081,10632 16546,9785 18744,11055 17279,11902 Z"/>
         </g>
         <path fill="none" stroke="rgb(178,178,178)" stroke-width="40" stroke-linejoin="round" d="M 17279,11902 L 15081,10632 16546,9785 18744,11055 17279,11902 Z"/>
        </g>
       </g>
       <g class="com.sun.star.drawing.PolyPolygonShape">
        <g id="id6">
         <rect class="BoundingBox" stroke="none" fill="none" x="15061" y="10612" width="2239" height="1904"/>
         <g>
          <defs>
           <linearGradient id="gradient2" x1="15081" y1="11563" x2="17280" y2="11563" gradientUnits="userSpaceOnUse">
            <stop offset="0.1" style="stop-color:rgb(51,51,51)"/>
            <stop offset="1" style="stop-color:rgb(153,153,153)"/>
           </linearGradient>
          </defs>
          <path style="fill:url(#gradient2)" d="M 15081,11225 L 15081,10632 17279,11902 17279,12495 15081,11225 Z"/>
         </g>
         <path fill="none" stroke="rgb(178,178,178)" stroke-width="40" stroke-linejoin="round" d="M 15081,11225 L 15081,10632 17279,11902 17279,12495 15081,11225 Z"/>
        </g>
       </g>
       <g class="com.sun.star.drawing.PolyPolygonShape">
        <g id="id7">
         <rect class="BoundingBox" stroke="none" fill="none" x="15061" y="9765" width="3704" height="2751"/>
         <path fill="none" stroke="rgb(0,0,0)" stroke-width="40" stroke-linejoin="round" d="M 15081,11225 L 15081,10632 16546,9785 18744,11055 18744,11648 17279,12495 15081,11225 Z"/>
        </g>
       </g>
       <g class="com.sun.star.drawing.PolyPolygonShape">
        <g id="id8">
         <rect class="BoundingBox" stroke="none" fill="none" x="16819" y="11798" width="188" height="380"/>
         <path fill="rgb(209,97,108)" stroke="none" d="M 16839,12072 L 16839,11818 16986,11903 16986,12157 16839,12072 Z"/>
         <path fill="none" stroke="rgb(102,102,102)" stroke-width="40" stroke-linejoin="round" d="M 16839,12072 L 16839,11818 16986,11903 16986,12157 16839,12072 Z"/>
        </g>
       </g>
       <g class="com.sun.star.drawing.PolyPolygonShape">
        <g id="id9">
         <rect class="BoundingBox" stroke="none" fill="none" x="16526" y="11628" width="188" height="380"/>
         <path fill="rgb(57,181,74)" stroke="none" d="M 16546,11902 L 16546,11648 16693,11733 16693,11987 16546,11902 Z"/>
         <path fill="none" stroke="rgb(102,102,102)" stroke-width="40" stroke-linejoin="round" d="M 16546,11902 L 16546,11648 16693,11733 16693,11987 16546,11902 Z"/>
        </g>
       </g>
       <g class="com.sun.star.drawing.LineShape">
        <g id="id10">
         <rect class="BoundingBox" stroke="none" fill="none" x="15208" y="10866" width="1213" height="719"/>
         <path fill="none" stroke="rgb(153,153,153)" stroke-width="40" stroke-linejoin="round" d="M 15228,10886 L 16400,11564"/>
        </g>
       </g>
       <g class="com.sun.star.drawing.LineShape">
        <g id="id11">
         <rect class="BoundingBox" stroke="none" fill="none" x="15208" y="10951" width="1213" height="719"/>
         <path fill="none" stroke="rgb(153,153,153)" stroke-width="40" stroke-linejoin="round" d="M 15228,10971 L 16400,11649"/>
        </g>
       </g>
       <g class="com.sun.star.drawing.LineShape">
        <g id="id12">
         <rect class="BoundingBox" stroke="none" fill="none" x="15208" y="11035" width="1213" height="719"/>
         <path fill="none" stroke="rgb(153,153,153)" stroke-width="40" stroke-linejoin="round" d="M 15228,11055 L 16400,11733"/>
        </g>
       </g>
       <g class="com.sun.star.drawing.LineShape">
        <g id="id13">
         <rect class="BoundingBox" stroke="none" fill="none" x="15208" y="11120" width="1213" height="719"/>
         <path fill="none" stroke="rgb(153,153,153)" stroke-width="40" stroke-linejoin="round" d="M 15228,11140 L 16400,11818"/>
        </g>
       </g>
      </g>
     </g>
    </g>
   </g>
  </g>
 </g>
</svg>