<?xml version="1.0" encoding="UTF-8"?>
<!DOCTYPE svg PUBLIC "-//W3C//DTD SVG 1.1//EN" "http://www.w3.org/Graphics/SVG/1.1/DTD/svg11.dtd">
<svg version="1.2" width="37.12mm" height="28.4mm" viewBox="16108 14141 3712 2840" preserveAspectRatio="xMidYMid" fill-rule="evenodd" stroke-width="28.222" stroke-linejoin="round" xmlns="http://www.w3.org/2000/svg" xmlns:ooo="http://xml.openoffice.org/svg/export" xmlns:xlink="http://www.w3.org/1999/xlink" xmlns:presentation="http://sun.com/xmlns/staroffice/presentation" xmlns:smil="http://www.w3.org/2001/SMIL20/" xmlns:anim="urn:oasis:names:tc:opendocument:xmlns:animation:1.0" xml:space="preserve">
 <defs class="ClipPathGroup">
  <clipPath id="presentation_clip_path" clipPathUnits="userSpaceOnUse">
   <rect x="16108" y="14141" width="3712" height="2840"/>
  </clipPath>
 </defs>
 <defs class="TextShapeIndex">
  <g ooo:slide="id1" ooo:id-list="id3 id4 id5 id6 id7 id8 id9 id10 id11"/>
 </defs>
 <defs class="EmbeddedBulletChars">
  <g id="bullet-char-template(57356)" transform="scale(0.00048828125,-0.00048828125)">
   <path d="M 580,1141 L 1163,571 580,0 -4,571 580,1141 Z"/>
  </g>
  <g id="bullet-char-template(57354)" transform="scale(0.00048828125,-0.00048828125)">
   <path d="M 8,1128 L 1137,1128 1137,0 8,0 8,1128 Z"/>
  </g>
  <g id="bullet-char-template(10146)" transform="scale(0.00048828125,-0.00048828125)">
   <path d="M 174,0 L 602,739 174,1481 1456,739 174,0 Z M 1358,739 L 309,1346 659,739 1358,739 Z"/>
  </g>
  <g id="bullet-char-template(10132)" transform="scale(0.00048828125,-0.00048828125)">
   <path d="M 2015,739 L 1276,0 717,0 1260,543 174,543 174,936 1260,936 717,1481 1274,1481 2015,739 Z"/>
  </g>
  <g id="bullet-char-template(10007)" transform="scale(0.00048828125,-0.00048828125)">
   <path d="M 0,-2 C -7,14 -16,27 -25,37 L 356,567 C 262,823 215,952 215,954 215,979 228,992 255,992 264,992 276,990 289,987 310,991 331,999 354,1012 L 381,999 492,748 772,1049 836,1024 860,1049 C 881,1039 901,1025 922,1006 886,937 835,863 770,784 769,783 710,716 594,584 L 774,223 C 774,196 753,168 711,139 L 727,119 C 717,90 699,76 672,76 641,76 570,178 457,381 L 164,-76 C 142,-110 111,-127 72,-127 30,-127 9,-110 8,-76 1,-67 -2,-52 -2,-32 -2,-23 -1,-13 0,-2 Z"/>
  </g>
  <g id="bullet-char-template(10004)" transform="scale(0.00048828125,-0.00048828125)">
   <path d="M 285,-33 C 182,-33 111,30 74,156 52,228 41,333 41,471 41,549 55,616 82,672 116,743 169,778 240,778 293,778 328,747 346,684 L 369,508 C 377,444 397,411 428,410 L 1163,1116 C 1174,1127 1196,1133 1229,1133 1271,1133 1292,1118 1292,1087 L 1292,965 C 1292,929 1282,901 1262,881 L 442,47 C 390,-6 338,-33 285,-33 Z"/>
  </g>
  <g id="bullet-char-template(9679)" transform="scale(0.00048828125,-0.00048828125)">
   <path d="M 813,0 C 632,0 489,54 383,161 276,268 223,411 223,592 223,773 276,916 383,1023 489,1130 632,1184 813,1184 992,1184 1136,1130 1245,1023 1353,916 1407,772 1407,592 1407,412 1353,268 1245,161 1136,54 992,0 813,0 Z"/>
  </g>
  <g id="bullet-char-template(8226)" transform="scale(0.00048828125,-0.00048828125)">
   <path d="M 346,457 C 273,457 209,483 155,535 101,586 74,649 74,723 74,796 101,859 155,911 209,963 273,989 346,989 419,989 480,963 531,910 582,859 608,796 608,723 608,648 583,586 532,535 482,483 420,457 346,457 Z"/>
  </g>
  <g id="bullet-char-template(8211)" transform="scale(0.00048828125,-0.00048828125)">
   <path d="M -4,459 L 1135,459 1135,606 -4,606 -4,459 Z"/>
  </g>
 </defs>
 <defs class="TextEmbeddedBitmaps"/>
 <g class="SlideGroup">
  <g>
   <g id="id1" class="Slide" clip-path="url(#presentation_clip_path)">
    <g class="Page">
     <g class="Group">
      <g class="com.sun.star.drawing.ClosedBezierShape">
       <g id="id3">
        <rect class="BoundingBox" stroke="none" fill="none" x="17928" y="15681" width="1893" height="1232"/>
        <path fill="rgb(221,221,221)" stroke="none" d="M 17948,16891 C 18423,16891 19646,16331 19767,16121 19888,15911 19646,15701 19525,15701 19525,16001 17948,16391 17948,16891 Z"/>
        <path fill="none" stroke="rgb(221,221,221)" stroke-width="40" stroke-linejoin="round" d="M 17948,16891 C 18423,16891 19646,16331 19767,16121 19888,15911 19646,15701 19525,15701 19525,16001 17948,16391 17948,16891 Z"/>
       </g>
      </g>
      <g class="Group">
       <g class="com.sun.star.drawing.PolyPolygonShape">
        <g id="id4">
         <rect class="BoundingBox" stroke="none" fill="none" x="17805" y="15121" width="1739" height="1861"/>
         <g>
          <defs>
           <pattern id="pattern1" x="17825" y="15141" width="1699" height="1821" patternUnits="userSpaceOnUse">
            <g transform="translate(-17825,-15141)">
             <path fill="rgb(0,115,188)" stroke="none" d="M 17824,15140 L 19524,15140 19524,16962 17824,16962 17824,15140 Z M 17491,14783 L 19177,14783 19177,16589 17491,16589 17491,14783 Z"/>
             <path fill="rgb(1,115,188)" stroke="none" d="M 17491,14783 L 19177,14783 19177,16589 17491,16589 17491,14783 Z M 17498,14790 L 19170,14790 19170,16582 17498,16582 17498,14790 Z"/>
             <path fill="rgb(2,116,188)" stroke="none" d="M 17498,14790 L 19170,14790 19170,16582 17498,16582 17498,14790 Z M 17505,14797 L 19163,14797 19163,16575 17505,16575 17505,14797 Z"/>
             <path fill="rgb(3,116,188)" stroke="none" d="M 17505,14797 L 19163,14797 19163,16575 17505,16575 17505,14797 Z M 17511,14804 L 19157,14804 19157,16568 17511,16568 17511,14804 Z"/>
             <path fill="rgb(4,117,189)" stroke="none" d="M 17511,14804 L 19157,14804 19157,16568 17511,16568 17511,14804 Z M 17518,14811 L 19150,14811 19150,16561 17518,16561 17518,14811 Z"/>
             <path fill="rgb(5,117,189)" stroke="none" d="M 17518,14811 L 19150,14811 19150,16561 17518,16561 17518,14811 Z M 17525,14819 L 19143,14819 19143,16553 17525,16553 17525,14819 Z"/>
             <path fill="rgb(6,118,189)" stroke="none" d="M 17525,14819 L 19143,14819 19143,16553 17525,16553 17525,14819 Z M 17531,14826 L 19137,14826 19137,16546 17531,16546 17531,14826 Z"/>
             <path fill="rgb(7,118,189)" stroke="none" d="M 17531,14826 L 19137,14826 19137,16546 17531,16546 17531,14826 Z M 17538,14833 L 19130,14833 19130,16539 17538,16539 17538,14833 Z"/>
             <path fill="rgb(8,119,190)" stroke="none" d="M 17538,14833 L 19130,14833 19130,16539 17538,16539 17538,14833 Z M 17545,14840 L 19123,14840 19123,16532 17545,16532 17545,14840 Z"/>
             <path fill="rgb(9,119,190)" stroke="none" d="M 17545,14840 L 19123,14840 19123,16532 17545,16532 17545,14840 Z M 17551,14847 L 19117,14847 19117,16525 17551,16525 17551,14847 Z"/>
             <path fill="rgb(10,120,190)" stroke="none" d="M 17551,14847 L 19117,14847 19117,16525 17551,16525 17551,14847 Z M 17558,14854 L 19110,14854 19110,16518 17558,16518 17558,14854 Z"/>
             <path fill="rgb(11,121,190)" stroke="none" d="M 17558,14854 L 19110,14854 19110,16518 17558,16518 17558,14854 Z M 17565,14862 L 19103,14862 19103,16510 17565,16510 17565,14862 Z"/>
             <path fill="rgb(12,121,191)" stroke="none" d="M 17565,14862 L 19103,14862 19103,16510 17565,16510 17565,14862 Z M 17572,14869 L 19096,14869 19096,16503 17572,16503 17572,14869 Z"/>
             <path fill="rgb(13,122,191)" stroke="none" d="M 17572,14869 L 19096,14869 19096,16503 17572,16503 17572,14869 Z M 17578,14876 L 19090,14876 19090,16496 17578,16496 17578,14876 Z"/>
             <path fill="rgb(14,122,191)" stroke="none" d="M 17578,14876 L 19090,14876 19090,16496 17578,16496 17578,14876 Z M 17585,14883 L 19083,14883 19083,16489 17585,16489 17585,14883 Z"/>
             <path fill="rgb(15,123,191)" stroke="none" d="M 17585,14883 L 19083,14883 19083,16489 17585,16489 17585,14883 Z M 17592,14890 L 19076,14890 19076,16482 17592,16482 17592,14890 Z"/>
             <path fill="rgb(16,123,192)" stroke="none" d="M 17592,14890 L 19076,14890 19076,16482 17592,16482 17592,14890 Z M 17598,14898 L 19070,14898 19070,16474 17598,16474 17598,14898 Z"/>
             <path fill="rgb(17,124,192)" stroke="none" d="M 17598,14898 L 19070,14898 19070,16474 17598,16474 17598,14898 Z M 17605,14905 L 19063,14905 19063,16467 17605,16467 17605,14905 Z"/>
             <path fill="rgb(18,124,192)" stroke="none" d="M 17605,14905 L 19063,14905 19063,16467 17605,16467 17605,14905 Z M 17612,14912 L 19056,14912 19056,16460 17612,16460 17612,14912 Z"/>
             <path fill="rgb(19,125,192)" stroke="none" d="M 17612,14912 L 19056,14912 19056,16460 17612,16460 17612,14912 Z M 17618,14919 L 19050,14919 19050,16453 17618,16453 17618,14919 Z"/>
             <path fill="rgb(20,126,193)" stroke="none" d="M 17618,14919 L 19050,14919 19050,16453 17618,16453 17618,14919 Z M 17625,14926 L 19043,14926 19043,16446 17625,16446 17625,14926 Z"/>
             <path fill="rgb(21,126,193)" stroke="none" d="M 17625,14926 L 19043,14926 19043,16446 17625,16446 17625,14926 Z M 17632,14933 L 19036,14933 19036,16439 17632,16439 17632,14933 Z"/>
             <path fill="rgb(22,127,193)" stroke="none" d="M 17632,14933 L 19036,14933 19036,16439 17632,16439 17632,14933 Z M 17639,14941 L 19029,14941 19029,16431 17639,16431 17639,14941 Z"/>
             <path fill="rgb(23,127,193)" stroke="none" d="M 17639,14941 L 19029,14941 19029,16431 17639,16431 17639,14941 Z M 17645,14948 L 19023,14948 19023,16424 17645,16424 17645,14948 Z"/>
             <path fill="rgb(24,128,194)" stroke="none" d="M 17645,14948 L 19023,14948 19023,16424 17645,16424 17645,14948 Z M 17652,14955 L 19016,14955 19016,16417 17652,16417 17652,14955 Z"/>
             <path fill="rgb(25,128,194)" stroke="none" d="M 17652,14955 L 19016,14955 19016,16417 17652,16417 17652,14955 Z M 17659,14962 L 19009,14962 19009,16410 17659,16410 17659,14962 Z"/>
             <path fill="rgb(26,129,194)" stroke="none" d="M 17659,14962 L 19009,14962 19009,16410 17659,16410 17659,14962 Z M 17665,14969 L 19003,14969 19003,16403 17665,16403 17665,14969 Z"/>
             <path fill="rgb(27,129,195)" stroke="none" d="M 17665,14969 L 19003,14969 19003,16403 17665,16403 17665,14969 Z M 17672,14976 L 18996,14976 18996,16396 17672,16396 17672,14976 Z"/>
             <path fill="rgb(28,130,195)" stroke="none" d="M 17672,14976 L 18996,14976 18996,16396 17672,16396 17672,14976 Z M 17679,14984 L 18989,14984 18989,16388 17679,16388 17679,14984 Z"/>
             <path fill="rgb(29,130,195)" stroke="none" d="M 17679,14984 L 18989,14984 18989,16388 17679,16388 17679,14984 Z M 17685,14991 L 18983,14991 18983,16381 17685,16381 17685,14991 Z"/>
             <path fill="rgb(30,131,195)" stroke="none" d="M 17685,14991 L 18983,14991 18983,16381 17685,16381 17685,14991 Z M 17692,14998 L 18976,14998 18976,16374 17692,16374 17692,14998 Z"/>
             <path fill="rgb(31,132,196)" stroke="none" d="M 17692,14998 L 18976,14998 18976,16374 17692,16374 17692,14998 Z M 17699,15005 L 18969,15005 18969,16367 17699,16367 17699,15005 Z"/>
             <path fill="rgb(32,132,196)" stroke="none" d="M 17699,15005 L 18969,15005 18969,16367 17699,16367 17699,15005 Z M 17705,15012 L 18963,15012 18963,16360 17705,16360 17705,15012 Z"/>
             <path fill="rgb(33,133,196)" stroke="none" d="M 17705,15012 L 18963,15012 18963,16360 17705,16360 17705,15012 Z M 17712,15020 L 18956,15020 18956,16352 17712,16352 17712,15020 Z"/>
             <path fill="rgb(34,133,196)" stroke="none" d="M 17712,15020 L 18956,15020 18956,16352 17712,16352 17712,15020 Z M 17719,15027 L 18949,15027 18949,16345 17719,16345 17719,15027 Z"/>
             <path fill="rgb(35,134,197)" stroke="none" d="M 17719,15027 L 18949,15027 18949,16345 17719,16345 17719,15027 Z M 17726,15034 L 18942,15034 18942,16338 17726,16338 17726,15034 Z"/>
             <path fill="rgb(36,134,197)" stroke="none" d="M 17726,15034 L 18942,15034 18942,16338 17726,16338 17726,15034 Z M 17732,15041 L 18936,15041 18936,16331 17732,16331 17732,15041 Z"/>
             <path fill="rgb(37,135,197)" stroke="none" d="M 17732,15041 L 18936,15041 18936,16331 17732,16331 17732,15041 Z M 17739,15048 L 18929,15048 18929,16324 17739,16324 17739,15048 Z"/>
             <path fill="rgb(38,135,197)" stroke="none" d="M 17739,15048 L 18929,15048 18929,16324 17739,16324 17739,15048 Z M 17746,15055 L 18922,15055 18922,16317 17746,16317 17746,15055 Z"/>
             <path fill="rgb(39,136,198)" stroke="none" d="M 17746,15055 L 18922,15055 18922,16317 17746,16317 17746,15055 Z M 17752,15063 L 18916,15063 18916,16309 17752,16309 17752,15063 Z"/>
             <path fill="rgb(40,137,198)" stroke="none" d="M 17752,15063 L 18916,15063 18916,16309 17752,16309 17752,15063 Z M 17759,15070 L 18909,15070 18909,16302 17759,16302 17759,15070 Z"/>
             <path fill="rgb(41,137,198)" stroke="none" d="M 17759,15070 L 18909,15070 18909,16302 17759,16302 17759,15070 Z M 17766,15077 L 18902,15077 18902,16295 17766,16295 17766,15077 Z"/>
             <path fill="rgb(42,138,198)" stroke="none" d="M 17766,15077 L 18902,15077 18902,16295 17766,16295 17766,15077 Z M 17772,15084 L 18896,15084 18896,16288 17772,16288 17772,15084 Z"/>
             <path fill="rgb(43,138,199)" stroke="none" d="M 17772,15084 L 18896,15084 18896,16288 17772,16288 17772,15084 Z M 17779,15091 L 18889,15091 18889,16281 17779,16281 17779,15091 Z"/>
             <path fill="rgb(44,139,199)" stroke="none" d="M 17779,15091 L 18889,15091 18889,16281 17779,16281 17779,15091 Z M 17786,15098 L 18882,15098 18882,16274 17786,16274 17786,15098 Z"/>
             <path fill="rgb(45,139,199)" stroke="none" d="M 17786,15098 L 18882,15098 18882,16274 17786,16274 17786,15098 Z M 17793,15106 L 18875,15106 18875,16266 17793,16266 17793,15106 Z"/>
             <path fill="rgb(46,140,199)" stroke="none" d="M 17793,15106 L 18875,15106 18875,16266 17793,16266 17793,15106 Z M 17799,15113 L 18869,15113 18869,16259 17799,16259 17799,15113 Z"/>
             <path fill="rgb(47,140,200)" stroke="none" d="M 17799,15113 L 18869,15113 18869,16259 17799,16259 17799,15113 Z M 17805,15120 L 18862,15120 18862,16252 17805,16252 17805,15120 Z"/>
             <path fill="rgb(48,141,200)" stroke="none" d="M 17805,15120 L 18862,15120 18862,16252 17805,16252 17805,15120 Z M 17812,15126 L 18855,15126 18855,16245 17812,16245 17812,15126 Z"/>
             <path fill="rgb(49,142,200)" stroke="none" d="M 17812,15126 L 18855,15126 18855,16245 17812,16245 17812,15126 Z M 17818,15133 L 18849,15133 18849,16238 17818,16238 17818,15133 Z"/>
             <path fill="rgb(50,142,200)" stroke="none" d="M 17818,15133 L 18849,15133 18849,16238 17818,16238 17818,15133 Z M 17825,15141 L 18842,15141 18842,16230 17825,16230 17825,15141 Z"/>
             <path fill="rgb(51,143,201)" stroke="none" d="M 17825,15141 L 18842,15141 18842,16230 17825,16230 17825,15141 Z M 17832,15148 L 18835,15148 18835,16223 17832,16223 17832,15148 Z"/>
             <path fill="rgb(52,143,201)" stroke="none" d="M 17832,15148 L 18835,15148 18835,16223 17832,16223 17832,15148 Z M 17838,15155 L 18829,15155 18829,16216 17838,16216 17838,15155 Z"/>
             <path fill="rgb(53,144,201)" stroke="none" d="M 17838,15155 L 18829,15155 18829,16216 17838,16216 17838,15155 Z M 17845,15162 L 18822,15162 18822,16209 17845,16209 17845,15162 Z"/>
             <path fill="rgb(54,144,202)" stroke="none" d="M 17845,15162 L 18822,15162 18822,16209 17845,16209 17845,15162 Z M 17852,15169 L 18815,15169 18815,16202 17852,16202 17852,15169 Z"/>
             <path fill="rgb(55,145,202)" stroke="none" d="M 17852,15169 L 18815,15169 18815,16202 17852,16202 17852,15169 Z M 17859,15176 L 18808,15176 18808,16195 17859,16195 17859,15176 Z"/>
             <path fill="rgb(56,145,202)" stroke="none" d="M 17859,15176 L 18808,15176 18808,16195 17859,16195 17859,15176 Z M 17865,15184 L 18802,15184 18802,16187 17865,16187 17865,15184 Z"/>
             <path fill="rgb(57,146,202)" stroke="none" d="M 17865,15184 L 18802,15184 18802,16187 17865,16187 17865,15184 Z M 17872,15191 L 18795,15191 18795,16180 17872,16180 17872,15191 Z"/>
             <path fill="rgb(58,146,203)" stroke="none" d="M 17872,15191 L 18795,15191 18795,16180 17872,16180 17872,15191 Z M 17879,15198 L 18788,15198 18788,16173 17879,16173 17879,15198 Z"/>
             <path fill="rgb(59,147,203)" stroke="none" d="M 17879,15198 L 18788,15198 18788,16173 17879,16173 17879,15198 Z M 17885,15205 L 18782,15205 18782,16166 17885,16166 17885,15205 Z"/>
             <path fill="rgb(60,148,203)" stroke="none" d="M 17885,15205 L 18782,15205 18782,16166 17885,16166 17885,15205 Z M 17892,15212 L 18775,15212 18775,16159 17892,16159 17892,15212 Z"/>
             <path fill="rgb(61,148,203)" stroke="none" d="M 17892,15212 L 18775,15212 18775,16159 17892,16159 17892,15212 Z M 17899,15219 L 18768,15219 18768,16152 17899,16152 17899,15219 Z"/>
             <path fill="rgb(62,149,204)" stroke="none" d="M 17899,15219 L 18768,15219 18768,16152 17899,16152 17899,15219 Z M 17905,15227 L 18762,15227 18762,16144 17905,16144 17905,15227 Z"/>
             <path fill="rgb(63,149,204)" stroke="none" d="M 17905,15227 L 18762,15227 18762,16144 17905,16144 17905,15227 Z M 17912,15234 L 18755,15234 18755,16137 17912,16137 17912,15234 Z"/>
             <path fill="rgb(64,150,204)" stroke="none" d="M 17912,15234 L 18755,15234 18755,16137 17912,16137 17912,15234 Z M 17919,15241 L 18748,15241 18748,16130 17919,16130 17919,15241 Z"/>
             <path fill="rgb(65,150,204)" stroke="none" d="M 17919,15241 L 18748,15241 18748,16130 17919,16130 17919,15241 Z M 17925,15248 L 18742,15248 18742,16123 17925,16123 17925,15248 Z"/>
             <path fill="rgb(66,151,205)" stroke="none" d="M 17925,15248 L 18742,15248 18742,16123 17925,16123 17925,15248 Z M 17932,15255 L 18735,15255 18735,16116 17932,16116 17932,15255 Z"/>
             <path fill="rgb(67,151,205)" stroke="none" d="M 17932,15255 L 18735,15255 18735,16116 17932,16116 17932,15255 Z M 17939,15263 L 18728,15263 18728,16108 17939,16108 17939,15263 Z"/>
             <path fill="rgb(68,152,205)" stroke="none" d="M 17939,15263 L 18728,15263 18728,16108 17939,16108 17939,15263 Z M 17946,15270 L 18721,15270 18721,16101 17946,16101 17946,15270 Z"/>
             <path fill="rgb(69,153,205)" stroke="none" d="M 17946,15270 L 18721,15270 18721,16101 17946,16101 17946,15270 Z M 17952,15277 L 18715,15277 18715,16094 17952,16094 17952,15277 Z"/>
             <path fill="rgb(70,153,206)" stroke="none" d="M 17952,15277 L 18715,15277 18715,16094 17952,16094 17952,15277 Z M 17959,15284 L 18708,15284 18708,16087 17959,16087 17959,15284 Z"/>
             <path fill="rgb(71,154,206)" stroke="none" d="M 17959,15284 L 18708,15284 18708,16087 17959,16087 17959,15284 Z M 17966,15291 L 18701,15291 18701,16080 17966,16080 17966,15291 Z"/>
             <path fill="rgb(72,154,206)" stroke="none" d="M 17966,15291 L 18701,15291 18701,16080 17966,16080 17966,15291 Z M 17972,15298 L 18695,15298 18695,16073 17972,16073 17972,15298 Z"/>
             <path fill="rgb(73,155,206)" stroke="none" d="M 17972,15298 L 18695,15298 18695,16073 17972,16073 17972,15298 Z M 17979,15306 L 18688,15306 18688,16065 17979,16065 17979,15306 Z"/>
             <path fill="rgb(74,155,207)" stroke="none" d="M 17979,15306 L 18688,15306 18688,16065 17979,16065 17979,15306 Z M 17986,15313 L 18681,15313 18681,16058 17986,16058 17986,15313 Z"/>
             <path fill="rgb(75,156,207)" stroke="none" d="M 17986,15313 L 18681,15313 18681,16058 17986,16058 17986,15313 Z M 17992,15320 L 18675,15320 18675,16051 17992,16051 17992,15320 Z"/>
             <path fill="rgb(76,156,207)" stroke="none" d="M 17992,15320 L 18675,15320 18675,16051 17992,16051 17992,15320 Z M 17999,15327 L 18668,15327 18668,16044 17999,16044 17999,15327 Z"/>
             <path fill="rgb(77,157,208)" stroke="none" d="M 17999,15327 L 18668,15327 18668,16044 17999,16044 17999,15327 Z M 18006,15334 L 18661,15334 18661,16037 18006,16037 18006,15334 Z"/>
             <path fill="rgb(78,157,208)" stroke="none" d="M 18006,15334 L 18661,15334 18661,16037 18006,16037 18006,15334 Z M 18013,15341 L 18654,15341 18654,16030 18013,16030 18013,15341 Z"/>
             <path fill="rgb(79,158,208)" stroke="none" d="M 18013,15341 L 18654,15341 18654,16030 18013,16030 18013,15341 Z M 18019,15349 L 18648,15349 18648,16022 18019,16022 18019,15349 Z"/>
             <path fill="rgb(80,159,208)" stroke="none" d="M 18019,15349 L 18648,15349 18648,16022 18019,16022 18019,15349 Z M 18026,15356 L 18641,15356 18641,16015 18026,16015 18026,15356 Z"/>
             <path fill="rgb(81,159,209)" stroke="none" d="M 18026,15356 L 18641,15356 18641,16015 18026,16015 18026,15356 Z M 18033,15363 L 18634,15363 18634,16008 18033,16008 18033,15363 Z"/>
             <path fill="rgb(82,160,209)" stroke="none" d="M 18033,15363 L 18634,15363 18634,16008 18033,16008 18033,15363 Z M 18039,15370 L 18628,15370 18628,16001 18039,16001 18039,15370 Z"/>
             <path fill="rgb(83,160,209)" stroke="none" d="M 18039,15370 L 18628,15370 18628,16001 18039,16001 18039,15370 Z M 18046,15377 L 18621,15377 18621,15994 18046,15994 18046,15377 Z"/>
             <path fill="rgb(84,161,209)" stroke="none" d="M 18046,15377 L 18621,15377 18621,15994 18046,15994 18046,15377 Z M 18053,15385 L 18614,15385 18614,15986 18053,15986 18053,15385 Z"/>
             <path fill="rgb(85,161,210)" stroke="none" d="M 18053,15385 L 18614,15385 18614,15986 18053,15986 18053,15385 Z M 18059,15392 L 18608,15392 18608,15979 18059,15979 18059,15392 Z"/>
             <path fill="rgb(86,162,210)" stroke="none" d="M 18059,15392 L 18608,15392 18608,15979 18059,15979 18059,15392 Z M 18066,15399 L 18601,15399 18601,15972 18066,15972 18066,15399 Z"/>
             <path fill="rgb(87,162,210)" stroke="none" d="M 18066,15399 L 18601,15399 18601,15972 18066,15972 18066,15399 Z M 18073,15406 L 18594,15406 18594,15965 18073,15965 18073,15406 Z"/>
             <path fill="rgb(88,163,210)" stroke="none" d="M 18073,15406 L 18594,15406 18594,15965 18073,15965 18073,15406 Z M 18080,15413 L 18587,15413 18587,15958 18080,15958 18080,15413 Z"/>
             <path fill="rgb(89,164,211)" stroke="none" d="M 18080,15413 L 18587,15413 18587,15958 18080,15958 18080,15413 Z M 18086,15420 L 18581,15420 18581,15951 18086,15951 18086,15420 Z"/>
             <path fill="rgb(90,164,211)" stroke="none" d="M 18086,15420 L 18581,15420 18581,15951 18086,15951 18086,15420 Z M 18093,15428 L 18574,15428 18574,15943 18093,15943 18093,15428 Z"/>
             <path fill="rgb(91,165,211)" stroke="none" d="M 18093,15428 L 18574,15428 18574,15943 18093,15943 18093,15428 Z M 18100,15435 L 18567,15435 18567,15936 18100,15936 18100,15435 Z"/>
             <path fill="rgb(92,165,211)" stroke="none" d="M 18100,15435 L 18567,15435 18567,15936 18100,15936 18100,15435 Z M 18106,15442 L 18561,15442 18561,15929 18106,15929 18106,15442 Z"/>
             <path fill="rgb(93,166,212)" stroke="none" d="M 18106,15442 L 18561,15442 18561,15929 18106,15929 18106,15442 Z M 18113,15449 L 18554,15449 18554,15922 18113,15922 18113,15449 Z"/>
             <path fill="rgb(94,166,212)" stroke="none" d="M 18113,15449 L 18554,15449 18554,15922 18113,15922 18113,15449 Z M 18120,15456 L 18547,15456 18547,15915 18120,15915 18120,15456 Z"/>
             <path fill="rgb(95,167,212)" stroke="none" d="M 18120,15456 L 18547,15456 18547,15915 18120,15915 18120,15456 Z M 18126,15464 L 18541,15464 18541,15907 18126,15907 18126,15464 Z"/>
             <path fill="rgb(96,167,212)" stroke="none" d="M 18126,15464 L 18541,15464 18541,15907 18126,15907 18126,15464 Z M 18133,15471 L 18534,15471 18534,15900 18133,15900 18133,15471 Z"/>
             <path fill="rgb(97,168,213)" stroke="none" d="M 18133,15471 L 18534,15471 18534,15900 18133,15900 18133,15471 Z M 18140,15478 L 18527,15478 18527,15893 18140,15893 18140,15478 Z"/>
             <path fill="rgb(98,169,213)" stroke="none" d="M 18140,15478 L 18527,15478 18527,15893 18140,15893 18140,15478 Z M 18146,15485 L 18521,15485 18521,15886 18146,15886 18146,15485 Z"/>
             <path fill="rgb(99,169,213)" stroke="none" d="M 18146,15485 L 18521,15485 18521,15886 18146,15886 18146,15485 Z M 18153,15492 L 18514,15492 18514,15879 18153,15879 18153,15492 Z"/>
             <path fill="rgb(100,170,213)" stroke="none" d="M 18153,15492 L 18514,15492 18514,15879 18153,15879 18153,15492 Z M 18160,15499 L 18507,15499 18507,15872 18160,15872 18160,15499 Z"/>
             <path fill="rgb(101,170,214)" stroke="none" d="M 18160,15499 L 18507,15499 18507,15872 18160,15872 18160,15499 Z M 18167,15507 L 18500,15507 18500,15864 18167,15864 18167,15507 Z"/>
             <path fill="rgb(102,171,214)" stroke="none" d="M 18167,15507 L 18500,15507 18500,15864 18167,15864 18167,15507 Z M 18173,15514 L 18494,15514 18494,15857 18173,15857 18173,15514 Z"/>
             <path fill="rgb(103,171,214)" stroke="none" d="M 18173,15514 L 18494,15514 18494,15857 18173,15857 18173,15514 Z M 18180,15521 L 18487,15521 18487,15850 18180,15850 18180,15521 Z"/>
             <path fill="rgb(104,172,215)" stroke="none" d="M 18180,15521 L 18487,15521 18487,15850 18180,15850 18180,15521 Z M 18187,15528 L 18480,15528 18480,15843 18187,15843 18187,15528 Z"/>
             <path fill="rgb(105,172,215)" stroke="none" d="M 18187,15528 L 18480,15528 18480,15843 18187,15843 18187,15528 Z M 18193,15535 L 18474,15535 18474,15836 18193,15836 18193,15535 Z"/>
             <path fill="rgb(106,173,215)" stroke="none" d="M 18193,15535 L 18474,15535 18474,15836 18193,15836 18193,15535 Z M 18200,15542 L 18467,15542 18467,15829 18200,15829 18200,15542 Z"/>
             <path fill="rgb(107,173,215)" stroke="none" d="M 18200,15542 L 18467,15542 18467,15829 18200,15829 18200,15542 Z M 18207,15550 L 18460,15550 18460,15821 18207,15821 18207,15550 Z"/>
             <path fill="rgb(108,174,216)" stroke="none" d="M 18207,15550 L 18460,15550 18460,15821 18207,15821 18207,15550 Z M 18213,15557 L 18454,15557 18454,15814 18213,15814 18213,15557 Z"/>
             <path fill="rgb(109,175,216)" stroke="none" d="M 18213,15557 L 18454,15557 18454,15814 18213,15814 18213,15557 Z M 18220,15564 L 18447,15564 18447,15807 18220,15807 18220,15564 Z"/>
             <path fill="rgb(110,175,216)" stroke="none" d="M 18220,15564 L 18447,15564 18447,15807 18220,15807 18220,15564 Z M 18227,15571 L 18440,15571 18440,15800 18227,15800 18227,15571 Z"/>
             <path fill="rgb(111,176,216)" stroke="none" d="M 18227,15571 L 18440,15571 18440,15800 18227,15800 18227,15571 Z M 18234,15578 L 18433,15578 18433,15793 18234,15793 18234,15578 Z"/>
             <path fill="rgb(112,176,217)" stroke="none" d="M 18234,15578 L 18433,15578 18433,15793 18234,15793 18234,15578 Z M 18240,15586 L 18427,15586 18427,15785 18240,15785 18240,15586 Z"/>
             <path fill="rgb(113,177,217)" stroke="none" d="M 18240,15586 L 18427,15586 18427,15785 18240,15785 18240,15586 Z M 18247,15593 L 18420,15593 18420,15778 18247,15778 18247,15593 Z"/>
             <path fill="rgb(114,177,217)" stroke="none" d="M 18247,15593 L 18420,15593 18420,15778 18247,15778 18247,15593 Z M 18254,15600 L 18413,15600 18413,15771 18254,15771 18254,15600 Z"/>
             <path fill="rgb(115,178,217)" stroke="none" d="M 18254,15600 L 18413,15600 18413,15771 18254,15771 18254,15600 Z M 18260,15607 L 18407,15607 18407,15764 18260,15764 18260,15607 Z"/>
             <path fill="rgb(116,178,218)" stroke="none" d="M 18260,15607 L 18407,15607 18407,15764 18260,15764 18260,15607 Z M 18267,15614 L 18400,15614 18400,15757 18267,15757 18267,15614 Z"/>
             <path fill="rgb(117,179,218)" stroke="none" d="M 18267,15614 L 18400,15614 18400,15757 18267,15757 18267,15614 Z M 18274,15621 L 18393,15621 18393,15750 18274,15750 18274,15621 Z"/>
             <path fill="rgb(118,180,218)" stroke="none" d="M 18274,15621 L 18393,15621 18393,15750 18274,15750 18274,15621 Z M 18280,15629 L 18387,15629 18387,15742 18280,15742 18280,15629 Z"/>
             <path fill="rgb(119,180,218)" stroke="none" d="M 18280,15629 L 18387,15629 18387,15742 18280,15742 18280,15629 Z M 18287,15636 L 18380,15636 18380,15735 18287,15735 18287,15636 Z"/>
             <path fill="rgb(120,181,219)" stroke="none" d="M 18287,15636 L 18380,15636 18380,15735 18287,15735 18287,15636 Z M 18294,15643 L 18373,15643 18373,15728 18294,15728 18294,15643 Z"/>
             <path fill="rgb(121,181,219)" stroke="none" d="M 18294,15643 L 18373,15643 18373,15728 18294,15728 18294,15643 Z M 18301,15650 L 18366,15650 18366,15721 18301,15721 18301,15650 Z"/>
             <path fill="rgb(122,182,219)" stroke="none" d="M 18301,15650 L 18366,15650 18366,15721 18301,15721 18301,15650 Z M 18307,15657 L 18360,15657 18360,15714 18307,15714 18307,15657 Z"/>
             <path fill="rgb(123,182,219)" stroke="none" d="M 18307,15657 L 18360,15657 18360,15714 18307,15714 18307,15657 Z M 18314,15664 L 18353,15664 18353,15707 18314,15707 18314,15664 Z"/>
             <path fill="rgb(124,183,220)" stroke="none" d="M 18314,15664 L 18353,15664 18353,15707 18314,15707 18314,15664 Z M 18321,15672 L 18346,15672 18346,15699 18321,15699 18321,15672 Z"/>
             <path fill="rgb(125,183,220)" stroke="none" d="M 18321,15672 L 18346,15672 18346,15699 18321,15699 18321,15672 Z M 18327,15679 L 18340,15679 18340,15692 18327,15692 18327,15679 Z"/>
             <path fill="rgb(127,185,221)" stroke="none" d="M 18327,15679 L 18340,15679 18340,15692 18327,15692 18327,15679 Z"/>
            </g>
           </pattern>
          </defs>
          <path style="fill:url(#pattern1)" d="M 19523,15981 L 19523,15141 17825,16121 17825,16961 19523,15981 Z"/>
         </g>
         <path fill="none" stroke="rgb(255,255,255)" stroke-width="40" stroke-linejoin="round" d="M 19523,15981 L 19523,15141 17825,16121 17825,16961 19523,15981 Z"/>
        </g>
       </g>
       <g class="com.sun.star.drawing.PolyPolygonShape">
        <g id="id5">
         <rect class="BoundingBox" stroke="none" fill="none" x="16108" y="15121" width="1738" height="1861"/>
         <g>
          <defs>
           <linearGradient id="gradient1" x1="16127" y1="16051" x2="17825" y2="16051" gradientUnits="userSpaceOnUse">
            <stop offset="0.1" style="stop-color:rgb(0,115,188)"/>
            <stop offset="1" style="stop-color:rgb(127,185,221)"/>
           </linearGradient>
          </defs>
          <path style="fill:url(#gradient1)" d="M 17825,16961 L 17825,16121 16128,15141 16128,15981 17825,16961 Z"/>
         </g>
         <path fill="none" stroke="rgb(255,255,255)" stroke-width="40" stroke-linejoin="round" d="M 17825,16961 L 17825,16121 16128,15141 16128,15981 17825,16961 Z"/>
        </g>
       </g>
       <g class="com.sun.star.drawing.PolyPolygonShape">
        <g id="id6">
         <rect class="BoundingBox" stroke="none" fill="none" x="16108" y="14141" width="3436" height="2002"/>
         <g>
          <defs>
           <linearGradient id="gradient2" x1="17825" y1="14161" x2="17825" y2="16121" gradientUnits="userSpaceOnUse">
            <stop offset="0.1" style="stop-color:rgb(0,115,188)"/>
            <stop offset="1" style="stop-color:rgb(127,185,221)"/>
           </linearGradient>
          </defs>
          <path style="fill:url(#gradient2)" d="M 17825,16121 L 19523,15141 17825,14161 16128,15141 17825,16121 Z"/>
         </g>
         <path fill="none" stroke="rgb(255,255,255)" stroke-width="40" stroke-linejoin="round" d="M 17825,16121 L 19523,15141 17825,14161 16128,15141 17825,16121 Z"/>
        </g>
       </g>
       <g class="com.sun.star.drawing.PolyPolygonShape">
        <g id="id7">
         <rect class="BoundingBox" stroke="none" fill="none" x="16108" y="14141" width="3436" height="2841"/>
         <path fill="none" stroke="rgb(0,0,0)" stroke-width="40" stroke-linejoin="round" d="M 19523,15981 L 19523,15141 17825,14161 16128,15141 16128,15981 17825,16961 19523,15981 Z"/>
        </g>
       </g>
       <g class="com.sun.star.drawing.PolyPolygonShape">
        <g id="id8">
         <rect class="BoundingBox" stroke="none" fill="none" x="16957" y="15050" width="1011" height="602"/>
         <path fill="rgb(255,255,255)" stroke="none" d="M 17826,15491 L 17098,15071 16977,15141 17705,15561 17584,15631 17947,15631 17947,15421 17826,15491 Z"/>
         <path fill="none" stroke="rgb(255,255,255)" stroke-width="40" stroke-linejoin="round" d="M 17826,15491 L 17098,15071 16977,15141 17705,15561 17584,15631 17947,15631 17947,15421 17826,15491 Z"/>
        </g>
       </g>
       <g class="com.sun.star.drawing.PolyPolygonShape">
        <g id="id9">
         <rect class="BoundingBox" stroke="none" fill="none" x="17684" y="14630" width="1011" height="602"/>
         <path fill="rgb(255,255,255)" stroke="none" d="M 17948,14721 L 18069,14651 17705,14651 17705,14861 17826,14791 18553,15211 18674,15141 17948,14721 Z"/>
         <path fill="none" stroke="rgb(255,255,255)" stroke-width="40" stroke-linejoin="round" d="M 17948,14721 L 18069,14651 17705,14651 17705,14861 17826,14791 18553,15211 18674,15141 17948,14721 Z"/>
        </g>
       </g>
       <g class="com.sun.star.drawing.ClosedBezierShape">
        <g id="id10">
         <rect class="BoundingBox" stroke="none" fill="none" x="18775" y="15514" width="526" height="656"/>
         <g>
          <defs>
           <linearGradient id="gradient3" x1="18794" y1="15841" x2="19281" y2="15841" gradientUnits="userSpaceOnUse">
            <stop offset="0.1" style="stop-color:rgb(0,115,188)"/>
            <stop offset="1" style="stop-color:rgb(127,185,221)"/>
           </linearGradient>
          </defs>
          <path style="fill:url(#gradient3)" d="M 19038,15561 L 19015,15576 18993,15594 18971,15614 18949,15637 18928,15662 18908,15688 18871,15745 18840,15806 18827,15836 18816,15867 18807,15897 18800,15926 18796,15954 18795,15981 18796,16007 18800,16031 18807,16052 18816,16072 18827,16090 18840,16106 18855,16119 18871,16130 18889,16139 18908,16145 18928,16148 18949,16149 18971,16147 18993,16141 19015,16133 19038,16121 19061,16107 19083,16089 19105,16069 19127,16046 19148,16021 19168,15995 19204,15938 19235,15877 19248,15847 19259,15816 19268,15786 19275,15757 19279,15728 19280,15701 19279,15676 19275,15652 19268,15631 19259,15611 19248,15593 19235,15577 19221,15564 19204,15553 19187,15544 19168,15538 19148,15535 19127,15534 19105,15536 19083,15542 19061,15550 19038,15561 Z"/>
         </g>
         <path fill="none" stroke="rgb(255,255,255)" stroke-width="40" stroke-linejoin="round" d="M 19038,15561 C 18917,15631 18795,15841 18795,15981 18795,16121 18917,16191 19038,16121 19159,16051 19280,15841 19280,15701 19280,15561 19159,15491 19038,15561 Z"/>
        </g>
       </g>
       <g class="com.sun.star.drawing.ClosedBezierShape">
        <g id="id11">
         <rect class="BoundingBox" stroke="none" fill="none" x="18048" y="15934" width="526" height="656"/>
         <g>
          <defs>
           <linearGradient id="gradient4" x1="18067" y1="16261" x2="18554" y2="16261" gradientUnits="userSpaceOnUse">
            <stop offset="0.1" style="stop-color:rgb(0,115,188)"/>
            <stop offset="1" style="stop-color:rgb(127,185,221)"/>
           </linearGradient>
          </defs>
          <path style="fill:url(#gradient4)" d="M 18310,15981 L 18287,15996 18265,16014 18243,16034 18221,16057 18200,16082 18180,16108 18144,16165 18113,16226 18100,16256 18089,16287 18080,16317 18073,16346 18069,16374 18068,16401 18069,16427 18073,16451 18080,16472 18089,16492 18100,16510 18113,16526 18127,16539 18144,16550 18161,16559 18180,16565 18200,16568 18221,16569 18243,16567 18265,16561 18287,16553 18310,16541 18333,16527 18355,16509 18377,16489 18399,16466 18420,16441 18440,16415 18477,16358 18508,16297 18521,16267 18532,16236 18541,16206 18548,16177 18552,16148 18553,16121 18552,16096 18548,16072 18541,16051 18532,16031 18521,16013 18508,15997 18493,15984 18477,15973 18459,15964 18440,15958 18420,15955 18399,15954 18377,15956 18355,15962 18333,15970 18310,15981 Z"/>
         </g>
         <path fill="none" stroke="rgb(255,255,255)" stroke-width="40" stroke-linejoin="round" d="M 18310,15981 C 18189,16051 18068,16261 18068,16401 18068,16541 18189,16611 18310,16541 18431,16471 18553,16261 18553,16121 18553,15981 18431,15911 18310,15981 Z"/>
        </g>
       </g>
      </g>
     </g>
    </g>
   </g>
  </g>
 </g>
</svg>