<?xml version="1.0" encoding="UTF-8"?>
<!DOCTYPE svg PUBLIC "-//W3C//DTD SVG 1.1//EN" "http://www.w3.org/Graphics/SVG/1.1/DTD/svg11.dtd">
<svg version="1.2" width="20.64mm" height="47.3mm" viewBox="16470 18836 2064 4730" preserveAspectRatio="xMidYMid" fill-rule="evenodd" stroke-width="28.222" stroke-linejoin="round" xmlns="http://www.w3.org/2000/svg" xmlns:ooo="http://xml.openoffice.org/svg/export" xmlns:xlink="http://www.w3.org/1999/xlink" xmlns:presentation="http://sun.com/xmlns/staroffice/presentation" xmlns:smil="http://www.w3.org/2001/SMIL20/" xmlns:anim="urn:oasis:names:tc:opendocument:xmlns:animation:1.0" xml:space="preserve">
 <defs class="ClipPathGroup">
  <clipPath id="presentation_clip_path" clipPathUnits="userSpaceOnUse">
   <rect x="16470" y="18836" width="2064" height="4730"/>
  </clipPath>
 </defs>
 <defs class="TextShapeIndex">
  <g ooo:slide="id1" ooo:id-list="id3 id4 id5 id6 id7 id8 id9"/>
 </defs>
 <defs class="EmbeddedBulletChars">
  <g id="bullet-char-template(57356)" transform="scale(0.00048828125,-0.00048828125)">
   <path d="M 580,1141 L 1163,571 580,0 -4,571 580,1141 Z"/>
  </g>
  <g id="bullet-char-template(57354)" transform="scale(0.00048828125,-0.00048828125)">
   <path d="M 8,1128 L 1137,1128 1137,0 8,0 8,1128 Z"/>
  </g>
  <g id="bullet-char-template(10146)" transform="scale(0.00048828125,-0.00048828125)">
   <path d="M 174,0 L 602,739 174,1481 1456,739 174,0 Z M 1358,739 L 309,1346 659,739 1358,739 Z"/>
  </g>
  <g id="bullet-char-template(10132)" transform="scale(0.00048828125,-0.00048828125)">
   <path d="M 2015,739 L 1276,0 717,0 1260,543 174,543 174,936 1260,936 717,1481 1274,1481 2015,739 Z"/>
  </g>
  <g id="bullet-char-template(10007)" transform="scale(0.00048828125,-0.00048828125)">
   <path d="M 0,-2 C -7,14 -16,27 -25,37 L 356,567 C 262,823 215,952 215,954 215,979 228,992 255,992 264,992 276,990 289,987 310,991 331,999 354,1012 L 381,999 492,748 772,1049 836,1024 860,1049 C 881,1039 901,1025 922,1006 886,937 835,863 770,784 769,783 710,716 594,584 L 774,223 C 774,196 753,168 711,139 L 727,119 C 717,90 699,76 672,76 641,76 570,178 457,381 L 164,-76 C 142,-110 111,-127 72,-127 30,-127 9,-110 8,-76 1,-67 -2,-52 -2,-32 -2,-23 -1,-13 0,-2 Z"/>
  </g>
  <g id="bullet-char-template(10004)" transform="scale(0.00048828125,-0.00048828125)">
   <path d="M 285,-33 C 182,-33 111,30 74,156 52,228 41,333 41,471 41,549 55,616 82,672 116,743 169,778 240,778 293,778 328,747 346,684 L 369,508 C 377,444 397,411 428,410 L 1163,1116 C 1174,1127 1196,1133 1229,1133 1271,1133 1292,1118 1292,1087 L 1292,965 C 1292,929 1282,901 1262,881 L 442,47 C 390,-6 338,-33 285,-33 Z"/>
  </g>
  <g id="bullet-char-template(9679)" transform="scale(0.00048828125,-0.00048828125)">
   <path d="M 813,0 C 632,0 489,54 383,161 276,268 223,411 223,592 223,773 276,916 383,1023 489,1130 632,1184 813,1184 992,1184 1136,1130 1245,1023 1353,916 1407,772 1407,592 1407,412 1353,268 1245,161 1136,54 992,0 813,0 Z"/>
  </g>
  <g id="bullet-char-template(8226)" transform="scale(0.00048828125,-0.00048828125)">
   <path d="M 346,457 C 273,457 209,483 155,535 101,586 74,649 74,723 74,796 101,859 155,911 209,963 273,989 346,989 419,989 480,963 531,910 582,859 608,796 608,723 608,648 583,586 532,535 482,483 420,457 346,457 Z"/>
  </g>
  <g id="bullet-char-template(8211)" transform="scale(0.00048828125,-0.00048828125)">
   <path d="M -4,459 L 1135,459 1135,606 -4,606 -4,459 Z"/>
  </g>
 </defs>
 <defs class="TextEmbeddedBitmaps"/>
 <g class="SlideGroup">
  <g>
   <g id="id1" class="Slide" clip-path="url(#presentation_clip_path)">
    <g class="Page">
     <g class="Group">
      <g class="com.sun.star.drawing.ClosedBezierShape">
       <g id="id3">
        <rect class="BoundingBox" stroke="none" fill="none" x="16867" y="22425" width="1668" height="1122"/>
        <path fill="rgb(221,221,221)" stroke="none" d="M 16868,23545 C 17249,23545 17946,23289 18309,23056 18672,22823 18568,22426 18187,22426 18187,22426 16854,23546 16868,23545 Z"/>
        <path fill="none" stroke="rgb(221,221,221)" d="M 16868,23545 C 17249,23545 17946,23289 18309,23056 18672,22823 18568,22426 18187,22426 18187,22426 16854,23546 16868,23545 Z"/>
       </g>
      </g>
      <g class="Group">
       <g class="com.sun.star.drawing.PolyPolygonShape">
        <g id="id4">
         <rect class="BoundingBox" stroke="none" fill="none" x="16834" y="20376" width="1374" height="3191"/>
         <g>
          <defs>
           <pattern id="pattern1" x="16854" y="20396" width="1334" height="3151" patternUnits="userSpaceOnUse">
            <g transform="translate(-16854,-20396)">
             <path fill="rgb(51,51,51)" stroke="none" d="M 16853,20395 L 18188,20395 18188,23547 16853,23547 16853,20395 Z M 16592,19780 L 17913,19780 17913,22900 16592,22900 16592,19780 Z"/>
             <path fill="rgb(52,52,52)" stroke="none" d="M 16592,19780 L 17913,19780 17913,22900 16592,22900 16592,19780 Z M 16599,19795 L 17906,19795 17906,22885 16599,22885 16599,19795 Z"/>
             <path fill="rgb(53,53,53)" stroke="none" d="M 16599,19795 L 17906,19795 17906,22885 16599,22885 16599,19795 Z M 16605,19811 L 17900,19811 17900,22869 16605,22869 16605,19811 Z"/>
             <path fill="rgb(54,54,54)" stroke="none" d="M 16605,19811 L 17900,19811 17900,22869 16605,22869 16605,19811 Z M 16612,19826 L 17893,19826 17893,22854 16612,22854 16612,19826 Z"/>
             <path fill="rgb(55,55,55)" stroke="none" d="M 16612,19826 L 17893,19826 17893,22854 16612,22854 16612,19826 Z M 16618,19842 L 17887,19842 17887,22838 16618,22838 16618,19842 Z"/>
             <path fill="rgb(56,56,56)" stroke="none" d="M 16618,19842 L 17887,19842 17887,22838 16618,22838 16618,19842 Z M 16625,19857 L 17880,19857 17880,22823 16625,22823 16625,19857 Z"/>
             <path fill="rgb(57,57,57)" stroke="none" d="M 16625,19857 L 17880,19857 17880,22823 16625,22823 16625,19857 Z M 16631,19873 L 17874,19873 17874,22807 16631,22807 16631,19873 Z"/>
             <path fill="rgb(58,58,58)" stroke="none" d="M 16631,19873 L 17874,19873 17874,22807 16631,22807 16631,19873 Z M 16638,19888 L 17867,19888 17867,22792 16638,22792 16638,19888 Z"/>
             <path fill="rgb(59,59,59)" stroke="none" d="M 16638,19888 L 17867,19888 17867,22792 16638,22792 16638,19888 Z M 16644,19904 L 17861,19904 17861,22776 16644,22776 16644,19904 Z"/>
             <path fill="rgb(60,60,60)" stroke="none" d="M 16644,19904 L 17861,19904 17861,22776 16644,22776 16644,19904 Z M 16651,19919 L 17854,19919 17854,22761 16651,22761 16651,19919 Z"/>
             <path fill="rgb(61,61,61)" stroke="none" d="M 16651,19919 L 17854,19919 17854,22761 16651,22761 16651,19919 Z M 16658,19935 L 17847,19935 17847,22745 16658,22745 16658,19935 Z"/>
             <path fill="rgb(62,62,62)" stroke="none" d="M 16658,19935 L 17847,19935 17847,22745 16658,22745 16658,19935 Z M 16664,19950 L 17841,19950 17841,22730 16664,22730 16664,19950 Z"/>
             <path fill="rgb(63,63,63)" stroke="none" d="M 16664,19950 L 17841,19950 17841,22730 16664,22730 16664,19950 Z M 16671,19965 L 17834,19965 17834,22715 16671,22715 16671,19965 Z"/>
             <path fill="rgb(64,64,64)" stroke="none" d="M 16671,19965 L 17834,19965 17834,22715 16671,22715 16671,19965 Z M 16677,19981 L 17828,19981 17828,22699 16677,22699 16677,19981 Z"/>
             <path fill="rgb(65,65,65)" stroke="none" d="M 16677,19981 L 17828,19981 17828,22699 16677,22699 16677,19981 Z M 16684,19996 L 17821,19996 17821,22684 16684,22684 16684,19996 Z"/>
             <path fill="rgb(66,66,66)" stroke="none" d="M 16684,19996 L 17821,19996 17821,22684 16684,22684 16684,19996 Z M 16690,20012 L 17815,20012 17815,22668 16690,22668 16690,20012 Z"/>
             <path fill="rgb(67,67,67)" stroke="none" d="M 16690,20012 L 17815,20012 17815,22668 16690,22668 16690,20012 Z M 16697,20027 L 17808,20027 17808,22653 16697,22653 16697,20027 Z"/>
             <path fill="rgb(68,68,68)" stroke="none" d="M 16697,20027 L 17808,20027 17808,22653 16697,22653 16697,20027 Z M 16703,20043 L 17802,20043 17802,22637 16703,22637 16703,20043 Z"/>
             <path fill="rgb(69,69,69)" stroke="none" d="M 16703,20043 L 17802,20043 17802,22637 16703,22637 16703,20043 Z M 16710,20058 L 17795,20058 17795,22622 16710,22622 16710,20058 Z"/>
             <path fill="rgb(70,70,70)" stroke="none" d="M 16710,20058 L 17795,20058 17795,22622 16710,22622 16710,20058 Z M 16716,20074 L 17789,20074 17789,22606 16716,22606 16716,20074 Z"/>
             <path fill="rgb(71,71,71)" stroke="none" d="M 16716,20074 L 17789,20074 17789,22606 16716,22606 16716,20074 Z M 16723,20089 L 17782,20089 17782,22591 16723,22591 16723,20089 Z"/>
             <path fill="rgb(72,72,72)" stroke="none" d="M 16723,20089 L 17782,20089 17782,22591 16723,22591 16723,20089 Z M 16730,20105 L 17775,20105 17775,22575 16730,22575 16730,20105 Z"/>
             <path fill="rgb(73,73,73)" stroke="none" d="M 16730,20105 L 17775,20105 17775,22575 16730,22575 16730,20105 Z M 16736,20120 L 17769,20120 17769,22560 16736,22560 16736,20120 Z"/>
             <path fill="rgb(74,74,74)" stroke="none" d="M 16736,20120 L 17769,20120 17769,22560 16736,22560 16736,20120 Z M 16743,20135 L 17762,20135 17762,22545 16743,22545 16743,20135 Z"/>
             <path fill="rgb(75,75,75)" stroke="none" d="M 16743,20135 L 17762,20135 17762,22545 16743,22545 16743,20135 Z M 16749,20151 L 17756,20151 17756,22529 16749,22529 16749,20151 Z"/>
             <path fill="rgb(76,76,76)" stroke="none" d="M 16749,20151 L 17756,20151 17756,22529 16749,22529 16749,20151 Z M 16756,20166 L 17749,20166 17749,22514 16756,22514 16756,20166 Z"/>
             <path fill="rgb(77,77,77)" stroke="none" d="M 16756,20166 L 17749,20166 17749,22514 16756,22514 16756,20166 Z M 16762,20182 L 17743,20182 17743,22498 16762,22498 16762,20182 Z"/>
             <path fill="rgb(78,78,78)" stroke="none" d="M 16762,20182 L 17743,20182 17743,22498 16762,22498 16762,20182 Z M 16769,20197 L 17736,20197 17736,22483 16769,22483 16769,20197 Z"/>
             <path fill="rgb(79,79,79)" stroke="none" d="M 16769,20197 L 17736,20197 17736,22483 16769,22483 16769,20197 Z M 16775,20213 L 17730,20213 17730,22467 16775,22467 16775,20213 Z"/>
             <path fill="rgb(80,80,80)" stroke="none" d="M 16775,20213 L 17730,20213 17730,22467 16775,22467 16775,20213 Z M 16782,20228 L 17723,20228 17723,22452 16782,22452 16782,20228 Z"/>
             <path fill="rgb(81,81,81)" stroke="none" d="M 16782,20228 L 17723,20228 17723,22452 16782,22452 16782,20228 Z M 16789,20244 L 17716,20244 17716,22436 16789,22436 16789,20244 Z"/>
             <path fill="rgb(82,82,82)" stroke="none" d="M 16789,20244 L 17716,20244 17716,22436 16789,22436 16789,20244 Z M 16795,20259 L 17710,20259 17710,22421 16795,22421 16795,20259 Z"/>
             <path fill="rgb(83,83,83)" stroke="none" d="M 16795,20259 L 17710,20259 17710,22421 16795,22421 16795,20259 Z M 16802,20275 L 17703,20275 17703,22405 16802,22405 16802,20275 Z"/>
             <path fill="rgb(84,84,84)" stroke="none" d="M 16802,20275 L 17703,20275 17703,22405 16802,22405 16802,20275 Z M 16808,20290 L 17697,20290 17697,22390 16808,22390 16808,20290 Z"/>
             <path fill="rgb(85,85,85)" stroke="none" d="M 16808,20290 L 17697,20290 17697,22390 16808,22390 16808,20290 Z M 16815,20305 L 17690,20305 17690,22375 16815,22375 16815,20305 Z"/>
             <path fill="rgb(86,86,86)" stroke="none" d="M 16815,20305 L 17690,20305 17690,22375 16815,22375 16815,20305 Z M 16821,20321 L 17684,20321 17684,22359 16821,22359 16821,20321 Z"/>
             <path fill="rgb(87,87,87)" stroke="none" d="M 16821,20321 L 17684,20321 17684,22359 16821,22359 16821,20321 Z M 16828,20336 L 17677,20336 17677,22344 16828,22344 16828,20336 Z"/>
             <path fill="rgb(88,88,88)" stroke="none" d="M 16828,20336 L 17677,20336 17677,22344 16828,22344 16828,20336 Z M 16834,20352 L 17671,20352 17671,22328 16834,22328 16834,20352 Z"/>
             <path fill="rgb(89,89,89)" stroke="none" d="M 16834,20352 L 17671,20352 17671,22328 16834,22328 16834,20352 Z M 16840,20367 L 17664,20367 17664,22313 16840,22313 16840,20367 Z"/>
             <path fill="rgb(90,90,90)" stroke="none" d="M 16840,20367 L 17664,20367 17664,22313 16840,22313 16840,20367 Z M 16846,20382 L 17658,20382 17658,22297 16846,22297 16846,20382 Z"/>
             <path fill="rgb(91,91,91)" stroke="none" d="M 16846,20382 L 17658,20382 17658,22297 16846,22297 16846,20382 Z M 16853,20397 L 17651,20397 17651,22282 16853,22282 16853,20397 Z"/>
             <path fill="rgb(92,92,92)" stroke="none" d="M 16853,20397 L 17651,20397 17651,22282 16853,22282 16853,20397 Z M 16860,20413 L 17644,20413 17644,22266 16860,22266 16860,20413 Z"/>
             <path fill="rgb(93,93,93)" stroke="none" d="M 16860,20413 L 17644,20413 17644,22266 16860,22266 16860,20413 Z M 16866,20428 L 17638,20428 17638,22251 16866,22251 16866,20428 Z"/>
             <path fill="rgb(94,94,94)" stroke="none" d="M 16866,20428 L 17638,20428 17638,22251 16866,22251 16866,20428 Z M 16873,20444 L 17631,20444 17631,22235 16873,22235 16873,20444 Z"/>
             <path fill="rgb(95,95,95)" stroke="none" d="M 16873,20444 L 17631,20444 17631,22235 16873,22235 16873,20444 Z M 16879,20459 L 17625,20459 17625,22220 16879,22220 16879,20459 Z"/>
             <path fill="rgb(96,96,96)" stroke="none" d="M 16879,20459 L 17625,20459 17625,22220 16879,22220 16879,20459 Z M 16886,20474 L 17618,20474 17618,22205 16886,22205 16886,20474 Z"/>
             <path fill="rgb(97,97,97)" stroke="none" d="M 16886,20474 L 17618,20474 17618,22205 16886,22205 16886,20474 Z M 16892,20490 L 17612,20490 17612,22189 16892,22189 16892,20490 Z"/>
             <path fill="rgb(98,98,98)" stroke="none" d="M 16892,20490 L 17612,20490 17612,22189 16892,22189 16892,20490 Z M 16899,20505 L 17605,20505 17605,22174 16899,22174 16899,20505 Z"/>
             <path fill="rgb(99,99,99)" stroke="none" d="M 16899,20505 L 17605,20505 17605,22174 16899,22174 16899,20505 Z M 16905,20521 L 17599,20521 17599,22158 16905,22158 16905,20521 Z"/>
             <path fill="rgb(100,100,100)" stroke="none" d="M 16905,20521 L 17599,20521 17599,22158 16905,22158 16905,20521 Z M 16912,20536 L 17592,20536 17592,22143 16912,22143 16912,20536 Z"/>
             <path fill="rgb(101,101,101)" stroke="none" d="M 16912,20536 L 17592,20536 17592,22143 16912,22143 16912,20536 Z M 16919,20552 L 17586,20552 17586,22127 16919,22127 16919,20552 Z"/>
             <path fill="rgb(102,102,102)" stroke="none" d="M 16919,20552 L 17586,20552 17586,22127 16919,22127 16919,20552 Z M 16925,20567 L 17579,20567 17579,22112 16925,22112 16925,20567 Z"/>
             <path fill="rgb(103,103,103)" stroke="none" d="M 16925,20567 L 17579,20567 17579,22112 16925,22112 16925,20567 Z M 16932,20583 L 17572,20583 17572,22096 16932,22096 16932,20583 Z"/>
             <path fill="rgb(104,104,104)" stroke="none" d="M 16932,20583 L 17572,20583 17572,22096 16932,22096 16932,20583 Z M 16938,20598 L 17566,20598 17566,22081 16938,22081 16938,20598 Z"/>
             <path fill="rgb(105,105,105)" stroke="none" d="M 16938,20598 L 17566,20598 17566,22081 16938,22081 16938,20598 Z M 16945,20614 L 17559,20614 17559,22065 16945,22065 16945,20614 Z"/>
             <path fill="rgb(106,106,106)" stroke="none" d="M 16945,20614 L 17559,20614 17559,22065 16945,22065 16945,20614 Z M 16951,20629 L 17553,20629 17553,22050 16951,22050 16951,20629 Z"/>
             <path fill="rgb(107,107,107)" stroke="none" d="M 16951,20629 L 17553,20629 17553,22050 16951,22050 16951,20629 Z M 16958,20644 L 17546,20644 17546,22035 16958,22035 16958,20644 Z"/>
             <path fill="rgb(108,108,108)" stroke="none" d="M 16958,20644 L 17546,20644 17546,22035 16958,22035 16958,20644 Z M 16964,20660 L 17540,20660 17540,22019 16964,22019 16964,20660 Z"/>
             <path fill="rgb(109,109,109)" stroke="none" d="M 16964,20660 L 17540,20660 17540,22019 16964,22019 16964,20660 Z M 16971,20675 L 17533,20675 17533,22004 16971,22004 16971,20675 Z"/>
             <path fill="rgb(110,110,110)" stroke="none" d="M 16971,20675 L 17533,20675 17533,22004 16971,22004 16971,20675 Z M 16977,20691 L 17527,20691 17527,21988 16977,21988 16977,20691 Z"/>
             <path fill="rgb(111,111,111)" stroke="none" d="M 16977,20691 L 17527,20691 17527,21988 16977,21988 16977,20691 Z M 16984,20706 L 17520,20706 17520,21973 16984,21973 16984,20706 Z"/>
             <path fill="rgb(112,112,112)" stroke="none" d="M 16984,20706 L 17520,20706 17520,21973 16984,21973 16984,20706 Z M 16991,20722 L 17513,20722 17513,21957 16991,21957 16991,20722 Z"/>
             <path fill="rgb(113,113,113)" stroke="none" d="M 16991,20722 L 17513,20722 17513,21957 16991,21957 16991,20722 Z M 16997,20737 L 17507,20737 17507,21942 16997,21942 16997,20737 Z"/>
             <path fill="rgb(114,114,114)" stroke="none" d="M 16997,20737 L 17507,20737 17507,21942 16997,21942 16997,20737 Z M 17004,20753 L 17500,20753 17500,21926 17004,21926 17004,20753 Z"/>
             <path fill="rgb(115,115,115)" stroke="none" d="M 17004,20753 L 17500,20753 17500,21926 17004,21926 17004,20753 Z M 17010,20768 L 17494,20768 17494,21911 17010,21911 17010,20768 Z"/>
             <path fill="rgb(116,116,116)" stroke="none" d="M 17010,20768 L 17494,20768 17494,21911 17010,21911 17010,20768 Z M 17017,20784 L 17487,20784 17487,21895 17017,21895 17017,20784 Z"/>
             <path fill="rgb(117,117,117)" stroke="none" d="M 17017,20784 L 17487,20784 17487,21895 17017,21895 17017,20784 Z M 17023,20799 L 17481,20799 17481,21880 17023,21880 17023,20799 Z"/>
             <path fill="rgb(118,118,118)" stroke="none" d="M 17023,20799 L 17481,20799 17481,21880 17023,21880 17023,20799 Z M 17030,20814 L 17474,20814 17474,21865 17030,21865 17030,20814 Z"/>
             <path fill="rgb(119,119,119)" stroke="none" d="M 17030,20814 L 17474,20814 17474,21865 17030,21865 17030,20814 Z M 17036,20830 L 17468,20830 17468,21849 17036,21849 17036,20830 Z"/>
             <path fill="rgb(120,120,120)" stroke="none" d="M 17036,20830 L 17468,20830 17468,21849 17036,21849 17036,20830 Z M 17043,20845 L 17461,20845 17461,21834 17043,21834 17043,20845 Z"/>
             <path fill="rgb(121,121,121)" stroke="none" d="M 17043,20845 L 17461,20845 17461,21834 17043,21834 17043,20845 Z M 17049,20861 L 17455,20861 17455,21818 17049,21818 17049,20861 Z"/>
             <path fill="rgb(122,122,122)" stroke="none" d="M 17049,20861 L 17455,20861 17455,21818 17049,21818 17049,20861 Z M 17056,20876 L 17448,20876 17448,21803 17056,21803 17056,20876 Z"/>
             <path fill="rgb(123,123,123)" stroke="none" d="M 17056,20876 L 17448,20876 17448,21803 17056,21803 17056,20876 Z M 17063,20892 L 17441,20892 17441,21787 17063,21787 17063,20892 Z"/>
             <path fill="rgb(124,124,124)" stroke="none" d="M 17063,20892 L 17441,20892 17441,21787 17063,21787 17063,20892 Z M 17069,20907 L 17435,20907 17435,21772 17069,21772 17069,20907 Z"/>
             <path fill="rgb(125,125,125)" stroke="none" d="M 17069,20907 L 17435,20907 17435,21772 17069,21772 17069,20907 Z M 17076,20923 L 17428,20923 17428,21756 17076,21756 17076,20923 Z"/>
             <path fill="rgb(126,126,126)" stroke="none" d="M 17076,20923 L 17428,20923 17428,21756 17076,21756 17076,20923 Z M 17082,20938 L 17422,20938 17422,21741 17082,21741 17082,20938 Z"/>
             <path fill="rgb(127,127,127)" stroke="none" d="M 17082,20938 L 17422,20938 17422,21741 17082,21741 17082,20938 Z M 17089,20954 L 17415,20954 17415,21725 17089,21725 17089,20954 Z"/>
             <path fill="rgb(128,128,128)" stroke="none" d="M 17089,20954 L 17415,20954 17415,21725 17089,21725 17089,20954 Z M 17095,20969 L 17409,20969 17409,21710 17095,21710 17095,20969 Z"/>
             <path fill="rgb(129,129,129)" stroke="none" d="M 17095,20969 L 17409,20969 17409,21710 17095,21710 17095,20969 Z M 17102,20985 L 17402,20985 17402,21694 17102,21694 17102,20985 Z"/>
             <path fill="rgb(130,130,130)" stroke="none" d="M 17102,20985 L 17402,20985 17402,21694 17102,21694 17102,20985 Z M 17108,21000 L 17396,21000 17396,21679 17108,21679 17108,21000 Z"/>
             <path fill="rgb(131,131,131)" stroke="none" d="M 17108,21000 L 17396,21000 17396,21679 17108,21679 17108,21000 Z M 17115,21015 L 17389,21015 17389,21664 17115,21664 17115,21015 Z"/>
             <path fill="rgb(132,132,132)" stroke="none" d="M 17115,21015 L 17389,21015 17389,21664 17115,21664 17115,21015 Z M 17122,21031 L 17382,21031 17382,21648 17122,21648 17122,21031 Z"/>
             <path fill="rgb(133,133,133)" stroke="none" d="M 17122,21031 L 17382,21031 17382,21648 17122,21648 17122,21031 Z M 17128,21046 L 17376,21046 17376,21633 17128,21633 17128,21046 Z"/>
             <path fill="rgb(134,134,134)" stroke="none" d="M 17128,21046 L 17376,21046 17376,21633 17128,21633 17128,21046 Z M 17135,21062 L 17369,21062 17369,21617 17135,21617 17135,21062 Z"/>
             <path fill="rgb(135,135,135)" stroke="none" d="M 17135,21062 L 17369,21062 17369,21617 17135,21617 17135,21062 Z M 17141,21077 L 17363,21077 17363,21602 17141,21602 17141,21077 Z"/>
             <path fill="rgb(136,136,136)" stroke="none" d="M 17141,21077 L 17363,21077 17363,21602 17141,21602 17141,21077 Z M 17148,21093 L 17356,21093 17356,21586 17148,21586 17148,21093 Z"/>
             <path fill="rgb(137,137,137)" stroke="none" d="M 17148,21093 L 17356,21093 17356,21586 17148,21586 17148,21093 Z M 17154,21108 L 17350,21108 17350,21571 17154,21571 17154,21108 Z"/>
             <path fill="rgb(138,138,138)" stroke="none" d="M 17154,21108 L 17350,21108 17350,21571 17154,21571 17154,21108 Z M 17161,21124 L 17343,21124 17343,21555 17161,21555 17161,21124 Z"/>
             <path fill="rgb(139,139,139)" stroke="none" d="M 17161,21124 L 17343,21124 17343,21555 17161,21555 17161,21124 Z M 17167,21139 L 17337,21139 17337,21540 17167,21540 17167,21139 Z"/>
             <path fill="rgb(140,140,140)" stroke="none" d="M 17167,21139 L 17337,21139 17337,21540 17167,21540 17167,21139 Z M 17174,21155 L 17330,21155 17330,21524 17174,21524 17174,21155 Z"/>
             <path fill="rgb(141,141,141)" stroke="none" d="M 17174,21155 L 17330,21155 17330,21524 17174,21524 17174,21155 Z M 17180,21170 L 17324,21170 17324,21509 17180,21509 17180,21170 Z"/>
             <path fill="rgb(142,142,142)" stroke="none" d="M 17180,21170 L 17324,21170 17324,21509 17180,21509 17180,21170 Z M 17187,21185 L 17317,21185 17317,21494 17187,21494 17187,21185 Z"/>
             <path fill="rgb(143,143,143)" stroke="none" d="M 17187,21185 L 17317,21185 17317,21494 17187,21494 17187,21185 Z M 17194,21201 L 17310,21201 17310,21478 17194,21478 17194,21201 Z"/>
             <path fill="rgb(144,144,144)" stroke="none" d="M 17194,21201 L 17310,21201 17310,21478 17194,21478 17194,21201 Z M 17200,21216 L 17304,21216 17304,21463 17200,21463 17200,21216 Z"/>
             <path fill="rgb(145,145,145)" stroke="none" d="M 17200,21216 L 17304,21216 17304,21463 17200,21463 17200,21216 Z M 17207,21232 L 17297,21232 17297,21447 17207,21447 17207,21232 Z"/>
             <path fill="rgb(146,146,146)" stroke="none" d="M 17207,21232 L 17297,21232 17297,21447 17207,21447 17207,21232 Z M 17213,21247 L 17291,21247 17291,21432 17213,21432 17213,21247 Z"/>
             <path fill="rgb(147,147,147)" stroke="none" d="M 17213,21247 L 17291,21247 17291,21432 17213,21432 17213,21247 Z M 17220,21263 L 17284,21263 17284,21416 17220,21416 17220,21263 Z"/>
             <path fill="rgb(148,148,148)" stroke="none" d="M 17220,21263 L 17284,21263 17284,21416 17220,21416 17220,21263 Z M 17226,21278 L 17278,21278 17278,21401 17226,21401 17226,21278 Z"/>
             <path fill="rgb(149,149,149)" stroke="none" d="M 17226,21278 L 17278,21278 17278,21401 17226,21401 17226,21278 Z M 17233,21294 L 17271,21294 17271,21385 17233,21385 17233,21294 Z"/>
             <path fill="rgb(150,150,150)" stroke="none" d="M 17233,21294 L 17271,21294 17271,21385 17233,21385 17233,21294 Z M 17239,21309 L 17265,21309 17265,21370 17239,21370 17239,21309 Z"/>
             <path fill="rgb(151,151,151)" stroke="none" d="M 17239,21309 L 17265,21309 17265,21370 17239,21370 17239,21309 Z M 17246,21325 L 17258,21325 17258,21354 17246,21354 17246,21325 Z"/>
             <path fill="rgb(153,153,153)" stroke="none" d="M 17246,21325 L 17258,21325 17258,21354 17246,21354 17246,21325 Z"/>
            </g>
           </pattern>
          </defs>
          <path style="fill:url(#pattern1)" d="M 16854,23546 L 16854,21166 18187,20396 18187,22776 16854,23546 Z"/>
         </g>
         <path fill="none" stroke="rgb(178,178,178)" stroke-width="40" stroke-linejoin="round" d="M 16854,23546 L 16854,21166 18187,20396 18187,22776 16854,23546 Z"/>
        </g>
       </g>
       <g class="com.sun.star.drawing.PolyPolygonShape">
        <g id="id5">
         <rect class="BoundingBox" stroke="none" fill="none" x="16470" y="20166" width="1738" height="1021"/>
         <g>
          <defs>
           <linearGradient id="gradient1" x1="17338" y1="20186" x2="17338" y2="21166" gradientUnits="userSpaceOnUse">
            <stop offset="0.1" style="stop-color:rgb(51,51,51)"/>
            <stop offset="1" style="stop-color:rgb(153,153,153)"/>
           </linearGradient>
          </defs>
          <path style="fill:url(#gradient1)" d="M 16854,21166 L 16490,20956 17824,20186 18187,20396 16854,21166 Z"/>
         </g>
         <path fill="none" stroke="rgb(178,178,178)" stroke-width="40" stroke-linejoin="round" d="M 16854,21166 L 16490,20956 17824,20186 18187,20396 16854,21166 Z"/>
        </g>
       </g>
       <g class="com.sun.star.drawing.PolyPolygonShape">
        <g id="id6">
         <rect class="BoundingBox" stroke="none" fill="none" x="16470" y="20936" width="405" height="2631"/>
         <g>
          <defs>
           <linearGradient id="gradient2" x1="16489" y1="22251" x2="16855" y2="22251" gradientUnits="userSpaceOnUse">
            <stop offset="0.1" style="stop-color:rgb(51,51,51)"/>
            <stop offset="1" style="stop-color:rgb(153,153,153)"/>
           </linearGradient>
          </defs>
          <path style="fill:url(#gradient2)" d="M 16490,23336 L 16490,20956 16854,21166 16854,23546 16490,23336 Z"/>
         </g>
         <path fill="none" stroke="rgb(178,178,178)" stroke-width="40" stroke-linejoin="round" d="M 16490,23336 L 16490,20956 16854,21166 16854,23546 16490,23336 Z"/>
        </g>
       </g>
       <g class="com.sun.star.drawing.PolyPolygonShape">
        <g id="id7">
         <rect class="BoundingBox" stroke="none" fill="none" x="16470" y="20166" width="1738" height="3401"/>
         <path fill="none" stroke="rgb(0,0,0)" stroke-width="40" stroke-linejoin="round" d="M 16490,23336 L 16490,20956 17824,20186 18187,20396 18187,22776 16854,23546 16490,23336 Z"/>
        </g>
       </g>
       <g class="com.sun.star.drawing.PolyPolygonShape">
        <g id="id8">
         <rect class="BoundingBox" stroke="none" fill="none" x="16591" y="21426" width="162" height="251"/>
         <path fill="rgb(153,255,102)" stroke="none" d="M 16611,21586 L 16611,21446 16732,21516 16732,21656 16611,21586 Z"/>
         <path fill="none" stroke="rgb(51,51,51)" stroke-width="40" stroke-linejoin="round" d="M 16611,21586 L 16611,21446 16732,21516 16732,21656 16611,21586 Z"/>
        </g>
       </g>
       <g class="com.sun.star.drawing.PolyPolygonShape">
        <g id="id9">
         <rect class="BoundingBox" stroke="none" fill="none" x="17925" y="18836" width="162" height="1511"/>
         <g>
          <defs>
           <linearGradient id="gradient3" x1="18005" y1="20326" x2="18005" y2="18856" gradientUnits="userSpaceOnUse">
            <stop offset="0.1" style="stop-color:rgb(102,102,102)"/>
            <stop offset="1" style="stop-color:rgb(153,153,153)"/>
           </linearGradient>
          </defs>
          <path style="fill:url(#gradient3)" d="M 17945,20256 L 17945,18856 18066,18856 18066,20326 17945,20256 Z"/>
         </g>
         <path fill="none" stroke="rgb(0,0,0)" stroke-width="40" stroke-linejoin="round" d="M 17945,20256 L 17945,18856 18066,18856 18066,20326 17945,20256 Z"/>
        </g>
       </g>
      </g>
     </g>
    </g>
   </g>
  </g>
 </g>
</svg>