<?xml version="1.0" encoding="UTF-8"?>
<!DOCTYPE svg PUBLIC "-//W3C//DTD SVG 1.1//EN" "http://www.w3.org/Graphics/SVG/1.1/DTD/svg11.dtd">
<svg version="1.2" width="36.58mm" height="28.4mm" viewBox="13792 24551 3658 2840" preserveAspectRatio="xMidYMid" fill-rule="evenodd" stroke-width="28.222" stroke-linejoin="round" xmlns="http://www.w3.org/2000/svg" xmlns:ooo="http://xml.openoffice.org/svg/export" xmlns:xlink="http://www.w3.org/1999/xlink" xmlns:presentation="http://sun.com/xmlns/staroffice/presentation" xmlns:smil="http://www.w3.org/2001/SMIL20/" xmlns:anim="urn:oasis:names:tc:opendocument:xmlns:animation:1.0" xml:space="preserve">
 <defs class="ClipPathGroup">
  <clipPath id="presentation_clip_path" clipPathUnits="userSpaceOnUse">
   <rect x="13792" y="24551" width="3658" height="2840"/>
  </clipPath>
 </defs>
 <defs class="TextShapeIndex">
  <g ooo:slide="id1" ooo:id-list="id3 id4 id5 id6 id7 id8 id9 id10 id11"/>
 </defs>
 <defs class="EmbeddedBulletChars">
  <g id="bullet-char-template(57356)" transform="scale(0.00048828125,-0.00048828125)">
   <path d="M 580,1141 L 1163,571 580,0 -4,571 580,1141 Z"/>
  </g>
  <g id="bullet-char-template(57354)" transform="scale(0.00048828125,-0.00048828125)">
   <path d="M 8,1128 L 1137,1128 1137,0 8,0 8,1128 Z"/>
  </g>
  <g id="bullet-char-template(10146)" transform="scale(0.00048828125,-0.00048828125)">
   <path d="M 174,0 L 602,739 174,1481 1456,739 174,0 Z M 1358,739 L 309,1346 659,739 1358,739 Z"/>
  </g>
  <g id="bullet-char-template(10132)" transform="scale(0.00048828125,-0.00048828125)">
   <path d="M 2015,739 L 1276,0 717,0 1260,543 174,543 174,936 1260,936 717,1481 1274,1481 2015,739 Z"/>
  </g>
  <g id="bullet-char-template(10007)" transform="scale(0.00048828125,-0.00048828125)">
   <path d="M 0,-2 C -7,14 -16,27 -25,37 L 356,567 C 262,823 215,952 215,954 215,979 228,992 255,992 264,992 276,990 289,987 310,991 331,999 354,1012 L 381,999 492,748 772,1049 836,1024 860,1049 C 881,1039 901,1025 922,1006 886,937 835,863 770,784 769,783 710,716 594,584 L 774,223 C 774,196 753,168 711,139 L 727,119 C 717,90 699,76 672,76 641,76 570,178 457,381 L 164,-76 C 142,-110 111,-127 72,-127 30,-127 9,-110 8,-76 1,-67 -2,-52 -2,-32 -2,-23 -1,-13 0,-2 Z"/>
  </g>
  <g id="bullet-char-template(10004)" transform="scale(0.00048828125,-0.00048828125)">
   <path d="M 285,-33 C 182,-33 111,30 74,156 52,228 41,333 41,471 41,549 55,616 82,672 116,743 169,778 240,778 293,778 328,747 346,684 L 369,508 C 377,444 397,411 428,410 L 1163,1116 C 1174,1127 1196,1133 1229,1133 1271,1133 1292,1118 1292,1087 L 1292,965 C 1292,929 1282,901 1262,881 L 442,47 C 390,-6 338,-33 285,-33 Z"/>
  </g>
  <g id="bullet-char-template(9679)" transform="scale(0.00048828125,-0.00048828125)">
   <path d="M 813,0 C 632,0 489,54 383,161 276,268 223,411 223,592 223,773 276,916 383,1023 489,1130 632,1184 813,1184 992,1184 1136,1130 1245,1023 1353,916 1407,772 1407,592 1407,412 1353,268 1245,161 1136,54 992,0 813,0 Z"/>
  </g>
  <g id="bullet-char-template(8226)" transform="scale(0.00048828125,-0.00048828125)">
   <path d="M 346,457 C 273,457 209,483 155,535 101,586 74,649 74,723 74,796 101,859 155,911 209,963 273,989 346,989 419,989 480,963 531,910 582,859 608,796 608,723 608,648 583,586 532,535 482,483 420,457 346,457 Z"/>
  </g>
  <g id="bullet-char-template(8211)" transform="scale(0.00048828125,-0.00048828125)">
   <path d="M -4,459 L 1135,459 1135,606 -4,606 -4,459 Z"/>
  </g>
 </defs>
 <defs class="TextEmbeddedBitmaps"/>
 <g class="SlideGroup">
  <g>
   <g id="id1" class="Slide" clip-path="url(#presentation_clip_path)">
    <g class="Page">
     <g class="Group">
      <g class="com.sun.star.drawing.ClosedBezierShape">
       <g id="id3">
        <rect class="BoundingBox" stroke="none" fill="none" x="15597" y="26110" width="1855" height="1193"/>
        <path fill="rgb(221,221,221)" stroke="none" d="M 15598,27301 C 16073,27301 17296,26741 17417,26531 17538,26321 17296,26111 17175,26111 17175,26411 15598,26801 15598,27301 Z"/>
        <path fill="none" stroke="rgb(221,221,221)" d="M 15598,27301 C 16073,27301 17296,26741 17417,26531 17538,26321 17296,26111 17175,26111 17175,26411 15598,26801 15598,27301 Z"/>
       </g>
      </g>
      <g class="Group">
       <g class="com.sun.star.drawing.PolyPolygonShape">
        <g id="id4">
         <rect class="BoundingBox" stroke="none" fill="none" x="13792" y="25531" width="1739" height="1861"/>
         <g>
          <defs>
           <linearGradient id="gradient1" x1="13811" y1="26461" x2="15511" y2="26461" gradientUnits="userSpaceOnUse">
            <stop offset="0.1" style="stop-color:rgb(0,115,188)"/>
            <stop offset="1" style="stop-color:rgb(127,185,221)"/>
           </linearGradient>
          </defs>
          <path style="fill:url(#gradient1)" d="M 13812,26391 L 13812,25551 15510,26531 15510,27371 13812,26391 Z"/>
         </g>
         <path fill="none" stroke="rgb(255,255,255)" stroke-width="40" stroke-linejoin="round" d="M 13812,26391 L 13812,25551 15510,26531 15510,27371 13812,26391 Z"/>
        </g>
       </g>
       <g class="com.sun.star.drawing.PolyPolygonShape">
        <g id="id5">
         <rect class="BoundingBox" stroke="none" fill="none" x="15490" y="25531" width="1738" height="1861"/>
         <g>
          <defs>
           <pattern id="pattern1" x="15510" y="25551" width="1698" height="1821" patternUnits="userSpaceOnUse">
            <g transform="translate(-15510,-25551)">
             <path fill="rgb(0,115,188)" stroke="none" d="M 15509,25550 L 17208,25550 17208,27372 15509,27372 15509,25550 Z M 15176,25193 L 16861,25193 16861,26999 15176,26999 15176,25193 Z"/>
             <path fill="rgb(1,115,188)" stroke="none" d="M 15176,25193 L 16861,25193 16861,26999 15176,26999 15176,25193 Z M 15183,25200 L 16854,25200 16854,26992 15183,26992 15183,25200 Z"/>
             <path fill="rgb(2,116,188)" stroke="none" d="M 15183,25200 L 16854,25200 16854,26992 15183,26992 15183,25200 Z M 15190,25207 L 16847,25207 16847,26985 15190,26985 15190,25207 Z"/>
             <path fill="rgb(3,116,188)" stroke="none" d="M 15190,25207 L 16847,25207 16847,26985 15190,26985 15190,25207 Z M 15196,25214 L 16841,25214 16841,26978 15196,26978 15196,25214 Z"/>
             <path fill="rgb(4,117,189)" stroke="none" d="M 15196,25214 L 16841,25214 16841,26978 15196,26978 15196,25214 Z M 15203,25221 L 16834,25221 16834,26971 15203,26971 15203,25221 Z"/>
             <path fill="rgb(5,117,189)" stroke="none" d="M 15203,25221 L 16834,25221 16834,26971 15203,26971 15203,25221 Z M 15210,25229 L 16827,25229 16827,26963 15210,26963 15210,25229 Z"/>
             <path fill="rgb(6,118,189)" stroke="none" d="M 15210,25229 L 16827,25229 16827,26963 15210,26963 15210,25229 Z M 15216,25236 L 16821,25236 16821,26956 15216,26956 15216,25236 Z"/>
             <path fill="rgb(7,118,189)" stroke="none" d="M 15216,25236 L 16821,25236 16821,26956 15216,26956 15216,25236 Z M 15223,25243 L 16814,25243 16814,26949 15223,26949 15223,25243 Z"/>
             <path fill="rgb(8,119,190)" stroke="none" d="M 15223,25243 L 16814,25243 16814,26949 15223,26949 15223,25243 Z M 15230,25250 L 16807,25250 16807,26942 15230,26942 15230,25250 Z"/>
             <path fill="rgb(9,119,190)" stroke="none" d="M 15230,25250 L 16807,25250 16807,26942 15230,26942 15230,25250 Z M 15236,25257 L 16801,25257 16801,26935 15236,26935 15236,25257 Z"/>
             <path fill="rgb(10,120,190)" stroke="none" d="M 15236,25257 L 16801,25257 16801,26935 15236,26935 15236,25257 Z M 15243,25264 L 16794,25264 16794,26928 15243,26928 15243,25264 Z"/>
             <path fill="rgb(11,121,190)" stroke="none" d="M 15243,25264 L 16794,25264 16794,26928 15243,26928 15243,25264 Z M 15250,25272 L 16787,25272 16787,26920 15250,26920 15250,25272 Z"/>
             <path fill="rgb(12,121,191)" stroke="none" d="M 15250,25272 L 16787,25272 16787,26920 15250,26920 15250,25272 Z M 15257,25279 L 16780,25279 16780,26913 15257,26913 15257,25279 Z"/>
             <path fill="rgb(13,122,191)" stroke="none" d="M 15257,25279 L 16780,25279 16780,26913 15257,26913 15257,25279 Z M 15263,25286 L 16774,25286 16774,26906 15263,26906 15263,25286 Z"/>
             <path fill="rgb(14,122,191)" stroke="none" d="M 15263,25286 L 16774,25286 16774,26906 15263,26906 15263,25286 Z M 15270,25293 L 16767,25293 16767,26899 15270,26899 15270,25293 Z"/>
             <path fill="rgb(15,123,191)" stroke="none" d="M 15270,25293 L 16767,25293 16767,26899 15270,26899 15270,25293 Z M 15277,25300 L 16760,25300 16760,26892 15277,26892 15277,25300 Z"/>
             <path fill="rgb(16,123,192)" stroke="none" d="M 15277,25300 L 16760,25300 16760,26892 15277,26892 15277,25300 Z M 15283,25308 L 16754,25308 16754,26884 15283,26884 15283,25308 Z"/>
             <path fill="rgb(17,124,192)" stroke="none" d="M 15283,25308 L 16754,25308 16754,26884 15283,26884 15283,25308 Z M 15290,25315 L 16747,25315 16747,26877 15290,26877 15290,25315 Z"/>
             <path fill="rgb(18,124,192)" stroke="none" d="M 15290,25315 L 16747,25315 16747,26877 15290,26877 15290,25315 Z M 15297,25322 L 16740,25322 16740,26870 15297,26870 15297,25322 Z"/>
             <path fill="rgb(19,125,192)" stroke="none" d="M 15297,25322 L 16740,25322 16740,26870 15297,26870 15297,25322 Z M 15303,25329 L 16734,25329 16734,26863 15303,26863 15303,25329 Z"/>
             <path fill="rgb(20,126,193)" stroke="none" d="M 15303,25329 L 16734,25329 16734,26863 15303,26863 15303,25329 Z M 15310,25336 L 16727,25336 16727,26856 15310,26856 15310,25336 Z"/>
             <path fill="rgb(21,126,193)" stroke="none" d="M 15310,25336 L 16727,25336 16727,26856 15310,26856 15310,25336 Z M 15317,25343 L 16720,25343 16720,26849 15317,26849 15317,25343 Z"/>
             <path fill="rgb(22,127,193)" stroke="none" d="M 15317,25343 L 16720,25343 16720,26849 15317,26849 15317,25343 Z M 15323,25351 L 16714,25351 16714,26841 15323,26841 15323,25351 Z"/>
             <path fill="rgb(23,127,193)" stroke="none" d="M 15323,25351 L 16714,25351 16714,26841 15323,26841 15323,25351 Z M 15330,25358 L 16707,25358 16707,26834 15330,26834 15330,25358 Z"/>
             <path fill="rgb(24,128,194)" stroke="none" d="M 15330,25358 L 16707,25358 16707,26834 15330,26834 15330,25358 Z M 15337,25365 L 16700,25365 16700,26827 15337,26827 15337,25365 Z"/>
             <path fill="rgb(25,128,194)" stroke="none" d="M 15337,25365 L 16700,25365 16700,26827 15337,26827 15337,25365 Z M 15344,25372 L 16693,25372 16693,26820 15344,26820 15344,25372 Z"/>
             <path fill="rgb(26,129,194)" stroke="none" d="M 15344,25372 L 16693,25372 16693,26820 15344,26820 15344,25372 Z M 15350,25379 L 16687,25379 16687,26813 15350,26813 15350,25379 Z"/>
             <path fill="rgb(27,129,195)" stroke="none" d="M 15350,25379 L 16687,25379 16687,26813 15350,26813 15350,25379 Z M 15357,25386 L 16680,25386 16680,26806 15357,26806 15357,25386 Z"/>
             <path fill="rgb(28,130,195)" stroke="none" d="M 15357,25386 L 16680,25386 16680,26806 15357,26806 15357,25386 Z M 15364,25394 L 16673,25394 16673,26798 15364,26798 15364,25394 Z"/>
             <path fill="rgb(29,130,195)" stroke="none" d="M 15364,25394 L 16673,25394 16673,26798 15364,26798 15364,25394 Z M 15370,25401 L 16667,25401 16667,26791 15370,26791 15370,25401 Z"/>
             <path fill="rgb(30,131,195)" stroke="none" d="M 15370,25401 L 16667,25401 16667,26791 15370,26791 15370,25401 Z M 15377,25408 L 16660,25408 16660,26784 15377,26784 15377,25408 Z"/>
             <path fill="rgb(31,132,196)" stroke="none" d="M 15377,25408 L 16660,25408 16660,26784 15377,26784 15377,25408 Z M 15384,25415 L 16653,25415 16653,26777 15384,26777 15384,25415 Z"/>
             <path fill="rgb(32,132,196)" stroke="none" d="M 15384,25415 L 16653,25415 16653,26777 15384,26777 15384,25415 Z M 15390,25422 L 16647,25422 16647,26770 15390,26770 15390,25422 Z"/>
             <path fill="rgb(33,133,196)" stroke="none" d="M 15390,25422 L 16647,25422 16647,26770 15390,26770 15390,25422 Z M 15397,25430 L 16640,25430 16640,26762 15397,26762 15397,25430 Z"/>
             <path fill="rgb(34,133,196)" stroke="none" d="M 15397,25430 L 16640,25430 16640,26762 15397,26762 15397,25430 Z M 15404,25437 L 16633,25437 16633,26755 15404,26755 15404,25437 Z"/>
             <path fill="rgb(35,134,197)" stroke="none" d="M 15404,25437 L 16633,25437 16633,26755 15404,26755 15404,25437 Z M 15410,25444 L 16627,25444 16627,26748 15410,26748 15410,25444 Z"/>
             <path fill="rgb(36,134,197)" stroke="none" d="M 15410,25444 L 16627,25444 16627,26748 15410,26748 15410,25444 Z M 15417,25451 L 16620,25451 16620,26741 15417,26741 15417,25451 Z"/>
             <path fill="rgb(37,135,197)" stroke="none" d="M 15417,25451 L 16620,25451 16620,26741 15417,26741 15417,25451 Z M 15424,25458 L 16613,25458 16613,26734 15424,26734 15424,25458 Z"/>
             <path fill="rgb(38,135,197)" stroke="none" d="M 15424,25458 L 16613,25458 16613,26734 15424,26734 15424,25458 Z M 15431,25465 L 16606,25465 16606,26727 15431,26727 15431,25465 Z"/>
             <path fill="rgb(39,136,198)" stroke="none" d="M 15431,25465 L 16606,25465 16606,26727 15431,26727 15431,25465 Z M 15437,25473 L 16600,25473 16600,26719 15437,26719 15437,25473 Z"/>
             <path fill="rgb(40,137,198)" stroke="none" d="M 15437,25473 L 16600,25473 16600,26719 15437,26719 15437,25473 Z M 15444,25480 L 16593,25480 16593,26712 15444,26712 15444,25480 Z"/>
             <path fill="rgb(41,137,198)" stroke="none" d="M 15444,25480 L 16593,25480 16593,26712 15444,26712 15444,25480 Z M 15451,25487 L 16586,25487 16586,26705 15451,26705 15451,25487 Z"/>
             <path fill="rgb(42,138,198)" stroke="none" d="M 15451,25487 L 16586,25487 16586,26705 15451,26705 15451,25487 Z M 15457,25494 L 16580,25494 16580,26698 15457,26698 15457,25494 Z"/>
             <path fill="rgb(43,138,199)" stroke="none" d="M 15457,25494 L 16580,25494 16580,26698 15457,26698 15457,25494 Z M 15464,25501 L 16573,25501 16573,26691 15464,26691 15464,25501 Z"/>
             <path fill="rgb(44,139,199)" stroke="none" d="M 15464,25501 L 16573,25501 16573,26691 15464,26691 15464,25501 Z M 15471,25508 L 16566,25508 16566,26684 15471,26684 15471,25508 Z"/>
             <path fill="rgb(45,139,199)" stroke="none" d="M 15471,25508 L 16566,25508 16566,26684 15471,26684 15471,25508 Z M 15477,25516 L 16560,25516 16560,26676 15477,26676 15477,25516 Z"/>
             <path fill="rgb(46,140,199)" stroke="none" d="M 15477,25516 L 16560,25516 16560,26676 15477,26676 15477,25516 Z M 15484,25523 L 16553,25523 16553,26669 15484,26669 15484,25523 Z"/>
             <path fill="rgb(47,140,200)" stroke="none" d="M 15484,25523 L 16553,25523 16553,26669 15484,26669 15484,25523 Z M 15490,25530 L 16546,25530 16546,26662 15490,26662 15490,25530 Z"/>
             <path fill="rgb(48,141,200)" stroke="none" d="M 15490,25530 L 16546,25530 16546,26662 15490,26662 15490,25530 Z M 15496,25536 L 16540,25536 16540,26655 15496,26655 15496,25536 Z"/>
             <path fill="rgb(49,142,200)" stroke="none" d="M 15496,25536 L 16540,25536 16540,26655 15496,26655 15496,25536 Z M 15503,25543 L 16533,25543 16533,26648 15503,26648 15503,25543 Z"/>
             <path fill="rgb(50,142,200)" stroke="none" d="M 15503,25543 L 16533,25543 16533,26648 15503,26648 15503,25543 Z M 15510,25551 L 16526,25551 16526,26640 15510,26640 15510,25551 Z"/>
             <path fill="rgb(51,143,201)" stroke="none" d="M 15510,25551 L 16526,25551 16526,26640 15510,26640 15510,25551 Z M 15517,25558 L 16519,25558 16519,26633 15517,26633 15517,25558 Z"/>
             <path fill="rgb(52,143,201)" stroke="none" d="M 15517,25558 L 16519,25558 16519,26633 15517,26633 15517,25558 Z M 15523,25565 L 16513,25565 16513,26626 15523,26626 15523,25565 Z"/>
             <path fill="rgb(53,144,201)" stroke="none" d="M 15523,25565 L 16513,25565 16513,26626 15523,26626 15523,25565 Z M 15530,25572 L 16506,25572 16506,26619 15530,26619 15530,25572 Z"/>
             <path fill="rgb(54,144,202)" stroke="none" d="M 15530,25572 L 16506,25572 16506,26619 15530,26619 15530,25572 Z M 15537,25579 L 16499,25579 16499,26612 15537,26612 15537,25579 Z"/>
             <path fill="rgb(55,145,202)" stroke="none" d="M 15537,25579 L 16499,25579 16499,26612 15537,26612 15537,25579 Z M 15543,25586 L 16493,25586 16493,26605 15543,26605 15543,25586 Z"/>
             <path fill="rgb(56,145,202)" stroke="none" d="M 15543,25586 L 16493,25586 16493,26605 15543,26605 15543,25586 Z M 15550,25594 L 16486,25594 16486,26597 15550,26597 15550,25594 Z"/>
             <path fill="rgb(57,146,202)" stroke="none" d="M 15550,25594 L 16486,25594 16486,26597 15550,26597 15550,25594 Z M 15557,25601 L 16479,25601 16479,26590 15557,26590 15557,25601 Z"/>
             <path fill="rgb(58,146,203)" stroke="none" d="M 15557,25601 L 16479,25601 16479,26590 15557,26590 15557,25601 Z M 15563,25608 L 16473,25608 16473,26583 15563,26583 15563,25608 Z"/>
             <path fill="rgb(59,147,203)" stroke="none" d="M 15563,25608 L 16473,25608 16473,26583 15563,26583 15563,25608 Z M 15570,25615 L 16466,25615 16466,26576 15570,26576 15570,25615 Z"/>
             <path fill="rgb(60,148,203)" stroke="none" d="M 15570,25615 L 16466,25615 16466,26576 15570,26576 15570,25615 Z M 15577,25622 L 16459,25622 16459,26569 15577,26569 15577,25622 Z"/>
             <path fill="rgb(61,148,203)" stroke="none" d="M 15577,25622 L 16459,25622 16459,26569 15577,26569 15577,25622 Z M 15583,25629 L 16453,25629 16453,26562 15583,26562 15583,25629 Z"/>
             <path fill="rgb(62,149,204)" stroke="none" d="M 15583,25629 L 16453,25629 16453,26562 15583,26562 15583,25629 Z M 15590,25637 L 16446,25637 16446,26554 15590,26554 15590,25637 Z"/>
             <path fill="rgb(63,149,204)" stroke="none" d="M 15590,25637 L 16446,25637 16446,26554 15590,26554 15590,25637 Z M 15597,25644 L 16439,25644 16439,26547 15597,26547 15597,25644 Z"/>
             <path fill="rgb(64,150,204)" stroke="none" d="M 15597,25644 L 16439,25644 16439,26547 15597,26547 15597,25644 Z M 15604,25651 L 16432,25651 16432,26540 15604,26540 15604,25651 Z"/>
             <path fill="rgb(65,150,204)" stroke="none" d="M 15604,25651 L 16432,25651 16432,26540 15604,26540 15604,25651 Z M 15610,25658 L 16426,25658 16426,26533 15610,26533 15610,25658 Z"/>
             <path fill="rgb(66,151,205)" stroke="none" d="M 15610,25658 L 16426,25658 16426,26533 15610,26533 15610,25658 Z M 15617,25665 L 16419,25665 16419,26526 15617,26526 15617,25665 Z"/>
             <path fill="rgb(67,151,205)" stroke="none" d="M 15617,25665 L 16419,25665 16419,26526 15617,26526 15617,25665 Z M 15624,25673 L 16412,25673 16412,26518 15624,26518 15624,25673 Z"/>
             <path fill="rgb(68,152,205)" stroke="none" d="M 15624,25673 L 16412,25673 16412,26518 15624,26518 15624,25673 Z M 15630,25680 L 16406,25680 16406,26511 15630,26511 15630,25680 Z"/>
             <path fill="rgb(69,153,205)" stroke="none" d="M 15630,25680 L 16406,25680 16406,26511 15630,26511 15630,25680 Z M 15637,25687 L 16399,25687 16399,26504 15637,26504 15637,25687 Z"/>
             <path fill="rgb(70,153,206)" stroke="none" d="M 15637,25687 L 16399,25687 16399,26504 15637,26504 15637,25687 Z M 15644,25694 L 16392,25694 16392,26497 15644,26497 15644,25694 Z"/>
             <path fill="rgb(71,154,206)" stroke="none" d="M 15644,25694 L 16392,25694 16392,26497 15644,26497 15644,25694 Z M 15650,25701 L 16386,25701 16386,26490 15650,26490 15650,25701 Z"/>
             <path fill="rgb(72,154,206)" stroke="none" d="M 15650,25701 L 16386,25701 16386,26490 15650,26490 15650,25701 Z M 15657,25708 L 16379,25708 16379,26483 15657,26483 15657,25708 Z"/>
             <path fill="rgb(73,155,206)" stroke="none" d="M 15657,25708 L 16379,25708 16379,26483 15657,26483 15657,25708 Z M 15664,25716 L 16372,25716 16372,26475 15664,26475 15664,25716 Z"/>
             <path fill="rgb(74,155,207)" stroke="none" d="M 15664,25716 L 16372,25716 16372,26475 15664,26475 15664,25716 Z M 15670,25723 L 16366,25723 16366,26468 15670,26468 15670,25723 Z"/>
             <path fill="rgb(75,156,207)" stroke="none" d="M 15670,25723 L 16366,25723 16366,26468 15670,26468 15670,25723 Z M 15677,25730 L 16359,25730 16359,26461 15677,26461 15677,25730 Z"/>
             <path fill="rgb(76,156,207)" stroke="none" d="M 15677,25730 L 16359,25730 16359,26461 15677,26461 15677,25730 Z M 15684,25737 L 16352,25737 16352,26454 15684,26454 15684,25737 Z"/>
             <path fill="rgb(77,157,208)" stroke="none" d="M 15684,25737 L 16352,25737 16352,26454 15684,26454 15684,25737 Z M 15691,25744 L 16345,25744 16345,26447 15691,26447 15691,25744 Z"/>
             <path fill="rgb(78,157,208)" stroke="none" d="M 15691,25744 L 16345,25744 16345,26447 15691,26447 15691,25744 Z M 15697,25751 L 16339,25751 16339,26440 15697,26440 15697,25751 Z"/>
             <path fill="rgb(79,158,208)" stroke="none" d="M 15697,25751 L 16339,25751 16339,26440 15697,26440 15697,25751 Z M 15704,25759 L 16332,25759 16332,26432 15704,26432 15704,25759 Z"/>
             <path fill="rgb(80,159,208)" stroke="none" d="M 15704,25759 L 16332,25759 16332,26432 15704,26432 15704,25759 Z M 15711,25766 L 16325,25766 16325,26425 15711,26425 15711,25766 Z"/>
             <path fill="rgb(81,159,209)" stroke="none" d="M 15711,25766 L 16325,25766 16325,26425 15711,26425 15711,25766 Z M 15717,25773 L 16319,25773 16319,26418 15717,26418 15717,25773 Z"/>
             <path fill="rgb(82,160,209)" stroke="none" d="M 15717,25773 L 16319,25773 16319,26418 15717,26418 15717,25773 Z M 15724,25780 L 16312,25780 16312,26411 15724,26411 15724,25780 Z"/>
             <path fill="rgb(83,160,209)" stroke="none" d="M 15724,25780 L 16312,25780 16312,26411 15724,26411 15724,25780 Z M 15731,25787 L 16305,25787 16305,26404 15731,26404 15731,25787 Z"/>
             <path fill="rgb(84,161,209)" stroke="none" d="M 15731,25787 L 16305,25787 16305,26404 15731,26404 15731,25787 Z M 15737,25795 L 16299,25795 16299,26396 15737,26396 15737,25795 Z"/>
             <path fill="rgb(85,161,210)" stroke="none" d="M 15737,25795 L 16299,25795 16299,26396 15737,26396 15737,25795 Z M 15744,25802 L 16292,25802 16292,26389 15744,26389 15744,25802 Z"/>
             <path fill="rgb(86,162,210)" stroke="none" d="M 15744,25802 L 16292,25802 16292,26389 15744,26389 15744,25802 Z M 15751,25809 L 16285,25809 16285,26382 15751,26382 15751,25809 Z"/>
             <path fill="rgb(87,162,210)" stroke="none" d="M 15751,25809 L 16285,25809 16285,26382 15751,26382 15751,25809 Z M 15757,25816 L 16279,25816 16279,26375 15757,26375 15757,25816 Z"/>
             <path fill="rgb(88,163,210)" stroke="none" d="M 15757,25816 L 16279,25816 16279,26375 15757,26375 15757,25816 Z M 15764,25823 L 16272,25823 16272,26368 15764,26368 15764,25823 Z"/>
             <path fill="rgb(89,164,211)" stroke="none" d="M 15764,25823 L 16272,25823 16272,26368 15764,26368 15764,25823 Z M 15771,25830 L 16265,25830 16265,26361 15771,26361 15771,25830 Z"/>
             <path fill="rgb(90,164,211)" stroke="none" d="M 15771,25830 L 16265,25830 16265,26361 15771,26361 15771,25830 Z M 15778,25838 L 16258,25838 16258,26353 15778,26353 15778,25838 Z"/>
             <path fill="rgb(91,165,211)" stroke="none" d="M 15778,25838 L 16258,25838 16258,26353 15778,26353 15778,25838 Z M 15784,25845 L 16252,25845 16252,26346 15784,26346 15784,25845 Z"/>
             <path fill="rgb(92,165,211)" stroke="none" d="M 15784,25845 L 16252,25845 16252,26346 15784,26346 15784,25845 Z M 15791,25852 L 16245,25852 16245,26339 15791,26339 15791,25852 Z"/>
             <path fill="rgb(93,166,212)" stroke="none" d="M 15791,25852 L 16245,25852 16245,26339 15791,26339 15791,25852 Z M 15798,25859 L 16238,25859 16238,26332 15798,26332 15798,25859 Z"/>
             <path fill="rgb(94,166,212)" stroke="none" d="M 15798,25859 L 16238,25859 16238,26332 15798,26332 15798,25859 Z M 15804,25866 L 16232,25866 16232,26325 15804,26325 15804,25866 Z"/>
             <path fill="rgb(95,167,212)" stroke="none" d="M 15804,25866 L 16232,25866 16232,26325 15804,26325 15804,25866 Z M 15811,25874 L 16225,25874 16225,26317 15811,26317 15811,25874 Z"/>
             <path fill="rgb(96,167,212)" stroke="none" d="M 15811,25874 L 16225,25874 16225,26317 15811,26317 15811,25874 Z M 15818,25881 L 16218,25881 16218,26310 15818,26310 15818,25881 Z"/>
             <path fill="rgb(97,168,213)" stroke="none" d="M 15818,25881 L 16218,25881 16218,26310 15818,26310 15818,25881 Z M 15824,25888 L 16212,25888 16212,26303 15824,26303 15824,25888 Z"/>
             <path fill="rgb(98,169,213)" stroke="none" d="M 15824,25888 L 16212,25888 16212,26303 15824,26303 15824,25888 Z M 15831,25895 L 16205,25895 16205,26296 15831,26296 15831,25895 Z"/>
             <path fill="rgb(99,169,213)" stroke="none" d="M 15831,25895 L 16205,25895 16205,26296 15831,26296 15831,25895 Z M 15838,25902 L 16198,25902 16198,26289 15838,26289 15838,25902 Z"/>
             <path fill="rgb(100,170,213)" stroke="none" d="M 15838,25902 L 16198,25902 16198,26289 15838,26289 15838,25902 Z M 15844,25909 L 16192,25909 16192,26282 15844,26282 15844,25909 Z"/>
             <path fill="rgb(101,170,214)" stroke="none" d="M 15844,25909 L 16192,25909 16192,26282 15844,26282 15844,25909 Z M 15851,25917 L 16185,25917 16185,26274 15851,26274 15851,25917 Z"/>
             <path fill="rgb(102,171,214)" stroke="none" d="M 15851,25917 L 16185,25917 16185,26274 15851,26274 15851,25917 Z M 15858,25924 L 16178,25924 16178,26267 15858,26267 15858,25924 Z"/>
             <path fill="rgb(103,171,214)" stroke="none" d="M 15858,25924 L 16178,25924 16178,26267 15858,26267 15858,25924 Z M 15865,25931 L 16171,25931 16171,26260 15865,26260 15865,25931 Z"/>
             <path fill="rgb(104,172,215)" stroke="none" d="M 15865,25931 L 16171,25931 16171,26260 15865,26260 15865,25931 Z M 15871,25938 L 16165,25938 16165,26253 15871,26253 15871,25938 Z"/>
             <path fill="rgb(105,172,215)" stroke="none" d="M 15871,25938 L 16165,25938 16165,26253 15871,26253 15871,25938 Z M 15878,25945 L 16158,25945 16158,26246 15878,26246 15878,25945 Z"/>
             <path fill="rgb(106,173,215)" stroke="none" d="M 15878,25945 L 16158,25945 16158,26246 15878,26246 15878,25945 Z M 15885,25952 L 16151,25952 16151,26239 15885,26239 15885,25952 Z"/>
             <path fill="rgb(107,173,215)" stroke="none" d="M 15885,25952 L 16151,25952 16151,26239 15885,26239 15885,25952 Z M 15891,25960 L 16145,25960 16145,26231 15891,26231 15891,25960 Z"/>
             <path fill="rgb(108,174,216)" stroke="none" d="M 15891,25960 L 16145,25960 16145,26231 15891,26231 15891,25960 Z M 15898,25967 L 16138,25967 16138,26224 15898,26224 15898,25967 Z"/>
             <path fill="rgb(109,175,216)" stroke="none" d="M 15898,25967 L 16138,25967 16138,26224 15898,26224 15898,25967 Z M 15905,25974 L 16131,25974 16131,26217 15905,26217 15905,25974 Z"/>
             <path fill="rgb(110,175,216)" stroke="none" d="M 15905,25974 L 16131,25974 16131,26217 15905,26217 15905,25974 Z M 15911,25981 L 16125,25981 16125,26210 15911,26210 15911,25981 Z"/>
             <path fill="rgb(111,176,216)" stroke="none" d="M 15911,25981 L 16125,25981 16125,26210 15911,26210 15911,25981 Z M 15918,25988 L 16118,25988 16118,26203 15918,26203 15918,25988 Z"/>
             <path fill="rgb(112,176,217)" stroke="none" d="M 15918,25988 L 16118,25988 16118,26203 15918,26203 15918,25988 Z M 15925,25996 L 16111,25996 16111,26195 15925,26195 15925,25996 Z"/>
             <path fill="rgb(113,177,217)" stroke="none" d="M 15925,25996 L 16111,25996 16111,26195 15925,26195 15925,25996 Z M 15931,26003 L 16105,26003 16105,26188 15931,26188 15931,26003 Z"/>
             <path fill="rgb(114,177,217)" stroke="none" d="M 15931,26003 L 16105,26003 16105,26188 15931,26188 15931,26003 Z M 15938,26010 L 16098,26010 16098,26181 15938,26181 15938,26010 Z"/>
             <path fill="rgb(115,178,217)" stroke="none" d="M 15938,26010 L 16098,26010 16098,26181 15938,26181 15938,26010 Z M 15945,26017 L 16091,26017 16091,26174 15945,26174 15945,26017 Z"/>
             <path fill="rgb(116,178,218)" stroke="none" d="M 15945,26017 L 16091,26017 16091,26174 15945,26174 15945,26017 Z M 15952,26024 L 16084,26024 16084,26167 15952,26167 15952,26024 Z"/>
             <path fill="rgb(117,179,218)" stroke="none" d="M 15952,26024 L 16084,26024 16084,26167 15952,26167 15952,26024 Z M 15958,26031 L 16078,26031 16078,26160 15958,26160 15958,26031 Z"/>
             <path fill="rgb(118,180,218)" stroke="none" d="M 15958,26031 L 16078,26031 16078,26160 15958,26160 15958,26031 Z M 15965,26039 L 16071,26039 16071,26152 15965,26152 15965,26039 Z"/>
             <path fill="rgb(119,180,218)" stroke="none" d="M 15965,26039 L 16071,26039 16071,26152 15965,26152 15965,26039 Z M 15972,26046 L 16064,26046 16064,26145 15972,26145 15972,26046 Z"/>
             <path fill="rgb(120,181,219)" stroke="none" d="M 15972,26046 L 16064,26046 16064,26145 15972,26145 15972,26046 Z M 15978,26053 L 16058,26053 16058,26138 15978,26138 15978,26053 Z"/>
             <path fill="rgb(121,181,219)" stroke="none" d="M 15978,26053 L 16058,26053 16058,26138 15978,26138 15978,26053 Z M 15985,26060 L 16051,26060 16051,26131 15985,26131 15985,26060 Z"/>
             <path fill="rgb(122,182,219)" stroke="none" d="M 15985,26060 L 16051,26060 16051,26131 15985,26131 15985,26060 Z M 15992,26067 L 16044,26067 16044,26124 15992,26124 15992,26067 Z"/>
             <path fill="rgb(123,182,219)" stroke="none" d="M 15992,26067 L 16044,26067 16044,26124 15992,26124 15992,26067 Z M 15998,26074 L 16038,26074 16038,26117 15998,26117 15998,26074 Z"/>
             <path fill="rgb(124,183,220)" stroke="none" d="M 15998,26074 L 16038,26074 16038,26117 15998,26117 15998,26074 Z M 16005,26082 L 16031,26082 16031,26109 16005,26109 16005,26082 Z"/>
             <path fill="rgb(125,183,220)" stroke="none" d="M 16005,26082 L 16031,26082 16031,26109 16005,26109 16005,26082 Z M 16012,26089 L 16024,26089 16024,26102 16012,26102 16012,26089 Z"/>
             <path fill="rgb(127,185,221)" stroke="none" d="M 16012,26089 L 16024,26089 16024,26102 16012,26102 16012,26089 Z"/>
            </g>
           </pattern>
          </defs>
          <path style="fill:url(#pattern1)" d="M 15510,27371 L 15510,26531 17207,25551 17207,26391 15510,27371 Z"/>
         </g>
         <path fill="none" stroke="rgb(255,255,255)" stroke-width="40" stroke-linejoin="round" d="M 15510,27371 L 15510,26531 17207,25551 17207,26391 15510,27371 Z"/>
        </g>
       </g>
       <g class="com.sun.star.drawing.PolyPolygonShape">
        <g id="id6">
         <rect class="BoundingBox" stroke="none" fill="none" x="13792" y="24551" width="3436" height="2002"/>
         <g>
          <defs>
           <linearGradient id="gradient2" x1="15509" y1="24571" x2="15509" y2="26531" gradientUnits="userSpaceOnUse">
            <stop offset="0.1" style="stop-color:rgb(0,115,188)"/>
            <stop offset="1" style="stop-color:rgb(127,185,221)"/>
           </linearGradient>
          </defs>
          <path style="fill:url(#gradient2)" d="M 15510,26531 L 13812,25551 15510,24571 17207,25551 15510,26531 Z"/>
         </g>
         <path fill="none" stroke="rgb(255,255,255)" stroke-width="40" stroke-linejoin="round" d="M 15510,26531 L 13812,25551 15510,24571 17207,25551 15510,26531 Z"/>
        </g>
       </g>
       <g class="com.sun.star.drawing.PolyPolygonShape">
        <g id="id7">
         <rect class="BoundingBox" stroke="none" fill="none" x="13792" y="24551" width="3436" height="2841"/>
         <path fill="none" stroke="rgb(0,0,0)" stroke-width="40" stroke-linejoin="round" d="M 13812,26391 L 13812,25551 15510,24571 17207,25551 17207,26391 15510,27371 13812,26391 Z"/>
        </g>
       </g>
       <g class="com.sun.star.drawing.PolyLineShape">
        <g id="id8">
         <rect class="BoundingBox" stroke="none" fill="none" x="15247" y="25391" width="1739" height="1022"/>
         <path fill="none" stroke="rgb(255,255,255)" stroke-width="40" stroke-linejoin="round" d="M 16965,25551 L 16722,25551 16237,25411 15995,25411 15995,25551 16237,25831 16236,25971 15994,25971 15509,25831 15267,25831 15267,25971 15510,26251 15510,26391"/>
        </g>
       </g>
       <g class="com.sun.star.drawing.PolyLineShape">
        <g id="id9">
         <rect class="BoundingBox" stroke="none" fill="none" x="14883" y="25181" width="1739" height="1022"/>
         <path fill="none" stroke="rgb(255,255,255)" stroke-width="40" stroke-linejoin="round" d="M 16358,25201 L 16358,25341 16601,25621 16601,25761 16358,25761 15873,25621 15631,25621 15631,25761 15873,26041 15873,26181 15631,26181 15146,26041 14903,26041"/>
        </g>
       </g>
       <g class="com.sun.star.drawing.PolyLineShape">
        <g id="id10">
         <rect class="BoundingBox" stroke="none" fill="none" x="14398" y="24901" width="1739" height="1022"/>
         <path fill="none" stroke="rgb(255,255,255)" stroke-width="40" stroke-linejoin="round" d="M 16116,25061 L 15873,25061 15388,24921 15146,24921 15146,25061 15388,25341 15387,25481 15145,25481 14660,25341 14418,25341 14418,25481 14661,25761 14661,25901"/>
        </g>
       </g>
       <g class="com.sun.star.drawing.PolyLineShape">
        <g id="id11">
         <rect class="BoundingBox" stroke="none" fill="none" x="14034" y="24691" width="1739" height="1022"/>
         <path fill="none" stroke="rgb(255,255,255)" stroke-width="40" stroke-linejoin="round" d="M 15509,24711 L 15509,24851 15752,25131 15752,25271 15509,25271 15024,25131 14782,25131 14782,25271 15024,25551 15024,25691 14782,25691 14297,25551 14054,25551"/>
        </g>
       </g>
      </g>
     </g>
    </g>
   </g>
  </g>
 </g>
</svg>