<?xml version="1.0" encoding="UTF-8"?>
<!DOCTYPE svg PUBLIC "-//W3C//DTD SVG 1.1//EN" "http://www.w3.org/Graphics/SVG/1.1/DTD/svg11.dtd">
<svg version="1.2" width="35.37mm" height="37.29mm" viewBox="4001 14951 3537 3729" preserveAspectRatio="xMidYMid" fill-rule="evenodd" stroke-width="28.222" stroke-linejoin="round" xmlns="http://www.w3.org/2000/svg" xmlns:ooo="http://xml.openoffice.org/svg/export" xmlns:xlink="http://www.w3.org/1999/xlink" xmlns:presentation="http://sun.com/xmlns/staroffice/presentation" xmlns:smil="http://www.w3.org/2001/SMIL20/" xmlns:anim="urn:oasis:names:tc:opendocument:xmlns:animation:1.0" xml:space="preserve">
 <defs class="ClipPathGroup">
  <clipPath id="presentation_clip_path" clipPathUnits="userSpaceOnUse">
   <rect x="4001" y="14951" width="3537" height="3729"/>
  </clipPath>
 </defs>
 <defs class="TextShapeIndex">
  <g ooo:slide="id1" ooo:id-list="id3 id4 id5 id6 id7 id8 id9 id10"/>
 </defs>
 <defs class="EmbeddedBulletChars">
  <g id="bullet-char-template(57356)" transform="scale(0.00048828125,-0.00048828125)">
   <path d="M 580,1141 L 1163,571 580,0 -4,571 580,1141 Z"/>
  </g>
  <g id="bullet-char-template(57354)" transform="scale(0.00048828125,-0.00048828125)">
   <path d="M 8,1128 L 1137,1128 1137,0 8,0 8,1128 Z"/>
  </g>
  <g id="bullet-char-template(10146)" transform="scale(0.00048828125,-0.00048828125)">
   <path d="M 174,0 L 602,739 174,1481 1456,739 174,0 Z M 1358,739 L 309,1346 659,739 1358,739 Z"/>
  </g>
  <g id="bullet-char-template(10132)" transform="scale(0.00048828125,-0.00048828125)">
   <path d="M 2015,739 L 1276,0 717,0 1260,543 174,543 174,936 1260,936 717,1481 1274,1481 2015,739 Z"/>
  </g>
  <g id="bullet-char-template(10007)" transform="scale(0.00048828125,-0.00048828125)">
   <path d="M 0,-2 C -7,14 -16,27 -25,37 L 356,567 C 262,823 215,952 215,954 215,979 228,992 255,992 264,992 276,990 289,987 310,991 331,999 354,1012 L 381,999 492,748 772,1049 836,1024 860,1049 C 881,1039 901,1025 922,1006 886,937 835,863 770,784 769,783 710,716 594,584 L 774,223 C 774,196 753,168 711,139 L 727,119 C 717,90 699,76 672,76 641,76 570,178 457,381 L 164,-76 C 142,-110 111,-127 72,-127 30,-127 9,-110 8,-76 1,-67 -2,-52 -2,-32 -2,-23 -1,-13 0,-2 Z"/>
  </g>
  <g id="bullet-char-template(10004)" transform="scale(0.00048828125,-0.00048828125)">
   <path d="M 285,-33 C 182,-33 111,30 74,156 52,228 41,333 41,471 41,549 55,616 82,672 116,743 169,778 240,778 293,778 328,747 346,684 L 369,508 C 377,444 397,411 428,410 L 1163,1116 C 1174,1127 1196,1133 1229,1133 1271,1133 1292,1118 1292,1087 L 1292,965 C 1292,929 1282,901 1262,881 L 442,47 C 390,-6 338,-33 285,-33 Z"/>
  </g>
  <g id="bullet-char-template(9679)" transform="scale(0.00048828125,-0.00048828125)">
   <path d="M 813,0 C 632,0 489,54 383,161 276,268 223,411 223,592 223,773 276,916 383,1023 489,1130 632,1184 813,1184 992,1184 1136,1130 1245,1023 1353,916 1407,772 1407,592 1407,412 1353,268 1245,161 1136,54 992,0 813,0 Z"/>
  </g>
  <g id="bullet-char-template(8226)" transform="scale(0.00048828125,-0.00048828125)">
   <path d="M 346,457 C 273,457 209,483 155,535 101,586 74,649 74,723 74,796 101,859 155,911 209,963 273,989 346,989 419,989 480,963 531,910 582,859 608,796 608,723 608,648 583,586 532,535 482,483 420,457 346,457 Z"/>
  </g>
  <g id="bullet-char-template(8211)" transform="scale(0.00048828125,-0.00048828125)">
   <path d="M -4,459 L 1135,459 1135,606 -4,606 -4,459 Z"/>
  </g>
 </defs>
 <defs class="TextEmbeddedBitmaps"/>
 <g class="SlideGroup">
  <g>
   <g id="id1" class="Slide" clip-path="url(#presentation_clip_path)">
    <g class="Page">
     <g class="Group">
      <g class="com.sun.star.drawing.ClosedBezierShape">
       <g id="id3">
        <rect class="BoundingBox" stroke="none" fill="none" x="5973" y="17680" width="1566" height="981"/>
        <path fill="rgb(221,221,221)" stroke="none" d="M 5974,18659 C 6332,18659 7537,18283 7537,17982 7537,17681 7406,17681 7276,17681 7276,17907 5974,18358 5974,18659 Z"/>
        <path fill="none" stroke="rgb(221,221,221)" d="M 5974,18659 C 6332,18659 7537,18283 7537,17982 7537,17681 7406,17681 7276,17681 7276,17907 5974,18358 5974,18659 Z"/>
       </g>
      </g>
      <g class="Group">
       <g class="com.sun.star.drawing.PolyPolygonShape">
        <g id="id4">
         <rect class="BoundingBox" stroke="none" fill="none" x="5954" y="17360" width="1343" height="1321"/>
         <g>
          <defs>
           <pattern id="pattern1" x="5974" y="17380" width="1303" height="1281" patternUnits="userSpaceOnUse">
            <g transform="translate(-5974,-17380)">
             <path fill="rgb(179,179,179)" stroke="none" d="M 5973,17379 L 7277,17379 7277,18661 5973,18661 5973,17379 Z M 5726,17135 L 7002,17135 7002,18391 5726,18391 5726,17135 Z"/>
             <path fill="rgb(180,180,180)" stroke="none" d="M 5726,17135 L 7002,17135 7002,18391 5726,18391 5726,17135 Z M 5739,17148 L 6989,17148 6989,18378 5739,18378 5739,17148 Z"/>
             <path fill="rgb(181,181,181)" stroke="none" d="M 5739,17148 L 6989,17148 6989,18378 5739,18378 5739,17148 Z M 5752,17161 L 6976,17161 6976,18365 5752,18365 5752,17161 Z"/>
             <path fill="rgb(182,182,182)" stroke="none" d="M 5752,17161 L 6976,17161 6976,18365 5752,18365 5752,17161 Z M 5765,17174 L 6963,17174 6963,18352 5765,18352 5765,17174 Z"/>
             <path fill="rgb(183,183,183)" stroke="none" d="M 5765,17174 L 6963,17174 6963,18352 5765,18352 5765,17174 Z M 5778,17187 L 6950,17187 6950,18339 5778,18339 5778,17187 Z"/>
             <path fill="rgb(184,184,184)" stroke="none" d="M 5778,17187 L 6950,17187 6950,18339 5778,18339 5778,17187 Z M 5791,17199 L 6937,17199 6937,18327 5791,18327 5791,17199 Z"/>
             <path fill="rgb(185,185,185)" stroke="none" d="M 5791,17199 L 6937,17199 6937,18327 5791,18327 5791,17199 Z M 5804,17212 L 6924,17212 6924,18314 5804,18314 5804,17212 Z"/>
             <path fill="rgb(186,186,186)" stroke="none" d="M 5804,17212 L 6924,17212 6924,18314 5804,18314 5804,17212 Z M 5817,17225 L 6911,17225 6911,18301 5817,18301 5817,17225 Z"/>
             <path fill="rgb(187,187,187)" stroke="none" d="M 5817,17225 L 6911,17225 6911,18301 5817,18301 5817,17225 Z M 5830,17238 L 6898,17238 6898,18288 5830,18288 5830,17238 Z"/>
             <path fill="rgb(188,188,188)" stroke="none" d="M 5830,17238 L 6898,17238 6898,18288 5830,18288 5830,17238 Z M 5843,17251 L 6885,17251 6885,18275 5843,18275 5843,17251 Z"/>
             <path fill="rgb(189,189,189)" stroke="none" d="M 5843,17251 L 6885,17251 6885,18275 5843,18275 5843,17251 Z M 5856,17264 L 6872,17264 6872,18262 5856,18262 5856,17264 Z"/>
             <path fill="rgb(190,190,190)" stroke="none" d="M 5856,17264 L 6872,17264 6872,18262 5856,18262 5856,17264 Z M 5869,17276 L 6859,17276 6859,18250 5869,18250 5869,17276 Z"/>
             <path fill="rgb(191,191,191)" stroke="none" d="M 5869,17276 L 6859,17276 6859,18250 5869,18250 5869,17276 Z M 5882,17289 L 6846,17289 6846,18237 5882,18237 5882,17289 Z"/>
             <path fill="rgb(192,192,192)" stroke="none" d="M 5882,17289 L 6846,17289 6846,18237 5882,18237 5882,17289 Z M 5895,17302 L 6833,17302 6833,18224 5895,18224 5895,17302 Z"/>
             <path fill="rgb(193,193,193)" stroke="none" d="M 5895,17302 L 6833,17302 6833,18224 5895,18224 5895,17302 Z M 5908,17315 L 6820,17315 6820,18211 5908,18211 5908,17315 Z"/>
             <path fill="rgb(194,194,194)" stroke="none" d="M 5908,17315 L 6820,17315 6820,18211 5908,18211 5908,17315 Z M 5921,17328 L 6807,17328 6807,18198 5921,18198 5921,17328 Z"/>
             <path fill="rgb(195,195,195)" stroke="none" d="M 5921,17328 L 6807,17328 6807,18198 5921,18198 5921,17328 Z M 5934,17341 L 6794,17341 6794,18185 5934,18185 5934,17341 Z"/>
             <path fill="rgb(196,196,196)" stroke="none" d="M 5934,17341 L 6794,17341 6794,18185 5934,18185 5934,17341 Z M 5947,17353 L 6781,17353 6781,18173 5947,18173 5947,17353 Z"/>
             <path fill="rgb(197,197,197)" stroke="none" d="M 5947,17353 L 6781,17353 6781,18173 5947,18173 5947,17353 Z M 5959,17365 L 6768,17365 6768,18160 5959,18160 5959,17365 Z"/>
             <path fill="rgb(198,198,198)" stroke="none" d="M 5959,17365 L 6768,17365 6768,18160 5959,18160 5959,17365 Z M 5973,17378 L 6755,17378 6755,18147 5973,18147 5973,17378 Z"/>
             <path fill="rgb(199,199,199)" stroke="none" d="M 5973,17378 L 6755,17378 6755,18147 5973,18147 5973,17378 Z M 5986,17391 L 6741,17391 6741,18134 5986,18134 5986,17391 Z"/>
             <path fill="rgb(200,200,200)" stroke="none" d="M 5986,17391 L 6741,17391 6741,18134 5986,18134 5986,17391 Z M 5999,17404 L 6728,17404 6728,18121 5999,18121 5999,17404 Z"/>
             <path fill="rgb(201,201,201)" stroke="none" d="M 5999,17404 L 6728,17404 6728,18121 5999,18121 5999,17404 Z M 6012,17417 L 6715,17417 6715,18108 6012,18108 6012,17417 Z"/>
             <path fill="rgb(202,202,202)" stroke="none" d="M 6012,17417 L 6715,17417 6715,18108 6012,18108 6012,17417 Z M 6025,17429 L 6702,17429 6702,18096 6025,18096 6025,17429 Z"/>
             <path fill="rgb(203,203,203)" stroke="none" d="M 6025,17429 L 6702,17429 6702,18096 6025,18096 6025,17429 Z M 6038,17442 L 6689,17442 6689,18083 6038,18083 6038,17442 Z"/>
             <path fill="rgb(204,204,204)" stroke="none" d="M 6038,17442 L 6689,17442 6689,18083 6038,18083 6038,17442 Z M 6051,17455 L 6676,17455 6676,18070 6051,18070 6051,17455 Z"/>
             <path fill="rgb(205,205,205)" stroke="none" d="M 6051,17455 L 6676,17455 6676,18070 6051,18070 6051,17455 Z M 6064,17468 L 6663,17468 6663,18057 6064,18057 6064,17468 Z"/>
             <path fill="rgb(206,206,206)" stroke="none" d="M 6064,17468 L 6663,17468 6663,18057 6064,18057 6064,17468 Z M 6077,17481 L 6650,17481 6650,18044 6077,18044 6077,17481 Z"/>
             <path fill="rgb(207,207,207)" stroke="none" d="M 6077,17481 L 6650,17481 6650,18044 6077,18044 6077,17481 Z M 6090,17494 L 6637,17494 6637,18031 6090,18031 6090,17494 Z"/>
             <path fill="rgb(208,208,208)" stroke="none" d="M 6090,17494 L 6637,17494 6637,18031 6090,18031 6090,17494 Z M 6103,17506 L 6624,17506 6624,18019 6103,18019 6103,17506 Z"/>
             <path fill="rgb(209,209,209)" stroke="none" d="M 6103,17506 L 6624,17506 6624,18019 6103,18019 6103,17506 Z M 6116,17519 L 6611,17519 6611,18006 6116,18006 6116,17519 Z"/>
             <path fill="rgb(210,210,210)" stroke="none" d="M 6116,17519 L 6611,17519 6611,18006 6116,18006 6116,17519 Z M 6129,17532 L 6598,17532 6598,17993 6129,17993 6129,17532 Z"/>
             <path fill="rgb(211,211,211)" stroke="none" d="M 6129,17532 L 6598,17532 6598,17993 6129,17993 6129,17532 Z M 6142,17545 L 6585,17545 6585,17980 6142,17980 6142,17545 Z"/>
             <path fill="rgb(212,212,212)" stroke="none" d="M 6142,17545 L 6585,17545 6585,17980 6142,17980 6142,17545 Z M 6155,17558 L 6572,17558 6572,17967 6155,17967 6155,17558 Z"/>
             <path fill="rgb(213,213,213)" stroke="none" d="M 6155,17558 L 6572,17558 6572,17967 6155,17967 6155,17558 Z M 6168,17571 L 6559,17571 6559,17954 6168,17954 6168,17571 Z"/>
             <path fill="rgb(214,214,214)" stroke="none" d="M 6168,17571 L 6559,17571 6559,17954 6168,17954 6168,17571 Z M 6181,17583 L 6546,17583 6546,17942 6181,17942 6181,17583 Z"/>
             <path fill="rgb(215,215,215)" stroke="none" d="M 6181,17583 L 6546,17583 6546,17942 6181,17942 6181,17583 Z M 6194,17596 L 6533,17596 6533,17929 6194,17929 6194,17596 Z"/>
             <path fill="rgb(216,216,216)" stroke="none" d="M 6194,17596 L 6533,17596 6533,17929 6194,17929 6194,17596 Z M 6207,17609 L 6520,17609 6520,17916 6207,17916 6207,17609 Z"/>
             <path fill="rgb(217,217,217)" stroke="none" d="M 6207,17609 L 6520,17609 6520,17916 6207,17916 6207,17609 Z M 6220,17622 L 6507,17622 6507,17903 6220,17903 6220,17622 Z"/>
             <path fill="rgb(218,218,218)" stroke="none" d="M 6220,17622 L 6507,17622 6507,17903 6220,17903 6220,17622 Z M 6234,17635 L 6494,17635 6494,17890 6234,17890 6234,17635 Z"/>
             <path fill="rgb(219,219,219)" stroke="none" d="M 6234,17635 L 6494,17635 6494,17890 6234,17890 6234,17635 Z M 6247,17648 L 6480,17648 6480,17877 6247,17877 6247,17648 Z"/>
             <path fill="rgb(220,220,220)" stroke="none" d="M 6247,17648 L 6480,17648 6480,17877 6247,17877 6247,17648 Z M 6260,17660 L 6467,17660 6467,17865 6260,17865 6260,17660 Z"/>
             <path fill="rgb(221,221,221)" stroke="none" d="M 6260,17660 L 6467,17660 6467,17865 6260,17865 6260,17660 Z M 6273,17673 L 6454,17673 6454,17852 6273,17852 6273,17673 Z"/>
             <path fill="rgb(222,222,222)" stroke="none" d="M 6273,17673 L 6454,17673 6454,17852 6273,17852 6273,17673 Z M 6286,17686 L 6441,17686 6441,17839 6286,17839 6286,17686 Z"/>
             <path fill="rgb(223,223,223)" stroke="none" d="M 6286,17686 L 6441,17686 6441,17839 6286,17839 6286,17686 Z M 6299,17699 L 6428,17699 6428,17826 6299,17826 6299,17699 Z"/>
             <path fill="rgb(224,224,224)" stroke="none" d="M 6299,17699 L 6428,17699 6428,17826 6299,17826 6299,17699 Z M 6312,17712 L 6415,17712 6415,17813 6312,17813 6312,17712 Z"/>
             <path fill="rgb(225,225,225)" stroke="none" d="M 6312,17712 L 6415,17712 6415,17813 6312,17813 6312,17712 Z M 6325,17725 L 6402,17725 6402,17800 6325,17800 6325,17725 Z"/>
             <path fill="rgb(226,226,226)" stroke="none" d="M 6325,17725 L 6402,17725 6402,17800 6325,17800 6325,17725 Z M 6338,17737 L 6389,17737 6389,17788 6338,17788 6338,17737 Z"/>
             <path fill="rgb(227,227,227)" stroke="none" d="M 6338,17737 L 6389,17737 6389,17788 6338,17788 6338,17737 Z M 6351,17750 L 6376,17750 6376,17775 6351,17775 6351,17750 Z"/>
             <path fill="rgb(229,229,229)" stroke="none" d="M 6351,17750 L 6376,17750 6376,17775 6351,17775 6351,17750 Z"/>
            </g>
           </pattern>
          </defs>
          <path style="fill:url(#pattern1)" d="M 5974,18660 L 5974,18133 7276,17380 7276,17907 5974,18660 Z"/>
         </g>
         <path fill="none" stroke="rgb(255,255,255)" stroke-width="40" stroke-linejoin="round" d="M 5974,18660 L 5974,18133 7276,17380 7276,17907 5974,18660 Z"/>
        </g>
       </g>
       <g class="com.sun.star.drawing.PolyPolygonShape">
        <g id="id5">
         <rect class="BoundingBox" stroke="none" fill="none" x="4001" y="16230" width="3297" height="1924"/>
         <g>
          <defs>
           <linearGradient id="gradient1" x1="5648" y1="16251" x2="5648" y2="18133" gradientUnits="userSpaceOnUse">
            <stop offset="0.1" style="stop-color:rgb(179,179,179)"/>
            <stop offset="1" style="stop-color:rgb(229,229,229)"/>
           </linearGradient>
          </defs>
          <path style="fill:url(#gradient1)" d="M 5974,18133 L 4021,17004 5323,16251 7276,17380 5974,18133 Z"/>
         </g>
         <path fill="none" stroke="rgb(255,255,255)" stroke-width="40" stroke-linejoin="round" d="M 5974,18133 L 4021,17004 5323,16251 7276,17380 5974,18133 Z"/>
        </g>
       </g>
       <g class="com.sun.star.drawing.PolyPolygonShape">
        <g id="id6">
         <rect class="BoundingBox" stroke="none" fill="none" x="4001" y="16983" width="1994" height="1697"/>
         <g>
          <defs>
           <linearGradient id="gradient2" x1="4020" y1="17831" x2="5974" y2="17831" gradientUnits="userSpaceOnUse">
            <stop offset="0.1" style="stop-color:rgb(179,179,179)"/>
            <stop offset="1" style="stop-color:rgb(229,229,229)"/>
           </linearGradient>
          </defs>
          <path style="fill:url(#gradient2)" d="M 4021,17530 L 4021,17003 5974,18132 5974,18659 4021,17530 Z"/>
         </g>
         <path fill="none" stroke="rgb(255,255,255)" stroke-width="40" stroke-linejoin="round" d="M 4021,17530 L 4021,17003 5974,18132 5974,18659 4021,17530 Z"/>
        </g>
       </g>
       <g class="com.sun.star.drawing.PolyPolygonShape">
        <g id="id7">
         <rect class="BoundingBox" stroke="none" fill="none" x="4001" y="16231" width="3297" height="2450"/>
         <path fill="none" stroke="rgb(0,0,0)" stroke-width="40" stroke-linejoin="round" d="M 4021,17531 L 4021,17004 5323,16251 7276,17380 7276,17907 5974,18660 4021,17531 Z"/>
        </g>
       </g>
       <g class="com.sun.star.drawing.PolyPolygonShape">
        <g id="id8">
         <rect class="BoundingBox" stroke="none" fill="none" x="5564" y="18037" width="172" height="342"/>
         <path fill="rgb(209,97,108)" stroke="none" d="M 5584,18283 L 5584,18057 5714,18132 5714,18358 5584,18283 Z"/>
         <path fill="none" stroke="rgb(127,127,127)" stroke-width="40" stroke-linejoin="round" d="M 5584,18283 L 5584,18057 5714,18132 5714,18358 5584,18283 Z"/>
        </g>
       </g>
       <g class="com.sun.star.drawing.PolyPolygonShape">
        <g id="id9">
         <rect class="BoundingBox" stroke="none" fill="none" x="5433" y="14951" width="171" height="1471"/>
         <path fill="rgb(204,204,204)" stroke="none" d="M 5453,16326 L 5453,14971 5583,14971 5583,16401 5453,16326 Z"/>
         <path fill="none" stroke="rgb(0,0,0)" stroke-width="40" stroke-linejoin="round" d="M 5453,16326 L 5453,14971 5583,14971 5583,16401 5453,16326 Z"/>
        </g>
       </g>
       <g class="com.sun.star.drawing.PolyPolygonShape">
        <g id="id10">
         <rect class="BoundingBox" stroke="none" fill="none" x="6996" y="15854" width="171" height="1471"/>
         <path fill="rgb(204,204,204)" stroke="none" d="M 7016,17229 L 7016,15874 7146,15874 7146,17304 7016,17229 Z"/>
         <path fill="none" stroke="rgb(0,0,0)" stroke-width="40" stroke-linejoin="round" d="M 7016,17229 L 7016,15874 7146,15874 7146,17304 7016,17229 Z"/>
        </g>
       </g>
      </g>
     </g>
    </g>
   </g>
  </g>
 </g>
</svg>