<?xml version="1.0" encoding="UTF-8"?>
<!DOCTYPE svg PUBLIC "-//W3C//DTD SVG 1.1//EN" "http://www.w3.org/Graphics/SVG/1.1/DTD/svg11.dtd">
<svg version="1.2" width="28.09mm" height="32.63mm" viewBox="10179 8743 2809 3263" preserveAspectRatio="xMidYMid" fill-rule="evenodd" stroke-width="28.222" stroke-linejoin="round" xmlns="http://www.w3.org/2000/svg" xmlns:ooo="http://xml.openoffice.org/svg/export" xmlns:xlink="http://www.w3.org/1999/xlink" xmlns:presentation="http://sun.com/xmlns/staroffice/presentation" xmlns:smil="http://www.w3.org/2001/SMIL20/" xmlns:anim="urn:oasis:names:tc:opendocument:xmlns:animation:1.0" xml:space="preserve">
 <defs class="ClipPathGroup">
  <clipPath id="presentation_clip_path" clipPathUnits="userSpaceOnUse">
   <rect x="10179" y="8743" width="2809" height="3263"/>
  </clipPath>
 </defs>
 <defs class="TextShapeIndex">
  <g ooo:slide="id1" ooo:id-list="id3 id4 id5 id6 id7 id8 id9"/>
 </defs>
 <defs class="EmbeddedBulletChars">
  <g id="bullet-char-template(57356)" transform="scale(0.00048828125,-0.00048828125)">
   <path d="M 580,1141 L 1163,571 580,0 -4,571 580,1141 Z"/>
  </g>
  <g id="bullet-char-template(57354)" transform="scale(0.00048828125,-0.00048828125)">
   <path d="M 8,1128 L 1137,1128 1137,0 8,0 8,1128 Z"/>
  </g>
  <g id="bullet-char-template(10146)" transform="scale(0.00048828125,-0.00048828125)">
   <path d="M 174,0 L 602,739 174,1481 1456,739 174,0 Z M 1358,739 L 309,1346 659,739 1358,739 Z"/>
  </g>
  <g id="bullet-char-template(10132)" transform="scale(0.00048828125,-0.00048828125)">
   <path d="M 2015,739 L 1276,0 717,0 1260,543 174,543 174,936 1260,936 717,1481 1274,1481 2015,739 Z"/>
  </g>
  <g id="bullet-char-template(10007)" transform="scale(0.00048828125,-0.00048828125)">
   <path d="M 0,-2 C -7,14 -16,27 -25,37 L 356,567 C 262,823 215,952 215,954 215,979 228,992 255,992 264,992 276,990 289,987 310,991 331,999 354,1012 L 381,999 492,748 772,1049 836,1024 860,1049 C 881,1039 901,1025 922,1006 886,937 835,863 770,784 769,783 710,716 594,584 L 774,223 C 774,196 753,168 711,139 L 727,119 C 717,90 699,76 672,76 641,76 570,178 457,381 L 164,-76 C 142,-110 111,-127 72,-127 30,-127 9,-110 8,-76 1,-67 -2,-52 -2,-32 -2,-23 -1,-13 0,-2 Z"/>
  </g>
  <g id="bullet-char-template(10004)" transform="scale(0.00048828125,-0.00048828125)">
   <path d="M 285,-33 C 182,-33 111,30 74,156 52,228 41,333 41,471 41,549 55,616 82,672 116,743 169,778 240,778 293,778 328,747 346,684 L 369,508 C 377,444 397,411 428,410 L 1163,1116 C 1174,1127 1196,1133 1229,1133 1271,1133 1292,1118 1292,1087 L 1292,965 C 1292,929 1282,901 1262,881 L 442,47 C 390,-6 338,-33 285,-33 Z"/>
  </g>
  <g id="bullet-char-template(9679)" transform="scale(0.00048828125,-0.00048828125)">
   <path d="M 813,0 C 632,0 489,54 383,161 276,268 223,411 223,592 223,773 276,916 383,1023 489,1130 632,1184 813,1184 992,1184 1136,1130 1245,1023 1353,916 1407,772 1407,592 1407,412 1353,268 1245,161 1136,54 992,0 813,0 Z"/>
  </g>
  <g id="bullet-char-template(8226)" transform="scale(0.00048828125,-0.00048828125)">
   <path d="M 346,457 C 273,457 209,483 155,535 101,586 74,649 74,723 74,796 101,859 155,911 209,963 273,989 346,989 419,989 480,963 531,910 582,859 608,796 608,723 608,648 583,586 532,535 482,483 420,457 346,457 Z"/>
  </g>
  <g id="bullet-char-template(8211)" transform="scale(0.00048828125,-0.00048828125)">
   <path d="M -4,459 L 1135,459 1135,606 -4,606 -4,459 Z"/>
  </g>
 </defs>
 <defs class="TextEmbeddedBitmaps"/>
 <g class="SlideGroup">
  <g>
   <g id="id1" class="Slide" clip-path="url(#presentation_clip_path)">
    <g class="Page">
     <g class="Group">
      <g class="com.sun.star.drawing.ClosedBezierShape">
       <g id="id3">
        <rect class="BoundingBox" stroke="none" fill="none" x="11174" y="10857" width="1815" height="1131"/>
        <path fill="rgb(221,221,221)" stroke="none" d="M 11175,11986 C 11558,11986 12987,11583 12987,11261 12987,10939 12848,10858 12569,10858 12569,11100 11175,11663 11175,11986 Z"/>
        <path fill="none" stroke="rgb(221,221,221)" d="M 11175,11986 C 11558,11986 12987,11583 12987,11261 12987,10939 12848,10858 12569,10858 12569,11100 11175,11663 11175,11986 Z"/>
       </g>
      </g>
      <g class="Group">
       <g class="com.sun.star.drawing.PolyPolygonShape">
        <g id="id4">
         <rect class="BoundingBox" stroke="none" fill="none" x="11155" y="10595" width="1436" height="1412"/>
         <g>
          <defs>
           <pattern id="pattern1" x="11175" y="10616" width="1395" height="1371" patternUnits="userSpaceOnUse">
            <g transform="translate(-11175,-10616)">
             <path fill="rgb(179,179,179)" stroke="none" d="M 11174,10615 L 12570,10615 12570,11987 11174,11987 11174,10615 Z M 10909,10354 L 12277,10354 12277,11698 10909,11698 10909,10354 Z"/>
             <path fill="rgb(180,180,180)" stroke="none" d="M 10909,10354 L 12277,10354 12277,11698 10909,11698 10909,10354 Z M 10923,10368 L 12263,10368 12263,11684 10923,11684 10923,10368 Z"/>
             <path fill="rgb(181,181,181)" stroke="none" d="M 10923,10368 L 12263,10368 12263,11684 10923,11684 10923,10368 Z M 10937,10382 L 12249,10382 12249,11670 10937,11670 10937,10382 Z"/>
             <path fill="rgb(182,182,182)" stroke="none" d="M 10937,10382 L 12249,10382 12249,11670 10937,11670 10937,10382 Z M 10951,10395 L 12235,10395 12235,11657 10951,11657 10951,10395 Z"/>
             <path fill="rgb(183,183,183)" stroke="none" d="M 10951,10395 L 12235,10395 12235,11657 10951,11657 10951,10395 Z M 10965,10409 L 12221,10409 12221,11643 10965,11643 10965,10409 Z"/>
             <path fill="rgb(184,184,184)" stroke="none" d="M 10965,10409 L 12221,10409 12221,11643 10965,11643 10965,10409 Z M 10979,10423 L 12207,10423 12207,11629 10979,11629 10979,10423 Z"/>
             <path fill="rgb(185,185,185)" stroke="none" d="M 10979,10423 L 12207,10423 12207,11629 10979,11629 10979,10423 Z M 10993,10437 L 12193,10437 12193,11615 10993,11615 10993,10437 Z"/>
             <path fill="rgb(186,186,186)" stroke="none" d="M 10993,10437 L 12193,10437 12193,11615 10993,11615 10993,10437 Z M 11007,10450 L 12179,10450 12179,11602 11007,11602 11007,10450 Z"/>
             <path fill="rgb(187,187,187)" stroke="none" d="M 11007,10450 L 12179,10450 12179,11602 11007,11602 11007,10450 Z M 11021,10464 L 12165,10464 12165,11588 11021,11588 11021,10464 Z"/>
             <path fill="rgb(188,188,188)" stroke="none" d="M 11021,10464 L 12165,10464 12165,11588 11021,11588 11021,10464 Z M 11035,10478 L 12151,10478 12151,11574 11035,11574 11035,10478 Z"/>
             <path fill="rgb(189,189,189)" stroke="none" d="M 11035,10478 L 12151,10478 12151,11574 11035,11574 11035,10478 Z M 11049,10492 L 12137,10492 12137,11560 11049,11560 11049,10492 Z"/>
             <path fill="rgb(190,190,190)" stroke="none" d="M 11049,10492 L 12137,10492 12137,11560 11049,11560 11049,10492 Z M 11063,10505 L 12123,10505 12123,11547 11063,11547 11063,10505 Z"/>
             <path fill="rgb(191,191,191)" stroke="none" d="M 11063,10505 L 12123,10505 12123,11547 11063,11547 11063,10505 Z M 11077,10519 L 12109,10519 12109,11533 11077,11533 11077,10519 Z"/>
             <path fill="rgb(192,192,192)" stroke="none" d="M 11077,10519 L 12109,10519 12109,11533 11077,11533 11077,10519 Z M 11091,10533 L 12095,10533 12095,11519 11091,11519 11091,10533 Z"/>
             <path fill="rgb(193,193,193)" stroke="none" d="M 11091,10533 L 12095,10533 12095,11519 11091,11519 11091,10533 Z M 11105,10546 L 12081,10546 12081,11506 11105,11506 11105,10546 Z"/>
             <path fill="rgb(194,194,194)" stroke="none" d="M 11105,10546 L 12081,10546 12081,11506 11105,11506 11105,10546 Z M 11119,10560 L 12067,10560 12067,11492 11119,11492 11119,10560 Z"/>
             <path fill="rgb(195,195,195)" stroke="none" d="M 11119,10560 L 12067,10560 12067,11492 11119,11492 11119,10560 Z M 11133,10574 L 12053,10574 12053,11478 11133,11478 11133,10574 Z"/>
             <path fill="rgb(196,196,196)" stroke="none" d="M 11133,10574 L 12053,10574 12053,11478 11133,11478 11133,10574 Z M 11147,10588 L 12039,10588 12039,11464 11147,11464 11147,10588 Z"/>
             <path fill="rgb(197,197,197)" stroke="none" d="M 11147,10588 L 12039,10588 12039,11464 11147,11464 11147,10588 Z M 11160,10600 L 12025,10600 12025,11451 11160,11451 11160,10600 Z"/>
             <path fill="rgb(198,198,198)" stroke="none" d="M 11160,10600 L 12025,10600 12025,11451 11160,11451 11160,10600 Z M 11174,10614 L 12011,10614 12011,11437 11174,11437 11174,10614 Z"/>
             <path fill="rgb(199,199,199)" stroke="none" d="M 11174,10614 L 12011,10614 12011,11437 11174,11437 11174,10614 Z M 11188,10628 L 11997,10628 11997,11423 11188,11423 11188,10628 Z"/>
             <path fill="rgb(200,200,200)" stroke="none" d="M 11188,10628 L 11997,10628 11997,11423 11188,11423 11188,10628 Z M 11202,10642 L 11983,10642 11983,11409 11202,11409 11202,10642 Z"/>
             <path fill="rgb(201,201,201)" stroke="none" d="M 11202,10642 L 11983,10642 11983,11409 11202,11409 11202,10642 Z M 11216,10655 L 11969,10655 11969,11396 11216,11396 11216,10655 Z"/>
             <path fill="rgb(202,202,202)" stroke="none" d="M 11216,10655 L 11969,10655 11969,11396 11216,11396 11216,10655 Z M 11230,10669 L 11955,10669 11955,11382 11230,11382 11230,10669 Z"/>
             <path fill="rgb(203,203,203)" stroke="none" d="M 11230,10669 L 11955,10669 11955,11382 11230,11382 11230,10669 Z M 11244,10683 L 11941,10683 11941,11368 11244,11368 11244,10683 Z"/>
             <path fill="rgb(204,204,204)" stroke="none" d="M 11244,10683 L 11941,10683 11941,11368 11244,11368 11244,10683 Z M 11258,10696 L 11927,10696 11927,11355 11258,11355 11258,10696 Z"/>
             <path fill="rgb(205,205,205)" stroke="none" d="M 11258,10696 L 11927,10696 11927,11355 11258,11355 11258,10696 Z M 11272,10710 L 11913,10710 11913,11341 11272,11341 11272,10710 Z"/>
             <path fill="rgb(206,206,206)" stroke="none" d="M 11272,10710 L 11913,10710 11913,11341 11272,11341 11272,10710 Z M 11286,10724 L 11899,10724 11899,11327 11286,11327 11286,10724 Z"/>
             <path fill="rgb(207,207,207)" stroke="none" d="M 11286,10724 L 11899,10724 11899,11327 11286,11327 11286,10724 Z M 11300,10738 L 11885,10738 11885,11313 11300,11313 11300,10738 Z"/>
             <path fill="rgb(208,208,208)" stroke="none" d="M 11300,10738 L 11885,10738 11885,11313 11300,11313 11300,10738 Z M 11314,10751 L 11871,10751 11871,11300 11314,11300 11314,10751 Z"/>
             <path fill="rgb(209,209,209)" stroke="none" d="M 11314,10751 L 11871,10751 11871,11300 11314,11300 11314,10751 Z M 11328,10765 L 11857,10765 11857,11286 11328,11286 11328,10765 Z"/>
             <path fill="rgb(210,210,210)" stroke="none" d="M 11328,10765 L 11857,10765 11857,11286 11328,11286 11328,10765 Z M 11342,10779 L 11843,10779 11843,11272 11342,11272 11342,10779 Z"/>
             <path fill="rgb(211,211,211)" stroke="none" d="M 11342,10779 L 11843,10779 11843,11272 11342,11272 11342,10779 Z M 11356,10793 L 11829,10793 11829,11258 11356,11258 11356,10793 Z"/>
             <path fill="rgb(212,212,212)" stroke="none" d="M 11356,10793 L 11829,10793 11829,11258 11356,11258 11356,10793 Z M 11369,10806 L 11816,10806 11816,11245 11369,11245 11369,10806 Z"/>
             <path fill="rgb(213,213,213)" stroke="none" d="M 11369,10806 L 11816,10806 11816,11245 11369,11245 11369,10806 Z M 11383,10820 L 11802,10820 11802,11231 11383,11231 11383,10820 Z"/>
             <path fill="rgb(214,214,214)" stroke="none" d="M 11383,10820 L 11802,10820 11802,11231 11383,11231 11383,10820 Z M 11397,10834 L 11788,10834 11788,11217 11397,11217 11397,10834 Z"/>
             <path fill="rgb(215,215,215)" stroke="none" d="M 11397,10834 L 11788,10834 11788,11217 11397,11217 11397,10834 Z M 11411,10848 L 11774,10848 11774,11203 11411,11203 11411,10848 Z"/>
             <path fill="rgb(216,216,216)" stroke="none" d="M 11411,10848 L 11774,10848 11774,11203 11411,11203 11411,10848 Z M 11425,10861 L 11760,10861 11760,11190 11425,11190 11425,10861 Z"/>
             <path fill="rgb(217,217,217)" stroke="none" d="M 11425,10861 L 11760,10861 11760,11190 11425,11190 11425,10861 Z M 11439,10875 L 11746,10875 11746,11176 11439,11176 11439,10875 Z"/>
             <path fill="rgb(218,218,218)" stroke="none" d="M 11439,10875 L 11746,10875 11746,11176 11439,11176 11439,10875 Z M 11453,10889 L 11732,10889 11732,11162 11453,11162 11453,10889 Z"/>
             <path fill="rgb(219,219,219)" stroke="none" d="M 11453,10889 L 11732,10889 11732,11162 11453,11162 11453,10889 Z M 11467,10902 L 11718,10902 11718,11149 11467,11149 11467,10902 Z"/>
             <path fill="rgb(220,220,220)" stroke="none" d="M 11467,10902 L 11718,10902 11718,11149 11467,11149 11467,10902 Z M 11481,10916 L 11704,10916 11704,11135 11481,11135 11481,10916 Z"/>
             <path fill="rgb(221,221,221)" stroke="none" d="M 11481,10916 L 11704,10916 11704,11135 11481,11135 11481,10916 Z M 11495,10930 L 11690,10930 11690,11121 11495,11121 11495,10930 Z"/>
             <path fill="rgb(222,222,222)" stroke="none" d="M 11495,10930 L 11690,10930 11690,11121 11495,11121 11495,10930 Z M 11509,10944 L 11676,10944 11676,11107 11509,11107 11509,10944 Z"/>
             <path fill="rgb(223,223,223)" stroke="none" d="M 11509,10944 L 11676,10944 11676,11107 11509,11107 11509,10944 Z M 11523,10957 L 11662,10957 11662,11094 11523,11094 11523,10957 Z"/>
             <path fill="rgb(224,224,224)" stroke="none" d="M 11523,10957 L 11662,10957 11662,11094 11523,11094 11523,10957 Z M 11537,10971 L 11648,10971 11648,11080 11537,11080 11537,10971 Z"/>
             <path fill="rgb(225,225,225)" stroke="none" d="M 11537,10971 L 11648,10971 11648,11080 11537,11080 11537,10971 Z M 11551,10985 L 11634,10985 11634,11066 11551,11066 11551,10985 Z"/>
             <path fill="rgb(226,226,226)" stroke="none" d="M 11551,10985 L 11634,10985 11634,11066 11551,11066 11551,10985 Z M 11565,10999 L 11620,10999 11620,11052 11565,11052 11565,10999 Z"/>
             <path fill="rgb(227,227,227)" stroke="none" d="M 11565,10999 L 11620,10999 11620,11052 11565,11052 11565,10999 Z M 11579,11012 L 11606,11012 11606,11039 11579,11039 11579,11012 Z"/>
             <path fill="rgb(229,229,229)" stroke="none" d="M 11579,11012 L 11606,11012 11606,11039 11579,11039 11579,11012 Z"/>
            </g>
           </pattern>
          </defs>
          <path style="fill:url(#pattern1)" d="M 11175,11986 L 11175,11422 12569,10616 12569,11180 11175,11986 Z"/>
         </g>
         <path fill="none" stroke="rgb(255,255,255)" stroke-width="40" stroke-linejoin="round" d="M 11175,11986 L 11175,11422 12569,10616 12569,11180 11175,11986 Z"/>
        </g>
       </g>
       <g class="com.sun.star.drawing.PolyPolygonShape">
        <g id="id5">
         <rect class="BoundingBox" stroke="none" fill="none" x="10179" y="10031" width="2410" height="1412"/>
         <g>
          <defs>
           <linearGradient id="gradient1" x1="11383" y1="10052" x2="11383" y2="11422" gradientUnits="userSpaceOnUse">
            <stop offset="0.1" style="stop-color:rgb(179,179,179)"/>
            <stop offset="1" style="stop-color:rgb(229,229,229)"/>
           </linearGradient>
          </defs>
          <path style="fill:url(#gradient1)" d="M 11175,11422 L 10199,10858 11593,10052 12568,10616 11175,11422 Z"/>
         </g>
         <path fill="none" stroke="rgb(255,255,255)" stroke-width="40" stroke-linejoin="round" d="M 11175,11422 L 10199,10858 11593,10052 12568,10616 11175,11422 Z"/>
        </g>
       </g>
       <g class="com.sun.star.drawing.PolyPolygonShape">
        <g id="id6">
         <rect class="BoundingBox" stroke="none" fill="none" x="10179" y="10838" width="1017" height="1169"/>
         <g>
          <defs>
           <linearGradient id="gradient2" x1="10198" y1="11422" x2="11176" y2="11422" gradientUnits="userSpaceOnUse">
            <stop offset="0.1" style="stop-color:rgb(179,179,179)"/>
            <stop offset="1" style="stop-color:rgb(229,229,229)"/>
           </linearGradient>
          </defs>
          <path style="fill:url(#gradient2)" d="M 10199,11422 L 10199,10858 11175,11422 11175,11986 10199,11422 Z"/>
         </g>
         <path fill="none" stroke="rgb(255,255,255)" stroke-width="40" stroke-linejoin="round" d="M 10199,11422 L 10199,10858 11175,11422 11175,11986 10199,11422 Z"/>
        </g>
       </g>
       <g class="com.sun.star.drawing.PolyPolygonShape">
        <g id="id7">
         <rect class="BoundingBox" stroke="none" fill="none" x="10179" y="10032" width="2410" height="1976"/>
         <path fill="none" stroke="rgb(0,0,0)" stroke-width="40" stroke-linejoin="round" d="M 10199,11422 L 10199,10858 11593,10052 12568,10616 12568,11180 11175,11986 10199,11422 Z"/>
        </g>
       </g>
       <g class="com.sun.star.drawing.PolyPolygonShape">
        <g id="id8">
         <rect class="BoundingBox" stroke="none" fill="none" x="11294" y="8743" width="180" height="1975"/>
         <path fill="rgb(204,204,204)" stroke="none" d="M 11314,10697 L 11314,8763 11453,8763 11453,10697 11314,10697 Z"/>
         <path fill="none" stroke="rgb(0,0,0)" stroke-width="40" stroke-linejoin="round" d="M 11314,10697 L 11314,8763 11453,8763 11453,10697 11314,10697 Z"/>
        </g>
       </g>
       <g class="com.sun.star.drawing.PolyPolygonShape">
        <g id="id9">
         <rect class="BoundingBox" stroke="none" fill="none" x="10737" y="11320" width="181" height="364"/>
         <path fill="rgb(127,127,127)" stroke="none" d="M 10757,11583 L 10757,11341 10896,11422 10896,11663 10757,11583 Z"/>
         <path fill="none" stroke="rgb(0,0,0)" stroke-width="40" stroke-linejoin="round" d="M 10757,11583 L 10757,11341 10896,11422 10896,11663 10757,11583 Z"/>
        </g>
       </g>
      </g>
     </g>
    </g>
   </g>
  </g>
 </g>
</svg>