<?xml version="1.0" encoding="UTF-8"?>
<!DOCTYPE svg PUBLIC "-//W3C//DTD SVG 1.1//EN" "http://www.w3.org/Graphics/SVG/1.1/DTD/svg11.dtd">
<svg version="1.2" width="14.52mm" height="21.4mm" viewBox="11414 13273 1452 2140" preserveAspectRatio="xMidYMid" fill-rule="evenodd" stroke-width="28.222" stroke-linejoin="round" xmlns="http://www.w3.org/2000/svg" xmlns:ooo="http://xml.openoffice.org/svg/export" xmlns:xlink="http://www.w3.org/1999/xlink" xmlns:presentation="http://sun.com/xmlns/staroffice/presentation" xmlns:smil="http://www.w3.org/2001/SMIL20/" xmlns:anim="urn:oasis:names:tc:opendocument:xmlns:animation:1.0" xml:space="preserve">
 <defs class="ClipPathGroup">
  <clipPath id="presentation_clip_path" clipPathUnits="userSpaceOnUse">
   <rect x="11414" y="13273" width="1452" height="2140"/>
  </clipPath>
 </defs>
 <defs class="TextShapeIndex">
  <g ooo:slide="id1" ooo:id-list="id3 id4 id5 id6 id7 id8 id9 id10 id11 id12 id13 id14 id15"/>
 </defs>
 <defs class="EmbeddedBulletChars">
  <g id="bullet-char-template(57356)" transform="scale(0.00048828125,-0.00048828125)">
   <path d="M 580,1141 L 1163,571 580,0 -4,571 580,1141 Z"/>
  </g>
  <g id="bullet-char-template(57354)" transform="scale(0.00048828125,-0.00048828125)">
   <path d="M 8,1128 L 1137,1128 1137,0 8,0 8,1128 Z"/>
  </g>
  <g id="bullet-char-template(10146)" transform="scale(0.00048828125,-0.00048828125)">
   <path d="M 174,0 L 602,739 174,1481 1456,739 174,0 Z M 1358,739 L 309,1346 659,739 1358,739 Z"/>
  </g>
  <g id="bullet-char-template(10132)" transform="scale(0.00048828125,-0.00048828125)">
   <path d="M 2015,739 L 1276,0 717,0 1260,543 174,543 174,936 1260,936 717,1481 1274,1481 2015,739 Z"/>
  </g>
  <g id="bullet-char-template(10007)" transform="scale(0.00048828125,-0.00048828125)">
   <path d="M 0,-2 C -7,14 -16,27 -25,37 L 356,567 C 262,823 215,952 215,954 215,979 228,992 255,992 264,992 276,990 289,987 310,991 331,999 354,1012 L 381,999 492,748 772,1049 836,1024 860,1049 C 881,1039 901,1025 922,1006 886,937 835,863 770,784 769,783 710,716 594,584 L 774,223 C 774,196 753,168 711,139 L 727,119 C 717,90 699,76 672,76 641,76 570,178 457,381 L 164,-76 C 142,-110 111,-127 72,-127 30,-127 9,-110 8,-76 1,-67 -2,-52 -2,-32 -2,-23 -1,-13 0,-2 Z"/>
  </g>
  <g id="bullet-char-template(10004)" transform="scale(0.00048828125,-0.00048828125)">
   <path d="M 285,-33 C 182,-33 111,30 74,156 52,228 41,333 41,471 41,549 55,616 82,672 116,743 169,778 240,778 293,778 328,747 346,684 L 369,508 C 377,444 397,411 428,410 L 1163,1116 C 1174,1127 1196,1133 1229,1133 1271,1133 1292,1118 1292,1087 L 1292,965 C 1292,929 1282,901 1262,881 L 442,47 C 390,-6 338,-33 285,-33 Z"/>
  </g>
  <g id="bullet-char-template(9679)" transform="scale(0.00048828125,-0.00048828125)">
   <path d="M 813,0 C 632,0 489,54 383,161 276,268 223,411 223,592 223,773 276,916 383,1023 489,1130 632,1184 813,1184 992,1184 1136,1130 1245,1023 1353,916 1407,772 1407,592 1407,412 1353,268 1245,161 1136,54 992,0 813,0 Z"/>
  </g>
  <g id="bullet-char-template(8226)" transform="scale(0.00048828125,-0.00048828125)">
   <path d="M 346,457 C 273,457 209,483 155,535 101,586 74,649 74,723 74,796 101,859 155,911 209,963 273,989 346,989 419,989 480,963 531,910 582,859 608,796 608,723 608,648 583,586 532,535 482,483 420,457 346,457 Z"/>
  </g>
  <g id="bullet-char-template(8211)" transform="scale(0.00048828125,-0.00048828125)">
   <path d="M -4,459 L 1135,459 1135,606 -4,606 -4,459 Z"/>
  </g>
 </defs>
 <defs class="TextEmbeddedBitmaps"/>
 <g class="SlideGroup">
  <g>
   <g id="id1" class="Slide" clip-path="url(#presentation_clip_path)">
    <g class="Page">
     <g class="Group">
      <g class="com.sun.star.drawing.ClosedBezierShape">
       <g id="id3">
        <rect class="BoundingBox" stroke="none" fill="none" x="12094" y="14756" width="774" height="639"/>
        <path fill="rgb(221,221,221)" stroke="none" d="M 12095,15393 C 12397,15393 12866,15330 12866,15075 12866,14821 12645,14757 12535,14757 12535,14948 12095,15138 12095,15393 Z"/>
        <path fill="none" stroke="rgb(221,221,221)" d="M 12095,15393 C 12397,15393 12866,15330 12866,15075 12866,14821 12645,14757 12535,14757 12535,14948 12095,15138 12095,15393 Z"/>
       </g>
      </g>
      <g class="Group">
       <g class="com.sun.star.drawing.PolyPolygonShape">
        <g id="id4">
         <rect class="BoundingBox" stroke="none" fill="none" x="12075" y="13909" width="481" height="1505"/>
         <g>
          <defs>
           <pattern id="pattern1" x="12095" y="13929" width="441" height="1465" patternUnits="userSpaceOnUse">
            <g transform="translate(-12095,-13929)">
             <path fill="rgb(179,179,179)" stroke="none" d="M 12094,13928 L 12536,13928 12536,15394 12094,15394 12094,13928 Z M 12010,13650 L 12442,13650 12442,15086 12010,15086 12010,13650 Z"/>
             <path fill="rgb(180,180,180)" stroke="none" d="M 12010,13650 L 12442,13650 12442,15086 12010,15086 12010,13650 Z M 12014,13665 L 12438,13665 12438,15071 12014,15071 12014,13665 Z"/>
             <path fill="rgb(181,181,181)" stroke="none" d="M 12014,13665 L 12438,13665 12438,15071 12014,15071 12014,13665 Z M 12019,13680 L 12433,13680 12433,15056 12019,15056 12019,13680 Z"/>
             <path fill="rgb(182,182,182)" stroke="none" d="M 12019,13680 L 12433,13680 12433,15056 12019,15056 12019,13680 Z M 12023,13694 L 12429,13694 12429,15042 12023,15042 12023,13694 Z"/>
             <path fill="rgb(183,183,183)" stroke="none" d="M 12023,13694 L 12429,13694 12429,15042 12023,15042 12023,13694 Z M 12028,13709 L 12424,13709 12424,15027 12028,15027 12028,13709 Z"/>
             <path fill="rgb(184,184,184)" stroke="none" d="M 12028,13709 L 12424,13709 12424,15027 12028,15027 12028,13709 Z M 12032,13724 L 12420,13724 12420,15012 12032,15012 12032,13724 Z"/>
             <path fill="rgb(185,185,185)" stroke="none" d="M 12032,13724 L 12420,13724 12420,15012 12032,15012 12032,13724 Z M 12037,13738 L 12415,13738 12415,14998 12037,14998 12037,13738 Z"/>
             <path fill="rgb(186,186,186)" stroke="none" d="M 12037,13738 L 12415,13738 12415,14998 12037,14998 12037,13738 Z M 12041,13753 L 12411,13753 12411,14983 12041,14983 12041,13753 Z"/>
             <path fill="rgb(187,187,187)" stroke="none" d="M 12041,13753 L 12411,13753 12411,14983 12041,14983 12041,13753 Z M 12045,13768 L 12407,13768 12407,14968 12045,14968 12045,13768 Z"/>
             <path fill="rgb(188,188,188)" stroke="none" d="M 12045,13768 L 12407,13768 12407,14968 12045,14968 12045,13768 Z M 12050,13782 L 12402,13782 12402,14954 12050,14954 12050,13782 Z"/>
             <path fill="rgb(189,189,189)" stroke="none" d="M 12050,13782 L 12402,13782 12402,14954 12050,14954 12050,13782 Z M 12054,13797 L 12398,13797 12398,14939 12054,14939 12054,13797 Z"/>
             <path fill="rgb(190,190,190)" stroke="none" d="M 12054,13797 L 12398,13797 12398,14939 12054,14939 12054,13797 Z M 12059,13812 L 12393,13812 12393,14924 12059,14924 12059,13812 Z"/>
             <path fill="rgb(191,191,191)" stroke="none" d="M 12059,13812 L 12393,13812 12393,14924 12059,14924 12059,13812 Z M 12063,13826 L 12389,13826 12389,14910 12063,14910 12063,13826 Z"/>
             <path fill="rgb(192,192,192)" stroke="none" d="M 12063,13826 L 12389,13826 12389,14910 12063,14910 12063,13826 Z M 12068,13841 L 12384,13841 12384,14895 12068,14895 12068,13841 Z"/>
             <path fill="rgb(193,193,193)" stroke="none" d="M 12068,13841 L 12384,13841 12384,14895 12068,14895 12068,13841 Z M 12072,13856 L 12380,13856 12380,14880 12072,14880 12072,13856 Z"/>
             <path fill="rgb(194,194,194)" stroke="none" d="M 12072,13856 L 12380,13856 12380,14880 12072,14880 12072,13856 Z M 12075,13870 L 12376,13870 12376,14866 12075,14866 12075,13870 Z"/>
             <path fill="rgb(195,195,195)" stroke="none" d="M 12075,13870 L 12376,13870 12376,14866 12075,14866 12075,13870 Z M 12080,13885 L 12371,13885 12371,14851 12080,14851 12080,13885 Z"/>
             <path fill="rgb(196,196,196)" stroke="none" d="M 12080,13885 L 12371,13885 12371,14851 12080,14851 12080,13885 Z M 12084,13900 L 12367,13900 12367,14836 12084,14836 12084,13900 Z"/>
             <path fill="rgb(197,197,197)" stroke="none" d="M 12084,13900 L 12367,13900 12367,14836 12084,14836 12084,13900 Z M 12089,13913 L 12362,13913 12362,14822 12089,14822 12089,13913 Z"/>
             <path fill="rgb(198,198,198)" stroke="none" d="M 12089,13913 L 12362,13913 12362,14822 12089,14822 12089,13913 Z M 12093,13928 L 12358,13928 12358,14807 12093,14807 12093,13928 Z"/>
             <path fill="rgb(199,199,199)" stroke="none" d="M 12093,13928 L 12358,13928 12358,14807 12093,14807 12093,13928 Z M 12098,13943 L 12353,13943 12353,14792 12098,14792 12098,13943 Z"/>
             <path fill="rgb(200,200,200)" stroke="none" d="M 12098,13943 L 12353,13943 12353,14792 12098,14792 12098,13943 Z M 12102,13957 L 12349,13957 12349,14778 12102,14778 12102,13957 Z"/>
             <path fill="rgb(201,201,201)" stroke="none" d="M 12102,13957 L 12349,13957 12349,14778 12102,14778 12102,13957 Z M 12106,13972 L 12345,13972 12345,14763 12106,14763 12106,13972 Z"/>
             <path fill="rgb(202,202,202)" stroke="none" d="M 12106,13972 L 12345,13972 12345,14763 12106,14763 12106,13972 Z M 12111,13987 L 12340,13987 12340,14748 12111,14748 12111,13987 Z"/>
             <path fill="rgb(203,203,203)" stroke="none" d="M 12111,13987 L 12340,13987 12340,14748 12111,14748 12111,13987 Z M 12115,14001 L 12336,14001 12336,14734 12115,14734 12115,14001 Z"/>
             <path fill="rgb(204,204,204)" stroke="none" d="M 12115,14001 L 12336,14001 12336,14734 12115,14734 12115,14001 Z M 12120,14016 L 12331,14016 12331,14719 12120,14719 12120,14016 Z"/>
             <path fill="rgb(205,205,205)" stroke="none" d="M 12120,14016 L 12331,14016 12331,14719 12120,14719 12120,14016 Z M 12124,14031 L 12327,14031 12327,14704 12124,14704 12124,14031 Z"/>
             <path fill="rgb(206,206,206)" stroke="none" d="M 12124,14031 L 12327,14031 12327,14704 12124,14704 12124,14031 Z M 12129,14045 L 12322,14045 12322,14690 12129,14690 12129,14045 Z"/>
             <path fill="rgb(207,207,207)" stroke="none" d="M 12129,14045 L 12322,14045 12322,14690 12129,14690 12129,14045 Z M 12133,14060 L 12318,14060 12318,14675 12133,14675 12133,14060 Z"/>
             <path fill="rgb(208,208,208)" stroke="none" d="M 12133,14060 L 12318,14060 12318,14675 12133,14675 12133,14060 Z M 12137,14075 L 12314,14075 12314,14660 12137,14660 12137,14075 Z"/>
             <path fill="rgb(209,209,209)" stroke="none" d="M 12137,14075 L 12314,14075 12314,14660 12137,14660 12137,14075 Z M 12142,14089 L 12309,14089 12309,14646 12142,14646 12142,14089 Z"/>
             <path fill="rgb(210,210,210)" stroke="none" d="M 12142,14089 L 12309,14089 12309,14646 12142,14646 12142,14089 Z M 12146,14104 L 12305,14104 12305,14631 12146,14631 12146,14104 Z"/>
             <path fill="rgb(211,211,211)" stroke="none" d="M 12146,14104 L 12305,14104 12305,14631 12146,14631 12146,14104 Z M 12151,14119 L 12300,14119 12300,14616 12151,14616 12151,14119 Z"/>
             <path fill="rgb(212,212,212)" stroke="none" d="M 12151,14119 L 12300,14119 12300,14616 12151,14616 12151,14119 Z M 12155,14133 L 12296,14133 12296,14602 12155,14602 12155,14133 Z"/>
             <path fill="rgb(213,213,213)" stroke="none" d="M 12155,14133 L 12296,14133 12296,14602 12155,14602 12155,14133 Z M 12160,14148 L 12291,14148 12291,14587 12160,14587 12160,14148 Z"/>
             <path fill="rgb(214,214,214)" stroke="none" d="M 12160,14148 L 12291,14148 12291,14587 12160,14587 12160,14148 Z M 12164,14163 L 12287,14163 12287,14572 12164,14572 12164,14163 Z"/>
             <path fill="rgb(215,215,215)" stroke="none" d="M 12164,14163 L 12287,14163 12287,14572 12164,14572 12164,14163 Z M 12168,14177 L 12283,14177 12283,14558 12168,14558 12168,14177 Z"/>
             <path fill="rgb(216,216,216)" stroke="none" d="M 12168,14177 L 12283,14177 12283,14558 12168,14558 12168,14177 Z M 12173,14192 L 12278,14192 12278,14543 12173,14543 12173,14192 Z"/>
             <path fill="rgb(217,217,217)" stroke="none" d="M 12173,14192 L 12278,14192 12278,14543 12173,14543 12173,14192 Z M 12177,14207 L 12274,14207 12274,14528 12177,14528 12177,14207 Z"/>
             <path fill="rgb(218,218,218)" stroke="none" d="M 12177,14207 L 12274,14207 12274,14528 12177,14528 12177,14207 Z M 12182,14221 L 12269,14221 12269,14514 12182,14514 12182,14221 Z"/>
             <path fill="rgb(219,219,219)" stroke="none" d="M 12182,14221 L 12269,14221 12269,14514 12182,14514 12182,14221 Z M 12186,14236 L 12265,14236 12265,14499 12186,14499 12186,14236 Z"/>
             <path fill="rgb(220,220,220)" stroke="none" d="M 12186,14236 L 12265,14236 12265,14499 12186,14499 12186,14236 Z M 12191,14251 L 12260,14251 12260,14484 12191,14484 12191,14251 Z"/>
             <path fill="rgb(221,221,221)" stroke="none" d="M 12191,14251 L 12260,14251 12260,14484 12191,14484 12191,14251 Z M 12195,14265 L 12256,14265 12256,14470 12195,14470 12195,14265 Z"/>
             <path fill="rgb(222,222,222)" stroke="none" d="M 12195,14265 L 12256,14265 12256,14470 12195,14470 12195,14265 Z M 12199,14280 L 12252,14280 12252,14455 12199,14455 12199,14280 Z"/>
             <path fill="rgb(223,223,223)" stroke="none" d="M 12199,14280 L 12252,14280 12252,14455 12199,14455 12199,14280 Z M 12204,14295 L 12247,14295 12247,14440 12204,14440 12204,14295 Z"/>
             <path fill="rgb(224,224,224)" stroke="none" d="M 12204,14295 L 12247,14295 12247,14440 12204,14440 12204,14295 Z M 12208,14309 L 12243,14309 12243,14426 12208,14426 12208,14309 Z"/>
             <path fill="rgb(225,225,225)" stroke="none" d="M 12208,14309 L 12243,14309 12243,14426 12208,14426 12208,14309 Z M 12213,14324 L 12238,14324 12238,14411 12213,14411 12213,14324 Z"/>
             <path fill="rgb(226,226,226)" stroke="none" d="M 12213,14324 L 12238,14324 12238,14411 12213,14411 12213,14324 Z M 12217,14339 L 12234,14339 12234,14396 12217,14396 12217,14339 Z"/>
             <path fill="rgb(227,227,227)" stroke="none" d="M 12217,14339 L 12234,14339 12234,14396 12217,14396 12217,14339 Z M 12222,14353 L 12229,14353 12229,14382 12222,14382 12222,14353 Z"/>
             <path fill="rgb(229,229,229)" stroke="none" d="M 12222,14353 L 12229,14353 12229,14382 12222,14382 12222,14353 Z"/>
            </g>
           </pattern>
          </defs>
          <path style="fill:url(#pattern1)" d="M 12095,15393 L 12095,14184 12535,13929 12535,15138 12095,15393 Z"/>
         </g>
         <path fill="none" stroke="rgb(255,255,255)" stroke-width="40" stroke-linejoin="round" d="M 12095,15393 L 12095,14184 12535,13929 12535,15138 12095,15393 Z"/>
        </g>
       </g>
       <g class="com.sun.star.drawing.PolyPolygonShape">
        <g id="id5">
         <rect class="BoundingBox" stroke="none" fill="none" x="11414" y="13273" width="702" height="423"/>
         <g>
          <defs>
           <linearGradient id="gradient1" x1="11764" y1="13293" x2="11764" y2="13675" gradientUnits="userSpaceOnUse">
            <stop offset="0.1" style="stop-color:rgb(179,179,179)"/>
            <stop offset="1" style="stop-color:rgb(229,229,229)"/>
           </linearGradient>
          </defs>
          <path style="fill:url(#gradient1)" d="M 12095,13548 L 11874,13675 11764,13675 11434,13484 11434,13420 11654,13293 11764,13293 12095,13484 12095,13548 Z"/>
         </g>
         <path fill="none" stroke="rgb(255,255,255)" stroke-width="40" stroke-linejoin="round" d="M 12095,13548 L 11874,13675 11764,13675 11434,13484 11434,13420 11654,13293 11764,13293 12095,13484 12095,13548 Z"/>
        </g>
       </g>
       <g class="com.sun.star.drawing.PolyPolygonShape">
        <g id="id6">
         <rect class="BoundingBox" stroke="none" fill="none" x="11853" y="14037" width="262" height="1377"/>
         <g>
          <defs>
           <linearGradient id="gradient2" x1="11873" y1="14725" x2="12095" y2="14725" gradientUnits="userSpaceOnUse">
            <stop offset="0.1" style="stop-color:rgb(179,179,179)"/>
            <stop offset="1" style="stop-color:rgb(229,229,229)"/>
           </linearGradient>
          </defs>
          <path style="fill:url(#gradient2)" d="M 11874,15266 L 11874,14057 12094,14184 12094,15393 11874,15266 Z"/>
         </g>
         <path fill="none" stroke="rgb(255,255,255)" stroke-width="40" stroke-linejoin="round" d="M 11874,15266 L 11874,14057 12094,14184 12094,15393 11874,15266 Z"/>
        </g>
       </g>
       <g class="com.sun.star.drawing.PolyPolygonShape">
        <g id="id7">
         <rect class="BoundingBox" stroke="none" fill="none" x="11633" y="14418" width="152" height="296"/>
         <path fill="rgb(127,127,127)" stroke="none" d="M 11654,14629 L 11654,14438 11764,14502 11764,14693 11654,14629 Z"/>
         <path fill="none" stroke="rgb(0,0,0)" stroke-width="40" stroke-linejoin="round" d="M 11654,14629 L 11654,14438 11764,14502 11764,14693 11654,14629 Z"/>
        </g>
       </g>
       <g class="com.sun.star.drawing.PolyPolygonShape">
        <g id="id8">
         <rect class="BoundingBox" stroke="none" fill="none" x="11633" y="13718" width="152" height="296"/>
         <path fill="rgb(57,181,74)" stroke="none" d="M 11654,13929 L 11654,13738 11764,13802 11764,13993 11654,13929 Z"/>
         <path fill="none" stroke="rgb(127,127,127)" stroke-width="40" stroke-linejoin="round" d="M 11654,13929 L 11654,13738 11764,13802 11764,13993 11654,13929 Z"/>
        </g>
       </g>
       <g class="com.sun.star.drawing.PolyPolygonShape">
        <g id="id9">
         <rect class="BoundingBox" stroke="none" fill="none" x="11743" y="13655" width="152" height="1632"/>
         <g>
          <defs>
           <linearGradient id="gradient3" x1="11764" y1="14470" x2="11875" y2="14470" gradientUnits="userSpaceOnUse">
            <stop offset="0.1" style="stop-color:rgb(179,179,179)"/>
            <stop offset="1" style="stop-color:rgb(229,229,229)"/>
           </linearGradient>
          </defs>
          <path style="fill:url(#gradient3)" d="M 11764,15266 L 11764,13675 11874,13675 11874,15266 11764,15266 Z"/>
         </g>
         <path fill="none" stroke="rgb(255,255,255)" stroke-width="40" stroke-linejoin="round" d="M 11764,15266 L 11764,13675 11874,13675 11874,15266 11764,15266 Z"/>
        </g>
       </g>
       <g class="com.sun.star.drawing.PolyPolygonShape">
        <g id="id10">
         <rect class="BoundingBox" stroke="none" fill="none" x="11414" y="13464" width="371" height="1824"/>
         <g>
          <defs>
           <linearGradient id="gradient4" x1="11433" y1="14375" x2="11765" y2="14375" gradientUnits="userSpaceOnUse">
            <stop offset="0.1" style="stop-color:rgb(179,179,179)"/>
            <stop offset="1" style="stop-color:rgb(229,229,229)"/>
           </linearGradient>
          </defs>
          <path style="fill:url(#gradient4)" d="M 11434,15075 L 11434,13484 11764,13675 11764,15266 11434,15075 Z"/>
         </g>
         <path fill="none" stroke="rgb(255,255,255)" stroke-width="40" stroke-linejoin="round" d="M 11434,15075 L 11434,13484 11764,13675 11764,15266 11434,15075 Z"/>
        </g>
       </g>
       <g class="com.sun.star.drawing.PolyPolygonShape">
        <g id="id11">
         <rect class="BoundingBox" stroke="none" fill="none" x="11854" y="13591" width="702" height="614"/>
         <g>
          <defs>
           <linearGradient id="gradient5" x1="12204" y1="13611" x2="12204" y2="14184" gradientUnits="userSpaceOnUse">
            <stop offset="0.1" style="stop-color:rgb(179,179,179)"/>
            <stop offset="1" style="stop-color:rgb(229,229,229)"/>
           </linearGradient>
          </defs>
          <path style="fill:url(#gradient5)" d="M 12094,14184 L 11874,14056 12094,13929 12094,13611 12535,13866 12535,13929 12094,14184 Z"/>
         </g>
         <path fill="none" stroke="rgb(255,255,255)" stroke-width="40" stroke-linejoin="round" d="M 12094,14184 L 11874,14056 12094,13929 12094,13611 12535,13866 12535,13929 12094,14184 Z"/>
        </g>
       </g>
       <g class="com.sun.star.drawing.PolyPolygonShape">
        <g id="id12">
         <rect class="BoundingBox" stroke="none" fill="none" x="11853" y="13528" width="262" height="550"/>
         <g>
          <defs>
           <pattern id="pattern2" x="11874" y="13548" width="221" height="510" patternUnits="userSpaceOnUse">
            <g transform="translate(-11874,-13548)">
             <path fill="rgb(179,179,179)" stroke="none" d="M 11873,13547 L 12095,13547 12095,14058 11873,14058 11873,13547 Z M 11831,13450 L 12047,13450 12047,13949 11831,13949 11831,13450 Z"/>
             <path fill="rgb(180,180,180)" stroke="none" d="M 11831,13450 L 12047,13450 12047,13949 11831,13949 11831,13450 Z M 11833,13455 L 12045,13455 12045,13944 11833,13944 11833,13455 Z"/>
             <path fill="rgb(181,181,181)" stroke="none" d="M 11833,13455 L 12045,13455 12045,13944 11833,13944 11833,13455 Z M 11835,13460 L 12043,13460 12043,13939 11835,13939 11835,13460 Z"/>
             <path fill="rgb(182,182,182)" stroke="none" d="M 11835,13460 L 12043,13460 12043,13939 11835,13939 11835,13460 Z M 11837,13465 L 12041,13465 12041,13934 11837,13934 11837,13465 Z"/>
             <path fill="rgb(183,183,183)" stroke="none" d="M 11837,13465 L 12041,13465 12041,13934 11837,13934 11837,13465 Z M 11840,13470 L 12038,13470 12038,13929 11840,13929 11840,13470 Z"/>
             <path fill="rgb(184,184,184)" stroke="none" d="M 11840,13470 L 12038,13470 12038,13929 11840,13929 11840,13470 Z M 11842,13475 L 12036,13475 12036,13924 11842,13924 11842,13475 Z"/>
             <path fill="rgb(185,185,185)" stroke="none" d="M 11842,13475 L 12036,13475 12036,13924 11842,13924 11842,13475 Z M 11844,13480 L 12034,13480 12034,13919 11844,13919 11844,13480 Z"/>
             <path fill="rgb(186,186,186)" stroke="none" d="M 11844,13480 L 12034,13480 12034,13919 11844,13919 11844,13480 Z M 11846,13485 L 12032,13485 12032,13914 11846,13914 11846,13485 Z"/>
             <path fill="rgb(187,187,187)" stroke="none" d="M 11846,13485 L 12032,13485 12032,13914 11846,13914 11846,13485 Z M 11849,13491 L 12029,13491 12029,13908 11849,13908 11849,13491 Z"/>
             <path fill="rgb(188,188,188)" stroke="none" d="M 11849,13491 L 12029,13491 12029,13908 11849,13908 11849,13491 Z M 11851,13496 L 12027,13496 12027,13903 11851,13903 11851,13496 Z"/>
             <path fill="rgb(189,189,189)" stroke="none" d="M 11851,13496 L 12027,13496 12027,13903 11851,13903 11851,13496 Z M 11853,13501 L 12025,13501 12025,13898 11853,13898 11853,13501 Z"/>
             <path fill="rgb(190,190,190)" stroke="none" d="M 11853,13501 L 12025,13501 12025,13898 11853,13898 11853,13501 Z M 11854,13506 L 12023,13506 12023,13893 11854,13893 11854,13506 Z"/>
             <path fill="rgb(191,191,191)" stroke="none" d="M 11854,13506 L 12023,13506 12023,13893 11854,13893 11854,13506 Z M 11856,13511 L 12021,13511 12021,13888 11856,13888 11856,13511 Z"/>
             <path fill="rgb(192,192,192)" stroke="none" d="M 11856,13511 L 12021,13511 12021,13888 11856,13888 11856,13511 Z M 11859,13516 L 12018,13516 12018,13883 11859,13883 11859,13516 Z"/>
             <path fill="rgb(193,193,193)" stroke="none" d="M 11859,13516 L 12018,13516 12018,13883 11859,13883 11859,13516 Z M 11861,13521 L 12016,13521 12016,13878 11861,13878 11861,13521 Z"/>
             <path fill="rgb(194,194,194)" stroke="none" d="M 11861,13521 L 12016,13521 12016,13878 11861,13878 11861,13521 Z M 11863,13526 L 12014,13526 12014,13873 11863,13873 11863,13526 Z"/>
             <path fill="rgb(195,195,195)" stroke="none" d="M 11863,13526 L 12014,13526 12014,13873 11863,13873 11863,13526 Z M 11865,13531 L 12012,13531 12012,13867 11865,13867 11865,13531 Z"/>
             <path fill="rgb(196,196,196)" stroke="none" d="M 11865,13531 L 12012,13531 12012,13867 11865,13867 11865,13531 Z M 11868,13536 L 12009,13536 12009,13862 11868,13862 11868,13536 Z"/>
             <path fill="rgb(197,197,197)" stroke="none" d="M 11868,13536 L 12009,13536 12009,13862 11868,13862 11868,13536 Z M 11870,13541 L 12007,13541 12007,13857 11870,13857 11870,13541 Z"/>
             <path fill="rgb(198,198,198)" stroke="none" d="M 11870,13541 L 12007,13541 12007,13857 11870,13857 11870,13541 Z M 11872,13546 L 12005,13546 12005,13852 11872,13852 11872,13546 Z"/>
             <path fill="rgb(199,199,199)" stroke="none" d="M 11872,13546 L 12005,13546 12005,13852 11872,13852 11872,13546 Z M 11874,13551 L 12003,13551 12003,13847 11874,13847 11874,13551 Z"/>
             <path fill="rgb(200,200,200)" stroke="none" d="M 11874,13551 L 12003,13551 12003,13847 11874,13847 11874,13551 Z M 11877,13556 L 12000,13556 12000,13842 11877,13842 11877,13556 Z"/>
             <path fill="rgb(201,201,201)" stroke="none" d="M 11877,13556 L 12000,13556 12000,13842 11877,13842 11877,13556 Z M 11879,13561 L 11998,13561 11998,13837 11879,13837 11879,13561 Z"/>
             <path fill="rgb(202,202,202)" stroke="none" d="M 11879,13561 L 11998,13561 11998,13837 11879,13837 11879,13561 Z M 11881,13566 L 11996,13566 11996,13832 11881,13832 11881,13566 Z"/>
             <path fill="rgb(203,203,203)" stroke="none" d="M 11881,13566 L 11996,13566 11996,13832 11881,13832 11881,13566 Z M 11883,13572 L 11994,13572 11994,13826 11883,13826 11883,13572 Z"/>
             <path fill="rgb(204,204,204)" stroke="none" d="M 11883,13572 L 11994,13572 11994,13826 11883,13826 11883,13572 Z M 11885,13577 L 11992,13577 11992,13821 11885,13821 11885,13577 Z"/>
             <path fill="rgb(205,205,205)" stroke="none" d="M 11885,13577 L 11992,13577 11992,13821 11885,13821 11885,13577 Z M 11888,13582 L 11989,13582 11989,13816 11888,13816 11888,13582 Z"/>
             <path fill="rgb(206,206,206)" stroke="none" d="M 11888,13582 L 11989,13582 11989,13816 11888,13816 11888,13582 Z M 11890,13587 L 11987,13587 11987,13811 11890,13811 11890,13587 Z"/>
             <path fill="rgb(207,207,207)" stroke="none" d="M 11890,13587 L 11987,13587 11987,13811 11890,13811 11890,13587 Z M 11892,13592 L 11985,13592 11985,13806 11892,13806 11892,13592 Z"/>
             <path fill="rgb(208,208,208)" stroke="none" d="M 11892,13592 L 11985,13592 11985,13806 11892,13806 11892,13592 Z M 11894,13597 L 11983,13597 11983,13801 11894,13801 11894,13597 Z"/>
             <path fill="rgb(209,209,209)" stroke="none" d="M 11894,13597 L 11983,13597 11983,13801 11894,13801 11894,13597 Z M 11897,13602 L 11980,13602 11980,13796 11897,13796 11897,13602 Z"/>
             <path fill="rgb(210,210,210)" stroke="none" d="M 11897,13602 L 11980,13602 11980,13796 11897,13796 11897,13602 Z M 11899,13607 L 11978,13607 11978,13791 11899,13791 11899,13607 Z"/>
             <path fill="rgb(211,211,211)" stroke="none" d="M 11899,13607 L 11978,13607 11978,13791 11899,13791 11899,13607 Z M 11901,13612 L 11976,13612 11976,13786 11901,13786 11901,13612 Z"/>
             <path fill="rgb(212,212,212)" stroke="none" d="M 11901,13612 L 11976,13612 11976,13786 11901,13786 11901,13612 Z M 11903,13618 L 11974,13618 11974,13780 11903,13780 11903,13618 Z"/>
             <path fill="rgb(213,213,213)" stroke="none" d="M 11903,13618 L 11974,13618 11974,13780 11903,13780 11903,13618 Z M 11906,13623 L 11971,13623 11971,13775 11906,13775 11906,13623 Z"/>
             <path fill="rgb(214,214,214)" stroke="none" d="M 11906,13623 L 11971,13623 11971,13775 11906,13775 11906,13623 Z M 11908,13628 L 11969,13628 11969,13770 11908,13770 11908,13628 Z"/>
             <path fill="rgb(215,215,215)" stroke="none" d="M 11908,13628 L 11969,13628 11969,13770 11908,13770 11908,13628 Z M 11910,13633 L 11967,13633 11967,13765 11910,13765 11910,13633 Z"/>
             <path fill="rgb(216,216,216)" stroke="none" d="M 11910,13633 L 11967,13633 11967,13765 11910,13765 11910,13633 Z M 11912,13638 L 11965,13638 11965,13760 11912,13760 11912,13638 Z"/>
             <path fill="rgb(217,217,217)" stroke="none" d="M 11912,13638 L 11965,13638 11965,13760 11912,13760 11912,13638 Z M 11914,13643 L 11963,13643 11963,13755 11914,13755 11914,13643 Z"/>
             <path fill="rgb(218,218,218)" stroke="none" d="M 11914,13643 L 11963,13643 11963,13755 11914,13755 11914,13643 Z M 11917,13648 L 11960,13648 11960,13750 11917,13750 11917,13648 Z"/>
             <path fill="rgb(219,219,219)" stroke="none" d="M 11917,13648 L 11960,13648 11960,13750 11917,13750 11917,13648 Z M 11919,13653 L 11958,13653 11958,13745 11919,13745 11919,13653 Z"/>
             <path fill="rgb(220,220,220)" stroke="none" d="M 11919,13653 L 11958,13653 11958,13745 11919,13745 11919,13653 Z M 11921,13659 L 11956,13659 11956,13739 11921,13739 11921,13659 Z"/>
             <path fill="rgb(221,221,221)" stroke="none" d="M 11921,13659 L 11956,13659 11956,13739 11921,13739 11921,13659 Z M 11923,13664 L 11954,13664 11954,13734 11923,13734 11923,13664 Z"/>
             <path fill="rgb(222,222,222)" stroke="none" d="M 11923,13664 L 11954,13664 11954,13734 11923,13734 11923,13664 Z M 11926,13669 L 11951,13669 11951,13729 11926,13729 11926,13669 Z"/>
             <path fill="rgb(223,223,223)" stroke="none" d="M 11926,13669 L 11951,13669 11951,13729 11926,13729 11926,13669 Z M 11928,13674 L 11949,13674 11949,13724 11928,13724 11928,13674 Z"/>
             <path fill="rgb(224,224,224)" stroke="none" d="M 11928,13674 L 11949,13674 11949,13724 11928,13724 11928,13674 Z M 11930,13679 L 11947,13679 11947,13719 11930,13719 11930,13679 Z"/>
             <path fill="rgb(225,225,225)" stroke="none" d="M 11930,13679 L 11947,13679 11947,13719 11930,13719 11930,13679 Z M 11932,13684 L 11945,13684 11945,13714 11932,13714 11932,13684 Z"/>
             <path fill="rgb(226,226,226)" stroke="none" d="M 11932,13684 L 11945,13684 11945,13714 11932,13714 11932,13684 Z M 11935,13689 L 11942,13689 11942,13709 11935,13709 11935,13689 Z"/>
             <path fill="rgb(227,227,227)" stroke="none" d="M 11935,13689 L 11942,13689 11942,13709 11935,13709 11935,13689 Z M 11937,13694 L 11940,13694 11940,13704 11937,13704 11937,13694 Z"/>
             <path fill="rgb(229,229,229)" stroke="none" d="M 11937,13694 L 11940,13694 11940,13704 11937,13704 11937,13694 Z"/>
            </g>
           </pattern>
          </defs>
          <path style="fill:url(#pattern2)" d="M 11874,14057 L 11874,13675 12094,13548 12094,13930 11874,14057 Z"/>
         </g>
         <path fill="none" stroke="rgb(255,255,255)" stroke-width="40" stroke-linejoin="round" d="M 11874,14057 L 11874,13675 12094,13548 12094,13930 11874,14057 Z"/>
        </g>
       </g>
       <g class="com.sun.star.drawing.PolyLineShape">
        <g id="id13">
         <rect class="BoundingBox" stroke="none" fill="none" x="11414" y="14673" width="702" height="359"/>
         <path fill="none" stroke="rgb(127,127,127)" stroke-width="40" stroke-linejoin="round" d="M 12095,15011 L 11874,14884 11764,14884 11434,14693"/>
        </g>
       </g>
       <g class="com.sun.star.drawing.PolyLineShape">
        <g id="id14">
         <rect class="BoundingBox" stroke="none" fill="none" x="11414" y="14418" width="702" height="359"/>
         <path fill="none" stroke="rgb(127,127,127)" stroke-width="40" stroke-linejoin="round" d="M 12095,14756 L 11874,14629 11764,14629 11434,14438"/>
        </g>
       </g>
       <g class="com.sun.star.drawing.PolyPolygonShape">
        <g id="id15">
         <rect class="BoundingBox" stroke="none" fill="none" x="11414" y="13273" width="1142" height="2141"/>
         <path fill="none" stroke="rgb(0,0,0)" stroke-width="40" stroke-linejoin="round" d="M 11874,15266 L 11764,15266 11434,15075 11434,13420 11654,13293 11764,13293 12095,13484 12095,13611 12535,13866 12535,15138 12095,15393 11874,15266 Z"/>
        </g>
       </g>
      </g>
     </g>
    </g>
   </g>
  </g>
 </g>
</svg>