<?xml version="1.0" encoding="UTF-8"?>
<!DOCTYPE svg PUBLIC "-//W3C//DTD SVG 1.1//EN" "http://www.w3.org/Graphics/SVG/1.1/DTD/svg11.dtd">
<svg version="1.2" width="62.04mm" height="56.4mm" viewBox="2738 20922 6204 5640" preserveAspectRatio="xMidYMid" fill-rule="evenodd" stroke-width="28.222" stroke-linejoin="round" xmlns="http://www.w3.org/2000/svg" xmlns:ooo="http://xml.openoffice.org/svg/export" xmlns:xlink="http://www.w3.org/1999/xlink" xmlns:presentation="http://sun.com/xmlns/staroffice/presentation" xmlns:smil="http://www.w3.org/2001/SMIL20/" xmlns:anim="urn:oasis:names:tc:opendocument:xmlns:animation:1.0" xml:space="preserve">
 <defs class="ClipPathGroup">
  <clipPath id="presentation_clip_path" clipPathUnits="userSpaceOnUse">
   <rect x="2738" y="20922" width="6204" height="5640"/>
  </clipPath>
 </defs>
 <defs class="TextShapeIndex">
  <g ooo:slide="id1" ooo:id-list="id3 id4 id5 id6 id7 id8 id9 id10 id11 id12 id13 id14 id15 id16 id17 id18 id19 id20"/>
 </defs>
 <defs class="EmbeddedBulletChars">
  <g id="bullet-char-template(57356)" transform="scale(0.00048828125,-0.00048828125)">
   <path d="M 580,1141 L 1163,571 580,0 -4,571 580,1141 Z"/>
  </g>
  <g id="bullet-char-template(57354)" transform="scale(0.00048828125,-0.00048828125)">
   <path d="M 8,1128 L 1137,1128 1137,0 8,0 8,1128 Z"/>
  </g>
  <g id="bullet-char-template(10146)" transform="scale(0.00048828125,-0.00048828125)">
   <path d="M 174,0 L 602,739 174,1481 1456,739 174,0 Z M 1358,739 L 309,1346 659,739 1358,739 Z"/>
  </g>
  <g id="bullet-char-template(10132)" transform="scale(0.00048828125,-0.00048828125)">
   <path d="M 2015,739 L 1276,0 717,0 1260,543 174,543 174,936 1260,936 717,1481 1274,1481 2015,739 Z"/>
  </g>
  <g id="bullet-char-template(10007)" transform="scale(0.00048828125,-0.00048828125)">
   <path d="M 0,-2 C -7,14 -16,27 -25,37 L 356,567 C 262,823 215,952 215,954 215,979 228,992 255,992 264,992 276,990 289,987 310,991 331,999 354,1012 L 381,999 492,748 772,1049 836,1024 860,1049 C 881,1039 901,1025 922,1006 886,937 835,863 770,784 769,783 710,716 594,584 L 774,223 C 774,196 753,168 711,139 L 727,119 C 717,90 699,76 672,76 641,76 570,178 457,381 L 164,-76 C 142,-110 111,-127 72,-127 30,-127 9,-110 8,-76 1,-67 -2,-52 -2,-32 -2,-23 -1,-13 0,-2 Z"/>
  </g>
  <g id="bullet-char-template(10004)" transform="scale(0.00048828125,-0.00048828125)">
   <path d="M 285,-33 C 182,-33 111,30 74,156 52,228 41,333 41,471 41,549 55,616 82,672 116,743 169,778 240,778 293,778 328,747 346,684 L 369,508 C 377,444 397,411 428,410 L 1163,1116 C 1174,1127 1196,1133 1229,1133 1271,1133 1292,1118 1292,1087 L 1292,965 C 1292,929 1282,901 1262,881 L 442,47 C 390,-6 338,-33 285,-33 Z"/>
  </g>
  <g id="bullet-char-template(9679)" transform="scale(0.00048828125,-0.00048828125)">
   <path d="M 813,0 C 632,0 489,54 383,161 276,268 223,411 223,592 223,773 276,916 383,1023 489,1130 632,1184 813,1184 992,1184 1136,1130 1245,1023 1353,916 1407,772 1407,592 1407,412 1353,268 1245,161 1136,54 992,0 813,0 Z"/>
  </g>
  <g id="bullet-char-template(8226)" transform="scale(0.00048828125,-0.00048828125)">
   <path d="M 346,457 C 273,457 209,483 155,535 101,586 74,649 74,723 74,796 101,859 155,911 209,963 273,989 346,989 419,989 480,963 531,910 582,859 608,796 608,723 608,648 583,586 532,535 482,483 420,457 346,457 Z"/>
  </g>
  <g id="bullet-char-template(8211)" transform="scale(0.00048828125,-0.00048828125)">
   <path d="M -4,459 L 1135,459 1135,606 -4,606 -4,459 Z"/>
  </g>
 </defs>
 <defs class="TextEmbeddedBitmaps"/>
 <g class="SlideGroup">
  <g>
   <g id="id1" class="Slide" clip-path="url(#presentation_clip_path)">
    <g class="Page">
     <g class="Group">
      <g class="com.sun.star.drawing.ClosedBezierShape">
       <g id="id3">
        <rect class="BoundingBox" stroke="none" fill="none" x="4689" y="24078" width="4254" height="2412"/>
        <path fill="rgb(221,221,221)" stroke="none" d="M 4690,26488 C 4955,26488 8941,24561 8941,24400 8941,24240 8819,24079 8554,24079 8554,24240 4690,26221 4690,26488 Z"/>
        <path fill="none" stroke="rgb(221,221,221)" d="M 4690,26488 C 4955,26488 8941,24561 8941,24400 8941,24240 8819,24079 8554,24079 8554,24240 4690,26221 4690,26488 Z"/>
       </g>
      </g>
      <g class="Group">
       <g class="com.sun.star.drawing.PolyPolygonShape">
        <g id="id4">
         <rect class="BoundingBox" stroke="none" fill="none" x="2738" y="23162" width="1981" height="3402"/>
         <g>
          <defs>
           <linearGradient id="gradient1" x1="2757" y1="24862" x2="4699" y2="24862" gradientUnits="userSpaceOnUse">
            <stop offset="0.1" style="stop-color:rgb(51,51,51)"/>
            <stop offset="1" style="stop-color:rgb(153,153,153)"/>
           </linearGradient>
          </defs>
          <path style="fill:url(#gradient1)" d="M 2758,25422 L 2758,23182 4698,24302 4690,26542 2758,25422 Z"/>
         </g>
         <path fill="none" stroke="rgb(178,178,178)" stroke-width="40" stroke-linejoin="round" d="M 2758,25422 L 2758,23182 4698,24302 4690,26542 2758,25422 Z"/>
        </g>
       </g>
       <g class="com.sun.star.drawing.PolyPolygonShape">
        <g id="id5">
         <rect class="BoundingBox" stroke="none" fill="none" x="4670" y="22042" width="3929" height="4521"/>
         <g>
          <defs>
           <pattern id="pattern1" x="4690" y="22062" width="3889" height="4481" patternUnits="userSpaceOnUse">
            <g transform="translate(-4690,-22062)">
             <path fill="rgb(51,51,51)" stroke="none" d="M 4689,22061 L 8579,22061 8579,26543 4689,26543 4689,22061 Z M 3931,21186 L 7781,21186 7781,25624 3931,25624 3931,21186 Z"/>
             <path fill="rgb(52,52,52)" stroke="none" d="M 3931,21186 L 7781,21186 7781,25624 3931,25624 3931,21186 Z M 3950,21208 L 7762,21208 7762,25602 3950,25602 3950,21208 Z"/>
             <path fill="rgb(53,53,53)" stroke="none" d="M 3950,21208 L 7762,21208 7762,25602 3950,25602 3950,21208 Z M 3969,21230 L 7743,21230 7743,25580 3969,25580 3969,21230 Z"/>
             <path fill="rgb(54,54,54)" stroke="none" d="M 3969,21230 L 7743,21230 7743,25580 3969,25580 3969,21230 Z M 3988,21252 L 7724,21252 7724,25558 3988,25558 3988,21252 Z"/>
             <path fill="rgb(55,55,55)" stroke="none" d="M 3988,21252 L 7724,21252 7724,25558 3988,25558 3988,21252 Z M 4007,21274 L 7705,21274 7705,25536 4007,25536 4007,21274 Z"/>
             <path fill="rgb(56,56,56)" stroke="none" d="M 4007,21274 L 7705,21274 7705,25536 4007,25536 4007,21274 Z M 4026,21296 L 7686,21296 7686,25514 4026,25514 4026,21296 Z"/>
             <path fill="rgb(57,57,57)" stroke="none" d="M 4026,21296 L 7686,21296 7686,25514 4026,25514 4026,21296 Z M 4045,21318 L 7667,21318 7667,25492 4045,25492 4045,21318 Z"/>
             <path fill="rgb(58,58,58)" stroke="none" d="M 4045,21318 L 7667,21318 7667,25492 4045,25492 4045,21318 Z M 4064,21340 L 7648,21340 7648,25470 4064,25470 4064,21340 Z"/>
             <path fill="rgb(59,59,59)" stroke="none" d="M 4064,21340 L 7648,21340 7648,25470 4064,25470 4064,21340 Z M 4083,21362 L 7629,21362 7629,25448 4083,25448 4083,21362 Z"/>
             <path fill="rgb(60,60,60)" stroke="none" d="M 4083,21362 L 7629,21362 7629,25448 4083,25448 4083,21362 Z M 4102,21384 L 7610,21384 7610,25426 4102,25426 4102,21384 Z"/>
             <path fill="rgb(61,61,61)" stroke="none" d="M 4102,21384 L 7610,21384 7610,25426 4102,25426 4102,21384 Z M 4121,21406 L 7591,21406 7591,25404 4121,25404 4121,21406 Z"/>
             <path fill="rgb(62,62,62)" stroke="none" d="M 4121,21406 L 7591,21406 7591,25404 4121,25404 4121,21406 Z M 4140,21428 L 7572,21428 7572,25382 4140,25382 4140,21428 Z"/>
             <path fill="rgb(63,63,63)" stroke="none" d="M 4140,21428 L 7572,21428 7572,25382 4140,25382 4140,21428 Z M 4159,21450 L 7553,21450 7553,25360 4159,25360 4159,21450 Z"/>
             <path fill="rgb(64,64,64)" stroke="none" d="M 4159,21450 L 7553,21450 7553,25360 4159,25360 4159,21450 Z M 4179,21472 L 7533,21472 7533,25338 4179,25338 4179,21472 Z"/>
             <path fill="rgb(65,65,65)" stroke="none" d="M 4179,21472 L 7533,21472 7533,25338 4179,25338 4179,21472 Z M 4198,21494 L 7514,21494 7514,25316 4198,25316 4198,21494 Z"/>
             <path fill="rgb(66,66,66)" stroke="none" d="M 4198,21494 L 7514,21494 7514,25316 4198,25316 4198,21494 Z M 4217,21516 L 7495,21516 7495,25294 4217,25294 4217,21516 Z"/>
             <path fill="rgb(67,67,67)" stroke="none" d="M 4217,21516 L 7495,21516 7495,25294 4217,25294 4217,21516 Z M 4236,21538 L 7476,21538 7476,25272 4236,25272 4236,21538 Z"/>
             <path fill="rgb(68,68,68)" stroke="none" d="M 4236,21538 L 7476,21538 7476,25272 4236,25272 4236,21538 Z M 4255,21560 L 7457,21560 7457,25250 4255,25250 4255,21560 Z"/>
             <path fill="rgb(69,69,69)" stroke="none" d="M 4255,21560 L 7457,21560 7457,25250 4255,25250 4255,21560 Z M 4274,21582 L 7438,21582 7438,25228 4274,25228 4274,21582 Z"/>
             <path fill="rgb(70,70,70)" stroke="none" d="M 4274,21582 L 7438,21582 7438,25228 4274,25228 4274,21582 Z M 4293,21604 L 7419,21604 7419,25206 4293,25206 4293,21604 Z"/>
             <path fill="rgb(71,71,71)" stroke="none" d="M 4293,21604 L 7419,21604 7419,25206 4293,25206 4293,21604 Z M 4312,21626 L 7400,21626 7400,25184 4312,25184 4312,21626 Z"/>
             <path fill="rgb(72,72,72)" stroke="none" d="M 4312,21626 L 7400,21626 7400,25184 4312,25184 4312,21626 Z M 4331,21648 L 7381,21648 7381,25162 4331,25162 4331,21648 Z"/>
             <path fill="rgb(73,73,73)" stroke="none" d="M 4331,21648 L 7381,21648 7381,25162 4331,25162 4331,21648 Z M 4350,21670 L 7362,21670 7362,25140 4350,25140 4350,21670 Z"/>
             <path fill="rgb(74,74,74)" stroke="none" d="M 4350,21670 L 7362,21670 7362,25140 4350,25140 4350,21670 Z M 4369,21692 L 7343,21692 7343,25118 4369,25118 4369,21692 Z"/>
             <path fill="rgb(75,75,75)" stroke="none" d="M 4369,21692 L 7343,21692 7343,25118 4369,25118 4369,21692 Z M 4388,21714 L 7324,21714 7324,25096 4388,25096 4388,21714 Z"/>
             <path fill="rgb(76,76,76)" stroke="none" d="M 4388,21714 L 7324,21714 7324,25096 4388,25096 4388,21714 Z M 4407,21736 L 7305,21736 7305,25074 4407,25074 4407,21736 Z"/>
             <path fill="rgb(77,77,77)" stroke="none" d="M 4407,21736 L 7305,21736 7305,25074 4407,25074 4407,21736 Z M 4426,21758 L 7286,21758 7286,25052 4426,25052 4426,21758 Z"/>
             <path fill="rgb(78,78,78)" stroke="none" d="M 4426,21758 L 7286,21758 7286,25052 4426,25052 4426,21758 Z M 4446,21780 L 7266,21780 7266,25030 4446,25030 4446,21780 Z"/>
             <path fill="rgb(79,79,79)" stroke="none" d="M 4446,21780 L 7266,21780 7266,25030 4446,25030 4446,21780 Z M 4465,21802 L 7247,21802 7247,25008 4465,25008 4465,21802 Z"/>
             <path fill="rgb(80,80,80)" stroke="none" d="M 4465,21802 L 7247,21802 7247,25008 4465,25008 4465,21802 Z M 4484,21824 L 7228,21824 7228,24986 4484,24986 4484,21824 Z"/>
             <path fill="rgb(81,81,81)" stroke="none" d="M 4484,21824 L 7228,21824 7228,24986 4484,24986 4484,21824 Z M 4503,21846 L 7209,21846 7209,24964 4503,24964 4503,21846 Z"/>
             <path fill="rgb(82,82,82)" stroke="none" d="M 4503,21846 L 7209,21846 7209,24964 4503,24964 4503,21846 Z M 4522,21868 L 7190,21868 7190,24942 4522,24942 4522,21868 Z"/>
             <path fill="rgb(83,83,83)" stroke="none" d="M 4522,21868 L 7190,21868 7190,24942 4522,24942 4522,21868 Z M 4541,21890 L 7171,21890 7171,24920 4541,24920 4541,21890 Z"/>
             <path fill="rgb(84,84,84)" stroke="none" d="M 4541,21890 L 7171,21890 7171,24920 4541,24920 4541,21890 Z M 4560,21912 L 7152,21912 7152,24898 4560,24898 4560,21912 Z"/>
             <path fill="rgb(85,85,85)" stroke="none" d="M 4560,21912 L 7152,21912 7152,24898 4560,24898 4560,21912 Z M 4579,21934 L 7133,21934 7133,24876 4579,24876 4579,21934 Z"/>
             <path fill="rgb(86,86,86)" stroke="none" d="M 4579,21934 L 7133,21934 7133,24876 4579,24876 4579,21934 Z M 4598,21956 L 7114,21956 7114,24854 4598,24854 4598,21956 Z"/>
             <path fill="rgb(87,87,87)" stroke="none" d="M 4598,21956 L 7114,21956 7114,24854 4598,24854 4598,21956 Z M 4617,21978 L 7095,21978 7095,24832 4617,24832 4617,21978 Z"/>
             <path fill="rgb(88,88,88)" stroke="none" d="M 4617,21978 L 7095,21978 7095,24832 4617,24832 4617,21978 Z M 4636,22000 L 7076,22000 7076,24810 4636,24810 4636,22000 Z"/>
             <path fill="rgb(89,89,89)" stroke="none" d="M 4636,22000 L 7076,22000 7076,24810 4636,24810 4636,22000 Z M 4655,22022 L 7057,22022 7057,24788 4655,24788 4655,22022 Z"/>
             <path fill="rgb(90,90,90)" stroke="none" d="M 4655,22022 L 7057,22022 7057,24788 4655,24788 4655,22022 Z M 4673,22043 L 7038,22043 7038,24766 4673,24766 4673,22043 Z"/>
             <path fill="rgb(91,91,91)" stroke="none" d="M 4673,22043 L 7038,22043 7038,24766 4673,24766 4673,22043 Z M 4693,22064 L 7018,22064 7018,24745 4693,24745 4693,22064 Z"/>
             <path fill="rgb(92,92,92)" stroke="none" d="M 4693,22064 L 7018,22064 7018,24745 4693,24745 4693,22064 Z M 4712,22086 L 6999,22086 6999,24723 4712,24723 4712,22086 Z"/>
             <path fill="rgb(93,93,93)" stroke="none" d="M 4712,22086 L 6999,22086 6999,24723 4712,24723 4712,22086 Z M 4731,22108 L 6980,22108 6980,24701 4731,24701 4731,22108 Z"/>
             <path fill="rgb(94,94,94)" stroke="none" d="M 4731,22108 L 6980,22108 6980,24701 4731,24701 4731,22108 Z M 4750,22130 L 6961,22130 6961,24679 4750,24679 4750,22130 Z"/>
             <path fill="rgb(95,95,95)" stroke="none" d="M 4750,22130 L 6961,22130 6961,24679 4750,24679 4750,22130 Z M 4769,22152 L 6942,22152 6942,24657 4769,24657 4769,22152 Z"/>
             <path fill="rgb(96,96,96)" stroke="none" d="M 4769,22152 L 6942,22152 6942,24657 4769,24657 4769,22152 Z M 4788,22174 L 6923,22174 6923,24635 4788,24635 4788,22174 Z"/>
             <path fill="rgb(97,97,97)" stroke="none" d="M 4788,22174 L 6923,22174 6923,24635 4788,24635 4788,22174 Z M 4807,22196 L 6904,22196 6904,24613 4807,24613 4807,22196 Z"/>
             <path fill="rgb(98,98,98)" stroke="none" d="M 4807,22196 L 6904,22196 6904,24613 4807,24613 4807,22196 Z M 4826,22218 L 6885,22218 6885,24591 4826,24591 4826,22218 Z"/>
             <path fill="rgb(99,99,99)" stroke="none" d="M 4826,22218 L 6885,22218 6885,24591 4826,24591 4826,22218 Z M 4845,22240 L 6866,22240 6866,24569 4845,24569 4845,22240 Z"/>
             <path fill="rgb(100,100,100)" stroke="none" d="M 4845,22240 L 6866,22240 6866,24569 4845,24569 4845,22240 Z M 4864,22262 L 6847,22262 6847,24547 4864,24547 4864,22262 Z"/>
             <path fill="rgb(101,101,101)" stroke="none" d="M 4864,22262 L 6847,22262 6847,24547 4864,24547 4864,22262 Z M 4883,22284 L 6828,22284 6828,24525 4883,24525 4883,22284 Z"/>
             <path fill="rgb(102,102,102)" stroke="none" d="M 4883,22284 L 6828,22284 6828,24525 4883,24525 4883,22284 Z M 4902,22306 L 6809,22306 6809,24503 4902,24503 4902,22306 Z"/>
             <path fill="rgb(103,103,103)" stroke="none" d="M 4902,22306 L 6809,22306 6809,24503 4902,24503 4902,22306 Z M 4921,22328 L 6790,22328 6790,24481 4921,24481 4921,22328 Z"/>
             <path fill="rgb(104,104,104)" stroke="none" d="M 4921,22328 L 6790,22328 6790,24481 4921,24481 4921,22328 Z M 4940,22350 L 6771,22350 6771,24459 4940,24459 4940,22350 Z"/>
             <path fill="rgb(105,105,105)" stroke="none" d="M 4940,22350 L 6771,22350 6771,24459 4940,24459 4940,22350 Z M 4960,22372 L 6751,22372 6751,24437 4960,24437 4960,22372 Z"/>
             <path fill="rgb(106,106,106)" stroke="none" d="M 4960,22372 L 6751,22372 6751,24437 4960,24437 4960,22372 Z M 4979,22394 L 6732,22394 6732,24415 4979,24415 4979,22394 Z"/>
             <path fill="rgb(107,107,107)" stroke="none" d="M 4979,22394 L 6732,22394 6732,24415 4979,24415 4979,22394 Z M 4998,22416 L 6713,22416 6713,24393 4998,24393 4998,22416 Z"/>
             <path fill="rgb(108,108,108)" stroke="none" d="M 4998,22416 L 6713,22416 6713,24393 4998,24393 4998,22416 Z M 5017,22438 L 6694,22438 6694,24371 5017,24371 5017,22438 Z"/>
             <path fill="rgb(109,109,109)" stroke="none" d="M 5017,22438 L 6694,22438 6694,24371 5017,24371 5017,22438 Z M 5036,22460 L 6675,22460 6675,24349 5036,24349 5036,22460 Z"/>
             <path fill="rgb(110,110,110)" stroke="none" d="M 5036,22460 L 6675,22460 6675,24349 5036,24349 5036,22460 Z M 5055,22482 L 6656,22482 6656,24327 5055,24327 5055,22482 Z"/>
             <path fill="rgb(111,111,111)" stroke="none" d="M 5055,22482 L 6656,22482 6656,24327 5055,24327 5055,22482 Z M 5074,22504 L 6637,22504 6637,24305 5074,24305 5074,22504 Z"/>
             <path fill="rgb(112,112,112)" stroke="none" d="M 5074,22504 L 6637,22504 6637,24305 5074,24305 5074,22504 Z M 5093,22526 L 6618,22526 6618,24283 5093,24283 5093,22526 Z"/>
             <path fill="rgb(113,113,113)" stroke="none" d="M 5093,22526 L 6618,22526 6618,24283 5093,24283 5093,22526 Z M 5112,22548 L 6599,22548 6599,24261 5112,24261 5112,22548 Z"/>
             <path fill="rgb(114,114,114)" stroke="none" d="M 5112,22548 L 6599,22548 6599,24261 5112,24261 5112,22548 Z M 5131,22570 L 6580,22570 6580,24239 5131,24239 5131,22570 Z"/>
             <path fill="rgb(115,115,115)" stroke="none" d="M 5131,22570 L 6580,22570 6580,24239 5131,24239 5131,22570 Z M 5150,22592 L 6561,22592 6561,24217 5150,24217 5150,22592 Z"/>
             <path fill="rgb(116,116,116)" stroke="none" d="M 5150,22592 L 6561,22592 6561,24217 5150,24217 5150,22592 Z M 5169,22614 L 6542,22614 6542,24195 5169,24195 5169,22614 Z"/>
             <path fill="rgb(117,117,117)" stroke="none" d="M 5169,22614 L 6542,22614 6542,24195 5169,24195 5169,22614 Z M 5188,22636 L 6523,22636 6523,24173 5188,24173 5188,22636 Z"/>
             <path fill="rgb(118,118,118)" stroke="none" d="M 5188,22636 L 6523,22636 6523,24173 5188,24173 5188,22636 Z M 5208,22658 L 6503,22658 6503,24151 5208,24151 5208,22658 Z"/>
             <path fill="rgb(119,119,119)" stroke="none" d="M 5208,22658 L 6503,22658 6503,24151 5208,24151 5208,22658 Z M 5227,22680 L 6484,22680 6484,24129 5227,24129 5227,22680 Z"/>
             <path fill="rgb(120,120,120)" stroke="none" d="M 5227,22680 L 6484,22680 6484,24129 5227,24129 5227,22680 Z M 5246,22702 L 6465,22702 6465,24107 5246,24107 5246,22702 Z"/>
             <path fill="rgb(121,121,121)" stroke="none" d="M 5246,22702 L 6465,22702 6465,24107 5246,24107 5246,22702 Z M 5265,22724 L 6446,22724 6446,24085 5265,24085 5265,22724 Z"/>
             <path fill="rgb(122,122,122)" stroke="none" d="M 5265,22724 L 6446,22724 6446,24085 5265,24085 5265,22724 Z M 5284,22746 L 6427,22746 6427,24063 5284,24063 5284,22746 Z"/>
             <path fill="rgb(123,123,123)" stroke="none" d="M 5284,22746 L 6427,22746 6427,24063 5284,24063 5284,22746 Z M 5303,22768 L 6408,22768 6408,24041 5303,24041 5303,22768 Z"/>
             <path fill="rgb(124,124,124)" stroke="none" d="M 5303,22768 L 6408,22768 6408,24041 5303,24041 5303,22768 Z M 5322,22790 L 6389,22790 6389,24019 5322,24019 5322,22790 Z"/>
             <path fill="rgb(125,125,125)" stroke="none" d="M 5322,22790 L 6389,22790 6389,24019 5322,24019 5322,22790 Z M 5341,22812 L 6370,22812 6370,23997 5341,23997 5341,22812 Z"/>
             <path fill="rgb(126,126,126)" stroke="none" d="M 5341,22812 L 6370,22812 6370,23997 5341,23997 5341,22812 Z M 5360,22834 L 6351,22834 6351,23975 5360,23975 5360,22834 Z"/>
             <path fill="rgb(127,127,127)" stroke="none" d="M 5360,22834 L 6351,22834 6351,23975 5360,23975 5360,22834 Z M 5379,22856 L 6332,22856 6332,23953 5379,23953 5379,22856 Z"/>
             <path fill="rgb(128,128,128)" stroke="none" d="M 5379,22856 L 6332,22856 6332,23953 5379,23953 5379,22856 Z M 5398,22878 L 6313,22878 6313,23931 5398,23931 5398,22878 Z"/>
             <path fill="rgb(129,129,129)" stroke="none" d="M 5398,22878 L 6313,22878 6313,23931 5398,23931 5398,22878 Z M 5417,22900 L 6294,22900 6294,23909 5417,23909 5417,22900 Z"/>
             <path fill="rgb(130,130,130)" stroke="none" d="M 5417,22900 L 6294,22900 6294,23909 5417,23909 5417,22900 Z M 5436,22922 L 6275,22922 6275,23887 5436,23887 5436,22922 Z"/>
             <path fill="rgb(131,131,131)" stroke="none" d="M 5436,22922 L 6275,22922 6275,23887 5436,23887 5436,22922 Z M 5455,22944 L 6256,22944 6256,23865 5455,23865 5455,22944 Z"/>
             <path fill="rgb(132,132,132)" stroke="none" d="M 5455,22944 L 6256,22944 6256,23865 5455,23865 5455,22944 Z M 5475,22965 L 6236,22965 6236,23844 5475,23844 5475,22965 Z"/>
             <path fill="rgb(133,133,133)" stroke="none" d="M 5475,22965 L 6236,22965 6236,23844 5475,23844 5475,22965 Z M 5494,22987 L 6217,22987 6217,23822 5494,23822 5494,22987 Z"/>
             <path fill="rgb(134,134,134)" stroke="none" d="M 5494,22987 L 6217,22987 6217,23822 5494,23822 5494,22987 Z M 5513,23009 L 6198,23009 6198,23800 5513,23800 5513,23009 Z"/>
             <path fill="rgb(135,135,135)" stroke="none" d="M 5513,23009 L 6198,23009 6198,23800 5513,23800 5513,23009 Z M 5532,23031 L 6179,23031 6179,23778 5532,23778 5532,23031 Z"/>
             <path fill="rgb(136,136,136)" stroke="none" d="M 5532,23031 L 6179,23031 6179,23778 5532,23778 5532,23031 Z M 5551,23053 L 6160,23053 6160,23756 5551,23756 5551,23053 Z"/>
             <path fill="rgb(137,137,137)" stroke="none" d="M 5551,23053 L 6160,23053 6160,23756 5551,23756 5551,23053 Z M 5570,23075 L 6141,23075 6141,23734 5570,23734 5570,23075 Z"/>
             <path fill="rgb(138,138,138)" stroke="none" d="M 5570,23075 L 6141,23075 6141,23734 5570,23734 5570,23075 Z M 5589,23097 L 6122,23097 6122,23712 5589,23712 5589,23097 Z"/>
             <path fill="rgb(139,139,139)" stroke="none" d="M 5589,23097 L 6122,23097 6122,23712 5589,23712 5589,23097 Z M 5608,23119 L 6103,23119 6103,23690 5608,23690 5608,23119 Z"/>
             <path fill="rgb(140,140,140)" stroke="none" d="M 5608,23119 L 6103,23119 6103,23690 5608,23690 5608,23119 Z M 5627,23141 L 6084,23141 6084,23668 5627,23668 5627,23141 Z"/>
             <path fill="rgb(141,141,141)" stroke="none" d="M 5627,23141 L 6084,23141 6084,23668 5627,23668 5627,23141 Z M 5646,23163 L 6065,23163 6065,23646 5646,23646 5646,23163 Z"/>
             <path fill="rgb(142,142,142)" stroke="none" d="M 5646,23163 L 6065,23163 6065,23646 5646,23646 5646,23163 Z M 5665,23185 L 6046,23185 6046,23624 5665,23624 5665,23185 Z"/>
             <path fill="rgb(143,143,143)" stroke="none" d="M 5665,23185 L 6046,23185 6046,23624 5665,23624 5665,23185 Z M 5684,23207 L 6027,23207 6027,23602 5684,23602 5684,23207 Z"/>
             <path fill="rgb(144,144,144)" stroke="none" d="M 5684,23207 L 6027,23207 6027,23602 5684,23602 5684,23207 Z M 5703,23229 L 6008,23229 6008,23580 5703,23580 5703,23229 Z"/>
             <path fill="rgb(145,145,145)" stroke="none" d="M 5703,23229 L 6008,23229 6008,23580 5703,23580 5703,23229 Z M 5722,23251 L 5989,23251 5989,23558 5722,23558 5722,23251 Z"/>
             <path fill="rgb(146,146,146)" stroke="none" d="M 5722,23251 L 5989,23251 5989,23558 5722,23558 5722,23251 Z M 5742,23273 L 5969,23273 5969,23536 5742,23536 5742,23273 Z"/>
             <path fill="rgb(147,147,147)" stroke="none" d="M 5742,23273 L 5969,23273 5969,23536 5742,23536 5742,23273 Z M 5761,23295 L 5950,23295 5950,23514 5761,23514 5761,23295 Z"/>
             <path fill="rgb(148,148,148)" stroke="none" d="M 5761,23295 L 5950,23295 5950,23514 5761,23514 5761,23295 Z M 5780,23317 L 5931,23317 5931,23492 5780,23492 5780,23317 Z"/>
             <path fill="rgb(149,149,149)" stroke="none" d="M 5780,23317 L 5931,23317 5931,23492 5780,23492 5780,23317 Z M 5799,23339 L 5912,23339 5912,23470 5799,23470 5799,23339 Z"/>
             <path fill="rgb(150,150,150)" stroke="none" d="M 5799,23339 L 5912,23339 5912,23470 5799,23470 5799,23339 Z M 5818,23361 L 5893,23361 5893,23448 5818,23448 5818,23361 Z"/>
             <path fill="rgb(151,151,151)" stroke="none" d="M 5818,23361 L 5893,23361 5893,23448 5818,23448 5818,23361 Z M 5837,23383 L 5874,23383 5874,23426 5837,23426 5837,23383 Z"/>
             <path fill="rgb(153,153,153)" stroke="none" d="M 5837,23383 L 5874,23383 5874,23426 5837,23426 5837,23383 Z"/>
            </g>
           </pattern>
          </defs>
          <path style="fill:url(#pattern1)" d="M 4690,26542 L 4698,24302 8578,22062 8578,24302 4690,26542 Z"/>
         </g>
         <path fill="none" stroke="rgb(178,178,178)" stroke-width="40" stroke-linejoin="round" d="M 4690,26542 L 4698,24302 8578,22062 8578,24302 4690,26542 Z"/>
        </g>
       </g>
       <g class="com.sun.star.drawing.PolyPolygonShape">
        <g id="id6">
         <rect class="BoundingBox" stroke="none" fill="none" x="2738" y="20922" width="5861" height="3402"/>
         <g>
          <defs>
           <linearGradient id="gradient2" x1="5668" y1="20942" x2="5668" y2="24302" gradientUnits="userSpaceOnUse">
            <stop offset="0.1" style="stop-color:rgb(51,51,51)"/>
            <stop offset="1" style="stop-color:rgb(153,153,153)"/>
           </linearGradient>
          </defs>
          <path style="fill:url(#gradient2)" d="M 4698,24302 L 2758,23182 6638,20942 8578,22062 4698,24302 Z"/>
         </g>
         <path fill="none" stroke="rgb(178,178,178)" stroke-width="40" stroke-linejoin="round" d="M 4698,24302 L 2758,23182 6638,20942 8578,22062 4698,24302 Z"/>
        </g>
       </g>
       <g class="com.sun.star.drawing.PolyPolygonShape">
        <g id="id7">
         <rect class="BoundingBox" stroke="none" fill="none" x="3897" y="24862" width="138" height="255"/>
         <path fill="rgb(153,255,102)" stroke="none" d="M 3917,25043 L 3917,24882 4014,24936 4014,25096 3917,25043 Z"/>
         <path fill="none" stroke="rgb(51,51,51)" stroke-width="40" stroke-linejoin="round" d="M 3917,25043 L 3917,24882 4014,24936 4014,25096 3917,25043 Z"/>
        </g>
       </g>
       <g class="com.sun.star.drawing.PolyPolygonShape">
        <g id="id8">
         <rect class="BoundingBox" stroke="none" fill="none" x="3414" y="24593" width="138" height="256"/>
         <path fill="rgb(255,51,51)" stroke="none" d="M 3434,24775 L 3434,24614 3531,24668 3531,24828 3434,24775 Z"/>
         <path fill="none" stroke="rgb(51,51,51)" stroke-width="40" stroke-linejoin="round" d="M 3434,24775 L 3434,24614 3531,24668 3531,24828 3434,24775 Z"/>
        </g>
       </g>
       <g class="com.sun.star.drawing.PolyPolygonShape">
        <g id="id9">
         <rect class="BoundingBox" stroke="none" fill="none" x="3607" y="24702" width="234" height="416"/>
         <path fill="rgb(102,102,102)" stroke="none" d="M 3627,24990 L 3627,24722 3820,24829 3820,25097 3627,24990 Z"/>
         <path fill="none" stroke="rgb(178,178,178)" stroke-width="40" stroke-linejoin="round" d="M 3627,24990 L 3627,24722 3820,24829 3820,25097 3627,24990 Z"/>
        </g>
       </g>
       <g class="com.sun.star.drawing.PolyPolygonShape">
        <g id="id10">
         <rect class="BoundingBox" stroke="none" fill="none" x="3318" y="24166" width="815" height="737"/>
         <g>
          <defs>
           <linearGradient id="gradient3" x1="3337" y1="24534" x2="4111" y2="24534" gradientUnits="userSpaceOnUse">
            <stop offset="0.1" style="stop-color:rgb(147,212,240)"/>
            <stop offset="1" style="stop-color:rgb(233,246,252)"/>
           </linearGradient>
          </defs>
          <path style="fill:url(#gradient3)" d="M 3338,24454 L 3338,24186 4111,24614 4111,24882 3338,24454 Z"/>
         </g>
         <path fill="none" stroke="rgb(51,51,51)" stroke-width="40" stroke-linejoin="round" d="M 3338,24454 L 3338,24186 4111,24614 4111,24882 3338,24454 Z"/>
        </g>
       </g>
       <g class="com.sun.star.drawing.LineShape">
        <g id="id11">
         <rect class="BoundingBox" stroke="none" fill="none" x="3221" y="23442" width="43" height="2318"/>
         <path fill="none" stroke="rgb(178,178,178)" stroke-width="40" stroke-linejoin="round" d="M 3243,23462 L 3241,25739"/>
        </g>
       </g>
       <g class="com.sun.star.drawing.LineShape">
        <g id="id12">
         <rect class="BoundingBox" stroke="none" fill="none" x="4187" y="24002" width="47" height="2293"/>
         <path fill="none" stroke="rgb(178,178,178)" stroke-width="40" stroke-linejoin="round" d="M 4213,24022 L 4207,26274"/>
        </g>
       </g>
       <g class="com.sun.star.drawing.LineShape">
        <g id="id13">
         <rect class="BoundingBox" stroke="none" fill="none" x="8315" y="23302" width="41" height="1021"/>
         <path fill="none" stroke="rgb(153,153,153)" stroke-width="40" stroke-linejoin="round" d="M 8335,23322 L 8335,24302"/>
        </g>
       </g>
       <g class="com.sun.star.drawing.LineShape">
        <g id="id14">
         <rect class="BoundingBox" stroke="none" fill="none" x="8194" y="23372" width="41" height="1021"/>
         <path fill="none" stroke="rgb(153,153,153)" stroke-width="40" stroke-linejoin="round" d="M 8214,23392 L 8214,24372"/>
        </g>
       </g>
       <g class="com.sun.star.drawing.LineShape">
        <g id="id15">
         <rect class="BoundingBox" stroke="none" fill="none" x="8073" y="23442" width="41" height="1021"/>
         <path fill="none" stroke="rgb(153,153,153)" stroke-width="40" stroke-linejoin="round" d="M 8093,23462 L 8093,24442"/>
        </g>
       </g>
       <g class="com.sun.star.drawing.LineShape">
        <g id="id16">
         <rect class="BoundingBox" stroke="none" fill="none" x="7951" y="23512" width="41" height="1021"/>
         <path fill="none" stroke="rgb(153,153,153)" stroke-width="40" stroke-linejoin="round" d="M 7971,23532 L 7971,24512"/>
        </g>
       </g>
       <g class="com.sun.star.drawing.LineShape">
        <g id="id17">
         <rect class="BoundingBox" stroke="none" fill="none" x="7830" y="23582" width="41" height="1021"/>
         <path fill="none" stroke="rgb(153,153,153)" stroke-width="40" stroke-linejoin="round" d="M 7850,23602 L 7850,24582"/>
        </g>
       </g>
       <g class="com.sun.star.drawing.LineShape">
        <g id="id18">
         <rect class="BoundingBox" stroke="none" fill="none" x="8436" y="23232" width="41" height="1021"/>
         <path fill="none" stroke="rgb(153,153,153)" stroke-width="40" stroke-linejoin="round" d="M 8456,24232 L 8456,23252"/>
        </g>
       </g>
       <g class="com.sun.star.drawing.LineShape">
        <g id="id19">
         <rect class="BoundingBox" stroke="none" fill="none" x="7709" y="23652" width="41" height="1021"/>
         <path fill="none" stroke="rgb(153,153,153)" stroke-width="40" stroke-linejoin="round" d="M 7729,23672 L 7729,24652"/>
        </g>
       </g>
       <g class="com.sun.star.drawing.PolyPolygonShape">
        <g id="id20">
         <rect class="BoundingBox" stroke="none" fill="none" x="2738" y="20922" width="5861" height="5641"/>
         <path fill="none" stroke="rgb(0,0,0)" stroke-width="40" stroke-linejoin="round" d="M 2758,25422 L 2758,23182 6638,20942 8578,22062 8578,24302 4690,26542 2758,25422 Z"/>
        </g>
       </g>
      </g>
     </g>
    </g>
   </g>
  </g>
 </g>
</svg>