<?xml version="1.0" encoding="UTF-8"?>
<!DOCTYPE svg PUBLIC "-//W3C//DTD SVG 1.1//EN" "http://www.w3.org/Graphics/SVG/1.1/DTD/svg11.dtd">
<svg version="1.2" width="52.53mm" height="61.44mm" viewBox="11543 9878 5253 6144" preserveAspectRatio="xMidYMid" fill-rule="evenodd" stroke-width="28.222" stroke-linejoin="round" xmlns="http://www.w3.org/2000/svg" xmlns:ooo="http://xml.openoffice.org/svg/export" xmlns:xlink="http://www.w3.org/1999/xlink" xmlns:presentation="http://sun.com/xmlns/staroffice/presentation" xmlns:smil="http://www.w3.org/2001/SMIL20/" xmlns:anim="urn:oasis:names:tc:opendocument:xmlns:animation:1.0" xml:space="preserve">
 <defs class="ClipPathGroup">
  <clipPath id="presentation_clip_path" clipPathUnits="userSpaceOnUse">
   <rect x="11543" y="9878" width="5253" height="6144"/>
  </clipPath>
 </defs>
 <defs class="TextShapeIndex">
  <g ooo:slide="id1" ooo:id-list="id3 id4 id5 id6 id7 id8 id9 id10 id11 id12 id13 id14 id15 id16 id17 id18 id19 id20 id21 id22 id23 id24 id25 id26 id27 id28 id29 id30 id31 id32 id33 id34 id35 id36 id37 id38 id39 id40 id41 id42 id43 id44 id45 id46 id47 id48 id49 id50 id51 id52 id53 id54 id55 id56 id57 id58 id59 id60 id61 id62 id63 id64"/>
 </defs>
 <defs class="EmbeddedBulletChars">
  <g id="bullet-char-template(57356)" transform="scale(0.00048828125,-0.00048828125)">
   <path d="M 580,1141 L 1163,571 580,0 -4,571 580,1141 Z"/>
  </g>
  <g id="bullet-char-template(57354)" transform="scale(0.00048828125,-0.00048828125)">
   <path d="M 8,1128 L 1137,1128 1137,0 8,0 8,1128 Z"/>
  </g>
  <g id="bullet-char-template(10146)" transform="scale(0.00048828125,-0.00048828125)">
   <path d="M 174,0 L 602,739 174,1481 1456,739 174,0 Z M 1358,739 L 309,1346 659,739 1358,739 Z"/>
  </g>
  <g id="bullet-char-template(10132)" transform="scale(0.00048828125,-0.00048828125)">
   <path d="M 2015,739 L 1276,0 717,0 1260,543 174,543 174,936 1260,936 717,1481 1274,1481 2015,739 Z"/>
  </g>
  <g id="bullet-char-template(10007)" transform="scale(0.00048828125,-0.00048828125)">
   <path d="M 0,-2 C -7,14 -16,27 -25,37 L 356,567 C 262,823 215,952 215,954 215,979 228,992 255,992 264,992 276,990 289,987 310,991 331,999 354,1012 L 381,999 492,748 772,1049 836,1024 860,1049 C 881,1039 901,1025 922,1006 886,937 835,863 770,784 769,783 710,716 594,584 L 774,223 C 774,196 753,168 711,139 L 727,119 C 717,90 699,76 672,76 641,76 570,178 457,381 L 164,-76 C 142,-110 111,-127 72,-127 30,-127 9,-110 8,-76 1,-67 -2,-52 -2,-32 -2,-23 -1,-13 0,-2 Z"/>
  </g>
  <g id="bullet-char-template(10004)" transform="scale(0.00048828125,-0.00048828125)">
   <path d="M 285,-33 C 182,-33 111,30 74,156 52,228 41,333 41,471 41,549 55,616 82,672 116,743 169,778 240,778 293,778 328,747 346,684 L 369,508 C 377,444 397,411 428,410 L 1163,1116 C 1174,1127 1196,1133 1229,1133 1271,1133 1292,1118 1292,1087 L 1292,965 C 1292,929 1282,901 1262,881 L 442,47 C 390,-6 338,-33 285,-33 Z"/>
  </g>
  <g id="bullet-char-template(9679)" transform="scale(0.00048828125,-0.00048828125)">
   <path d="M 813,0 C 632,0 489,54 383,161 276,268 223,411 223,592 223,773 276,916 383,1023 489,1130 632,1184 813,1184 992,1184 1136,1130 1245,1023 1353,916 1407,772 1407,592 1407,412 1353,268 1245,161 1136,54 992,0 813,0 Z"/>
  </g>
  <g id="bullet-char-template(8226)" transform="scale(0.00048828125,-0.00048828125)">
   <path d="M 346,457 C 273,457 209,483 155,535 101,586 74,649 74,723 74,796 101,859 155,911 209,963 273,989 346,989 419,989 480,963 531,910 582,859 608,796 608,723 608,648 583,586 532,535 482,483 420,457 346,457 Z"/>
  </g>
  <g id="bullet-char-template(8211)" transform="scale(0.00048828125,-0.00048828125)">
   <path d="M -4,459 L 1135,459 1135,606 -4,606 -4,459 Z"/>
  </g>
 </defs>
 <defs class="TextEmbeddedBitmaps"/>
 <g class="SlideGroup">
  <g>
   <g id="id1" class="Slide" clip-path="url(#presentation_clip_path)">
    <g class="Page">
     <g class="Group">
      <g class="Group">
       <g class="com.sun.star.drawing.PolyPolygonShape">
        <g id="id3">
         <rect class="BoundingBox" stroke="none" fill="none" x="16316" y="13512" width="481" height="551"/>
         <g>
          <defs>
           <pattern id="pattern1" x="16336" y="13533" width="441" height="510" patternUnits="userSpaceOnUse">
            <g transform="translate(-16336,-13533)">
             <path fill="rgb(179,179,179)" stroke="none" d="M 16335,13532 L 16777,13532 16777,14043 16335,14043 16335,13532 Z M 16251,13435 L 16683,13435 16683,13934 16251,13934 16251,13435 Z"/>
             <path fill="rgb(180,180,180)" stroke="none" d="M 16251,13435 L 16683,13435 16683,13934 16251,13934 16251,13435 Z M 16255,13440 L 16679,13440 16679,13929 16255,13929 16255,13440 Z"/>
             <path fill="rgb(181,181,181)" stroke="none" d="M 16255,13440 L 16679,13440 16679,13929 16255,13929 16255,13440 Z M 16260,13445 L 16674,13445 16674,13924 16260,13924 16260,13445 Z"/>
             <path fill="rgb(182,182,182)" stroke="none" d="M 16260,13445 L 16674,13445 16674,13924 16260,13924 16260,13445 Z M 16264,13450 L 16670,13450 16670,13919 16264,13919 16264,13450 Z"/>
             <path fill="rgb(183,183,183)" stroke="none" d="M 16264,13450 L 16670,13450 16670,13919 16264,13919 16264,13450 Z M 16269,13455 L 16665,13455 16665,13914 16269,13914 16269,13455 Z"/>
             <path fill="rgb(184,184,184)" stroke="none" d="M 16269,13455 L 16665,13455 16665,13914 16269,13914 16269,13455 Z M 16273,13460 L 16661,13460 16661,13909 16273,13909 16273,13460 Z"/>
             <path fill="rgb(185,185,185)" stroke="none" d="M 16273,13460 L 16661,13460 16661,13909 16273,13909 16273,13460 Z M 16278,13465 L 16656,13465 16656,13904 16278,13904 16278,13465 Z"/>
             <path fill="rgb(186,186,186)" stroke="none" d="M 16278,13465 L 16656,13465 16656,13904 16278,13904 16278,13465 Z M 16282,13470 L 16652,13470 16652,13899 16282,13899 16282,13470 Z"/>
             <path fill="rgb(187,187,187)" stroke="none" d="M 16282,13470 L 16652,13470 16652,13899 16282,13899 16282,13470 Z M 16286,13476 L 16648,13476 16648,13893 16286,13893 16286,13476 Z"/>
             <path fill="rgb(188,188,188)" stroke="none" d="M 16286,13476 L 16648,13476 16648,13893 16286,13893 16286,13476 Z M 16291,13481 L 16643,13481 16643,13888 16291,13888 16291,13481 Z"/>
             <path fill="rgb(189,189,189)" stroke="none" d="M 16291,13481 L 16643,13481 16643,13888 16291,13888 16291,13481 Z M 16295,13486 L 16639,13486 16639,13883 16295,13883 16295,13486 Z"/>
             <path fill="rgb(190,190,190)" stroke="none" d="M 16295,13486 L 16639,13486 16639,13883 16295,13883 16295,13486 Z M 16300,13491 L 16634,13491 16634,13878 16300,13878 16300,13491 Z"/>
             <path fill="rgb(191,191,191)" stroke="none" d="M 16300,13491 L 16634,13491 16634,13878 16300,13878 16300,13491 Z M 16304,13496 L 16630,13496 16630,13873 16304,13873 16304,13496 Z"/>
             <path fill="rgb(192,192,192)" stroke="none" d="M 16304,13496 L 16630,13496 16630,13873 16304,13873 16304,13496 Z M 16309,13501 L 16625,13501 16625,13868 16309,13868 16309,13501 Z"/>
             <path fill="rgb(193,193,193)" stroke="none" d="M 16309,13501 L 16625,13501 16625,13868 16309,13868 16309,13501 Z M 16313,13506 L 16621,13506 16621,13863 16313,13863 16313,13506 Z"/>
             <path fill="rgb(194,194,194)" stroke="none" d="M 16313,13506 L 16621,13506 16621,13863 16313,13863 16313,13506 Z M 16316,13511 L 16617,13511 16617,13858 16316,13858 16316,13511 Z"/>
             <path fill="rgb(195,195,195)" stroke="none" d="M 16316,13511 L 16617,13511 16617,13858 16316,13858 16316,13511 Z M 16321,13516 L 16612,13516 16612,13852 16321,13852 16321,13516 Z"/>
             <path fill="rgb(196,196,196)" stroke="none" d="M 16321,13516 L 16612,13516 16612,13852 16321,13852 16321,13516 Z M 16325,13521 L 16608,13521 16608,13847 16325,13847 16325,13521 Z"/>
             <path fill="rgb(197,197,197)" stroke="none" d="M 16325,13521 L 16608,13521 16608,13847 16325,13847 16325,13521 Z M 16330,13526 L 16603,13526 16603,13842 16330,13842 16330,13526 Z"/>
             <path fill="rgb(198,198,198)" stroke="none" d="M 16330,13526 L 16603,13526 16603,13842 16330,13842 16330,13526 Z M 16334,13531 L 16599,13531 16599,13837 16334,13837 16334,13531 Z"/>
             <path fill="rgb(199,199,199)" stroke="none" d="M 16334,13531 L 16599,13531 16599,13837 16334,13837 16334,13531 Z M 16339,13536 L 16594,13536 16594,13832 16339,13832 16339,13536 Z"/>
             <path fill="rgb(200,200,200)" stroke="none" d="M 16339,13536 L 16594,13536 16594,13832 16339,13832 16339,13536 Z M 16343,13541 L 16590,13541 16590,13827 16343,13827 16343,13541 Z"/>
             <path fill="rgb(201,201,201)" stroke="none" d="M 16343,13541 L 16590,13541 16590,13827 16343,13827 16343,13541 Z M 16347,13546 L 16586,13546 16586,13822 16347,13822 16347,13546 Z"/>
             <path fill="rgb(202,202,202)" stroke="none" d="M 16347,13546 L 16586,13546 16586,13822 16347,13822 16347,13546 Z M 16352,13551 L 16581,13551 16581,13817 16352,13817 16352,13551 Z"/>
             <path fill="rgb(203,203,203)" stroke="none" d="M 16352,13551 L 16581,13551 16581,13817 16352,13817 16352,13551 Z M 16356,13557 L 16577,13557 16577,13811 16356,13811 16356,13557 Z"/>
             <path fill="rgb(204,204,204)" stroke="none" d="M 16356,13557 L 16577,13557 16577,13811 16356,13811 16356,13557 Z M 16361,13562 L 16572,13562 16572,13806 16361,13806 16361,13562 Z"/>
             <path fill="rgb(205,205,205)" stroke="none" d="M 16361,13562 L 16572,13562 16572,13806 16361,13806 16361,13562 Z M 16365,13567 L 16568,13567 16568,13801 16365,13801 16365,13567 Z"/>
             <path fill="rgb(206,206,206)" stroke="none" d="M 16365,13567 L 16568,13567 16568,13801 16365,13801 16365,13567 Z M 16370,13572 L 16563,13572 16563,13796 16370,13796 16370,13572 Z"/>
             <path fill="rgb(207,207,207)" stroke="none" d="M 16370,13572 L 16563,13572 16563,13796 16370,13796 16370,13572 Z M 16374,13577 L 16559,13577 16559,13791 16374,13791 16374,13577 Z"/>
             <path fill="rgb(208,208,208)" stroke="none" d="M 16374,13577 L 16559,13577 16559,13791 16374,13791 16374,13577 Z M 16378,13582 L 16555,13582 16555,13786 16378,13786 16378,13582 Z"/>
             <path fill="rgb(209,209,209)" stroke="none" d="M 16378,13582 L 16555,13582 16555,13786 16378,13786 16378,13582 Z M 16383,13587 L 16550,13587 16550,13781 16383,13781 16383,13587 Z"/>
             <path fill="rgb(210,210,210)" stroke="none" d="M 16383,13587 L 16550,13587 16550,13781 16383,13781 16383,13587 Z M 16387,13592 L 16546,13592 16546,13776 16387,13776 16387,13592 Z"/>
             <path fill="rgb(211,211,211)" stroke="none" d="M 16387,13592 L 16546,13592 16546,13776 16387,13776 16387,13592 Z M 16392,13597 L 16541,13597 16541,13771 16392,13771 16392,13597 Z"/>
             <path fill="rgb(212,212,212)" stroke="none" d="M 16392,13597 L 16541,13597 16541,13771 16392,13771 16392,13597 Z M 16396,13603 L 16537,13603 16537,13765 16396,13765 16396,13603 Z"/>
             <path fill="rgb(213,213,213)" stroke="none" d="M 16396,13603 L 16537,13603 16537,13765 16396,13765 16396,13603 Z M 16401,13608 L 16532,13608 16532,13760 16401,13760 16401,13608 Z"/>
             <path fill="rgb(214,214,214)" stroke="none" d="M 16401,13608 L 16532,13608 16532,13760 16401,13760 16401,13608 Z M 16405,13613 L 16528,13613 16528,13755 16405,13755 16405,13613 Z"/>
             <path fill="rgb(215,215,215)" stroke="none" d="M 16405,13613 L 16528,13613 16528,13755 16405,13755 16405,13613 Z M 16409,13618 L 16524,13618 16524,13750 16409,13750 16409,13618 Z"/>
             <path fill="rgb(216,216,216)" stroke="none" d="M 16409,13618 L 16524,13618 16524,13750 16409,13750 16409,13618 Z M 16414,13623 L 16519,13623 16519,13745 16414,13745 16414,13623 Z"/>
             <path fill="rgb(217,217,217)" stroke="none" d="M 16414,13623 L 16519,13623 16519,13745 16414,13745 16414,13623 Z M 16418,13628 L 16515,13628 16515,13740 16418,13740 16418,13628 Z"/>
             <path fill="rgb(218,218,218)" stroke="none" d="M 16418,13628 L 16515,13628 16515,13740 16418,13740 16418,13628 Z M 16423,13633 L 16510,13633 16510,13735 16423,13735 16423,13633 Z"/>
             <path fill="rgb(219,219,219)" stroke="none" d="M 16423,13633 L 16510,13633 16510,13735 16423,13735 16423,13633 Z M 16427,13638 L 16506,13638 16506,13730 16427,13730 16427,13638 Z"/>
             <path fill="rgb(220,220,220)" stroke="none" d="M 16427,13638 L 16506,13638 16506,13730 16427,13730 16427,13638 Z M 16432,13644 L 16501,13644 16501,13724 16432,13724 16432,13644 Z"/>
             <path fill="rgb(221,221,221)" stroke="none" d="M 16432,13644 L 16501,13644 16501,13724 16432,13724 16432,13644 Z M 16436,13649 L 16497,13649 16497,13719 16436,13719 16436,13649 Z"/>
             <path fill="rgb(222,222,222)" stroke="none" d="M 16436,13649 L 16497,13649 16497,13719 16436,13719 16436,13649 Z M 16440,13654 L 16493,13654 16493,13714 16440,13714 16440,13654 Z"/>
             <path fill="rgb(223,223,223)" stroke="none" d="M 16440,13654 L 16493,13654 16493,13714 16440,13714 16440,13654 Z M 16445,13659 L 16488,13659 16488,13709 16445,13709 16445,13659 Z"/>
             <path fill="rgb(224,224,224)" stroke="none" d="M 16445,13659 L 16488,13659 16488,13709 16445,13709 16445,13659 Z M 16449,13664 L 16484,13664 16484,13704 16449,13704 16449,13664 Z"/>
             <path fill="rgb(225,225,225)" stroke="none" d="M 16449,13664 L 16484,13664 16484,13704 16449,13704 16449,13664 Z M 16454,13669 L 16479,13669 16479,13699 16454,13699 16454,13669 Z"/>
             <path fill="rgb(226,226,226)" stroke="none" d="M 16454,13669 L 16479,13669 16479,13699 16454,13699 16454,13669 Z M 16458,13674 L 16475,13674 16475,13694 16458,13694 16458,13674 Z"/>
             <path fill="rgb(227,227,227)" stroke="none" d="M 16458,13674 L 16475,13674 16475,13694 16458,13694 16458,13674 Z M 16463,13679 L 16470,13679 16470,13689 16463,13689 16463,13679 Z"/>
             <path fill="rgb(229,229,229)" stroke="none" d="M 16463,13679 L 16470,13679 16470,13689 16463,13689 16463,13679 Z"/>
            </g>
           </pattern>
          </defs>
          <path style="fill:url(#pattern1)" d="M 16776,13838 L 16688,13533 16336,13736 16424,14042 16776,13838 Z"/>
         </g>
         <path fill="none" stroke="rgb(178,178,178)" stroke-width="40" stroke-linejoin="round" d="M 16776,13838 L 16688,13533 16336,13736 16424,14042 16776,13838 Z"/>
        </g>
       </g>
       <g class="com.sun.star.drawing.PolyPolygonShape">
        <g id="id4">
         <rect class="BoundingBox" stroke="none" fill="none" x="15700" y="13157" width="1009" height="600"/>
         <g>
          <defs>
           <linearGradient id="gradient1" x1="16204" y1="13177" x2="16204" y2="13736" gradientUnits="userSpaceOnUse">
            <stop offset="0.1" style="stop-color:rgb(179,179,179)"/>
            <stop offset="1" style="stop-color:rgb(229,229,229)"/>
           </linearGradient>
          </defs>
          <path style="fill:url(#gradient1)" d="M 16688,13533 L 16512,13380 16248,13228 16072,13177 15720,13380 15896,13431 16160,13584 16336,13736 16688,13533 Z"/>
         </g>
         <path fill="none" stroke="rgb(255,255,255)" stroke-width="40" stroke-linejoin="round" d="M 16688,13533 L 16512,13380 16248,13228 16072,13177 15720,13380 15896,13431 16160,13584 16336,13736 16688,13533 Z"/>
        </g>
       </g>
       <g class="com.sun.star.drawing.ClosedBezierShape">
        <g id="id5">
         <rect class="BoundingBox" stroke="none" fill="none" x="15612" y="13360" width="834" height="703"/>
         <g>
          <defs>
           <linearGradient id="gradient2" x1="15632" y1="13710" x2="16425" y2="13710" gradientUnits="userSpaceOnUse">
            <stop offset="0.1" style="stop-color:rgb(179,179,179)"/>
            <stop offset="1" style="stop-color:rgb(229,229,229)"/>
           </linearGradient>
          </defs>
          <path style="fill:url(#gradient2)" d="M 15632,13583 L 15634,13531 15640,13487 15649,13452 15655,13437 15662,13424 15670,13413 15678,13404 15687,13396 15697,13390 15707,13386 15718,13382 15730,13381 15742,13380 15755,13381 15768,13382 15795,13389 15824,13399 15855,13412 15918,13445 15984,13482 16115,13548 16146,13564 16177,13583 16208,13604 16237,13628 16265,13656 16293,13690 16318,13729 16343,13775 16366,13828 16387,13890 16406,13960 16424,14041 15632,13583 Z"/>
         </g>
         <path fill="none" stroke="rgb(255,255,255)" stroke-width="40" stroke-linejoin="round" d="M 15632,13583 C 15632,13278 15808,13380 15984,13482 16160,13583 16336,13583 16424,14041 16424,14041 16072,13838 15632,13583 Z"/>
        </g>
       </g>
       <g class="com.sun.star.drawing.ClosedBezierShape">
        <g id="id6">
         <rect class="BoundingBox" stroke="none" fill="none" x="15612" y="13157" width="1185" height="907"/>
         <path fill="none" stroke="rgb(0,0,0)" stroke-width="40" stroke-linejoin="round" d="M 16072,13177 C 16248,13228 16248,13228 16424,13330 16512,13380 16688,13431 16776,13838 16600,13940 16600,13940 16424,14042 16323,13995 15808,13686 15632,13584 15632,13330 15808,13330 16072,13177 Z"/>
        </g>
       </g>
      </g>
      <g class="Group">
       <g class="com.sun.star.drawing.ClosedBezierShape">
        <g id="id7">
         <rect class="BoundingBox" stroke="none" fill="none" x="12836" y="13857" width="1059" height="671"/>
         <path fill="rgb(221,221,221)" stroke="none" d="M 12856,14507 C 13097,14507 13705,14227 13826,14157 13947,14087 13825,13877 13584,13877 13584,14030 12856,14507 12856,14507 Z"/>
         <path fill="none" stroke="rgb(221,221,221)" stroke-width="40" stroke-linejoin="round" d="M 12856,14507 C 13097,14507 13705,14227 13826,14157 13947,14087 13825,13877 13584,13877 13584,14030 12856,14507 12856,14507 Z"/>
        </g>
       </g>
       <g class="Group">
        <g class="com.sun.star.drawing.PolyPolygonShape">
         <g id="id8">
          <rect class="BoundingBox" stroke="none" fill="none" x="12687" y="13844" width="921" height="754"/>
          <g>
           <defs>
            <pattern id="pattern2" x="12707" y="13865" width="881" height="713" patternUnits="userSpaceOnUse">
             <g transform="translate(-12707,-13865)">
              <path fill="rgb(179,179,179)" stroke="none" d="M 12706,13864 L 13588,13864 13588,14578 12706,14578 12706,13864 Z M 12538,13729 L 13402,13729 13402,14427 12538,14427 12538,13729 Z"/>
              <path fill="rgb(180,180,180)" stroke="none" d="M 12538,13729 L 13402,13729 13402,14427 12538,14427 12538,13729 Z M 12547,13736 L 13393,13736 13393,14420 12547,14420 12547,13736 Z"/>
              <path fill="rgb(181,181,181)" stroke="none" d="M 12547,13736 L 13393,13736 13393,14420 12547,14420 12547,13736 Z M 12556,13743 L 13384,13743 13384,14413 12556,14413 12556,13743 Z"/>
              <path fill="rgb(182,182,182)" stroke="none" d="M 12556,13743 L 13384,13743 13384,14413 12556,14413 12556,13743 Z M 12565,13750 L 13375,13750 13375,14406 12565,14406 12565,13750 Z"/>
              <path fill="rgb(183,183,183)" stroke="none" d="M 12565,13750 L 13375,13750 13375,14406 12565,14406 12565,13750 Z M 12574,13757 L 13366,13757 13366,14399 12574,14399 12574,13757 Z"/>
              <path fill="rgb(184,184,184)" stroke="none" d="M 12574,13757 L 13366,13757 13366,14399 12574,14399 12574,13757 Z M 12582,13764 L 13358,13764 13358,14392 12582,14392 12582,13764 Z"/>
              <path fill="rgb(185,185,185)" stroke="none" d="M 12582,13764 L 13358,13764 13358,14392 12582,14392 12582,13764 Z M 12591,13772 L 13349,13772 13349,14384 12591,14384 12591,13772 Z"/>
              <path fill="rgb(186,186,186)" stroke="none" d="M 12591,13772 L 13349,13772 13349,14384 12591,14384 12591,13772 Z M 12600,13779 L 13340,13779 13340,14377 12600,14377 12600,13779 Z"/>
              <path fill="rgb(187,187,187)" stroke="none" d="M 12600,13779 L 13340,13779 13340,14377 12600,14377 12600,13779 Z M 12609,13786 L 13331,13786 13331,14370 12609,14370 12609,13786 Z"/>
              <path fill="rgb(188,188,188)" stroke="none" d="M 12609,13786 L 13331,13786 13331,14370 12609,14370 12609,13786 Z M 12618,13793 L 13322,13793 13322,14363 12618,14363 12618,13793 Z"/>
              <path fill="rgb(189,189,189)" stroke="none" d="M 12618,13793 L 13322,13793 13322,14363 12618,14363 12618,13793 Z M 12627,13800 L 13313,13800 13313,14356 12627,14356 12627,13800 Z"/>
              <path fill="rgb(190,190,190)" stroke="none" d="M 12627,13800 L 13313,13800 13313,14356 12627,14356 12627,13800 Z M 12635,13807 L 13305,13807 13305,14349 12635,14349 12635,13807 Z"/>
              <path fill="rgb(191,191,191)" stroke="none" d="M 12635,13807 L 13305,13807 13305,14349 12635,14349 12635,13807 Z M 12644,13814 L 13296,13814 13296,14342 12644,14342 12644,13814 Z"/>
              <path fill="rgb(192,192,192)" stroke="none" d="M 12644,13814 L 13296,13814 13296,14342 12644,14342 12644,13814 Z M 12653,13822 L 13287,13822 13287,14334 12653,14334 12653,13822 Z"/>
              <path fill="rgb(193,193,193)" stroke="none" d="M 12653,13822 L 13287,13822 13287,14334 12653,14334 12653,13822 Z M 12662,13829 L 13278,13829 13278,14327 12662,14327 12662,13829 Z"/>
              <path fill="rgb(194,194,194)" stroke="none" d="M 12662,13829 L 13278,13829 13278,14327 12662,14327 12662,13829 Z M 12671,13836 L 13269,13836 13269,14320 12671,14320 12671,13836 Z"/>
              <path fill="rgb(195,195,195)" stroke="none" d="M 12671,13836 L 13269,13836 13269,14320 12671,14320 12671,13836 Z M 12680,13843 L 13260,13843 13260,14313 12680,14313 12680,13843 Z"/>
              <path fill="rgb(196,196,196)" stroke="none" d="M 12680,13843 L 13260,13843 13260,14313 12680,14313 12680,13843 Z M 12687,13849 L 13252,13849 13252,14306 12687,14306 12687,13849 Z"/>
              <path fill="rgb(197,197,197)" stroke="none" d="M 12687,13849 L 13252,13849 13252,14306 12687,14306 12687,13849 Z M 12696,13856 L 13243,13856 13243,14299 12696,14299 12696,13856 Z"/>
              <path fill="rgb(198,198,198)" stroke="none" d="M 12696,13856 L 13243,13856 13243,14299 12696,14299 12696,13856 Z M 12705,13864 L 13234,13864 13234,14292 12705,14292 12705,13864 Z"/>
              <path fill="rgb(199,199,199)" stroke="none" d="M 12705,13864 L 13234,13864 13234,14292 12705,14292 12705,13864 Z M 12714,13871 L 13225,13871 13225,14284 12714,14284 12714,13871 Z"/>
              <path fill="rgb(200,200,200)" stroke="none" d="M 12714,13871 L 13225,13871 13225,14284 12714,14284 12714,13871 Z M 12723,13878 L 13216,13878 13216,14277 12723,14277 12723,13878 Z"/>
              <path fill="rgb(201,201,201)" stroke="none" d="M 12723,13878 L 13216,13878 13216,14277 12723,14277 12723,13878 Z M 12732,13885 L 13207,13885 13207,14270 12732,14270 12732,13885 Z"/>
              <path fill="rgb(202,202,202)" stroke="none" d="M 12732,13885 L 13207,13885 13207,14270 12732,14270 12732,13885 Z M 12740,13892 L 13199,13892 13199,14263 12740,14263 12740,13892 Z"/>
              <path fill="rgb(203,203,203)" stroke="none" d="M 12740,13892 L 13199,13892 13199,14263 12740,14263 12740,13892 Z M 12749,13899 L 13190,13899 13190,14256 12749,14256 12749,13899 Z"/>
              <path fill="rgb(204,204,204)" stroke="none" d="M 12749,13899 L 13190,13899 13190,14256 12749,14256 12749,13899 Z M 12758,13906 L 13181,13906 13181,14249 12758,14249 12758,13906 Z"/>
              <path fill="rgb(205,205,205)" stroke="none" d="M 12758,13906 L 13181,13906 13181,14249 12758,14249 12758,13906 Z M 12767,13914 L 13172,13914 13172,14241 12767,14241 12767,13914 Z"/>
              <path fill="rgb(206,206,206)" stroke="none" d="M 12767,13914 L 13172,13914 13172,14241 12767,14241 12767,13914 Z M 12776,13921 L 13163,13921 13163,14234 12776,14234 12776,13921 Z"/>
              <path fill="rgb(207,207,207)" stroke="none" d="M 12776,13921 L 13163,13921 13163,14234 12776,14234 12776,13921 Z M 12785,13928 L 13154,13928 13154,14227 12785,14227 12785,13928 Z"/>
              <path fill="rgb(208,208,208)" stroke="none" d="M 12785,13928 L 13154,13928 13154,14227 12785,14227 12785,13928 Z M 12793,13935 L 13146,13935 13146,14220 12793,14220 12793,13935 Z"/>
              <path fill="rgb(209,209,209)" stroke="none" d="M 12793,13935 L 13146,13935 13146,14220 12793,14220 12793,13935 Z M 12802,13942 L 13137,13942 13137,14213 12802,14213 12802,13942 Z"/>
              <path fill="rgb(210,210,210)" stroke="none" d="M 12802,13942 L 13137,13942 13137,14213 12802,14213 12802,13942 Z M 12811,13949 L 13128,13949 13128,14206 12811,14206 12811,13949 Z"/>
              <path fill="rgb(211,211,211)" stroke="none" d="M 12811,13949 L 13128,13949 13128,14206 12811,14206 12811,13949 Z M 12820,13956 L 13119,13956 13119,14199 12820,14199 12820,13956 Z"/>
              <path fill="rgb(212,212,212)" stroke="none" d="M 12820,13956 L 13119,13956 13119,14199 12820,14199 12820,13956 Z M 12829,13964 L 13110,13964 13110,14191 12829,14191 12829,13964 Z"/>
              <path fill="rgb(213,213,213)" stroke="none" d="M 12829,13964 L 13110,13964 13110,14191 12829,14191 12829,13964 Z M 12838,13971 L 13101,13971 13101,14184 12838,14184 12838,13971 Z"/>
              <path fill="rgb(214,214,214)" stroke="none" d="M 12838,13971 L 13101,13971 13101,14184 12838,14184 12838,13971 Z M 12846,13978 L 13093,13978 13093,14177 12846,14177 12846,13978 Z"/>
              <path fill="rgb(215,215,215)" stroke="none" d="M 12846,13978 L 13093,13978 13093,14177 12846,14177 12846,13978 Z M 12855,13985 L 13084,13985 13084,14170 12855,14170 12855,13985 Z"/>
              <path fill="rgb(216,216,216)" stroke="none" d="M 12855,13985 L 13084,13985 13084,14170 12855,14170 12855,13985 Z M 12864,13992 L 13075,13992 13075,14163 12864,14163 12864,13992 Z"/>
              <path fill="rgb(217,217,217)" stroke="none" d="M 12864,13992 L 13075,13992 13075,14163 12864,14163 12864,13992 Z M 12873,13999 L 13066,13999 13066,14156 12873,14156 12873,13999 Z"/>
              <path fill="rgb(218,218,218)" stroke="none" d="M 12873,13999 L 13066,13999 13066,14156 12873,14156 12873,13999 Z M 12882,14007 L 13057,14007 13057,14149 12882,14149 12882,14007 Z"/>
              <path fill="rgb(219,219,219)" stroke="none" d="M 12882,14007 L 13057,14007 13057,14149 12882,14149 12882,14007 Z M 12891,14014 L 13048,14014 13048,14141 12891,14141 12891,14014 Z"/>
              <path fill="rgb(220,220,220)" stroke="none" d="M 12891,14014 L 13048,14014 13048,14141 12891,14141 12891,14014 Z M 12899,14021 L 13040,14021 13040,14134 12899,14134 12899,14021 Z"/>
              <path fill="rgb(221,221,221)" stroke="none" d="M 12899,14021 L 13040,14021 13040,14134 12899,14134 12899,14021 Z M 12908,14028 L 13031,14028 13031,14127 12908,14127 12908,14028 Z"/>
              <path fill="rgb(222,222,222)" stroke="none" d="M 12908,14028 L 13031,14028 13031,14127 12908,14127 12908,14028 Z M 12917,14035 L 13022,14035 13022,14120 12917,14120 12917,14035 Z"/>
              <path fill="rgb(223,223,223)" stroke="none" d="M 12917,14035 L 13022,14035 13022,14120 12917,14120 12917,14035 Z M 12926,14042 L 13013,14042 13013,14113 12926,14113 12926,14042 Z"/>
              <path fill="rgb(224,224,224)" stroke="none" d="M 12926,14042 L 13013,14042 13013,14113 12926,14113 12926,14042 Z M 12935,14049 L 13004,14049 13004,14106 12935,14106 12935,14049 Z"/>
              <path fill="rgb(225,225,225)" stroke="none" d="M 12935,14049 L 13004,14049 13004,14106 12935,14106 12935,14049 Z M 12944,14057 L 12995,14057 12995,14098 12944,14098 12944,14057 Z"/>
              <path fill="rgb(226,226,226)" stroke="none" d="M 12944,14057 L 12995,14057 12995,14098 12944,14098 12944,14057 Z M 12952,14064 L 12987,14064 12987,14091 12952,14091 12952,14064 Z"/>
              <path fill="rgb(227,227,227)" stroke="none" d="M 12952,14064 L 12987,14064 12987,14091 12952,14091 12952,14064 Z M 12961,14071 L 12978,14071 12978,14084 12961,14084 12961,14071 Z"/>
              <path fill="rgb(229,229,229)" stroke="none" d="M 12961,14071 L 12978,14071 12978,14084 12961,14084 12961,14071 Z"/>
             </g>
            </pattern>
           </defs>
           <path style="fill:url(#pattern2)" d="M 13587,14068 L 13587,13865 12707,14374 12707,14577 13587,14068 Z"/>
          </g>
          <path fill="none" stroke="rgb(255,255,255)" stroke-width="40" stroke-linejoin="round" d="M 13587,14068 L 13587,13865 12707,14374 12707,14577 13587,14068 Z"/>
         </g>
        </g>
        <g class="com.sun.star.drawing.PolyPolygonShape">
         <g id="id9">
          <rect class="BoundingBox" stroke="none" fill="none" x="11982" y="13082" width="922" height="907"/>
          <g>
           <defs>
            <pattern id="pattern3" x="12003" y="13102" width="881" height="866" patternUnits="userSpaceOnUse">
             <g transform="translate(-12003,-13102)">
              <path fill="rgb(179,179,179)" stroke="none" d="M 12002,13101 L 12884,13101 12884,13968 12002,13968 12002,13101 Z M 11834,12936 L 12698,12936 12698,13785 11834,13785 11834,12936 Z"/>
              <path fill="rgb(180,180,180)" stroke="none" d="M 11834,12936 L 12698,12936 12698,13785 11834,13785 11834,12936 Z M 11843,12945 L 12689,12945 12689,13776 11843,13776 11843,12945 Z"/>
              <path fill="rgb(181,181,181)" stroke="none" d="M 11843,12945 L 12689,12945 12689,13776 11843,13776 11843,12945 Z M 11852,12954 L 12680,12954 12680,13767 11852,13767 11852,12954 Z"/>
              <path fill="rgb(182,182,182)" stroke="none" d="M 11852,12954 L 12680,12954 12680,13767 11852,13767 11852,12954 Z M 11861,12962 L 12671,12962 12671,13759 11861,13759 11861,12962 Z"/>
              <path fill="rgb(183,183,183)" stroke="none" d="M 11861,12962 L 12671,12962 12671,13759 11861,13759 11861,12962 Z M 11870,12971 L 12662,12971 12662,13750 11870,13750 11870,12971 Z"/>
              <path fill="rgb(184,184,184)" stroke="none" d="M 11870,12971 L 12662,12971 12662,13750 11870,13750 11870,12971 Z M 11878,12980 L 12654,12980 12654,13741 11878,13741 11878,12980 Z"/>
              <path fill="rgb(185,185,185)" stroke="none" d="M 11878,12980 L 12654,12980 12654,13741 11878,13741 11878,12980 Z M 11887,12988 L 12645,12988 12645,13733 11887,13733 11887,12988 Z"/>
              <path fill="rgb(186,186,186)" stroke="none" d="M 11887,12988 L 12645,12988 12645,13733 11887,13733 11887,12988 Z M 11896,12997 L 12636,12997 12636,13724 11896,13724 11896,12997 Z"/>
              <path fill="rgb(187,187,187)" stroke="none" d="M 11896,12997 L 12636,12997 12636,13724 11896,13724 11896,12997 Z M 11905,13006 L 12627,13006 12627,13715 11905,13715 11905,13006 Z"/>
              <path fill="rgb(188,188,188)" stroke="none" d="M 11905,13006 L 12627,13006 12627,13715 11905,13715 11905,13006 Z M 11914,13014 L 12618,13014 12618,13707 11914,13707 11914,13014 Z"/>
              <path fill="rgb(189,189,189)" stroke="none" d="M 11914,13014 L 12618,13014 12618,13707 11914,13707 11914,13014 Z M 11923,13023 L 12609,13023 12609,13698 11923,13698 11923,13023 Z"/>
              <path fill="rgb(190,190,190)" stroke="none" d="M 11923,13023 L 12609,13023 12609,13698 11923,13698 11923,13023 Z M 11931,13032 L 12601,13032 12601,13689 11931,13689 11931,13032 Z"/>
              <path fill="rgb(191,191,191)" stroke="none" d="M 11931,13032 L 12601,13032 12601,13689 11931,13689 11931,13032 Z M 11940,13040 L 12592,13040 12592,13681 11940,13681 11940,13040 Z"/>
              <path fill="rgb(192,192,192)" stroke="none" d="M 11940,13040 L 12592,13040 12592,13681 11940,13681 11940,13040 Z M 11949,13049 L 12583,13049 12583,13672 11949,13672 11949,13049 Z"/>
              <path fill="rgb(193,193,193)" stroke="none" d="M 11949,13049 L 12583,13049 12583,13672 11949,13672 11949,13049 Z M 11958,13058 L 12574,13058 12574,13663 11958,13663 11958,13058 Z"/>
              <path fill="rgb(194,194,194)" stroke="none" d="M 11958,13058 L 12574,13058 12574,13663 11958,13663 11958,13058 Z M 11967,13066 L 12565,13066 12565,13655 11967,13655 11967,13066 Z"/>
              <path fill="rgb(195,195,195)" stroke="none" d="M 11967,13066 L 12565,13066 12565,13655 11967,13655 11967,13066 Z M 11976,13075 L 12556,13075 12556,13646 11976,13646 11976,13075 Z"/>
              <path fill="rgb(196,196,196)" stroke="none" d="M 11976,13075 L 12556,13075 12556,13646 11976,13646 11976,13075 Z M 11983,13083 L 12548,13083 12548,13637 11983,13637 11983,13083 Z"/>
              <path fill="rgb(197,197,197)" stroke="none" d="M 11983,13083 L 12548,13083 12548,13637 11983,13637 11983,13083 Z M 11992,13091 L 12539,13091 12539,13629 11992,13629 11992,13091 Z"/>
              <path fill="rgb(198,198,198)" stroke="none" d="M 11992,13091 L 12539,13091 12539,13629 11992,13629 11992,13091 Z M 12001,13100 L 12530,13100 12530,13620 12001,13620 12001,13100 Z"/>
              <path fill="rgb(199,199,199)" stroke="none" d="M 12001,13100 L 12530,13100 12530,13620 12001,13620 12001,13100 Z M 12010,13109 L 12521,13109 12521,13611 12010,13611 12010,13109 Z"/>
              <path fill="rgb(200,200,200)" stroke="none" d="M 12010,13109 L 12521,13109 12521,13611 12010,13611 12010,13109 Z M 12019,13117 L 12512,13117 12512,13603 12019,13603 12019,13117 Z"/>
              <path fill="rgb(201,201,201)" stroke="none" d="M 12019,13117 L 12512,13117 12512,13603 12019,13603 12019,13117 Z M 12028,13126 L 12503,13126 12503,13594 12028,13594 12028,13126 Z"/>
              <path fill="rgb(202,202,202)" stroke="none" d="M 12028,13126 L 12503,13126 12503,13594 12028,13594 12028,13126 Z M 12036,13135 L 12495,13135 12495,13585 12036,13585 12036,13135 Z"/>
              <path fill="rgb(203,203,203)" stroke="none" d="M 12036,13135 L 12495,13135 12495,13585 12036,13585 12036,13135 Z M 12045,13144 L 12486,13144 12486,13577 12045,13577 12045,13144 Z"/>
              <path fill="rgb(204,204,204)" stroke="none" d="M 12045,13144 L 12486,13144 12486,13577 12045,13577 12045,13144 Z M 12054,13152 L 12477,13152 12477,13568 12054,13568 12054,13152 Z"/>
              <path fill="rgb(205,205,205)" stroke="none" d="M 12054,13152 L 12477,13152 12477,13568 12054,13568 12054,13152 Z M 12063,13161 L 12468,13161 12468,13559 12063,13559 12063,13161 Z"/>
              <path fill="rgb(206,206,206)" stroke="none" d="M 12063,13161 L 12468,13161 12468,13559 12063,13559 12063,13161 Z M 12072,13170 L 12459,13170 12459,13550 12072,13550 12072,13170 Z"/>
              <path fill="rgb(207,207,207)" stroke="none" d="M 12072,13170 L 12459,13170 12459,13550 12072,13550 12072,13170 Z M 12081,13178 L 12450,13178 12450,13542 12081,13542 12081,13178 Z"/>
              <path fill="rgb(208,208,208)" stroke="none" d="M 12081,13178 L 12450,13178 12450,13542 12081,13542 12081,13178 Z M 12089,13187 L 12442,13187 12442,13533 12089,13533 12089,13187 Z"/>
              <path fill="rgb(209,209,209)" stroke="none" d="M 12089,13187 L 12442,13187 12442,13533 12089,13533 12089,13187 Z M 12098,13196 L 12433,13196 12433,13524 12098,13524 12098,13196 Z"/>
              <path fill="rgb(210,210,210)" stroke="none" d="M 12098,13196 L 12433,13196 12433,13524 12098,13524 12098,13196 Z M 12107,13204 L 12424,13204 12424,13516 12107,13516 12107,13204 Z"/>
              <path fill="rgb(211,211,211)" stroke="none" d="M 12107,13204 L 12424,13204 12424,13516 12107,13516 12107,13204 Z M 12116,13213 L 12415,13213 12415,13507 12116,13507 12116,13213 Z"/>
              <path fill="rgb(212,212,212)" stroke="none" d="M 12116,13213 L 12415,13213 12415,13507 12116,13507 12116,13213 Z M 12125,13222 L 12406,13222 12406,13498 12125,13498 12125,13222 Z"/>
              <path fill="rgb(213,213,213)" stroke="none" d="M 12125,13222 L 12406,13222 12406,13498 12125,13498 12125,13222 Z M 12134,13230 L 12397,13230 12397,13490 12134,13490 12134,13230 Z"/>
              <path fill="rgb(214,214,214)" stroke="none" d="M 12134,13230 L 12397,13230 12397,13490 12134,13490 12134,13230 Z M 12142,13239 L 12389,13239 12389,13481 12142,13481 12142,13239 Z"/>
              <path fill="rgb(215,215,215)" stroke="none" d="M 12142,13239 L 12389,13239 12389,13481 12142,13481 12142,13239 Z M 12151,13248 L 12380,13248 12380,13472 12151,13472 12151,13248 Z"/>
              <path fill="rgb(216,216,216)" stroke="none" d="M 12151,13248 L 12380,13248 12380,13472 12151,13472 12151,13248 Z M 12160,13256 L 12371,13256 12371,13464 12160,13464 12160,13256 Z"/>
              <path fill="rgb(217,217,217)" stroke="none" d="M 12160,13256 L 12371,13256 12371,13464 12160,13464 12160,13256 Z M 12169,13265 L 12362,13265 12362,13455 12169,13455 12169,13265 Z"/>
              <path fill="rgb(218,218,218)" stroke="none" d="M 12169,13265 L 12362,13265 12362,13455 12169,13455 12169,13265 Z M 12178,13274 L 12353,13274 12353,13446 12178,13446 12178,13274 Z"/>
              <path fill="rgb(219,219,219)" stroke="none" d="M 12178,13274 L 12353,13274 12353,13446 12178,13446 12178,13274 Z M 12187,13282 L 12344,13282 12344,13438 12187,13438 12187,13282 Z"/>
              <path fill="rgb(220,220,220)" stroke="none" d="M 12187,13282 L 12344,13282 12344,13438 12187,13438 12187,13282 Z M 12195,13291 L 12336,13291 12336,13429 12195,13429 12195,13291 Z"/>
              <path fill="rgb(221,221,221)" stroke="none" d="M 12195,13291 L 12336,13291 12336,13429 12195,13429 12195,13291 Z M 12204,13300 L 12327,13300 12327,13420 12204,13420 12204,13300 Z"/>
              <path fill="rgb(222,222,222)" stroke="none" d="M 12204,13300 L 12327,13300 12327,13420 12204,13420 12204,13300 Z M 12213,13308 L 12318,13308 12318,13412 12213,13412 12213,13308 Z"/>
              <path fill="rgb(223,223,223)" stroke="none" d="M 12213,13308 L 12318,13308 12318,13412 12213,13412 12213,13308 Z M 12222,13317 L 12309,13317 12309,13403 12222,13403 12222,13317 Z"/>
              <path fill="rgb(224,224,224)" stroke="none" d="M 12222,13317 L 12309,13317 12309,13403 12222,13403 12222,13317 Z M 12231,13326 L 12300,13326 12300,13394 12231,13394 12231,13326 Z"/>
              <path fill="rgb(225,225,225)" stroke="none" d="M 12231,13326 L 12300,13326 12300,13394 12231,13394 12231,13326 Z M 12240,13334 L 12291,13334 12291,13386 12240,13386 12240,13334 Z"/>
              <path fill="rgb(226,226,226)" stroke="none" d="M 12240,13334 L 12291,13334 12291,13386 12240,13386 12240,13334 Z M 12248,13343 L 12283,13343 12283,13377 12248,13377 12248,13343 Z"/>
              <path fill="rgb(227,227,227)" stroke="none" d="M 12248,13343 L 12283,13343 12283,13377 12248,13377 12248,13343 Z M 12257,13352 L 12274,13352 12274,13368 12257,13368 12257,13352 Z"/>
              <path fill="rgb(229,229,229)" stroke="none" d="M 12257,13352 L 12274,13352 12274,13368 12257,13368 12257,13352 Z"/>
             </g>
            </pattern>
           </defs>
           <path style="fill:url(#pattern3)" d="M 12883,13458 L 12883,13102 12003,13611 12003,13967 12883,13458 Z"/>
          </g>
          <path fill="none" stroke="rgb(255,255,255)" stroke-width="40" stroke-linejoin="round" d="M 12883,13458 L 12883,13102 12003,13611 12003,13967 12883,13458 Z"/>
         </g>
        </g>
        <g class="com.sun.star.drawing.PolyPolygonShape">
         <g id="id10">
          <rect class="BoundingBox" stroke="none" fill="none" x="11983" y="13438" width="1625" height="956"/>
          <g>
           <defs>
            <linearGradient id="gradient3" x1="12795" y1="13458" x2="12795" y2="14373" gradientUnits="userSpaceOnUse">
             <stop offset="0.1" style="stop-color:rgb(179,179,179)"/>
             <stop offset="1" style="stop-color:rgb(229,229,229)"/>
            </linearGradient>
           </defs>
           <path style="fill:url(#gradient3)" d="M 13587,13865 L 12883,13458 12003,13967 12707,14373 13587,13865 Z"/>
          </g>
          <path fill="none" stroke="rgb(255,255,255)" stroke-width="40" stroke-linejoin="round" d="M 13587,13865 L 12883,13458 12003,13967 12707,14373 13587,13865 Z"/>
         </g>
        </g>
        <g class="com.sun.star.drawing.PolyPolygonShape">
         <g id="id11">
          <rect class="BoundingBox" stroke="none" fill="none" x="11807" y="13692" width="921" height="906"/>
          <g>
           <defs>
            <linearGradient id="gradient4" x1="11827" y1="14144" x2="12708" y2="14144" gradientUnits="userSpaceOnUse">
             <stop offset="0.1" style="stop-color:rgb(179,179,179)"/>
             <stop offset="1" style="stop-color:rgb(229,229,229)"/>
            </linearGradient>
           </defs>
           <path style="fill:url(#gradient4)" d="M 12707,14577 L 12707,14373 12003,13966 12003,13712 11827,13814 11827,14068 12707,14577 Z"/>
          </g>
          <path fill="none" stroke="rgb(255,255,255)" stroke-width="40" stroke-linejoin="round" d="M 12707,14577 L 12707,14373 12003,13966 12003,13712 11827,13814 11827,14068 12707,14577 Z"/>
         </g>
        </g>
        <g class="com.sun.star.drawing.PolyPolygonShape">
         <g id="id12">
          <rect class="BoundingBox" stroke="none" fill="none" x="11718" y="9980" width="2857" height="3907"/>
          <g>
           <defs>
            <pattern id="pattern4" x="11739" y="10000" width="2816" height="3866" patternUnits="userSpaceOnUse">
             <g transform="translate(-11739,-10000)">
              <path fill="rgb(179,179,179)" stroke="none" d="M 11738,9999 L 14555,9999 14555,13866 11738,13866 11738,9999 Z M 11203,9264 L 13962,9264 13962,13053 11203,13053 11203,9264 Z"/>
              <path fill="rgb(180,180,180)" stroke="none" d="M 11203,9264 L 13962,9264 13962,13053 11203,13053 11203,9264 Z M 11231,9303 L 13934,9303 13934,13014 11231,13014 11231,9303 Z"/>
              <path fill="rgb(181,181,181)" stroke="none" d="M 11231,9303 L 13934,9303 13934,13014 11231,13014 11231,9303 Z M 11259,9342 L 13906,9342 13906,12975 11259,12975 11259,9342 Z"/>
              <path fill="rgb(182,182,182)" stroke="none" d="M 11259,9342 L 13906,9342 13906,12975 11259,12975 11259,9342 Z M 11287,9380 L 13878,9380 13878,12937 11287,12937 11287,9380 Z"/>
              <path fill="rgb(183,183,183)" stroke="none" d="M 11287,9380 L 13878,9380 13878,12937 11287,12937 11287,9380 Z M 11315,9419 L 13850,9419 13850,12898 11315,12898 11315,9419 Z"/>
              <path fill="rgb(184,184,184)" stroke="none" d="M 11315,9419 L 13850,9419 13850,12898 11315,12898 11315,9419 Z M 11344,9458 L 13821,9458 13821,12859 11344,12859 11344,9458 Z"/>
              <path fill="rgb(185,185,185)" stroke="none" d="M 11344,9458 L 13821,9458 13821,12859 11344,12859 11344,9458 Z M 11372,9496 L 13793,9496 13793,12821 11372,12821 11372,9496 Z"/>
              <path fill="rgb(186,186,186)" stroke="none" d="M 11372,9496 L 13793,9496 13793,12821 11372,12821 11372,9496 Z M 11400,9535 L 13765,9535 13765,12782 11400,12782 11400,9535 Z"/>
              <path fill="rgb(187,187,187)" stroke="none" d="M 11400,9535 L 13765,9535 13765,12782 11400,12782 11400,9535 Z M 11428,9574 L 13737,9574 13737,12743 11428,12743 11428,9574 Z"/>
              <path fill="rgb(188,188,188)" stroke="none" d="M 11428,9574 L 13737,9574 13737,12743 11428,12743 11428,9574 Z M 11456,9612 L 13709,9612 13709,12705 11456,12705 11456,9612 Z"/>
              <path fill="rgb(189,189,189)" stroke="none" d="M 11456,9612 L 13709,9612 13709,12705 11456,12705 11456,9612 Z M 11484,9651 L 13681,9651 13681,12666 11484,12666 11484,9651 Z"/>
              <path fill="rgb(190,190,190)" stroke="none" d="M 11484,9651 L 13681,9651 13681,12666 11484,12666 11484,9651 Z M 11513,9690 L 13652,9690 13652,12627 11513,12627 11513,9690 Z"/>
              <path fill="rgb(191,191,191)" stroke="none" d="M 11513,9690 L 13652,9690 13652,12627 11513,12627 11513,9690 Z M 11541,9728 L 13624,9728 13624,12589 11541,12589 11541,9728 Z"/>
              <path fill="rgb(192,192,192)" stroke="none" d="M 11541,9728 L 13624,9728 13624,12589 11541,12589 11541,9728 Z M 11569,9767 L 13596,9767 13596,12550 11569,12550 11569,9767 Z"/>
              <path fill="rgb(193,193,193)" stroke="none" d="M 11569,9767 L 13596,9767 13596,12550 11569,12550 11569,9767 Z M 11597,9806 L 13568,9806 13568,12511 11597,12511 11597,9806 Z"/>
              <path fill="rgb(194,194,194)" stroke="none" d="M 11597,9806 L 13568,9806 13568,12511 11597,12511 11597,9806 Z M 11625,9844 L 13540,9844 13540,12473 11625,12473 11625,9844 Z"/>
              <path fill="rgb(195,195,195)" stroke="none" d="M 11625,9844 L 13540,9844 13540,12473 11625,12473 11625,9844 Z M 11654,9883 L 13511,9883 13511,12434 11654,12434 11654,9883 Z"/>
              <path fill="rgb(196,196,196)" stroke="none" d="M 11654,9883 L 13511,9883 13511,12434 11654,12434 11654,9883 Z M 11682,9922 L 13483,9922 13483,12395 11682,12395 11682,9922 Z"/>
              <path fill="rgb(197,197,197)" stroke="none" d="M 11682,9922 L 13483,9922 13483,12395 11682,12395 11682,9922 Z M 11710,9960 L 13455,9960 13455,12357 11710,12357 11710,9960 Z"/>
              <path fill="rgb(198,198,198)" stroke="none" d="M 11710,9960 L 13455,9960 13455,12357 11710,12357 11710,9960 Z M 11737,9998 L 13427,9998 13427,12318 11737,12318 11737,9998 Z"/>
              <path fill="rgb(199,199,199)" stroke="none" d="M 11737,9998 L 13427,9998 13427,12318 11737,12318 11737,9998 Z M 11765,10037 L 13399,10037 13399,12279 11765,12279 11765,10037 Z"/>
              <path fill="rgb(200,200,200)" stroke="none" d="M 11765,10037 L 13399,10037 13399,12279 11765,12279 11765,10037 Z M 11793,10075 L 13371,10075 13371,12241 11793,12241 11793,10075 Z"/>
              <path fill="rgb(201,201,201)" stroke="none" d="M 11793,10075 L 13371,10075 13371,12241 11793,12241 11793,10075 Z M 11822,10114 L 13342,10114 13342,12202 11822,12202 11822,10114 Z"/>
              <path fill="rgb(202,202,202)" stroke="none" d="M 11822,10114 L 13342,10114 13342,12202 11822,12202 11822,10114 Z M 11850,10153 L 13314,10153 13314,12163 11850,12163 11850,10153 Z"/>
              <path fill="rgb(203,203,203)" stroke="none" d="M 11850,10153 L 13314,10153 13314,12163 11850,12163 11850,10153 Z M 11878,10191 L 13286,10191 13286,12125 11878,12125 11878,10191 Z"/>
              <path fill="rgb(204,204,204)" stroke="none" d="M 11878,10191 L 13286,10191 13286,12125 11878,12125 11878,10191 Z M 11906,10230 L 13258,10230 13258,12086 11906,12086 11906,10230 Z"/>
              <path fill="rgb(205,205,205)" stroke="none" d="M 11906,10230 L 13258,10230 13258,12086 11906,12086 11906,10230 Z M 11934,10269 L 13230,10269 13230,12047 11934,12047 11934,10269 Z"/>
              <path fill="rgb(206,206,206)" stroke="none" d="M 11934,10269 L 13230,10269 13230,12047 11934,12047 11934,10269 Z M 11963,10308 L 13201,10308 13201,12008 11963,12008 11963,10308 Z"/>
              <path fill="rgb(207,207,207)" stroke="none" d="M 11963,10308 L 13201,10308 13201,12008 11963,12008 11963,10308 Z M 11991,10346 L 13173,10346 13173,11970 11991,11970 11991,10346 Z"/>
              <path fill="rgb(208,208,208)" stroke="none" d="M 11991,10346 L 13173,10346 13173,11970 11991,11970 11991,10346 Z M 12019,10385 L 13145,10385 13145,11931 12019,11931 12019,10385 Z"/>
              <path fill="rgb(209,209,209)" stroke="none" d="M 12019,10385 L 13145,10385 13145,11931 12019,11931 12019,10385 Z M 12047,10424 L 13117,10424 13117,11892 12047,11892 12047,10424 Z"/>
              <path fill="rgb(210,210,210)" stroke="none" d="M 12047,10424 L 13117,10424 13117,11892 12047,11892 12047,10424 Z M 12075,10462 L 13089,10462 13089,11854 12075,11854 12075,10462 Z"/>
              <path fill="rgb(211,211,211)" stroke="none" d="M 12075,10462 L 13089,10462 13089,11854 12075,11854 12075,10462 Z M 12103,10501 L 13061,10501 13061,11815 12103,11815 12103,10501 Z"/>
              <path fill="rgb(212,212,212)" stroke="none" d="M 12103,10501 L 13061,10501 13061,11815 12103,11815 12103,10501 Z M 12132,10540 L 13032,10540 13032,11776 12132,11776 12132,10540 Z"/>
              <path fill="rgb(213,213,213)" stroke="none" d="M 12132,10540 L 13032,10540 13032,11776 12132,11776 12132,10540 Z M 12160,10578 L 13004,10578 13004,11738 12160,11738 12160,10578 Z"/>
              <path fill="rgb(214,214,214)" stroke="none" d="M 12160,10578 L 13004,10578 13004,11738 12160,11738 12160,10578 Z M 12188,10617 L 12976,10617 12976,11699 12188,11699 12188,10617 Z"/>
              <path fill="rgb(215,215,215)" stroke="none" d="M 12188,10617 L 12976,10617 12976,11699 12188,11699 12188,10617 Z M 12216,10656 L 12948,10656 12948,11660 12216,11660 12216,10656 Z"/>
              <path fill="rgb(216,216,216)" stroke="none" d="M 12216,10656 L 12948,10656 12948,11660 12216,11660 12216,10656 Z M 12244,10694 L 12920,10694 12920,11622 12244,11622 12244,10694 Z"/>
              <path fill="rgb(217,217,217)" stroke="none" d="M 12244,10694 L 12920,10694 12920,11622 12244,11622 12244,10694 Z M 12273,10733 L 12891,10733 12891,11583 12273,11583 12273,10733 Z"/>
              <path fill="rgb(218,218,218)" stroke="none" d="M 12273,10733 L 12891,10733 12891,11583 12273,11583 12273,10733 Z M 12301,10772 L 12863,10772 12863,11544 12301,11544 12301,10772 Z"/>
              <path fill="rgb(219,219,219)" stroke="none" d="M 12301,10772 L 12863,10772 12863,11544 12301,11544 12301,10772 Z M 12329,10810 L 12835,10810 12835,11506 12329,11506 12329,10810 Z"/>
              <path fill="rgb(220,220,220)" stroke="none" d="M 12329,10810 L 12835,10810 12835,11506 12329,11506 12329,10810 Z M 12357,10849 L 12807,10849 12807,11467 12357,11467 12357,10849 Z"/>
              <path fill="rgb(221,221,221)" stroke="none" d="M 12357,10849 L 12807,10849 12807,11467 12357,11467 12357,10849 Z M 12385,10888 L 12779,10888 12779,11428 12385,11428 12385,10888 Z"/>
              <path fill="rgb(222,222,222)" stroke="none" d="M 12385,10888 L 12779,10888 12779,11428 12385,11428 12385,10888 Z M 12413,10926 L 12751,10926 12751,11390 12413,11390 12413,10926 Z"/>
              <path fill="rgb(223,223,223)" stroke="none" d="M 12413,10926 L 12751,10926 12751,11390 12413,11390 12413,10926 Z M 12442,10965 L 12722,10965 12722,11351 12442,11351 12442,10965 Z"/>
              <path fill="rgb(224,224,224)" stroke="none" d="M 12442,10965 L 12722,10965 12722,11351 12442,11351 12442,10965 Z M 12470,11004 L 12694,11004 12694,11312 12470,11312 12470,11004 Z"/>
              <path fill="rgb(225,225,225)" stroke="none" d="M 12470,11004 L 12694,11004 12694,11312 12470,11312 12470,11004 Z M 12498,11042 L 12666,11042 12666,11274 12498,11274 12498,11042 Z"/>
              <path fill="rgb(226,226,226)" stroke="none" d="M 12498,11042 L 12666,11042 12666,11274 12498,11274 12498,11042 Z M 12526,11081 L 12638,11081 12638,11235 12526,11235 12526,11081 Z"/>
              <path fill="rgb(227,227,227)" stroke="none" d="M 12526,11081 L 12638,11081 12638,11235 12526,11235 12526,11081 Z M 12554,11120 L 12610,11120 12610,11196 12554,11196 12554,11120 Z"/>
              <path fill="rgb(229,229,229)" stroke="none" d="M 12554,11120 L 12610,11120 12610,11196 12554,11196 12554,11120 Z"/>
             </g>
            </pattern>
           </defs>
           <path style="fill:url(#pattern4)" d="M 14554,12238 L 14554,10000 11739,11627 11739,13865 14554,12238 Z"/>
          </g>
          <path fill="none" stroke="rgb(255,255,255)" stroke-width="40" stroke-linejoin="round" d="M 14554,12238 L 14554,10000 11739,11627 11739,13865 14554,12238 Z"/>
         </g>
        </g>
        <g class="com.sun.star.drawing.PolyPolygonShape">
         <g id="id13">
          <rect class="BoundingBox" stroke="none" fill="none" x="11807" y="10132" width="2680" height="3602"/>
          <g>
           <defs>
            <linearGradient id="gradient5" x1="11826" y1="11932" x2="14466" y2="11932" gradientUnits="userSpaceOnUse">
             <stop offset="0.1" style="stop-color:rgb(147,212,240)"/>
             <stop offset="1" style="stop-color:rgb(233,246,252)"/>
            </linearGradient>
           </defs>
           <path style="fill:url(#gradient5)" d="M 14466,12186 L 14466,10152 11827,11678 11827,13712 14466,12186 Z"/>
          </g>
          <path fill="none" stroke="rgb(102,102,102)" stroke-width="40" stroke-linejoin="round" d="M 14466,12186 L 14466,10152 11827,11678 11827,13712 14466,12186 Z"/>
         </g>
        </g>
        <g class="com.sun.star.drawing.PolyPolygonShape">
         <g id="id14">
          <rect class="BoundingBox" stroke="none" fill="none" x="11543" y="9878" width="3032" height="1770"/>
          <g>
           <defs>
            <linearGradient id="gradient6" x1="13058" y1="9898" x2="13058" y2="11627" gradientUnits="userSpaceOnUse">
             <stop offset="0.1" style="stop-color:rgb(179,179,179)"/>
             <stop offset="1" style="stop-color:rgb(229,229,229)"/>
            </linearGradient>
           </defs>
           <path style="fill:url(#gradient6)" d="M 11739,11627 L 14554,10000 14378,9898 11563,11525 11739,11627 Z"/>
          </g>
          <path fill="none" stroke="rgb(255,255,255)" stroke-width="40" stroke-linejoin="round" d="M 11739,11627 L 14554,10000 14378,9898 11563,11525 11739,11627 Z"/>
         </g>
        </g>
        <g class="com.sun.star.drawing.PolyPolygonShape">
         <g id="id15">
          <rect class="BoundingBox" stroke="none" fill="none" x="11543" y="11505" width="217" height="2380"/>
          <g>
           <defs>
            <linearGradient id="gradient7" x1="11563" y1="12694" x2="11740" y2="12694" gradientUnits="userSpaceOnUse">
             <stop offset="0.1" style="stop-color:rgb(179,179,179)"/>
             <stop offset="1" style="stop-color:rgb(229,229,229)"/>
            </linearGradient>
           </defs>
           <path style="fill:url(#gradient7)" d="M 11739,13864 L 11739,11627 11563,11525 11563,13763 11739,13864 Z"/>
          </g>
          <path fill="none" stroke="rgb(255,255,255)" stroke-width="40" stroke-linejoin="round" d="M 11739,13864 L 11739,11627 11563,11525 11563,13763 11739,13864 Z"/>
         </g>
        </g>
        <g class="com.sun.star.drawing.PolyPolygonShape">
         <g id="id16">
          <rect class="BoundingBox" stroke="none" fill="none" x="11543" y="9878" width="3032" height="4720"/>
          <path fill="none" stroke="rgb(0,0,0)" stroke-width="40" stroke-linejoin="round" d="M 14378,9898 L 11563,11525 11563,13763 11739,13865 11827,13814 11827,14068 12706,14577 13586,14068 13586,13865 12882,13458 12882,13204 14554,12237 14554,10000 14378,9898 Z"/>
         </g>
        </g>
       </g>
      </g>
      <g class="Group">
       <g class="com.sun.star.drawing.ClosedBezierShape">
        <g id="id17">
         <rect class="BoundingBox" stroke="none" fill="none" x="15273" y="14232" width="790" height="532"/>
         <path fill="rgb(221,221,221)" stroke="none" d="M 15293,14742 C 15293,14742 15778,14602 15899,14532 16030,14456 16141,14252 15899,14252 15899,14405 15293,14742 15293,14742 Z"/>
         <path fill="none" stroke="rgb(221,221,221)" stroke-width="40" stroke-linejoin="round" d="M 15293,14742 C 15293,14742 15778,14602 15899,14532 16030,14456 16141,14252 15899,14252 15899,14405 15293,14742 15293,14742 Z"/>
        </g>
       </g>
       <g class="Group">
        <g class="com.sun.star.drawing.PolyPolygonShape">
         <g id="id18">
          <rect class="BoundingBox" stroke="none" fill="none" x="12095" y="13592" width="3825" height="2228"/>
          <g>
           <defs>
            <linearGradient id="gradient8" x1="14007" y1="13612" x2="14007" y2="15799" gradientUnits="userSpaceOnUse">
             <stop offset="0.1" style="stop-color:rgb(179,179,179)"/>
             <stop offset="1" style="stop-color:rgb(229,229,229)"/>
            </linearGradient>
           </defs>
           <path style="fill:url(#gradient8)" d="M 13084,15799 L 15899,14171 14931,13612 12116,15239 13084,15799 Z"/>
          </g>
          <path fill="none" stroke="rgb(255,255,255)" stroke-width="40" stroke-linejoin="round" d="M 13084,15799 L 15899,14171 14931,13612 12116,15239 13084,15799 Z"/>
         </g>
        </g>
        <g class="com.sun.star.drawing.PolyPolygonShape">
         <g id="id19">
          <rect class="BoundingBox" stroke="none" fill="none" x="12096" y="15219" width="1009" height="804"/>
          <g>
           <defs>
            <linearGradient id="gradient9" x1="12116" y1="15620" x2="13085" y2="15620" gradientUnits="userSpaceOnUse">
             <stop offset="0.1" style="stop-color:rgb(179,179,179)"/>
             <stop offset="1" style="stop-color:rgb(229,229,229)"/>
            </linearGradient>
           </defs>
           <path style="fill:url(#gradient9)" d="M 13084,16002 L 13084,15798 12116,15239 12116,15442 13084,16002 Z"/>
          </g>
          <path fill="none" stroke="rgb(255,255,255)" stroke-width="40" stroke-linejoin="round" d="M 13084,16002 L 13084,15798 12116,15239 12116,15442 13084,16002 Z"/>
         </g>
        </g>
        <g class="com.sun.star.drawing.PolyPolygonShape">
         <g id="id20">
          <rect class="BoundingBox" stroke="none" fill="none" x="13064" y="14150" width="2856" height="1873"/>
          <g>
           <defs>
            <pattern id="pattern5" x="13084" y="14171" width="2816" height="1832" patternUnits="userSpaceOnUse">
             <g transform="translate(-13084,-14171)">
              <path fill="rgb(179,179,179)" stroke="none" d="M 13083,14170 L 15900,14170 15900,16003 13083,16003 13083,14170 Z M 12548,13822 L 15307,13822 15307,15617 12548,15617 12548,13822 Z"/>
              <path fill="rgb(180,180,180)" stroke="none" d="M 12548,13822 L 15307,13822 15307,15617 12548,15617 12548,13822 Z M 12576,13840 L 15279,13840 15279,15599 12576,15599 12576,13840 Z"/>
              <path fill="rgb(181,181,181)" stroke="none" d="M 12576,13840 L 15279,13840 15279,15599 12576,15599 12576,13840 Z M 12604,13859 L 15251,13859 15251,15580 12604,15580 12604,13859 Z"/>
              <path fill="rgb(182,182,182)" stroke="none" d="M 12604,13859 L 15251,13859 15251,15580 12604,15580 12604,13859 Z M 12632,13877 L 15223,13877 15223,15562 12632,15562 12632,13877 Z"/>
              <path fill="rgb(183,183,183)" stroke="none" d="M 12632,13877 L 15223,13877 15223,15562 12632,15562 12632,13877 Z M 12660,13895 L 15195,13895 15195,15544 12660,15544 12660,13895 Z"/>
              <path fill="rgb(184,184,184)" stroke="none" d="M 12660,13895 L 15195,13895 15195,15544 12660,15544 12660,13895 Z M 12689,13914 L 15166,13914 15166,15525 12689,15525 12689,13914 Z"/>
              <path fill="rgb(185,185,185)" stroke="none" d="M 12689,13914 L 15166,13914 15166,15525 12689,15525 12689,13914 Z M 12717,13932 L 15138,13932 15138,15507 12717,15507 12717,13932 Z"/>
              <path fill="rgb(186,186,186)" stroke="none" d="M 12717,13932 L 15138,13932 15138,15507 12717,15507 12717,13932 Z M 12745,13950 L 15110,13950 15110,15489 12745,15489 12745,13950 Z"/>
              <path fill="rgb(187,187,187)" stroke="none" d="M 12745,13950 L 15110,13950 15110,15489 12745,15489 12745,13950 Z M 12773,13969 L 15082,13969 15082,15470 12773,15470 12773,13969 Z"/>
              <path fill="rgb(188,188,188)" stroke="none" d="M 12773,13969 L 15082,13969 15082,15470 12773,15470 12773,13969 Z M 12801,13987 L 15054,13987 15054,15452 12801,15452 12801,13987 Z"/>
              <path fill="rgb(189,189,189)" stroke="none" d="M 12801,13987 L 15054,13987 15054,15452 12801,15452 12801,13987 Z M 12829,14005 L 15026,14005 15026,15434 12829,15434 12829,14005 Z"/>
              <path fill="rgb(190,190,190)" stroke="none" d="M 12829,14005 L 15026,14005 15026,15434 12829,15434 12829,14005 Z M 12858,14024 L 14997,14024 14997,15415 12858,15415 12858,14024 Z"/>
              <path fill="rgb(191,191,191)" stroke="none" d="M 12858,14024 L 14997,14024 14997,15415 12858,15415 12858,14024 Z M 12886,14042 L 14969,14042 14969,15397 12886,15397 12886,14042 Z"/>
              <path fill="rgb(192,192,192)" stroke="none" d="M 12886,14042 L 14969,14042 14969,15397 12886,15397 12886,14042 Z M 12914,14060 L 14941,14060 14941,15379 12914,15379 12914,14060 Z"/>
              <path fill="rgb(193,193,193)" stroke="none" d="M 12914,14060 L 14941,14060 14941,15379 12914,15379 12914,14060 Z M 12942,14079 L 14913,14079 14913,15360 12942,15360 12942,14079 Z"/>
              <path fill="rgb(194,194,194)" stroke="none" d="M 12942,14079 L 14913,14079 14913,15360 12942,15360 12942,14079 Z M 12970,14097 L 14885,14097 14885,15342 12970,15342 12970,14097 Z"/>
              <path fill="rgb(195,195,195)" stroke="none" d="M 12970,14097 L 14885,14097 14885,15342 12970,15342 12970,14097 Z M 12999,14115 L 14856,14115 14856,15324 12999,15324 12999,14115 Z"/>
              <path fill="rgb(196,196,196)" stroke="none" d="M 12999,14115 L 14856,14115 14856,15324 12999,15324 12999,14115 Z M 13027,14134 L 14828,14134 14828,15305 13027,15305 13027,14134 Z"/>
              <path fill="rgb(197,197,197)" stroke="none" d="M 13027,14134 L 14828,14134 14828,15305 13027,15305 13027,14134 Z M 13055,14151 L 14800,14151 14800,15287 13055,15287 13055,14151 Z"/>
              <path fill="rgb(198,198,198)" stroke="none" d="M 13055,14151 L 14800,14151 14800,15287 13055,15287 13055,14151 Z M 13082,14169 L 14772,14169 14772,15269 13082,15269 13082,14169 Z"/>
              <path fill="rgb(199,199,199)" stroke="none" d="M 13082,14169 L 14772,14169 14772,15269 13082,15269 13082,14169 Z M 13110,14188 L 14744,14188 14744,15250 13110,15250 13110,14188 Z"/>
              <path fill="rgb(200,200,200)" stroke="none" d="M 13110,14188 L 14744,14188 14744,15250 13110,15250 13110,14188 Z M 13138,14206 L 14716,14206 14716,15232 13138,15232 13138,14206 Z"/>
              <path fill="rgb(201,201,201)" stroke="none" d="M 13138,14206 L 14716,14206 14716,15232 13138,15232 13138,14206 Z M 13167,14224 L 14687,14224 14687,15214 13167,15214 13167,14224 Z"/>
              <path fill="rgb(202,202,202)" stroke="none" d="M 13167,14224 L 14687,14224 14687,15214 13167,15214 13167,14224 Z M 13195,14243 L 14659,14243 14659,15195 13195,15195 13195,14243 Z"/>
              <path fill="rgb(203,203,203)" stroke="none" d="M 13195,14243 L 14659,14243 14659,15195 13195,15195 13195,14243 Z M 13223,14261 L 14631,14261 14631,15177 13223,15177 13223,14261 Z"/>
              <path fill="rgb(204,204,204)" stroke="none" d="M 13223,14261 L 14631,14261 14631,15177 13223,15177 13223,14261 Z M 13251,14279 L 14603,14279 14603,15159 13251,15159 13251,14279 Z"/>
              <path fill="rgb(205,205,205)" stroke="none" d="M 13251,14279 L 14603,14279 14603,15159 13251,15159 13251,14279 Z M 13279,14298 L 14575,14298 14575,15140 13279,15140 13279,14298 Z"/>
              <path fill="rgb(206,206,206)" stroke="none" d="M 13279,14298 L 14575,14298 14575,15140 13279,15140 13279,14298 Z M 13308,14316 L 14546,14316 14546,15122 13308,15122 13308,14316 Z"/>
              <path fill="rgb(207,207,207)" stroke="none" d="M 13308,14316 L 14546,14316 14546,15122 13308,15122 13308,14316 Z M 13336,14334 L 14518,14334 14518,15104 13336,15104 13336,14334 Z"/>
              <path fill="rgb(208,208,208)" stroke="none" d="M 13336,14334 L 14518,14334 14518,15104 13336,15104 13336,14334 Z M 13364,14353 L 14490,14353 14490,15085 13364,15085 13364,14353 Z"/>
              <path fill="rgb(209,209,209)" stroke="none" d="M 13364,14353 L 14490,14353 14490,15085 13364,15085 13364,14353 Z M 13392,14371 L 14462,14371 14462,15067 13392,15067 13392,14371 Z"/>
              <path fill="rgb(210,210,210)" stroke="none" d="M 13392,14371 L 14462,14371 14462,15067 13392,15067 13392,14371 Z M 13420,14389 L 14434,14389 14434,15049 13420,15049 13420,14389 Z"/>
              <path fill="rgb(211,211,211)" stroke="none" d="M 13420,14389 L 14434,14389 14434,15049 13420,15049 13420,14389 Z M 13448,14408 L 14406,14408 14406,15030 13448,15030 13448,14408 Z"/>
              <path fill="rgb(212,212,212)" stroke="none" d="M 13448,14408 L 14406,14408 14406,15030 13448,15030 13448,14408 Z M 13477,14426 L 14377,14426 14377,15012 13477,15012 13477,14426 Z"/>
              <path fill="rgb(213,213,213)" stroke="none" d="M 13477,14426 L 14377,14426 14377,15012 13477,15012 13477,14426 Z M 13505,14444 L 14349,14444 14349,14994 13505,14994 13505,14444 Z"/>
              <path fill="rgb(214,214,214)" stroke="none" d="M 13505,14444 L 14349,14444 14349,14994 13505,14994 13505,14444 Z M 13533,14463 L 14321,14463 14321,14975 13533,14975 13533,14463 Z"/>
              <path fill="rgb(215,215,215)" stroke="none" d="M 13533,14463 L 14321,14463 14321,14975 13533,14975 13533,14463 Z M 13561,14481 L 14293,14481 14293,14957 13561,14957 13561,14481 Z"/>
              <path fill="rgb(216,216,216)" stroke="none" d="M 13561,14481 L 14293,14481 14293,14957 13561,14957 13561,14481 Z M 13589,14499 L 14265,14499 14265,14939 13589,14939 13589,14499 Z"/>
              <path fill="rgb(217,217,217)" stroke="none" d="M 13589,14499 L 14265,14499 14265,14939 13589,14939 13589,14499 Z M 13618,14518 L 14236,14518 14236,14920 13618,14920 13618,14518 Z"/>
              <path fill="rgb(218,218,218)" stroke="none" d="M 13618,14518 L 14236,14518 14236,14920 13618,14920 13618,14518 Z M 13646,14536 L 14208,14536 14208,14902 13646,14902 13646,14536 Z"/>
              <path fill="rgb(219,219,219)" stroke="none" d="M 13646,14536 L 14208,14536 14208,14902 13646,14902 13646,14536 Z M 13674,14554 L 14180,14554 14180,14884 13674,14884 13674,14554 Z"/>
              <path fill="rgb(220,220,220)" stroke="none" d="M 13674,14554 L 14180,14554 14180,14884 13674,14884 13674,14554 Z M 13702,14573 L 14152,14573 14152,14865 13702,14865 13702,14573 Z"/>
              <path fill="rgb(221,221,221)" stroke="none" d="M 13702,14573 L 14152,14573 14152,14865 13702,14865 13702,14573 Z M 13730,14591 L 14124,14591 14124,14847 13730,14847 13730,14591 Z"/>
              <path fill="rgb(222,222,222)" stroke="none" d="M 13730,14591 L 14124,14591 14124,14847 13730,14847 13730,14591 Z M 13758,14609 L 14096,14609 14096,14829 13758,14829 13758,14609 Z"/>
              <path fill="rgb(223,223,223)" stroke="none" d="M 13758,14609 L 14096,14609 14096,14829 13758,14829 13758,14609 Z M 13787,14628 L 14067,14628 14067,14810 13787,14810 13787,14628 Z"/>
              <path fill="rgb(224,224,224)" stroke="none" d="M 13787,14628 L 14067,14628 14067,14810 13787,14810 13787,14628 Z M 13815,14646 L 14039,14646 14039,14792 13815,14792 13815,14646 Z"/>
              <path fill="rgb(225,225,225)" stroke="none" d="M 13815,14646 L 14039,14646 14039,14792 13815,14792 13815,14646 Z M 13843,14664 L 14011,14664 14011,14774 13843,14774 13843,14664 Z"/>
              <path fill="rgb(226,226,226)" stroke="none" d="M 13843,14664 L 14011,14664 14011,14774 13843,14774 13843,14664 Z M 13871,14683 L 13983,14683 13983,14755 13871,14755 13871,14683 Z"/>
              <path fill="rgb(227,227,227)" stroke="none" d="M 13871,14683 L 13983,14683 13983,14755 13871,14755 13871,14683 Z M 13899,14701 L 13955,14701 13955,14737 13899,14737 13899,14701 Z"/>
              <path fill="rgb(229,229,229)" stroke="none" d="M 13899,14701 L 13955,14701 13955,14737 13899,14737 13899,14701 Z"/>
             </g>
            </pattern>
           </defs>
           <path style="fill:url(#pattern5)" d="M 15899,14374 L 15899,14171 13084,15798 13084,16002 15899,14374 Z"/>
          </g>
          <path fill="none" stroke="rgb(255,255,255)" stroke-width="40" stroke-linejoin="round" d="M 15899,14374 L 15899,14171 13084,15798 13084,16002 15899,14374 Z"/>
         </g>
        </g>
        <g class="com.sun.star.drawing.PolyPolygonShape">
         <g id="id21">
          <rect class="BoundingBox" stroke="none" fill="none" x="12095" y="13592" width="3825" height="2431"/>
          <path fill="none" stroke="rgb(0,0,0)" stroke-width="40" stroke-linejoin="round" d="M 14931,13612 L 12116,15239 12116,15443 13084,16002 15899,14375 15899,14171 14931,13612 Z"/>
         </g>
        </g>
        <g class="Group">
         <g class="com.sun.star.drawing.PolyPolygonShape">
          <g id="id22">
           <rect class="BoundingBox" stroke="none" fill="none" x="14424" y="13730" width="1274" height="753"/>
           <path fill="rgb(153,153,153)" stroke="none" d="M 15676,14157 L 14972,13750 14444,14055 15148,14462 15676,14157 Z"/>
           <path fill="none" stroke="rgb(255,255,255)" stroke-width="40" stroke-linejoin="round" d="M 15676,14157 L 14972,13750 14444,14055 15148,14462 15676,14157 Z"/>
          </g>
         </g>
         <g class="com.sun.star.drawing.LineShape">
          <g id="id23">
           <rect class="BoundingBox" stroke="none" fill="none" x="14776" y="13832" width="745" height="448"/>
           <path fill="none" stroke="rgb(255,255,255)" stroke-width="40" stroke-linejoin="round" d="M 15500,14259 L 14796,13852"/>
          </g>
         </g>
         <g class="com.sun.star.drawing.LineShape">
          <g id="id24">
           <rect class="BoundingBox" stroke="none" fill="none" x="14600" y="13933" width="745" height="448"/>
           <path fill="none" stroke="rgb(255,255,255)" stroke-width="40" stroke-linejoin="round" d="M 15324,14360 L 14620,13953"/>
          </g>
         </g>
         <g class="com.sun.star.drawing.LineShape">
          <g id="id25">
           <rect class="BoundingBox" stroke="none" fill="none" x="14600" y="13832" width="569" height="346"/>
           <path fill="none" stroke="rgb(255,255,255)" stroke-width="40" stroke-linejoin="round" d="M 15148,13852 L 14620,14157"/>
          </g>
         </g>
         <g class="com.sun.star.drawing.LineShape">
          <g id="id26">
           <rect class="BoundingBox" stroke="none" fill="none" x="14776" y="13933" width="569" height="346"/>
           <path fill="none" stroke="rgb(255,255,255)" stroke-width="40" stroke-linejoin="round" d="M 15324,13953 L 14796,14258"/>
          </g>
         </g>
         <g class="com.sun.star.drawing.LineShape">
          <g id="id27">
           <rect class="BoundingBox" stroke="none" fill="none" x="15128" y="14035" width="393" height="244"/>
           <path fill="none" stroke="rgb(255,255,255)" stroke-width="40" stroke-linejoin="round" d="M 15500,14055 L 15148,14258"/>
          </g>
         </g>
        </g>
        <g class="Group">
         <g class="com.sun.star.drawing.PolyPolygonShape">
          <g id="id28">
           <rect class="BoundingBox" stroke="none" fill="none" x="12363" y="14157" width="2592" height="1516"/>
           <path fill="rgb(153,153,153)" stroke="none" d="M 14934,14584 L 14230,14177 12383,15245 13086,15652 14934,14584 Z"/>
           <path fill="none" stroke="rgb(255,255,255)" stroke-width="40" stroke-linejoin="round" d="M 14934,14584 L 14230,14177 12383,15245 13086,15652 14934,14584 Z"/>
          </g>
         </g>
         <g class="com.sun.star.drawing.LineShape">
          <g id="id29">
           <rect class="BoundingBox" stroke="none" fill="none" x="12890" y="14462" width="1889" height="1109"/>
           <path fill="none" stroke="rgb(255,255,255)" stroke-width="40" stroke-linejoin="round" d="M 14758,14482 L 12910,15550"/>
          </g>
         </g>
         <g class="com.sun.star.drawing.LineShape">
          <g id="id30">
           <rect class="BoundingBox" stroke="none" fill="none" x="12714" y="14361" width="1889" height="1109"/>
           <path fill="none" stroke="rgb(255,255,255)" stroke-width="40" stroke-linejoin="round" d="M 14582,14381 L 12734,15449"/>
          </g>
         </g>
         <g class="com.sun.star.drawing.LineShape">
          <g id="id31">
           <rect class="BoundingBox" stroke="none" fill="none" x="12538" y="14259" width="1889" height="1109"/>
           <path fill="none" stroke="rgb(255,255,255)" stroke-width="40" stroke-linejoin="round" d="M 14406,14279 L 12558,15347"/>
          </g>
         </g>
         <g class="com.sun.star.drawing.LineShape">
          <g id="id32">
           <rect class="BoundingBox" stroke="none" fill="none" x="12539" y="15124" width="217" height="143"/>
           <path fill="none" stroke="rgb(255,255,255)" stroke-width="40" stroke-linejoin="round" d="M 12735,15246 L 12559,15144"/>
          </g>
         </g>
         <g class="com.sun.star.drawing.LineShape">
          <g id="id33">
           <rect class="BoundingBox" stroke="none" fill="none" x="12715" y="15022" width="217" height="143"/>
           <path fill="none" stroke="rgb(255,255,255)" stroke-width="40" stroke-linejoin="round" d="M 12911,15144 L 12735,15042"/>
          </g>
         </g>
         <g class="com.sun.star.drawing.LineShape">
          <g id="id34">
           <rect class="BoundingBox" stroke="none" fill="none" x="12891" y="14920" width="217" height="143"/>
           <path fill="none" stroke="rgb(255,255,255)" stroke-width="40" stroke-linejoin="round" d="M 13087,15042 L 12911,14940"/>
          </g>
         </g>
         <g class="com.sun.star.drawing.LineShape">
          <g id="id35">
           <rect class="BoundingBox" stroke="none" fill="none" x="12803" y="15174" width="217" height="143"/>
           <path fill="none" stroke="rgb(255,255,255)" stroke-width="40" stroke-linejoin="round" d="M 12999,15296 L 12823,15194"/>
          </g>
         </g>
         <g class="com.sun.star.drawing.LineShape">
          <g id="id36">
           <rect class="BoundingBox" stroke="none" fill="none" x="12978" y="15073" width="217" height="143"/>
           <path fill="none" stroke="rgb(255,255,255)" stroke-width="40" stroke-linejoin="round" d="M 13174,15195 L 12998,15093"/>
          </g>
         </g>
         <g class="com.sun.star.drawing.LineShape">
          <g id="id37">
           <rect class="BoundingBox" stroke="none" fill="none" x="13154" y="14971" width="217" height="143"/>
           <path fill="none" stroke="rgb(255,255,255)" stroke-width="40" stroke-linejoin="round" d="M 13350,15093 L 13174,14991"/>
          </g>
         </g>
         <g class="com.sun.star.drawing.LineShape">
          <g id="id38">
           <rect class="BoundingBox" stroke="none" fill="none" x="13066" y="14818" width="217" height="143"/>
           <path fill="none" stroke="rgb(255,255,255)" stroke-width="40" stroke-linejoin="round" d="M 13262,14940 L 13086,14838"/>
          </g>
         </g>
         <g class="com.sun.star.drawing.LineShape">
          <g id="id39">
           <rect class="BoundingBox" stroke="none" fill="none" x="13330" y="14869" width="217" height="143"/>
           <path fill="none" stroke="rgb(255,255,255)" stroke-width="40" stroke-linejoin="round" d="M 13526,14991 L 13350,14889"/>
          </g>
         </g>
         <g class="com.sun.star.drawing.LineShape">
          <g id="id40">
           <rect class="BoundingBox" stroke="none" fill="none" x="13242" y="14717" width="217" height="143"/>
           <path fill="none" stroke="rgb(255,255,255)" stroke-width="40" stroke-linejoin="round" d="M 13438,14839 L 13262,14737"/>
          </g>
         </g>
         <g class="com.sun.star.drawing.LineShape">
          <g id="id41">
           <rect class="BoundingBox" stroke="none" fill="none" x="13418" y="14615" width="217" height="143"/>
           <path fill="none" stroke="rgb(255,255,255)" stroke-width="40" stroke-linejoin="round" d="M 13614,14737 L 13438,14635"/>
          </g>
         </g>
         <g class="com.sun.star.drawing.LineShape">
          <g id="id42">
           <rect class="BoundingBox" stroke="none" fill="none" x="13594" y="14513" width="217" height="143"/>
           <path fill="none" stroke="rgb(255,255,255)" stroke-width="40" stroke-linejoin="round" d="M 13790,14635 L 13614,14533"/>
          </g>
         </g>
         <g class="com.sun.star.drawing.LineShape">
          <g id="id43">
           <rect class="BoundingBox" stroke="none" fill="none" x="13506" y="14768" width="217" height="143"/>
           <path fill="none" stroke="rgb(255,255,255)" stroke-width="40" stroke-linejoin="round" d="M 13702,14890 L 13526,14788"/>
          </g>
         </g>
         <g class="com.sun.star.drawing.LineShape">
          <g id="id44">
           <rect class="BoundingBox" stroke="none" fill="none" x="13682" y="14666" width="217" height="143"/>
           <path fill="none" stroke="rgb(255,255,255)" stroke-width="40" stroke-linejoin="round" d="M 13878,14788 L 13702,14686"/>
          </g>
         </g>
         <g class="com.sun.star.drawing.LineShape">
          <g id="id45">
           <rect class="BoundingBox" stroke="none" fill="none" x="13858" y="14564" width="217" height="143"/>
           <path fill="none" stroke="rgb(255,255,255)" stroke-width="40" stroke-linejoin="round" d="M 14054,14686 L 13878,14584"/>
          </g>
         </g>
         <g class="com.sun.star.drawing.LineShape">
          <g id="id46">
           <rect class="BoundingBox" stroke="none" fill="none" x="13770" y="14412" width="217" height="143"/>
           <path fill="none" stroke="rgb(255,255,255)" stroke-width="40" stroke-linejoin="round" d="M 13966,14534 L 13790,14432"/>
          </g>
         </g>
         <g class="com.sun.star.drawing.LineShape">
          <g id="id47">
           <rect class="BoundingBox" stroke="none" fill="none" x="14034" y="14462" width="217" height="143"/>
           <path fill="none" stroke="rgb(255,255,255)" stroke-width="40" stroke-linejoin="round" d="M 14230,14584 L 14054,14482"/>
          </g>
         </g>
         <g class="com.sun.star.drawing.LineShape">
          <g id="id48">
           <rect class="BoundingBox" stroke="none" fill="none" x="13946" y="14310" width="217" height="143"/>
           <path fill="none" stroke="rgb(255,255,255)" stroke-width="40" stroke-linejoin="round" d="M 14142,14432 L 13966,14330"/>
          </g>
         </g>
         <g class="com.sun.star.drawing.LineShape">
          <g id="id49">
           <rect class="BoundingBox" stroke="none" fill="none" x="14122" y="14208" width="217" height="143"/>
           <path fill="none" stroke="rgb(255,255,255)" stroke-width="40" stroke-linejoin="round" d="M 14318,14330 L 14142,14228"/>
          </g>
         </g>
         <g class="com.sun.star.drawing.LineShape">
          <g id="id50">
           <rect class="BoundingBox" stroke="none" fill="none" x="14210" y="14361" width="217" height="143"/>
           <path fill="none" stroke="rgb(255,255,255)" stroke-width="40" stroke-linejoin="round" d="M 14406,14483 L 14230,14381"/>
          </g>
         </g>
         <g class="com.sun.star.drawing.LineShape">
          <g id="id51">
           <rect class="BoundingBox" stroke="none" fill="none" x="13066" y="15225" width="217" height="143"/>
           <path fill="none" stroke="rgb(255,255,255)" stroke-width="40" stroke-linejoin="round" d="M 13262,15347 L 13086,15245"/>
          </g>
         </g>
         <g class="com.sun.star.drawing.LineShape">
          <g id="id52">
           <rect class="BoundingBox" stroke="none" fill="none" x="13242" y="15124" width="217" height="143"/>
           <path fill="none" stroke="rgb(255,255,255)" stroke-width="40" stroke-linejoin="round" d="M 13438,15246 L 13262,15144"/>
          </g>
         </g>
         <g class="com.sun.star.drawing.LineShape">
          <g id="id53">
           <rect class="BoundingBox" stroke="none" fill="none" x="13418" y="15022" width="217" height="143"/>
           <path fill="none" stroke="rgb(255,255,255)" stroke-width="40" stroke-linejoin="round" d="M 13614,15144 L 13438,15042"/>
          </g>
         </g>
         <g class="com.sun.star.drawing.LineShape">
          <g id="id54">
           <rect class="BoundingBox" stroke="none" fill="none" x="13506" y="15174" width="217" height="143"/>
           <path fill="none" stroke="rgb(255,255,255)" stroke-width="40" stroke-linejoin="round" d="M 13702,15296 L 13526,15194"/>
          </g>
         </g>
         <g class="com.sun.star.drawing.LineShape">
          <g id="id55">
           <rect class="BoundingBox" stroke="none" fill="none" x="13682" y="15073" width="217" height="143"/>
           <path fill="none" stroke="rgb(255,255,255)" stroke-width="40" stroke-linejoin="round" d="M 13878,15195 L 13702,15093"/>
          </g>
         </g>
         <g class="com.sun.star.drawing.LineShape">
          <g id="id56">
           <rect class="BoundingBox" stroke="none" fill="none" x="13594" y="14920" width="217" height="143"/>
           <path fill="none" stroke="rgb(255,255,255)" stroke-width="40" stroke-linejoin="round" d="M 13790,15042 L 13614,14940"/>
          </g>
         </g>
         <g class="com.sun.star.drawing.LineShape">
          <g id="id57">
           <rect class="BoundingBox" stroke="none" fill="none" x="13770" y="14818" width="217" height="143"/>
           <path fill="none" stroke="rgb(255,255,255)" stroke-width="40" stroke-linejoin="round" d="M 13966,14940 L 13790,14838"/>
          </g>
         </g>
         <g class="com.sun.star.drawing.LineShape">
          <g id="id58">
           <rect class="BoundingBox" stroke="none" fill="none" x="13946" y="14717" width="217" height="143"/>
           <path fill="none" stroke="rgb(255,255,255)" stroke-width="40" stroke-linejoin="round" d="M 14142,14839 L 13966,14737"/>
          </g>
         </g>
         <g class="com.sun.star.drawing.LineShape">
          <g id="id59">
           <rect class="BoundingBox" stroke="none" fill="none" x="14122" y="14615" width="217" height="143"/>
           <path fill="none" stroke="rgb(255,255,255)" stroke-width="40" stroke-linejoin="round" d="M 14318,14737 L 14142,14635"/>
          </g>
         </g>
         <g class="com.sun.star.drawing.LineShape">
          <g id="id60">
           <rect class="BoundingBox" stroke="none" fill="none" x="14386" y="14666" width="217" height="143"/>
           <path fill="none" stroke="rgb(255,255,255)" stroke-width="40" stroke-linejoin="round" d="M 14582,14788 L 14406,14686"/>
          </g>
         </g>
         <g class="com.sun.star.drawing.LineShape">
          <g id="id61">
           <rect class="BoundingBox" stroke="none" fill="none" x="14298" y="14513" width="217" height="143"/>
           <path fill="none" stroke="rgb(255,255,255)" stroke-width="40" stroke-linejoin="round" d="M 14494,14635 L 14318,14533"/>
          </g>
         </g>
         <g class="com.sun.star.drawing.LineShape">
          <g id="id62">
           <rect class="BoundingBox" stroke="none" fill="none" x="14562" y="14564" width="217" height="143"/>
           <path fill="none" stroke="rgb(255,255,255)" stroke-width="40" stroke-linejoin="round" d="M 14758,14686 L 14582,14584"/>
          </g>
         </g>
         <g class="com.sun.star.drawing.LineShape">
          <g id="id63">
           <rect class="BoundingBox" stroke="none" fill="none" x="13154" y="15378" width="217" height="143"/>
           <path fill="none" stroke="rgb(255,255,255)" stroke-width="40" stroke-linejoin="round" d="M 13350,15500 L 13174,15398"/>
          </g>
         </g>
         <g class="com.sun.star.drawing.LineShape">
          <g id="id64">
           <rect class="BoundingBox" stroke="none" fill="none" x="13330" y="15276" width="217" height="143"/>
           <path fill="none" stroke="rgb(255,255,255)" stroke-width="40" stroke-linejoin="round" d="M 13526,15398 L 13350,15296"/>
          </g>
         </g>
        </g>
       </g>
      </g>
     </g>
    </g>
   </g>
  </g>
 </g>
</svg>