<?xml version="1.0" encoding="UTF-8"?>
<!DOCTYPE svg PUBLIC "-//W3C//DTD SVG 1.1//EN" "http://www.w3.org/Graphics/SVG/1.1/DTD/svg11.dtd">
<svg version="1.2" width="50.56mm" height="61.3mm" viewBox="13686 4385 5056 6130" preserveAspectRatio="xMidYMid" fill-rule="evenodd" stroke-width="28.222" stroke-linejoin="round" xmlns="http://www.w3.org/2000/svg" xmlns:ooo="http://xml.openoffice.org/svg/export" xmlns:xlink="http://www.w3.org/1999/xlink" xmlns:presentation="http://sun.com/xmlns/staroffice/presentation" xmlns:smil="http://www.w3.org/2001/SMIL20/" xmlns:anim="urn:oasis:names:tc:opendocument:xmlns:animation:1.0" xml:space="preserve">
 <defs class="ClipPathGroup">
  <clipPath id="presentation_clip_path" clipPathUnits="userSpaceOnUse">
   <rect x="13686" y="4385" width="5056" height="6130"/>
  </clipPath>
 </defs>
 <defs class="TextShapeIndex">
  <g ooo:slide="id1" ooo:id-list="id3 id4 id5 id6 id7 id8 id9 id10 id11"/>
 </defs>
 <defs class="EmbeddedBulletChars">
  <g id="bullet-char-template(57356)" transform="scale(0.00048828125,-0.00048828125)">
   <path d="M 580,1141 L 1163,571 580,0 -4,571 580,1141 Z"/>
  </g>
  <g id="bullet-char-template(57354)" transform="scale(0.00048828125,-0.00048828125)">
   <path d="M 8,1128 L 1137,1128 1137,0 8,0 8,1128 Z"/>
  </g>
  <g id="bullet-char-template(10146)" transform="scale(0.00048828125,-0.00048828125)">
   <path d="M 174,0 L 602,739 174,1481 1456,739 174,0 Z M 1358,739 L 309,1346 659,739 1358,739 Z"/>
  </g>
  <g id="bullet-char-template(10132)" transform="scale(0.00048828125,-0.00048828125)">
   <path d="M 2015,739 L 1276,0 717,0 1260,543 174,543 174,936 1260,936 717,1481 1274,1481 2015,739 Z"/>
  </g>
  <g id="bullet-char-template(10007)" transform="scale(0.00048828125,-0.00048828125)">
   <path d="M 0,-2 C -7,14 -16,27 -25,37 L 356,567 C 262,823 215,952 215,954 215,979 228,992 255,992 264,992 276,990 289,987 310,991 331,999 354,1012 L 381,999 492,748 772,1049 836,1024 860,1049 C 881,1039 901,1025 922,1006 886,937 835,863 770,784 769,783 710,716 594,584 L 774,223 C 774,196 753,168 711,139 L 727,119 C 717,90 699,76 672,76 641,76 570,178 457,381 L 164,-76 C 142,-110 111,-127 72,-127 30,-127 9,-110 8,-76 1,-67 -2,-52 -2,-32 -2,-23 -1,-13 0,-2 Z"/>
  </g>
  <g id="bullet-char-template(10004)" transform="scale(0.00048828125,-0.00048828125)">
   <path d="M 285,-33 C 182,-33 111,30 74,156 52,228 41,333 41,471 41,549 55,616 82,672 116,743 169,778 240,778 293,778 328,747 346,684 L 369,508 C 377,444 397,411 428,410 L 1163,1116 C 1174,1127 1196,1133 1229,1133 1271,1133 1292,1118 1292,1087 L 1292,965 C 1292,929 1282,901 1262,881 L 442,47 C 390,-6 338,-33 285,-33 Z"/>
  </g>
  <g id="bullet-char-template(9679)" transform="scale(0.00048828125,-0.00048828125)">
   <path d="M 813,0 C 632,0 489,54 383,161 276,268 223,411 223,592 223,773 276,916 383,1023 489,1130 632,1184 813,1184 992,1184 1136,1130 1245,1023 1353,916 1407,772 1407,592 1407,412 1353,268 1245,161 1136,54 992,0 813,0 Z"/>
  </g>
  <g id="bullet-char-template(8226)" transform="scale(0.00048828125,-0.00048828125)">
   <path d="M 346,457 C 273,457 209,483 155,535 101,586 74,649 74,723 74,796 101,859 155,911 209,963 273,989 346,989 419,989 480,963 531,910 582,859 608,796 608,723 608,648 583,586 532,535 482,483 420,457 346,457 Z"/>
  </g>
  <g id="bullet-char-template(8211)" transform="scale(0.00048828125,-0.00048828125)">
   <path d="M -4,459 L 1135,459 1135,606 -4,606 -4,459 Z"/>
  </g>
 </defs>
 <defs class="TextEmbeddedBitmaps"/>
 <g class="SlideGroup">
  <g>
   <g id="id1" class="Slide" clip-path="url(#presentation_clip_path)">
    <g class="Page">
     <g class="Group">
      <g class="com.sun.star.drawing.ClosedBezierShape">
       <g id="id3">
        <rect class="BoundingBox" stroke="none" fill="none" x="16615" y="8674" width="2128" height="1263"/>
        <path fill="rgb(221,221,221)" stroke="none" d="M 16616,9935 C 16873,9935 18556,9025 18677,8955 18798,8885 18743,8675 18556,8675 L 16616,9935 Z"/>
        <path fill="none" stroke="rgb(221,221,221)" d="M 16616,9935 C 16873,9935 18556,9025 18677,8955 18798,8885 18743,8675 18556,8675 L 16616,9935 Z"/>
       </g>
      </g>
      <g class="Group">
       <g class="com.sun.star.drawing.PolyPolygonShape">
        <g id="id4">
         <rect class="BoundingBox" stroke="none" fill="none" x="13686" y="9145" width="1981" height="1371"/>
         <g>
          <defs>
           <linearGradient id="gradient1" x1="13706" y1="9830" x2="15646" y2="9830" gradientUnits="userSpaceOnUse">
            <stop offset="0.1" style="stop-color:rgb(51,51,51)"/>
            <stop offset="1" style="stop-color:rgb(153,153,153)"/>
           </linearGradient>
          </defs>
          <path style="fill:url(#gradient1)" d="M 13706,9375 L 13706,9165 15646,10285 15646,10495 13706,9375 Z"/>
         </g>
         <path fill="none" stroke="rgb(178,178,178)" stroke-width="40" stroke-linejoin="round" d="M 13706,9375 L 13706,9165 15646,10285 15646,10495 13706,9375 Z"/>
        </g>
       </g>
       <g class="com.sun.star.drawing.PolyPolygonShape">
        <g id="id5">
         <rect class="BoundingBox" stroke="none" fill="none" x="13686" y="7465" width="4891" height="2841"/>
         <g>
          <defs>
           <linearGradient id="gradient2" x1="16131" y1="7485" x2="16131" y2="10285" gradientUnits="userSpaceOnUse">
            <stop offset="0.1" style="stop-color:rgb(51,51,51)"/>
            <stop offset="1" style="stop-color:rgb(153,153,153)"/>
           </linearGradient>
          </defs>
          <path style="fill:url(#gradient2)" d="M 15646,10285 L 13706,9165 16616,7485 18556,8605 15646,10285 Z"/>
         </g>
         <path fill="none" stroke="rgb(178,178,178)" stroke-width="40" stroke-linejoin="round" d="M 15646,10285 L 13706,9165 16616,7485 18556,8605 15646,10285 Z"/>
        </g>
       </g>
       <g class="com.sun.star.drawing.PolyPolygonShape">
        <g id="id6">
         <rect class="BoundingBox" stroke="none" fill="none" x="15626" y="8585" width="2951" height="1931"/>
         <g>
          <defs>
           <pattern id="pattern1" x="15646" y="8605" width="2911" height="1891" patternUnits="userSpaceOnUse">
            <g transform="translate(-15646,-8605)">
             <path fill="rgb(51,51,51)" stroke="none" d="M 15645,8604 L 18557,8604 18557,10496 15645,10496 15645,8604 Z M 15077,8235 L 17959,8235 17959,10107 15077,10107 15077,8235 Z"/>
             <path fill="rgb(52,52,52)" stroke="none" d="M 15077,8235 L 17959,8235 17959,10107 15077,10107 15077,8235 Z M 15091,8244 L 17945,8244 17945,10098 15091,10098 15091,8244 Z"/>
             <path fill="rgb(53,53,53)" stroke="none" d="M 15091,8244 L 17945,8244 17945,10098 15091,10098 15091,8244 Z M 15105,8253 L 17931,8253 17931,10089 15105,10089 15105,8253 Z"/>
             <path fill="rgb(54,54,54)" stroke="none" d="M 15105,8253 L 17931,8253 17931,10089 15105,10089 15105,8253 Z M 15120,8263 L 17916,8263 17916,10079 15120,10079 15120,8263 Z"/>
             <path fill="rgb(55,55,55)" stroke="none" d="M 15120,8263 L 17916,8263 17916,10079 15120,10079 15120,8263 Z M 15134,8272 L 17902,8272 17902,10070 15134,10070 15134,8272 Z"/>
             <path fill="rgb(56,56,56)" stroke="none" d="M 15134,8272 L 17902,8272 17902,10070 15134,10070 15134,8272 Z M 15148,8281 L 17888,8281 17888,10061 15148,10061 15148,8281 Z"/>
             <path fill="rgb(57,57,57)" stroke="none" d="M 15148,8281 L 17888,8281 17888,10061 15148,10061 15148,8281 Z M 15162,8290 L 17874,8290 17874,10052 15162,10052 15162,8290 Z"/>
             <path fill="rgb(58,58,58)" stroke="none" d="M 15162,8290 L 17874,8290 17874,10052 15162,10052 15162,8290 Z M 15177,8300 L 17859,8300 17859,10042 15177,10042 15177,8300 Z"/>
             <path fill="rgb(59,59,59)" stroke="none" d="M 15177,8300 L 17859,8300 17859,10042 15177,10042 15177,8300 Z M 15191,8309 L 17845,8309 17845,10033 15191,10033 15191,8309 Z"/>
             <path fill="rgb(60,60,60)" stroke="none" d="M 15191,8309 L 17845,8309 17845,10033 15191,10033 15191,8309 Z M 15205,8318 L 17831,8318 17831,10024 15205,10024 15205,8318 Z"/>
             <path fill="rgb(61,61,61)" stroke="none" d="M 15205,8318 L 17831,8318 17831,10024 15205,10024 15205,8318 Z M 15220,8328 L 17816,8328 17816,10014 15220,10014 15220,8328 Z"/>
             <path fill="rgb(62,62,62)" stroke="none" d="M 15220,8328 L 17816,8328 17816,10014 15220,10014 15220,8328 Z M 15234,8337 L 17802,8337 17802,10005 15234,10005 15234,8337 Z"/>
             <path fill="rgb(63,63,63)" stroke="none" d="M 15234,8337 L 17802,8337 17802,10005 15234,10005 15234,8337 Z M 15248,8346 L 17788,8346 17788,9996 15248,9996 15248,8346 Z"/>
             <path fill="rgb(64,64,64)" stroke="none" d="M 15248,8346 L 17788,8346 17788,9996 15248,9996 15248,8346 Z M 15262,8355 L 17774,8355 17774,9987 15262,9987 15262,8355 Z"/>
             <path fill="rgb(65,65,65)" stroke="none" d="M 15262,8355 L 17774,8355 17774,9987 15262,9987 15262,8355 Z M 15277,8365 L 17759,8365 17759,9977 15277,9977 15277,8365 Z"/>
             <path fill="rgb(66,66,66)" stroke="none" d="M 15277,8365 L 17759,8365 17759,9977 15277,9977 15277,8365 Z M 15291,8374 L 17745,8374 17745,9968 15291,9968 15291,8374 Z"/>
             <path fill="rgb(67,67,67)" stroke="none" d="M 15291,8374 L 17745,8374 17745,9968 15291,9968 15291,8374 Z M 15305,8383 L 17731,8383 17731,9959 15305,9959 15305,8383 Z"/>
             <path fill="rgb(68,68,68)" stroke="none" d="M 15305,8383 L 17731,8383 17731,9959 15305,9959 15305,8383 Z M 15320,8393 L 17716,8393 17716,9949 15320,9949 15320,8393 Z"/>
             <path fill="rgb(69,69,69)" stroke="none" d="M 15320,8393 L 17716,8393 17716,9949 15320,9949 15320,8393 Z M 15334,8402 L 17702,8402 17702,9940 15334,9940 15334,8402 Z"/>
             <path fill="rgb(70,70,70)" stroke="none" d="M 15334,8402 L 17702,8402 17702,9940 15334,9940 15334,8402 Z M 15348,8411 L 17688,8411 17688,9931 15348,9931 15348,8411 Z"/>
             <path fill="rgb(71,71,71)" stroke="none" d="M 15348,8411 L 17688,8411 17688,9931 15348,9931 15348,8411 Z M 15362,8420 L 17674,8420 17674,9922 15362,9922 15362,8420 Z"/>
             <path fill="rgb(72,72,72)" stroke="none" d="M 15362,8420 L 17674,8420 17674,9922 15362,9922 15362,8420 Z M 15377,8430 L 17659,8430 17659,9912 15377,9912 15377,8430 Z"/>
             <path fill="rgb(73,73,73)" stroke="none" d="M 15377,8430 L 17659,8430 17659,9912 15377,9912 15377,8430 Z M 15391,8439 L 17645,8439 17645,9903 15391,9903 15391,8439 Z"/>
             <path fill="rgb(74,74,74)" stroke="none" d="M 15391,8439 L 17645,8439 17645,9903 15391,9903 15391,8439 Z M 15405,8448 L 17631,8448 17631,9894 15405,9894 15405,8448 Z"/>
             <path fill="rgb(75,75,75)" stroke="none" d="M 15405,8448 L 17631,8448 17631,9894 15405,9894 15405,8448 Z M 15419,8457 L 17617,8457 17617,9885 15419,9885 15419,8457 Z"/>
             <path fill="rgb(76,76,76)" stroke="none" d="M 15419,8457 L 17617,8457 17617,9885 15419,9885 15419,8457 Z M 15434,8467 L 17602,8467 17602,9875 15434,9875 15434,8467 Z"/>
             <path fill="rgb(77,77,77)" stroke="none" d="M 15434,8467 L 17602,8467 17602,9875 15434,9875 15434,8467 Z M 15448,8476 L 17588,8476 17588,9866 15448,9866 15448,8476 Z"/>
             <path fill="rgb(78,78,78)" stroke="none" d="M 15448,8476 L 17588,8476 17588,9866 15448,9866 15448,8476 Z M 15462,8485 L 17574,8485 17574,9857 15462,9857 15462,8485 Z"/>
             <path fill="rgb(79,79,79)" stroke="none" d="M 15462,8485 L 17574,8485 17574,9857 15462,9857 15462,8485 Z M 15477,8495 L 17559,8495 17559,9847 15477,9847 15477,8495 Z"/>
             <path fill="rgb(80,80,80)" stroke="none" d="M 15477,8495 L 17559,8495 17559,9847 15477,9847 15477,8495 Z M 15491,8504 L 17545,8504 17545,9838 15491,9838 15491,8504 Z"/>
             <path fill="rgb(81,81,81)" stroke="none" d="M 15491,8504 L 17545,8504 17545,9838 15491,9838 15491,8504 Z M 15505,8513 L 17531,8513 17531,9829 15505,9829 15505,8513 Z"/>
             <path fill="rgb(82,82,82)" stroke="none" d="M 15505,8513 L 17531,8513 17531,9829 15505,9829 15505,8513 Z M 15519,8522 L 17517,8522 17517,9820 15519,9820 15519,8522 Z"/>
             <path fill="rgb(83,83,83)" stroke="none" d="M 15519,8522 L 17517,8522 17517,9820 15519,9820 15519,8522 Z M 15534,8532 L 17502,8532 17502,9810 15534,9810 15534,8532 Z"/>
             <path fill="rgb(84,84,84)" stroke="none" d="M 15534,8532 L 17502,8532 17502,9810 15534,9810 15534,8532 Z M 15548,8541 L 17488,8541 17488,9801 15548,9801 15548,8541 Z"/>
             <path fill="rgb(85,85,85)" stroke="none" d="M 15548,8541 L 17488,8541 17488,9801 15548,9801 15548,8541 Z M 15562,8550 L 17474,8550 17474,9792 15562,9792 15562,8550 Z"/>
             <path fill="rgb(86,86,86)" stroke="none" d="M 15562,8550 L 17474,8550 17474,9792 15562,9792 15562,8550 Z M 15577,8560 L 17459,8560 17459,9782 15577,9782 15577,8560 Z"/>
             <path fill="rgb(87,87,87)" stroke="none" d="M 15577,8560 L 17459,8560 17459,9782 15577,9782 15577,8560 Z M 15591,8569 L 17445,8569 17445,9773 15591,9773 15591,8569 Z"/>
             <path fill="rgb(88,88,88)" stroke="none" d="M 15591,8569 L 17445,8569 17445,9773 15591,9773 15591,8569 Z M 15605,8578 L 17431,8578 17431,9764 15605,9764 15605,8578 Z"/>
             <path fill="rgb(89,89,89)" stroke="none" d="M 15605,8578 L 17431,8578 17431,9764 15605,9764 15605,8578 Z M 15619,8586 L 17417,8586 17417,9755 15619,9755 15619,8586 Z"/>
             <path fill="rgb(90,90,90)" stroke="none" d="M 15619,8586 L 17417,8586 17417,9755 15619,9755 15619,8586 Z M 15633,8596 L 17402,8596 17402,9745 15633,9745 15633,8596 Z"/>
             <path fill="rgb(91,91,91)" stroke="none" d="M 15633,8596 L 17402,8596 17402,9745 15633,9745 15633,8596 Z M 15647,8605 L 17388,8605 17388,9736 15647,9736 15647,8605 Z"/>
             <path fill="rgb(92,92,92)" stroke="none" d="M 15647,8605 L 17388,8605 17388,9736 15647,9736 15647,8605 Z M 15661,8614 L 17374,8614 17374,9727 15661,9727 15661,8614 Z"/>
             <path fill="rgb(93,93,93)" stroke="none" d="M 15661,8614 L 17374,8614 17374,9727 15661,9727 15661,8614 Z M 15676,8624 L 17359,8624 17359,9717 15676,9717 15676,8624 Z"/>
             <path fill="rgb(94,94,94)" stroke="none" d="M 15676,8624 L 17359,8624 17359,9717 15676,9717 15676,8624 Z M 15690,8633 L 17345,8633 17345,9708 15690,9708 15690,8633 Z"/>
             <path fill="rgb(95,95,95)" stroke="none" d="M 15690,8633 L 17345,8633 17345,9708 15690,9708 15690,8633 Z M 15704,8642 L 17331,8642 17331,9699 15704,9699 15704,8642 Z"/>
             <path fill="rgb(96,96,96)" stroke="none" d="M 15704,8642 L 17331,8642 17331,9699 15704,9699 15704,8642 Z M 15718,8651 L 17317,8651 17317,9690 15718,9690 15718,8651 Z"/>
             <path fill="rgb(97,97,97)" stroke="none" d="M 15718,8651 L 17317,8651 17317,9690 15718,9690 15718,8651 Z M 15733,8661 L 17302,8661 17302,9680 15733,9680 15733,8661 Z"/>
             <path fill="rgb(98,98,98)" stroke="none" d="M 15733,8661 L 17302,8661 17302,9680 15733,9680 15733,8661 Z M 15747,8670 L 17288,8670 17288,9671 15747,9671 15747,8670 Z"/>
             <path fill="rgb(99,99,99)" stroke="none" d="M 15747,8670 L 17288,8670 17288,9671 15747,9671 15747,8670 Z M 15761,8679 L 17274,8679 17274,9662 15761,9662 15761,8679 Z"/>
             <path fill="rgb(100,100,100)" stroke="none" d="M 15761,8679 L 17274,8679 17274,9662 15761,9662 15761,8679 Z M 15775,8688 L 17260,8688 17260,9653 15775,9653 15775,8688 Z"/>
             <path fill="rgb(101,101,101)" stroke="none" d="M 15775,8688 L 17260,8688 17260,9653 15775,9653 15775,8688 Z M 15790,8698 L 17245,8698 17245,9643 15790,9643 15790,8698 Z"/>
             <path fill="rgb(102,102,102)" stroke="none" d="M 15790,8698 L 17245,8698 17245,9643 15790,9643 15790,8698 Z M 15804,8707 L 17231,8707 17231,9634 15804,9634 15804,8707 Z"/>
             <path fill="rgb(103,103,103)" stroke="none" d="M 15804,8707 L 17231,8707 17231,9634 15804,9634 15804,8707 Z M 15818,8716 L 17217,8716 17217,9625 15818,9625 15818,8716 Z"/>
             <path fill="rgb(104,104,104)" stroke="none" d="M 15818,8716 L 17217,8716 17217,9625 15818,9625 15818,8716 Z M 15833,8726 L 17202,8726 17202,9615 15833,9615 15833,8726 Z"/>
             <path fill="rgb(105,105,105)" stroke="none" d="M 15833,8726 L 17202,8726 17202,9615 15833,9615 15833,8726 Z M 15847,8735 L 17188,8735 17188,9606 15847,9606 15847,8735 Z"/>
             <path fill="rgb(106,106,106)" stroke="none" d="M 15847,8735 L 17188,8735 17188,9606 15847,9606 15847,8735 Z M 15861,8744 L 17174,8744 17174,9597 15861,9597 15861,8744 Z"/>
             <path fill="rgb(107,107,107)" stroke="none" d="M 15861,8744 L 17174,8744 17174,9597 15861,9597 15861,8744 Z M 15875,8753 L 17160,8753 17160,9588 15875,9588 15875,8753 Z"/>
             <path fill="rgb(108,108,108)" stroke="none" d="M 15875,8753 L 17160,8753 17160,9588 15875,9588 15875,8753 Z M 15890,8763 L 17145,8763 17145,9578 15890,9578 15890,8763 Z"/>
             <path fill="rgb(109,109,109)" stroke="none" d="M 15890,8763 L 17145,8763 17145,9578 15890,9578 15890,8763 Z M 15904,8772 L 17131,8772 17131,9569 15904,9569 15904,8772 Z"/>
             <path fill="rgb(110,110,110)" stroke="none" d="M 15904,8772 L 17131,8772 17131,9569 15904,9569 15904,8772 Z M 15918,8781 L 17117,8781 17117,9560 15918,9560 15918,8781 Z"/>
             <path fill="rgb(111,111,111)" stroke="none" d="M 15918,8781 L 17117,8781 17117,9560 15918,9560 15918,8781 Z M 15933,8791 L 17102,8791 17102,9550 15933,9550 15933,8791 Z"/>
             <path fill="rgb(112,112,112)" stroke="none" d="M 15933,8791 L 17102,8791 17102,9550 15933,9550 15933,8791 Z M 15947,8800 L 17088,8800 17088,9541 15947,9541 15947,8800 Z"/>
             <path fill="rgb(113,113,113)" stroke="none" d="M 15947,8800 L 17088,8800 17088,9541 15947,9541 15947,8800 Z M 15961,8809 L 17074,8809 17074,9532 15961,9532 15961,8809 Z"/>
             <path fill="rgb(114,114,114)" stroke="none" d="M 15961,8809 L 17074,8809 17074,9532 15961,9532 15961,8809 Z M 15975,8818 L 17060,8818 17060,9523 15975,9523 15975,8818 Z"/>
             <path fill="rgb(115,115,115)" stroke="none" d="M 15975,8818 L 17060,8818 17060,9523 15975,9523 15975,8818 Z M 15990,8828 L 17045,8828 17045,9513 15990,9513 15990,8828 Z"/>
             <path fill="rgb(116,116,116)" stroke="none" d="M 15990,8828 L 17045,8828 17045,9513 15990,9513 15990,8828 Z M 16004,8837 L 17031,8837 17031,9504 16004,9504 16004,8837 Z"/>
             <path fill="rgb(117,117,117)" stroke="none" d="M 16004,8837 L 17031,8837 17031,9504 16004,9504 16004,8837 Z M 16018,8846 L 17017,8846 17017,9495 16018,9495 16018,8846 Z"/>
             <path fill="rgb(118,118,118)" stroke="none" d="M 16018,8846 L 17017,8846 17017,9495 16018,9495 16018,8846 Z M 16032,8855 L 17003,8855 17003,9486 16032,9486 16032,8855 Z"/>
             <path fill="rgb(119,119,119)" stroke="none" d="M 16032,8855 L 17003,8855 17003,9486 16032,9486 16032,8855 Z M 16047,8865 L 16988,8865 16988,9476 16047,9476 16047,8865 Z"/>
             <path fill="rgb(120,120,120)" stroke="none" d="M 16047,8865 L 16988,8865 16988,9476 16047,9476 16047,8865 Z M 16061,8874 L 16974,8874 16974,9467 16061,9467 16061,8874 Z"/>
             <path fill="rgb(121,121,121)" stroke="none" d="M 16061,8874 L 16974,8874 16974,9467 16061,9467 16061,8874 Z M 16075,8883 L 16960,8883 16960,9458 16075,9458 16075,8883 Z"/>
             <path fill="rgb(122,122,122)" stroke="none" d="M 16075,8883 L 16960,8883 16960,9458 16075,9458 16075,8883 Z M 16090,8893 L 16945,8893 16945,9448 16090,9448 16090,8893 Z"/>
             <path fill="rgb(123,123,123)" stroke="none" d="M 16090,8893 L 16945,8893 16945,9448 16090,9448 16090,8893 Z M 16104,8902 L 16931,8902 16931,9439 16104,9439 16104,8902 Z"/>
             <path fill="rgb(124,124,124)" stroke="none" d="M 16104,8902 L 16931,8902 16931,9439 16104,9439 16104,8902 Z M 16118,8911 L 16917,8911 16917,9430 16118,9430 16118,8911 Z"/>
             <path fill="rgb(125,125,125)" stroke="none" d="M 16118,8911 L 16917,8911 16917,9430 16118,9430 16118,8911 Z M 16132,8920 L 16903,8920 16903,9421 16132,9421 16132,8920 Z"/>
             <path fill="rgb(126,126,126)" stroke="none" d="M 16132,8920 L 16903,8920 16903,9421 16132,9421 16132,8920 Z M 16147,8930 L 16888,8930 16888,9411 16147,9411 16147,8930 Z"/>
             <path fill="rgb(127,127,127)" stroke="none" d="M 16147,8930 L 16888,8930 16888,9411 16147,9411 16147,8930 Z M 16161,8939 L 16874,8939 16874,9402 16161,9402 16161,8939 Z"/>
             <path fill="rgb(128,128,128)" stroke="none" d="M 16161,8939 L 16874,8939 16874,9402 16161,9402 16161,8939 Z M 16175,8948 L 16860,8948 16860,9393 16175,9393 16175,8948 Z"/>
             <path fill="rgb(129,129,129)" stroke="none" d="M 16175,8948 L 16860,8948 16860,9393 16175,9393 16175,8948 Z M 16190,8958 L 16845,8958 16845,9383 16190,9383 16190,8958 Z"/>
             <path fill="rgb(130,130,130)" stroke="none" d="M 16190,8958 L 16845,8958 16845,9383 16190,9383 16190,8958 Z M 16204,8967 L 16831,8967 16831,9374 16204,9374 16204,8967 Z"/>
             <path fill="rgb(131,131,131)" stroke="none" d="M 16204,8967 L 16831,8967 16831,9374 16204,9374 16204,8967 Z M 16218,8976 L 16817,8976 16817,9365 16218,9365 16218,8976 Z"/>
             <path fill="rgb(132,132,132)" stroke="none" d="M 16218,8976 L 16817,8976 16817,9365 16218,9365 16218,8976 Z M 16232,8985 L 16803,8985 16803,9356 16232,9356 16232,8985 Z"/>
             <path fill="rgb(133,133,133)" stroke="none" d="M 16232,8985 L 16803,8985 16803,9356 16232,9356 16232,8985 Z M 16247,8995 L 16788,8995 16788,9346 16247,9346 16247,8995 Z"/>
             <path fill="rgb(134,134,134)" stroke="none" d="M 16247,8995 L 16788,8995 16788,9346 16247,9346 16247,8995 Z M 16261,9004 L 16774,9004 16774,9337 16261,9337 16261,9004 Z"/>
             <path fill="rgb(135,135,135)" stroke="none" d="M 16261,9004 L 16774,9004 16774,9337 16261,9337 16261,9004 Z M 16275,9013 L 16760,9013 16760,9328 16275,9328 16275,9013 Z"/>
             <path fill="rgb(136,136,136)" stroke="none" d="M 16275,9013 L 16760,9013 16760,9328 16275,9328 16275,9013 Z M 16290,9023 L 16745,9023 16745,9318 16290,9318 16290,9023 Z"/>
             <path fill="rgb(137,137,137)" stroke="none" d="M 16290,9023 L 16745,9023 16745,9318 16290,9318 16290,9023 Z M 16304,9032 L 16731,9032 16731,9309 16304,9309 16304,9032 Z"/>
             <path fill="rgb(138,138,138)" stroke="none" d="M 16304,9032 L 16731,9032 16731,9309 16304,9309 16304,9032 Z M 16318,9041 L 16717,9041 16717,9300 16318,9300 16318,9041 Z"/>
             <path fill="rgb(139,139,139)" stroke="none" d="M 16318,9041 L 16717,9041 16717,9300 16318,9300 16318,9041 Z M 16332,9050 L 16703,9050 16703,9291 16332,9291 16332,9050 Z"/>
             <path fill="rgb(140,140,140)" stroke="none" d="M 16332,9050 L 16703,9050 16703,9291 16332,9291 16332,9050 Z M 16347,9060 L 16688,9060 16688,9281 16347,9281 16347,9060 Z"/>
             <path fill="rgb(141,141,141)" stroke="none" d="M 16347,9060 L 16688,9060 16688,9281 16347,9281 16347,9060 Z M 16361,9069 L 16674,9069 16674,9272 16361,9272 16361,9069 Z"/>
             <path fill="rgb(142,142,142)" stroke="none" d="M 16361,9069 L 16674,9069 16674,9272 16361,9272 16361,9069 Z M 16375,9078 L 16660,9078 16660,9263 16375,9263 16375,9078 Z"/>
             <path fill="rgb(143,143,143)" stroke="none" d="M 16375,9078 L 16660,9078 16660,9263 16375,9263 16375,9078 Z M 16389,9087 L 16646,9087 16646,9254 16389,9254 16389,9087 Z"/>
             <path fill="rgb(144,144,144)" stroke="none" d="M 16389,9087 L 16646,9087 16646,9254 16389,9254 16389,9087 Z M 16404,9097 L 16631,9097 16631,9244 16404,9244 16404,9097 Z"/>
             <path fill="rgb(145,145,145)" stroke="none" d="M 16404,9097 L 16631,9097 16631,9244 16404,9244 16404,9097 Z M 16418,9106 L 16617,9106 16617,9235 16418,9235 16418,9106 Z"/>
             <path fill="rgb(146,146,146)" stroke="none" d="M 16418,9106 L 16617,9106 16617,9235 16418,9235 16418,9106 Z M 16432,9115 L 16603,9115 16603,9226 16432,9226 16432,9115 Z"/>
             <path fill="rgb(147,147,147)" stroke="none" d="M 16432,9115 L 16603,9115 16603,9226 16432,9226 16432,9115 Z M 16447,9125 L 16588,9125 16588,9216 16447,9216 16447,9125 Z"/>
             <path fill="rgb(148,148,148)" stroke="none" d="M 16447,9125 L 16588,9125 16588,9216 16447,9216 16447,9125 Z M 16461,9134 L 16574,9134 16574,9207 16461,9207 16461,9134 Z"/>
             <path fill="rgb(149,149,149)" stroke="none" d="M 16461,9134 L 16574,9134 16574,9207 16461,9207 16461,9134 Z M 16475,9143 L 16560,9143 16560,9198 16475,9198 16475,9143 Z"/>
             <path fill="rgb(150,150,150)" stroke="none" d="M 16475,9143 L 16560,9143 16560,9198 16475,9198 16475,9143 Z M 16489,9152 L 16546,9152 16546,9189 16489,9189 16489,9152 Z"/>
             <path fill="rgb(151,151,151)" stroke="none" d="M 16489,9152 L 16546,9152 16546,9189 16489,9189 16489,9152 Z M 16504,9162 L 16531,9162 16531,9179 16504,9179 16504,9162 Z"/>
             <path fill="rgb(153,153,153)" stroke="none" d="M 16504,9162 L 16531,9162 16531,9179 16504,9179 16504,9162 Z"/>
            </g>
           </pattern>
          </defs>
          <path style="fill:url(#pattern1)" d="M 15646,10495 L 15646,10285 18556,8605 18556,8815 15646,10495 Z"/>
         </g>
         <path fill="none" stroke="rgb(178,178,178)" stroke-width="40" stroke-linejoin="round" d="M 15646,10495 L 15646,10285 18556,8605 18556,8815 15646,10495 Z"/>
        </g>
       </g>
       <g class="com.sun.star.drawing.PolyPolygonShape">
        <g id="id7">
         <rect class="BoundingBox" stroke="none" fill="none" x="14049" y="7675" width="4164" height="2421"/>
         <g>
          <defs>
           <linearGradient id="gradient3" x1="16130" y1="7695" x2="16130" y2="10075" gradientUnits="userSpaceOnUse">
            <stop offset="0.1" style="stop-color:rgb(147,212,240)"/>
            <stop offset="1" style="stop-color:rgb(233,246,252)"/>
           </linearGradient>
          </defs>
          <path style="fill:url(#gradient3)" d="M 15767,10075 L 14069,9095 16494,7695 18192,8675 15767,10075 Z"/>
         </g>
         <path fill="none" stroke="rgb(51,51,51)" stroke-width="40" stroke-linejoin="round" d="M 15767,10075 L 14069,9095 16494,7695 18192,8675 15767,10075 Z"/>
        </g>
       </g>
       <g class="com.sun.star.drawing.PolyPolygonShape">
        <g id="id8">
         <rect class="BoundingBox" stroke="none" fill="none" x="16596" y="4385" width="1859" height="4241"/>
         <g>
          <defs>
           <linearGradient id="gradient4" x1="16615" y1="6505" x2="18435" y2="6505" gradientUnits="userSpaceOnUse">
            <stop offset="0.1" style="stop-color:rgb(51,51,51)"/>
            <stop offset="1" style="stop-color:rgb(153,153,153)"/>
           </linearGradient>
          </defs>
          <path style="fill:url(#gradient4)" d="M 16616,7555 L 16616,4405 18434,5455 18434,8605 16616,7555 Z"/>
         </g>
         <path fill="none" stroke="rgb(178,178,178)" stroke-width="40" stroke-linejoin="round" d="M 16616,7555 L 16616,4405 18434,5455 18434,8605 16616,7555 Z"/>
        </g>
       </g>
       <g class="com.sun.star.drawing.PolyPolygonShape">
        <g id="id9">
         <rect class="BoundingBox" stroke="none" fill="none" x="16717" y="4665" width="1617" height="3681"/>
         <path fill="rgb(238,238,238)" stroke="none" d="M 16737,7415 L 16737,4685 18313,5595 18313,8325 16737,7415 Z"/>
         <path fill="none" stroke="rgb(51,51,51)" stroke-width="40" stroke-linejoin="round" d="M 16737,7415 L 16737,4685 18313,5595 18313,8325 16737,7415 Z"/>
        </g>
       </g>
       <g class="com.sun.star.drawing.ClosedBezierShape">
        <g id="id10">
         <rect class="BoundingBox" stroke="none" fill="none" x="15019" y="7885" width="3194" height="1931"/>
         <path fill="rgb(255,255,255)" stroke="none" d="M 16252,9795 C 15807,9538 15161,9165 15039,8745 15282,8815 15511,8683 15646,8605 16158,8310 16350,8206 16858,7905 17303,8162 17747,8418 18192,8675 17545,9048 16899,9422 16252,9795 Z"/>
         <path fill="none" stroke="rgb(51,51,51)" stroke-width="40" stroke-linejoin="round" d="M 16252,9795 C 15807,9538 15161,9165 15039,8745 15282,8815 15511,8683 15646,8605 16158,8310 16350,8206 16858,7905 17303,8162 17747,8418 18192,8675 17545,9048 16899,9422 16252,9795 Z"/>
        </g>
       </g>
       <g class="com.sun.star.drawing.PolyPolygonShape">
        <g id="id11">
         <rect class="BoundingBox" stroke="none" fill="none" x="13686" y="4385" width="4891" height="6131"/>
         <path fill="none" stroke="rgb(0,0,0)" stroke-width="40" stroke-linejoin="round" d="M 18434,8535 L 18556,8605 18556,8815 15646,10495 13706,9375 13706,9165 16616,7485 16616,4405 18434,5455 18434,8535 Z"/>
        </g>
       </g>
      </g>
     </g>
    </g>
   </g>
  </g>
 </g>
</svg>