<?xml version="1.0" encoding="UTF-8"?>
<!DOCTYPE svg PUBLIC "-//W3C//DTD SVG 1.1//EN" "http://www.w3.org/Graphics/SVG/1.1/DTD/svg11.dtd">
<svg version="1.2" width="54.45mm" height="50.4mm" viewBox="6016 19308 5445 5040" preserveAspectRatio="xMidYMid" fill-rule="evenodd" stroke-width="28.222" stroke-linejoin="round" xmlns="http://www.w3.org/2000/svg" xmlns:ooo="http://xml.openoffice.org/svg/export" xmlns:xlink="http://www.w3.org/1999/xlink" xmlns:presentation="http://sun.com/xmlns/staroffice/presentation" xmlns:smil="http://www.w3.org/2001/SMIL20/" xmlns:anim="urn:oasis:names:tc:opendocument:xmlns:animation:1.0" xml:space="preserve">
 <defs class="ClipPathGroup">
  <clipPath id="presentation_clip_path" clipPathUnits="userSpaceOnUse">
   <rect x="6016" y="19308" width="5445" height="5040"/>
  </clipPath>
 </defs>
 <defs class="TextShapeIndex">
  <g ooo:slide="id1" ooo:id-list="id3 id4 id5 id6 id7 id8 id9 id10 id11 id12 id13 id14 id15 id16 id17 id18 id19 id20 id21 id22 id23 id24 id25 id26 id27 id28 id29 id30 id31 id32 id33 id34 id35 id36 id37 id38"/>
 </defs>
 <defs class="EmbeddedBulletChars">
  <g id="bullet-char-template(57356)" transform="scale(0.00048828125,-0.00048828125)">
   <path d="M 580,1141 L 1163,571 580,0 -4,571 580,1141 Z"/>
  </g>
  <g id="bullet-char-template(57354)" transform="scale(0.00048828125,-0.00048828125)">
   <path d="M 8,1128 L 1137,1128 1137,0 8,0 8,1128 Z"/>
  </g>
  <g id="bullet-char-template(10146)" transform="scale(0.00048828125,-0.00048828125)">
   <path d="M 174,0 L 602,739 174,1481 1456,739 174,0 Z M 1358,739 L 309,1346 659,739 1358,739 Z"/>
  </g>
  <g id="bullet-char-template(10132)" transform="scale(0.00048828125,-0.00048828125)">
   <path d="M 2015,739 L 1276,0 717,0 1260,543 174,543 174,936 1260,936 717,1481 1274,1481 2015,739 Z"/>
  </g>
  <g id="bullet-char-template(10007)" transform="scale(0.00048828125,-0.00048828125)">
   <path d="M 0,-2 C -7,14 -16,27 -25,37 L 356,567 C 262,823 215,952 215,954 215,979 228,992 255,992 264,992 276,990 289,987 310,991 331,999 354,1012 L 381,999 492,748 772,1049 836,1024 860,1049 C 881,1039 901,1025 922,1006 886,937 835,863 770,784 769,783 710,716 594,584 L 774,223 C 774,196 753,168 711,139 L 727,119 C 717,90 699,76 672,76 641,76 570,178 457,381 L 164,-76 C 142,-110 111,-127 72,-127 30,-127 9,-110 8,-76 1,-67 -2,-52 -2,-32 -2,-23 -1,-13 0,-2 Z"/>
  </g>
  <g id="bullet-char-template(10004)" transform="scale(0.00048828125,-0.00048828125)">
   <path d="M 285,-33 C 182,-33 111,30 74,156 52,228 41,333 41,471 41,549 55,616 82,672 116,743 169,778 240,778 293,778 328,747 346,684 L 369,508 C 377,444 397,411 428,410 L 1163,1116 C 1174,1127 1196,1133 1229,1133 1271,1133 1292,1118 1292,1087 L 1292,965 C 1292,929 1282,901 1262,881 L 442,47 C 390,-6 338,-33 285,-33 Z"/>
  </g>
  <g id="bullet-char-template(9679)" transform="scale(0.00048828125,-0.00048828125)">
   <path d="M 813,0 C 632,0 489,54 383,161 276,268 223,411 223,592 223,773 276,916 383,1023 489,1130 632,1184 813,1184 992,1184 1136,1130 1245,1023 1353,916 1407,772 1407,592 1407,412 1353,268 1245,161 1136,54 992,0 813,0 Z"/>
  </g>
  <g id="bullet-char-template(8226)" transform="scale(0.00048828125,-0.00048828125)">
   <path d="M 346,457 C 273,457 209,483 155,535 101,586 74,649 74,723 74,796 101,859 155,911 209,963 273,989 346,989 419,989 480,963 531,910 582,859 608,796 608,723 608,648 583,586 532,535 482,483 420,457 346,457 Z"/>
  </g>
  <g id="bullet-char-template(8211)" transform="scale(0.00048828125,-0.00048828125)">
   <path d="M -4,459 L 1135,459 1135,606 -4,606 -4,459 Z"/>
  </g>
 </defs>
 <defs class="TextEmbeddedBitmaps"/>
 <g class="SlideGroup">
  <g>
   <g id="id1" class="Slide" clip-path="url(#presentation_clip_path)">
    <g class="Page">
     <g class="Group">
      <g class="com.sun.star.drawing.ClosedBezierShape">
       <g id="id3">
        <rect class="BoundingBox" stroke="none" fill="none" x="9411" y="22823" width="2051" height="1286"/>
        <path fill="rgb(221,221,221)" stroke="none" d="M 9431,24088 C 9701,24088 10765,23785 11250,23458 11735,23131 11173,22843 10903,22843 10903,23013 9431,24018 9431,24088 Z"/>
        <path fill="none" stroke="rgb(221,221,221)" stroke-width="40" stroke-linejoin="round" d="M 9431,24088 C 9701,24088 10765,23785 11250,23458 11735,23131 11173,22843 10903,22843 10903,23013 9431,24018 9431,24088 Z"/>
       </g>
      </g>
      <g class="Group">
       <g class="com.sun.star.drawing.PolyPolygonShape">
        <g id="id4">
         <rect class="BoundingBox" stroke="none" fill="none" x="6508" y="20274" width="2791" height="1632"/>
         <g>
          <defs>
           <linearGradient id="gradient1" x1="7903" y1="20294" x2="7903" y2="21885" gradientUnits="userSpaceOnUse">
            <stop offset="0.1" style="stop-color:rgb(179,179,179)"/>
            <stop offset="1" style="stop-color:rgb(229,229,229)"/>
           </linearGradient>
          </defs>
          <path style="fill:url(#gradient1)" d="M 7314,21885 L 9278,20749 8492,20294 6528,21430 7314,21885 Z"/>
         </g>
         <path fill="none" stroke="rgb(255,255,255)" stroke-width="40" stroke-linejoin="round" d="M 7314,21885 L 9278,20749 8492,20294 6528,21430 7314,21885 Z"/>
        </g>
       </g>
       <g class="com.sun.star.drawing.PolyPolygonShape">
        <g id="id5">
         <rect class="BoundingBox" stroke="none" fill="none" x="9552" y="20841" width="1514" height="1463"/>
         <g>
          <defs>
           <linearGradient id="gradient2" x1="9572" y1="21572" x2="11045" y2="21572" gradientUnits="userSpaceOnUse">
            <stop offset="0.1" style="stop-color:rgb(179,179,179)"/>
            <stop offset="1" style="stop-color:rgb(229,229,229)"/>
           </linearGradient>
          </defs>
          <path style="fill:url(#gradient2)" d="M 11045,22283 L 11045,21941 10063,21146 9572,20862 9572,21089 11045,22283 Z"/>
         </g>
         <path fill="none" stroke="rgb(255,255,255)" stroke-width="40" stroke-linejoin="round" d="M 11045,22283 L 11045,21941 10063,21146 9572,20862 9572,21089 11045,22283 Z"/>
        </g>
       </g>
       <g class="com.sun.star.drawing.PolyPolygonShape">
        <g id="id6">
         <rect class="BoundingBox" stroke="none" fill="none" x="6508" y="21410" width="2496" height="2940"/>
         <g>
          <defs>
           <linearGradient id="gradient3" x1="6527" y1="22879" x2="8983" y2="22879" gradientUnits="userSpaceOnUse">
            <stop offset="0.1" style="stop-color:rgb(179,179,179)"/>
            <stop offset="1" style="stop-color:rgb(229,229,229)"/>
           </linearGradient>
          </defs>
          <path style="fill:url(#gradient3)" d="M 8983,24328 L 8983,23248 7314,21885 6528,21430 6528,22907 8983,24328 Z"/>
         </g>
         <path fill="none" stroke="rgb(255,255,255)" stroke-width="40" stroke-linejoin="round" d="M 8983,24328 L 8983,23248 7314,21885 6528,21430 6528,22907 8983,24328 Z"/>
        </g>
       </g>
       <g class="com.sun.star.drawing.PolyPolygonShape">
        <g id="id7">
         <rect class="BoundingBox" stroke="none" fill="none" x="8962" y="22091" width="2006" height="2257"/>
         <g>
          <defs>
           <pattern id="pattern1" x="8983" y="22111" width="1965" height="2217" patternUnits="userSpaceOnUse">
            <g transform="translate(-8983,-22111)">
             <path fill="rgb(179,179,179)" stroke="none" d="M 8982,22110 L 10948,22110 10948,24328 8982,24328 8982,22110 Z M 8609,21689 L 10535,21689 10535,23861 8609,23861 8609,21689 Z"/>
             <path fill="rgb(180,180,180)" stroke="none" d="M 8609,21689 L 10535,21689 10535,23861 8609,23861 8609,21689 Z M 8629,21711 L 10515,21711 10515,23839 8629,23839 8629,21711 Z"/>
             <path fill="rgb(181,181,181)" stroke="none" d="M 8629,21711 L 10515,21711 10515,23839 8629,23839 8629,21711 Z M 8649,21733 L 10495,21733 10495,23817 8649,23817 8649,21733 Z"/>
             <path fill="rgb(182,182,182)" stroke="none" d="M 8649,21733 L 10495,21733 10495,23817 8649,23817 8649,21733 Z M 8668,21755 L 10476,21755 10476,23795 8668,23795 8668,21755 Z"/>
             <path fill="rgb(183,183,183)" stroke="none" d="M 8668,21755 L 10476,21755 10476,23795 8668,23795 8668,21755 Z M 8688,21777 L 10456,21777 10456,23773 8688,23773 8688,21777 Z"/>
             <path fill="rgb(184,184,184)" stroke="none" d="M 8688,21777 L 10456,21777 10456,23773 8688,23773 8688,21777 Z M 8708,21800 L 10436,21800 10436,23750 8708,23750 8708,21800 Z"/>
             <path fill="rgb(185,185,185)" stroke="none" d="M 8708,21800 L 10436,21800 10436,23750 8708,23750 8708,21800 Z M 8727,21822 L 10417,21822 10417,23728 8727,23728 8727,21822 Z"/>
             <path fill="rgb(186,186,186)" stroke="none" d="M 8727,21822 L 10417,21822 10417,23728 8727,23728 8727,21822 Z M 8747,21844 L 10397,21844 10397,23706 8747,23706 8747,21844 Z"/>
             <path fill="rgb(187,187,187)" stroke="none" d="M 8747,21844 L 10397,21844 10397,23706 8747,23706 8747,21844 Z M 8767,21866 L 10377,21866 10377,23684 8767,23684 8767,21866 Z"/>
             <path fill="rgb(188,188,188)" stroke="none" d="M 8767,21866 L 10377,21866 10377,23684 8767,23684 8767,21866 Z M 8786,21888 L 10358,21888 10358,23662 8786,23662 8786,21888 Z"/>
             <path fill="rgb(189,189,189)" stroke="none" d="M 8786,21888 L 10358,21888 10358,23662 8786,23662 8786,21888 Z M 8806,21911 L 10338,21911 10338,23639 8806,23639 8806,21911 Z"/>
             <path fill="rgb(190,190,190)" stroke="none" d="M 8806,21911 L 10338,21911 10338,23639 8806,23639 8806,21911 Z M 8826,21933 L 10318,21933 10318,23617 8826,23617 8826,21933 Z"/>
             <path fill="rgb(191,191,191)" stroke="none" d="M 8826,21933 L 10318,21933 10318,23617 8826,23617 8826,21933 Z M 8845,21955 L 10299,21955 10299,23595 8845,23595 8845,21955 Z"/>
             <path fill="rgb(192,192,192)" stroke="none" d="M 8845,21955 L 10299,21955 10299,23595 8845,23595 8845,21955 Z M 8865,21977 L 10279,21977 10279,23573 8865,23573 8865,21977 Z"/>
             <path fill="rgb(193,193,193)" stroke="none" d="M 8865,21977 L 10279,21977 10279,23573 8865,23573 8865,21977 Z M 8885,21999 L 10259,21999 10259,23551 8885,23551 8885,21999 Z"/>
             <path fill="rgb(194,194,194)" stroke="none" d="M 8885,21999 L 10259,21999 10259,23551 8885,23551 8885,21999 Z M 8904,22022 L 10240,22022 10240,23528 8904,23528 8904,22022 Z"/>
             <path fill="rgb(195,195,195)" stroke="none" d="M 8904,22022 L 10240,22022 10240,23528 8904,23528 8904,22022 Z M 8924,22044 L 10220,22044 10220,23506 8924,23506 8924,22044 Z"/>
             <path fill="rgb(196,196,196)" stroke="none" d="M 8924,22044 L 10220,22044 10220,23506 8924,23506 8924,22044 Z M 8944,22066 L 10200,22066 10200,23484 8944,23484 8944,22066 Z"/>
             <path fill="rgb(197,197,197)" stroke="none" d="M 8944,22066 L 10200,22066 10200,23484 8944,23484 8944,22066 Z M 8962,22088 L 10181,22088 10181,23462 8962,23462 8962,22088 Z"/>
             <path fill="rgb(198,198,198)" stroke="none" d="M 8962,22088 L 10181,22088 10181,23462 8962,23462 8962,22088 Z M 8982,22109 L 10161,22109 10161,23440 8982,23440 8982,22109 Z"/>
             <path fill="rgb(199,199,199)" stroke="none" d="M 8982,22109 L 10161,22109 10161,23440 8982,23440 8982,22109 Z M 9002,22131 L 10141,22131 10141,23418 9002,23418 9002,22131 Z"/>
             <path fill="rgb(200,200,200)" stroke="none" d="M 9002,22131 L 10141,22131 10141,23418 9002,23418 9002,22131 Z M 9021,22154 L 10122,22154 10122,23395 9021,23395 9021,22154 Z"/>
             <path fill="rgb(201,201,201)" stroke="none" d="M 9021,22154 L 10122,22154 10122,23395 9021,23395 9021,22154 Z M 9041,22176 L 10102,22176 10102,23373 9041,23373 9041,22176 Z"/>
             <path fill="rgb(202,202,202)" stroke="none" d="M 9041,22176 L 10102,22176 10102,23373 9041,23373 9041,22176 Z M 9061,22198 L 10082,22198 10082,23351 9061,23351 9061,22198 Z"/>
             <path fill="rgb(203,203,203)" stroke="none" d="M 9061,22198 L 10082,22198 10082,23351 9061,23351 9061,22198 Z M 9080,22220 L 10063,22220 10063,23329 9080,23329 9080,22220 Z"/>
             <path fill="rgb(204,204,204)" stroke="none" d="M 9080,22220 L 10063,22220 10063,23329 9080,23329 9080,22220 Z M 9100,22242 L 10043,22242 10043,23307 9100,23307 9100,22242 Z"/>
             <path fill="rgb(205,205,205)" stroke="none" d="M 9100,22242 L 10043,22242 10043,23307 9100,23307 9100,22242 Z M 9120,22265 L 10023,22265 10023,23284 9120,23284 9120,22265 Z"/>
             <path fill="rgb(206,206,206)" stroke="none" d="M 9120,22265 L 10023,22265 10023,23284 9120,23284 9120,22265 Z M 9139,22287 L 10004,22287 10004,23262 9139,23262 9139,22287 Z"/>
             <path fill="rgb(207,207,207)" stroke="none" d="M 9139,22287 L 10004,22287 10004,23262 9139,23262 9139,22287 Z M 9159,22309 L 9984,22309 9984,23240 9159,23240 9159,22309 Z"/>
             <path fill="rgb(208,208,208)" stroke="none" d="M 9159,22309 L 9984,22309 9984,23240 9159,23240 9159,22309 Z M 9179,22331 L 9964,22331 9964,23218 9179,23218 9179,22331 Z"/>
             <path fill="rgb(209,209,209)" stroke="none" d="M 9179,22331 L 9964,22331 9964,23218 9179,23218 9179,22331 Z M 9198,22353 L 9945,22353 9945,23196 9198,23196 9198,22353 Z"/>
             <path fill="rgb(210,210,210)" stroke="none" d="M 9198,22353 L 9945,22353 9945,23196 9198,23196 9198,22353 Z M 9218,22376 L 9925,22376 9925,23173 9218,23173 9218,22376 Z"/>
             <path fill="rgb(211,211,211)" stroke="none" d="M 9218,22376 L 9925,22376 9925,23173 9218,23173 9218,22376 Z M 9238,22398 L 9905,22398 9905,23151 9238,23151 9238,22398 Z"/>
             <path fill="rgb(212,212,212)" stroke="none" d="M 9238,22398 L 9905,22398 9905,23151 9238,23151 9238,22398 Z M 9257,22420 L 9886,22420 9886,23129 9257,23129 9257,22420 Z"/>
             <path fill="rgb(213,213,213)" stroke="none" d="M 9257,22420 L 9886,22420 9886,23129 9257,23129 9257,22420 Z M 9277,22442 L 9866,22442 9866,23107 9277,23107 9277,22442 Z"/>
             <path fill="rgb(214,214,214)" stroke="none" d="M 9277,22442 L 9866,22442 9866,23107 9277,23107 9277,22442 Z M 9297,22464 L 9846,22464 9846,23085 9297,23085 9297,22464 Z"/>
             <path fill="rgb(215,215,215)" stroke="none" d="M 9297,22464 L 9846,22464 9846,23085 9297,23085 9297,22464 Z M 9316,22487 L 9827,22487 9827,23062 9316,23062 9316,22487 Z"/>
             <path fill="rgb(216,216,216)" stroke="none" d="M 9316,22487 L 9827,22487 9827,23062 9316,23062 9316,22487 Z M 9336,22509 L 9807,22509 9807,23040 9336,23040 9336,22509 Z"/>
             <path fill="rgb(217,217,217)" stroke="none" d="M 9336,22509 L 9807,22509 9807,23040 9336,23040 9336,22509 Z M 9356,22531 L 9787,22531 9787,23018 9356,23018 9356,22531 Z"/>
             <path fill="rgb(218,218,218)" stroke="none" d="M 9356,22531 L 9787,22531 9787,23018 9356,23018 9356,22531 Z M 9375,22553 L 9768,22553 9768,22996 9375,22996 9375,22553 Z"/>
             <path fill="rgb(219,219,219)" stroke="none" d="M 9375,22553 L 9768,22553 9768,22996 9375,22996 9375,22553 Z M 9395,22575 L 9748,22575 9748,22974 9395,22974 9395,22575 Z"/>
             <path fill="rgb(220,220,220)" stroke="none" d="M 9395,22575 L 9748,22575 9748,22974 9395,22974 9395,22575 Z M 9415,22597 L 9728,22597 9728,22952 9415,22952 9415,22597 Z"/>
             <path fill="rgb(221,221,221)" stroke="none" d="M 9415,22597 L 9728,22597 9728,22952 9415,22952 9415,22597 Z M 9434,22620 L 9709,22620 9709,22929 9434,22929 9434,22620 Z"/>
             <path fill="rgb(222,222,222)" stroke="none" d="M 9434,22620 L 9709,22620 9709,22929 9434,22929 9434,22620 Z M 9454,22642 L 9689,22642 9689,22907 9454,22907 9454,22642 Z"/>
             <path fill="rgb(223,223,223)" stroke="none" d="M 9454,22642 L 9689,22642 9689,22907 9454,22907 9454,22642 Z M 9474,22664 L 9669,22664 9669,22885 9474,22885 9474,22664 Z"/>
             <path fill="rgb(224,224,224)" stroke="none" d="M 9474,22664 L 9669,22664 9669,22885 9474,22885 9474,22664 Z M 9493,22686 L 9650,22686 9650,22863 9493,22863 9493,22686 Z"/>
             <path fill="rgb(225,225,225)" stroke="none" d="M 9493,22686 L 9650,22686 9650,22863 9493,22863 9493,22686 Z M 9513,22708 L 9630,22708 9630,22841 9513,22841 9513,22708 Z"/>
             <path fill="rgb(226,226,226)" stroke="none" d="M 9513,22708 L 9630,22708 9630,22841 9513,22841 9513,22708 Z M 9533,22731 L 9610,22731 9610,22818 9533,22818 9533,22731 Z"/>
             <path fill="rgb(227,227,227)" stroke="none" d="M 9533,22731 L 9610,22731 9610,22818 9533,22818 9533,22731 Z M 9552,22753 L 9591,22753 9591,22796 9552,22796 9552,22753 Z"/>
             <path fill="rgb(229,229,229)" stroke="none" d="M 9552,22753 L 9591,22753 9591,22796 9552,22796 9552,22753 Z"/>
            </g>
           </pattern>
          </defs>
          <path style="fill:url(#pattern1)" d="M 10947,23190 L 10947,22111 8983,23247 8983,24327 10947,23190 Z"/>
         </g>
         <path fill="none" stroke="rgb(255,255,255)" stroke-width="40" stroke-linejoin="round" d="M 10947,23190 L 10947,22111 8983,23247 8983,24327 10947,23190 Z"/>
        </g>
       </g>
       <g class="com.sun.star.drawing.PolyPolygonShape">
        <g id="id8">
         <rect class="BoundingBox" stroke="none" fill="none" x="7292" y="20729" width="3676" height="2541"/>
         <g>
          <defs>
           <linearGradient id="gradient4" x1="10947" y1="21999" x2="7313" y2="21999" gradientUnits="userSpaceOnUse">
            <stop offset="0.1" style="stop-color:rgb(179,179,179)"/>
            <stop offset="1" style="stop-color:rgb(229,229,229)"/>
           </linearGradient>
          </defs>
          <path style="fill:url(#gradient4)" d="M 8983,23249 L 10947,22113 9278,20749 7313,21885 8983,23249 Z"/>
         </g>
         <path fill="none" stroke="rgb(255,255,255)" stroke-width="40" stroke-linejoin="round" d="M 8983,23249 L 10947,22113 9278,20749 7313,21885 8983,23249 Z"/>
        </g>
       </g>
       <g class="com.sun.star.drawing.PolyPolygonShape">
        <g id="id9">
         <rect class="BoundingBox" stroke="none" fill="none" x="9648" y="22206" width="238" height="211"/>
         <path fill="rgb(255,255,255)" stroke="none" d="M 9865,22339 L 9767,22226 9669,22283 9767,22396 9865,22339 Z"/>
         <path fill="none" stroke="rgb(128,128,128)" stroke-width="40" stroke-linejoin="round" d="M 9865,22339 L 9767,22226 9669,22283 9767,22396 9865,22339 Z"/>
        </g>
       </g>
       <g class="com.sun.star.drawing.PolyPolygonShape">
        <g id="id10">
         <rect class="BoundingBox" stroke="none" fill="none" x="8080" y="21296" width="1219" height="781"/>
         <g>
          <defs>
           <linearGradient id="gradient5" x1="8100" y1="21685" x2="9279" y2="21685" gradientUnits="userSpaceOnUse">
            <stop offset="0.1" style="stop-color:rgb(147,212,240)"/>
            <stop offset="1" style="stop-color:rgb(233,246,252)"/>
           </linearGradient>
          </defs>
          <path style="fill:url(#gradient5)" d="M 9278,21486 L 9082,21316 8100,21884 8296,22055 9278,21486 Z"/>
         </g>
         <path fill="none" stroke="rgb(128,128,128)" stroke-width="40" stroke-linejoin="round" d="M 9278,21486 L 9082,21316 8100,21884 8296,22055 9278,21486 Z"/>
        </g>
       </g>
       <g class="com.sun.star.drawing.PolyPolygonShape">
        <g id="id11">
         <rect class="BoundingBox" stroke="none" fill="none" x="9452" y="22034" width="237" height="212"/>
         <path fill="rgb(255,255,255)" stroke="none" d="M 9668,22168 L 9570,22055 9472,22112 9570,22225 9668,22168 Z"/>
         <path fill="none" stroke="rgb(128,128,128)" stroke-width="40" stroke-linejoin="round" d="M 9668,22168 L 9570,22055 9472,22112 9570,22225 9668,22168 Z"/>
        </g>
       </g>
       <g class="com.sun.star.drawing.PolyPolygonShape">
        <g id="id12">
         <rect class="BoundingBox" stroke="none" fill="none" x="9256" y="21864" width="237" height="211"/>
         <path fill="rgb(255,255,255)" stroke="none" d="M 9472,21997 L 9374,21884 9276,21941 9374,22054 9472,21997 Z"/>
         <path fill="none" stroke="rgb(128,128,128)" stroke-width="40" stroke-linejoin="round" d="M 9472,21997 L 9374,21884 9276,21941 9374,22054 9472,21997 Z"/>
        </g>
       </g>
       <g class="com.sun.star.drawing.PolyPolygonShape">
        <g id="id13">
         <rect class="BoundingBox" stroke="none" fill="none" x="9060" y="21694" width="237" height="211"/>
         <path fill="rgb(255,255,255)" stroke="none" d="M 9276,21827 L 9178,21714 9080,21771 9178,21884 9276,21827 Z"/>
         <path fill="none" stroke="rgb(128,128,128)" stroke-width="40" stroke-linejoin="round" d="M 9276,21827 L 9178,21714 9080,21771 9178,21884 9276,21827 Z"/>
        </g>
       </g>
       <g class="com.sun.star.drawing.PolyPolygonShape">
        <g id="id14">
         <rect class="BoundingBox" stroke="none" fill="none" x="9452" y="22319" width="237" height="211"/>
         <path fill="rgb(255,255,255)" stroke="none" d="M 9668,22452 L 9570,22339 9472,22396 9570,22509 9668,22452 Z"/>
         <path fill="none" stroke="rgb(128,128,128)" stroke-width="40" stroke-linejoin="round" d="M 9668,22452 L 9570,22339 9472,22396 9570,22509 9668,22452 Z"/>
        </g>
       </g>
       <g class="com.sun.star.drawing.PolyPolygonShape">
        <g id="id15">
         <rect class="BoundingBox" stroke="none" fill="none" x="9256" y="22148" width="238" height="211"/>
         <path fill="rgb(255,255,255)" stroke="none" d="M 9473,22281 L 9375,22168 9277,22225 9375,22338 9473,22281 Z"/>
         <path fill="none" stroke="rgb(128,128,128)" stroke-width="40" stroke-linejoin="round" d="M 9473,22281 L 9375,22168 9277,22225 9375,22338 9473,22281 Z"/>
        </g>
       </g>
       <g class="com.sun.star.drawing.PolyPolygonShape">
        <g id="id16">
         <rect class="BoundingBox" stroke="none" fill="none" x="9060" y="21978" width="237" height="211"/>
         <path fill="rgb(255,255,255)" stroke="none" d="M 9276,22111 L 9178,21998 9080,22055 9178,22168 9276,22111 Z"/>
         <path fill="none" stroke="rgb(128,128,128)" stroke-width="40" stroke-linejoin="round" d="M 9276,22111 L 9178,21998 9080,22055 9178,22168 9276,22111 Z"/>
        </g>
       </g>
       <g class="com.sun.star.drawing.PolyPolygonShape">
        <g id="id17">
         <rect class="BoundingBox" stroke="none" fill="none" x="8864" y="21808" width="238" height="211"/>
         <path fill="rgb(255,255,255)" stroke="none" d="M 9081,21941 L 8983,21828 8885,21885 8983,21998 9081,21941 Z"/>
         <path fill="none" stroke="rgb(128,128,128)" stroke-width="40" stroke-linejoin="round" d="M 9081,21941 L 8983,21828 8885,21885 8983,21998 9081,21941 Z"/>
        </g>
       </g>
       <g class="com.sun.star.drawing.PolyPolygonShape">
        <g id="id18">
         <rect class="BoundingBox" stroke="none" fill="none" x="9256" y="22433" width="238" height="211"/>
         <path fill="rgb(57,181,74)" stroke="none" d="M 9473,22566 L 9375,22453 9277,22510 9375,22623 9473,22566 Z"/>
         <path fill="none" stroke="rgb(128,128,128)" stroke-width="40" stroke-linejoin="round" d="M 9473,22566 L 9375,22453 9277,22510 9375,22623 9473,22566 Z"/>
        </g>
       </g>
       <g class="com.sun.star.drawing.PolyPolygonShape">
        <g id="id19">
         <rect class="BoundingBox" stroke="none" fill="none" x="9060" y="22263" width="237" height="211"/>
         <path fill="rgb(222,142,150)" stroke="none" d="M 9276,22396 L 9178,22283 9080,22340 9178,22453 9276,22396 Z"/>
         <path fill="none" stroke="rgb(128,128,128)" stroke-width="40" stroke-linejoin="round" d="M 9276,22396 L 9178,22283 9080,22340 9178,22453 9276,22396 Z"/>
        </g>
       </g>
       <g class="com.sun.star.drawing.PolyPolygonShape">
        <g id="id20">
         <rect class="BoundingBox" stroke="none" fill="none" x="8864" y="22091" width="237" height="211"/>
         <path fill="rgb(0,0,0)" stroke="none" d="M 9080,22224 L 8982,22111 8884,22168 8982,22281 9080,22224 Z"/>
         <path fill="none" stroke="rgb(128,128,128)" stroke-width="40" stroke-linejoin="round" d="M 9080,22224 L 8982,22111 8884,22168 8982,22281 9080,22224 Z"/>
        </g>
       </g>
       <g class="com.sun.star.drawing.PolyPolygonShape">
        <g id="id21">
         <rect class="BoundingBox" stroke="none" fill="none" x="8668" y="21921" width="237" height="211"/>
         <path fill="rgb(255,255,255)" stroke="none" d="M 8884,22054 L 8786,21941 8688,21998 8786,22111 8884,22054 Z"/>
         <path fill="none" stroke="rgb(128,128,128)" stroke-width="40" stroke-linejoin="round" d="M 8884,22054 L 8786,21941 8688,21998 8786,22111 8884,22054 Z"/>
        </g>
       </g>
       <g class="com.sun.star.drawing.LineShape">
        <g id="id22">
         <rect class="BoundingBox" stroke="none" fill="none" x="10731" y="22717" width="41" height="154"/>
         <path fill="none" stroke="rgb(255,255,255)" stroke-width="40" stroke-linejoin="round" d="M 10751,22850 L 10751,22737"/>
        </g>
       </g>
       <g class="com.sun.star.drawing.LineShape">
        <g id="id23">
         <rect class="BoundingBox" stroke="none" fill="none" x="9160" y="22830" width="1612" height="950"/>
         <path fill="none" stroke="rgb(255,255,255)" stroke-width="40" stroke-linejoin="round" d="M 10751,22850 L 9180,23759"/>
        </g>
       </g>
       <g class="com.sun.star.drawing.LineShape">
        <g id="id24">
         <rect class="BoundingBox" stroke="none" fill="none" x="9160" y="22717" width="1612" height="950"/>
         <path fill="none" stroke="rgb(102,102,102)" stroke-width="40" stroke-linejoin="round" d="M 10751,22737 L 9180,23646"/>
        </g>
       </g>
       <g class="com.sun.star.drawing.LineShape">
        <g id="id25">
         <rect class="BoundingBox" stroke="none" fill="none" x="9159" y="23626" width="41" height="154"/>
         <path fill="none" stroke="rgb(102,102,102)" stroke-width="40" stroke-linejoin="round" d="M 9179,23759 L 9179,23646"/>
        </g>
       </g>
       <g class="com.sun.star.drawing.PolyPolygonShape">
        <g id="id26">
         <rect class="BoundingBox" stroke="none" fill="none" x="11025" y="21694" width="434" height="610"/>
         <g>
          <defs>
           <pattern id="pattern2" x="11045" y="21714" width="394" height="569" patternUnits="userSpaceOnUse">
            <g transform="translate(-11045,-21714)">
             <path fill="rgb(179,179,179)" stroke="none" d="M 11044,21713 L 11439,21713 11439,22283 11044,22283 11044,21713 Z M 10968,21605 L 11355,21605 11355,22163 10968,22163 10968,21605 Z"/>
             <path fill="rgb(180,180,180)" stroke="none" d="M 10968,21605 L 11355,21605 11355,22163 10968,22163 10968,21605 Z M 10972,21611 L 11351,21611 11351,22157 10972,22157 10972,21611 Z"/>
             <path fill="rgb(181,181,181)" stroke="none" d="M 10972,21611 L 11351,21611 11351,22157 10972,22157 10972,21611 Z M 10976,21617 L 11347,21617 11347,22151 10976,22151 10976,21617 Z"/>
             <path fill="rgb(182,182,182)" stroke="none" d="M 10976,21617 L 11347,21617 11347,22151 10976,22151 10976,21617 Z M 10980,21622 L 11343,21622 11343,22146 10980,22146 10980,21622 Z"/>
             <path fill="rgb(183,183,183)" stroke="none" d="M 10980,21622 L 11343,21622 11343,22146 10980,22146 10980,21622 Z M 10984,21628 L 11339,21628 11339,22140 10984,22140 10984,21628 Z"/>
             <path fill="rgb(184,184,184)" stroke="none" d="M 10984,21628 L 11339,21628 11339,22140 10984,22140 10984,21628 Z M 10988,21634 L 11335,21634 11335,22134 10988,22134 10988,21634 Z"/>
             <path fill="rgb(185,185,185)" stroke="none" d="M 10988,21634 L 11335,21634 11335,22134 10988,22134 10988,21634 Z M 10992,21639 L 11331,21639 11331,22129 10992,22129 10992,21639 Z"/>
             <path fill="rgb(186,186,186)" stroke="none" d="M 10992,21639 L 11331,21639 11331,22129 10992,22129 10992,21639 Z M 10996,21645 L 11327,21645 11327,22123 10996,22123 10996,21645 Z"/>
             <path fill="rgb(187,187,187)" stroke="none" d="M 10996,21645 L 11327,21645 11327,22123 10996,22123 10996,21645 Z M 11000,21651 L 11323,21651 11323,22117 11000,22117 11000,21651 Z"/>
             <path fill="rgb(188,188,188)" stroke="none" d="M 11000,21651 L 11323,21651 11323,22117 11000,22117 11000,21651 Z M 11004,21657 L 11319,21657 11319,22111 11004,22111 11004,21657 Z"/>
             <path fill="rgb(189,189,189)" stroke="none" d="M 11004,21657 L 11319,21657 11319,22111 11004,22111 11004,21657 Z M 11008,21662 L 11315,21662 11315,22106 11008,22106 11008,21662 Z"/>
             <path fill="rgb(190,190,190)" stroke="none" d="M 11008,21662 L 11315,21662 11315,22106 11008,22106 11008,21662 Z M 11012,21668 L 11311,21668 11311,22100 11012,22100 11012,21668 Z"/>
             <path fill="rgb(191,191,191)" stroke="none" d="M 11012,21668 L 11311,21668 11311,22100 11012,22100 11012,21668 Z M 11016,21674 L 11307,21674 11307,22094 11016,22094 11016,21674 Z"/>
             <path fill="rgb(192,192,192)" stroke="none" d="M 11016,21674 L 11307,21674 11307,22094 11016,22094 11016,21674 Z M 11020,21679 L 11303,21679 11303,22089 11020,22089 11020,21679 Z"/>
             <path fill="rgb(193,193,193)" stroke="none" d="M 11020,21679 L 11303,21679 11303,22089 11020,22089 11020,21679 Z M 11024,21685 L 11299,21685 11299,22083 11024,22083 11024,21685 Z"/>
             <path fill="rgb(194,194,194)" stroke="none" d="M 11024,21685 L 11299,21685 11299,22083 11024,22083 11024,21685 Z M 11027,21691 L 11295,21691 11295,22077 11027,22077 11027,21691 Z"/>
             <path fill="rgb(195,195,195)" stroke="none" d="M 11027,21691 L 11295,21691 11295,22077 11027,22077 11027,21691 Z M 11031,21696 L 11291,21696 11291,22071 11031,22071 11031,21696 Z"/>
             <path fill="rgb(196,196,196)" stroke="none" d="M 11031,21696 L 11291,21696 11291,22071 11031,22071 11031,21696 Z M 11035,21701 L 11287,21701 11287,22066 11035,22066 11035,21701 Z"/>
             <path fill="rgb(197,197,197)" stroke="none" d="M 11035,21701 L 11287,21701 11287,22066 11035,22066 11035,21701 Z M 11039,21707 L 11283,21707 11283,22060 11039,22060 11039,21707 Z"/>
             <path fill="rgb(198,198,198)" stroke="none" d="M 11039,21707 L 11283,21707 11283,22060 11039,22060 11039,21707 Z M 11043,21713 L 11279,21713 11279,22054 11043,22054 11043,21713 Z"/>
             <path fill="rgb(199,199,199)" stroke="none" d="M 11043,21713 L 11279,21713 11279,22054 11043,22054 11043,21713 Z M 11047,21718 L 11275,21718 11275,22049 11047,22049 11047,21718 Z"/>
             <path fill="rgb(200,200,200)" stroke="none" d="M 11047,21718 L 11275,21718 11275,22049 11047,22049 11047,21718 Z M 11051,21724 L 11271,21724 11271,22043 11051,22043 11051,21724 Z"/>
             <path fill="rgb(201,201,201)" stroke="none" d="M 11051,21724 L 11271,21724 11271,22043 11051,22043 11051,21724 Z M 11055,21730 L 11267,21730 11267,22037 11055,22037 11055,21730 Z"/>
             <path fill="rgb(202,202,202)" stroke="none" d="M 11055,21730 L 11267,21730 11267,22037 11055,22037 11055,21730 Z M 11059,21736 L 11263,21736 11263,22031 11059,22031 11059,21736 Z"/>
             <path fill="rgb(203,203,203)" stroke="none" d="M 11059,21736 L 11263,21736 11263,22031 11059,22031 11059,21736 Z M 11063,21741 L 11260,21741 11260,22026 11063,22026 11063,21741 Z"/>
             <path fill="rgb(204,204,204)" stroke="none" d="M 11063,21741 L 11260,21741 11260,22026 11063,22026 11063,21741 Z M 11066,21747 L 11256,21747 11256,22020 11066,22020 11066,21747 Z"/>
             <path fill="rgb(205,205,205)" stroke="none" d="M 11066,21747 L 11256,21747 11256,22020 11066,22020 11066,21747 Z M 11070,21753 L 11252,21753 11252,22014 11070,22014 11070,21753 Z"/>
             <path fill="rgb(206,206,206)" stroke="none" d="M 11070,21753 L 11252,21753 11252,22014 11070,22014 11070,21753 Z M 11074,21758 L 11248,21758 11248,22009 11074,22009 11074,21758 Z"/>
             <path fill="rgb(207,207,207)" stroke="none" d="M 11074,21758 L 11248,21758 11248,22009 11074,22009 11074,21758 Z M 11078,21764 L 11244,21764 11244,22003 11078,22003 11078,21764 Z"/>
             <path fill="rgb(208,208,208)" stroke="none" d="M 11078,21764 L 11244,21764 11244,22003 11078,22003 11078,21764 Z M 11082,21770 L 11240,21770 11240,21997 11082,21997 11082,21770 Z"/>
             <path fill="rgb(209,209,209)" stroke="none" d="M 11082,21770 L 11240,21770 11240,21997 11082,21997 11082,21770 Z M 11086,21776 L 11236,21776 11236,21991 11086,21991 11086,21776 Z"/>
             <path fill="rgb(210,210,210)" stroke="none" d="M 11086,21776 L 11236,21776 11236,21991 11086,21991 11086,21776 Z M 11090,21781 L 11232,21781 11232,21986 11090,21986 11090,21781 Z"/>
             <path fill="rgb(211,211,211)" stroke="none" d="M 11090,21781 L 11232,21781 11232,21986 11090,21986 11090,21781 Z M 11094,21787 L 11228,21787 11228,21980 11094,21980 11094,21787 Z"/>
             <path fill="rgb(212,212,212)" stroke="none" d="M 11094,21787 L 11228,21787 11228,21980 11094,21980 11094,21787 Z M 11098,21793 L 11224,21793 11224,21974 11098,21974 11098,21793 Z"/>
             <path fill="rgb(213,213,213)" stroke="none" d="M 11098,21793 L 11224,21793 11224,21974 11098,21974 11098,21793 Z M 11102,21798 L 11220,21798 11220,21969 11102,21969 11102,21798 Z"/>
             <path fill="rgb(214,214,214)" stroke="none" d="M 11102,21798 L 11220,21798 11220,21969 11102,21969 11102,21798 Z M 11106,21804 L 11216,21804 11216,21963 11106,21963 11106,21804 Z"/>
             <path fill="rgb(215,215,215)" stroke="none" d="M 11106,21804 L 11216,21804 11216,21963 11106,21963 11106,21804 Z M 11110,21810 L 11212,21810 11212,21957 11110,21957 11110,21810 Z"/>
             <path fill="rgb(216,216,216)" stroke="none" d="M 11110,21810 L 11212,21810 11212,21957 11110,21957 11110,21810 Z M 11114,21815 L 11208,21815 11208,21952 11114,21952 11114,21815 Z"/>
             <path fill="rgb(217,217,217)" stroke="none" d="M 11114,21815 L 11208,21815 11208,21952 11114,21952 11114,21815 Z M 11118,21821 L 11204,21821 11204,21946 11118,21946 11118,21821 Z"/>
             <path fill="rgb(218,218,218)" stroke="none" d="M 11118,21821 L 11204,21821 11204,21946 11118,21946 11118,21821 Z M 11122,21827 L 11200,21827 11200,21940 11122,21940 11122,21827 Z"/>
             <path fill="rgb(219,219,219)" stroke="none" d="M 11122,21827 L 11200,21827 11200,21940 11122,21940 11122,21827 Z M 11126,21833 L 11196,21833 11196,21934 11126,21934 11126,21833 Z"/>
             <path fill="rgb(220,220,220)" stroke="none" d="M 11126,21833 L 11196,21833 11196,21934 11126,21934 11126,21833 Z M 11130,21838 L 11192,21838 11192,21929 11130,21929 11130,21838 Z"/>
             <path fill="rgb(221,221,221)" stroke="none" d="M 11130,21838 L 11192,21838 11192,21929 11130,21929 11130,21838 Z M 11134,21844 L 11188,21844 11188,21923 11134,21923 11134,21844 Z"/>
             <path fill="rgb(222,222,222)" stroke="none" d="M 11134,21844 L 11188,21844 11188,21923 11134,21923 11134,21844 Z M 11138,21850 L 11184,21850 11184,21917 11138,21917 11138,21850 Z"/>
             <path fill="rgb(223,223,223)" stroke="none" d="M 11138,21850 L 11184,21850 11184,21917 11138,21917 11138,21850 Z M 11142,21855 L 11180,21855 11180,21912 11142,21912 11142,21855 Z"/>
             <path fill="rgb(224,224,224)" stroke="none" d="M 11142,21855 L 11180,21855 11180,21912 11142,21912 11142,21855 Z M 11146,21861 L 11176,21861 11176,21906 11146,21906 11146,21861 Z"/>
             <path fill="rgb(225,225,225)" stroke="none" d="M 11146,21861 L 11176,21861 11176,21906 11146,21906 11146,21861 Z M 11150,21867 L 11172,21867 11172,21900 11150,21900 11150,21867 Z"/>
             <path fill="rgb(226,226,226)" stroke="none" d="M 11150,21867 L 11172,21867 11172,21900 11150,21900 11150,21867 Z M 11154,21873 L 11168,21873 11168,21894 11154,21894 11154,21873 Z"/>
             <path fill="rgb(227,227,227)" stroke="none" d="M 11154,21873 L 11168,21873 11168,21894 11154,21894 11154,21873 Z M 11158,21878 L 11164,21878 11164,21889 11158,21889 11158,21878 Z"/>
             <path fill="rgb(229,229,229)" stroke="none" d="M 11158,21878 L 11164,21878 11164,21889 11158,21889 11158,21878 Z"/>
            </g>
           </pattern>
          </defs>
          <path style="fill:url(#pattern2)" d="M 11438,22054 L 11438,21714 11045,21941 11045,22282 11438,22054 Z"/>
         </g>
         <path fill="none" stroke="rgb(255,255,255)" stroke-width="40" stroke-linejoin="round" d="M 11438,22054 L 11438,21714 11045,21941 11045,22282 11438,22054 Z"/>
        </g>
       </g>
       <g class="com.sun.star.drawing.PolyPolygonShape">
        <g id="id27">
         <rect class="BoundingBox" stroke="none" fill="none" x="10042" y="20898" width="1417" height="1064"/>
         <g>
          <defs>
           <linearGradient id="gradient6" x1="11438" y1="21430" x2="10062" y2="21430" gradientUnits="userSpaceOnUse">
            <stop offset="0.1" style="stop-color:rgb(179,179,179)"/>
            <stop offset="1" style="stop-color:rgb(229,229,229)"/>
           </linearGradient>
          </defs>
          <path style="fill:url(#gradient6)" d="M 11045,21941 L 11438,21714 10456,20919 10063,21146 11045,21941 Z"/>
         </g>
         <path fill="none" stroke="rgb(255,255,255)" stroke-width="40" stroke-linejoin="round" d="M 11045,21941 L 11438,21714 10456,20919 10063,21146 11045,21941 Z"/>
        </g>
       </g>
       <g class="com.sun.star.drawing.PolyPolygonShape">
        <g id="id28">
         <rect class="BoundingBox" stroke="none" fill="none" x="9552" y="20615" width="925" height="553"/>
         <g>
          <defs>
           <linearGradient id="gradient7" x1="10014" y1="20635" x2="10014" y2="21147" gradientUnits="userSpaceOnUse">
            <stop offset="0.1" style="stop-color:rgb(179,179,179)"/>
            <stop offset="1" style="stop-color:rgb(229,229,229)"/>
           </linearGradient>
          </defs>
          <path style="fill:url(#gradient7)" d="M 10063,21147 L 10456,20919 9965,20635 9572,20862 10063,21147 Z"/>
         </g>
         <path fill="none" stroke="rgb(255,255,255)" stroke-width="40" stroke-linejoin="round" d="M 10063,21147 L 10456,20919 9965,20635 9572,20862 10063,21147 Z"/>
        </g>
       </g>
       <g class="com.sun.star.drawing.LineShape">
        <g id="id29">
         <rect class="BoundingBox" stroke="none" fill="none" x="8570" y="20558" width="139" height="98"/>
         <path fill="none" stroke="rgb(255,255,255)" stroke-width="40" stroke-linejoin="round" d="M 8688,20635 L 8590,20578"/>
        </g>
       </g>
       <g class="com.sun.star.drawing.LineShape">
        <g id="id30">
         <rect class="BoundingBox" stroke="none" fill="none" x="7097" y="20615" width="1612" height="950"/>
         <path fill="none" stroke="rgb(102,102,102)" stroke-width="40" stroke-linejoin="round" d="M 8688,20635 L 7117,21544"/>
        </g>
       </g>
       <g class="com.sun.star.drawing.LineShape">
        <g id="id31">
         <rect class="BoundingBox" stroke="none" fill="none" x="6999" y="20558" width="1612" height="950"/>
         <path fill="none" stroke="rgb(255,255,255)" stroke-width="40" stroke-linejoin="round" d="M 8590,20578 L 7019,21487"/>
        </g>
       </g>
       <g class="com.sun.star.drawing.LineShape">
        <g id="id32">
         <rect class="BoundingBox" stroke="none" fill="none" x="6998" y="21467" width="139" height="98"/>
         <path fill="none" stroke="rgb(102,102,102)" stroke-width="40" stroke-linejoin="round" d="M 7116,21544 L 7018,21487"/>
        </g>
       </g>
       <g class="com.sun.star.drawing.PolyPolygonShape">
        <g id="id33">
         <rect class="BoundingBox" stroke="none" fill="none" x="6507" y="20273" width="4952" height="4076"/>
         <path fill="none" stroke="rgb(0,0,0)" stroke-width="40" stroke-linejoin="round" d="M 11438,22055 L 11438,21715 10456,20919 9965,20634 9572,20862 9572,20976 9278,20749 8491,20294 6527,21430 6527,22907 8983,24328 10947,23192 10947,22339 11438,22055 Z"/>
        </g>
       </g>
       <g class="com.sun.star.drawing.PolyPolygonShape">
        <g id="id34">
         <rect class="BoundingBox" stroke="none" fill="none" x="9845" y="22091" width="238" height="211"/>
         <path fill="rgb(255,255,255)" stroke="none" d="M 10062,22224 L 9964,22111 9866,22168 9964,22281 10062,22224 Z"/>
         <path fill="none" stroke="rgb(128,128,128)" stroke-width="40" stroke-linejoin="round" d="M 10062,22224 L 9964,22111 9866,22168 9964,22281 10062,22224 Z"/>
        </g>
       </g>
       <g class="com.sun.star.drawing.PolyPolygonShape">
        <g id="id35">
         <rect class="BoundingBox" stroke="none" fill="none" x="9649" y="21921" width="238" height="211"/>
         <path fill="rgb(255,255,255)" stroke="none" d="M 9866,22054 L 9768,21941 9670,21998 9768,22111 9866,22054 Z"/>
         <path fill="none" stroke="rgb(128,128,128)" stroke-width="40" stroke-linejoin="round" d="M 9866,22054 L 9768,21941 9670,21998 9768,22111 9866,22054 Z"/>
        </g>
       </g>
       <g class="com.sun.star.drawing.PolyPolygonShape">
        <g id="id36">
         <rect class="BoundingBox" stroke="none" fill="none" x="9452" y="21751" width="238" height="211"/>
         <path fill="rgb(255,255,255)" stroke="none" d="M 9669,21884 L 9571,21771 9473,21828 9571,21941 9669,21884 Z"/>
         <path fill="none" stroke="rgb(128,128,128)" stroke-width="40" stroke-linejoin="round" d="M 9669,21884 L 9571,21771 9473,21828 9571,21941 9669,21884 Z"/>
        </g>
       </g>
       <g class="com.sun.star.drawing.PolyPolygonShape">
        <g id="id37">
         <rect class="BoundingBox" stroke="none" fill="none" x="9256" y="21581" width="238" height="211"/>
         <path fill="rgb(255,255,255)" stroke="none" d="M 9473,21714 L 9375,21601 9277,21658 9375,21771 9473,21714 Z"/>
         <path fill="none" stroke="rgb(128,128,128)" stroke-width="40" stroke-linejoin="round" d="M 9473,21714 L 9375,21601 9277,21658 9375,21771 9473,21714 Z"/>
        </g>
       </g>
       <g class="com.sun.star.drawing.ClosedBezierShape">
        <g id="id38">
         <rect class="BoundingBox" stroke="none" fill="none" x="6016" y="19308" width="2496" height="2143"/>
         <path fill="rgb(255,255,255)" stroke="none" d="M 7214,21430 C 7607,21203 8098,20919 8491,20692 8196,20407 8065,19328 7411,19328 7018,19555 6527,19840 6036,20123 6690,20123 6920,20919 7214,21430 Z"/>
         <path fill="none" stroke="rgb(0,0,0)" stroke-width="40" stroke-linejoin="round" d="M 7214,21430 C 7607,21203 8098,20919 8491,20692 8196,20407 8065,19328 7411,19328 7018,19555 6527,19840 6036,20123 6690,20123 6920,20919 7214,21430 Z"/>
        </g>
       </g>
      </g>
     </g>
    </g>
   </g>
  </g>
 </g>
</svg>