<?xml version="1.0" encoding="UTF-8"?>
<!DOCTYPE svg PUBLIC "-//W3C//DTD SVG 1.1//EN" "http://www.w3.org/Graphics/SVG/1.1/DTD/svg11.dtd">
<svg version="1.2" width="60.95mm" height="45.4mm" viewBox="504 12491 6095 4540" preserveAspectRatio="xMidYMid" fill-rule="evenodd" stroke-width="28.222" stroke-linejoin="round" xmlns="http://www.w3.org/2000/svg" xmlns:ooo="http://xml.openoffice.org/svg/export" xmlns:xlink="http://www.w3.org/1999/xlink" xmlns:presentation="http://sun.com/xmlns/staroffice/presentation" xmlns:smil="http://www.w3.org/2001/SMIL20/" xmlns:anim="urn:oasis:names:tc:opendocument:xmlns:animation:1.0" xml:space="preserve">
 <defs class="ClipPathGroup">
  <clipPath id="presentation_clip_path" clipPathUnits="userSpaceOnUse">
   <rect x="504" y="12491" width="6095" height="4540"/>
  </clipPath>
 </defs>
 <defs class="TextShapeIndex">
  <g ooo:slide="id1" ooo:id-list="id3 id4 id5 id6 id7 id8 id9 id10 id11 id12 id13 id14 id15"/>
 </defs>
 <defs class="EmbeddedBulletChars">
  <g id="bullet-char-template(57356)" transform="scale(0.00048828125,-0.00048828125)">
   <path d="M 580,1141 L 1163,571 580,0 -4,571 580,1141 Z"/>
  </g>
  <g id="bullet-char-template(57354)" transform="scale(0.00048828125,-0.00048828125)">
   <path d="M 8,1128 L 1137,1128 1137,0 8,0 8,1128 Z"/>
  </g>
  <g id="bullet-char-template(10146)" transform="scale(0.00048828125,-0.00048828125)">
   <path d="M 174,0 L 602,739 174,1481 1456,739 174,0 Z M 1358,739 L 309,1346 659,739 1358,739 Z"/>
  </g>
  <g id="bullet-char-template(10132)" transform="scale(0.00048828125,-0.00048828125)">
   <path d="M 2015,739 L 1276,0 717,0 1260,543 174,543 174,936 1260,936 717,1481 1274,1481 2015,739 Z"/>
  </g>
  <g id="bullet-char-template(10007)" transform="scale(0.00048828125,-0.00048828125)">
   <path d="M 0,-2 C -7,14 -16,27 -25,37 L 356,567 C 262,823 215,952 215,954 215,979 228,992 255,992 264,992 276,990 289,987 310,991 331,999 354,1012 L 381,999 492,748 772,1049 836,1024 860,1049 C 881,1039 901,1025 922,1006 886,937 835,863 770,784 769,783 710,716 594,584 L 774,223 C 774,196 753,168 711,139 L 727,119 C 717,90 699,76 672,76 641,76 570,178 457,381 L 164,-76 C 142,-110 111,-127 72,-127 30,-127 9,-110 8,-76 1,-67 -2,-52 -2,-32 -2,-23 -1,-13 0,-2 Z"/>
  </g>
  <g id="bullet-char-template(10004)" transform="scale(0.00048828125,-0.00048828125)">
   <path d="M 285,-33 C 182,-33 111,30 74,156 52,228 41,333 41,471 41,549 55,616 82,672 116,743 169,778 240,778 293,778 328,747 346,684 L 369,508 C 377,444 397,411 428,410 L 1163,1116 C 1174,1127 1196,1133 1229,1133 1271,1133 1292,1118 1292,1087 L 1292,965 C 1292,929 1282,901 1262,881 L 442,47 C 390,-6 338,-33 285,-33 Z"/>
  </g>
  <g id="bullet-char-template(9679)" transform="scale(0.00048828125,-0.00048828125)">
   <path d="M 813,0 C 632,0 489,54 383,161 276,268 223,411 223,592 223,773 276,916 383,1023 489,1130 632,1184 813,1184 992,1184 1136,1130 1245,1023 1353,916 1407,772 1407,592 1407,412 1353,268 1245,161 1136,54 992,0 813,0 Z"/>
  </g>
  <g id="bullet-char-template(8226)" transform="scale(0.00048828125,-0.00048828125)">
   <path d="M 346,457 C 273,457 209,483 155,535 101,586 74,649 74,723 74,796 101,859 155,911 209,963 273,989 346,989 419,989 480,963 531,910 582,859 608,796 608,723 608,648 583,586 532,535 482,483 420,457 346,457 Z"/>
  </g>
  <g id="bullet-char-template(8211)" transform="scale(0.00048828125,-0.00048828125)">
   <path d="M -4,459 L 1135,459 1135,606 -4,606 -4,459 Z"/>
  </g>
 </defs>
 <defs class="TextEmbeddedBitmaps"/>
 <g class="SlideGroup">
  <g>
   <g id="id1" class="Slide" clip-path="url(#presentation_clip_path)">
    <g class="Page">
     <g class="Group">
      <g class="com.sun.star.drawing.ClosedBezierShape">
       <g id="id3">
        <rect class="BoundingBox" stroke="none" fill="none" x="3981" y="14731" width="2067" height="1241"/>
        <path fill="rgb(221,221,221)" stroke="none" d="M 4004,15951 C 4242,15951 5572,15456 5893,15208 6169,14995 5969,14751 5731,14751 5731,14901 3918,14851 4004,15951 Z"/>
        <path fill="none" stroke="rgb(221,221,221)" stroke-width="40" stroke-linejoin="round" d="M 4004,15951 C 4242,15951 5572,15456 5893,15208 6169,14995 5969,14751 5731,14751 5731,14901 3918,14851 4004,15951 Z"/>
       </g>
      </g>
      <g class="Group">
       <g class="com.sun.star.drawing.PolyPolygonShape">
        <g id="id4">
         <rect class="BoundingBox" stroke="none" fill="none" x="2234" y="13491" width="3501" height="3541"/>
         <g>
          <defs>
           <pattern id="pattern1" x="2254" y="13511" width="3461" height="3501" patternUnits="userSpaceOnUse">
            <g transform="translate(-2254,-13511)">
             <path fill="rgb(179,179,179)" stroke="none" d="M 2253,13510 L 5715,13510 5715,17012 2253,17012 2253,13510 Z M 1595,12845 L 4987,12845 4987,16275 1595,16275 1595,12845 Z"/>
             <path fill="rgb(180,180,180)" stroke="none" d="M 1595,12845 L 4987,12845 4987,16275 1595,16275 1595,12845 Z M 1630,12880 L 4952,12880 4952,16240 1630,16240 1630,12880 Z"/>
             <path fill="rgb(181,181,181)" stroke="none" d="M 1630,12880 L 4952,12880 4952,16240 1630,16240 1630,12880 Z M 1664,12915 L 4918,12915 4918,16205 1664,16205 1664,12915 Z"/>
             <path fill="rgb(182,182,182)" stroke="none" d="M 1664,12915 L 4918,12915 4918,16205 1664,16205 1664,12915 Z M 1699,12950 L 4883,12950 4883,16170 1699,16170 1699,12950 Z"/>
             <path fill="rgb(183,183,183)" stroke="none" d="M 1699,12950 L 4883,12950 4883,16170 1699,16170 1699,12950 Z M 1734,12985 L 4848,12985 4848,16135 1734,16135 1734,12985 Z"/>
             <path fill="rgb(184,184,184)" stroke="none" d="M 1734,12985 L 4848,12985 4848,16135 1734,16135 1734,12985 Z M 1768,13020 L 4814,13020 4814,16100 1768,16100 1768,13020 Z"/>
             <path fill="rgb(185,185,185)" stroke="none" d="M 1768,13020 L 4814,13020 4814,16100 1768,16100 1768,13020 Z M 1803,13055 L 4779,13055 4779,16065 1803,16065 1803,13055 Z"/>
             <path fill="rgb(186,186,186)" stroke="none" d="M 1803,13055 L 4779,13055 4779,16065 1803,16065 1803,13055 Z M 1838,13090 L 4744,13090 4744,16030 1838,16030 1838,13090 Z"/>
             <path fill="rgb(187,187,187)" stroke="none" d="M 1838,13090 L 4744,13090 4744,16030 1838,16030 1838,13090 Z M 1872,13125 L 4710,13125 4710,15995 1872,15995 1872,13125 Z"/>
             <path fill="rgb(188,188,188)" stroke="none" d="M 1872,13125 L 4710,13125 4710,15995 1872,15995 1872,13125 Z M 1907,13160 L 4675,13160 4675,15960 1907,15960 1907,13160 Z"/>
             <path fill="rgb(189,189,189)" stroke="none" d="M 1907,13160 L 4675,13160 4675,15960 1907,15960 1907,13160 Z M 1941,13195 L 4641,13195 4641,15925 1941,15925 1941,13195 Z"/>
             <path fill="rgb(190,190,190)" stroke="none" d="M 1941,13195 L 4641,13195 4641,15925 1941,15925 1941,13195 Z M 1976,13230 L 4606,13230 4606,15890 1976,15890 1976,13230 Z"/>
             <path fill="rgb(191,191,191)" stroke="none" d="M 1976,13230 L 4606,13230 4606,15890 1976,15890 1976,13230 Z M 2011,13265 L 4571,13265 4571,15855 2011,15855 2011,13265 Z"/>
             <path fill="rgb(192,192,192)" stroke="none" d="M 2011,13265 L 4571,13265 4571,15855 2011,15855 2011,13265 Z M 2045,13300 L 4537,13300 4537,15820 2045,15820 2045,13300 Z"/>
             <path fill="rgb(193,193,193)" stroke="none" d="M 2045,13300 L 4537,13300 4537,15820 2045,15820 2045,13300 Z M 2080,13335 L 4502,13335 4502,15785 2080,15785 2080,13335 Z"/>
             <path fill="rgb(194,194,194)" stroke="none" d="M 2080,13335 L 4502,13335 4502,15785 2080,15785 2080,13335 Z M 2115,13370 L 4467,13370 4467,15750 2115,15750 2115,13370 Z"/>
             <path fill="rgb(195,195,195)" stroke="none" d="M 2115,13370 L 4467,13370 4467,15750 2115,15750 2115,13370 Z M 2149,13405 L 4433,13405 4433,15715 2149,15715 2149,13405 Z"/>
             <path fill="rgb(196,196,196)" stroke="none" d="M 2149,13405 L 4433,13405 4433,15715 2149,15715 2149,13405 Z M 2184,13440 L 4398,13440 4398,15680 2184,15680 2184,13440 Z"/>
             <path fill="rgb(197,197,197)" stroke="none" d="M 2184,13440 L 4398,13440 4398,15680 2184,15680 2184,13440 Z M 2218,13475 L 4364,13475 4364,15645 2218,15645 2218,13475 Z"/>
             <path fill="rgb(198,198,198)" stroke="none" d="M 2218,13475 L 4364,13475 4364,15645 2218,15645 2218,13475 Z M 2252,13509 L 4329,13509 4329,15610 2252,15610 2252,13509 Z"/>
             <path fill="rgb(199,199,199)" stroke="none" d="M 2252,13509 L 4329,13509 4329,15610 2252,15610 2252,13509 Z M 2287,13544 L 4294,13544 4294,15575 2287,15575 2287,13544 Z"/>
             <path fill="rgb(200,200,200)" stroke="none" d="M 2287,13544 L 4294,13544 4294,15575 2287,15575 2287,13544 Z M 2321,13579 L 4260,13579 4260,15540 2321,15540 2321,13579 Z"/>
             <path fill="rgb(201,201,201)" stroke="none" d="M 2321,13579 L 4260,13579 4260,15540 2321,15540 2321,13579 Z M 2356,13614 L 4225,13614 4225,15505 2356,15505 2356,13614 Z"/>
             <path fill="rgb(202,202,202)" stroke="none" d="M 2356,13614 L 4225,13614 4225,15505 2356,15505 2356,13614 Z M 2391,13649 L 4190,13649 4190,15470 2391,15470 2391,13649 Z"/>
             <path fill="rgb(203,203,203)" stroke="none" d="M 2391,13649 L 4190,13649 4190,15470 2391,15470 2391,13649 Z M 2425,13684 L 4156,13684 4156,15435 2425,15435 2425,13684 Z"/>
             <path fill="rgb(204,204,204)" stroke="none" d="M 2425,13684 L 4156,13684 4156,15435 2425,15435 2425,13684 Z M 2460,13719 L 4121,13719 4121,15400 2460,15400 2460,13719 Z"/>
             <path fill="rgb(205,205,205)" stroke="none" d="M 2460,13719 L 4121,13719 4121,15400 2460,15400 2460,13719 Z M 2495,13754 L 4086,13754 4086,15365 2495,15365 2495,13754 Z"/>
             <path fill="rgb(206,206,206)" stroke="none" d="M 2495,13754 L 4086,13754 4086,15365 2495,15365 2495,13754 Z M 2529,13789 L 4052,13789 4052,15330 2529,15330 2529,13789 Z"/>
             <path fill="rgb(207,207,207)" stroke="none" d="M 2529,13789 L 4052,13789 4052,15330 2529,15330 2529,13789 Z M 2564,13824 L 4017,13824 4017,15295 2564,15295 2564,13824 Z"/>
             <path fill="rgb(208,208,208)" stroke="none" d="M 2564,13824 L 4017,13824 4017,15295 2564,15295 2564,13824 Z M 2598,13859 L 3983,13859 3983,15260 2598,15260 2598,13859 Z"/>
             <path fill="rgb(209,209,209)" stroke="none" d="M 2598,13859 L 3983,13859 3983,15260 2598,15260 2598,13859 Z M 2633,13894 L 3948,13894 3948,15225 2633,15225 2633,13894 Z"/>
             <path fill="rgb(210,210,210)" stroke="none" d="M 2633,13894 L 3948,13894 3948,15225 2633,15225 2633,13894 Z M 2668,13929 L 3913,13929 3913,15190 2668,15190 2668,13929 Z"/>
             <path fill="rgb(211,211,211)" stroke="none" d="M 2668,13929 L 3913,13929 3913,15190 2668,15190 2668,13929 Z M 2702,13964 L 3879,13964 3879,15155 2702,15155 2702,13964 Z"/>
             <path fill="rgb(212,212,212)" stroke="none" d="M 2702,13964 L 3879,13964 3879,15155 2702,15155 2702,13964 Z M 2737,14000 L 3844,14000 3844,15119 2737,15119 2737,14000 Z"/>
             <path fill="rgb(213,213,213)" stroke="none" d="M 2737,14000 L 3844,14000 3844,15119 2737,15119 2737,14000 Z M 2772,14035 L 3809,14035 3809,15084 2772,15084 2772,14035 Z"/>
             <path fill="rgb(214,214,214)" stroke="none" d="M 2772,14035 L 3809,14035 3809,15084 2772,15084 2772,14035 Z M 2806,14070 L 3775,14070 3775,15049 2806,15049 2806,14070 Z"/>
             <path fill="rgb(215,215,215)" stroke="none" d="M 2806,14070 L 3775,14070 3775,15049 2806,15049 2806,14070 Z M 2841,14105 L 3740,14105 3740,15014 2841,15014 2841,14105 Z"/>
             <path fill="rgb(216,216,216)" stroke="none" d="M 2841,14105 L 3740,14105 3740,15014 2841,15014 2841,14105 Z M 2875,14140 L 3706,14140 3706,14979 2875,14979 2875,14140 Z"/>
             <path fill="rgb(217,217,217)" stroke="none" d="M 2875,14140 L 3706,14140 3706,14979 2875,14979 2875,14140 Z M 2910,14175 L 3671,14175 3671,14944 2910,14944 2910,14175 Z"/>
             <path fill="rgb(218,218,218)" stroke="none" d="M 2910,14175 L 3671,14175 3671,14944 2910,14944 2910,14175 Z M 2945,14210 L 3636,14210 3636,14909 2945,14909 2945,14210 Z"/>
             <path fill="rgb(219,219,219)" stroke="none" d="M 2945,14210 L 3636,14210 3636,14909 2945,14909 2945,14210 Z M 2979,14245 L 3602,14245 3602,14874 2979,14874 2979,14245 Z"/>
             <path fill="rgb(220,220,220)" stroke="none" d="M 2979,14245 L 3602,14245 3602,14874 2979,14874 2979,14245 Z M 3014,14280 L 3567,14280 3567,14839 3014,14839 3014,14280 Z"/>
             <path fill="rgb(221,221,221)" stroke="none" d="M 3014,14280 L 3567,14280 3567,14839 3014,14839 3014,14280 Z M 3049,14315 L 3532,14315 3532,14804 3049,14804 3049,14315 Z"/>
             <path fill="rgb(222,222,222)" stroke="none" d="M 3049,14315 L 3532,14315 3532,14804 3049,14804 3049,14315 Z M 3083,14350 L 3498,14350 3498,14769 3083,14769 3083,14350 Z"/>
             <path fill="rgb(223,223,223)" stroke="none" d="M 3083,14350 L 3498,14350 3498,14769 3083,14769 3083,14350 Z M 3118,14385 L 3463,14385 3463,14734 3118,14734 3118,14385 Z"/>
             <path fill="rgb(224,224,224)" stroke="none" d="M 3118,14385 L 3463,14385 3463,14734 3118,14734 3118,14385 Z M 3152,14420 L 3429,14420 3429,14699 3152,14699 3152,14420 Z"/>
             <path fill="rgb(225,225,225)" stroke="none" d="M 3152,14420 L 3429,14420 3429,14699 3152,14699 3152,14420 Z M 3187,14455 L 3394,14455 3394,14664 3187,14664 3187,14455 Z"/>
             <path fill="rgb(226,226,226)" stroke="none" d="M 3187,14455 L 3394,14455 3394,14664 3187,14664 3187,14455 Z M 3222,14490 L 3359,14490 3359,14629 3222,14629 3222,14490 Z"/>
             <path fill="rgb(227,227,227)" stroke="none" d="M 3222,14490 L 3359,14490 3359,14629 3222,14629 3222,14490 Z M 3256,14525 L 3325,14525 3325,14594 3256,14594 3256,14525 Z"/>
             <path fill="rgb(229,229,229)" stroke="none" d="M 3256,14525 L 3325,14525 3325,14594 3256,14594 3256,14525 Z"/>
            </g>
           </pattern>
          </defs>
          <path style="fill:url(#pattern1)" d="M 5714,15011 L 5714,13511 2254,15511 2254,17011 5714,15011 Z"/>
         </g>
         <path fill="none" stroke="rgb(255,255,255)" stroke-width="40" stroke-linejoin="round" d="M 5714,15011 L 5714,13511 2254,15511 2254,17011 5714,15011 Z"/>
        </g>
       </g>
       <g class="com.sun.star.drawing.PolyPolygonShape">
        <g id="id5">
         <rect class="BoundingBox" stroke="none" fill="none" x="504" y="14491" width="1772" height="2541"/>
         <g>
          <defs>
           <linearGradient id="gradient1" x1="523" y1="15761" x2="2255" y2="15761" gradientUnits="userSpaceOnUse">
            <stop offset="0.1" style="stop-color:rgb(179,179,179)"/>
            <stop offset="1" style="stop-color:rgb(229,229,229)"/>
           </linearGradient>
          </defs>
          <path style="fill:url(#gradient1)" d="M 2254,17011 L 2254,15511 524,14511 524,16011 2254,17011 Z"/>
         </g>
         <path fill="none" stroke="rgb(255,255,255)" stroke-width="40" stroke-linejoin="round" d="M 2254,17011 L 2254,15511 524,14511 524,16011 2254,17011 Z"/>
        </g>
       </g>
       <g class="com.sun.star.drawing.PolyPolygonShape">
        <g id="id6">
         <rect class="BoundingBox" stroke="none" fill="none" x="504" y="12490" width="5231" height="3042"/>
         <g>
          <defs>
           <linearGradient id="gradient2" x1="3119" y1="12511" x2="3119" y2="15511" gradientUnits="userSpaceOnUse">
            <stop offset="0.1" style="stop-color:rgb(179,179,179)"/>
            <stop offset="1" style="stop-color:rgb(229,229,229)"/>
           </linearGradient>
          </defs>
          <path style="fill:url(#gradient2)" d="M 2254,15511 L 5714,13511 3984,12511 524,14511 2254,15511 Z"/>
         </g>
         <path fill="none" stroke="rgb(255,255,255)" stroke-width="40" stroke-linejoin="round" d="M 2254,15511 L 5714,13511 3984,12511 524,14511 2254,15511 Z"/>
        </g>
       </g>
       <g class="com.sun.star.drawing.PolyPolygonShape">
        <g id="id7">
         <rect class="BoundingBox" stroke="none" fill="none" x="5227" y="13891" width="214" height="342"/>
         <path fill="rgb(57,181,74)" stroke="none" d="M 5420,14111 L 5420,13911 5247,14011 5247,14211 5420,14111 Z"/>
         <path fill="none" stroke="rgb(0,0,0)" stroke-width="40" stroke-linejoin="round" d="M 5420,14111 L 5420,13911 5247,14011 5247,14211 5420,14111 Z"/>
        </g>
       </g>
       <g class="com.sun.star.drawing.PolyPolygonShape">
        <g id="id8">
         <rect class="BoundingBox" stroke="none" fill="none" x="3099" y="15941" width="1771" height="991"/>
         <g>
          <defs>
           <linearGradient id="gradient3" x1="3119" y1="16436" x2="4849" y2="16436" gradientUnits="userSpaceOnUse">
            <stop offset="0.1" style="stop-color:rgb(179,179,179)"/>
            <stop offset="1" style="stop-color:rgb(229,229,229)"/>
           </linearGradient>
          </defs>
          <path style="fill:url(#gradient3)" d="M 4849,16661 L 3119,15961 3119,16361 4849,16911 4849,16661 Z"/>
         </g>
         <path fill="none" stroke="rgb(255,255,255)" stroke-width="40" stroke-linejoin="round" d="M 4849,16661 L 3119,15961 3119,16361 4849,16911 4849,16661 Z"/>
        </g>
       </g>
       <g class="com.sun.star.drawing.PolyPolygonShape">
        <g id="id9">
         <rect class="BoundingBox" stroke="none" fill="none" x="3099" y="14940" width="3501" height="1742"/>
         <g>
          <defs>
           <linearGradient id="gradient4" x1="4849" y1="14961" x2="4849" y2="16661" gradientUnits="userSpaceOnUse">
            <stop offset="0.1" style="stop-color:rgb(179,179,179)"/>
            <stop offset="1" style="stop-color:rgb(229,229,229)"/>
           </linearGradient>
          </defs>
          <path style="fill:url(#gradient4)" d="M 4849,16661 L 6579,15661 4849,14961 3119,15961 4849,16661 Z"/>
         </g>
         <path fill="none" stroke="rgb(255,255,255)" stroke-width="40" stroke-linejoin="round" d="M 4849,16661 L 6579,15661 4849,14961 3119,15961 4849,16661 Z"/>
        </g>
       </g>
       <g class="com.sun.star.drawing.PolyPolygonShape">
        <g id="id10">
         <rect class="BoundingBox" stroke="none" fill="none" x="4829" y="15641" width="1771" height="1291"/>
         <g>
          <defs>
           <pattern id="pattern2" x="4849" y="15661" width="1731" height="1251" patternUnits="userSpaceOnUse">
            <g transform="translate(-4849,-15661)">
             <path fill="rgb(179,179,179)" stroke="none" d="M 4848,15660 L 6580,15660 6580,16912 4848,16912 4848,15660 Z M 4519,15422 L 6215,15422 6215,16648 4519,16648 4519,15422 Z"/>
             <path fill="rgb(180,180,180)" stroke="none" d="M 4519,15422 L 6215,15422 6215,16648 4519,16648 4519,15422 Z M 4536,15435 L 6198,15435 6198,16635 4536,16635 4536,15435 Z"/>
             <path fill="rgb(181,181,181)" stroke="none" d="M 4536,15435 L 6198,15435 6198,16635 4536,16635 4536,15435 Z M 4553,15447 L 6181,15447 6181,16623 4553,16623 4553,15447 Z"/>
             <path fill="rgb(182,182,182)" stroke="none" d="M 4553,15447 L 6181,15447 6181,16623 4553,16623 4553,15447 Z M 4571,15460 L 6163,15460 6163,16610 4571,16610 4571,15460 Z"/>
             <path fill="rgb(183,183,183)" stroke="none" d="M 4571,15460 L 6163,15460 6163,16610 4571,16610 4571,15460 Z M 4588,15472 L 6146,15472 6146,16598 4588,16598 4588,15472 Z"/>
             <path fill="rgb(184,184,184)" stroke="none" d="M 4588,15472 L 6146,15472 6146,16598 4588,16598 4588,15472 Z M 4605,15485 L 6129,15485 6129,16585 4605,16585 4605,15485 Z"/>
             <path fill="rgb(185,185,185)" stroke="none" d="M 4605,15485 L 6129,15485 6129,16585 4605,16585 4605,15485 Z M 4623,15497 L 6111,15497 6111,16573 4623,16573 4623,15497 Z"/>
             <path fill="rgb(186,186,186)" stroke="none" d="M 4623,15497 L 6111,15497 6111,16573 4623,16573 4623,15497 Z M 4640,15510 L 6094,15510 6094,16560 4640,16560 4640,15510 Z"/>
             <path fill="rgb(187,187,187)" stroke="none" d="M 4640,15510 L 6094,15510 6094,16560 4640,16560 4640,15510 Z M 4657,15522 L 6077,15522 6077,16548 4657,16548 4657,15522 Z"/>
             <path fill="rgb(188,188,188)" stroke="none" d="M 4657,15522 L 6077,15522 6077,16548 4657,16548 4657,15522 Z M 4675,15535 L 6059,15535 6059,16535 4675,16535 4675,15535 Z"/>
             <path fill="rgb(189,189,189)" stroke="none" d="M 4675,15535 L 6059,15535 6059,16535 4675,16535 4675,15535 Z M 4692,15547 L 6042,15547 6042,16523 4692,16523 4692,15547 Z"/>
             <path fill="rgb(190,190,190)" stroke="none" d="M 4692,15547 L 6042,15547 6042,16523 4692,16523 4692,15547 Z M 4709,15560 L 6025,15560 6025,16510 4709,16510 4709,15560 Z"/>
             <path fill="rgb(191,191,191)" stroke="none" d="M 4709,15560 L 6025,15560 6025,16510 4709,16510 4709,15560 Z M 4727,15572 L 6007,15572 6007,16498 4727,16498 4727,15572 Z"/>
             <path fill="rgb(192,192,192)" stroke="none" d="M 4727,15572 L 6007,15572 6007,16498 4727,16498 4727,15572 Z M 4744,15585 L 5990,15585 5990,16485 4744,16485 4744,15585 Z"/>
             <path fill="rgb(193,193,193)" stroke="none" d="M 4744,15585 L 5990,15585 5990,16485 4744,16485 4744,15585 Z M 4761,15597 L 5973,15597 5973,16473 4761,16473 4761,15597 Z"/>
             <path fill="rgb(194,194,194)" stroke="none" d="M 4761,15597 L 5973,15597 5973,16473 4761,16473 4761,15597 Z M 4779,15610 L 5955,15610 5955,16460 4779,16460 4779,15610 Z"/>
             <path fill="rgb(195,195,195)" stroke="none" d="M 4779,15610 L 5955,15610 5955,16460 4779,16460 4779,15610 Z M 4796,15623 L 5938,15623 5938,16447 4796,16447 4796,15623 Z"/>
             <path fill="rgb(196,196,196)" stroke="none" d="M 4796,15623 L 5938,15623 5938,16447 4796,16447 4796,15623 Z M 4813,15635 L 5921,15635 5921,16435 4813,16435 4813,15635 Z"/>
             <path fill="rgb(197,197,197)" stroke="none" d="M 4813,15635 L 5921,15635 5921,16435 4813,16435 4813,15635 Z M 4830,15647 L 5903,15647 5903,16422 4830,16422 4830,15647 Z"/>
             <path fill="rgb(198,198,198)" stroke="none" d="M 4830,15647 L 5903,15647 5903,16422 4830,16422 4830,15647 Z M 4847,15659 L 5886,15659 5886,16410 4847,16410 4847,15659 Z"/>
             <path fill="rgb(199,199,199)" stroke="none" d="M 4847,15659 L 5886,15659 5886,16410 4847,16410 4847,15659 Z M 4864,15672 L 5869,15672 5869,16397 4864,16397 4864,15672 Z"/>
             <path fill="rgb(200,200,200)" stroke="none" d="M 4864,15672 L 5869,15672 5869,16397 4864,16397 4864,15672 Z M 4882,15684 L 5851,15684 5851,16385 4882,16385 4882,15684 Z"/>
             <path fill="rgb(201,201,201)" stroke="none" d="M 4882,15684 L 5851,15684 5851,16385 4882,16385 4882,15684 Z M 4899,15697 L 5834,15697 5834,16372 4899,16372 4899,15697 Z"/>
             <path fill="rgb(202,202,202)" stroke="none" d="M 4899,15697 L 5834,15697 5834,16372 4899,16372 4899,15697 Z M 4916,15709 L 5817,15709 5817,16360 4916,16360 4916,15709 Z"/>
             <path fill="rgb(203,203,203)" stroke="none" d="M 4916,15709 L 5817,15709 5817,16360 4916,16360 4916,15709 Z M 4934,15722 L 5799,15722 5799,16347 4934,16347 4934,15722 Z"/>
             <path fill="rgb(204,204,204)" stroke="none" d="M 4934,15722 L 5799,15722 5799,16347 4934,16347 4934,15722 Z M 4951,15734 L 5782,15734 5782,16335 4951,16335 4951,15734 Z"/>
             <path fill="rgb(205,205,205)" stroke="none" d="M 4951,15734 L 5782,15734 5782,16335 4951,16335 4951,15734 Z M 4968,15747 L 5765,15747 5765,16322 4968,16322 4968,15747 Z"/>
             <path fill="rgb(206,206,206)" stroke="none" d="M 4968,15747 L 5765,15747 5765,16322 4968,16322 4968,15747 Z M 4986,15759 L 5747,15759 5747,16310 4986,16310 4986,15759 Z"/>
             <path fill="rgb(207,207,207)" stroke="none" d="M 4986,15759 L 5747,15759 5747,16310 4986,16310 4986,15759 Z M 5003,15772 L 5730,15772 5730,16297 5003,16297 5003,15772 Z"/>
             <path fill="rgb(208,208,208)" stroke="none" d="M 5003,15772 L 5730,15772 5730,16297 5003,16297 5003,15772 Z M 5020,15784 L 5713,15784 5713,16285 5020,16285 5020,15784 Z"/>
             <path fill="rgb(209,209,209)" stroke="none" d="M 5020,15784 L 5713,15784 5713,16285 5020,16285 5020,15784 Z M 5038,15797 L 5695,15797 5695,16272 5038,16272 5038,15797 Z"/>
             <path fill="rgb(210,210,210)" stroke="none" d="M 5038,15797 L 5695,15797 5695,16272 5038,16272 5038,15797 Z M 5055,15809 L 5678,15809 5678,16260 5055,16260 5055,15809 Z"/>
             <path fill="rgb(211,211,211)" stroke="none" d="M 5055,15809 L 5678,15809 5678,16260 5055,16260 5055,15809 Z M 5072,15822 L 5661,15822 5661,16247 5072,16247 5072,15822 Z"/>
             <path fill="rgb(212,212,212)" stroke="none" d="M 5072,15822 L 5661,15822 5661,16247 5072,16247 5072,15822 Z M 5090,15835 L 5643,15835 5643,16234 5090,16234 5090,15835 Z"/>
             <path fill="rgb(213,213,213)" stroke="none" d="M 5090,15835 L 5643,15835 5643,16234 5090,16234 5090,15835 Z M 5107,15847 L 5626,15847 5626,16222 5107,16222 5107,15847 Z"/>
             <path fill="rgb(214,214,214)" stroke="none" d="M 5107,15847 L 5626,15847 5626,16222 5107,16222 5107,15847 Z M 5124,15860 L 5609,15860 5609,16209 5124,16209 5124,15860 Z"/>
             <path fill="rgb(215,215,215)" stroke="none" d="M 5124,15860 L 5609,15860 5609,16209 5124,16209 5124,15860 Z M 5142,15872 L 5591,15872 5591,16197 5142,16197 5142,15872 Z"/>
             <path fill="rgb(216,216,216)" stroke="none" d="M 5142,15872 L 5591,15872 5591,16197 5142,16197 5142,15872 Z M 5159,15885 L 5574,15885 5574,16184 5159,16184 5159,15885 Z"/>
             <path fill="rgb(217,217,217)" stroke="none" d="M 5159,15885 L 5574,15885 5574,16184 5159,16184 5159,15885 Z M 5176,15897 L 5557,15897 5557,16172 5176,16172 5176,15897 Z"/>
             <path fill="rgb(218,218,218)" stroke="none" d="M 5176,15897 L 5557,15897 5557,16172 5176,16172 5176,15897 Z M 5194,15910 L 5539,15910 5539,16159 5194,16159 5194,15910 Z"/>
             <path fill="rgb(219,219,219)" stroke="none" d="M 5194,15910 L 5539,15910 5539,16159 5194,16159 5194,15910 Z M 5211,15922 L 5522,15922 5522,16147 5211,16147 5211,15922 Z"/>
             <path fill="rgb(220,220,220)" stroke="none" d="M 5211,15922 L 5522,15922 5522,16147 5211,16147 5211,15922 Z M 5228,15935 L 5505,15935 5505,16134 5228,16134 5228,15935 Z"/>
             <path fill="rgb(221,221,221)" stroke="none" d="M 5228,15935 L 5505,15935 5505,16134 5228,16134 5228,15935 Z M 5246,15947 L 5487,15947 5487,16122 5246,16122 5246,15947 Z"/>
             <path fill="rgb(222,222,222)" stroke="none" d="M 5246,15947 L 5487,15947 5487,16122 5246,16122 5246,15947 Z M 5263,15960 L 5470,15960 5470,16109 5263,16109 5263,15960 Z"/>
             <path fill="rgb(223,223,223)" stroke="none" d="M 5263,15960 L 5470,15960 5470,16109 5263,16109 5263,15960 Z M 5280,15972 L 5453,15972 5453,16097 5280,16097 5280,15972 Z"/>
             <path fill="rgb(224,224,224)" stroke="none" d="M 5280,15972 L 5453,15972 5453,16097 5280,16097 5280,15972 Z M 5298,15985 L 5435,15985 5435,16084 5298,16084 5298,15985 Z"/>
             <path fill="rgb(225,225,225)" stroke="none" d="M 5298,15985 L 5435,15985 5435,16084 5298,16084 5298,15985 Z M 5315,15997 L 5418,15997 5418,16072 5315,16072 5315,15997 Z"/>
             <path fill="rgb(226,226,226)" stroke="none" d="M 5315,15997 L 5418,15997 5418,16072 5315,16072 5315,15997 Z M 5332,16010 L 5401,16010 5401,16059 5332,16059 5332,16010 Z"/>
             <path fill="rgb(227,227,227)" stroke="none" d="M 5332,16010 L 5401,16010 5401,16059 5332,16059 5332,16010 Z M 5350,16022 L 5383,16022 5383,16047 5350,16047 5350,16022 Z"/>
             <path fill="rgb(229,229,229)" stroke="none" d="M 5350,16022 L 5383,16022 5383,16047 5350,16047 5350,16022 Z"/>
            </g>
           </pattern>
          </defs>
          <path style="fill:url(#pattern2)" d="M 6579,15911 L 6579,15661 4849,16661 4849,16911 6579,15911 Z"/>
         </g>
         <path fill="none" stroke="rgb(255,255,255)" stroke-width="40" stroke-linejoin="round" d="M 6579,15911 L 6579,15661 4849,16661 4849,16911 6579,15911 Z"/>
        </g>
       </g>
       <g class="com.sun.star.drawing.PolyPolygonShape">
        <g id="id11">
         <rect class="BoundingBox" stroke="none" fill="none" x="504" y="12491" width="6096" height="4541"/>
         <path fill="none" stroke="rgb(0,0,0)" stroke-width="40" stroke-linejoin="round" d="M 5714,15011 L 5714,13511 3984,12511 524,14511 524,16011 2254,17011 3292,16411 4849,16911 6579,15911 6579,15661 5368,15161 5714,15011 Z"/>
        </g>
       </g>
       <g class="com.sun.star.drawing.ClosedBezierShape">
        <g id="id12">
         <rect class="BoundingBox" stroke="none" fill="none" x="3359" y="15091" width="3155" height="1491"/>
         <path fill="rgb(255,255,255)" stroke="none" d="M 5281,16561 C 5628,16361 6147,16061 6493,15861 6060,15611 5195,15261 4589,15111 4244,15311 3811,15561 3379,15811 3898,15961 4763,16311 5281,16561 Z"/>
         <path fill="none" stroke="rgb(128,128,128)" stroke-width="40" stroke-linejoin="round" d="M 5281,16561 C 5628,16361 6147,16061 6493,15861 6060,15611 5195,15261 4589,15111 4244,15311 3811,15561 3379,15811 3898,15961 4763,16311 5281,16561 Z"/>
        </g>
       </g>
       <g class="com.sun.star.drawing.PolyLineShape">
        <g id="id13">
         <rect class="BoundingBox" stroke="none" fill="none" x="3099" y="14741" width="1771" height="1191"/>
         <path fill="none" stroke="rgb(127,127,127)" stroke-width="40" stroke-linejoin="round" d="M 4849,14961 L 4849,14761 3119,15761 3119,15911"/>
        </g>
       </g>
       <g class="com.sun.star.drawing.PolyPolygonShape">
        <g id="id14">
         <rect class="BoundingBox" stroke="none" fill="none" x="1542" y="13091" width="3328" height="1941"/>
         <g>
          <defs>
           <linearGradient id="gradient5" x1="3205" y1="13111" x2="3205" y2="15011" gradientUnits="userSpaceOnUse">
            <stop offset="0.1" style="stop-color:rgb(179,179,179)"/>
            <stop offset="1" style="stop-color:rgb(229,229,229)"/>
           </linearGradient>
          </defs>
          <path style="fill:url(#gradient5)" d="M 3119,15011 L 4849,14011 3292,13111 1562,14111 3119,15011 Z"/>
         </g>
         <path fill="none" stroke="rgb(255,255,255)" stroke-width="40" stroke-linejoin="round" d="M 3119,15011 L 4849,14011 3292,13111 1562,14111 3119,15011 Z"/>
        </g>
       </g>
       <g class="com.sun.star.drawing.PolyPolygonShape">
        <g id="id15">
         <rect class="BoundingBox" stroke="none" fill="none" x="3099" y="13990" width="1771" height="1542"/>
         <g>
          <defs>
           <pattern id="pattern3" x="3119" y="14011" width="1731" height="1501" patternUnits="userSpaceOnUse">
            <g transform="translate(-3119,-14011)">
             <path fill="rgb(179,179,179)" stroke="none" d="M 3118,14010 L 4850,14010 4850,15512 3118,15512 3118,14010 Z M 2789,13725 L 4485,13725 4485,15195 2789,15195 2789,13725 Z"/>
             <path fill="rgb(180,180,180)" stroke="none" d="M 2789,13725 L 4485,13725 4485,15195 2789,15195 2789,13725 Z M 2806,13740 L 4468,13740 4468,15180 2806,15180 2806,13740 Z"/>
             <path fill="rgb(181,181,181)" stroke="none" d="M 2806,13740 L 4468,13740 4468,15180 2806,15180 2806,13740 Z M 2823,13755 L 4451,13755 4451,15165 2823,15165 2823,13755 Z"/>
             <path fill="rgb(182,182,182)" stroke="none" d="M 2823,13755 L 4451,13755 4451,15165 2823,15165 2823,13755 Z M 2841,13770 L 4433,13770 4433,15150 2841,15150 2841,13770 Z"/>
             <path fill="rgb(183,183,183)" stroke="none" d="M 2841,13770 L 4433,13770 4433,15150 2841,15150 2841,13770 Z M 2858,13785 L 4416,13785 4416,15135 2858,15135 2858,13785 Z"/>
             <path fill="rgb(184,184,184)" stroke="none" d="M 2858,13785 L 4416,13785 4416,15135 2858,15135 2858,13785 Z M 2875,13800 L 4399,13800 4399,15120 2875,15120 2875,13800 Z"/>
             <path fill="rgb(185,185,185)" stroke="none" d="M 2875,13800 L 4399,13800 4399,15120 2875,15120 2875,13800 Z M 2893,13815 L 4381,13815 4381,15105 2893,15105 2893,13815 Z"/>
             <path fill="rgb(186,186,186)" stroke="none" d="M 2893,13815 L 4381,13815 4381,15105 2893,15105 2893,13815 Z M 2910,13830 L 4364,13830 4364,15090 2910,15090 2910,13830 Z"/>
             <path fill="rgb(187,187,187)" stroke="none" d="M 2910,13830 L 4364,13830 4364,15090 2910,15090 2910,13830 Z M 2927,13845 L 4347,13845 4347,15075 2927,15075 2927,13845 Z"/>
             <path fill="rgb(188,188,188)" stroke="none" d="M 2927,13845 L 4347,13845 4347,15075 2927,15075 2927,13845 Z M 2945,13860 L 4329,13860 4329,15060 2945,15060 2945,13860 Z"/>
             <path fill="rgb(189,189,189)" stroke="none" d="M 2945,13860 L 4329,13860 4329,15060 2945,15060 2945,13860 Z M 2962,13875 L 4312,13875 4312,15045 2962,15045 2962,13875 Z"/>
             <path fill="rgb(190,190,190)" stroke="none" d="M 2962,13875 L 4312,13875 4312,15045 2962,15045 2962,13875 Z M 2979,13890 L 4295,13890 4295,15030 2979,15030 2979,13890 Z"/>
             <path fill="rgb(191,191,191)" stroke="none" d="M 2979,13890 L 4295,13890 4295,15030 2979,15030 2979,13890 Z M 2997,13905 L 4277,13905 4277,15015 2997,15015 2997,13905 Z"/>
             <path fill="rgb(192,192,192)" stroke="none" d="M 2997,13905 L 4277,13905 4277,15015 2997,15015 2997,13905 Z M 3014,13920 L 4260,13920 4260,15000 3014,15000 3014,13920 Z"/>
             <path fill="rgb(193,193,193)" stroke="none" d="M 3014,13920 L 4260,13920 4260,15000 3014,15000 3014,13920 Z M 3031,13935 L 4243,13935 4243,14985 3031,14985 3031,13935 Z"/>
             <path fill="rgb(194,194,194)" stroke="none" d="M 3031,13935 L 4243,13935 4243,14985 3031,14985 3031,13935 Z M 3049,13950 L 4225,13950 4225,14970 3049,14970 3049,13950 Z"/>
             <path fill="rgb(195,195,195)" stroke="none" d="M 3049,13950 L 4225,13950 4225,14970 3049,14970 3049,13950 Z M 3066,13965 L 4208,13965 4208,14955 3066,14955 3066,13965 Z"/>
             <path fill="rgb(196,196,196)" stroke="none" d="M 3066,13965 L 4208,13965 4208,14955 3066,14955 3066,13965 Z M 3083,13980 L 4191,13980 4191,14940 3083,14940 3083,13980 Z"/>
             <path fill="rgb(197,197,197)" stroke="none" d="M 3083,13980 L 4191,13980 4191,14940 3083,14940 3083,13980 Z M 3100,13994 L 4173,13994 4173,14925 3100,14925 3100,13994 Z"/>
             <path fill="rgb(198,198,198)" stroke="none" d="M 3100,13994 L 4173,13994 4173,14925 3100,14925 3100,13994 Z M 3117,14009 L 4156,14009 4156,14910 3117,14910 3117,14009 Z"/>
             <path fill="rgb(199,199,199)" stroke="none" d="M 3117,14009 L 4156,14009 4156,14910 3117,14910 3117,14009 Z M 3134,14024 L 4139,14024 4139,14895 3134,14895 3134,14024 Z"/>
             <path fill="rgb(200,200,200)" stroke="none" d="M 3134,14024 L 4139,14024 4139,14895 3134,14895 3134,14024 Z M 3152,14039 L 4121,14039 4121,14880 3152,14880 3152,14039 Z"/>
             <path fill="rgb(201,201,201)" stroke="none" d="M 3152,14039 L 4121,14039 4121,14880 3152,14880 3152,14039 Z M 3169,14054 L 4104,14054 4104,14865 3169,14865 3169,14054 Z"/>
             <path fill="rgb(202,202,202)" stroke="none" d="M 3169,14054 L 4104,14054 4104,14865 3169,14865 3169,14054 Z M 3186,14069 L 4087,14069 4087,14850 3186,14850 3186,14069 Z"/>
             <path fill="rgb(203,203,203)" stroke="none" d="M 3186,14069 L 4087,14069 4087,14850 3186,14850 3186,14069 Z M 3204,14084 L 4069,14084 4069,14835 3204,14835 3204,14084 Z"/>
             <path fill="rgb(204,204,204)" stroke="none" d="M 3204,14084 L 4069,14084 4069,14835 3204,14835 3204,14084 Z M 3221,14099 L 4052,14099 4052,14820 3221,14820 3221,14099 Z"/>
             <path fill="rgb(205,205,205)" stroke="none" d="M 3221,14099 L 4052,14099 4052,14820 3221,14820 3221,14099 Z M 3238,14114 L 4035,14114 4035,14805 3238,14805 3238,14114 Z"/>
             <path fill="rgb(206,206,206)" stroke="none" d="M 3238,14114 L 4035,14114 4035,14805 3238,14805 3238,14114 Z M 3256,14129 L 4017,14129 4017,14790 3256,14790 3256,14129 Z"/>
             <path fill="rgb(207,207,207)" stroke="none" d="M 3256,14129 L 4017,14129 4017,14790 3256,14790 3256,14129 Z M 3273,14144 L 4000,14144 4000,14775 3273,14775 3273,14144 Z"/>
             <path fill="rgb(208,208,208)" stroke="none" d="M 3273,14144 L 4000,14144 4000,14775 3273,14775 3273,14144 Z M 3290,14159 L 3983,14159 3983,14760 3290,14760 3290,14159 Z"/>
             <path fill="rgb(209,209,209)" stroke="none" d="M 3290,14159 L 3983,14159 3983,14760 3290,14760 3290,14159 Z M 3308,14174 L 3965,14174 3965,14745 3308,14745 3308,14174 Z"/>
             <path fill="rgb(210,210,210)" stroke="none" d="M 3308,14174 L 3965,14174 3965,14745 3308,14745 3308,14174 Z M 3325,14189 L 3948,14189 3948,14730 3325,14730 3325,14189 Z"/>
             <path fill="rgb(211,211,211)" stroke="none" d="M 3325,14189 L 3948,14189 3948,14730 3325,14730 3325,14189 Z M 3342,14204 L 3931,14204 3931,14715 3342,14715 3342,14204 Z"/>
             <path fill="rgb(212,212,212)" stroke="none" d="M 3342,14204 L 3931,14204 3931,14715 3342,14715 3342,14204 Z M 3360,14220 L 3913,14220 3913,14699 3360,14699 3360,14220 Z"/>
             <path fill="rgb(213,213,213)" stroke="none" d="M 3360,14220 L 3913,14220 3913,14699 3360,14699 3360,14220 Z M 3377,14235 L 3896,14235 3896,14684 3377,14684 3377,14235 Z"/>
             <path fill="rgb(214,214,214)" stroke="none" d="M 3377,14235 L 3896,14235 3896,14684 3377,14684 3377,14235 Z M 3394,14250 L 3879,14250 3879,14669 3394,14669 3394,14250 Z"/>
             <path fill="rgb(215,215,215)" stroke="none" d="M 3394,14250 L 3879,14250 3879,14669 3394,14669 3394,14250 Z M 3412,14265 L 3861,14265 3861,14654 3412,14654 3412,14265 Z"/>
             <path fill="rgb(216,216,216)" stroke="none" d="M 3412,14265 L 3861,14265 3861,14654 3412,14654 3412,14265 Z M 3429,14280 L 3844,14280 3844,14639 3429,14639 3429,14280 Z"/>
             <path fill="rgb(217,217,217)" stroke="none" d="M 3429,14280 L 3844,14280 3844,14639 3429,14639 3429,14280 Z M 3446,14295 L 3827,14295 3827,14624 3446,14624 3446,14295 Z"/>
             <path fill="rgb(218,218,218)" stroke="none" d="M 3446,14295 L 3827,14295 3827,14624 3446,14624 3446,14295 Z M 3464,14310 L 3809,14310 3809,14609 3464,14609 3464,14310 Z"/>
             <path fill="rgb(219,219,219)" stroke="none" d="M 3464,14310 L 3809,14310 3809,14609 3464,14609 3464,14310 Z M 3481,14325 L 3792,14325 3792,14594 3481,14594 3481,14325 Z"/>
             <path fill="rgb(220,220,220)" stroke="none" d="M 3481,14325 L 3792,14325 3792,14594 3481,14594 3481,14325 Z M 3498,14340 L 3775,14340 3775,14579 3498,14579 3498,14340 Z"/>
             <path fill="rgb(221,221,221)" stroke="none" d="M 3498,14340 L 3775,14340 3775,14579 3498,14579 3498,14340 Z M 3516,14355 L 3757,14355 3757,14564 3516,14564 3516,14355 Z"/>
             <path fill="rgb(222,222,222)" stroke="none" d="M 3516,14355 L 3757,14355 3757,14564 3516,14564 3516,14355 Z M 3533,14370 L 3740,14370 3740,14549 3533,14549 3533,14370 Z"/>
             <path fill="rgb(223,223,223)" stroke="none" d="M 3533,14370 L 3740,14370 3740,14549 3533,14549 3533,14370 Z M 3550,14385 L 3723,14385 3723,14534 3550,14534 3550,14385 Z"/>
             <path fill="rgb(224,224,224)" stroke="none" d="M 3550,14385 L 3723,14385 3723,14534 3550,14534 3550,14385 Z M 3568,14400 L 3705,14400 3705,14519 3568,14519 3568,14400 Z"/>
             <path fill="rgb(225,225,225)" stroke="none" d="M 3568,14400 L 3705,14400 3705,14519 3568,14519 3568,14400 Z M 3585,14415 L 3688,14415 3688,14504 3585,14504 3585,14415 Z"/>
             <path fill="rgb(226,226,226)" stroke="none" d="M 3585,14415 L 3688,14415 3688,14504 3585,14504 3585,14415 Z M 3602,14430 L 3671,14430 3671,14489 3602,14489 3602,14430 Z"/>
             <path fill="rgb(227,227,227)" stroke="none" d="M 3602,14430 L 3671,14430 3671,14489 3602,14489 3602,14430 Z M 3620,14445 L 3653,14445 3653,14474 3620,14474 3620,14445 Z"/>
             <path fill="rgb(229,229,229)" stroke="none" d="M 3620,14445 L 3653,14445 3653,14474 3620,14474 3620,14445 Z"/>
            </g>
           </pattern>
          </defs>
          <path style="fill:url(#pattern3)" d="M 4849,14511 L 4849,14011 3119,15011 3119,15511 4849,14511 Z"/>
         </g>
         <path fill="none" stroke="rgb(255,255,255)" stroke-width="40" stroke-linejoin="round" d="M 4849,14511 L 4849,14011 3119,15011 3119,15511 4849,14511 Z"/>
        </g>
       </g>
      </g>
     </g>
    </g>
   </g>
  </g>
 </g>
</svg>