<?xml version="1.0" encoding="UTF-8"?>
<!DOCTYPE svg PUBLIC "-//W3C//DTD SVG 1.1//EN" "http://www.w3.org/Graphics/SVG/1.1/DTD/svg11.dtd">
<svg version="1.2" width="63.91mm" height="45.4mm" viewBox="6971 5806 6391 4540" preserveAspectRatio="xMidYMid" fill-rule="evenodd" stroke-width="28.222" stroke-linejoin="round" xmlns="http://www.w3.org/2000/svg" xmlns:ooo="http://xml.openoffice.org/svg/export" xmlns:xlink="http://www.w3.org/1999/xlink" xmlns:presentation="http://sun.com/xmlns/staroffice/presentation" xmlns:smil="http://www.w3.org/2001/SMIL20/" xmlns:anim="urn:oasis:names:tc:opendocument:xmlns:animation:1.0" xml:space="preserve">
 <defs class="ClipPathGroup">
  <clipPath id="presentation_clip_path" clipPathUnits="userSpaceOnUse">
   <rect x="6971" y="5806" width="6391" height="4540"/>
  </clipPath>
 </defs>
 <defs class="TextShapeIndex">
  <g ooo:slide="id1" ooo:id-list="id3 id4 id5 id6 id7 id8 id9 id10 id11 id12 id13 id14 id15"/>
 </defs>
 <defs class="EmbeddedBulletChars">
  <g id="bullet-char-template(57356)" transform="scale(0.00048828125,-0.00048828125)">
   <path d="M 580,1141 L 1163,571 580,0 -4,571 580,1141 Z"/>
  </g>
  <g id="bullet-char-template(57354)" transform="scale(0.00048828125,-0.00048828125)">
   <path d="M 8,1128 L 1137,1128 1137,0 8,0 8,1128 Z"/>
  </g>
  <g id="bullet-char-template(10146)" transform="scale(0.00048828125,-0.00048828125)">
   <path d="M 174,0 L 602,739 174,1481 1456,739 174,0 Z M 1358,739 L 309,1346 659,739 1358,739 Z"/>
  </g>
  <g id="bullet-char-template(10132)" transform="scale(0.00048828125,-0.00048828125)">
   <path d="M 2015,739 L 1276,0 717,0 1260,543 174,543 174,936 1260,936 717,1481 1274,1481 2015,739 Z"/>
  </g>
  <g id="bullet-char-template(10007)" transform="scale(0.00048828125,-0.00048828125)">
   <path d="M 0,-2 C -7,14 -16,27 -25,37 L 356,567 C 262,823 215,952 215,954 215,979 228,992 255,992 264,992 276,990 289,987 310,991 331,999 354,1012 L 381,999 492,748 772,1049 836,1024 860,1049 C 881,1039 901,1025 922,1006 886,937 835,863 770,784 769,783 710,716 594,584 L 774,223 C 774,196 753,168 711,139 L 727,119 C 717,90 699,76 672,76 641,76 570,178 457,381 L 164,-76 C 142,-110 111,-127 72,-127 30,-127 9,-110 8,-76 1,-67 -2,-52 -2,-32 -2,-23 -1,-13 0,-2 Z"/>
  </g>
  <g id="bullet-char-template(10004)" transform="scale(0.00048828125,-0.00048828125)">
   <path d="M 285,-33 C 182,-33 111,30 74,156 52,228 41,333 41,471 41,549 55,616 82,672 116,743 169,778 240,778 293,778 328,747 346,684 L 369,508 C 377,444 397,411 428,410 L 1163,1116 C 1174,1127 1196,1133 1229,1133 1271,1133 1292,1118 1292,1087 L 1292,965 C 1292,929 1282,901 1262,881 L 442,47 C 390,-6 338,-33 285,-33 Z"/>
  </g>
  <g id="bullet-char-template(9679)" transform="scale(0.00048828125,-0.00048828125)">
   <path d="M 813,0 C 632,0 489,54 383,161 276,268 223,411 223,592 223,773 276,916 383,1023 489,1130 632,1184 813,1184 992,1184 1136,1130 1245,1023 1353,916 1407,772 1407,592 1407,412 1353,268 1245,161 1136,54 992,0 813,0 Z"/>
  </g>
  <g id="bullet-char-template(8226)" transform="scale(0.00048828125,-0.00048828125)">
   <path d="M 346,457 C 273,457 209,483 155,535 101,586 74,649 74,723 74,796 101,859 155,911 209,963 273,989 346,989 419,989 480,963 531,910 582,859 608,796 608,723 608,648 583,586 532,535 482,483 420,457 346,457 Z"/>
  </g>
  <g id="bullet-char-template(8211)" transform="scale(0.00048828125,-0.00048828125)">
   <path d="M -4,459 L 1135,459 1135,606 -4,606 -4,459 Z"/>
  </g>
 </defs>
 <defs class="TextEmbeddedBitmaps"/>
 <g class="SlideGroup">
  <g>
   <g id="id1" class="Slide" clip-path="url(#presentation_clip_path)">
    <g class="Page">
     <g class="Group">
      <g class="com.sun.star.drawing.ClosedBezierShape">
       <g id="id3">
        <rect class="BoundingBox" stroke="none" fill="none" x="11296" y="9106" width="2067" height="1241"/>
        <path fill="rgb(221,221,221)" stroke="none" d="M 11319,10326 C 11557,10326 12887,9831 13208,9583 13484,9370 13284,9126 13046,9126 13046,9276 11233,9226 11319,10326 Z"/>
        <path fill="none" stroke="rgb(221,221,221)" stroke-width="40" stroke-linejoin="round" d="M 11319,10326 C 11557,10326 12887,9831 13208,9583 13484,9370 13284,9126 13046,9126 13046,9276 11233,9226 11319,10326 Z"/>
       </g>
      </g>
      <g class="Group">
       <g class="com.sun.star.drawing.PolyPolygonShape">
        <g id="id4">
         <rect class="BoundingBox" stroke="none" fill="none" x="7836" y="6806" width="3502" height="3542"/>
         <g>
          <defs>
           <linearGradient id="gradient1" x1="7855" y1="8576" x2="11317" y2="8576" gradientUnits="userSpaceOnUse">
            <stop offset="0.1" style="stop-color:rgb(179,179,179)"/>
            <stop offset="1" style="stop-color:rgb(229,229,229)"/>
           </linearGradient>
          </defs>
          <path style="fill:url(#gradient1)" d="M 7856,8326 L 7856,6826 11316,8826 11316,10326 7856,8326 Z"/>
         </g>
         <path fill="none" stroke="rgb(255,255,255)" stroke-width="40" stroke-linejoin="round" d="M 7856,8326 L 7856,6826 11316,8826 11316,10326 7856,8326 Z"/>
        </g>
       </g>
       <g class="com.sun.star.drawing.PolyPolygonShape">
        <g id="id5">
         <rect class="BoundingBox" stroke="none" fill="none" x="11296" y="7806" width="1772" height="2541"/>
         <g>
          <defs>
           <pattern id="pattern1" x="11316" y="7826" width="1731" height="2501" patternUnits="userSpaceOnUse">
            <g transform="translate(-11316,-7826)">
             <path fill="rgb(179,179,179)" stroke="none" d="M 11315,7825 L 13047,7825 13047,10327 11315,10327 11315,7825 Z M 10986,7350 L 12682,7350 12682,9800 10986,9800 10986,7350 Z"/>
             <path fill="rgb(180,180,180)" stroke="none" d="M 10986,7350 L 12682,7350 12682,9800 10986,9800 10986,7350 Z M 11003,7375 L 12665,7375 12665,9775 11003,9775 11003,7375 Z"/>
             <path fill="rgb(181,181,181)" stroke="none" d="M 11003,7375 L 12665,7375 12665,9775 11003,9775 11003,7375 Z M 11020,7400 L 12648,7400 12648,9750 11020,9750 11020,7400 Z"/>
             <path fill="rgb(182,182,182)" stroke="none" d="M 11020,7400 L 12648,7400 12648,9750 11020,9750 11020,7400 Z M 11038,7425 L 12630,7425 12630,9725 11038,9725 11038,7425 Z"/>
             <path fill="rgb(183,183,183)" stroke="none" d="M 11038,7425 L 12630,7425 12630,9725 11038,9725 11038,7425 Z M 11055,7450 L 12613,7450 12613,9700 11055,9700 11055,7450 Z"/>
             <path fill="rgb(184,184,184)" stroke="none" d="M 11055,7450 L 12613,7450 12613,9700 11055,9700 11055,7450 Z M 11072,7475 L 12596,7475 12596,9675 11072,9675 11072,7475 Z"/>
             <path fill="rgb(185,185,185)" stroke="none" d="M 11072,7475 L 12596,7475 12596,9675 11072,9675 11072,7475 Z M 11090,7500 L 12578,7500 12578,9650 11090,9650 11090,7500 Z"/>
             <path fill="rgb(186,186,186)" stroke="none" d="M 11090,7500 L 12578,7500 12578,9650 11090,9650 11090,7500 Z M 11107,7525 L 12561,7525 12561,9625 11107,9625 11107,7525 Z"/>
             <path fill="rgb(187,187,187)" stroke="none" d="M 11107,7525 L 12561,7525 12561,9625 11107,9625 11107,7525 Z M 11124,7550 L 12544,7550 12544,9600 11124,9600 11124,7550 Z"/>
             <path fill="rgb(188,188,188)" stroke="none" d="M 11124,7550 L 12544,7550 12544,9600 11124,9600 11124,7550 Z M 11142,7575 L 12526,7575 12526,9575 11142,9575 11142,7575 Z"/>
             <path fill="rgb(189,189,189)" stroke="none" d="M 11142,7575 L 12526,7575 12526,9575 11142,9575 11142,7575 Z M 11159,7600 L 12509,7600 12509,9550 11159,9550 11159,7600 Z"/>
             <path fill="rgb(190,190,190)" stroke="none" d="M 11159,7600 L 12509,7600 12509,9550 11159,9550 11159,7600 Z M 11176,7625 L 12492,7625 12492,9525 11176,9525 11176,7625 Z"/>
             <path fill="rgb(191,191,191)" stroke="none" d="M 11176,7625 L 12492,7625 12492,9525 11176,9525 11176,7625 Z M 11194,7650 L 12474,7650 12474,9500 11194,9500 11194,7650 Z"/>
             <path fill="rgb(192,192,192)" stroke="none" d="M 11194,7650 L 12474,7650 12474,9500 11194,9500 11194,7650 Z M 11211,7675 L 12457,7675 12457,9475 11211,9475 11211,7675 Z"/>
             <path fill="rgb(193,193,193)" stroke="none" d="M 11211,7675 L 12457,7675 12457,9475 11211,9475 11211,7675 Z M 11228,7700 L 12440,7700 12440,9450 11228,9450 11228,7700 Z"/>
             <path fill="rgb(194,194,194)" stroke="none" d="M 11228,7700 L 12440,7700 12440,9450 11228,9450 11228,7700 Z M 11246,7725 L 12422,7725 12422,9425 11246,9425 11246,7725 Z"/>
             <path fill="rgb(195,195,195)" stroke="none" d="M 11246,7725 L 12422,7725 12422,9425 11246,9425 11246,7725 Z M 11263,7750 L 12405,7750 12405,9400 11263,9400 11263,7750 Z"/>
             <path fill="rgb(196,196,196)" stroke="none" d="M 11263,7750 L 12405,7750 12405,9400 11263,9400 11263,7750 Z M 11280,7775 L 12388,7775 12388,9375 11280,9375 11280,7775 Z"/>
             <path fill="rgb(197,197,197)" stroke="none" d="M 11280,7775 L 12388,7775 12388,9375 11280,9375 11280,7775 Z M 11297,7800 L 12370,7800 12370,9350 11297,9350 11297,7800 Z"/>
             <path fill="rgb(198,198,198)" stroke="none" d="M 11297,7800 L 12370,7800 12370,9350 11297,9350 11297,7800 Z M 11314,7824 L 12353,7824 12353,9325 11314,9325 11314,7824 Z"/>
             <path fill="rgb(199,199,199)" stroke="none" d="M 11314,7824 L 12353,7824 12353,9325 11314,9325 11314,7824 Z M 11331,7849 L 12336,7849 12336,9300 11331,9300 11331,7849 Z"/>
             <path fill="rgb(200,200,200)" stroke="none" d="M 11331,7849 L 12336,7849 12336,9300 11331,9300 11331,7849 Z M 11349,7874 L 12318,7874 12318,9275 11349,9275 11349,7874 Z"/>
             <path fill="rgb(201,201,201)" stroke="none" d="M 11349,7874 L 12318,7874 12318,9275 11349,9275 11349,7874 Z M 11366,7899 L 12301,7899 12301,9250 11366,9250 11366,7899 Z"/>
             <path fill="rgb(202,202,202)" stroke="none" d="M 11366,7899 L 12301,7899 12301,9250 11366,9250 11366,7899 Z M 11383,7924 L 12284,7924 12284,9225 11383,9225 11383,7924 Z"/>
             <path fill="rgb(203,203,203)" stroke="none" d="M 11383,7924 L 12284,7924 12284,9225 11383,9225 11383,7924 Z M 11401,7949 L 12266,7949 12266,9200 11401,9200 11401,7949 Z"/>
             <path fill="rgb(204,204,204)" stroke="none" d="M 11401,7949 L 12266,7949 12266,9200 11401,9200 11401,7949 Z M 11418,7974 L 12249,7974 12249,9175 11418,9175 11418,7974 Z"/>
             <path fill="rgb(205,205,205)" stroke="none" d="M 11418,7974 L 12249,7974 12249,9175 11418,9175 11418,7974 Z M 11435,7999 L 12232,7999 12232,9150 11435,9150 11435,7999 Z"/>
             <path fill="rgb(206,206,206)" stroke="none" d="M 11435,7999 L 12232,7999 12232,9150 11435,9150 11435,7999 Z M 11453,8024 L 12214,8024 12214,9125 11453,9125 11453,8024 Z"/>
             <path fill="rgb(207,207,207)" stroke="none" d="M 11453,8024 L 12214,8024 12214,9125 11453,9125 11453,8024 Z M 11470,8049 L 12197,8049 12197,9100 11470,9100 11470,8049 Z"/>
             <path fill="rgb(208,208,208)" stroke="none" d="M 11470,8049 L 12197,8049 12197,9100 11470,9100 11470,8049 Z M 11487,8074 L 12180,8074 12180,9075 11487,9075 11487,8074 Z"/>
             <path fill="rgb(209,209,209)" stroke="none" d="M 11487,8074 L 12180,8074 12180,9075 11487,9075 11487,8074 Z M 11505,8099 L 12162,8099 12162,9050 11505,9050 11505,8099 Z"/>
             <path fill="rgb(210,210,210)" stroke="none" d="M 11505,8099 L 12162,8099 12162,9050 11505,9050 11505,8099 Z M 11522,8124 L 12145,8124 12145,9025 11522,9025 11522,8124 Z"/>
             <path fill="rgb(211,211,211)" stroke="none" d="M 11522,8124 L 12145,8124 12145,9025 11522,9025 11522,8124 Z M 11539,8149 L 12128,8149 12128,9000 11539,9000 11539,8149 Z"/>
             <path fill="rgb(212,212,212)" stroke="none" d="M 11539,8149 L 12128,8149 12128,9000 11539,9000 11539,8149 Z M 11557,8175 L 12110,8175 12110,8974 11557,8974 11557,8175 Z"/>
             <path fill="rgb(213,213,213)" stroke="none" d="M 11557,8175 L 12110,8175 12110,8974 11557,8974 11557,8175 Z M 11574,8200 L 12093,8200 12093,8949 11574,8949 11574,8200 Z"/>
             <path fill="rgb(214,214,214)" stroke="none" d="M 11574,8200 L 12093,8200 12093,8949 11574,8949 11574,8200 Z M 11591,8225 L 12076,8225 12076,8924 11591,8924 11591,8225 Z"/>
             <path fill="rgb(215,215,215)" stroke="none" d="M 11591,8225 L 12076,8225 12076,8924 11591,8924 11591,8225 Z M 11609,8250 L 12058,8250 12058,8899 11609,8899 11609,8250 Z"/>
             <path fill="rgb(216,216,216)" stroke="none" d="M 11609,8250 L 12058,8250 12058,8899 11609,8899 11609,8250 Z M 11626,8275 L 12041,8275 12041,8874 11626,8874 11626,8275 Z"/>
             <path fill="rgb(217,217,217)" stroke="none" d="M 11626,8275 L 12041,8275 12041,8874 11626,8874 11626,8275 Z M 11643,8300 L 12024,8300 12024,8849 11643,8849 11643,8300 Z"/>
             <path fill="rgb(218,218,218)" stroke="none" d="M 11643,8300 L 12024,8300 12024,8849 11643,8849 11643,8300 Z M 11661,8325 L 12006,8325 12006,8824 11661,8824 11661,8325 Z"/>
             <path fill="rgb(219,219,219)" stroke="none" d="M 11661,8325 L 12006,8325 12006,8824 11661,8824 11661,8325 Z M 11678,8350 L 11989,8350 11989,8799 11678,8799 11678,8350 Z"/>
             <path fill="rgb(220,220,220)" stroke="none" d="M 11678,8350 L 11989,8350 11989,8799 11678,8799 11678,8350 Z M 11695,8375 L 11972,8375 11972,8774 11695,8774 11695,8375 Z"/>
             <path fill="rgb(221,221,221)" stroke="none" d="M 11695,8375 L 11972,8375 11972,8774 11695,8774 11695,8375 Z M 11713,8400 L 11954,8400 11954,8749 11713,8749 11713,8400 Z"/>
             <path fill="rgb(222,222,222)" stroke="none" d="M 11713,8400 L 11954,8400 11954,8749 11713,8749 11713,8400 Z M 11730,8425 L 11937,8425 11937,8724 11730,8724 11730,8425 Z"/>
             <path fill="rgb(223,223,223)" stroke="none" d="M 11730,8425 L 11937,8425 11937,8724 11730,8724 11730,8425 Z M 11747,8450 L 11920,8450 11920,8699 11747,8699 11747,8450 Z"/>
             <path fill="rgb(224,224,224)" stroke="none" d="M 11747,8450 L 11920,8450 11920,8699 11747,8699 11747,8450 Z M 11765,8475 L 11902,8475 11902,8674 11765,8674 11765,8475 Z"/>
             <path fill="rgb(225,225,225)" stroke="none" d="M 11765,8475 L 11902,8475 11902,8674 11765,8674 11765,8475 Z M 11782,8500 L 11885,8500 11885,8649 11782,8649 11782,8500 Z"/>
             <path fill="rgb(226,226,226)" stroke="none" d="M 11782,8500 L 11885,8500 11885,8649 11782,8649 11782,8500 Z M 11799,8525 L 11868,8525 11868,8624 11799,8624 11799,8525 Z"/>
             <path fill="rgb(227,227,227)" stroke="none" d="M 11799,8525 L 11868,8525 11868,8624 11799,8624 11799,8525 Z M 11817,8550 L 11850,8550 11850,8599 11817,8599 11817,8550 Z"/>
             <path fill="rgb(229,229,229)" stroke="none" d="M 11817,8550 L 11850,8550 11850,8599 11817,8599 11817,8550 Z"/>
            </g>
           </pattern>
          </defs>
          <path style="fill:url(#pattern1)" d="M 11316,10326 L 11316,8826 13046,7826 13046,9326 11316,10326 Z"/>
         </g>
         <path fill="none" stroke="rgb(255,255,255)" stroke-width="40" stroke-linejoin="round" d="M 11316,10326 L 11316,8826 13046,7826 13046,9326 11316,10326 Z"/>
        </g>
       </g>
       <g class="com.sun.star.drawing.PolyPolygonShape">
        <g id="id6">
         <rect class="BoundingBox" stroke="none" fill="none" x="7836" y="5806" width="5231" height="3041"/>
         <g>
          <defs>
           <linearGradient id="gradient2" x1="10451" y1="5826" x2="10451" y2="8826" gradientUnits="userSpaceOnUse">
            <stop offset="0.1" style="stop-color:rgb(179,179,179)"/>
            <stop offset="1" style="stop-color:rgb(229,229,229)"/>
           </linearGradient>
          </defs>
          <path style="fill:url(#gradient2)" d="M 11316,8826 L 7856,6826 9586,5826 13046,7826 11316,8826 Z"/>
         </g>
         <path fill="none" stroke="rgb(255,255,255)" stroke-width="40" stroke-linejoin="round" d="M 11316,8826 L 7856,6826 9586,5826 13046,7826 11316,8826 Z"/>
        </g>
       </g>
       <g class="com.sun.star.drawing.PolyPolygonShape">
        <g id="id7">
         <rect class="BoundingBox" stroke="none" fill="none" x="10950" y="8856" width="214" height="342"/>
         <path fill="rgb(57,181,74)" stroke="none" d="M 10970,9076 L 10970,8876 11143,8976 11143,9176 10970,9076 Z"/>
         <path fill="none" stroke="rgb(0,0,0)" stroke-width="40" stroke-linejoin="round" d="M 10970,9076 L 10970,8876 11143,8976 11143,9176 10970,9076 Z"/>
        </g>
       </g>
       <g class="com.sun.star.drawing.PolyPolygonShape">
        <g id="id8">
         <rect class="BoundingBox" stroke="none" fill="none" x="8701" y="9256" width="1771" height="991"/>
         <g>
          <defs>
           <pattern id="pattern2" x="8721" y="9276" width="1731" height="951" patternUnits="userSpaceOnUse">
            <g transform="translate(-8721,-9276)">
             <path fill="rgb(179,179,179)" stroke="none" d="M 8720,9275 L 10452,9275 10452,10227 8720,10227 8720,9275 Z M 8391,9094 L 10087,9094 10087,10026 8391,10026 8391,9094 Z"/>
             <path fill="rgb(180,180,180)" stroke="none" d="M 8391,9094 L 10087,9094 10087,10026 8391,10026 8391,9094 Z M 8408,9104 L 10070,9104 10070,10016 8408,10016 8408,9104 Z"/>
             <path fill="rgb(181,181,181)" stroke="none" d="M 8408,9104 L 10070,9104 10070,10016 8408,10016 8408,9104 Z M 8425,9113 L 10053,9113 10053,10007 8425,10007 8425,9113 Z"/>
             <path fill="rgb(182,182,182)" stroke="none" d="M 8425,9113 L 10053,9113 10053,10007 8425,10007 8425,9113 Z M 8443,9123 L 10035,9123 10035,9997 8443,9997 8443,9123 Z"/>
             <path fill="rgb(183,183,183)" stroke="none" d="M 8443,9123 L 10035,9123 10035,9997 8443,9997 8443,9123 Z M 8460,9132 L 10018,9132 10018,9988 8460,9988 8460,9132 Z"/>
             <path fill="rgb(184,184,184)" stroke="none" d="M 8460,9132 L 10018,9132 10018,9988 8460,9988 8460,9132 Z M 8477,9142 L 10001,9142 10001,9978 8477,9978 8477,9142 Z"/>
             <path fill="rgb(185,185,185)" stroke="none" d="M 8477,9142 L 10001,9142 10001,9978 8477,9978 8477,9142 Z M 8495,9151 L 9983,9151 9983,9969 8495,9969 8495,9151 Z"/>
             <path fill="rgb(186,186,186)" stroke="none" d="M 8495,9151 L 9983,9151 9983,9969 8495,9969 8495,9151 Z M 8512,9161 L 9966,9161 9966,9959 8512,9959 8512,9161 Z"/>
             <path fill="rgb(187,187,187)" stroke="none" d="M 8512,9161 L 9966,9161 9966,9959 8512,9959 8512,9161 Z M 8529,9170 L 9949,9170 9949,9950 8529,9950 8529,9170 Z"/>
             <path fill="rgb(188,188,188)" stroke="none" d="M 8529,9170 L 9949,9170 9949,9950 8529,9950 8529,9170 Z M 8547,9180 L 9931,9180 9931,9940 8547,9940 8547,9180 Z"/>
             <path fill="rgb(189,189,189)" stroke="none" d="M 8547,9180 L 9931,9180 9931,9940 8547,9940 8547,9180 Z M 8564,9189 L 9914,9189 9914,9931 8564,9931 8564,9189 Z"/>
             <path fill="rgb(190,190,190)" stroke="none" d="M 8564,9189 L 9914,9189 9914,9931 8564,9931 8564,9189 Z M 8581,9199 L 9897,9199 9897,9921 8581,9921 8581,9199 Z"/>
             <path fill="rgb(191,191,191)" stroke="none" d="M 8581,9199 L 9897,9199 9897,9921 8581,9921 8581,9199 Z M 8599,9208 L 9879,9208 9879,9912 8599,9912 8599,9208 Z"/>
             <path fill="rgb(192,192,192)" stroke="none" d="M 8599,9208 L 9879,9208 9879,9912 8599,9912 8599,9208 Z M 8616,9218 L 9862,9218 9862,9902 8616,9902 8616,9218 Z"/>
             <path fill="rgb(193,193,193)" stroke="none" d="M 8616,9218 L 9862,9218 9862,9902 8616,9902 8616,9218 Z M 8633,9227 L 9845,9227 9845,9893 8633,9893 8633,9227 Z"/>
             <path fill="rgb(194,194,194)" stroke="none" d="M 8633,9227 L 9845,9227 9845,9893 8633,9893 8633,9227 Z M 8651,9237 L 9827,9237 9827,9883 8651,9883 8651,9237 Z"/>
             <path fill="rgb(195,195,195)" stroke="none" d="M 8651,9237 L 9827,9237 9827,9883 8651,9883 8651,9237 Z M 8668,9247 L 9810,9247 9810,9873 8668,9873 8668,9247 Z"/>
             <path fill="rgb(196,196,196)" stroke="none" d="M 8668,9247 L 9810,9247 9810,9873 8668,9873 8668,9247 Z M 8685,9256 L 9793,9256 9793,9864 8685,9864 8685,9256 Z"/>
             <path fill="rgb(197,197,197)" stroke="none" d="M 8685,9256 L 9793,9256 9793,9864 8685,9864 8685,9256 Z M 8702,9265 L 9775,9265 9775,9854 8702,9854 8702,9265 Z"/>
             <path fill="rgb(198,198,198)" stroke="none" d="M 8702,9265 L 9775,9265 9775,9854 8702,9854 8702,9265 Z M 8719,9274 L 9758,9274 9758,9845 8719,9845 8719,9274 Z"/>
             <path fill="rgb(199,199,199)" stroke="none" d="M 8719,9274 L 9758,9274 9758,9845 8719,9845 8719,9274 Z M 8736,9284 L 9741,9284 9741,9835 8736,9835 8736,9284 Z"/>
             <path fill="rgb(200,200,200)" stroke="none" d="M 8736,9284 L 9741,9284 9741,9835 8736,9835 8736,9284 Z M 8754,9293 L 9723,9293 9723,9826 8754,9826 8754,9293 Z"/>
             <path fill="rgb(201,201,201)" stroke="none" d="M 8754,9293 L 9723,9293 9723,9826 8754,9826 8754,9293 Z M 8771,9303 L 9706,9303 9706,9816 8771,9816 8771,9303 Z"/>
             <path fill="rgb(202,202,202)" stroke="none" d="M 8771,9303 L 9706,9303 9706,9816 8771,9816 8771,9303 Z M 8788,9312 L 9689,9312 9689,9807 8788,9807 8788,9312 Z"/>
             <path fill="rgb(203,203,203)" stroke="none" d="M 8788,9312 L 9689,9312 9689,9807 8788,9807 8788,9312 Z M 8806,9322 L 9671,9322 9671,9797 8806,9797 8806,9322 Z"/>
             <path fill="rgb(204,204,204)" stroke="none" d="M 8806,9322 L 9671,9322 9671,9797 8806,9797 8806,9322 Z M 8823,9331 L 9654,9331 9654,9788 8823,9788 8823,9331 Z"/>
             <path fill="rgb(205,205,205)" stroke="none" d="M 8823,9331 L 9654,9331 9654,9788 8823,9788 8823,9331 Z M 8840,9341 L 9637,9341 9637,9778 8840,9778 8840,9341 Z"/>
             <path fill="rgb(206,206,206)" stroke="none" d="M 8840,9341 L 9637,9341 9637,9778 8840,9778 8840,9341 Z M 8858,9350 L 9619,9350 9619,9769 8858,9769 8858,9350 Z"/>
             <path fill="rgb(207,207,207)" stroke="none" d="M 8858,9350 L 9619,9350 9619,9769 8858,9769 8858,9350 Z M 8875,9360 L 9602,9360 9602,9759 8875,9759 8875,9360 Z"/>
             <path fill="rgb(208,208,208)" stroke="none" d="M 8875,9360 L 9602,9360 9602,9759 8875,9759 8875,9360 Z M 8892,9369 L 9585,9369 9585,9750 8892,9750 8892,9369 Z"/>
             <path fill="rgb(209,209,209)" stroke="none" d="M 8892,9369 L 9585,9369 9585,9750 8892,9750 8892,9369 Z M 8910,9379 L 9567,9379 9567,9740 8910,9740 8910,9379 Z"/>
             <path fill="rgb(210,210,210)" stroke="none" d="M 8910,9379 L 9567,9379 9567,9740 8910,9740 8910,9379 Z M 8927,9388 L 9550,9388 9550,9731 8927,9731 8927,9388 Z"/>
             <path fill="rgb(211,211,211)" stroke="none" d="M 8927,9388 L 9550,9388 9550,9731 8927,9731 8927,9388 Z M 8944,9398 L 9533,9398 9533,9721 8944,9721 8944,9398 Z"/>
             <path fill="rgb(212,212,212)" stroke="none" d="M 8944,9398 L 9533,9398 9533,9721 8944,9721 8944,9398 Z M 8962,9408 L 9515,9408 9515,9711 8962,9711 8962,9408 Z"/>
             <path fill="rgb(213,213,213)" stroke="none" d="M 8962,9408 L 9515,9408 9515,9711 8962,9711 8962,9408 Z M 8979,9417 L 9498,9417 9498,9702 8979,9702 8979,9417 Z"/>
             <path fill="rgb(214,214,214)" stroke="none" d="M 8979,9417 L 9498,9417 9498,9702 8979,9702 8979,9417 Z M 8996,9427 L 9481,9427 9481,9692 8996,9692 8996,9427 Z"/>
             <path fill="rgb(215,215,215)" stroke="none" d="M 8996,9427 L 9481,9427 9481,9692 8996,9692 8996,9427 Z M 9014,9436 L 9463,9436 9463,9683 9014,9683 9014,9436 Z"/>
             <path fill="rgb(216,216,216)" stroke="none" d="M 9014,9436 L 9463,9436 9463,9683 9014,9683 9014,9436 Z M 9031,9446 L 9446,9446 9446,9673 9031,9673 9031,9446 Z"/>
             <path fill="rgb(217,217,217)" stroke="none" d="M 9031,9446 L 9446,9446 9446,9673 9031,9673 9031,9446 Z M 9048,9455 L 9429,9455 9429,9664 9048,9664 9048,9455 Z"/>
             <path fill="rgb(218,218,218)" stroke="none" d="M 9048,9455 L 9429,9455 9429,9664 9048,9664 9048,9455 Z M 9066,9465 L 9411,9465 9411,9654 9066,9654 9066,9465 Z"/>
             <path fill="rgb(219,219,219)" stroke="none" d="M 9066,9465 L 9411,9465 9411,9654 9066,9654 9066,9465 Z M 9083,9474 L 9394,9474 9394,9645 9083,9645 9083,9474 Z"/>
             <path fill="rgb(220,220,220)" stroke="none" d="M 9083,9474 L 9394,9474 9394,9645 9083,9645 9083,9474 Z M 9100,9484 L 9377,9484 9377,9635 9100,9635 9100,9484 Z"/>
             <path fill="rgb(221,221,221)" stroke="none" d="M 9100,9484 L 9377,9484 9377,9635 9100,9635 9100,9484 Z M 9118,9493 L 9359,9493 9359,9626 9118,9626 9118,9493 Z"/>
             <path fill="rgb(222,222,222)" stroke="none" d="M 9118,9493 L 9359,9493 9359,9626 9118,9626 9118,9493 Z M 9135,9503 L 9342,9503 9342,9616 9135,9616 9135,9503 Z"/>
             <path fill="rgb(223,223,223)" stroke="none" d="M 9135,9503 L 9342,9503 9342,9616 9135,9616 9135,9503 Z M 9152,9512 L 9325,9512 9325,9607 9152,9607 9152,9512 Z"/>
             <path fill="rgb(224,224,224)" stroke="none" d="M 9152,9512 L 9325,9512 9325,9607 9152,9607 9152,9512 Z M 9170,9522 L 9307,9522 9307,9597 9170,9597 9170,9522 Z"/>
             <path fill="rgb(225,225,225)" stroke="none" d="M 9170,9522 L 9307,9522 9307,9597 9170,9597 9170,9522 Z M 9187,9531 L 9290,9531 9290,9588 9187,9588 9187,9531 Z"/>
             <path fill="rgb(226,226,226)" stroke="none" d="M 9187,9531 L 9290,9531 9290,9588 9187,9588 9187,9531 Z M 9204,9541 L 9273,9541 9273,9578 9204,9578 9204,9541 Z"/>
             <path fill="rgb(227,227,227)" stroke="none" d="M 9204,9541 L 9273,9541 9273,9578 9204,9578 9204,9541 Z M 9222,9550 L 9255,9550 9255,9569 9222,9569 9222,9550 Z"/>
             <path fill="rgb(229,229,229)" stroke="none" d="M 9222,9550 L 9255,9550 9255,9569 9222,9569 9222,9550 Z"/>
            </g>
           </pattern>
          </defs>
          <path style="fill:url(#pattern2)" d="M 8721,9976 L 10451,9276 10451,9676 8721,10226 8721,9976 Z"/>
         </g>
         <path fill="none" stroke="rgb(255,255,255)" stroke-width="40" stroke-linejoin="round" d="M 8721,9976 L 10451,9276 10451,9676 8721,10226 8721,9976 Z"/>
        </g>
       </g>
       <g class="com.sun.star.drawing.PolyPolygonShape">
        <g id="id9">
         <rect class="BoundingBox" stroke="none" fill="none" x="6971" y="8256" width="3501" height="1741"/>
         <g>
          <defs>
           <linearGradient id="gradient3" x1="8721" y1="8276" x2="8721" y2="9976" gradientUnits="userSpaceOnUse">
            <stop offset="0.1" style="stop-color:rgb(179,179,179)"/>
            <stop offset="1" style="stop-color:rgb(229,229,229)"/>
           </linearGradient>
          </defs>
          <path style="fill:url(#gradient3)" d="M 8721,9976 L 6991,8976 8721,8276 10451,9276 8721,9976 Z"/>
         </g>
         <path fill="none" stroke="rgb(255,255,255)" stroke-width="40" stroke-linejoin="round" d="M 8721,9976 L 6991,8976 8721,8276 10451,9276 8721,9976 Z"/>
        </g>
       </g>
       <g class="com.sun.star.drawing.PolyPolygonShape">
        <g id="id10">
         <rect class="BoundingBox" stroke="none" fill="none" x="6971" y="8956" width="1771" height="1291"/>
         <g>
          <defs>
           <linearGradient id="gradient4" x1="6991" y1="9601" x2="8721" y2="9601" gradientUnits="userSpaceOnUse">
            <stop offset="0.1" style="stop-color:rgb(179,179,179)"/>
            <stop offset="1" style="stop-color:rgb(229,229,229)"/>
           </linearGradient>
          </defs>
          <path style="fill:url(#gradient4)" d="M 6991,9226 L 6991,8976 8721,9976 8721,10226 6991,9226 Z"/>
         </g>
         <path fill="none" stroke="rgb(255,255,255)" stroke-width="40" stroke-linejoin="round" d="M 6991,9226 L 6991,8976 8721,9976 8721,10226 6991,9226 Z"/>
        </g>
       </g>
       <g class="com.sun.star.drawing.PolyPolygonShape">
        <g id="id11">
         <rect class="BoundingBox" stroke="none" fill="none" x="6971" y="5806" width="6096" height="4541"/>
         <path fill="none" stroke="rgb(0,0,0)" stroke-width="40" stroke-linejoin="round" d="M 7856,8326 L 7856,6826 9586,5826 13046,7826 13046,9326 11316,10326 10278,9726 8721,10226 6991,9226 6991,8976 8202,8476 7856,8326 Z"/>
        </g>
       </g>
       <g class="com.sun.star.drawing.ClosedBezierShape">
        <g id="id12">
         <rect class="BoundingBox" stroke="none" fill="none" x="7057" y="8405" width="3156" height="1492"/>
         <path fill="rgb(255,255,255)" stroke="none" d="M 8289,9876 C 7943,9676 7424,9376 7078,9176 7510,8926 8376,8576 8981,8426 9327,8626 9759,8876 10192,9126 9673,9276 8808,9626 8289,9876 Z"/>
         <path fill="none" stroke="rgb(128,128,128)" stroke-width="40" stroke-linejoin="round" d="M 8289,9876 C 7943,9676 7424,9376 7078,9176 7510,8926 8376,8576 8981,8426 9327,8626 9759,8876 10192,9126 9673,9276 8808,9626 8289,9876 Z"/>
        </g>
       </g>
       <g class="com.sun.star.drawing.PolyLineShape">
        <g id="id13">
         <rect class="BoundingBox" stroke="none" fill="none" x="8701" y="8056" width="1771" height="1191"/>
         <path fill="none" stroke="rgb(127,127,127)" stroke-width="40" stroke-linejoin="round" d="M 8721,8276 L 8721,8076 10451,9076 10451,9226"/>
        </g>
       </g>
       <g class="com.sun.star.drawing.PolyPolygonShape">
        <g id="id14">
         <rect class="BoundingBox" stroke="none" fill="none" x="8701" y="6406" width="3328" height="1941"/>
         <g>
          <defs>
           <linearGradient id="gradient5" x1="10364" y1="6426" x2="10364" y2="8326" gradientUnits="userSpaceOnUse">
            <stop offset="0.1" style="stop-color:rgb(179,179,179)"/>
            <stop offset="1" style="stop-color:rgb(229,229,229)"/>
           </linearGradient>
          </defs>
          <path style="fill:url(#gradient5)" d="M 10451,8326 L 8721,7326 10278,6426 12008,7426 10451,8326 Z"/>
         </g>
         <path fill="none" stroke="rgb(255,255,255)" stroke-width="40" stroke-linejoin="round" d="M 10451,8326 L 8721,7326 10278,6426 12008,7426 10451,8326 Z"/>
        </g>
       </g>
       <g class="com.sun.star.drawing.PolyPolygonShape">
        <g id="id15">
         <rect class="BoundingBox" stroke="none" fill="none" x="8701" y="7305" width="1771" height="1542"/>
         <g>
          <defs>
           <linearGradient id="gradient6" x1="8721" y1="8076" x2="10451" y2="8076" gradientUnits="userSpaceOnUse">
            <stop offset="0.1" style="stop-color:rgb(179,179,179)"/>
            <stop offset="1" style="stop-color:rgb(229,229,229)"/>
           </linearGradient>
          </defs>
          <path style="fill:url(#gradient6)" d="M 8721,7826 L 8721,7326 10451,8326 10451,8826 8721,7826 Z"/>
         </g>
         <path fill="none" stroke="rgb(255,255,255)" stroke-width="40" stroke-linejoin="round" d="M 8721,7826 L 8721,7326 10451,8326 10451,8826 8721,7826 Z"/>
        </g>
       </g>
      </g>
     </g>
    </g>
   </g>
  </g>
 </g>
</svg>