<?xml version="1.0" encoding="UTF-8"?>
<!DOCTYPE svg PUBLIC "-//W3C//DTD SVG 1.1//EN" "http://www.w3.org/Graphics/SVG/1.1/DTD/svg11.dtd">
<svg version="1.2" width="47.59mm" height="49.4mm" viewBox="5454 3274 4759 4940" preserveAspectRatio="xMidYMid" fill-rule="evenodd" stroke-width="28.222" stroke-linejoin="round" xmlns="http://www.w3.org/2000/svg" xmlns:ooo="http://xml.openoffice.org/svg/export" xmlns:xlink="http://www.w3.org/1999/xlink" xmlns:presentation="http://sun.com/xmlns/staroffice/presentation" xmlns:smil="http://www.w3.org/2001/SMIL20/" xmlns:anim="urn:oasis:names:tc:opendocument:xmlns:animation:1.0" xml:space="preserve">
 <defs class="ClipPathGroup">
  <clipPath id="presentation_clip_path" clipPathUnits="userSpaceOnUse">
   <rect x="5454" y="3274" width="4759" height="4940"/>
  </clipPath>
 </defs>
 <defs class="TextShapeIndex">
  <g ooo:slide="id1" ooo:id-list="id3 id4 id5 id6 id7 id8 id9 id10 id11 id12 id13 id14 id15 id16 id17 id18 id19 id20 id21 id22 id23 id24 id25 id26 id27 id28 id29 id30 id31 id32 id33 id34 id35 id36 id37 id38 id39 id40 id41 id42 id43 id44 id45 id46 id47 id48 id49 id50 id51"/>
 </defs>
 <defs class="EmbeddedBulletChars">
  <g id="bullet-char-template(57356)" transform="scale(0.00048828125,-0.00048828125)">
   <path d="M 580,1141 L 1163,571 580,0 -4,571 580,1141 Z"/>
  </g>
  <g id="bullet-char-template(57354)" transform="scale(0.00048828125,-0.00048828125)">
   <path d="M 8,1128 L 1137,1128 1137,0 8,0 8,1128 Z"/>
  </g>
  <g id="bullet-char-template(10146)" transform="scale(0.00048828125,-0.00048828125)">
   <path d="M 174,0 L 602,739 174,1481 1456,739 174,0 Z M 1358,739 L 309,1346 659,739 1358,739 Z"/>
  </g>
  <g id="bullet-char-template(10132)" transform="scale(0.00048828125,-0.00048828125)">
   <path d="M 2015,739 L 1276,0 717,0 1260,543 174,543 174,936 1260,936 717,1481 1274,1481 2015,739 Z"/>
  </g>
  <g id="bullet-char-template(10007)" transform="scale(0.00048828125,-0.00048828125)">
   <path d="M 0,-2 C -7,14 -16,27 -25,37 L 356,567 C 262,823 215,952 215,954 215,979 228,992 255,992 264,992 276,990 289,987 310,991 331,999 354,1012 L 381,999 492,748 772,1049 836,1024 860,1049 C 881,1039 901,1025 922,1006 886,937 835,863 770,784 769,783 710,716 594,584 L 774,223 C 774,196 753,168 711,139 L 727,119 C 717,90 699,76 672,76 641,76 570,178 457,381 L 164,-76 C 142,-110 111,-127 72,-127 30,-127 9,-110 8,-76 1,-67 -2,-52 -2,-32 -2,-23 -1,-13 0,-2 Z"/>
  </g>
  <g id="bullet-char-template(10004)" transform="scale(0.00048828125,-0.00048828125)">
   <path d="M 285,-33 C 182,-33 111,30 74,156 52,228 41,333 41,471 41,549 55,616 82,672 116,743 169,778 240,778 293,778 328,747 346,684 L 369,508 C 377,444 397,411 428,410 L 1163,1116 C 1174,1127 1196,1133 1229,1133 1271,1133 1292,1118 1292,1087 L 1292,965 C 1292,929 1282,901 1262,881 L 442,47 C 390,-6 338,-33 285,-33 Z"/>
  </g>
  <g id="bullet-char-template(9679)" transform="scale(0.00048828125,-0.00048828125)">
   <path d="M 813,0 C 632,0 489,54 383,161 276,268 223,411 223,592 223,773 276,916 383,1023 489,1130 632,1184 813,1184 992,1184 1136,1130 1245,1023 1353,916 1407,772 1407,592 1407,412 1353,268 1245,161 1136,54 992,0 813,0 Z"/>
  </g>
  <g id="bullet-char-template(8226)" transform="scale(0.00048828125,-0.00048828125)">
   <path d="M 346,457 C 273,457 209,483 155,535 101,586 74,649 74,723 74,796 101,859 155,911 209,963 273,989 346,989 419,989 480,963 531,910 582,859 608,796 608,723 608,648 583,586 532,535 482,483 420,457 346,457 Z"/>
  </g>
  <g id="bullet-char-template(8211)" transform="scale(0.00048828125,-0.00048828125)">
   <path d="M -4,459 L 1135,459 1135,606 -4,606 -4,459 Z"/>
  </g>
 </defs>
 <defs class="TextEmbeddedBitmaps"/>
 <g class="SlideGroup">
  <g>
   <g id="id1" class="Slide" clip-path="url(#presentation_clip_path)">
    <g class="Page">
     <g class="Group">
      <g class="com.sun.star.drawing.ClosedBezierShape">
       <g id="id3">
        <rect class="BoundingBox" stroke="none" fill="none" x="7899" y="6759" width="2315" height="1455"/>
        <path fill="rgb(221,221,221)" stroke="none" d="M 7924,8193 C 8163,8193 10193,7688 10193,7234 10193,6779 9647,6779 9407,6779 9407,6931 7836,7082 7924,8193 Z"/>
        <path fill="none" stroke="rgb(221,221,221)" stroke-width="40" stroke-linejoin="round" d="M 7924,8193 C 8163,8193 10193,7688 10193,7234 10193,6779 9647,6779 9407,6779 9407,6931 7836,7082 7924,8193 Z"/>
       </g>
      </g>
      <g class="Group">
       <g class="com.sun.star.drawing.PolyPolygonShape">
        <g id="id4">
         <rect class="BoundingBox" stroke="none" fill="none" x="5454" y="5547" width="4148" height="2415"/>
         <g>
          <defs>
           <linearGradient id="gradient1" x1="7527" y1="5567" x2="7527" y2="7941" gradientUnits="userSpaceOnUse">
            <stop offset="0.1" style="stop-color:rgb(179,179,179)"/>
            <stop offset="1" style="stop-color:rgb(229,229,229)"/>
           </linearGradient>
          </defs>
          <path style="fill:url(#gradient1)" d="M 7921,7941 L 5474,6527 7134,5567 9581,6981 7921,7941 Z"/>
         </g>
         <path fill="none" stroke="rgb(255,255,255)" stroke-width="40" stroke-linejoin="round" d="M 7921,7941 L 5474,6527 7134,5567 9581,6981 7921,7941 Z"/>
        </g>
       </g>
       <g class="com.sun.star.drawing.PolyPolygonShape">
        <g id="id5">
         <rect class="BoundingBox" stroke="none" fill="none" x="6415" y="5800" width="2750" height="1608"/>
         <path fill="rgb(127,127,127)" stroke="none" d="M 6435,6224 L 7134,5820 9144,6982 8445,7386 6435,6224 Z"/>
         <path fill="none" stroke="rgb(255,255,255)" stroke-width="40" stroke-linejoin="round" d="M 6435,6224 L 7134,5820 9144,6982 8445,7386 6435,6224 Z"/>
        </g>
       </g>
       <g class="com.sun.star.drawing.PolyPolygonShape">
        <g id="id6">
         <rect class="BoundingBox" stroke="none" fill="none" x="7114" y="3325" width="2488" height="3678"/>
         <g>
          <defs>
           <linearGradient id="gradient2" x1="7133" y1="5163" x2="9582" y2="5163" gradientUnits="userSpaceOnUse">
            <stop offset="0.1" style="stop-color:rgb(179,179,179)"/>
            <stop offset="1" style="stop-color:rgb(229,229,229)"/>
           </linearGradient>
          </defs>
          <path style="fill:url(#gradient2)" d="M 7134,5568 L 7134,3345 9581,4759 9581,6982 7134,5568 Z"/>
         </g>
         <path fill="none" stroke="rgb(255,255,255)" stroke-width="40" stroke-linejoin="round" d="M 7134,5568 L 7134,3345 9581,4759 9581,6982 7134,5568 Z"/>
        </g>
       </g>
       <g class="com.sun.star.drawing.PolyPolygonShape">
        <g id="id7">
         <rect class="BoundingBox" stroke="none" fill="none" x="7202" y="3476" width="2313" height="3223"/>
         <g>
          <defs>
           <linearGradient id="gradient3" x1="7221" y1="5087" x2="9495" y2="5087" gradientUnits="userSpaceOnUse">
            <stop offset="0.1" style="stop-color:rgb(147,212,240)"/>
            <stop offset="1" style="stop-color:rgb(233,246,252)"/>
           </linearGradient>
          </defs>
          <path style="fill:url(#gradient3)" d="M 7222,5365 L 7222,3496 9494,4809 9494,6678 7222,5365 Z"/>
         </g>
         <path fill="none" stroke="rgb(127,127,127)" stroke-width="40" stroke-linejoin="round" d="M 7222,5365 L 7222,3496 9494,4809 9494,6678 7222,5365 Z"/>
        </g>
       </g>
       <g class="com.sun.star.drawing.PolyPolygonShape">
        <g id="id8">
         <rect class="BoundingBox" stroke="none" fill="none" x="7114" y="3274" width="2575" height="1506"/>
         <g>
          <defs>
           <linearGradient id="gradient4" x1="8401" y1="3294" x2="8401" y2="4759" gradientUnits="userSpaceOnUse">
            <stop offset="0.1" style="stop-color:rgb(179,179,179)"/>
            <stop offset="1" style="stop-color:rgb(229,229,229)"/>
           </linearGradient>
          </defs>
          <path style="fill:url(#gradient4)" d="M 9581,4759 L 7134,3345 7221,3294 9668,4708 9581,4759 Z"/>
         </g>
         <path fill="none" stroke="rgb(255,255,255)" stroke-width="40" stroke-linejoin="round" d="M 9581,4759 L 7134,3345 7221,3294 9668,4708 9581,4759 Z"/>
        </g>
       </g>
       <g class="com.sun.star.drawing.PolyPolygonShape">
        <g id="id9">
         <rect class="BoundingBox" stroke="none" fill="none" x="9561" y="4688" width="128" height="2315"/>
         <g>
          <defs>
           <pattern id="pattern1" x="9581" y="4708" width="88" height="2274" patternUnits="userSpaceOnUse">
            <g transform="translate(-9581,-4708)">
             <path fill="rgb(179,179,179)" stroke="none" d="M 9580,4707 L 9669,4707 9669,6982 9580,6982 9580,4707 Z M 9562,4274 L 9650,4274 9650,6503 9562,6503 9562,4274 Z"/>
             <path fill="rgb(180,180,180)" stroke="none" d="M 9562,4274 L 9650,4274 9650,6503 9562,6503 9562,4274 Z M 9563,4297 L 9649,4297 9649,6480 9563,6480 9563,4297 Z"/>
             <path fill="rgb(181,181,181)" stroke="none" d="M 9563,4297 L 9649,4297 9649,6480 9563,6480 9563,4297 Z M 9564,4320 L 9648,4320 9648,6457 9564,6457 9564,4320 Z"/>
             <path fill="rgb(182,182,182)" stroke="none" d="M 9564,4320 L 9648,4320 9648,6457 9564,6457 9564,4320 Z M 9565,4343 L 9647,4343 9647,6434 9565,6434 9565,4343 Z"/>
             <path fill="rgb(183,183,183)" stroke="none" d="M 9565,4343 L 9647,4343 9647,6434 9565,6434 9565,4343 Z M 9566,4365 L 9646,4365 9646,6412 9566,6412 9566,4365 Z"/>
             <path fill="rgb(184,184,184)" stroke="none" d="M 9566,4365 L 9646,4365 9646,6412 9566,6412 9566,4365 Z M 9567,4388 L 9645,4388 9645,6389 9567,6389 9567,4388 Z"/>
             <path fill="rgb(185,185,185)" stroke="none" d="M 9567,4388 L 9645,4388 9645,6389 9567,6389 9567,4388 Z M 9568,4411 L 9644,4411 9644,6366 9568,6366 9568,4411 Z"/>
             <path fill="rgb(186,186,186)" stroke="none" d="M 9568,4411 L 9644,4411 9644,6366 9568,6366 9568,4411 Z M 9569,4434 L 9643,4434 9643,6343 9569,6343 9569,4434 Z"/>
             <path fill="rgb(187,187,187)" stroke="none" d="M 9569,4434 L 9643,4434 9643,6343 9569,6343 9569,4434 Z M 9570,4456 L 9642,4456 9642,6321 9570,6321 9570,4456 Z"/>
             <path fill="rgb(188,188,188)" stroke="none" d="M 9570,4456 L 9642,4456 9642,6321 9570,6321 9570,4456 Z M 9571,4479 L 9641,4479 9641,6298 9571,6298 9571,4479 Z"/>
             <path fill="rgb(189,189,189)" stroke="none" d="M 9571,4479 L 9641,4479 9641,6298 9571,6298 9571,4479 Z M 9571,4502 L 9641,4502 9641,6275 9571,6275 9571,4502 Z"/>
             <path fill="rgb(190,190,190)" stroke="none" d="M 9571,4502 L 9641,4502 9641,6275 9571,6275 9571,4502 Z M 9572,4525 L 9640,4525 9640,6252 9572,6252 9572,4525 Z"/>
             <path fill="rgb(191,191,191)" stroke="none" d="M 9572,4525 L 9640,4525 9640,6252 9572,6252 9572,4525 Z M 9573,4547 L 9639,4547 9639,6230 9573,6230 9573,4547 Z"/>
             <path fill="rgb(192,192,192)" stroke="none" d="M 9573,4547 L 9639,4547 9639,6230 9573,6230 9573,4547 Z M 9574,4570 L 9638,4570 9638,6207 9574,6207 9574,4570 Z"/>
             <path fill="rgb(193,193,193)" stroke="none" d="M 9574,4570 L 9638,4570 9638,6207 9574,6207 9574,4570 Z M 9575,4593 L 9637,4593 9637,6184 9575,6184 9575,4593 Z"/>
             <path fill="rgb(194,194,194)" stroke="none" d="M 9575,4593 L 9637,4593 9637,6184 9575,6184 9575,4593 Z M 9576,4616 L 9636,4616 9636,6161 9576,6161 9576,4616 Z"/>
             <path fill="rgb(195,195,195)" stroke="none" d="M 9576,4616 L 9636,4616 9636,6161 9576,6161 9576,4616 Z M 9577,4638 L 9635,4638 9635,6139 9577,6139 9577,4638 Z"/>
             <path fill="rgb(196,196,196)" stroke="none" d="M 9577,4638 L 9635,4638 9635,6139 9577,6139 9577,4638 Z M 9578,4661 L 9634,4661 9634,6116 9578,6116 9578,4661 Z"/>
             <path fill="rgb(197,197,197)" stroke="none" d="M 9578,4661 L 9634,4661 9634,6116 9578,6116 9578,4661 Z M 9579,4684 L 9633,4684 9633,6093 9579,6093 9579,4684 Z"/>
             <path fill="rgb(198,198,198)" stroke="none" d="M 9579,4684 L 9633,4684 9633,6093 9579,6093 9579,4684 Z M 9580,4706 L 9632,4706 9632,6070 9580,6070 9580,4706 Z"/>
             <path fill="rgb(199,199,199)" stroke="none" d="M 9580,4706 L 9632,4706 9632,6070 9580,6070 9580,4706 Z M 9580,4728 L 9632,4728 9632,6048 9580,6048 9580,4728 Z"/>
             <path fill="rgb(200,200,200)" stroke="none" d="M 9580,4728 L 9632,4728 9632,6048 9580,6048 9580,4728 Z M 9581,4751 L 9631,4751 9631,6025 9581,6025 9581,4751 Z"/>
             <path fill="rgb(201,201,201)" stroke="none" d="M 9581,4751 L 9631,4751 9631,6025 9581,6025 9581,4751 Z M 9582,4774 L 9630,4774 9630,6002 9582,6002 9582,4774 Z"/>
             <path fill="rgb(202,202,202)" stroke="none" d="M 9582,4774 L 9630,4774 9630,6002 9582,6002 9582,4774 Z M 9583,4797 L 9629,4797 9629,5979 9583,5979 9583,4797 Z"/>
             <path fill="rgb(203,203,203)" stroke="none" d="M 9583,4797 L 9629,4797 9629,5979 9583,5979 9583,4797 Z M 9584,4819 L 9628,4819 9628,5957 9584,5957 9584,4819 Z"/>
             <path fill="rgb(204,204,204)" stroke="none" d="M 9584,4819 L 9628,4819 9628,5957 9584,5957 9584,4819 Z M 9585,4842 L 9627,4842 9627,5934 9585,5934 9585,4842 Z"/>
             <path fill="rgb(205,205,205)" stroke="none" d="M 9585,4842 L 9627,4842 9627,5934 9585,5934 9585,4842 Z M 9586,4865 L 9626,4865 9626,5911 9586,5911 9586,4865 Z"/>
             <path fill="rgb(206,206,206)" stroke="none" d="M 9586,4865 L 9626,4865 9626,5911 9586,5911 9586,4865 Z M 9587,4888 L 9625,4888 9625,5888 9587,5888 9587,4888 Z"/>
             <path fill="rgb(207,207,207)" stroke="none" d="M 9587,4888 L 9625,4888 9625,5888 9587,5888 9587,4888 Z M 9588,4911 L 9624,4911 9624,5865 9588,5865 9588,4911 Z"/>
             <path fill="rgb(208,208,208)" stroke="none" d="M 9588,4911 L 9624,4911 9624,5865 9588,5865 9588,4911 Z M 9588,4933 L 9623,4933 9623,5843 9588,5843 9588,4933 Z"/>
             <path fill="rgb(209,209,209)" stroke="none" d="M 9588,4933 L 9623,4933 9623,5843 9588,5843 9588,4933 Z M 9589,4956 L 9623,4956 9623,5820 9589,5820 9589,4956 Z"/>
             <path fill="rgb(210,210,210)" stroke="none" d="M 9589,4956 L 9623,4956 9623,5820 9589,5820 9589,4956 Z M 9590,4979 L 9622,4979 9622,5797 9590,5797 9590,4979 Z"/>
             <path fill="rgb(211,211,211)" stroke="none" d="M 9590,4979 L 9622,4979 9622,5797 9590,5797 9590,4979 Z M 9591,5002 L 9621,5002 9621,5774 9591,5774 9591,5002 Z"/>
             <path fill="rgb(212,212,212)" stroke="none" d="M 9591,5002 L 9621,5002 9621,5774 9591,5774 9591,5002 Z M 9592,5024 L 9620,5024 9620,5752 9592,5752 9592,5024 Z"/>
             <path fill="rgb(213,213,213)" stroke="none" d="M 9592,5024 L 9620,5024 9620,5752 9592,5752 9592,5024 Z M 9593,5047 L 9619,5047 9619,5729 9593,5729 9593,5047 Z"/>
             <path fill="rgb(214,214,214)" stroke="none" d="M 9593,5047 L 9619,5047 9619,5729 9593,5729 9593,5047 Z M 9594,5070 L 9618,5070 9618,5706 9594,5706 9594,5070 Z"/>
             <path fill="rgb(215,215,215)" stroke="none" d="M 9594,5070 L 9618,5070 9618,5706 9594,5706 9594,5070 Z M 9595,5093 L 9617,5093 9617,5683 9595,5683 9595,5093 Z"/>
             <path fill="rgb(216,216,216)" stroke="none" d="M 9595,5093 L 9617,5093 9617,5683 9595,5683 9595,5093 Z M 9596,5115 L 9616,5115 9616,5661 9596,5661 9596,5115 Z"/>
             <path fill="rgb(217,217,217)" stroke="none" d="M 9596,5115 L 9616,5115 9616,5661 9596,5661 9596,5115 Z M 9597,5138 L 9615,5138 9615,5638 9597,5638 9597,5138 Z"/>
             <path fill="rgb(218,218,218)" stroke="none" d="M 9597,5138 L 9615,5138 9615,5638 9597,5638 9597,5138 Z M 9597,5161 L 9614,5161 9614,5615 9597,5615 9597,5161 Z"/>
             <path fill="rgb(219,219,219)" stroke="none" d="M 9597,5161 L 9614,5161 9614,5615 9597,5615 9597,5161 Z M 9598,5184 L 9614,5184 9614,5592 9598,5592 9598,5184 Z"/>
             <path fill="rgb(220,220,220)" stroke="none" d="M 9598,5184 L 9614,5184 9614,5592 9598,5592 9598,5184 Z M 9599,5206 L 9613,5206 9613,5570 9599,5570 9599,5206 Z"/>
             <path fill="rgb(221,221,221)" stroke="none" d="M 9599,5206 L 9613,5206 9613,5570 9599,5570 9599,5206 Z M 9600,5229 L 9612,5229 9612,5547 9600,5547 9600,5229 Z"/>
             <path fill="rgb(222,222,222)" stroke="none" d="M 9600,5229 L 9612,5229 9612,5547 9600,5547 9600,5229 Z M 9601,5252 L 9611,5252 9611,5524 9601,5524 9601,5252 Z"/>
             <path fill="rgb(223,223,223)" stroke="none" d="M 9601,5252 L 9611,5252 9611,5524 9601,5524 9601,5252 Z M 9602,5275 L 9610,5275 9610,5501 9602,5501 9602,5275 Z"/>
             <path fill="rgb(224,224,224)" stroke="none" d="M 9602,5275 L 9610,5275 9610,5501 9602,5501 9602,5275 Z M 9603,5297 L 9609,5297 9609,5479 9603,5479 9603,5297 Z"/>
             <path fill="rgb(225,225,225)" stroke="none" d="M 9603,5297 L 9609,5297 9609,5479 9603,5479 9603,5297 Z M 9604,5320 L 9608,5320 9608,5456 9604,5456 9604,5320 Z"/>
             <path fill="rgb(226,226,226)" stroke="none" d="M 9604,5320 L 9608,5320 9608,5456 9604,5456 9604,5320 Z M 9605,5343 L 9607,5343 9607,5433 9605,5433 9605,5343 Z"/>
             <path fill="rgb(229,229,229)" stroke="none" d="M 9605,5343 L 9607,5343 9607,5433 9605,5433 9605,5343 Z"/>
            </g>
           </pattern>
          </defs>
          <path style="fill:url(#pattern1)" d="M 9581,6981 L 9581,4759 9668,4708 9668,6931 9581,6981 Z"/>
         </g>
         <path fill="none" stroke="rgb(255,255,255)" stroke-width="40" stroke-linejoin="round" d="M 9581,6981 L 9581,4759 9668,4708 9668,6931 9581,6981 Z"/>
        </g>
       </g>
       <g class="com.sun.star.drawing.PolyPolygonShape">
        <g id="id10">
         <rect class="BoundingBox" stroke="none" fill="none" x="7901" y="6961" width="1702" height="1253"/>
         <g>
          <defs>
           <pattern id="pattern2" x="7921" y="6981" width="1661" height="1213" patternUnits="userSpaceOnUse">
            <g transform="translate(-7921,-6981)">
             <path fill="rgb(179,179,179)" stroke="none" d="M 7920,6980 L 9582,6980 9582,8194 7920,8194 7920,6980 Z M 7604,6750 L 9232,6750 9232,7938 7604,7938 7604,6750 Z"/>
             <path fill="rgb(180,180,180)" stroke="none" d="M 7604,6750 L 9232,6750 9232,7938 7604,7938 7604,6750 Z M 7621,6762 L 9215,6762 9215,7926 7621,7926 7621,6762 Z"/>
             <path fill="rgb(181,181,181)" stroke="none" d="M 7621,6762 L 9215,6762 9215,7926 7621,7926 7621,6762 Z M 7637,6774 L 9199,6774 9199,7914 7637,7914 7637,6774 Z"/>
             <path fill="rgb(182,182,182)" stroke="none" d="M 7637,6774 L 9199,6774 9199,7914 7637,7914 7637,6774 Z M 7654,6786 L 9182,6786 9182,7902 7654,7902 7654,6786 Z"/>
             <path fill="rgb(183,183,183)" stroke="none" d="M 7654,6786 L 9182,6786 9182,7902 7654,7902 7654,6786 Z M 7671,6798 L 9165,6798 9165,7890 7671,7890 7671,6798 Z"/>
             <path fill="rgb(184,184,184)" stroke="none" d="M 7671,6798 L 9165,6798 9165,7890 7671,7890 7671,6798 Z M 7687,6810 L 9149,6810 9149,7878 7687,7878 7687,6810 Z"/>
             <path fill="rgb(185,185,185)" stroke="none" d="M 7687,6810 L 9149,6810 9149,7878 7687,7878 7687,6810 Z M 7704,6823 L 9132,6823 9132,7865 7704,7865 7704,6823 Z"/>
             <path fill="rgb(186,186,186)" stroke="none" d="M 7704,6823 L 9132,6823 9132,7865 7704,7865 7704,6823 Z M 7721,6835 L 9115,6835 9115,7853 7721,7853 7721,6835 Z"/>
             <path fill="rgb(187,187,187)" stroke="none" d="M 7721,6835 L 9115,6835 9115,7853 7721,7853 7721,6835 Z M 7737,6847 L 9099,6847 9099,7841 7737,7841 7737,6847 Z"/>
             <path fill="rgb(188,188,188)" stroke="none" d="M 7737,6847 L 9099,6847 9099,7841 7737,7841 7737,6847 Z M 7754,6859 L 9082,6859 9082,7829 7754,7829 7754,6859 Z"/>
             <path fill="rgb(189,189,189)" stroke="none" d="M 7754,6859 L 9082,6859 9082,7829 7754,7829 7754,6859 Z M 7770,6871 L 9066,6871 9066,7817 7770,7817 7770,6871 Z"/>
             <path fill="rgb(190,190,190)" stroke="none" d="M 7770,6871 L 9066,6871 9066,7817 7770,7817 7770,6871 Z M 7787,6883 L 9049,6883 9049,7805 7787,7805 7787,6883 Z"/>
             <path fill="rgb(191,191,191)" stroke="none" d="M 7787,6883 L 9049,6883 9049,7805 7787,7805 7787,6883 Z M 7804,6895 L 9032,6895 9032,7793 7804,7793 7804,6895 Z"/>
             <path fill="rgb(192,192,192)" stroke="none" d="M 7804,6895 L 9032,6895 9032,7793 7804,7793 7804,6895 Z M 7820,6908 L 9016,6908 9016,7780 7820,7780 7820,6908 Z"/>
             <path fill="rgb(193,193,193)" stroke="none" d="M 7820,6908 L 9016,6908 9016,7780 7820,7780 7820,6908 Z M 7837,6920 L 8999,6920 8999,7768 7837,7768 7837,6920 Z"/>
             <path fill="rgb(194,194,194)" stroke="none" d="M 7837,6920 L 8999,6920 8999,7768 7837,7768 7837,6920 Z M 7854,6932 L 8982,6932 8982,7756 7854,7756 7854,6932 Z"/>
             <path fill="rgb(195,195,195)" stroke="none" d="M 7854,6932 L 8982,6932 8982,7756 7854,7756 7854,6932 Z M 7870,6944 L 8966,6944 8966,7744 7870,7744 7870,6944 Z"/>
             <path fill="rgb(196,196,196)" stroke="none" d="M 7870,6944 L 8966,6944 8966,7744 7870,7744 7870,6944 Z M 7887,6956 L 8949,6956 8949,7732 7887,7732 7887,6956 Z"/>
             <path fill="rgb(197,197,197)" stroke="none" d="M 7887,6956 L 8949,6956 8949,7732 7887,7732 7887,6956 Z M 7902,6967 L 8933,6967 8933,7720 7902,7720 7902,6967 Z"/>
             <path fill="rgb(198,198,198)" stroke="none" d="M 7902,6967 L 8933,6967 8933,7720 7902,7720 7902,6967 Z M 7919,6980 L 8916,6980 8916,7708 7919,7708 7919,6980 Z"/>
             <path fill="rgb(199,199,199)" stroke="none" d="M 7919,6980 L 8916,6980 8916,7708 7919,7708 7919,6980 Z M 7936,6992 L 8899,6992 8899,7695 7936,7695 7936,6992 Z"/>
             <path fill="rgb(200,200,200)" stroke="none" d="M 7936,6992 L 8899,6992 8899,7695 7936,7695 7936,6992 Z M 7952,7004 L 8883,7004 8883,7683 7952,7683 7952,7004 Z"/>
             <path fill="rgb(201,201,201)" stroke="none" d="M 7952,7004 L 8883,7004 8883,7683 7952,7683 7952,7004 Z M 7969,7016 L 8866,7016 8866,7671 7969,7671 7969,7016 Z"/>
             <path fill="rgb(202,202,202)" stroke="none" d="M 7969,7016 L 8866,7016 8866,7671 7969,7671 7969,7016 Z M 7986,7028 L 8849,7028 8849,7659 7986,7659 7986,7028 Z"/>
             <path fill="rgb(203,203,203)" stroke="none" d="M 7986,7028 L 8849,7028 8849,7659 7986,7659 7986,7028 Z M 8002,7040 L 8833,7040 8833,7647 8002,7647 8002,7040 Z"/>
             <path fill="rgb(204,204,204)" stroke="none" d="M 8002,7040 L 8833,7040 8833,7647 8002,7647 8002,7040 Z M 8019,7052 L 8816,7052 8816,7635 8019,7635 8019,7052 Z"/>
             <path fill="rgb(205,205,205)" stroke="none" d="M 8019,7052 L 8816,7052 8816,7635 8019,7635 8019,7052 Z M 8036,7065 L 8799,7065 8799,7622 8036,7622 8036,7065 Z"/>
             <path fill="rgb(206,206,206)" stroke="none" d="M 8036,7065 L 8799,7065 8799,7622 8036,7622 8036,7065 Z M 8052,7077 L 8783,7077 8783,7610 8052,7610 8052,7077 Z"/>
             <path fill="rgb(207,207,207)" stroke="none" d="M 8052,7077 L 8783,7077 8783,7610 8052,7610 8052,7077 Z M 8069,7089 L 8766,7089 8766,7598 8069,7598 8069,7089 Z"/>
             <path fill="rgb(208,208,208)" stroke="none" d="M 8069,7089 L 8766,7089 8766,7598 8069,7598 8069,7089 Z M 8085,7101 L 8750,7101 8750,7586 8085,7586 8085,7101 Z"/>
             <path fill="rgb(209,209,209)" stroke="none" d="M 8085,7101 L 8750,7101 8750,7586 8085,7586 8085,7101 Z M 8102,7113 L 8733,7113 8733,7574 8102,7574 8102,7113 Z"/>
             <path fill="rgb(210,210,210)" stroke="none" d="M 8102,7113 L 8733,7113 8733,7574 8102,7574 8102,7113 Z M 8119,7125 L 8716,7125 8716,7562 8119,7562 8119,7125 Z"/>
             <path fill="rgb(211,211,211)" stroke="none" d="M 8119,7125 L 8716,7125 8716,7562 8119,7562 8119,7125 Z M 8135,7137 L 8700,7137 8700,7550 8135,7550 8135,7137 Z"/>
             <path fill="rgb(212,212,212)" stroke="none" d="M 8135,7137 L 8700,7137 8700,7550 8135,7550 8135,7137 Z M 8152,7150 L 8683,7150 8683,7537 8152,7537 8152,7150 Z"/>
             <path fill="rgb(213,213,213)" stroke="none" d="M 8152,7150 L 8683,7150 8683,7537 8152,7537 8152,7150 Z M 8169,7162 L 8666,7162 8666,7525 8169,7525 8169,7162 Z"/>
             <path fill="rgb(214,214,214)" stroke="none" d="M 8169,7162 L 8666,7162 8666,7525 8169,7525 8169,7162 Z M 8185,7174 L 8650,7174 8650,7513 8185,7513 8185,7174 Z"/>
             <path fill="rgb(215,215,215)" stroke="none" d="M 8185,7174 L 8650,7174 8650,7513 8185,7513 8185,7174 Z M 8202,7186 L 8633,7186 8633,7501 8202,7501 8202,7186 Z"/>
             <path fill="rgb(216,216,216)" stroke="none" d="M 8202,7186 L 8633,7186 8633,7501 8202,7501 8202,7186 Z M 8218,7198 L 8617,7198 8617,7489 8218,7489 8218,7198 Z"/>
             <path fill="rgb(217,217,217)" stroke="none" d="M 8218,7198 L 8617,7198 8617,7489 8218,7489 8218,7198 Z M 8235,7210 L 8600,7210 8600,7477 8235,7477 8235,7210 Z"/>
             <path fill="rgb(218,218,218)" stroke="none" d="M 8235,7210 L 8600,7210 8600,7477 8235,7477 8235,7210 Z M 8252,7223 L 8583,7223 8583,7465 8252,7465 8252,7223 Z"/>
             <path fill="rgb(219,219,219)" stroke="none" d="M 8252,7223 L 8583,7223 8583,7465 8252,7465 8252,7223 Z M 8268,7235 L 8567,7235 8567,7452 8268,7452 8268,7235 Z"/>
             <path fill="rgb(220,220,220)" stroke="none" d="M 8268,7235 L 8567,7235 8567,7452 8268,7452 8268,7235 Z M 8285,7247 L 8550,7247 8550,7440 8285,7440 8285,7247 Z"/>
             <path fill="rgb(221,221,221)" stroke="none" d="M 8285,7247 L 8550,7247 8550,7440 8285,7440 8285,7247 Z M 8302,7259 L 8533,7259 8533,7428 8302,7428 8302,7259 Z"/>
             <path fill="rgb(222,222,222)" stroke="none" d="M 8302,7259 L 8533,7259 8533,7428 8302,7428 8302,7259 Z M 8318,7271 L 8517,7271 8517,7416 8318,7416 8318,7271 Z"/>
             <path fill="rgb(223,223,223)" stroke="none" d="M 8318,7271 L 8517,7271 8517,7416 8318,7416 8318,7271 Z M 8335,7283 L 8500,7283 8500,7404 8335,7404 8335,7283 Z"/>
             <path fill="rgb(224,224,224)" stroke="none" d="M 8335,7283 L 8500,7283 8500,7404 8335,7404 8335,7283 Z M 8351,7295 L 8484,7295 8484,7392 8351,7392 8351,7295 Z"/>
             <path fill="rgb(225,225,225)" stroke="none" d="M 8351,7295 L 8484,7295 8484,7392 8351,7392 8351,7295 Z M 8368,7308 L 8467,7308 8467,7379 8368,7379 8368,7308 Z"/>
             <path fill="rgb(226,226,226)" stroke="none" d="M 8368,7308 L 8467,7308 8467,7379 8368,7379 8368,7308 Z M 8385,7320 L 8450,7320 8450,7367 8385,7367 8385,7320 Z"/>
             <path fill="rgb(227,227,227)" stroke="none" d="M 8385,7320 L 8450,7320 8450,7367 8385,7367 8385,7320 Z M 8401,7332 L 8434,7332 8434,7355 8401,7355 8401,7332 Z"/>
             <path fill="rgb(229,229,229)" stroke="none" d="M 8401,7332 L 8434,7332 8434,7355 8401,7355 8401,7332 Z"/>
            </g>
           </pattern>
          </defs>
          <path style="fill:url(#pattern2)" d="M 7921,8193 L 7921,7941 9581,6981 9581,7234 7921,8193 Z"/>
         </g>
         <path fill="none" stroke="rgb(255,255,255)" stroke-width="40" stroke-linejoin="round" d="M 7921,8193 L 7921,7941 9581,6981 9581,7234 7921,8193 Z"/>
        </g>
       </g>
       <g class="com.sun.star.drawing.LineShape">
        <g id="id11">
         <rect class="BoundingBox" stroke="none" fill="none" x="6590" y="6103" width="2051" height="1203"/>
         <path fill="none" stroke="rgb(229,229,229)" stroke-width="40" stroke-linejoin="round" d="M 6610,6123 L 8620,7285"/>
        </g>
       </g>
       <g class="com.sun.star.drawing.LineShape">
        <g id="id12">
         <rect class="BoundingBox" stroke="none" fill="none" x="6765" y="6002" width="2051" height="1203"/>
         <path fill="none" stroke="rgb(229,229,229)" stroke-width="40" stroke-linejoin="round" d="M 6785,6022 L 8795,7184"/>
        </g>
       </g>
       <g class="com.sun.star.drawing.LineShape">
        <g id="id13">
         <rect class="BoundingBox" stroke="none" fill="none" x="6940" y="5901" width="2051" height="1203"/>
         <path fill="none" stroke="rgb(229,229,229)" stroke-width="40" stroke-linejoin="round" d="M 6960,5921 L 8970,7083"/>
        </g>
       </g>
       <g class="com.sun.star.drawing.LineShape">
        <g id="id14">
         <rect class="BoundingBox" stroke="none" fill="none" x="8687" y="6810" width="216" height="142"/>
         <path fill="none" stroke="rgb(229,229,229)" stroke-width="40" stroke-linejoin="round" d="M 8707,6931 L 8882,6830"/>
        </g>
       </g>
       <g class="com.sun.star.drawing.LineShape">
        <g id="id15">
         <rect class="BoundingBox" stroke="none" fill="none" x="8513" y="6709" width="216" height="142"/>
         <path fill="none" stroke="rgb(229,229,229)" stroke-width="40" stroke-linejoin="round" d="M 8533,6830 L 8708,6729"/>
        </g>
       </g>
       <g class="com.sun.star.drawing.LineShape">
        <g id="id16">
         <rect class="BoundingBox" stroke="none" fill="none" x="8338" y="6608" width="216" height="142"/>
         <path fill="none" stroke="rgb(229,229,229)" stroke-width="40" stroke-linejoin="round" d="M 8358,6729 L 8533,6628"/>
        </g>
       </g>
       <g class="com.sun.star.drawing.LineShape">
        <g id="id17">
         <rect class="BoundingBox" stroke="none" fill="none" x="8425" y="6860" width="216" height="142"/>
         <path fill="none" stroke="rgb(229,229,229)" stroke-width="40" stroke-linejoin="round" d="M 8445,6981 L 8620,6880"/>
        </g>
       </g>
       <g class="com.sun.star.drawing.LineShape">
        <g id="id18">
         <rect class="BoundingBox" stroke="none" fill="none" x="8250" y="6759" width="216" height="142"/>
         <path fill="none" stroke="rgb(229,229,229)" stroke-width="40" stroke-linejoin="round" d="M 8270,6880 L 8445,6779"/>
        </g>
       </g>
       <g class="com.sun.star.drawing.LineShape">
        <g id="id19">
         <rect class="BoundingBox" stroke="none" fill="none" x="8076" y="6658" width="216" height="142"/>
         <path fill="none" stroke="rgb(229,229,229)" stroke-width="40" stroke-linejoin="round" d="M 8096,6779 L 8271,6678"/>
        </g>
       </g>
       <g class="com.sun.star.drawing.LineShape">
        <g id="id20">
         <rect class="BoundingBox" stroke="none" fill="none" x="8163" y="6507" width="216" height="142"/>
         <path fill="none" stroke="rgb(229,229,229)" stroke-width="40" stroke-linejoin="round" d="M 8183,6628 L 8358,6527"/>
        </g>
       </g>
       <g class="com.sun.star.drawing.LineShape">
        <g id="id21">
         <rect class="BoundingBox" stroke="none" fill="none" x="7901" y="6557" width="216" height="142"/>
         <path fill="none" stroke="rgb(229,229,229)" stroke-width="40" stroke-linejoin="round" d="M 7921,6678 L 8096,6577"/>
        </g>
       </g>
       <g class="com.sun.star.drawing.LineShape">
        <g id="id22">
         <rect class="BoundingBox" stroke="none" fill="none" x="7988" y="6406" width="216" height="142"/>
         <path fill="none" stroke="rgb(229,229,229)" stroke-width="40" stroke-linejoin="round" d="M 8008,6527 L 8183,6426"/>
        </g>
       </g>
       <g class="com.sun.star.drawing.LineShape">
        <g id="id23">
         <rect class="BoundingBox" stroke="none" fill="none" x="7813" y="6305" width="216" height="142"/>
         <path fill="none" stroke="rgb(229,229,229)" stroke-width="40" stroke-linejoin="round" d="M 7833,6426 L 8008,6325"/>
        </g>
       </g>
       <g class="com.sun.star.drawing.LineShape">
        <g id="id24">
         <rect class="BoundingBox" stroke="none" fill="none" x="7639" y="6204" width="216" height="142"/>
         <path fill="none" stroke="rgb(229,229,229)" stroke-width="40" stroke-linejoin="round" d="M 7659,6325 L 7834,6224"/>
        </g>
       </g>
       <g class="com.sun.star.drawing.LineShape">
        <g id="id25">
         <rect class="BoundingBox" stroke="none" fill="none" x="7726" y="6456" width="216" height="142"/>
         <path fill="none" stroke="rgb(229,229,229)" stroke-width="40" stroke-linejoin="round" d="M 7746,6577 L 7921,6476"/>
        </g>
       </g>
       <g class="com.sun.star.drawing.LineShape">
        <g id="id26">
         <rect class="BoundingBox" stroke="none" fill="none" x="7551" y="6355" width="216" height="142"/>
         <path fill="none" stroke="rgb(229,229,229)" stroke-width="40" stroke-linejoin="round" d="M 7571,6476 L 7746,6375"/>
        </g>
       </g>
       <g class="com.sun.star.drawing.LineShape">
        <g id="id27">
         <rect class="BoundingBox" stroke="none" fill="none" x="7377" y="6254" width="216" height="142"/>
         <path fill="none" stroke="rgb(229,229,229)" stroke-width="40" stroke-linejoin="round" d="M 7397,6375 L 7572,6274"/>
        </g>
       </g>
       <g class="com.sun.star.drawing.LineShape">
        <g id="id28">
         <rect class="BoundingBox" stroke="none" fill="none" x="7464" y="6103" width="216" height="142"/>
         <path fill="none" stroke="rgb(229,229,229)" stroke-width="40" stroke-linejoin="round" d="M 7484,6224 L 7659,6123"/>
        </g>
       </g>
       <g class="com.sun.star.drawing.LineShape">
        <g id="id29">
         <rect class="BoundingBox" stroke="none" fill="none" x="7202" y="6153" width="216" height="142"/>
         <path fill="none" stroke="rgb(229,229,229)" stroke-width="40" stroke-linejoin="round" d="M 7222,6274 L 7397,6173"/>
        </g>
       </g>
       <g class="com.sun.star.drawing.LineShape">
        <g id="id30">
         <rect class="BoundingBox" stroke="none" fill="none" x="7289" y="6002" width="216" height="142"/>
         <path fill="none" stroke="rgb(229,229,229)" stroke-width="40" stroke-linejoin="round" d="M 7309,6123 L 7484,6022"/>
        </g>
       </g>
       <g class="com.sun.star.drawing.LineShape">
        <g id="id31">
         <rect class="BoundingBox" stroke="none" fill="none" x="7114" y="5901" width="216" height="142"/>
         <path fill="none" stroke="rgb(229,229,229)" stroke-width="40" stroke-linejoin="round" d="M 7134,6022 L 7309,5921"/>
        </g>
       </g>
       <g class="com.sun.star.drawing.LineShape">
        <g id="id32">
         <rect class="BoundingBox" stroke="none" fill="none" x="7027" y="6052" width="216" height="142"/>
         <path fill="none" stroke="rgb(229,229,229)" stroke-width="40" stroke-linejoin="round" d="M 7047,6173 L 7222,6072"/>
        </g>
       </g>
       <g class="com.sun.star.drawing.LineShape">
        <g id="id33">
         <rect class="BoundingBox" stroke="none" fill="none" x="8163" y="6911" width="216" height="142"/>
         <path fill="none" stroke="rgb(229,229,229)" stroke-width="40" stroke-linejoin="round" d="M 8183,7032 L 8358,6931"/>
        </g>
       </g>
       <g class="com.sun.star.drawing.LineShape">
        <g id="id34">
         <rect class="BoundingBox" stroke="none" fill="none" x="7988" y="6810" width="216" height="142"/>
         <path fill="none" stroke="rgb(229,229,229)" stroke-width="40" stroke-linejoin="round" d="M 8008,6931 L 8183,6830"/>
        </g>
       </g>
       <g class="com.sun.star.drawing.LineShape">
        <g id="id35">
         <rect class="BoundingBox" stroke="none" fill="none" x="7813" y="6709" width="216" height="142"/>
         <path fill="none" stroke="rgb(229,229,229)" stroke-width="40" stroke-linejoin="round" d="M 7833,6830 L 8008,6729"/>
        </g>
       </g>
       <g class="com.sun.star.drawing.LineShape">
        <g id="id36">
         <rect class="BoundingBox" stroke="none" fill="none" x="7726" y="6860" width="216" height="142"/>
         <path fill="none" stroke="rgb(229,229,229)" stroke-width="40" stroke-linejoin="round" d="M 7746,6981 L 7921,6880"/>
        </g>
       </g>
       <g class="com.sun.star.drawing.LineShape">
        <g id="id37">
         <rect class="BoundingBox" stroke="none" fill="none" x="7551" y="6759" width="216" height="142"/>
         <path fill="none" stroke="rgb(229,229,229)" stroke-width="40" stroke-linejoin="round" d="M 7571,6880 L 7746,6779"/>
        </g>
       </g>
       <g class="com.sun.star.drawing.LineShape">
        <g id="id38">
         <rect class="BoundingBox" stroke="none" fill="none" x="7639" y="6608" width="216" height="142"/>
         <path fill="none" stroke="rgb(229,229,229)" stroke-width="40" stroke-linejoin="round" d="M 7659,6729 L 7834,6628"/>
        </g>
       </g>
       <g class="com.sun.star.drawing.LineShape">
        <g id="id39">
         <rect class="BoundingBox" stroke="none" fill="none" x="7464" y="6507" width="216" height="142"/>
         <path fill="none" stroke="rgb(229,229,229)" stroke-width="40" stroke-linejoin="round" d="M 7484,6628 L 7659,6527"/>
        </g>
       </g>
       <g class="com.sun.star.drawing.LineShape">
        <g id="id40">
         <rect class="BoundingBox" stroke="none" fill="none" x="7289" y="6406" width="216" height="142"/>
         <path fill="none" stroke="rgb(229,229,229)" stroke-width="40" stroke-linejoin="round" d="M 7309,6527 L 7484,6426"/>
        </g>
       </g>
       <g class="com.sun.star.drawing.LineShape">
        <g id="id41">
         <rect class="BoundingBox" stroke="none" fill="none" x="7114" y="6305" width="216" height="142"/>
         <path fill="none" stroke="rgb(229,229,229)" stroke-width="40" stroke-linejoin="round" d="M 7134,6426 L 7309,6325"/>
        </g>
       </g>
       <g class="com.sun.star.drawing.LineShape">
        <g id="id42">
         <rect class="BoundingBox" stroke="none" fill="none" x="6852" y="6355" width="216" height="142"/>
         <path fill="none" stroke="rgb(229,229,229)" stroke-width="40" stroke-linejoin="round" d="M 6872,6476 L 7047,6375"/>
        </g>
       </g>
       <g class="com.sun.star.drawing.LineShape">
        <g id="id43">
         <rect class="BoundingBox" stroke="none" fill="none" x="6940" y="6204" width="216" height="142"/>
         <path fill="none" stroke="rgb(229,229,229)" stroke-width="40" stroke-linejoin="round" d="M 6960,6325 L 7135,6224"/>
        </g>
       </g>
       <g class="com.sun.star.drawing.LineShape">
        <g id="id44">
         <rect class="BoundingBox" stroke="none" fill="none" x="6677" y="6254" width="216" height="142"/>
         <path fill="none" stroke="rgb(229,229,229)" stroke-width="40" stroke-linejoin="round" d="M 6697,6375 L 6872,6274"/>
        </g>
       </g>
       <g class="com.sun.star.drawing.LineShape">
        <g id="id45">
         <rect class="BoundingBox" stroke="none" fill="none" x="8076" y="7063" width="216" height="142"/>
         <path fill="none" stroke="rgb(229,229,229)" stroke-width="40" stroke-linejoin="round" d="M 8096,7184 L 8271,7083"/>
        </g>
       </g>
       <g class="com.sun.star.drawing.LineShape">
        <g id="id46">
         <rect class="BoundingBox" stroke="none" fill="none" x="7901" y="6961" width="216" height="142"/>
         <path fill="none" stroke="rgb(229,229,229)" stroke-width="40" stroke-linejoin="round" d="M 7921,7082 L 8096,6981"/>
        </g>
       </g>
       <g class="com.sun.star.drawing.PolyPolygonShape">
        <g id="id47">
         <rect class="BoundingBox" stroke="none" fill="none" x="5454" y="6506" width="2488" height="1709"/>
         <g>
          <defs>
           <linearGradient id="gradient5" x1="5474" y1="7360" x2="7921" y2="7360" gradientUnits="userSpaceOnUse">
            <stop offset="0.1" style="stop-color:rgb(179,179,179)"/>
            <stop offset="1" style="stop-color:rgb(229,229,229)"/>
           </linearGradient>
          </defs>
          <path style="fill:url(#gradient5)" d="M 5474,6780 L 5474,6527 7921,7941 7921,8194 5474,6780 Z"/>
         </g>
         <path fill="none" stroke="rgb(255,255,255)" stroke-width="40" stroke-linejoin="round" d="M 5474,6780 L 5474,6527 7921,7941 7921,8194 5474,6780 Z"/>
        </g>
       </g>
       <g class="com.sun.star.drawing.PolyPolygonShape">
        <g id="id48">
         <rect class="BoundingBox" stroke="none" fill="none" x="5454" y="3274" width="4236" height="4941"/>
         <path fill="none" stroke="rgb(0,0,0)" stroke-width="40" stroke-linejoin="round" d="M 7222,3294 L 9669,4708 9669,6931 9581,6981 9581,7234 7921,8194 5474,6779 5474,6527 7134,5567 7134,3345 7222,3294 Z"/>
        </g>
       </g>
       <g class="com.sun.star.drawing.PolyPolygonShape">
        <g id="id49">
         <rect class="BoundingBox" stroke="none" fill="none" x="6503" y="6658" width="1090" height="647"/>
         <path fill="rgb(179,179,179)" stroke="none" d="M 6523,6931 L 6960,6678 7572,7032 7135,7284 6523,6931 Z"/>
         <path fill="none" stroke="rgb(255,255,255)" stroke-width="40" stroke-linejoin="round" d="M 6523,6931 L 6960,6678 7572,7032 7135,7284 6523,6931 Z"/>
        </g>
       </g>
       <g class="com.sun.star.drawing.LineShape">
        <g id="id50">
         <rect class="BoundingBox" stroke="none" fill="none" x="8600" y="6961" width="216" height="142"/>
         <path fill="none" stroke="rgb(229,229,229)" stroke-width="40" stroke-linejoin="round" d="M 8620,7082 L 8795,6981"/>
        </g>
       </g>
       <g class="com.sun.star.drawing.LineShape">
        <g id="id51">
         <rect class="BoundingBox" stroke="none" fill="none" x="8338" y="7012" width="216" height="142"/>
         <path fill="none" stroke="rgb(229,229,229)" stroke-width="40" stroke-linejoin="round" d="M 8358,7133 L 8533,7032"/>
        </g>
       </g>
      </g>
     </g>
    </g>
   </g>
  </g>
 </g>
</svg>