<?xml version="1.0" encoding="UTF-8"?>
<!DOCTYPE svg PUBLIC "-//W3C//DTD SVG 1.1//EN" "http://www.w3.org/Graphics/SVG/1.1/DTD/svg11.dtd">
<svg version="1.2" width="10.57mm" height="16.55mm" viewBox="13502 16266 1057 1655" preserveAspectRatio="xMidYMid" fill-rule="evenodd" stroke-width="28.222" stroke-linejoin="round" xmlns="http://www.w3.org/2000/svg" xmlns:ooo="http://xml.openoffice.org/svg/export" xmlns:xlink="http://www.w3.org/1999/xlink" xmlns:presentation="http://sun.com/xmlns/staroffice/presentation" xmlns:smil="http://www.w3.org/2001/SMIL20/" xmlns:anim="urn:oasis:names:tc:opendocument:xmlns:animation:1.0" xml:space="preserve">
 <defs class="ClipPathGroup">
  <clipPath id="presentation_clip_path" clipPathUnits="userSpaceOnUse">
   <rect x="13502" y="16266" width="1057" height="1655"/>
  </clipPath>
 </defs>
 <defs class="TextShapeIndex">
  <g ooo:slide="id1" ooo:id-list="id3 id4 id5 id6 id7 id8 id9"/>
 </defs>
 <defs class="EmbeddedBulletChars">
  <g id="bullet-char-template(57356)" transform="scale(0.00048828125,-0.00048828125)">
   <path d="M 580,1141 L 1163,571 580,0 -4,571 580,1141 Z"/>
  </g>
  <g id="bullet-char-template(57354)" transform="scale(0.00048828125,-0.00048828125)">
   <path d="M 8,1128 L 1137,1128 1137,0 8,0 8,1128 Z"/>
  </g>
  <g id="bullet-char-template(10146)" transform="scale(0.00048828125,-0.00048828125)">
   <path d="M 174,0 L 602,739 174,1481 1456,739 174,0 Z M 1358,739 L 309,1346 659,739 1358,739 Z"/>
  </g>
  <g id="bullet-char-template(10132)" transform="scale(0.00048828125,-0.00048828125)">
   <path d="M 2015,739 L 1276,0 717,0 1260,543 174,543 174,936 1260,936 717,1481 1274,1481 2015,739 Z"/>
  </g>
  <g id="bullet-char-template(10007)" transform="scale(0.00048828125,-0.00048828125)">
   <path d="M 0,-2 C -7,14 -16,27 -25,37 L 356,567 C 262,823 215,952 215,954 215,979 228,992 255,992 264,992 276,990 289,987 310,991 331,999 354,1012 L 381,999 492,748 772,1049 836,1024 860,1049 C 881,1039 901,1025 922,1006 886,937 835,863 770,784 769,783 710,716 594,584 L 774,223 C 774,196 753,168 711,139 L 727,119 C 717,90 699,76 672,76 641,76 570,178 457,381 L 164,-76 C 142,-110 111,-127 72,-127 30,-127 9,-110 8,-76 1,-67 -2,-52 -2,-32 -2,-23 -1,-13 0,-2 Z"/>
  </g>
  <g id="bullet-char-template(10004)" transform="scale(0.00048828125,-0.00048828125)">
   <path d="M 285,-33 C 182,-33 111,30 74,156 52,228 41,333 41,471 41,549 55,616 82,672 116,743 169,778 240,778 293,778 328,747 346,684 L 369,508 C 377,444 397,411 428,410 L 1163,1116 C 1174,1127 1196,1133 1229,1133 1271,1133 1292,1118 1292,1087 L 1292,965 C 1292,929 1282,901 1262,881 L 442,47 C 390,-6 338,-33 285,-33 Z"/>
  </g>
  <g id="bullet-char-template(9679)" transform="scale(0.00048828125,-0.00048828125)">
   <path d="M 813,0 C 632,0 489,54 383,161 276,268 223,411 223,592 223,773 276,916 383,1023 489,1130 632,1184 813,1184 992,1184 1136,1130 1245,1023 1353,916 1407,772 1407,592 1407,412 1353,268 1245,161 1136,54 992,0 813,0 Z"/>
  </g>
  <g id="bullet-char-template(8226)" transform="scale(0.00048828125,-0.00048828125)">
   <path d="M 346,457 C 273,457 209,483 155,535 101,586 74,649 74,723 74,796 101,859 155,911 209,963 273,989 346,989 419,989 480,963 531,910 582,859 608,796 608,723 608,648 583,586 532,535 482,483 420,457 346,457 Z"/>
  </g>
  <g id="bullet-char-template(8211)" transform="scale(0.00048828125,-0.00048828125)">
   <path d="M -4,459 L 1135,459 1135,606 -4,606 -4,459 Z"/>
  </g>
 </defs>
 <defs class="TextEmbeddedBitmaps"/>
 <g class="SlideGroup">
  <g>
   <g id="id1" class="Slide" clip-path="url(#presentation_clip_path)">
    <g class="Page">
     <g class="Group">
      <g class="com.sun.star.drawing.ClosedBezierShape">
       <g id="id3">
        <rect class="BoundingBox" stroke="none" fill="none" x="14152" y="17526" width="409" height="397"/>
        <path fill="rgb(221,221,221)" stroke="none" d="M 14178,17901 C 14264,17896 14385,17896 14506,17826 14627,17756 14385,17546 14264,17546 14264,17546 14143,17903 14178,17901 Z"/>
        <path fill="none" stroke="rgb(221,221,221)" stroke-width="40" stroke-linejoin="round" d="M 14178,17901 C 14264,17896 14385,17896 14506,17826 14627,17756 14385,17546 14264,17546 14264,17546 14143,17903 14178,17901 Z"/>
       </g>
      </g>
      <g class="Group">
       <g class="com.sun.star.drawing.PolyPolygonShape">
        <g id="id4">
         <rect class="BoundingBox" stroke="none" fill="none" x="13502" y="16318" width="671" height="1599"/>
         <g>
          <defs>
           <linearGradient id="gradient1" x1="13520" y1="17117" x2="14152" y2="17117" gradientUnits="userSpaceOnUse">
            <stop offset="0.1" style="stop-color:rgb(51,51,51)"/>
            <stop offset="1" style="stop-color:rgb(153,153,153)"/>
           </linearGradient>
          </defs>
          <path style="fill:url(#gradient1)" d="M 13522,17533 L 13522,16338 14151,16702 14151,17896 13522,17533 Z"/>
         </g>
         <path fill="none" stroke="rgb(178,178,178)" stroke-width="40" stroke-linejoin="round" d="M 13522,17533 L 13522,16338 14151,16702 14151,17896 13522,17533 Z"/>
        </g>
       </g>
       <g class="com.sun.star.drawing.PolyPolygonShape">
        <g id="id5">
         <rect class="BoundingBox" stroke="none" fill="none" x="13591" y="16474" width="491" height="1133"/>
         <g>
          <defs>
           <linearGradient id="gradient2" x1="13611" y1="17039" x2="14062" y2="17039" gradientUnits="userSpaceOnUse">
            <stop offset="0.1" style="stop-color:rgb(147,212,240)"/>
            <stop offset="1" style="stop-color:rgb(233,246,252)"/>
           </linearGradient>
          </defs>
          <path style="fill:url(#gradient2)" d="M 13612,17325 L 13612,16494 14061,16754 14061,17585 13612,17325 Z"/>
         </g>
         <path fill="none" stroke="rgb(102,102,102)" stroke-width="40" stroke-linejoin="round" d="M 13612,17325 L 13612,16494 14061,16754 14061,17585 13612,17325 Z"/>
        </g>
       </g>
       <g class="com.sun.star.drawing.PolyPolygonShape">
        <g id="id6">
         <rect class="BoundingBox" stroke="none" fill="none" x="13501" y="16266" width="761" height="457"/>
         <g>
          <defs>
           <linearGradient id="gradient3" x1="13881" y1="16286" x2="13881" y2="16701" gradientUnits="userSpaceOnUse">
            <stop offset="0.1" style="stop-color:rgb(51,51,51)"/>
            <stop offset="1" style="stop-color:rgb(153,153,153)"/>
           </linearGradient>
          </defs>
          <path style="fill:url(#gradient3)" d="M 14151,16701 L 13522,16338 13612,16286 14241,16650 14151,16701 Z"/>
         </g>
         <path fill="none" stroke="rgb(178,178,178)" stroke-width="40" stroke-linejoin="round" d="M 14151,16701 L 13522,16338 13612,16286 14241,16650 14151,16701 Z"/>
        </g>
       </g>
       <g class="com.sun.star.drawing.PolyPolygonShape">
        <g id="id7">
         <rect class="BoundingBox" stroke="none" fill="none" x="14131" y="16630" width="132" height="1287"/>
         <g>
          <defs>
           <pattern id="pattern1" x="14151" y="16650" width="91" height="1247" patternUnits="userSpaceOnUse">
            <g transform="translate(-14151,-16650)">
             <path fill="rgb(51,51,51)" stroke="none" d="M 14150,16649 L 14242,16649 14242,17897 14150,17897 14150,16649 Z M 14131,16406 L 14222,16406 14222,17640 14131,17640 14131,16406 Z"/>
             <path fill="rgb(52,52,52)" stroke="none" d="M 14131,16406 L 14222,16406 14222,17640 14131,17640 14131,16406 Z M 14132,16413 L 14222,16413 14222,17633 14132,17633 14132,16413 Z"/>
             <path fill="rgb(53,53,53)" stroke="none" d="M 14132,16413 L 14222,16413 14222,17633 14132,17633 14132,16413 Z M 14132,16420 L 14221,16420 14221,17626 14132,17626 14132,16420 Z"/>
             <path fill="rgb(54,54,54)" stroke="none" d="M 14132,16420 L 14221,16420 14221,17626 14132,17626 14132,16420 Z M 14133,16426 L 14221,16426 14221,17620 14133,17620 14133,16426 Z"/>
             <path fill="rgb(55,55,55)" stroke="none" d="M 14133,16426 L 14221,16426 14221,17620 14133,17620 14133,16426 Z M 14133,16433 L 14220,16433 14220,17613 14133,17613 14133,16433 Z"/>
             <path fill="rgb(56,56,56)" stroke="none" d="M 14133,16433 L 14220,16433 14220,17613 14133,17613 14133,16433 Z M 14134,16440 L 14220,16440 14220,17606 14134,17606 14134,16440 Z"/>
             <path fill="rgb(57,57,57)" stroke="none" d="M 14134,16440 L 14220,16440 14220,17606 14134,17606 14134,16440 Z M 14134,16447 L 14219,16447 14219,17599 14134,17599 14134,16447 Z"/>
             <path fill="rgb(58,58,58)" stroke="none" d="M 14134,16447 L 14219,16447 14219,17599 14134,17599 14134,16447 Z M 14135,16453 L 14219,16453 14219,17593 14135,17593 14135,16453 Z"/>
             <path fill="rgb(59,59,59)" stroke="none" d="M 14135,16453 L 14219,16453 14219,17593 14135,17593 14135,16453 Z M 14135,16460 L 14218,16460 14218,17586 14135,17586 14135,16460 Z"/>
             <path fill="rgb(60,60,60)" stroke="none" d="M 14135,16460 L 14218,16460 14218,17586 14135,17586 14135,16460 Z M 14136,16467 L 14218,16467 14218,17579 14136,17579 14136,16467 Z"/>
             <path fill="rgb(61,61,61)" stroke="none" d="M 14136,16467 L 14218,16467 14218,17579 14136,17579 14136,16467 Z M 14136,16473 L 14217,16473 14217,17573 14136,17573 14136,16473 Z"/>
             <path fill="rgb(63,63,63)" stroke="none" d="M 14136,16473 L 14217,16473 14217,17573 14136,17573 14136,16473 Z M 14137,16480 L 14217,16480 14217,17566 14137,17566 14137,16480 Z"/>
             <path fill="rgb(64,64,64)" stroke="none" d="M 14137,16480 L 14217,16480 14217,17566 14137,17566 14137,16480 Z M 14137,16487 L 14216,16487 14216,17559 14137,17559 14137,16487 Z"/>
             <path fill="rgb(65,65,65)" stroke="none" d="M 14137,16487 L 14216,16487 14216,17559 14137,17559 14137,16487 Z M 14138,16494 L 14216,16494 14216,17552 14138,17552 14138,16494 Z"/>
             <path fill="rgb(66,66,66)" stroke="none" d="M 14138,16494 L 14216,16494 14216,17552 14138,17552 14138,16494 Z M 14138,16500 L 14215,16500 14215,17546 14138,17546 14138,16500 Z"/>
             <path fill="rgb(67,67,67)" stroke="none" d="M 14138,16500 L 14215,16500 14215,17546 14138,17546 14138,16500 Z M 14139,16507 L 14215,16507 14215,17539 14139,17539 14139,16507 Z"/>
             <path fill="rgb(68,68,68)" stroke="none" d="M 14139,16507 L 14215,16507 14215,17539 14139,17539 14139,16507 Z M 14139,16514 L 14214,16514 14214,17532 14139,17532 14139,16514 Z"/>
             <path fill="rgb(69,69,69)" stroke="none" d="M 14139,16514 L 14214,16514 14214,17532 14139,17532 14139,16514 Z M 14140,16520 L 14214,16520 14214,17526 14140,17526 14140,16520 Z"/>
             <path fill="rgb(70,70,70)" stroke="none" d="M 14140,16520 L 14214,16520 14214,17526 14140,17526 14140,16520 Z M 14140,16527 L 14213,16527 14213,17519 14140,17519 14140,16527 Z"/>
             <path fill="rgb(71,71,71)" stroke="none" d="M 14140,16527 L 14213,16527 14213,17519 14140,17519 14140,16527 Z M 14141,16534 L 14213,16534 14213,17512 14141,17512 14141,16534 Z"/>
             <path fill="rgb(72,72,72)" stroke="none" d="M 14141,16534 L 14213,16534 14213,17512 14141,17512 14141,16534 Z M 14141,16541 L 14212,16541 14212,17505 14141,17505 14141,16541 Z"/>
             <path fill="rgb(74,74,74)" stroke="none" d="M 14141,16541 L 14212,16541 14212,17505 14141,17505 14141,16541 Z M 14142,16547 L 14212,16547 14212,17499 14142,17499 14142,16547 Z"/>
             <path fill="rgb(75,75,75)" stroke="none" d="M 14142,16547 L 14212,16547 14212,17499 14142,17499 14142,16547 Z M 14142,16554 L 14211,16554 14211,17492 14142,17492 14142,16554 Z"/>
             <path fill="rgb(76,76,76)" stroke="none" d="M 14142,16554 L 14211,16554 14211,17492 14142,17492 14142,16554 Z M 14143,16561 L 14211,16561 14211,17485 14143,17485 14143,16561 Z"/>
             <path fill="rgb(77,77,77)" stroke="none" d="M 14143,16561 L 14211,16561 14211,17485 14143,17485 14143,16561 Z M 14143,16567 L 14210,16567 14210,17479 14143,17479 14143,16567 Z"/>
             <path fill="rgb(78,78,78)" stroke="none" d="M 14143,16567 L 14210,16567 14210,17479 14143,17479 14143,16567 Z M 14144,16574 L 14210,16574 14210,17472 14144,17472 14144,16574 Z"/>
             <path fill="rgb(79,79,79)" stroke="none" d="M 14144,16574 L 14210,16574 14210,17472 14144,17472 14144,16574 Z M 14144,16581 L 14209,16581 14209,17465 14144,17465 14144,16581 Z"/>
             <path fill="rgb(80,80,80)" stroke="none" d="M 14144,16581 L 14209,16581 14209,17465 14144,17465 14144,16581 Z M 14145,16588 L 14209,16588 14209,17458 14145,17458 14145,16588 Z"/>
             <path fill="rgb(81,81,81)" stroke="none" d="M 14145,16588 L 14209,16588 14209,17458 14145,17458 14145,16588 Z M 14145,16594 L 14208,16594 14208,17452 14145,17452 14145,16594 Z"/>
             <path fill="rgb(82,82,82)" stroke="none" d="M 14145,16594 L 14208,16594 14208,17452 14145,17452 14145,16594 Z M 14146,16601 L 14208,16601 14208,17445 14146,17445 14146,16601 Z"/>
             <path fill="rgb(83,83,83)" stroke="none" d="M 14146,16601 L 14208,16601 14208,17445 14146,17445 14146,16601 Z M 14146,16608 L 14207,16608 14207,17438 14146,17438 14146,16608 Z"/>
             <path fill="rgb(85,85,85)" stroke="none" d="M 14146,16608 L 14207,16608 14207,17438 14146,17438 14146,16608 Z M 14147,16614 L 14207,16614 14207,17432 14147,17432 14147,16614 Z"/>
             <path fill="rgb(86,86,86)" stroke="none" d="M 14147,16614 L 14207,16614 14207,17432 14147,17432 14147,16614 Z M 14147,16621 L 14206,16621 14206,17425 14147,17425 14147,16621 Z"/>
             <path fill="rgb(87,87,87)" stroke="none" d="M 14147,16621 L 14206,16621 14206,17425 14147,17425 14147,16621 Z M 14148,16628 L 14206,16628 14206,17418 14148,17418 14148,16628 Z"/>
             <path fill="rgb(88,88,88)" stroke="none" d="M 14148,16628 L 14206,16628 14206,17418 14148,17418 14148,16628 Z M 14148,16634 L 14205,16634 14205,17411 14148,17411 14148,16634 Z"/>
             <path fill="rgb(89,89,89)" stroke="none" d="M 14148,16634 L 14205,16634 14205,17411 14148,17411 14148,16634 Z M 14149,16640 L 14205,16640 14205,17405 14149,17405 14149,16640 Z"/>
             <path fill="rgb(90,90,90)" stroke="none" d="M 14149,16640 L 14205,16640 14205,17405 14149,17405 14149,16640 Z M 14149,16647 L 14204,16647 14204,17398 14149,17398 14149,16647 Z"/>
             <path fill="rgb(91,91,91)" stroke="none" d="M 14149,16647 L 14204,16647 14204,17398 14149,17398 14149,16647 Z M 14150,16654 L 14204,16654 14204,17391 14150,17391 14150,16654 Z"/>
             <path fill="rgb(92,92,92)" stroke="none" d="M 14150,16654 L 14204,16654 14204,17391 14150,17391 14150,16654 Z M 14150,16660 L 14203,16660 14203,17385 14150,17385 14150,16660 Z"/>
             <path fill="rgb(93,93,93)" stroke="none" d="M 14150,16660 L 14203,16660 14203,17385 14150,17385 14150,16660 Z M 14151,16667 L 14203,16667 14203,17378 14151,17378 14151,16667 Z"/>
             <path fill="rgb(94,94,94)" stroke="none" d="M 14151,16667 L 14203,16667 14203,17378 14151,17378 14151,16667 Z M 14151,16674 L 14202,16674 14202,17371 14151,17371 14151,16674 Z"/>
             <path fill="rgb(95,95,95)" stroke="none" d="M 14151,16674 L 14202,16674 14202,17371 14151,17371 14151,16674 Z M 14152,16681 L 14202,16681 14202,17364 14152,17364 14152,16681 Z"/>
             <path fill="rgb(97,97,97)" stroke="none" d="M 14152,16681 L 14202,16681 14202,17364 14152,17364 14152,16681 Z M 14152,16687 L 14201,16687 14201,17358 14152,17358 14152,16687 Z"/>
             <path fill="rgb(98,98,98)" stroke="none" d="M 14152,16687 L 14201,16687 14201,17358 14152,17358 14152,16687 Z M 14153,16694 L 14201,16694 14201,17351 14153,17351 14153,16694 Z"/>
             <path fill="rgb(99,99,99)" stroke="none" d="M 14153,16694 L 14201,16694 14201,17351 14153,17351 14153,16694 Z M 14153,16701 L 14200,16701 14200,17344 14153,17344 14153,16701 Z"/>
             <path fill="rgb(100,100,100)" stroke="none" d="M 14153,16701 L 14200,16701 14200,17344 14153,17344 14153,16701 Z M 14154,16707 L 14200,16707 14200,17338 14154,17338 14154,16707 Z"/>
             <path fill="rgb(101,101,101)" stroke="none" d="M 14154,16707 L 14200,16707 14200,17338 14154,17338 14154,16707 Z M 14154,16714 L 14199,16714 14199,17331 14154,17331 14154,16714 Z"/>
             <path fill="rgb(102,102,102)" stroke="none" d="M 14154,16714 L 14199,16714 14199,17331 14154,17331 14154,16714 Z M 14155,16721 L 14199,16721 14199,17324 14155,17324 14155,16721 Z"/>
             <path fill="rgb(103,103,103)" stroke="none" d="M 14155,16721 L 14199,16721 14199,17324 14155,17324 14155,16721 Z M 14155,16728 L 14198,16728 14198,17317 14155,17317 14155,16728 Z"/>
             <path fill="rgb(104,104,104)" stroke="none" d="M 14155,16728 L 14198,16728 14198,17317 14155,17317 14155,16728 Z M 14156,16734 L 14198,16734 14198,17311 14156,17311 14156,16734 Z"/>
             <path fill="rgb(105,105,105)" stroke="none" d="M 14156,16734 L 14198,16734 14198,17311 14156,17311 14156,16734 Z M 14156,16741 L 14197,16741 14197,17304 14156,17304 14156,16741 Z"/>
             <path fill="rgb(106,106,106)" stroke="none" d="M 14156,16741 L 14197,16741 14197,17304 14156,17304 14156,16741 Z M 14157,16748 L 14197,16748 14197,17297 14157,17297 14157,16748 Z"/>
             <path fill="rgb(108,108,108)" stroke="none" d="M 14157,16748 L 14197,16748 14197,17297 14157,17297 14157,16748 Z M 14157,16754 L 14196,16754 14196,17291 14157,17291 14157,16754 Z"/>
             <path fill="rgb(109,109,109)" stroke="none" d="M 14157,16754 L 14196,16754 14196,17291 14157,17291 14157,16754 Z M 14158,16761 L 14196,16761 14196,17284 14158,17284 14158,16761 Z"/>
             <path fill="rgb(110,110,110)" stroke="none" d="M 14158,16761 L 14196,16761 14196,17284 14158,17284 14158,16761 Z M 14158,16768 L 14195,16768 14195,17277 14158,17277 14158,16768 Z"/>
             <path fill="rgb(111,111,111)" stroke="none" d="M 14158,16768 L 14195,16768 14195,17277 14158,17277 14158,16768 Z M 14159,16775 L 14195,16775 14195,17270 14159,17270 14159,16775 Z"/>
             <path fill="rgb(112,112,112)" stroke="none" d="M 14159,16775 L 14195,16775 14195,17270 14159,17270 14159,16775 Z M 14159,16781 L 14194,16781 14194,17264 14159,17264 14159,16781 Z"/>
             <path fill="rgb(113,113,113)" stroke="none" d="M 14159,16781 L 14194,16781 14194,17264 14159,17264 14159,16781 Z M 14160,16788 L 14194,16788 14194,17257 14160,17257 14160,16788 Z"/>
             <path fill="rgb(114,114,114)" stroke="none" d="M 14160,16788 L 14194,16788 14194,17257 14160,17257 14160,16788 Z M 14160,16795 L 14193,16795 14193,17250 14160,17250 14160,16795 Z"/>
             <path fill="rgb(115,115,115)" stroke="none" d="M 14160,16795 L 14193,16795 14193,17250 14160,17250 14160,16795 Z M 14161,16801 L 14193,16801 14193,17244 14161,17244 14161,16801 Z"/>
             <path fill="rgb(116,116,116)" stroke="none" d="M 14161,16801 L 14193,16801 14193,17244 14161,17244 14161,16801 Z M 14161,16808 L 14192,16808 14192,17237 14161,17237 14161,16808 Z"/>
             <path fill="rgb(117,117,117)" stroke="none" d="M 14161,16808 L 14192,16808 14192,17237 14161,17237 14161,16808 Z M 14162,16815 L 14192,16815 14192,17230 14162,17230 14162,16815 Z"/>
             <path fill="rgb(119,119,119)" stroke="none" d="M 14162,16815 L 14192,16815 14192,17230 14162,17230 14162,16815 Z M 14162,16822 L 14191,16822 14191,17223 14162,17223 14162,16822 Z"/>
             <path fill="rgb(120,120,120)" stroke="none" d="M 14162,16822 L 14191,16822 14191,17223 14162,17223 14162,16822 Z M 14163,16828 L 14191,16828 14191,17217 14163,17217 14163,16828 Z"/>
             <path fill="rgb(121,121,121)" stroke="none" d="M 14163,16828 L 14191,16828 14191,17217 14163,17217 14163,16828 Z M 14163,16835 L 14190,16835 14190,17210 14163,17210 14163,16835 Z"/>
             <path fill="rgb(122,122,122)" stroke="none" d="M 14163,16835 L 14190,16835 14190,17210 14163,17210 14163,16835 Z M 14164,16842 L 14190,16842 14190,17203 14164,17203 14164,16842 Z"/>
             <path fill="rgb(123,123,123)" stroke="none" d="M 14164,16842 L 14190,16842 14190,17203 14164,17203 14164,16842 Z M 14164,16848 L 14189,16848 14189,17197 14164,17197 14164,16848 Z"/>
             <path fill="rgb(124,124,124)" stroke="none" d="M 14164,16848 L 14189,16848 14189,17197 14164,17197 14164,16848 Z M 14165,16855 L 14189,16855 14189,17190 14165,17190 14165,16855 Z"/>
             <path fill="rgb(125,125,125)" stroke="none" d="M 14165,16855 L 14189,16855 14189,17190 14165,17190 14165,16855 Z M 14165,16862 L 14188,16862 14188,17183 14165,17183 14165,16862 Z"/>
             <path fill="rgb(126,126,126)" stroke="none" d="M 14165,16862 L 14188,16862 14188,17183 14165,17183 14165,16862 Z M 14166,16869 L 14188,16869 14188,17176 14166,17176 14166,16869 Z"/>
             <path fill="rgb(127,127,127)" stroke="none" d="M 14166,16869 L 14188,16869 14188,17176 14166,17176 14166,16869 Z M 14166,16875 L 14187,16875 14187,17170 14166,17170 14166,16875 Z"/>
             <path fill="rgb(128,128,128)" stroke="none" d="M 14166,16875 L 14187,16875 14187,17170 14166,17170 14166,16875 Z M 14167,16882 L 14187,16882 14187,17163 14167,17163 14167,16882 Z"/>
             <path fill="rgb(129,129,129)" stroke="none" d="M 14167,16882 L 14187,16882 14187,17163 14167,17163 14167,16882 Z M 14167,16889 L 14186,16889 14186,17156 14167,17156 14167,16889 Z"/>
             <path fill="rgb(131,131,131)" stroke="none" d="M 14167,16889 L 14186,16889 14186,17156 14167,17156 14167,16889 Z M 14168,16895 L 14186,16895 14186,17150 14168,17150 14168,16895 Z"/>
             <path fill="rgb(132,132,132)" stroke="none" d="M 14168,16895 L 14186,16895 14186,17150 14168,17150 14168,16895 Z M 14168,16902 L 14185,16902 14185,17143 14168,17143 14168,16902 Z"/>
             <path fill="rgb(133,133,133)" stroke="none" d="M 14168,16902 L 14185,16902 14185,17143 14168,17143 14168,16902 Z M 14169,16909 L 14185,16909 14185,17136 14169,17136 14169,16909 Z"/>
             <path fill="rgb(134,134,134)" stroke="none" d="M 14169,16909 L 14185,16909 14185,17136 14169,17136 14169,16909 Z M 14169,16916 L 14184,16916 14184,17129 14169,17129 14169,16916 Z"/>
             <path fill="rgb(135,135,135)" stroke="none" d="M 14169,16916 L 14184,16916 14184,17129 14169,17129 14169,16916 Z M 14170,16922 L 14184,16922 14184,17123 14170,17123 14170,16922 Z"/>
             <path fill="rgb(136,136,136)" stroke="none" d="M 14170,16922 L 14184,16922 14184,17123 14170,17123 14170,16922 Z M 14170,16929 L 14183,16929 14183,17116 14170,17116 14170,16929 Z"/>
             <path fill="rgb(137,137,137)" stroke="none" d="M 14170,16929 L 14183,16929 14183,17116 14170,17116 14170,16929 Z M 14171,16936 L 14183,16936 14183,17109 14171,17109 14171,16936 Z"/>
             <path fill="rgb(138,138,138)" stroke="none" d="M 14171,16936 L 14183,16936 14183,17109 14171,17109 14171,16936 Z M 14171,16942 L 14182,16942 14182,17103 14171,17103 14171,16942 Z"/>
             <path fill="rgb(139,139,139)" stroke="none" d="M 14171,16942 L 14182,16942 14182,17103 14171,17103 14171,16942 Z M 14172,16949 L 14182,16949 14182,17096 14172,17096 14172,16949 Z"/>
             <path fill="rgb(140,140,140)" stroke="none" d="M 14172,16949 L 14182,16949 14182,17096 14172,17096 14172,16949 Z M 14172,16956 L 14181,16956 14181,17089 14172,17089 14172,16956 Z"/>
             <path fill="rgb(142,142,142)" stroke="none" d="M 14172,16956 L 14181,16956 14181,17089 14172,17089 14172,16956 Z M 14173,16963 L 14181,16963 14181,17082 14173,17082 14173,16963 Z"/>
             <path fill="rgb(143,143,143)" stroke="none" d="M 14173,16963 L 14181,16963 14181,17082 14173,17082 14173,16963 Z M 14173,16969 L 14180,16969 14180,17076 14173,17076 14173,16969 Z"/>
             <path fill="rgb(144,144,144)" stroke="none" d="M 14173,16969 L 14180,16969 14180,17076 14173,17076 14173,16969 Z M 14174,16976 L 14180,16976 14180,17069 14174,17069 14174,16976 Z"/>
             <path fill="rgb(145,145,145)" stroke="none" d="M 14174,16976 L 14180,16976 14180,17069 14174,17069 14174,16976 Z M 14174,16983 L 14179,16983 14179,17062 14174,17062 14174,16983 Z"/>
             <path fill="rgb(146,146,146)" stroke="none" d="M 14174,16983 L 14179,16983 14179,17062 14174,17062 14174,16983 Z M 14175,16989 L 14179,16989 14179,17056 14175,17056 14175,16989 Z"/>
             <path fill="rgb(147,147,147)" stroke="none" d="M 14175,16989 L 14179,16989 14179,17056 14175,17056 14175,16989 Z M 14175,16996 L 14178,16996 14178,17049 14175,17049 14175,16996 Z"/>
             <path fill="rgb(148,148,148)" stroke="none" d="M 14175,16996 L 14178,16996 14178,17049 14175,17049 14175,16996 Z M 14176,17003 L 14178,17003 14178,17042 14176,17042 14176,17003 Z"/>
             <path fill="rgb(149,149,149)" stroke="none" d="M 14176,17003 L 14178,17003 14178,17042 14176,17042 14176,17003 Z M 14176,17010 L 14177,17010 14177,17035 14176,17035 14176,17010 Z"/>
             <path fill="rgb(153,153,153)" stroke="none" d="M 14176,17010 L 14177,17010 14177,17035 14176,17035 14176,17010 Z"/>
            </g>
           </pattern>
          </defs>
          <path style="fill:url(#pattern1)" d="M 14151,17896 L 14151,16702 14241,16650 14241,17845 14151,17896 Z"/>
         </g>
         <path fill="none" stroke="rgb(178,178,178)" stroke-width="40" stroke-linejoin="round" d="M 14151,17896 L 14151,16702 14241,16650 14241,17845 14151,17896 Z"/>
        </g>
       </g>
       <g class="com.sun.star.drawing.PolyPolygonShape">
        <g id="id8">
         <rect class="BoundingBox" stroke="none" fill="none" x="13501" y="16266" width="761" height="1651"/>
         <path fill="none" stroke="rgb(0,0,0)" stroke-width="40" stroke-linejoin="round" d="M 13612,16286 L 14241,16650 14241,17844 14151,17896 13522,17532 13522,16338 13612,16286 Z"/>
        </g>
       </g>
       <g class="com.sun.star.drawing.LineShape">
        <g id="id9">
         <rect class="BoundingBox" stroke="none" fill="none" x="13682" y="17461" width="311" height="197"/>
         <path fill="none" stroke="rgb(102,102,102)" stroke-width="40" stroke-linejoin="round" d="M 13702,17481 L 13972,17637"/>
        </g>
       </g>
      </g>
     </g>
    </g>
   </g>
  </g>
 </g>
</svg>