<?xml version="1.0" encoding="UTF-8"?>
<!DOCTYPE svg PUBLIC "-//W3C//DTD SVG 1.1//EN" "http://www.w3.org/Graphics/SVG/1.1/DTD/svg11.dtd">
<svg version="1.2" width="9.65mm" height="16.5mm" viewBox="11807 20063 965 1650" preserveAspectRatio="xMidYMid" fill-rule="evenodd" stroke-width="28.222" stroke-linejoin="round" xmlns="http://www.w3.org/2000/svg" xmlns:ooo="http://xml.openoffice.org/svg/export" xmlns:xlink="http://www.w3.org/1999/xlink" xmlns:presentation="http://sun.com/xmlns/staroffice/presentation" xmlns:smil="http://www.w3.org/2001/SMIL20/" xmlns:anim="urn:oasis:names:tc:opendocument:xmlns:animation:1.0" xml:space="preserve">
 <defs class="ClipPathGroup">
  <clipPath id="presentation_clip_path" clipPathUnits="userSpaceOnUse">
   <rect x="11807" y="20063" width="965" height="1650"/>
  </clipPath>
 </defs>
 <defs class="TextShapeIndex">
  <g ooo:slide="id1" ooo:id-list="id3 id4 id5 id6 id7 id8 id9"/>
 </defs>
 <defs class="EmbeddedBulletChars">
  <g id="bullet-char-template(57356)" transform="scale(0.00048828125,-0.00048828125)">
   <path d="M 580,1141 L 1163,571 580,0 -4,571 580,1141 Z"/>
  </g>
  <g id="bullet-char-template(57354)" transform="scale(0.00048828125,-0.00048828125)">
   <path d="M 8,1128 L 1137,1128 1137,0 8,0 8,1128 Z"/>
  </g>
  <g id="bullet-char-template(10146)" transform="scale(0.00048828125,-0.00048828125)">
   <path d="M 174,0 L 602,739 174,1481 1456,739 174,0 Z M 1358,739 L 309,1346 659,739 1358,739 Z"/>
  </g>
  <g id="bullet-char-template(10132)" transform="scale(0.00048828125,-0.00048828125)">
   <path d="M 2015,739 L 1276,0 717,0 1260,543 174,543 174,936 1260,936 717,1481 1274,1481 2015,739 Z"/>
  </g>
  <g id="bullet-char-template(10007)" transform="scale(0.00048828125,-0.00048828125)">
   <path d="M 0,-2 C -7,14 -16,27 -25,37 L 356,567 C 262,823 215,952 215,954 215,979 228,992 255,992 264,992 276,990 289,987 310,991 331,999 354,1012 L 381,999 492,748 772,1049 836,1024 860,1049 C 881,1039 901,1025 922,1006 886,937 835,863 770,784 769,783 710,716 594,584 L 774,223 C 774,196 753,168 711,139 L 727,119 C 717,90 699,76 672,76 641,76 570,178 457,381 L 164,-76 C 142,-110 111,-127 72,-127 30,-127 9,-110 8,-76 1,-67 -2,-52 -2,-32 -2,-23 -1,-13 0,-2 Z"/>
  </g>
  <g id="bullet-char-template(10004)" transform="scale(0.00048828125,-0.00048828125)">
   <path d="M 285,-33 C 182,-33 111,30 74,156 52,228 41,333 41,471 41,549 55,616 82,672 116,743 169,778 240,778 293,778 328,747 346,684 L 369,508 C 377,444 397,411 428,410 L 1163,1116 C 1174,1127 1196,1133 1229,1133 1271,1133 1292,1118 1292,1087 L 1292,965 C 1292,929 1282,901 1262,881 L 442,47 C 390,-6 338,-33 285,-33 Z"/>
  </g>
  <g id="bullet-char-template(9679)" transform="scale(0.00048828125,-0.00048828125)">
   <path d="M 813,0 C 632,0 489,54 383,161 276,268 223,411 223,592 223,773 276,916 383,1023 489,1130 632,1184 813,1184 992,1184 1136,1130 1245,1023 1353,916 1407,772 1407,592 1407,412 1353,268 1245,161 1136,54 992,0 813,0 Z"/>
  </g>
  <g id="bullet-char-template(8226)" transform="scale(0.00048828125,-0.00048828125)">
   <path d="M 346,457 C 273,457 209,483 155,535 101,586 74,649 74,723 74,796 101,859 155,911 209,963 273,989 346,989 419,989 480,963 531,910 582,859 608,796 608,723 608,648 583,586 532,535 482,483 420,457 346,457 Z"/>
  </g>
  <g id="bullet-char-template(8211)" transform="scale(0.00048828125,-0.00048828125)">
   <path d="M -4,459 L 1135,459 1135,606 -4,606 -4,459 Z"/>
  </g>
 </defs>
 <defs class="TextEmbeddedBitmaps"/>
 <g class="SlideGroup">
  <g>
   <g id="id1" class="Slide" clip-path="url(#presentation_clip_path)">
    <g class="Page">
     <g class="Group">
      <g class="com.sun.star.drawing.ClosedBezierShape">
       <g id="id3">
        <rect class="BoundingBox" stroke="none" fill="none" x="12095" y="21118" width="678" height="462"/>
        <path fill="rgb(221,221,221)" stroke="none" d="M 12118,21558 C 12204,21553 12574,21483 12695,21413 12816,21343 12724,21138 12603,21138 12482,21138 12083,21560 12118,21558 Z"/>
        <path fill="none" stroke="rgb(221,221,221)" stroke-width="40" stroke-linejoin="round" d="M 12118,21558 C 12204,21553 12574,21483 12695,21413 12816,21343 12724,21138 12603,21138 12482,21138 12083,21560 12118,21558 Z"/>
       </g>
      </g>
      <g class="Group">
       <g class="com.sun.star.drawing.PolyPolygonShape">
        <g id="id4">
         <rect class="BoundingBox" stroke="none" fill="none" x="11897" y="20115" width="670" height="1599"/>
         <g>
          <defs>
           <pattern id="pattern1" x="11917" y="20135" width="630" height="1559" patternUnits="userSpaceOnUse">
            <g transform="translate(-11917,-20135)">
             <path fill="rgb(102,102,102)" stroke="none" d="M 11916,20134 L 12547,20134 12547,21694 11916,21694 11916,20134 Z M 11796,19838 L 12413,19838 12413,21366 11796,21366 11796,19838 Z"/>
             <path fill="rgb(103,103,103)" stroke="none" d="M 11796,19838 L 12413,19838 12413,21366 11796,21366 11796,19838 Z M 11802,19853 L 12407,19853 12407,21351 11802,21351 11802,19853 Z"/>
             <path fill="rgb(104,104,104)" stroke="none" d="M 11802,19853 L 12407,19853 12407,21351 11802,21351 11802,19853 Z M 11808,19868 L 12401,19868 12401,21336 11808,21336 11808,19868 Z"/>
             <path fill="rgb(105,105,105)" stroke="none" d="M 11808,19868 L 12401,19868 12401,21336 11808,21336 11808,19868 Z M 11814,19884 L 12395,19884 12395,21320 11814,21320 11814,19884 Z"/>
             <path fill="rgb(106,106,106)" stroke="none" d="M 11814,19884 L 12395,19884 12395,21320 11814,21320 11814,19884 Z M 11820,19899 L 12389,19899 12389,21305 11820,21305 11820,19899 Z"/>
             <path fill="rgb(107,107,107)" stroke="none" d="M 11820,19899 L 12389,19899 12389,21305 11820,21305 11820,19899 Z M 11827,19914 L 12382,19914 12382,21290 11827,21290 11827,19914 Z"/>
             <path fill="rgb(108,108,108)" stroke="none" d="M 11827,19914 L 12382,19914 12382,21290 11827,21290 11827,19914 Z M 11833,19930 L 12376,19930 12376,21274 11833,21274 11833,19930 Z"/>
             <path fill="rgb(109,109,109)" stroke="none" d="M 11833,19930 L 12376,19930 12376,21274 11833,21274 11833,19930 Z M 11839,19945 L 12370,19945 12370,21259 11839,21259 11839,19945 Z"/>
             <path fill="rgb(110,110,110)" stroke="none" d="M 11839,19945 L 12370,19945 12370,21259 11839,21259 11839,19945 Z M 11845,19960 L 12364,19960 12364,21244 11845,21244 11845,19960 Z"/>
             <path fill="rgb(111,111,111)" stroke="none" d="M 11845,19960 L 12364,19960 12364,21244 11845,21244 11845,19960 Z M 11851,19976 L 12358,19976 12358,21228 11851,21228 11851,19976 Z"/>
             <path fill="rgb(112,112,112)" stroke="none" d="M 11851,19976 L 12358,19976 12358,21228 11851,21228 11851,19976 Z M 11858,19991 L 12351,19991 12351,21213 11858,21213 11858,19991 Z"/>
             <path fill="rgb(113,113,113)" stroke="none" d="M 11858,19991 L 12351,19991 12351,21213 11858,21213 11858,19991 Z M 11864,20006 L 12345,20006 12345,21198 11864,21198 11864,20006 Z"/>
             <path fill="rgb(114,114,114)" stroke="none" d="M 11864,20006 L 12345,20006 12345,21198 11864,21198 11864,20006 Z M 11870,20021 L 12339,20021 12339,21183 11870,21183 11870,20021 Z"/>
             <path fill="rgb(115,115,115)" stroke="none" d="M 11870,20021 L 12339,20021 12339,21183 11870,21183 11870,20021 Z M 11876,20037 L 12333,20037 12333,21167 11876,21167 11876,20037 Z"/>
             <path fill="rgb(116,116,116)" stroke="none" d="M 11876,20037 L 12333,20037 12333,21167 11876,21167 11876,20037 Z M 11882,20052 L 12327,20052 12327,21152 11882,21152 11882,20052 Z"/>
             <path fill="rgb(117,117,117)" stroke="none" d="M 11882,20052 L 12327,20052 12327,21152 11882,21152 11882,20052 Z M 11889,20067 L 12320,20067 12320,21137 11889,21137 11889,20067 Z"/>
             <path fill="rgb(118,118,118)" stroke="none" d="M 11889,20067 L 12320,20067 12320,21137 11889,21137 11889,20067 Z M 11895,20083 L 12314,20083 12314,21121 11895,21121 11895,20083 Z"/>
             <path fill="rgb(119,119,119)" stroke="none" d="M 11895,20083 L 12314,20083 12314,21121 11895,21121 11895,20083 Z M 11900,20098 L 12308,20098 12308,21106 11900,21106 11900,20098 Z"/>
             <path fill="rgb(120,120,120)" stroke="none" d="M 11900,20098 L 12308,20098 12308,21106 11900,21106 11900,20098 Z M 11906,20113 L 12302,20113 12302,21091 11906,21091 11906,20113 Z"/>
             <path fill="rgb(121,121,121)" stroke="none" d="M 11906,20113 L 12302,20113 12302,21091 11906,21091 11906,20113 Z M 11912,20128 L 12296,20128 12296,21075 11912,21075 11912,20128 Z"/>
             <path fill="rgb(122,122,122)" stroke="none" d="M 11912,20128 L 12296,20128 12296,21075 11912,21075 11912,20128 Z M 11919,20143 L 12289,20143 12289,21060 11919,21060 11919,20143 Z"/>
             <path fill="rgb(123,123,123)" stroke="none" d="M 11919,20143 L 12289,20143 12289,21060 11919,21060 11919,20143 Z M 11925,20158 L 12283,20158 12283,21045 11925,21045 11925,20158 Z"/>
             <path fill="rgb(124,124,124)" stroke="none" d="M 11925,20158 L 12283,20158 12283,21045 11925,21045 11925,20158 Z M 11931,20173 L 12277,20173 12277,21030 11931,21030 11931,20173 Z"/>
             <path fill="rgb(125,125,125)" stroke="none" d="M 11931,20173 L 12277,20173 12277,21030 11931,21030 11931,20173 Z M 11937,20189 L 12271,20189 12271,21014 11937,21014 11937,20189 Z"/>
             <path fill="rgb(126,126,126)" stroke="none" d="M 11937,20189 L 12271,20189 12271,21014 11937,21014 11937,20189 Z M 11943,20204 L 12265,20204 12265,20999 11943,20999 11943,20204 Z"/>
             <path fill="rgb(127,127,127)" stroke="none" d="M 11943,20204 L 12265,20204 12265,20999 11943,20999 11943,20204 Z M 11950,20219 L 12258,20219 12258,20984 11950,20984 11950,20219 Z"/>
             <path fill="rgb(128,128,128)" stroke="none" d="M 11950,20219 L 12258,20219 12258,20984 11950,20984 11950,20219 Z M 11956,20235 L 12252,20235 12252,20968 11956,20968 11956,20235 Z"/>
             <path fill="rgb(129,129,129)" stroke="none" d="M 11956,20235 L 12252,20235 12252,20968 11956,20968 11956,20235 Z M 11962,20250 L 12246,20250 12246,20953 11962,20953 11962,20250 Z"/>
             <path fill="rgb(130,130,130)" stroke="none" d="M 11962,20250 L 12246,20250 12246,20953 11962,20953 11962,20250 Z M 11968,20265 L 12240,20265 12240,20938 11968,20938 11968,20265 Z"/>
             <path fill="rgb(131,131,131)" stroke="none" d="M 11968,20265 L 12240,20265 12240,20938 11968,20938 11968,20265 Z M 11974,20281 L 12234,20281 12234,20922 11974,20922 11974,20281 Z"/>
             <path fill="rgb(132,132,132)" stroke="none" d="M 11974,20281 L 12234,20281 12234,20922 11974,20922 11974,20281 Z M 11981,20296 L 12227,20296 12227,20907 11981,20907 11981,20296 Z"/>
             <path fill="rgb(133,133,133)" stroke="none" d="M 11981,20296 L 12227,20296 12227,20907 11981,20907 11981,20296 Z M 11987,20311 L 12221,20311 12221,20892 11987,20892 11987,20311 Z"/>
             <path fill="rgb(134,134,134)" stroke="none" d="M 11987,20311 L 12221,20311 12221,20892 11987,20892 11987,20311 Z M 11993,20327 L 12215,20327 12215,20876 11993,20876 11993,20327 Z"/>
             <path fill="rgb(135,135,135)" stroke="none" d="M 11993,20327 L 12215,20327 12215,20876 11993,20876 11993,20327 Z M 11999,20342 L 12209,20342 12209,20861 11999,20861 11999,20342 Z"/>
             <path fill="rgb(136,136,136)" stroke="none" d="M 11999,20342 L 12209,20342 12209,20861 11999,20861 11999,20342 Z M 12005,20357 L 12203,20357 12203,20846 12005,20846 12005,20357 Z"/>
             <path fill="rgb(137,137,137)" stroke="none" d="M 12005,20357 L 12203,20357 12203,20846 12005,20846 12005,20357 Z M 12012,20372 L 12196,20372 12196,20831 12012,20831 12012,20372 Z"/>
             <path fill="rgb(138,138,138)" stroke="none" d="M 12012,20372 L 12196,20372 12196,20831 12012,20831 12012,20372 Z M 12018,20388 L 12190,20388 12190,20815 12018,20815 12018,20388 Z"/>
             <path fill="rgb(139,139,139)" stroke="none" d="M 12018,20388 L 12190,20388 12190,20815 12018,20815 12018,20388 Z M 12024,20403 L 12184,20403 12184,20800 12024,20800 12024,20403 Z"/>
             <path fill="rgb(140,140,140)" stroke="none" d="M 12024,20403 L 12184,20403 12184,20800 12024,20800 12024,20403 Z M 12030,20418 L 12178,20418 12178,20785 12030,20785 12030,20418 Z"/>
             <path fill="rgb(141,141,141)" stroke="none" d="M 12030,20418 L 12178,20418 12178,20785 12030,20785 12030,20418 Z M 12036,20434 L 12172,20434 12172,20769 12036,20769 12036,20434 Z"/>
             <path fill="rgb(142,142,142)" stroke="none" d="M 12036,20434 L 12172,20434 12172,20769 12036,20769 12036,20434 Z M 12043,20449 L 12165,20449 12165,20754 12043,20754 12043,20449 Z"/>
             <path fill="rgb(143,143,143)" stroke="none" d="M 12043,20449 L 12165,20449 12165,20754 12043,20754 12043,20449 Z M 12049,20464 L 12159,20464 12159,20739 12049,20739 12049,20464 Z"/>
             <path fill="rgb(144,144,144)" stroke="none" d="M 12049,20464 L 12159,20464 12159,20739 12049,20739 12049,20464 Z M 12055,20480 L 12153,20480 12153,20723 12055,20723 12055,20480 Z"/>
             <path fill="rgb(145,145,145)" stroke="none" d="M 12055,20480 L 12153,20480 12153,20723 12055,20723 12055,20480 Z M 12061,20495 L 12147,20495 12147,20708 12061,20708 12061,20495 Z"/>
             <path fill="rgb(146,146,146)" stroke="none" d="M 12061,20495 L 12147,20495 12147,20708 12061,20708 12061,20495 Z M 12067,20510 L 12141,20510 12141,20693 12067,20693 12067,20510 Z"/>
             <path fill="rgb(147,147,147)" stroke="none" d="M 12067,20510 L 12141,20510 12141,20693 12067,20693 12067,20510 Z M 12074,20525 L 12134,20525 12134,20678 12074,20678 12074,20525 Z"/>
             <path fill="rgb(148,148,148)" stroke="none" d="M 12074,20525 L 12134,20525 12134,20678 12074,20678 12074,20525 Z M 12080,20541 L 12128,20541 12128,20662 12080,20662 12080,20541 Z"/>
             <path fill="rgb(149,149,149)" stroke="none" d="M 12080,20541 L 12128,20541 12128,20662 12080,20662 12080,20541 Z M 12086,20556 L 12122,20556 12122,20647 12086,20647 12086,20556 Z"/>
             <path fill="rgb(150,150,150)" stroke="none" d="M 12086,20556 L 12122,20556 12122,20647 12086,20647 12086,20556 Z M 12092,20571 L 12116,20571 12116,20632 12092,20632 12092,20571 Z"/>
             <path fill="rgb(151,151,151)" stroke="none" d="M 12092,20571 L 12116,20571 12116,20632 12092,20632 12092,20571 Z M 12098,20587 L 12110,20587 12110,20616 12098,20616 12098,20587 Z"/>
             <path fill="rgb(153,153,153)" stroke="none" d="M 12098,20587 L 12110,20587 12110,20616 12098,20616 12098,20587 Z"/>
            </g>
           </pattern>
          </defs>
          <path style="fill:url(#pattern1)" d="M 12546,21330 L 12546,20135 11917,20499 11917,21693 12546,21330 Z"/>
         </g>
         <path fill="none" stroke="rgb(178,178,178)" stroke-width="40" stroke-linejoin="round" d="M 12546,21330 L 12546,20135 11917,20499 11917,21693 12546,21330 Z"/>
        </g>
       </g>
       <g class="com.sun.star.drawing.PolyPolygonShape">
        <g id="id5">
         <rect class="BoundingBox" stroke="none" fill="none" x="11986" y="20271" width="491" height="1132"/>
         <g>
          <defs>
           <linearGradient id="gradient1" x1="12006" y1="20836" x2="12457" y2="20836" gradientUnits="userSpaceOnUse">
            <stop offset="0.1" style="stop-color:rgb(147,212,240)"/>
            <stop offset="1" style="stop-color:rgb(233,246,252)"/>
           </linearGradient>
          </defs>
          <path style="fill:url(#gradient1)" d="M 12456,21122 L 12456,20291 12007,20551 12007,21382 12456,21122 Z"/>
         </g>
         <path fill="none" stroke="rgb(102,102,102)" stroke-width="40" stroke-linejoin="round" d="M 12456,21122 L 12456,20291 12007,20551 12007,21382 12456,21122 Z"/>
        </g>
       </g>
       <g class="com.sun.star.drawing.PolyPolygonShape">
        <g id="id6">
         <rect class="BoundingBox" stroke="none" fill="none" x="11807" y="20063" width="760" height="457"/>
         <g>
          <defs>
           <linearGradient id="gradient2" x1="12186" y1="20083" x2="12186" y2="20498" gradientUnits="userSpaceOnUse">
            <stop offset="0.1" style="stop-color:rgb(51,51,51)"/>
            <stop offset="1" style="stop-color:rgb(153,153,153)"/>
           </linearGradient>
          </defs>
          <path style="fill:url(#gradient2)" d="M 11917,20498 L 12546,20135 12456,20083 11827,20447 11917,20498 Z"/>
         </g>
         <path fill="none" stroke="rgb(178,178,178)" stroke-width="40" stroke-linejoin="round" d="M 11917,20498 L 12546,20135 12456,20083 11827,20447 11917,20498 Z"/>
        </g>
       </g>
       <g class="com.sun.star.drawing.PolyPolygonShape">
        <g id="id7">
         <rect class="BoundingBox" stroke="none" fill="none" x="11807" y="20427" width="132" height="1287"/>
         <g>
          <defs>
           <linearGradient id="gradient3" x1="11826" y1="21070" x2="11918" y2="21070" gradientUnits="userSpaceOnUse">
            <stop offset="0.1" style="stop-color:rgb(102,102,102)"/>
            <stop offset="1" style="stop-color:rgb(153,153,153)"/>
           </linearGradient>
          </defs>
          <path style="fill:url(#gradient3)" d="M 11917,21693 L 11917,20499 11827,20447 11827,21642 11917,21693 Z"/>
         </g>
         <path fill="none" stroke="rgb(178,178,178)" stroke-width="40" stroke-linejoin="round" d="M 11917,21693 L 11917,20499 11827,20447 11827,21642 11917,21693 Z"/>
        </g>
       </g>
       <g class="com.sun.star.drawing.PolyPolygonShape">
        <g id="id8">
         <rect class="BoundingBox" stroke="none" fill="none" x="11807" y="20063" width="760" height="1651"/>
         <path fill="none" stroke="rgb(0,0,0)" stroke-width="40" stroke-linejoin="round" d="M 12456,20083 L 11827,20447 11827,21641 11917,21693 12546,21329 12546,20135 12456,20083 Z"/>
        </g>
       </g>
       <g class="com.sun.star.drawing.LineShape">
        <g id="id9">
         <rect class="BoundingBox" stroke="none" fill="none" x="12076" y="21258" width="311" height="197"/>
         <path fill="none" stroke="rgb(102,102,102)" stroke-width="40" stroke-linejoin="round" d="M 12366,21278 L 12096,21434"/>
        </g>
       </g>
      </g>
     </g>
    </g>
   </g>
  </g>
 </g>
</svg>