<?xml version="1.0" encoding="UTF-8"?>
<!DOCTYPE svg PUBLIC "-//W3C//DTD SVG 1.1//EN" "http://www.w3.org/Graphics/SVG/1.1/DTD/svg11.dtd">
<svg version="1.2" width="15.46mm" height="31.2mm" viewBox="10193 15046 1546 3120" preserveAspectRatio="xMidYMid" fill-rule="evenodd" stroke-width="28.222" stroke-linejoin="round" xmlns="http://www.w3.org/2000/svg" xmlns:ooo="http://xml.openoffice.org/svg/export" xmlns:xlink="http://www.w3.org/1999/xlink" xmlns:presentation="http://sun.com/xmlns/staroffice/presentation" xmlns:smil="http://www.w3.org/2001/SMIL20/" xmlns:anim="urn:oasis:names:tc:opendocument:xmlns:animation:1.0" xml:space="preserve">
 <defs class="ClipPathGroup">
  <clipPath id="presentation_clip_path" clipPathUnits="userSpaceOnUse">
   <rect x="10193" y="15046" width="1546" height="3120"/>
  </clipPath>
 </defs>
 <defs class="TextShapeIndex">
  <g ooo:slide="id1" ooo:id-list="id3 id4 id5 id6 id7 id8"/>
 </defs>
 <defs class="EmbeddedBulletChars">
  <g id="bullet-char-template(57356)" transform="scale(0.00048828125,-0.00048828125)">
   <path d="M 580,1141 L 1163,571 580,0 -4,571 580,1141 Z"/>
  </g>
  <g id="bullet-char-template(57354)" transform="scale(0.00048828125,-0.00048828125)">
   <path d="M 8,1128 L 1137,1128 1137,0 8,0 8,1128 Z"/>
  </g>
  <g id="bullet-char-template(10146)" transform="scale(0.00048828125,-0.00048828125)">
   <path d="M 174,0 L 602,739 174,1481 1456,739 174,0 Z M 1358,739 L 309,1346 659,739 1358,739 Z"/>
  </g>
  <g id="bullet-char-template(10132)" transform="scale(0.00048828125,-0.00048828125)">
   <path d="M 2015,739 L 1276,0 717,0 1260,543 174,543 174,936 1260,936 717,1481 1274,1481 2015,739 Z"/>
  </g>
  <g id="bullet-char-template(10007)" transform="scale(0.00048828125,-0.00048828125)">
   <path d="M 0,-2 C -7,14 -16,27 -25,37 L 356,567 C 262,823 215,952 215,954 215,979 228,992 255,992 264,992 276,990 289,987 310,991 331,999 354,1012 L 381,999 492,748 772,1049 836,1024 860,1049 C 881,1039 901,1025 922,1006 886,937 835,863 770,784 769,783 710,716 594,584 L 774,223 C 774,196 753,168 711,139 L 727,119 C 717,90 699,76 672,76 641,76 570,178 457,381 L 164,-76 C 142,-110 111,-127 72,-127 30,-127 9,-110 8,-76 1,-67 -2,-52 -2,-32 -2,-23 -1,-13 0,-2 Z"/>
  </g>
  <g id="bullet-char-template(10004)" transform="scale(0.00048828125,-0.00048828125)">
   <path d="M 285,-33 C 182,-33 111,30 74,156 52,228 41,333 41,471 41,549 55,616 82,672 116,743 169,778 240,778 293,778 328,747 346,684 L 369,508 C 377,444 397,411 428,410 L 1163,1116 C 1174,1127 1196,1133 1229,1133 1271,1133 1292,1118 1292,1087 L 1292,965 C 1292,929 1282,901 1262,881 L 442,47 C 390,-6 338,-33 285,-33 Z"/>
  </g>
  <g id="bullet-char-template(9679)" transform="scale(0.00048828125,-0.00048828125)">
   <path d="M 813,0 C 632,0 489,54 383,161 276,268 223,411 223,592 223,773 276,916 383,1023 489,1130 632,1184 813,1184 992,1184 1136,1130 1245,1023 1353,916 1407,772 1407,592 1407,412 1353,268 1245,161 1136,54 992,0 813,0 Z"/>
  </g>
  <g id="bullet-char-template(8226)" transform="scale(0.00048828125,-0.00048828125)">
   <path d="M 346,457 C 273,457 209,483 155,535 101,586 74,649 74,723 74,796 101,859 155,911 209,963 273,989 346,989 419,989 480,963 531,910 582,859 608,796 608,723 608,648 583,586 532,535 482,483 420,457 346,457 Z"/>
  </g>
  <g id="bullet-char-template(8211)" transform="scale(0.00048828125,-0.00048828125)">
   <path d="M -4,459 L 1135,459 1135,606 -4,606 -4,459 Z"/>
  </g>
 </defs>
 <defs class="TextEmbeddedBitmaps"/>
 <g class="SlideGroup">
  <g>
   <g id="id1" class="Slide" clip-path="url(#presentation_clip_path)">
    <g class="Page">
     <g class="Group">
      <g class="com.sun.star.drawing.ClosedBezierShape">
       <g id="id3">
        <rect class="BoundingBox" stroke="none" fill="none" x="11093" y="17258" width="647" height="489"/>
        <path fill="rgb(221,221,221)" stroke="none" d="M 11113,17726 C 11370,17726 11719,17548 11719,17440 11719,17332 11626,17278 11439,17278 11439,17440 11113,17726 11113,17726 Z"/>
        <path fill="none" stroke="rgb(221,221,221)" stroke-width="40" stroke-linejoin="round" d="M 11113,17726 C 11370,17726 11719,17548 11719,17440 11719,17332 11626,17278 11439,17278 11439,17440 11113,17726 11113,17726 Z"/>
       </g>
      </g>
      <g class="Group">
       <g class="com.sun.star.drawing.PolyPolygonShape">
        <g id="id4">
         <rect class="BoundingBox" stroke="none" fill="none" x="10297" y="15100" width="1163" height="3067"/>
         <g>
          <defs>
           <pattern id="pattern1" x="10317" y="15120" width="1123" height="3027" patternUnits="userSpaceOnUse">
            <g transform="translate(-10317,-15120)">
             <path fill="rgb(179,179,179)" stroke="none" d="M 10316,15119 L 11440,15119 11440,18147 10316,18147 10316,15119 Z M 10103,14544 L 11203,14544 11203,17510 10103,17510 10103,14544 Z"/>
             <path fill="rgb(180,180,180)" stroke="none" d="M 10103,14544 L 11203,14544 11203,17510 10103,17510 10103,14544 Z M 10114,14574 L 11192,14574 11192,17480 10114,17480 10114,14574 Z"/>
             <path fill="rgb(181,181,181)" stroke="none" d="M 10114,14574 L 11192,14574 11192,17480 10114,17480 10114,14574 Z M 10125,14604 L 11181,14604 11181,17450 10125,17450 10125,14604 Z"/>
             <path fill="rgb(182,182,182)" stroke="none" d="M 10125,14604 L 11181,14604 11181,17450 10125,17450 10125,14604 Z M 10136,14635 L 11170,14635 11170,17419 10136,17419 10136,14635 Z"/>
             <path fill="rgb(183,183,183)" stroke="none" d="M 10136,14635 L 11170,14635 11170,17419 10136,17419 10136,14635 Z M 10148,14665 L 11158,14665 11158,17389 10148,17389 10148,14665 Z"/>
             <path fill="rgb(184,184,184)" stroke="none" d="M 10148,14665 L 11158,14665 11158,17389 10148,17389 10148,14665 Z M 10159,14695 L 11147,14695 11147,17359 10159,17359 10159,14695 Z"/>
             <path fill="rgb(185,185,185)" stroke="none" d="M 10159,14695 L 11147,14695 11147,17359 10159,17359 10159,14695 Z M 10170,14726 L 11136,14726 11136,17328 10170,17328 10170,14726 Z"/>
             <path fill="rgb(186,186,186)" stroke="none" d="M 10170,14726 L 11136,14726 11136,17328 10170,17328 10170,14726 Z M 10181,14756 L 11125,14756 11125,17298 10181,17298 10181,14756 Z"/>
             <path fill="rgb(187,187,187)" stroke="none" d="M 10181,14756 L 11125,14756 11125,17298 10181,17298 10181,14756 Z M 10193,14786 L 11113,14786 11113,17268 10193,17268 10193,14786 Z"/>
             <path fill="rgb(188,188,188)" stroke="none" d="M 10193,14786 L 11113,14786 11113,17268 10193,17268 10193,14786 Z M 10204,14816 L 11102,14816 11102,17238 10204,17238 10204,14816 Z"/>
             <path fill="rgb(189,189,189)" stroke="none" d="M 10204,14816 L 11102,14816 11102,17238 10204,17238 10204,14816 Z M 10215,14847 L 11091,14847 11091,17207 10215,17207 10215,14847 Z"/>
             <path fill="rgb(190,190,190)" stroke="none" d="M 10215,14847 L 11091,14847 11091,17207 10215,17207 10215,14847 Z M 10226,14877 L 11080,14877 11080,17177 10226,17177 10226,14877 Z"/>
             <path fill="rgb(191,191,191)" stroke="none" d="M 10226,14877 L 11080,14877 11080,17177 10226,17177 10226,14877 Z M 10238,14907 L 11068,14907 11068,17147 10238,17147 10238,14907 Z"/>
             <path fill="rgb(192,192,192)" stroke="none" d="M 10238,14907 L 11068,14907 11068,17147 10238,17147 10238,14907 Z M 10249,14938 L 11057,14938 11057,17116 10249,17116 10249,14938 Z"/>
             <path fill="rgb(193,193,193)" stroke="none" d="M 10249,14938 L 11057,14938 11057,17116 10249,17116 10249,14938 Z M 10260,14968 L 11046,14968 11046,17086 10260,17086 10260,14968 Z"/>
             <path fill="rgb(194,194,194)" stroke="none" d="M 10260,14968 L 11046,14968 11046,17086 10260,17086 10260,14968 Z M 10271,14998 L 11035,14998 11035,17056 10271,17056 10271,14998 Z"/>
             <path fill="rgb(195,195,195)" stroke="none" d="M 10271,14998 L 11035,14998 11035,17056 10271,17056 10271,14998 Z M 10283,15028 L 11023,15028 11023,17026 10283,17026 10283,15028 Z"/>
             <path fill="rgb(196,196,196)" stroke="none" d="M 10283,15028 L 11023,15028 11023,17026 10283,17026 10283,15028 Z M 10294,15059 L 11012,15059 11012,16995 10294,16995 10294,15059 Z"/>
             <path fill="rgb(197,197,197)" stroke="none" d="M 10294,15059 L 11012,15059 11012,16995 10294,16995 10294,15059 Z M 10304,15089 L 11001,15089 11001,16965 10304,16965 10304,15089 Z"/>
             <path fill="rgb(198,198,198)" stroke="none" d="M 10304,15089 L 11001,15089 11001,16965 10304,16965 10304,15089 Z M 10316,15118 L 10990,15118 10990,16935 10316,16935 10316,15118 Z"/>
             <path fill="rgb(199,199,199)" stroke="none" d="M 10316,15118 L 10990,15118 10990,16935 10316,16935 10316,15118 Z M 10327,15149 L 10978,15149 10978,16904 10327,16904 10327,15149 Z"/>
             <path fill="rgb(200,200,200)" stroke="none" d="M 10327,15149 L 10978,15149 10978,16904 10327,16904 10327,15149 Z M 10338,15179 L 10967,15179 10967,16874 10338,16874 10338,15179 Z"/>
             <path fill="rgb(201,201,201)" stroke="none" d="M 10338,15179 L 10967,15179 10967,16874 10338,16874 10338,15179 Z M 10349,15209 L 10956,15209 10956,16844 10349,16844 10349,15209 Z"/>
             <path fill="rgb(202,202,202)" stroke="none" d="M 10349,15209 L 10956,15209 10956,16844 10349,16844 10349,15209 Z M 10361,15239 L 10945,15239 10945,16814 10361,16814 10361,15239 Z"/>
             <path fill="rgb(203,203,203)" stroke="none" d="M 10361,15239 L 10945,15239 10945,16814 10361,16814 10361,15239 Z M 10372,15270 L 10933,15270 10933,16783 10372,16783 10372,15270 Z"/>
             <path fill="rgb(204,204,204)" stroke="none" d="M 10372,15270 L 10933,15270 10933,16783 10372,16783 10372,15270 Z M 10383,15300 L 10922,15300 10922,16753 10383,16753 10383,15300 Z"/>
             <path fill="rgb(205,205,205)" stroke="none" d="M 10383,15300 L 10922,15300 10922,16753 10383,16753 10383,15300 Z M 10394,15330 L 10911,15330 10911,16723 10394,16723 10394,15330 Z"/>
             <path fill="rgb(206,206,206)" stroke="none" d="M 10394,15330 L 10911,15330 10911,16723 10394,16723 10394,15330 Z M 10406,15361 L 10900,15361 10900,16692 10406,16692 10406,15361 Z"/>
             <path fill="rgb(207,207,207)" stroke="none" d="M 10406,15361 L 10900,15361 10900,16692 10406,16692 10406,15361 Z M 10417,15391 L 10888,15391 10888,16662 10417,16662 10417,15391 Z"/>
             <path fill="rgb(208,208,208)" stroke="none" d="M 10417,15391 L 10888,15391 10888,16662 10417,16662 10417,15391 Z M 10428,15421 L 10877,15421 10877,16632 10428,16632 10428,15421 Z"/>
             <path fill="rgb(209,209,209)" stroke="none" d="M 10428,15421 L 10877,15421 10877,16632 10428,16632 10428,15421 Z M 10439,15451 L 10866,15451 10866,16602 10439,16602 10439,15451 Z"/>
             <path fill="rgb(210,210,210)" stroke="none" d="M 10439,15451 L 10866,15451 10866,16602 10439,16602 10439,15451 Z M 10451,15482 L 10855,15482 10855,16571 10451,16571 10451,15482 Z"/>
             <path fill="rgb(211,211,211)" stroke="none" d="M 10451,15482 L 10855,15482 10855,16571 10451,16571 10451,15482 Z M 10462,15512 L 10843,15512 10843,16541 10462,16541 10462,15512 Z"/>
             <path fill="rgb(212,212,212)" stroke="none" d="M 10462,15512 L 10843,15512 10843,16541 10462,16541 10462,15512 Z M 10473,15542 L 10832,15542 10832,16511 10473,16511 10473,15542 Z"/>
             <path fill="rgb(213,213,213)" stroke="none" d="M 10473,15542 L 10832,15542 10832,16511 10473,16511 10473,15542 Z M 10484,15573 L 10821,15573 10821,16480 10484,16480 10484,15573 Z"/>
             <path fill="rgb(214,214,214)" stroke="none" d="M 10484,15573 L 10821,15573 10821,16480 10484,16480 10484,15573 Z M 10496,15603 L 10810,15603 10810,16450 10496,16450 10496,15603 Z"/>
             <path fill="rgb(215,215,215)" stroke="none" d="M 10496,15603 L 10810,15603 10810,16450 10496,16450 10496,15603 Z M 10507,15633 L 10798,15633 10798,16420 10507,16420 10507,15633 Z"/>
             <path fill="rgb(216,216,216)" stroke="none" d="M 10507,15633 L 10798,15633 10798,16420 10507,16420 10507,15633 Z M 10518,15664 L 10787,15664 10787,16389 10518,16389 10518,15664 Z"/>
             <path fill="rgb(217,217,217)" stroke="none" d="M 10518,15664 L 10787,15664 10787,16389 10518,16389 10518,15664 Z M 10529,15694 L 10776,15694 10776,16359 10529,16359 10529,15694 Z"/>
             <path fill="rgb(218,218,218)" stroke="none" d="M 10529,15694 L 10776,15694 10776,16359 10529,16359 10529,15694 Z M 10541,15724 L 10765,15724 10765,16329 10541,16329 10541,15724 Z"/>
             <path fill="rgb(219,219,219)" stroke="none" d="M 10541,15724 L 10765,15724 10765,16329 10541,16329 10541,15724 Z M 10552,15754 L 10753,15754 10753,16299 10552,16299 10552,15754 Z"/>
             <path fill="rgb(220,220,220)" stroke="none" d="M 10552,15754 L 10753,15754 10753,16299 10552,16299 10552,15754 Z M 10563,15785 L 10742,15785 10742,16268 10563,16268 10563,15785 Z"/>
             <path fill="rgb(221,221,221)" stroke="none" d="M 10563,15785 L 10742,15785 10742,16268 10563,16268 10563,15785 Z M 10574,15815 L 10731,15815 10731,16238 10574,16238 10574,15815 Z"/>
             <path fill="rgb(222,222,222)" stroke="none" d="M 10574,15815 L 10731,15815 10731,16238 10574,16238 10574,15815 Z M 10586,15845 L 10720,15845 10720,16208 10586,16208 10586,15845 Z"/>
             <path fill="rgb(223,223,223)" stroke="none" d="M 10586,15845 L 10720,15845 10720,16208 10586,16208 10586,15845 Z M 10597,15876 L 10708,15876 10708,16177 10597,16177 10597,15876 Z"/>
             <path fill="rgb(224,224,224)" stroke="none" d="M 10597,15876 L 10708,15876 10708,16177 10597,16177 10597,15876 Z M 10608,15906 L 10697,15906 10697,16147 10608,16147 10608,15906 Z"/>
             <path fill="rgb(225,225,225)" stroke="none" d="M 10608,15906 L 10697,15906 10697,16147 10608,16147 10608,15906 Z M 10619,15936 L 10686,15936 10686,16117 10619,16117 10619,15936 Z"/>
             <path fill="rgb(226,226,226)" stroke="none" d="M 10619,15936 L 10686,15936 10686,16117 10619,16117 10619,15936 Z M 10631,15966 L 10675,15966 10675,16087 10631,16087 10631,15966 Z"/>
             <path fill="rgb(227,227,227)" stroke="none" d="M 10631,15966 L 10675,15966 10675,16087 10631,16087 10631,15966 Z M 10642,15997 L 10663,15997 10663,16056 10642,16056 10642,15997 Z"/>
             <path fill="rgb(229,229,229)" stroke="none" d="M 10642,15997 L 10663,15997 10663,16056 10642,16056 10642,15997 Z"/>
            </g>
           </pattern>
          </defs>
          <path style="fill:url(#pattern1)" d="M 11439,17498 L 11439,15120 10317,15768 10317,18146 11439,17498 Z"/>
         </g>
         <path fill="none" stroke="rgb(255,255,255)" stroke-width="40" stroke-linejoin="round" d="M 11439,17498 L 11439,15120 10317,15768 10317,18146 11439,17498 Z"/>
        </g>
       </g>
       <g class="com.sun.star.drawing.PolyPolygonShape">
        <g id="id5">
         <rect class="BoundingBox" stroke="none" fill="none" x="10391" y="15261" width="976" height="2744"/>
         <g>
          <defs>
           <linearGradient id="gradient1" x1="10410" y1="16633" x2="11346" y2="16633" gradientUnits="userSpaceOnUse">
            <stop offset="0.1" style="stop-color:rgb(147,212,240)"/>
            <stop offset="1" style="stop-color:rgb(233,246,252)"/>
           </linearGradient>
          </defs>
          <path style="fill:url(#gradient1)" d="M 11346,17443 L 11346,15282 10411,15822 10411,17984 11346,17443 Z"/>
         </g>
         <path fill="none" stroke="rgb(127,127,127)" stroke-width="40" stroke-linejoin="round" d="M 11346,17443 L 11346,15282 10411,15822 10411,17984 11346,17443 Z"/>
        </g>
       </g>
       <g class="com.sun.star.drawing.PolyPolygonShape">
        <g id="id6">
         <rect class="BoundingBox" stroke="none" fill="none" x="10193" y="15046" width="1267" height="744"/>
         <g>
          <defs>
           <linearGradient id="gradient2" x1="10826" y1="15066" x2="10826" y2="15768" gradientUnits="userSpaceOnUse">
            <stop offset="0.1" style="stop-color:rgb(179,179,179)"/>
            <stop offset="1" style="stop-color:rgb(229,229,229)"/>
           </linearGradient>
          </defs>
          <path style="fill:url(#gradient2)" d="M 10317,15768 L 11439,15120 11335,15066 10213,15714 10317,15768 Z"/>
         </g>
         <path fill="none" stroke="rgb(255,255,255)" stroke-width="40" stroke-linejoin="round" d="M 10317,15768 L 11439,15120 11335,15066 10213,15714 10317,15768 Z"/>
        </g>
       </g>
       <g class="com.sun.star.drawing.PolyPolygonShape">
        <g id="id7">
         <rect class="BoundingBox" stroke="none" fill="none" x="10193" y="15693" width="145" height="2474"/>
         <g>
          <defs>
           <linearGradient id="gradient3" x1="10212" y1="16930" x2="10318" y2="16930" gradientUnits="userSpaceOnUse">
            <stop offset="0.1" style="stop-color:rgb(179,179,179)"/>
            <stop offset="1" style="stop-color:rgb(229,229,229)"/>
           </linearGradient>
          </defs>
          <path style="fill:url(#gradient3)" d="M 10317,18146 L 10317,15768 10213,15714 10213,18092 10317,18146 Z"/>
         </g>
         <path fill="none" stroke="rgb(255,255,255)" stroke-width="40" stroke-linejoin="round" d="M 10317,18146 L 10317,15768 10213,15714 10213,18092 10317,18146 Z"/>
        </g>
       </g>
       <g class="com.sun.star.drawing.PolyPolygonShape">
        <g id="id8">
         <rect class="BoundingBox" stroke="none" fill="none" x="10193" y="15046" width="1267" height="3121"/>
         <path fill="none" stroke="rgb(0,0,0)" stroke-width="40" stroke-linejoin="round" d="M 11335,15066 L 10213,15714 10213,18092 10317,18146 11439,17498 11439,15120 11335,15066 Z"/>
        </g>
       </g>
      </g>
     </g>
    </g>
   </g>
  </g>
 </g>
</svg>