<?xml version="1.0" encoding="UTF-8"?>
<!DOCTYPE svg PUBLIC "-//W3C//DTD SVG 1.1//EN" "http://www.w3.org/Graphics/SVG/1.1/DTD/svg11.dtd">
<svg version="1.2" width="19.99mm" height="31.9mm" viewBox="12613 21556 1999 3190" preserveAspectRatio="xMidYMid" fill-rule="evenodd" stroke-width="28.222" stroke-linejoin="round" xmlns="http://www.w3.org/2000/svg" xmlns:ooo="http://xml.openoffice.org/svg/export" xmlns:xlink="http://www.w3.org/1999/xlink" xmlns:presentation="http://sun.com/xmlns/staroffice/presentation" xmlns:smil="http://www.w3.org/2001/SMIL20/" xmlns:anim="urn:oasis:names:tc:opendocument:xmlns:animation:1.0" xml:space="preserve">
 <defs class="ClipPathGroup">
  <clipPath id="presentation_clip_path" clipPathUnits="userSpaceOnUse">
   <rect x="12613" y="21556" width="1999" height="3190"/>
  </clipPath>
 </defs>
 <defs class="TextShapeIndex">
  <g ooo:slide="id1" ooo:id-list="id3 id4 id5 id6 id7 id8 id9 id10 id11 id12"/>
 </defs>
 <defs class="EmbeddedBulletChars">
  <g id="bullet-char-template(57356)" transform="scale(0.00048828125,-0.00048828125)">
   <path d="M 580,1141 L 1163,571 580,0 -4,571 580,1141 Z"/>
  </g>
  <g id="bullet-char-template(57354)" transform="scale(0.00048828125,-0.00048828125)">
   <path d="M 8,1128 L 1137,1128 1137,0 8,0 8,1128 Z"/>
  </g>
  <g id="bullet-char-template(10146)" transform="scale(0.00048828125,-0.00048828125)">
   <path d="M 174,0 L 602,739 174,1481 1456,739 174,0 Z M 1358,739 L 309,1346 659,739 1358,739 Z"/>
  </g>
  <g id="bullet-char-template(10132)" transform="scale(0.00048828125,-0.00048828125)">
   <path d="M 2015,739 L 1276,0 717,0 1260,543 174,543 174,936 1260,936 717,1481 1274,1481 2015,739 Z"/>
  </g>
  <g id="bullet-char-template(10007)" transform="scale(0.00048828125,-0.00048828125)">
   <path d="M 0,-2 C -7,14 -16,27 -25,37 L 356,567 C 262,823 215,952 215,954 215,979 228,992 255,992 264,992 276,990 289,987 310,991 331,999 354,1012 L 381,999 492,748 772,1049 836,1024 860,1049 C 881,1039 901,1025 922,1006 886,937 835,863 770,784 769,783 710,716 594,584 L 774,223 C 774,196 753,168 711,139 L 727,119 C 717,90 699,76 672,76 641,76 570,178 457,381 L 164,-76 C 142,-110 111,-127 72,-127 30,-127 9,-110 8,-76 1,-67 -2,-52 -2,-32 -2,-23 -1,-13 0,-2 Z"/>
  </g>
  <g id="bullet-char-template(10004)" transform="scale(0.00048828125,-0.00048828125)">
   <path d="M 285,-33 C 182,-33 111,30 74,156 52,228 41,333 41,471 41,549 55,616 82,672 116,743 169,778 240,778 293,778 328,747 346,684 L 369,508 C 377,444 397,411 428,410 L 1163,1116 C 1174,1127 1196,1133 1229,1133 1271,1133 1292,1118 1292,1087 L 1292,965 C 1292,929 1282,901 1262,881 L 442,47 C 390,-6 338,-33 285,-33 Z"/>
  </g>
  <g id="bullet-char-template(9679)" transform="scale(0.00048828125,-0.00048828125)">
   <path d="M 813,0 C 632,0 489,54 383,161 276,268 223,411 223,592 223,773 276,916 383,1023 489,1130 632,1184 813,1184 992,1184 1136,1130 1245,1023 1353,916 1407,772 1407,592 1407,412 1353,268 1245,161 1136,54 992,0 813,0 Z"/>
  </g>
  <g id="bullet-char-template(8226)" transform="scale(0.00048828125,-0.00048828125)">
   <path d="M 346,457 C 273,457 209,483 155,535 101,586 74,649 74,723 74,796 101,859 155,911 209,963 273,989 346,989 419,989 480,963 531,910 582,859 608,796 608,723 608,648 583,586 532,535 482,483 420,457 346,457 Z"/>
  </g>
  <g id="bullet-char-template(8211)" transform="scale(0.00048828125,-0.00048828125)">
   <path d="M -4,459 L 1135,459 1135,606 -4,606 -4,459 Z"/>
  </g>
 </defs>
 <defs class="TextEmbeddedBitmaps"/>
 <g class="SlideGroup">
  <g>
   <g id="id1" class="Slide" clip-path="url(#presentation_clip_path)">
    <g class="Page">
     <g class="Group">
      <g class="com.sun.star.drawing.ClosedBezierShape">
       <g id="id3">
        <rect class="BoundingBox" stroke="none" fill="none" x="13583" y="24286" width="1031" height="461"/>
        <path fill="rgb(221,221,221)" stroke="none" d="M 13603,24726 C 13984,24726 14330,24656 14452,24586 14574,24516 14695,24306 14452,24306 14467,24337 13603,24726 13603,24726 Z"/>
        <path fill="none" stroke="rgb(221,221,221)" stroke-width="40" stroke-linejoin="round" d="M 13603,24726 C 13984,24726 14330,24656 14452,24586 14574,24516 14695,24306 14452,24306 14467,24337 13603,24726 13603,24726 Z"/>
       </g>
      </g>
      <g class="Group">
       <g class="com.sun.star.drawing.PolyPolygonShape">
        <g id="id4">
         <rect class="BoundingBox" stroke="none" fill="none" x="12612" y="21556" width="1860" height="1091"/>
         <g>
          <defs>
           <linearGradient id="gradient1" x1="13542" y1="21576" x2="13542" y2="22626" gradientUnits="userSpaceOnUse">
            <stop offset="0.1" style="stop-color:rgb(51,51,51)"/>
            <stop offset="1" style="stop-color:rgb(153,153,153)"/>
           </linearGradient>
          </defs>
          <path style="fill:url(#gradient1)" d="M 14088,22626 L 14451,22416 12996,21576 12633,21786 14088,22626 Z"/>
         </g>
         <path fill="none" stroke="rgb(178,178,178)" stroke-width="40" stroke-linejoin="round" d="M 14088,22626 L 14451,22416 12996,21576 12633,21786 14088,22626 Z"/>
        </g>
       </g>
       <g class="com.sun.star.drawing.PolyPolygonShape">
        <g id="id5">
         <rect class="BoundingBox" stroke="none" fill="none" x="14154" y="22733" width="181" height="362"/>
         <path fill="rgb(57,181,74)" stroke="none" d="M 14313,22994 L 14313,22753 14174,22833 14174,23074 14313,22994 Z"/>
         <path fill="none" stroke="rgb(51,51,51)" stroke-width="40" stroke-linejoin="round" d="M 14313,22994 L 14313,22753 14174,22833 14174,23074 14313,22994 Z"/>
        </g>
       </g>
       <g class="com.sun.star.drawing.PolyPolygonShape">
        <g id="id6">
         <rect class="BoundingBox" stroke="none" fill="none" x="13583" y="24216" width="648" height="532"/>
         <g>
          <defs>
           <pattern id="pattern1" x="13603" y="24236" width="608" height="491" patternUnits="userSpaceOnUse">
            <g transform="translate(-13603,-24236)">
             <path fill="rgb(102,102,102)" stroke="none" d="M 13602,24235 L 14211,24235 14211,24727 13602,24727 13602,24235 Z M 13486,24141 L 14083,24141 14083,24623 13486,24623 13486,24141 Z"/>
             <path fill="rgb(103,103,103)" stroke="none" d="M 13486,24141 L 14083,24141 14083,24623 13486,24623 13486,24141 Z M 13492,24146 L 14077,24146 14077,24618 13492,24618 13492,24146 Z"/>
             <path fill="rgb(104,104,104)" stroke="none" d="M 13492,24146 L 14077,24146 14077,24618 13492,24618 13492,24146 Z M 13498,24151 L 14071,24151 14071,24613 13498,24613 13498,24151 Z"/>
             <path fill="rgb(105,105,105)" stroke="none" d="M 13498,24151 L 14071,24151 14071,24613 13498,24613 13498,24151 Z M 13504,24156 L 14065,24156 14065,24608 13504,24608 13504,24156 Z"/>
             <path fill="rgb(106,106,106)" stroke="none" d="M 13504,24156 L 14065,24156 14065,24608 13504,24608 13504,24156 Z M 13510,24161 L 14059,24161 14059,24603 13510,24603 13510,24161 Z"/>
             <path fill="rgb(107,107,107)" stroke="none" d="M 13510,24161 L 14059,24161 14059,24603 13510,24603 13510,24161 Z M 13516,24165 L 14053,24165 14053,24599 13516,24599 13516,24165 Z"/>
             <path fill="rgb(108,108,108)" stroke="none" d="M 13516,24165 L 14053,24165 14053,24599 13516,24599 13516,24165 Z M 13522,24170 L 14047,24170 14047,24594 13522,24594 13522,24170 Z"/>
             <path fill="rgb(109,109,109)" stroke="none" d="M 13522,24170 L 14047,24170 14047,24594 13522,24594 13522,24170 Z M 13528,24175 L 14041,24175 14041,24589 13528,24589 13528,24175 Z"/>
             <path fill="rgb(110,110,110)" stroke="none" d="M 13528,24175 L 14041,24175 14041,24589 13528,24589 13528,24175 Z M 13534,24180 L 14035,24180 14035,24584 13534,24584 13534,24180 Z"/>
             <path fill="rgb(111,111,111)" stroke="none" d="M 13534,24180 L 14035,24180 14035,24584 13534,24584 13534,24180 Z M 13540,24185 L 14029,24185 14029,24579 13540,24579 13540,24185 Z"/>
             <path fill="rgb(112,112,112)" stroke="none" d="M 13540,24185 L 14029,24185 14029,24579 13540,24579 13540,24185 Z M 13546,24190 L 14023,24190 14023,24574 13546,24574 13546,24190 Z"/>
             <path fill="rgb(113,113,113)" stroke="none" d="M 13546,24190 L 14023,24190 14023,24574 13546,24574 13546,24190 Z M 13552,24194 L 14017,24194 14017,24570 13552,24570 13552,24194 Z"/>
             <path fill="rgb(114,114,114)" stroke="none" d="M 13552,24194 L 14017,24194 14017,24570 13552,24570 13552,24194 Z M 13558,24199 L 14011,24199 14011,24565 13558,24565 13558,24199 Z"/>
             <path fill="rgb(115,115,115)" stroke="none" d="M 13558,24199 L 14011,24199 14011,24565 13558,24565 13558,24199 Z M 13564,24204 L 14005,24204 14005,24560 13564,24560 13564,24204 Z"/>
             <path fill="rgb(116,116,116)" stroke="none" d="M 13564,24204 L 14005,24204 14005,24560 13564,24560 13564,24204 Z M 13570,24209 L 13999,24209 13999,24555 13570,24555 13570,24209 Z"/>
             <path fill="rgb(117,117,117)" stroke="none" d="M 13570,24209 L 13999,24209 13999,24555 13570,24555 13570,24209 Z M 13576,24214 L 13993,24214 13993,24550 13576,24550 13576,24214 Z"/>
             <path fill="rgb(118,118,118)" stroke="none" d="M 13576,24214 L 13993,24214 13993,24550 13576,24550 13576,24214 Z M 13582,24218 L 13987,24218 13987,24545 13582,24545 13582,24218 Z"/>
             <path fill="rgb(119,119,119)" stroke="none" d="M 13582,24218 L 13987,24218 13987,24545 13582,24545 13582,24218 Z M 13587,24222 L 13981,24222 13981,24541 13587,24541 13587,24222 Z"/>
             <path fill="rgb(120,120,120)" stroke="none" d="M 13587,24222 L 13981,24222 13981,24541 13587,24541 13587,24222 Z M 13593,24227 L 13975,24227 13975,24536 13593,24536 13593,24227 Z"/>
             <path fill="rgb(121,121,121)" stroke="none" d="M 13593,24227 L 13975,24227 13975,24536 13593,24536 13593,24227 Z M 13599,24232 L 13969,24232 13969,24531 13599,24531 13599,24232 Z"/>
             <path fill="rgb(122,122,122)" stroke="none" d="M 13599,24232 L 13969,24232 13969,24531 13599,24531 13599,24232 Z M 13605,24237 L 13963,24237 13963,24526 13605,24526 13605,24237 Z"/>
             <path fill="rgb(123,123,123)" stroke="none" d="M 13605,24237 L 13963,24237 13963,24526 13605,24526 13605,24237 Z M 13611,24242 L 13957,24242 13957,24521 13611,24521 13611,24242 Z"/>
             <path fill="rgb(124,124,124)" stroke="none" d="M 13611,24242 L 13957,24242 13957,24521 13611,24521 13611,24242 Z M 13617,24247 L 13951,24247 13951,24516 13617,24516 13617,24247 Z"/>
             <path fill="rgb(125,125,125)" stroke="none" d="M 13617,24247 L 13951,24247 13951,24516 13617,24516 13617,24247 Z M 13623,24251 L 13945,24251 13945,24512 13623,24512 13623,24251 Z"/>
             <path fill="rgb(126,126,126)" stroke="none" d="M 13623,24251 L 13945,24251 13945,24512 13623,24512 13623,24251 Z M 13629,24256 L 13939,24256 13939,24507 13629,24507 13629,24256 Z"/>
             <path fill="rgb(127,127,127)" stroke="none" d="M 13629,24256 L 13939,24256 13939,24507 13629,24507 13629,24256 Z M 13635,24261 L 13933,24261 13933,24502 13635,24502 13635,24261 Z"/>
             <path fill="rgb(128,128,128)" stroke="none" d="M 13635,24261 L 13933,24261 13933,24502 13635,24502 13635,24261 Z M 13641,24266 L 13927,24266 13927,24497 13641,24497 13641,24266 Z"/>
             <path fill="rgb(129,129,129)" stroke="none" d="M 13641,24266 L 13927,24266 13927,24497 13641,24497 13641,24266 Z M 13647,24271 L 13921,24271 13921,24492 13647,24492 13647,24271 Z"/>
             <path fill="rgb(130,130,130)" stroke="none" d="M 13647,24271 L 13921,24271 13921,24492 13647,24492 13647,24271 Z M 13653,24276 L 13915,24276 13915,24487 13653,24487 13653,24276 Z"/>
             <path fill="rgb(131,131,131)" stroke="none" d="M 13653,24276 L 13915,24276 13915,24487 13653,24487 13653,24276 Z M 13659,24281 L 13909,24281 13909,24483 13659,24483 13659,24281 Z"/>
             <path fill="rgb(132,132,132)" stroke="none" d="M 13659,24281 L 13909,24281 13909,24483 13659,24483 13659,24281 Z M 13665,24285 L 13903,24285 13903,24478 13665,24478 13665,24285 Z"/>
             <path fill="rgb(133,133,133)" stroke="none" d="M 13665,24285 L 13903,24285 13903,24478 13665,24478 13665,24285 Z M 13671,24290 L 13897,24290 13897,24473 13671,24473 13671,24290 Z"/>
             <path fill="rgb(134,134,134)" stroke="none" d="M 13671,24290 L 13897,24290 13897,24473 13671,24473 13671,24290 Z M 13677,24295 L 13891,24295 13891,24468 13677,24468 13677,24295 Z"/>
             <path fill="rgb(135,135,135)" stroke="none" d="M 13677,24295 L 13891,24295 13891,24468 13677,24468 13677,24295 Z M 13683,24300 L 13885,24300 13885,24463 13683,24463 13683,24300 Z"/>
             <path fill="rgb(136,136,136)" stroke="none" d="M 13683,24300 L 13885,24300 13885,24463 13683,24463 13683,24300 Z M 13689,24305 L 13879,24305 13879,24458 13689,24458 13689,24305 Z"/>
             <path fill="rgb(137,137,137)" stroke="none" d="M 13689,24305 L 13879,24305 13879,24458 13689,24458 13689,24305 Z M 13695,24309 L 13873,24309 13873,24454 13695,24454 13695,24309 Z"/>
             <path fill="rgb(138,138,138)" stroke="none" d="M 13695,24309 L 13873,24309 13873,24454 13695,24454 13695,24309 Z M 13701,24314 L 13867,24314 13867,24449 13701,24449 13701,24314 Z"/>
             <path fill="rgb(139,139,139)" stroke="none" d="M 13701,24314 L 13867,24314 13867,24449 13701,24449 13701,24314 Z M 13707,24319 L 13861,24319 13861,24444 13707,24444 13707,24319 Z"/>
             <path fill="rgb(140,140,140)" stroke="none" d="M 13707,24319 L 13861,24319 13861,24444 13707,24444 13707,24319 Z M 13713,24324 L 13855,24324 13855,24439 13713,24439 13713,24324 Z"/>
             <path fill="rgb(141,141,141)" stroke="none" d="M 13713,24324 L 13855,24324 13855,24439 13713,24439 13713,24324 Z M 13719,24329 L 13849,24329 13849,24434 13719,24434 13719,24329 Z"/>
             <path fill="rgb(142,142,142)" stroke="none" d="M 13719,24329 L 13849,24329 13849,24434 13719,24434 13719,24329 Z M 13725,24334 L 13843,24334 13843,24429 13725,24429 13725,24334 Z"/>
             <path fill="rgb(143,143,143)" stroke="none" d="M 13725,24334 L 13843,24334 13843,24429 13725,24429 13725,24334 Z M 13731,24338 L 13837,24338 13837,24425 13731,24425 13731,24338 Z"/>
             <path fill="rgb(144,144,144)" stroke="none" d="M 13731,24338 L 13837,24338 13837,24425 13731,24425 13731,24338 Z M 13737,24343 L 13831,24343 13831,24420 13737,24420 13737,24343 Z"/>
             <path fill="rgb(145,145,145)" stroke="none" d="M 13737,24343 L 13831,24343 13831,24420 13737,24420 13737,24343 Z M 13743,24348 L 13825,24348 13825,24415 13743,24415 13743,24348 Z"/>
             <path fill="rgb(146,146,146)" stroke="none" d="M 13743,24348 L 13825,24348 13825,24415 13743,24415 13743,24348 Z M 13749,24353 L 13819,24353 13819,24410 13749,24410 13749,24353 Z"/>
             <path fill="rgb(147,147,147)" stroke="none" d="M 13749,24353 L 13819,24353 13819,24410 13749,24410 13749,24353 Z M 13755,24358 L 13813,24358 13813,24405 13755,24405 13755,24358 Z"/>
             <path fill="rgb(148,148,148)" stroke="none" d="M 13755,24358 L 13813,24358 13813,24405 13755,24405 13755,24358 Z M 13761,24363 L 13807,24363 13807,24400 13761,24400 13761,24363 Z"/>
             <path fill="rgb(149,149,149)" stroke="none" d="M 13761,24363 L 13807,24363 13807,24400 13761,24400 13761,24363 Z M 13767,24367 L 13801,24367 13801,24396 13767,24396 13767,24367 Z"/>
             <path fill="rgb(150,150,150)" stroke="none" d="M 13767,24367 L 13801,24367 13801,24396 13767,24396 13767,24367 Z M 13773,24372 L 13795,24372 13795,24391 13773,24391 13773,24372 Z"/>
             <path fill="rgb(151,151,151)" stroke="none" d="M 13773,24372 L 13795,24372 13795,24391 13773,24391 13773,24372 Z M 13779,24377 L 13789,24377 13789,24386 13779,24386 13779,24377 Z"/>
             <path fill="rgb(153,153,153)" stroke="none" d="M 13779,24377 L 13789,24377 13789,24386 13779,24386 13779,24377 Z"/>
            </g>
           </pattern>
          </defs>
          <path style="fill:url(#pattern1)" d="M 14210,24376 L 14210,24236 13603,24586 13603,24726 14210,24376 Z"/>
         </g>
         <path fill="none" stroke="rgb(178,178,178)" stroke-width="40" stroke-linejoin="round" d="M 14210,24376 L 14210,24236 13603,24586 13603,24726 14210,24376 Z"/>
        </g>
       </g>
       <g class="com.sun.star.drawing.PolyPolygonShape">
        <g id="id7">
         <rect class="BoundingBox" stroke="none" fill="none" x="14068" y="22396" width="404" height="2351"/>
         <g>
          <defs>
           <pattern id="pattern2" x="14088" y="22416" width="364" height="2311" patternUnits="userSpaceOnUse">
            <g transform="translate(-14088,-22416)">
             <path fill="rgb(102,102,102)" stroke="none" d="M 14087,22415 L 14452,22415 14452,24727 14087,24727 14087,22415 Z M 14017,21975 L 14374,21975 14374,24241 14017,24241 14017,21975 Z"/>
             <path fill="rgb(103,103,103)" stroke="none" d="M 14017,21975 L 14374,21975 14374,24241 14017,24241 14017,21975 Z M 14021,21998 L 14370,21998 14370,24218 14021,24218 14021,21998 Z"/>
             <path fill="rgb(104,104,104)" stroke="none" d="M 14021,21998 L 14370,21998 14370,24218 14021,24218 14021,21998 Z M 14024,22021 L 14367,22021 14367,24195 14024,24195 14024,22021 Z"/>
             <path fill="rgb(105,105,105)" stroke="none" d="M 14024,22021 L 14367,22021 14367,24195 14024,24195 14024,22021 Z M 14028,22043 L 14363,22043 14363,24173 14028,24173 14028,22043 Z"/>
             <path fill="rgb(106,106,106)" stroke="none" d="M 14028,22043 L 14363,22043 14363,24173 14028,24173 14028,22043 Z M 14031,22066 L 14360,22066 14360,24150 14031,24150 14031,22066 Z"/>
             <path fill="rgb(107,107,107)" stroke="none" d="M 14031,22066 L 14360,22066 14360,24150 14031,24150 14031,22066 Z M 14035,22089 L 14356,22089 14356,24127 14035,24127 14035,22089 Z"/>
             <path fill="rgb(108,108,108)" stroke="none" d="M 14035,22089 L 14356,22089 14356,24127 14035,24127 14035,22089 Z M 14039,22111 L 14352,22111 14352,24105 14039,24105 14039,22111 Z"/>
             <path fill="rgb(109,109,109)" stroke="none" d="M 14039,22111 L 14352,22111 14352,24105 14039,24105 14039,22111 Z M 14042,22134 L 14349,22134 14349,24082 14042,24082 14042,22134 Z"/>
             <path fill="rgb(110,110,110)" stroke="none" d="M 14042,22134 L 14349,22134 14349,24082 14042,24082 14042,22134 Z M 14046,22157 L 14345,22157 14345,24059 14046,24059 14046,22157 Z"/>
             <path fill="rgb(111,111,111)" stroke="none" d="M 14046,22157 L 14345,22157 14345,24059 14046,24059 14046,22157 Z M 14049,22179 L 14342,22179 14342,24037 14049,24037 14049,22179 Z"/>
             <path fill="rgb(112,112,112)" stroke="none" d="M 14049,22179 L 14342,22179 14342,24037 14049,24037 14049,22179 Z M 14053,22202 L 14338,22202 14338,24014 14053,24014 14053,22202 Z"/>
             <path fill="rgb(113,113,113)" stroke="none" d="M 14053,22202 L 14338,22202 14338,24014 14053,24014 14053,22202 Z M 14057,22225 L 14334,22225 14334,23991 14057,23991 14057,22225 Z"/>
             <path fill="rgb(114,114,114)" stroke="none" d="M 14057,22225 L 14334,22225 14334,23991 14057,23991 14057,22225 Z M 14060,22247 L 14331,22247 14331,23969 14060,23969 14060,22247 Z"/>
             <path fill="rgb(115,115,115)" stroke="none" d="M 14060,22247 L 14331,22247 14331,23969 14060,23969 14060,22247 Z M 14064,22270 L 14327,22270 14327,23946 14064,23946 14064,22270 Z"/>
             <path fill="rgb(116,116,116)" stroke="none" d="M 14064,22270 L 14327,22270 14327,23946 14064,23946 14064,22270 Z M 14067,22293 L 14324,22293 14324,23923 14067,23923 14067,22293 Z"/>
             <path fill="rgb(117,117,117)" stroke="none" d="M 14067,22293 L 14324,22293 14324,23923 14067,23923 14067,22293 Z M 14070,22315 L 14320,22315 14320,23901 14070,23901 14070,22315 Z"/>
             <path fill="rgb(118,118,118)" stroke="none" d="M 14070,22315 L 14320,22315 14320,23901 14070,23901 14070,22315 Z M 14073,22338 L 14317,22338 14317,23878 14073,23878 14073,22338 Z"/>
             <path fill="rgb(119,119,119)" stroke="none" d="M 14073,22338 L 14317,22338 14317,23878 14073,23878 14073,22338 Z M 14077,22361 L 14313,22361 14313,23855 14077,23855 14077,22361 Z"/>
             <path fill="rgb(120,120,120)" stroke="none" d="M 14077,22361 L 14313,22361 14313,23855 14077,23855 14077,22361 Z M 14081,22383 L 14309,22383 14309,23833 14081,23833 14081,22383 Z"/>
             <path fill="rgb(121,121,121)" stroke="none" d="M 14081,22383 L 14309,22383 14309,23833 14081,23833 14081,22383 Z M 14084,22405 L 14306,22405 14306,23810 14084,23810 14084,22405 Z"/>
             <path fill="rgb(122,122,122)" stroke="none" d="M 14084,22405 L 14306,22405 14306,23810 14084,23810 14084,22405 Z M 14088,22428 L 14302,22428 14302,23787 14088,23787 14088,22428 Z"/>
             <path fill="rgb(123,123,123)" stroke="none" d="M 14088,22428 L 14302,22428 14302,23787 14088,23787 14088,22428 Z M 14091,22450 L 14299,22450 14299,23765 14091,23765 14091,22450 Z"/>
             <path fill="rgb(124,124,124)" stroke="none" d="M 14091,22450 L 14299,22450 14299,23765 14091,23765 14091,22450 Z M 14095,22473 L 14295,22473 14295,23742 14095,23742 14095,22473 Z"/>
             <path fill="rgb(125,125,125)" stroke="none" d="M 14095,22473 L 14295,22473 14295,23742 14095,23742 14095,22473 Z M 14099,22496 L 14291,22496 14291,23719 14099,23719 14099,22496 Z"/>
             <path fill="rgb(126,126,126)" stroke="none" d="M 14099,22496 L 14291,22496 14291,23719 14099,23719 14099,22496 Z M 14102,22518 L 14288,22518 14288,23697 14102,23697 14102,22518 Z"/>
             <path fill="rgb(127,127,127)" stroke="none" d="M 14102,22518 L 14288,22518 14288,23697 14102,23697 14102,22518 Z M 14106,22541 L 14284,22541 14284,23674 14106,23674 14106,22541 Z"/>
             <path fill="rgb(128,128,128)" stroke="none" d="M 14106,22541 L 14284,22541 14284,23674 14106,23674 14106,22541 Z M 14109,22564 L 14281,22564 14281,23651 14109,23651 14109,22564 Z"/>
             <path fill="rgb(129,129,129)" stroke="none" d="M 14109,22564 L 14281,22564 14281,23651 14109,23651 14109,22564 Z M 14113,22586 L 14277,22586 14277,23629 14113,23629 14113,22586 Z"/>
             <path fill="rgb(130,130,130)" stroke="none" d="M 14113,22586 L 14277,22586 14277,23629 14113,23629 14113,22586 Z M 14117,22609 L 14273,22609 14273,23606 14117,23606 14117,22609 Z"/>
             <path fill="rgb(131,131,131)" stroke="none" d="M 14117,22609 L 14273,22609 14273,23606 14117,23606 14117,22609 Z M 14120,22632 L 14270,22632 14270,23583 14120,23583 14120,22632 Z"/>
             <path fill="rgb(132,132,132)" stroke="none" d="M 14120,22632 L 14270,22632 14270,23583 14120,23583 14120,22632 Z M 14124,22654 L 14266,22654 14266,23561 14124,23561 14124,22654 Z"/>
             <path fill="rgb(133,133,133)" stroke="none" d="M 14124,22654 L 14266,22654 14266,23561 14124,23561 14124,22654 Z M 14127,22677 L 14263,22677 14263,23538 14127,23538 14127,22677 Z"/>
             <path fill="rgb(134,134,134)" stroke="none" d="M 14127,22677 L 14263,22677 14263,23538 14127,23538 14127,22677 Z M 14131,22700 L 14259,22700 14259,23515 14131,23515 14131,22700 Z"/>
             <path fill="rgb(135,135,135)" stroke="none" d="M 14131,22700 L 14259,22700 14259,23515 14131,23515 14131,22700 Z M 14134,22723 L 14256,22723 14256,23492 14134,23492 14134,22723 Z"/>
             <path fill="rgb(136,136,136)" stroke="none" d="M 14134,22723 L 14256,22723 14256,23492 14134,23492 14134,22723 Z M 14138,22745 L 14252,22745 14252,23470 14138,23470 14138,22745 Z"/>
             <path fill="rgb(137,137,137)" stroke="none" d="M 14138,22745 L 14252,22745 14252,23470 14138,23470 14138,22745 Z M 14142,22768 L 14248,22768 14248,23447 14142,23447 14142,22768 Z"/>
             <path fill="rgb(138,138,138)" stroke="none" d="M 14142,22768 L 14248,22768 14248,23447 14142,23447 14142,22768 Z M 14145,22791 L 14245,22791 14245,23424 14145,23424 14145,22791 Z"/>
             <path fill="rgb(139,139,139)" stroke="none" d="M 14145,22791 L 14245,22791 14245,23424 14145,23424 14145,22791 Z M 14149,22813 L 14241,22813 14241,23402 14149,23402 14149,22813 Z"/>
             <path fill="rgb(140,140,140)" stroke="none" d="M 14149,22813 L 14241,22813 14241,23402 14149,23402 14149,22813 Z M 14152,22836 L 14238,22836 14238,23379 14152,23379 14152,22836 Z"/>
             <path fill="rgb(141,141,141)" stroke="none" d="M 14152,22836 L 14238,22836 14238,23379 14152,23379 14152,22836 Z M 14156,22859 L 14234,22859 14234,23356 14156,23356 14156,22859 Z"/>
             <path fill="rgb(142,142,142)" stroke="none" d="M 14156,22859 L 14234,22859 14234,23356 14156,23356 14156,22859 Z M 14160,22881 L 14230,22881 14230,23334 14160,23334 14160,22881 Z"/>
             <path fill="rgb(143,143,143)" stroke="none" d="M 14160,22881 L 14230,22881 14230,23334 14160,23334 14160,22881 Z M 14163,22904 L 14227,22904 14227,23311 14163,23311 14163,22904 Z"/>
             <path fill="rgb(144,144,144)" stroke="none" d="M 14163,22904 L 14227,22904 14227,23311 14163,23311 14163,22904 Z M 14167,22927 L 14223,22927 14223,23288 14167,23288 14167,22927 Z"/>
             <path fill="rgb(145,145,145)" stroke="none" d="M 14167,22927 L 14223,22927 14223,23288 14167,23288 14167,22927 Z M 14170,22949 L 14220,22949 14220,23266 14170,23266 14170,22949 Z"/>
             <path fill="rgb(146,146,146)" stroke="none" d="M 14170,22949 L 14220,22949 14220,23266 14170,23266 14170,22949 Z M 14174,22972 L 14216,22972 14216,23243 14174,23243 14174,22972 Z"/>
             <path fill="rgb(147,147,147)" stroke="none" d="M 14174,22972 L 14216,22972 14216,23243 14174,23243 14174,22972 Z M 14178,22995 L 14212,22995 14212,23220 14178,23220 14178,22995 Z"/>
             <path fill="rgb(148,148,148)" stroke="none" d="M 14178,22995 L 14212,22995 14212,23220 14178,23220 14178,22995 Z M 14181,23017 L 14209,23017 14209,23198 14181,23198 14181,23017 Z"/>
             <path fill="rgb(149,149,149)" stroke="none" d="M 14181,23017 L 14209,23017 14209,23198 14181,23198 14181,23017 Z M 14185,23040 L 14205,23040 14205,23175 14185,23175 14185,23040 Z"/>
             <path fill="rgb(150,150,150)" stroke="none" d="M 14185,23040 L 14205,23040 14205,23175 14185,23175 14185,23040 Z M 14188,23063 L 14202,23063 14202,23152 14188,23152 14188,23063 Z"/>
             <path fill="rgb(151,151,151)" stroke="none" d="M 14188,23063 L 14202,23063 14202,23152 14188,23152 14188,23063 Z M 14192,23085 L 14198,23085 14198,23130 14192,23130 14192,23085 Z"/>
             <path fill="rgb(153,153,153)" stroke="none" d="M 14192,23085 L 14198,23085 14198,23130 14192,23130 14192,23085 Z"/>
            </g>
           </pattern>
          </defs>
          <path style="fill:url(#pattern2)" d="M 14451,24516 L 14451,22416 14088,22626 14088,24726 14451,24516 Z"/>
         </g>
         <path fill="none" stroke="rgb(178,178,178)" stroke-width="40" stroke-linejoin="round" d="M 14451,24516 L 14451,22416 14088,22626 14088,24726 14451,24516 Z"/>
        </g>
       </g>
       <g class="com.sun.star.drawing.PolyPolygonShape">
        <g id="id8">
         <rect class="BoundingBox" stroke="none" fill="none" x="12733" y="24076" width="892" height="671"/>
         <g>
          <defs>
           <linearGradient id="gradient2" x1="12752" y1="24411" x2="13604" y2="24411" gradientUnits="userSpaceOnUse">
            <stop offset="0.1" style="stop-color:rgb(102,102,102)"/>
            <stop offset="1" style="stop-color:rgb(153,153,153)"/>
           </linearGradient>
          </defs>
          <path style="fill:url(#gradient2)" d="M 13603,24726 L 13604,24586 12754,24096 12753,24236 13603,24726 Z"/>
         </g>
         <path fill="none" stroke="rgb(178,178,178)" stroke-width="40" stroke-linejoin="round" d="M 13603,24726 L 13604,24586 12754,24096 12753,24236 13603,24726 Z"/>
        </g>
       </g>
       <g class="com.sun.star.drawing.PolyPolygonShape">
        <g id="id9">
         <rect class="BoundingBox" stroke="none" fill="none" x="12734" y="23936" width="1132" height="671"/>
         <g>
          <defs>
           <linearGradient id="gradient3" x1="13299" y1="23956" x2="13299" y2="24586" gradientUnits="userSpaceOnUse">
            <stop offset="0.1" style="stop-color:rgb(51,51,51)"/>
            <stop offset="1" style="stop-color:rgb(153,153,153)"/>
           </linearGradient>
          </defs>
          <path style="fill:url(#gradient3)" d="M 13603,24586 L 13845,24446 12996,23956 12754,24096 13603,24586 Z"/>
         </g>
         <path fill="none" stroke="rgb(178,178,178)" stroke-width="40" stroke-linejoin="round" d="M 13603,24586 L 13845,24446 12996,23956 12754,24096 13603,24586 Z"/>
        </g>
       </g>
       <g class="com.sun.star.drawing.PolyPolygonShape">
        <g id="id10">
         <rect class="BoundingBox" stroke="none" fill="none" x="12613" y="21766" width="1497" height="2981"/>
         <g>
          <defs>
           <linearGradient id="gradient4" x1="12631" y1="23256" x2="14089" y2="23256" gradientUnits="userSpaceOnUse">
            <stop offset="0.1" style="stop-color:rgb(102,102,102)"/>
            <stop offset="1" style="stop-color:rgb(153,153,153)"/>
           </linearGradient>
          </defs>
          <path style="fill:url(#gradient4)" d="M 14088,24726 L 14088,22626 12633,21786 12633,23886 14088,24726 Z"/>
         </g>
         <path fill="none" stroke="rgb(178,178,178)" stroke-width="40" stroke-linejoin="round" d="M 14088,24726 L 14088,22626 12633,21786 12633,23886 14088,24726 Z"/>
        </g>
       </g>
       <g class="com.sun.star.drawing.PolyPolygonShape">
        <g id="id11">
         <rect class="BoundingBox" stroke="none" fill="none" x="12612" y="21556" width="1860" height="3191"/>
         <path fill="none" stroke="rgb(0,0,0)" stroke-width="40" stroke-linejoin="round" d="M 14451,24516 L 14451,22416 12996,21576 12633,21786 12633,23886 12875,24026 12754,24096 12754,24236 13603,24726 13845,24586 14088,24726 14451,24516 Z"/>
        </g>
       </g>
       <g class="com.sun.star.drawing.PolyPolygonShape">
        <g id="id12">
         <rect class="BoundingBox" stroke="none" fill="none" x="14189" y="23376" width="163" height="252"/>
         <path fill="rgb(102,102,255)" stroke="none" d="M 14330,23536 L 14330,23396 14209,23466 14209,23606 14330,23536 Z"/>
         <path fill="none" stroke="rgb(51,51,51)" stroke-width="40" stroke-linejoin="round" d="M 14330,23536 L 14330,23396 14209,23466 14209,23606 14330,23536 Z"/>
        </g>
       </g>
      </g>
     </g>
    </g>
   </g>
  </g>
 </g>
</svg>