<?xml version="1.0" encoding="UTF-8"?>
<!DOCTYPE svg PUBLIC "-//W3C//DTD SVG 1.1//EN" "http://www.w3.org/Graphics/SVG/1.1/DTD/svg11.dtd">
<svg version="1.2" width="21.65mm" height="31.9mm" viewBox="9571 17169 2165 3190" preserveAspectRatio="xMidYMid" fill-rule="evenodd" stroke-width="28.222" stroke-linejoin="round" xmlns="http://www.w3.org/2000/svg" xmlns:ooo="http://xml.openoffice.org/svg/export" xmlns:xlink="http://www.w3.org/1999/xlink" xmlns:presentation="http://sun.com/xmlns/staroffice/presentation" xmlns:smil="http://www.w3.org/2001/SMIL20/" xmlns:anim="urn:oasis:names:tc:opendocument:xmlns:animation:1.0" xml:space="preserve">
 <defs class="ClipPathGroup">
  <clipPath id="presentation_clip_path" clipPathUnits="userSpaceOnUse">
   <rect x="9571" y="17169" width="2165" height="3190"/>
  </clipPath>
 </defs>
 <defs class="TextShapeIndex">
  <g ooo:slide="id1" ooo:id-list="id3 id4 id5 id6 id7 id8 id9 id10 id11 id12"/>
 </defs>
 <defs class="EmbeddedBulletChars">
  <g id="bullet-char-template(57356)" transform="scale(0.00048828125,-0.00048828125)">
   <path d="M 580,1141 L 1163,571 580,0 -4,571 580,1141 Z"/>
  </g>
  <g id="bullet-char-template(57354)" transform="scale(0.00048828125,-0.00048828125)">
   <path d="M 8,1128 L 1137,1128 1137,0 8,0 8,1128 Z"/>
  </g>
  <g id="bullet-char-template(10146)" transform="scale(0.00048828125,-0.00048828125)">
   <path d="M 174,0 L 602,739 174,1481 1456,739 174,0 Z M 1358,739 L 309,1346 659,739 1358,739 Z"/>
  </g>
  <g id="bullet-char-template(10132)" transform="scale(0.00048828125,-0.00048828125)">
   <path d="M 2015,739 L 1276,0 717,0 1260,543 174,543 174,936 1260,936 717,1481 1274,1481 2015,739 Z"/>
  </g>
  <g id="bullet-char-template(10007)" transform="scale(0.00048828125,-0.00048828125)">
   <path d="M 0,-2 C -7,14 -16,27 -25,37 L 356,567 C 262,823 215,952 215,954 215,979 228,992 255,992 264,992 276,990 289,987 310,991 331,999 354,1012 L 381,999 492,748 772,1049 836,1024 860,1049 C 881,1039 901,1025 922,1006 886,937 835,863 770,784 769,783 710,716 594,584 L 774,223 C 774,196 753,168 711,139 L 727,119 C 717,90 699,76 672,76 641,76 570,178 457,381 L 164,-76 C 142,-110 111,-127 72,-127 30,-127 9,-110 8,-76 1,-67 -2,-52 -2,-32 -2,-23 -1,-13 0,-2 Z"/>
  </g>
  <g id="bullet-char-template(10004)" transform="scale(0.00048828125,-0.00048828125)">
   <path d="M 285,-33 C 182,-33 111,30 74,156 52,228 41,333 41,471 41,549 55,616 82,672 116,743 169,778 240,778 293,778 328,747 346,684 L 369,508 C 377,444 397,411 428,410 L 1163,1116 C 1174,1127 1196,1133 1229,1133 1271,1133 1292,1118 1292,1087 L 1292,965 C 1292,929 1282,901 1262,881 L 442,47 C 390,-6 338,-33 285,-33 Z"/>
  </g>
  <g id="bullet-char-template(9679)" transform="scale(0.00048828125,-0.00048828125)">
   <path d="M 813,0 C 632,0 489,54 383,161 276,268 223,411 223,592 223,773 276,916 383,1023 489,1130 632,1184 813,1184 992,1184 1136,1130 1245,1023 1353,916 1407,772 1407,592 1407,412 1353,268 1245,161 1136,54 992,0 813,0 Z"/>
  </g>
  <g id="bullet-char-template(8226)" transform="scale(0.00048828125,-0.00048828125)">
   <path d="M 346,457 C 273,457 209,483 155,535 101,586 74,649 74,723 74,796 101,859 155,911 209,963 273,989 346,989 419,989 480,963 531,910 582,859 608,796 608,723 608,648 583,586 532,535 482,483 420,457 346,457 Z"/>
  </g>
  <g id="bullet-char-template(8211)" transform="scale(0.00048828125,-0.00048828125)">
   <path d="M -4,459 L 1135,459 1135,606 -4,606 -4,459 Z"/>
  </g>
 </defs>
 <defs class="TextEmbeddedBitmaps"/>
 <g class="SlideGroup">
  <g>
   <g id="id1" class="Slide" clip-path="url(#presentation_clip_path)">
    <g class="Page">
     <g class="Group">
      <g class="com.sun.star.drawing.ClosedBezierShape">
       <g id="id3">
        <rect class="BoundingBox" stroke="none" fill="none" x="10419" y="19339" width="1319" height="1021"/>
        <path fill="rgb(221,221,221)" stroke="none" d="M 10439,20339 C 10820,20339 11167,20129 11531,19919 11895,19709 11652,19359 11409,19359 11424,19390 10439,20339 10439,20339 Z"/>
        <path fill="none" stroke="rgb(221,221,221)" stroke-width="40" stroke-linejoin="round" d="M 10439,20339 C 10820,20339 11167,20129 11531,19919 11895,19709 11652,19359 11409,19359 11424,19390 10439,20339 10439,20339 Z"/>
       </g>
      </g>
      <g class="Group">
       <g class="com.sun.star.drawing.PolyPolygonShape">
        <g id="id4">
         <rect class="BoundingBox" stroke="none" fill="none" x="9570" y="17169" width="1860" height="1091"/>
         <g>
          <defs>
           <linearGradient id="gradient1" x1="10500" y1="17189" x2="10500" y2="18239" gradientUnits="userSpaceOnUse">
            <stop offset="0.1" style="stop-color:rgb(51,51,51)"/>
            <stop offset="1" style="stop-color:rgb(153,153,153)"/>
           </linearGradient>
          </defs>
          <path style="fill:url(#gradient1)" d="M 9954,18239 L 9591,18029 11046,17189 11409,17399 9954,18239 Z"/>
         </g>
         <path fill="none" stroke="rgb(178,178,178)" stroke-width="40" stroke-linejoin="round" d="M 9954,18239 L 9591,18029 11046,17189 11409,17399 9954,18239 Z"/>
        </g>
       </g>
       <g class="com.sun.star.drawing.PolyPolygonShape">
        <g id="id5">
         <rect class="BoundingBox" stroke="none" fill="none" x="9709" y="18346" width="181" height="362"/>
         <path fill="rgb(57,181,74)" stroke="none" d="M 9729,18607 L 9729,18366 9868,18446 9868,18687 9729,18607 Z"/>
         <path fill="none" stroke="rgb(51,51,51)" stroke-width="40" stroke-linejoin="round" d="M 9729,18607 L 9729,18366 9868,18446 9868,18687 9729,18607 Z"/>
        </g>
       </g>
       <g class="com.sun.star.drawing.PolyPolygonShape">
        <g id="id6">
         <rect class="BoundingBox" stroke="none" fill="none" x="9812" y="19829" width="649" height="531"/>
         <g>
          <defs>
           <linearGradient id="gradient2" x1="9831" y1="20094" x2="10439" y2="20094" gradientUnits="userSpaceOnUse">
            <stop offset="0.1" style="stop-color:rgb(51,51,51)"/>
            <stop offset="1" style="stop-color:rgb(153,153,153)"/>
           </linearGradient>
          </defs>
          <path style="fill:url(#gradient2)" d="M 9832,19989 L 9832,19849 10439,20199 10439,20339 9832,19989 Z"/>
         </g>
         <path fill="none" stroke="rgb(178,178,178)" stroke-width="40" stroke-linejoin="round" d="M 9832,19989 L 9832,19849 10439,20199 10439,20339 9832,19989 Z"/>
        </g>
       </g>
       <g class="com.sun.star.drawing.PolyPolygonShape">
        <g id="id7">
         <rect class="BoundingBox" stroke="none" fill="none" x="9571" y="18009" width="404" height="2352"/>
         <g>
          <defs>
           <linearGradient id="gradient3" x1="9590" y1="19184" x2="9954" y2="19184" gradientUnits="userSpaceOnUse">
            <stop offset="0.1" style="stop-color:rgb(51,51,51)"/>
            <stop offset="1" style="stop-color:rgb(153,153,153)"/>
           </linearGradient>
          </defs>
          <path style="fill:url(#gradient3)" d="M 9591,20129 L 9591,18029 9954,18239 9954,20339 9591,20129 Z"/>
         </g>
         <path fill="none" stroke="rgb(178,178,178)" stroke-width="40" stroke-linejoin="round" d="M 9591,20129 L 9591,18029 9954,18239 9954,20339 9591,20129 Z"/>
        </g>
       </g>
       <g class="com.sun.star.drawing.PolyPolygonShape">
        <g id="id8">
         <rect class="BoundingBox" stroke="none" fill="none" x="10418" y="19689" width="892" height="671"/>
         <g>
          <defs>
           <pattern id="pattern1" x="10438" y="19709" width="852" height="631" patternUnits="userSpaceOnUse">
            <g transform="translate(-10438,-19709)">
             <path fill="rgb(51,51,51)" stroke="none" d="M 10437,19708 L 11290,19708 11290,20340 10437,20340 10437,19708 Z M 10271,19585 L 11114,19585 11114,20209 10271,20209 10271,19585 Z"/>
             <path fill="rgb(52,52,52)" stroke="none" d="M 10271,19585 L 11114,19585 11114,20209 10271,20209 10271,19585 Z M 10275,19588 L 11110,19588 11110,20206 10275,20206 10275,19588 Z"/>
             <path fill="rgb(53,53,53)" stroke="none" d="M 10275,19588 L 11110,19588 11110,20206 10275,20206 10275,19588 Z M 10279,19591 L 11106,19591 11106,20203 10279,20203 10279,19591 Z"/>
             <path fill="rgb(54,54,54)" stroke="none" d="M 10279,19591 L 11106,19591 11106,20203 10279,20203 10279,19591 Z M 10283,19594 L 11102,19594 11102,20200 10283,20200 10283,19594 Z"/>
             <path fill="rgb(55,55,55)" stroke="none" d="M 10283,19594 L 11102,19594 11102,20200 10283,20200 10283,19594 Z M 10287,19597 L 11098,19597 11098,20197 10287,20197 10287,19597 Z"/>
             <path fill="rgb(56,56,56)" stroke="none" d="M 10287,19597 L 11098,19597 11098,20197 10287,20197 10287,19597 Z M 10292,19600 L 11093,19600 11093,20194 10292,20194 10292,19600 Z"/>
             <path fill="rgb(57,57,57)" stroke="none" d="M 10292,19600 L 11093,19600 11093,20194 10292,20194 10292,19600 Z M 10296,19603 L 11089,19603 11089,20191 10296,20191 10296,19603 Z"/>
             <path fill="rgb(58,58,58)" stroke="none" d="M 10296,19603 L 11089,19603 11089,20191 10296,20191 10296,19603 Z M 10300,19606 L 11085,19606 11085,20188 10300,20188 10300,19606 Z"/>
             <path fill="rgb(59,59,59)" stroke="none" d="M 10300,19606 L 11085,19606 11085,20188 10300,20188 10300,19606 Z M 10304,19609 L 11081,19609 11081,20185 10304,20185 10304,19609 Z"/>
             <path fill="rgb(60,60,60)" stroke="none" d="M 10304,19609 L 11081,19609 11081,20185 10304,20185 10304,19609 Z M 10308,19613 L 11077,19613 11077,20181 10308,20181 10308,19613 Z"/>
             <path fill="rgb(61,61,61)" stroke="none" d="M 10308,19613 L 11077,19613 11077,20181 10308,20181 10308,19613 Z M 10313,19616 L 11072,19616 11072,20178 10313,20178 10313,19616 Z"/>
             <path fill="rgb(62,62,62)" stroke="none" d="M 10313,19616 L 11072,19616 11072,20178 10313,20178 10313,19616 Z M 10317,19619 L 11068,19619 11068,20175 10317,20175 10317,19619 Z"/>
             <path fill="rgb(63,63,63)" stroke="none" d="M 10317,19619 L 11068,19619 11068,20175 10317,20175 10317,19619 Z M 10321,19622 L 11064,19622 11064,20172 10321,20172 10321,19622 Z"/>
             <path fill="rgb(64,64,64)" stroke="none" d="M 10321,19622 L 11064,19622 11064,20172 10321,20172 10321,19622 Z M 10325,19625 L 11060,19625 11060,20169 10325,20169 10325,19625 Z"/>
             <path fill="rgb(65,65,65)" stroke="none" d="M 10325,19625 L 11060,19625 11060,20169 10325,20169 10325,19625 Z M 10329,19628 L 11056,19628 11056,20166 10329,20166 10329,19628 Z"/>
             <path fill="rgb(66,66,66)" stroke="none" d="M 10329,19628 L 11056,19628 11056,20166 10329,20166 10329,19628 Z M 10333,19631 L 11052,19631 11052,20163 10333,20163 10333,19631 Z"/>
             <path fill="rgb(67,67,67)" stroke="none" d="M 10333,19631 L 11052,19631 11052,20163 10333,20163 10333,19631 Z M 10338,19634 L 11047,19634 11047,20160 10338,20160 10338,19634 Z"/>
             <path fill="rgb(68,68,68)" stroke="none" d="M 10338,19634 L 11047,19634 11047,20160 10338,20160 10338,19634 Z M 10342,19637 L 11043,19637 11043,20157 10342,20157 10342,19637 Z"/>
             <path fill="rgb(69,69,69)" stroke="none" d="M 10342,19637 L 11043,19637 11043,20157 10342,20157 10342,19637 Z M 10346,19640 L 11039,19640 11039,20154 10346,20154 10346,19640 Z"/>
             <path fill="rgb(70,70,70)" stroke="none" d="M 10346,19640 L 11039,19640 11039,20154 10346,20154 10346,19640 Z M 10350,19644 L 11035,19644 11035,20150 10350,20150 10350,19644 Z"/>
             <path fill="rgb(71,71,71)" stroke="none" d="M 10350,19644 L 11035,19644 11035,20150 10350,20150 10350,19644 Z M 10354,19647 L 11031,19647 11031,20147 10354,20147 10354,19647 Z"/>
             <path fill="rgb(72,72,72)" stroke="none" d="M 10354,19647 L 11031,19647 11031,20147 10354,20147 10354,19647 Z M 10359,19650 L 11026,19650 11026,20144 10359,20144 10359,19650 Z"/>
             <path fill="rgb(73,73,73)" stroke="none" d="M 10359,19650 L 11026,19650 11026,20144 10359,20144 10359,19650 Z M 10363,19653 L 11022,19653 11022,20141 10363,20141 10363,19653 Z"/>
             <path fill="rgb(74,74,74)" stroke="none" d="M 10363,19653 L 11022,19653 11022,20141 10363,20141 10363,19653 Z M 10367,19656 L 11018,19656 11018,20138 10367,20138 10367,19656 Z"/>
             <path fill="rgb(75,75,75)" stroke="none" d="M 10367,19656 L 11018,19656 11018,20138 10367,20138 10367,19656 Z M 10371,19659 L 11014,19659 11014,20135 10371,20135 10371,19659 Z"/>
             <path fill="rgb(76,76,76)" stroke="none" d="M 10371,19659 L 11014,19659 11014,20135 10371,20135 10371,19659 Z M 10375,19662 L 11010,19662 11010,20132 10375,20132 10375,19662 Z"/>
             <path fill="rgb(77,77,77)" stroke="none" d="M 10375,19662 L 11010,19662 11010,20132 10375,20132 10375,19662 Z M 10380,19665 L 11005,19665 11005,20129 10380,20129 10380,19665 Z"/>
             <path fill="rgb(78,78,78)" stroke="none" d="M 10380,19665 L 11005,19665 11005,20129 10380,20129 10380,19665 Z M 10384,19668 L 11001,19668 11001,20126 10384,20126 10384,19668 Z"/>
             <path fill="rgb(79,79,79)" stroke="none" d="M 10384,19668 L 11001,19668 11001,20126 10384,20126 10384,19668 Z M 10388,19671 L 10997,19671 10997,20123 10388,20123 10388,19671 Z"/>
             <path fill="rgb(80,80,80)" stroke="none" d="M 10388,19671 L 10997,19671 10997,20123 10388,20123 10388,19671 Z M 10392,19675 L 10993,19675 10993,20119 10392,20119 10392,19675 Z"/>
             <path fill="rgb(81,81,81)" stroke="none" d="M 10392,19675 L 10993,19675 10993,20119 10392,20119 10392,19675 Z M 10396,19678 L 10989,19678 10989,20116 10396,20116 10396,19678 Z"/>
             <path fill="rgb(82,82,82)" stroke="none" d="M 10396,19678 L 10989,19678 10989,20116 10396,20116 10396,19678 Z M 10400,19681 L 10985,19681 10985,20113 10400,20113 10400,19681 Z"/>
             <path fill="rgb(83,83,83)" stroke="none" d="M 10400,19681 L 10985,19681 10985,20113 10400,20113 10400,19681 Z M 10405,19684 L 10980,19684 10980,20110 10405,20110 10405,19684 Z"/>
             <path fill="rgb(84,84,84)" stroke="none" d="M 10405,19684 L 10980,19684 10980,20110 10405,20110 10405,19684 Z M 10409,19687 L 10976,19687 10976,20107 10409,20107 10409,19687 Z"/>
             <path fill="rgb(85,85,85)" stroke="none" d="M 10409,19687 L 10976,19687 10976,20107 10409,20107 10409,19687 Z M 10413,19689 L 10972,19689 10972,20104 10413,20104 10413,19689 Z"/>
             <path fill="rgb(86,86,86)" stroke="none" d="M 10413,19689 L 10972,19689 10972,20104 10413,20104 10413,19689 Z M 10417,19692 L 10968,19692 10968,20101 10417,20101 10417,19692 Z"/>
             <path fill="rgb(87,87,87)" stroke="none" d="M 10417,19692 L 10968,19692 10968,20101 10417,20101 10417,19692 Z M 10420,19695 L 10964,19695 10964,20098 10420,20098 10420,19695 Z"/>
             <path fill="rgb(88,88,88)" stroke="none" d="M 10420,19695 L 10964,19695 10964,20098 10420,20098 10420,19695 Z M 10425,19698 L 10959,19698 10959,20095 10425,20095 10425,19698 Z"/>
             <path fill="rgb(89,89,89)" stroke="none" d="M 10425,19698 L 10959,19698 10959,20095 10425,20095 10425,19698 Z M 10429,19702 L 10955,19702 10955,20091 10429,20091 10429,19702 Z"/>
             <path fill="rgb(90,90,90)" stroke="none" d="M 10429,19702 L 10955,19702 10955,20091 10429,20091 10429,19702 Z M 10433,19705 L 10951,19705 10951,20088 10433,20088 10433,19705 Z"/>
             <path fill="rgb(91,91,91)" stroke="none" d="M 10433,19705 L 10951,19705 10951,20088 10433,20088 10433,19705 Z M 10437,19708 L 10947,19708 10947,20085 10437,20085 10437,19708 Z"/>
             <path fill="rgb(92,92,92)" stroke="none" d="M 10437,19708 L 10947,19708 10947,20085 10437,20085 10437,19708 Z M 10441,19711 L 10943,19711 10943,20082 10441,20082 10441,19711 Z"/>
             <path fill="rgb(93,93,93)" stroke="none" d="M 10441,19711 L 10943,19711 10943,20082 10441,20082 10441,19711 Z M 10446,19714 L 10938,19714 10938,20079 10446,20079 10446,19714 Z"/>
             <path fill="rgb(94,94,94)" stroke="none" d="M 10446,19714 L 10938,19714 10938,20079 10446,20079 10446,19714 Z M 10450,19717 L 10934,19717 10934,20076 10450,20076 10450,19717 Z"/>
             <path fill="rgb(95,95,95)" stroke="none" d="M 10450,19717 L 10934,19717 10934,20076 10450,20076 10450,19717 Z M 10454,19720 L 10930,19720 10930,20073 10454,20073 10454,19720 Z"/>
             <path fill="rgb(96,96,96)" stroke="none" d="M 10454,19720 L 10930,19720 10930,20073 10454,20073 10454,19720 Z M 10458,19723 L 10926,19723 10926,20070 10458,20070 10458,19723 Z"/>
             <path fill="rgb(97,97,97)" stroke="none" d="M 10458,19723 L 10926,19723 10926,20070 10458,20070 10458,19723 Z M 10462,19726 L 10922,19726 10922,20067 10462,20067 10462,19726 Z"/>
             <path fill="rgb(98,98,98)" stroke="none" d="M 10462,19726 L 10922,19726 10922,20067 10462,20067 10462,19726 Z M 10466,19729 L 10918,19729 10918,20064 10466,20064 10466,19729 Z"/>
             <path fill="rgb(99,99,99)" stroke="none" d="M 10466,19729 L 10918,19729 10918,20064 10466,20064 10466,19729 Z M 10471,19733 L 10913,19733 10913,20060 10471,20060 10471,19733 Z"/>
             <path fill="rgb(100,100,100)" stroke="none" d="M 10471,19733 L 10913,19733 10913,20060 10471,20060 10471,19733 Z M 10475,19736 L 10909,19736 10909,20057 10475,20057 10475,19736 Z"/>
             <path fill="rgb(101,101,101)" stroke="none" d="M 10475,19736 L 10909,19736 10909,20057 10475,20057 10475,19736 Z M 10479,19739 L 10905,19739 10905,20054 10479,20054 10479,19739 Z"/>
             <path fill="rgb(102,102,102)" stroke="none" d="M 10479,19739 L 10905,19739 10905,20054 10479,20054 10479,19739 Z M 10483,19742 L 10901,19742 10901,20051 10483,20051 10483,19742 Z"/>
             <path fill="rgb(103,103,103)" stroke="none" d="M 10483,19742 L 10901,19742 10901,20051 10483,20051 10483,19742 Z M 10487,19745 L 10897,19745 10897,20048 10487,20048 10487,19745 Z"/>
             <path fill="rgb(104,104,104)" stroke="none" d="M 10487,19745 L 10897,19745 10897,20048 10487,20048 10487,19745 Z M 10492,19748 L 10892,19748 10892,20045 10492,20045 10492,19748 Z"/>
             <path fill="rgb(105,105,105)" stroke="none" d="M 10492,19748 L 10892,19748 10892,20045 10492,20045 10492,19748 Z M 10496,19751 L 10888,19751 10888,20042 10496,20042 10496,19751 Z"/>
             <path fill="rgb(106,106,106)" stroke="none" d="M 10496,19751 L 10888,19751 10888,20042 10496,20042 10496,19751 Z M 10500,19754 L 10884,19754 10884,20039 10500,20039 10500,19754 Z"/>
             <path fill="rgb(107,107,107)" stroke="none" d="M 10500,19754 L 10884,19754 10884,20039 10500,20039 10500,19754 Z M 10504,19757 L 10880,19757 10880,20036 10504,20036 10504,19757 Z"/>
             <path fill="rgb(108,108,108)" stroke="none" d="M 10504,19757 L 10880,19757 10880,20036 10504,20036 10504,19757 Z M 10508,19760 L 10876,19760 10876,20033 10508,20033 10508,19760 Z"/>
             <path fill="rgb(109,109,109)" stroke="none" d="M 10508,19760 L 10876,19760 10876,20033 10508,20033 10508,19760 Z M 10512,19764 L 10872,19764 10872,20029 10512,20029 10512,19764 Z"/>
             <path fill="rgb(110,110,110)" stroke="none" d="M 10512,19764 L 10872,19764 10872,20029 10512,20029 10512,19764 Z M 10517,19767 L 10867,19767 10867,20026 10517,20026 10517,19767 Z"/>
             <path fill="rgb(111,111,111)" stroke="none" d="M 10517,19767 L 10867,19767 10867,20026 10517,20026 10517,19767 Z M 10521,19770 L 10863,19770 10863,20023 10521,20023 10521,19770 Z"/>
             <path fill="rgb(112,112,112)" stroke="none" d="M 10521,19770 L 10863,19770 10863,20023 10521,20023 10521,19770 Z M 10525,19773 L 10859,19773 10859,20020 10525,20020 10525,19773 Z"/>
             <path fill="rgb(113,113,113)" stroke="none" d="M 10525,19773 L 10859,19773 10859,20020 10525,20020 10525,19773 Z M 10529,19776 L 10855,19776 10855,20017 10529,20017 10529,19776 Z"/>
             <path fill="rgb(114,114,114)" stroke="none" d="M 10529,19776 L 10855,19776 10855,20017 10529,20017 10529,19776 Z M 10533,19779 L 10851,19779 10851,20014 10533,20014 10533,19779 Z"/>
             <path fill="rgb(115,115,115)" stroke="none" d="M 10533,19779 L 10851,19779 10851,20014 10533,20014 10533,19779 Z M 10538,19782 L 10846,19782 10846,20011 10538,20011 10538,19782 Z"/>
             <path fill="rgb(116,116,116)" stroke="none" d="M 10538,19782 L 10846,19782 10846,20011 10538,20011 10538,19782 Z M 10542,19785 L 10842,19785 10842,20008 10542,20008 10542,19785 Z"/>
             <path fill="rgb(117,117,117)" stroke="none" d="M 10542,19785 L 10842,19785 10842,20008 10542,20008 10542,19785 Z M 10546,19788 L 10838,19788 10838,20005 10546,20005 10546,19788 Z"/>
             <path fill="rgb(118,118,118)" stroke="none" d="M 10546,19788 L 10838,19788 10838,20005 10546,20005 10546,19788 Z M 10550,19792 L 10834,19792 10834,20001 10550,20001 10550,19792 Z"/>
             <path fill="rgb(119,119,119)" stroke="none" d="M 10550,19792 L 10834,19792 10834,20001 10550,20001 10550,19792 Z M 10554,19795 L 10830,19795 10830,19998 10554,19998 10554,19795 Z"/>
             <path fill="rgb(120,120,120)" stroke="none" d="M 10554,19795 L 10830,19795 10830,19998 10554,19998 10554,19795 Z M 10559,19798 L 10825,19798 10825,19995 10559,19995 10559,19798 Z"/>
             <path fill="rgb(121,121,121)" stroke="none" d="M 10559,19798 L 10825,19798 10825,19995 10559,19995 10559,19798 Z M 10563,19801 L 10821,19801 10821,19992 10563,19992 10563,19801 Z"/>
             <path fill="rgb(122,122,122)" stroke="none" d="M 10563,19801 L 10821,19801 10821,19992 10563,19992 10563,19801 Z M 10567,19804 L 10817,19804 10817,19989 10567,19989 10567,19804 Z"/>
             <path fill="rgb(123,123,123)" stroke="none" d="M 10567,19804 L 10817,19804 10817,19989 10567,19989 10567,19804 Z M 10571,19807 L 10813,19807 10813,19986 10571,19986 10571,19807 Z"/>
             <path fill="rgb(124,124,124)" stroke="none" d="M 10571,19807 L 10813,19807 10813,19986 10571,19986 10571,19807 Z M 10575,19810 L 10809,19810 10809,19983 10575,19983 10575,19810 Z"/>
             <path fill="rgb(125,125,125)" stroke="none" d="M 10575,19810 L 10809,19810 10809,19983 10575,19983 10575,19810 Z M 10579,19813 L 10805,19813 10805,19980 10579,19980 10579,19813 Z"/>
             <path fill="rgb(126,126,126)" stroke="none" d="M 10579,19813 L 10805,19813 10805,19980 10579,19980 10579,19813 Z M 10584,19816 L 10800,19816 10800,19977 10584,19977 10584,19816 Z"/>
             <path fill="rgb(127,127,127)" stroke="none" d="M 10584,19816 L 10800,19816 10800,19977 10584,19977 10584,19816 Z M 10588,19819 L 10796,19819 10796,19974 10588,19974 10588,19819 Z"/>
             <path fill="rgb(128,128,128)" stroke="none" d="M 10588,19819 L 10796,19819 10796,19974 10588,19974 10588,19819 Z M 10592,19823 L 10792,19823 10792,19970 10592,19970 10592,19823 Z"/>
             <path fill="rgb(129,129,129)" stroke="none" d="M 10592,19823 L 10792,19823 10792,19970 10592,19970 10592,19823 Z M 10596,19826 L 10788,19826 10788,19967 10596,19967 10596,19826 Z"/>
             <path fill="rgb(130,130,130)" stroke="none" d="M 10596,19826 L 10788,19826 10788,19967 10596,19967 10596,19826 Z M 10600,19829 L 10784,19829 10784,19964 10600,19964 10600,19829 Z"/>
             <path fill="rgb(131,131,131)" stroke="none" d="M 10600,19829 L 10784,19829 10784,19964 10600,19964 10600,19829 Z M 10605,19832 L 10779,19832 10779,19961 10605,19961 10605,19832 Z"/>
             <path fill="rgb(132,132,132)" stroke="none" d="M 10605,19832 L 10779,19832 10779,19961 10605,19961 10605,19832 Z M 10609,19835 L 10775,19835 10775,19958 10609,19958 10609,19835 Z"/>
             <path fill="rgb(133,133,133)" stroke="none" d="M 10609,19835 L 10775,19835 10775,19958 10609,19958 10609,19835 Z M 10613,19838 L 10771,19838 10771,19955 10613,19955 10613,19838 Z"/>
             <path fill="rgb(134,134,134)" stroke="none" d="M 10613,19838 L 10771,19838 10771,19955 10613,19955 10613,19838 Z M 10617,19841 L 10767,19841 10767,19952 10617,19952 10617,19841 Z"/>
             <path fill="rgb(135,135,135)" stroke="none" d="M 10617,19841 L 10767,19841 10767,19952 10617,19952 10617,19841 Z M 10621,19844 L 10763,19844 10763,19949 10621,19949 10621,19844 Z"/>
             <path fill="rgb(136,136,136)" stroke="none" d="M 10621,19844 L 10763,19844 10763,19949 10621,19949 10621,19844 Z M 10626,19847 L 10758,19847 10758,19946 10626,19946 10626,19847 Z"/>
             <path fill="rgb(137,137,137)" stroke="none" d="M 10626,19847 L 10758,19847 10758,19946 10626,19946 10626,19847 Z M 10630,19850 L 10754,19850 10754,19943 10630,19943 10630,19850 Z"/>
             <path fill="rgb(138,138,138)" stroke="none" d="M 10630,19850 L 10754,19850 10754,19943 10630,19943 10630,19850 Z M 10634,19854 L 10750,19854 10750,19939 10634,19939 10634,19854 Z"/>
             <path fill="rgb(139,139,139)" stroke="none" d="M 10634,19854 L 10750,19854 10750,19939 10634,19939 10634,19854 Z M 10638,19857 L 10746,19857 10746,19936 10638,19936 10638,19857 Z"/>
             <path fill="rgb(140,140,140)" stroke="none" d="M 10638,19857 L 10746,19857 10746,19936 10638,19936 10638,19857 Z M 10642,19860 L 10742,19860 10742,19933 10642,19933 10642,19860 Z"/>
             <path fill="rgb(141,141,141)" stroke="none" d="M 10642,19860 L 10742,19860 10742,19933 10642,19933 10642,19860 Z M 10646,19863 L 10738,19863 10738,19930 10646,19930 10646,19863 Z"/>
             <path fill="rgb(142,142,142)" stroke="none" d="M 10646,19863 L 10738,19863 10738,19930 10646,19930 10646,19863 Z M 10651,19866 L 10733,19866 10733,19927 10651,19927 10651,19866 Z"/>
             <path fill="rgb(143,143,143)" stroke="none" d="M 10651,19866 L 10733,19866 10733,19927 10651,19927 10651,19866 Z M 10655,19869 L 10729,19869 10729,19924 10655,19924 10655,19869 Z"/>
             <path fill="rgb(144,144,144)" stroke="none" d="M 10655,19869 L 10729,19869 10729,19924 10655,19924 10655,19869 Z M 10659,19872 L 10725,19872 10725,19921 10659,19921 10659,19872 Z"/>
             <path fill="rgb(145,145,145)" stroke="none" d="M 10659,19872 L 10725,19872 10725,19921 10659,19921 10659,19872 Z M 10663,19875 L 10721,19875 10721,19918 10663,19918 10663,19875 Z"/>
             <path fill="rgb(146,146,146)" stroke="none" d="M 10663,19875 L 10721,19875 10721,19918 10663,19918 10663,19875 Z M 10667,19878 L 10717,19878 10717,19915 10667,19915 10667,19878 Z"/>
             <path fill="rgb(147,147,147)" stroke="none" d="M 10667,19878 L 10717,19878 10717,19915 10667,19915 10667,19878 Z M 10672,19881 L 10712,19881 10712,19912 10672,19912 10672,19881 Z"/>
             <path fill="rgb(148,148,148)" stroke="none" d="M 10672,19881 L 10712,19881 10712,19912 10672,19912 10672,19881 Z M 10676,19885 L 10708,19885 10708,19908 10676,19908 10676,19885 Z"/>
             <path fill="rgb(149,149,149)" stroke="none" d="M 10676,19885 L 10708,19885 10708,19908 10676,19908 10676,19885 Z M 10680,19888 L 10704,19888 10704,19905 10680,19905 10680,19888 Z"/>
             <path fill="rgb(150,150,150)" stroke="none" d="M 10680,19888 L 10704,19888 10704,19905 10680,19905 10680,19888 Z M 10684,19891 L 10700,19891 10700,19902 10684,19902 10684,19891 Z"/>
             <path fill="rgb(151,151,151)" stroke="none" d="M 10684,19891 L 10700,19891 10700,19902 10684,19902 10684,19891 Z M 10688,19894 L 10696,19894 10696,19899 10688,19899 10688,19894 Z"/>
             <path fill="rgb(153,153,153)" stroke="none" d="M 10688,19894 L 10696,19894 10696,19899 10688,19899 10688,19894 Z"/>
            </g>
           </pattern>
          </defs>
          <path style="fill:url(#pattern1)" d="M 10439,20339 L 10438,20199 11288,19709 11289,19849 10439,20339 Z"/>
         </g>
         <path fill="none" stroke="rgb(178,178,178)" stroke-width="40" stroke-linejoin="round" d="M 10439,20339 L 10438,20199 11288,19709 11289,19849 10439,20339 Z"/>
        </g>
       </g>
       <g class="com.sun.star.drawing.PolyPolygonShape">
        <g id="id9">
         <rect class="BoundingBox" stroke="none" fill="none" x="10177" y="19549" width="1132" height="671"/>
         <g>
          <defs>
           <linearGradient id="gradient4" x1="10742" y1="19569" x2="10742" y2="20199" gradientUnits="userSpaceOnUse">
            <stop offset="0.1" style="stop-color:rgb(51,51,51)"/>
            <stop offset="1" style="stop-color:rgb(153,153,153)"/>
           </linearGradient>
          </defs>
          <path style="fill:url(#gradient4)" d="M 10439,20199 L 10197,20059 11046,19569 11288,19709 10439,20199 Z"/>
         </g>
         <path fill="none" stroke="rgb(178,178,178)" stroke-width="40" stroke-linejoin="round" d="M 10439,20199 L 10197,20059 11046,19569 11288,19709 10439,20199 Z"/>
        </g>
       </g>
       <g class="com.sun.star.drawing.PolyPolygonShape">
        <g id="id10">
         <rect class="BoundingBox" stroke="none" fill="none" x="9934" y="17378" width="1497" height="2982"/>
         <g>
          <defs>
           <pattern id="pattern2" x="9954" y="17399" width="1456" height="2941" patternUnits="userSpaceOnUse">
            <g transform="translate(-9954,-17399)">
             <path fill="rgb(51,51,51)" stroke="none" d="M 9953,17398 L 11410,17398 11410,20340 9953,20340 9953,17398 Z M 9669,16824 L 11110,16824 11110,19736 9669,19736 9669,16824 Z"/>
             <path fill="rgb(52,52,52)" stroke="none" d="M 9669,16824 L 11110,16824 11110,19736 9669,19736 9669,16824 Z M 9676,16838 L 11103,16838 11103,19722 9676,19722 9676,16838 Z"/>
             <path fill="rgb(53,53,53)" stroke="none" d="M 9676,16838 L 11103,16838 11103,19722 9676,19722 9676,16838 Z M 9683,16853 L 11096,16853 11096,19707 9683,19707 9683,16853 Z"/>
             <path fill="rgb(54,54,54)" stroke="none" d="M 9683,16853 L 11096,16853 11096,19707 9683,19707 9683,16853 Z M 9690,16867 L 11089,16867 11089,19693 9690,19693 9690,16867 Z"/>
             <path fill="rgb(55,55,55)" stroke="none" d="M 9690,16867 L 11089,16867 11089,19693 9690,19693 9690,16867 Z M 9697,16882 L 11082,16882 11082,19678 9697,19678 9697,16882 Z"/>
             <path fill="rgb(56,56,56)" stroke="none" d="M 9697,16882 L 11082,16882 11082,19678 9697,19678 9697,16882 Z M 9704,16896 L 11075,16896 11075,19664 9704,19664 9704,16896 Z"/>
             <path fill="rgb(57,57,57)" stroke="none" d="M 9704,16896 L 11075,16896 11075,19664 9704,19664 9704,16896 Z M 9712,16910 L 11067,16910 11067,19650 9712,19650 9712,16910 Z"/>
             <path fill="rgb(58,58,58)" stroke="none" d="M 9712,16910 L 11067,16910 11067,19650 9712,19650 9712,16910 Z M 9719,16925 L 11060,16925 11060,19635 9719,19635 9719,16925 Z"/>
             <path fill="rgb(59,59,59)" stroke="none" d="M 9719,16925 L 11060,16925 11060,19635 9719,19635 9719,16925 Z M 9726,16939 L 11053,16939 11053,19621 9726,19621 9726,16939 Z"/>
             <path fill="rgb(60,60,60)" stroke="none" d="M 9726,16939 L 11053,16939 11053,19621 9726,19621 9726,16939 Z M 9733,16954 L 11046,16954 11046,19606 9733,19606 9733,16954 Z"/>
             <path fill="rgb(61,61,61)" stroke="none" d="M 9733,16954 L 11046,16954 11046,19606 9733,19606 9733,16954 Z M 9740,16968 L 11039,16968 11039,19592 9740,19592 9740,16968 Z"/>
             <path fill="rgb(62,62,62)" stroke="none" d="M 9740,16968 L 11039,16968 11039,19592 9740,19592 9740,16968 Z M 9747,16983 L 11032,16983 11032,19577 9747,19577 9747,16983 Z"/>
             <path fill="rgb(63,63,63)" stroke="none" d="M 9747,16983 L 11032,16983 11032,19577 9747,19577 9747,16983 Z M 9754,16997 L 11025,16997 11025,19563 9754,19563 9754,16997 Z"/>
             <path fill="rgb(64,64,64)" stroke="none" d="M 9754,16997 L 11025,16997 11025,19563 9754,19563 9754,16997 Z M 9762,17011 L 11017,17011 11017,19549 9762,19549 9762,17011 Z"/>
             <path fill="rgb(65,65,65)" stroke="none" d="M 9762,17011 L 11017,17011 11017,19549 9762,19549 9762,17011 Z M 9769,17026 L 11010,17026 11010,19534 9769,19534 9769,17026 Z"/>
             <path fill="rgb(66,66,66)" stroke="none" d="M 9769,17026 L 11010,17026 11010,19534 9769,19534 9769,17026 Z M 9776,17040 L 11003,17040 11003,19520 9776,19520 9776,17040 Z"/>
             <path fill="rgb(67,67,67)" stroke="none" d="M 9776,17040 L 11003,17040 11003,19520 9776,19520 9776,17040 Z M 9783,17055 L 10996,17055 10996,19505 9783,19505 9783,17055 Z"/>
             <path fill="rgb(68,68,68)" stroke="none" d="M 9783,17055 L 10996,17055 10996,19505 9783,19505 9783,17055 Z M 9790,17069 L 10989,17069 10989,19491 9790,19491 9790,17069 Z"/>
             <path fill="rgb(69,69,69)" stroke="none" d="M 9790,17069 L 10989,17069 10989,19491 9790,19491 9790,17069 Z M 9797,17084 L 10982,17084 10982,19476 9797,19476 9797,17084 Z"/>
             <path fill="rgb(70,70,70)" stroke="none" d="M 9797,17084 L 10982,17084 10982,19476 9797,19476 9797,17084 Z M 9804,17098 L 10975,17098 10975,19462 9804,19462 9804,17098 Z"/>
             <path fill="rgb(71,71,71)" stroke="none" d="M 9804,17098 L 10975,17098 10975,19462 9804,19462 9804,17098 Z M 9812,17112 L 10967,17112 10967,19448 9812,19448 9812,17112 Z"/>
             <path fill="rgb(72,72,72)" stroke="none" d="M 9812,17112 L 10967,17112 10967,19448 9812,19448 9812,17112 Z M 9819,17127 L 10960,17127 10960,19433 9819,19433 9819,17127 Z"/>
             <path fill="rgb(73,73,73)" stroke="none" d="M 9819,17127 L 10960,17127 10960,19433 9819,19433 9819,17127 Z M 9826,17141 L 10953,17141 10953,19419 9826,19419 9826,17141 Z"/>
             <path fill="rgb(74,74,74)" stroke="none" d="M 9826,17141 L 10953,17141 10953,19419 9826,19419 9826,17141 Z M 9833,17156 L 10946,17156 10946,19404 9833,19404 9833,17156 Z"/>
             <path fill="rgb(75,75,75)" stroke="none" d="M 9833,17156 L 10946,17156 10946,19404 9833,19404 9833,17156 Z M 9840,17170 L 10939,17170 10939,19390 9840,19390 9840,17170 Z"/>
             <path fill="rgb(76,76,76)" stroke="none" d="M 9840,17170 L 10939,17170 10939,19390 9840,19390 9840,17170 Z M 9847,17185 L 10932,17185 10932,19375 9847,19375 9847,17185 Z"/>
             <path fill="rgb(77,77,77)" stroke="none" d="M 9847,17185 L 10932,17185 10932,19375 9847,19375 9847,17185 Z M 9854,17199 L 10925,17199 10925,19361 9854,19361 9854,17199 Z"/>
             <path fill="rgb(78,78,78)" stroke="none" d="M 9854,17199 L 10925,17199 10925,19361 9854,19361 9854,17199 Z M 9862,17213 L 10917,17213 10917,19347 9862,19347 9862,17213 Z"/>
             <path fill="rgb(79,79,79)" stroke="none" d="M 9862,17213 L 10917,17213 10917,19347 9862,19347 9862,17213 Z M 9869,17228 L 10910,17228 10910,19332 9869,19332 9869,17228 Z"/>
             <path fill="rgb(80,80,80)" stroke="none" d="M 9869,17228 L 10910,17228 10910,19332 9869,19332 9869,17228 Z M 9876,17242 L 10903,17242 10903,19318 9876,19318 9876,17242 Z"/>
             <path fill="rgb(81,81,81)" stroke="none" d="M 9876,17242 L 10903,17242 10903,19318 9876,19318 9876,17242 Z M 9883,17257 L 10896,17257 10896,19303 9883,19303 9883,17257 Z"/>
             <path fill="rgb(82,82,82)" stroke="none" d="M 9883,17257 L 10896,17257 10896,19303 9883,19303 9883,17257 Z M 9890,17271 L 10889,17271 10889,19289 9890,19289 9890,17271 Z"/>
             <path fill="rgb(83,83,83)" stroke="none" d="M 9890,17271 L 10889,17271 10889,19289 9890,19289 9890,17271 Z M 9897,17286 L 10882,17286 10882,19274 9897,19274 9897,17286 Z"/>
             <path fill="rgb(84,84,84)" stroke="none" d="M 9897,17286 L 10882,17286 10882,19274 9897,19274 9897,17286 Z M 9905,17300 L 10874,17300 10874,19260 9905,19260 9905,17300 Z"/>
             <path fill="rgb(85,85,85)" stroke="none" d="M 9905,17300 L 10874,17300 10874,19260 9905,19260 9905,17300 Z M 9912,17314 L 10867,17314 10867,19246 9912,19246 9912,17314 Z"/>
             <path fill="rgb(86,86,86)" stroke="none" d="M 9912,17314 L 10867,17314 10867,19246 9912,19246 9912,17314 Z M 9919,17329 L 10860,17329 10860,19231 9919,19231 9919,17329 Z"/>
             <path fill="rgb(87,87,87)" stroke="none" d="M 9919,17329 L 10860,17329 10860,19231 9919,19231 9919,17329 Z M 9926,17343 L 10853,17343 10853,19217 9926,19217 9926,17343 Z"/>
             <path fill="rgb(88,88,88)" stroke="none" d="M 9926,17343 L 10853,17343 10853,19217 9926,19217 9926,17343 Z M 9933,17358 L 10846,17358 10846,19202 9933,19202 9933,17358 Z"/>
             <path fill="rgb(89,89,89)" stroke="none" d="M 9933,17358 L 10846,17358 10846,19202 9933,19202 9933,17358 Z M 9939,17372 L 10839,17372 10839,19188 9939,19188 9939,17372 Z"/>
             <path fill="rgb(90,90,90)" stroke="none" d="M 9939,17372 L 10839,17372 10839,19188 9939,19188 9939,17372 Z M 9946,17386 L 10832,17386 10832,19173 9946,19173 9946,17386 Z"/>
             <path fill="rgb(91,91,91)" stroke="none" d="M 9946,17386 L 10832,17386 10832,19173 9946,19173 9946,17386 Z M 9954,17400 L 10824,17400 10824,19159 9954,19159 9954,17400 Z"/>
             <path fill="rgb(92,92,92)" stroke="none" d="M 9954,17400 L 10824,17400 10824,19159 9954,19159 9954,17400 Z M 9961,17414 L 10817,17414 10817,19145 9961,19145 9961,17414 Z"/>
             <path fill="rgb(93,93,93)" stroke="none" d="M 9961,17414 L 10817,17414 10817,19145 9961,19145 9961,17414 Z M 9968,17429 L 10810,17429 10810,19130 9968,19130 9968,17429 Z"/>
             <path fill="rgb(94,94,94)" stroke="none" d="M 9968,17429 L 10810,17429 10810,19130 9968,19130 9968,17429 Z M 9975,17443 L 10803,17443 10803,19116 9975,19116 9975,17443 Z"/>
             <path fill="rgb(95,95,95)" stroke="none" d="M 9975,17443 L 10803,17443 10803,19116 9975,19116 9975,17443 Z M 9982,17458 L 10796,17458 10796,19101 9982,19101 9982,17458 Z"/>
             <path fill="rgb(96,96,96)" stroke="none" d="M 9982,17458 L 10796,17458 10796,19101 9982,19101 9982,17458 Z M 9989,17472 L 10789,17472 10789,19087 9989,19087 9989,17472 Z"/>
             <path fill="rgb(97,97,97)" stroke="none" d="M 9989,17472 L 10789,17472 10789,19087 9989,19087 9989,17472 Z M 9996,17487 L 10782,17487 10782,19072 9996,19072 9996,17487 Z"/>
             <path fill="rgb(98,98,98)" stroke="none" d="M 9996,17487 L 10782,17487 10782,19072 9996,19072 9996,17487 Z M 10004,17501 L 10774,17501 10774,19058 10004,19058 10004,17501 Z"/>
             <path fill="rgb(99,99,99)" stroke="none" d="M 10004,17501 L 10774,17501 10774,19058 10004,19058 10004,17501 Z M 10011,17515 L 10767,17515 10767,19044 10011,19044 10011,17515 Z"/>
             <path fill="rgb(100,100,100)" stroke="none" d="M 10011,17515 L 10767,17515 10767,19044 10011,19044 10011,17515 Z M 10018,17530 L 10760,17530 10760,19029 10018,19029 10018,17530 Z"/>
             <path fill="rgb(101,101,101)" stroke="none" d="M 10018,17530 L 10760,17530 10760,19029 10018,19029 10018,17530 Z M 10025,17544 L 10753,17544 10753,19015 10025,19015 10025,17544 Z"/>
             <path fill="rgb(102,102,102)" stroke="none" d="M 10025,17544 L 10753,17544 10753,19015 10025,19015 10025,17544 Z M 10032,17559 L 10746,17559 10746,19000 10032,19000 10032,17559 Z"/>
             <path fill="rgb(103,103,103)" stroke="none" d="M 10032,17559 L 10746,17559 10746,19000 10032,19000 10032,17559 Z M 10039,17573 L 10739,17573 10739,18986 10039,18986 10039,17573 Z"/>
             <path fill="rgb(104,104,104)" stroke="none" d="M 10039,17573 L 10739,17573 10739,18986 10039,18986 10039,17573 Z M 10046,17588 L 10732,17588 10732,18971 10046,18971 10046,17588 Z"/>
             <path fill="rgb(105,105,105)" stroke="none" d="M 10046,17588 L 10732,17588 10732,18971 10046,18971 10046,17588 Z M 10054,17602 L 10724,17602 10724,18957 10054,18957 10054,17602 Z"/>
             <path fill="rgb(106,106,106)" stroke="none" d="M 10054,17602 L 10724,17602 10724,18957 10054,18957 10054,17602 Z M 10061,17616 L 10717,17616 10717,18943 10061,18943 10061,17616 Z"/>
             <path fill="rgb(107,107,107)" stroke="none" d="M 10061,17616 L 10717,17616 10717,18943 10061,18943 10061,17616 Z M 10068,17631 L 10710,17631 10710,18928 10068,18928 10068,17631 Z"/>
             <path fill="rgb(108,108,108)" stroke="none" d="M 10068,17631 L 10710,17631 10710,18928 10068,18928 10068,17631 Z M 10075,17645 L 10703,17645 10703,18914 10075,18914 10075,17645 Z"/>
             <path fill="rgb(109,109,109)" stroke="none" d="M 10075,17645 L 10703,17645 10703,18914 10075,18914 10075,17645 Z M 10082,17660 L 10696,17660 10696,18899 10082,18899 10082,17660 Z"/>
             <path fill="rgb(110,110,110)" stroke="none" d="M 10082,17660 L 10696,17660 10696,18899 10082,18899 10082,17660 Z M 10089,17674 L 10689,17674 10689,18885 10089,18885 10089,17674 Z"/>
             <path fill="rgb(111,111,111)" stroke="none" d="M 10089,17674 L 10689,17674 10689,18885 10089,18885 10089,17674 Z M 10096,17689 L 10682,17689 10682,18870 10096,18870 10096,17689 Z"/>
             <path fill="rgb(112,112,112)" stroke="none" d="M 10096,17689 L 10682,17689 10682,18870 10096,18870 10096,17689 Z M 10104,17703 L 10674,17703 10674,18856 10104,18856 10104,17703 Z"/>
             <path fill="rgb(113,113,113)" stroke="none" d="M 10104,17703 L 10674,17703 10674,18856 10104,18856 10104,17703 Z M 10111,17717 L 10667,17717 10667,18842 10111,18842 10111,17717 Z"/>
             <path fill="rgb(114,114,114)" stroke="none" d="M 10111,17717 L 10667,17717 10667,18842 10111,18842 10111,17717 Z M 10118,17732 L 10660,17732 10660,18827 10118,18827 10118,17732 Z"/>
             <path fill="rgb(115,115,115)" stroke="none" d="M 10118,17732 L 10660,17732 10660,18827 10118,18827 10118,17732 Z M 10125,17746 L 10653,17746 10653,18813 10125,18813 10125,17746 Z"/>
             <path fill="rgb(116,116,116)" stroke="none" d="M 10125,17746 L 10653,17746 10653,18813 10125,18813 10125,17746 Z M 10132,17761 L 10646,17761 10646,18798 10132,18798 10132,17761 Z"/>
             <path fill="rgb(117,117,117)" stroke="none" d="M 10132,17761 L 10646,17761 10646,18798 10132,18798 10132,17761 Z M 10139,17775 L 10639,17775 10639,18784 10139,18784 10139,17775 Z"/>
             <path fill="rgb(118,118,118)" stroke="none" d="M 10139,17775 L 10639,17775 10639,18784 10139,18784 10139,17775 Z M 10147,17790 L 10631,17790 10631,18770 10147,18770 10147,17790 Z"/>
             <path fill="rgb(119,119,119)" stroke="none" d="M 10147,17790 L 10631,17790 10631,18770 10147,18770 10147,17790 Z M 10154,17804 L 10624,17804 10624,18755 10154,18755 10154,17804 Z"/>
             <path fill="rgb(120,120,120)" stroke="none" d="M 10154,17804 L 10624,17804 10624,18755 10154,18755 10154,17804 Z M 10161,17818 L 10617,17818 10617,18741 10161,18741 10161,17818 Z"/>
             <path fill="rgb(121,121,121)" stroke="none" d="M 10161,17818 L 10617,17818 10617,18741 10161,18741 10161,17818 Z M 10168,17833 L 10610,17833 10610,18726 10168,18726 10168,17833 Z"/>
             <path fill="rgb(122,122,122)" stroke="none" d="M 10168,17833 L 10610,17833 10610,18726 10168,18726 10168,17833 Z M 10175,17847 L 10603,17847 10603,18712 10175,18712 10175,17847 Z"/>
             <path fill="rgb(123,123,123)" stroke="none" d="M 10175,17847 L 10603,17847 10603,18712 10175,18712 10175,17847 Z M 10182,17862 L 10596,17862 10596,18697 10182,18697 10182,17862 Z"/>
             <path fill="rgb(124,124,124)" stroke="none" d="M 10182,17862 L 10596,17862 10596,18697 10182,18697 10182,17862 Z M 10189,17876 L 10589,17876 10589,18683 10189,18683 10189,17876 Z"/>
             <path fill="rgb(125,125,125)" stroke="none" d="M 10189,17876 L 10589,17876 10589,18683 10189,18683 10189,17876 Z M 10197,17890 L 10581,17890 10581,18669 10197,18669 10197,17890 Z"/>
             <path fill="rgb(126,126,126)" stroke="none" d="M 10197,17890 L 10581,17890 10581,18669 10197,18669 10197,17890 Z M 10204,17905 L 10574,17905 10574,18654 10204,18654 10204,17905 Z"/>
             <path fill="rgb(127,127,127)" stroke="none" d="M 10204,17905 L 10574,17905 10574,18654 10204,18654 10204,17905 Z M 10211,17919 L 10567,17919 10567,18640 10211,18640 10211,17919 Z"/>
             <path fill="rgb(128,128,128)" stroke="none" d="M 10211,17919 L 10567,17919 10567,18640 10211,18640 10211,17919 Z M 10218,17934 L 10560,17934 10560,18625 10218,18625 10218,17934 Z"/>
             <path fill="rgb(129,129,129)" stroke="none" d="M 10218,17934 L 10560,17934 10560,18625 10218,18625 10218,17934 Z M 10225,17948 L 10553,17948 10553,18611 10225,18611 10225,17948 Z"/>
             <path fill="rgb(130,130,130)" stroke="none" d="M 10225,17948 L 10553,17948 10553,18611 10225,18611 10225,17948 Z M 10232,17963 L 10546,17963 10546,18596 10232,18596 10232,17963 Z"/>
             <path fill="rgb(131,131,131)" stroke="none" d="M 10232,17963 L 10546,17963 10546,18596 10232,18596 10232,17963 Z M 10239,17977 L 10539,17977 10539,18582 10239,18582 10239,17977 Z"/>
             <path fill="rgb(132,132,132)" stroke="none" d="M 10239,17977 L 10539,17977 10539,18582 10239,18582 10239,17977 Z M 10247,17991 L 10531,17991 10531,18568 10247,18568 10247,17991 Z"/>
             <path fill="rgb(133,133,133)" stroke="none" d="M 10247,17991 L 10531,17991 10531,18568 10247,18568 10247,17991 Z M 10254,18006 L 10524,18006 10524,18553 10254,18553 10254,18006 Z"/>
             <path fill="rgb(134,134,134)" stroke="none" d="M 10254,18006 L 10524,18006 10524,18553 10254,18553 10254,18006 Z M 10261,18020 L 10517,18020 10517,18539 10261,18539 10261,18020 Z"/>
             <path fill="rgb(135,135,135)" stroke="none" d="M 10261,18020 L 10517,18020 10517,18539 10261,18539 10261,18020 Z M 10268,18035 L 10510,18035 10510,18524 10268,18524 10268,18035 Z"/>
             <path fill="rgb(136,136,136)" stroke="none" d="M 10268,18035 L 10510,18035 10510,18524 10268,18524 10268,18035 Z M 10275,18049 L 10503,18049 10503,18510 10275,18510 10275,18049 Z"/>
             <path fill="rgb(137,137,137)" stroke="none" d="M 10275,18049 L 10503,18049 10503,18510 10275,18510 10275,18049 Z M 10282,18064 L 10496,18064 10496,18495 10282,18495 10282,18064 Z"/>
             <path fill="rgb(138,138,138)" stroke="none" d="M 10282,18064 L 10496,18064 10496,18495 10282,18495 10282,18064 Z M 10289,18078 L 10489,18078 10489,18481 10289,18481 10289,18078 Z"/>
             <path fill="rgb(139,139,139)" stroke="none" d="M 10289,18078 L 10489,18078 10489,18481 10289,18481 10289,18078 Z M 10297,18092 L 10481,18092 10481,18467 10297,18467 10297,18092 Z"/>
             <path fill="rgb(140,140,140)" stroke="none" d="M 10297,18092 L 10481,18092 10481,18467 10297,18467 10297,18092 Z M 10304,18107 L 10474,18107 10474,18452 10304,18452 10304,18107 Z"/>
             <path fill="rgb(141,141,141)" stroke="none" d="M 10304,18107 L 10474,18107 10474,18452 10304,18452 10304,18107 Z M 10311,18121 L 10467,18121 10467,18438 10311,18438 10311,18121 Z"/>
             <path fill="rgb(142,142,142)" stroke="none" d="M 10311,18121 L 10467,18121 10467,18438 10311,18438 10311,18121 Z M 10318,18136 L 10460,18136 10460,18423 10318,18423 10318,18136 Z"/>
             <path fill="rgb(143,143,143)" stroke="none" d="M 10318,18136 L 10460,18136 10460,18423 10318,18423 10318,18136 Z M 10325,18150 L 10453,18150 10453,18409 10325,18409 10325,18150 Z"/>
             <path fill="rgb(144,144,144)" stroke="none" d="M 10325,18150 L 10453,18150 10453,18409 10325,18409 10325,18150 Z M 10332,18165 L 10446,18165 10446,18394 10332,18394 10332,18165 Z"/>
             <path fill="rgb(145,145,145)" stroke="none" d="M 10332,18165 L 10446,18165 10446,18394 10332,18394 10332,18165 Z M 10339,18179 L 10439,18179 10439,18380 10339,18380 10339,18179 Z"/>
             <path fill="rgb(146,146,146)" stroke="none" d="M 10339,18179 L 10439,18179 10439,18380 10339,18380 10339,18179 Z M 10347,18193 L 10431,18193 10431,18366 10347,18366 10347,18193 Z"/>
             <path fill="rgb(147,147,147)" stroke="none" d="M 10347,18193 L 10431,18193 10431,18366 10347,18366 10347,18193 Z M 10354,18208 L 10424,18208 10424,18351 10354,18351 10354,18208 Z"/>
             <path fill="rgb(148,148,148)" stroke="none" d="M 10354,18208 L 10424,18208 10424,18351 10354,18351 10354,18208 Z M 10361,18222 L 10417,18222 10417,18337 10361,18337 10361,18222 Z"/>
             <path fill="rgb(149,149,149)" stroke="none" d="M 10361,18222 L 10417,18222 10417,18337 10361,18337 10361,18222 Z M 10368,18237 L 10410,18237 10410,18322 10368,18322 10368,18237 Z"/>
             <path fill="rgb(150,150,150)" stroke="none" d="M 10368,18237 L 10410,18237 10410,18322 10368,18322 10368,18237 Z M 10375,18251 L 10403,18251 10403,18308 10375,18308 10375,18251 Z"/>
             <path fill="rgb(151,151,151)" stroke="none" d="M 10375,18251 L 10403,18251 10403,18308 10375,18308 10375,18251 Z M 10382,18266 L 10396,18266 10396,18293 10382,18293 10382,18266 Z"/>
             <path fill="rgb(153,153,153)" stroke="none" d="M 10382,18266 L 10396,18266 10396,18293 10382,18293 10382,18266 Z"/>
            </g>
           </pattern>
          </defs>
          <path style="fill:url(#pattern2)" d="M 9954,20339 L 9954,18239 11409,17399 11409,19499 9954,20339 Z"/>
         </g>
         <path fill="none" stroke="rgb(178,178,178)" stroke-width="40" stroke-linejoin="round" d="M 9954,20339 L 9954,18239 11409,17399 11409,19499 9954,20339 Z"/>
        </g>
       </g>
       <g class="com.sun.star.drawing.PolyPolygonShape">
        <g id="id11">
         <rect class="BoundingBox" stroke="none" fill="none" x="9570" y="17169" width="1860" height="3191"/>
         <path fill="none" stroke="rgb(0,0,0)" stroke-width="40" stroke-linejoin="round" d="M 9591,20129 L 9591,18029 11046,17189 11409,17399 11409,19499 11167,19639 11288,19709 11288,19849 10439,20339 10197,20199 9954,20339 9591,20129 Z"/>
        </g>
       </g>
       <g class="com.sun.star.drawing.PolyPolygonShape">
        <g id="id12">
         <rect class="BoundingBox" stroke="none" fill="none" x="9692" y="18989" width="162" height="251"/>
         <path fill="rgb(102,102,255)" stroke="none" d="M 9712,19149 L 9712,19009 9833,19079 9833,19219 9712,19149 Z"/>
         <path fill="none" stroke="rgb(51,51,51)" stroke-width="40" stroke-linejoin="round" d="M 9712,19149 L 9712,19009 9833,19079 9833,19219 9712,19149 Z"/>
        </g>
       </g>
      </g>
     </g>
    </g>
   </g>
  </g>
 </g>
</svg>