<?xml version="1.0" encoding="UTF-8"?>
<!DOCTYPE svg PUBLIC "-//W3C//DTD SVG 1.1//EN" "http://www.w3.org/Graphics/SVG/1.1/DTD/svg11.dtd">
<svg version="1.2" width="19.99mm" height="31.9mm" viewBox="16547 18771 1999 3190" preserveAspectRatio="xMidYMid" fill-rule="evenodd" stroke-width="28.222" stroke-linejoin="round" xmlns="http://www.w3.org/2000/svg" xmlns:ooo="http://xml.openoffice.org/svg/export" xmlns:xlink="http://www.w3.org/1999/xlink" xmlns:presentation="http://sun.com/xmlns/staroffice/presentation" xmlns:smil="http://www.w3.org/2001/SMIL20/" xmlns:anim="urn:oasis:names:tc:opendocument:xmlns:animation:1.0" xml:space="preserve">
 <defs class="ClipPathGroup">
  <clipPath id="presentation_clip_path" clipPathUnits="userSpaceOnUse">
   <rect x="16547" y="18771" width="1999" height="3190"/>
  </clipPath>
 </defs>
 <defs class="TextShapeIndex">
  <g ooo:slide="id1" ooo:id-list="id3 id4 id5 id6 id7 id8 id9 id10 id11 id12"/>
 </defs>
 <defs class="EmbeddedBulletChars">
  <g id="bullet-char-template(57356)" transform="scale(0.00048828125,-0.00048828125)">
   <path d="M 580,1141 L 1163,571 580,0 -4,571 580,1141 Z"/>
  </g>
  <g id="bullet-char-template(57354)" transform="scale(0.00048828125,-0.00048828125)">
   <path d="M 8,1128 L 1137,1128 1137,0 8,0 8,1128 Z"/>
  </g>
  <g id="bullet-char-template(10146)" transform="scale(0.00048828125,-0.00048828125)">
   <path d="M 174,0 L 602,739 174,1481 1456,739 174,0 Z M 1358,739 L 309,1346 659,739 1358,739 Z"/>
  </g>
  <g id="bullet-char-template(10132)" transform="scale(0.00048828125,-0.00048828125)">
   <path d="M 2015,739 L 1276,0 717,0 1260,543 174,543 174,936 1260,936 717,1481 1274,1481 2015,739 Z"/>
  </g>
  <g id="bullet-char-template(10007)" transform="scale(0.00048828125,-0.00048828125)">
   <path d="M 0,-2 C -7,14 -16,27 -25,37 L 356,567 C 262,823 215,952 215,954 215,979 228,992 255,992 264,992 276,990 289,987 310,991 331,999 354,1012 L 381,999 492,748 772,1049 836,1024 860,1049 C 881,1039 901,1025 922,1006 886,937 835,863 770,784 769,783 710,716 594,584 L 774,223 C 774,196 753,168 711,139 L 727,119 C 717,90 699,76 672,76 641,76 570,178 457,381 L 164,-76 C 142,-110 111,-127 72,-127 30,-127 9,-110 8,-76 1,-67 -2,-52 -2,-32 -2,-23 -1,-13 0,-2 Z"/>
  </g>
  <g id="bullet-char-template(10004)" transform="scale(0.00048828125,-0.00048828125)">
   <path d="M 285,-33 C 182,-33 111,30 74,156 52,228 41,333 41,471 41,549 55,616 82,672 116,743 169,778 240,778 293,778 328,747 346,684 L 369,508 C 377,444 397,411 428,410 L 1163,1116 C 1174,1127 1196,1133 1229,1133 1271,1133 1292,1118 1292,1087 L 1292,965 C 1292,929 1282,901 1262,881 L 442,47 C 390,-6 338,-33 285,-33 Z"/>
  </g>
  <g id="bullet-char-template(9679)" transform="scale(0.00048828125,-0.00048828125)">
   <path d="M 813,0 C 632,0 489,54 383,161 276,268 223,411 223,592 223,773 276,916 383,1023 489,1130 632,1184 813,1184 992,1184 1136,1130 1245,1023 1353,916 1407,772 1407,592 1407,412 1353,268 1245,161 1136,54 992,0 813,0 Z"/>
  </g>
  <g id="bullet-char-template(8226)" transform="scale(0.00048828125,-0.00048828125)">
   <path d="M 346,457 C 273,457 209,483 155,535 101,586 74,649 74,723 74,796 101,859 155,911 209,963 273,989 346,989 419,989 480,963 531,910 582,859 608,796 608,723 608,648 583,586 532,535 482,483 420,457 346,457 Z"/>
  </g>
  <g id="bullet-char-template(8211)" transform="scale(0.00048828125,-0.00048828125)">
   <path d="M -4,459 L 1135,459 1135,606 -4,606 -4,459 Z"/>
  </g>
 </defs>
 <defs class="TextEmbeddedBitmaps"/>
 <g class="SlideGroup">
  <g>
   <g id="id1" class="Slide" clip-path="url(#presentation_clip_path)">
    <g class="Page">
     <g class="Group">
      <g class="com.sun.star.drawing.ClosedBezierShape">
       <g id="id3">
        <rect class="BoundingBox" stroke="none" fill="none" x="17517" y="21501" width="1031" height="462"/>
        <path fill="rgb(221,221,221)" stroke="none" d="M 17537,21941 C 17918,21941 18264,21871 18386,21801 18508,21731 18629,21521 18386,21521 18401,21552 17537,21941 17537,21941 Z"/>
        <path fill="none" stroke="rgb(221,221,221)" stroke-width="40" stroke-linejoin="round" d="M 17537,21941 C 17918,21941 18264,21871 18386,21801 18508,21731 18629,21521 18386,21521 18401,21552 17537,21941 17537,21941 Z"/>
       </g>
      </g>
      <g class="Group">
       <g class="com.sun.star.drawing.PolyPolygonShape">
        <g id="id4">
         <rect class="BoundingBox" stroke="none" fill="none" x="16547" y="18771" width="1859" height="1091"/>
         <g>
          <defs>
           <linearGradient id="gradient1" x1="17476" y1="18791" x2="17476" y2="19841" gradientUnits="userSpaceOnUse">
            <stop offset="0.1" style="stop-color:rgb(179,179,179)"/>
            <stop offset="1" style="stop-color:rgb(229,229,229)"/>
           </linearGradient>
          </defs>
          <path style="fill:url(#gradient1)" d="M 18022,19841 L 18385,19631 16930,18791 16567,19001 18022,19841 Z"/>
         </g>
         <path fill="none" stroke="rgb(255,255,255)" stroke-width="40" stroke-linejoin="round" d="M 18022,19841 L 18385,19631 16930,18791 16567,19001 18022,19841 Z"/>
        </g>
       </g>
       <g class="com.sun.star.drawing.PolyPolygonShape">
        <g id="id5">
         <rect class="BoundingBox" stroke="none" fill="none" x="18088" y="19948" width="180" height="362"/>
         <path fill="rgb(57,181,74)" stroke="none" d="M 18247,20209 L 18247,19968 18108,20048 18108,20289 18247,20209 Z"/>
         <path fill="none" stroke="rgb(51,51,51)" stroke-width="40" stroke-linejoin="round" d="M 18247,20209 L 18247,19968 18108,20048 18108,20289 18247,20209 Z"/>
        </g>
       </g>
       <g class="com.sun.star.drawing.PolyPolygonShape">
        <g id="id6">
         <rect class="BoundingBox" stroke="none" fill="none" x="17517" y="21431" width="648" height="532"/>
         <g>
          <defs>
           <pattern id="pattern1" x="17537" y="21451" width="608" height="491" patternUnits="userSpaceOnUse">
            <g transform="translate(-17537,-21451)">
             <path fill="rgb(179,179,179)" stroke="none" d="M 17536,21450 L 18145,21450 18145,21942 17536,21942 17536,21450 Z M 17421,21356 L 18016,21356 18016,21838 17421,21838 17421,21356 Z"/>
             <path fill="rgb(180,180,180)" stroke="none" d="M 17421,21356 L 18016,21356 18016,21838 17421,21838 17421,21356 Z M 17427,21361 L 18010,21361 18010,21833 17427,21833 17427,21361 Z"/>
             <path fill="rgb(181,181,181)" stroke="none" d="M 17427,21361 L 18010,21361 18010,21833 17427,21833 17427,21361 Z M 17433,21366 L 18004,21366 18004,21828 17433,21828 17433,21366 Z"/>
             <path fill="rgb(182,182,182)" stroke="none" d="M 17433,21366 L 18004,21366 18004,21828 17433,21828 17433,21366 Z M 17439,21371 L 17998,21371 17998,21823 17439,21823 17439,21371 Z"/>
             <path fill="rgb(183,183,183)" stroke="none" d="M 17439,21371 L 17998,21371 17998,21823 17439,21823 17439,21371 Z M 17445,21376 L 17992,21376 17992,21818 17445,21818 17445,21376 Z"/>
             <path fill="rgb(184,184,184)" stroke="none" d="M 17445,21376 L 17992,21376 17992,21818 17445,21818 17445,21376 Z M 17451,21381 L 17986,21381 17986,21813 17451,21813 17451,21381 Z"/>
             <path fill="rgb(185,185,185)" stroke="none" d="M 17451,21381 L 17986,21381 17986,21813 17451,21813 17451,21381 Z M 17457,21386 L 17980,21386 17980,21808 17457,21808 17457,21386 Z"/>
             <path fill="rgb(186,186,186)" stroke="none" d="M 17457,21386 L 17980,21386 17980,21808 17457,21808 17457,21386 Z M 17463,21391 L 17974,21391 17974,21803 17463,21803 17463,21391 Z"/>
             <path fill="rgb(187,187,187)" stroke="none" d="M 17463,21391 L 17974,21391 17974,21803 17463,21803 17463,21391 Z M 17469,21396 L 17968,21396 17968,21798 17469,21798 17469,21396 Z"/>
             <path fill="rgb(188,188,188)" stroke="none" d="M 17469,21396 L 17968,21396 17968,21798 17469,21798 17469,21396 Z M 17475,21401 L 17961,21401 17961,21793 17475,21793 17475,21401 Z"/>
             <path fill="rgb(189,189,189)" stroke="none" d="M 17475,21401 L 17961,21401 17961,21793 17475,21793 17475,21401 Z M 17482,21406 L 17955,21406 17955,21788 17482,21788 17482,21406 Z"/>
             <path fill="rgb(190,190,190)" stroke="none" d="M 17482,21406 L 17955,21406 17955,21788 17482,21788 17482,21406 Z M 17488,21411 L 17949,21411 17949,21783 17488,21783 17488,21411 Z"/>
             <path fill="rgb(191,191,191)" stroke="none" d="M 17488,21411 L 17949,21411 17949,21783 17488,21783 17488,21411 Z M 17494,21416 L 17943,21416 17943,21778 17494,21778 17494,21416 Z"/>
             <path fill="rgb(192,192,192)" stroke="none" d="M 17494,21416 L 17943,21416 17943,21778 17494,21778 17494,21416 Z M 17500,21421 L 17937,21421 17937,21773 17500,21773 17500,21421 Z"/>
             <path fill="rgb(193,193,193)" stroke="none" d="M 17500,21421 L 17937,21421 17937,21773 17500,21773 17500,21421 Z M 17506,21425 L 17931,21425 17931,21769 17506,21769 17506,21425 Z"/>
             <path fill="rgb(194,194,194)" stroke="none" d="M 17506,21425 L 17931,21425 17931,21769 17506,21769 17506,21425 Z M 17512,21430 L 17925,21430 17925,21764 17512,21764 17512,21430 Z"/>
             <path fill="rgb(195,195,195)" stroke="none" d="M 17512,21430 L 17925,21430 17925,21764 17512,21764 17512,21430 Z M 17517,21434 L 17919,21434 17919,21759 17517,21759 17517,21434 Z"/>
             <path fill="rgb(196,196,196)" stroke="none" d="M 17517,21434 L 17919,21434 17919,21759 17517,21759 17517,21434 Z M 17523,21439 L 17913,21439 17913,21754 17523,21754 17523,21439 Z"/>
             <path fill="rgb(197,197,197)" stroke="none" d="M 17523,21439 L 17913,21439 17913,21754 17523,21754 17523,21439 Z M 17529,21444 L 17907,21444 17907,21749 17529,21749 17529,21444 Z"/>
             <path fill="rgb(198,198,198)" stroke="none" d="M 17529,21444 L 17907,21444 17907,21749 17529,21749 17529,21444 Z M 17535,21449 L 17900,21449 17900,21744 17535,21744 17535,21449 Z"/>
             <path fill="rgb(199,199,199)" stroke="none" d="M 17535,21449 L 17900,21449 17900,21744 17535,21744 17535,21449 Z M 17542,21454 L 17894,21454 17894,21739 17542,21739 17542,21454 Z"/>
             <path fill="rgb(200,200,200)" stroke="none" d="M 17542,21454 L 17894,21454 17894,21739 17542,21739 17542,21454 Z M 17548,21459 L 17888,21459 17888,21734 17548,21734 17548,21459 Z"/>
             <path fill="rgb(201,201,201)" stroke="none" d="M 17548,21459 L 17888,21459 17888,21734 17548,21734 17548,21459 Z M 17554,21464 L 17882,21464 17882,21729 17554,21729 17554,21464 Z"/>
             <path fill="rgb(202,202,202)" stroke="none" d="M 17554,21464 L 17882,21464 17882,21729 17554,21729 17554,21464 Z M 17560,21469 L 17876,21469 17876,21724 17560,21724 17560,21469 Z"/>
             <path fill="rgb(203,203,203)" stroke="none" d="M 17560,21469 L 17876,21469 17876,21724 17560,21724 17560,21469 Z M 17566,21474 L 17870,21474 17870,21719 17566,21719 17566,21474 Z"/>
             <path fill="rgb(204,204,204)" stroke="none" d="M 17566,21474 L 17870,21474 17870,21719 17566,21719 17566,21474 Z M 17572,21479 L 17864,21479 17864,21714 17572,21714 17572,21479 Z"/>
             <path fill="rgb(205,205,205)" stroke="none" d="M 17572,21479 L 17864,21479 17864,21714 17572,21714 17572,21479 Z M 17578,21484 L 17858,21484 17858,21709 17578,21709 17578,21484 Z"/>
             <path fill="rgb(206,206,206)" stroke="none" d="M 17578,21484 L 17858,21484 17858,21709 17578,21709 17578,21484 Z M 17584,21489 L 17852,21489 17852,21704 17584,21704 17584,21489 Z"/>
             <path fill="rgb(207,207,207)" stroke="none" d="M 17584,21489 L 17852,21489 17852,21704 17584,21704 17584,21489 Z M 17590,21493 L 17846,21493 17846,21700 17590,21700 17590,21493 Z"/>
             <path fill="rgb(208,208,208)" stroke="none" d="M 17590,21493 L 17846,21493 17846,21700 17590,21700 17590,21493 Z M 17596,21498 L 17839,21498 17839,21695 17596,21695 17596,21498 Z"/>
             <path fill="rgb(209,209,209)" stroke="none" d="M 17596,21498 L 17839,21498 17839,21695 17596,21695 17596,21498 Z M 17603,21503 L 17833,21503 17833,21690 17603,21690 17603,21503 Z"/>
             <path fill="rgb(210,210,210)" stroke="none" d="M 17603,21503 L 17833,21503 17833,21690 17603,21690 17603,21503 Z M 17609,21508 L 17827,21508 17827,21685 17609,21685 17609,21508 Z"/>
             <path fill="rgb(211,211,211)" stroke="none" d="M 17609,21508 L 17827,21508 17827,21685 17609,21685 17609,21508 Z M 17615,21513 L 17821,21513 17821,21680 17615,21680 17615,21513 Z"/>
             <path fill="rgb(212,212,212)" stroke="none" d="M 17615,21513 L 17821,21513 17821,21680 17615,21680 17615,21513 Z M 17621,21518 L 17815,21518 17815,21675 17621,21675 17621,21518 Z"/>
             <path fill="rgb(213,213,213)" stroke="none" d="M 17621,21518 L 17815,21518 17815,21675 17621,21675 17621,21518 Z M 17627,21523 L 17809,21523 17809,21670 17627,21670 17627,21523 Z"/>
             <path fill="rgb(214,214,214)" stroke="none" d="M 17627,21523 L 17809,21523 17809,21670 17627,21670 17627,21523 Z M 17633,21528 L 17803,21528 17803,21665 17633,21665 17633,21528 Z"/>
             <path fill="rgb(215,215,215)" stroke="none" d="M 17633,21528 L 17803,21528 17803,21665 17633,21665 17633,21528 Z M 17639,21533 L 17797,21533 17797,21660 17639,21660 17639,21533 Z"/>
             <path fill="rgb(216,216,216)" stroke="none" d="M 17639,21533 L 17797,21533 17797,21660 17639,21660 17639,21533 Z M 17645,21538 L 17791,21538 17791,21655 17645,21655 17645,21538 Z"/>
             <path fill="rgb(217,217,217)" stroke="none" d="M 17645,21538 L 17791,21538 17791,21655 17645,21655 17645,21538 Z M 17651,21543 L 17785,21543 17785,21650 17651,21650 17651,21543 Z"/>
             <path fill="rgb(218,218,218)" stroke="none" d="M 17651,21543 L 17785,21543 17785,21650 17651,21650 17651,21543 Z M 17657,21548 L 17778,21548 17778,21645 17657,21645 17657,21548 Z"/>
             <path fill="rgb(219,219,219)" stroke="none" d="M 17657,21548 L 17778,21548 17778,21645 17657,21645 17657,21548 Z M 17664,21553 L 17772,21553 17772,21640 17664,21640 17664,21553 Z"/>
             <path fill="rgb(220,220,220)" stroke="none" d="M 17664,21553 L 17772,21553 17772,21640 17664,21640 17664,21553 Z M 17670,21558 L 17766,21558 17766,21635 17670,21635 17670,21558 Z"/>
             <path fill="rgb(221,221,221)" stroke="none" d="M 17670,21558 L 17766,21558 17766,21635 17670,21635 17670,21558 Z M 17676,21562 L 17760,21562 17760,21631 17676,21631 17676,21562 Z"/>
             <path fill="rgb(222,222,222)" stroke="none" d="M 17676,21562 L 17760,21562 17760,21631 17676,21631 17676,21562 Z M 17682,21567 L 17754,21567 17754,21626 17682,21626 17682,21567 Z"/>
             <path fill="rgb(223,223,223)" stroke="none" d="M 17682,21567 L 17754,21567 17754,21626 17682,21626 17682,21567 Z M 17688,21572 L 17748,21572 17748,21621 17688,21621 17688,21572 Z"/>
             <path fill="rgb(224,224,224)" stroke="none" d="M 17688,21572 L 17748,21572 17748,21621 17688,21621 17688,21572 Z M 17694,21577 L 17742,21577 17742,21616 17694,21616 17694,21577 Z"/>
             <path fill="rgb(225,225,225)" stroke="none" d="M 17694,21577 L 17742,21577 17742,21616 17694,21616 17694,21577 Z M 17700,21582 L 17736,21582 17736,21611 17700,21611 17700,21582 Z"/>
             <path fill="rgb(226,226,226)" stroke="none" d="M 17700,21582 L 17736,21582 17736,21611 17700,21611 17700,21582 Z M 17706,21587 L 17730,21587 17730,21606 17706,21606 17706,21587 Z"/>
             <path fill="rgb(227,227,227)" stroke="none" d="M 17706,21587 L 17730,21587 17730,21606 17706,21606 17706,21587 Z M 17712,21592 L 17724,21592 17724,21601 17712,21601 17712,21592 Z"/>
             <path fill="rgb(229,229,229)" stroke="none" d="M 17712,21592 L 17724,21592 17724,21601 17712,21601 17712,21592 Z"/>
            </g>
           </pattern>
          </defs>
          <path style="fill:url(#pattern1)" d="M 18144,21591 L 18144,21451 17537,21801 17537,21941 18144,21591 Z"/>
         </g>
         <path fill="none" stroke="rgb(255,255,255)" stroke-width="40" stroke-linejoin="round" d="M 18144,21591 L 18144,21451 17537,21801 17537,21941 18144,21591 Z"/>
        </g>
       </g>
       <g class="com.sun.star.drawing.PolyPolygonShape">
        <g id="id7">
         <rect class="BoundingBox" stroke="none" fill="none" x="18002" y="19611" width="404" height="2351"/>
         <g>
          <defs>
           <pattern id="pattern2" x="18022" y="19631" width="364" height="2311" patternUnits="userSpaceOnUse">
            <g transform="translate(-18022,-19631)">
             <path fill="rgb(179,179,179)" stroke="none" d="M 18021,19630 L 18386,19630 18386,21942 18021,21942 18021,19630 Z M 17951,19191 L 18308,19191 18308,21455 17951,21455 17951,19191 Z"/>
             <path fill="rgb(180,180,180)" stroke="none" d="M 17951,19191 L 18308,19191 18308,21455 17951,21455 17951,19191 Z M 17955,19214 L 18304,19214 18304,21432 17955,21432 17955,19214 Z"/>
             <path fill="rgb(181,181,181)" stroke="none" d="M 17955,19214 L 18304,19214 18304,21432 17955,21432 17955,19214 Z M 17958,19237 L 18301,19237 18301,21409 17958,21409 17958,19237 Z"/>
             <path fill="rgb(182,182,182)" stroke="none" d="M 17958,19237 L 18301,19237 18301,21409 17958,21409 17958,19237 Z M 17962,19260 L 18297,19260 18297,21386 17962,21386 17962,19260 Z"/>
             <path fill="rgb(183,183,183)" stroke="none" d="M 17962,19260 L 18297,19260 18297,21386 17962,21386 17962,19260 Z M 17966,19283 L 18293,19283 18293,21363 17966,21363 17966,19283 Z"/>
             <path fill="rgb(184,184,184)" stroke="none" d="M 17966,19283 L 18293,19283 18293,21363 17966,21363 17966,19283 Z M 17969,19306 L 18290,19306 18290,21340 17969,21340 17969,19306 Z"/>
             <path fill="rgb(185,185,185)" stroke="none" d="M 17969,19306 L 18290,19306 18290,21340 17969,21340 17969,19306 Z M 17973,19329 L 18286,19329 18286,21317 17973,21317 17973,19329 Z"/>
             <path fill="rgb(186,186,186)" stroke="none" d="M 17973,19329 L 18286,19329 18286,21317 17973,21317 17973,19329 Z M 17977,19353 L 18282,19353 18282,21293 17977,21293 17977,19353 Z"/>
             <path fill="rgb(187,187,187)" stroke="none" d="M 17977,19353 L 18282,19353 18282,21293 17977,21293 17977,19353 Z M 17980,19376 L 18279,19376 18279,21270 17980,21270 17980,19376 Z"/>
             <path fill="rgb(188,188,188)" stroke="none" d="M 17980,19376 L 18279,19376 18279,21270 17980,21270 17980,19376 Z M 17984,19399 L 18275,19399 18275,21247 17984,21247 17984,19399 Z"/>
             <path fill="rgb(189,189,189)" stroke="none" d="M 17984,19399 L 18275,19399 18275,21247 17984,21247 17984,19399 Z M 17988,19422 L 18271,19422 18271,21224 17988,21224 17988,19422 Z"/>
             <path fill="rgb(190,190,190)" stroke="none" d="M 17988,19422 L 18271,19422 18271,21224 17988,21224 17988,19422 Z M 17991,19445 L 18268,19445 18268,21201 17991,21201 17991,19445 Z"/>
             <path fill="rgb(191,191,191)" stroke="none" d="M 17991,19445 L 18268,19445 18268,21201 17991,21201 17991,19445 Z M 17995,19468 L 18264,19468 18264,21178 17995,21178 17995,19468 Z"/>
             <path fill="rgb(192,192,192)" stroke="none" d="M 17995,19468 L 18264,19468 18264,21178 17995,21178 17995,19468 Z M 17999,19491 L 18260,19491 18260,21155 17999,21155 17999,19491 Z"/>
             <path fill="rgb(193,193,193)" stroke="none" d="M 17999,19491 L 18260,19491 18260,21155 17999,21155 17999,19491 Z M 18002,19514 L 18257,19514 18257,21132 18002,21132 18002,19514 Z"/>
             <path fill="rgb(194,194,194)" stroke="none" d="M 18002,19514 L 18257,19514 18257,21132 18002,21132 18002,19514 Z M 18005,19538 L 18253,19538 18253,21108 18005,21108 18005,19538 Z"/>
             <path fill="rgb(195,195,195)" stroke="none" d="M 18005,19538 L 18253,19538 18253,21108 18005,21108 18005,19538 Z M 18009,19561 L 18249,19561 18249,21085 18009,21085 18009,19561 Z"/>
             <path fill="rgb(196,196,196)" stroke="none" d="M 18009,19561 L 18249,19561 18249,21085 18009,21085 18009,19561 Z M 18012,19584 L 18246,19584 18246,21062 18012,21062 18012,19584 Z"/>
             <path fill="rgb(197,197,197)" stroke="none" d="M 18012,19584 L 18246,19584 18246,21062 18012,21062 18012,19584 Z M 18016,19607 L 18242,19607 18242,21039 18016,21039 18016,19607 Z"/>
             <path fill="rgb(198,198,198)" stroke="none" d="M 18016,19607 L 18242,19607 18242,21039 18016,21039 18016,19607 Z M 18020,19629 L 18238,19629 18238,21016 18020,21016 18020,19629 Z"/>
             <path fill="rgb(199,199,199)" stroke="none" d="M 18020,19629 L 18238,19629 18238,21016 18020,21016 18020,19629 Z M 18023,19652 L 18235,19652 18235,20993 18023,20993 18023,19652 Z"/>
             <path fill="rgb(200,200,200)" stroke="none" d="M 18023,19652 L 18235,19652 18235,20993 18023,20993 18023,19652 Z M 18027,19675 L 18231,19675 18231,20970 18027,20970 18027,19675 Z"/>
             <path fill="rgb(201,201,201)" stroke="none" d="M 18027,19675 L 18231,19675 18231,20970 18027,20970 18027,19675 Z M 18031,19698 L 18227,19698 18227,20947 18031,20947 18031,19698 Z"/>
             <path fill="rgb(202,202,202)" stroke="none" d="M 18031,19698 L 18227,19698 18227,20947 18031,20947 18031,19698 Z M 18034,19722 L 18224,19722 18224,20923 18034,20923 18034,19722 Z"/>
             <path fill="rgb(203,203,203)" stroke="none" d="M 18034,19722 L 18224,19722 18224,20923 18034,20923 18034,19722 Z M 18038,19745 L 18220,19745 18220,20900 18038,20900 18038,19745 Z"/>
             <path fill="rgb(204,204,204)" stroke="none" d="M 18038,19745 L 18220,19745 18220,20900 18038,20900 18038,19745 Z M 18042,19768 L 18216,19768 18216,20877 18042,20877 18042,19768 Z"/>
             <path fill="rgb(205,205,205)" stroke="none" d="M 18042,19768 L 18216,19768 18216,20877 18042,20877 18042,19768 Z M 18045,19791 L 18213,19791 18213,20854 18045,20854 18045,19791 Z"/>
             <path fill="rgb(206,206,206)" stroke="none" d="M 18045,19791 L 18213,19791 18213,20854 18045,20854 18045,19791 Z M 18049,19814 L 18209,19814 18209,20831 18049,20831 18049,19814 Z"/>
             <path fill="rgb(207,207,207)" stroke="none" d="M 18049,19814 L 18209,19814 18209,20831 18049,20831 18049,19814 Z M 18053,19837 L 18205,19837 18205,20808 18053,20808 18053,19837 Z"/>
             <path fill="rgb(208,208,208)" stroke="none" d="M 18053,19837 L 18205,19837 18205,20808 18053,20808 18053,19837 Z M 18056,19860 L 18202,19860 18202,20785 18056,20785 18056,19860 Z"/>
             <path fill="rgb(209,209,209)" stroke="none" d="M 18056,19860 L 18202,19860 18202,20785 18056,20785 18056,19860 Z M 18060,19884 L 18198,19884 18198,20761 18060,20761 18060,19884 Z"/>
             <path fill="rgb(210,210,210)" stroke="none" d="M 18060,19884 L 18198,19884 18198,20761 18060,20761 18060,19884 Z M 18064,19907 L 18194,19907 18194,20738 18064,20738 18064,19907 Z"/>
             <path fill="rgb(211,211,211)" stroke="none" d="M 18064,19907 L 18194,19907 18194,20738 18064,20738 18064,19907 Z M 18067,19930 L 18191,19930 18191,20715 18067,20715 18067,19930 Z"/>
             <path fill="rgb(212,212,212)" stroke="none" d="M 18067,19930 L 18191,19930 18191,20715 18067,20715 18067,19930 Z M 18071,19953 L 18187,19953 18187,20692 18071,20692 18071,19953 Z"/>
             <path fill="rgb(213,213,213)" stroke="none" d="M 18071,19953 L 18187,19953 18187,20692 18071,20692 18071,19953 Z M 18075,19976 L 18183,19976 18183,20669 18075,20669 18075,19976 Z"/>
             <path fill="rgb(214,214,214)" stroke="none" d="M 18075,19976 L 18183,19976 18183,20669 18075,20669 18075,19976 Z M 18078,19999 L 18180,19999 18180,20646 18078,20646 18078,19999 Z"/>
             <path fill="rgb(215,215,215)" stroke="none" d="M 18078,19999 L 18180,19999 18180,20646 18078,20646 18078,19999 Z M 18082,20022 L 18176,20022 18176,20623 18082,20623 18082,20022 Z"/>
             <path fill="rgb(216,216,216)" stroke="none" d="M 18082,20022 L 18176,20022 18176,20623 18082,20623 18082,20022 Z M 18086,20045 L 18172,20045 18172,20600 18086,20600 18086,20045 Z"/>
             <path fill="rgb(217,217,217)" stroke="none" d="M 18086,20045 L 18172,20045 18172,20600 18086,20600 18086,20045 Z M 18089,20069 L 18169,20069 18169,20576 18089,20576 18089,20069 Z"/>
             <path fill="rgb(218,218,218)" stroke="none" d="M 18089,20069 L 18169,20069 18169,20576 18089,20576 18089,20069 Z M 18093,20092 L 18165,20092 18165,20553 18093,20553 18093,20092 Z"/>
             <path fill="rgb(219,219,219)" stroke="none" d="M 18093,20092 L 18165,20092 18165,20553 18093,20553 18093,20092 Z M 18097,20115 L 18161,20115 18161,20530 18097,20530 18097,20115 Z"/>
             <path fill="rgb(220,220,220)" stroke="none" d="M 18097,20115 L 18161,20115 18161,20530 18097,20530 18097,20115 Z M 18100,20138 L 18158,20138 18158,20507 18100,20507 18100,20138 Z"/>
             <path fill="rgb(221,221,221)" stroke="none" d="M 18100,20138 L 18158,20138 18158,20507 18100,20507 18100,20138 Z M 18104,20161 L 18154,20161 18154,20484 18104,20484 18104,20161 Z"/>
             <path fill="rgb(222,222,222)" stroke="none" d="M 18104,20161 L 18154,20161 18154,20484 18104,20484 18104,20161 Z M 18108,20184 L 18150,20184 18150,20461 18108,20461 18108,20184 Z"/>
             <path fill="rgb(223,223,223)" stroke="none" d="M 18108,20184 L 18150,20184 18150,20461 18108,20461 18108,20184 Z M 18111,20207 L 18147,20207 18147,20438 18111,20438 18111,20207 Z"/>
             <path fill="rgb(224,224,224)" stroke="none" d="M 18111,20207 L 18147,20207 18147,20438 18111,20438 18111,20207 Z M 18115,20230 L 18143,20230 18143,20415 18115,20415 18115,20230 Z"/>
             <path fill="rgb(225,225,225)" stroke="none" d="M 18115,20230 L 18143,20230 18143,20415 18115,20415 18115,20230 Z M 18119,20254 L 18139,20254 18139,20391 18119,20391 18119,20254 Z"/>
             <path fill="rgb(226,226,226)" stroke="none" d="M 18119,20254 L 18139,20254 18139,20391 18119,20391 18119,20254 Z M 18122,20277 L 18136,20277 18136,20368 18122,20368 18122,20277 Z"/>
             <path fill="rgb(227,227,227)" stroke="none" d="M 18122,20277 L 18136,20277 18136,20368 18122,20368 18122,20277 Z M 18126,20300 L 18132,20300 18132,20345 18126,20345 18126,20300 Z"/>
             <path fill="rgb(229,229,229)" stroke="none" d="M 18126,20300 L 18132,20300 18132,20345 18126,20345 18126,20300 Z"/>
            </g>
           </pattern>
          </defs>
          <path style="fill:url(#pattern2)" d="M 18385,21731 L 18385,19631 18022,19841 18022,21941 18385,21731 Z"/>
         </g>
         <path fill="none" stroke="rgb(255,255,255)" stroke-width="40" stroke-linejoin="round" d="M 18385,21731 L 18385,19631 18022,19841 18022,21941 18385,21731 Z"/>
        </g>
       </g>
       <g class="com.sun.star.drawing.PolyPolygonShape">
        <g id="id8">
         <rect class="BoundingBox" stroke="none" fill="none" x="16667" y="21291" width="892" height="671"/>
         <g>
          <defs>
           <linearGradient id="gradient2" x1="16686" y1="21626" x2="17538" y2="21626" gradientUnits="userSpaceOnUse">
            <stop offset="0.1" style="stop-color:rgb(179,179,179)"/>
            <stop offset="1" style="stop-color:rgb(229,229,229)"/>
           </linearGradient>
          </defs>
          <path style="fill:url(#gradient2)" d="M 17537,21941 L 17538,21801 16688,21311 16687,21451 17537,21941 Z"/>
         </g>
         <path fill="none" stroke="rgb(255,255,255)" stroke-width="40" stroke-linejoin="round" d="M 17537,21941 L 17538,21801 16688,21311 16687,21451 17537,21941 Z"/>
        </g>
       </g>
       <g class="com.sun.star.drawing.PolyPolygonShape">
        <g id="id9">
         <rect class="BoundingBox" stroke="none" fill="none" x="16668" y="21151" width="1133" height="671"/>
         <g>
          <defs>
           <linearGradient id="gradient3" x1="17233" y1="21171" x2="17233" y2="21801" gradientUnits="userSpaceOnUse">
            <stop offset="0.1" style="stop-color:rgb(179,179,179)"/>
            <stop offset="1" style="stop-color:rgb(229,229,229)"/>
           </linearGradient>
          </defs>
          <path style="fill:url(#gradient3)" d="M 17537,21801 L 17779,21661 16930,21171 16688,21311 17537,21801 Z"/>
         </g>
         <path fill="none" stroke="rgb(255,255,255)" stroke-width="40" stroke-linejoin="round" d="M 17537,21801 L 17779,21661 16930,21171 16688,21311 17537,21801 Z"/>
        </g>
       </g>
       <g class="com.sun.star.drawing.PolyPolygonShape">
        <g id="id10">
         <rect class="BoundingBox" stroke="none" fill="none" x="16547" y="18980" width="1496" height="2982"/>
         <g>
          <defs>
           <linearGradient id="gradient4" x1="16565" y1="20471" x2="18023" y2="20471" gradientUnits="userSpaceOnUse">
            <stop offset="0.1" style="stop-color:rgb(179,179,179)"/>
            <stop offset="1" style="stop-color:rgb(229,229,229)"/>
           </linearGradient>
          </defs>
          <path style="fill:url(#gradient4)" d="M 18022,21941 L 18022,19841 16567,19001 16567,21101 18022,21941 Z"/>
         </g>
         <path fill="none" stroke="rgb(255,255,255)" stroke-width="40" stroke-linejoin="round" d="M 18022,21941 L 18022,19841 16567,19001 16567,21101 18022,21941 Z"/>
        </g>
       </g>
       <g class="com.sun.star.drawing.PolyPolygonShape">
        <g id="id11">
         <rect class="BoundingBox" stroke="none" fill="none" x="16547" y="18771" width="1859" height="3191"/>
         <path fill="none" stroke="rgb(0,0,0)" stroke-width="40" stroke-linejoin="round" d="M 18385,21731 L 18385,19631 16930,18791 16567,19001 16567,21101 16809,21241 16688,21311 16688,21451 17537,21941 17779,21801 18022,21941 18385,21731 Z"/>
        </g>
       </g>
       <g class="com.sun.star.drawing.PolyPolygonShape">
        <g id="id12">
         <rect class="BoundingBox" stroke="none" fill="none" x="18123" y="20591" width="162" height="252"/>
         <path fill="rgb(102,102,255)" stroke="none" d="M 18264,20751 L 18264,20611 18143,20681 18143,20821 18264,20751 Z"/>
         <path fill="none" stroke="rgb(51,51,51)" stroke-width="40" stroke-linejoin="round" d="M 18264,20751 L 18264,20611 18143,20681 18143,20821 18264,20751 Z"/>
        </g>
       </g>
      </g>
     </g>
    </g>
   </g>
  </g>
 </g>
</svg>