<?xml version="1.0" encoding="UTF-8"?>
<!DOCTYPE svg PUBLIC "-//W3C//DTD SVG 1.1//EN" "http://www.w3.org/Graphics/SVG/1.1/DTD/svg11.dtd">
<svg version="1.2" width="13.45mm" height="10.14mm" viewBox="19729 34307 1345 1014" preserveAspectRatio="xMidYMid" fill-rule="evenodd" stroke-width="28.222" stroke-linejoin="round" xmlns="http://www.w3.org/2000/svg" xmlns:ooo="http://xml.openoffice.org/svg/export" xmlns:xlink="http://www.w3.org/1999/xlink" xmlns:presentation="http://sun.com/xmlns/staroffice/presentation" xmlns:smil="http://www.w3.org/2001/SMIL20/" xmlns:anim="urn:oasis:names:tc:opendocument:xmlns:animation:1.0" xml:space="preserve">
 <defs class="ClipPathGroup">
  <clipPath id="presentation_clip_path" clipPathUnits="userSpaceOnUse">
   <rect x="19729" y="34307" width="1345" height="1014"/>
  </clipPath>
 </defs>
 <defs class="TextShapeIndex">
  <g ooo:slide="id1" ooo:id-list="id3 id4 id5 id6 id7 id8 id9"/>
 </defs>
 <defs class="EmbeddedBulletChars">
  <g id="bullet-char-template(57356)" transform="scale(0.00048828125,-0.00048828125)">
   <path d="M 580,1141 L 1163,571 580,0 -4,571 580,1141 Z"/>
  </g>
  <g id="bullet-char-template(57354)" transform="scale(0.00048828125,-0.00048828125)">
   <path d="M 8,1128 L 1137,1128 1137,0 8,0 8,1128 Z"/>
  </g>
  <g id="bullet-char-template(10146)" transform="scale(0.00048828125,-0.00048828125)">
   <path d="M 174,0 L 602,739 174,1481 1456,739 174,0 Z M 1358,739 L 309,1346 659,739 1358,739 Z"/>
  </g>
  <g id="bullet-char-template(10132)" transform="scale(0.00048828125,-0.00048828125)">
   <path d="M 2015,739 L 1276,0 717,0 1260,543 174,543 174,936 1260,936 717,1481 1274,1481 2015,739 Z"/>
  </g>
  <g id="bullet-char-template(10007)" transform="scale(0.00048828125,-0.00048828125)">
   <path d="M 0,-2 C -7,14 -16,27 -25,37 L 356,567 C 262,823 215,952 215,954 215,979 228,992 255,992 264,992 276,990 289,987 310,991 331,999 354,1012 L 381,999 492,748 772,1049 836,1024 860,1049 C 881,1039 901,1025 922,1006 886,937 835,863 770,784 769,783 710,716 594,584 L 774,223 C 774,196 753,168 711,139 L 727,119 C 717,90 699,76 672,76 641,76 570,178 457,381 L 164,-76 C 142,-110 111,-127 72,-127 30,-127 9,-110 8,-76 1,-67 -2,-52 -2,-32 -2,-23 -1,-13 0,-2 Z"/>
  </g>
  <g id="bullet-char-template(10004)" transform="scale(0.00048828125,-0.00048828125)">
   <path d="M 285,-33 C 182,-33 111,30 74,156 52,228 41,333 41,471 41,549 55,616 82,672 116,743 169,778 240,778 293,778 328,747 346,684 L 369,508 C 377,444 397,411 428,410 L 1163,1116 C 1174,1127 1196,1133 1229,1133 1271,1133 1292,1118 1292,1087 L 1292,965 C 1292,929 1282,901 1262,881 L 442,47 C 390,-6 338,-33 285,-33 Z"/>
  </g>
  <g id="bullet-char-template(9679)" transform="scale(0.00048828125,-0.00048828125)">
   <path d="M 813,0 C 632,0 489,54 383,161 276,268 223,411 223,592 223,773 276,916 383,1023 489,1130 632,1184 813,1184 992,1184 1136,1130 1245,1023 1353,916 1407,772 1407,592 1407,412 1353,268 1245,161 1136,54 992,0 813,0 Z"/>
  </g>
  <g id="bullet-char-template(8226)" transform="scale(0.00048828125,-0.00048828125)">
   <path d="M 346,457 C 273,457 209,483 155,535 101,586 74,649 74,723 74,796 101,859 155,911 209,963 273,989 346,989 419,989 480,963 531,910 582,859 608,796 608,723 608,648 583,586 532,535 482,483 420,457 346,457 Z"/>
  </g>
  <g id="bullet-char-template(8211)" transform="scale(0.00048828125,-0.00048828125)">
   <path d="M -4,459 L 1135,459 1135,606 -4,606 -4,459 Z"/>
  </g>
 </defs>
 <defs class="TextEmbeddedBitmaps"/>
 <g class="SlideGroup">
  <g>
   <g id="id1" class="Slide" clip-path="url(#presentation_clip_path)">
    <g class="Page">
     <g class="Group">
      <g class="com.sun.star.drawing.PolyPolygonShape">
       <g id="id3">
        <rect class="BoundingBox" stroke="none" fill="none" x="20650" y="34750" width="425" height="572"/>
        <g>
         <defs>
          <pattern id="pattern1" x="20670" y="34770" width="385" height="532" patternUnits="userSpaceOnUse">
           <g transform="translate(-20670,-34770)">
            <path fill="rgb(102,102,102)" stroke="none" d="M 20669,34769 L 21055,34769 21055,35302 20669,35302 20669,34769 Z M 20596,34668 L 20974,34668 20974,35189 20596,35189 20596,34668 Z"/>
            <path fill="rgb(103,103,103)" stroke="none" d="M 20596,34668 L 20974,34668 20974,35189 20596,35189 20596,34668 Z M 20600,34673 L 20970,34673 20970,35184 20600,35184 20600,34673 Z"/>
            <path fill="rgb(104,104,104)" stroke="none" d="M 20600,34673 L 20970,34673 20970,35184 20600,35184 20600,34673 Z M 20604,34678 L 20966,34678 20966,35179 20604,35179 20604,34678 Z"/>
            <path fill="rgb(105,105,105)" stroke="none" d="M 20604,34678 L 20966,34678 20966,35179 20604,35179 20604,34678 Z M 20608,34683 L 20962,34683 20962,35174 20608,35174 20608,34683 Z"/>
            <path fill="rgb(106,106,106)" stroke="none" d="M 20608,34683 L 20962,34683 20962,35174 20608,35174 20608,34683 Z M 20611,34689 L 20959,34689 20959,35168 20611,35168 20611,34689 Z"/>
            <path fill="rgb(107,107,107)" stroke="none" d="M 20611,34689 L 20959,34689 20959,35168 20611,35168 20611,34689 Z M 20615,34694 L 20955,34694 20955,35163 20615,35163 20615,34694 Z"/>
            <path fill="rgb(108,108,108)" stroke="none" d="M 20615,34694 L 20955,34694 20955,35163 20615,35163 20615,34694 Z M 20619,34699 L 20951,34699 20951,35158 20619,35158 20619,34699 Z"/>
            <path fill="rgb(109,109,109)" stroke="none" d="M 20619,34699 L 20951,34699 20951,35158 20619,35158 20619,34699 Z M 20623,34704 L 20947,34704 20947,35153 20623,35153 20623,34704 Z"/>
            <path fill="rgb(110,110,110)" stroke="none" d="M 20623,34704 L 20947,34704 20947,35153 20623,35153 20623,34704 Z M 20627,34710 L 20943,34710 20943,35147 20627,35147 20627,34710 Z"/>
            <path fill="rgb(111,111,111)" stroke="none" d="M 20627,34710 L 20943,34710 20943,35147 20627,35147 20627,34710 Z M 20630,34715 L 20940,34715 20940,35142 20630,35142 20630,34715 Z"/>
            <path fill="rgb(112,112,112)" stroke="none" d="M 20630,34715 L 20940,34715 20940,35142 20630,35142 20630,34715 Z M 20634,34720 L 20936,34720 20936,35137 20634,35137 20634,34720 Z"/>
            <path fill="rgb(113,113,113)" stroke="none" d="M 20634,34720 L 20936,34720 20936,35137 20634,35137 20634,34720 Z M 20638,34725 L 20932,34725 20932,35132 20638,35132 20638,34725 Z"/>
            <path fill="rgb(114,114,114)" stroke="none" d="M 20638,34725 L 20932,34725 20932,35132 20638,35132 20638,34725 Z M 20642,34731 L 20928,34731 20928,35126 20642,35126 20642,34731 Z"/>
            <path fill="rgb(115,115,115)" stroke="none" d="M 20642,34731 L 20928,34731 20928,35126 20642,35126 20642,34731 Z M 20646,34736 L 20924,34736 20924,35121 20646,35121 20646,34736 Z"/>
            <path fill="rgb(116,116,116)" stroke="none" d="M 20646,34736 L 20924,34736 20924,35121 20646,35121 20646,34736 Z M 20649,34741 L 20921,34741 20921,35116 20649,35116 20649,34741 Z"/>
            <path fill="rgb(117,117,117)" stroke="none" d="M 20649,34741 L 20921,34741 20921,35116 20649,35116 20649,34741 Z M 20652,34746 L 20917,34746 20917,35111 20652,35111 20652,34746 Z"/>
            <path fill="rgb(118,118,118)" stroke="none" d="M 20652,34746 L 20917,34746 20917,35111 20652,35111 20652,34746 Z M 20656,34750 L 20913,34750 20913,35105 20656,35105 20656,34750 Z"/>
            <path fill="rgb(119,119,119)" stroke="none" d="M 20656,34750 L 20913,34750 20913,35105 20656,35105 20656,34750 Z M 20660,34756 L 20909,34756 20909,35100 20660,35100 20660,34756 Z"/>
            <path fill="rgb(120,120,120)" stroke="none" d="M 20660,34756 L 20909,34756 20909,35100 20660,35100 20660,34756 Z M 20664,34761 L 20905,34761 20905,35095 20664,35095 20664,34761 Z"/>
            <path fill="rgb(121,121,121)" stroke="none" d="M 20664,34761 L 20905,34761 20905,35095 20664,35095 20664,34761 Z M 20667,34766 L 20902,34766 20902,35090 20667,35090 20667,34766 Z"/>
            <path fill="rgb(122,122,122)" stroke="none" d="M 20667,34766 L 20902,34766 20902,35090 20667,35090 20667,34766 Z M 20671,34771 L 20898,34771 20898,35085 20671,35085 20671,34771 Z"/>
            <path fill="rgb(123,123,123)" stroke="none" d="M 20671,34771 L 20898,34771 20898,35085 20671,35085 20671,34771 Z M 20675,34777 L 20894,34777 20894,35079 20675,35079 20675,34777 Z"/>
            <path fill="rgb(124,124,124)" stroke="none" d="M 20675,34777 L 20894,34777 20894,35079 20675,35079 20675,34777 Z M 20679,34782 L 20890,34782 20890,35074 20679,35074 20679,34782 Z"/>
            <path fill="rgb(125,125,125)" stroke="none" d="M 20679,34782 L 20890,34782 20890,35074 20679,35074 20679,34782 Z M 20683,34787 L 20886,34787 20886,35069 20683,35069 20683,34787 Z"/>
            <path fill="rgb(126,126,126)" stroke="none" d="M 20683,34787 L 20886,34787 20886,35069 20683,35069 20683,34787 Z M 20686,34792 L 20883,34792 20883,35064 20686,35064 20686,34792 Z"/>
            <path fill="rgb(127,127,127)" stroke="none" d="M 20686,34792 L 20883,34792 20883,35064 20686,35064 20686,34792 Z M 20690,34798 L 20879,34798 20879,35058 20690,35058 20690,34798 Z"/>
            <path fill="rgb(128,128,128)" stroke="none" d="M 20690,34798 L 20879,34798 20879,35058 20690,35058 20690,34798 Z M 20694,34803 L 20875,34803 20875,35053 20694,35053 20694,34803 Z"/>
            <path fill="rgb(129,129,129)" stroke="none" d="M 20694,34803 L 20875,34803 20875,35053 20694,35053 20694,34803 Z M 20698,34808 L 20871,34808 20871,35048 20698,35048 20698,34808 Z"/>
            <path fill="rgb(130,130,130)" stroke="none" d="M 20698,34808 L 20871,34808 20871,35048 20698,35048 20698,34808 Z M 20702,34813 L 20867,34813 20867,35043 20702,35043 20702,34813 Z"/>
            <path fill="rgb(131,131,131)" stroke="none" d="M 20702,34813 L 20867,34813 20867,35043 20702,35043 20702,34813 Z M 20705,34819 L 20864,34819 20864,35037 20705,35037 20705,34819 Z"/>
            <path fill="rgb(132,132,132)" stroke="none" d="M 20705,34819 L 20864,34819 20864,35037 20705,35037 20705,34819 Z M 20709,34824 L 20860,34824 20860,35032 20709,35032 20709,34824 Z"/>
            <path fill="rgb(133,133,133)" stroke="none" d="M 20709,34824 L 20860,34824 20860,35032 20709,35032 20709,34824 Z M 20713,34829 L 20856,34829 20856,35027 20713,35027 20713,34829 Z"/>
            <path fill="rgb(134,134,134)" stroke="none" d="M 20713,34829 L 20856,34829 20856,35027 20713,35027 20713,34829 Z M 20717,34834 L 20852,34834 20852,35022 20717,35022 20717,34834 Z"/>
            <path fill="rgb(135,135,135)" stroke="none" d="M 20717,34834 L 20852,34834 20852,35022 20717,35022 20717,34834 Z M 20721,34839 L 20848,34839 20848,35016 20721,35016 20721,34839 Z"/>
            <path fill="rgb(136,136,136)" stroke="none" d="M 20721,34839 L 20848,34839 20848,35016 20721,35016 20721,34839 Z M 20724,34845 L 20845,34845 20845,35011 20724,35011 20724,34845 Z"/>
            <path fill="rgb(137,137,137)" stroke="none" d="M 20724,34845 L 20845,34845 20845,35011 20724,35011 20724,34845 Z M 20728,34850 L 20841,34850 20841,35006 20728,35006 20728,34850 Z"/>
            <path fill="rgb(138,138,138)" stroke="none" d="M 20728,34850 L 20841,34850 20841,35006 20728,35006 20728,34850 Z M 20732,34855 L 20837,34855 20837,35001 20732,35001 20732,34855 Z"/>
            <path fill="rgb(139,139,139)" stroke="none" d="M 20732,34855 L 20837,34855 20837,35001 20732,35001 20732,34855 Z M 20736,34860 L 20833,34860 20833,34996 20736,34996 20736,34860 Z"/>
            <path fill="rgb(140,140,140)" stroke="none" d="M 20736,34860 L 20833,34860 20833,34996 20736,34996 20736,34860 Z M 20739,34866 L 20830,34866 20830,34990 20739,34990 20739,34866 Z"/>
            <path fill="rgb(141,141,141)" stroke="none" d="M 20739,34866 L 20830,34866 20830,34990 20739,34990 20739,34866 Z M 20743,34871 L 20826,34871 20826,34985 20743,34985 20743,34871 Z"/>
            <path fill="rgb(142,142,142)" stroke="none" d="M 20743,34871 L 20826,34871 20826,34985 20743,34985 20743,34871 Z M 20747,34876 L 20822,34876 20822,34980 20747,34980 20747,34876 Z"/>
            <path fill="rgb(143,143,143)" stroke="none" d="M 20747,34876 L 20822,34876 20822,34980 20747,34980 20747,34876 Z M 20751,34881 L 20818,34881 20818,34975 20751,34975 20751,34881 Z"/>
            <path fill="rgb(144,144,144)" stroke="none" d="M 20751,34881 L 20818,34881 20818,34975 20751,34975 20751,34881 Z M 20755,34887 L 20814,34887 20814,34969 20755,34969 20755,34887 Z"/>
            <path fill="rgb(145,145,145)" stroke="none" d="M 20755,34887 L 20814,34887 20814,34969 20755,34969 20755,34887 Z M 20758,34892 L 20811,34892 20811,34964 20758,34964 20758,34892 Z"/>
            <path fill="rgb(146,146,146)" stroke="none" d="M 20758,34892 L 20811,34892 20811,34964 20758,34964 20758,34892 Z M 20762,34897 L 20807,34897 20807,34959 20762,34959 20762,34897 Z"/>
            <path fill="rgb(147,147,147)" stroke="none" d="M 20762,34897 L 20807,34897 20807,34959 20762,34959 20762,34897 Z M 20766,34902 L 20803,34902 20803,34954 20766,34954 20766,34902 Z"/>
            <path fill="rgb(148,148,148)" stroke="none" d="M 20766,34902 L 20803,34902 20803,34954 20766,34954 20766,34902 Z M 20770,34908 L 20799,34908 20799,34948 20770,34948 20770,34908 Z"/>
            <path fill="rgb(149,149,149)" stroke="none" d="M 20770,34908 L 20799,34908 20799,34948 20770,34948 20770,34908 Z M 20774,34913 L 20795,34913 20795,34943 20774,34943 20774,34913 Z"/>
            <path fill="rgb(150,150,150)" stroke="none" d="M 20774,34913 L 20795,34913 20795,34943 20774,34943 20774,34913 Z M 20777,34918 L 20792,34918 20792,34938 20777,34938 20777,34918 Z"/>
            <path fill="rgb(151,151,151)" stroke="none" d="M 20777,34918 L 20792,34918 20792,34938 20777,34938 20777,34918 Z M 20781,34923 L 20788,34923 20788,34933 20781,34933 20781,34923 Z"/>
            <path fill="rgb(153,153,153)" stroke="none" d="M 20781,34923 L 20788,34923 20788,34933 20781,34933 20781,34923 Z"/>
           </g>
          </pattern>
         </defs>
         <path style="fill:url(#pattern1)" d="M 21054,35080 L 21053,34770 20670,34991 20670,35301 21054,35080 Z"/>
        </g>
        <path fill="none" stroke="rgb(178,178,178)" stroke-width="40" stroke-linejoin="round" d="M 21054,35080 L 21053,34770 20670,34991 20670,35301 21054,35080 Z"/>
       </g>
      </g>
      <g class="com.sun.star.drawing.PolyPolygonShape">
       <g id="id4">
        <rect class="BoundingBox" stroke="none" fill="none" x="19961" y="34440" width="272" height="307"/>
        <g>
         <defs>
          <linearGradient id="gradient1" x1="19979" y1="34593" x2="20213" y2="34593" gradientUnits="userSpaceOnUse">
           <stop offset="0.1" style="stop-color:rgb(179,179,179)"/>
           <stop offset="1" style="stop-color:rgb(229,229,229)"/>
          </linearGradient>
         </defs>
         <path style="fill:url(#gradient1)" d="M 20212,34593 L 20212,34460 19981,34593 19982,34726 20212,34593 Z"/>
        </g>
        <path fill="none" stroke="rgb(255,255,255)" stroke-width="40" stroke-linejoin="round" d="M 20212,34593 L 20212,34460 19981,34593 19982,34726 20212,34593 Z"/>
       </g>
      </g>
      <g class="com.sun.star.drawing.PolyPolygonShape">
       <g id="id5">
        <rect class="BoundingBox" stroke="none" fill="none" x="19729" y="34440" width="273" height="307"/>
        <g>
         <defs>
          <linearGradient id="gradient2" x1="19748" y1="34593" x2="19982" y2="34593" gradientUnits="userSpaceOnUse">
           <stop offset="0.1" style="stop-color:rgb(179,179,179)"/>
           <stop offset="1" style="stop-color:rgb(229,229,229)"/>
          </linearGradient>
         </defs>
         <path style="fill:url(#gradient2)" d="M 19981,34726 L 19981,34593 19749,34460 19751,34593 19981,34726 Z"/>
        </g>
        <path fill="none" stroke="rgb(255,255,255)" stroke-width="40" stroke-linejoin="round" d="M 19981,34726 L 19981,34593 19749,34460 19751,34593 19981,34726 Z"/>
       </g>
      </g>
      <g class="com.sun.star.drawing.PolyPolygonShape">
       <g id="id6">
        <rect class="BoundingBox" stroke="none" fill="none" x="19731" y="34307" width="502" height="307"/>
        <g>
         <defs>
          <linearGradient id="gradient3" x1="19981" y1="34327" x2="19981" y2="34593" gradientUnits="userSpaceOnUse">
           <stop offset="0.1" style="stop-color:rgb(179,179,179)"/>
           <stop offset="1" style="stop-color:rgb(229,229,229)"/>
          </linearGradient>
         </defs>
         <path style="fill:url(#gradient3)" d="M 19981,34593 L 20211,34460 19981,34327 19751,34460 19981,34593 Z"/>
        </g>
        <path fill="none" stroke="rgb(255,255,255)" stroke-width="40" stroke-linejoin="round" d="M 19981,34593 L 20211,34460 19981,34327 19751,34460 19981,34593 Z"/>
       </g>
      </g>
      <g class="com.sun.star.drawing.PolyPolygonShape">
       <g id="id7">
        <rect class="BoundingBox" stroke="none" fill="none" x="19881" y="34307" width="1193" height="706"/>
        <g>
         <defs>
          <linearGradient id="gradient4" x1="20477" y1="34327" x2="20477" y2="34991" gradientUnits="userSpaceOnUse">
           <stop offset="0.1" style="stop-color:rgb(51,51,51)"/>
           <stop offset="1" style="stop-color:rgb(153,153,153)"/>
          </linearGradient>
         </defs>
         <path style="fill:url(#gradient4)" d="M 20670,34991 L 21053,34770 20285,34327 19902,34548 20670,34991 Z"/>
        </g>
        <path fill="none" stroke="rgb(178,178,178)" stroke-width="40" stroke-linejoin="round" d="M 20670,34991 L 21053,34770 20285,34327 19902,34548 20670,34991 Z"/>
       </g>
      </g>
      <g class="com.sun.star.drawing.PolyPolygonShape">
       <g id="id8">
        <rect class="BoundingBox" stroke="none" fill="none" x="19880" y="34528" width="814" height="794"/>
        <g>
         <defs>
          <linearGradient id="gradient5" x1="19900" y1="34924" x2="20673" y2="34924" gradientUnits="userSpaceOnUse">
           <stop offset="0.1" style="stop-color:rgb(102,102,102)"/>
           <stop offset="1" style="stop-color:rgb(153,153,153)"/>
          </linearGradient>
         </defs>
         <path style="fill:url(#gradient5)" d="M 20672,35301 L 20672,34991 19900,34548 19902,34858 20672,35301 Z"/>
        </g>
        <path fill="none" stroke="rgb(178,178,178)" stroke-width="40" stroke-linejoin="round" d="M 20672,35301 L 20672,34991 19900,34548 19902,34858 20672,35301 Z"/>
       </g>
      </g>
      <g class="com.sun.star.drawing.PolyPolygonShape">
       <g id="id9">
        <rect class="BoundingBox" stroke="none" fill="none" x="19731" y="34307" width="1344" height="1015"/>
        <path fill="none" stroke="rgb(0,0,0)" stroke-width="40" stroke-linejoin="round" d="M 21054,35080 L 21053,34770 20285,34327 20133,34416 19981,34327 19751,34460 19751,34593 19902,34681 19902,34858 20671,35301 21054,35080 Z"/>
       </g>
      </g>
     </g>
    </g>
   </g>
  </g>
 </g>
</svg>