<?xml version="1.0" encoding="UTF-8"?>
<!DOCTYPE svg PUBLIC "-//W3C//DTD SVG 1.1//EN" "http://www.w3.org/Graphics/SVG/1.1/DTD/svg11.dtd">
<svg version="1.2" width="13.48mm" height="10.14mm" viewBox="13495 27344 1348 1014" preserveAspectRatio="xMidYMid" fill-rule="evenodd" stroke-width="28.222" stroke-linejoin="round" xmlns="http://www.w3.org/2000/svg" xmlns:ooo="http://xml.openoffice.org/svg/export" xmlns:xlink="http://www.w3.org/1999/xlink" xmlns:presentation="http://sun.com/xmlns/staroffice/presentation" xmlns:smil="http://www.w3.org/2001/SMIL20/" xmlns:anim="urn:oasis:names:tc:opendocument:xmlns:animation:1.0" xml:space="preserve">
 <defs class="ClipPathGroup">
  <clipPath id="presentation_clip_path" clipPathUnits="userSpaceOnUse">
   <rect x="13495" y="27344" width="1348" height="1014"/>
  </clipPath>
 </defs>
 <defs class="TextShapeIndex">
  <g ooo:slide="id1" ooo:id-list="id3 id4 id5 id6 id7 id8 id9"/>
 </defs>
 <defs class="EmbeddedBulletChars">
  <g id="bullet-char-template(57356)" transform="scale(0.00048828125,-0.00048828125)">
   <path d="M 580,1141 L 1163,571 580,0 -4,571 580,1141 Z"/>
  </g>
  <g id="bullet-char-template(57354)" transform="scale(0.00048828125,-0.00048828125)">
   <path d="M 8,1128 L 1137,1128 1137,0 8,0 8,1128 Z"/>
  </g>
  <g id="bullet-char-template(10146)" transform="scale(0.00048828125,-0.00048828125)">
   <path d="M 174,0 L 602,739 174,1481 1456,739 174,0 Z M 1358,739 L 309,1346 659,739 1358,739 Z"/>
  </g>
  <g id="bullet-char-template(10132)" transform="scale(0.00048828125,-0.00048828125)">
   <path d="M 2015,739 L 1276,0 717,0 1260,543 174,543 174,936 1260,936 717,1481 1274,1481 2015,739 Z"/>
  </g>
  <g id="bullet-char-template(10007)" transform="scale(0.00048828125,-0.00048828125)">
   <path d="M 0,-2 C -7,14 -16,27 -25,37 L 356,567 C 262,823 215,952 215,954 215,979 228,992 255,992 264,992 276,990 289,987 310,991 331,999 354,1012 L 381,999 492,748 772,1049 836,1024 860,1049 C 881,1039 901,1025 922,1006 886,937 835,863 770,784 769,783 710,716 594,584 L 774,223 C 774,196 753,168 711,139 L 727,119 C 717,90 699,76 672,76 641,76 570,178 457,381 L 164,-76 C 142,-110 111,-127 72,-127 30,-127 9,-110 8,-76 1,-67 -2,-52 -2,-32 -2,-23 -1,-13 0,-2 Z"/>
  </g>
  <g id="bullet-char-template(10004)" transform="scale(0.00048828125,-0.00048828125)">
   <path d="M 285,-33 C 182,-33 111,30 74,156 52,228 41,333 41,471 41,549 55,616 82,672 116,743 169,778 240,778 293,778 328,747 346,684 L 369,508 C 377,444 397,411 428,410 L 1163,1116 C 1174,1127 1196,1133 1229,1133 1271,1133 1292,1118 1292,1087 L 1292,965 C 1292,929 1282,901 1262,881 L 442,47 C 390,-6 338,-33 285,-33 Z"/>
  </g>
  <g id="bullet-char-template(9679)" transform="scale(0.00048828125,-0.00048828125)">
   <path d="M 813,0 C 632,0 489,54 383,161 276,268 223,411 223,592 223,773 276,916 383,1023 489,1130 632,1184 813,1184 992,1184 1136,1130 1245,1023 1353,916 1407,772 1407,592 1407,412 1353,268 1245,161 1136,54 992,0 813,0 Z"/>
  </g>
  <g id="bullet-char-template(8226)" transform="scale(0.00048828125,-0.00048828125)">
   <path d="M 346,457 C 273,457 209,483 155,535 101,586 74,649 74,723 74,796 101,859 155,911 209,963 273,989 346,989 419,989 480,963 531,910 582,859 608,796 608,723 608,648 583,586 532,535 482,483 420,457 346,457 Z"/>
  </g>
  <g id="bullet-char-template(8211)" transform="scale(0.00048828125,-0.00048828125)">
   <path d="M -4,459 L 1135,459 1135,606 -4,606 -4,459 Z"/>
  </g>
 </defs>
 <defs class="TextEmbeddedBitmaps"/>
 <g class="SlideGroup">
  <g>
   <g id="id1" class="Slide" clip-path="url(#presentation_clip_path)">
    <g class="Page">
     <g class="Group">
      <g class="com.sun.star.drawing.PolyPolygonShape">
       <g id="id3">
        <rect class="BoundingBox" stroke="none" fill="none" x="14031" y="27565" width="813" height="794"/>
        <g>
         <defs>
          <pattern id="pattern1" x="14051" y="27585" width="773" height="754" patternUnits="userSpaceOnUse">
           <g transform="translate(-14051,-27585)">
            <path fill="rgb(51,51,51)" stroke="none" d="M 14050,27584 L 14824,27584 14824,28339 14050,28339 14050,27584 Z M 13899,27436 L 14665,27436 14665,28183 13899,28183 13899,27436 Z"/>
            <path fill="rgb(52,52,52)" stroke="none" d="M 13899,27436 L 14665,27436 14665,28183 13899,28183 13899,27436 Z M 13903,27440 L 14661,27440 14661,28179 13903,28179 13903,27440 Z"/>
            <path fill="rgb(53,53,53)" stroke="none" d="M 13903,27440 L 14661,27440 14661,28179 13903,28179 13903,27440 Z M 13907,27444 L 14657,27444 14657,28175 13907,28175 13907,27444 Z"/>
            <path fill="rgb(54,54,54)" stroke="none" d="M 13907,27444 L 14657,27444 14657,28175 13907,28175 13907,27444 Z M 13911,27447 L 14653,27447 14653,28172 13911,28172 13911,27447 Z"/>
            <path fill="rgb(55,55,55)" stroke="none" d="M 13911,27447 L 14653,27447 14653,28172 13911,28172 13911,27447 Z M 13914,27451 L 14650,27451 14650,28168 13914,28168 13914,27451 Z"/>
            <path fill="rgb(56,56,56)" stroke="none" d="M 13914,27451 L 14650,27451 14650,28168 13914,28168 13914,27451 Z M 13918,27455 L 14646,27455 14646,28164 13918,28164 13918,27455 Z"/>
            <path fill="rgb(57,57,57)" stroke="none" d="M 13918,27455 L 14646,27455 14646,28164 13918,28164 13918,27455 Z M 13922,27458 L 14642,27458 14642,28161 13922,28161 13922,27458 Z"/>
            <path fill="rgb(58,58,58)" stroke="none" d="M 13922,27458 L 14642,27458 14642,28161 13922,28161 13922,27458 Z M 13926,27462 L 14638,27462 14638,28157 13926,28157 13926,27462 Z"/>
            <path fill="rgb(59,59,59)" stroke="none" d="M 13926,27462 L 14638,27462 14638,28157 13926,28157 13926,27462 Z M 13930,27466 L 14634,27466 14634,28153 13930,28153 13930,27466 Z"/>
            <path fill="rgb(60,60,60)" stroke="none" d="M 13930,27466 L 14634,27466 14634,28153 13930,28153 13930,27466 Z M 13933,27470 L 14631,27470 14631,28149 13933,28149 13933,27470 Z"/>
            <path fill="rgb(61,61,61)" stroke="none" d="M 13933,27470 L 14631,27470 14631,28149 13933,28149 13933,27470 Z M 13937,27473 L 14627,27473 14627,28146 13937,28146 13937,27473 Z"/>
            <path fill="rgb(62,62,62)" stroke="none" d="M 13937,27473 L 14627,27473 14627,28146 13937,28146 13937,27473 Z M 13941,27477 L 14623,27477 14623,28142 13941,28142 13941,27477 Z"/>
            <path fill="rgb(63,63,63)" stroke="none" d="M 13941,27477 L 14623,27477 14623,28142 13941,28142 13941,27477 Z M 13945,27481 L 14619,27481 14619,28138 13945,28138 13945,27481 Z"/>
            <path fill="rgb(64,64,64)" stroke="none" d="M 13945,27481 L 14619,27481 14619,28138 13945,28138 13945,27481 Z M 13949,27484 L 14615,27484 14615,28135 13949,28135 13949,27484 Z"/>
            <path fill="rgb(65,65,65)" stroke="none" d="M 13949,27484 L 14615,27484 14615,28135 13949,28135 13949,27484 Z M 13952,27488 L 14612,27488 14612,28131 13952,28131 13952,27488 Z"/>
            <path fill="rgb(66,66,66)" stroke="none" d="M 13952,27488 L 14612,27488 14612,28131 13952,28131 13952,27488 Z M 13956,27492 L 14608,27492 14608,28127 13956,28127 13956,27492 Z"/>
            <path fill="rgb(67,67,67)" stroke="none" d="M 13956,27492 L 14608,27492 14608,28127 13956,28127 13956,27492 Z M 13960,27495 L 14604,27495 14604,28123 13960,28123 13960,27495 Z"/>
            <path fill="rgb(68,68,68)" stroke="none" d="M 13960,27495 L 14604,27495 14604,28123 13960,28123 13960,27495 Z M 13964,27499 L 14600,27499 14600,28120 13964,28120 13964,27499 Z"/>
            <path fill="rgb(69,69,69)" stroke="none" d="M 13964,27499 L 14600,27499 14600,28120 13964,28120 13964,27499 Z M 13968,27503 L 14596,27503 14596,28116 13968,28116 13968,27503 Z"/>
            <path fill="rgb(70,70,70)" stroke="none" d="M 13968,27503 L 14596,27503 14596,28116 13968,28116 13968,27503 Z M 13971,27507 L 14593,27507 14593,28112 13971,28112 13971,27507 Z"/>
            <path fill="rgb(71,71,71)" stroke="none" d="M 13971,27507 L 14593,27507 14593,28112 13971,28112 13971,27507 Z M 13975,27510 L 14589,27510 14589,28109 13975,28109 13975,27510 Z"/>
            <path fill="rgb(72,72,72)" stroke="none" d="M 13975,27510 L 14589,27510 14589,28109 13975,28109 13975,27510 Z M 13979,27514 L 14585,27514 14585,28105 13979,28105 13979,27514 Z"/>
            <path fill="rgb(73,73,73)" stroke="none" d="M 13979,27514 L 14585,27514 14585,28105 13979,28105 13979,27514 Z M 13983,27518 L 14581,27518 14581,28101 13983,28101 13983,27518 Z"/>
            <path fill="rgb(74,74,74)" stroke="none" d="M 13983,27518 L 14581,27518 14581,28101 13983,28101 13983,27518 Z M 13987,27521 L 14577,27521 14577,28098 13987,28098 13987,27521 Z"/>
            <path fill="rgb(75,75,75)" stroke="none" d="M 13987,27521 L 14577,27521 14577,28098 13987,28098 13987,27521 Z M 13990,27525 L 14574,27525 14574,28094 13990,28094 13990,27525 Z"/>
            <path fill="rgb(76,76,76)" stroke="none" d="M 13990,27525 L 14574,27525 14574,28094 13990,28094 13990,27525 Z M 13994,27529 L 14570,27529 14570,28090 13994,28090 13994,27529 Z"/>
            <path fill="rgb(77,77,77)" stroke="none" d="M 13994,27529 L 14570,27529 14570,28090 13994,28090 13994,27529 Z M 13998,27533 L 14566,27533 14566,28086 13998,28086 13998,27533 Z"/>
            <path fill="rgb(78,78,78)" stroke="none" d="M 13998,27533 L 14566,27533 14566,28086 13998,28086 13998,27533 Z M 14002,27536 L 14562,27536 14562,28083 14002,28083 14002,27536 Z"/>
            <path fill="rgb(79,79,79)" stroke="none" d="M 14002,27536 L 14562,27536 14562,28083 14002,28083 14002,27536 Z M 14006,27540 L 14558,27540 14558,28079 14006,28079 14006,27540 Z"/>
            <path fill="rgb(80,80,80)" stroke="none" d="M 14006,27540 L 14558,27540 14558,28079 14006,28079 14006,27540 Z M 14009,27544 L 14555,27544 14555,28075 14009,28075 14009,27544 Z"/>
            <path fill="rgb(81,81,81)" stroke="none" d="M 14009,27544 L 14555,27544 14555,28075 14009,28075 14009,27544 Z M 14013,27547 L 14551,27547 14551,28072 14013,28072 14013,27547 Z"/>
            <path fill="rgb(82,82,82)" stroke="none" d="M 14013,27547 L 14551,27547 14551,28072 14013,28072 14013,27547 Z M 14017,27551 L 14547,27551 14547,28068 14017,28068 14017,27551 Z"/>
            <path fill="rgb(83,83,83)" stroke="none" d="M 14017,27551 L 14547,27551 14547,28068 14017,28068 14017,27551 Z M 14021,27555 L 14543,27555 14543,28064 14021,28064 14021,27555 Z"/>
            <path fill="rgb(84,84,84)" stroke="none" d="M 14021,27555 L 14543,27555 14543,28064 14021,28064 14021,27555 Z M 14025,27558 L 14539,27558 14539,28060 14025,28060 14025,27558 Z"/>
            <path fill="rgb(85,85,85)" stroke="none" d="M 14025,27558 L 14539,27558 14539,28060 14025,28060 14025,27558 Z M 14028,27562 L 14536,27562 14536,28057 14028,28057 14028,27562 Z"/>
            <path fill="rgb(86,86,86)" stroke="none" d="M 14028,27562 L 14536,27562 14536,28057 14028,28057 14028,27562 Z M 14031,27565 L 14532,27565 14532,28053 14031,28053 14031,27565 Z"/>
            <path fill="rgb(87,87,87)" stroke="none" d="M 14031,27565 L 14532,27565 14532,28053 14031,28053 14031,27565 Z M 14035,27569 L 14528,27569 14528,28049 14035,28049 14035,27569 Z"/>
            <path fill="rgb(88,88,88)" stroke="none" d="M 14035,27569 L 14528,27569 14528,28049 14035,28049 14035,27569 Z M 14039,27572 L 14524,27572 14524,28046 14039,28046 14039,27572 Z"/>
            <path fill="rgb(89,89,89)" stroke="none" d="M 14039,27572 L 14524,27572 14524,28046 14039,28046 14039,27572 Z M 14043,27576 L 14520,27576 14520,28042 14043,28042 14043,27576 Z"/>
            <path fill="rgb(90,90,90)" stroke="none" d="M 14043,27576 L 14520,27576 14520,28042 14043,28042 14043,27576 Z M 14046,27580 L 14517,27580 14517,28038 14046,28038 14046,27580 Z"/>
            <path fill="rgb(91,91,91)" stroke="none" d="M 14046,27580 L 14517,27580 14517,28038 14046,28038 14046,27580 Z M 14050,27583 L 14513,27583 14513,28035 14050,28035 14050,27583 Z"/>
            <path fill="rgb(92,92,92)" stroke="none" d="M 14050,27583 L 14513,27583 14513,28035 14050,28035 14050,27583 Z M 14054,27587 L 14509,27587 14509,28031 14054,28031 14054,27587 Z"/>
            <path fill="rgb(93,93,93)" stroke="none" d="M 14054,27587 L 14509,27587 14509,28031 14054,28031 14054,27587 Z M 14058,27591 L 14505,27591 14505,28027 14058,28027 14058,27591 Z"/>
            <path fill="rgb(94,94,94)" stroke="none" d="M 14058,27591 L 14505,27591 14505,28027 14058,28027 14058,27591 Z M 14062,27595 L 14501,27595 14501,28023 14062,28023 14062,27595 Z"/>
            <path fill="rgb(95,95,95)" stroke="none" d="M 14062,27595 L 14501,27595 14501,28023 14062,28023 14062,27595 Z M 14065,27598 L 14498,27598 14498,28020 14065,28020 14065,27598 Z"/>
            <path fill="rgb(96,96,96)" stroke="none" d="M 14065,27598 L 14498,27598 14498,28020 14065,28020 14065,27598 Z M 14069,27602 L 14494,27602 14494,28016 14069,28016 14069,27602 Z"/>
            <path fill="rgb(97,97,97)" stroke="none" d="M 14069,27602 L 14494,27602 14494,28016 14069,28016 14069,27602 Z M 14073,27606 L 14490,27606 14490,28012 14073,28012 14073,27606 Z"/>
            <path fill="rgb(98,98,98)" stroke="none" d="M 14073,27606 L 14490,27606 14490,28012 14073,28012 14073,27606 Z M 14077,27609 L 14486,27609 14486,28009 14077,28009 14077,27609 Z"/>
            <path fill="rgb(99,99,99)" stroke="none" d="M 14077,27609 L 14486,27609 14486,28009 14077,28009 14077,27609 Z M 14081,27613 L 14482,27613 14482,28005 14081,28005 14081,27613 Z"/>
            <path fill="rgb(100,100,100)" stroke="none" d="M 14081,27613 L 14482,27613 14482,28005 14081,28005 14081,27613 Z M 14084,27617 L 14479,27617 14479,28001 14084,28001 14084,27617 Z"/>
            <path fill="rgb(101,101,101)" stroke="none" d="M 14084,27617 L 14479,27617 14479,28001 14084,28001 14084,27617 Z M 14088,27620 L 14475,27620 14475,27997 14088,27997 14088,27620 Z"/>
            <path fill="rgb(102,102,102)" stroke="none" d="M 14088,27620 L 14475,27620 14475,27997 14088,27997 14088,27620 Z M 14092,27624 L 14471,27624 14471,27994 14092,27994 14092,27624 Z"/>
            <path fill="rgb(103,103,103)" stroke="none" d="M 14092,27624 L 14471,27624 14471,27994 14092,27994 14092,27624 Z M 14096,27628 L 14467,27628 14467,27990 14096,27990 14096,27628 Z"/>
            <path fill="rgb(104,104,104)" stroke="none" d="M 14096,27628 L 14467,27628 14467,27990 14096,27990 14096,27628 Z M 14100,27632 L 14463,27632 14463,27986 14100,27986 14100,27632 Z"/>
            <path fill="rgb(105,105,105)" stroke="none" d="M 14100,27632 L 14463,27632 14463,27986 14100,27986 14100,27632 Z M 14103,27635 L 14460,27635 14460,27983 14103,27983 14103,27635 Z"/>
            <path fill="rgb(106,106,106)" stroke="none" d="M 14103,27635 L 14460,27635 14460,27983 14103,27983 14103,27635 Z M 14107,27639 L 14456,27639 14456,27979 14107,27979 14107,27639 Z"/>
            <path fill="rgb(107,107,107)" stroke="none" d="M 14107,27639 L 14456,27639 14456,27979 14107,27979 14107,27639 Z M 14111,27643 L 14452,27643 14452,27975 14111,27975 14111,27643 Z"/>
            <path fill="rgb(108,108,108)" stroke="none" d="M 14111,27643 L 14452,27643 14452,27975 14111,27975 14111,27643 Z M 14115,27646 L 14448,27646 14448,27972 14115,27972 14115,27646 Z"/>
            <path fill="rgb(109,109,109)" stroke="none" d="M 14115,27646 L 14448,27646 14448,27972 14115,27972 14115,27646 Z M 14119,27650 L 14444,27650 14444,27968 14119,27968 14119,27650 Z"/>
            <path fill="rgb(110,110,110)" stroke="none" d="M 14119,27650 L 14444,27650 14444,27968 14119,27968 14119,27650 Z M 14122,27654 L 14441,27654 14441,27964 14122,27964 14122,27654 Z"/>
            <path fill="rgb(111,111,111)" stroke="none" d="M 14122,27654 L 14441,27654 14441,27964 14122,27964 14122,27654 Z M 14126,27658 L 14437,27658 14437,27960 14126,27960 14126,27658 Z"/>
            <path fill="rgb(112,112,112)" stroke="none" d="M 14126,27658 L 14437,27658 14437,27960 14126,27960 14126,27658 Z M 14130,27661 L 14433,27661 14433,27957 14130,27957 14130,27661 Z"/>
            <path fill="rgb(113,113,113)" stroke="none" d="M 14130,27661 L 14433,27661 14433,27957 14130,27957 14130,27661 Z M 14134,27665 L 14429,27665 14429,27953 14134,27953 14134,27665 Z"/>
            <path fill="rgb(114,114,114)" stroke="none" d="M 14134,27665 L 14429,27665 14429,27953 14134,27953 14134,27665 Z M 14138,27669 L 14425,27669 14425,27949 14138,27949 14138,27669 Z"/>
            <path fill="rgb(115,115,115)" stroke="none" d="M 14138,27669 L 14425,27669 14425,27949 14138,27949 14138,27669 Z M 14141,27672 L 14422,27672 14422,27946 14141,27946 14141,27672 Z"/>
            <path fill="rgb(116,116,116)" stroke="none" d="M 14141,27672 L 14422,27672 14422,27946 14141,27946 14141,27672 Z M 14145,27676 L 14418,27676 14418,27942 14145,27942 14145,27676 Z"/>
            <path fill="rgb(117,117,117)" stroke="none" d="M 14145,27676 L 14418,27676 14418,27942 14145,27942 14145,27676 Z M 14149,27680 L 14414,27680 14414,27938 14149,27938 14149,27680 Z"/>
            <path fill="rgb(118,118,118)" stroke="none" d="M 14149,27680 L 14414,27680 14414,27938 14149,27938 14149,27680 Z M 14153,27683 L 14410,27683 14410,27934 14153,27934 14153,27683 Z"/>
            <path fill="rgb(119,119,119)" stroke="none" d="M 14153,27683 L 14410,27683 14410,27934 14153,27934 14153,27683 Z M 14157,27687 L 14406,27687 14406,27931 14157,27931 14157,27687 Z"/>
            <path fill="rgb(120,120,120)" stroke="none" d="M 14157,27687 L 14406,27687 14406,27931 14157,27931 14157,27687 Z M 14160,27691 L 14403,27691 14403,27927 14160,27927 14160,27691 Z"/>
            <path fill="rgb(121,121,121)" stroke="none" d="M 14160,27691 L 14403,27691 14403,27927 14160,27927 14160,27691 Z M 14164,27695 L 14399,27695 14399,27923 14164,27923 14164,27695 Z"/>
            <path fill="rgb(122,122,122)" stroke="none" d="M 14164,27695 L 14399,27695 14399,27923 14164,27923 14164,27695 Z M 14168,27698 L 14395,27698 14395,27920 14168,27920 14168,27698 Z"/>
            <path fill="rgb(123,123,123)" stroke="none" d="M 14168,27698 L 14395,27698 14395,27920 14168,27920 14168,27698 Z M 14172,27702 L 14391,27702 14391,27916 14172,27916 14172,27702 Z"/>
            <path fill="rgb(124,124,124)" stroke="none" d="M 14172,27702 L 14391,27702 14391,27916 14172,27916 14172,27702 Z M 14176,27706 L 14387,27706 14387,27912 14176,27912 14176,27706 Z"/>
            <path fill="rgb(125,125,125)" stroke="none" d="M 14176,27706 L 14387,27706 14387,27912 14176,27912 14176,27706 Z M 14179,27709 L 14384,27709 14384,27909 14179,27909 14179,27709 Z"/>
            <path fill="rgb(126,126,126)" stroke="none" d="M 14179,27709 L 14384,27709 14384,27909 14179,27909 14179,27709 Z M 14183,27713 L 14380,27713 14380,27905 14183,27905 14183,27713 Z"/>
            <path fill="rgb(127,127,127)" stroke="none" d="M 14183,27713 L 14380,27713 14380,27905 14183,27905 14183,27713 Z M 14187,27717 L 14376,27717 14376,27901 14187,27901 14187,27717 Z"/>
            <path fill="rgb(128,128,128)" stroke="none" d="M 14187,27717 L 14376,27717 14376,27901 14187,27901 14187,27717 Z M 14191,27721 L 14372,27721 14372,27897 14191,27897 14191,27721 Z"/>
            <path fill="rgb(129,129,129)" stroke="none" d="M 14191,27721 L 14372,27721 14372,27897 14191,27897 14191,27721 Z M 14195,27724 L 14368,27724 14368,27894 14195,27894 14195,27724 Z"/>
            <path fill="rgb(130,130,130)" stroke="none" d="M 14195,27724 L 14368,27724 14368,27894 14195,27894 14195,27724 Z M 14198,27728 L 14365,27728 14365,27890 14198,27890 14198,27728 Z"/>
            <path fill="rgb(131,131,131)" stroke="none" d="M 14198,27728 L 14365,27728 14365,27890 14198,27890 14198,27728 Z M 14202,27732 L 14361,27732 14361,27886 14202,27886 14202,27732 Z"/>
            <path fill="rgb(132,132,132)" stroke="none" d="M 14202,27732 L 14361,27732 14361,27886 14202,27886 14202,27732 Z M 14206,27735 L 14357,27735 14357,27883 14206,27883 14206,27735 Z"/>
            <path fill="rgb(133,133,133)" stroke="none" d="M 14206,27735 L 14357,27735 14357,27883 14206,27883 14206,27735 Z M 14210,27739 L 14353,27739 14353,27879 14210,27879 14210,27739 Z"/>
            <path fill="rgb(134,134,134)" stroke="none" d="M 14210,27739 L 14353,27739 14353,27879 14210,27879 14210,27739 Z M 14214,27743 L 14349,27743 14349,27875 14214,27875 14214,27743 Z"/>
            <path fill="rgb(135,135,135)" stroke="none" d="M 14214,27743 L 14349,27743 14349,27875 14214,27875 14214,27743 Z M 14217,27747 L 14346,27747 14346,27871 14217,27871 14217,27747 Z"/>
            <path fill="rgb(136,136,136)" stroke="none" d="M 14217,27747 L 14346,27747 14346,27871 14217,27871 14217,27747 Z M 14221,27750 L 14342,27750 14342,27868 14221,27868 14221,27750 Z"/>
            <path fill="rgb(137,137,137)" stroke="none" d="M 14221,27750 L 14342,27750 14342,27868 14221,27868 14221,27750 Z M 14225,27754 L 14338,27754 14338,27864 14225,27864 14225,27754 Z"/>
            <path fill="rgb(138,138,138)" stroke="none" d="M 14225,27754 L 14338,27754 14338,27864 14225,27864 14225,27754 Z M 14229,27758 L 14334,27758 14334,27860 14229,27860 14229,27758 Z"/>
            <path fill="rgb(139,139,139)" stroke="none" d="M 14229,27758 L 14334,27758 14334,27860 14229,27860 14229,27758 Z M 14233,27761 L 14330,27761 14330,27857 14233,27857 14233,27761 Z"/>
            <path fill="rgb(140,140,140)" stroke="none" d="M 14233,27761 L 14330,27761 14330,27857 14233,27857 14233,27761 Z M 14236,27765 L 14327,27765 14327,27853 14236,27853 14236,27765 Z"/>
            <path fill="rgb(141,141,141)" stroke="none" d="M 14236,27765 L 14327,27765 14327,27853 14236,27853 14236,27765 Z M 14240,27769 L 14323,27769 14323,27849 14240,27849 14240,27769 Z"/>
            <path fill="rgb(142,142,142)" stroke="none" d="M 14240,27769 L 14323,27769 14323,27849 14240,27849 14240,27769 Z M 14244,27772 L 14319,27772 14319,27846 14244,27846 14244,27772 Z"/>
            <path fill="rgb(143,143,143)" stroke="none" d="M 14244,27772 L 14319,27772 14319,27846 14244,27846 14244,27772 Z M 14248,27776 L 14315,27776 14315,27842 14248,27842 14248,27776 Z"/>
            <path fill="rgb(144,144,144)" stroke="none" d="M 14248,27776 L 14315,27776 14315,27842 14248,27842 14248,27776 Z M 14252,27780 L 14311,27780 14311,27838 14252,27838 14252,27780 Z"/>
            <path fill="rgb(145,145,145)" stroke="none" d="M 14252,27780 L 14311,27780 14311,27838 14252,27838 14252,27780 Z M 14255,27784 L 14308,27784 14308,27834 14255,27834 14255,27784 Z"/>
            <path fill="rgb(146,146,146)" stroke="none" d="M 14255,27784 L 14308,27784 14308,27834 14255,27834 14255,27784 Z M 14259,27787 L 14304,27787 14304,27831 14259,27831 14259,27787 Z"/>
            <path fill="rgb(147,147,147)" stroke="none" d="M 14259,27787 L 14304,27787 14304,27831 14259,27831 14259,27787 Z M 14263,27791 L 14300,27791 14300,27827 14263,27827 14263,27791 Z"/>
            <path fill="rgb(148,148,148)" stroke="none" d="M 14263,27791 L 14300,27791 14300,27827 14263,27827 14263,27791 Z M 14267,27795 L 14296,27795 14296,27823 14267,27823 14267,27795 Z"/>
            <path fill="rgb(149,149,149)" stroke="none" d="M 14267,27795 L 14296,27795 14296,27823 14267,27823 14267,27795 Z M 14271,27798 L 14292,27798 14292,27820 14271,27820 14271,27798 Z"/>
            <path fill="rgb(150,150,150)" stroke="none" d="M 14271,27798 L 14292,27798 14292,27820 14271,27820 14271,27798 Z M 14274,27802 L 14289,27802 14289,27816 14274,27816 14274,27802 Z"/>
            <path fill="rgb(151,151,151)" stroke="none" d="M 14274,27802 L 14289,27802 14289,27816 14274,27816 14274,27802 Z M 14278,27806 L 14285,27806 14285,27812 14278,27812 14278,27806 Z"/>
            <path fill="rgb(153,153,153)" stroke="none" d="M 14278,27806 L 14285,27806 14285,27812 14278,27812 14278,27806 Z"/>
           </g>
          </pattern>
         </defs>
         <path style="fill:url(#pattern1)" d="M 14051,28338 L 14051,28028 14823,27585 14821,27895 14051,28338 Z"/>
        </g>
        <path fill="none" stroke="rgb(178,178,178)" stroke-width="40" stroke-linejoin="round" d="M 14051,28338 L 14051,28028 14823,27585 14821,27895 14051,28338 Z"/>
       </g>
      </g>
      <g class="com.sun.star.drawing.PolyPolygonShape">
       <g id="id4">
        <rect class="BoundingBox" stroke="none" fill="none" x="13649" y="27344" width="1193" height="705"/>
        <g>
         <defs>
          <linearGradient id="gradient1" x1="14245" y1="27364" x2="14245" y2="28028" gradientUnits="userSpaceOnUse">
           <stop offset="0.1" style="stop-color:rgb(51,51,51)"/>
           <stop offset="1" style="stop-color:rgb(153,153,153)"/>
          </linearGradient>
         </defs>
         <path style="fill:url(#gradient1)" d="M 14053,28028 L 13670,27807 14438,27364 14821,27585 14053,28028 Z"/>
        </g>
        <path fill="none" stroke="rgb(178,178,178)" stroke-width="40" stroke-linejoin="round" d="M 14053,28028 L 13670,27807 14438,27364 14821,27585 14053,28028 Z"/>
       </g>
      </g>
      <g class="com.sun.star.drawing.PolyPolygonShape">
       <g id="id5">
        <rect class="BoundingBox" stroke="none" fill="none" x="13649" y="27785" width="425" height="573"/>
        <g>
         <defs>
          <linearGradient id="gradient2" x1="13668" y1="28071" x2="14055" y2="28071" gradientUnits="userSpaceOnUse">
           <stop offset="0.1" style="stop-color:rgb(51,51,51)"/>
           <stop offset="1" style="stop-color:rgb(153,153,153)"/>
          </linearGradient>
         </defs>
         <path style="fill:url(#gradient2)" d="M 13669,28116 L 13670,27806 14053,28027 14053,28337 13669,28116 Z"/>
        </g>
        <path fill="none" stroke="rgb(178,178,178)" stroke-width="40" stroke-linejoin="round" d="M 13669,28116 L 13670,27806 14053,28027 14053,28337 13669,28116 Z"/>
       </g>
      </g>
      <g class="com.sun.star.drawing.PolyPolygonShape">
       <g id="id6">
        <rect class="BoundingBox" stroke="none" fill="none" x="13495" y="28051" width="272" height="308"/>
        <g>
         <defs>
          <linearGradient id="gradient3" x1="13513" y1="28205" x2="13747" y2="28205" gradientUnits="userSpaceOnUse">
           <stop offset="0.1" style="stop-color:rgb(179,179,179)"/>
           <stop offset="1" style="stop-color:rgb(229,229,229)"/>
          </linearGradient>
         </defs>
         <path style="fill:url(#gradient3)" d="M 13515,28205 L 13515,28072 13746,28205 13745,28338 13515,28205 Z"/>
        </g>
        <path fill="none" stroke="rgb(255,255,255)" stroke-width="40" stroke-linejoin="round" d="M 13515,28205 L 13515,28072 13746,28205 13745,28338 13515,28205 Z"/>
       </g>
      </g>
      <g class="com.sun.star.drawing.PolyPolygonShape">
       <g id="id7">
        <rect class="BoundingBox" stroke="none" fill="none" x="13725" y="28051" width="273" height="308"/>
        <g>
         <defs>
          <pattern id="pattern2" x="13745" y="28072" width="233" height="267" patternUnits="userSpaceOnUse">
           <g transform="translate(-13745,-28072)">
            <path fill="rgb(179,179,179)" stroke="none" d="M 13744,28071 L 13978,28071 13978,28339 13744,28339 13744,28071 Z M 13700,28020 L 13928,28020 13928,28282 13700,28282 13700,28020 Z"/>
            <path fill="rgb(180,180,180)" stroke="none" d="M 13700,28020 L 13928,28020 13928,28282 13700,28282 13700,28020 Z M 13702,28023 L 13926,28023 13926,28279 13702,28279 13702,28023 Z"/>
            <path fill="rgb(181,181,181)" stroke="none" d="M 13702,28023 L 13926,28023 13926,28279 13702,28279 13702,28023 Z M 13705,28026 L 13923,28026 13923,28276 13705,28276 13705,28026 Z"/>
            <path fill="rgb(182,182,182)" stroke="none" d="M 13705,28026 L 13923,28026 13923,28276 13705,28276 13705,28026 Z M 13707,28028 L 13921,28028 13921,28274 13707,28274 13707,28028 Z"/>
            <path fill="rgb(183,183,183)" stroke="none" d="M 13707,28028 L 13921,28028 13921,28274 13707,28274 13707,28028 Z M 13709,28031 L 13919,28031 13919,28271 13709,28271 13709,28031 Z"/>
            <path fill="rgb(184,184,184)" stroke="none" d="M 13709,28031 L 13919,28031 13919,28271 13709,28271 13709,28031 Z M 13712,28034 L 13916,28034 13916,28268 13712,28268 13712,28034 Z"/>
            <path fill="rgb(185,185,185)" stroke="none" d="M 13712,28034 L 13916,28034 13916,28268 13712,28268 13712,28034 Z M 13714,28036 L 13914,28036 13914,28266 13714,28266 13714,28036 Z"/>
            <path fill="rgb(186,186,186)" stroke="none" d="M 13714,28036 L 13914,28036 13914,28266 13714,28266 13714,28036 Z M 13716,28039 L 13912,28039 13912,28263 13716,28263 13716,28039 Z"/>
            <path fill="rgb(187,187,187)" stroke="none" d="M 13716,28039 L 13912,28039 13912,28263 13716,28263 13716,28039 Z M 13719,28042 L 13909,28042 13909,28260 13719,28260 13719,28042 Z"/>
            <path fill="rgb(188,188,188)" stroke="none" d="M 13719,28042 L 13909,28042 13909,28260 13719,28260 13719,28042 Z M 13721,28044 L 13907,28044 13907,28258 13721,28258 13721,28044 Z"/>
            <path fill="rgb(189,189,189)" stroke="none" d="M 13721,28044 L 13907,28044 13907,28258 13721,28258 13721,28044 Z M 13723,28047 L 13905,28047 13905,28255 13723,28255 13723,28047 Z"/>
            <path fill="rgb(190,190,190)" stroke="none" d="M 13723,28047 L 13905,28047 13905,28255 13723,28255 13723,28047 Z M 13725,28050 L 13902,28050 13902,28252 13725,28252 13725,28050 Z"/>
            <path fill="rgb(191,191,191)" stroke="none" d="M 13725,28050 L 13902,28050 13902,28252 13725,28252 13725,28050 Z M 13727,28051 L 13900,28051 13900,28250 13727,28250 13727,28051 Z"/>
            <path fill="rgb(192,192,192)" stroke="none" d="M 13727,28051 L 13900,28051 13900,28250 13727,28250 13727,28051 Z M 13729,28054 L 13898,28054 13898,28247 13729,28247 13729,28054 Z"/>
            <path fill="rgb(193,193,193)" stroke="none" d="M 13729,28054 L 13898,28054 13898,28247 13729,28247 13729,28054 Z M 13732,28057 L 13895,28057 13895,28244 13732,28244 13732,28057 Z"/>
            <path fill="rgb(194,194,194)" stroke="none" d="M 13732,28057 L 13895,28057 13895,28244 13732,28244 13732,28057 Z M 13734,28060 L 13893,28060 13893,28241 13734,28241 13734,28060 Z"/>
            <path fill="rgb(195,195,195)" stroke="none" d="M 13734,28060 L 13893,28060 13893,28241 13734,28241 13734,28060 Z M 13736,28062 L 13891,28062 13891,28239 13736,28239 13736,28062 Z"/>
            <path fill="rgb(196,196,196)" stroke="none" d="M 13736,28062 L 13891,28062 13891,28239 13736,28239 13736,28062 Z M 13739,28065 L 13888,28065 13888,28236 13739,28236 13739,28065 Z"/>
            <path fill="rgb(197,197,197)" stroke="none" d="M 13739,28065 L 13888,28065 13888,28236 13739,28236 13739,28065 Z M 13741,28068 L 13886,28068 13886,28233 13741,28233 13741,28068 Z"/>
            <path fill="rgb(198,198,198)" stroke="none" d="M 13741,28068 L 13886,28068 13886,28233 13741,28233 13741,28068 Z M 13744,28070 L 13884,28070 13884,28231 13744,28231 13744,28070 Z"/>
            <path fill="rgb(199,199,199)" stroke="none" d="M 13744,28070 L 13884,28070 13884,28231 13744,28231 13744,28070 Z M 13746,28073 L 13881,28073 13881,28228 13746,28228 13746,28073 Z"/>
            <path fill="rgb(200,200,200)" stroke="none" d="M 13746,28073 L 13881,28073 13881,28228 13746,28228 13746,28073 Z M 13748,28076 L 13879,28076 13879,28225 13748,28225 13748,28076 Z"/>
            <path fill="rgb(201,201,201)" stroke="none" d="M 13748,28076 L 13879,28076 13879,28225 13748,28225 13748,28076 Z M 13751,28078 L 13876,28078 13876,28223 13751,28223 13751,28078 Z"/>
            <path fill="rgb(202,202,202)" stroke="none" d="M 13751,28078 L 13876,28078 13876,28223 13751,28223 13751,28078 Z M 13753,28081 L 13874,28081 13874,28220 13753,28220 13753,28081 Z"/>
            <path fill="rgb(203,203,203)" stroke="none" d="M 13753,28081 L 13874,28081 13874,28220 13753,28220 13753,28081 Z M 13755,28084 L 13872,28084 13872,28217 13755,28217 13755,28084 Z"/>
            <path fill="rgb(204,204,204)" stroke="none" d="M 13755,28084 L 13872,28084 13872,28217 13755,28217 13755,28084 Z M 13758,28086 L 13869,28086 13869,28215 13758,28215 13758,28086 Z"/>
            <path fill="rgb(205,205,205)" stroke="none" d="M 13758,28086 L 13869,28086 13869,28215 13758,28215 13758,28086 Z M 13760,28089 L 13867,28089 13867,28212 13760,28212 13760,28089 Z"/>
            <path fill="rgb(206,206,206)" stroke="none" d="M 13760,28089 L 13867,28089 13867,28212 13760,28212 13760,28089 Z M 13762,28092 L 13865,28092 13865,28209 13762,28209 13762,28092 Z"/>
            <path fill="rgb(207,207,207)" stroke="none" d="M 13762,28092 L 13865,28092 13865,28209 13762,28209 13762,28092 Z M 13765,28095 L 13862,28095 13862,28206 13765,28206 13765,28095 Z"/>
            <path fill="rgb(208,208,208)" stroke="none" d="M 13765,28095 L 13862,28095 13862,28206 13765,28206 13765,28095 Z M 13767,28097 L 13860,28097 13860,28204 13767,28204 13767,28097 Z"/>
            <path fill="rgb(209,209,209)" stroke="none" d="M 13767,28097 L 13860,28097 13860,28204 13767,28204 13767,28097 Z M 13769,28100 L 13858,28100 13858,28201 13769,28201 13769,28100 Z"/>
            <path fill="rgb(210,210,210)" stroke="none" d="M 13769,28100 L 13858,28100 13858,28201 13769,28201 13769,28100 Z M 13772,28103 L 13855,28103 13855,28198 13772,28198 13772,28103 Z"/>
            <path fill="rgb(211,211,211)" stroke="none" d="M 13772,28103 L 13855,28103 13855,28198 13772,28198 13772,28103 Z M 13774,28105 L 13853,28105 13853,28196 13774,28196 13774,28105 Z"/>
            <path fill="rgb(212,212,212)" stroke="none" d="M 13774,28105 L 13853,28105 13853,28196 13774,28196 13774,28105 Z M 13776,28108 L 13851,28108 13851,28193 13776,28193 13776,28108 Z"/>
            <path fill="rgb(213,213,213)" stroke="none" d="M 13776,28108 L 13851,28108 13851,28193 13776,28193 13776,28108 Z M 13779,28111 L 13848,28111 13848,28190 13779,28190 13779,28111 Z"/>
            <path fill="rgb(214,214,214)" stroke="none" d="M 13779,28111 L 13848,28111 13848,28190 13779,28190 13779,28111 Z M 13781,28113 L 13846,28113 13846,28188 13781,28188 13781,28113 Z"/>
            <path fill="rgb(215,215,215)" stroke="none" d="M 13781,28113 L 13846,28113 13846,28188 13781,28188 13781,28113 Z M 13783,28116 L 13844,28116 13844,28185 13783,28185 13783,28116 Z"/>
            <path fill="rgb(216,216,216)" stroke="none" d="M 13783,28116 L 13844,28116 13844,28185 13783,28185 13783,28116 Z M 13786,28119 L 13841,28119 13841,28182 13786,28182 13786,28119 Z"/>
            <path fill="rgb(217,217,217)" stroke="none" d="M 13786,28119 L 13841,28119 13841,28182 13786,28182 13786,28119 Z M 13788,28121 L 13839,28121 13839,28180 13788,28180 13788,28121 Z"/>
            <path fill="rgb(218,218,218)" stroke="none" d="M 13788,28121 L 13839,28121 13839,28180 13788,28180 13788,28121 Z M 13791,28124 L 13837,28124 13837,28177 13791,28177 13791,28124 Z"/>
            <path fill="rgb(219,219,219)" stroke="none" d="M 13791,28124 L 13837,28124 13837,28177 13791,28177 13791,28124 Z M 13793,28127 L 13834,28127 13834,28174 13793,28174 13793,28127 Z"/>
            <path fill="rgb(220,220,220)" stroke="none" d="M 13793,28127 L 13834,28127 13834,28174 13793,28174 13793,28127 Z M 13795,28129 L 13832,28129 13832,28172 13795,28172 13795,28129 Z"/>
            <path fill="rgb(221,221,221)" stroke="none" d="M 13795,28129 L 13832,28129 13832,28172 13795,28172 13795,28129 Z M 13798,28132 L 13829,28132 13829,28169 13798,28169 13798,28132 Z"/>
            <path fill="rgb(222,222,222)" stroke="none" d="M 13798,28132 L 13829,28132 13829,28169 13798,28169 13798,28132 Z M 13800,28135 L 13827,28135 13827,28166 13800,28166 13800,28135 Z"/>
            <path fill="rgb(223,223,223)" stroke="none" d="M 13800,28135 L 13827,28135 13827,28166 13800,28166 13800,28135 Z M 13802,28138 L 13825,28138 13825,28163 13802,28163 13802,28138 Z"/>
            <path fill="rgb(224,224,224)" stroke="none" d="M 13802,28138 L 13825,28138 13825,28163 13802,28163 13802,28138 Z M 13805,28140 L 13822,28140 13822,28161 13805,28161 13805,28140 Z"/>
            <path fill="rgb(225,225,225)" stroke="none" d="M 13805,28140 L 13822,28140 13822,28161 13805,28161 13805,28140 Z M 13807,28143 L 13820,28143 13820,28158 13807,28158 13807,28143 Z"/>
            <path fill="rgb(226,226,226)" stroke="none" d="M 13807,28143 L 13820,28143 13820,28158 13807,28158 13807,28143 Z M 13809,28146 L 13818,28146 13818,28155 13809,28155 13809,28146 Z"/>
            <path fill="rgb(227,227,227)" stroke="none" d="M 13809,28146 L 13818,28146 13818,28155 13809,28155 13809,28146 Z M 13812,28148 L 13815,28148 13815,28153 13812,28153 13812,28148 Z"/>
            <path fill="rgb(229,229,229)" stroke="none" d="M 13812,28148 L 13815,28148 13815,28153 13812,28153 13812,28148 Z"/>
           </g>
          </pattern>
         </defs>
         <path style="fill:url(#pattern2)" d="M 13745,28338 L 13745,28205 13977,28072 13975,28205 13745,28338 Z"/>
        </g>
        <path fill="none" stroke="rgb(255,255,255)" stroke-width="40" stroke-linejoin="round" d="M 13745,28338 L 13745,28205 13977,28072 13975,28205 13745,28338 Z"/>
       </g>
      </g>
      <g class="com.sun.star.drawing.PolyPolygonShape">
       <g id="id8">
        <rect class="BoundingBox" stroke="none" fill="none" x="13495" y="27918" width="501" height="308"/>
        <g>
         <defs>
          <linearGradient id="gradient4" x1="13745" y1="27939" x2="13745" y2="28205" gradientUnits="userSpaceOnUse">
           <stop offset="0.1" style="stop-color:rgb(179,179,179)"/>
           <stop offset="1" style="stop-color:rgb(229,229,229)"/>
          </linearGradient>
         </defs>
         <path style="fill:url(#gradient4)" d="M 13745,28205 L 13515,28072 13745,27939 13975,28072 13745,28205 Z"/>
        </g>
        <path fill="none" stroke="rgb(255,255,255)" stroke-width="40" stroke-linejoin="round" d="M 13745,28205 L 13515,28072 13745,27939 13975,28072 13745,28205 Z"/>
       </g>
      </g>
      <g class="com.sun.star.drawing.PolyPolygonShape">
       <g id="id9">
        <rect class="BoundingBox" stroke="none" fill="none" x="13495" y="27344" width="1347" height="1016"/>
        <path fill="none" stroke="rgb(0,0,0)" stroke-width="40" stroke-linejoin="round" d="M 13899,28250 L 13745,28338 13515,28205 13515,28073 13669,27984 13669,27807 14438,27364 14819,27585 14821,27895 14052,28338 13899,28250 Z"/>
       </g>
      </g>
     </g>
    </g>
   </g>
  </g>
 </g>
</svg>