<?xml version="1.0" encoding="UTF-8"?>
<!DOCTYPE svg PUBLIC "-//W3C//DTD SVG 1.1//EN" "http://www.w3.org/Graphics/SVG/1.1/DTD/svg11.dtd">
<svg version="1.2" width="13.48mm" height="10.14mm" viewBox="17499 21739 1348 1014" preserveAspectRatio="xMidYMid" fill-rule="evenodd" stroke-width="28.222" stroke-linejoin="round" xmlns="http://www.w3.org/2000/svg" xmlns:ooo="http://xml.openoffice.org/svg/export" xmlns:xlink="http://www.w3.org/1999/xlink" xmlns:presentation="http://sun.com/xmlns/staroffice/presentation" xmlns:smil="http://www.w3.org/2001/SMIL20/" xmlns:anim="urn:oasis:names:tc:opendocument:xmlns:animation:1.0" xml:space="preserve">
 <defs class="ClipPathGroup">
  <clipPath id="presentation_clip_path" clipPathUnits="userSpaceOnUse">
   <rect x="17499" y="21739" width="1348" height="1014"/>
  </clipPath>
 </defs>
 <defs class="TextShapeIndex">
  <g ooo:slide="id1" ooo:id-list="id3 id4 id5 id6 id7 id8 id9"/>
 </defs>
 <defs class="EmbeddedBulletChars">
  <g id="bullet-char-template(57356)" transform="scale(0.00048828125,-0.00048828125)">
   <path d="M 580,1141 L 1163,571 580,0 -4,571 580,1141 Z"/>
  </g>
  <g id="bullet-char-template(57354)" transform="scale(0.00048828125,-0.00048828125)">
   <path d="M 8,1128 L 1137,1128 1137,0 8,0 8,1128 Z"/>
  </g>
  <g id="bullet-char-template(10146)" transform="scale(0.00048828125,-0.00048828125)">
   <path d="M 174,0 L 602,739 174,1481 1456,739 174,0 Z M 1358,739 L 309,1346 659,739 1358,739 Z"/>
  </g>
  <g id="bullet-char-template(10132)" transform="scale(0.00048828125,-0.00048828125)">
   <path d="M 2015,739 L 1276,0 717,0 1260,543 174,543 174,936 1260,936 717,1481 1274,1481 2015,739 Z"/>
  </g>
  <g id="bullet-char-template(10007)" transform="scale(0.00048828125,-0.00048828125)">
   <path d="M 0,-2 C -7,14 -16,27 -25,37 L 356,567 C 262,823 215,952 215,954 215,979 228,992 255,992 264,992 276,990 289,987 310,991 331,999 354,1012 L 381,999 492,748 772,1049 836,1024 860,1049 C 881,1039 901,1025 922,1006 886,937 835,863 770,784 769,783 710,716 594,584 L 774,223 C 774,196 753,168 711,139 L 727,119 C 717,90 699,76 672,76 641,76 570,178 457,381 L 164,-76 C 142,-110 111,-127 72,-127 30,-127 9,-110 8,-76 1,-67 -2,-52 -2,-32 -2,-23 -1,-13 0,-2 Z"/>
  </g>
  <g id="bullet-char-template(10004)" transform="scale(0.00048828125,-0.00048828125)">
   <path d="M 285,-33 C 182,-33 111,30 74,156 52,228 41,333 41,471 41,549 55,616 82,672 116,743 169,778 240,778 293,778 328,747 346,684 L 369,508 C 377,444 397,411 428,410 L 1163,1116 C 1174,1127 1196,1133 1229,1133 1271,1133 1292,1118 1292,1087 L 1292,965 C 1292,929 1282,901 1262,881 L 442,47 C 390,-6 338,-33 285,-33 Z"/>
  </g>
  <g id="bullet-char-template(9679)" transform="scale(0.00048828125,-0.00048828125)">
   <path d="M 813,0 C 632,0 489,54 383,161 276,268 223,411 223,592 223,773 276,916 383,1023 489,1130 632,1184 813,1184 992,1184 1136,1130 1245,1023 1353,916 1407,772 1407,592 1407,412 1353,268 1245,161 1136,54 992,0 813,0 Z"/>
  </g>
  <g id="bullet-char-template(8226)" transform="scale(0.00048828125,-0.00048828125)">
   <path d="M 346,457 C 273,457 209,483 155,535 101,586 74,649 74,723 74,796 101,859 155,911 209,963 273,989 346,989 419,989 480,963 531,910 582,859 608,796 608,723 608,648 583,586 532,535 482,483 420,457 346,457 Z"/>
  </g>
  <g id="bullet-char-template(8211)" transform="scale(0.00048828125,-0.00048828125)">
   <path d="M -4,459 L 1135,459 1135,606 -4,606 -4,459 Z"/>
  </g>
 </defs>
 <defs class="TextEmbeddedBitmaps"/>
 <g class="SlideGroup">
  <g>
   <g id="id1" class="Slide" clip-path="url(#presentation_clip_path)">
    <g class="Page">
     <g class="Group">
      <g class="com.sun.star.drawing.PolyPolygonShape">
       <g id="id3">
        <rect class="BoundingBox" stroke="none" fill="none" x="17499" y="21960" width="813" height="794"/>
        <g>
         <defs>
          <linearGradient id="gradient1" x1="17519" y1="22356" x2="18292" y2="22356" gradientUnits="userSpaceOnUse">
           <stop offset="0.1" style="stop-color:rgb(102,102,102)"/>
           <stop offset="1" style="stop-color:rgb(153,153,153)"/>
          </linearGradient>
         </defs>
         <path style="fill:url(#gradient1)" d="M 18291,22733 L 18291,22423 17519,21980 17521,22290 18291,22733 Z"/>
        </g>
        <path fill="none" stroke="rgb(178,178,178)" stroke-width="40" stroke-linejoin="round" d="M 18291,22733 L 18291,22423 17519,21980 17521,22290 18291,22733 Z"/>
       </g>
      </g>
      <g class="com.sun.star.drawing.PolyPolygonShape">
       <g id="id4">
        <rect class="BoundingBox" stroke="none" fill="none" x="17501" y="21739" width="1192" height="705"/>
        <g>
         <defs>
          <linearGradient id="gradient2" x1="18096" y1="21759" x2="18096" y2="22423" gradientUnits="userSpaceOnUse">
           <stop offset="0.1" style="stop-color:rgb(51,51,51)"/>
           <stop offset="1" style="stop-color:rgb(153,153,153)"/>
          </linearGradient>
         </defs>
         <path style="fill:url(#gradient2)" d="M 18289,22423 L 18672,22202 17904,21759 17521,21980 18289,22423 Z"/>
        </g>
        <path fill="none" stroke="rgb(178,178,178)" stroke-width="40" stroke-linejoin="round" d="M 18289,22423 L 18672,22202 17904,21759 17521,21980 18289,22423 Z"/>
       </g>
      </g>
      <g class="com.sun.star.drawing.PolyPolygonShape">
       <g id="id5">
        <rect class="BoundingBox" stroke="none" fill="none" x="18269" y="22181" width="425" height="572"/>
        <g>
         <defs>
          <pattern id="pattern1" x="18289" y="22201" width="385" height="532" patternUnits="userSpaceOnUse">
           <g transform="translate(-18289,-22201)">
            <path fill="rgb(102,102,102)" stroke="none" d="M 18288,22200 L 18674,22200 18674,22733 18288,22733 18288,22200 Z M 18215,22099 L 18593,22099 18593,22620 18215,22620 18215,22099 Z"/>
            <path fill="rgb(103,103,103)" stroke="none" d="M 18215,22099 L 18593,22099 18593,22620 18215,22620 18215,22099 Z M 18219,22104 L 18589,22104 18589,22615 18219,22615 18219,22104 Z"/>
            <path fill="rgb(104,104,104)" stroke="none" d="M 18219,22104 L 18589,22104 18589,22615 18219,22615 18219,22104 Z M 18223,22109 L 18585,22109 18585,22610 18223,22610 18223,22109 Z"/>
            <path fill="rgb(105,105,105)" stroke="none" d="M 18223,22109 L 18585,22109 18585,22610 18223,22610 18223,22109 Z M 18227,22114 L 18581,22114 18581,22605 18227,22605 18227,22114 Z"/>
            <path fill="rgb(106,106,106)" stroke="none" d="M 18227,22114 L 18581,22114 18581,22605 18227,22605 18227,22114 Z M 18230,22120 L 18578,22120 18578,22599 18230,22599 18230,22120 Z"/>
            <path fill="rgb(107,107,107)" stroke="none" d="M 18230,22120 L 18578,22120 18578,22599 18230,22599 18230,22120 Z M 18234,22125 L 18574,22125 18574,22594 18234,22594 18234,22125 Z"/>
            <path fill="rgb(108,108,108)" stroke="none" d="M 18234,22125 L 18574,22125 18574,22594 18234,22594 18234,22125 Z M 18238,22130 L 18570,22130 18570,22589 18238,22589 18238,22130 Z"/>
            <path fill="rgb(109,109,109)" stroke="none" d="M 18238,22130 L 18570,22130 18570,22589 18238,22589 18238,22130 Z M 18242,22135 L 18566,22135 18566,22584 18242,22584 18242,22135 Z"/>
            <path fill="rgb(110,110,110)" stroke="none" d="M 18242,22135 L 18566,22135 18566,22584 18242,22584 18242,22135 Z M 18246,22141 L 18562,22141 18562,22578 18246,22578 18246,22141 Z"/>
            <path fill="rgb(111,111,111)" stroke="none" d="M 18246,22141 L 18562,22141 18562,22578 18246,22578 18246,22141 Z M 18249,22146 L 18559,22146 18559,22573 18249,22573 18249,22146 Z"/>
            <path fill="rgb(112,112,112)" stroke="none" d="M 18249,22146 L 18559,22146 18559,22573 18249,22573 18249,22146 Z M 18253,22151 L 18555,22151 18555,22568 18253,22568 18253,22151 Z"/>
            <path fill="rgb(113,113,113)" stroke="none" d="M 18253,22151 L 18555,22151 18555,22568 18253,22568 18253,22151 Z M 18257,22156 L 18551,22156 18551,22563 18257,22563 18257,22156 Z"/>
            <path fill="rgb(114,114,114)" stroke="none" d="M 18257,22156 L 18551,22156 18551,22563 18257,22563 18257,22156 Z M 18261,22162 L 18547,22162 18547,22557 18261,22557 18261,22162 Z"/>
            <path fill="rgb(115,115,115)" stroke="none" d="M 18261,22162 L 18547,22162 18547,22557 18261,22557 18261,22162 Z M 18265,22167 L 18543,22167 18543,22552 18265,22552 18265,22167 Z"/>
            <path fill="rgb(116,116,116)" stroke="none" d="M 18265,22167 L 18543,22167 18543,22552 18265,22552 18265,22167 Z M 18268,22172 L 18540,22172 18540,22547 18268,22547 18268,22172 Z"/>
            <path fill="rgb(117,117,117)" stroke="none" d="M 18268,22172 L 18540,22172 18540,22547 18268,22547 18268,22172 Z M 18271,22177 L 18536,22177 18536,22542 18271,22542 18271,22177 Z"/>
            <path fill="rgb(118,118,118)" stroke="none" d="M 18271,22177 L 18536,22177 18536,22542 18271,22542 18271,22177 Z M 18275,22181 L 18532,22181 18532,22536 18275,22536 18275,22181 Z"/>
            <path fill="rgb(119,119,119)" stroke="none" d="M 18275,22181 L 18532,22181 18532,22536 18275,22536 18275,22181 Z M 18279,22187 L 18528,22187 18528,22531 18279,22531 18279,22187 Z"/>
            <path fill="rgb(120,120,120)" stroke="none" d="M 18279,22187 L 18528,22187 18528,22531 18279,22531 18279,22187 Z M 18283,22192 L 18524,22192 18524,22526 18283,22526 18283,22192 Z"/>
            <path fill="rgb(121,121,121)" stroke="none" d="M 18283,22192 L 18524,22192 18524,22526 18283,22526 18283,22192 Z M 18286,22197 L 18521,22197 18521,22521 18286,22521 18286,22197 Z"/>
            <path fill="rgb(122,122,122)" stroke="none" d="M 18286,22197 L 18521,22197 18521,22521 18286,22521 18286,22197 Z M 18290,22202 L 18517,22202 18517,22516 18290,22516 18290,22202 Z"/>
            <path fill="rgb(123,123,123)" stroke="none" d="M 18290,22202 L 18517,22202 18517,22516 18290,22516 18290,22202 Z M 18294,22208 L 18513,22208 18513,22510 18294,22510 18294,22208 Z"/>
            <path fill="rgb(124,124,124)" stroke="none" d="M 18294,22208 L 18513,22208 18513,22510 18294,22510 18294,22208 Z M 18298,22213 L 18509,22213 18509,22505 18298,22505 18298,22213 Z"/>
            <path fill="rgb(125,125,125)" stroke="none" d="M 18298,22213 L 18509,22213 18509,22505 18298,22505 18298,22213 Z M 18302,22218 L 18505,22218 18505,22500 18302,22500 18302,22218 Z"/>
            <path fill="rgb(126,126,126)" stroke="none" d="M 18302,22218 L 18505,22218 18505,22500 18302,22500 18302,22218 Z M 18305,22223 L 18502,22223 18502,22495 18305,22495 18305,22223 Z"/>
            <path fill="rgb(127,127,127)" stroke="none" d="M 18305,22223 L 18502,22223 18502,22495 18305,22495 18305,22223 Z M 18309,22229 L 18498,22229 18498,22489 18309,22489 18309,22229 Z"/>
            <path fill="rgb(128,128,128)" stroke="none" d="M 18309,22229 L 18498,22229 18498,22489 18309,22489 18309,22229 Z M 18313,22234 L 18494,22234 18494,22484 18313,22484 18313,22234 Z"/>
            <path fill="rgb(129,129,129)" stroke="none" d="M 18313,22234 L 18494,22234 18494,22484 18313,22484 18313,22234 Z M 18317,22239 L 18490,22239 18490,22479 18317,22479 18317,22239 Z"/>
            <path fill="rgb(130,130,130)" stroke="none" d="M 18317,22239 L 18490,22239 18490,22479 18317,22479 18317,22239 Z M 18321,22244 L 18486,22244 18486,22474 18321,22474 18321,22244 Z"/>
            <path fill="rgb(131,131,131)" stroke="none" d="M 18321,22244 L 18486,22244 18486,22474 18321,22474 18321,22244 Z M 18324,22250 L 18483,22250 18483,22468 18324,22468 18324,22250 Z"/>
            <path fill="rgb(132,132,132)" stroke="none" d="M 18324,22250 L 18483,22250 18483,22468 18324,22468 18324,22250 Z M 18328,22255 L 18479,22255 18479,22463 18328,22463 18328,22255 Z"/>
            <path fill="rgb(133,133,133)" stroke="none" d="M 18328,22255 L 18479,22255 18479,22463 18328,22463 18328,22255 Z M 18332,22260 L 18475,22260 18475,22458 18332,22458 18332,22260 Z"/>
            <path fill="rgb(134,134,134)" stroke="none" d="M 18332,22260 L 18475,22260 18475,22458 18332,22458 18332,22260 Z M 18336,22265 L 18471,22265 18471,22453 18336,22453 18336,22265 Z"/>
            <path fill="rgb(135,135,135)" stroke="none" d="M 18336,22265 L 18471,22265 18471,22453 18336,22453 18336,22265 Z M 18340,22270 L 18467,22270 18467,22447 18340,22447 18340,22270 Z"/>
            <path fill="rgb(136,136,136)" stroke="none" d="M 18340,22270 L 18467,22270 18467,22447 18340,22447 18340,22270 Z M 18343,22276 L 18464,22276 18464,22442 18343,22442 18343,22276 Z"/>
            <path fill="rgb(137,137,137)" stroke="none" d="M 18343,22276 L 18464,22276 18464,22442 18343,22442 18343,22276 Z M 18347,22281 L 18460,22281 18460,22437 18347,22437 18347,22281 Z"/>
            <path fill="rgb(138,138,138)" stroke="none" d="M 18347,22281 L 18460,22281 18460,22437 18347,22437 18347,22281 Z M 18351,22286 L 18456,22286 18456,22432 18351,22432 18351,22286 Z"/>
            <path fill="rgb(139,139,139)" stroke="none" d="M 18351,22286 L 18456,22286 18456,22432 18351,22432 18351,22286 Z M 18355,22291 L 18452,22291 18452,22427 18355,22427 18355,22291 Z"/>
            <path fill="rgb(140,140,140)" stroke="none" d="M 18355,22291 L 18452,22291 18452,22427 18355,22427 18355,22291 Z M 18358,22297 L 18449,22297 18449,22421 18358,22421 18358,22297 Z"/>
            <path fill="rgb(141,141,141)" stroke="none" d="M 18358,22297 L 18449,22297 18449,22421 18358,22421 18358,22297 Z M 18362,22302 L 18445,22302 18445,22416 18362,22416 18362,22302 Z"/>
            <path fill="rgb(142,142,142)" stroke="none" d="M 18362,22302 L 18445,22302 18445,22416 18362,22416 18362,22302 Z M 18366,22307 L 18441,22307 18441,22411 18366,22411 18366,22307 Z"/>
            <path fill="rgb(143,143,143)" stroke="none" d="M 18366,22307 L 18441,22307 18441,22411 18366,22411 18366,22307 Z M 18370,22312 L 18437,22312 18437,22406 18370,22406 18370,22312 Z"/>
            <path fill="rgb(144,144,144)" stroke="none" d="M 18370,22312 L 18437,22312 18437,22406 18370,22406 18370,22312 Z M 18374,22318 L 18433,22318 18433,22400 18374,22400 18374,22318 Z"/>
            <path fill="rgb(145,145,145)" stroke="none" d="M 18374,22318 L 18433,22318 18433,22400 18374,22400 18374,22318 Z M 18377,22323 L 18430,22323 18430,22395 18377,22395 18377,22323 Z"/>
            <path fill="rgb(146,146,146)" stroke="none" d="M 18377,22323 L 18430,22323 18430,22395 18377,22395 18377,22323 Z M 18381,22328 L 18426,22328 18426,22390 18381,22390 18381,22328 Z"/>
            <path fill="rgb(147,147,147)" stroke="none" d="M 18381,22328 L 18426,22328 18426,22390 18381,22390 18381,22328 Z M 18385,22333 L 18422,22333 18422,22385 18385,22385 18385,22333 Z"/>
            <path fill="rgb(148,148,148)" stroke="none" d="M 18385,22333 L 18422,22333 18422,22385 18385,22385 18385,22333 Z M 18389,22339 L 18418,22339 18418,22379 18389,22379 18389,22339 Z"/>
            <path fill="rgb(149,149,149)" stroke="none" d="M 18389,22339 L 18418,22339 18418,22379 18389,22379 18389,22339 Z M 18393,22344 L 18414,22344 18414,22374 18393,22374 18393,22344 Z"/>
            <path fill="rgb(150,150,150)" stroke="none" d="M 18393,22344 L 18414,22344 18414,22374 18393,22374 18393,22344 Z M 18396,22349 L 18411,22349 18411,22369 18396,22369 18396,22349 Z"/>
            <path fill="rgb(151,151,151)" stroke="none" d="M 18396,22349 L 18411,22349 18411,22369 18396,22369 18396,22349 Z M 18400,22354 L 18407,22354 18407,22364 18400,22364 18400,22354 Z"/>
            <path fill="rgb(153,153,153)" stroke="none" d="M 18400,22354 L 18407,22354 18407,22364 18400,22364 18400,22354 Z"/>
           </g>
          </pattern>
         </defs>
         <path style="fill:url(#pattern1)" d="M 18673,22511 L 18672,22201 18289,22422 18289,22732 18673,22511 Z"/>
        </g>
        <path fill="none" stroke="rgb(178,178,178)" stroke-width="40" stroke-linejoin="round" d="M 18673,22511 L 18672,22201 18289,22422 18289,22732 18673,22511 Z"/>
       </g>
      </g>
      <g class="com.sun.star.drawing.PolyPolygonShape">
       <g id="id6">
        <rect class="BoundingBox" stroke="none" fill="none" x="18576" y="22446" width="272" height="308"/>
        <g>
         <defs>
          <pattern id="pattern2" x="18596" y="22467" width="232" height="267" patternUnits="userSpaceOnUse">
           <g transform="translate(-18596,-22467)">
            <path fill="rgb(179,179,179)" stroke="none" d="M 18595,22466 L 18828,22466 18828,22734 18595,22734 18595,22466 Z M 18551,22415 L 18778,22415 18778,22677 18551,22677 18551,22415 Z"/>
            <path fill="rgb(180,180,180)" stroke="none" d="M 18551,22415 L 18778,22415 18778,22677 18551,22677 18551,22415 Z M 18553,22418 L 18776,22418 18776,22674 18553,22674 18553,22418 Z"/>
            <path fill="rgb(181,181,181)" stroke="none" d="M 18553,22418 L 18776,22418 18776,22674 18553,22674 18553,22418 Z M 18556,22421 L 18773,22421 18773,22671 18556,22671 18556,22421 Z"/>
            <path fill="rgb(182,182,182)" stroke="none" d="M 18556,22421 L 18773,22421 18773,22671 18556,22671 18556,22421 Z M 18558,22423 L 18771,22423 18771,22669 18558,22669 18558,22423 Z"/>
            <path fill="rgb(183,183,183)" stroke="none" d="M 18558,22423 L 18771,22423 18771,22669 18558,22669 18558,22423 Z M 18560,22426 L 18769,22426 18769,22666 18560,22666 18560,22426 Z"/>
            <path fill="rgb(184,184,184)" stroke="none" d="M 18560,22426 L 18769,22426 18769,22666 18560,22666 18560,22426 Z M 18563,22429 L 18766,22429 18766,22663 18563,22663 18563,22429 Z"/>
            <path fill="rgb(185,185,185)" stroke="none" d="M 18563,22429 L 18766,22429 18766,22663 18563,22663 18563,22429 Z M 18565,22431 L 18764,22431 18764,22661 18565,22661 18565,22431 Z"/>
            <path fill="rgb(186,186,186)" stroke="none" d="M 18565,22431 L 18764,22431 18764,22661 18565,22661 18565,22431 Z M 18567,22434 L 18762,22434 18762,22658 18567,22658 18567,22434 Z"/>
            <path fill="rgb(187,187,187)" stroke="none" d="M 18567,22434 L 18762,22434 18762,22658 18567,22658 18567,22434 Z M 18570,22437 L 18759,22437 18759,22655 18570,22655 18570,22437 Z"/>
            <path fill="rgb(188,188,188)" stroke="none" d="M 18570,22437 L 18759,22437 18759,22655 18570,22655 18570,22437 Z M 18572,22439 L 18757,22439 18757,22653 18572,22653 18572,22439 Z"/>
            <path fill="rgb(189,189,189)" stroke="none" d="M 18572,22439 L 18757,22439 18757,22653 18572,22653 18572,22439 Z M 18574,22442 L 18755,22442 18755,22650 18574,22650 18574,22442 Z"/>
            <path fill="rgb(190,190,190)" stroke="none" d="M 18574,22442 L 18755,22442 18755,22650 18574,22650 18574,22442 Z M 18576,22445 L 18752,22445 18752,22647 18576,22647 18576,22445 Z"/>
            <path fill="rgb(191,191,191)" stroke="none" d="M 18576,22445 L 18752,22445 18752,22647 18576,22647 18576,22445 Z M 18578,22446 L 18750,22446 18750,22645 18578,22645 18578,22446 Z"/>
            <path fill="rgb(192,192,192)" stroke="none" d="M 18578,22446 L 18750,22446 18750,22645 18578,22645 18578,22446 Z M 18580,22449 L 18748,22449 18748,22642 18580,22642 18580,22449 Z"/>
            <path fill="rgb(193,193,193)" stroke="none" d="M 18580,22449 L 18748,22449 18748,22642 18580,22642 18580,22449 Z M 18583,22452 L 18745,22452 18745,22639 18583,22639 18583,22452 Z"/>
            <path fill="rgb(194,194,194)" stroke="none" d="M 18583,22452 L 18745,22452 18745,22639 18583,22639 18583,22452 Z M 18585,22455 L 18743,22455 18743,22636 18585,22636 18585,22455 Z"/>
            <path fill="rgb(195,195,195)" stroke="none" d="M 18585,22455 L 18743,22455 18743,22636 18585,22636 18585,22455 Z M 18587,22457 L 18741,22457 18741,22634 18587,22634 18587,22457 Z"/>
            <path fill="rgb(196,196,196)" stroke="none" d="M 18587,22457 L 18741,22457 18741,22634 18587,22634 18587,22457 Z M 18590,22460 L 18738,22460 18738,22631 18590,22631 18590,22460 Z"/>
            <path fill="rgb(197,197,197)" stroke="none" d="M 18590,22460 L 18738,22460 18738,22631 18590,22631 18590,22460 Z M 18592,22463 L 18736,22463 18736,22628 18592,22628 18592,22463 Z"/>
            <path fill="rgb(198,198,198)" stroke="none" d="M 18592,22463 L 18736,22463 18736,22628 18592,22628 18592,22463 Z M 18594,22465 L 18734,22465 18734,22626 18594,22626 18594,22465 Z"/>
            <path fill="rgb(199,199,199)" stroke="none" d="M 18594,22465 L 18734,22465 18734,22626 18594,22626 18594,22465 Z M 18597,22468 L 18731,22468 18731,22623 18597,22623 18597,22468 Z"/>
            <path fill="rgb(200,200,200)" stroke="none" d="M 18597,22468 L 18731,22468 18731,22623 18597,22623 18597,22468 Z M 18599,22471 L 18729,22471 18729,22620 18599,22620 18599,22471 Z"/>
            <path fill="rgb(201,201,201)" stroke="none" d="M 18599,22471 L 18729,22471 18729,22620 18599,22620 18599,22471 Z M 18601,22473 L 18727,22473 18727,22618 18601,22618 18601,22473 Z"/>
            <path fill="rgb(202,202,202)" stroke="none" d="M 18601,22473 L 18727,22473 18727,22618 18601,22618 18601,22473 Z M 18604,22476 L 18724,22476 18724,22615 18604,22615 18604,22476 Z"/>
            <path fill="rgb(203,203,203)" stroke="none" d="M 18604,22476 L 18724,22476 18724,22615 18604,22615 18604,22476 Z M 18606,22479 L 18722,22479 18722,22612 18606,22612 18606,22479 Z"/>
            <path fill="rgb(204,204,204)" stroke="none" d="M 18606,22479 L 18722,22479 18722,22612 18606,22612 18606,22479 Z M 18608,22481 L 18720,22481 18720,22610 18608,22610 18608,22481 Z"/>
            <path fill="rgb(205,205,205)" stroke="none" d="M 18608,22481 L 18720,22481 18720,22610 18608,22610 18608,22481 Z M 18611,22484 L 18717,22484 18717,22607 18611,22607 18611,22484 Z"/>
            <path fill="rgb(206,206,206)" stroke="none" d="M 18611,22484 L 18717,22484 18717,22607 18611,22607 18611,22484 Z M 18613,22487 L 18715,22487 18715,22604 18613,22604 18613,22487 Z"/>
            <path fill="rgb(207,207,207)" stroke="none" d="M 18613,22487 L 18715,22487 18715,22604 18613,22604 18613,22487 Z M 18615,22490 L 18713,22490 18713,22601 18615,22601 18615,22490 Z"/>
            <path fill="rgb(208,208,208)" stroke="none" d="M 18615,22490 L 18713,22490 18713,22601 18615,22601 18615,22490 Z M 18618,22492 L 18710,22492 18710,22599 18618,22599 18618,22492 Z"/>
            <path fill="rgb(209,209,209)" stroke="none" d="M 18618,22492 L 18710,22492 18710,22599 18618,22599 18618,22492 Z M 18620,22495 L 18708,22495 18708,22596 18620,22596 18620,22495 Z"/>
            <path fill="rgb(210,210,210)" stroke="none" d="M 18620,22495 L 18708,22495 18708,22596 18620,22596 18620,22495 Z M 18622,22498 L 18706,22498 18706,22593 18622,22593 18622,22498 Z"/>
            <path fill="rgb(211,211,211)" stroke="none" d="M 18622,22498 L 18706,22498 18706,22593 18622,22593 18622,22498 Z M 18625,22500 L 18703,22500 18703,22591 18625,22591 18625,22500 Z"/>
            <path fill="rgb(212,212,212)" stroke="none" d="M 18625,22500 L 18703,22500 18703,22591 18625,22591 18625,22500 Z M 18627,22503 L 18701,22503 18701,22588 18627,22588 18627,22503 Z"/>
            <path fill="rgb(213,213,213)" stroke="none" d="M 18627,22503 L 18701,22503 18701,22588 18627,22588 18627,22503 Z M 18629,22506 L 18699,22506 18699,22585 18629,22585 18629,22506 Z"/>
            <path fill="rgb(214,214,214)" stroke="none" d="M 18629,22506 L 18699,22506 18699,22585 18629,22585 18629,22506 Z M 18632,22508 L 18696,22508 18696,22583 18632,22583 18632,22508 Z"/>
            <path fill="rgb(215,215,215)" stroke="none" d="M 18632,22508 L 18696,22508 18696,22583 18632,22583 18632,22508 Z M 18634,22511 L 18694,22511 18694,22580 18634,22580 18634,22511 Z"/>
            <path fill="rgb(216,216,216)" stroke="none" d="M 18634,22511 L 18694,22511 18694,22580 18634,22580 18634,22511 Z M 18636,22514 L 18692,22514 18692,22577 18636,22577 18636,22514 Z"/>
            <path fill="rgb(217,217,217)" stroke="none" d="M 18636,22514 L 18692,22514 18692,22577 18636,22577 18636,22514 Z M 18639,22516 L 18689,22516 18689,22575 18639,22575 18639,22516 Z"/>
            <path fill="rgb(218,218,218)" stroke="none" d="M 18639,22516 L 18689,22516 18689,22575 18639,22575 18639,22516 Z M 18641,22519 L 18687,22519 18687,22572 18641,22572 18641,22519 Z"/>
            <path fill="rgb(219,219,219)" stroke="none" d="M 18641,22519 L 18687,22519 18687,22572 18641,22572 18641,22519 Z M 18643,22522 L 18685,22522 18685,22569 18643,22569 18643,22522 Z"/>
            <path fill="rgb(220,220,220)" stroke="none" d="M 18643,22522 L 18685,22522 18685,22569 18643,22569 18643,22522 Z M 18646,22524 L 18682,22524 18682,22567 18646,22567 18646,22524 Z"/>
            <path fill="rgb(221,221,221)" stroke="none" d="M 18646,22524 L 18682,22524 18682,22567 18646,22567 18646,22524 Z M 18648,22527 L 18680,22527 18680,22564 18648,22564 18648,22527 Z"/>
            <path fill="rgb(222,222,222)" stroke="none" d="M 18648,22527 L 18680,22527 18680,22564 18648,22564 18648,22527 Z M 18650,22530 L 18678,22530 18678,22561 18650,22561 18650,22530 Z"/>
            <path fill="rgb(223,223,223)" stroke="none" d="M 18650,22530 L 18678,22530 18678,22561 18650,22561 18650,22530 Z M 18653,22533 L 18675,22533 18675,22558 18653,22558 18653,22533 Z"/>
            <path fill="rgb(224,224,224)" stroke="none" d="M 18653,22533 L 18675,22533 18675,22558 18653,22558 18653,22533 Z M 18655,22535 L 18673,22535 18673,22556 18655,22556 18655,22535 Z"/>
            <path fill="rgb(225,225,225)" stroke="none" d="M 18655,22535 L 18673,22535 18673,22556 18655,22556 18655,22535 Z M 18657,22538 L 18671,22538 18671,22553 18657,22553 18657,22538 Z"/>
            <path fill="rgb(226,226,226)" stroke="none" d="M 18657,22538 L 18671,22538 18671,22553 18657,22553 18657,22538 Z M 18660,22541 L 18668,22541 18668,22550 18660,22550 18660,22541 Z"/>
            <path fill="rgb(227,227,227)" stroke="none" d="M 18660,22541 L 18668,22541 18668,22550 18660,22550 18660,22541 Z M 18662,22543 L 18666,22543 18666,22548 18662,22548 18662,22543 Z"/>
            <path fill="rgb(229,229,229)" stroke="none" d="M 18662,22543 L 18666,22543 18666,22548 18662,22548 18662,22543 Z"/>
           </g>
          </pattern>
         </defs>
         <path style="fill:url(#pattern2)" d="M 18827,22600 L 18827,22467 18596,22600 18597,22733 18827,22600 Z"/>
        </g>
        <path fill="none" stroke="rgb(255,255,255)" stroke-width="40" stroke-linejoin="round" d="M 18827,22600 L 18827,22467 18596,22600 18597,22733 18827,22600 Z"/>
       </g>
      </g>
      <g class="com.sun.star.drawing.PolyPolygonShape">
       <g id="id7">
        <rect class="BoundingBox" stroke="none" fill="none" x="18345" y="22446" width="273" height="308"/>
        <g>
         <defs>
          <linearGradient id="gradient3" x1="18364" y1="22600" x2="18598" y2="22600" gradientUnits="userSpaceOnUse">
           <stop offset="0.1" style="stop-color:rgb(179,179,179)"/>
           <stop offset="1" style="stop-color:rgb(229,229,229)"/>
          </linearGradient>
         </defs>
         <path style="fill:url(#gradient3)" d="M 18597,22733 L 18597,22600 18365,22467 18367,22600 18597,22733 Z"/>
        </g>
        <path fill="none" stroke="rgb(255,255,255)" stroke-width="40" stroke-linejoin="round" d="M 18597,22733 L 18597,22600 18365,22467 18367,22600 18597,22733 Z"/>
       </g>
      </g>
      <g class="com.sun.star.drawing.PolyPolygonShape">
       <g id="id8">
        <rect class="BoundingBox" stroke="none" fill="none" x="18347" y="22313" width="501" height="308"/>
        <g>
         <defs>
          <linearGradient id="gradient4" x1="18597" y1="22334" x2="18597" y2="22600" gradientUnits="userSpaceOnUse">
           <stop offset="0.1" style="stop-color:rgb(179,179,179)"/>
           <stop offset="1" style="stop-color:rgb(229,229,229)"/>
          </linearGradient>
         </defs>
         <path style="fill:url(#gradient4)" d="M 18597,22600 L 18827,22467 18597,22334 18367,22467 18597,22600 Z"/>
        </g>
        <path fill="none" stroke="rgb(255,255,255)" stroke-width="40" stroke-linejoin="round" d="M 18597,22600 L 18827,22467 18597,22334 18367,22467 18597,22600 Z"/>
       </g>
      </g>
      <g class="com.sun.star.drawing.PolyPolygonShape">
       <g id="id9">
        <rect class="BoundingBox" stroke="none" fill="none" x="17501" y="21739" width="1347" height="1016"/>
        <path fill="none" stroke="rgb(0,0,0)" stroke-width="40" stroke-linejoin="round" d="M 18443,22645 L 18597,22733 18827,22600 18827,22468 18673,22379 18673,22202 17904,21759 17523,21980 17521,22290 18290,22733 18443,22645 Z"/>
       </g>
      </g>
     </g>
    </g>
   </g>
  </g>
 </g>
</svg>