<?xml version="1.0" encoding="UTF-8"?>
<!DOCTYPE svg PUBLIC "-//W3C//DTD SVG 1.1//EN" "http://www.w3.org/Graphics/SVG/1.1/DTD/svg11.dtd">
<svg version="1.2" width="36.78mm" height="28.4mm" viewBox="7212 10451 3678 2840" preserveAspectRatio="xMidYMid" fill-rule="evenodd" stroke-width="28.222" stroke-linejoin="round" xmlns="http://www.w3.org/2000/svg" xmlns:ooo="http://xml.openoffice.org/svg/export" xmlns:xlink="http://www.w3.org/1999/xlink" xmlns:presentation="http://sun.com/xmlns/staroffice/presentation" xmlns:smil="http://www.w3.org/2001/SMIL20/" xmlns:anim="urn:oasis:names:tc:opendocument:xmlns:animation:1.0" xml:space="preserve">
 <defs class="ClipPathGroup">
  <clipPath id="presentation_clip_path" clipPathUnits="userSpaceOnUse">
   <rect x="7212" y="10451" width="3678" height="2840"/>
  </clipPath>
 </defs>
 <defs class="TextShapeIndex">
  <g ooo:slide="id1" ooo:id-list="id3 id4 id5 id6 id7 id8 id9 id10 id11"/>
 </defs>
 <defs class="EmbeddedBulletChars">
  <g id="bullet-char-template(57356)" transform="scale(0.00048828125,-0.00048828125)">
   <path d="M 580,1141 L 1163,571 580,0 -4,571 580,1141 Z"/>
  </g>
  <g id="bullet-char-template(57354)" transform="scale(0.00048828125,-0.00048828125)">
   <path d="M 8,1128 L 1137,1128 1137,0 8,0 8,1128 Z"/>
  </g>
  <g id="bullet-char-template(10146)" transform="scale(0.00048828125,-0.00048828125)">
   <path d="M 174,0 L 602,739 174,1481 1456,739 174,0 Z M 1358,739 L 309,1346 659,739 1358,739 Z"/>
  </g>
  <g id="bullet-char-template(10132)" transform="scale(0.00048828125,-0.00048828125)">
   <path d="M 2015,739 L 1276,0 717,0 1260,543 174,543 174,936 1260,936 717,1481 1274,1481 2015,739 Z"/>
  </g>
  <g id="bullet-char-template(10007)" transform="scale(0.00048828125,-0.00048828125)">
   <path d="M 0,-2 C -7,14 -16,27 -25,37 L 356,567 C 262,823 215,952 215,954 215,979 228,992 255,992 264,992 276,990 289,987 310,991 331,999 354,1012 L 381,999 492,748 772,1049 836,1024 860,1049 C 881,1039 901,1025 922,1006 886,937 835,863 770,784 769,783 710,716 594,584 L 774,223 C 774,196 753,168 711,139 L 727,119 C 717,90 699,76 672,76 641,76 570,178 457,381 L 164,-76 C 142,-110 111,-127 72,-127 30,-127 9,-110 8,-76 1,-67 -2,-52 -2,-32 -2,-23 -1,-13 0,-2 Z"/>
  </g>
  <g id="bullet-char-template(10004)" transform="scale(0.00048828125,-0.00048828125)">
   <path d="M 285,-33 C 182,-33 111,30 74,156 52,228 41,333 41,471 41,549 55,616 82,672 116,743 169,778 240,778 293,778 328,747 346,684 L 369,508 C 377,444 397,411 428,410 L 1163,1116 C 1174,1127 1196,1133 1229,1133 1271,1133 1292,1118 1292,1087 L 1292,965 C 1292,929 1282,901 1262,881 L 442,47 C 390,-6 338,-33 285,-33 Z"/>
  </g>
  <g id="bullet-char-template(9679)" transform="scale(0.00048828125,-0.00048828125)">
   <path d="M 813,0 C 632,0 489,54 383,161 276,268 223,411 223,592 223,773 276,916 383,1023 489,1130 632,1184 813,1184 992,1184 1136,1130 1245,1023 1353,916 1407,772 1407,592 1407,412 1353,268 1245,161 1136,54 992,0 813,0 Z"/>
  </g>
  <g id="bullet-char-template(8226)" transform="scale(0.00048828125,-0.00048828125)">
   <path d="M 346,457 C 273,457 209,483 155,535 101,586 74,649 74,723 74,796 101,859 155,911 209,963 273,989 346,989 419,989 480,963 531,910 582,859 608,796 608,723 608,648 583,586 532,535 482,483 420,457 346,457 Z"/>
  </g>
  <g id="bullet-char-template(8211)" transform="scale(0.00048828125,-0.00048828125)">
   <path d="M -4,459 L 1135,459 1135,606 -4,606 -4,459 Z"/>
  </g>
 </defs>
 <defs class="TextEmbeddedBitmaps"/>
 <g class="SlideGroup">
  <g>
   <g id="id1" class="Slide" clip-path="url(#presentation_clip_path)">
    <g class="Page">
     <g class="Group">
      <g class="com.sun.star.drawing.ClosedBezierShape">
       <g id="id3">
        <rect class="BoundingBox" stroke="none" fill="none" x="8998" y="11991" width="1893" height="1232"/>
        <path fill="rgb(221,221,221)" stroke="none" d="M 9018,13201 C 9493,13201 10716,12641 10837,12431 10958,12221 10716,12011 10595,12011 10595,12311 9018,12701 9018,13201 Z"/>
        <path fill="none" stroke="rgb(221,221,221)" stroke-width="40" stroke-linejoin="round" d="M 9018,13201 C 9493,13201 10716,12641 10837,12431 10958,12221 10716,12011 10595,12011 10595,12311 9018,12701 9018,13201 Z"/>
       </g>
      </g>
      <g class="Group">
       <g class="com.sun.star.drawing.PolyPolygonShape">
        <g id="id4">
         <rect class="BoundingBox" stroke="none" fill="none" x="7212" y="11431" width="1739" height="1861"/>
         <g>
          <defs>
           <linearGradient id="gradient1" x1="7231" y1="12361" x2="8931" y2="12361" gradientUnits="userSpaceOnUse">
            <stop offset="0.1" style="stop-color:rgb(0,115,188)"/>
            <stop offset="1" style="stop-color:rgb(127,185,221)"/>
           </linearGradient>
          </defs>
          <path style="fill:url(#gradient1)" d="M 7232,12291 L 7232,11451 8930,12431 8930,13271 7232,12291 Z"/>
         </g>
         <path fill="none" stroke="rgb(255,255,255)" stroke-width="40" stroke-linejoin="round" d="M 7232,12291 L 7232,11451 8930,12431 8930,13271 7232,12291 Z"/>
        </g>
       </g>
       <g class="com.sun.star.drawing.PolyPolygonShape">
        <g id="id5">
         <rect class="BoundingBox" stroke="none" fill="none" x="8909" y="11431" width="1739" height="1861"/>
         <g>
          <defs>
           <pattern id="pattern1" x="8930" y="11451" width="1698" height="1821" patternUnits="userSpaceOnUse">
            <g transform="translate(-8930,-11451)">
             <path fill="rgb(0,115,188)" stroke="none" d="M 8929,11450 L 10628,11450 10628,13272 8929,13272 8929,11450 Z M 8596,11093 L 10281,11093 10281,12899 8596,12899 8596,11093 Z"/>
             <path fill="rgb(1,115,188)" stroke="none" d="M 8596,11093 L 10281,11093 10281,12899 8596,12899 8596,11093 Z M 8603,11100 L 10274,11100 10274,12892 8603,12892 8603,11100 Z"/>
             <path fill="rgb(2,116,188)" stroke="none" d="M 8603,11100 L 10274,11100 10274,12892 8603,12892 8603,11100 Z M 8610,11107 L 10267,11107 10267,12885 8610,12885 8610,11107 Z"/>
             <path fill="rgb(3,116,188)" stroke="none" d="M 8610,11107 L 10267,11107 10267,12885 8610,12885 8610,11107 Z M 8616,11114 L 10261,11114 10261,12878 8616,12878 8616,11114 Z"/>
             <path fill="rgb(4,117,189)" stroke="none" d="M 8616,11114 L 10261,11114 10261,12878 8616,12878 8616,11114 Z M 8623,11121 L 10254,11121 10254,12871 8623,12871 8623,11121 Z"/>
             <path fill="rgb(5,117,189)" stroke="none" d="M 8623,11121 L 10254,11121 10254,12871 8623,12871 8623,11121 Z M 8630,11129 L 10247,11129 10247,12863 8630,12863 8630,11129 Z"/>
             <path fill="rgb(6,118,189)" stroke="none" d="M 8630,11129 L 10247,11129 10247,12863 8630,12863 8630,11129 Z M 8636,11136 L 10241,11136 10241,12856 8636,12856 8636,11136 Z"/>
             <path fill="rgb(7,118,189)" stroke="none" d="M 8636,11136 L 10241,11136 10241,12856 8636,12856 8636,11136 Z M 8643,11143 L 10234,11143 10234,12849 8643,12849 8643,11143 Z"/>
             <path fill="rgb(8,119,190)" stroke="none" d="M 8643,11143 L 10234,11143 10234,12849 8643,12849 8643,11143 Z M 8650,11150 L 10227,11150 10227,12842 8650,12842 8650,11150 Z"/>
             <path fill="rgb(9,119,190)" stroke="none" d="M 8650,11150 L 10227,11150 10227,12842 8650,12842 8650,11150 Z M 8656,11157 L 10221,11157 10221,12835 8656,12835 8656,11157 Z"/>
             <path fill="rgb(10,120,190)" stroke="none" d="M 8656,11157 L 10221,11157 10221,12835 8656,12835 8656,11157 Z M 8663,11164 L 10214,11164 10214,12828 8663,12828 8663,11164 Z"/>
             <path fill="rgb(11,121,190)" stroke="none" d="M 8663,11164 L 10214,11164 10214,12828 8663,12828 8663,11164 Z M 8670,11172 L 10207,11172 10207,12820 8670,12820 8670,11172 Z"/>
             <path fill="rgb(12,121,191)" stroke="none" d="M 8670,11172 L 10207,11172 10207,12820 8670,12820 8670,11172 Z M 8677,11179 L 10200,11179 10200,12813 8677,12813 8677,11179 Z"/>
             <path fill="rgb(13,122,191)" stroke="none" d="M 8677,11179 L 10200,11179 10200,12813 8677,12813 8677,11179 Z M 8683,11186 L 10194,11186 10194,12806 8683,12806 8683,11186 Z"/>
             <path fill="rgb(14,122,191)" stroke="none" d="M 8683,11186 L 10194,11186 10194,12806 8683,12806 8683,11186 Z M 8690,11193 L 10187,11193 10187,12799 8690,12799 8690,11193 Z"/>
             <path fill="rgb(15,123,191)" stroke="none" d="M 8690,11193 L 10187,11193 10187,12799 8690,12799 8690,11193 Z M 8697,11200 L 10180,11200 10180,12792 8697,12792 8697,11200 Z"/>
             <path fill="rgb(16,123,192)" stroke="none" d="M 8697,11200 L 10180,11200 10180,12792 8697,12792 8697,11200 Z M 8703,11208 L 10174,11208 10174,12784 8703,12784 8703,11208 Z"/>
             <path fill="rgb(17,124,192)" stroke="none" d="M 8703,11208 L 10174,11208 10174,12784 8703,12784 8703,11208 Z M 8710,11215 L 10167,11215 10167,12777 8710,12777 8710,11215 Z"/>
             <path fill="rgb(18,124,192)" stroke="none" d="M 8710,11215 L 10167,11215 10167,12777 8710,12777 8710,11215 Z M 8717,11222 L 10160,11222 10160,12770 8717,12770 8717,11222 Z"/>
             <path fill="rgb(19,125,192)" stroke="none" d="M 8717,11222 L 10160,11222 10160,12770 8717,12770 8717,11222 Z M 8723,11229 L 10154,11229 10154,12763 8723,12763 8723,11229 Z"/>
             <path fill="rgb(20,126,193)" stroke="none" d="M 8723,11229 L 10154,11229 10154,12763 8723,12763 8723,11229 Z M 8730,11236 L 10147,11236 10147,12756 8730,12756 8730,11236 Z"/>
             <path fill="rgb(21,126,193)" stroke="none" d="M 8730,11236 L 10147,11236 10147,12756 8730,12756 8730,11236 Z M 8737,11243 L 10140,11243 10140,12749 8737,12749 8737,11243 Z"/>
             <path fill="rgb(22,127,193)" stroke="none" d="M 8737,11243 L 10140,11243 10140,12749 8737,12749 8737,11243 Z M 8743,11251 L 10134,11251 10134,12741 8743,12741 8743,11251 Z"/>
             <path fill="rgb(23,127,193)" stroke="none" d="M 8743,11251 L 10134,11251 10134,12741 8743,12741 8743,11251 Z M 8750,11258 L 10127,11258 10127,12734 8750,12734 8750,11258 Z"/>
             <path fill="rgb(24,128,194)" stroke="none" d="M 8750,11258 L 10127,11258 10127,12734 8750,12734 8750,11258 Z M 8757,11265 L 10120,11265 10120,12727 8757,12727 8757,11265 Z"/>
             <path fill="rgb(25,128,194)" stroke="none" d="M 8757,11265 L 10120,11265 10120,12727 8757,12727 8757,11265 Z M 8764,11272 L 10113,11272 10113,12720 8764,12720 8764,11272 Z"/>
             <path fill="rgb(26,129,194)" stroke="none" d="M 8764,11272 L 10113,11272 10113,12720 8764,12720 8764,11272 Z M 8770,11279 L 10107,11279 10107,12713 8770,12713 8770,11279 Z"/>
             <path fill="rgb(27,129,195)" stroke="none" d="M 8770,11279 L 10107,11279 10107,12713 8770,12713 8770,11279 Z M 8777,11286 L 10100,11286 10100,12706 8777,12706 8777,11286 Z"/>
             <path fill="rgb(28,130,195)" stroke="none" d="M 8777,11286 L 10100,11286 10100,12706 8777,12706 8777,11286 Z M 8784,11294 L 10093,11294 10093,12698 8784,12698 8784,11294 Z"/>
             <path fill="rgb(29,130,195)" stroke="none" d="M 8784,11294 L 10093,11294 10093,12698 8784,12698 8784,11294 Z M 8790,11301 L 10087,11301 10087,12691 8790,12691 8790,11301 Z"/>
             <path fill="rgb(30,131,195)" stroke="none" d="M 8790,11301 L 10087,11301 10087,12691 8790,12691 8790,11301 Z M 8797,11308 L 10080,11308 10080,12684 8797,12684 8797,11308 Z"/>
             <path fill="rgb(31,132,196)" stroke="none" d="M 8797,11308 L 10080,11308 10080,12684 8797,12684 8797,11308 Z M 8804,11315 L 10073,11315 10073,12677 8804,12677 8804,11315 Z"/>
             <path fill="rgb(32,132,196)" stroke="none" d="M 8804,11315 L 10073,11315 10073,12677 8804,12677 8804,11315 Z M 8810,11322 L 10067,11322 10067,12670 8810,12670 8810,11322 Z"/>
             <path fill="rgb(33,133,196)" stroke="none" d="M 8810,11322 L 10067,11322 10067,12670 8810,12670 8810,11322 Z M 8817,11330 L 10060,11330 10060,12662 8817,12662 8817,11330 Z"/>
             <path fill="rgb(34,133,196)" stroke="none" d="M 8817,11330 L 10060,11330 10060,12662 8817,12662 8817,11330 Z M 8824,11337 L 10053,11337 10053,12655 8824,12655 8824,11337 Z"/>
             <path fill="rgb(35,134,197)" stroke="none" d="M 8824,11337 L 10053,11337 10053,12655 8824,12655 8824,11337 Z M 8830,11344 L 10047,11344 10047,12648 8830,12648 8830,11344 Z"/>
             <path fill="rgb(36,134,197)" stroke="none" d="M 8830,11344 L 10047,11344 10047,12648 8830,12648 8830,11344 Z M 8837,11351 L 10040,11351 10040,12641 8837,12641 8837,11351 Z"/>
             <path fill="rgb(37,135,197)" stroke="none" d="M 8837,11351 L 10040,11351 10040,12641 8837,12641 8837,11351 Z M 8844,11358 L 10033,11358 10033,12634 8844,12634 8844,11358 Z"/>
             <path fill="rgb(38,135,197)" stroke="none" d="M 8844,11358 L 10033,11358 10033,12634 8844,12634 8844,11358 Z M 8851,11365 L 10026,11365 10026,12627 8851,12627 8851,11365 Z"/>
             <path fill="rgb(39,136,198)" stroke="none" d="M 8851,11365 L 10026,11365 10026,12627 8851,12627 8851,11365 Z M 8857,11373 L 10020,11373 10020,12619 8857,12619 8857,11373 Z"/>
             <path fill="rgb(40,137,198)" stroke="none" d="M 8857,11373 L 10020,11373 10020,12619 8857,12619 8857,11373 Z M 8864,11380 L 10013,11380 10013,12612 8864,12612 8864,11380 Z"/>
             <path fill="rgb(41,137,198)" stroke="none" d="M 8864,11380 L 10013,11380 10013,12612 8864,12612 8864,11380 Z M 8871,11387 L 10006,11387 10006,12605 8871,12605 8871,11387 Z"/>
             <path fill="rgb(42,138,198)" stroke="none" d="M 8871,11387 L 10006,11387 10006,12605 8871,12605 8871,11387 Z M 8877,11394 L 10000,11394 10000,12598 8877,12598 8877,11394 Z"/>
             <path fill="rgb(43,138,199)" stroke="none" d="M 8877,11394 L 10000,11394 10000,12598 8877,12598 8877,11394 Z M 8884,11401 L 9993,11401 9993,12591 8884,12591 8884,11401 Z"/>
             <path fill="rgb(44,139,199)" stroke="none" d="M 8884,11401 L 9993,11401 9993,12591 8884,12591 8884,11401 Z M 8891,11408 L 9986,11408 9986,12584 8891,12584 8891,11408 Z"/>
             <path fill="rgb(45,139,199)" stroke="none" d="M 8891,11408 L 9986,11408 9986,12584 8891,12584 8891,11408 Z M 8897,11416 L 9980,11416 9980,12576 8897,12576 8897,11416 Z"/>
             <path fill="rgb(46,140,199)" stroke="none" d="M 8897,11416 L 9980,11416 9980,12576 8897,12576 8897,11416 Z M 8904,11423 L 9973,11423 9973,12569 8904,12569 8904,11423 Z"/>
             <path fill="rgb(47,140,200)" stroke="none" d="M 8904,11423 L 9973,11423 9973,12569 8904,12569 8904,11423 Z M 8910,11430 L 9966,11430 9966,12562 8910,12562 8910,11430 Z"/>
             <path fill="rgb(48,141,200)" stroke="none" d="M 8910,11430 L 9966,11430 9966,12562 8910,12562 8910,11430 Z M 8916,11436 L 9960,11436 9960,12555 8916,12555 8916,11436 Z"/>
             <path fill="rgb(49,142,200)" stroke="none" d="M 8916,11436 L 9960,11436 9960,12555 8916,12555 8916,11436 Z M 8923,11443 L 9953,11443 9953,12548 8923,12548 8923,11443 Z"/>
             <path fill="rgb(50,142,200)" stroke="none" d="M 8923,11443 L 9953,11443 9953,12548 8923,12548 8923,11443 Z M 8930,11451 L 9946,11451 9946,12540 8930,12540 8930,11451 Z"/>
             <path fill="rgb(51,143,201)" stroke="none" d="M 8930,11451 L 9946,11451 9946,12540 8930,12540 8930,11451 Z M 8937,11458 L 9939,11458 9939,12533 8937,12533 8937,11458 Z"/>
             <path fill="rgb(52,143,201)" stroke="none" d="M 8937,11458 L 9939,11458 9939,12533 8937,12533 8937,11458 Z M 8943,11465 L 9933,11465 9933,12526 8943,12526 8943,11465 Z"/>
             <path fill="rgb(53,144,201)" stroke="none" d="M 8943,11465 L 9933,11465 9933,12526 8943,12526 8943,11465 Z M 8950,11472 L 9926,11472 9926,12519 8950,12519 8950,11472 Z"/>
             <path fill="rgb(54,144,202)" stroke="none" d="M 8950,11472 L 9926,11472 9926,12519 8950,12519 8950,11472 Z M 8957,11479 L 9919,11479 9919,12512 8957,12512 8957,11479 Z"/>
             <path fill="rgb(55,145,202)" stroke="none" d="M 8957,11479 L 9919,11479 9919,12512 8957,12512 8957,11479 Z M 8963,11486 L 9913,11486 9913,12505 8963,12505 8963,11486 Z"/>
             <path fill="rgb(56,145,202)" stroke="none" d="M 8963,11486 L 9913,11486 9913,12505 8963,12505 8963,11486 Z M 8970,11494 L 9906,11494 9906,12497 8970,12497 8970,11494 Z"/>
             <path fill="rgb(57,146,202)" stroke="none" d="M 8970,11494 L 9906,11494 9906,12497 8970,12497 8970,11494 Z M 8977,11501 L 9899,11501 9899,12490 8977,12490 8977,11501 Z"/>
             <path fill="rgb(58,146,203)" stroke="none" d="M 8977,11501 L 9899,11501 9899,12490 8977,12490 8977,11501 Z M 8983,11508 L 9893,11508 9893,12483 8983,12483 8983,11508 Z"/>
             <path fill="rgb(59,147,203)" stroke="none" d="M 8983,11508 L 9893,11508 9893,12483 8983,12483 8983,11508 Z M 8990,11515 L 9886,11515 9886,12476 8990,12476 8990,11515 Z"/>
             <path fill="rgb(60,148,203)" stroke="none" d="M 8990,11515 L 9886,11515 9886,12476 8990,12476 8990,11515 Z M 8997,11522 L 9879,11522 9879,12469 8997,12469 8997,11522 Z"/>
             <path fill="rgb(61,148,203)" stroke="none" d="M 8997,11522 L 9879,11522 9879,12469 8997,12469 8997,11522 Z M 9003,11529 L 9873,11529 9873,12462 9003,12462 9003,11529 Z"/>
             <path fill="rgb(62,149,204)" stroke="none" d="M 9003,11529 L 9873,11529 9873,12462 9003,12462 9003,11529 Z M 9010,11537 L 9866,11537 9866,12454 9010,12454 9010,11537 Z"/>
             <path fill="rgb(63,149,204)" stroke="none" d="M 9010,11537 L 9866,11537 9866,12454 9010,12454 9010,11537 Z M 9017,11544 L 9859,11544 9859,12447 9017,12447 9017,11544 Z"/>
             <path fill="rgb(64,150,204)" stroke="none" d="M 9017,11544 L 9859,11544 9859,12447 9017,12447 9017,11544 Z M 9024,11551 L 9852,11551 9852,12440 9024,12440 9024,11551 Z"/>
             <path fill="rgb(65,150,204)" stroke="none" d="M 9024,11551 L 9852,11551 9852,12440 9024,12440 9024,11551 Z M 9030,11558 L 9846,11558 9846,12433 9030,12433 9030,11558 Z"/>
             <path fill="rgb(66,151,205)" stroke="none" d="M 9030,11558 L 9846,11558 9846,12433 9030,12433 9030,11558 Z M 9037,11565 L 9839,11565 9839,12426 9037,12426 9037,11565 Z"/>
             <path fill="rgb(67,151,205)" stroke="none" d="M 9037,11565 L 9839,11565 9839,12426 9037,12426 9037,11565 Z M 9044,11573 L 9832,11573 9832,12418 9044,12418 9044,11573 Z"/>
             <path fill="rgb(68,152,205)" stroke="none" d="M 9044,11573 L 9832,11573 9832,12418 9044,12418 9044,11573 Z M 9050,11580 L 9826,11580 9826,12411 9050,12411 9050,11580 Z"/>
             <path fill="rgb(69,153,205)" stroke="none" d="M 9050,11580 L 9826,11580 9826,12411 9050,12411 9050,11580 Z M 9057,11587 L 9819,11587 9819,12404 9057,12404 9057,11587 Z"/>
             <path fill="rgb(70,153,206)" stroke="none" d="M 9057,11587 L 9819,11587 9819,12404 9057,12404 9057,11587 Z M 9064,11594 L 9812,11594 9812,12397 9064,12397 9064,11594 Z"/>
             <path fill="rgb(71,154,206)" stroke="none" d="M 9064,11594 L 9812,11594 9812,12397 9064,12397 9064,11594 Z M 9070,11601 L 9806,11601 9806,12390 9070,12390 9070,11601 Z"/>
             <path fill="rgb(72,154,206)" stroke="none" d="M 9070,11601 L 9806,11601 9806,12390 9070,12390 9070,11601 Z M 9077,11608 L 9799,11608 9799,12383 9077,12383 9077,11608 Z"/>
             <path fill="rgb(73,155,206)" stroke="none" d="M 9077,11608 L 9799,11608 9799,12383 9077,12383 9077,11608 Z M 9084,11616 L 9792,11616 9792,12375 9084,12375 9084,11616 Z"/>
             <path fill="rgb(74,155,207)" stroke="none" d="M 9084,11616 L 9792,11616 9792,12375 9084,12375 9084,11616 Z M 9090,11623 L 9786,11623 9786,12368 9090,12368 9090,11623 Z"/>
             <path fill="rgb(75,156,207)" stroke="none" d="M 9090,11623 L 9786,11623 9786,12368 9090,12368 9090,11623 Z M 9097,11630 L 9779,11630 9779,12361 9097,12361 9097,11630 Z"/>
             <path fill="rgb(76,156,207)" stroke="none" d="M 9097,11630 L 9779,11630 9779,12361 9097,12361 9097,11630 Z M 9104,11637 L 9772,11637 9772,12354 9104,12354 9104,11637 Z"/>
             <path fill="rgb(77,157,208)" stroke="none" d="M 9104,11637 L 9772,11637 9772,12354 9104,12354 9104,11637 Z M 9111,11644 L 9765,11644 9765,12347 9111,12347 9111,11644 Z"/>
             <path fill="rgb(78,157,208)" stroke="none" d="M 9111,11644 L 9765,11644 9765,12347 9111,12347 9111,11644 Z M 9117,11651 L 9759,11651 9759,12340 9117,12340 9117,11651 Z"/>
             <path fill="rgb(79,158,208)" stroke="none" d="M 9117,11651 L 9759,11651 9759,12340 9117,12340 9117,11651 Z M 9124,11659 L 9752,11659 9752,12332 9124,12332 9124,11659 Z"/>
             <path fill="rgb(80,159,208)" stroke="none" d="M 9124,11659 L 9752,11659 9752,12332 9124,12332 9124,11659 Z M 9131,11666 L 9745,11666 9745,12325 9131,12325 9131,11666 Z"/>
             <path fill="rgb(81,159,209)" stroke="none" d="M 9131,11666 L 9745,11666 9745,12325 9131,12325 9131,11666 Z M 9137,11673 L 9739,11673 9739,12318 9137,12318 9137,11673 Z"/>
             <path fill="rgb(82,160,209)" stroke="none" d="M 9137,11673 L 9739,11673 9739,12318 9137,12318 9137,11673 Z M 9144,11680 L 9732,11680 9732,12311 9144,12311 9144,11680 Z"/>
             <path fill="rgb(83,160,209)" stroke="none" d="M 9144,11680 L 9732,11680 9732,12311 9144,12311 9144,11680 Z M 9151,11687 L 9725,11687 9725,12304 9151,12304 9151,11687 Z"/>
             <path fill="rgb(84,161,209)" stroke="none" d="M 9151,11687 L 9725,11687 9725,12304 9151,12304 9151,11687 Z M 9157,11695 L 9719,11695 9719,12296 9157,12296 9157,11695 Z"/>
             <path fill="rgb(85,161,210)" stroke="none" d="M 9157,11695 L 9719,11695 9719,12296 9157,12296 9157,11695 Z M 9164,11702 L 9712,11702 9712,12289 9164,12289 9164,11702 Z"/>
             <path fill="rgb(86,162,210)" stroke="none" d="M 9164,11702 L 9712,11702 9712,12289 9164,12289 9164,11702 Z M 9171,11709 L 9705,11709 9705,12282 9171,12282 9171,11709 Z"/>
             <path fill="rgb(87,162,210)" stroke="none" d="M 9171,11709 L 9705,11709 9705,12282 9171,12282 9171,11709 Z M 9177,11716 L 9699,11716 9699,12275 9177,12275 9177,11716 Z"/>
             <path fill="rgb(88,163,210)" stroke="none" d="M 9177,11716 L 9699,11716 9699,12275 9177,12275 9177,11716 Z M 9184,11723 L 9692,11723 9692,12268 9184,12268 9184,11723 Z"/>
             <path fill="rgb(89,164,211)" stroke="none" d="M 9184,11723 L 9692,11723 9692,12268 9184,12268 9184,11723 Z M 9191,11730 L 9685,11730 9685,12261 9191,12261 9191,11730 Z"/>
             <path fill="rgb(90,164,211)" stroke="none" d="M 9191,11730 L 9685,11730 9685,12261 9191,12261 9191,11730 Z M 9198,11738 L 9678,11738 9678,12253 9198,12253 9198,11738 Z"/>
             <path fill="rgb(91,165,211)" stroke="none" d="M 9198,11738 L 9678,11738 9678,12253 9198,12253 9198,11738 Z M 9204,11745 L 9672,11745 9672,12246 9204,12246 9204,11745 Z"/>
             <path fill="rgb(92,165,211)" stroke="none" d="M 9204,11745 L 9672,11745 9672,12246 9204,12246 9204,11745 Z M 9211,11752 L 9665,11752 9665,12239 9211,12239 9211,11752 Z"/>
             <path fill="rgb(93,166,212)" stroke="none" d="M 9211,11752 L 9665,11752 9665,12239 9211,12239 9211,11752 Z M 9218,11759 L 9658,11759 9658,12232 9218,12232 9218,11759 Z"/>
             <path fill="rgb(94,166,212)" stroke="none" d="M 9218,11759 L 9658,11759 9658,12232 9218,12232 9218,11759 Z M 9224,11766 L 9652,11766 9652,12225 9224,12225 9224,11766 Z"/>
             <path fill="rgb(95,167,212)" stroke="none" d="M 9224,11766 L 9652,11766 9652,12225 9224,12225 9224,11766 Z M 9231,11774 L 9645,11774 9645,12217 9231,12217 9231,11774 Z"/>
             <path fill="rgb(96,167,212)" stroke="none" d="M 9231,11774 L 9645,11774 9645,12217 9231,12217 9231,11774 Z M 9238,11781 L 9638,11781 9638,12210 9238,12210 9238,11781 Z"/>
             <path fill="rgb(97,168,213)" stroke="none" d="M 9238,11781 L 9638,11781 9638,12210 9238,12210 9238,11781 Z M 9244,11788 L 9632,11788 9632,12203 9244,12203 9244,11788 Z"/>
             <path fill="rgb(98,169,213)" stroke="none" d="M 9244,11788 L 9632,11788 9632,12203 9244,12203 9244,11788 Z M 9251,11795 L 9625,11795 9625,12196 9251,12196 9251,11795 Z"/>
             <path fill="rgb(99,169,213)" stroke="none" d="M 9251,11795 L 9625,11795 9625,12196 9251,12196 9251,11795 Z M 9258,11802 L 9618,11802 9618,12189 9258,12189 9258,11802 Z"/>
             <path fill="rgb(100,170,213)" stroke="none" d="M 9258,11802 L 9618,11802 9618,12189 9258,12189 9258,11802 Z M 9264,11809 L 9612,11809 9612,12182 9264,12182 9264,11809 Z"/>
             <path fill="rgb(101,170,214)" stroke="none" d="M 9264,11809 L 9612,11809 9612,12182 9264,12182 9264,11809 Z M 9271,11817 L 9605,11817 9605,12174 9271,12174 9271,11817 Z"/>
             <path fill="rgb(102,171,214)" stroke="none" d="M 9271,11817 L 9605,11817 9605,12174 9271,12174 9271,11817 Z M 9278,11824 L 9598,11824 9598,12167 9278,12167 9278,11824 Z"/>
             <path fill="rgb(103,171,214)" stroke="none" d="M 9278,11824 L 9598,11824 9598,12167 9278,12167 9278,11824 Z M 9285,11831 L 9591,11831 9591,12160 9285,12160 9285,11831 Z"/>
             <path fill="rgb(104,172,215)" stroke="none" d="M 9285,11831 L 9591,11831 9591,12160 9285,12160 9285,11831 Z M 9291,11838 L 9585,11838 9585,12153 9291,12153 9291,11838 Z"/>
             <path fill="rgb(105,172,215)" stroke="none" d="M 9291,11838 L 9585,11838 9585,12153 9291,12153 9291,11838 Z M 9298,11845 L 9578,11845 9578,12146 9298,12146 9298,11845 Z"/>
             <path fill="rgb(106,173,215)" stroke="none" d="M 9298,11845 L 9578,11845 9578,12146 9298,12146 9298,11845 Z M 9305,11852 L 9571,11852 9571,12139 9305,12139 9305,11852 Z"/>
             <path fill="rgb(107,173,215)" stroke="none" d="M 9305,11852 L 9571,11852 9571,12139 9305,12139 9305,11852 Z M 9311,11860 L 9565,11860 9565,12131 9311,12131 9311,11860 Z"/>
             <path fill="rgb(108,174,216)" stroke="none" d="M 9311,11860 L 9565,11860 9565,12131 9311,12131 9311,11860 Z M 9318,11867 L 9558,11867 9558,12124 9318,12124 9318,11867 Z"/>
             <path fill="rgb(109,175,216)" stroke="none" d="M 9318,11867 L 9558,11867 9558,12124 9318,12124 9318,11867 Z M 9325,11874 L 9551,11874 9551,12117 9325,12117 9325,11874 Z"/>
             <path fill="rgb(110,175,216)" stroke="none" d="M 9325,11874 L 9551,11874 9551,12117 9325,12117 9325,11874 Z M 9331,11881 L 9545,11881 9545,12110 9331,12110 9331,11881 Z"/>
             <path fill="rgb(111,176,216)" stroke="none" d="M 9331,11881 L 9545,11881 9545,12110 9331,12110 9331,11881 Z M 9338,11888 L 9538,11888 9538,12103 9338,12103 9338,11888 Z"/>
             <path fill="rgb(112,176,217)" stroke="none" d="M 9338,11888 L 9538,11888 9538,12103 9338,12103 9338,11888 Z M 9345,11896 L 9531,11896 9531,12095 9345,12095 9345,11896 Z"/>
             <path fill="rgb(113,177,217)" stroke="none" d="M 9345,11896 L 9531,11896 9531,12095 9345,12095 9345,11896 Z M 9351,11903 L 9525,11903 9525,12088 9351,12088 9351,11903 Z"/>
             <path fill="rgb(114,177,217)" stroke="none" d="M 9351,11903 L 9525,11903 9525,12088 9351,12088 9351,11903 Z M 9358,11910 L 9518,11910 9518,12081 9358,12081 9358,11910 Z"/>
             <path fill="rgb(115,178,217)" stroke="none" d="M 9358,11910 L 9518,11910 9518,12081 9358,12081 9358,11910 Z M 9365,11917 L 9511,11917 9511,12074 9365,12074 9365,11917 Z"/>
             <path fill="rgb(116,178,218)" stroke="none" d="M 9365,11917 L 9511,11917 9511,12074 9365,12074 9365,11917 Z M 9372,11924 L 9504,11924 9504,12067 9372,12067 9372,11924 Z"/>
             <path fill="rgb(117,179,218)" stroke="none" d="M 9372,11924 L 9504,11924 9504,12067 9372,12067 9372,11924 Z M 9378,11931 L 9498,11931 9498,12060 9378,12060 9378,11931 Z"/>
             <path fill="rgb(118,180,218)" stroke="none" d="M 9378,11931 L 9498,11931 9498,12060 9378,12060 9378,11931 Z M 9385,11939 L 9491,11939 9491,12052 9385,12052 9385,11939 Z"/>
             <path fill="rgb(119,180,218)" stroke="none" d="M 9385,11939 L 9491,11939 9491,12052 9385,12052 9385,11939 Z M 9392,11946 L 9484,11946 9484,12045 9392,12045 9392,11946 Z"/>
             <path fill="rgb(120,181,219)" stroke="none" d="M 9392,11946 L 9484,11946 9484,12045 9392,12045 9392,11946 Z M 9398,11953 L 9478,11953 9478,12038 9398,12038 9398,11953 Z"/>
             <path fill="rgb(121,181,219)" stroke="none" d="M 9398,11953 L 9478,11953 9478,12038 9398,12038 9398,11953 Z M 9405,11960 L 9471,11960 9471,12031 9405,12031 9405,11960 Z"/>
             <path fill="rgb(122,182,219)" stroke="none" d="M 9405,11960 L 9471,11960 9471,12031 9405,12031 9405,11960 Z M 9412,11967 L 9464,11967 9464,12024 9412,12024 9412,11967 Z"/>
             <path fill="rgb(123,182,219)" stroke="none" d="M 9412,11967 L 9464,11967 9464,12024 9412,12024 9412,11967 Z M 9418,11974 L 9458,11974 9458,12017 9418,12017 9418,11974 Z"/>
             <path fill="rgb(124,183,220)" stroke="none" d="M 9418,11974 L 9458,11974 9458,12017 9418,12017 9418,11974 Z M 9425,11982 L 9451,11982 9451,12009 9425,12009 9425,11982 Z"/>
             <path fill="rgb(125,183,220)" stroke="none" d="M 9425,11982 L 9451,11982 9451,12009 9425,12009 9425,11982 Z M 9432,11989 L 9444,11989 9444,12002 9432,12002 9432,11989 Z"/>
             <path fill="rgb(127,185,221)" stroke="none" d="M 9432,11989 L 9444,11989 9444,12002 9432,12002 9432,11989 Z"/>
            </g>
           </pattern>
          </defs>
          <path style="fill:url(#pattern1)" d="M 8930,13271 L 8930,12431 10627,11451 10627,12291 8930,13271 Z"/>
         </g>
         <path fill="none" stroke="rgb(255,255,255)" stroke-width="40" stroke-linejoin="round" d="M 8930,13271 L 8930,12431 10627,11451 10627,12291 8930,13271 Z"/>
        </g>
       </g>
       <g class="com.sun.star.drawing.PolyPolygonShape">
        <g id="id6">
         <rect class="BoundingBox" stroke="none" fill="none" x="7212" y="10451" width="3436" height="2002"/>
         <g>
          <defs>
           <linearGradient id="gradient2" x1="8929" y1="10471" x2="8929" y2="12431" gradientUnits="userSpaceOnUse">
            <stop offset="0.1" style="stop-color:rgb(0,115,188)"/>
            <stop offset="1" style="stop-color:rgb(127,185,221)"/>
           </linearGradient>
          </defs>
          <path style="fill:url(#gradient2)" d="M 8930,12431 L 7232,11451 8930,10471 10627,11451 8930,12431 Z"/>
         </g>
         <path fill="none" stroke="rgb(255,255,255)" stroke-width="40" stroke-linejoin="round" d="M 8930,12431 L 7232,11451 8930,10471 10627,11451 8930,12431 Z"/>
        </g>
       </g>
       <g class="com.sun.star.drawing.PolyPolygonShape">
        <g id="id7">
         <rect class="BoundingBox" stroke="none" fill="none" x="7212" y="10451" width="3436" height="2841"/>
         <path fill="none" stroke="rgb(0,0,0)" stroke-width="40" stroke-linejoin="round" d="M 7232,12291 L 7232,11451 8930,10471 10627,11451 10627,12291 8930,13271 7232,12291 Z"/>
        </g>
       </g>
       <g class="com.sun.star.drawing.PolyPolygonShape">
        <g id="id8">
         <rect class="BoundingBox" stroke="none" fill="none" x="7940" y="11151" width="1132" height="531"/>
         <path fill="rgb(255,255,255)" stroke="none" d="M 8324,11171 L 8203,11241 8688,11521 9051,11591 8930,11661 8566,11591 8081,11311 7960,11381 7960,11171 8324,11171 Z"/>
         <path fill="none" stroke="rgb(255,255,255)" stroke-width="40" stroke-linejoin="round" d="M 8324,11171 L 8203,11241 8688,11521 9051,11591 8930,11661 8566,11591 8081,11311 7960,11381 7960,11171 8324,11171 Z"/>
        </g>
       </g>
       <g class="com.sun.star.drawing.PolyPolygonShape">
        <g id="id9">
         <rect class="BoundingBox" stroke="none" fill="none" x="8788" y="11221" width="1133" height="532"/>
         <path fill="rgb(255,255,255)" stroke="none" d="M 9779,11591 L 9900,11521 9900,11731 9536,11731 9657,11661 9173,11381 8808,11311 8930,11241 9294,11311 9779,11591 Z"/>
         <path fill="none" stroke="rgb(255,255,255)" stroke-width="40" stroke-linejoin="round" d="M 9779,11591 L 9900,11521 9900,11731 9536,11731 9657,11661 9173,11381 8808,11311 8930,11241 9294,11311 9779,11591 Z"/>
        </g>
       </g>
       <g class="com.sun.star.drawing.PolyPolygonShape">
        <g id="id10">
         <rect class="BoundingBox" stroke="none" fill="none" x="8425" y="11361" width="889" height="671"/>
         <path fill="rgb(255,255,255)" stroke="none" d="M 8566,11871 L 9052,11591 9172,11381 9293,11451 9173,11661 8687,11941 8808,12011 8445,12011 8445,11801 8566,11871 Z"/>
         <path fill="none" stroke="rgb(255,255,255)" stroke-width="40" stroke-linejoin="round" d="M 8566,11871 L 9052,11591 9172,11381 9293,11451 9173,11661 8687,11941 8808,12011 8445,12011 8445,11801 8566,11871 Z"/>
        </g>
       </g>
       <g class="com.sun.star.drawing.PolyPolygonShape">
        <g id="id11">
         <rect class="BoundingBox" stroke="none" fill="none" x="8545" y="10871" width="890" height="671"/>
         <path fill="rgb(255,255,255)" stroke="none" d="M 9171,10961 L 9050,10891 9414,10891 9414,11101 9293,11031 8808,11311 8687,11521 8566,11451 8687,11241 9171,10961 Z"/>
         <path fill="none" stroke="rgb(255,255,255)" stroke-width="40" stroke-linejoin="round" d="M 9171,10961 L 9050,10891 9414,10891 9414,11101 9293,11031 8808,11311 8687,11521 8566,11451 8687,11241 9171,10961 Z"/>
        </g>
       </g>
      </g>
     </g>
    </g>
   </g>
  </g>
 </g>
</svg>