<?xml version="1.0" encoding="UTF-8"?>
<!DOCTYPE svg PUBLIC "-//W3C//DTD SVG 1.1//EN" "http://www.w3.org/Graphics/SVG/1.1/DTD/svg11.dtd">
<svg version="1.2" width="23.41mm" height="34mm" viewBox="10030 20023 2341 3400" preserveAspectRatio="xMidYMid" fill-rule="evenodd" stroke-width="28.222" stroke-linejoin="round" xmlns="http://www.w3.org/2000/svg" xmlns:ooo="http://xml.openoffice.org/svg/export" xmlns:xlink="http://www.w3.org/1999/xlink" xmlns:presentation="http://sun.com/xmlns/staroffice/presentation" xmlns:smil="http://www.w3.org/2001/SMIL20/" xmlns:anim="urn:oasis:names:tc:opendocument:xmlns:animation:1.0" xml:space="preserve">
 <defs class="ClipPathGroup">
  <clipPath id="presentation_clip_path" clipPathUnits="userSpaceOnUse">
   <rect x="10030" y="20023" width="2341" height="3400"/>
  </clipPath>
 </defs>
 <defs class="TextShapeIndex">
  <g ooo:slide="id1" ooo:id-list="id3 id4 id5 id6 id7 id8 id9 id10 id11"/>
 </defs>
 <defs class="EmbeddedBulletChars">
  <g id="bullet-char-template(57356)" transform="scale(0.00048828125,-0.00048828125)">
   <path d="M 580,1141 L 1163,571 580,0 -4,571 580,1141 Z"/>
  </g>
  <g id="bullet-char-template(57354)" transform="scale(0.00048828125,-0.00048828125)">
   <path d="M 8,1128 L 1137,1128 1137,0 8,0 8,1128 Z"/>
  </g>
  <g id="bullet-char-template(10146)" transform="scale(0.00048828125,-0.00048828125)">
   <path d="M 174,0 L 602,739 174,1481 1456,739 174,0 Z M 1358,739 L 309,1346 659,739 1358,739 Z"/>
  </g>
  <g id="bullet-char-template(10132)" transform="scale(0.00048828125,-0.00048828125)">
   <path d="M 2015,739 L 1276,0 717,0 1260,543 174,543 174,936 1260,936 717,1481 1274,1481 2015,739 Z"/>
  </g>
  <g id="bullet-char-template(10007)" transform="scale(0.00048828125,-0.00048828125)">
   <path d="M 0,-2 C -7,14 -16,27 -25,37 L 356,567 C 262,823 215,952 215,954 215,979 228,992 255,992 264,992 276,990 289,987 310,991 331,999 354,1012 L 381,999 492,748 772,1049 836,1024 860,1049 C 881,1039 901,1025 922,1006 886,937 835,863 770,784 769,783 710,716 594,584 L 774,223 C 774,196 753,168 711,139 L 727,119 C 717,90 699,76 672,76 641,76 570,178 457,381 L 164,-76 C 142,-110 111,-127 72,-127 30,-127 9,-110 8,-76 1,-67 -2,-52 -2,-32 -2,-23 -1,-13 0,-2 Z"/>
  </g>
  <g id="bullet-char-template(10004)" transform="scale(0.00048828125,-0.00048828125)">
   <path d="M 285,-33 C 182,-33 111,30 74,156 52,228 41,333 41,471 41,549 55,616 82,672 116,743 169,778 240,778 293,778 328,747 346,684 L 369,508 C 377,444 397,411 428,410 L 1163,1116 C 1174,1127 1196,1133 1229,1133 1271,1133 1292,1118 1292,1087 L 1292,965 C 1292,929 1282,901 1262,881 L 442,47 C 390,-6 338,-33 285,-33 Z"/>
  </g>
  <g id="bullet-char-template(9679)" transform="scale(0.00048828125,-0.00048828125)">
   <path d="M 813,0 C 632,0 489,54 383,161 276,268 223,411 223,592 223,773 276,916 383,1023 489,1130 632,1184 813,1184 992,1184 1136,1130 1245,1023 1353,916 1407,772 1407,592 1407,412 1353,268 1245,161 1136,54 992,0 813,0 Z"/>
  </g>
  <g id="bullet-char-template(8226)" transform="scale(0.00048828125,-0.00048828125)">
   <path d="M 346,457 C 273,457 209,483 155,535 101,586 74,649 74,723 74,796 101,859 155,911 209,963 273,989 346,989 419,989 480,963 531,910 582,859 608,796 608,723 608,648 583,586 532,535 482,483 420,457 346,457 Z"/>
  </g>
  <g id="bullet-char-template(8211)" transform="scale(0.00048828125,-0.00048828125)">
   <path d="M -4,459 L 1135,459 1135,606 -4,606 -4,459 Z"/>
  </g>
 </defs>
 <defs class="TextEmbeddedBitmaps"/>
 <g class="SlideGroup">
  <g>
   <g id="id1" class="Slide" clip-path="url(#presentation_clip_path)">
    <g class="Page">
     <g class="Group">
      <g class="com.sun.star.drawing.ClosedBezierShape">
       <g id="id3">
        <rect class="BoundingBox" stroke="none" fill="none" x="10693" y="22282" width="1679" height="1123"/>
        <path fill="rgb(221,221,221)" stroke="none" d="M 10694,23403 C 11048,23403 12370,23030 12370,22731 12370,22432 12337,22283 11984,22283 11984,22508 10694,23103 10694,23403 Z"/>
        <path fill="none" stroke="rgb(221,221,221)" d="M 10694,23403 C 11048,23403 12370,23030 12370,22731 12370,22432 12337,22283 11984,22283 11984,22508 10694,23103 10694,23403 Z"/>
       </g>
      </g>
      <g class="Group">
       <g class="com.sun.star.drawing.PolyPolygonShape">
        <g id="id4">
         <rect class="BoundingBox" stroke="none" fill="none" x="10673" y="20396" width="1332" height="3029"/>
         <g>
          <defs>
           <pattern id="pattern1" x="10694" y="20416" width="1291" height="2988" patternUnits="userSpaceOnUse">
            <g transform="translate(-10694,-20416)">
             <path fill="rgb(51,51,51)" stroke="none" d="M 10693,20415 L 11985,20415 11985,23404 10693,23404 10693,20415 Z M 10441,19832 L 11719,19832 11719,22791 10441,22791 10441,19832 Z"/>
             <path fill="rgb(52,52,52)" stroke="none" d="M 10441,19832 L 11719,19832 11719,22791 10441,22791 10441,19832 Z M 10447,19847 L 11713,19847 11713,22776 10447,22776 10447,19847 Z"/>
             <path fill="rgb(53,53,53)" stroke="none" d="M 10447,19847 L 11713,19847 11713,22776 10447,22776 10447,19847 Z M 10454,19861 L 11706,19861 11706,22762 10454,22762 10454,19861 Z"/>
             <path fill="rgb(54,54,54)" stroke="none" d="M 10454,19861 L 11706,19861 11706,22762 10454,22762 10454,19861 Z M 10460,19876 L 11700,19876 11700,22747 10460,22747 10460,19876 Z"/>
             <path fill="rgb(55,55,55)" stroke="none" d="M 10460,19876 L 11700,19876 11700,22747 10460,22747 10460,19876 Z M 10466,19891 L 11694,19891 11694,22732 10466,22732 10466,19891 Z"/>
             <path fill="rgb(56,56,56)" stroke="none" d="M 10466,19891 L 11694,19891 11694,22732 10466,22732 10466,19891 Z M 10473,19905 L 11687,19905 11687,22718 10473,22718 10473,19905 Z"/>
             <path fill="rgb(57,57,57)" stroke="none" d="M 10473,19905 L 11687,19905 11687,22718 10473,22718 10473,19905 Z M 10479,19920 L 11681,19920 11681,22703 10479,22703 10479,19920 Z"/>
             <path fill="rgb(58,58,58)" stroke="none" d="M 10479,19920 L 11681,19920 11681,22703 10479,22703 10479,19920 Z M 10485,19935 L 11675,19935 11675,22688 10485,22688 10485,19935 Z"/>
             <path fill="rgb(59,59,59)" stroke="none" d="M 10485,19935 L 11675,19935 11675,22688 10485,22688 10485,19935 Z M 10492,19949 L 11668,19949 11668,22674 10492,22674 10492,19949 Z"/>
             <path fill="rgb(60,60,60)" stroke="none" d="M 10492,19949 L 11668,19949 11668,22674 10492,22674 10492,19949 Z M 10498,19964 L 11662,19964 11662,22659 10498,22659 10498,19964 Z"/>
             <path fill="rgb(61,61,61)" stroke="none" d="M 10498,19964 L 11662,19964 11662,22659 10498,22659 10498,19964 Z M 10504,19979 L 11656,19979 11656,22644 10504,22644 10504,19979 Z"/>
             <path fill="rgb(62,62,62)" stroke="none" d="M 10504,19979 L 11656,19979 11656,22644 10504,22644 10504,19979 Z M 10511,19993 L 11649,19993 11649,22630 10511,22630 10511,19993 Z"/>
             <path fill="rgb(63,63,63)" stroke="none" d="M 10511,19993 L 11649,19993 11649,22630 10511,22630 10511,19993 Z M 10517,20008 L 11643,20008 11643,22615 10517,22615 10517,20008 Z"/>
             <path fill="rgb(64,64,64)" stroke="none" d="M 10517,20008 L 11643,20008 11643,22615 10517,22615 10517,20008 Z M 10523,20023 L 11637,20023 11637,22600 10523,22600 10523,20023 Z"/>
             <path fill="rgb(65,65,65)" stroke="none" d="M 10523,20023 L 11637,20023 11637,22600 10523,22600 10523,20023 Z M 10530,20037 L 11630,20037 11630,22586 10530,22586 10530,20037 Z"/>
             <path fill="rgb(66,66,66)" stroke="none" d="M 10530,20037 L 11630,20037 11630,22586 10530,22586 10530,20037 Z M 10536,20052 L 11624,20052 11624,22571 10536,22571 10536,20052 Z"/>
             <path fill="rgb(67,67,67)" stroke="none" d="M 10536,20052 L 11624,20052 11624,22571 10536,22571 10536,20052 Z M 10542,20067 L 11618,20067 11618,22556 10542,22556 10542,20067 Z"/>
             <path fill="rgb(68,68,68)" stroke="none" d="M 10542,20067 L 11618,20067 11618,22556 10542,22556 10542,20067 Z M 10549,20081 L 11611,20081 11611,22542 10549,22542 10549,20081 Z"/>
             <path fill="rgb(69,69,69)" stroke="none" d="M 10549,20081 L 11611,20081 11611,22542 10549,22542 10549,20081 Z M 10555,20096 L 11605,20096 11605,22527 10555,22527 10555,20096 Z"/>
             <path fill="rgb(70,70,70)" stroke="none" d="M 10555,20096 L 11605,20096 11605,22527 10555,22527 10555,20096 Z M 10561,20111 L 11599,20111 11599,22512 10561,22512 10561,20111 Z"/>
             <path fill="rgb(71,71,71)" stroke="none" d="M 10561,20111 L 11599,20111 11599,22512 10561,22512 10561,20111 Z M 10568,20125 L 11592,20125 11592,22498 10568,22498 10568,20125 Z"/>
             <path fill="rgb(72,72,72)" stroke="none" d="M 10568,20125 L 11592,20125 11592,22498 10568,22498 10568,20125 Z M 10574,20140 L 11586,20140 11586,22483 10574,22483 10574,20140 Z"/>
             <path fill="rgb(73,73,73)" stroke="none" d="M 10574,20140 L 11586,20140 11586,22483 10574,22483 10574,20140 Z M 10580,20155 L 11580,20155 11580,22468 10580,22468 10580,20155 Z"/>
             <path fill="rgb(74,74,74)" stroke="none" d="M 10580,20155 L 11580,20155 11580,22468 10580,22468 10580,20155 Z M 10587,20169 L 11573,20169 11573,22454 10587,22454 10587,20169 Z"/>
             <path fill="rgb(75,75,75)" stroke="none" d="M 10587,20169 L 11573,20169 11573,22454 10587,22454 10587,20169 Z M 10593,20184 L 11567,20184 11567,22439 10593,22439 10593,20184 Z"/>
             <path fill="rgb(76,76,76)" stroke="none" d="M 10593,20184 L 11567,20184 11567,22439 10593,22439 10593,20184 Z M 10599,20199 L 11561,20199 11561,22424 10599,22424 10599,20199 Z"/>
             <path fill="rgb(77,77,77)" stroke="none" d="M 10599,20199 L 11561,20199 11561,22424 10599,22424 10599,20199 Z M 10606,20213 L 11554,20213 11554,22410 10606,22410 10606,20213 Z"/>
             <path fill="rgb(78,78,78)" stroke="none" d="M 10606,20213 L 11554,20213 11554,22410 10606,22410 10606,20213 Z M 10612,20228 L 11548,20228 11548,22395 10612,22395 10612,20228 Z"/>
             <path fill="rgb(79,79,79)" stroke="none" d="M 10612,20228 L 11548,20228 11548,22395 10612,22395 10612,20228 Z M 10618,20243 L 11542,20243 11542,22380 10618,22380 10618,20243 Z"/>
             <path fill="rgb(80,80,80)" stroke="none" d="M 10618,20243 L 11542,20243 11542,22380 10618,22380 10618,20243 Z M 10625,20257 L 11535,20257 11535,22366 10625,22366 10625,20257 Z"/>
             <path fill="rgb(81,81,81)" stroke="none" d="M 10625,20257 L 11535,20257 11535,22366 10625,22366 10625,20257 Z M 10631,20272 L 11529,20272 11529,22351 10631,22351 10631,20272 Z"/>
             <path fill="rgb(82,82,82)" stroke="none" d="M 10631,20272 L 11529,20272 11529,22351 10631,22351 10631,20272 Z M 10637,20287 L 11523,20287 11523,22336 10637,22336 10637,20287 Z"/>
             <path fill="rgb(83,83,83)" stroke="none" d="M 10637,20287 L 11523,20287 11523,22336 10637,22336 10637,20287 Z M 10644,20301 L 11516,20301 11516,22322 10644,22322 10644,20301 Z"/>
             <path fill="rgb(84,84,84)" stroke="none" d="M 10644,20301 L 11516,20301 11516,22322 10644,22322 10644,20301 Z M 10650,20316 L 11510,20316 11510,22307 10650,22307 10650,20316 Z"/>
             <path fill="rgb(85,85,85)" stroke="none" d="M 10650,20316 L 11510,20316 11510,22307 10650,22307 10650,20316 Z M 10656,20330 L 11504,20330 11504,22293 10656,22293 10656,20330 Z"/>
             <path fill="rgb(86,86,86)" stroke="none" d="M 10656,20330 L 11504,20330 11504,22293 10656,22293 10656,20330 Z M 10663,20345 L 11497,20345 11497,22278 10663,22278 10663,20345 Z"/>
             <path fill="rgb(87,87,87)" stroke="none" d="M 10663,20345 L 11497,20345 11497,22278 10663,22278 10663,20345 Z M 10669,20360 L 11491,20360 11491,22263 10669,22263 10669,20360 Z"/>
             <path fill="rgb(88,88,88)" stroke="none" d="M 10669,20360 L 11491,20360 11491,22263 10669,22263 10669,20360 Z M 10674,20374 L 11485,20374 11485,22249 10674,22249 10674,20374 Z"/>
             <path fill="rgb(89,89,89)" stroke="none" d="M 10674,20374 L 11485,20374 11485,22249 10674,22249 10674,20374 Z M 10681,20389 L 11478,20389 11478,22234 10681,22234 10681,20389 Z"/>
             <path fill="rgb(90,90,90)" stroke="none" d="M 10681,20389 L 11478,20389 11478,22234 10681,22234 10681,20389 Z M 10687,20403 L 11472,20403 11472,22219 10687,22219 10687,20403 Z"/>
             <path fill="rgb(91,91,91)" stroke="none" d="M 10687,20403 L 11472,20403 11472,22219 10687,22219 10687,20403 Z M 10693,20417 L 11466,20417 11466,22205 10693,22205 10693,20417 Z"/>
             <path fill="rgb(92,92,92)" stroke="none" d="M 10693,20417 L 11466,20417 11466,22205 10693,22205 10693,20417 Z M 10700,20432 L 11459,20432 11459,22190 10700,22190 10700,20432 Z"/>
             <path fill="rgb(93,93,93)" stroke="none" d="M 10700,20432 L 11459,20432 11459,22190 10700,22190 10700,20432 Z M 10706,20447 L 11453,20447 11453,22175 10706,22175 10706,20447 Z"/>
             <path fill="rgb(94,94,94)" stroke="none" d="M 10706,20447 L 11453,20447 11453,22175 10706,22175 10706,20447 Z M 10712,20461 L 11447,20461 11447,22161 10712,22161 10712,20461 Z"/>
             <path fill="rgb(95,95,95)" stroke="none" d="M 10712,20461 L 11447,20461 11447,22161 10712,22161 10712,20461 Z M 10719,20476 L 11440,20476 11440,22146 10719,22146 10719,20476 Z"/>
             <path fill="rgb(96,96,96)" stroke="none" d="M 10719,20476 L 11440,20476 11440,22146 10719,22146 10719,20476 Z M 10725,20491 L 11434,20491 11434,22131 10725,22131 10725,20491 Z"/>
             <path fill="rgb(97,97,97)" stroke="none" d="M 10725,20491 L 11434,20491 11434,22131 10725,22131 10725,20491 Z M 10731,20505 L 11428,20505 11428,22117 10731,22117 10731,20505 Z"/>
             <path fill="rgb(98,98,98)" stroke="none" d="M 10731,20505 L 11428,20505 11428,22117 10731,22117 10731,20505 Z M 10738,20520 L 11421,20520 11421,22102 10738,22102 10738,20520 Z"/>
             <path fill="rgb(99,99,99)" stroke="none" d="M 10738,20520 L 11421,20520 11421,22102 10738,22102 10738,20520 Z M 10744,20535 L 11415,20535 11415,22087 10744,22087 10744,20535 Z"/>
             <path fill="rgb(100,100,100)" stroke="none" d="M 10744,20535 L 11415,20535 11415,22087 10744,22087 10744,20535 Z M 10750,20549 L 11409,20549 11409,22073 10750,22073 10750,20549 Z"/>
             <path fill="rgb(101,101,101)" stroke="none" d="M 10750,20549 L 11409,20549 11409,22073 10750,22073 10750,20549 Z M 10757,20564 L 11402,20564 11402,22058 10757,22058 10757,20564 Z"/>
             <path fill="rgb(102,102,102)" stroke="none" d="M 10757,20564 L 11402,20564 11402,22058 10757,22058 10757,20564 Z M 10763,20579 L 11396,20579 11396,22043 10763,22043 10763,20579 Z"/>
             <path fill="rgb(103,103,103)" stroke="none" d="M 10763,20579 L 11396,20579 11396,22043 10763,22043 10763,20579 Z M 10769,20593 L 11390,20593 11390,22029 10769,22029 10769,20593 Z"/>
             <path fill="rgb(104,104,104)" stroke="none" d="M 10769,20593 L 11390,20593 11390,22029 10769,22029 10769,20593 Z M 10776,20608 L 11383,20608 11383,22014 10776,22014 10776,20608 Z"/>
             <path fill="rgb(105,105,105)" stroke="none" d="M 10776,20608 L 11383,20608 11383,22014 10776,22014 10776,20608 Z M 10782,20623 L 11377,20623 11377,21999 10782,21999 10782,20623 Z"/>
             <path fill="rgb(106,106,106)" stroke="none" d="M 10782,20623 L 11377,20623 11377,21999 10782,21999 10782,20623 Z M 10788,20637 L 11371,20637 11371,21985 10788,21985 10788,20637 Z"/>
             <path fill="rgb(107,107,107)" stroke="none" d="M 10788,20637 L 11371,20637 11371,21985 10788,21985 10788,20637 Z M 10795,20652 L 11364,20652 11364,21970 10795,21970 10795,20652 Z"/>
             <path fill="rgb(108,108,108)" stroke="none" d="M 10795,20652 L 11364,20652 11364,21970 10795,21970 10795,20652 Z M 10801,20667 L 11358,20667 11358,21955 10801,21955 10801,20667 Z"/>
             <path fill="rgb(109,109,109)" stroke="none" d="M 10801,20667 L 11358,20667 11358,21955 10801,21955 10801,20667 Z M 10807,20681 L 11352,20681 11352,21941 10807,21941 10807,20681 Z"/>
             <path fill="rgb(110,110,110)" stroke="none" d="M 10807,20681 L 11352,20681 11352,21941 10807,21941 10807,20681 Z M 10814,20696 L 11345,20696 11345,21926 10814,21926 10814,20696 Z"/>
             <path fill="rgb(111,111,111)" stroke="none" d="M 10814,20696 L 11345,20696 11345,21926 10814,21926 10814,20696 Z M 10820,20711 L 11339,20711 11339,21911 10820,21911 10820,20711 Z"/>
             <path fill="rgb(112,112,112)" stroke="none" d="M 10820,20711 L 11339,20711 11339,21911 10820,21911 10820,20711 Z M 10826,20725 L 11333,20725 11333,21897 10826,21897 10826,20725 Z"/>
             <path fill="rgb(113,113,113)" stroke="none" d="M 10826,20725 L 11333,20725 11333,21897 10826,21897 10826,20725 Z M 10833,20740 L 11326,20740 11326,21882 10833,21882 10833,20740 Z"/>
             <path fill="rgb(114,114,114)" stroke="none" d="M 10833,20740 L 11326,20740 11326,21882 10833,21882 10833,20740 Z M 10839,20755 L 11320,20755 11320,21867 10839,21867 10839,20755 Z"/>
             <path fill="rgb(115,115,115)" stroke="none" d="M 10839,20755 L 11320,20755 11320,21867 10839,21867 10839,20755 Z M 10845,20769 L 11314,20769 11314,21853 10845,21853 10845,20769 Z"/>
             <path fill="rgb(116,116,116)" stroke="none" d="M 10845,20769 L 11314,20769 11314,21853 10845,21853 10845,20769 Z M 10852,20784 L 11307,20784 11307,21838 10852,21838 10852,20784 Z"/>
             <path fill="rgb(117,117,117)" stroke="none" d="M 10852,20784 L 11307,20784 11307,21838 10852,21838 10852,20784 Z M 10858,20799 L 11301,20799 11301,21823 10858,21823 10858,20799 Z"/>
             <path fill="rgb(118,118,118)" stroke="none" d="M 10858,20799 L 11301,20799 11301,21823 10858,21823 10858,20799 Z M 10865,20813 L 11294,20813 11294,21809 10865,21809 10865,20813 Z"/>
             <path fill="rgb(119,119,119)" stroke="none" d="M 10865,20813 L 11294,20813 11294,21809 10865,21809 10865,20813 Z M 10871,20828 L 11288,20828 11288,21794 10871,21794 10871,20828 Z"/>
             <path fill="rgb(120,120,120)" stroke="none" d="M 10871,20828 L 11288,20828 11288,21794 10871,21794 10871,20828 Z M 10877,20842 L 11282,20842 11282,21780 10877,21780 10877,20842 Z"/>
             <path fill="rgb(121,121,121)" stroke="none" d="M 10877,20842 L 11282,20842 11282,21780 10877,21780 10877,20842 Z M 10884,20857 L 11275,20857 11275,21765 10884,21765 10884,20857 Z"/>
             <path fill="rgb(122,122,122)" stroke="none" d="M 10884,20857 L 11275,20857 11275,21765 10884,21765 10884,20857 Z M 10890,20872 L 11269,20872 11269,21750 10890,21750 10890,20872 Z"/>
             <path fill="rgb(123,123,123)" stroke="none" d="M 10890,20872 L 11269,20872 11269,21750 10890,21750 10890,20872 Z M 10896,20886 L 11263,20886 11263,21736 10896,21736 10896,20886 Z"/>
             <path fill="rgb(124,124,124)" stroke="none" d="M 10896,20886 L 11263,20886 11263,21736 10896,21736 10896,20886 Z M 10903,20901 L 11256,20901 11256,21721 10903,21721 10903,20901 Z"/>
             <path fill="rgb(125,125,125)" stroke="none" d="M 10903,20901 L 11256,20901 11256,21721 10903,21721 10903,20901 Z M 10909,20916 L 11250,20916 11250,21706 10909,21706 10909,20916 Z"/>
             <path fill="rgb(126,126,126)" stroke="none" d="M 10909,20916 L 11250,20916 11250,21706 10909,21706 10909,20916 Z M 10915,20930 L 11244,20930 11244,21692 10915,21692 10915,20930 Z"/>
             <path fill="rgb(127,127,127)" stroke="none" d="M 10915,20930 L 11244,20930 11244,21692 10915,21692 10915,20930 Z M 10922,20945 L 11237,20945 11237,21677 10922,21677 10922,20945 Z"/>
             <path fill="rgb(128,128,128)" stroke="none" d="M 10922,20945 L 11237,20945 11237,21677 10922,21677 10922,20945 Z M 10928,20960 L 11231,20960 11231,21662 10928,21662 10928,20960 Z"/>
             <path fill="rgb(129,129,129)" stroke="none" d="M 10928,20960 L 11231,20960 11231,21662 10928,21662 10928,20960 Z M 10934,20974 L 11225,20974 11225,21648 10934,21648 10934,20974 Z"/>
             <path fill="rgb(130,130,130)" stroke="none" d="M 10934,20974 L 11225,20974 11225,21648 10934,21648 10934,20974 Z M 10941,20989 L 11218,20989 11218,21633 10941,21633 10941,20989 Z"/>
             <path fill="rgb(131,131,131)" stroke="none" d="M 10941,20989 L 11218,20989 11218,21633 10941,21633 10941,20989 Z M 10947,21004 L 11212,21004 11212,21618 10947,21618 10947,21004 Z"/>
             <path fill="rgb(132,132,132)" stroke="none" d="M 10947,21004 L 11212,21004 11212,21618 10947,21618 10947,21004 Z M 10953,21018 L 11206,21018 11206,21604 10953,21604 10953,21018 Z"/>
             <path fill="rgb(133,133,133)" stroke="none" d="M 10953,21018 L 11206,21018 11206,21604 10953,21604 10953,21018 Z M 10960,21033 L 11199,21033 11199,21589 10960,21589 10960,21033 Z"/>
             <path fill="rgb(134,134,134)" stroke="none" d="M 10960,21033 L 11199,21033 11199,21589 10960,21589 10960,21033 Z M 10966,21048 L 11193,21048 11193,21574 10966,21574 10966,21048 Z"/>
             <path fill="rgb(135,135,135)" stroke="none" d="M 10966,21048 L 11193,21048 11193,21574 10966,21574 10966,21048 Z M 10972,21062 L 11187,21062 11187,21560 10972,21560 10972,21062 Z"/>
             <path fill="rgb(136,136,136)" stroke="none" d="M 10972,21062 L 11187,21062 11187,21560 10972,21560 10972,21062 Z M 10979,21077 L 11180,21077 11180,21545 10979,21545 10979,21077 Z"/>
             <path fill="rgb(137,137,137)" stroke="none" d="M 10979,21077 L 11180,21077 11180,21545 10979,21545 10979,21077 Z M 10985,21092 L 11174,21092 11174,21530 10985,21530 10985,21092 Z"/>
             <path fill="rgb(138,138,138)" stroke="none" d="M 10985,21092 L 11174,21092 11174,21530 10985,21530 10985,21092 Z M 10991,21106 L 11168,21106 11168,21516 10991,21516 10991,21106 Z"/>
             <path fill="rgb(139,139,139)" stroke="none" d="M 10991,21106 L 11168,21106 11168,21516 10991,21516 10991,21106 Z M 10998,21121 L 11161,21121 11161,21501 10998,21501 10998,21121 Z"/>
             <path fill="rgb(140,140,140)" stroke="none" d="M 10998,21121 L 11161,21121 11161,21501 10998,21501 10998,21121 Z M 11004,21136 L 11155,21136 11155,21486 11004,21486 11004,21136 Z"/>
             <path fill="rgb(141,141,141)" stroke="none" d="M 11004,21136 L 11155,21136 11155,21486 11004,21486 11004,21136 Z M 11010,21150 L 11149,21150 11149,21472 11010,21472 11010,21150 Z"/>
             <path fill="rgb(142,142,142)" stroke="none" d="M 11010,21150 L 11149,21150 11149,21472 11010,21472 11010,21150 Z M 11017,21165 L 11142,21165 11142,21457 11017,21457 11017,21165 Z"/>
             <path fill="rgb(143,143,143)" stroke="none" d="M 11017,21165 L 11142,21165 11142,21457 11017,21457 11017,21165 Z M 11023,21180 L 11136,21180 11136,21442 11023,21442 11023,21180 Z"/>
             <path fill="rgb(144,144,144)" stroke="none" d="M 11023,21180 L 11136,21180 11136,21442 11023,21442 11023,21180 Z M 11029,21194 L 11130,21194 11130,21428 11029,21428 11029,21194 Z"/>
             <path fill="rgb(145,145,145)" stroke="none" d="M 11029,21194 L 11130,21194 11130,21428 11029,21428 11029,21194 Z M 11036,21209 L 11123,21209 11123,21413 11036,21413 11036,21209 Z"/>
             <path fill="rgb(146,146,146)" stroke="none" d="M 11036,21209 L 11123,21209 11123,21413 11036,21413 11036,21209 Z M 11042,21224 L 11117,21224 11117,21398 11042,21398 11042,21224 Z"/>
             <path fill="rgb(147,147,147)" stroke="none" d="M 11042,21224 L 11117,21224 11117,21398 11042,21398 11042,21224 Z M 11048,21238 L 11111,21238 11111,21384 11048,21384 11048,21238 Z"/>
             <path fill="rgb(148,148,148)" stroke="none" d="M 11048,21238 L 11111,21238 11111,21384 11048,21384 11048,21238 Z M 11055,21253 L 11104,21253 11104,21369 11055,21369 11055,21253 Z"/>
             <path fill="rgb(149,149,149)" stroke="none" d="M 11055,21253 L 11104,21253 11104,21369 11055,21369 11055,21253 Z M 11061,21268 L 11098,21268 11098,21354 11061,21354 11061,21268 Z"/>
             <path fill="rgb(150,150,150)" stroke="none" d="M 11061,21268 L 11098,21268 11098,21354 11061,21354 11061,21268 Z M 11067,21282 L 11092,21282 11092,21340 11067,21340 11067,21282 Z"/>
             <path fill="rgb(151,151,151)" stroke="none" d="M 11067,21282 L 11092,21282 11092,21340 11067,21340 11067,21282 Z M 11074,21297 L 11085,21297 11085,21325 11074,21325 11074,21297 Z"/>
             <path fill="rgb(153,153,153)" stroke="none" d="M 11074,21297 L 11085,21297 11085,21325 11074,21325 11074,21297 Z"/>
            </g>
           </pattern>
          </defs>
          <path style="fill:url(#pattern1)" d="M 10694,23403 L 10694,21163 11984,20416 11984,22656 10694,23403 Z"/>
         </g>
         <path fill="none" stroke="rgb(178,178,178)" stroke-width="40" stroke-linejoin="round" d="M 10694,23403 L 10694,21163 11984,20416 11984,22656 10694,23403 Z"/>
        </g>
       </g>
       <g class="com.sun.star.drawing.PolyPolygonShape">
        <g id="id5">
         <rect class="BoundingBox" stroke="none" fill="none" x="10030" y="20023" width="1975" height="1161"/>
         <g>
          <defs>
           <linearGradient id="gradient1" x1="11017" y1="20043" x2="11017" y2="21163" gradientUnits="userSpaceOnUse">
            <stop offset="0.1" style="stop-color:rgb(51,51,51)"/>
            <stop offset="1" style="stop-color:rgb(153,153,153)"/>
           </linearGradient>
          </defs>
          <path style="fill:url(#gradient1)" d="M 10694,21163 L 10050,20790 11340,20043 11984,20416 10694,21163 Z"/>
         </g>
         <path fill="none" stroke="rgb(178,178,178)" stroke-width="40" stroke-linejoin="round" d="M 10694,21163 L 10050,20790 11340,20043 11984,20416 10694,21163 Z"/>
        </g>
       </g>
       <g class="com.sun.star.drawing.PolyPolygonShape">
        <g id="id6">
         <rect class="BoundingBox" stroke="none" fill="none" x="10029" y="20770" width="686" height="2654"/>
         <g>
          <defs>
           <linearGradient id="gradient2" x1="10050" y1="22096" x2="10695" y2="22096" gradientUnits="userSpaceOnUse">
            <stop offset="0.1" style="stop-color:rgb(51,51,51)"/>
            <stop offset="1" style="stop-color:rgb(153,153,153)"/>
           </linearGradient>
          </defs>
          <path style="fill:url(#gradient2)" d="M 10050,23030 L 10050,20790 10694,21163 10694,23403 10050,23030 Z"/>
         </g>
         <path fill="none" stroke="rgb(178,178,178)" stroke-width="40" stroke-linejoin="round" d="M 10050,23030 L 10050,20790 10694,21163 10694,23403 10050,23030 Z"/>
        </g>
       </g>
       <g class="com.sun.star.drawing.PolyPolygonShape">
        <g id="id7">
         <rect class="BoundingBox" stroke="none" fill="none" x="10030" y="20023" width="1975" height="3402"/>
         <path fill="none" stroke="rgb(0,0,0)" stroke-width="40" stroke-linejoin="round" d="M 10050,23030 L 10050,20790 11340,20043 11984,20416 11984,22656 10694,23403 10050,23030 Z"/>
        </g>
       </g>
       <g class="com.sun.star.drawing.PolyPolygonShape">
        <g id="id8">
         <rect class="BoundingBox" stroke="none" fill="none" x="10158" y="22487" width="169" height="489"/>
         <path fill="rgb(0,0,0)" stroke="none" d="M 10178,22880 L 10178,22507 10306,22581 10306,22955 10178,22880 Z"/>
         <path fill="none" stroke="rgb(178,178,178)" stroke-width="40" stroke-linejoin="round" d="M 10178,22880 L 10178,22507 10306,22581 10306,22955 10178,22880 Z"/>
        </g>
       </g>
       <g class="com.sun.star.drawing.PolyPolygonShape">
        <g id="id9">
         <rect class="BoundingBox" stroke="none" fill="none" x="10416" y="22636" width="169" height="489"/>
         <path fill="rgb(0,0,0)" stroke="none" d="M 10436,23029 L 10436,22656 10564,22730 10564,23104 10436,23029 Z"/>
         <path fill="none" stroke="rgb(178,178,178)" stroke-width="40" stroke-linejoin="round" d="M 10436,23029 L 10436,22656 10564,22730 10564,23104 10436,23029 Z"/>
        </g>
       </g>
       <g class="com.sun.star.drawing.PolyPolygonShape">
        <g id="id10">
         <rect class="BoundingBox" stroke="none" fill="none" x="10158" y="21889" width="169" height="340"/>
         <path fill="rgb(0,0,0)" stroke="none" d="M 10178,22134 L 10178,21909 10306,21983 10306,22208 10178,22134 Z"/>
         <path fill="none" stroke="rgb(178,178,178)" stroke-width="40" stroke-linejoin="round" d="M 10178,22134 L 10178,21909 10306,21983 10306,22208 10178,22134 Z"/>
        </g>
       </g>
       <g class="com.sun.star.drawing.PolyPolygonShape">
        <g id="id11">
         <rect class="BoundingBox" stroke="none" fill="none" x="10158" y="21068" width="169" height="340"/>
         <path fill="rgb(153,255,102)" stroke="none" d="M 10178,21313 L 10178,21088 10306,21162 10306,21387 10178,21313 Z"/>
         <path fill="none" stroke="rgb(51,51,51)" stroke-width="40" stroke-linejoin="round" d="M 10178,21313 L 10178,21088 10306,21162 10306,21387 10178,21313 Z"/>
        </g>
       </g>
      </g>
     </g>
    </g>
   </g>
  </g>
 </g>
</svg>