<?xml version="1.0" encoding="UTF-8"?>
<!DOCTYPE svg PUBLIC "-//W3C//DTD SVG 1.1//EN" "http://www.w3.org/Graphics/SVG/1.1/DTD/svg11.dtd">
<svg version="1.2" width="23.41mm" height="34mm" viewBox="4599 19849 2341 3400" preserveAspectRatio="xMidYMid" fill-rule="evenodd" stroke-width="28.222" stroke-linejoin="round" xmlns="http://www.w3.org/2000/svg" xmlns:ooo="http://xml.openoffice.org/svg/export" xmlns:xlink="http://www.w3.org/1999/xlink" xmlns:presentation="http://sun.com/xmlns/staroffice/presentation" xmlns:smil="http://www.w3.org/2001/SMIL20/" xmlns:anim="urn:oasis:names:tc:opendocument:xmlns:animation:1.0" xml:space="preserve">
 <defs class="ClipPathGroup">
  <clipPath id="presentation_clip_path" clipPathUnits="userSpaceOnUse">
   <rect x="4599" y="19849" width="2341" height="3400"/>
  </clipPath>
 </defs>
 <defs class="TextShapeIndex">
  <g ooo:slide="id1" ooo:id-list="id3 id4 id5 id6 id7 id8 id9 id10 id11"/>
 </defs>
 <defs class="EmbeddedBulletChars">
  <g id="bullet-char-template(57356)" transform="scale(0.00048828125,-0.00048828125)">
   <path d="M 580,1141 L 1163,571 580,0 -4,571 580,1141 Z"/>
  </g>
  <g id="bullet-char-template(57354)" transform="scale(0.00048828125,-0.00048828125)">
   <path d="M 8,1128 L 1137,1128 1137,0 8,0 8,1128 Z"/>
  </g>
  <g id="bullet-char-template(10146)" transform="scale(0.00048828125,-0.00048828125)">
   <path d="M 174,0 L 602,739 174,1481 1456,739 174,0 Z M 1358,739 L 309,1346 659,739 1358,739 Z"/>
  </g>
  <g id="bullet-char-template(10132)" transform="scale(0.00048828125,-0.00048828125)">
   <path d="M 2015,739 L 1276,0 717,0 1260,543 174,543 174,936 1260,936 717,1481 1274,1481 2015,739 Z"/>
  </g>
  <g id="bullet-char-template(10007)" transform="scale(0.00048828125,-0.00048828125)">
   <path d="M 0,-2 C -7,14 -16,27 -25,37 L 356,567 C 262,823 215,952 215,954 215,979 228,992 255,992 264,992 276,990 289,987 310,991 331,999 354,1012 L 381,999 492,748 772,1049 836,1024 860,1049 C 881,1039 901,1025 922,1006 886,937 835,863 770,784 769,783 710,716 594,584 L 774,223 C 774,196 753,168 711,139 L 727,119 C 717,90 699,76 672,76 641,76 570,178 457,381 L 164,-76 C 142,-110 111,-127 72,-127 30,-127 9,-110 8,-76 1,-67 -2,-52 -2,-32 -2,-23 -1,-13 0,-2 Z"/>
  </g>
  <g id="bullet-char-template(10004)" transform="scale(0.00048828125,-0.00048828125)">
   <path d="M 285,-33 C 182,-33 111,30 74,156 52,228 41,333 41,471 41,549 55,616 82,672 116,743 169,778 240,778 293,778 328,747 346,684 L 369,508 C 377,444 397,411 428,410 L 1163,1116 C 1174,1127 1196,1133 1229,1133 1271,1133 1292,1118 1292,1087 L 1292,965 C 1292,929 1282,901 1262,881 L 442,47 C 390,-6 338,-33 285,-33 Z"/>
  </g>
  <g id="bullet-char-template(9679)" transform="scale(0.00048828125,-0.00048828125)">
   <path d="M 813,0 C 632,0 489,54 383,161 276,268 223,411 223,592 223,773 276,916 383,1023 489,1130 632,1184 813,1184 992,1184 1136,1130 1245,1023 1353,916 1407,772 1407,592 1407,412 1353,268 1245,161 1136,54 992,0 813,0 Z"/>
  </g>
  <g id="bullet-char-template(8226)" transform="scale(0.00048828125,-0.00048828125)">
   <path d="M 346,457 C 273,457 209,483 155,535 101,586 74,649 74,723 74,796 101,859 155,911 209,963 273,989 346,989 419,989 480,963 531,910 582,859 608,796 608,723 608,648 583,586 532,535 482,483 420,457 346,457 Z"/>
  </g>
  <g id="bullet-char-template(8211)" transform="scale(0.00048828125,-0.00048828125)">
   <path d="M -4,459 L 1135,459 1135,606 -4,606 -4,459 Z"/>
  </g>
 </defs>
 <defs class="TextEmbeddedBitmaps"/>
 <g class="SlideGroup">
  <g>
   <g id="id1" class="Slide" clip-path="url(#presentation_clip_path)">
    <g class="Page">
     <g class="Group">
      <g class="com.sun.star.drawing.ClosedBezierShape">
       <g id="id3">
        <rect class="BoundingBox" stroke="none" fill="none" x="5262" y="22108" width="1679" height="1123"/>
        <path fill="rgb(221,221,221)" stroke="none" d="M 5263,23229 C 5617,23229 6939,22856 6939,22557 6939,22258 6906,22109 6553,22109 6553,22334 5263,22929 5263,23229 Z"/>
        <path fill="none" stroke="rgb(221,221,221)" d="M 5263,23229 C 5617,23229 6939,22856 6939,22557 6939,22258 6906,22109 6553,22109 6553,22334 5263,22929 5263,23229 Z"/>
       </g>
      </g>
      <g class="Group">
       <g class="com.sun.star.drawing.PolyPolygonShape">
        <g id="id4">
         <rect class="BoundingBox" stroke="none" fill="none" x="5243" y="20222" width="1331" height="3029"/>
         <g>
          <defs>
           <pattern id="pattern1" x="5263" y="20242" width="1291" height="2988" patternUnits="userSpaceOnUse">
            <g transform="translate(-5263,-20242)">
             <path fill="rgb(179,179,179)" stroke="none" d="M 5262,20241 L 6554,20241 6554,23230 5262,23230 5262,20241 Z M 5016,19673 L 6282,19673 6282,22602 5016,22602 5016,19673 Z"/>
             <path fill="rgb(180,180,180)" stroke="none" d="M 5016,19673 L 6282,19673 6282,22602 5016,22602 5016,19673 Z M 5029,19703 L 6269,19703 6269,22572 5029,22572 5029,19703 Z"/>
             <path fill="rgb(181,181,181)" stroke="none" d="M 5029,19703 L 6269,19703 6269,22572 5029,22572 5029,19703 Z M 5042,19733 L 6256,19733 6256,22542 5042,22542 5042,19733 Z"/>
             <path fill="rgb(182,182,182)" stroke="none" d="M 5042,19733 L 6256,19733 6256,22542 5042,22542 5042,19733 Z M 5055,19763 L 6243,19763 6243,22512 5055,22512 5055,19763 Z"/>
             <path fill="rgb(183,183,183)" stroke="none" d="M 5055,19763 L 6243,19763 6243,22512 5055,22512 5055,19763 Z M 5068,19793 L 6230,19793 6230,22482 5068,22482 5068,19793 Z"/>
             <path fill="rgb(184,184,184)" stroke="none" d="M 5068,19793 L 6230,19793 6230,22482 5068,22482 5068,19793 Z M 5081,19823 L 6217,19823 6217,22452 5081,22452 5081,19823 Z"/>
             <path fill="rgb(185,185,185)" stroke="none" d="M 5081,19823 L 6217,19823 6217,22452 5081,22452 5081,19823 Z M 5094,19853 L 6204,19853 6204,22422 5094,22422 5094,19853 Z"/>
             <path fill="rgb(186,186,186)" stroke="none" d="M 5094,19853 L 6204,19853 6204,22422 5094,22422 5094,19853 Z M 5107,19883 L 6191,19883 6191,22392 5107,22392 5107,19883 Z"/>
             <path fill="rgb(187,187,187)" stroke="none" d="M 5107,19883 L 6191,19883 6191,22392 5107,22392 5107,19883 Z M 5120,19913 L 6178,19913 6178,22362 5120,22362 5120,19913 Z"/>
             <path fill="rgb(188,188,188)" stroke="none" d="M 5120,19913 L 6178,19913 6178,22362 5120,22362 5120,19913 Z M 5133,19942 L 6165,19942 6165,22332 5133,22332 5133,19942 Z"/>
             <path fill="rgb(189,189,189)" stroke="none" d="M 5133,19942 L 6165,19942 6165,22332 5133,22332 5133,19942 Z M 5146,19972 L 6152,19972 6152,22303 5146,22303 5146,19972 Z"/>
             <path fill="rgb(190,190,190)" stroke="none" d="M 5146,19972 L 6152,19972 6152,22303 5146,22303 5146,19972 Z M 5159,20002 L 6139,20002 6139,22273 5159,22273 5159,20002 Z"/>
             <path fill="rgb(191,191,191)" stroke="none" d="M 5159,20002 L 6139,20002 6139,22273 5159,22273 5159,20002 Z M 5172,20032 L 6126,20032 6126,22243 5172,22243 5172,20032 Z"/>
             <path fill="rgb(192,192,192)" stroke="none" d="M 5172,20032 L 6126,20032 6126,22243 5172,22243 5172,20032 Z M 5185,20062 L 6113,20062 6113,22213 5185,22213 5185,20062 Z"/>
             <path fill="rgb(193,193,193)" stroke="none" d="M 5185,20062 L 6113,20062 6113,22213 5185,22213 5185,20062 Z M 5197,20092 L 6101,20092 6101,22183 5197,22183 5197,20092 Z"/>
             <path fill="rgb(194,194,194)" stroke="none" d="M 5197,20092 L 6101,20092 6101,22183 5197,22183 5197,20092 Z M 5210,20122 L 6088,20122 6088,22153 5210,22153 5210,20122 Z"/>
             <path fill="rgb(195,195,195)" stroke="none" d="M 5210,20122 L 6088,20122 6088,22153 5210,22153 5210,20122 Z M 5223,20152 L 6075,20152 6075,22123 5223,22123 5223,20152 Z"/>
             <path fill="rgb(196,196,196)" stroke="none" d="M 5223,20152 L 6075,20152 6075,22123 5223,22123 5223,20152 Z M 5236,20182 L 6062,20182 6062,22093 5236,22093 5236,20182 Z"/>
             <path fill="rgb(197,197,197)" stroke="none" d="M 5236,20182 L 6062,20182 6062,22093 5236,22093 5236,20182 Z M 5248,20212 L 6049,20212 6049,22063 5248,22063 5248,20212 Z"/>
             <path fill="rgb(198,198,198)" stroke="none" d="M 5248,20212 L 6049,20212 6049,22063 5248,22063 5248,20212 Z M 5261,20240 L 6036,20240 6036,22033 5261,22033 5261,20240 Z"/>
             <path fill="rgb(199,199,199)" stroke="none" d="M 5261,20240 L 6036,20240 6036,22033 5261,22033 5261,20240 Z M 5274,20270 L 6023,20270 6023,22004 5274,22004 5274,20270 Z"/>
             <path fill="rgb(200,200,200)" stroke="none" d="M 5274,20270 L 6023,20270 6023,22004 5274,22004 5274,20270 Z M 5287,20300 L 6010,20300 6010,21974 5287,21974 5287,20300 Z"/>
             <path fill="rgb(201,201,201)" stroke="none" d="M 5287,20300 L 6010,20300 6010,21974 5287,21974 5287,20300 Z M 5300,20330 L 5997,20330 5997,21944 5300,21944 5300,20330 Z"/>
             <path fill="rgb(202,202,202)" stroke="none" d="M 5300,20330 L 5997,20330 5997,21944 5300,21944 5300,20330 Z M 5313,20360 L 5984,20360 5984,21914 5313,21914 5313,20360 Z"/>
             <path fill="rgb(203,203,203)" stroke="none" d="M 5313,20360 L 5984,20360 5984,21914 5313,21914 5313,20360 Z M 5326,20390 L 5971,20390 5971,21884 5326,21884 5326,20390 Z"/>
             <path fill="rgb(204,204,204)" stroke="none" d="M 5326,20390 L 5971,20390 5971,21884 5326,21884 5326,20390 Z M 5339,20420 L 5958,20420 5958,21854 5339,21854 5339,20420 Z"/>
             <path fill="rgb(205,205,205)" stroke="none" d="M 5339,20420 L 5958,20420 5958,21854 5339,21854 5339,20420 Z M 5352,20450 L 5945,20450 5945,21824 5352,21824 5352,20450 Z"/>
             <path fill="rgb(206,206,206)" stroke="none" d="M 5352,20450 L 5945,20450 5945,21824 5352,21824 5352,20450 Z M 5365,20480 L 5932,20480 5932,21794 5365,21794 5365,20480 Z"/>
             <path fill="rgb(207,207,207)" stroke="none" d="M 5365,20480 L 5932,20480 5932,21794 5365,21794 5365,20480 Z M 5377,20510 L 5920,20510 5920,21764 5377,21764 5377,20510 Z"/>
             <path fill="rgb(208,208,208)" stroke="none" d="M 5377,20510 L 5920,20510 5920,21764 5377,21764 5377,20510 Z M 5390,20539 L 5907,20539 5907,21734 5390,21734 5390,20539 Z"/>
             <path fill="rgb(209,209,209)" stroke="none" d="M 5390,20539 L 5907,20539 5907,21734 5390,21734 5390,20539 Z M 5403,20569 L 5894,20569 5894,21705 5403,21705 5403,20569 Z"/>
             <path fill="rgb(210,210,210)" stroke="none" d="M 5403,20569 L 5894,20569 5894,21705 5403,21705 5403,20569 Z M 5416,20599 L 5881,20599 5881,21675 5416,21675 5416,20599 Z"/>
             <path fill="rgb(211,211,211)" stroke="none" d="M 5416,20599 L 5881,20599 5881,21675 5416,21675 5416,20599 Z M 5429,20629 L 5868,20629 5868,21645 5429,21645 5429,20629 Z"/>
             <path fill="rgb(212,212,212)" stroke="none" d="M 5429,20629 L 5868,20629 5868,21645 5429,21645 5429,20629 Z M 5442,20659 L 5855,20659 5855,21615 5442,21615 5442,20659 Z"/>
             <path fill="rgb(213,213,213)" stroke="none" d="M 5442,20659 L 5855,20659 5855,21615 5442,21615 5442,20659 Z M 5455,20689 L 5842,20689 5842,21585 5455,21585 5455,20689 Z"/>
             <path fill="rgb(214,214,214)" stroke="none" d="M 5455,20689 L 5842,20689 5842,21585 5455,21585 5455,20689 Z M 5468,20719 L 5829,20719 5829,21555 5468,21555 5468,20719 Z"/>
             <path fill="rgb(215,215,215)" stroke="none" d="M 5468,20719 L 5829,20719 5829,21555 5468,21555 5468,20719 Z M 5481,20749 L 5816,20749 5816,21525 5481,21525 5481,20749 Z"/>
             <path fill="rgb(216,216,216)" stroke="none" d="M 5481,20749 L 5816,20749 5816,21525 5481,21525 5481,20749 Z M 5494,20779 L 5803,20779 5803,21495 5494,21495 5494,20779 Z"/>
             <path fill="rgb(217,217,217)" stroke="none" d="M 5494,20779 L 5803,20779 5803,21495 5494,21495 5494,20779 Z M 5507,20809 L 5790,20809 5790,21465 5507,21465 5507,20809 Z"/>
             <path fill="rgb(218,218,218)" stroke="none" d="M 5507,20809 L 5790,20809 5790,21465 5507,21465 5507,20809 Z M 5520,20838 L 5777,20838 5777,21435 5520,21435 5520,20838 Z"/>
             <path fill="rgb(219,219,219)" stroke="none" d="M 5520,20838 L 5777,20838 5777,21435 5520,21435 5520,20838 Z M 5533,20868 L 5764,20868 5764,21406 5533,21406 5533,20868 Z"/>
             <path fill="rgb(220,220,220)" stroke="none" d="M 5533,20868 L 5764,20868 5764,21406 5533,21406 5533,20868 Z M 5546,20898 L 5751,20898 5751,21376 5546,21376 5546,20898 Z"/>
             <path fill="rgb(221,221,221)" stroke="none" d="M 5546,20898 L 5751,20898 5751,21376 5546,21376 5546,20898 Z M 5558,20928 L 5739,20928 5739,21346 5558,21346 5558,20928 Z"/>
             <path fill="rgb(222,222,222)" stroke="none" d="M 5558,20928 L 5739,20928 5739,21346 5558,21346 5558,20928 Z M 5571,20958 L 5726,20958 5726,21316 5571,21316 5571,20958 Z"/>
             <path fill="rgb(223,223,223)" stroke="none" d="M 5571,20958 L 5726,20958 5726,21316 5571,21316 5571,20958 Z M 5584,20988 L 5713,20988 5713,21286 5584,21286 5584,20988 Z"/>
             <path fill="rgb(224,224,224)" stroke="none" d="M 5584,20988 L 5713,20988 5713,21286 5584,21286 5584,20988 Z M 5597,21018 L 5700,21018 5700,21256 5597,21256 5597,21018 Z"/>
             <path fill="rgb(225,225,225)" stroke="none" d="M 5597,21018 L 5700,21018 5700,21256 5597,21256 5597,21018 Z M 5610,21048 L 5687,21048 5687,21226 5610,21226 5610,21048 Z"/>
             <path fill="rgb(226,226,226)" stroke="none" d="M 5610,21048 L 5687,21048 5687,21226 5610,21226 5610,21048 Z M 5623,21078 L 5674,21078 5674,21196 5623,21196 5623,21078 Z"/>
             <path fill="rgb(227,227,227)" stroke="none" d="M 5623,21078 L 5674,21078 5674,21196 5623,21196 5623,21078 Z M 5636,21108 L 5661,21108 5661,21166 5636,21166 5636,21108 Z"/>
             <path fill="rgb(229,229,229)" stroke="none" d="M 5636,21108 L 5661,21108 5661,21166 5636,21166 5636,21108 Z"/>
            </g>
           </pattern>
          </defs>
          <path style="fill:url(#pattern1)" d="M 5263,23229 L 5263,20989 6553,20242 6553,22482 5263,23229 Z"/>
         </g>
         <path fill="none" stroke="rgb(255,255,255)" stroke-width="40" stroke-linejoin="round" d="M 5263,23229 L 5263,20989 6553,20242 6553,22482 5263,23229 Z"/>
        </g>
       </g>
       <g class="com.sun.star.drawing.PolyPolygonShape">
        <g id="id5">
         <rect class="BoundingBox" stroke="none" fill="none" x="4599" y="19849" width="1976" height="1161"/>
         <g>
          <defs>
           <linearGradient id="gradient1" x1="5586" y1="19869" x2="5586" y2="20989" gradientUnits="userSpaceOnUse">
            <stop offset="0.1" style="stop-color:rgb(179,179,179)"/>
            <stop offset="1" style="stop-color:rgb(229,229,229)"/>
           </linearGradient>
          </defs>
          <path style="fill:url(#gradient1)" d="M 5263,20989 L 4619,20616 5909,19869 6553,20242 5263,20989 Z"/>
         </g>
         <path fill="none" stroke="rgb(255,255,255)" stroke-width="40" stroke-linejoin="round" d="M 5263,20989 L 4619,20616 5909,19869 6553,20242 5263,20989 Z"/>
        </g>
       </g>
       <g class="com.sun.star.drawing.PolyPolygonShape">
        <g id="id6">
         <rect class="BoundingBox" stroke="none" fill="none" x="4598" y="20596" width="686" height="2654"/>
         <g>
          <defs>
           <linearGradient id="gradient2" x1="4619" y1="21922" x2="5264" y2="21922" gradientUnits="userSpaceOnUse">
            <stop offset="0.1" style="stop-color:rgb(179,179,179)"/>
            <stop offset="1" style="stop-color:rgb(229,229,229)"/>
           </linearGradient>
          </defs>
          <path style="fill:url(#gradient2)" d="M 4619,22856 L 4619,20616 5263,20989 5263,23229 4619,22856 Z"/>
         </g>
         <path fill="none" stroke="rgb(255,255,255)" stroke-width="40" stroke-linejoin="round" d="M 4619,22856 L 4619,20616 5263,20989 5263,23229 4619,22856 Z"/>
        </g>
       </g>
       <g class="com.sun.star.drawing.PolyPolygonShape">
        <g id="id7">
         <rect class="BoundingBox" stroke="none" fill="none" x="4599" y="19849" width="1976" height="3402"/>
         <path fill="none" stroke="rgb(0,0,0)" stroke-width="40" stroke-linejoin="round" d="M 4619,22856 L 4619,20616 5909,19869 6553,20242 6553,22482 5263,23229 4619,22856 Z"/>
        </g>
       </g>
       <g class="com.sun.star.drawing.PolyPolygonShape">
        <g id="id8">
         <rect class="BoundingBox" stroke="none" fill="none" x="4727" y="22312" width="169" height="490"/>
         <path fill="rgb(127,127,127)" stroke="none" d="M 4747,22706 L 4747,22333 4875,22407 4875,22781 4747,22706 Z"/>
         <path fill="none" stroke="rgb(0,0,0)" stroke-width="40" stroke-linejoin="round" d="M 4747,22706 L 4747,22333 4875,22407 4875,22781 4747,22706 Z"/>
        </g>
       </g>
       <g class="com.sun.star.drawing.PolyPolygonShape">
        <g id="id9">
         <rect class="BoundingBox" stroke="none" fill="none" x="4985" y="22461" width="169" height="490"/>
         <path fill="rgb(127,127,127)" stroke="none" d="M 5005,22855 L 5005,22482 5133,22556 5133,22930 5005,22855 Z"/>
         <path fill="none" stroke="rgb(0,0,0)" stroke-width="40" stroke-linejoin="round" d="M 5005,22855 L 5005,22482 5133,22556 5133,22930 5005,22855 Z"/>
        </g>
       </g>
       <g class="com.sun.star.drawing.PolyPolygonShape">
        <g id="id10">
         <rect class="BoundingBox" stroke="none" fill="none" x="4727" y="21715" width="169" height="340"/>
         <path fill="rgb(127,127,127)" stroke="none" d="M 4747,21960 L 4747,21735 4875,21809 4875,22034 4747,21960 Z"/>
         <path fill="none" stroke="rgb(0,0,0)" stroke-width="40" stroke-linejoin="round" d="M 4747,21960 L 4747,21735 4875,21809 4875,22034 4747,21960 Z"/>
        </g>
       </g>
       <g class="com.sun.star.drawing.PolyPolygonShape">
        <g id="id11">
         <rect class="BoundingBox" stroke="none" fill="none" x="4727" y="20894" width="169" height="340"/>
         <path fill="rgb(153,255,102)" stroke="none" d="M 4747,21139 L 4747,20914 4875,20988 4875,21213 4747,21139 Z"/>
         <path fill="none" stroke="rgb(51,51,51)" stroke-width="40" stroke-linejoin="round" d="M 4747,21139 L 4747,20914 4875,20988 4875,21213 4747,21139 Z"/>
        </g>
       </g>
      </g>
     </g>
    </g>
   </g>
  </g>
 </g>
</svg>