<?xml version="1.0" encoding="UTF-8"?>
<!DOCTYPE svg PUBLIC "-//W3C//DTD SVG 1.1//EN" "http://www.w3.org/Graphics/SVG/1.1/DTD/svg11.dtd">
<svg version="1.2" width="71.26mm" height="49.4mm" viewBox="7915 7173 7126 4940" preserveAspectRatio="xMidYMid" fill-rule="evenodd" stroke-width="28.222" stroke-linejoin="round" xmlns="http://www.w3.org/2000/svg" xmlns:ooo="http://xml.openoffice.org/svg/export" xmlns:xlink="http://www.w3.org/1999/xlink" xmlns:presentation="http://sun.com/xmlns/staroffice/presentation" xmlns:smil="http://www.w3.org/2001/SMIL20/" xmlns:anim="urn:oasis:names:tc:opendocument:xmlns:animation:1.0" xml:space="preserve">
 <defs class="ClipPathGroup">
  <clipPath id="presentation_clip_path" clipPathUnits="userSpaceOnUse">
   <rect x="7915" y="7173" width="7126" height="4940"/>
  </clipPath>
 </defs>
 <defs class="TextShapeIndex">
  <g ooo:slide="id1" ooo:id-list="id3 id4 id5 id6 id7 id8 id9 id10 id11 id12 id13 id14 id15 id16 id17 id18 id19 id20 id21 id22 id23 id24 id25 id26"/>
 </defs>
 <defs class="EmbeddedBulletChars">
  <g id="bullet-char-template(57356)" transform="scale(0.00048828125,-0.00048828125)">
   <path d="M 580,1141 L 1163,571 580,0 -4,571 580,1141 Z"/>
  </g>
  <g id="bullet-char-template(57354)" transform="scale(0.00048828125,-0.00048828125)">
   <path d="M 8,1128 L 1137,1128 1137,0 8,0 8,1128 Z"/>
  </g>
  <g id="bullet-char-template(10146)" transform="scale(0.00048828125,-0.00048828125)">
   <path d="M 174,0 L 602,739 174,1481 1456,739 174,0 Z M 1358,739 L 309,1346 659,739 1358,739 Z"/>
  </g>
  <g id="bullet-char-template(10132)" transform="scale(0.00048828125,-0.00048828125)">
   <path d="M 2015,739 L 1276,0 717,0 1260,543 174,543 174,936 1260,936 717,1481 1274,1481 2015,739 Z"/>
  </g>
  <g id="bullet-char-template(10007)" transform="scale(0.00048828125,-0.00048828125)">
   <path d="M 0,-2 C -7,14 -16,27 -25,37 L 356,567 C 262,823 215,952 215,954 215,979 228,992 255,992 264,992 276,990 289,987 310,991 331,999 354,1012 L 381,999 492,748 772,1049 836,1024 860,1049 C 881,1039 901,1025 922,1006 886,937 835,863 770,784 769,783 710,716 594,584 L 774,223 C 774,196 753,168 711,139 L 727,119 C 717,90 699,76 672,76 641,76 570,178 457,381 L 164,-76 C 142,-110 111,-127 72,-127 30,-127 9,-110 8,-76 1,-67 -2,-52 -2,-32 -2,-23 -1,-13 0,-2 Z"/>
  </g>
  <g id="bullet-char-template(10004)" transform="scale(0.00048828125,-0.00048828125)">
   <path d="M 285,-33 C 182,-33 111,30 74,156 52,228 41,333 41,471 41,549 55,616 82,672 116,743 169,778 240,778 293,778 328,747 346,684 L 369,508 C 377,444 397,411 428,410 L 1163,1116 C 1174,1127 1196,1133 1229,1133 1271,1133 1292,1118 1292,1087 L 1292,965 C 1292,929 1282,901 1262,881 L 442,47 C 390,-6 338,-33 285,-33 Z"/>
  </g>
  <g id="bullet-char-template(9679)" transform="scale(0.00048828125,-0.00048828125)">
   <path d="M 813,0 C 632,0 489,54 383,161 276,268 223,411 223,592 223,773 276,916 383,1023 489,1130 632,1184 813,1184 992,1184 1136,1130 1245,1023 1353,916 1407,772 1407,592 1407,412 1353,268 1245,161 1136,54 992,0 813,0 Z"/>
  </g>
  <g id="bullet-char-template(8226)" transform="scale(0.00048828125,-0.00048828125)">
   <path d="M 346,457 C 273,457 209,483 155,535 101,586 74,649 74,723 74,796 101,859 155,911 209,963 273,989 346,989 419,989 480,963 531,910 582,859 608,796 608,723 608,648 583,586 532,535 482,483 420,457 346,457 Z"/>
  </g>
  <g id="bullet-char-template(8211)" transform="scale(0.00048828125,-0.00048828125)">
   <path d="M -4,459 L 1135,459 1135,606 -4,606 -4,459 Z"/>
  </g>
 </defs>
 <defs class="TextEmbeddedBitmaps"/>
 <g class="SlideGroup">
  <g>
   <g id="id1" class="Slide" clip-path="url(#presentation_clip_path)">
    <g class="Page">
     <g class="Group">
      <g class="com.sun.star.drawing.ClosedBezierShape">
       <g id="id3">
        <rect class="BoundingBox" stroke="none" fill="none" x="12796" y="10291" width="2247" height="1805"/>
        <path fill="rgb(221,221,221)" stroke="none" d="M 12797,12094 C 13139,12094 15041,11373 15041,11013 15041,10652 14137,10292 13794,10292 13794,10508 12797,11805 12797,12094 Z"/>
        <path fill="none" stroke="rgb(221,221,221)" d="M 12797,12094 C 13139,12094 15041,11373 15041,11013 15041,10652 14137,10292 13794,10292 13794,10508 12797,11805 12797,12094 Z"/>
       </g>
      </g>
      <g class="Group">
       <g class="com.sun.star.drawing.PolyPolygonShape">
        <g id="id4">
         <rect class="BoundingBox" stroke="none" fill="none" x="8163" y="7173" width="6275" height="3645"/>
         <g>
          <defs>
           <linearGradient id="gradient1" x1="11300" y1="7193" x2="11300" y2="10796" gradientUnits="userSpaceOnUse">
            <stop offset="0.1" style="stop-color:rgb(51,51,51)"/>
            <stop offset="1" style="stop-color:rgb(153,153,153)"/>
           </linearGradient>
          </defs>
          <path style="fill:url(#gradient1)" d="M 12547,10796 L 8184,8274 10054,7193 14417,9715 12547,10796 Z"/>
         </g>
         <path fill="none" stroke="rgb(178,178,178)" stroke-width="40" stroke-linejoin="round" d="M 12547,10796 L 8184,8274 10054,7193 14417,9715 12547,10796 Z"/>
        </g>
       </g>
       <g class="com.sun.star.drawing.PolyPolygonShape">
        <g id="id5">
         <rect class="BoundingBox" stroke="none" fill="none" x="8164" y="8254" width="4404" height="3716"/>
         <g>
          <defs>
           <linearGradient id="gradient2" x1="8184" y1="10111" x2="12547" y2="10111" gradientUnits="userSpaceOnUse">
            <stop offset="0.1" style="stop-color:rgb(51,51,51)"/>
            <stop offset="1" style="stop-color:rgb(153,153,153)"/>
           </linearGradient>
          </defs>
          <path style="fill:url(#gradient2)" d="M 8184,9427 L 8184,8274 12547,10796 12547,11949 8184,9427 Z"/>
         </g>
         <path fill="none" stroke="rgb(178,178,178)" stroke-width="40" stroke-linejoin="round" d="M 8184,9427 L 8184,8274 12547,10796 12547,11949 8184,9427 Z"/>
        </g>
       </g>
       <g class="com.sun.star.drawing.PolyPolygonShape">
        <g id="id6">
         <rect class="BoundingBox" stroke="none" fill="none" x="12528" y="9695" width="1911" height="2275"/>
         <g>
          <defs>
           <pattern id="pattern1" x="12548" y="9715" width="1871" height="2235" patternUnits="userSpaceOnUse">
            <g transform="translate(-12548,-9715)">
             <path fill="rgb(51,51,51)" stroke="none" d="M 12547,9714 L 14419,9714 14419,11950 12547,11950 12547,9714 Z M 12182,9278 L 14034,9278 14034,11492 12182,11492 12182,9278 Z"/>
             <path fill="rgb(52,52,52)" stroke="none" d="M 12182,9278 L 14034,9278 14034,11492 12182,11492 12182,9278 Z M 12191,9289 L 14025,9289 14025,11481 12191,11481 12191,9289 Z"/>
             <path fill="rgb(53,53,53)" stroke="none" d="M 12191,9289 L 14025,9289 14025,11481 12191,11481 12191,9289 Z M 12200,9300 L 14016,9300 14016,11470 12200,11470 12200,9300 Z"/>
             <path fill="rgb(54,54,54)" stroke="none" d="M 12200,9300 L 14016,9300 14016,11470 12200,11470 12200,9300 Z M 12209,9311 L 14007,9311 14007,11459 12209,11459 12209,9311 Z"/>
             <path fill="rgb(55,55,55)" stroke="none" d="M 12209,9311 L 14007,9311 14007,11459 12209,11459 12209,9311 Z M 12218,9322 L 13998,9322 13998,11448 12218,11448 12218,9322 Z"/>
             <path fill="rgb(56,56,56)" stroke="none" d="M 12218,9322 L 13998,9322 13998,11448 12218,11448 12218,9322 Z M 12228,9333 L 13988,9333 13988,11437 12228,11437 12228,9333 Z"/>
             <path fill="rgb(57,57,57)" stroke="none" d="M 12228,9333 L 13988,9333 13988,11437 12228,11437 12228,9333 Z M 12237,9344 L 13979,9344 13979,11426 12237,11426 12237,9344 Z"/>
             <path fill="rgb(58,58,58)" stroke="none" d="M 12237,9344 L 13979,9344 13979,11426 12237,11426 12237,9344 Z M 12246,9355 L 13970,9355 13970,11415 12246,11415 12246,9355 Z"/>
             <path fill="rgb(59,59,59)" stroke="none" d="M 12246,9355 L 13970,9355 13970,11415 12246,11415 12246,9355 Z M 12255,9366 L 13961,9366 13961,11404 12255,11404 12255,9366 Z"/>
             <path fill="rgb(60,60,60)" stroke="none" d="M 12255,9366 L 13961,9366 13961,11404 12255,11404 12255,9366 Z M 12264,9377 L 13952,9377 13952,11393 12264,11393 12264,9377 Z"/>
             <path fill="rgb(61,61,61)" stroke="none" d="M 12264,9377 L 13952,9377 13952,11393 12264,11393 12264,9377 Z M 12273,9388 L 13943,9388 13943,11382 12273,11382 12273,9388 Z"/>
             <path fill="rgb(62,62,62)" stroke="none" d="M 12273,9388 L 13943,9388 13943,11382 12273,11382 12273,9388 Z M 12283,9399 L 13933,9399 13933,11371 12283,11371 12283,9399 Z"/>
             <path fill="rgb(63,63,63)" stroke="none" d="M 12283,9399 L 13933,9399 13933,11371 12283,11371 12283,9399 Z M 12292,9410 L 13924,9410 13924,11360 12292,11360 12292,9410 Z"/>
             <path fill="rgb(64,64,64)" stroke="none" d="M 12292,9410 L 13924,9410 13924,11360 12292,11360 12292,9410 Z M 12301,9421 L 13915,9421 13915,11349 12301,11349 12301,9421 Z"/>
             <path fill="rgb(65,65,65)" stroke="none" d="M 12301,9421 L 13915,9421 13915,11349 12301,11349 12301,9421 Z M 12310,9432 L 13906,9432 13906,11338 12310,11338 12310,9432 Z"/>
             <path fill="rgb(66,66,66)" stroke="none" d="M 12310,9432 L 13906,9432 13906,11338 12310,11338 12310,9432 Z M 12319,9443 L 13897,9443 13897,11327 12319,11327 12319,9443 Z"/>
             <path fill="rgb(67,67,67)" stroke="none" d="M 12319,9443 L 13897,9443 13897,11327 12319,11327 12319,9443 Z M 12329,9454 L 13887,9454 13887,11316 12329,11316 12329,9454 Z"/>
             <path fill="rgb(68,68,68)" stroke="none" d="M 12329,9454 L 13887,9454 13887,11316 12329,11316 12329,9454 Z M 12338,9465 L 13878,9465 13878,11305 12338,11305 12338,9465 Z"/>
             <path fill="rgb(69,69,69)" stroke="none" d="M 12338,9465 L 13878,9465 13878,11305 12338,11305 12338,9465 Z M 12347,9476 L 13869,9476 13869,11294 12347,11294 12347,9476 Z"/>
             <path fill="rgb(70,70,70)" stroke="none" d="M 12347,9476 L 13869,9476 13869,11294 12347,11294 12347,9476 Z M 12356,9487 L 13860,9487 13860,11283 12356,11283 12356,9487 Z"/>
             <path fill="rgb(71,71,71)" stroke="none" d="M 12356,9487 L 13860,9487 13860,11283 12356,11283 12356,9487 Z M 12365,9498 L 13851,9498 13851,11272 12365,11272 12365,9498 Z"/>
             <path fill="rgb(72,72,72)" stroke="none" d="M 12365,9498 L 13851,9498 13851,11272 12365,11272 12365,9498 Z M 12374,9509 L 13842,9509 13842,11261 12374,11261 12374,9509 Z"/>
             <path fill="rgb(73,73,73)" stroke="none" d="M 12374,9509 L 13842,9509 13842,11261 12374,11261 12374,9509 Z M 12384,9520 L 13832,9520 13832,11250 12384,11250 12384,9520 Z"/>
             <path fill="rgb(74,74,74)" stroke="none" d="M 12384,9520 L 13832,9520 13832,11250 12384,11250 12384,9520 Z M 12393,9531 L 13823,9531 13823,11239 12393,11239 12393,9531 Z"/>
             <path fill="rgb(75,75,75)" stroke="none" d="M 12393,9531 L 13823,9531 13823,11239 12393,11239 12393,9531 Z M 12402,9542 L 13814,9542 13814,11228 12402,11228 12402,9542 Z"/>
             <path fill="rgb(76,76,76)" stroke="none" d="M 12402,9542 L 13814,9542 13814,11228 12402,11228 12402,9542 Z M 12411,9553 L 13805,9553 13805,11217 12411,11217 12411,9553 Z"/>
             <path fill="rgb(77,77,77)" stroke="none" d="M 12411,9553 L 13805,9553 13805,11217 12411,11217 12411,9553 Z M 12420,9564 L 13796,9564 13796,11206 12420,11206 12420,9564 Z"/>
             <path fill="rgb(78,78,78)" stroke="none" d="M 12420,9564 L 13796,9564 13796,11206 12420,11206 12420,9564 Z M 12430,9575 L 13786,9575 13786,11195 12430,11195 12430,9575 Z"/>
             <path fill="rgb(79,79,79)" stroke="none" d="M 12430,9575 L 13786,9575 13786,11195 12430,11195 12430,9575 Z M 12439,9586 L 13777,9586 13777,11184 12439,11184 12439,9586 Z"/>
             <path fill="rgb(80,80,80)" stroke="none" d="M 12439,9586 L 13777,9586 13777,11184 12439,11184 12439,9586 Z M 12448,9596 L 13768,9596 13768,11174 12448,11174 12448,9596 Z"/>
             <path fill="rgb(81,81,81)" stroke="none" d="M 12448,9596 L 13768,9596 13768,11174 12448,11174 12448,9596 Z M 12457,9607 L 13759,9607 13759,11163 12457,11163 12457,9607 Z"/>
             <path fill="rgb(82,82,82)" stroke="none" d="M 12457,9607 L 13759,9607 13759,11163 12457,11163 12457,9607 Z M 12466,9618 L 13750,9618 13750,11152 12466,11152 12466,9618 Z"/>
             <path fill="rgb(83,83,83)" stroke="none" d="M 12466,9618 L 13750,9618 13750,11152 12466,11152 12466,9618 Z M 12475,9629 L 13741,9629 13741,11141 12475,11141 12475,9629 Z"/>
             <path fill="rgb(84,84,84)" stroke="none" d="M 12475,9629 L 13741,9629 13741,11141 12475,11141 12475,9629 Z M 12485,9640 L 13731,9640 13731,11130 12485,11130 12485,9640 Z"/>
             <path fill="rgb(85,85,85)" stroke="none" d="M 12485,9640 L 13731,9640 13731,11130 12485,11130 12485,9640 Z M 12494,9651 L 13722,9651 13722,11119 12494,11119 12494,9651 Z"/>
             <path fill="rgb(86,86,86)" stroke="none" d="M 12494,9651 L 13722,9651 13722,11119 12494,11119 12494,9651 Z M 12503,9662 L 13713,9662 13713,11108 12503,11108 12503,9662 Z"/>
             <path fill="rgb(87,87,87)" stroke="none" d="M 12503,9662 L 13713,9662 13713,11108 12503,11108 12503,9662 Z M 12512,9673 L 13704,9673 13704,11097 12512,11097 12512,9673 Z"/>
             <path fill="rgb(88,88,88)" stroke="none" d="M 12512,9673 L 13704,9673 13704,11097 12512,11097 12512,9673 Z M 12521,9684 L 13695,9684 13695,11086 12521,11086 12521,9684 Z"/>
             <path fill="rgb(89,89,89)" stroke="none" d="M 12521,9684 L 13695,9684 13695,11086 12521,11086 12521,9684 Z M 12530,9695 L 13685,9695 13685,11075 12530,11075 12530,9695 Z"/>
             <path fill="rgb(90,90,90)" stroke="none" d="M 12530,9695 L 13685,9695 13685,11075 12530,11075 12530,9695 Z M 12539,9705 L 13676,9705 13676,11064 12539,11064 12539,9705 Z"/>
             <path fill="rgb(91,91,91)" stroke="none" d="M 12539,9705 L 13676,9705 13676,11064 12539,11064 12539,9705 Z M 12548,9716 L 13667,9716 13667,11053 12548,11053 12548,9716 Z"/>
             <path fill="rgb(92,92,92)" stroke="none" d="M 12548,9716 L 13667,9716 13667,11053 12548,11053 12548,9716 Z M 12557,9727 L 13658,9727 13658,11042 12557,11042 12557,9727 Z"/>
             <path fill="rgb(93,93,93)" stroke="none" d="M 12557,9727 L 13658,9727 13658,11042 12557,11042 12557,9727 Z M 12566,9738 L 13649,9738 13649,11031 12566,11031 12566,9738 Z"/>
             <path fill="rgb(94,94,94)" stroke="none" d="M 12566,9738 L 13649,9738 13649,11031 12566,11031 12566,9738 Z M 12575,9749 L 13640,9749 13640,11020 12575,11020 12575,9749 Z"/>
             <path fill="rgb(95,95,95)" stroke="none" d="M 12575,9749 L 13640,9749 13640,11020 12575,11020 12575,9749 Z M 12585,9760 L 13630,9760 13630,11009 12585,11009 12585,9760 Z"/>
             <path fill="rgb(96,96,96)" stroke="none" d="M 12585,9760 L 13630,9760 13630,11009 12585,11009 12585,9760 Z M 12594,9771 L 13621,9771 13621,10998 12594,10998 12594,9771 Z"/>
             <path fill="rgb(97,97,97)" stroke="none" d="M 12594,9771 L 13621,9771 13621,10998 12594,10998 12594,9771 Z M 12603,9782 L 13612,9782 13612,10987 12603,10987 12603,9782 Z"/>
             <path fill="rgb(98,98,98)" stroke="none" d="M 12603,9782 L 13612,9782 13612,10987 12603,10987 12603,9782 Z M 12612,9793 L 13603,9793 13603,10976 12612,10976 12612,9793 Z"/>
             <path fill="rgb(99,99,99)" stroke="none" d="M 12612,9793 L 13603,9793 13603,10976 12612,10976 12612,9793 Z M 12621,9804 L 13594,9804 13594,10965 12621,10965 12621,9804 Z"/>
             <path fill="rgb(100,100,100)" stroke="none" d="M 12621,9804 L 13594,9804 13594,10965 12621,10965 12621,9804 Z M 12631,9815 L 13584,9815 13584,10954 12631,10954 12631,9815 Z"/>
             <path fill="rgb(101,101,101)" stroke="none" d="M 12631,9815 L 13584,9815 13584,10954 12631,10954 12631,9815 Z M 12640,9826 L 13575,9826 13575,10943 12640,10943 12640,9826 Z"/>
             <path fill="rgb(102,102,102)" stroke="none" d="M 12640,9826 L 13575,9826 13575,10943 12640,10943 12640,9826 Z M 12649,9837 L 13566,9837 13566,10932 12649,10932 12649,9837 Z"/>
             <path fill="rgb(103,103,103)" stroke="none" d="M 12649,9837 L 13566,9837 13566,10932 12649,10932 12649,9837 Z M 12658,9848 L 13557,9848 13557,10921 12658,10921 12658,9848 Z"/>
             <path fill="rgb(104,104,104)" stroke="none" d="M 12658,9848 L 13557,9848 13557,10921 12658,10921 12658,9848 Z M 12667,9859 L 13548,9859 13548,10910 12667,10910 12667,9859 Z"/>
             <path fill="rgb(105,105,105)" stroke="none" d="M 12667,9859 L 13548,9859 13548,10910 12667,10910 12667,9859 Z M 12676,9870 L 13539,9870 13539,10899 12676,10899 12676,9870 Z"/>
             <path fill="rgb(106,106,106)" stroke="none" d="M 12676,9870 L 13539,9870 13539,10899 12676,10899 12676,9870 Z M 12686,9881 L 13529,9881 13529,10888 12686,10888 12686,9881 Z"/>
             <path fill="rgb(107,107,107)" stroke="none" d="M 12686,9881 L 13529,9881 13529,10888 12686,10888 12686,9881 Z M 12695,9892 L 13520,9892 13520,10877 12695,10877 12695,9892 Z"/>
             <path fill="rgb(108,108,108)" stroke="none" d="M 12695,9892 L 13520,9892 13520,10877 12695,10877 12695,9892 Z M 12704,9903 L 13511,9903 13511,10866 12704,10866 12704,9903 Z"/>
             <path fill="rgb(109,109,109)" stroke="none" d="M 12704,9903 L 13511,9903 13511,10866 12704,10866 12704,9903 Z M 12713,9913 L 13502,9913 13502,10856 12713,10856 12713,9913 Z"/>
             <path fill="rgb(110,110,110)" stroke="none" d="M 12713,9913 L 13502,9913 13502,10856 12713,10856 12713,9913 Z M 12722,9924 L 13493,9924 13493,10845 12722,10845 12722,9924 Z"/>
             <path fill="rgb(111,111,111)" stroke="none" d="M 12722,9924 L 13493,9924 13493,10845 12722,10845 12722,9924 Z M 12732,9935 L 13483,9935 13483,10834 12732,10834 12732,9935 Z"/>
             <path fill="rgb(112,112,112)" stroke="none" d="M 12732,9935 L 13483,9935 13483,10834 12732,10834 12732,9935 Z M 12741,9946 L 13474,9946 13474,10823 12741,10823 12741,9946 Z"/>
             <path fill="rgb(113,113,113)" stroke="none" d="M 12741,9946 L 13474,9946 13474,10823 12741,10823 12741,9946 Z M 12750,9957 L 13465,9957 13465,10812 12750,10812 12750,9957 Z"/>
             <path fill="rgb(114,114,114)" stroke="none" d="M 12750,9957 L 13465,9957 13465,10812 12750,10812 12750,9957 Z M 12759,9968 L 13456,9968 13456,10801 12759,10801 12759,9968 Z"/>
             <path fill="rgb(115,115,115)" stroke="none" d="M 12759,9968 L 13456,9968 13456,10801 12759,10801 12759,9968 Z M 12768,9979 L 13447,9979 13447,10790 12768,10790 12768,9979 Z"/>
             <path fill="rgb(116,116,116)" stroke="none" d="M 12768,9979 L 13447,9979 13447,10790 12768,10790 12768,9979 Z M 12777,9990 L 13438,9990 13438,10779 12777,10779 12777,9990 Z"/>
             <path fill="rgb(117,117,117)" stroke="none" d="M 12777,9990 L 13438,9990 13438,10779 12777,10779 12777,9990 Z M 12787,10001 L 13428,10001 13428,10768 12787,10768 12787,10001 Z"/>
             <path fill="rgb(118,118,118)" stroke="none" d="M 12787,10001 L 13428,10001 13428,10768 12787,10768 12787,10001 Z M 12796,10012 L 13419,10012 13419,10757 12796,10757 12796,10012 Z"/>
             <path fill="rgb(119,119,119)" stroke="none" d="M 12796,10012 L 13419,10012 13419,10757 12796,10757 12796,10012 Z M 12805,10023 L 13410,10023 13410,10746 12805,10746 12805,10023 Z"/>
             <path fill="rgb(120,120,120)" stroke="none" d="M 12805,10023 L 13410,10023 13410,10746 12805,10746 12805,10023 Z M 12814,10034 L 13401,10034 13401,10735 12814,10735 12814,10034 Z"/>
             <path fill="rgb(121,121,121)" stroke="none" d="M 12814,10034 L 13401,10034 13401,10735 12814,10735 12814,10034 Z M 12823,10045 L 13392,10045 13392,10724 12823,10724 12823,10045 Z"/>
             <path fill="rgb(122,122,122)" stroke="none" d="M 12823,10045 L 13392,10045 13392,10724 12823,10724 12823,10045 Z M 12833,10056 L 13382,10056 13382,10713 12833,10713 12833,10056 Z"/>
             <path fill="rgb(123,123,123)" stroke="none" d="M 12833,10056 L 13382,10056 13382,10713 12833,10713 12833,10056 Z M 12842,10067 L 13373,10067 13373,10702 12842,10702 12842,10067 Z"/>
             <path fill="rgb(124,124,124)" stroke="none" d="M 12842,10067 L 13373,10067 13373,10702 12842,10702 12842,10067 Z M 12851,10078 L 13364,10078 13364,10691 12851,10691 12851,10078 Z"/>
             <path fill="rgb(125,125,125)" stroke="none" d="M 12851,10078 L 13364,10078 13364,10691 12851,10691 12851,10078 Z M 12860,10089 L 13355,10089 13355,10680 12860,10680 12860,10089 Z"/>
             <path fill="rgb(126,126,126)" stroke="none" d="M 12860,10089 L 13355,10089 13355,10680 12860,10680 12860,10089 Z M 12869,10100 L 13346,10100 13346,10669 12869,10669 12869,10100 Z"/>
             <path fill="rgb(127,127,127)" stroke="none" d="M 12869,10100 L 13346,10100 13346,10669 12869,10669 12869,10100 Z M 12878,10111 L 13337,10111 13337,10658 12878,10658 12878,10111 Z"/>
             <path fill="rgb(128,128,128)" stroke="none" d="M 12878,10111 L 13337,10111 13337,10658 12878,10658 12878,10111 Z M 12888,10122 L 13327,10122 13327,10647 12888,10647 12888,10122 Z"/>
             <path fill="rgb(129,129,129)" stroke="none" d="M 12888,10122 L 13327,10122 13327,10647 12888,10647 12888,10122 Z M 12897,10133 L 13318,10133 13318,10636 12897,10636 12897,10133 Z"/>
             <path fill="rgb(130,130,130)" stroke="none" d="M 12897,10133 L 13318,10133 13318,10636 12897,10636 12897,10133 Z M 12906,10144 L 13309,10144 13309,10625 12906,10625 12906,10144 Z"/>
             <path fill="rgb(131,131,131)" stroke="none" d="M 12906,10144 L 13309,10144 13309,10625 12906,10625 12906,10144 Z M 12915,10155 L 13300,10155 13300,10614 12915,10614 12915,10155 Z"/>
             <path fill="rgb(132,132,132)" stroke="none" d="M 12915,10155 L 13300,10155 13300,10614 12915,10614 12915,10155 Z M 12924,10166 L 13291,10166 13291,10603 12924,10603 12924,10166 Z"/>
             <path fill="rgb(133,133,133)" stroke="none" d="M 12924,10166 L 13291,10166 13291,10603 12924,10603 12924,10166 Z M 12934,10177 L 13281,10177 13281,10592 12934,10592 12934,10177 Z"/>
             <path fill="rgb(134,134,134)" stroke="none" d="M 12934,10177 L 13281,10177 13281,10592 12934,10592 12934,10177 Z M 12943,10188 L 13272,10188 13272,10581 12943,10581 12943,10188 Z"/>
             <path fill="rgb(135,135,135)" stroke="none" d="M 12943,10188 L 13272,10188 13272,10581 12943,10581 12943,10188 Z M 12952,10199 L 13263,10199 13263,10570 12952,10570 12952,10199 Z"/>
             <path fill="rgb(136,136,136)" stroke="none" d="M 12952,10199 L 13263,10199 13263,10570 12952,10570 12952,10199 Z M 12961,10210 L 13254,10210 13254,10559 12961,10559 12961,10210 Z"/>
             <path fill="rgb(137,137,137)" stroke="none" d="M 12961,10210 L 13254,10210 13254,10559 12961,10559 12961,10210 Z M 12970,10221 L 13245,10221 13245,10548 12970,10548 12970,10221 Z"/>
             <path fill="rgb(138,138,138)" stroke="none" d="M 12970,10221 L 13245,10221 13245,10548 12970,10548 12970,10221 Z M 12979,10231 L 13236,10231 13236,10538 12979,10538 12979,10231 Z"/>
             <path fill="rgb(139,139,139)" stroke="none" d="M 12979,10231 L 13236,10231 13236,10538 12979,10538 12979,10231 Z M 12989,10242 L 13226,10242 13226,10527 12989,10527 12989,10242 Z"/>
             <path fill="rgb(140,140,140)" stroke="none" d="M 12989,10242 L 13226,10242 13226,10527 12989,10527 12989,10242 Z M 12998,10253 L 13217,10253 13217,10516 12998,10516 12998,10253 Z"/>
             <path fill="rgb(141,141,141)" stroke="none" d="M 12998,10253 L 13217,10253 13217,10516 12998,10516 12998,10253 Z M 13007,10264 L 13208,10264 13208,10505 13007,10505 13007,10264 Z"/>
             <path fill="rgb(142,142,142)" stroke="none" d="M 13007,10264 L 13208,10264 13208,10505 13007,10505 13007,10264 Z M 13016,10275 L 13199,10275 13199,10494 13016,10494 13016,10275 Z"/>
             <path fill="rgb(143,143,143)" stroke="none" d="M 13016,10275 L 13199,10275 13199,10494 13016,10494 13016,10275 Z M 13025,10286 L 13190,10286 13190,10483 13025,10483 13025,10286 Z"/>
             <path fill="rgb(144,144,144)" stroke="none" d="M 13025,10286 L 13190,10286 13190,10483 13025,10483 13025,10286 Z M 13035,10297 L 13180,10297 13180,10472 13035,10472 13035,10297 Z"/>
             <path fill="rgb(145,145,145)" stroke="none" d="M 13035,10297 L 13180,10297 13180,10472 13035,10472 13035,10297 Z M 13044,10308 L 13171,10308 13171,10461 13044,10461 13044,10308 Z"/>
             <path fill="rgb(146,146,146)" stroke="none" d="M 13044,10308 L 13171,10308 13171,10461 13044,10461 13044,10308 Z M 13053,10319 L 13162,10319 13162,10450 13053,10450 13053,10319 Z"/>
             <path fill="rgb(147,147,147)" stroke="none" d="M 13053,10319 L 13162,10319 13162,10450 13053,10450 13053,10319 Z M 13062,10330 L 13153,10330 13153,10439 13062,10439 13062,10330 Z"/>
             <path fill="rgb(148,148,148)" stroke="none" d="M 13062,10330 L 13153,10330 13153,10439 13062,10439 13062,10330 Z M 13071,10341 L 13144,10341 13144,10428 13071,10428 13071,10341 Z"/>
             <path fill="rgb(149,149,149)" stroke="none" d="M 13071,10341 L 13144,10341 13144,10428 13071,10428 13071,10341 Z M 13080,10352 L 13135,10352 13135,10417 13080,10417 13080,10352 Z"/>
             <path fill="rgb(150,150,150)" stroke="none" d="M 13080,10352 L 13135,10352 13135,10417 13080,10417 13080,10352 Z M 13090,10363 L 13125,10363 13125,10406 13090,10406 13090,10363 Z"/>
             <path fill="rgb(151,151,151)" stroke="none" d="M 13090,10363 L 13125,10363 13125,10406 13090,10406 13090,10363 Z M 13099,10374 L 13116,10374 13116,10395 13099,10395 13099,10374 Z"/>
             <path fill="rgb(153,153,153)" stroke="none" d="M 13099,10374 L 13116,10374 13116,10395 13099,10395 13099,10374 Z"/>
            </g>
           </pattern>
          </defs>
          <path style="fill:url(#pattern1)" d="M 12548,11949 L 12548,10796 14418,9715 14418,10868 12548,11949 Z"/>
         </g>
         <path fill="none" stroke="rgb(178,178,178)" stroke-width="40" stroke-linejoin="round" d="M 12548,11949 L 12548,10796 14418,9715 14418,10868 12548,11949 Z"/>
        </g>
       </g>
       <g class="com.sun.star.drawing.PolyPolygonShape">
        <g id="id7">
         <rect class="BoundingBox" stroke="none" fill="none" x="7914" y="8110" width="291" height="1338"/>
         <g>
          <defs>
           <linearGradient id="gradient3" x1="7934" y1="8778" x2="8185" y2="8778" gradientUnits="userSpaceOnUse">
            <stop offset="0.1" style="stop-color:rgb(51,51,51)"/>
            <stop offset="1" style="stop-color:rgb(153,153,153)"/>
           </linearGradient>
          </defs>
          <path style="fill:url(#gradient3)" d="M 7935,9283 L 7935,8130 8184,8274 8184,9427 7935,9283 Z"/>
         </g>
         <path fill="none" stroke="rgb(178,178,178)" stroke-width="40" stroke-linejoin="round" d="M 7935,9283 L 7935,8130 8184,8274 8184,9427 7935,9283 Z"/>
        </g>
       </g>
       <g class="com.sun.star.drawing.PolyPolygonShape">
        <g id="id8">
         <rect class="BoundingBox" stroke="none" fill="none" x="12527" y="10776" width="291" height="1338"/>
         <g>
          <defs>
           <linearGradient id="gradient4" x1="12672" y1="12092" x2="12672" y2="10795" gradientUnits="userSpaceOnUse">
            <stop offset="0.1" style="stop-color:rgb(102,102,102)"/>
            <stop offset="1" style="stop-color:rgb(153,153,153)"/>
           </linearGradient>
          </defs>
          <path style="fill:url(#gradient4)" d="M 12548,11949 L 12548,10796 12797,10940 12797,12093 12548,11949 Z"/>
         </g>
         <path fill="none" stroke="rgb(178,178,178)" stroke-width="40" stroke-linejoin="round" d="M 12548,11949 L 12548,10796 12797,10940 12797,12093 12548,11949 Z"/>
        </g>
       </g>
       <g class="com.sun.star.drawing.PolyPolygonShape">
        <g id="id9">
         <rect class="BoundingBox" stroke="none" fill="none" x="7915" y="7173" width="6525" height="4941"/>
         <path fill="none" stroke="rgb(0,0,0)" stroke-width="40" stroke-linejoin="round" d="M 7935,9283 L 7935,8130 8184,8274 10054,7193 14418,9715 14418,10868 12797,11805 12797,12093 7935,9283 Z"/>
        </g>
       </g>
       <g class="com.sun.star.drawing.PolyPolygonShape">
        <g id="id10">
         <rect class="BoundingBox" stroke="none" fill="none" x="9660" y="9983" width="166" height="257"/>
         <path fill="rgb(0,0,0)" stroke="none" d="M 9680,10147 L 9680,10003 9805,10075 9805,10219 9680,10147 Z"/>
         <path fill="none" stroke="rgb(178,178,178)" stroke-width="40" stroke-linejoin="round" d="M 9680,10147 L 9680,10003 9805,10075 9805,10219 9680,10147 Z"/>
        </g>
       </g>
       <g class="com.sun.star.drawing.PolyPolygonShape">
        <g id="id11">
         <rect class="BoundingBox" stroke="none" fill="none" x="10034" y="10199" width="166" height="258"/>
         <path fill="rgb(0,0,0)" stroke="none" d="M 10054,10364 L 10054,10220 10179,10292 10179,10436 10054,10364 Z"/>
         <path fill="none" stroke="rgb(178,178,178)" stroke-width="40" stroke-linejoin="round" d="M 10054,10364 L 10054,10220 10179,10292 10179,10436 10054,10364 Z"/>
        </g>
       </g>
       <g class="com.sun.star.drawing.PolyPolygonShape">
        <g id="id12">
         <rect class="BoundingBox" stroke="none" fill="none" x="10284" y="10344" width="166" height="257"/>
         <path fill="rgb(0,0,0)" stroke="none" d="M 10304,10508 L 10304,10364 10429,10436 10429,10580 10304,10508 Z"/>
         <path fill="none" stroke="rgb(178,178,178)" stroke-width="40" stroke-linejoin="round" d="M 10304,10508 L 10304,10364 10429,10436 10429,10580 10304,10508 Z"/>
        </g>
       </g>
       <g class="com.sun.star.drawing.PolyPolygonShape">
        <g id="id13">
         <rect class="BoundingBox" stroke="none" fill="none" x="10533" y="10488" width="166" height="257"/>
         <path fill="rgb(0,0,0)" stroke="none" d="M 10553,10652 L 10553,10508 10678,10580 10678,10724 10553,10652 Z"/>
         <path fill="none" stroke="rgb(178,178,178)" stroke-width="40" stroke-linejoin="round" d="M 10553,10652 L 10553,10508 10678,10580 10678,10724 10553,10652 Z"/>
        </g>
       </g>
       <g class="com.sun.star.drawing.PolyPolygonShape">
        <g id="id14">
         <rect class="BoundingBox" stroke="none" fill="none" x="10782" y="10631" width="166" height="258"/>
         <path fill="rgb(0,0,0)" stroke="none" d="M 10802,10796 L 10802,10652 10927,10724 10927,10868 10802,10796 Z"/>
         <path fill="none" stroke="rgb(178,178,178)" stroke-width="40" stroke-linejoin="round" d="M 10802,10796 L 10802,10652 10927,10724 10927,10868 10802,10796 Z"/>
        </g>
       </g>
       <g class="com.sun.star.drawing.PolyPolygonShape">
        <g id="id15">
         <rect class="BoundingBox" stroke="none" fill="none" x="11780" y="11207" width="664" height="546"/>
         <path fill="rgb(0,0,0)" stroke="none" d="M 11800,11372 L 11800,11228 12423,11588 12423,11732 11800,11372 Z"/>
         <path fill="none" stroke="rgb(178,178,178)" stroke-width="40" stroke-linejoin="round" d="M 11800,11372 L 11800,11228 12423,11588 12423,11732 11800,11372 Z"/>
        </g>
       </g>
       <g class="com.sun.star.drawing.PolyPolygonShape">
        <g id="id16">
         <rect class="BoundingBox" stroke="none" fill="none" x="11032" y="10776" width="664" height="545"/>
         <path fill="rgb(0,0,0)" stroke="none" d="M 11052,10940 L 11052,10796 11675,11156 11675,11300 11052,10940 Z"/>
         <path fill="none" stroke="rgb(178,178,178)" stroke-width="40" stroke-linejoin="round" d="M 11052,10940 L 11052,10796 11675,11156 11675,11300 11052,10940 Z"/>
        </g>
       </g>
       <g class="com.sun.star.drawing.PolyPolygonShape">
        <g id="id17">
         <rect class="BoundingBox" stroke="none" fill="none" x="11655" y="10560" width="789" height="762"/>
         <path fill="rgb(102,102,102)" stroke="none" d="M 11675,10868 L 11675,10580 12423,11012 12423,11301 11675,10868 Z"/>
         <path fill="none" stroke="rgb(178,178,178)" stroke-width="40" stroke-linejoin="round" d="M 11675,10868 L 11675,10580 12423,11012 12423,11301 11675,10868 Z"/>
        </g>
       </g>
       <g class="com.sun.star.drawing.PolyPolygonShape">
        <g id="id18">
         <rect class="BoundingBox" stroke="none" fill="none" x="12154" y="11136" width="166" height="257"/>
         <path fill="rgb(0,0,0)" stroke="none" d="M 12174,11300 L 12174,11156 12299,11228 12299,11372 12174,11300 Z"/>
         <path fill="none" stroke="rgb(178,178,178)" stroke-width="40" stroke-linejoin="round" d="M 12174,11300 L 12174,11156 12299,11228 12299,11372 12174,11300 Z"/>
        </g>
       </g>
       <g class="com.sun.star.drawing.PolyPolygonShape">
        <g id="id19">
         <rect class="BoundingBox" stroke="none" fill="none" x="12029" y="11063" width="166" height="258"/>
         <path fill="rgb(0,0,0)" stroke="none" d="M 12049,11228 L 12049,11084 12174,11156 12174,11300 12049,11228 Z"/>
         <path fill="none" stroke="rgb(178,178,178)" stroke-width="40" stroke-linejoin="round" d="M 12049,11228 L 12049,11084 12174,11156 12174,11300 12049,11228 Z"/>
        </g>
       </g>
       <g class="com.sun.star.drawing.PolyPolygonShape">
        <g id="id20">
         <rect class="BoundingBox" stroke="none" fill="none" x="11904" y="10992" width="166" height="257"/>
         <path fill="rgb(0,0,0)" stroke="none" d="M 11924,11156 L 11924,11012 12049,11084 12049,11228 11924,11156 Z"/>
         <path fill="none" stroke="rgb(178,178,178)" stroke-width="40" stroke-linejoin="round" d="M 11924,11156 L 11924,11012 12049,11084 12049,11228 11924,11156 Z"/>
        </g>
       </g>
       <g class="com.sun.star.drawing.PolyPolygonShape">
        <g id="id21">
         <rect class="BoundingBox" stroke="none" fill="none" x="11780" y="10920" width="166" height="257"/>
         <path fill="rgb(0,0,0)" stroke="none" d="M 11800,11084 L 11800,10940 11925,11012 11925,11156 11800,11084 Z"/>
         <path fill="none" stroke="rgb(178,178,178)" stroke-width="40" stroke-linejoin="round" d="M 11800,11084 L 11800,10940 11925,11012 11925,11156 11800,11084 Z"/>
        </g>
       </g>
       <g class="com.sun.star.drawing.PolyPolygonShape">
        <g id="id22">
         <rect class="BoundingBox" stroke="none" fill="none" x="10781" y="10055" width="790" height="762"/>
         <path fill="rgb(102,102,102)" stroke="none" d="M 10802,10363 L 10802,10075 11550,10507 11550,10796 10802,10363 Z"/>
         <path fill="none" stroke="rgb(178,178,178)" stroke-width="40" stroke-linejoin="round" d="M 10802,10363 L 10802,10075 11550,10507 11550,10796 10802,10363 Z"/>
        </g>
       </g>
       <g class="com.sun.star.drawing.PolyPolygonShape">
        <g id="id23">
         <rect class="BoundingBox" stroke="none" fill="none" x="11281" y="10631" width="166" height="258"/>
         <path fill="rgb(0,0,0)" stroke="none" d="M 11301,10796 L 11301,10652 11426,10724 11426,10868 11301,10796 Z"/>
         <path fill="none" stroke="rgb(178,178,178)" stroke-width="40" stroke-linejoin="round" d="M 11301,10796 L 11301,10652 11426,10724 11426,10868 11301,10796 Z"/>
        </g>
       </g>
       <g class="com.sun.star.drawing.PolyPolygonShape">
        <g id="id24">
         <rect class="BoundingBox" stroke="none" fill="none" x="11156" y="10560" width="166" height="257"/>
         <path fill="rgb(0,0,0)" stroke="none" d="M 11176,10724 L 11176,10580 11301,10652 11301,10796 11176,10724 Z"/>
         <path fill="none" stroke="rgb(178,178,178)" stroke-width="40" stroke-linejoin="round" d="M 11176,10724 L 11176,10580 11301,10652 11301,10796 11176,10724 Z"/>
        </g>
       </g>
       <g class="com.sun.star.drawing.PolyPolygonShape">
        <g id="id25">
         <rect class="BoundingBox" stroke="none" fill="none" x="11032" y="10488" width="166" height="257"/>
         <path fill="rgb(0,0,0)" stroke="none" d="M 11052,10652 L 11052,10508 11177,10580 11177,10724 11052,10652 Z"/>
         <path fill="none" stroke="rgb(178,178,178)" stroke-width="40" stroke-linejoin="round" d="M 11052,10652 L 11052,10508 11177,10580 11177,10724 11052,10652 Z"/>
        </g>
       </g>
       <g class="com.sun.star.drawing.PolyPolygonShape">
        <g id="id26">
         <rect class="BoundingBox" stroke="none" fill="none" x="10907" y="10415" width="166" height="258"/>
         <path fill="rgb(0,0,0)" stroke="none" d="M 10927,10580 L 10927,10436 11052,10508 11052,10652 10927,10580 Z"/>
         <path fill="none" stroke="rgb(178,178,178)" stroke-width="40" stroke-linejoin="round" d="M 10927,10580 L 10927,10436 11052,10508 11052,10652 10927,10580 Z"/>
        </g>
       </g>
      </g>
     </g>
    </g>
   </g>
  </g>
 </g>
</svg>