<?xml version="1.0" encoding="UTF-8"?>
<!DOCTYPE svg PUBLIC "-//W3C//DTD SVG 1.1//EN" "http://www.w3.org/Graphics/SVG/1.1/DTD/svg11.dtd">
<svg version="1.2" width="36.78mm" height="39.6mm" viewBox="15359 11875 3678 3960" preserveAspectRatio="xMidYMid" fill-rule="evenodd" stroke-width="28.222" stroke-linejoin="round" xmlns="http://www.w3.org/2000/svg" xmlns:ooo="http://xml.openoffice.org/svg/export" xmlns:xlink="http://www.w3.org/1999/xlink" xmlns:presentation="http://sun.com/xmlns/staroffice/presentation" xmlns:smil="http://www.w3.org/2001/SMIL20/" xmlns:anim="urn:oasis:names:tc:opendocument:xmlns:animation:1.0" xml:space="preserve">
 <defs class="ClipPathGroup">
  <clipPath id="presentation_clip_path" clipPathUnits="userSpaceOnUse">
   <rect x="15359" y="11875" width="3678" height="3960"/>
  </clipPath>
 </defs>
 <defs class="TextShapeIndex">
  <g ooo:slide="id1" ooo:id-list="id3 id4 id5 id6 id7 id8 id9 id10 id11 id12 id13 id14 id15 id16 id17 id18 id19 id20"/>
 </defs>
 <defs class="EmbeddedBulletChars">
  <g id="bullet-char-template(57356)" transform="scale(0.00048828125,-0.00048828125)">
   <path d="M 580,1141 L 1163,571 580,0 -4,571 580,1141 Z"/>
  </g>
  <g id="bullet-char-template(57354)" transform="scale(0.00048828125,-0.00048828125)">
   <path d="M 8,1128 L 1137,1128 1137,0 8,0 8,1128 Z"/>
  </g>
  <g id="bullet-char-template(10146)" transform="scale(0.00048828125,-0.00048828125)">
   <path d="M 174,0 L 602,739 174,1481 1456,739 174,0 Z M 1358,739 L 309,1346 659,739 1358,739 Z"/>
  </g>
  <g id="bullet-char-template(10132)" transform="scale(0.00048828125,-0.00048828125)">
   <path d="M 2015,739 L 1276,0 717,0 1260,543 174,543 174,936 1260,936 717,1481 1274,1481 2015,739 Z"/>
  </g>
  <g id="bullet-char-template(10007)" transform="scale(0.00048828125,-0.00048828125)">
   <path d="M 0,-2 C -7,14 -16,27 -25,37 L 356,567 C 262,823 215,952 215,954 215,979 228,992 255,992 264,992 276,990 289,987 310,991 331,999 354,1012 L 381,999 492,748 772,1049 836,1024 860,1049 C 881,1039 901,1025 922,1006 886,937 835,863 770,784 769,783 710,716 594,584 L 774,223 C 774,196 753,168 711,139 L 727,119 C 717,90 699,76 672,76 641,76 570,178 457,381 L 164,-76 C 142,-110 111,-127 72,-127 30,-127 9,-110 8,-76 1,-67 -2,-52 -2,-32 -2,-23 -1,-13 0,-2 Z"/>
  </g>
  <g id="bullet-char-template(10004)" transform="scale(0.00048828125,-0.00048828125)">
   <path d="M 285,-33 C 182,-33 111,30 74,156 52,228 41,333 41,471 41,549 55,616 82,672 116,743 169,778 240,778 293,778 328,747 346,684 L 369,508 C 377,444 397,411 428,410 L 1163,1116 C 1174,1127 1196,1133 1229,1133 1271,1133 1292,1118 1292,1087 L 1292,965 C 1292,929 1282,901 1262,881 L 442,47 C 390,-6 338,-33 285,-33 Z"/>
  </g>
  <g id="bullet-char-template(9679)" transform="scale(0.00048828125,-0.00048828125)">
   <path d="M 813,0 C 632,0 489,54 383,161 276,268 223,411 223,592 223,773 276,916 383,1023 489,1130 632,1184 813,1184 992,1184 1136,1130 1245,1023 1353,916 1407,772 1407,592 1407,412 1353,268 1245,161 1136,54 992,0 813,0 Z"/>
  </g>
  <g id="bullet-char-template(8226)" transform="scale(0.00048828125,-0.00048828125)">
   <path d="M 346,457 C 273,457 209,483 155,535 101,586 74,649 74,723 74,796 101,859 155,911 209,963 273,989 346,989 419,989 480,963 531,910 582,859 608,796 608,723 608,648 583,586 532,535 482,483 420,457 346,457 Z"/>
  </g>
  <g id="bullet-char-template(8211)" transform="scale(0.00048828125,-0.00048828125)">
   <path d="M -4,459 L 1135,459 1135,606 -4,606 -4,459 Z"/>
  </g>
 </defs>
 <defs class="TextEmbeddedBitmaps"/>
 <g class="SlideGroup">
  <g>
   <g id="id1" class="Slide" clip-path="url(#presentation_clip_path)">
    <g class="Page">
     <g class="Group">
      <g class="com.sun.star.drawing.ClosedBezierShape">
       <g id="id3">
        <rect class="BoundingBox" stroke="none" fill="none" x="17145" y="14535" width="1893" height="1232"/>
        <path fill="rgb(221,221,221)" stroke="none" d="M 17165,15745 C 17640,15745 18863,15185 18984,14975 19105,14765 18863,14555 18742,14555 18742,14855 17165,15245 17165,15745 Z"/>
        <path fill="none" stroke="rgb(221,221,221)" stroke-width="40" stroke-linejoin="round" d="M 17165,15745 C 17640,15745 18863,15185 18984,14975 19105,14765 18863,14555 18742,14555 18742,14855 17165,15245 17165,15745 Z"/>
       </g>
      </g>
      <g class="Group">
       <g class="com.sun.star.drawing.PolyPolygonShape">
        <g id="id4">
         <rect class="BoundingBox" stroke="none" fill="none" x="15358" y="13975" width="1740" height="1861"/>
         <g>
          <defs>
           <linearGradient id="gradient1" x1="15378" y1="14905" x2="17078" y2="14905" gradientUnits="userSpaceOnUse">
            <stop offset="0.1" style="stop-color:rgb(0,115,188)"/>
            <stop offset="1" style="stop-color:rgb(127,185,221)"/>
           </linearGradient>
          </defs>
          <path style="fill:url(#gradient1)" d="M 15379,14835 L 15379,13995 17077,14975 17077,15815 15379,14835 Z"/>
         </g>
         <path fill="none" stroke="rgb(255,255,255)" stroke-width="40" stroke-linejoin="round" d="M 15379,14835 L 15379,13995 17077,14975 17077,15815 15379,14835 Z"/>
        </g>
       </g>
       <g class="com.sun.star.drawing.PolyPolygonShape">
        <g id="id5">
         <rect class="BoundingBox" stroke="none" fill="none" x="17057" y="13975" width="1738" height="1861"/>
         <g>
          <defs>
           <pattern id="pattern1" x="17077" y="13995" width="1698" height="1821" patternUnits="userSpaceOnUse">
            <g transform="translate(-17077,-13995)">
             <path fill="rgb(0,115,188)" stroke="none" d="M 17076,13994 L 18775,13994 18775,15816 17076,15816 17076,13994 Z M 16743,13637 L 18428,13637 18428,15443 16743,15443 16743,13637 Z"/>
             <path fill="rgb(1,115,188)" stroke="none" d="M 16743,13637 L 18428,13637 18428,15443 16743,15443 16743,13637 Z M 16750,13644 L 18421,13644 18421,15436 16750,15436 16750,13644 Z"/>
             <path fill="rgb(2,116,188)" stroke="none" d="M 16750,13644 L 18421,13644 18421,15436 16750,15436 16750,13644 Z M 16757,13651 L 18414,13651 18414,15429 16757,15429 16757,13651 Z"/>
             <path fill="rgb(3,116,188)" stroke="none" d="M 16757,13651 L 18414,13651 18414,15429 16757,15429 16757,13651 Z M 16763,13658 L 18408,13658 18408,15422 16763,15422 16763,13658 Z"/>
             <path fill="rgb(4,117,189)" stroke="none" d="M 16763,13658 L 18408,13658 18408,15422 16763,15422 16763,13658 Z M 16770,13665 L 18401,13665 18401,15415 16770,15415 16770,13665 Z"/>
             <path fill="rgb(5,117,189)" stroke="none" d="M 16770,13665 L 18401,13665 18401,15415 16770,15415 16770,13665 Z M 16777,13673 L 18394,13673 18394,15407 16777,15407 16777,13673 Z"/>
             <path fill="rgb(6,118,189)" stroke="none" d="M 16777,13673 L 18394,13673 18394,15407 16777,15407 16777,13673 Z M 16783,13680 L 18388,13680 18388,15400 16783,15400 16783,13680 Z"/>
             <path fill="rgb(7,118,189)" stroke="none" d="M 16783,13680 L 18388,13680 18388,15400 16783,15400 16783,13680 Z M 16790,13687 L 18381,13687 18381,15393 16790,15393 16790,13687 Z"/>
             <path fill="rgb(8,119,190)" stroke="none" d="M 16790,13687 L 18381,13687 18381,15393 16790,15393 16790,13687 Z M 16797,13694 L 18374,13694 18374,15386 16797,15386 16797,13694 Z"/>
             <path fill="rgb(9,119,190)" stroke="none" d="M 16797,13694 L 18374,13694 18374,15386 16797,15386 16797,13694 Z M 16803,13701 L 18368,13701 18368,15379 16803,15379 16803,13701 Z"/>
             <path fill="rgb(10,120,190)" stroke="none" d="M 16803,13701 L 18368,13701 18368,15379 16803,15379 16803,13701 Z M 16810,13708 L 18361,13708 18361,15372 16810,15372 16810,13708 Z"/>
             <path fill="rgb(11,121,190)" stroke="none" d="M 16810,13708 L 18361,13708 18361,15372 16810,15372 16810,13708 Z M 16817,13716 L 18354,13716 18354,15364 16817,15364 16817,13716 Z"/>
             <path fill="rgb(12,121,191)" stroke="none" d="M 16817,13716 L 18354,13716 18354,15364 16817,15364 16817,13716 Z M 16824,13723 L 18347,13723 18347,15357 16824,15357 16824,13723 Z"/>
             <path fill="rgb(13,122,191)" stroke="none" d="M 16824,13723 L 18347,13723 18347,15357 16824,15357 16824,13723 Z M 16830,13730 L 18341,13730 18341,15350 16830,15350 16830,13730 Z"/>
             <path fill="rgb(14,122,191)" stroke="none" d="M 16830,13730 L 18341,13730 18341,15350 16830,15350 16830,13730 Z M 16837,13737 L 18334,13737 18334,15343 16837,15343 16837,13737 Z"/>
             <path fill="rgb(15,123,191)" stroke="none" d="M 16837,13737 L 18334,13737 18334,15343 16837,15343 16837,13737 Z M 16844,13744 L 18327,13744 18327,15336 16844,15336 16844,13744 Z"/>
             <path fill="rgb(16,123,192)" stroke="none" d="M 16844,13744 L 18327,13744 18327,15336 16844,15336 16844,13744 Z M 16850,13752 L 18321,13752 18321,15328 16850,15328 16850,13752 Z"/>
             <path fill="rgb(17,124,192)" stroke="none" d="M 16850,13752 L 18321,13752 18321,15328 16850,15328 16850,13752 Z M 16857,13759 L 18314,13759 18314,15321 16857,15321 16857,13759 Z"/>
             <path fill="rgb(18,124,192)" stroke="none" d="M 16857,13759 L 18314,13759 18314,15321 16857,15321 16857,13759 Z M 16864,13766 L 18307,13766 18307,15314 16864,15314 16864,13766 Z"/>
             <path fill="rgb(19,125,192)" stroke="none" d="M 16864,13766 L 18307,13766 18307,15314 16864,15314 16864,13766 Z M 16870,13773 L 18301,13773 18301,15307 16870,15307 16870,13773 Z"/>
             <path fill="rgb(20,126,193)" stroke="none" d="M 16870,13773 L 18301,13773 18301,15307 16870,15307 16870,13773 Z M 16877,13780 L 18294,13780 18294,15300 16877,15300 16877,13780 Z"/>
             <path fill="rgb(21,126,193)" stroke="none" d="M 16877,13780 L 18294,13780 18294,15300 16877,15300 16877,13780 Z M 16884,13787 L 18287,13787 18287,15293 16884,15293 16884,13787 Z"/>
             <path fill="rgb(22,127,193)" stroke="none" d="M 16884,13787 L 18287,13787 18287,15293 16884,15293 16884,13787 Z M 16890,13795 L 18281,13795 18281,15285 16890,15285 16890,13795 Z"/>
             <path fill="rgb(23,127,193)" stroke="none" d="M 16890,13795 L 18281,13795 18281,15285 16890,15285 16890,13795 Z M 16897,13802 L 18274,13802 18274,15278 16897,15278 16897,13802 Z"/>
             <path fill="rgb(24,128,194)" stroke="none" d="M 16897,13802 L 18274,13802 18274,15278 16897,15278 16897,13802 Z M 16904,13809 L 18267,13809 18267,15271 16904,15271 16904,13809 Z"/>
             <path fill="rgb(25,128,194)" stroke="none" d="M 16904,13809 L 18267,13809 18267,15271 16904,15271 16904,13809 Z M 16911,13816 L 18260,13816 18260,15264 16911,15264 16911,13816 Z"/>
             <path fill="rgb(26,129,194)" stroke="none" d="M 16911,13816 L 18260,13816 18260,15264 16911,15264 16911,13816 Z M 16917,13823 L 18254,13823 18254,15257 16917,15257 16917,13823 Z"/>
             <path fill="rgb(27,129,195)" stroke="none" d="M 16917,13823 L 18254,13823 18254,15257 16917,15257 16917,13823 Z M 16924,13830 L 18247,13830 18247,15250 16924,15250 16924,13830 Z"/>
             <path fill="rgb(28,130,195)" stroke="none" d="M 16924,13830 L 18247,13830 18247,15250 16924,15250 16924,13830 Z M 16931,13838 L 18240,13838 18240,15242 16931,15242 16931,13838 Z"/>
             <path fill="rgb(29,130,195)" stroke="none" d="M 16931,13838 L 18240,13838 18240,15242 16931,15242 16931,13838 Z M 16937,13845 L 18234,13845 18234,15235 16937,15235 16937,13845 Z"/>
             <path fill="rgb(30,131,195)" stroke="none" d="M 16937,13845 L 18234,13845 18234,15235 16937,15235 16937,13845 Z M 16944,13852 L 18227,13852 18227,15228 16944,15228 16944,13852 Z"/>
             <path fill="rgb(31,132,196)" stroke="none" d="M 16944,13852 L 18227,13852 18227,15228 16944,15228 16944,13852 Z M 16951,13859 L 18220,13859 18220,15221 16951,15221 16951,13859 Z"/>
             <path fill="rgb(32,132,196)" stroke="none" d="M 16951,13859 L 18220,13859 18220,15221 16951,15221 16951,13859 Z M 16957,13866 L 18214,13866 18214,15214 16957,15214 16957,13866 Z"/>
             <path fill="rgb(33,133,196)" stroke="none" d="M 16957,13866 L 18214,13866 18214,15214 16957,15214 16957,13866 Z M 16964,13874 L 18207,13874 18207,15206 16964,15206 16964,13874 Z"/>
             <path fill="rgb(34,133,196)" stroke="none" d="M 16964,13874 L 18207,13874 18207,15206 16964,15206 16964,13874 Z M 16971,13881 L 18200,13881 18200,15199 16971,15199 16971,13881 Z"/>
             <path fill="rgb(35,134,197)" stroke="none" d="M 16971,13881 L 18200,13881 18200,15199 16971,15199 16971,13881 Z M 16977,13888 L 18194,13888 18194,15192 16977,15192 16977,13888 Z"/>
             <path fill="rgb(36,134,197)" stroke="none" d="M 16977,13888 L 18194,13888 18194,15192 16977,15192 16977,13888 Z M 16984,13895 L 18187,13895 18187,15185 16984,15185 16984,13895 Z"/>
             <path fill="rgb(37,135,197)" stroke="none" d="M 16984,13895 L 18187,13895 18187,15185 16984,15185 16984,13895 Z M 16991,13902 L 18180,13902 18180,15178 16991,15178 16991,13902 Z"/>
             <path fill="rgb(38,135,197)" stroke="none" d="M 16991,13902 L 18180,13902 18180,15178 16991,15178 16991,13902 Z M 16998,13909 L 18173,13909 18173,15171 16998,15171 16998,13909 Z"/>
             <path fill="rgb(39,136,198)" stroke="none" d="M 16998,13909 L 18173,13909 18173,15171 16998,15171 16998,13909 Z M 17004,13917 L 18167,13917 18167,15163 17004,15163 17004,13917 Z"/>
             <path fill="rgb(40,137,198)" stroke="none" d="M 17004,13917 L 18167,13917 18167,15163 17004,15163 17004,13917 Z M 17011,13924 L 18160,13924 18160,15156 17011,15156 17011,13924 Z"/>
             <path fill="rgb(41,137,198)" stroke="none" d="M 17011,13924 L 18160,13924 18160,15156 17011,15156 17011,13924 Z M 17018,13931 L 18153,13931 18153,15149 17018,15149 17018,13931 Z"/>
             <path fill="rgb(42,138,198)" stroke="none" d="M 17018,13931 L 18153,13931 18153,15149 17018,15149 17018,13931 Z M 17024,13938 L 18147,13938 18147,15142 17024,15142 17024,13938 Z"/>
             <path fill="rgb(43,138,199)" stroke="none" d="M 17024,13938 L 18147,13938 18147,15142 17024,15142 17024,13938 Z M 17031,13945 L 18140,13945 18140,15135 17031,15135 17031,13945 Z"/>
             <path fill="rgb(44,139,199)" stroke="none" d="M 17031,13945 L 18140,13945 18140,15135 17031,15135 17031,13945 Z M 17038,13952 L 18133,13952 18133,15128 17038,15128 17038,13952 Z"/>
             <path fill="rgb(45,139,199)" stroke="none" d="M 17038,13952 L 18133,13952 18133,15128 17038,15128 17038,13952 Z M 17044,13960 L 18127,13960 18127,15120 17044,15120 17044,13960 Z"/>
             <path fill="rgb(46,140,199)" stroke="none" d="M 17044,13960 L 18127,13960 18127,15120 17044,15120 17044,13960 Z M 17051,13967 L 18120,13967 18120,15113 17051,15113 17051,13967 Z"/>
             <path fill="rgb(47,140,200)" stroke="none" d="M 17051,13967 L 18120,13967 18120,15113 17051,15113 17051,13967 Z M 17057,13974 L 18113,13974 18113,15106 17057,15106 17057,13974 Z"/>
             <path fill="rgb(48,141,200)" stroke="none" d="M 17057,13974 L 18113,13974 18113,15106 17057,15106 17057,13974 Z M 17063,13980 L 18107,13980 18107,15099 17063,15099 17063,13980 Z"/>
             <path fill="rgb(49,142,200)" stroke="none" d="M 17063,13980 L 18107,13980 18107,15099 17063,15099 17063,13980 Z M 17070,13987 L 18100,13987 18100,15092 17070,15092 17070,13987 Z"/>
             <path fill="rgb(50,142,200)" stroke="none" d="M 17070,13987 L 18100,13987 18100,15092 17070,15092 17070,13987 Z M 17077,13995 L 18093,13995 18093,15084 17077,15084 17077,13995 Z"/>
             <path fill="rgb(51,143,201)" stroke="none" d="M 17077,13995 L 18093,13995 18093,15084 17077,15084 17077,13995 Z M 17084,14002 L 18086,14002 18086,15077 17084,15077 17084,14002 Z"/>
             <path fill="rgb(52,143,201)" stroke="none" d="M 17084,14002 L 18086,14002 18086,15077 17084,15077 17084,14002 Z M 17090,14009 L 18080,14009 18080,15070 17090,15070 17090,14009 Z"/>
             <path fill="rgb(53,144,201)" stroke="none" d="M 17090,14009 L 18080,14009 18080,15070 17090,15070 17090,14009 Z M 17097,14016 L 18073,14016 18073,15063 17097,15063 17097,14016 Z"/>
             <path fill="rgb(54,144,202)" stroke="none" d="M 17097,14016 L 18073,14016 18073,15063 17097,15063 17097,14016 Z M 17104,14023 L 18066,14023 18066,15056 17104,15056 17104,14023 Z"/>
             <path fill="rgb(55,145,202)" stroke="none" d="M 17104,14023 L 18066,14023 18066,15056 17104,15056 17104,14023 Z M 17110,14030 L 18060,14030 18060,15049 17110,15049 17110,14030 Z"/>
             <path fill="rgb(56,145,202)" stroke="none" d="M 17110,14030 L 18060,14030 18060,15049 17110,15049 17110,14030 Z M 17117,14038 L 18053,14038 18053,15041 17117,15041 17117,14038 Z"/>
             <path fill="rgb(57,146,202)" stroke="none" d="M 17117,14038 L 18053,14038 18053,15041 17117,15041 17117,14038 Z M 17124,14045 L 18046,14045 18046,15034 17124,15034 17124,14045 Z"/>
             <path fill="rgb(58,146,203)" stroke="none" d="M 17124,14045 L 18046,14045 18046,15034 17124,15034 17124,14045 Z M 17130,14052 L 18040,14052 18040,15027 17130,15027 17130,14052 Z"/>
             <path fill="rgb(59,147,203)" stroke="none" d="M 17130,14052 L 18040,14052 18040,15027 17130,15027 17130,14052 Z M 17137,14059 L 18033,14059 18033,15020 17137,15020 17137,14059 Z"/>
             <path fill="rgb(60,148,203)" stroke="none" d="M 17137,14059 L 18033,14059 18033,15020 17137,15020 17137,14059 Z M 17144,14066 L 18026,14066 18026,15013 17144,15013 17144,14066 Z"/>
             <path fill="rgb(61,148,203)" stroke="none" d="M 17144,14066 L 18026,14066 18026,15013 17144,15013 17144,14066 Z M 17150,14073 L 18020,14073 18020,15006 17150,15006 17150,14073 Z"/>
             <path fill="rgb(62,149,204)" stroke="none" d="M 17150,14073 L 18020,14073 18020,15006 17150,15006 17150,14073 Z M 17157,14081 L 18013,14081 18013,14998 17157,14998 17157,14081 Z"/>
             <path fill="rgb(63,149,204)" stroke="none" d="M 17157,14081 L 18013,14081 18013,14998 17157,14998 17157,14081 Z M 17164,14088 L 18006,14088 18006,14991 17164,14991 17164,14088 Z"/>
             <path fill="rgb(64,150,204)" stroke="none" d="M 17164,14088 L 18006,14088 18006,14991 17164,14991 17164,14088 Z M 17171,14095 L 17999,14095 17999,14984 17171,14984 17171,14095 Z"/>
             <path fill="rgb(65,150,204)" stroke="none" d="M 17171,14095 L 17999,14095 17999,14984 17171,14984 17171,14095 Z M 17177,14102 L 17993,14102 17993,14977 17177,14977 17177,14102 Z"/>
             <path fill="rgb(66,151,205)" stroke="none" d="M 17177,14102 L 17993,14102 17993,14977 17177,14977 17177,14102 Z M 17184,14109 L 17986,14109 17986,14970 17184,14970 17184,14109 Z"/>
             <path fill="rgb(67,151,205)" stroke="none" d="M 17184,14109 L 17986,14109 17986,14970 17184,14970 17184,14109 Z M 17191,14117 L 17979,14117 17979,14962 17191,14962 17191,14117 Z"/>
             <path fill="rgb(68,152,205)" stroke="none" d="M 17191,14117 L 17979,14117 17979,14962 17191,14962 17191,14117 Z M 17197,14124 L 17973,14124 17973,14955 17197,14955 17197,14124 Z"/>
             <path fill="rgb(69,153,205)" stroke="none" d="M 17197,14124 L 17973,14124 17973,14955 17197,14955 17197,14124 Z M 17204,14131 L 17966,14131 17966,14948 17204,14948 17204,14131 Z"/>
             <path fill="rgb(70,153,206)" stroke="none" d="M 17204,14131 L 17966,14131 17966,14948 17204,14948 17204,14131 Z M 17211,14138 L 17959,14138 17959,14941 17211,14941 17211,14138 Z"/>
             <path fill="rgb(71,154,206)" stroke="none" d="M 17211,14138 L 17959,14138 17959,14941 17211,14941 17211,14138 Z M 17217,14145 L 17953,14145 17953,14934 17217,14934 17217,14145 Z"/>
             <path fill="rgb(72,154,206)" stroke="none" d="M 17217,14145 L 17953,14145 17953,14934 17217,14934 17217,14145 Z M 17224,14152 L 17946,14152 17946,14927 17224,14927 17224,14152 Z"/>
             <path fill="rgb(73,155,206)" stroke="none" d="M 17224,14152 L 17946,14152 17946,14927 17224,14927 17224,14152 Z M 17231,14160 L 17939,14160 17939,14919 17231,14919 17231,14160 Z"/>
             <path fill="rgb(74,155,207)" stroke="none" d="M 17231,14160 L 17939,14160 17939,14919 17231,14919 17231,14160 Z M 17237,14167 L 17933,14167 17933,14912 17237,14912 17237,14167 Z"/>
             <path fill="rgb(75,156,207)" stroke="none" d="M 17237,14167 L 17933,14167 17933,14912 17237,14912 17237,14167 Z M 17244,14174 L 17926,14174 17926,14905 17244,14905 17244,14174 Z"/>
             <path fill="rgb(76,156,207)" stroke="none" d="M 17244,14174 L 17926,14174 17926,14905 17244,14905 17244,14174 Z M 17251,14181 L 17919,14181 17919,14898 17251,14898 17251,14181 Z"/>
             <path fill="rgb(77,157,208)" stroke="none" d="M 17251,14181 L 17919,14181 17919,14898 17251,14898 17251,14181 Z M 17258,14188 L 17912,14188 17912,14891 17258,14891 17258,14188 Z"/>
             <path fill="rgb(78,157,208)" stroke="none" d="M 17258,14188 L 17912,14188 17912,14891 17258,14891 17258,14188 Z M 17264,14195 L 17906,14195 17906,14884 17264,14884 17264,14195 Z"/>
             <path fill="rgb(79,158,208)" stroke="none" d="M 17264,14195 L 17906,14195 17906,14884 17264,14884 17264,14195 Z M 17271,14203 L 17899,14203 17899,14876 17271,14876 17271,14203 Z"/>
             <path fill="rgb(80,159,208)" stroke="none" d="M 17271,14203 L 17899,14203 17899,14876 17271,14876 17271,14203 Z M 17278,14210 L 17892,14210 17892,14869 17278,14869 17278,14210 Z"/>
             <path fill="rgb(81,159,209)" stroke="none" d="M 17278,14210 L 17892,14210 17892,14869 17278,14869 17278,14210 Z M 17284,14217 L 17886,14217 17886,14862 17284,14862 17284,14217 Z"/>
             <path fill="rgb(82,160,209)" stroke="none" d="M 17284,14217 L 17886,14217 17886,14862 17284,14862 17284,14217 Z M 17291,14224 L 17879,14224 17879,14855 17291,14855 17291,14224 Z"/>
             <path fill="rgb(83,160,209)" stroke="none" d="M 17291,14224 L 17879,14224 17879,14855 17291,14855 17291,14224 Z M 17298,14231 L 17872,14231 17872,14848 17298,14848 17298,14231 Z"/>
             <path fill="rgb(84,161,209)" stroke="none" d="M 17298,14231 L 17872,14231 17872,14848 17298,14848 17298,14231 Z M 17304,14239 L 17866,14239 17866,14840 17304,14840 17304,14239 Z"/>
             <path fill="rgb(85,161,210)" stroke="none" d="M 17304,14239 L 17866,14239 17866,14840 17304,14840 17304,14239 Z M 17311,14246 L 17859,14246 17859,14833 17311,14833 17311,14246 Z"/>
             <path fill="rgb(86,162,210)" stroke="none" d="M 17311,14246 L 17859,14246 17859,14833 17311,14833 17311,14246 Z M 17318,14253 L 17852,14253 17852,14826 17318,14826 17318,14253 Z"/>
             <path fill="rgb(87,162,210)" stroke="none" d="M 17318,14253 L 17852,14253 17852,14826 17318,14826 17318,14253 Z M 17324,14260 L 17846,14260 17846,14819 17324,14819 17324,14260 Z"/>
             <path fill="rgb(88,163,210)" stroke="none" d="M 17324,14260 L 17846,14260 17846,14819 17324,14819 17324,14260 Z M 17331,14267 L 17839,14267 17839,14812 17331,14812 17331,14267 Z"/>
             <path fill="rgb(89,164,211)" stroke="none" d="M 17331,14267 L 17839,14267 17839,14812 17331,14812 17331,14267 Z M 17338,14274 L 17832,14274 17832,14805 17338,14805 17338,14274 Z"/>
             <path fill="rgb(90,164,211)" stroke="none" d="M 17338,14274 L 17832,14274 17832,14805 17338,14805 17338,14274 Z M 17345,14282 L 17825,14282 17825,14797 17345,14797 17345,14282 Z"/>
             <path fill="rgb(91,165,211)" stroke="none" d="M 17345,14282 L 17825,14282 17825,14797 17345,14797 17345,14282 Z M 17351,14289 L 17819,14289 17819,14790 17351,14790 17351,14289 Z"/>
             <path fill="rgb(92,165,211)" stroke="none" d="M 17351,14289 L 17819,14289 17819,14790 17351,14790 17351,14289 Z M 17358,14296 L 17812,14296 17812,14783 17358,14783 17358,14296 Z"/>
             <path fill="rgb(93,166,212)" stroke="none" d="M 17358,14296 L 17812,14296 17812,14783 17358,14783 17358,14296 Z M 17365,14303 L 17805,14303 17805,14776 17365,14776 17365,14303 Z"/>
             <path fill="rgb(94,166,212)" stroke="none" d="M 17365,14303 L 17805,14303 17805,14776 17365,14776 17365,14303 Z M 17371,14310 L 17799,14310 17799,14769 17371,14769 17371,14310 Z"/>
             <path fill="rgb(95,167,212)" stroke="none" d="M 17371,14310 L 17799,14310 17799,14769 17371,14769 17371,14310 Z M 17378,14318 L 17792,14318 17792,14761 17378,14761 17378,14318 Z"/>
             <path fill="rgb(96,167,212)" stroke="none" d="M 17378,14318 L 17792,14318 17792,14761 17378,14761 17378,14318 Z M 17385,14325 L 17785,14325 17785,14754 17385,14754 17385,14325 Z"/>
             <path fill="rgb(97,168,213)" stroke="none" d="M 17385,14325 L 17785,14325 17785,14754 17385,14754 17385,14325 Z M 17391,14332 L 17779,14332 17779,14747 17391,14747 17391,14332 Z"/>
             <path fill="rgb(98,169,213)" stroke="none" d="M 17391,14332 L 17779,14332 17779,14747 17391,14747 17391,14332 Z M 17398,14339 L 17772,14339 17772,14740 17398,14740 17398,14339 Z"/>
             <path fill="rgb(99,169,213)" stroke="none" d="M 17398,14339 L 17772,14339 17772,14740 17398,14740 17398,14339 Z M 17405,14346 L 17765,14346 17765,14733 17405,14733 17405,14346 Z"/>
             <path fill="rgb(100,170,213)" stroke="none" d="M 17405,14346 L 17765,14346 17765,14733 17405,14733 17405,14346 Z M 17411,14353 L 17759,14353 17759,14726 17411,14726 17411,14353 Z"/>
             <path fill="rgb(101,170,214)" stroke="none" d="M 17411,14353 L 17759,14353 17759,14726 17411,14726 17411,14353 Z M 17418,14361 L 17752,14361 17752,14718 17418,14718 17418,14361 Z"/>
             <path fill="rgb(102,171,214)" stroke="none" d="M 17418,14361 L 17752,14361 17752,14718 17418,14718 17418,14361 Z M 17425,14368 L 17745,14368 17745,14711 17425,14711 17425,14368 Z"/>
             <path fill="rgb(103,171,214)" stroke="none" d="M 17425,14368 L 17745,14368 17745,14711 17425,14711 17425,14368 Z M 17432,14375 L 17738,14375 17738,14704 17432,14704 17432,14375 Z"/>
             <path fill="rgb(104,172,215)" stroke="none" d="M 17432,14375 L 17738,14375 17738,14704 17432,14704 17432,14375 Z M 17438,14382 L 17732,14382 17732,14697 17438,14697 17438,14382 Z"/>
             <path fill="rgb(105,172,215)" stroke="none" d="M 17438,14382 L 17732,14382 17732,14697 17438,14697 17438,14382 Z M 17445,14389 L 17725,14389 17725,14690 17445,14690 17445,14389 Z"/>
             <path fill="rgb(106,173,215)" stroke="none" d="M 17445,14389 L 17725,14389 17725,14690 17445,14690 17445,14389 Z M 17452,14396 L 17718,14396 17718,14683 17452,14683 17452,14396 Z"/>
             <path fill="rgb(107,173,215)" stroke="none" d="M 17452,14396 L 17718,14396 17718,14683 17452,14683 17452,14396 Z M 17458,14404 L 17712,14404 17712,14675 17458,14675 17458,14404 Z"/>
             <path fill="rgb(108,174,216)" stroke="none" d="M 17458,14404 L 17712,14404 17712,14675 17458,14675 17458,14404 Z M 17465,14411 L 17705,14411 17705,14668 17465,14668 17465,14411 Z"/>
             <path fill="rgb(109,175,216)" stroke="none" d="M 17465,14411 L 17705,14411 17705,14668 17465,14668 17465,14411 Z M 17472,14418 L 17698,14418 17698,14661 17472,14661 17472,14418 Z"/>
             <path fill="rgb(110,175,216)" stroke="none" d="M 17472,14418 L 17698,14418 17698,14661 17472,14661 17472,14418 Z M 17478,14425 L 17692,14425 17692,14654 17478,14654 17478,14425 Z"/>
             <path fill="rgb(111,176,216)" stroke="none" d="M 17478,14425 L 17692,14425 17692,14654 17478,14654 17478,14425 Z M 17485,14432 L 17685,14432 17685,14647 17485,14647 17485,14432 Z"/>
             <path fill="rgb(112,176,217)" stroke="none" d="M 17485,14432 L 17685,14432 17685,14647 17485,14647 17485,14432 Z M 17492,14440 L 17678,14440 17678,14639 17492,14639 17492,14440 Z"/>
             <path fill="rgb(113,177,217)" stroke="none" d="M 17492,14440 L 17678,14440 17678,14639 17492,14639 17492,14440 Z M 17498,14447 L 17672,14447 17672,14632 17498,14632 17498,14447 Z"/>
             <path fill="rgb(114,177,217)" stroke="none" d="M 17498,14447 L 17672,14447 17672,14632 17498,14632 17498,14447 Z M 17505,14454 L 17665,14454 17665,14625 17505,14625 17505,14454 Z"/>
             <path fill="rgb(115,178,217)" stroke="none" d="M 17505,14454 L 17665,14454 17665,14625 17505,14625 17505,14454 Z M 17512,14461 L 17658,14461 17658,14618 17512,14618 17512,14461 Z"/>
             <path fill="rgb(116,178,218)" stroke="none" d="M 17512,14461 L 17658,14461 17658,14618 17512,14618 17512,14461 Z M 17519,14468 L 17651,14468 17651,14611 17519,14611 17519,14468 Z"/>
             <path fill="rgb(117,179,218)" stroke="none" d="M 17519,14468 L 17651,14468 17651,14611 17519,14611 17519,14468 Z M 17525,14475 L 17645,14475 17645,14604 17525,14604 17525,14475 Z"/>
             <path fill="rgb(118,180,218)" stroke="none" d="M 17525,14475 L 17645,14475 17645,14604 17525,14604 17525,14475 Z M 17532,14483 L 17638,14483 17638,14596 17532,14596 17532,14483 Z"/>
             <path fill="rgb(119,180,218)" stroke="none" d="M 17532,14483 L 17638,14483 17638,14596 17532,14596 17532,14483 Z M 17539,14490 L 17631,14490 17631,14589 17539,14589 17539,14490 Z"/>
             <path fill="rgb(120,181,219)" stroke="none" d="M 17539,14490 L 17631,14490 17631,14589 17539,14589 17539,14490 Z M 17545,14497 L 17625,14497 17625,14582 17545,14582 17545,14497 Z"/>
             <path fill="rgb(121,181,219)" stroke="none" d="M 17545,14497 L 17625,14497 17625,14582 17545,14582 17545,14497 Z M 17552,14504 L 17618,14504 17618,14575 17552,14575 17552,14504 Z"/>
             <path fill="rgb(122,182,219)" stroke="none" d="M 17552,14504 L 17618,14504 17618,14575 17552,14575 17552,14504 Z M 17559,14511 L 17611,14511 17611,14568 17559,14568 17559,14511 Z"/>
             <path fill="rgb(123,182,219)" stroke="none" d="M 17559,14511 L 17611,14511 17611,14568 17559,14568 17559,14511 Z M 17565,14518 L 17605,14518 17605,14561 17565,14561 17565,14518 Z"/>
             <path fill="rgb(124,183,220)" stroke="none" d="M 17565,14518 L 17605,14518 17605,14561 17565,14561 17565,14518 Z M 17572,14526 L 17598,14526 17598,14553 17572,14553 17572,14526 Z"/>
             <path fill="rgb(125,183,220)" stroke="none" d="M 17572,14526 L 17598,14526 17598,14553 17572,14553 17572,14526 Z M 17579,14533 L 17591,14533 17591,14546 17579,14546 17579,14533 Z"/>
             <path fill="rgb(127,185,221)" stroke="none" d="M 17579,14533 L 17591,14533 17591,14546 17579,14546 17579,14533 Z"/>
            </g>
           </pattern>
          </defs>
          <path style="fill:url(#pattern1)" d="M 17077,15815 L 17077,14975 18774,13995 18774,14835 17077,15815 Z"/>
         </g>
         <path fill="none" stroke="rgb(255,255,255)" stroke-width="40" stroke-linejoin="round" d="M 17077,15815 L 17077,14975 18774,13995 18774,14835 17077,15815 Z"/>
        </g>
       </g>
       <g class="com.sun.star.drawing.PolyPolygonShape">
        <g id="id6">
         <rect class="BoundingBox" stroke="none" fill="none" x="15359" y="12995" width="3436" height="2002"/>
         <g>
          <defs>
           <linearGradient id="gradient2" x1="17076" y1="13015" x2="17076" y2="14975" gradientUnits="userSpaceOnUse">
            <stop offset="0.1" style="stop-color:rgb(0,115,188)"/>
            <stop offset="1" style="stop-color:rgb(127,185,221)"/>
           </linearGradient>
          </defs>
          <path style="fill:url(#gradient2)" d="M 17077,14975 L 15379,13995 17077,13015 18774,13995 17077,14975 Z"/>
         </g>
         <path fill="none" stroke="rgb(255,255,255)" stroke-width="40" stroke-linejoin="round" d="M 17077,14975 L 15379,13995 17077,13015 18774,13995 17077,14975 Z"/>
        </g>
       </g>
       <g class="com.sun.star.drawing.PolyPolygonShape">
        <g id="id7">
         <rect class="BoundingBox" stroke="none" fill="none" x="15359" y="12995" width="3436" height="2841"/>
         <path fill="none" stroke="rgb(0,0,0)" stroke-width="40" stroke-linejoin="round" d="M 15379,14835 L 15379,13995 17077,13015 18774,13995 18774,14835 17077,15815 15379,14835 Z"/>
        </g>
       </g>
       <g class="com.sun.star.drawing.PolyLineShape">
        <g id="id8">
         <rect class="BoundingBox" stroke="none" fill="none" x="16814" y="13835" width="1739" height="1021"/>
         <path fill="none" stroke="rgb(255,255,255)" stroke-width="40" stroke-linejoin="round" d="M 18532,13995 L 18289,13995 17804,13855 17562,13855 17562,13995 17804,14275 17803,14415 17561,14415 17076,14275 16834,14275 16834,14415 17077,14695 17077,14835"/>
        </g>
       </g>
       <g class="com.sun.star.drawing.PolyLineShape">
        <g id="id9">
         <rect class="BoundingBox" stroke="none" fill="none" x="16450" y="13625" width="1739" height="1022"/>
         <path fill="none" stroke="rgb(255,255,255)" stroke-width="40" stroke-linejoin="round" d="M 17925,13645 L 17925,13785 18168,14065 18168,14205 17925,14205 17440,14065 17198,14065 17198,14205 17440,14485 17440,14625 17198,14625 16713,14485 16470,14485"/>
        </g>
       </g>
       <g class="com.sun.star.drawing.PolyLineShape">
        <g id="id10">
         <rect class="BoundingBox" stroke="none" fill="none" x="15965" y="13345" width="1739" height="1021"/>
         <path fill="none" stroke="rgb(255,255,255)" stroke-width="40" stroke-linejoin="round" d="M 17683,13505 L 17440,13505 16955,13365 16713,13365 16713,13505 16955,13785 16954,13925 16712,13925 16227,13785 15985,13785 15985,13925 16228,14205 16228,14345"/>
        </g>
       </g>
       <g class="com.sun.star.drawing.PolyLineShape">
        <g id="id11">
         <rect class="BoundingBox" stroke="none" fill="none" x="15601" y="13135" width="1739" height="1022"/>
         <path fill="none" stroke="rgb(255,255,255)" stroke-width="40" stroke-linejoin="round" d="M 17076,13155 L 17076,13295 17319,13575 17319,13715 17076,13715 16591,13575 16349,13575 16349,13715 16591,13995 16591,14135 16349,14135 15864,13995 15621,13995"/>
        </g>
       </g>
       <g class="com.sun.star.drawing.PolyPolygonShape">
        <g id="id12">
         <rect class="BoundingBox" stroke="none" fill="none" x="16935" y="12365" width="285" height="1652"/>
         <path fill="rgb(102,102,102)" stroke="none" d="M 17077,13995 L 17077,12665 16955,12525 17077,12385 17198,12525 17077,12665 17077,13995 Z"/>
         <path fill="none" stroke="rgb(0,0,0)" stroke-width="40" stroke-linejoin="round" d="M 17077,13995 L 17077,12665 16955,12525 17077,12385 17198,12525 17077,12665 17077,13995 Z"/>
        </g>
       </g>
       <g class="com.sun.star.drawing.OpenBezierShape">
        <g id="id13">
         <rect class="BoundingBox" stroke="none" fill="none" x="17298" y="12295" width="225" height="461"/>
         <path fill="none" stroke="rgb(51,51,51)" stroke-width="40" stroke-linejoin="round" d="M 17319,12315 C 17562,12385 17562,12665 17319,12735"/>
        </g>
       </g>
       <g class="com.sun.star.drawing.OpenBezierShape">
        <g id="id14">
         <rect class="BoundingBox" stroke="none" fill="none" x="16633" y="12295" width="224" height="461"/>
         <path fill="none" stroke="rgb(51,51,51)" stroke-width="40" stroke-linejoin="round" d="M 16835,12315 C 16592,12385 16592,12665 16835,12735"/>
        </g>
       </g>
       <g class="com.sun.star.drawing.OpenBezierShape">
        <g id="id15">
         <rect class="BoundingBox" stroke="none" fill="none" x="16390" y="12155" width="224" height="741"/>
         <path fill="none" stroke="rgb(51,51,51)" stroke-width="40" stroke-linejoin="round" d="M 16592,12175 C 16349,12245 16349,12805 16592,12875"/>
        </g>
       </g>
       <g class="com.sun.star.drawing.OpenBezierShape">
        <g id="id16">
         <rect class="BoundingBox" stroke="none" fill="none" x="17542" y="12155" width="223" height="741"/>
         <path fill="none" stroke="rgb(51,51,51)" stroke-width="40" stroke-linejoin="round" d="M 17562,12175 C 17804,12245 17804,12805 17562,12875"/>
        </g>
       </g>
       <g class="com.sun.star.drawing.OpenBezierShape">
        <g id="id17">
         <rect class="BoundingBox" stroke="none" fill="none" x="16147" y="12015" width="225" height="1022"/>
         <path fill="none" stroke="rgb(51,51,51)" stroke-width="40" stroke-linejoin="round" d="M 16350,12035 C 16107,12105 16107,12945 16350,13015"/>
        </g>
       </g>
       <g class="com.sun.star.drawing.OpenBezierShape">
        <g id="id18">
         <rect class="BoundingBox" stroke="none" fill="none" x="17784" y="12015" width="220" height="1022"/>
         <path fill="none" stroke="rgb(51,51,51)" stroke-width="40" stroke-linejoin="round" d="M 17804,12035 C 18047,12105 18036,12929 17804,13015"/>
        </g>
       </g>
       <g class="com.sun.star.drawing.OpenBezierShape">
        <g id="id19">
         <rect class="BoundingBox" stroke="none" fill="none" x="15905" y="11875" width="224" height="1301"/>
         <path fill="none" stroke="rgb(51,51,51)" stroke-width="40" stroke-linejoin="round" d="M 16107,11895 C 15864,11965 15864,13085 16107,13155"/>
        </g>
       </g>
       <g class="com.sun.star.drawing.OpenBezierShape">
        <g id="id20">
         <rect class="BoundingBox" stroke="none" fill="none" x="18027" y="11875" width="223" height="1301"/>
         <path fill="none" stroke="rgb(51,51,51)" stroke-width="40" stroke-linejoin="round" d="M 18047,11895 C 18289,11965 18289,13085 18047,13155"/>
        </g>
       </g>
      </g>
     </g>
    </g>
   </g>
  </g>
 </g>
</svg>