<?xml version="1.0" encoding="UTF-8"?>
<!DOCTYPE svg PUBLIC "-//W3C//DTD SVG 1.1//EN" "http://www.w3.org/Graphics/SVG/1.1/DTD/svg11.dtd">
<svg version="1.2" width="17.81mm" height="32.41mm" viewBox="-239 8744 1781 3241" preserveAspectRatio="xMidYMid" fill-rule="evenodd" stroke-width="28.222" stroke-linejoin="round" xmlns="http://www.w3.org/2000/svg" xmlns:ooo="http://xml.openoffice.org/svg/export" xmlns:xlink="http://www.w3.org/1999/xlink" xmlns:presentation="http://sun.com/xmlns/staroffice/presentation" xmlns:smil="http://www.w3.org/2001/SMIL20/" xmlns:anim="urn:oasis:names:tc:opendocument:xmlns:animation:1.0" xml:space="preserve">
 <defs class="ClipPathGroup">
  <clipPath id="presentation_clip_path" clipPathUnits="userSpaceOnUse">
   <rect x="-239" y="8744" width="1781" height="3241"/>
  </clipPath>
 </defs>
 <defs class="TextShapeIndex">
  <g ooo:slide="id1" ooo:id-list="id3 id4 id5 id6 id7 id8 id9 id10 id11 id12 id13 id14 id15"/>
 </defs>
 <defs class="EmbeddedBulletChars">
  <g id="bullet-char-template(57356)" transform="scale(0.00048828125,-0.00048828125)">
   <path d="M 580,1141 L 1163,571 580,0 -4,571 580,1141 Z"/>
  </g>
  <g id="bullet-char-template(57354)" transform="scale(0.00048828125,-0.00048828125)">
   <path d="M 8,1128 L 1137,1128 1137,0 8,0 8,1128 Z"/>
  </g>
  <g id="bullet-char-template(10146)" transform="scale(0.00048828125,-0.00048828125)">
   <path d="M 174,0 L 602,739 174,1481 1456,739 174,0 Z M 1358,739 L 309,1346 659,739 1358,739 Z"/>
  </g>
  <g id="bullet-char-template(10132)" transform="scale(0.00048828125,-0.00048828125)">
   <path d="M 2015,739 L 1276,0 717,0 1260,543 174,543 174,936 1260,936 717,1481 1274,1481 2015,739 Z"/>
  </g>
  <g id="bullet-char-template(10007)" transform="scale(0.00048828125,-0.00048828125)">
   <path d="M 0,-2 C -7,14 -16,27 -25,37 L 356,567 C 262,823 215,952 215,954 215,979 228,992 255,992 264,992 276,990 289,987 310,991 331,999 354,1012 L 381,999 492,748 772,1049 836,1024 860,1049 C 881,1039 901,1025 922,1006 886,937 835,863 770,784 769,783 710,716 594,584 L 774,223 C 774,196 753,168 711,139 L 727,119 C 717,90 699,76 672,76 641,76 570,178 457,381 L 164,-76 C 142,-110 111,-127 72,-127 30,-127 9,-110 8,-76 1,-67 -2,-52 -2,-32 -2,-23 -1,-13 0,-2 Z"/>
  </g>
  <g id="bullet-char-template(10004)" transform="scale(0.00048828125,-0.00048828125)">
   <path d="M 285,-33 C 182,-33 111,30 74,156 52,228 41,333 41,471 41,549 55,616 82,672 116,743 169,778 240,778 293,778 328,747 346,684 L 369,508 C 377,444 397,411 428,410 L 1163,1116 C 1174,1127 1196,1133 1229,1133 1271,1133 1292,1118 1292,1087 L 1292,965 C 1292,929 1282,901 1262,881 L 442,47 C 390,-6 338,-33 285,-33 Z"/>
  </g>
  <g id="bullet-char-template(9679)" transform="scale(0.00048828125,-0.00048828125)">
   <path d="M 813,0 C 632,0 489,54 383,161 276,268 223,411 223,592 223,773 276,916 383,1023 489,1130 632,1184 813,1184 992,1184 1136,1130 1245,1023 1353,916 1407,772 1407,592 1407,412 1353,268 1245,161 1136,54 992,0 813,0 Z"/>
  </g>
  <g id="bullet-char-template(8226)" transform="scale(0.00048828125,-0.00048828125)">
   <path d="M 346,457 C 273,457 209,483 155,535 101,586 74,649 74,723 74,796 101,859 155,911 209,963 273,989 346,989 419,989 480,963 531,910 582,859 608,796 608,723 608,648 583,586 532,535 482,483 420,457 346,457 Z"/>
  </g>
  <g id="bullet-char-template(8211)" transform="scale(0.00048828125,-0.00048828125)">
   <path d="M -4,459 L 1135,459 1135,606 -4,606 -4,459 Z"/>
  </g>
 </defs>
 <defs class="TextEmbeddedBitmaps"/>
 <g class="SlideGroup">
  <g>
   <g id="id1" class="Slide" clip-path="url(#presentation_clip_path)">
    <g class="Page">
     <g class="Group">
      <g class="com.sun.star.drawing.ClosedBezierShape">
       <g id="id3">
        <rect class="BoundingBox" stroke="none" fill="none" x="532" y="11267" width="1012" height="719"/>
        <path fill="rgb(221,221,221)" stroke="none" d="M 533,11984 C 776,11984 1329,11984 1506,11626 1682,11268 1152,11268 1064,11268 1064,11421 533,11779 533,11984 Z"/>
        <path fill="none" stroke="rgb(221,221,221)" d="M 533,11984 C 776,11984 1329,11984 1506,11626 1682,11268 1152,11268 1064,11268 1064,11421 533,11779 533,11984 Z"/>
       </g>
      </g>
      <g class="Group">
       <g class="com.sun.star.drawing.ClosedBezierShape">
        <g id="id4">
         <rect class="BoundingBox" stroke="none" fill="none" x="-106" y="10277" width="1279" height="1703"/>
         <g>
          <defs>
           <pattern id="pattern1" x="-86" y="10297" width="1239" height="1662" patternUnits="userSpaceOnUse">
            <g transform="translate(86,-10297)">
             <path fill="rgb(51,51,51)" stroke="none" d="M -87,10296 L 1153,10296 1153,11959 -87,11959 -87,10296 Z M -328,9972 L 898,9972 898,11617 -328,11617 -328,9972 Z"/>
             <path fill="rgb(52,52,52)" stroke="none" d="M -328,9972 L 898,9972 898,11617 -328,11617 -328,9972 Z M -322,9980 L 892,9980 892,11609 -322,11609 -322,9980 Z"/>
             <path fill="rgb(53,53,53)" stroke="none" d="M -322,9980 L 892,9980 892,11609 -322,11609 -322,9980 Z M -316,9988 L 886,9988 886,11601 -316,11601 -316,9988 Z"/>
             <path fill="rgb(54,54,54)" stroke="none" d="M -316,9988 L 886,9988 886,11601 -316,11601 -316,9988 Z M -310,9996 L 880,9996 880,11593 -310,11593 -310,9996 Z"/>
             <path fill="rgb(55,55,55)" stroke="none" d="M -310,9996 L 880,9996 880,11593 -310,11593 -310,9996 Z M -304,10004 L 874,10004 874,11585 -304,11585 -304,10004 Z"/>
             <path fill="rgb(56,56,56)" stroke="none" d="M -304,10004 L 874,10004 874,11585 -304,11585 -304,10004 Z M -298,10012 L 868,10012 868,11577 -298,11577 -298,10012 Z"/>
             <path fill="rgb(57,57,57)" stroke="none" d="M -298,10012 L 868,10012 868,11577 -298,11577 -298,10012 Z M -292,10021 L 862,10021 862,11568 -292,11568 -292,10021 Z"/>
             <path fill="rgb(58,58,58)" stroke="none" d="M -292,10021 L 862,10021 862,11568 -292,11568 -292,10021 Z M -286,10029 L 856,10029 856,11560 -286,11560 -286,10029 Z"/>
             <path fill="rgb(59,59,59)" stroke="none" d="M -286,10029 L 856,10029 856,11560 -286,11560 -286,10029 Z M -280,10037 L 850,10037 850,11552 -280,11552 -280,10037 Z"/>
             <path fill="rgb(60,60,60)" stroke="none" d="M -280,10037 L 850,10037 850,11552 -280,11552 -280,10037 Z M -274,10045 L 844,10045 844,11544 -274,11544 -274,10045 Z"/>
             <path fill="rgb(61,61,61)" stroke="none" d="M -274,10045 L 844,10045 844,11544 -274,11544 -274,10045 Z M -268,10053 L 838,10053 838,11536 -268,11536 -268,10053 Z"/>
             <path fill="rgb(62,62,62)" stroke="none" d="M -268,10053 L 838,10053 838,11536 -268,11536 -268,10053 Z M -261,10061 L 831,10061 831,11528 -261,11528 -261,10061 Z"/>
             <path fill="rgb(63,63,63)" stroke="none" d="M -261,10061 L 831,10061 831,11528 -261,11528 -261,10061 Z M -255,10070 L 825,10070 825,11519 -255,11519 -255,10070 Z"/>
             <path fill="rgb(64,64,64)" stroke="none" d="M -255,10070 L 825,10070 825,11519 -255,11519 -255,10070 Z M -249,10078 L 819,10078 819,11511 -249,11511 -249,10078 Z"/>
             <path fill="rgb(65,65,65)" stroke="none" d="M -249,10078 L 819,10078 819,11511 -249,11511 -249,10078 Z M -243,10086 L 813,10086 813,11503 -243,11503 -243,10086 Z"/>
             <path fill="rgb(66,66,66)" stroke="none" d="M -243,10086 L 813,10086 813,11503 -243,11503 -243,10086 Z M -237,10094 L 807,10094 807,11495 -237,11495 -237,10094 Z"/>
             <path fill="rgb(67,67,67)" stroke="none" d="M -237,10094 L 807,10094 807,11495 -237,11495 -237,10094 Z M -231,10102 L 801,10102 801,11487 -231,11487 -231,10102 Z"/>
             <path fill="rgb(68,68,68)" stroke="none" d="M -231,10102 L 801,10102 801,11487 -231,11487 -231,10102 Z M -225,10110 L 795,10110 795,11479 -225,11479 -225,10110 Z"/>
             <path fill="rgb(69,69,69)" stroke="none" d="M -225,10110 L 795,10110 795,11479 -225,11479 -225,10110 Z M -219,10118 L 789,10118 789,11471 -219,11471 -219,10118 Z"/>
             <path fill="rgb(70,70,70)" stroke="none" d="M -219,10118 L 789,10118 789,11471 -219,11471 -219,10118 Z M -213,10127 L 783,10127 783,11462 -213,11462 -213,10127 Z"/>
             <path fill="rgb(71,71,71)" stroke="none" d="M -213,10127 L 783,10127 783,11462 -213,11462 -213,10127 Z M -207,10135 L 777,10135 777,11454 -207,11454 -207,10135 Z"/>
             <path fill="rgb(72,72,72)" stroke="none" d="M -207,10135 L 777,10135 777,11454 -207,11454 -207,10135 Z M -201,10143 L 771,10143 771,11446 -201,11446 -201,10143 Z"/>
             <path fill="rgb(73,73,73)" stroke="none" d="M -201,10143 L 771,10143 771,11446 -201,11446 -201,10143 Z M -195,10151 L 765,10151 765,11438 -195,11438 -195,10151 Z"/>
             <path fill="rgb(74,74,74)" stroke="none" d="M -195,10151 L 765,10151 765,11438 -195,11438 -195,10151 Z M -188,10159 L 758,10159 758,11430 -188,11430 -188,10159 Z"/>
             <path fill="rgb(75,75,75)" stroke="none" d="M -188,10159 L 758,10159 758,11430 -188,11430 -188,10159 Z M -182,10167 L 752,10167 752,11422 -182,11422 -182,10167 Z"/>
             <path fill="rgb(76,76,76)" stroke="none" d="M -182,10167 L 752,10167 752,11422 -182,11422 -182,10167 Z M -176,10176 L 746,10176 746,11413 -176,11413 -176,10176 Z"/>
             <path fill="rgb(77,77,77)" stroke="none" d="M -176,10176 L 746,10176 746,11413 -176,11413 -176,10176 Z M -170,10184 L 740,10184 740,11405 -170,11405 -170,10184 Z"/>
             <path fill="rgb(78,78,78)" stroke="none" d="M -170,10184 L 740,10184 740,11405 -170,11405 -170,10184 Z M -164,10192 L 734,10192 734,11397 -164,11397 -164,10192 Z"/>
             <path fill="rgb(79,79,79)" stroke="none" d="M -164,10192 L 734,10192 734,11397 -164,11397 -164,10192 Z M -158,10200 L 728,10200 728,11389 -158,11389 -158,10200 Z"/>
             <path fill="rgb(80,80,80)" stroke="none" d="M -158,10200 L 728,10200 728,11389 -158,11389 -158,10200 Z M -152,10208 L 722,10208 722,11381 -152,11381 -152,10208 Z"/>
             <path fill="rgb(81,81,81)" stroke="none" d="M -152,10208 L 722,10208 722,11381 -152,11381 -152,10208 Z M -146,10216 L 716,10216 716,11373 -146,11373 -146,10216 Z"/>
             <path fill="rgb(82,82,82)" stroke="none" d="M -146,10216 L 716,10216 716,11373 -146,11373 -146,10216 Z M -140,10225 L 710,10225 710,11364 -140,11364 -140,10225 Z"/>
             <path fill="rgb(83,83,83)" stroke="none" d="M -140,10225 L 710,10225 710,11364 -140,11364 -140,10225 Z M -134,10233 L 704,10233 704,11356 -134,11356 -134,10233 Z"/>
             <path fill="rgb(84,84,84)" stroke="none" d="M -134,10233 L 704,10233 704,11356 -134,11356 -134,10233 Z M -128,10241 L 698,10241 698,11348 -128,11348 -128,10241 Z"/>
             <path fill="rgb(85,85,85)" stroke="none" d="M -128,10241 L 698,10241 698,11348 -128,11348 -128,10241 Z M -122,10249 L 692,10249 692,11340 -122,11340 -122,10249 Z"/>
             <path fill="rgb(86,86,86)" stroke="none" d="M -122,10249 L 692,10249 692,11340 -122,11340 -122,10249 Z M -115,10257 L 685,10257 685,11332 -115,11332 -115,10257 Z"/>
             <path fill="rgb(87,87,87)" stroke="none" d="M -115,10257 L 685,10257 685,11332 -115,11332 -115,10257 Z M -109,10265 L 679,10265 679,11324 -109,11324 -109,10265 Z"/>
             <path fill="rgb(88,88,88)" stroke="none" d="M -109,10265 L 679,10265 679,11324 -109,11324 -109,10265 Z M -104,10273 L 673,10273 673,11316 -104,11316 -104,10273 Z"/>
             <path fill="rgb(89,89,89)" stroke="none" d="M -104,10273 L 673,10273 673,11316 -104,11316 -104,10273 Z M -98,10281 L 667,10281 667,11307 -98,11307 -98,10281 Z"/>
             <path fill="rgb(90,90,90)" stroke="none" d="M -98,10281 L 667,10281 667,11307 -98,11307 -98,10281 Z M -92,10289 L 661,10289 661,11299 -92,11299 -92,10289 Z"/>
             <path fill="rgb(91,91,91)" stroke="none" d="M -92,10289 L 661,10289 661,11299 -92,11299 -92,10289 Z M -86,10297 L 655,10297 655,11291 -86,11291 -86,10297 Z"/>
             <path fill="rgb(92,92,92)" stroke="none" d="M -86,10297 L 655,10297 655,11291 -86,11291 -86,10297 Z M -80,10305 L 649,10305 649,11283 -80,11283 -80,10305 Z"/>
             <path fill="rgb(93,93,93)" stroke="none" d="M -80,10305 L 649,10305 649,11283 -80,11283 -80,10305 Z M -74,10313 L 643,10313 643,11275 -74,11275 -74,10313 Z"/>
             <path fill="rgb(94,94,94)" stroke="none" d="M -74,10313 L 643,10313 643,11275 -74,11275 -74,10313 Z M -68,10321 L 637,10321 637,11267 -68,11267 -68,10321 Z"/>
             <path fill="rgb(95,95,95)" stroke="none" d="M -68,10321 L 637,10321 637,11267 -68,11267 -68,10321 Z M -62,10330 L 631,10330 631,11258 -62,11258 -62,10330 Z"/>
             <path fill="rgb(96,96,96)" stroke="none" d="M -62,10330 L 631,10330 631,11258 -62,11258 -62,10330 Z M -56,10338 L 625,10338 625,11250 -56,11250 -56,10338 Z"/>
             <path fill="rgb(97,97,97)" stroke="none" d="M -56,10338 L 625,10338 625,11250 -56,11250 -56,10338 Z M -50,10346 L 619,10346 619,11242 -50,11242 -50,10346 Z"/>
             <path fill="rgb(98,98,98)" stroke="none" d="M -50,10346 L 619,10346 619,11242 -50,11242 -50,10346 Z M -43,10354 L 612,10354 612,11234 -43,11234 -43,10354 Z"/>
             <path fill="rgb(99,99,99)" stroke="none" d="M -43,10354 L 612,10354 612,11234 -43,11234 -43,10354 Z M -37,10362 L 606,10362 606,11226 -37,11226 -37,10362 Z"/>
             <path fill="rgb(100,100,100)" stroke="none" d="M -37,10362 L 606,10362 606,11226 -37,11226 -37,10362 Z M -31,10370 L 600,10370 600,11218 -31,11218 -31,10370 Z"/>
             <path fill="rgb(101,101,101)" stroke="none" d="M -31,10370 L 600,10370 600,11218 -31,11218 -31,10370 Z M -25,10378 L 594,10378 594,11209 -25,11209 -25,10378 Z"/>
             <path fill="rgb(102,102,102)" stroke="none" d="M -25,10378 L 594,10378 594,11209 -25,11209 -25,10378 Z M -19,10387 L 588,10387 588,11201 -19,11201 -19,10387 Z"/>
             <path fill="rgb(103,103,103)" stroke="none" d="M -19,10387 L 588,10387 588,11201 -19,11201 -19,10387 Z M -13,10395 L 582,10395 582,11193 -13,11193 -13,10395 Z"/>
             <path fill="rgb(104,104,104)" stroke="none" d="M -13,10395 L 582,10395 582,11193 -13,11193 -13,10395 Z M -7,10403 L 576,10403 576,11185 -7,11185 -7,10403 Z"/>
             <path fill="rgb(105,105,105)" stroke="none" d="M -7,10403 L 576,10403 576,11185 -7,11185 -7,10403 Z M -1,10411 L 570,10411 570,11177 -1,11177 -1,10411 Z"/>
             <path fill="rgb(106,106,106)" stroke="none" d="M -1,10411 L 570,10411 570,11177 -1,11177 -1,10411 Z M 5,10419 L 564,10419 564,11169 5,11169 5,10419 Z"/>
             <path fill="rgb(107,107,107)" stroke="none" d="M 5,10419 L 564,10419 564,11169 5,11169 5,10419 Z M 11,10427 L 558,10427 558,11161 11,11161 11,10427 Z"/>
             <path fill="rgb(108,108,108)" stroke="none" d="M 11,10427 L 558,10427 558,11161 11,11161 11,10427 Z M 17,10436 L 552,10436 552,11152 17,11152 17,10436 Z"/>
             <path fill="rgb(109,109,109)" stroke="none" d="M 17,10436 L 552,10436 552,11152 17,11152 17,10436 Z M 23,10444 L 546,10444 546,11144 23,11144 23,10444 Z"/>
             <path fill="rgb(110,110,110)" stroke="none" d="M 23,10444 L 546,10444 546,11144 23,11144 23,10444 Z M 30,10452 L 539,10452 539,11136 30,11136 30,10452 Z"/>
             <path fill="rgb(111,111,111)" stroke="none" d="M 30,10452 L 539,10452 539,11136 30,11136 30,10452 Z M 36,10460 L 533,10460 533,11128 36,11128 36,10460 Z"/>
             <path fill="rgb(112,112,112)" stroke="none" d="M 36,10460 L 533,10460 533,11128 36,11128 36,10460 Z M 42,10468 L 527,10468 527,11120 42,11120 42,10468 Z"/>
             <path fill="rgb(113,113,113)" stroke="none" d="M 42,10468 L 527,10468 527,11120 42,11120 42,10468 Z M 48,10476 L 521,10476 521,11112 48,11112 48,10476 Z"/>
             <path fill="rgb(114,114,114)" stroke="none" d="M 48,10476 L 521,10476 521,11112 48,11112 48,10476 Z M 54,10485 L 515,10485 515,11103 54,11103 54,10485 Z"/>
             <path fill="rgb(115,115,115)" stroke="none" d="M 54,10485 L 515,10485 515,11103 54,11103 54,10485 Z M 60,10493 L 509,10493 509,11095 60,11095 60,10493 Z"/>
             <path fill="rgb(116,116,116)" stroke="none" d="M 60,10493 L 509,10493 509,11095 60,11095 60,10493 Z M 66,10501 L 503,10501 503,11087 66,11087 66,10501 Z"/>
             <path fill="rgb(117,117,117)" stroke="none" d="M 66,10501 L 503,10501 503,11087 66,11087 66,10501 Z M 72,10509 L 497,10509 497,11079 72,11079 72,10509 Z"/>
             <path fill="rgb(118,118,118)" stroke="none" d="M 72,10509 L 497,10509 497,11079 72,11079 72,10509 Z M 78,10517 L 491,10517 491,11071 78,11071 78,10517 Z"/>
             <path fill="rgb(119,119,119)" stroke="none" d="M 78,10517 L 491,10517 491,11071 78,11071 78,10517 Z M 84,10525 L 485,10525 485,11063 84,11063 84,10525 Z"/>
             <path fill="rgb(120,120,120)" stroke="none" d="M 84,10525 L 485,10525 485,11063 84,11063 84,10525 Z M 90,10533 L 479,10533 479,11055 90,11055 90,10533 Z"/>
             <path fill="rgb(121,121,121)" stroke="none" d="M 90,10533 L 479,10533 479,11055 90,11055 90,10533 Z M 96,10542 L 473,10542 473,11046 96,11046 96,10542 Z"/>
             <path fill="rgb(122,122,122)" stroke="none" d="M 96,10542 L 473,10542 473,11046 96,11046 96,10542 Z M 103,10550 L 466,10550 466,11038 103,11038 103,10550 Z"/>
             <path fill="rgb(123,123,123)" stroke="none" d="M 103,10550 L 466,10550 466,11038 103,11038 103,10550 Z M 109,10558 L 460,10558 460,11030 109,11030 109,10558 Z"/>
             <path fill="rgb(124,124,124)" stroke="none" d="M 109,10558 L 460,10558 460,11030 109,11030 109,10558 Z M 115,10566 L 454,10566 454,11022 115,11022 115,10566 Z"/>
             <path fill="rgb(125,125,125)" stroke="none" d="M 115,10566 L 454,10566 454,11022 115,11022 115,10566 Z M 121,10574 L 448,10574 448,11014 121,11014 121,10574 Z"/>
             <path fill="rgb(126,126,126)" stroke="none" d="M 121,10574 L 448,10574 448,11014 121,11014 121,10574 Z M 127,10582 L 442,10582 442,11006 127,11006 127,10582 Z"/>
             <path fill="rgb(127,127,127)" stroke="none" d="M 127,10582 L 442,10582 442,11006 127,11006 127,10582 Z M 133,10591 L 436,10591 436,10997 133,10997 133,10591 Z"/>
             <path fill="rgb(128,128,128)" stroke="none" d="M 133,10591 L 436,10591 436,10997 133,10997 133,10591 Z M 139,10599 L 430,10599 430,10989 139,10989 139,10599 Z"/>
             <path fill="rgb(129,129,129)" stroke="none" d="M 139,10599 L 430,10599 430,10989 139,10989 139,10599 Z M 145,10607 L 424,10607 424,10981 145,10981 145,10607 Z"/>
             <path fill="rgb(130,130,130)" stroke="none" d="M 145,10607 L 424,10607 424,10981 145,10981 145,10607 Z M 151,10615 L 418,10615 418,10973 151,10973 151,10615 Z"/>
             <path fill="rgb(131,131,131)" stroke="none" d="M 151,10615 L 418,10615 418,10973 151,10973 151,10615 Z M 157,10623 L 412,10623 412,10965 157,10965 157,10623 Z"/>
             <path fill="rgb(132,132,132)" stroke="none" d="M 157,10623 L 412,10623 412,10965 157,10965 157,10623 Z M 163,10631 L 406,10631 406,10957 163,10957 163,10631 Z"/>
             <path fill="rgb(133,133,133)" stroke="none" d="M 163,10631 L 406,10631 406,10957 163,10957 163,10631 Z M 169,10640 L 400,10640 400,10948 169,10948 169,10640 Z"/>
             <path fill="rgb(134,134,134)" stroke="none" d="M 169,10640 L 400,10640 400,10948 169,10948 169,10640 Z M 176,10648 L 393,10648 393,10940 176,10940 176,10648 Z"/>
             <path fill="rgb(135,135,135)" stroke="none" d="M 176,10648 L 393,10648 393,10940 176,10940 176,10648 Z M 182,10656 L 387,10656 387,10932 182,10932 182,10656 Z"/>
             <path fill="rgb(136,136,136)" stroke="none" d="M 182,10656 L 387,10656 387,10932 182,10932 182,10656 Z M 188,10664 L 381,10664 381,10924 188,10924 188,10664 Z"/>
             <path fill="rgb(137,137,137)" stroke="none" d="M 188,10664 L 381,10664 381,10924 188,10924 188,10664 Z M 194,10672 L 375,10672 375,10916 194,10916 194,10672 Z"/>
             <path fill="rgb(138,138,138)" stroke="none" d="M 194,10672 L 375,10672 375,10916 194,10916 194,10672 Z M 200,10680 L 369,10680 369,10908 200,10908 200,10680 Z"/>
             <path fill="rgb(139,139,139)" stroke="none" d="M 200,10680 L 369,10680 369,10908 200,10908 200,10680 Z M 206,10688 L 363,10688 363,10900 206,10900 206,10688 Z"/>
             <path fill="rgb(140,140,140)" stroke="none" d="M 206,10688 L 363,10688 363,10900 206,10900 206,10688 Z M 212,10697 L 357,10697 357,10891 212,10891 212,10697 Z"/>
             <path fill="rgb(141,141,141)" stroke="none" d="M 212,10697 L 357,10697 357,10891 212,10891 212,10697 Z M 218,10705 L 351,10705 351,10883 218,10883 218,10705 Z"/>
             <path fill="rgb(142,142,142)" stroke="none" d="M 218,10705 L 351,10705 351,10883 218,10883 218,10705 Z M 224,10713 L 345,10713 345,10875 224,10875 224,10713 Z"/>
             <path fill="rgb(143,143,143)" stroke="none" d="M 224,10713 L 345,10713 345,10875 224,10875 224,10713 Z M 230,10721 L 339,10721 339,10867 230,10867 230,10721 Z"/>
             <path fill="rgb(144,144,144)" stroke="none" d="M 230,10721 L 339,10721 339,10867 230,10867 230,10721 Z M 236,10729 L 333,10729 333,10859 236,10859 236,10729 Z"/>
             <path fill="rgb(145,145,145)" stroke="none" d="M 236,10729 L 333,10729 333,10859 236,10859 236,10729 Z M 242,10737 L 327,10737 327,10851 242,10851 242,10737 Z"/>
             <path fill="rgb(146,146,146)" stroke="none" d="M 242,10737 L 327,10737 327,10851 242,10851 242,10737 Z M 248,10746 L 320,10746 320,10842 248,10842 248,10746 Z"/>
             <path fill="rgb(147,147,147)" stroke="none" d="M 248,10746 L 320,10746 320,10842 248,10842 248,10746 Z M 255,10754 L 314,10754 314,10834 255,10834 255,10754 Z"/>
             <path fill="rgb(148,148,148)" stroke="none" d="M 255,10754 L 314,10754 314,10834 255,10834 255,10754 Z M 261,10762 L 308,10762 308,10826 261,10826 261,10762 Z"/>
             <path fill="rgb(149,149,149)" stroke="none" d="M 261,10762 L 308,10762 308,10826 261,10826 261,10762 Z M 267,10770 L 302,10770 302,10818 267,10818 267,10770 Z"/>
             <path fill="rgb(150,150,150)" stroke="none" d="M 267,10770 L 302,10770 302,10818 267,10818 267,10770 Z M 273,10778 L 296,10778 296,10810 273,10810 273,10778 Z"/>
             <path fill="rgb(151,151,151)" stroke="none" d="M 273,10778 L 296,10778 296,10810 273,10810 273,10778 Z M 279,10786 L 290,10786 290,10802 279,10802 279,10786 Z"/>
             <path fill="rgb(153,153,153)" stroke="none" d="M 279,10786 L 290,10786 290,10802 279,10802 279,10786 Z"/>
            </g>
           </pattern>
          </defs>
          <path style="fill:url(#pattern1)" d="M -86,11575 L 91,10297 94,10325 101,10351 113,10375 129,10398 149,10418 173,10437 199,10454 229,10470 296,10495 371,10513 451,10524 533,10527 615,10524 695,10513 770,10495 837,10470 867,10454 893,10437 917,10418 937,10398 953,10375 965,10351 972,10325 975,10297 1152,11575 1148,11621 1138,11665 1121,11705 1099,11743 1071,11777 1038,11809 1000,11837 959,11862 865,11904 760,11934 648,11952 533,11958 418,11952 306,11934 201,11904 107,11862 66,11837 28,11809 -5,11777 -33,11743 -55,11705 -72,11665 -82,11621 -86,11575 Z"/>
         </g>
         <path fill="none" stroke="rgb(178,178,178)" stroke-width="40" stroke-linejoin="round" d="M -86,11575 L 91,10297 C 91,10604 975,10604 975,10297 L 1152,11575 C 1152,12086 -86,12086 -86,11575 Z"/>
        </g>
       </g>
       <g class="com.sun.star.drawing.ClosedBezierShape">
        <g id="id5">
         <rect class="BoundingBox" stroke="none" fill="none" x="71" y="10022" width="925" height="552"/>
         <g>
          <defs>
           <linearGradient id="gradient1" x1="533" y1="10042" x2="533" y2="10553" gradientUnits="userSpaceOnUse">
            <stop offset="0.1" style="stop-color:rgb(51,51,51)"/>
            <stop offset="1" style="stop-color:rgb(153,153,153)"/>
           </linearGradient>
          </defs>
          <path style="fill:url(#gradient1)" d="M 854,10112 L 882,10130 907,10151 927,10173 944,10196 958,10220 967,10245 973,10271 975,10297 973,10323 967,10349 958,10374 944,10399 927,10422 907,10444 882,10464 854,10483 822,10499 787,10513 748,10525 708,10535 666,10543 622,10548 532,10553 443,10548 399,10543 357,10535 317,10525 279,10513 244,10499 212,10483 183,10464 159,10444 138,10422 121,10399 108,10374 99,10349 93,10323 91,10297 93,10271 99,10245 108,10220 121,10196 138,10173 159,10151 183,10130 212,10112 244,10095 279,10081 317,10069 357,10059 400,10052 443,10046 533,10042 623,10046 666,10052 709,10059 749,10069 787,10081 822,10095 854,10112 Z"/>
         </g>
         <path fill="none" stroke="rgb(178,178,178)" stroke-width="40" stroke-linejoin="round" d="M 854,10112 C 1015,10205 1015,10390 854,10483 693,10576 372,10576 212,10483 51,10390 51,10205 212,10112 373,10019 694,10019 854,10112 Z"/>
        </g>
       </g>
       <g class="com.sun.star.drawing.ClosedBezierShape">
        <g id="id6">
         <rect class="BoundingBox" stroke="none" fill="none" x="-106" y="10009" width="1279" height="1971"/>
         <path fill="none" stroke="rgb(0,0,0)" stroke-width="40" stroke-linejoin="round" d="M -86,11575 L 91,10298 C 91,9939 975,9939 975,10298 L 1152,11575 C 1152,12086 -86,12086 -86,11575 Z"/>
        </g>
       </g>
       <g class="com.sun.star.drawing.PolyPolygonShape">
        <g id="id7">
         <rect class="BoundingBox" stroke="none" fill="none" x="424" y="9101" width="218" height="1218"/>
         <path fill="rgb(102,102,102)" stroke="none" d="M 532,10298 L 532,9326 444,9224 532,9122 621,9224 532,9326 532,10298 Z"/>
         <path fill="none" stroke="rgb(0,0,0)" stroke-width="40" stroke-linejoin="round" d="M 532,10298 L 532,9326 444,9224 532,9122 621,9224 532,9326 532,10298 Z"/>
        </g>
       </g>
       <g class="com.sun.star.drawing.OpenBezierShape">
        <g id="id8">
         <rect class="BoundingBox" stroke="none" fill="none" x="601" y="9000" width="174" height="450"/>
         <path fill="none" stroke="rgb(51,51,51)" stroke-width="40" stroke-linejoin="round" d="M 621,9020 C 798,9122 798,9327 621,9429"/>
        </g>
       </g>
       <g class="com.sun.star.drawing.OpenBezierShape">
        <g id="id9">
         <rect class="BoundingBox" stroke="none" fill="none" x="292" y="9000" width="173" height="450"/>
         <path fill="none" stroke="rgb(51,51,51)" stroke-width="40" stroke-linejoin="round" d="M 444,9020 C 268,9122 268,9327 444,9429"/>
        </g>
       </g>
       <g class="com.sun.star.drawing.OpenBezierShape">
        <g id="id10">
         <rect class="BoundingBox" stroke="none" fill="none" x="115" y="8948" width="174" height="552"/>
         <path fill="none" stroke="rgb(51,51,51)" stroke-width="40" stroke-linejoin="round" d="M 267,8968 C 91,9070 91,9376 268,9479"/>
        </g>
       </g>
       <g class="com.sun.star.drawing.OpenBezierShape">
        <g id="id11">
         <rect class="BoundingBox" stroke="none" fill="none" x="778" y="8948" width="174" height="552"/>
         <path fill="none" stroke="rgb(51,51,51)" stroke-width="40" stroke-linejoin="round" d="M 798,8968 C 975,9070 975,9376 798,9479"/>
        </g>
       </g>
       <g class="com.sun.star.drawing.OpenBezierShape">
        <g id="id12">
         <rect class="BoundingBox" stroke="none" fill="none" x="-63" y="8846" width="174" height="757"/>
         <path fill="none" stroke="rgb(51,51,51)" stroke-width="40" stroke-linejoin="round" d="M 90,8866 C -86,8968 -86,9479 90,9582"/>
        </g>
       </g>
       <g class="com.sun.star.drawing.OpenBezierShape">
        <g id="id13">
         <rect class="BoundingBox" stroke="none" fill="none" x="954" y="8846" width="175" height="757"/>
         <path fill="none" stroke="rgb(51,51,51)" stroke-width="40" stroke-linejoin="round" d="M 975,8866 C 1152,8968 1152,9479 975,9582"/>
        </g>
       </g>
       <g class="com.sun.star.drawing.OpenBezierShape">
        <g id="id14">
         <rect class="BoundingBox" stroke="none" fill="none" x="-239" y="8744" width="174" height="961"/>
         <path fill="none" stroke="rgb(51,51,51)" stroke-width="40" stroke-linejoin="round" d="M -86,8764 C -263,8866 -263,9582 -87,9684"/>
        </g>
       </g>
       <g class="com.sun.star.drawing.OpenBezierShape">
        <g id="id15">
         <rect class="BoundingBox" stroke="none" fill="none" x="1132" y="8744" width="174" height="960"/>
         <path fill="none" stroke="rgb(51,51,51)" stroke-width="40" stroke-linejoin="round" d="M 1152,8764 C 1329,8866 1329,9582 1152,9683"/>
        </g>
       </g>
      </g>
     </g>
    </g>
   </g>
  </g>
 </g>
</svg>