<?xml version="1.0" encoding="UTF-8"?>
<!DOCTYPE svg PUBLIC "-//W3C//DTD SVG 1.1//EN" "http://www.w3.org/Graphics/SVG/1.1/DTD/svg11.dtd">
<svg version="1.2" width="35.32mm" height="23.6mm" viewBox="8704 6896 3532 2360" preserveAspectRatio="xMidYMid" fill-rule="evenodd" stroke-width="28.222" stroke-linejoin="round" xmlns="http://www.w3.org/2000/svg" xmlns:ooo="http://xml.openoffice.org/svg/export" xmlns:xlink="http://www.w3.org/1999/xlink" xmlns:presentation="http://sun.com/xmlns/staroffice/presentation" xmlns:smil="http://www.w3.org/2001/SMIL20/" xmlns:anim="urn:oasis:names:tc:opendocument:xmlns:animation:1.0" xml:space="preserve">
 <defs class="ClipPathGroup">
  <clipPath id="presentation_clip_path" clipPathUnits="userSpaceOnUse">
   <rect x="8704" y="6896" width="3532" height="2360"/>
  </clipPath>
 </defs>
 <defs class="TextShapeIndex">
  <g ooo:slide="id1" ooo:id-list="id3 id4 id5 id6 id7 id8 id9 id10 id11 id12 id13 id14 id15 id16"/>
 </defs>
 <defs class="EmbeddedBulletChars">
  <g id="bullet-char-template(57356)" transform="scale(0.00048828125,-0.00048828125)">
   <path d="M 580,1141 L 1163,571 580,0 -4,571 580,1141 Z"/>
  </g>
  <g id="bullet-char-template(57354)" transform="scale(0.00048828125,-0.00048828125)">
   <path d="M 8,1128 L 1137,1128 1137,0 8,0 8,1128 Z"/>
  </g>
  <g id="bullet-char-template(10146)" transform="scale(0.00048828125,-0.00048828125)">
   <path d="M 174,0 L 602,739 174,1481 1456,739 174,0 Z M 1358,739 L 309,1346 659,739 1358,739 Z"/>
  </g>
  <g id="bullet-char-template(10132)" transform="scale(0.00048828125,-0.00048828125)">
   <path d="M 2015,739 L 1276,0 717,0 1260,543 174,543 174,936 1260,936 717,1481 1274,1481 2015,739 Z"/>
  </g>
  <g id="bullet-char-template(10007)" transform="scale(0.00048828125,-0.00048828125)">
   <path d="M 0,-2 C -7,14 -16,27 -25,37 L 356,567 C 262,823 215,952 215,954 215,979 228,992 255,992 264,992 276,990 289,987 310,991 331,999 354,1012 L 381,999 492,748 772,1049 836,1024 860,1049 C 881,1039 901,1025 922,1006 886,937 835,863 770,784 769,783 710,716 594,584 L 774,223 C 774,196 753,168 711,139 L 727,119 C 717,90 699,76 672,76 641,76 570,178 457,381 L 164,-76 C 142,-110 111,-127 72,-127 30,-127 9,-110 8,-76 1,-67 -2,-52 -2,-32 -2,-23 -1,-13 0,-2 Z"/>
  </g>
  <g id="bullet-char-template(10004)" transform="scale(0.00048828125,-0.00048828125)">
   <path d="M 285,-33 C 182,-33 111,30 74,156 52,228 41,333 41,471 41,549 55,616 82,672 116,743 169,778 240,778 293,778 328,747 346,684 L 369,508 C 377,444 397,411 428,410 L 1163,1116 C 1174,1127 1196,1133 1229,1133 1271,1133 1292,1118 1292,1087 L 1292,965 C 1292,929 1282,901 1262,881 L 442,47 C 390,-6 338,-33 285,-33 Z"/>
  </g>
  <g id="bullet-char-template(9679)" transform="scale(0.00048828125,-0.00048828125)">
   <path d="M 813,0 C 632,0 489,54 383,161 276,268 223,411 223,592 223,773 276,916 383,1023 489,1130 632,1184 813,1184 992,1184 1136,1130 1245,1023 1353,916 1407,772 1407,592 1407,412 1353,268 1245,161 1136,54 992,0 813,0 Z"/>
  </g>
  <g id="bullet-char-template(8226)" transform="scale(0.00048828125,-0.00048828125)">
   <path d="M 346,457 C 273,457 209,483 155,535 101,586 74,649 74,723 74,796 101,859 155,911 209,963 273,989 346,989 419,989 480,963 531,910 582,859 608,796 608,723 608,648 583,586 532,535 482,483 420,457 346,457 Z"/>
  </g>
  <g id="bullet-char-template(8211)" transform="scale(0.00048828125,-0.00048828125)">
   <path d="M -4,459 L 1135,459 1135,606 -4,606 -4,459 Z"/>
  </g>
 </defs>
 <defs class="TextEmbeddedBitmaps"/>
 <g class="SlideGroup">
  <g>
   <g id="id1" class="Slide" clip-path="url(#presentation_clip_path)">
    <g class="Page">
     <g class="Group">
      <g class="com.sun.star.drawing.ClosedBezierShape">
       <g id="id3">
        <rect class="BoundingBox" stroke="none" fill="none" x="10930" y="8365" width="1307" height="873"/>
        <path fill="rgb(221,221,221)" stroke="none" d="M 10931,9236 C 11207,9236 12235,8946 12235,8714 12235,8482 12210,8366 11934,8366 11934,8540 10931,9003 10931,9236 Z"/>
        <path fill="none" stroke="rgb(221,221,221)" d="M 10931,9236 C 11207,9236 12235,8946 12235,8714 12235,8482 12210,8366 11934,8366 11934,8540 10931,9003 10931,9236 Z"/>
       </g>
      </g>
      <g class="Group">
       <g class="com.sun.star.drawing.PolyPolygonShape">
        <g id="id4">
         <rect class="BoundingBox" stroke="none" fill="none" x="8704" y="7476" width="2248" height="1781"/>
         <g>
          <defs>
           <linearGradient id="gradient1" x1="8723" y1="8366" x2="10931" y2="8366" gradientUnits="userSpaceOnUse">
            <stop offset="0.1" style="stop-color:rgb(51,51,51)"/>
            <stop offset="1" style="stop-color:rgb(153,153,153)"/>
           </linearGradient>
          </defs>
          <path style="fill:url(#gradient1)" d="M 8724,7960 L 8724,7496 10931,8772 10931,9236 8724,7960 Z"/>
         </g>
         <path fill="none" stroke="rgb(178,178,178)" stroke-width="40" stroke-linejoin="round" d="M 8724,7960 L 8724,7496 10931,8772 10931,9236 8724,7960 Z"/>
        </g>
       </g>
       <g class="com.sun.star.drawing.PolyPolygonShape">
        <g id="id5">
         <rect class="BoundingBox" stroke="none" fill="none" x="10910" y="8172" width="1045" height="1085"/>
         <g>
          <defs>
           <pattern id="pattern1" x="10931" y="8192" width="1004" height="1045" patternUnits="userSpaceOnUse">
            <g transform="translate(-10931,-8192)">
             <path fill="rgb(51,51,51)" stroke="none" d="M 10930,8191 L 11935,8191 11935,9237 10930,9237 10930,8191 Z M 10733,7988 L 11728,7988 11728,9022 10733,9022 10733,7988 Z"/>
             <path fill="rgb(52,52,52)" stroke="none" d="M 10733,7988 L 11728,7988 11728,9022 10733,9022 10733,7988 Z M 10738,7993 L 11723,7993 11723,9017 10738,9017 10738,7993 Z"/>
             <path fill="rgb(53,53,53)" stroke="none" d="M 10738,7993 L 11723,7993 11723,9017 10738,9017 10738,7993 Z M 10743,7998 L 11718,7998 11718,9012 10743,9012 10743,7998 Z"/>
             <path fill="rgb(54,54,54)" stroke="none" d="M 10743,7998 L 11718,7998 11718,9012 10743,9012 10743,7998 Z M 10748,8003 L 11713,8003 11713,9007 10748,9007 10748,8003 Z"/>
             <path fill="rgb(55,55,55)" stroke="none" d="M 10748,8003 L 11713,8003 11713,9007 10748,9007 10748,8003 Z M 10753,8008 L 11708,8008 11708,9002 10753,9002 10753,8008 Z"/>
             <path fill="rgb(56,56,56)" stroke="none" d="M 10753,8008 L 11708,8008 11708,9002 10753,9002 10753,8008 Z M 10758,8013 L 11703,8013 11703,8997 10758,8997 10758,8013 Z"/>
             <path fill="rgb(57,57,57)" stroke="none" d="M 10758,8013 L 11703,8013 11703,8997 10758,8997 10758,8013 Z M 10763,8018 L 11698,8018 11698,8992 10763,8992 10763,8018 Z"/>
             <path fill="rgb(58,58,58)" stroke="none" d="M 10763,8018 L 11698,8018 11698,8992 10763,8992 10763,8018 Z M 10768,8024 L 11693,8024 11693,8986 10768,8986 10768,8024 Z"/>
             <path fill="rgb(59,59,59)" stroke="none" d="M 10768,8024 L 11693,8024 11693,8986 10768,8986 10768,8024 Z M 10773,8029 L 11688,8029 11688,8981 10773,8981 10773,8029 Z"/>
             <path fill="rgb(60,60,60)" stroke="none" d="M 10773,8029 L 11688,8029 11688,8981 10773,8981 10773,8029 Z M 10778,8034 L 11683,8034 11683,8976 10778,8976 10778,8034 Z"/>
             <path fill="rgb(61,61,61)" stroke="none" d="M 10778,8034 L 11683,8034 11683,8976 10778,8976 10778,8034 Z M 10783,8039 L 11678,8039 11678,8971 10783,8971 10783,8039 Z"/>
             <path fill="rgb(62,62,62)" stroke="none" d="M 10783,8039 L 11678,8039 11678,8971 10783,8971 10783,8039 Z M 10788,8044 L 11673,8044 11673,8966 10788,8966 10788,8044 Z"/>
             <path fill="rgb(63,63,63)" stroke="none" d="M 10788,8044 L 11673,8044 11673,8966 10788,8966 10788,8044 Z M 10793,8049 L 11668,8049 11668,8961 10793,8961 10793,8049 Z"/>
             <path fill="rgb(64,64,64)" stroke="none" d="M 10793,8049 L 11668,8049 11668,8961 10793,8961 10793,8049 Z M 10798,8054 L 11663,8054 11663,8956 10798,8956 10798,8054 Z"/>
             <path fill="rgb(65,65,65)" stroke="none" d="M 10798,8054 L 11663,8054 11663,8956 10798,8956 10798,8054 Z M 10802,8059 L 11659,8059 11659,8951 10802,8951 10802,8059 Z"/>
             <path fill="rgb(66,66,66)" stroke="none" d="M 10802,8059 L 11659,8059 11659,8951 10802,8951 10802,8059 Z M 10807,8065 L 11654,8065 11654,8945 10807,8945 10807,8065 Z"/>
             <path fill="rgb(67,67,67)" stroke="none" d="M 10807,8065 L 11654,8065 11654,8945 10807,8945 10807,8065 Z M 10812,8070 L 11649,8070 11649,8940 10812,8940 10812,8070 Z"/>
             <path fill="rgb(68,68,68)" stroke="none" d="M 10812,8070 L 11649,8070 11649,8940 10812,8940 10812,8070 Z M 10817,8075 L 11644,8075 11644,8935 10817,8935 10817,8075 Z"/>
             <path fill="rgb(69,69,69)" stroke="none" d="M 10817,8075 L 11644,8075 11644,8935 10817,8935 10817,8075 Z M 10822,8080 L 11639,8080 11639,8930 10822,8930 10822,8080 Z"/>
             <path fill="rgb(70,70,70)" stroke="none" d="M 10822,8080 L 11639,8080 11639,8930 10822,8930 10822,8080 Z M 10827,8085 L 11634,8085 11634,8925 10827,8925 10827,8085 Z"/>
             <path fill="rgb(71,71,71)" stroke="none" d="M 10827,8085 L 11634,8085 11634,8925 10827,8925 10827,8085 Z M 10832,8090 L 11629,8090 11629,8920 10832,8920 10832,8090 Z"/>
             <path fill="rgb(72,72,72)" stroke="none" d="M 10832,8090 L 11629,8090 11629,8920 10832,8920 10832,8090 Z M 10837,8095 L 11624,8095 11624,8915 10837,8915 10837,8095 Z"/>
             <path fill="rgb(73,73,73)" stroke="none" d="M 10837,8095 L 11624,8095 11624,8915 10837,8915 10837,8095 Z M 10842,8101 L 11619,8101 11619,8909 10842,8909 10842,8101 Z"/>
             <path fill="rgb(74,74,74)" stroke="none" d="M 10842,8101 L 11619,8101 11619,8909 10842,8909 10842,8101 Z M 10847,8106 L 11614,8106 11614,8904 10847,8904 10847,8106 Z"/>
             <path fill="rgb(75,75,75)" stroke="none" d="M 10847,8106 L 11614,8106 11614,8904 10847,8904 10847,8106 Z M 10852,8111 L 11609,8111 11609,8899 10852,8899 10852,8111 Z"/>
             <path fill="rgb(76,76,76)" stroke="none" d="M 10852,8111 L 11609,8111 11609,8899 10852,8899 10852,8111 Z M 10857,8116 L 11604,8116 11604,8894 10857,8894 10857,8116 Z"/>
             <path fill="rgb(77,77,77)" stroke="none" d="M 10857,8116 L 11604,8116 11604,8894 10857,8894 10857,8116 Z M 10862,8121 L 11599,8121 11599,8889 10862,8889 10862,8121 Z"/>
             <path fill="rgb(78,78,78)" stroke="none" d="M 10862,8121 L 11599,8121 11599,8889 10862,8889 10862,8121 Z M 10867,8126 L 11594,8126 11594,8884 10867,8884 10867,8126 Z"/>
             <path fill="rgb(79,79,79)" stroke="none" d="M 10867,8126 L 11594,8126 11594,8884 10867,8884 10867,8126 Z M 10872,8131 L 11589,8131 11589,8879 10872,8879 10872,8131 Z"/>
             <path fill="rgb(80,80,80)" stroke="none" d="M 10872,8131 L 11589,8131 11589,8879 10872,8879 10872,8131 Z M 10876,8136 L 11585,8136 11585,8874 10876,8874 10876,8136 Z"/>
             <path fill="rgb(81,81,81)" stroke="none" d="M 10876,8136 L 11585,8136 11585,8874 10876,8874 10876,8136 Z M 10881,8142 L 11580,8142 11580,8868 10881,8868 10881,8142 Z"/>
             <path fill="rgb(82,82,82)" stroke="none" d="M 10881,8142 L 11580,8142 11580,8868 10881,8868 10881,8142 Z M 10886,8147 L 11575,8147 11575,8863 10886,8863 10886,8147 Z"/>
             <path fill="rgb(83,83,83)" stroke="none" d="M 10886,8147 L 11575,8147 11575,8863 10886,8863 10886,8147 Z M 10891,8152 L 11570,8152 11570,8858 10891,8858 10891,8152 Z"/>
             <path fill="rgb(84,84,84)" stroke="none" d="M 10891,8152 L 11570,8152 11570,8858 10891,8858 10891,8152 Z M 10896,8157 L 11565,8157 11565,8853 10896,8853 10896,8157 Z"/>
             <path fill="rgb(85,85,85)" stroke="none" d="M 10896,8157 L 11565,8157 11565,8853 10896,8853 10896,8157 Z M 10901,8162 L 11560,8162 11560,8848 10901,8848 10901,8162 Z"/>
             <path fill="rgb(86,86,86)" stroke="none" d="M 10901,8162 L 11560,8162 11560,8848 10901,8848 10901,8162 Z M 10906,8167 L 11555,8167 11555,8843 10906,8843 10906,8167 Z"/>
             <path fill="rgb(87,87,87)" stroke="none" d="M 10906,8167 L 11555,8167 11555,8843 10906,8843 10906,8167 Z M 10910,8172 L 11550,8172 11550,8838 10910,8838 10910,8172 Z"/>
             <path fill="rgb(88,88,88)" stroke="none" d="M 10910,8172 L 11550,8172 11550,8838 10910,8838 10910,8172 Z M 10915,8177 L 11545,8177 11545,8832 10915,8832 10915,8177 Z"/>
             <path fill="rgb(89,89,89)" stroke="none" d="M 10915,8177 L 11545,8177 11545,8832 10915,8832 10915,8177 Z M 10920,8182 L 11540,8182 11540,8827 10920,8827 10920,8182 Z"/>
             <path fill="rgb(90,90,90)" stroke="none" d="M 10920,8182 L 11540,8182 11540,8827 10920,8827 10920,8182 Z M 10925,8187 L 11535,8187 11535,8822 10925,8822 10925,8187 Z"/>
             <path fill="rgb(91,91,91)" stroke="none" d="M 10925,8187 L 11535,8187 11535,8822 10925,8822 10925,8187 Z M 10930,8192 L 11530,8192 11530,8817 10930,8817 10930,8192 Z"/>
             <path fill="rgb(92,92,92)" stroke="none" d="M 10930,8192 L 11530,8192 11530,8817 10930,8817 10930,8192 Z M 10935,8197 L 11525,8197 11525,8812 10935,8812 10935,8197 Z"/>
             <path fill="rgb(93,93,93)" stroke="none" d="M 10935,8197 L 11525,8197 11525,8812 10935,8812 10935,8197 Z M 10940,8202 L 11520,8202 11520,8807 10940,8807 10940,8202 Z"/>
             <path fill="rgb(94,94,94)" stroke="none" d="M 10940,8202 L 11520,8202 11520,8807 10940,8807 10940,8202 Z M 10944,8207 L 11516,8207 11516,8802 10944,8802 10944,8207 Z"/>
             <path fill="rgb(95,95,95)" stroke="none" d="M 10944,8207 L 11516,8207 11516,8802 10944,8802 10944,8207 Z M 10949,8212 L 11511,8212 11511,8797 10949,8797 10949,8212 Z"/>
             <path fill="rgb(96,96,96)" stroke="none" d="M 10949,8212 L 11511,8212 11511,8797 10949,8797 10949,8212 Z M 10954,8218 L 11506,8218 11506,8791 10954,8791 10954,8218 Z"/>
             <path fill="rgb(97,97,97)" stroke="none" d="M 10954,8218 L 11506,8218 11506,8791 10954,8791 10954,8218 Z M 10959,8223 L 11501,8223 11501,8786 10959,8786 10959,8223 Z"/>
             <path fill="rgb(98,98,98)" stroke="none" d="M 10959,8223 L 11501,8223 11501,8786 10959,8786 10959,8223 Z M 10964,8228 L 11496,8228 11496,8781 10964,8781 10964,8228 Z"/>
             <path fill="rgb(99,99,99)" stroke="none" d="M 10964,8228 L 11496,8228 11496,8781 10964,8781 10964,8228 Z M 10969,8233 L 11491,8233 11491,8776 10969,8776 10969,8233 Z"/>
             <path fill="rgb(100,100,100)" stroke="none" d="M 10969,8233 L 11491,8233 11491,8776 10969,8776 10969,8233 Z M 10974,8238 L 11486,8238 11486,8771 10974,8771 10974,8238 Z"/>
             <path fill="rgb(101,101,101)" stroke="none" d="M 10974,8238 L 11486,8238 11486,8771 10974,8771 10974,8238 Z M 10979,8243 L 11481,8243 11481,8766 10979,8766 10979,8243 Z"/>
             <path fill="rgb(102,102,102)" stroke="none" d="M 10979,8243 L 11481,8243 11481,8766 10979,8766 10979,8243 Z M 10984,8248 L 11476,8248 11476,8761 10984,8761 10984,8248 Z"/>
             <path fill="rgb(103,103,103)" stroke="none" d="M 10984,8248 L 11476,8248 11476,8761 10984,8761 10984,8248 Z M 10989,8254 L 11471,8254 11471,8755 10989,8755 10989,8254 Z"/>
             <path fill="rgb(104,104,104)" stroke="none" d="M 10989,8254 L 11471,8254 11471,8755 10989,8755 10989,8254 Z M 10994,8259 L 11466,8259 11466,8750 10994,8750 10994,8259 Z"/>
             <path fill="rgb(105,105,105)" stroke="none" d="M 10994,8259 L 11466,8259 11466,8750 10994,8750 10994,8259 Z M 10999,8264 L 11461,8264 11461,8745 10999,8745 10999,8264 Z"/>
             <path fill="rgb(106,106,106)" stroke="none" d="M 10999,8264 L 11461,8264 11461,8745 10999,8745 10999,8264 Z M 11004,8269 L 11456,8269 11456,8740 11004,8740 11004,8269 Z"/>
             <path fill="rgb(107,107,107)" stroke="none" d="M 11004,8269 L 11456,8269 11456,8740 11004,8740 11004,8269 Z M 11009,8274 L 11451,8274 11451,8735 11009,8735 11009,8274 Z"/>
             <path fill="rgb(108,108,108)" stroke="none" d="M 11009,8274 L 11451,8274 11451,8735 11009,8735 11009,8274 Z M 11014,8279 L 11446,8279 11446,8730 11014,8730 11014,8279 Z"/>
             <path fill="rgb(109,109,109)" stroke="none" d="M 11014,8279 L 11446,8279 11446,8730 11014,8730 11014,8279 Z M 11018,8284 L 11442,8284 11442,8725 11018,8725 11018,8284 Z"/>
             <path fill="rgb(110,110,110)" stroke="none" d="M 11018,8284 L 11442,8284 11442,8725 11018,8725 11018,8284 Z M 11023,8289 L 11437,8289 11437,8720 11023,8720 11023,8289 Z"/>
             <path fill="rgb(111,111,111)" stroke="none" d="M 11023,8289 L 11437,8289 11437,8720 11023,8720 11023,8289 Z M 11028,8295 L 11432,8295 11432,8714 11028,8714 11028,8295 Z"/>
             <path fill="rgb(112,112,112)" stroke="none" d="M 11028,8295 L 11432,8295 11432,8714 11028,8714 11028,8295 Z M 11033,8300 L 11427,8300 11427,8709 11033,8709 11033,8300 Z"/>
             <path fill="rgb(113,113,113)" stroke="none" d="M 11033,8300 L 11427,8300 11427,8709 11033,8709 11033,8300 Z M 11038,8305 L 11422,8305 11422,8704 11038,8704 11038,8305 Z"/>
             <path fill="rgb(114,114,114)" stroke="none" d="M 11038,8305 L 11422,8305 11422,8704 11038,8704 11038,8305 Z M 11043,8310 L 11417,8310 11417,8699 11043,8699 11043,8310 Z"/>
             <path fill="rgb(115,115,115)" stroke="none" d="M 11043,8310 L 11417,8310 11417,8699 11043,8699 11043,8310 Z M 11048,8315 L 11412,8315 11412,8694 11048,8694 11048,8315 Z"/>
             <path fill="rgb(116,116,116)" stroke="none" d="M 11048,8315 L 11412,8315 11412,8694 11048,8694 11048,8315 Z M 11053,8320 L 11407,8320 11407,8689 11053,8689 11053,8320 Z"/>
             <path fill="rgb(117,117,117)" stroke="none" d="M 11053,8320 L 11407,8320 11407,8689 11053,8689 11053,8320 Z M 11058,8325 L 11402,8325 11402,8684 11058,8684 11058,8325 Z"/>
             <path fill="rgb(118,118,118)" stroke="none" d="M 11058,8325 L 11402,8325 11402,8684 11058,8684 11058,8325 Z M 11063,8330 L 11397,8330 11397,8679 11063,8679 11063,8330 Z"/>
             <path fill="rgb(119,119,119)" stroke="none" d="M 11063,8330 L 11397,8330 11397,8679 11063,8679 11063,8330 Z M 11068,8336 L 11392,8336 11392,8673 11068,8673 11068,8336 Z"/>
             <path fill="rgb(120,120,120)" stroke="none" d="M 11068,8336 L 11392,8336 11392,8673 11068,8673 11068,8336 Z M 11073,8341 L 11387,8341 11387,8668 11073,8668 11073,8341 Z"/>
             <path fill="rgb(121,121,121)" stroke="none" d="M 11073,8341 L 11387,8341 11387,8668 11073,8668 11073,8341 Z M 11078,8346 L 11382,8346 11382,8663 11078,8663 11078,8346 Z"/>
             <path fill="rgb(122,122,122)" stroke="none" d="M 11078,8346 L 11382,8346 11382,8663 11078,8663 11078,8346 Z M 11083,8351 L 11377,8351 11377,8658 11083,8658 11083,8351 Z"/>
             <path fill="rgb(123,123,123)" stroke="none" d="M 11083,8351 L 11377,8351 11377,8658 11083,8658 11083,8351 Z M 11087,8356 L 11373,8356 11373,8653 11087,8653 11087,8356 Z"/>
             <path fill="rgb(124,124,124)" stroke="none" d="M 11087,8356 L 11373,8356 11373,8653 11087,8653 11087,8356 Z M 11092,8361 L 11368,8361 11368,8648 11092,8648 11092,8361 Z"/>
             <path fill="rgb(125,125,125)" stroke="none" d="M 11092,8361 L 11368,8361 11368,8648 11092,8648 11092,8361 Z M 11097,8366 L 11363,8366 11363,8643 11097,8643 11097,8366 Z"/>
             <path fill="rgb(126,126,126)" stroke="none" d="M 11097,8366 L 11363,8366 11363,8643 11097,8643 11097,8366 Z M 11102,8372 L 11358,8372 11358,8637 11102,8637 11102,8372 Z"/>
             <path fill="rgb(127,127,127)" stroke="none" d="M 11102,8372 L 11358,8372 11358,8637 11102,8637 11102,8372 Z M 11107,8377 L 11353,8377 11353,8632 11107,8632 11107,8377 Z"/>
             <path fill="rgb(128,128,128)" stroke="none" d="M 11107,8377 L 11353,8377 11353,8632 11107,8632 11107,8377 Z M 11112,8382 L 11348,8382 11348,8627 11112,8627 11112,8382 Z"/>
             <path fill="rgb(129,129,129)" stroke="none" d="M 11112,8382 L 11348,8382 11348,8627 11112,8627 11112,8382 Z M 11117,8387 L 11343,8387 11343,8622 11117,8622 11117,8387 Z"/>
             <path fill="rgb(130,130,130)" stroke="none" d="M 11117,8387 L 11343,8387 11343,8622 11117,8622 11117,8387 Z M 11122,8392 L 11338,8392 11338,8617 11122,8617 11122,8392 Z"/>
             <path fill="rgb(131,131,131)" stroke="none" d="M 11122,8392 L 11338,8392 11338,8617 11122,8617 11122,8392 Z M 11127,8397 L 11333,8397 11333,8612 11127,8612 11127,8397 Z"/>
             <path fill="rgb(132,132,132)" stroke="none" d="M 11127,8397 L 11333,8397 11333,8612 11127,8612 11127,8397 Z M 11132,8402 L 11328,8402 11328,8607 11132,8607 11132,8402 Z"/>
             <path fill="rgb(133,133,133)" stroke="none" d="M 11132,8402 L 11328,8402 11328,8607 11132,8607 11132,8402 Z M 11137,8407 L 11323,8407 11323,8602 11137,8602 11137,8407 Z"/>
             <path fill="rgb(134,134,134)" stroke="none" d="M 11137,8407 L 11323,8407 11323,8602 11137,8602 11137,8407 Z M 11142,8413 L 11318,8413 11318,8596 11142,8596 11142,8413 Z"/>
             <path fill="rgb(135,135,135)" stroke="none" d="M 11142,8413 L 11318,8413 11318,8596 11142,8596 11142,8413 Z M 11147,8418 L 11313,8418 11313,8591 11147,8591 11147,8418 Z"/>
             <path fill="rgb(136,136,136)" stroke="none" d="M 11147,8418 L 11313,8418 11313,8591 11147,8591 11147,8418 Z M 11152,8423 L 11308,8423 11308,8586 11152,8586 11152,8423 Z"/>
             <path fill="rgb(137,137,137)" stroke="none" d="M 11152,8423 L 11308,8423 11308,8586 11152,8586 11152,8423 Z M 11157,8428 L 11303,8428 11303,8581 11157,8581 11157,8428 Z"/>
             <path fill="rgb(138,138,138)" stroke="none" d="M 11157,8428 L 11303,8428 11303,8581 11157,8581 11157,8428 Z M 11161,8433 L 11299,8433 11299,8576 11161,8576 11161,8433 Z"/>
             <path fill="rgb(139,139,139)" stroke="none" d="M 11161,8433 L 11299,8433 11299,8576 11161,8576 11161,8433 Z M 11166,8438 L 11294,8438 11294,8571 11166,8571 11166,8438 Z"/>
             <path fill="rgb(140,140,140)" stroke="none" d="M 11166,8438 L 11294,8438 11294,8571 11166,8571 11166,8438 Z M 11171,8443 L 11289,8443 11289,8566 11171,8566 11171,8443 Z"/>
             <path fill="rgb(141,141,141)" stroke="none" d="M 11171,8443 L 11289,8443 11289,8566 11171,8566 11171,8443 Z M 11176,8449 L 11284,8449 11284,8560 11176,8560 11176,8449 Z"/>
             <path fill="rgb(142,142,142)" stroke="none" d="M 11176,8449 L 11284,8449 11284,8560 11176,8560 11176,8449 Z M 11181,8454 L 11279,8454 11279,8555 11181,8555 11181,8454 Z"/>
             <path fill="rgb(143,143,143)" stroke="none" d="M 11181,8454 L 11279,8454 11279,8555 11181,8555 11181,8454 Z M 11186,8459 L 11274,8459 11274,8550 11186,8550 11186,8459 Z"/>
             <path fill="rgb(144,144,144)" stroke="none" d="M 11186,8459 L 11274,8459 11274,8550 11186,8550 11186,8459 Z M 11191,8464 L 11269,8464 11269,8545 11191,8545 11191,8464 Z"/>
             <path fill="rgb(145,145,145)" stroke="none" d="M 11191,8464 L 11269,8464 11269,8545 11191,8545 11191,8464 Z M 11196,8469 L 11264,8469 11264,8540 11196,8540 11196,8469 Z"/>
             <path fill="rgb(146,146,146)" stroke="none" d="M 11196,8469 L 11264,8469 11264,8540 11196,8540 11196,8469 Z M 11201,8474 L 11259,8474 11259,8535 11201,8535 11201,8474 Z"/>
             <path fill="rgb(147,147,147)" stroke="none" d="M 11201,8474 L 11259,8474 11259,8535 11201,8535 11201,8474 Z M 11206,8479 L 11254,8479 11254,8530 11206,8530 11206,8479 Z"/>
             <path fill="rgb(148,148,148)" stroke="none" d="M 11206,8479 L 11254,8479 11254,8530 11206,8530 11206,8479 Z M 11211,8484 L 11249,8484 11249,8525 11211,8525 11211,8484 Z"/>
             <path fill="rgb(149,149,149)" stroke="none" d="M 11211,8484 L 11249,8484 11249,8525 11211,8525 11211,8484 Z M 11216,8490 L 11244,8490 11244,8519 11216,8519 11216,8490 Z"/>
             <path fill="rgb(150,150,150)" stroke="none" d="M 11216,8490 L 11244,8490 11244,8519 11216,8519 11216,8490 Z M 11221,8495 L 11239,8495 11239,8514 11221,8514 11221,8495 Z"/>
             <path fill="rgb(151,151,151)" stroke="none" d="M 11221,8495 L 11239,8495 11239,8514 11221,8514 11221,8495 Z M 11226,8500 L 11234,8500 11234,8509 11226,8509 11226,8500 Z"/>
             <path fill="rgb(153,153,153)" stroke="none" d="M 11226,8500 L 11234,8500 11234,8509 11226,8509 11226,8500 Z"/>
            </g>
           </pattern>
          </defs>
          <path style="fill:url(#pattern1)" d="M 10931,9236 L 10931,8772 11934,8192 11934,8656 10931,9236 Z"/>
         </g>
         <path fill="none" stroke="rgb(178,178,178)" stroke-width="40" stroke-linejoin="round" d="M 10931,9236 L 10931,8772 11934,8192 11934,8656 10931,9236 Z"/>
        </g>
       </g>
       <g class="com.sun.star.drawing.PolyPolygonShape">
        <g id="id6">
         <rect class="BoundingBox" stroke="none" fill="none" x="8704" y="6896" width="3252" height="1897"/>
         <g>
          <defs>
           <linearGradient id="gradient2" x1="10329" y1="6916" x2="10329" y2="8772" gradientUnits="userSpaceOnUse">
            <stop offset="0.1" style="stop-color:rgb(51,51,51)"/>
            <stop offset="1" style="stop-color:rgb(153,153,153)"/>
           </linearGradient>
          </defs>
          <path style="fill:url(#gradient2)" d="M 10931,8772 L 8724,7496 9727,6916 11935,8192 10931,8772 Z"/>
         </g>
         <path fill="none" stroke="rgb(178,178,178)" stroke-width="40" stroke-linejoin="round" d="M 10931,8772 L 8724,7496 9727,6916 11935,8192 10931,8772 Z"/>
        </g>
       </g>
       <g class="com.sun.star.drawing.PolyPolygonShape">
        <g id="id7">
         <rect class="BoundingBox" stroke="none" fill="none" x="10610" y="8694" width="242" height="389"/>
         <path fill="rgb(57,181,74)" stroke="none" d="M 10630,8946 L 10630,8714 10831,8830 10831,9062 10630,8946 Z"/>
         <path fill="none" stroke="rgb(102,102,102)" stroke-width="40" stroke-linejoin="round" d="M 10630,8946 L 10630,8714 10831,8830 10831,9062 10630,8946 Z"/>
        </g>
       </g>
       <g class="com.sun.star.drawing.PolyPolygonShape">
        <g id="id8">
         <rect class="BoundingBox" stroke="none" fill="none" x="8704" y="6896" width="3252" height="2361"/>
         <path fill="none" stroke="rgb(0,0,0)" stroke-width="40" stroke-linejoin="round" d="M 8724,7960 L 8724,7496 9727,6916 11935,8192 11935,8656 10931,9236 8724,7960 Z"/>
        </g>
       </g>
       <g class="com.sun.star.drawing.PolyPolygonShape">
        <g id="id9">
         <rect class="BoundingBox" stroke="none" fill="none" x="8905" y="7766" width="141" height="215"/>
         <path fill="rgb(0,0,0)" stroke="none" d="M 8925,7902 L 8925,7786 9025,7844 9025,7960 8925,7902 Z"/>
         <path fill="none" stroke="rgb(178,178,178)" stroke-width="40" stroke-linejoin="round" d="M 8925,7902 L 8925,7786 9025,7844 9025,7960 8925,7902 Z"/>
        </g>
       </g>
       <g class="com.sun.star.drawing.PolyPolygonShape">
        <g id="id10">
         <rect class="BoundingBox" stroke="none" fill="none" x="9105" y="7882" width="141" height="215"/>
         <path fill="rgb(0,0,0)" stroke="none" d="M 9125,8018 L 9125,7902 9225,7960 9225,8076 9125,8018 Z"/>
         <path fill="none" stroke="rgb(178,178,178)" stroke-width="40" stroke-linejoin="round" d="M 9125,8018 L 9125,7902 9225,7960 9225,8076 9125,8018 Z"/>
        </g>
       </g>
       <g class="com.sun.star.drawing.PolyPolygonShape">
        <g id="id11">
         <rect class="BoundingBox" stroke="none" fill="none" x="9306" y="7998" width="141" height="215"/>
         <path fill="rgb(0,0,0)" stroke="none" d="M 9326,8134 L 9326,8018 9426,8076 9426,8192 9326,8134 Z"/>
         <path fill="none" stroke="rgb(178,178,178)" stroke-width="40" stroke-linejoin="round" d="M 9326,8134 L 9326,8018 9426,8076 9426,8192 9326,8134 Z"/>
        </g>
       </g>
       <g class="com.sun.star.drawing.PolyPolygonShape">
        <g id="id12">
         <rect class="BoundingBox" stroke="none" fill="none" x="9507" y="8114" width="141" height="215"/>
         <path fill="rgb(0,0,0)" stroke="none" d="M 9527,8250 L 9527,8134 9627,8192 9627,8308 9527,8250 Z"/>
         <path fill="none" stroke="rgb(178,178,178)" stroke-width="40" stroke-linejoin="round" d="M 9527,8250 L 9527,8134 9627,8192 9627,8308 9527,8250 Z"/>
        </g>
       </g>
       <g class="com.sun.star.drawing.PolyPolygonShape">
        <g id="id13">
         <rect class="BoundingBox" stroke="none" fill="none" x="9707" y="8230" width="141" height="215"/>
         <path fill="rgb(0,0,0)" stroke="none" d="M 9727,8366 L 9727,8250 9827,8308 9827,8424 9727,8366 Z"/>
         <path fill="none" stroke="rgb(178,178,178)" stroke-width="40" stroke-linejoin="round" d="M 9727,8366 L 9727,8250 9827,8308 9827,8424 9727,8366 Z"/>
        </g>
       </g>
       <g class="com.sun.star.drawing.PolyPolygonShape">
        <g id="id14">
         <rect class="BoundingBox" stroke="none" fill="none" x="9908" y="8346" width="141" height="215"/>
         <path fill="rgb(0,0,0)" stroke="none" d="M 9928,8482 L 9928,8366 10028,8424 10028,8540 9928,8482 Z"/>
         <path fill="none" stroke="rgb(178,178,178)" stroke-width="40" stroke-linejoin="round" d="M 9928,8482 L 9928,8366 10028,8424 10028,8540 9928,8482 Z"/>
        </g>
       </g>
       <g class="com.sun.star.drawing.PolyPolygonShape">
        <g id="id15">
         <rect class="BoundingBox" stroke="none" fill="none" x="10109" y="8462" width="141" height="215"/>
         <path fill="rgb(0,0,0)" stroke="none" d="M 10129,8598 L 10129,8482 10229,8540 10229,8656 10129,8598 Z"/>
         <path fill="none" stroke="rgb(178,178,178)" stroke-width="40" stroke-linejoin="round" d="M 10129,8598 L 10129,8482 10229,8540 10229,8656 10129,8598 Z"/>
        </g>
       </g>
       <g class="com.sun.star.drawing.PolyPolygonShape">
        <g id="id16">
         <rect class="BoundingBox" stroke="none" fill="none" x="10309" y="8578" width="141" height="215"/>
         <path fill="rgb(0,0,0)" stroke="none" d="M 10329,8714 L 10329,8598 10429,8656 10429,8772 10329,8714 Z"/>
         <path fill="none" stroke="rgb(178,178,178)" stroke-width="40" stroke-linejoin="round" d="M 10329,8714 L 10329,8598 10429,8656 10429,8772 10329,8714 Z"/>
        </g>
       </g>
      </g>
     </g>
    </g>
   </g>
  </g>
 </g>
</svg>