<?xml version="1.0" encoding="UTF-8"?>
<!DOCTYPE svg PUBLIC "-//W3C//DTD SVG 1.1//EN" "http://www.w3.org/Graphics/SVG/1.1/DTD/svg11.dtd">
<svg version="1.2" width="13.65mm" height="17.5mm" viewBox="6201 7480 1365 1750" preserveAspectRatio="xMidYMid" fill-rule="evenodd" stroke-width="28.222" stroke-linejoin="round" xmlns="http://www.w3.org/2000/svg" xmlns:ooo="http://xml.openoffice.org/svg/export" xmlns:xlink="http://www.w3.org/1999/xlink" xmlns:presentation="http://sun.com/xmlns/staroffice/presentation" xmlns:smil="http://www.w3.org/2001/SMIL20/" xmlns:anim="urn:oasis:names:tc:opendocument:xmlns:animation:1.0" xml:space="preserve">
 <defs class="ClipPathGroup">
  <clipPath id="presentation_clip_path" clipPathUnits="userSpaceOnUse">
   <rect x="6201" y="7480" width="1365" height="1750"/>
  </clipPath>
 </defs>
 <defs class="TextShapeIndex">
  <g ooo:slide="id1" ooo:id-list="id3 id4 id5 id6 id7"/>
 </defs>
 <defs class="EmbeddedBulletChars">
  <g id="bullet-char-template(57356)" transform="scale(0.00048828125,-0.00048828125)">
   <path d="M 580,1141 L 1163,571 580,0 -4,571 580,1141 Z"/>
  </g>
  <g id="bullet-char-template(57354)" transform="scale(0.00048828125,-0.00048828125)">
   <path d="M 8,1128 L 1137,1128 1137,0 8,0 8,1128 Z"/>
  </g>
  <g id="bullet-char-template(10146)" transform="scale(0.00048828125,-0.00048828125)">
   <path d="M 174,0 L 602,739 174,1481 1456,739 174,0 Z M 1358,739 L 309,1346 659,739 1358,739 Z"/>
  </g>
  <g id="bullet-char-template(10132)" transform="scale(0.00048828125,-0.00048828125)">
   <path d="M 2015,739 L 1276,0 717,0 1260,543 174,543 174,936 1260,936 717,1481 1274,1481 2015,739 Z"/>
  </g>
  <g id="bullet-char-template(10007)" transform="scale(0.00048828125,-0.00048828125)">
   <path d="M 0,-2 C -7,14 -16,27 -25,37 L 356,567 C 262,823 215,952 215,954 215,979 228,992 255,992 264,992 276,990 289,987 310,991 331,999 354,1012 L 381,999 492,748 772,1049 836,1024 860,1049 C 881,1039 901,1025 922,1006 886,937 835,863 770,784 769,783 710,716 594,584 L 774,223 C 774,196 753,168 711,139 L 727,119 C 717,90 699,76 672,76 641,76 570,178 457,381 L 164,-76 C 142,-110 111,-127 72,-127 30,-127 9,-110 8,-76 1,-67 -2,-52 -2,-32 -2,-23 -1,-13 0,-2 Z"/>
  </g>
  <g id="bullet-char-template(10004)" transform="scale(0.00048828125,-0.00048828125)">
   <path d="M 285,-33 C 182,-33 111,30 74,156 52,228 41,333 41,471 41,549 55,616 82,672 116,743 169,778 240,778 293,778 328,747 346,684 L 369,508 C 377,444 397,411 428,410 L 1163,1116 C 1174,1127 1196,1133 1229,1133 1271,1133 1292,1118 1292,1087 L 1292,965 C 1292,929 1282,901 1262,881 L 442,47 C 390,-6 338,-33 285,-33 Z"/>
  </g>
  <g id="bullet-char-template(9679)" transform="scale(0.00048828125,-0.00048828125)">
   <path d="M 813,0 C 632,0 489,54 383,161 276,268 223,411 223,592 223,773 276,916 383,1023 489,1130 632,1184 813,1184 992,1184 1136,1130 1245,1023 1353,916 1407,772 1407,592 1407,412 1353,268 1245,161 1136,54 992,0 813,0 Z"/>
  </g>
  <g id="bullet-char-template(8226)" transform="scale(0.00048828125,-0.00048828125)">
   <path d="M 346,457 C 273,457 209,483 155,535 101,586 74,649 74,723 74,796 101,859 155,911 209,963 273,989 346,989 419,989 480,963 531,910 582,859 608,796 608,723 608,648 583,586 532,535 482,483 420,457 346,457 Z"/>
  </g>
  <g id="bullet-char-template(8211)" transform="scale(0.00048828125,-0.00048828125)">
   <path d="M -4,459 L 1135,459 1135,606 -4,606 -4,459 Z"/>
  </g>
 </defs>
 <defs class="TextEmbeddedBitmaps"/>
 <g class="SlideGroup">
  <g>
   <g id="id1" class="Slide" clip-path="url(#presentation_clip_path)">
    <g class="Page">
     <g class="Group">
      <g class="com.sun.star.drawing.ClosedBezierShape">
       <g id="id3">
        <rect class="BoundingBox" stroke="none" fill="none" x="6892" y="8820" width="675" height="392"/>
        <path fill="rgb(221,221,221)" stroke="none" d="M 6893,9210 C 7262,9210 7565,9054 7565,8976 7565,8899 7565,8821 7296,8821 7296,9054 6893,8898 6893,9210 Z"/>
        <path fill="none" stroke="rgb(221,221,221)" d="M 6893,9210 C 7262,9210 7565,9054 7565,8976 7565,8899 7565,8821 7296,8821 7296,9054 6893,8898 6893,9210 Z"/>
       </g>
      </g>
      <g class="Group">
       <g class="com.sun.star.drawing.PolyPolygonShape">
        <g id="id4">
         <rect class="BoundingBox" stroke="none" fill="none" x="6873" y="7869" width="444" height="1362"/>
         <g>
          <defs>
           <pattern id="pattern1" x="6893" y="7889" width="404" height="1322" patternUnits="userSpaceOnUse">
            <g transform="translate(-6893,-7889)">
             <path fill="rgb(51,51,51)" stroke="none" d="M 6892,7888 L 7297,7888 7297,9211 6892,9211 6892,7888 Z M 6812,7630 L 7213,7630 7213,8939 6812,8939 6812,7630 Z"/>
             <path fill="rgb(52,52,52)" stroke="none" d="M 6812,7630 L 7213,7630 7213,8939 6812,8939 6812,7630 Z M 6814,7636 L 7211,7636 7211,8933 6814,8933 6814,7636 Z"/>
             <path fill="rgb(53,53,53)" stroke="none" d="M 6814,7636 L 7211,7636 7211,8933 6814,8933 6814,7636 Z M 6816,7643 L 7209,7643 7209,8926 6816,8926 6816,7643 Z"/>
             <path fill="rgb(54,54,54)" stroke="none" d="M 6816,7643 L 7209,7643 7209,8926 6816,8926 6816,7643 Z M 6818,7649 L 7207,7649 7207,8920 6818,8920 6818,7649 Z"/>
             <path fill="rgb(55,55,55)" stroke="none" d="M 6818,7649 L 7207,7649 7207,8920 6818,8920 6818,7649 Z M 6820,7656 L 7205,7656 7205,8913 6820,8913 6820,7656 Z"/>
             <path fill="rgb(56,56,56)" stroke="none" d="M 6820,7656 L 7205,7656 7205,8913 6820,8913 6820,7656 Z M 6822,7662 L 7203,7662 7203,8907 6822,8907 6822,7662 Z"/>
             <path fill="rgb(57,57,57)" stroke="none" d="M 6822,7662 L 7203,7662 7203,8907 6822,8907 6822,7662 Z M 6824,7669 L 7201,7669 7201,8900 6824,8900 6824,7669 Z"/>
             <path fill="rgb(58,58,58)" stroke="none" d="M 6824,7669 L 7201,7669 7201,8900 6824,8900 6824,7669 Z M 6826,7675 L 7199,7675 7199,8894 6826,8894 6826,7675 Z"/>
             <path fill="rgb(59,59,59)" stroke="none" d="M 6826,7675 L 7199,7675 7199,8894 6826,8894 6826,7675 Z M 6828,7682 L 7197,7682 7197,8887 6828,8887 6828,7682 Z"/>
             <path fill="rgb(60,60,60)" stroke="none" d="M 6828,7682 L 7197,7682 7197,8887 6828,8887 6828,7682 Z M 6830,7688 L 7195,7688 7195,8881 6830,8881 6830,7688 Z"/>
             <path fill="rgb(61,61,61)" stroke="none" d="M 6830,7688 L 7195,7688 7195,8881 6830,8881 6830,7688 Z M 6832,7695 L 7193,7695 7193,8874 6832,8874 6832,7695 Z"/>
             <path fill="rgb(62,62,62)" stroke="none" d="M 6832,7695 L 7193,7695 7193,8874 6832,8874 6832,7695 Z M 6834,7701 L 7191,7701 7191,8868 6834,8868 6834,7701 Z"/>
             <path fill="rgb(63,63,63)" stroke="none" d="M 6834,7701 L 7191,7701 7191,8868 6834,8868 6834,7701 Z M 6836,7708 L 7189,7708 7189,8861 6836,8861 6836,7708 Z"/>
             <path fill="rgb(64,64,64)" stroke="none" d="M 6836,7708 L 7189,7708 7189,8861 6836,8861 6836,7708 Z M 6838,7714 L 7187,7714 7187,8855 6838,8855 6838,7714 Z"/>
             <path fill="rgb(65,65,65)" stroke="none" d="M 6838,7714 L 7187,7714 7187,8855 6838,8855 6838,7714 Z M 6840,7721 L 7185,7721 7185,8848 6840,8848 6840,7721 Z"/>
             <path fill="rgb(66,66,66)" stroke="none" d="M 6840,7721 L 7185,7721 7185,8848 6840,8848 6840,7721 Z M 6842,7727 L 7183,7727 7183,8842 6842,8842 6842,7727 Z"/>
             <path fill="rgb(67,67,67)" stroke="none" d="M 6842,7727 L 7183,7727 7183,8842 6842,8842 6842,7727 Z M 6844,7734 L 7181,7734 7181,8835 6844,8835 6844,7734 Z"/>
             <path fill="rgb(68,68,68)" stroke="none" d="M 6844,7734 L 7181,7734 7181,8835 6844,8835 6844,7734 Z M 6846,7740 L 7179,7740 7179,8829 6846,8829 6846,7740 Z"/>
             <path fill="rgb(69,69,69)" stroke="none" d="M 6846,7740 L 7179,7740 7179,8829 6846,8829 6846,7740 Z M 6848,7747 L 7177,7747 7177,8822 6848,8822 6848,7747 Z"/>
             <path fill="rgb(70,70,70)" stroke="none" d="M 6848,7747 L 7177,7747 7177,8822 6848,8822 6848,7747 Z M 6850,7753 L 7175,7753 7175,8816 6850,8816 6850,7753 Z"/>
             <path fill="rgb(71,71,71)" stroke="none" d="M 6850,7753 L 7175,7753 7175,8816 6850,8816 6850,7753 Z M 6852,7760 L 7173,7760 7173,8809 6852,8809 6852,7760 Z"/>
             <path fill="rgb(72,72,72)" stroke="none" d="M 6852,7760 L 7173,7760 7173,8809 6852,8809 6852,7760 Z M 6854,7766 L 7171,7766 7171,8803 6854,8803 6854,7766 Z"/>
             <path fill="rgb(73,73,73)" stroke="none" d="M 6854,7766 L 7171,7766 7171,8803 6854,8803 6854,7766 Z M 6856,7773 L 7169,7773 7169,8796 6856,8796 6856,7773 Z"/>
             <path fill="rgb(74,74,74)" stroke="none" d="M 6856,7773 L 7169,7773 7169,8796 6856,8796 6856,7773 Z M 6858,7779 L 7167,7779 7167,8790 6858,8790 6858,7779 Z"/>
             <path fill="rgb(75,75,75)" stroke="none" d="M 6858,7779 L 7167,7779 7167,8790 6858,8790 6858,7779 Z M 6860,7786 L 7165,7786 7165,8783 6860,8783 6860,7786 Z"/>
             <path fill="rgb(76,76,76)" stroke="none" d="M 6860,7786 L 7165,7786 7165,8783 6860,8783 6860,7786 Z M 6862,7792 L 7163,7792 7163,8777 6862,8777 6862,7792 Z"/>
             <path fill="rgb(77,77,77)" stroke="none" d="M 6862,7792 L 7163,7792 7163,8777 6862,8777 6862,7792 Z M 6864,7799 L 7161,7799 7161,8770 6864,8770 6864,7799 Z"/>
             <path fill="rgb(78,78,78)" stroke="none" d="M 6864,7799 L 7161,7799 7161,8770 6864,8770 6864,7799 Z M 6866,7805 L 7159,7805 7159,8764 6866,8764 6866,7805 Z"/>
             <path fill="rgb(79,79,79)" stroke="none" d="M 6866,7805 L 7159,7805 7159,8764 6866,8764 6866,7805 Z M 6868,7812 L 7157,7812 7157,8757 6868,8757 6868,7812 Z"/>
             <path fill="rgb(80,80,80)" stroke="none" d="M 6868,7812 L 7157,7812 7157,8757 6868,8757 6868,7812 Z M 6870,7818 L 7155,7818 7155,8751 6870,8751 6870,7818 Z"/>
             <path fill="rgb(81,81,81)" stroke="none" d="M 6870,7818 L 7155,7818 7155,8751 6870,8751 6870,7818 Z M 6872,7825 L 7153,7825 7153,8744 6872,8744 6872,7825 Z"/>
             <path fill="rgb(82,82,82)" stroke="none" d="M 6872,7825 L 7153,7825 7153,8744 6872,8744 6872,7825 Z M 6873,7831 L 7151,7831 7151,8738 6873,8738 6873,7831 Z"/>
             <path fill="rgb(83,83,83)" stroke="none" d="M 6873,7831 L 7151,7831 7151,8738 6873,8738 6873,7831 Z M 6875,7838 L 7149,7838 7149,8731 6875,8731 6875,7838 Z"/>
             <path fill="rgb(84,84,84)" stroke="none" d="M 6875,7838 L 7149,7838 7149,8731 6875,8731 6875,7838 Z M 6877,7844 L 7147,7844 7147,8725 6877,8725 6877,7844 Z"/>
             <path fill="rgb(85,85,85)" stroke="none" d="M 6877,7844 L 7147,7844 7147,8725 6877,8725 6877,7844 Z M 6879,7851 L 7145,7851 7145,8718 6879,8718 6879,7851 Z"/>
             <path fill="rgb(86,86,86)" stroke="none" d="M 6879,7851 L 7145,7851 7145,8718 6879,8718 6879,7851 Z M 6881,7857 L 7143,7857 7143,8712 6881,8712 6881,7857 Z"/>
             <path fill="rgb(87,87,87)" stroke="none" d="M 6881,7857 L 7143,7857 7143,8712 6881,8712 6881,7857 Z M 6883,7864 L 7141,7864 7141,8705 6883,8705 6883,7864 Z"/>
             <path fill="rgb(88,88,88)" stroke="none" d="M 6883,7864 L 7141,7864 7141,8705 6883,8705 6883,7864 Z M 6885,7869 L 7139,7869 7139,8699 6885,8699 6885,7869 Z"/>
             <path fill="rgb(89,89,89)" stroke="none" d="M 6885,7869 L 7139,7869 7139,8699 6885,8699 6885,7869 Z M 6887,7876 L 7137,7876 7137,8692 6887,8692 6887,7876 Z"/>
             <path fill="rgb(90,90,90)" stroke="none" d="M 6887,7876 L 7137,7876 7137,8692 6887,8692 6887,7876 Z M 6889,7882 L 7135,7882 7135,8686 6889,8686 6889,7882 Z"/>
             <path fill="rgb(91,91,91)" stroke="none" d="M 6889,7882 L 7135,7882 7135,8686 6889,8686 6889,7882 Z M 6891,7889 L 7133,7889 7133,8679 6891,8679 6891,7889 Z"/>
             <path fill="rgb(92,92,92)" stroke="none" d="M 6891,7889 L 7133,7889 7133,8679 6891,8679 6891,7889 Z M 6893,7895 L 7131,7895 7131,8673 6893,8673 6893,7895 Z"/>
             <path fill="rgb(93,93,93)" stroke="none" d="M 6893,7895 L 7131,7895 7131,8673 6893,8673 6893,7895 Z M 6895,7902 L 7129,7902 7129,8666 6895,8666 6895,7902 Z"/>
             <path fill="rgb(94,94,94)" stroke="none" d="M 6895,7902 L 7129,7902 7129,8666 6895,8666 6895,7902 Z M 6897,7908 L 7127,7908 7127,8660 6897,8660 6897,7908 Z"/>
             <path fill="rgb(95,95,95)" stroke="none" d="M 6897,7908 L 7127,7908 7127,8660 6897,8660 6897,7908 Z M 6899,7915 L 7125,7915 7125,8653 6899,8653 6899,7915 Z"/>
             <path fill="rgb(96,96,96)" stroke="none" d="M 6899,7915 L 7125,7915 7125,8653 6899,8653 6899,7915 Z M 6901,7921 L 7123,7921 7123,8647 6901,8647 6901,7921 Z"/>
             <path fill="rgb(97,97,97)" stroke="none" d="M 6901,7921 L 7123,7921 7123,8647 6901,8647 6901,7921 Z M 6903,7928 L 7121,7928 7121,8640 6903,8640 6903,7928 Z"/>
             <path fill="rgb(98,98,98)" stroke="none" d="M 6903,7928 L 7121,7928 7121,8640 6903,8640 6903,7928 Z M 6905,7934 L 7119,7934 7119,8634 6905,8634 6905,7934 Z"/>
             <path fill="rgb(99,99,99)" stroke="none" d="M 6905,7934 L 7119,7934 7119,8634 6905,8634 6905,7934 Z M 6907,7941 L 7117,7941 7117,8627 6907,8627 6907,7941 Z"/>
             <path fill="rgb(100,100,100)" stroke="none" d="M 6907,7941 L 7117,7941 7117,8627 6907,8627 6907,7941 Z M 6909,7947 L 7115,7947 7115,8621 6909,8621 6909,7947 Z"/>
             <path fill="rgb(101,101,101)" stroke="none" d="M 6909,7947 L 7115,7947 7115,8621 6909,8621 6909,7947 Z M 6911,7954 L 7113,7954 7113,8614 6911,8614 6911,7954 Z"/>
             <path fill="rgb(102,102,102)" stroke="none" d="M 6911,7954 L 7113,7954 7113,8614 6911,8614 6911,7954 Z M 6913,7960 L 7111,7960 7111,8608 6913,8608 6913,7960 Z"/>
             <path fill="rgb(103,103,103)" stroke="none" d="M 6913,7960 L 7111,7960 7111,8608 6913,8608 6913,7960 Z M 6915,7966 L 7109,7966 7109,8602 6915,8602 6915,7966 Z"/>
             <path fill="rgb(104,104,104)" stroke="none" d="M 6915,7966 L 7109,7966 7109,8602 6915,8602 6915,7966 Z M 6917,7973 L 7107,7973 7107,8595 6917,8595 6917,7973 Z"/>
             <path fill="rgb(105,105,105)" stroke="none" d="M 6917,7973 L 7107,7973 7107,8595 6917,8595 6917,7973 Z M 6919,7979 L 7105,7979 7105,8589 6919,8589 6919,7979 Z"/>
             <path fill="rgb(106,106,106)" stroke="none" d="M 6919,7979 L 7105,7979 7105,8589 6919,8589 6919,7979 Z M 6921,7986 L 7103,7986 7103,8582 6921,8582 6921,7986 Z"/>
             <path fill="rgb(107,107,107)" stroke="none" d="M 6921,7986 L 7103,7986 7103,8582 6921,8582 6921,7986 Z M 6923,7992 L 7101,7992 7101,8576 6923,8576 6923,7992 Z"/>
             <path fill="rgb(108,108,108)" stroke="none" d="M 6923,7992 L 7101,7992 7101,8576 6923,8576 6923,7992 Z M 6925,7999 L 7099,7999 7099,8569 6925,8569 6925,7999 Z"/>
             <path fill="rgb(109,109,109)" stroke="none" d="M 6925,7999 L 7099,7999 7099,8569 6925,8569 6925,7999 Z M 6927,8005 L 7097,8005 7097,8563 6927,8563 6927,8005 Z"/>
             <path fill="rgb(110,110,110)" stroke="none" d="M 6927,8005 L 7097,8005 7097,8563 6927,8563 6927,8005 Z M 6929,8012 L 7095,8012 7095,8556 6929,8556 6929,8012 Z"/>
             <path fill="rgb(111,111,111)" stroke="none" d="M 6929,8012 L 7095,8012 7095,8556 6929,8556 6929,8012 Z M 6931,8018 L 7093,8018 7093,8550 6931,8550 6931,8018 Z"/>
             <path fill="rgb(112,112,112)" stroke="none" d="M 6931,8018 L 7093,8018 7093,8550 6931,8550 6931,8018 Z M 6933,8025 L 7091,8025 7091,8543 6933,8543 6933,8025 Z"/>
             <path fill="rgb(113,113,113)" stroke="none" d="M 6933,8025 L 7091,8025 7091,8543 6933,8543 6933,8025 Z M 6935,8031 L 7089,8031 7089,8537 6935,8537 6935,8031 Z"/>
             <path fill="rgb(114,114,114)" stroke="none" d="M 6935,8031 L 7089,8031 7089,8537 6935,8537 6935,8031 Z M 6937,8038 L 7087,8038 7087,8530 6937,8530 6937,8038 Z"/>
             <path fill="rgb(115,115,115)" stroke="none" d="M 6937,8038 L 7087,8038 7087,8530 6937,8530 6937,8038 Z M 6939,8044 L 7085,8044 7085,8524 6939,8524 6939,8044 Z"/>
             <path fill="rgb(116,116,116)" stroke="none" d="M 6939,8044 L 7085,8044 7085,8524 6939,8524 6939,8044 Z M 6941,8051 L 7083,8051 7083,8517 6941,8517 6941,8051 Z"/>
             <path fill="rgb(117,117,117)" stroke="none" d="M 6941,8051 L 7083,8051 7083,8517 6941,8517 6941,8051 Z M 6943,8057 L 7081,8057 7081,8511 6943,8511 6943,8057 Z"/>
             <path fill="rgb(118,118,118)" stroke="none" d="M 6943,8057 L 7081,8057 7081,8511 6943,8511 6943,8057 Z M 6945,8064 L 7079,8064 7079,8504 6945,8504 6945,8064 Z"/>
             <path fill="rgb(119,119,119)" stroke="none" d="M 6945,8064 L 7079,8064 7079,8504 6945,8504 6945,8064 Z M 6947,8070 L 7077,8070 7077,8498 6947,8498 6947,8070 Z"/>
             <path fill="rgb(120,120,120)" stroke="none" d="M 6947,8070 L 7077,8070 7077,8498 6947,8498 6947,8070 Z M 6949,8077 L 7075,8077 7075,8491 6949,8491 6949,8077 Z"/>
             <path fill="rgb(121,121,121)" stroke="none" d="M 6949,8077 L 7075,8077 7075,8491 6949,8491 6949,8077 Z M 6951,8083 L 7073,8083 7073,8485 6951,8485 6951,8083 Z"/>
             <path fill="rgb(122,122,122)" stroke="none" d="M 6951,8083 L 7073,8083 7073,8485 6951,8485 6951,8083 Z M 6953,8090 L 7071,8090 7071,8478 6953,8478 6953,8090 Z"/>
             <path fill="rgb(123,123,123)" stroke="none" d="M 6953,8090 L 7071,8090 7071,8478 6953,8478 6953,8090 Z M 6955,8096 L 7069,8096 7069,8472 6955,8472 6955,8096 Z"/>
             <path fill="rgb(124,124,124)" stroke="none" d="M 6955,8096 L 7069,8096 7069,8472 6955,8472 6955,8096 Z M 6957,8103 L 7067,8103 7067,8465 6957,8465 6957,8103 Z"/>
             <path fill="rgb(125,125,125)" stroke="none" d="M 6957,8103 L 7067,8103 7067,8465 6957,8465 6957,8103 Z M 6959,8109 L 7065,8109 7065,8459 6959,8459 6959,8109 Z"/>
             <path fill="rgb(126,126,126)" stroke="none" d="M 6959,8109 L 7065,8109 7065,8459 6959,8459 6959,8109 Z M 6961,8116 L 7063,8116 7063,8452 6961,8452 6961,8116 Z"/>
             <path fill="rgb(127,127,127)" stroke="none" d="M 6961,8116 L 7063,8116 7063,8452 6961,8452 6961,8116 Z M 6963,8122 L 7061,8122 7061,8446 6963,8446 6963,8122 Z"/>
             <path fill="rgb(128,128,128)" stroke="none" d="M 6963,8122 L 7061,8122 7061,8446 6963,8446 6963,8122 Z M 6965,8129 L 7059,8129 7059,8439 6965,8439 6965,8129 Z"/>
             <path fill="rgb(129,129,129)" stroke="none" d="M 6965,8129 L 7059,8129 7059,8439 6965,8439 6965,8129 Z M 6967,8135 L 7057,8135 7057,8433 6967,8433 6967,8135 Z"/>
             <path fill="rgb(130,130,130)" stroke="none" d="M 6967,8135 L 7057,8135 7057,8433 6967,8433 6967,8135 Z M 6969,8142 L 7055,8142 7055,8426 6969,8426 6969,8142 Z"/>
             <path fill="rgb(131,131,131)" stroke="none" d="M 6969,8142 L 7055,8142 7055,8426 6969,8426 6969,8142 Z M 6971,8148 L 7053,8148 7053,8420 6971,8420 6971,8148 Z"/>
             <path fill="rgb(132,132,132)" stroke="none" d="M 6971,8148 L 7053,8148 7053,8420 6971,8420 6971,8148 Z M 6973,8155 L 7051,8155 7051,8413 6973,8413 6973,8155 Z"/>
             <path fill="rgb(133,133,133)" stroke="none" d="M 6973,8155 L 7051,8155 7051,8413 6973,8413 6973,8155 Z M 6975,8161 L 7049,8161 7049,8407 6975,8407 6975,8161 Z"/>
             <path fill="rgb(134,134,134)" stroke="none" d="M 6975,8161 L 7049,8161 7049,8407 6975,8407 6975,8161 Z M 6977,8168 L 7047,8168 7047,8400 6977,8400 6977,8168 Z"/>
             <path fill="rgb(135,135,135)" stroke="none" d="M 6977,8168 L 7047,8168 7047,8400 6977,8400 6977,8168 Z M 6979,8174 L 7045,8174 7045,8394 6979,8394 6979,8174 Z"/>
             <path fill="rgb(136,136,136)" stroke="none" d="M 6979,8174 L 7045,8174 7045,8394 6979,8394 6979,8174 Z M 6981,8181 L 7043,8181 7043,8387 6981,8387 6981,8181 Z"/>
             <path fill="rgb(137,137,137)" stroke="none" d="M 6981,8181 L 7043,8181 7043,8387 6981,8387 6981,8181 Z M 6983,8187 L 7041,8187 7041,8381 6983,8381 6983,8187 Z"/>
             <path fill="rgb(138,138,138)" stroke="none" d="M 6983,8187 L 7041,8187 7041,8381 6983,8381 6983,8187 Z M 6985,8194 L 7039,8194 7039,8374 6985,8374 6985,8194 Z"/>
             <path fill="rgb(139,139,139)" stroke="none" d="M 6985,8194 L 7039,8194 7039,8374 6985,8374 6985,8194 Z M 6987,8200 L 7037,8200 7037,8368 6987,8368 6987,8200 Z"/>
             <path fill="rgb(140,140,140)" stroke="none" d="M 6987,8200 L 7037,8200 7037,8368 6987,8368 6987,8200 Z M 6989,8207 L 7035,8207 7035,8361 6989,8361 6989,8207 Z"/>
             <path fill="rgb(141,141,141)" stroke="none" d="M 6989,8207 L 7035,8207 7035,8361 6989,8361 6989,8207 Z M 6991,8213 L 7033,8213 7033,8355 6991,8355 6991,8213 Z"/>
             <path fill="rgb(142,142,142)" stroke="none" d="M 6991,8213 L 7033,8213 7033,8355 6991,8355 6991,8213 Z M 6993,8220 L 7031,8220 7031,8348 6993,8348 6993,8220 Z"/>
             <path fill="rgb(143,143,143)" stroke="none" d="M 6993,8220 L 7031,8220 7031,8348 6993,8348 6993,8220 Z M 6995,8226 L 7029,8226 7029,8342 6995,8342 6995,8226 Z"/>
             <path fill="rgb(144,144,144)" stroke="none" d="M 6995,8226 L 7029,8226 7029,8342 6995,8342 6995,8226 Z M 6997,8233 L 7027,8233 7027,8335 6997,8335 6997,8233 Z"/>
             <path fill="rgb(145,145,145)" stroke="none" d="M 6997,8233 L 7027,8233 7027,8335 6997,8335 6997,8233 Z M 6999,8239 L 7025,8239 7025,8329 6999,8329 6999,8239 Z"/>
             <path fill="rgb(146,146,146)" stroke="none" d="M 6999,8239 L 7025,8239 7025,8329 6999,8329 6999,8239 Z M 7001,8246 L 7023,8246 7023,8322 7001,8322 7001,8246 Z"/>
             <path fill="rgb(147,147,147)" stroke="none" d="M 7001,8246 L 7023,8246 7023,8322 7001,8322 7001,8246 Z M 7003,8252 L 7021,8252 7021,8316 7003,8316 7003,8252 Z"/>
             <path fill="rgb(148,148,148)" stroke="none" d="M 7003,8252 L 7021,8252 7021,8316 7003,8316 7003,8252 Z M 7005,8259 L 7019,8259 7019,8309 7005,8309 7005,8259 Z"/>
             <path fill="rgb(149,149,149)" stroke="none" d="M 7005,8259 L 7019,8259 7019,8309 7005,8309 7005,8259 Z M 7007,8265 L 7017,8265 7017,8303 7007,8303 7007,8265 Z"/>
             <path fill="rgb(150,150,150)" stroke="none" d="M 7007,8265 L 7017,8265 7017,8303 7007,8303 7007,8265 Z M 7009,8272 L 7015,8272 7015,8296 7009,8296 7009,8272 Z"/>
             <path fill="rgb(151,151,151)" stroke="none" d="M 7009,8272 L 7015,8272 7015,8296 7009,8296 7009,8272 Z M 7011,8278 L 7013,8278 7013,8290 7011,8290 7011,8278 Z"/>
             <path fill="rgb(153,153,153)" stroke="none" d="M 7011,8278 L 7013,8278 7013,8290 7011,8290 7011,8278 Z"/>
            </g>
           </pattern>
          </defs>
          <path style="fill:url(#pattern1)" d="M 6893,9210 L 6893,8122 7296,7889 7296,8977 6893,9210 Z"/>
         </g>
         <path fill="none" stroke="rgb(178,178,178)" stroke-width="40" stroke-linejoin="round" d="M 6893,9210 L 6893,8122 7296,7889 7296,8977 6893,9210 Z"/>
        </g>
       </g>
       <g class="com.sun.star.drawing.PolyPolygonShape">
        <g id="id5">
         <rect class="BoundingBox" stroke="none" fill="none" x="6201" y="7479" width="1117" height="664"/>
         <g>
          <defs>
           <linearGradient id="gradient1" x1="6759" y1="7500" x2="6759" y2="8122" gradientUnits="userSpaceOnUse">
            <stop offset="0.1" style="stop-color:rgb(51,51,51)"/>
            <stop offset="1" style="stop-color:rgb(153,153,153)"/>
           </linearGradient>
          </defs>
          <path style="fill:url(#gradient1)" d="M 6893,8122 L 6221,7733 6624,7500 7297,7889 6893,8122 Z"/>
         </g>
         <path fill="none" stroke="rgb(178,178,178)" stroke-width="40" stroke-linejoin="round" d="M 6893,8122 L 6221,7733 6624,7500 7297,7889 6893,8122 Z"/>
        </g>
       </g>
       <g class="com.sun.star.drawing.PolyPolygonShape">
        <g id="id6">
         <rect class="BoundingBox" stroke="none" fill="none" x="6201" y="7713" width="713" height="1518"/>
         <g>
          <defs>
           <linearGradient id="gradient2" x1="6220" y1="8471" x2="6895" y2="8471" gradientUnits="userSpaceOnUse">
            <stop offset="0.1" style="stop-color:rgb(51,51,51)"/>
            <stop offset="1" style="stop-color:rgb(153,153,153)"/>
           </linearGradient>
          </defs>
          <path style="fill:url(#gradient2)" d="M 6221,8821 L 6221,7733 6893,8122 6893,9210 6221,8821 Z"/>
         </g>
         <path fill="none" stroke="rgb(178,178,178)" stroke-width="40" stroke-linejoin="round" d="M 6221,8821 L 6221,7733 6893,8122 6893,9210 6221,8821 Z"/>
        </g>
       </g>
       <g class="com.sun.star.drawing.PolyPolygonShape">
        <g id="id7">
         <rect class="BoundingBox" stroke="none" fill="none" x="6201" y="7480" width="1117" height="1751"/>
         <path fill="none" stroke="rgb(0,0,0)" stroke-width="40" stroke-linejoin="round" d="M 6221,8821 L 6221,7733 6624,7500 7297,7889 7297,8977 6893,9210 6221,8821 Z"/>
        </g>
       </g>
      </g>
     </g>
    </g>
   </g>
  </g>
 </g>
</svg>