<?xml version="1.0" encoding="UTF-8"?>
<!DOCTYPE svg PUBLIC "-//W3C//DTD SVG 1.1//EN" "http://www.w3.org/Graphics/SVG/1.1/DTD/svg11.dtd">
<svg version="1.2" width="28.09mm" height="36.8mm" viewBox="3773 20962 2809 3680" preserveAspectRatio="xMidYMid" fill-rule="evenodd" stroke-width="28.222" stroke-linejoin="round" xmlns="http://www.w3.org/2000/svg" xmlns:ooo="http://xml.openoffice.org/svg/export" xmlns:xlink="http://www.w3.org/1999/xlink" xmlns:presentation="http://sun.com/xmlns/staroffice/presentation" xmlns:smil="http://www.w3.org/2001/SMIL20/" xmlns:anim="urn:oasis:names:tc:opendocument:xmlns:animation:1.0" xml:space="preserve">
 <defs class="ClipPathGroup">
  <clipPath id="presentation_clip_path" clipPathUnits="userSpaceOnUse">
   <rect x="3773" y="20962" width="2809" height="3680"/>
  </clipPath>
 </defs>
 <defs class="TextShapeIndex">
  <g ooo:slide="id1" ooo:id-list="id3 id4 id5 id6 id7 id8 id9 id10 id11 id12 id13 id14 id15 id16 id17"/>
 </defs>
 <defs class="EmbeddedBulletChars">
  <g id="bullet-char-template(57356)" transform="scale(0.00048828125,-0.00048828125)">
   <path d="M 580,1141 L 1163,571 580,0 -4,571 580,1141 Z"/>
  </g>
  <g id="bullet-char-template(57354)" transform="scale(0.00048828125,-0.00048828125)">
   <path d="M 8,1128 L 1137,1128 1137,0 8,0 8,1128 Z"/>
  </g>
  <g id="bullet-char-template(10146)" transform="scale(0.00048828125,-0.00048828125)">
   <path d="M 174,0 L 602,739 174,1481 1456,739 174,0 Z M 1358,739 L 309,1346 659,739 1358,739 Z"/>
  </g>
  <g id="bullet-char-template(10132)" transform="scale(0.00048828125,-0.00048828125)">
   <path d="M 2015,739 L 1276,0 717,0 1260,543 174,543 174,936 1260,936 717,1481 1274,1481 2015,739 Z"/>
  </g>
  <g id="bullet-char-template(10007)" transform="scale(0.00048828125,-0.00048828125)">
   <path d="M 0,-2 C -7,14 -16,27 -25,37 L 356,567 C 262,823 215,952 215,954 215,979 228,992 255,992 264,992 276,990 289,987 310,991 331,999 354,1012 L 381,999 492,748 772,1049 836,1024 860,1049 C 881,1039 901,1025 922,1006 886,937 835,863 770,784 769,783 710,716 594,584 L 774,223 C 774,196 753,168 711,139 L 727,119 C 717,90 699,76 672,76 641,76 570,178 457,381 L 164,-76 C 142,-110 111,-127 72,-127 30,-127 9,-110 8,-76 1,-67 -2,-52 -2,-32 -2,-23 -1,-13 0,-2 Z"/>
  </g>
  <g id="bullet-char-template(10004)" transform="scale(0.00048828125,-0.00048828125)">
   <path d="M 285,-33 C 182,-33 111,30 74,156 52,228 41,333 41,471 41,549 55,616 82,672 116,743 169,778 240,778 293,778 328,747 346,684 L 369,508 C 377,444 397,411 428,410 L 1163,1116 C 1174,1127 1196,1133 1229,1133 1271,1133 1292,1118 1292,1087 L 1292,965 C 1292,929 1282,901 1262,881 L 442,47 C 390,-6 338,-33 285,-33 Z"/>
  </g>
  <g id="bullet-char-template(9679)" transform="scale(0.00048828125,-0.00048828125)">
   <path d="M 813,0 C 632,0 489,54 383,161 276,268 223,411 223,592 223,773 276,916 383,1023 489,1130 632,1184 813,1184 992,1184 1136,1130 1245,1023 1353,916 1407,772 1407,592 1407,412 1353,268 1245,161 1136,54 992,0 813,0 Z"/>
  </g>
  <g id="bullet-char-template(8226)" transform="scale(0.00048828125,-0.00048828125)">
   <path d="M 346,457 C 273,457 209,483 155,535 101,586 74,649 74,723 74,796 101,859 155,911 209,963 273,989 346,989 419,989 480,963 531,910 582,859 608,796 608,723 608,648 583,586 532,535 482,483 420,457 346,457 Z"/>
  </g>
  <g id="bullet-char-template(8211)" transform="scale(0.00048828125,-0.00048828125)">
   <path d="M -4,459 L 1135,459 1135,606 -4,606 -4,459 Z"/>
  </g>
 </defs>
 <defs class="TextEmbeddedBitmaps"/>
 <g class="SlideGroup">
  <g>
   <g id="id1" class="Slide" clip-path="url(#presentation_clip_path)">
    <g class="Page">
     <g class="Group">
      <g class="com.sun.star.drawing.ClosedBezierShape">
       <g id="id3">
        <rect class="BoundingBox" stroke="none" fill="none" x="5247" y="23501" width="1336" height="843"/>
        <path fill="rgb(221,221,221)" stroke="none" d="M 5248,24342 C 5483,24342 6400,24014 6547,23898 6694,23782 6330,23502 6205,23502 6205,23650 5248,24094 5248,24342 Z"/>
        <path fill="none" stroke="rgb(221,221,221)" d="M 5248,24342 C 5483,24342 6400,24014 6547,23898 6694,23782 6330,23502 6205,23502 6205,23650 5248,24094 5248,24342 Z"/>
       </g>
      </g>
      <g class="Group">
       <g class="com.sun.star.drawing.PolyPolygonShape">
        <g id="id4">
         <rect class="BoundingBox" stroke="none" fill="none" x="3773" y="21802" width="1011" height="2842"/>
         <g>
          <defs>
           <linearGradient id="gradient1" x1="3792" y1="23222" x2="4764" y2="23222" gradientUnits="userSpaceOnUse">
            <stop offset="0.1" style="stop-color:rgb(51,51,51)"/>
            <stop offset="1" style="stop-color:rgb(153,153,153)"/>
           </linearGradient>
          </defs>
          <path style="fill:url(#gradient1)" d="M 3793,24062 L 3793,21822 4763,22382 4763,24622 3793,24062 Z"/>
         </g>
         <path fill="none" stroke="rgb(178,178,178)" stroke-width="40" stroke-linejoin="round" d="M 3793,24062 L 3793,21822 4763,22382 4763,24622 3793,24062 Z"/>
        </g>
       </g>
       <g class="com.sun.star.drawing.PolyPolygonShape">
        <g id="id5">
         <rect class="BoundingBox" stroke="none" fill="none" x="4742" y="21522" width="1498" height="3121"/>
         <g>
          <defs>
           <pattern id="pattern1" x="4762" y="21542" width="1458" height="3081" patternUnits="userSpaceOnUse">
            <g transform="translate(-4762,-21542)">
             <path fill="rgb(51,51,51)" stroke="none" d="M 4761,21541 L 6220,21541 6220,24623 4761,24623 4761,21541 Z M 4477,20940 L 5920,20940 5920,23990 4477,23990 4477,20940 Z"/>
             <path fill="rgb(52,52,52)" stroke="none" d="M 4477,20940 L 5920,20940 5920,23990 4477,23990 4477,20940 Z M 4484,20955 L 5913,20955 5913,23975 4484,23975 4484,20955 Z"/>
             <path fill="rgb(53,53,53)" stroke="none" d="M 4484,20955 L 5913,20955 5913,23975 4484,23975 4484,20955 Z M 4491,20970 L 5906,20970 5906,23960 4491,23960 4491,20970 Z"/>
             <path fill="rgb(54,54,54)" stroke="none" d="M 4491,20970 L 5906,20970 5906,23960 4491,23960 4491,20970 Z M 4498,20985 L 5899,20985 5899,23945 4498,23945 4498,20985 Z"/>
             <path fill="rgb(55,55,55)" stroke="none" d="M 4498,20985 L 5899,20985 5899,23945 4498,23945 4498,20985 Z M 4505,21000 L 5892,21000 5892,23930 4505,23930 4505,21000 Z"/>
             <path fill="rgb(56,56,56)" stroke="none" d="M 4505,21000 L 5892,21000 5892,23930 4505,23930 4505,21000 Z M 4512,21015 L 5885,21015 5885,23915 4512,23915 4512,21015 Z"/>
             <path fill="rgb(57,57,57)" stroke="none" d="M 4512,21015 L 5885,21015 5885,23915 4512,23915 4512,21015 Z M 4520,21030 L 5877,21030 5877,23900 4520,23900 4520,21030 Z"/>
             <path fill="rgb(58,58,58)" stroke="none" d="M 4520,21030 L 5877,21030 5877,23900 4520,23900 4520,21030 Z M 4527,21045 L 5870,21045 5870,23885 4527,23885 4527,21045 Z"/>
             <path fill="rgb(59,59,59)" stroke="none" d="M 4527,21045 L 5870,21045 5870,23885 4527,23885 4527,21045 Z M 4534,21061 L 5863,21061 5863,23869 4534,23869 4534,21061 Z"/>
             <path fill="rgb(60,60,60)" stroke="none" d="M 4534,21061 L 5863,21061 5863,23869 4534,23869 4534,21061 Z M 4541,21076 L 5856,21076 5856,23854 4541,23854 4541,21076 Z"/>
             <path fill="rgb(61,61,61)" stroke="none" d="M 4541,21076 L 5856,21076 5856,23854 4541,23854 4541,21076 Z M 4548,21091 L 5849,21091 5849,23839 4548,23839 4548,21091 Z"/>
             <path fill="rgb(62,62,62)" stroke="none" d="M 4548,21091 L 5849,21091 5849,23839 4548,23839 4548,21091 Z M 4555,21106 L 5842,21106 5842,23824 4555,23824 4555,21106 Z"/>
             <path fill="rgb(63,63,63)" stroke="none" d="M 4555,21106 L 5842,21106 5842,23824 4555,23824 4555,21106 Z M 4563,21121 L 5834,21121 5834,23809 4563,23809 4563,21121 Z"/>
             <path fill="rgb(64,64,64)" stroke="none" d="M 4563,21121 L 5834,21121 5834,23809 4563,23809 4563,21121 Z M 4570,21136 L 5827,21136 5827,23794 4570,23794 4570,21136 Z"/>
             <path fill="rgb(65,65,65)" stroke="none" d="M 4570,21136 L 5827,21136 5827,23794 4570,23794 4570,21136 Z M 4577,21151 L 5820,21151 5820,23779 4577,23779 4577,21151 Z"/>
             <path fill="rgb(66,66,66)" stroke="none" d="M 4577,21151 L 5820,21151 5820,23779 4577,23779 4577,21151 Z M 4584,21166 L 5813,21166 5813,23764 4584,23764 4584,21166 Z"/>
             <path fill="rgb(67,67,67)" stroke="none" d="M 4584,21166 L 5813,21166 5813,23764 4584,23764 4584,21166 Z M 4591,21181 L 5806,21181 5806,23749 4591,23749 4591,21181 Z"/>
             <path fill="rgb(68,68,68)" stroke="none" d="M 4591,21181 L 5806,21181 5806,23749 4591,23749 4591,21181 Z M 4598,21197 L 5799,21197 5799,23733 4598,23733 4598,21197 Z"/>
             <path fill="rgb(69,69,69)" stroke="none" d="M 4598,21197 L 5799,21197 5799,23733 4598,23733 4598,21197 Z M 4605,21212 L 5792,21212 5792,23718 4605,23718 4605,21212 Z"/>
             <path fill="rgb(70,70,70)" stroke="none" d="M 4605,21212 L 5792,21212 5792,23718 4605,23718 4605,21212 Z M 4613,21227 L 5784,21227 5784,23703 4613,23703 4613,21227 Z"/>
             <path fill="rgb(71,71,71)" stroke="none" d="M 4613,21227 L 5784,21227 5784,23703 4613,23703 4613,21227 Z M 4620,21242 L 5777,21242 5777,23688 4620,23688 4620,21242 Z"/>
             <path fill="rgb(72,72,72)" stroke="none" d="M 4620,21242 L 5777,21242 5777,23688 4620,23688 4620,21242 Z M 4627,21257 L 5770,21257 5770,23673 4627,23673 4627,21257 Z"/>
             <path fill="rgb(73,73,73)" stroke="none" d="M 4627,21257 L 5770,21257 5770,23673 4627,23673 4627,21257 Z M 4634,21272 L 5763,21272 5763,23658 4634,23658 4634,21272 Z"/>
             <path fill="rgb(74,74,74)" stroke="none" d="M 4634,21272 L 5763,21272 5763,23658 4634,23658 4634,21272 Z M 4641,21287 L 5756,21287 5756,23643 4641,23643 4641,21287 Z"/>
             <path fill="rgb(75,75,75)" stroke="none" d="M 4641,21287 L 5756,21287 5756,23643 4641,23643 4641,21287 Z M 4648,21302 L 5749,21302 5749,23628 4648,23628 4648,21302 Z"/>
             <path fill="rgb(76,76,76)" stroke="none" d="M 4648,21302 L 5749,21302 5749,23628 4648,23628 4648,21302 Z M 4656,21317 L 5741,21317 5741,23613 4656,23613 4656,21317 Z"/>
             <path fill="rgb(77,77,77)" stroke="none" d="M 4656,21317 L 5741,21317 5741,23613 4656,23613 4656,21317 Z M 4663,21333 L 5734,21333 5734,23597 4663,23597 4663,21333 Z"/>
             <path fill="rgb(78,78,78)" stroke="none" d="M 4663,21333 L 5734,21333 5734,23597 4663,23597 4663,21333 Z M 4670,21348 L 5727,21348 5727,23582 4670,23582 4670,21348 Z"/>
             <path fill="rgb(79,79,79)" stroke="none" d="M 4670,21348 L 5727,21348 5727,23582 4670,23582 4670,21348 Z M 4677,21363 L 5720,21363 5720,23567 4677,23567 4677,21363 Z"/>
             <path fill="rgb(80,80,80)" stroke="none" d="M 4677,21363 L 5720,21363 5720,23567 4677,23567 4677,21363 Z M 4684,21378 L 5713,21378 5713,23552 4684,23552 4684,21378 Z"/>
             <path fill="rgb(81,81,81)" stroke="none" d="M 4684,21378 L 5713,21378 5713,23552 4684,23552 4684,21378 Z M 4691,21393 L 5706,21393 5706,23537 4691,23537 4691,21393 Z"/>
             <path fill="rgb(82,82,82)" stroke="none" d="M 4691,21393 L 5706,21393 5706,23537 4691,23537 4691,21393 Z M 4699,21408 L 5698,21408 5698,23522 4699,23522 4699,21408 Z"/>
             <path fill="rgb(83,83,83)" stroke="none" d="M 4699,21408 L 5698,21408 5698,23522 4699,23522 4699,21408 Z M 4706,21423 L 5691,21423 5691,23507 4706,23507 4706,21423 Z"/>
             <path fill="rgb(84,84,84)" stroke="none" d="M 4706,21423 L 5691,21423 5691,23507 4706,23507 4706,21423 Z M 4713,21438 L 5684,21438 5684,23492 4713,23492 4713,21438 Z"/>
             <path fill="rgb(85,85,85)" stroke="none" d="M 4713,21438 L 5684,21438 5684,23492 4713,23492 4713,21438 Z M 4720,21453 L 5677,21453 5677,23477 4720,23477 4720,21453 Z"/>
             <path fill="rgb(86,86,86)" stroke="none" d="M 4720,21453 L 5677,21453 5677,23477 4720,23477 4720,21453 Z M 4727,21469 L 5670,21469 5670,23461 4727,23461 4727,21469 Z"/>
             <path fill="rgb(87,87,87)" stroke="none" d="M 4727,21469 L 5670,21469 5670,23461 4727,23461 4727,21469 Z M 4734,21484 L 5663,21484 5663,23446 4734,23446 4734,21484 Z"/>
             <path fill="rgb(88,88,88)" stroke="none" d="M 4734,21484 L 5663,21484 5663,23446 4734,23446 4734,21484 Z M 4741,21499 L 5656,21499 5656,23431 4741,23431 4741,21499 Z"/>
             <path fill="rgb(89,89,89)" stroke="none" d="M 4741,21499 L 5656,21499 5656,23431 4741,23431 4741,21499 Z M 4748,21514 L 5648,21514 5648,23416 4748,23416 4748,21514 Z"/>
             <path fill="rgb(90,90,90)" stroke="none" d="M 4748,21514 L 5648,21514 5648,23416 4748,23416 4748,21514 Z M 4755,21528 L 5641,21528 5641,23401 4755,23401 4755,21528 Z"/>
             <path fill="rgb(91,91,91)" stroke="none" d="M 4755,21528 L 5641,21528 5641,23401 4755,23401 4755,21528 Z M 4762,21543 L 5634,21543 5634,23386 4762,23386 4762,21543 Z"/>
             <path fill="rgb(92,92,92)" stroke="none" d="M 4762,21543 L 5634,21543 5634,23386 4762,23386 4762,21543 Z M 4769,21558 L 5627,21558 5627,23371 4769,23371 4769,21558 Z"/>
             <path fill="rgb(93,93,93)" stroke="none" d="M 4769,21558 L 5627,21558 5627,23371 4769,23371 4769,21558 Z M 4776,21573 L 5620,21573 5620,23356 4776,23356 4776,21573 Z"/>
             <path fill="rgb(94,94,94)" stroke="none" d="M 4776,21573 L 5620,21573 5620,23356 4776,23356 4776,21573 Z M 4783,21588 L 5613,21588 5613,23341 4783,23341 4783,21588 Z"/>
             <path fill="rgb(95,95,95)" stroke="none" d="M 4783,21588 L 5613,21588 5613,23341 4783,23341 4783,21588 Z M 4791,21604 L 5605,21604 5605,23325 4791,23325 4791,21604 Z"/>
             <path fill="rgb(96,96,96)" stroke="none" d="M 4791,21604 L 5605,21604 5605,23325 4791,23325 4791,21604 Z M 4798,21619 L 5598,21619 5598,23310 4798,23310 4798,21619 Z"/>
             <path fill="rgb(97,97,97)" stroke="none" d="M 4798,21619 L 5598,21619 5598,23310 4798,23310 4798,21619 Z M 4805,21634 L 5591,21634 5591,23295 4805,23295 4805,21634 Z"/>
             <path fill="rgb(98,98,98)" stroke="none" d="M 4805,21634 L 5591,21634 5591,23295 4805,23295 4805,21634 Z M 4812,21649 L 5584,21649 5584,23280 4812,23280 4812,21649 Z"/>
             <path fill="rgb(99,99,99)" stroke="none" d="M 4812,21649 L 5584,21649 5584,23280 4812,23280 4812,21649 Z M 4819,21664 L 5577,21664 5577,23265 4819,23265 4819,21664 Z"/>
             <path fill="rgb(100,100,100)" stroke="none" d="M 4819,21664 L 5577,21664 5577,23265 4819,23265 4819,21664 Z M 4826,21679 L 5570,21679 5570,23250 4826,23250 4826,21679 Z"/>
             <path fill="rgb(101,101,101)" stroke="none" d="M 4826,21679 L 5570,21679 5570,23250 4826,23250 4826,21679 Z M 4834,21694 L 5562,21694 5562,23235 4834,23235 4834,21694 Z"/>
             <path fill="rgb(102,102,102)" stroke="none" d="M 4834,21694 L 5562,21694 5562,23235 4834,23235 4834,21694 Z M 4841,21709 L 5555,21709 5555,23220 4841,23220 4841,21709 Z"/>
             <path fill="rgb(103,103,103)" stroke="none" d="M 4841,21709 L 5555,21709 5555,23220 4841,23220 4841,21709 Z M 4848,21724 L 5548,21724 5548,23205 4848,23205 4848,21724 Z"/>
             <path fill="rgb(104,104,104)" stroke="none" d="M 4848,21724 L 5548,21724 5548,23205 4848,23205 4848,21724 Z M 4855,21740 L 5541,21740 5541,23189 4855,23189 4855,21740 Z"/>
             <path fill="rgb(105,105,105)" stroke="none" d="M 4855,21740 L 5541,21740 5541,23189 4855,23189 4855,21740 Z M 4862,21755 L 5534,21755 5534,23174 4862,23174 4862,21755 Z"/>
             <path fill="rgb(106,106,106)" stroke="none" d="M 4862,21755 L 5534,21755 5534,23174 4862,23174 4862,21755 Z M 4869,21770 L 5527,21770 5527,23159 4869,23159 4869,21770 Z"/>
             <path fill="rgb(107,107,107)" stroke="none" d="M 4869,21770 L 5527,21770 5527,23159 4869,23159 4869,21770 Z M 4876,21785 L 5520,21785 5520,23144 4876,23144 4876,21785 Z"/>
             <path fill="rgb(108,108,108)" stroke="none" d="M 4876,21785 L 5520,21785 5520,23144 4876,23144 4876,21785 Z M 4884,21800 L 5512,21800 5512,23129 4884,23129 4884,21800 Z"/>
             <path fill="rgb(109,109,109)" stroke="none" d="M 4884,21800 L 5512,21800 5512,23129 4884,23129 4884,21800 Z M 4891,21815 L 5505,21815 5505,23114 4891,23114 4891,21815 Z"/>
             <path fill="rgb(110,110,110)" stroke="none" d="M 4891,21815 L 5505,21815 5505,23114 4891,23114 4891,21815 Z M 4898,21830 L 5498,21830 5498,23099 4898,23099 4898,21830 Z"/>
             <path fill="rgb(111,111,111)" stroke="none" d="M 4898,21830 L 5498,21830 5498,23099 4898,23099 4898,21830 Z M 4905,21845 L 5491,21845 5491,23084 4905,23084 4905,21845 Z"/>
             <path fill="rgb(112,112,112)" stroke="none" d="M 4905,21845 L 5491,21845 5491,23084 4905,23084 4905,21845 Z M 4912,21860 L 5484,21860 5484,23069 4912,23069 4912,21860 Z"/>
             <path fill="rgb(113,113,113)" stroke="none" d="M 4912,21860 L 5484,21860 5484,23069 4912,23069 4912,21860 Z M 4919,21876 L 5477,21876 5477,23053 4919,23053 4919,21876 Z"/>
             <path fill="rgb(114,114,114)" stroke="none" d="M 4919,21876 L 5477,21876 5477,23053 4919,23053 4919,21876 Z M 4927,21891 L 5469,21891 5469,23038 4927,23038 4927,21891 Z"/>
             <path fill="rgb(115,115,115)" stroke="none" d="M 4927,21891 L 5469,21891 5469,23038 4927,23038 4927,21891 Z M 4934,21906 L 5462,21906 5462,23023 4934,23023 4934,21906 Z"/>
             <path fill="rgb(116,116,116)" stroke="none" d="M 4934,21906 L 5462,21906 5462,23023 4934,23023 4934,21906 Z M 4941,21921 L 5455,21921 5455,23008 4941,23008 4941,21921 Z"/>
             <path fill="rgb(117,117,117)" stroke="none" d="M 4941,21921 L 5455,21921 5455,23008 4941,23008 4941,21921 Z M 4948,21936 L 5448,21936 5448,22993 4948,22993 4948,21936 Z"/>
             <path fill="rgb(118,118,118)" stroke="none" d="M 4948,21936 L 5448,21936 5448,22993 4948,22993 4948,21936 Z M 4955,21951 L 5441,21951 5441,22978 4955,22978 4955,21951 Z"/>
             <path fill="rgb(119,119,119)" stroke="none" d="M 4955,21951 L 5441,21951 5441,22978 4955,22978 4955,21951 Z M 4962,21966 L 5434,21966 5434,22963 4962,22963 4962,21966 Z"/>
             <path fill="rgb(120,120,120)" stroke="none" d="M 4962,21966 L 5434,21966 5434,22963 4962,22963 4962,21966 Z M 4969,21981 L 5427,21981 5427,22948 4969,22948 4969,21981 Z"/>
             <path fill="rgb(121,121,121)" stroke="none" d="M 4969,21981 L 5427,21981 5427,22948 4969,22948 4969,21981 Z M 4977,21997 L 5419,21997 5419,22932 4977,22932 4977,21997 Z"/>
             <path fill="rgb(122,122,122)" stroke="none" d="M 4977,21997 L 5419,21997 5419,22932 4977,22932 4977,21997 Z M 4984,22012 L 5412,22012 5412,22917 4984,22917 4984,22012 Z"/>
             <path fill="rgb(123,123,123)" stroke="none" d="M 4984,22012 L 5412,22012 5412,22917 4984,22917 4984,22012 Z M 4991,22027 L 5405,22027 5405,22902 4991,22902 4991,22027 Z"/>
             <path fill="rgb(124,124,124)" stroke="none" d="M 4991,22027 L 5405,22027 5405,22902 4991,22902 4991,22027 Z M 4998,22042 L 5398,22042 5398,22887 4998,22887 4998,22042 Z"/>
             <path fill="rgb(125,125,125)" stroke="none" d="M 4998,22042 L 5398,22042 5398,22887 4998,22887 4998,22042 Z M 5005,22057 L 5391,22057 5391,22872 5005,22872 5005,22057 Z"/>
             <path fill="rgb(126,126,126)" stroke="none" d="M 5005,22057 L 5391,22057 5391,22872 5005,22872 5005,22057 Z M 5012,22072 L 5384,22072 5384,22857 5012,22857 5012,22072 Z"/>
             <path fill="rgb(127,127,127)" stroke="none" d="M 5012,22072 L 5384,22072 5384,22857 5012,22857 5012,22072 Z M 5020,22087 L 5376,22087 5376,22842 5020,22842 5020,22087 Z"/>
             <path fill="rgb(128,128,128)" stroke="none" d="M 5020,22087 L 5376,22087 5376,22842 5020,22842 5020,22087 Z M 5027,22102 L 5369,22102 5369,22827 5027,22827 5027,22102 Z"/>
             <path fill="rgb(129,129,129)" stroke="none" d="M 5027,22102 L 5369,22102 5369,22827 5027,22827 5027,22102 Z M 5034,22117 L 5362,22117 5362,22812 5034,22812 5034,22117 Z"/>
             <path fill="rgb(130,130,130)" stroke="none" d="M 5034,22117 L 5362,22117 5362,22812 5034,22812 5034,22117 Z M 5041,22133 L 5355,22133 5355,22796 5041,22796 5041,22133 Z"/>
             <path fill="rgb(131,131,131)" stroke="none" d="M 5041,22133 L 5355,22133 5355,22796 5041,22796 5041,22133 Z M 5048,22148 L 5348,22148 5348,22781 5048,22781 5048,22148 Z"/>
             <path fill="rgb(132,132,132)" stroke="none" d="M 5048,22148 L 5348,22148 5348,22781 5048,22781 5048,22148 Z M 5055,22163 L 5341,22163 5341,22766 5055,22766 5055,22163 Z"/>
             <path fill="rgb(133,133,133)" stroke="none" d="M 5055,22163 L 5341,22163 5341,22766 5055,22766 5055,22163 Z M 5063,22178 L 5333,22178 5333,22751 5063,22751 5063,22178 Z"/>
             <path fill="rgb(134,134,134)" stroke="none" d="M 5063,22178 L 5333,22178 5333,22751 5063,22751 5063,22178 Z M 5070,22193 L 5326,22193 5326,22736 5070,22736 5070,22193 Z"/>
             <path fill="rgb(135,135,135)" stroke="none" d="M 5070,22193 L 5326,22193 5326,22736 5070,22736 5070,22193 Z M 5077,22208 L 5319,22208 5319,22721 5077,22721 5077,22208 Z"/>
             <path fill="rgb(136,136,136)" stroke="none" d="M 5077,22208 L 5319,22208 5319,22721 5077,22721 5077,22208 Z M 5084,22223 L 5312,22223 5312,22706 5084,22706 5084,22223 Z"/>
             <path fill="rgb(137,137,137)" stroke="none" d="M 5084,22223 L 5312,22223 5312,22706 5084,22706 5084,22223 Z M 5091,22238 L 5305,22238 5305,22691 5091,22691 5091,22238 Z"/>
             <path fill="rgb(138,138,138)" stroke="none" d="M 5091,22238 L 5305,22238 5305,22691 5091,22691 5091,22238 Z M 5098,22253 L 5298,22253 5298,22676 5098,22676 5098,22253 Z"/>
             <path fill="rgb(139,139,139)" stroke="none" d="M 5098,22253 L 5298,22253 5298,22676 5098,22676 5098,22253 Z M 5105,22269 L 5291,22269 5291,22660 5105,22660 5105,22269 Z"/>
             <path fill="rgb(140,140,140)" stroke="none" d="M 5105,22269 L 5291,22269 5291,22660 5105,22660 5105,22269 Z M 5113,22284 L 5283,22284 5283,22645 5113,22645 5113,22284 Z"/>
             <path fill="rgb(141,141,141)" stroke="none" d="M 5113,22284 L 5283,22284 5283,22645 5113,22645 5113,22284 Z M 5120,22299 L 5276,22299 5276,22630 5120,22630 5120,22299 Z"/>
             <path fill="rgb(142,142,142)" stroke="none" d="M 5120,22299 L 5276,22299 5276,22630 5120,22630 5120,22299 Z M 5127,22314 L 5269,22314 5269,22615 5127,22615 5127,22314 Z"/>
             <path fill="rgb(143,143,143)" stroke="none" d="M 5127,22314 L 5269,22314 5269,22615 5127,22615 5127,22314 Z M 5134,22329 L 5262,22329 5262,22600 5134,22600 5134,22329 Z"/>
             <path fill="rgb(144,144,144)" stroke="none" d="M 5134,22329 L 5262,22329 5262,22600 5134,22600 5134,22329 Z M 5141,22344 L 5255,22344 5255,22585 5141,22585 5141,22344 Z"/>
             <path fill="rgb(145,145,145)" stroke="none" d="M 5141,22344 L 5255,22344 5255,22585 5141,22585 5141,22344 Z M 5148,22359 L 5248,22359 5248,22570 5148,22570 5148,22359 Z"/>
             <path fill="rgb(146,146,146)" stroke="none" d="M 5148,22359 L 5248,22359 5248,22570 5148,22570 5148,22359 Z M 5156,22374 L 5240,22374 5240,22555 5156,22555 5156,22374 Z"/>
             <path fill="rgb(147,147,147)" stroke="none" d="M 5156,22374 L 5240,22374 5240,22555 5156,22555 5156,22374 Z M 5163,22389 L 5233,22389 5233,22540 5163,22540 5163,22389 Z"/>
             <path fill="rgb(148,148,148)" stroke="none" d="M 5163,22389 L 5233,22389 5233,22540 5163,22540 5163,22389 Z M 5170,22405 L 5226,22405 5226,22524 5170,22524 5170,22405 Z"/>
             <path fill="rgb(149,149,149)" stroke="none" d="M 5170,22405 L 5226,22405 5226,22524 5170,22524 5170,22405 Z M 5177,22420 L 5219,22420 5219,22509 5177,22509 5177,22420 Z"/>
             <path fill="rgb(150,150,150)" stroke="none" d="M 5177,22420 L 5219,22420 5219,22509 5177,22509 5177,22420 Z M 5184,22435 L 5212,22435 5212,22494 5184,22494 5184,22435 Z"/>
             <path fill="rgb(151,151,151)" stroke="none" d="M 5184,22435 L 5212,22435 5212,22494 5184,22494 5184,22435 Z M 5191,22450 L 5205,22450 5205,22479 5191,22479 5191,22450 Z"/>
             <path fill="rgb(153,153,153)" stroke="none" d="M 5191,22450 L 5205,22450 5205,22479 5191,22479 5191,22450 Z"/>
            </g>
           </pattern>
          </defs>
          <path style="fill:url(#pattern1)" d="M 4762,24622 L 4763,22382 6219,21542 6218,23782 4762,24622 Z"/>
         </g>
         <path fill="none" stroke="rgb(178,178,178)" stroke-width="40" stroke-linejoin="round" d="M 4762,24622 L 4763,22382 6219,21542 6218,23782 4762,24622 Z"/>
        </g>
       </g>
       <g class="com.sun.star.drawing.PolyPolygonShape">
        <g id="id6">
         <rect class="BoundingBox" stroke="none" fill="none" x="3773" y="20962" width="2466" height="1441"/>
         <g>
          <defs>
           <linearGradient id="gradient2" x1="5005" y1="20982" x2="5005" y2="22382" gradientUnits="userSpaceOnUse">
            <stop offset="0.1" style="stop-color:rgb(51,51,51)"/>
            <stop offset="1" style="stop-color:rgb(153,153,153)"/>
           </linearGradient>
          </defs>
          <path style="fill:url(#gradient2)" d="M 4763,22382 L 3793,21822 5248,20982 6218,21542 4763,22382 Z"/>
         </g>
         <path fill="none" stroke="rgb(178,178,178)" stroke-width="40" stroke-linejoin="round" d="M 4763,22382 L 3793,21822 5248,20982 6218,21542 4763,22382 Z"/>
        </g>
       </g>
       <g class="com.sun.star.drawing.PolyPolygonShape">
        <g id="id7">
         <rect class="BoundingBox" stroke="none" fill="none" x="3773" y="20962" width="2467" height="3681"/>
         <path fill="none" stroke="rgb(0,0,0)" stroke-width="40" stroke-linejoin="round" d="M 3793,24062 L 3794,21822 5250,20982 6219,21542 6218,23782 4762,24622 3793,24062 Z"/>
        </g>
       </g>
       <g class="com.sun.star.drawing.PolyPolygonShape">
        <g id="id8">
         <rect class="BoundingBox" stroke="none" fill="none" x="4500" y="22362" width="162" height="252"/>
         <path fill="rgb(57,181,74)" stroke="none" d="M 4520,22522 L 4520,22382 4641,22452 4641,22592 4520,22522 Z"/>
         <path fill="none" stroke="rgb(102,102,102)" stroke-width="40" stroke-linejoin="round" d="M 4520,22522 L 4520,22382 4641,22452 4641,22592 4520,22522 Z"/>
        </g>
       </g>
       <g class="com.sun.star.drawing.PolyPolygonShape">
        <g id="id9">
         <rect class="BoundingBox" stroke="none" fill="none" x="4258" y="22222" width="163" height="252"/>
         <path fill="rgb(209,97,108)" stroke="none" d="M 4278,22382 L 4278,22242 4400,22312 4400,22452 4278,22382 Z"/>
         <path fill="none" stroke="rgb(102,102,102)" stroke-width="40" stroke-linejoin="round" d="M 4278,22382 L 4278,22242 4400,22312 4400,22452 4278,22382 Z"/>
        </g>
       </g>
       <g class="com.sun.star.drawing.PolyPolygonShape">
        <g id="id10">
         <rect class="BoundingBox" stroke="none" fill="none" x="4015" y="23692" width="162" height="462"/>
         <path fill="rgb(0,0,0)" stroke="none" d="M 4035,24062 L 4035,23712 4156,23782 4156,24132 4035,24062 Z"/>
         <path fill="none" stroke="rgb(178,178,178)" stroke-width="40" stroke-linejoin="round" d="M 4035,24062 L 4035,23712 4156,23782 4156,24132 4035,24062 Z"/>
        </g>
       </g>
       <g class="com.sun.star.drawing.PolyPolygonShape">
        <g id="id11">
         <rect class="BoundingBox" stroke="none" fill="none" x="4258" y="23412" width="162" height="462"/>
         <path fill="rgb(0,0,0)" stroke="none" d="M 4278,23782 L 4278,23432 4399,23502 4399,23852 4278,23782 Z"/>
         <path fill="none" stroke="rgb(178,178,178)" stroke-width="40" stroke-linejoin="round" d="M 4278,23782 L 4278,23432 4399,23502 4399,23852 4278,23782 Z"/>
        </g>
       </g>
       <g class="com.sun.star.drawing.PolyPolygonShape">
        <g id="id12">
         <rect class="BoundingBox" stroke="none" fill="none" x="4015" y="22852" width="162" height="321"/>
         <path fill="rgb(0,0,0)" stroke="none" d="M 4035,23082 L 4035,22872 4156,22942 4156,23152 4035,23082 Z"/>
         <path fill="none" stroke="rgb(178,178,178)" stroke-width="40" stroke-linejoin="round" d="M 4035,23082 L 4035,22872 4156,22942 4156,23152 4035,23082 Z"/>
        </g>
       </g>
       <g class="com.sun.star.drawing.PolyPolygonShape">
        <g id="id13">
         <rect class="BoundingBox" stroke="none" fill="none" x="4015" y="22572" width="162" height="252"/>
         <path fill="rgb(0,0,0)" stroke="none" d="M 4035,22732 L 4035,22592 4156,22662 4156,22802 4035,22732 Z"/>
         <path fill="none" stroke="rgb(178,178,178)" stroke-width="40" stroke-linejoin="round" d="M 4035,22732 L 4035,22592 4156,22662 4156,22802 4035,22732 Z"/>
        </g>
       </g>
       <g class="com.sun.star.drawing.PolyPolygonShape">
        <g id="id14">
         <rect class="BoundingBox" stroke="none" fill="none" x="4015" y="23272" width="162" height="462"/>
         <path fill="rgb(0,0,0)" stroke="none" d="M 4035,23642 L 4035,23292 4156,23362 4156,23712 4035,23642 Z"/>
         <path fill="none" stroke="rgb(178,178,178)" stroke-width="40" stroke-linejoin="round" d="M 4035,23642 L 4035,23292 4156,23362 4156,23712 4035,23642 Z"/>
        </g>
       </g>
       <g class="com.sun.star.drawing.PolyPolygonShape">
        <g id="id15">
         <rect class="BoundingBox" stroke="none" fill="none" x="4258" y="23832" width="162" height="462"/>
         <path fill="rgb(0,0,0)" stroke="none" d="M 4278,24202 L 4278,23852 4399,23922 4399,24272 4278,24202 Z"/>
         <path fill="none" stroke="rgb(178,178,178)" stroke-width="40" stroke-linejoin="round" d="M 4278,24202 L 4278,23852 4399,23922 4399,24272 4278,24202 Z"/>
        </g>
       </g>
       <g class="com.sun.star.drawing.PolyPolygonShape">
        <g id="id16">
         <rect class="BoundingBox" stroke="none" fill="none" x="4258" y="22992" width="162" height="321"/>
         <path fill="rgb(0,0,0)" stroke="none" d="M 4278,23222 L 4278,23012 4399,23082 4399,23292 4278,23222 Z"/>
         <path fill="none" stroke="rgb(178,178,178)" stroke-width="40" stroke-linejoin="round" d="M 4278,23222 L 4278,23012 4399,23082 4399,23292 4278,23222 Z"/>
        </g>
       </g>
       <g class="com.sun.star.drawing.PolyPolygonShape">
        <g id="id17">
         <rect class="BoundingBox" stroke="none" fill="none" x="4258" y="22712" width="162" height="251"/>
         <path fill="rgb(0,0,0)" stroke="none" d="M 4278,22872 L 4278,22732 4399,22802 4399,22942 4278,22872 Z"/>
         <path fill="none" stroke="rgb(178,178,178)" stroke-width="40" stroke-linejoin="round" d="M 4278,22872 L 4278,22732 4399,22802 4399,22942 4278,22872 Z"/>
        </g>
       </g>
      </g>
     </g>
    </g>
   </g>
  </g>
 </g>
</svg>