<?xml version="1.0" encoding="UTF-8"?>
<!DOCTYPE svg PUBLIC "-//W3C//DTD SVG 1.1//EN" "http://www.w3.org/Graphics/SVG/1.1/DTD/svg11.dtd">
<svg version="1.2" width="30.51mm" height="42.45mm" viewBox="19736 9645 3051 4245" preserveAspectRatio="xMidYMid" fill-rule="evenodd" stroke-width="28.222" stroke-linejoin="round" xmlns="http://www.w3.org/2000/svg" xmlns:ooo="http://xml.openoffice.org/svg/export" xmlns:xlink="http://www.w3.org/1999/xlink" xmlns:presentation="http://sun.com/xmlns/staroffice/presentation" xmlns:smil="http://www.w3.org/2001/SMIL20/" xmlns:anim="urn:oasis:names:tc:opendocument:xmlns:animation:1.0" xml:space="preserve">
 <defs class="ClipPathGroup">
  <clipPath id="presentation_clip_path" clipPathUnits="userSpaceOnUse">
   <rect x="19736" y="9645" width="3051" height="4245"/>
  </clipPath>
 </defs>
 <defs class="TextShapeIndex">
  <g ooo:slide="id1" ooo:id-list="id3 id4 id5 id6 id7 id8 id9 id10 id11 id12 id13"/>
 </defs>
 <defs class="EmbeddedBulletChars">
  <g id="bullet-char-template(57356)" transform="scale(0.00048828125,-0.00048828125)">
   <path d="M 580,1141 L 1163,571 580,0 -4,571 580,1141 Z"/>
  </g>
  <g id="bullet-char-template(57354)" transform="scale(0.00048828125,-0.00048828125)">
   <path d="M 8,1128 L 1137,1128 1137,0 8,0 8,1128 Z"/>
  </g>
  <g id="bullet-char-template(10146)" transform="scale(0.00048828125,-0.00048828125)">
   <path d="M 174,0 L 602,739 174,1481 1456,739 174,0 Z M 1358,739 L 309,1346 659,739 1358,739 Z"/>
  </g>
  <g id="bullet-char-template(10132)" transform="scale(0.00048828125,-0.00048828125)">
   <path d="M 2015,739 L 1276,0 717,0 1260,543 174,543 174,936 1260,936 717,1481 1274,1481 2015,739 Z"/>
  </g>
  <g id="bullet-char-template(10007)" transform="scale(0.00048828125,-0.00048828125)">
   <path d="M 0,-2 C -7,14 -16,27 -25,37 L 356,567 C 262,823 215,952 215,954 215,979 228,992 255,992 264,992 276,990 289,987 310,991 331,999 354,1012 L 381,999 492,748 772,1049 836,1024 860,1049 C 881,1039 901,1025 922,1006 886,937 835,863 770,784 769,783 710,716 594,584 L 774,223 C 774,196 753,168 711,139 L 727,119 C 717,90 699,76 672,76 641,76 570,178 457,381 L 164,-76 C 142,-110 111,-127 72,-127 30,-127 9,-110 8,-76 1,-67 -2,-52 -2,-32 -2,-23 -1,-13 0,-2 Z"/>
  </g>
  <g id="bullet-char-template(10004)" transform="scale(0.00048828125,-0.00048828125)">
   <path d="M 285,-33 C 182,-33 111,30 74,156 52,228 41,333 41,471 41,549 55,616 82,672 116,743 169,778 240,778 293,778 328,747 346,684 L 369,508 C 377,444 397,411 428,410 L 1163,1116 C 1174,1127 1196,1133 1229,1133 1271,1133 1292,1118 1292,1087 L 1292,965 C 1292,929 1282,901 1262,881 L 442,47 C 390,-6 338,-33 285,-33 Z"/>
  </g>
  <g id="bullet-char-template(9679)" transform="scale(0.00048828125,-0.00048828125)">
   <path d="M 813,0 C 632,0 489,54 383,161 276,268 223,411 223,592 223,773 276,916 383,1023 489,1130 632,1184 813,1184 992,1184 1136,1130 1245,1023 1353,916 1407,772 1407,592 1407,412 1353,268 1245,161 1136,54 992,0 813,0 Z"/>
  </g>
  <g id="bullet-char-template(8226)" transform="scale(0.00048828125,-0.00048828125)">
   <path d="M 346,457 C 273,457 209,483 155,535 101,586 74,649 74,723 74,796 101,859 155,911 209,963 273,989 346,989 419,989 480,963 531,910 582,859 608,796 608,723 608,648 583,586 532,535 482,483 420,457 346,457 Z"/>
  </g>
  <g id="bullet-char-template(8211)" transform="scale(0.00048828125,-0.00048828125)">
   <path d="M -4,459 L 1135,459 1135,606 -4,606 -4,459 Z"/>
  </g>
 </defs>
 <defs class="TextEmbeddedBitmaps"/>
 <g class="SlideGroup">
  <g>
   <g id="id1" class="Slide" clip-path="url(#presentation_clip_path)">
    <g class="Page">
     <g class="Group">
      <g class="com.sun.star.drawing.ClosedBezierShape">
       <g id="id3">
        <rect class="BoundingBox" stroke="none" fill="none" x="21574" y="12958" width="1215" height="914"/>
        <path fill="rgb(221,221,221)" stroke="none" d="M 21575,13870 C 21908,13870 22787,13730 22787,13520 22787,13309 22635,12959 22302,12959 22302,13169 21575,13520 21575,13870 Z"/>
        <path fill="none" stroke="rgb(221,221,221)" d="M 21575,13870 C 21908,13870 22787,13730 22787,13520 22787,13309 22635,12959 22302,12959 22302,13169 21575,13520 21575,13870 Z"/>
       </g>
      </g>
      <g class="Group">
       <g class="com.sun.star.drawing.PolyPolygonShape">
        <g id="id4">
         <rect class="BoundingBox" stroke="none" fill="none" x="19736" y="9995" width="1861" height="3895"/>
         <g>
          <defs>
           <linearGradient id="gradient1" x1="19754" y1="11942" x2="21576" y2="11942" gradientUnits="userSpaceOnUse">
            <stop offset="0.1" style="stop-color:rgb(51,51,51)"/>
            <stop offset="1" style="stop-color:rgb(153,153,153)"/>
           </linearGradient>
          </defs>
          <path style="fill:url(#gradient1)" d="M 19756,12818 L 19756,10015 21575,11066 21575,13869 19756,12818 Z"/>
         </g>
         <path fill="none" stroke="rgb(178,178,178)" stroke-width="40" stroke-linejoin="round" d="M 19756,12818 L 19756,10015 21575,11066 21575,13869 19756,12818 Z"/>
        </g>
       </g>
       <g class="com.sun.star.drawing.PolyPolygonShape">
        <g id="id5">
         <rect class="BoundingBox" stroke="none" fill="none" x="21555" y="10696" width="647" height="3195"/>
         <g>
          <defs>
           <pattern id="pattern1" x="21575" y="10716" width="607" height="3155" patternUnits="userSpaceOnUse">
            <g transform="translate(-21575,-10716)">
             <path fill="rgb(51,51,51)" stroke="none" d="M 21574,10715 L 22182,10715 22182,13871 21574,13871 21574,10715 Z M 21455,10100 L 22057,10100 22057,13224 21455,13224 21455,10100 Z"/>
             <path fill="rgb(52,52,52)" stroke="none" d="M 21455,10100 L 22057,10100 22057,13224 21455,13224 21455,10100 Z M 21458,10115 L 22054,10115 22054,13209 21458,13209 21458,10115 Z"/>
             <path fill="rgb(53,53,53)" stroke="none" d="M 21458,10115 L 22054,10115 22054,13209 21458,13209 21458,10115 Z M 21461,10131 L 22051,10131 22051,13193 21461,13193 21461,10131 Z"/>
             <path fill="rgb(54,54,54)" stroke="none" d="M 21461,10131 L 22051,10131 22051,13193 21461,13193 21461,10131 Z M 21464,10146 L 22048,10146 22048,13178 21464,13178 21464,10146 Z"/>
             <path fill="rgb(55,55,55)" stroke="none" d="M 21464,10146 L 22048,10146 22048,13178 21464,13178 21464,10146 Z M 21467,10162 L 22045,10162 22045,13162 21467,13162 21467,10162 Z"/>
             <path fill="rgb(56,56,56)" stroke="none" d="M 21467,10162 L 22045,10162 22045,13162 21467,13162 21467,10162 Z M 21470,10177 L 22042,10177 22042,13147 21470,13147 21470,10177 Z"/>
             <path fill="rgb(57,57,57)" stroke="none" d="M 21470,10177 L 22042,10177 22042,13147 21470,13147 21470,10177 Z M 21473,10193 L 22039,10193 22039,13131 21473,13131 21473,10193 Z"/>
             <path fill="rgb(58,58,58)" stroke="none" d="M 21473,10193 L 22039,10193 22039,13131 21473,13131 21473,10193 Z M 21476,10208 L 22036,10208 22036,13116 21476,13116 21476,10208 Z"/>
             <path fill="rgb(59,59,59)" stroke="none" d="M 21476,10208 L 22036,10208 22036,13116 21476,13116 21476,10208 Z M 21479,10224 L 22033,10224 22033,13100 21479,13100 21479,10224 Z"/>
             <path fill="rgb(60,60,60)" stroke="none" d="M 21479,10224 L 22033,10224 22033,13100 21479,13100 21479,10224 Z M 21482,10239 L 22030,10239 22030,13085 21482,13085 21482,10239 Z"/>
             <path fill="rgb(61,61,61)" stroke="none" d="M 21482,10239 L 22030,10239 22030,13085 21482,13085 21482,10239 Z M 21485,10255 L 22027,10255 22027,13069 21485,13069 21485,10255 Z"/>
             <path fill="rgb(62,62,62)" stroke="none" d="M 21485,10255 L 22027,10255 22027,13069 21485,13069 21485,10255 Z M 21488,10270 L 22024,10270 22024,13054 21488,13054 21488,10270 Z"/>
             <path fill="rgb(63,63,63)" stroke="none" d="M 21488,10270 L 22024,10270 22024,13054 21488,13054 21488,10270 Z M 21491,10286 L 22021,10286 22021,13038 21491,13038 21491,10286 Z"/>
             <path fill="rgb(64,64,64)" stroke="none" d="M 21491,10286 L 22021,10286 22021,13038 21491,13038 21491,10286 Z M 21494,10301 L 22018,10301 22018,13023 21494,13023 21494,10301 Z"/>
             <path fill="rgb(65,65,65)" stroke="none" d="M 21494,10301 L 22018,10301 22018,13023 21494,13023 21494,10301 Z M 21497,10317 L 22015,10317 22015,13007 21497,13007 21497,10317 Z"/>
             <path fill="rgb(66,66,66)" stroke="none" d="M 21497,10317 L 22015,10317 22015,13007 21497,13007 21497,10317 Z M 21500,10332 L 22012,10332 22012,12992 21500,12992 21500,10332 Z"/>
             <path fill="rgb(67,67,67)" stroke="none" d="M 21500,10332 L 22012,10332 22012,12992 21500,12992 21500,10332 Z M 21503,10348 L 22009,10348 22009,12976 21503,12976 21503,10348 Z"/>
             <path fill="rgb(68,68,68)" stroke="none" d="M 21503,10348 L 22009,10348 22009,12976 21503,12976 21503,10348 Z M 21506,10363 L 22006,10363 22006,12961 21506,12961 21506,10363 Z"/>
             <path fill="rgb(69,69,69)" stroke="none" d="M 21506,10363 L 22006,10363 22006,12961 21506,12961 21506,10363 Z M 21509,10379 L 22003,10379 22003,12945 21509,12945 21509,10379 Z"/>
             <path fill="rgb(70,70,70)" stroke="none" d="M 21509,10379 L 22003,10379 22003,12945 21509,12945 21509,10379 Z M 21512,10394 L 22000,10394 22000,12930 21512,12930 21512,10394 Z"/>
             <path fill="rgb(71,71,71)" stroke="none" d="M 21512,10394 L 22000,10394 22000,12930 21512,12930 21512,10394 Z M 21515,10409 L 21997,10409 21997,12915 21515,12915 21515,10409 Z"/>
             <path fill="rgb(72,72,72)" stroke="none" d="M 21515,10409 L 21997,10409 21997,12915 21515,12915 21515,10409 Z M 21518,10425 L 21994,10425 21994,12899 21518,12899 21518,10425 Z"/>
             <path fill="rgb(73,73,73)" stroke="none" d="M 21518,10425 L 21994,10425 21994,12899 21518,12899 21518,10425 Z M 21521,10440 L 21991,10440 21991,12884 21521,12884 21521,10440 Z"/>
             <path fill="rgb(74,74,74)" stroke="none" d="M 21521,10440 L 21991,10440 21991,12884 21521,12884 21521,10440 Z M 21524,10456 L 21988,10456 21988,12868 21524,12868 21524,10456 Z"/>
             <path fill="rgb(75,75,75)" stroke="none" d="M 21524,10456 L 21988,10456 21988,12868 21524,12868 21524,10456 Z M 21527,10471 L 21985,10471 21985,12853 21527,12853 21527,10471 Z"/>
             <path fill="rgb(76,76,76)" stroke="none" d="M 21527,10471 L 21985,10471 21985,12853 21527,12853 21527,10471 Z M 21530,10487 L 21982,10487 21982,12837 21530,12837 21530,10487 Z"/>
             <path fill="rgb(77,77,77)" stroke="none" d="M 21530,10487 L 21982,10487 21982,12837 21530,12837 21530,10487 Z M 21533,10502 L 21979,10502 21979,12822 21533,12822 21533,10502 Z"/>
             <path fill="rgb(78,78,78)" stroke="none" d="M 21533,10502 L 21979,10502 21979,12822 21533,12822 21533,10502 Z M 21536,10518 L 21976,10518 21976,12806 21536,12806 21536,10518 Z"/>
             <path fill="rgb(79,79,79)" stroke="none" d="M 21536,10518 L 21976,10518 21976,12806 21536,12806 21536,10518 Z M 21539,10533 L 21973,10533 21973,12791 21539,12791 21539,10533 Z"/>
             <path fill="rgb(80,80,80)" stroke="none" d="M 21539,10533 L 21973,10533 21973,12791 21539,12791 21539,10533 Z M 21542,10549 L 21970,10549 21970,12775 21542,12775 21542,10549 Z"/>
             <path fill="rgb(81,81,81)" stroke="none" d="M 21542,10549 L 21970,10549 21970,12775 21542,12775 21542,10549 Z M 21545,10564 L 21967,10564 21967,12760 21545,12760 21545,10564 Z"/>
             <path fill="rgb(82,82,82)" stroke="none" d="M 21545,10564 L 21967,10564 21967,12760 21545,12760 21545,10564 Z M 21548,10580 L 21964,10580 21964,12744 21548,12744 21548,10580 Z"/>
             <path fill="rgb(83,83,83)" stroke="none" d="M 21548,10580 L 21964,10580 21964,12744 21548,12744 21548,10580 Z M 21551,10595 L 21961,10595 21961,12729 21551,12729 21551,10595 Z"/>
             <path fill="rgb(84,84,84)" stroke="none" d="M 21551,10595 L 21961,10595 21961,12729 21551,12729 21551,10595 Z M 21554,10611 L 21958,10611 21958,12713 21554,12713 21554,10611 Z"/>
             <path fill="rgb(85,85,85)" stroke="none" d="M 21554,10611 L 21958,10611 21958,12713 21554,12713 21554,10611 Z M 21556,10626 L 21955,10626 21955,12698 21556,12698 21556,10626 Z"/>
             <path fill="rgb(86,86,86)" stroke="none" d="M 21556,10626 L 21955,10626 21955,12698 21556,12698 21556,10626 Z M 21559,10642 L 21952,10642 21952,12682 21559,12682 21559,10642 Z"/>
             <path fill="rgb(87,87,87)" stroke="none" d="M 21559,10642 L 21952,10642 21952,12682 21559,12682 21559,10642 Z M 21562,10657 L 21949,10657 21949,12667 21562,12667 21562,10657 Z"/>
             <path fill="rgb(88,88,88)" stroke="none" d="M 21562,10657 L 21949,10657 21949,12667 21562,12667 21562,10657 Z M 21565,10673 L 21946,10673 21946,12651 21565,12651 21565,10673 Z"/>
             <path fill="rgb(89,89,89)" stroke="none" d="M 21565,10673 L 21946,10673 21946,12651 21565,12651 21565,10673 Z M 21568,10688 L 21943,10688 21943,12636 21568,12636 21568,10688 Z"/>
             <path fill="rgb(90,90,90)" stroke="none" d="M 21568,10688 L 21943,10688 21943,12636 21568,12636 21568,10688 Z M 21571,10703 L 21940,10703 21940,12620 21571,12620 21571,10703 Z"/>
             <path fill="rgb(91,91,91)" stroke="none" d="M 21571,10703 L 21940,10703 21940,12620 21571,12620 21571,10703 Z M 21574,10718 L 21937,10718 21937,12605 21574,12605 21574,10718 Z"/>
             <path fill="rgb(92,92,92)" stroke="none" d="M 21574,10718 L 21937,10718 21937,12605 21574,12605 21574,10718 Z M 21577,10733 L 21934,10733 21934,12590 21577,12590 21577,10733 Z"/>
             <path fill="rgb(93,93,93)" stroke="none" d="M 21577,10733 L 21934,10733 21934,12590 21577,12590 21577,10733 Z M 21580,10749 L 21931,10749 21931,12574 21580,12574 21580,10749 Z"/>
             <path fill="rgb(94,94,94)" stroke="none" d="M 21580,10749 L 21931,10749 21931,12574 21580,12574 21580,10749 Z M 21583,10764 L 21928,10764 21928,12559 21583,12559 21583,10764 Z"/>
             <path fill="rgb(95,95,95)" stroke="none" d="M 21583,10764 L 21928,10764 21928,12559 21583,12559 21583,10764 Z M 21586,10780 L 21925,10780 21925,12543 21586,12543 21586,10780 Z"/>
             <path fill="rgb(96,96,96)" stroke="none" d="M 21586,10780 L 21925,10780 21925,12543 21586,12543 21586,10780 Z M 21589,10795 L 21922,10795 21922,12528 21589,12528 21589,10795 Z"/>
             <path fill="rgb(97,97,97)" stroke="none" d="M 21589,10795 L 21922,10795 21922,12528 21589,12528 21589,10795 Z M 21592,10811 L 21919,10811 21919,12512 21592,12512 21592,10811 Z"/>
             <path fill="rgb(98,98,98)" stroke="none" d="M 21592,10811 L 21919,10811 21919,12512 21592,12512 21592,10811 Z M 21595,10826 L 21916,10826 21916,12497 21595,12497 21595,10826 Z"/>
             <path fill="rgb(99,99,99)" stroke="none" d="M 21595,10826 L 21916,10826 21916,12497 21595,12497 21595,10826 Z M 21598,10842 L 21913,10842 21913,12481 21598,12481 21598,10842 Z"/>
             <path fill="rgb(100,100,100)" stroke="none" d="M 21598,10842 L 21913,10842 21913,12481 21598,12481 21598,10842 Z M 21601,10857 L 21910,10857 21910,12466 21601,12466 21601,10857 Z"/>
             <path fill="rgb(101,101,101)" stroke="none" d="M 21601,10857 L 21910,10857 21910,12466 21601,12466 21601,10857 Z M 21604,10873 L 21907,10873 21907,12450 21604,12450 21604,10873 Z"/>
             <path fill="rgb(102,102,102)" stroke="none" d="M 21604,10873 L 21907,10873 21907,12450 21604,12450 21604,10873 Z M 21607,10888 L 21904,10888 21904,12435 21607,12435 21607,10888 Z"/>
             <path fill="rgb(103,103,103)" stroke="none" d="M 21607,10888 L 21904,10888 21904,12435 21607,12435 21607,10888 Z M 21610,10904 L 21901,10904 21901,12419 21610,12419 21610,10904 Z"/>
             <path fill="rgb(104,104,104)" stroke="none" d="M 21610,10904 L 21901,10904 21901,12419 21610,12419 21610,10904 Z M 21613,10919 L 21898,10919 21898,12404 21613,12404 21613,10919 Z"/>
             <path fill="rgb(105,105,105)" stroke="none" d="M 21613,10919 L 21898,10919 21898,12404 21613,12404 21613,10919 Z M 21616,10935 L 21895,10935 21895,12388 21616,12388 21616,10935 Z"/>
             <path fill="rgb(106,106,106)" stroke="none" d="M 21616,10935 L 21895,10935 21895,12388 21616,12388 21616,10935 Z M 21619,10950 L 21892,10950 21892,12373 21619,12373 21619,10950 Z"/>
             <path fill="rgb(107,107,107)" stroke="none" d="M 21619,10950 L 21892,10950 21892,12373 21619,12373 21619,10950 Z M 21622,10966 L 21889,10966 21889,12357 21622,12357 21622,10966 Z"/>
             <path fill="rgb(108,108,108)" stroke="none" d="M 21622,10966 L 21889,10966 21889,12357 21622,12357 21622,10966 Z M 21625,10981 L 21886,10981 21886,12342 21625,12342 21625,10981 Z"/>
             <path fill="rgb(109,109,109)" stroke="none" d="M 21625,10981 L 21886,10981 21886,12342 21625,12342 21625,10981 Z M 21628,10997 L 21883,10997 21883,12326 21628,12326 21628,10997 Z"/>
             <path fill="rgb(110,110,110)" stroke="none" d="M 21628,10997 L 21883,10997 21883,12326 21628,12326 21628,10997 Z M 21631,11012 L 21880,11012 21880,12311 21631,12311 21631,11012 Z"/>
             <path fill="rgb(111,111,111)" stroke="none" d="M 21631,11012 L 21880,11012 21880,12311 21631,12311 21631,11012 Z M 21634,11028 L 21877,11028 21877,12295 21634,12295 21634,11028 Z"/>
             <path fill="rgb(112,112,112)" stroke="none" d="M 21634,11028 L 21877,11028 21877,12295 21634,12295 21634,11028 Z M 21637,11043 L 21874,11043 21874,12280 21637,12280 21637,11043 Z"/>
             <path fill="rgb(113,113,113)" stroke="none" d="M 21637,11043 L 21874,11043 21874,12280 21637,12280 21637,11043 Z M 21640,11058 L 21871,11058 21871,12265 21640,12265 21640,11058 Z"/>
             <path fill="rgb(114,114,114)" stroke="none" d="M 21640,11058 L 21871,11058 21871,12265 21640,12265 21640,11058 Z M 21643,11074 L 21868,11074 21868,12249 21643,12249 21643,11074 Z"/>
             <path fill="rgb(115,115,115)" stroke="none" d="M 21643,11074 L 21868,11074 21868,12249 21643,12249 21643,11074 Z M 21646,11089 L 21865,11089 21865,12234 21646,12234 21646,11089 Z"/>
             <path fill="rgb(116,116,116)" stroke="none" d="M 21646,11089 L 21865,11089 21865,12234 21646,12234 21646,11089 Z M 21649,11105 L 21862,11105 21862,12218 21649,12218 21649,11105 Z"/>
             <path fill="rgb(117,117,117)" stroke="none" d="M 21649,11105 L 21862,11105 21862,12218 21649,12218 21649,11105 Z M 21652,11120 L 21859,11120 21859,12203 21652,12203 21652,11120 Z"/>
             <path fill="rgb(118,118,118)" stroke="none" d="M 21652,11120 L 21859,11120 21859,12203 21652,12203 21652,11120 Z M 21654,11136 L 21856,11136 21856,12187 21654,12187 21654,11136 Z"/>
             <path fill="rgb(119,119,119)" stroke="none" d="M 21654,11136 L 21856,11136 21856,12187 21654,12187 21654,11136 Z M 21657,11151 L 21854,11151 21854,12172 21657,12172 21657,11151 Z"/>
             <path fill="rgb(120,120,120)" stroke="none" d="M 21657,11151 L 21854,11151 21854,12172 21657,12172 21657,11151 Z M 21660,11167 L 21851,11167 21851,12156 21660,12156 21660,11167 Z"/>
             <path fill="rgb(121,121,121)" stroke="none" d="M 21660,11167 L 21851,11167 21851,12156 21660,12156 21660,11167 Z M 21663,11182 L 21848,11182 21848,12141 21663,12141 21663,11182 Z"/>
             <path fill="rgb(122,122,122)" stroke="none" d="M 21663,11182 L 21848,11182 21848,12141 21663,12141 21663,11182 Z M 21666,11198 L 21845,11198 21845,12125 21666,12125 21666,11198 Z"/>
             <path fill="rgb(123,123,123)" stroke="none" d="M 21666,11198 L 21845,11198 21845,12125 21666,12125 21666,11198 Z M 21669,11213 L 21842,11213 21842,12110 21669,12110 21669,11213 Z"/>
             <path fill="rgb(124,124,124)" stroke="none" d="M 21669,11213 L 21842,11213 21842,12110 21669,12110 21669,11213 Z M 21672,11229 L 21839,11229 21839,12094 21672,12094 21672,11229 Z"/>
             <path fill="rgb(125,125,125)" stroke="none" d="M 21672,11229 L 21839,11229 21839,12094 21672,12094 21672,11229 Z M 21675,11244 L 21836,11244 21836,12079 21675,12079 21675,11244 Z"/>
             <path fill="rgb(126,126,126)" stroke="none" d="M 21675,11244 L 21836,11244 21836,12079 21675,12079 21675,11244 Z M 21678,11260 L 21833,11260 21833,12063 21678,12063 21678,11260 Z"/>
             <path fill="rgb(127,127,127)" stroke="none" d="M 21678,11260 L 21833,11260 21833,12063 21678,12063 21678,11260 Z M 21681,11275 L 21830,11275 21830,12048 21681,12048 21681,11275 Z"/>
             <path fill="rgb(128,128,128)" stroke="none" d="M 21681,11275 L 21830,11275 21830,12048 21681,12048 21681,11275 Z M 21684,11291 L 21827,11291 21827,12032 21684,12032 21684,11291 Z"/>
             <path fill="rgb(129,129,129)" stroke="none" d="M 21684,11291 L 21827,11291 21827,12032 21684,12032 21684,11291 Z M 21687,11306 L 21824,11306 21824,12017 21687,12017 21687,11306 Z"/>
             <path fill="rgb(130,130,130)" stroke="none" d="M 21687,11306 L 21824,11306 21824,12017 21687,12017 21687,11306 Z M 21690,11322 L 21821,11322 21821,12001 21690,12001 21690,11322 Z"/>
             <path fill="rgb(131,131,131)" stroke="none" d="M 21690,11322 L 21821,11322 21821,12001 21690,12001 21690,11322 Z M 21693,11337 L 21818,11337 21818,11986 21693,11986 21693,11337 Z"/>
             <path fill="rgb(132,132,132)" stroke="none" d="M 21693,11337 L 21818,11337 21818,11986 21693,11986 21693,11337 Z M 21696,11352 L 21815,11352 21815,11971 21696,11971 21696,11352 Z"/>
             <path fill="rgb(133,133,133)" stroke="none" d="M 21696,11352 L 21815,11352 21815,11971 21696,11971 21696,11352 Z M 21699,11368 L 21812,11368 21812,11955 21699,11955 21699,11368 Z"/>
             <path fill="rgb(134,134,134)" stroke="none" d="M 21699,11368 L 21812,11368 21812,11955 21699,11955 21699,11368 Z M 21702,11383 L 21809,11383 21809,11940 21702,11940 21702,11383 Z"/>
             <path fill="rgb(135,135,135)" stroke="none" d="M 21702,11383 L 21809,11383 21809,11940 21702,11940 21702,11383 Z M 21705,11399 L 21806,11399 21806,11924 21705,11924 21705,11399 Z"/>
             <path fill="rgb(136,136,136)" stroke="none" d="M 21705,11399 L 21806,11399 21806,11924 21705,11924 21705,11399 Z M 21708,11414 L 21803,11414 21803,11909 21708,11909 21708,11414 Z"/>
             <path fill="rgb(137,137,137)" stroke="none" d="M 21708,11414 L 21803,11414 21803,11909 21708,11909 21708,11414 Z M 21711,11430 L 21800,11430 21800,11893 21711,11893 21711,11430 Z"/>
             <path fill="rgb(138,138,138)" stroke="none" d="M 21711,11430 L 21800,11430 21800,11893 21711,11893 21711,11430 Z M 21714,11445 L 21797,11445 21797,11878 21714,11878 21714,11445 Z"/>
             <path fill="rgb(139,139,139)" stroke="none" d="M 21714,11445 L 21797,11445 21797,11878 21714,11878 21714,11445 Z M 21717,11461 L 21794,11461 21794,11862 21717,11862 21717,11461 Z"/>
             <path fill="rgb(140,140,140)" stroke="none" d="M 21717,11461 L 21794,11461 21794,11862 21717,11862 21717,11461 Z M 21720,11476 L 21791,11476 21791,11847 21720,11847 21720,11476 Z"/>
             <path fill="rgb(141,141,141)" stroke="none" d="M 21720,11476 L 21791,11476 21791,11847 21720,11847 21720,11476 Z M 21723,11492 L 21788,11492 21788,11831 21723,11831 21723,11492 Z"/>
             <path fill="rgb(142,142,142)" stroke="none" d="M 21723,11492 L 21788,11492 21788,11831 21723,11831 21723,11492 Z M 21726,11507 L 21785,11507 21785,11816 21726,11816 21726,11507 Z"/>
             <path fill="rgb(143,143,143)" stroke="none" d="M 21726,11507 L 21785,11507 21785,11816 21726,11816 21726,11507 Z M 21729,11523 L 21782,11523 21782,11800 21729,11800 21729,11523 Z"/>
             <path fill="rgb(144,144,144)" stroke="none" d="M 21729,11523 L 21782,11523 21782,11800 21729,11800 21729,11523 Z M 21732,11538 L 21779,11538 21779,11785 21732,11785 21732,11538 Z"/>
             <path fill="rgb(145,145,145)" stroke="none" d="M 21732,11538 L 21779,11538 21779,11785 21732,11785 21732,11538 Z M 21735,11554 L 21776,11554 21776,11769 21735,11769 21735,11554 Z"/>
             <path fill="rgb(146,146,146)" stroke="none" d="M 21735,11554 L 21776,11554 21776,11769 21735,11769 21735,11554 Z M 21738,11569 L 21773,11569 21773,11754 21738,11754 21738,11569 Z"/>
             <path fill="rgb(147,147,147)" stroke="none" d="M 21738,11569 L 21773,11569 21773,11754 21738,11754 21738,11569 Z M 21741,11585 L 21770,11585 21770,11738 21741,11738 21741,11585 Z"/>
             <path fill="rgb(148,148,148)" stroke="none" d="M 21741,11585 L 21770,11585 21770,11738 21741,11738 21741,11585 Z M 21744,11600 L 21767,11600 21767,11723 21744,11723 21744,11600 Z"/>
             <path fill="rgb(149,149,149)" stroke="none" d="M 21744,11600 L 21767,11600 21767,11723 21744,11723 21744,11600 Z M 21747,11616 L 21764,11616 21764,11707 21747,11707 21747,11616 Z"/>
             <path fill="rgb(150,150,150)" stroke="none" d="M 21747,11616 L 21764,11616 21764,11707 21747,11707 21747,11616 Z M 21750,11631 L 21761,11631 21761,11692 21750,11692 21750,11631 Z"/>
             <path fill="rgb(151,151,151)" stroke="none" d="M 21750,11631 L 21761,11631 21761,11692 21750,11692 21750,11631 Z M 21753,11647 L 21758,11647 21758,11676 21753,11676 21753,11647 Z"/>
             <path fill="rgb(153,153,153)" stroke="none" d="M 21753,11647 L 21758,11647 21758,11676 21753,11676 21753,11647 Z"/>
            </g>
           </pattern>
          </defs>
          <path style="fill:url(#pattern1)" d="M 21575,13870 L 21575,11066 22181,10716 22181,13519 21575,13870 Z"/>
         </g>
         <path fill="none" stroke="rgb(178,178,178)" stroke-width="40" stroke-linejoin="round" d="M 21575,13870 L 21575,11066 22181,10716 22181,13519 21575,13870 Z"/>
        </g>
       </g>
       <g class="com.sun.star.drawing.PolyPolygonShape">
        <g id="id6">
         <rect class="BoundingBox" stroke="none" fill="none" x="19736" y="9645" width="2467" height="1443"/>
         <g>
          <defs>
           <linearGradient id="gradient2" x1="20968" y1="9665" x2="20968" y2="11067" gradientUnits="userSpaceOnUse">
            <stop offset="0.1" style="stop-color:rgb(51,51,51)"/>
            <stop offset="1" style="stop-color:rgb(153,153,153)"/>
           </linearGradient>
          </defs>
          <path style="fill:url(#gradient2)" d="M 21575,11067 L 19756,10015 20362,9665 22181,10716 21575,11067 Z"/>
         </g>
         <path fill="none" stroke="rgb(178,178,178)" stroke-width="40" stroke-linejoin="round" d="M 21575,11067 L 19756,10015 20362,9665 22181,10716 21575,11067 Z"/>
        </g>
       </g>
       <g class="com.sun.star.drawing.PolyPolygonShape">
        <g id="id7">
         <rect class="BoundingBox" stroke="none" fill="none" x="21191" y="11537" width="162" height="321"/>
         <path fill="rgb(57,181,74)" stroke="none" d="M 21211,11767 L 21211,11557 21332,11627 21332,11837 21211,11767 Z"/>
         <path fill="none" stroke="rgb(102,102,102)" stroke-width="40" stroke-linejoin="round" d="M 21211,11767 L 21211,11557 21332,11627 21332,11837 21211,11767 Z"/>
        </g>
       </g>
       <g class="com.sun.star.drawing.PolyPolygonShape">
        <g id="id8">
         <rect class="BoundingBox" stroke="none" fill="none" x="21191" y="11117" width="162" height="321"/>
         <path fill="rgb(209,97,108)" stroke="none" d="M 21211,11347 L 21211,11137 21332,11207 21332,11417 21211,11347 Z"/>
         <path fill="none" stroke="rgb(102,102,102)" stroke-width="40" stroke-linejoin="round" d="M 21211,11347 L 21211,11137 21332,11207 21332,11417 21211,11347 Z"/>
        </g>
       </g>
       <g class="com.sun.star.drawing.PolyPolygonShape">
        <g id="id9">
         <rect class="BoundingBox" stroke="none" fill="none" x="21797" y="13009" width="162" height="461"/>
         <path fill="rgb(0,0,0)" stroke="none" d="M 21938,13379 L 21938,13029 21817,13099 21817,13449 21938,13379 Z"/>
         <path fill="none" stroke="rgb(178,178,178)" stroke-width="40" stroke-linejoin="round" d="M 21938,13379 L 21938,13029 21817,13099 21817,13449 21938,13379 Z"/>
        </g>
       </g>
       <g class="com.sun.star.drawing.PolyPolygonShape">
        <g id="id10">
         <rect class="BoundingBox" stroke="none" fill="none" x="21797" y="12378" width="162" height="462"/>
         <path fill="rgb(0,0,0)" stroke="none" d="M 21938,12748 L 21938,12398 21817,12468 21817,12818 21938,12748 Z"/>
         <path fill="none" stroke="rgb(178,178,178)" stroke-width="40" stroke-linejoin="round" d="M 21938,12748 L 21938,12398 21817,12468 21817,12818 21938,12748 Z"/>
        </g>
       </g>
       <g class="com.sun.star.drawing.PolyPolygonShape">
        <g id="id11">
         <rect class="BoundingBox" stroke="none" fill="none" x="21797" y="11747" width="162" height="462"/>
         <path fill="rgb(0,0,0)" stroke="none" d="M 21938,12117 L 21938,11767 21817,11837 21817,12187 21938,12117 Z"/>
         <path fill="none" stroke="rgb(178,178,178)" stroke-width="40" stroke-linejoin="round" d="M 21938,12117 L 21938,11767 21817,11837 21817,12187 21938,12117 Z"/>
        </g>
       </g>
       <g class="com.sun.star.drawing.PolyPolygonShape">
        <g id="id12">
         <rect class="BoundingBox" stroke="none" fill="none" x="22161" y="11047" width="162" height="2213"/>
         <g>
          <defs>
           <linearGradient id="gradient3" x1="22180" y1="12153" x2="22302" y2="12153" gradientUnits="userSpaceOnUse">
            <stop offset="0.1" style="stop-color:rgb(51,51,51)"/>
            <stop offset="1" style="stop-color:rgb(153,153,153)"/>
           </linearGradient>
          </defs>
          <path style="fill:url(#gradient3)" d="M 22181,13169 L 22181,11067 22302,11207 22302,13239 22181,13169 Z"/>
         </g>
         <path fill="none" stroke="rgb(178,178,178)" stroke-width="40" stroke-linejoin="round" d="M 22181,13169 L 22181,11067 22302,11207 22302,13239 22181,13169 Z"/>
        </g>
       </g>
       <g class="com.sun.star.drawing.PolyPolygonShape">
        <g id="id13">
         <rect class="BoundingBox" stroke="none" fill="none" x="19736" y="9645" width="2588" height="4246"/>
         <path fill="none" stroke="rgb(0,0,0)" stroke-width="40" stroke-linejoin="round" d="M 19756,12819 L 19756,10015 20362,9665 22181,10716 22181,11067 22302,11137 22302,13239 22181,13169 22181,13519 21575,13870 19756,12819 Z"/>
        </g>
       </g>
      </g>
     </g>
    </g>
   </g>
  </g>
 </g>
</svg>