<?xml version="1.0" encoding="UTF-8"?>
<!DOCTYPE svg PUBLIC "-//W3C//DTD SVG 1.1//EN" "http://www.w3.org/Graphics/SVG/1.1/DTD/svg11.dtd">
<svg version="1.2" width="49.91mm" height="58.2mm" viewBox="10829 7255 4991 5820" preserveAspectRatio="xMidYMid" fill-rule="evenodd" stroke-width="28.222" stroke-linejoin="round" xmlns="http://www.w3.org/2000/svg" xmlns:ooo="http://xml.openoffice.org/svg/export" xmlns:xlink="http://www.w3.org/1999/xlink" xmlns:presentation="http://sun.com/xmlns/staroffice/presentation" xmlns:smil="http://www.w3.org/2001/SMIL20/" xmlns:anim="urn:oasis:names:tc:opendocument:xmlns:animation:1.0" xml:space="preserve">
 <defs class="ClipPathGroup">
  <clipPath id="presentation_clip_path" clipPathUnits="userSpaceOnUse">
   <rect x="10829" y="7255" width="4991" height="5820"/>
  </clipPath>
 </defs>
 <defs class="TextShapeIndex">
  <g ooo:slide="id1" ooo:id-list="id3 id4 id5 id6 id7 id8 id9 id10 id11 id12 id13 id14 id15 id16 id17 id18 id19 id20 id21 id22 id23 id24 id25 id26 id27 id28 id29 id30 id31 id32 id33 id34 id35 id36 id37 id38 id39 id40"/>
 </defs>
 <defs class="EmbeddedBulletChars">
  <g id="bullet-char-template(57356)" transform="scale(0.00048828125,-0.00048828125)">
   <path d="M 580,1141 L 1163,571 580,0 -4,571 580,1141 Z"/>
  </g>
  <g id="bullet-char-template(57354)" transform="scale(0.00048828125,-0.00048828125)">
   <path d="M 8,1128 L 1137,1128 1137,0 8,0 8,1128 Z"/>
  </g>
  <g id="bullet-char-template(10146)" transform="scale(0.00048828125,-0.00048828125)">
   <path d="M 174,0 L 602,739 174,1481 1456,739 174,0 Z M 1358,739 L 309,1346 659,739 1358,739 Z"/>
  </g>
  <g id="bullet-char-template(10132)" transform="scale(0.00048828125,-0.00048828125)">
   <path d="M 2015,739 L 1276,0 717,0 1260,543 174,543 174,936 1260,936 717,1481 1274,1481 2015,739 Z"/>
  </g>
  <g id="bullet-char-template(10007)" transform="scale(0.00048828125,-0.00048828125)">
   <path d="M 0,-2 C -7,14 -16,27 -25,37 L 356,567 C 262,823 215,952 215,954 215,979 228,992 255,992 264,992 276,990 289,987 310,991 331,999 354,1012 L 381,999 492,748 772,1049 836,1024 860,1049 C 881,1039 901,1025 922,1006 886,937 835,863 770,784 769,783 710,716 594,584 L 774,223 C 774,196 753,168 711,139 L 727,119 C 717,90 699,76 672,76 641,76 570,178 457,381 L 164,-76 C 142,-110 111,-127 72,-127 30,-127 9,-110 8,-76 1,-67 -2,-52 -2,-32 -2,-23 -1,-13 0,-2 Z"/>
  </g>
  <g id="bullet-char-template(10004)" transform="scale(0.00048828125,-0.00048828125)">
   <path d="M 285,-33 C 182,-33 111,30 74,156 52,228 41,333 41,471 41,549 55,616 82,672 116,743 169,778 240,778 293,778 328,747 346,684 L 369,508 C 377,444 397,411 428,410 L 1163,1116 C 1174,1127 1196,1133 1229,1133 1271,1133 1292,1118 1292,1087 L 1292,965 C 1292,929 1282,901 1262,881 L 442,47 C 390,-6 338,-33 285,-33 Z"/>
  </g>
  <g id="bullet-char-template(9679)" transform="scale(0.00048828125,-0.00048828125)">
   <path d="M 813,0 C 632,0 489,54 383,161 276,268 223,411 223,592 223,773 276,916 383,1023 489,1130 632,1184 813,1184 992,1184 1136,1130 1245,1023 1353,916 1407,772 1407,592 1407,412 1353,268 1245,161 1136,54 992,0 813,0 Z"/>
  </g>
  <g id="bullet-char-template(8226)" transform="scale(0.00048828125,-0.00048828125)">
   <path d="M 346,457 C 273,457 209,483 155,535 101,586 74,649 74,723 74,796 101,859 155,911 209,963 273,989 346,989 419,989 480,963 531,910 582,859 608,796 608,723 608,648 583,586 532,535 482,483 420,457 346,457 Z"/>
  </g>
  <g id="bullet-char-template(8211)" transform="scale(0.00048828125,-0.00048828125)">
   <path d="M -4,459 L 1135,459 1135,606 -4,606 -4,459 Z"/>
  </g>
 </defs>
 <defs class="TextEmbeddedBitmaps"/>
 <g class="SlideGroup">
  <g>
   <g id="id1" class="Slide" clip-path="url(#presentation_clip_path)">
    <g class="Page">
     <g class="Group">
      <g class="com.sun.star.drawing.ClosedBezierShape">
       <g id="id3">
        <rect class="BoundingBox" stroke="none" fill="none" x="14682" y="12288" width="1139" height="769"/>
        <path fill="rgb(221,221,221)" stroke="none" d="M 14697,13055 C 15028,13055 15669,12986 15790,12637 15910,12289 15638,12289 15308,12289 15308,12498 14572,12358 14697,13055 Z"/>
        <path fill="none" stroke="rgb(221,221,221)" d="M 14697,13055 C 15028,13055 15669,12986 15790,12637 15910,12289 15638,12289 15308,12289 15308,12498 14572,12358 14697,13055 Z"/>
       </g>
      </g>
      <g class="Group">
       <g class="com.sun.star.drawing.PolyPolygonShape">
        <g id="id4">
         <rect class="BoundingBox" stroke="none" fill="none" x="10829" y="7324" width="3897" height="5751"/>
         <g>
          <defs>
           <linearGradient id="gradient1" x1="10848" y1="10199" x2="14706" y2="10199" gradientUnits="userSpaceOnUse">
            <stop offset="0.1" style="stop-color:rgb(51,51,51)"/>
            <stop offset="1" style="stop-color:rgb(153,153,153)"/>
           </linearGradient>
          </defs>
          <path style="fill:url(#gradient1)" d="M 10849,10826 L 10849,7344 14705,9572 14693,13054 10849,10826 Z"/>
         </g>
         <path fill="none" stroke="rgb(178,178,178)" stroke-width="40" stroke-linejoin="round" d="M 10849,10826 L 10849,7344 14705,9572 14693,13054 10849,10826 Z"/>
        </g>
       </g>
       <g class="com.sun.star.drawing.PolyPolygonShape">
        <g id="id5">
         <rect class="BoundingBox" stroke="none" fill="none" x="11070" y="7743" width="3174" height="4498"/>
         <g>
          <defs>
           <linearGradient id="gradient2" x1="11089" y1="9991" x2="14224" y2="9991" gradientUnits="userSpaceOnUse">
            <stop offset="0.1" style="stop-color:rgb(147,212,240)"/>
            <stop offset="1" style="stop-color:rgb(233,246,252)"/>
           </linearGradient>
          </defs>
          <path style="fill:url(#gradient2)" d="M 11090,10409 L 11090,7763 14223,9574 14223,12220 11090,10409 Z"/>
         </g>
         <path fill="none" stroke="rgb(102,102,102)" stroke-width="40" stroke-linejoin="round" d="M 11090,10409 L 11090,7763 14223,9574 14223,12220 11090,10409 Z"/>
        </g>
       </g>
       <g class="com.sun.star.drawing.PolyPolygonShape">
        <g id="id6">
         <rect class="BoundingBox" stroke="none" fill="none" x="13842" y="12199" width="282" height="319"/>
         <path fill="rgb(116,203,128)" stroke="none" d="M 13862,12359 L 13862,12219 14103,12359 14103,12497 13862,12359 Z"/>
         <path fill="none" stroke="rgb(102,102,102)" stroke-width="40" stroke-linejoin="round" d="M 13862,12359 L 13862,12219 14103,12359 14103,12497 13862,12359 Z"/>
        </g>
       </g>
       <g class="com.sun.star.drawing.PolyPolygonShape">
        <g id="id7">
         <rect class="BoundingBox" stroke="none" fill="none" x="14794" y="9344" width="536" height="3453"/>
         <g>
          <defs>
           <pattern id="pattern1" x="14814" y="9364" width="496" height="3413" patternUnits="userSpaceOnUse">
            <g transform="translate(-14814,-9364)">
             <path fill="rgb(51,51,51)" stroke="none" d="M 14813,9363 L 15310,9363 15310,12777 14813,12777 14813,9363 Z M 14716,8697 L 15207,8697 15207,12077 14716,12077 14716,8697 Z"/>
             <path fill="rgb(52,52,52)" stroke="none" d="M 14716,8697 L 15207,8697 15207,12077 14716,12077 14716,8697 Z M 14718,8714 L 15205,8714 15205,12060 14718,12060 14718,8714 Z"/>
             <path fill="rgb(53,53,53)" stroke="none" d="M 14718,8714 L 15205,8714 15205,12060 14718,12060 14718,8714 Z M 14721,8731 L 15202,8731 15202,12043 14721,12043 14721,8731 Z"/>
             <path fill="rgb(54,54,54)" stroke="none" d="M 14721,8731 L 15202,8731 15202,12043 14721,12043 14721,8731 Z M 14723,8747 L 15200,8747 15200,12027 14723,12027 14723,8747 Z"/>
             <path fill="rgb(55,55,55)" stroke="none" d="M 14723,8747 L 15200,8747 15200,12027 14723,12027 14723,8747 Z M 14726,8764 L 15197,8764 15197,12010 14726,12010 14726,8764 Z"/>
             <path fill="rgb(56,56,56)" stroke="none" d="M 14726,8764 L 15197,8764 15197,12010 14726,12010 14726,8764 Z M 14728,8781 L 15195,8781 15195,11993 14728,11993 14728,8781 Z"/>
             <path fill="rgb(57,57,57)" stroke="none" d="M 14728,8781 L 15195,8781 15195,11993 14728,11993 14728,8781 Z M 14731,8798 L 15192,8798 15192,11976 14731,11976 14731,8798 Z"/>
             <path fill="rgb(58,58,58)" stroke="none" d="M 14731,8798 L 15192,8798 15192,11976 14731,11976 14731,8798 Z M 14733,8814 L 15190,8814 15190,11960 14733,11960 14733,8814 Z"/>
             <path fill="rgb(59,59,59)" stroke="none" d="M 14733,8814 L 15190,8814 15190,11960 14733,11960 14733,8814 Z M 14735,8831 L 15188,8831 15188,11943 14735,11943 14735,8831 Z"/>
             <path fill="rgb(60,60,60)" stroke="none" d="M 14735,8831 L 15188,8831 15188,11943 14735,11943 14735,8831 Z M 14738,8848 L 15185,8848 15185,11926 14738,11926 14738,8848 Z"/>
             <path fill="rgb(61,61,61)" stroke="none" d="M 14738,8848 L 15185,8848 15185,11926 14738,11926 14738,8848 Z M 14740,8865 L 15183,8865 15183,11909 14740,11909 14740,8865 Z"/>
             <path fill="rgb(62,62,62)" stroke="none" d="M 14740,8865 L 15183,8865 15183,11909 14740,11909 14740,8865 Z M 14743,8881 L 15180,8881 15180,11893 14743,11893 14743,8881 Z"/>
             <path fill="rgb(63,63,63)" stroke="none" d="M 14743,8881 L 15180,8881 15180,11893 14743,11893 14743,8881 Z M 14745,8898 L 15178,8898 15178,11876 14745,11876 14745,8898 Z"/>
             <path fill="rgb(64,64,64)" stroke="none" d="M 14745,8898 L 15178,8898 15178,11876 14745,11876 14745,8898 Z M 14748,8915 L 15175,8915 15175,11859 14748,11859 14748,8915 Z"/>
             <path fill="rgb(65,65,65)" stroke="none" d="M 14748,8915 L 15175,8915 15175,11859 14748,11859 14748,8915 Z M 14750,8932 L 15173,8932 15173,11842 14750,11842 14750,8932 Z"/>
             <path fill="rgb(66,66,66)" stroke="none" d="M 14750,8932 L 15173,8932 15173,11842 14750,11842 14750,8932 Z M 14753,8948 L 15170,8948 15170,11826 14753,11826 14753,8948 Z"/>
             <path fill="rgb(67,67,67)" stroke="none" d="M 14753,8948 L 15170,8948 15170,11826 14753,11826 14753,8948 Z M 14755,8965 L 15168,8965 15168,11809 14755,11809 14755,8965 Z"/>
             <path fill="rgb(68,68,68)" stroke="none" d="M 14755,8965 L 15168,8965 15168,11809 14755,11809 14755,8965 Z M 14757,8982 L 15166,8982 15166,11792 14757,11792 14757,8982 Z"/>
             <path fill="rgb(69,69,69)" stroke="none" d="M 14757,8982 L 15166,8982 15166,11792 14757,11792 14757,8982 Z M 14760,8999 L 15163,8999 15163,11775 14760,11775 14760,8999 Z"/>
             <path fill="rgb(70,70,70)" stroke="none" d="M 14760,8999 L 15163,8999 15163,11775 14760,11775 14760,8999 Z M 14762,9015 L 15161,9015 15161,11759 14762,11759 14762,9015 Z"/>
             <path fill="rgb(71,71,71)" stroke="none" d="M 14762,9015 L 15161,9015 15161,11759 14762,11759 14762,9015 Z M 14765,9032 L 15158,9032 15158,11742 14765,11742 14765,9032 Z"/>
             <path fill="rgb(72,72,72)" stroke="none" d="M 14765,9032 L 15158,9032 15158,11742 14765,11742 14765,9032 Z M 14767,9049 L 15156,9049 15156,11725 14767,11725 14767,9049 Z"/>
             <path fill="rgb(73,73,73)" stroke="none" d="M 14767,9049 L 15156,9049 15156,11725 14767,11725 14767,9049 Z M 14770,9066 L 15153,9066 15153,11708 14770,11708 14770,9066 Z"/>
             <path fill="rgb(74,74,74)" stroke="none" d="M 14770,9066 L 15153,9066 15153,11708 14770,11708 14770,9066 Z M 14772,9082 L 15151,9082 15151,11692 14772,11692 14772,9082 Z"/>
             <path fill="rgb(75,75,75)" stroke="none" d="M 14772,9082 L 15151,9082 15151,11692 14772,11692 14772,9082 Z M 14775,9099 L 15148,9099 15148,11675 14775,11675 14775,9099 Z"/>
             <path fill="rgb(76,76,76)" stroke="none" d="M 14775,9099 L 15148,9099 15148,11675 14775,11675 14775,9099 Z M 14777,9116 L 15146,9116 15146,11658 14777,11658 14777,9116 Z"/>
             <path fill="rgb(77,77,77)" stroke="none" d="M 14777,9116 L 15146,9116 15146,11658 14777,11658 14777,9116 Z M 14779,9132 L 15144,9132 15144,11642 14779,11642 14779,9132 Z"/>
             <path fill="rgb(78,78,78)" stroke="none" d="M 14779,9132 L 15144,9132 15144,11642 14779,11642 14779,9132 Z M 14782,9149 L 15141,9149 15141,11625 14782,11625 14782,9149 Z"/>
             <path fill="rgb(79,79,79)" stroke="none" d="M 14782,9149 L 15141,9149 15141,11625 14782,11625 14782,9149 Z M 14784,9166 L 15139,9166 15139,11608 14784,11608 14784,9166 Z"/>
             <path fill="rgb(80,80,80)" stroke="none" d="M 14784,9166 L 15139,9166 15139,11608 14784,11608 14784,9166 Z M 14787,9183 L 15136,9183 15136,11591 14787,11591 14787,9183 Z"/>
             <path fill="rgb(81,81,81)" stroke="none" d="M 14787,9183 L 15136,9183 15136,11591 14787,11591 14787,9183 Z M 14789,9199 L 15134,9199 15134,11575 14789,11575 14789,9199 Z"/>
             <path fill="rgb(82,82,82)" stroke="none" d="M 14789,9199 L 15134,9199 15134,11575 14789,11575 14789,9199 Z M 14792,9216 L 15131,9216 15131,11558 14792,11558 14792,9216 Z"/>
             <path fill="rgb(83,83,83)" stroke="none" d="M 14792,9216 L 15131,9216 15131,11558 14792,11558 14792,9216 Z M 14794,9233 L 15129,9233 15129,11541 14794,11541 14794,9233 Z"/>
             <path fill="rgb(84,84,84)" stroke="none" d="M 14794,9233 L 15129,9233 15129,11541 14794,11541 14794,9233 Z M 14795,9250 L 15127,9250 15127,11524 14795,11524 14795,9250 Z"/>
             <path fill="rgb(85,85,85)" stroke="none" d="M 14795,9250 L 15127,9250 15127,11524 14795,11524 14795,9250 Z M 14798,9266 L 15124,9266 15124,11508 14798,11508 14798,9266 Z"/>
             <path fill="rgb(86,86,86)" stroke="none" d="M 14798,9266 L 15124,9266 15124,11508 14798,11508 14798,9266 Z M 14800,9283 L 15122,9283 15122,11491 14800,11491 14800,9283 Z"/>
             <path fill="rgb(87,87,87)" stroke="none" d="M 14800,9283 L 15122,9283 15122,11491 14800,11491 14800,9283 Z M 14803,9300 L 15119,9300 15119,11474 14803,11474 14803,9300 Z"/>
             <path fill="rgb(88,88,88)" stroke="none" d="M 14803,9300 L 15119,9300 15119,11474 14803,11474 14803,9300 Z M 14805,9317 L 15117,9317 15117,11457 14805,11457 14805,9317 Z"/>
             <path fill="rgb(89,89,89)" stroke="none" d="M 14805,9317 L 15117,9317 15117,11457 14805,11457 14805,9317 Z M 14808,9333 L 15114,9333 15114,11441 14808,11441 14808,9333 Z"/>
             <path fill="rgb(90,90,90)" stroke="none" d="M 14808,9333 L 15114,9333 15114,11441 14808,11441 14808,9333 Z M 14810,9349 L 15112,9349 15112,11424 14810,11424 14810,9349 Z"/>
             <path fill="rgb(91,91,91)" stroke="none" d="M 14810,9349 L 15112,9349 15112,11424 14810,11424 14810,9349 Z M 14813,9366 L 15109,9366 15109,11407 14813,11407 14813,9366 Z"/>
             <path fill="rgb(92,92,92)" stroke="none" d="M 14813,9366 L 15109,9366 15109,11407 14813,11407 14813,9366 Z M 14815,9383 L 15107,9383 15107,11390 14815,11390 14815,9383 Z"/>
             <path fill="rgb(93,93,93)" stroke="none" d="M 14815,9383 L 15107,9383 15107,11390 14815,11390 14815,9383 Z M 14817,9399 L 15105,9399 15105,11374 14817,11374 14817,9399 Z"/>
             <path fill="rgb(94,94,94)" stroke="none" d="M 14817,9399 L 15105,9399 15105,11374 14817,11374 14817,9399 Z M 14820,9416 L 15102,9416 15102,11357 14820,11357 14820,9416 Z"/>
             <path fill="rgb(95,95,95)" stroke="none" d="M 14820,9416 L 15102,9416 15102,11357 14820,11357 14820,9416 Z M 14822,9433 L 15100,9433 15100,11340 14822,11340 14822,9433 Z"/>
             <path fill="rgb(96,96,96)" stroke="none" d="M 14822,9433 L 15100,9433 15100,11340 14822,11340 14822,9433 Z M 14825,9450 L 15097,9450 15097,11323 14825,11323 14825,9450 Z"/>
             <path fill="rgb(97,97,97)" stroke="none" d="M 14825,9450 L 15097,9450 15097,11323 14825,11323 14825,9450 Z M 14827,9466 L 15095,9466 15095,11307 14827,11307 14827,9466 Z"/>
             <path fill="rgb(98,98,98)" stroke="none" d="M 14827,9466 L 15095,9466 15095,11307 14827,11307 14827,9466 Z M 14830,9483 L 15092,9483 15092,11290 14830,11290 14830,9483 Z"/>
             <path fill="rgb(99,99,99)" stroke="none" d="M 14830,9483 L 15092,9483 15092,11290 14830,11290 14830,9483 Z M 14832,9500 L 15090,9500 15090,11273 14832,11273 14832,9500 Z"/>
             <path fill="rgb(100,100,100)" stroke="none" d="M 14832,9500 L 15090,9500 15090,11273 14832,11273 14832,9500 Z M 14835,9517 L 15087,9517 15087,11256 14835,11256 14835,9517 Z"/>
             <path fill="rgb(101,101,101)" stroke="none" d="M 14835,9517 L 15087,9517 15087,11256 14835,11256 14835,9517 Z M 14837,9533 L 15085,9533 15085,11240 14837,11240 14837,9533 Z"/>
             <path fill="rgb(102,102,102)" stroke="none" d="M 14837,9533 L 15085,9533 15085,11240 14837,11240 14837,9533 Z M 14839,9550 L 15083,9550 15083,11223 14839,11223 14839,9550 Z"/>
             <path fill="rgb(103,103,103)" stroke="none" d="M 14839,9550 L 15083,9550 15083,11223 14839,11223 14839,9550 Z M 14842,9567 L 15080,9567 15080,11206 14842,11206 14842,9567 Z"/>
             <path fill="rgb(104,104,104)" stroke="none" d="M 14842,9567 L 15080,9567 15080,11206 14842,11206 14842,9567 Z M 14844,9583 L 15078,9583 15078,11190 14844,11190 14844,9583 Z"/>
             <path fill="rgb(105,105,105)" stroke="none" d="M 14844,9583 L 15078,9583 15078,11190 14844,11190 14844,9583 Z M 14847,9600 L 15075,9600 15075,11173 14847,11173 14847,9600 Z"/>
             <path fill="rgb(106,106,106)" stroke="none" d="M 14847,9600 L 15075,9600 15075,11173 14847,11173 14847,9600 Z M 14849,9617 L 15073,9617 15073,11156 14849,11156 14849,9617 Z"/>
             <path fill="rgb(107,107,107)" stroke="none" d="M 14849,9617 L 15073,9617 15073,11156 14849,11156 14849,9617 Z M 14852,9634 L 15070,9634 15070,11139 14852,11139 14852,9634 Z"/>
             <path fill="rgb(108,108,108)" stroke="none" d="M 14852,9634 L 15070,9634 15070,11139 14852,11139 14852,9634 Z M 14854,9650 L 15068,9650 15068,11123 14854,11123 14854,9650 Z"/>
             <path fill="rgb(109,109,109)" stroke="none" d="M 14854,9650 L 15068,9650 15068,11123 14854,11123 14854,9650 Z M 14857,9667 L 15065,9667 15065,11106 14857,11106 14857,9667 Z"/>
             <path fill="rgb(110,110,110)" stroke="none" d="M 14857,9667 L 15065,9667 15065,11106 14857,11106 14857,9667 Z M 14859,9684 L 15063,9684 15063,11089 14859,11089 14859,9684 Z"/>
             <path fill="rgb(111,111,111)" stroke="none" d="M 14859,9684 L 15063,9684 15063,11089 14859,11089 14859,9684 Z M 14861,9701 L 15061,9701 15061,11072 14861,11072 14861,9701 Z"/>
             <path fill="rgb(112,112,112)" stroke="none" d="M 14861,9701 L 15061,9701 15061,11072 14861,11072 14861,9701 Z M 14864,9717 L 15058,9717 15058,11056 14864,11056 14864,9717 Z"/>
             <path fill="rgb(113,113,113)" stroke="none" d="M 14864,9717 L 15058,9717 15058,11056 14864,11056 14864,9717 Z M 14866,9734 L 15056,9734 15056,11039 14866,11039 14866,9734 Z"/>
             <path fill="rgb(114,114,114)" stroke="none" d="M 14866,9734 L 15056,9734 15056,11039 14866,11039 14866,9734 Z M 14869,9751 L 15053,9751 15053,11022 14869,11022 14869,9751 Z"/>
             <path fill="rgb(115,115,115)" stroke="none" d="M 14869,9751 L 15053,9751 15053,11022 14869,11022 14869,9751 Z M 14871,9768 L 15051,9768 15051,11005 14871,11005 14871,9768 Z"/>
             <path fill="rgb(116,116,116)" stroke="none" d="M 14871,9768 L 15051,9768 15051,11005 14871,11005 14871,9768 Z M 14874,9784 L 15048,9784 15048,10989 14874,10989 14874,9784 Z"/>
             <path fill="rgb(117,117,117)" stroke="none" d="M 14874,9784 L 15048,9784 15048,10989 14874,10989 14874,9784 Z M 14876,9801 L 15046,9801 15046,10972 14876,10972 14876,9801 Z"/>
             <path fill="rgb(118,118,118)" stroke="none" d="M 14876,9801 L 15046,9801 15046,10972 14876,10972 14876,9801 Z M 14878,9818 L 15044,9818 15044,10955 14878,10955 14878,9818 Z"/>
             <path fill="rgb(119,119,119)" stroke="none" d="M 14878,9818 L 15044,9818 15044,10955 14878,10955 14878,9818 Z M 14881,9835 L 15041,9835 15041,10938 14881,10938 14881,9835 Z"/>
             <path fill="rgb(120,120,120)" stroke="none" d="M 14881,9835 L 15041,9835 15041,10938 14881,10938 14881,9835 Z M 14883,9851 L 15039,9851 15039,10922 14883,10922 14883,9851 Z"/>
             <path fill="rgb(121,121,121)" stroke="none" d="M 14883,9851 L 15039,9851 15039,10922 14883,10922 14883,9851 Z M 14886,9868 L 15036,9868 15036,10905 14886,10905 14886,9868 Z"/>
             <path fill="rgb(122,122,122)" stroke="none" d="M 14886,9868 L 15036,9868 15036,10905 14886,10905 14886,9868 Z M 14888,9885 L 15034,9885 15034,10888 14888,10888 14888,9885 Z"/>
             <path fill="rgb(123,123,123)" stroke="none" d="M 14888,9885 L 15034,9885 15034,10888 14888,10888 14888,9885 Z M 14891,9902 L 15031,9902 15031,10871 14891,10871 14891,9902 Z"/>
             <path fill="rgb(124,124,124)" stroke="none" d="M 14891,9902 L 15031,9902 15031,10871 14891,10871 14891,9902 Z M 14893,9918 L 15029,9918 15029,10855 14893,10855 14893,9918 Z"/>
             <path fill="rgb(125,125,125)" stroke="none" d="M 14893,9918 L 15029,9918 15029,10855 14893,10855 14893,9918 Z M 14896,9935 L 15026,9935 15026,10838 14896,10838 14896,9935 Z"/>
             <path fill="rgb(126,126,126)" stroke="none" d="M 14896,9935 L 15026,9935 15026,10838 14896,10838 14896,9935 Z M 14898,9952 L 15024,9952 15024,10821 14898,10821 14898,9952 Z"/>
             <path fill="rgb(127,127,127)" stroke="none" d="M 14898,9952 L 15024,9952 15024,10821 14898,10821 14898,9952 Z M 14900,9968 L 15022,9968 15022,10805 14900,10805 14900,9968 Z"/>
             <path fill="rgb(128,128,128)" stroke="none" d="M 14900,9968 L 15022,9968 15022,10805 14900,10805 14900,9968 Z M 14903,9985 L 15019,9985 15019,10788 14903,10788 14903,9985 Z"/>
             <path fill="rgb(129,129,129)" stroke="none" d="M 14903,9985 L 15019,9985 15019,10788 14903,10788 14903,9985 Z M 14905,10002 L 15017,10002 15017,10771 14905,10771 14905,10002 Z"/>
             <path fill="rgb(130,130,130)" stroke="none" d="M 14905,10002 L 15017,10002 15017,10771 14905,10771 14905,10002 Z M 14908,10019 L 15014,10019 15014,10754 14908,10754 14908,10019 Z"/>
             <path fill="rgb(131,131,131)" stroke="none" d="M 14908,10019 L 15014,10019 15014,10754 14908,10754 14908,10019 Z M 14910,10035 L 15012,10035 15012,10738 14910,10738 14910,10035 Z"/>
             <path fill="rgb(132,132,132)" stroke="none" d="M 14910,10035 L 15012,10035 15012,10738 14910,10738 14910,10035 Z M 14913,10052 L 15009,10052 15009,10721 14913,10721 14913,10052 Z"/>
             <path fill="rgb(133,133,133)" stroke="none" d="M 14913,10052 L 15009,10052 15009,10721 14913,10721 14913,10052 Z M 14915,10069 L 15007,10069 15007,10704 14915,10704 14915,10069 Z"/>
             <path fill="rgb(134,134,134)" stroke="none" d="M 14915,10069 L 15007,10069 15007,10704 14915,10704 14915,10069 Z M 14918,10086 L 15004,10086 15004,10687 14918,10687 14918,10086 Z"/>
             <path fill="rgb(135,135,135)" stroke="none" d="M 14918,10086 L 15004,10086 15004,10687 14918,10687 14918,10086 Z M 14920,10102 L 15002,10102 15002,10671 14920,10671 14920,10102 Z"/>
             <path fill="rgb(136,136,136)" stroke="none" d="M 14920,10102 L 15002,10102 15002,10671 14920,10671 14920,10102 Z M 14922,10119 L 15000,10119 15000,10654 14922,10654 14922,10119 Z"/>
             <path fill="rgb(137,137,137)" stroke="none" d="M 14922,10119 L 15000,10119 15000,10654 14922,10654 14922,10119 Z M 14925,10136 L 14997,10136 14997,10637 14925,10637 14925,10136 Z"/>
             <path fill="rgb(138,138,138)" stroke="none" d="M 14925,10136 L 14997,10136 14997,10637 14925,10637 14925,10136 Z M 14927,10153 L 14995,10153 14995,10620 14927,10620 14927,10153 Z"/>
             <path fill="rgb(139,139,139)" stroke="none" d="M 14927,10153 L 14995,10153 14995,10620 14927,10620 14927,10153 Z M 14930,10169 L 14992,10169 14992,10604 14930,10604 14930,10169 Z"/>
             <path fill="rgb(140,140,140)" stroke="none" d="M 14930,10169 L 14992,10169 14992,10604 14930,10604 14930,10169 Z M 14932,10186 L 14990,10186 14990,10587 14932,10587 14932,10186 Z"/>
             <path fill="rgb(141,141,141)" stroke="none" d="M 14932,10186 L 14990,10186 14990,10587 14932,10587 14932,10186 Z M 14935,10203 L 14987,10203 14987,10570 14935,10570 14935,10203 Z"/>
             <path fill="rgb(142,142,142)" stroke="none" d="M 14935,10203 L 14987,10203 14987,10570 14935,10570 14935,10203 Z M 14937,10220 L 14985,10220 14985,10553 14937,10553 14937,10220 Z"/>
             <path fill="rgb(143,143,143)" stroke="none" d="M 14937,10220 L 14985,10220 14985,10553 14937,10553 14937,10220 Z M 14940,10236 L 14982,10236 14982,10537 14940,10537 14940,10236 Z"/>
             <path fill="rgb(144,144,144)" stroke="none" d="M 14940,10236 L 14982,10236 14982,10537 14940,10537 14940,10236 Z M 14942,10253 L 14980,10253 14980,10520 14942,10520 14942,10253 Z"/>
             <path fill="rgb(145,145,145)" stroke="none" d="M 14942,10253 L 14980,10253 14980,10520 14942,10520 14942,10253 Z M 14944,10270 L 14978,10270 14978,10503 14944,10503 14944,10270 Z"/>
             <path fill="rgb(146,146,146)" stroke="none" d="M 14944,10270 L 14978,10270 14978,10503 14944,10503 14944,10270 Z M 14947,10287 L 14975,10287 14975,10486 14947,10486 14947,10287 Z"/>
             <path fill="rgb(147,147,147)" stroke="none" d="M 14947,10287 L 14975,10287 14975,10486 14947,10486 14947,10287 Z M 14949,10303 L 14973,10303 14973,10470 14949,10470 14949,10303 Z"/>
             <path fill="rgb(148,148,148)" stroke="none" d="M 14949,10303 L 14973,10303 14973,10470 14949,10470 14949,10303 Z M 14952,10320 L 14970,10320 14970,10453 14952,10453 14952,10320 Z"/>
             <path fill="rgb(149,149,149)" stroke="none" d="M 14952,10320 L 14970,10320 14970,10453 14952,10453 14952,10320 Z M 14954,10337 L 14968,10337 14968,10436 14954,10436 14954,10337 Z"/>
             <path fill="rgb(150,150,150)" stroke="none" d="M 14954,10337 L 14968,10337 14968,10436 14954,10436 14954,10337 Z M 14957,10354 L 14965,10354 14965,10419 14957,10419 14957,10354 Z"/>
             <path fill="rgb(151,151,151)" stroke="none" d="M 14957,10354 L 14965,10354 14965,10419 14957,10419 14957,10354 Z M 14959,10370 L 14963,10370 14963,10403 14959,10403 14959,10370 Z"/>
             <path fill="rgb(153,153,153)" stroke="none" d="M 14959,10370 L 14963,10370 14963,10403 14959,10403 14959,10370 Z"/>
            </g>
           </pattern>
          </defs>
          <path style="fill:url(#pattern1)" d="M 14814,12776 L 14827,9642 15309,9364 15309,12498 14814,12776 Z"/>
         </g>
         <path fill="none" stroke="rgb(178,178,178)" stroke-width="40" stroke-linejoin="round" d="M 14814,12776 L 14827,9642 15309,9364 15309,12498 14814,12776 Z"/>
        </g>
       </g>
       <g class="com.sun.star.drawing.PolyPolygonShape">
        <g id="id8">
         <rect class="BoundingBox" stroke="none" fill="none" x="11190" y="7255" width="4138" height="2409"/>
         <g>
          <defs>
           <linearGradient id="gradient3" x1="13258" y1="7275" x2="13258" y2="9643" gradientUnits="userSpaceOnUse">
            <stop offset="0.1" style="stop-color:rgb(51,51,51)"/>
            <stop offset="1" style="stop-color:rgb(153,153,153)"/>
           </linearGradient>
          </defs>
          <path style="fill:url(#gradient3)" d="M 14825,9643 L 11210,7553 11692,7275 15307,9364 14825,9643 Z"/>
         </g>
         <path fill="none" stroke="rgb(178,178,178)" stroke-width="40" stroke-linejoin="round" d="M 14825,9643 L 11210,7553 11692,7275 15307,9364 14825,9643 Z"/>
        </g>
       </g>
       <g class="com.sun.star.drawing.PolyPolygonShape">
        <g id="id9">
         <rect class="BoundingBox" stroke="none" fill="none" x="10829" y="7255" width="4018" height="2339"/>
         <g>
          <defs>
           <linearGradient id="gradient4" x1="12837" y1="7275" x2="12837" y2="9573" gradientUnits="userSpaceOnUse">
            <stop offset="0.1" style="stop-color:rgb(51,51,51)"/>
            <stop offset="1" style="stop-color:rgb(153,153,153)"/>
           </linearGradient>
          </defs>
          <path style="fill:url(#gradient4)" d="M 14705,9573 L 10849,7344 10969,7275 14826,9503 14705,9573 Z"/>
         </g>
         <path fill="none" stroke="rgb(178,178,178)" stroke-width="40" stroke-linejoin="round" d="M 14705,9573 L 10849,7344 10969,7275 14826,9503 14705,9573 Z"/>
        </g>
       </g>
       <g class="com.sun.star.drawing.PolyPolygonShape">
        <g id="id10">
         <rect class="BoundingBox" stroke="none" fill="none" x="14673" y="9483" width="174" height="3593"/>
         <g>
          <defs>
           <pattern id="pattern2" x="14693" y="9503" width="134" height="3553" patternUnits="userSpaceOnUse">
            <g transform="translate(-14693,-9503)">
             <path fill="rgb(51,51,51)" stroke="none" d="M 14692,9502 L 14827,9502 14827,13056 14692,13056 14692,9502 Z M 14665,8809 L 14798,8809 14798,12327 14665,12327 14665,8809 Z"/>
             <path fill="rgb(52,52,52)" stroke="none" d="M 14665,8809 L 14798,8809 14798,12327 14665,12327 14665,8809 Z M 14666,8826 L 14797,8826 14797,12310 14666,12310 14666,8826 Z"/>
             <path fill="rgb(53,53,53)" stroke="none" d="M 14666,8826 L 14797,8826 14797,12310 14666,12310 14666,8826 Z M 14666,8844 L 14796,8844 14796,12292 14666,12292 14666,8844 Z"/>
             <path fill="rgb(54,54,54)" stroke="none" d="M 14666,8844 L 14796,8844 14796,12292 14666,12292 14666,8844 Z M 14667,8861 L 14796,8861 14796,12275 14667,12275 14667,8861 Z"/>
             <path fill="rgb(55,55,55)" stroke="none" d="M 14667,8861 L 14796,8861 14796,12275 14667,12275 14667,8861 Z M 14668,8879 L 14795,8879 14795,12257 14668,12257 14668,8879 Z"/>
             <path fill="rgb(56,56,56)" stroke="none" d="M 14668,8879 L 14795,8879 14795,12257 14668,12257 14668,8879 Z M 14669,8896 L 14794,8896 14794,12240 14669,12240 14669,8896 Z"/>
             <path fill="rgb(57,57,57)" stroke="none" d="M 14669,8896 L 14794,8896 14794,12240 14669,12240 14669,8896 Z M 14669,8913 L 14794,8913 14794,12223 14669,12223 14669,8913 Z"/>
             <path fill="rgb(58,58,58)" stroke="none" d="M 14669,8913 L 14794,8913 14794,12223 14669,12223 14669,8913 Z M 14670,8931 L 14793,8931 14793,12205 14670,12205 14670,8931 Z"/>
             <path fill="rgb(59,59,59)" stroke="none" d="M 14670,8931 L 14793,8931 14793,12205 14670,12205 14670,8931 Z M 14671,8948 L 14792,8948 14792,12188 14671,12188 14671,8948 Z"/>
             <path fill="rgb(60,60,60)" stroke="none" d="M 14671,8948 L 14792,8948 14792,12188 14671,12188 14671,8948 Z M 14671,8966 L 14792,8966 14792,12170 14671,12170 14671,8966 Z"/>
             <path fill="rgb(61,61,61)" stroke="none" d="M 14671,8966 L 14792,8966 14792,12170 14671,12170 14671,8966 Z M 14672,8983 L 14791,8983 14791,12153 14672,12153 14672,8983 Z"/>
             <path fill="rgb(62,62,62)" stroke="none" d="M 14672,8983 L 14791,8983 14791,12153 14672,12153 14672,8983 Z M 14673,9001 L 14790,9001 14790,12135 14673,12135 14673,9001 Z"/>
             <path fill="rgb(63,63,63)" stroke="none" d="M 14673,9001 L 14790,9001 14790,12135 14673,12135 14673,9001 Z M 14673,9018 L 14790,9018 14790,12118 14673,12118 14673,9018 Z"/>
             <path fill="rgb(64,64,64)" stroke="none" d="M 14673,9018 L 14790,9018 14790,12118 14673,12118 14673,9018 Z M 14673,9035 L 14789,9035 14789,12101 14673,12101 14673,9035 Z"/>
             <path fill="rgb(65,65,65)" stroke="none" d="M 14673,9035 L 14789,9035 14789,12101 14673,12101 14673,9035 Z M 14674,9053 L 14788,9053 14788,12083 14674,12083 14674,9053 Z"/>
             <path fill="rgb(66,66,66)" stroke="none" d="M 14674,9053 L 14788,9053 14788,12083 14674,12083 14674,9053 Z M 14674,9070 L 14788,9070 14788,12066 14674,12066 14674,9070 Z"/>
             <path fill="rgb(67,67,67)" stroke="none" d="M 14674,9070 L 14788,9070 14788,12066 14674,12066 14674,9070 Z M 14675,9088 L 14787,9088 14787,12048 14675,12048 14675,9088 Z"/>
             <path fill="rgb(68,68,68)" stroke="none" d="M 14675,9088 L 14787,9088 14787,12048 14675,12048 14675,9088 Z M 14676,9105 L 14786,9105 14786,12031 14676,12031 14676,9105 Z"/>
             <path fill="rgb(69,69,69)" stroke="none" d="M 14676,9105 L 14786,9105 14786,12031 14676,12031 14676,9105 Z M 14676,9123 L 14786,9123 14786,12013 14676,12013 14676,9123 Z"/>
             <path fill="rgb(70,70,70)" stroke="none" d="M 14676,9123 L 14786,9123 14786,12013 14676,12013 14676,9123 Z M 14677,9140 L 14785,9140 14785,11996 14677,11996 14677,9140 Z"/>
             <path fill="rgb(71,71,71)" stroke="none" d="M 14677,9140 L 14785,9140 14785,11996 14677,11996 14677,9140 Z M 14678,9157 L 14784,9157 14784,11979 14678,11979 14678,9157 Z"/>
             <path fill="rgb(72,72,72)" stroke="none" d="M 14678,9157 L 14784,9157 14784,11979 14678,11979 14678,9157 Z M 14678,9175 L 14784,9175 14784,11961 14678,11961 14678,9175 Z"/>
             <path fill="rgb(73,73,73)" stroke="none" d="M 14678,9175 L 14784,9175 14784,11961 14678,11961 14678,9175 Z M 14679,9192 L 14783,9192 14783,11944 14679,11944 14679,9192 Z"/>
             <path fill="rgb(74,74,74)" stroke="none" d="M 14679,9192 L 14783,9192 14783,11944 14679,11944 14679,9192 Z M 14680,9210 L 14782,9210 14782,11926 14680,11926 14680,9210 Z"/>
             <path fill="rgb(75,75,75)" stroke="none" d="M 14680,9210 L 14782,9210 14782,11926 14680,11926 14680,9210 Z M 14680,9227 L 14782,9227 14782,11909 14680,11909 14680,9227 Z"/>
             <path fill="rgb(76,76,76)" stroke="none" d="M 14680,9227 L 14782,9227 14782,11909 14680,11909 14680,9227 Z M 14681,9245 L 14781,9245 14781,11891 14681,11891 14681,9245 Z"/>
             <path fill="rgb(77,77,77)" stroke="none" d="M 14681,9245 L 14781,9245 14781,11891 14681,11891 14681,9245 Z M 14682,9262 L 14780,9262 14780,11874 14682,11874 14682,9262 Z"/>
             <path fill="rgb(78,78,78)" stroke="none" d="M 14682,9262 L 14780,9262 14780,11874 14682,11874 14682,9262 Z M 14682,9279 L 14780,9279 14780,11857 14682,11857 14682,9279 Z"/>
             <path fill="rgb(79,79,79)" stroke="none" d="M 14682,9279 L 14780,9279 14780,11857 14682,11857 14682,9279 Z M 14683,9297 L 14779,9297 14779,11839 14683,11839 14683,9297 Z"/>
             <path fill="rgb(80,80,80)" stroke="none" d="M 14683,9297 L 14779,9297 14779,11839 14683,11839 14683,9297 Z M 14683,9314 L 14778,9314 14778,11822 14683,11822 14683,9314 Z"/>
             <path fill="rgb(81,81,81)" stroke="none" d="M 14683,9314 L 14778,9314 14778,11822 14683,11822 14683,9314 Z M 14684,9332 L 14778,9332 14778,11804 14684,11804 14684,9332 Z"/>
             <path fill="rgb(82,82,82)" stroke="none" d="M 14684,9332 L 14778,9332 14778,11804 14684,11804 14684,9332 Z M 14685,9349 L 14777,9349 14777,11787 14685,11787 14685,9349 Z"/>
             <path fill="rgb(83,83,83)" stroke="none" d="M 14685,9349 L 14777,9349 14777,11787 14685,11787 14685,9349 Z M 14685,9367 L 14776,9367 14776,11769 14685,11769 14685,9367 Z"/>
             <path fill="rgb(84,84,84)" stroke="none" d="M 14685,9367 L 14776,9367 14776,11769 14685,11769 14685,9367 Z M 14686,9384 L 14776,9384 14776,11752 14686,11752 14686,9384 Z"/>
             <path fill="rgb(85,85,85)" stroke="none" d="M 14686,9384 L 14776,9384 14776,11752 14686,11752 14686,9384 Z M 14687,9401 L 14775,9401 14775,11735 14687,11735 14687,9401 Z"/>
             <path fill="rgb(86,86,86)" stroke="none" d="M 14687,9401 L 14775,9401 14775,11735 14687,11735 14687,9401 Z M 14687,9419 L 14774,9419 14774,11717 14687,11717 14687,9419 Z"/>
             <path fill="rgb(87,87,87)" stroke="none" d="M 14687,9419 L 14774,9419 14774,11717 14687,11717 14687,9419 Z M 14688,9436 L 14774,9436 14774,11700 14688,11700 14688,9436 Z"/>
             <path fill="rgb(88,88,88)" stroke="none" d="M 14688,9436 L 14774,9436 14774,11700 14688,11700 14688,9436 Z M 14689,9454 L 14773,9454 14773,11682 14689,11682 14689,9454 Z"/>
             <path fill="rgb(89,89,89)" stroke="none" d="M 14689,9454 L 14773,9454 14773,11682 14689,11682 14689,9454 Z M 14689,9471 L 14772,9471 14772,11665 14689,11665 14689,9471 Z"/>
             <path fill="rgb(90,90,90)" stroke="none" d="M 14689,9471 L 14772,9471 14772,11665 14689,11665 14689,9471 Z M 14690,9488 L 14772,9488 14772,11647 14690,11647 14690,9488 Z"/>
             <path fill="rgb(91,91,91)" stroke="none" d="M 14690,9488 L 14772,9488 14772,11647 14690,11647 14690,9488 Z M 14691,9505 L 14771,9505 14771,11630 14691,11630 14691,9505 Z"/>
             <path fill="rgb(92,92,92)" stroke="none" d="M 14691,9505 L 14771,9505 14771,11630 14691,11630 14691,9505 Z M 14692,9522 L 14770,9522 14770,11613 14692,11613 14692,9522 Z"/>
             <path fill="rgb(93,93,93)" stroke="none" d="M 14692,9522 L 14770,9522 14770,11613 14692,11613 14692,9522 Z M 14692,9540 L 14770,9540 14770,11595 14692,11595 14692,9540 Z"/>
             <path fill="rgb(94,94,94)" stroke="none" d="M 14692,9540 L 14770,9540 14770,11595 14692,11595 14692,9540 Z M 14693,9557 L 14769,9557 14769,11578 14693,11578 14693,9557 Z"/>
             <path fill="rgb(95,95,95)" stroke="none" d="M 14693,9557 L 14769,9557 14769,11578 14693,11578 14693,9557 Z M 14694,9575 L 14768,9575 14768,11560 14694,11560 14694,9575 Z"/>
             <path fill="rgb(96,96,96)" stroke="none" d="M 14694,9575 L 14768,9575 14768,11560 14694,11560 14694,9575 Z M 14694,9592 L 14768,9592 14768,11543 14694,11543 14694,9592 Z"/>
             <path fill="rgb(97,97,97)" stroke="none" d="M 14694,9592 L 14768,9592 14768,11543 14694,11543 14694,9592 Z M 14695,9610 L 14767,9610 14767,11525 14695,11525 14695,9610 Z"/>
             <path fill="rgb(98,98,98)" stroke="none" d="M 14695,9610 L 14767,9610 14767,11525 14695,11525 14695,9610 Z M 14696,9627 L 14766,9627 14766,11508 14696,11508 14696,9627 Z"/>
             <path fill="rgb(99,99,99)" stroke="none" d="M 14696,9627 L 14766,9627 14766,11508 14696,11508 14696,9627 Z M 14696,9644 L 14766,9644 14766,11491 14696,11491 14696,9644 Z"/>
             <path fill="rgb(100,100,100)" stroke="none" d="M 14696,9644 L 14766,9644 14766,11491 14696,11491 14696,9644 Z M 14697,9662 L 14765,9662 14765,11473 14697,11473 14697,9662 Z"/>
             <path fill="rgb(101,101,101)" stroke="none" d="M 14697,9662 L 14765,9662 14765,11473 14697,11473 14697,9662 Z M 14698,9679 L 14764,9679 14764,11456 14698,11456 14698,9679 Z"/>
             <path fill="rgb(102,102,102)" stroke="none" d="M 14698,9679 L 14764,9679 14764,11456 14698,11456 14698,9679 Z M 14698,9697 L 14764,9697 14764,11438 14698,11438 14698,9697 Z"/>
             <path fill="rgb(103,103,103)" stroke="none" d="M 14698,9697 L 14764,9697 14764,11438 14698,11438 14698,9697 Z M 14699,9714 L 14763,9714 14763,11421 14699,11421 14699,9714 Z"/>
             <path fill="rgb(104,104,104)" stroke="none" d="M 14699,9714 L 14763,9714 14763,11421 14699,11421 14699,9714 Z M 14700,9732 L 14762,9732 14762,11403 14700,11403 14700,9732 Z"/>
             <path fill="rgb(105,105,105)" stroke="none" d="M 14700,9732 L 14762,9732 14762,11403 14700,11403 14700,9732 Z M 14700,9749 L 14762,9749 14762,11386 14700,11386 14700,9749 Z"/>
             <path fill="rgb(106,106,106)" stroke="none" d="M 14700,9749 L 14762,9749 14762,11386 14700,11386 14700,9749 Z M 14701,9766 L 14761,9766 14761,11369 14701,11369 14701,9766 Z"/>
             <path fill="rgb(107,107,107)" stroke="none" d="M 14701,9766 L 14761,9766 14761,11369 14701,11369 14701,9766 Z M 14702,9784 L 14760,9784 14760,11351 14702,11351 14702,9784 Z"/>
             <path fill="rgb(108,108,108)" stroke="none" d="M 14702,9784 L 14760,9784 14760,11351 14702,11351 14702,9784 Z M 14702,9801 L 14760,9801 14760,11334 14702,11334 14702,9801 Z"/>
             <path fill="rgb(109,109,109)" stroke="none" d="M 14702,9801 L 14760,9801 14760,11334 14702,11334 14702,9801 Z M 14703,9819 L 14759,9819 14759,11316 14703,11316 14703,9819 Z"/>
             <path fill="rgb(110,110,110)" stroke="none" d="M 14703,9819 L 14759,9819 14759,11316 14703,11316 14703,9819 Z M 14704,9836 L 14758,9836 14758,11299 14704,11299 14704,9836 Z"/>
             <path fill="rgb(111,111,111)" stroke="none" d="M 14704,9836 L 14758,9836 14758,11299 14704,11299 14704,9836 Z M 14704,9854 L 14758,9854 14758,11281 14704,11281 14704,9854 Z"/>
             <path fill="rgb(112,112,112)" stroke="none" d="M 14704,9854 L 14758,9854 14758,11281 14704,11281 14704,9854 Z M 14705,9871 L 14757,9871 14757,11264 14705,11264 14705,9871 Z"/>
             <path fill="rgb(113,113,113)" stroke="none" d="M 14705,9871 L 14757,9871 14757,11264 14705,11264 14705,9871 Z M 14706,9888 L 14756,9888 14756,11247 14706,11247 14706,9888 Z"/>
             <path fill="rgb(114,114,114)" stroke="none" d="M 14706,9888 L 14756,9888 14756,11247 14706,11247 14706,9888 Z M 14706,9906 L 14756,9906 14756,11229 14706,11229 14706,9906 Z"/>
             <path fill="rgb(115,115,115)" stroke="none" d="M 14706,9906 L 14756,9906 14756,11229 14706,11229 14706,9906 Z M 14707,9923 L 14755,9923 14755,11212 14707,11212 14707,9923 Z"/>
             <path fill="rgb(116,116,116)" stroke="none" d="M 14707,9923 L 14755,9923 14755,11212 14707,11212 14707,9923 Z M 14708,9941 L 14754,9941 14754,11194 14708,11194 14708,9941 Z"/>
             <path fill="rgb(117,117,117)" stroke="none" d="M 14708,9941 L 14754,9941 14754,11194 14708,11194 14708,9941 Z M 14708,9958 L 14754,9958 14754,11177 14708,11177 14708,9958 Z"/>
             <path fill="rgb(118,118,118)" stroke="none" d="M 14708,9958 L 14754,9958 14754,11177 14708,11177 14708,9958 Z M 14709,9975 L 14753,9975 14753,11160 14709,11160 14709,9975 Z"/>
             <path fill="rgb(119,119,119)" stroke="none" d="M 14709,9975 L 14753,9975 14753,11160 14709,11160 14709,9975 Z M 14710,9993 L 14752,9993 14752,11142 14710,11142 14710,9993 Z"/>
             <path fill="rgb(120,120,120)" stroke="none" d="M 14710,9993 L 14752,9993 14752,11142 14710,11142 14710,9993 Z M 14710,10010 L 14752,10010 14752,11125 14710,11125 14710,10010 Z"/>
             <path fill="rgb(121,121,121)" stroke="none" d="M 14710,10010 L 14752,10010 14752,11125 14710,11125 14710,10010 Z M 14711,10028 L 14751,10028 14751,11107 14711,11107 14711,10028 Z"/>
             <path fill="rgb(122,122,122)" stroke="none" d="M 14711,10028 L 14751,10028 14751,11107 14711,11107 14711,10028 Z M 14712,10045 L 14750,10045 14750,11090 14712,11090 14712,10045 Z"/>
             <path fill="rgb(123,123,123)" stroke="none" d="M 14712,10045 L 14750,10045 14750,11090 14712,11090 14712,10045 Z M 14712,10063 L 14750,10063 14750,11072 14712,11072 14712,10063 Z"/>
             <path fill="rgb(124,124,124)" stroke="none" d="M 14712,10063 L 14750,10063 14750,11072 14712,11072 14712,10063 Z M 14713,10080 L 14749,10080 14749,11055 14713,11055 14713,10080 Z"/>
             <path fill="rgb(125,125,125)" stroke="none" d="M 14713,10080 L 14749,10080 14749,11055 14713,11055 14713,10080 Z M 14713,10097 L 14748,10097 14748,11038 14713,11038 14713,10097 Z"/>
             <path fill="rgb(126,126,126)" stroke="none" d="M 14713,10097 L 14748,10097 14748,11038 14713,11038 14713,10097 Z M 14714,10115 L 14748,10115 14748,11020 14714,11020 14714,10115 Z"/>
             <path fill="rgb(127,127,127)" stroke="none" d="M 14714,10115 L 14748,10115 14748,11020 14714,11020 14714,10115 Z M 14715,10132 L 14747,10132 14747,11003 14715,11003 14715,10132 Z"/>
             <path fill="rgb(128,128,128)" stroke="none" d="M 14715,10132 L 14747,10132 14747,11003 14715,11003 14715,10132 Z M 14715,10150 L 14746,10150 14746,10985 14715,10985 14715,10150 Z"/>
             <path fill="rgb(129,129,129)" stroke="none" d="M 14715,10150 L 14746,10150 14746,10985 14715,10985 14715,10150 Z M 14716,10167 L 14746,10167 14746,10968 14716,10968 14716,10167 Z"/>
             <path fill="rgb(130,130,130)" stroke="none" d="M 14716,10167 L 14746,10167 14746,10968 14716,10968 14716,10167 Z M 14717,10185 L 14745,10185 14745,10950 14717,10950 14717,10185 Z"/>
             <path fill="rgb(131,131,131)" stroke="none" d="M 14717,10185 L 14745,10185 14745,10950 14717,10950 14717,10185 Z M 14717,10202 L 14744,10202 14744,10933 14717,10933 14717,10202 Z"/>
             <path fill="rgb(132,132,132)" stroke="none" d="M 14717,10202 L 14744,10202 14744,10933 14717,10933 14717,10202 Z M 14718,10219 L 14744,10219 14744,10916 14718,10916 14718,10219 Z"/>
             <path fill="rgb(133,133,133)" stroke="none" d="M 14718,10219 L 14744,10219 14744,10916 14718,10916 14718,10219 Z M 14719,10237 L 14743,10237 14743,10898 14719,10898 14719,10237 Z"/>
             <path fill="rgb(134,134,134)" stroke="none" d="M 14719,10237 L 14743,10237 14743,10898 14719,10898 14719,10237 Z M 14719,10254 L 14742,10254 14742,10881 14719,10881 14719,10254 Z"/>
             <path fill="rgb(135,135,135)" stroke="none" d="M 14719,10254 L 14742,10254 14742,10881 14719,10881 14719,10254 Z M 14720,10272 L 14742,10272 14742,10863 14720,10863 14720,10272 Z"/>
             <path fill="rgb(136,136,136)" stroke="none" d="M 14720,10272 L 14742,10272 14742,10863 14720,10863 14720,10272 Z M 14721,10289 L 14741,10289 14741,10846 14721,10846 14721,10289 Z"/>
             <path fill="rgb(137,137,137)" stroke="none" d="M 14721,10289 L 14741,10289 14741,10846 14721,10846 14721,10289 Z M 14721,10307 L 14740,10307 14740,10828 14721,10828 14721,10307 Z"/>
             <path fill="rgb(138,138,138)" stroke="none" d="M 14721,10307 L 14740,10307 14740,10828 14721,10828 14721,10307 Z M 14722,10324 L 14740,10324 14740,10811 14722,10811 14722,10324 Z"/>
             <path fill="rgb(139,139,139)" stroke="none" d="M 14722,10324 L 14740,10324 14740,10811 14722,10811 14722,10324 Z M 14723,10341 L 14739,10341 14739,10794 14723,10794 14723,10341 Z"/>
             <path fill="rgb(140,140,140)" stroke="none" d="M 14723,10341 L 14739,10341 14739,10794 14723,10794 14723,10341 Z M 14723,10359 L 14738,10359 14738,10776 14723,10776 14723,10359 Z"/>
             <path fill="rgb(141,141,141)" stroke="none" d="M 14723,10359 L 14738,10359 14738,10776 14723,10776 14723,10359 Z M 14724,10376 L 14738,10376 14738,10759 14724,10759 14724,10376 Z"/>
             <path fill="rgb(142,142,142)" stroke="none" d="M 14724,10376 L 14738,10376 14738,10759 14724,10759 14724,10376 Z M 14725,10394 L 14737,10394 14737,10741 14725,10741 14725,10394 Z"/>
             <path fill="rgb(143,143,143)" stroke="none" d="M 14725,10394 L 14737,10394 14737,10741 14725,10741 14725,10394 Z M 14725,10411 L 14736,10411 14736,10724 14725,10724 14725,10411 Z"/>
             <path fill="rgb(144,144,144)" stroke="none" d="M 14725,10411 L 14736,10411 14736,10724 14725,10724 14725,10411 Z M 14726,10429 L 14736,10429 14736,10706 14726,10706 14726,10429 Z"/>
             <path fill="rgb(145,145,145)" stroke="none" d="M 14726,10429 L 14736,10429 14736,10706 14726,10706 14726,10429 Z M 14727,10446 L 14735,10446 14735,10689 14727,10689 14727,10446 Z"/>
             <path fill="rgb(146,146,146)" stroke="none" d="M 14727,10446 L 14735,10446 14735,10689 14727,10689 14727,10446 Z M 14727,10463 L 14734,10463 14734,10672 14727,10672 14727,10463 Z"/>
             <path fill="rgb(147,147,147)" stroke="none" d="M 14727,10463 L 14734,10463 14734,10672 14727,10672 14727,10463 Z M 14728,10481 L 14734,10481 14734,10654 14728,10654 14728,10481 Z"/>
             <path fill="rgb(148,148,148)" stroke="none" d="M 14728,10481 L 14734,10481 14734,10654 14728,10654 14728,10481 Z M 14729,10498 L 14733,10498 14733,10637 14729,10637 14729,10498 Z"/>
             <path fill="rgb(149,149,149)" stroke="none" d="M 14729,10498 L 14733,10498 14733,10637 14729,10637 14729,10498 Z M 14729,10516 L 14732,10516 14732,10619 14729,10619 14729,10516 Z"/>
             <path fill="rgb(150,150,150)" stroke="none" d="M 14729,10516 L 14732,10516 14732,10619 14729,10619 14729,10516 Z M 14730,10533 L 14732,10533 14732,10602 14730,10602 14730,10533 Z"/>
             <path fill="rgb(153,153,153)" stroke="none" d="M 14730,10533 L 14732,10533 14732,10602 14730,10602 14730,10533 Z"/>
            </g>
           </pattern>
          </defs>
          <path style="fill:url(#pattern2)" d="M 14693,13055 L 14706,9572 14826,9503 14826,12985 14693,13055 Z"/>
         </g>
         <path fill="none" stroke="rgb(178,178,178)" stroke-width="40" stroke-linejoin="round" d="M 14693,13055 L 14706,9572 14826,9503 14826,12985 14693,13055 Z"/>
        </g>
       </g>
       <g class="com.sun.star.drawing.LineShape">
        <g id="id11">
         <rect class="BoundingBox" stroke="none" fill="none" x="11431" y="7464" width="3536" height="2061"/>
         <path fill="none" stroke="rgb(102,102,102)" stroke-width="40" stroke-linejoin="round" d="M 11451,7484 L 14946,9504"/>
        </g>
       </g>
       <g class="com.sun.star.drawing.LineShape">
        <g id="id12">
         <rect class="BoundingBox" stroke="none" fill="none" x="11672" y="7324" width="3536" height="2061"/>
         <path fill="none" stroke="rgb(102,102,102)" stroke-width="40" stroke-linejoin="round" d="M 11692,7344 L 15187,9364"/>
        </g>
       </g>
       <g class="com.sun.star.drawing.LineShape">
        <g id="id13">
         <rect class="BoundingBox" stroke="none" fill="none" x="11552" y="7395" width="3536" height="2061"/>
         <path fill="none" stroke="rgb(102,102,102)" stroke-width="40" stroke-linejoin="round" d="M 11572,7415 L 15067,9435"/>
        </g>
       </g>
       <g class="com.sun.star.drawing.PolyPolygonShape">
        <g id="id14">
         <rect class="BoundingBox" stroke="none" fill="none" x="11070" y="10458" width="282" height="319"/>
         <path fill="rgb(102,102,102)" stroke="none" d="M 11090,10618 L 11090,10478 11331,10618 11331,10756 11090,10618 Z"/>
         <path fill="none" stroke="rgb(178,178,178)" stroke-width="40" stroke-linejoin="round" d="M 11090,10618 L 11090,10478 11331,10618 11331,10756 11090,10618 Z"/>
        </g>
       </g>
       <g class="com.sun.star.drawing.PolyPolygonShape">
        <g id="id15">
         <rect class="BoundingBox" stroke="none" fill="none" x="11431" y="10667" width="282" height="319"/>
         <path fill="rgb(102,102,102)" stroke="none" d="M 11451,10827 L 11451,10687 11692,10827 11692,10965 11451,10827 Z"/>
         <path fill="none" stroke="rgb(178,178,178)" stroke-width="40" stroke-linejoin="round" d="M 11451,10827 L 11451,10687 11692,10827 11692,10965 11451,10827 Z"/>
        </g>
       </g>
       <g class="com.sun.star.drawing.PolyPolygonShape">
        <g id="id16">
         <rect class="BoundingBox" stroke="none" fill="none" x="11793" y="10876" width="282" height="320"/>
         <path fill="rgb(102,102,102)" stroke="none" d="M 11813,11036 L 11813,10896 12054,11036 12054,11174 11813,11036 Z"/>
         <path fill="none" stroke="rgb(178,178,178)" stroke-width="40" stroke-linejoin="round" d="M 11813,11036 L 11813,10896 12054,11036 12054,11174 11813,11036 Z"/>
        </g>
       </g>
       <g class="com.sun.star.drawing.PolyPolygonShape">
        <g id="id17">
         <rect class="BoundingBox" stroke="none" fill="none" x="12154" y="11085" width="282" height="319"/>
         <path fill="rgb(102,102,102)" stroke="none" d="M 12174,11245 L 12174,11105 12415,11245 12415,11383 12174,11245 Z"/>
         <path fill="none" stroke="rgb(178,178,178)" stroke-width="40" stroke-linejoin="round" d="M 12174,11245 L 12174,11105 12415,11245 12415,11383 12174,11245 Z"/>
        </g>
       </g>
       <g class="com.sun.star.drawing.PolyPolygonShape">
        <g id="id18">
         <rect class="BoundingBox" stroke="none" fill="none" x="12517" y="11294" width="282" height="319"/>
         <path fill="rgb(102,102,102)" stroke="none" d="M 12537,11454 L 12537,11314 12778,11454 12778,11592 12537,11454 Z"/>
         <path fill="none" stroke="rgb(178,178,178)" stroke-width="40" stroke-linejoin="round" d="M 12537,11454 L 12537,11314 12778,11454 12778,11592 12537,11454 Z"/>
        </g>
       </g>
       <g class="com.sun.star.drawing.PolyPolygonShape">
        <g id="id19">
         <rect class="BoundingBox" stroke="none" fill="none" x="12878" y="11503" width="282" height="320"/>
         <path fill="rgb(102,102,102)" stroke="none" d="M 12898,11663 L 12898,11523 13139,11663 13139,11801 12898,11663 Z"/>
         <path fill="none" stroke="rgb(178,178,178)" stroke-width="40" stroke-linejoin="round" d="M 12898,11663 L 12898,11523 13139,11663 13139,11801 12898,11663 Z"/>
        </g>
       </g>
       <g class="com.sun.star.drawing.PolyPolygonShape">
        <g id="id20">
         <rect class="BoundingBox" stroke="none" fill="none" x="13239" y="11712" width="282" height="319"/>
         <path fill="rgb(102,102,102)" stroke="none" d="M 13259,11872 L 13259,11732 13500,11872 13500,12010 13259,11872 Z"/>
         <path fill="none" stroke="rgb(178,178,178)" stroke-width="40" stroke-linejoin="round" d="M 13259,11872 L 13259,11732 13500,11872 13500,12010 13259,11872 Z"/>
        </g>
       </g>
       <g class="com.sun.star.drawing.PolyPolygonShape">
        <g id="id21">
         <rect class="BoundingBox" stroke="none" fill="none" x="13842" y="12060" width="282" height="319"/>
         <path fill="rgb(178,178,178)" stroke="none" d="M 13862,12220 L 13862,12080 14103,12220 14103,12358 13862,12220 Z"/>
         <path fill="none" stroke="rgb(102,102,102)" stroke-width="40" stroke-linejoin="round" d="M 13862,12220 L 13862,12080 14103,12220 14103,12358 13862,12220 Z"/>
        </g>
       </g>
       <g class="com.sun.star.drawing.PolyPolygonShape">
        <g id="id22">
         <rect class="BoundingBox" stroke="none" fill="none" x="14324" y="9623" width="282" height="319"/>
         <path fill="rgb(178,178,178)" stroke="none" d="M 14344,9783 L 14344,9643 14585,9783 14585,9921 14344,9783 Z"/>
         <path fill="none" stroke="rgb(102,102,102)" stroke-width="40" stroke-linejoin="round" d="M 14344,9783 L 14344,9643 14585,9783 14585,9921 14344,9783 Z"/>
        </g>
       </g>
       <g class="com.sun.star.drawing.PolyPolygonShape">
        <g id="id23">
         <rect class="BoundingBox" stroke="none" fill="none" x="14324" y="9832" width="282" height="320"/>
         <path fill="rgb(178,178,178)" stroke="none" d="M 14344,9992 L 14344,9852 14585,9992 14585,10130 14344,9992 Z"/>
         <path fill="none" stroke="rgb(102,102,102)" stroke-width="40" stroke-linejoin="round" d="M 14344,9992 L 14344,9852 14585,9992 14585,10130 14344,9992 Z"/>
        </g>
       </g>
       <g class="com.sun.star.drawing.PolyPolygonShape">
        <g id="id24">
         <rect class="BoundingBox" stroke="none" fill="none" x="14324" y="10041" width="282" height="319"/>
         <path fill="rgb(178,178,178)" stroke="none" d="M 14344,10201 L 14344,10061 14585,10201 14585,10339 14344,10201 Z"/>
         <path fill="none" stroke="rgb(102,102,102)" stroke-width="40" stroke-linejoin="round" d="M 14344,10201 L 14344,10061 14585,10201 14585,10339 14344,10201 Z"/>
        </g>
       </g>
       <g class="com.sun.star.drawing.PolyPolygonShape">
        <g id="id25">
         <rect class="BoundingBox" stroke="none" fill="none" x="14324" y="10249" width="282" height="320"/>
         <path fill="rgb(178,178,178)" stroke="none" d="M 14344,10409 L 14344,10269 14585,10409 14585,10547 14344,10409 Z"/>
         <path fill="none" stroke="rgb(102,102,102)" stroke-width="40" stroke-linejoin="round" d="M 14344,10409 L 14344,10269 14585,10409 14585,10547 14344,10409 Z"/>
        </g>
       </g>
       <g class="com.sun.star.drawing.PolyPolygonShape">
        <g id="id26">
         <rect class="BoundingBox" stroke="none" fill="none" x="14324" y="10458" width="282" height="319"/>
         <path fill="rgb(178,178,178)" stroke="none" d="M 14344,10618 L 14344,10478 14585,10618 14585,10756 14344,10618 Z"/>
         <path fill="none" stroke="rgb(102,102,102)" stroke-width="40" stroke-linejoin="round" d="M 14344,10618 L 14344,10478 14585,10618 14585,10756 14344,10618 Z"/>
        </g>
       </g>
       <g class="com.sun.star.drawing.PolyPolygonShape">
        <g id="id27">
         <rect class="BoundingBox" stroke="none" fill="none" x="14324" y="10667" width="282" height="319"/>
         <path fill="rgb(178,178,178)" stroke="none" d="M 14344,10827 L 14344,10687 14585,10827 14585,10965 14344,10827 Z"/>
         <path fill="none" stroke="rgb(102,102,102)" stroke-width="40" stroke-linejoin="round" d="M 14344,10827 L 14344,10687 14585,10827 14585,10965 14344,10827 Z"/>
        </g>
       </g>
       <g class="com.sun.star.drawing.PolyPolygonShape">
        <g id="id28">
         <rect class="BoundingBox" stroke="none" fill="none" x="14324" y="10876" width="282" height="320"/>
         <path fill="rgb(178,178,178)" stroke="none" d="M 14344,11036 L 14344,10896 14585,11036 14585,11174 14344,11036 Z"/>
         <path fill="none" stroke="rgb(102,102,102)" stroke-width="40" stroke-linejoin="round" d="M 14344,11036 L 14344,10896 14585,11036 14585,11174 14344,11036 Z"/>
        </g>
       </g>
       <g class="com.sun.star.drawing.PolyPolygonShape">
        <g id="id29">
         <rect class="BoundingBox" stroke="none" fill="none" x="14324" y="11085" width="282" height="319"/>
         <path fill="rgb(178,178,178)" stroke="none" d="M 14344,11245 L 14344,11105 14585,11245 14585,11383 14344,11245 Z"/>
         <path fill="none" stroke="rgb(102,102,102)" stroke-width="40" stroke-linejoin="round" d="M 14344,11245 L 14344,11105 14585,11245 14585,11383 14344,11245 Z"/>
        </g>
       </g>
       <g class="com.sun.star.drawing.PolyPolygonShape">
        <g id="id30">
         <rect class="BoundingBox" stroke="none" fill="none" x="14324" y="11294" width="282" height="319"/>
         <path fill="rgb(178,178,178)" stroke="none" d="M 14344,11454 L 14344,11314 14585,11454 14585,11592 14344,11454 Z"/>
         <path fill="none" stroke="rgb(102,102,102)" stroke-width="40" stroke-linejoin="round" d="M 14344,11454 L 14344,11314 14585,11454 14585,11592 14344,11454 Z"/>
        </g>
       </g>
       <g class="com.sun.star.drawing.PolyPolygonShape">
        <g id="id31">
         <rect class="BoundingBox" stroke="none" fill="none" x="14444" y="12409" width="161" height="250"/>
         <path fill="rgb(127,127,127)" stroke="none" d="M 14464,12569 L 14464,12429 14584,12498 14584,12638 14464,12569 Z"/>
         <path fill="none" stroke="rgb(102,102,102)" stroke-width="40" stroke-linejoin="round" d="M 14464,12569 L 14464,12429 14584,12498 14584,12638 14464,12569 Z"/>
        </g>
       </g>
       <g class="com.sun.star.drawing.PolyPolygonShape">
        <g id="id32">
         <rect class="BoundingBox" stroke="none" fill="none" x="14324" y="11503" width="282" height="320"/>
         <path fill="rgb(178,178,178)" stroke="none" d="M 14344,11663 L 14344,11523 14585,11663 14585,11801 14344,11663 Z"/>
         <path fill="none" stroke="rgb(102,102,102)" stroke-width="40" stroke-linejoin="round" d="M 14344,11663 L 14344,11523 14585,11663 14585,11801 14344,11663 Z"/>
        </g>
       </g>
       <g class="com.sun.star.drawing.PolyPolygonShape">
        <g id="id33">
         <rect class="BoundingBox" stroke="none" fill="none" x="14324" y="11712" width="282" height="319"/>
         <path fill="rgb(178,178,178)" stroke="none" d="M 14344,11872 L 14344,11732 14585,11872 14585,12010 14344,11872 Z"/>
         <path fill="none" stroke="rgb(102,102,102)" stroke-width="40" stroke-linejoin="round" d="M 14344,11872 L 14344,11732 14585,11872 14585,12010 14344,11872 Z"/>
        </g>
       </g>
       <g class="com.sun.star.drawing.PolyPolygonShape">
        <g id="id34">
         <rect class="BoundingBox" stroke="none" fill="none" x="14324" y="11921" width="282" height="319"/>
         <path fill="rgb(178,178,178)" stroke="none" d="M 14344,12081 L 14344,11941 14585,12081 14585,12219 14344,12081 Z"/>
         <path fill="none" stroke="rgb(102,102,102)" stroke-width="40" stroke-linejoin="round" d="M 14344,12081 L 14344,11941 14585,12081 14585,12219 14344,12081 Z"/>
        </g>
       </g>
       <g class="com.sun.star.drawing.PolyPolygonShape">
        <g id="id35">
         <rect class="BoundingBox" stroke="none" fill="none" x="14324" y="12130" width="282" height="320"/>
         <path fill="rgb(178,178,178)" stroke="none" d="M 14344,12290 L 14344,12150 14585,12290 14585,12428 14344,12290 Z"/>
         <path fill="none" stroke="rgb(102,102,102)" stroke-width="40" stroke-linejoin="round" d="M 14344,12290 L 14344,12150 14585,12290 14585,12428 14344,12290 Z"/>
        </g>
       </g>
       <g class="com.sun.star.drawing.PolyPolygonShape">
        <g id="id36">
         <rect class="BoundingBox" stroke="none" fill="none" x="10829" y="7255" width="4501" height="5821"/>
         <path fill="none" stroke="rgb(0,0,0)" stroke-width="40" stroke-linejoin="round" d="M 10969,7275 L 11331,7484 11692,7275 15309,9364 15309,12498 14826,12776 14826,12985 14693,13055 10849,10827 10849,7344 10969,7275 Z"/>
        </g>
       </g>
       <g class="com.sun.star.drawing.PolyPolygonShape">
        <g id="id37">
         <rect class="BoundingBox" stroke="none" fill="none" x="13842" y="12338" width="282" height="319"/>
         <path fill="rgb(178,178,178)" stroke="none" d="M 13862,12498 L 13862,12358 14103,12498 14103,12636 13862,12498 Z"/>
         <path fill="none" stroke="rgb(102,102,102)" stroke-width="40" stroke-linejoin="round" d="M 13862,12498 L 13862,12358 14103,12498 14103,12636 13862,12498 Z"/>
        </g>
       </g>
       <g class="com.sun.star.drawing.PolyPolygonShape">
        <g id="id38">
         <rect class="BoundingBox" stroke="none" fill="none" x="13601" y="12060" width="282" height="319"/>
         <path fill="rgb(178,178,178)" stroke="none" d="M 13621,12220 L 13621,12080 13862,12220 13862,12358 13621,12220 Z"/>
         <path fill="none" stroke="rgb(102,102,102)" stroke-width="40" stroke-linejoin="round" d="M 13621,12220 L 13621,12080 13862,12220 13862,12358 13621,12220 Z"/>
        </g>
       </g>
       <g class="com.sun.star.drawing.PolyPolygonShape">
        <g id="id39">
         <rect class="BoundingBox" stroke="none" fill="none" x="14083" y="12338" width="282" height="319"/>
         <path fill="rgb(178,178,178)" stroke="none" d="M 14103,12498 L 14103,12358 14344,12498 14344,12636 14103,12498 Z"/>
         <path fill="none" stroke="rgb(102,102,102)" stroke-width="40" stroke-linejoin="round" d="M 14103,12498 L 14103,12358 14344,12498 14344,12636 14103,12498 Z"/>
        </g>
       </g>
       <g class="com.sun.star.drawing.PolyPolygonShape">
        <g id="id40">
         <rect class="BoundingBox" stroke="none" fill="none" x="14444" y="12617" width="161" height="250"/>
         <path fill="rgb(255,0,0)" stroke="none" d="M 14464,12777 L 14464,12637 14584,12706 14584,12846 14464,12777 Z"/>
         <path fill="none" stroke="rgb(102,102,102)" stroke-width="40" stroke-linejoin="round" d="M 14464,12777 L 14464,12637 14584,12706 14584,12846 14464,12777 Z"/>
        </g>
       </g>
      </g>
     </g>
    </g>
   </g>
  </g>
 </g>
</svg>