<?xml version="1.0" encoding="UTF-8"?>
<!DOCTYPE svg PUBLIC "-//W3C//DTD SVG 1.1//EN" "http://www.w3.org/Graphics/SVG/1.1/DTD/svg11.dtd">
<svg version="1.2" width="24.02mm" height="38.5mm" viewBox="12227 23593 2402 3850" preserveAspectRatio="xMidYMid" fill-rule="evenodd" stroke-width="28.222" stroke-linejoin="round" xmlns="http://www.w3.org/2000/svg" xmlns:ooo="http://xml.openoffice.org/svg/export" xmlns:xlink="http://www.w3.org/1999/xlink" xmlns:presentation="http://sun.com/xmlns/staroffice/presentation" xmlns:smil="http://www.w3.org/2001/SMIL20/" xmlns:anim="urn:oasis:names:tc:opendocument:xmlns:animation:1.0" xml:space="preserve">
 <defs class="ClipPathGroup">
  <clipPath id="presentation_clip_path" clipPathUnits="userSpaceOnUse">
   <rect x="12227" y="23593" width="2402" height="3850"/>
  </clipPath>
 </defs>
 <defs class="TextShapeIndex">
  <g ooo:slide="id1" ooo:id-list="id3 id4 id5 id6 id7 id8 id9 id10 id11"/>
 </defs>
 <defs class="EmbeddedBulletChars">
  <g id="bullet-char-template(57356)" transform="scale(0.00048828125,-0.00048828125)">
   <path d="M 580,1141 L 1163,571 580,0 -4,571 580,1141 Z"/>
  </g>
  <g id="bullet-char-template(57354)" transform="scale(0.00048828125,-0.00048828125)">
   <path d="M 8,1128 L 1137,1128 1137,0 8,0 8,1128 Z"/>
  </g>
  <g id="bullet-char-template(10146)" transform="scale(0.00048828125,-0.00048828125)">
   <path d="M 174,0 L 602,739 174,1481 1456,739 174,0 Z M 1358,739 L 309,1346 659,739 1358,739 Z"/>
  </g>
  <g id="bullet-char-template(10132)" transform="scale(0.00048828125,-0.00048828125)">
   <path d="M 2015,739 L 1276,0 717,0 1260,543 174,543 174,936 1260,936 717,1481 1274,1481 2015,739 Z"/>
  </g>
  <g id="bullet-char-template(10007)" transform="scale(0.00048828125,-0.00048828125)">
   <path d="M 0,-2 C -7,14 -16,27 -25,37 L 356,567 C 262,823 215,952 215,954 215,979 228,992 255,992 264,992 276,990 289,987 310,991 331,999 354,1012 L 381,999 492,748 772,1049 836,1024 860,1049 C 881,1039 901,1025 922,1006 886,937 835,863 770,784 769,783 710,716 594,584 L 774,223 C 774,196 753,168 711,139 L 727,119 C 717,90 699,76 672,76 641,76 570,178 457,381 L 164,-76 C 142,-110 111,-127 72,-127 30,-127 9,-110 8,-76 1,-67 -2,-52 -2,-32 -2,-23 -1,-13 0,-2 Z"/>
  </g>
  <g id="bullet-char-template(10004)" transform="scale(0.00048828125,-0.00048828125)">
   <path d="M 285,-33 C 182,-33 111,30 74,156 52,228 41,333 41,471 41,549 55,616 82,672 116,743 169,778 240,778 293,778 328,747 346,684 L 369,508 C 377,444 397,411 428,410 L 1163,1116 C 1174,1127 1196,1133 1229,1133 1271,1133 1292,1118 1292,1087 L 1292,965 C 1292,929 1282,901 1262,881 L 442,47 C 390,-6 338,-33 285,-33 Z"/>
  </g>
  <g id="bullet-char-template(9679)" transform="scale(0.00048828125,-0.00048828125)">
   <path d="M 813,0 C 632,0 489,54 383,161 276,268 223,411 223,592 223,773 276,916 383,1023 489,1130 632,1184 813,1184 992,1184 1136,1130 1245,1023 1353,916 1407,772 1407,592 1407,412 1353,268 1245,161 1136,54 992,0 813,0 Z"/>
  </g>
  <g id="bullet-char-template(8226)" transform="scale(0.00048828125,-0.00048828125)">
   <path d="M 346,457 C 273,457 209,483 155,535 101,586 74,649 74,723 74,796 101,859 155,911 209,963 273,989 346,989 419,989 480,963 531,910 582,859 608,796 608,723 608,648 583,586 532,535 482,483 420,457 346,457 Z"/>
  </g>
  <g id="bullet-char-template(8211)" transform="scale(0.00048828125,-0.00048828125)">
   <path d="M -4,459 L 1135,459 1135,606 -4,606 -4,459 Z"/>
  </g>
 </defs>
 <defs class="TextEmbeddedBitmaps"/>
 <g class="SlideGroup">
  <g>
   <g id="id1" class="Slide" clip-path="url(#presentation_clip_path)">
    <g class="Page">
     <g class="Group">
      <g class="com.sun.star.drawing.ClosedBezierShape">
       <g id="id3">
        <rect class="BoundingBox" stroke="none" fill="none" x="13379" y="26470" width="1252" height="956"/>
        <path fill="rgb(221,221,221)" stroke="none" d="M 13380,27424 C 13663,27424 14513,27185 14616,27007 14719,26828 14178,26471 13895,26471 13895,26650 13380,27185 13380,27424 Z"/>
        <path fill="none" stroke="rgb(221,221,221)" d="M 13380,27424 C 13663,27424 14513,27185 14616,27007 14719,26828 14178,26471 13895,26471 13895,26650 13380,27185 13380,27424 Z"/>
       </g>
      </g>
      <g class="Group">
       <g class="com.sun.star.drawing.ClosedBezierShape">
        <g id="id4">
         <rect class="BoundingBox" stroke="none" fill="none" x="12742" y="26733" width="1174" height="711"/>
         <g>
          <defs>
           <linearGradient id="gradient1" x1="13328" y1="27423" x2="13328" y2="26753" gradientUnits="userSpaceOnUse">
            <stop offset="0.1" style="stop-color:rgb(179,179,179)"/>
            <stop offset="1" style="stop-color:rgb(229,229,229)"/>
           </linearGradient>
          </defs>
          <path style="fill:url(#gradient1)" d="M 12762,27110 L 12765,27148 12775,27183 12790,27216 12811,27247 12836,27275 12867,27301 12901,27324 12939,27345 13025,27379 13120,27403 13223,27418 13329,27423 13434,27418 13537,27403 13632,27379 13718,27345 13756,27324 13790,27301 13821,27275 13846,27247 13867,27216 13882,27183 13892,27148 13895,27110 13895,26753 13892,26796 13882,26837 13867,26874 13846,26909 13821,26941 13790,26971 13756,26997 13718,27021 13632,27060 13537,27088 13434,27104 13329,27110 13223,27104 13120,27088 13025,27060 12939,27021 12901,26997 12867,26971 12836,26941 12811,26909 12790,26874 12775,26837 12765,26796 12762,26753 12762,27110 Z"/>
         </g>
         <path fill="none" stroke="rgb(127,127,127)" stroke-width="40" stroke-linejoin="round" d="M 12762,27110 C 12762,27527 13895,27527 13895,27110 L 13895,26753 C 13895,27229 12762,27229 12762,26753 12762,26832 12762,27110 12762,27110 Z"/>
        </g>
       </g>
       <g class="com.sun.star.drawing.ClosedBezierShape">
        <g id="id5">
         <rect class="BoundingBox" stroke="none" fill="none" x="12742" y="25558" width="1174" height="1589"/>
         <g>
          <defs>
           <linearGradient id="gradient2" x1="12761" y1="26352" x2="13895" y2="26352" gradientUnits="userSpaceOnUse">
            <stop offset="0.1" style="stop-color:rgb(51,51,51)"/>
            <stop offset="1" style="stop-color:rgb(153,153,153)"/>
           </linearGradient>
          </defs>
          <path style="fill:url(#gradient2)" d="M 12762,26813 L 12765,26851 12775,26886 12790,26919 12811,26950 12836,26978 12867,27004 12901,27027 12939,27048 13025,27082 13120,27106 13223,27121 13329,27126 13434,27121 13537,27106 13632,27082 13718,27048 13756,27027 13790,27004 13821,26978 13846,26950 13867,26919 13882,26886 13892,26851 13895,26813 13895,25578 13892,25621 13882,25662 13867,25699 13846,25734 13821,25766 13790,25796 13756,25822 13718,25846 13632,25885 13537,25913 13434,25929 13329,25935 13223,25929 13120,25913 13025,25885 12939,25846 12901,25822 12867,25796 12836,25766 12811,25734 12790,25699 12775,25662 12765,25621 12762,25578 12762,26382 12762,26807 12762,26883 12762,26883 12762,26883 12762,26883 12762,26883 12762,26881 12762,26869 12762,26813 Z"/>
         </g>
         <path fill="none" stroke="rgb(255,255,255)" stroke-width="40" stroke-linejoin="round" d="M 12762,26813 C 12762,27230 13895,27230 13895,26813 L 13895,25578 C 13895,26054 12762,26054 12762,25578 12762,25657 12762,27230 12762,26813 Z"/>
        </g>
       </g>
       <g class="com.sun.star.drawing.PolyPolygonShape">
        <g id="id6">
         <rect class="BoundingBox" stroke="none" fill="none" x="13360" y="24248" width="1174" height="1946"/>
         <g>
          <defs>
           <pattern id="pattern1" x="13380" y="24268" width="1134" height="1906" patternUnits="userSpaceOnUse">
            <g transform="translate(-13380,-24268)">
             <path fill="rgb(179,179,179)" stroke="none" d="M 13379,24267 L 14514,24267 14514,26174 13379,26174 13379,24267 Z M 13163,23905 L 14274,23905 14274,25772 13163,25772 13163,23905 Z"/>
             <path fill="rgb(180,180,180)" stroke="none" d="M 13163,23905 L 14274,23905 14274,25772 13163,25772 13163,23905 Z M 13174,23924 L 14263,23924 14263,25753 13174,25753 13174,23924 Z"/>
             <path fill="rgb(181,181,181)" stroke="none" d="M 13174,23924 L 14263,23924 14263,25753 13174,25753 13174,23924 Z M 13186,23943 L 14251,23943 14251,25734 13186,25734 13186,23943 Z"/>
             <path fill="rgb(182,182,182)" stroke="none" d="M 13186,23943 L 14251,23943 14251,25734 13186,25734 13186,23943 Z M 13197,23962 L 14240,23962 14240,25715 13197,25715 13197,23962 Z"/>
             <path fill="rgb(183,183,183)" stroke="none" d="M 13197,23962 L 14240,23962 14240,25715 13197,25715 13197,23962 Z M 13208,23981 L 14229,23981 14229,25696 13208,25696 13208,23981 Z"/>
             <path fill="rgb(184,184,184)" stroke="none" d="M 13208,23981 L 14229,23981 14229,25696 13208,25696 13208,23981 Z M 13220,24000 L 14217,24000 14217,25677 13220,25677 13220,24000 Z"/>
             <path fill="rgb(185,185,185)" stroke="none" d="M 13220,24000 L 14217,24000 14217,25677 13220,25677 13220,24000 Z M 13231,24019 L 14206,24019 14206,25658 13231,25658 13231,24019 Z"/>
             <path fill="rgb(186,186,186)" stroke="none" d="M 13231,24019 L 14206,24019 14206,25658 13231,25658 13231,24019 Z M 13242,24038 L 14195,24038 14195,25639 13242,25639 13242,24038 Z"/>
             <path fill="rgb(187,187,187)" stroke="none" d="M 13242,24038 L 14195,24038 14195,25639 13242,25639 13242,24038 Z M 13254,24057 L 14183,24057 14183,25620 13254,25620 13254,24057 Z"/>
             <path fill="rgb(188,188,188)" stroke="none" d="M 13254,24057 L 14183,24057 14183,25620 13254,25620 13254,24057 Z M 13265,24076 L 14172,24076 14172,25601 13265,25601 13265,24076 Z"/>
             <path fill="rgb(189,189,189)" stroke="none" d="M 13265,24076 L 14172,24076 14172,25601 13265,25601 13265,24076 Z M 13276,24095 L 14161,24095 14161,25582 13276,25582 13276,24095 Z"/>
             <path fill="rgb(190,190,190)" stroke="none" d="M 13276,24095 L 14161,24095 14161,25582 13276,25582 13276,24095 Z M 13288,24114 L 14149,24114 14149,25563 13288,25563 13288,24114 Z"/>
             <path fill="rgb(191,191,191)" stroke="none" d="M 13288,24114 L 14149,24114 14149,25563 13288,25563 13288,24114 Z M 13299,24134 L 14138,24134 14138,25543 13299,25543 13299,24134 Z"/>
             <path fill="rgb(192,192,192)" stroke="none" d="M 13299,24134 L 14138,24134 14138,25543 13299,25543 13299,24134 Z M 13311,24153 L 14126,24153 14126,25524 13311,25524 13311,24153 Z"/>
             <path fill="rgb(193,193,193)" stroke="none" d="M 13311,24153 L 14126,24153 14126,25524 13311,25524 13311,24153 Z M 13322,24172 L 14115,24172 14115,25505 13322,25505 13322,24172 Z"/>
             <path fill="rgb(194,194,194)" stroke="none" d="M 13322,24172 L 14115,24172 14115,25505 13322,25505 13322,24172 Z M 13333,24191 L 14104,24191 14104,25486 13333,25486 13333,24191 Z"/>
             <path fill="rgb(195,195,195)" stroke="none" d="M 13333,24191 L 14104,24191 14104,25486 13333,25486 13333,24191 Z M 13345,24210 L 14092,24210 14092,25467 13345,25467 13345,24210 Z"/>
             <path fill="rgb(196,196,196)" stroke="none" d="M 13345,24210 L 14092,24210 14092,25467 13345,25467 13345,24210 Z M 13356,24229 L 14081,24229 14081,25448 13356,25448 13356,24229 Z"/>
             <path fill="rgb(197,197,197)" stroke="none" d="M 13356,24229 L 14081,24229 14081,25448 13356,25448 13356,24229 Z M 13366,24248 L 14070,24248 14070,25429 13366,25429 13366,24248 Z"/>
             <path fill="rgb(198,198,198)" stroke="none" d="M 13366,24248 L 14070,24248 14070,25429 13366,25429 13366,24248 Z M 13378,24266 L 14058,24266 14058,25410 13378,25410 13378,24266 Z"/>
             <path fill="rgb(199,199,199)" stroke="none" d="M 13378,24266 L 14058,24266 14058,25410 13378,25410 13378,24266 Z M 13389,24285 L 14047,24285 14047,25391 13389,25391 13389,24285 Z"/>
             <path fill="rgb(200,200,200)" stroke="none" d="M 13389,24285 L 14047,24285 14047,25391 13389,25391 13389,24285 Z M 13400,24304 L 14036,24304 14036,25372 13400,25372 13400,24304 Z"/>
             <path fill="rgb(201,201,201)" stroke="none" d="M 13400,24304 L 14036,24304 14036,25372 13400,25372 13400,24304 Z M 13412,24323 L 14024,24323 14024,25353 13412,25353 13412,24323 Z"/>
             <path fill="rgb(202,202,202)" stroke="none" d="M 13412,24323 L 14024,24323 14024,25353 13412,25353 13412,24323 Z M 13423,24342 L 14013,24342 14013,25334 13423,25334 13423,24342 Z"/>
             <path fill="rgb(203,203,203)" stroke="none" d="M 13423,24342 L 14013,24342 14013,25334 13423,25334 13423,24342 Z M 13435,24361 L 14001,24361 14001,25315 13435,25315 13435,24361 Z"/>
             <path fill="rgb(204,204,204)" stroke="none" d="M 13435,24361 L 14001,24361 14001,25315 13435,25315 13435,24361 Z M 13446,24381 L 13990,24381 13990,25295 13446,25295 13446,24381 Z"/>
             <path fill="rgb(205,205,205)" stroke="none" d="M 13446,24381 L 13990,24381 13990,25295 13446,25295 13446,24381 Z M 13457,24400 L 13979,24400 13979,25276 13457,25276 13457,24400 Z"/>
             <path fill="rgb(206,206,206)" stroke="none" d="M 13457,24400 L 13979,24400 13979,25276 13457,25276 13457,24400 Z M 13469,24419 L 13967,24419 13967,25257 13469,25257 13469,24419 Z"/>
             <path fill="rgb(207,207,207)" stroke="none" d="M 13469,24419 L 13967,24419 13967,25257 13469,25257 13469,24419 Z M 13480,24438 L 13956,24438 13956,25238 13480,25238 13480,24438 Z"/>
             <path fill="rgb(208,208,208)" stroke="none" d="M 13480,24438 L 13956,24438 13956,25238 13480,25238 13480,24438 Z M 13491,24457 L 13945,24457 13945,25219 13491,25219 13491,24457 Z"/>
             <path fill="rgb(209,209,209)" stroke="none" d="M 13491,24457 L 13945,24457 13945,25219 13491,25219 13491,24457 Z M 13503,24476 L 13933,24476 13933,25200 13503,25200 13503,24476 Z"/>
             <path fill="rgb(210,210,210)" stroke="none" d="M 13503,24476 L 13933,24476 13933,25200 13503,25200 13503,24476 Z M 13514,24495 L 13922,24495 13922,25181 13514,25181 13514,24495 Z"/>
             <path fill="rgb(211,211,211)" stroke="none" d="M 13514,24495 L 13922,24495 13922,25181 13514,25181 13514,24495 Z M 13525,24514 L 13911,24514 13911,25162 13525,25162 13525,24514 Z"/>
             <path fill="rgb(212,212,212)" stroke="none" d="M 13525,24514 L 13911,24514 13911,25162 13525,25162 13525,24514 Z M 13537,24533 L 13899,24533 13899,25143 13537,25143 13537,24533 Z"/>
             <path fill="rgb(213,213,213)" stroke="none" d="M 13537,24533 L 13899,24533 13899,25143 13537,25143 13537,24533 Z M 13548,24552 L 13888,24552 13888,25124 13548,25124 13548,24552 Z"/>
             <path fill="rgb(214,214,214)" stroke="none" d="M 13548,24552 L 13888,24552 13888,25124 13548,25124 13548,24552 Z M 13559,24571 L 13877,24571 13877,25105 13559,25105 13559,24571 Z"/>
             <path fill="rgb(215,215,215)" stroke="none" d="M 13559,24571 L 13877,24571 13877,25105 13559,25105 13559,24571 Z M 13571,24590 L 13865,24590 13865,25086 13571,25086 13571,24590 Z"/>
             <path fill="rgb(216,216,216)" stroke="none" d="M 13571,24590 L 13865,24590 13865,25086 13571,25086 13571,24590 Z M 13582,24610 L 13854,24610 13854,25066 13582,25066 13582,24610 Z"/>
             <path fill="rgb(217,217,217)" stroke="none" d="M 13582,24610 L 13854,24610 13854,25066 13582,25066 13582,24610 Z M 13594,24629 L 13842,24629 13842,25047 13594,25047 13594,24629 Z"/>
             <path fill="rgb(218,218,218)" stroke="none" d="M 13594,24629 L 13842,24629 13842,25047 13594,25047 13594,24629 Z M 13605,24648 L 13831,24648 13831,25028 13605,25028 13605,24648 Z"/>
             <path fill="rgb(219,219,219)" stroke="none" d="M 13605,24648 L 13831,24648 13831,25028 13605,25028 13605,24648 Z M 13616,24667 L 13820,24667 13820,25009 13616,25009 13616,24667 Z"/>
             <path fill="rgb(220,220,220)" stroke="none" d="M 13616,24667 L 13820,24667 13820,25009 13616,25009 13616,24667 Z M 13628,24686 L 13808,24686 13808,24990 13628,24990 13628,24686 Z"/>
             <path fill="rgb(221,221,221)" stroke="none" d="M 13628,24686 L 13808,24686 13808,24990 13628,24990 13628,24686 Z M 13639,24705 L 13797,24705 13797,24971 13639,24971 13639,24705 Z"/>
             <path fill="rgb(222,222,222)" stroke="none" d="M 13639,24705 L 13797,24705 13797,24971 13639,24971 13639,24705 Z M 13650,24724 L 13786,24724 13786,24952 13650,24952 13650,24724 Z"/>
             <path fill="rgb(223,223,223)" stroke="none" d="M 13650,24724 L 13786,24724 13786,24952 13650,24952 13650,24724 Z M 13662,24743 L 13774,24743 13774,24933 13662,24933 13662,24743 Z"/>
             <path fill="rgb(224,224,224)" stroke="none" d="M 13662,24743 L 13774,24743 13774,24933 13662,24933 13662,24743 Z M 13673,24762 L 13763,24762 13763,24914 13673,24914 13673,24762 Z"/>
             <path fill="rgb(225,225,225)" stroke="none" d="M 13673,24762 L 13763,24762 13763,24914 13673,24914 13673,24762 Z M 13684,24781 L 13752,24781 13752,24895 13684,24895 13684,24781 Z"/>
             <path fill="rgb(226,226,226)" stroke="none" d="M 13684,24781 L 13752,24781 13752,24895 13684,24895 13684,24781 Z M 13696,24800 L 13740,24800 13740,24876 13696,24876 13696,24800 Z"/>
             <path fill="rgb(227,227,227)" stroke="none" d="M 13696,24800 L 13740,24800 13740,24876 13696,24876 13696,24800 Z M 13707,24819 L 13729,24819 13729,24857 13707,24857 13707,24819 Z"/>
             <path fill="rgb(229,229,229)" stroke="none" d="M 13707,24819 L 13729,24819 13729,24857 13707,24857 13707,24819 Z"/>
            </g>
           </pattern>
          </defs>
          <path style="fill:url(#pattern1)" d="M 13380,26173 L 13380,24923 14513,24268 14513,25518 13380,26173 Z"/>
         </g>
         <path fill="none" stroke="rgb(255,255,255)" stroke-width="40" stroke-linejoin="round" d="M 13380,26173 L 13380,24923 14513,24268 14513,25518 13380,26173 Z"/>
        </g>
       </g>
       <g class="com.sun.star.drawing.PolyPolygonShape">
        <g id="id7">
         <rect class="BoundingBox" stroke="none" fill="none" x="12227" y="24248" width="1174" height="1946"/>
         <g>
          <defs>
           <linearGradient id="gradient3" x1="12246" y1="25220" x2="13381" y2="25220" gradientUnits="userSpaceOnUse">
            <stop offset="0.1" style="stop-color:rgb(179,179,179)"/>
            <stop offset="1" style="stop-color:rgb(229,229,229)"/>
           </linearGradient>
          </defs>
          <path style="fill:url(#gradient3)" d="M 12247,25518 L 12247,24268 13380,24923 13380,26173 12247,25518 Z"/>
         </g>
         <path fill="none" stroke="rgb(255,255,255)" stroke-width="40" stroke-linejoin="round" d="M 12247,25518 L 12247,24268 13380,24923 13380,26173 12247,25518 Z"/>
        </g>
       </g>
       <g class="com.sun.star.drawing.PolyPolygonShape">
        <g id="id8">
         <rect class="BoundingBox" stroke="none" fill="none" x="12227" y="23593" width="2307" height="1351"/>
         <g>
          <defs>
           <linearGradient id="gradient4" x1="13380" y1="23613" x2="13380" y2="24923" gradientUnits="userSpaceOnUse">
            <stop offset="0.1" style="stop-color:rgb(179,179,179)"/>
            <stop offset="1" style="stop-color:rgb(229,229,229)"/>
           </linearGradient>
          </defs>
          <path style="fill:url(#gradient4)" d="M 13380,24923 L 12247,24268 13380,23613 14513,24268 13380,24923 Z"/>
         </g>
         <path fill="none" stroke="rgb(255,255,255)" stroke-width="40" stroke-linejoin="round" d="M 13380,24923 L 12247,24268 13380,23613 14513,24268 13380,24923 Z"/>
        </g>
       </g>
       <g class="com.sun.star.drawing.PolyPolygonShape">
        <g id="id9">
         <rect class="BoundingBox" stroke="none" fill="none" x="14286" y="24486" width="145" height="279"/>
         <path fill="rgb(255,255,255)" stroke="none" d="M 14410,24685 L 14410,24506 14307,24566 14307,24744 14410,24685 Z"/>
         <path fill="none" stroke="rgb(127,127,127)" stroke-width="40" stroke-linejoin="round" d="M 14410,24685 L 14410,24506 14307,24566 14307,24744 14410,24685 Z"/>
        </g>
       </g>
       <g class="com.sun.star.drawing.PolyPolygonShape">
        <g id="id10">
         <rect class="BoundingBox" stroke="none" fill="none" x="12536" y="25319" width="762" height="696"/>
         <path fill="rgb(230,230,230)" stroke="none" d="M 12556,25577 L 12556,25339 13277,25756 13277,25994 12556,25577 Z"/>
         <path fill="none" stroke="rgb(127,127,127)" stroke-width="40" stroke-linejoin="round" d="M 12556,25577 L 12556,25339 13277,25756 13277,25994 12556,25577 Z"/>
        </g>
       </g>
       <g class="com.sun.star.drawing.ClosedBezierShape">
        <g id="id11">
         <rect class="BoundingBox" stroke="none" fill="none" x="12227" y="23593" width="2307" height="3851"/>
         <path fill="none" stroke="rgb(0,0,0)" stroke-width="40" stroke-linejoin="round" d="M 12762,27110 C 12762,27527 13895,27527 13895,27110 13895,27110 13895,26386 13895,25875 L 14513,25518 14513,24268 13380,23613 12247,24268 12247,25518 12762,25816 12762,27110 Z"/>
        </g>
       </g>
      </g>
     </g>
    </g>
   </g>
  </g>
 </g>
</svg>