<?xml version="1.0" encoding="UTF-8"?>
<!DOCTYPE svg PUBLIC "-//W3C//DTD SVG 1.1//EN" "http://www.w3.org/Graphics/SVG/1.1/DTD/svg11.dtd">
<svg version="1.2" width="24.79mm" height="29.5mm" viewBox="4853 9735 2479 2950" preserveAspectRatio="xMidYMid" fill-rule="evenodd" stroke-width="28.222" stroke-linejoin="round" xmlns="http://www.w3.org/2000/svg" xmlns:ooo="http://xml.openoffice.org/svg/export" xmlns:xlink="http://www.w3.org/1999/xlink" xmlns:presentation="http://sun.com/xmlns/staroffice/presentation" xmlns:smil="http://www.w3.org/2001/SMIL20/" xmlns:anim="urn:oasis:names:tc:opendocument:xmlns:animation:1.0" xml:space="preserve">
 <defs class="ClipPathGroup">
  <clipPath id="presentation_clip_path" clipPathUnits="userSpaceOnUse">
   <rect x="4853" y="9735" width="2479" height="2950"/>
  </clipPath>
 </defs>
 <defs class="TextShapeIndex">
  <g ooo:slide="id1" ooo:id-list="id3 id4 id5 id6 id7 id8 id9 id10 id11 id12 id13 id14 id15"/>
 </defs>
 <defs class="EmbeddedBulletChars">
  <g id="bullet-char-template(57356)" transform="scale(0.00048828125,-0.00048828125)">
   <path d="M 580,1141 L 1163,571 580,0 -4,571 580,1141 Z"/>
  </g>
  <g id="bullet-char-template(57354)" transform="scale(0.00048828125,-0.00048828125)">
   <path d="M 8,1128 L 1137,1128 1137,0 8,0 8,1128 Z"/>
  </g>
  <g id="bullet-char-template(10146)" transform="scale(0.00048828125,-0.00048828125)">
   <path d="M 174,0 L 602,739 174,1481 1456,739 174,0 Z M 1358,739 L 309,1346 659,739 1358,739 Z"/>
  </g>
  <g id="bullet-char-template(10132)" transform="scale(0.00048828125,-0.00048828125)">
   <path d="M 2015,739 L 1276,0 717,0 1260,543 174,543 174,936 1260,936 717,1481 1274,1481 2015,739 Z"/>
  </g>
  <g id="bullet-char-template(10007)" transform="scale(0.00048828125,-0.00048828125)">
   <path d="M 0,-2 C -7,14 -16,27 -25,37 L 356,567 C 262,823 215,952 215,954 215,979 228,992 255,992 264,992 276,990 289,987 310,991 331,999 354,1012 L 381,999 492,748 772,1049 836,1024 860,1049 C 881,1039 901,1025 922,1006 886,937 835,863 770,784 769,783 710,716 594,584 L 774,223 C 774,196 753,168 711,139 L 727,119 C 717,90 699,76 672,76 641,76 570,178 457,381 L 164,-76 C 142,-110 111,-127 72,-127 30,-127 9,-110 8,-76 1,-67 -2,-52 -2,-32 -2,-23 -1,-13 0,-2 Z"/>
  </g>
  <g id="bullet-char-template(10004)" transform="scale(0.00048828125,-0.00048828125)">
   <path d="M 285,-33 C 182,-33 111,30 74,156 52,228 41,333 41,471 41,549 55,616 82,672 116,743 169,778 240,778 293,778 328,747 346,684 L 369,508 C 377,444 397,411 428,410 L 1163,1116 C 1174,1127 1196,1133 1229,1133 1271,1133 1292,1118 1292,1087 L 1292,965 C 1292,929 1282,901 1262,881 L 442,47 C 390,-6 338,-33 285,-33 Z"/>
  </g>
  <g id="bullet-char-template(9679)" transform="scale(0.00048828125,-0.00048828125)">
   <path d="M 813,0 C 632,0 489,54 383,161 276,268 223,411 223,592 223,773 276,916 383,1023 489,1130 632,1184 813,1184 992,1184 1136,1130 1245,1023 1353,916 1407,772 1407,592 1407,412 1353,268 1245,161 1136,54 992,0 813,0 Z"/>
  </g>
  <g id="bullet-char-template(8226)" transform="scale(0.00048828125,-0.00048828125)">
   <path d="M 346,457 C 273,457 209,483 155,535 101,586 74,649 74,723 74,796 101,859 155,911 209,963 273,989 346,989 419,989 480,963 531,910 582,859 608,796 608,723 608,648 583,586 532,535 482,483 420,457 346,457 Z"/>
  </g>
  <g id="bullet-char-template(8211)" transform="scale(0.00048828125,-0.00048828125)">
   <path d="M -4,459 L 1135,459 1135,606 -4,606 -4,459 Z"/>
  </g>
 </defs>
 <defs class="TextEmbeddedBitmaps"/>
 <g class="SlideGroup">
  <g>
   <g id="id1" class="Slide" clip-path="url(#presentation_clip_path)">
    <g class="Page">
     <g class="Group">
      <g class="com.sun.star.drawing.ClosedBezierShape">
       <g id="id3">
        <rect class="BoundingBox" stroke="none" fill="none" x="4884" y="12104" width="1629" height="545"/>
        <path fill="rgb(221,221,221)" stroke="none" d="M 4885,12642 C 5098,12642 6511,12687 6511,12508 6511,12329 5949,12105 5737,12105 5737,12239 4885,12463 4885,12642 Z"/>
        <path fill="none" stroke="rgb(221,221,221)" d="M 4885,12642 C 5098,12642 6511,12687 6511,12508 6511,12329 5949,12105 5737,12105 5737,12239 4885,12463 4885,12642 Z"/>
       </g>
      </g>
      <g class="Group">
       <g class="com.sun.star.drawing.PolyPolygonShape">
        <g id="id4">
         <rect class="BoundingBox" stroke="none" fill="none" x="4854" y="11346" width="815" height="1339"/>
         <g>
          <defs>
           <pattern id="pattern1" x="4874" y="11366" width="775" height="1299" patternUnits="userSpaceOnUse">
            <g transform="translate(-4874,-11366)">
             <path fill="rgb(51,51,51)" stroke="none" d="M 4873,11365 L 5649,11365 5649,12665 4873,12665 4873,11365 Z M 4722,11112 L 5490,11112 5490,12398 4722,12398 4722,11112 Z"/>
             <path fill="rgb(52,52,52)" stroke="none" d="M 4722,11112 L 5490,11112 5490,12398 4722,12398 4722,11112 Z M 4726,11118 L 5486,11118 5486,12392 4726,12392 4726,11118 Z"/>
             <path fill="rgb(53,53,53)" stroke="none" d="M 4726,11118 L 5486,11118 5486,12392 4726,12392 4726,11118 Z M 4730,11125 L 5482,11125 5482,12385 4730,12385 4730,11125 Z"/>
             <path fill="rgb(54,54,54)" stroke="none" d="M 4730,11125 L 5482,11125 5482,12385 4730,12385 4730,11125 Z M 4734,11131 L 5478,11131 5478,12379 4734,12379 4734,11131 Z"/>
             <path fill="rgb(55,55,55)" stroke="none" d="M 4734,11131 L 5478,11131 5478,12379 4734,12379 4734,11131 Z M 4738,11137 L 5474,11137 5474,12373 4738,12373 4738,11137 Z"/>
             <path fill="rgb(56,56,56)" stroke="none" d="M 4738,11137 L 5474,11137 5474,12373 4738,12373 4738,11137 Z M 4741,11144 L 5471,11144 5471,12366 4741,12366 4741,11144 Z"/>
             <path fill="rgb(57,57,57)" stroke="none" d="M 4741,11144 L 5471,11144 5471,12366 4741,12366 4741,11144 Z M 4745,11150 L 5467,11150 5467,12360 4745,12360 4745,11150 Z"/>
             <path fill="rgb(58,58,58)" stroke="none" d="M 4745,11150 L 5467,11150 5467,12360 4745,12360 4745,11150 Z M 4749,11157 L 5463,11157 5463,12353 4749,12353 4749,11157 Z"/>
             <path fill="rgb(59,59,59)" stroke="none" d="M 4749,11157 L 5463,11157 5463,12353 4749,12353 4749,11157 Z M 4753,11163 L 5459,11163 5459,12347 4753,12347 4753,11163 Z"/>
             <path fill="rgb(60,60,60)" stroke="none" d="M 4753,11163 L 5459,11163 5459,12347 4753,12347 4753,11163 Z M 4757,11169 L 5455,11169 5455,12341 4757,12341 4757,11169 Z"/>
             <path fill="rgb(61,61,61)" stroke="none" d="M 4757,11169 L 5455,11169 5455,12341 4757,12341 4757,11169 Z M 4760,11176 L 5452,11176 5452,12334 4760,12334 4760,11176 Z"/>
             <path fill="rgb(62,62,62)" stroke="none" d="M 4760,11176 L 5452,11176 5452,12334 4760,12334 4760,11176 Z M 4764,11182 L 5448,11182 5448,12328 4764,12328 4764,11182 Z"/>
             <path fill="rgb(63,63,63)" stroke="none" d="M 4764,11182 L 5448,11182 5448,12328 4764,12328 4764,11182 Z M 4768,11188 L 5444,11188 5444,12322 4768,12322 4768,11188 Z"/>
             <path fill="rgb(64,64,64)" stroke="none" d="M 4768,11188 L 5444,11188 5444,12322 4768,12322 4768,11188 Z M 4772,11195 L 5440,11195 5440,12315 4772,12315 4772,11195 Z"/>
             <path fill="rgb(65,65,65)" stroke="none" d="M 4772,11195 L 5440,11195 5440,12315 4772,12315 4772,11195 Z M 4776,11201 L 5436,11201 5436,12309 4776,12309 4776,11201 Z"/>
             <path fill="rgb(66,66,66)" stroke="none" d="M 4776,11201 L 5436,11201 5436,12309 4776,12309 4776,11201 Z M 4779,11208 L 5433,11208 5433,12302 4779,12302 4779,11208 Z"/>
             <path fill="rgb(67,67,67)" stroke="none" d="M 4779,11208 L 5433,11208 5433,12302 4779,12302 4779,11208 Z M 4783,11214 L 5429,11214 5429,12296 4783,12296 4783,11214 Z"/>
             <path fill="rgb(68,68,68)" stroke="none" d="M 4783,11214 L 5429,11214 5429,12296 4783,12296 4783,11214 Z M 4787,11220 L 5425,11220 5425,12290 4787,12290 4787,11220 Z"/>
             <path fill="rgb(69,69,69)" stroke="none" d="M 4787,11220 L 5425,11220 5425,12290 4787,12290 4787,11220 Z M 4791,11227 L 5421,11227 5421,12283 4791,12283 4791,11227 Z"/>
             <path fill="rgb(70,70,70)" stroke="none" d="M 4791,11227 L 5421,11227 5421,12283 4791,12283 4791,11227 Z M 4795,11233 L 5417,11233 5417,12277 4795,12277 4795,11233 Z"/>
             <path fill="rgb(71,71,71)" stroke="none" d="M 4795,11233 L 5417,11233 5417,12277 4795,12277 4795,11233 Z M 4798,11239 L 5414,11239 5414,12271 4798,12271 4798,11239 Z"/>
             <path fill="rgb(72,72,72)" stroke="none" d="M 4798,11239 L 5414,11239 5414,12271 4798,12271 4798,11239 Z M 4802,11246 L 5410,11246 5410,12264 4802,12264 4802,11246 Z"/>
             <path fill="rgb(73,73,73)" stroke="none" d="M 4802,11246 L 5410,11246 5410,12264 4802,12264 4802,11246 Z M 4806,11252 L 5406,11252 5406,12258 4806,12258 4806,11252 Z"/>
             <path fill="rgb(74,74,74)" stroke="none" d="M 4806,11252 L 5406,11252 5406,12258 4806,12258 4806,11252 Z M 4810,11259 L 5402,11259 5402,12251 4810,12251 4810,11259 Z"/>
             <path fill="rgb(75,75,75)" stroke="none" d="M 4810,11259 L 5402,11259 5402,12251 4810,12251 4810,11259 Z M 4814,11265 L 5398,11265 5398,12245 4814,12245 4814,11265 Z"/>
             <path fill="rgb(76,76,76)" stroke="none" d="M 4814,11265 L 5398,11265 5398,12245 4814,12245 4814,11265 Z M 4818,11271 L 5394,11271 5394,12239 4818,12239 4818,11271 Z"/>
             <path fill="rgb(77,77,77)" stroke="none" d="M 4818,11271 L 5394,11271 5394,12239 4818,12239 4818,11271 Z M 4821,11278 L 5391,11278 5391,12232 4821,12232 4821,11278 Z"/>
             <path fill="rgb(78,78,78)" stroke="none" d="M 4821,11278 L 5391,11278 5391,12232 4821,12232 4821,11278 Z M 4825,11284 L 5387,11284 5387,12226 4825,12226 4825,11284 Z"/>
             <path fill="rgb(79,79,79)" stroke="none" d="M 4825,11284 L 5387,11284 5387,12226 4825,12226 4825,11284 Z M 4829,11290 L 5383,11290 5383,12220 4829,12220 4829,11290 Z"/>
             <path fill="rgb(80,80,80)" stroke="none" d="M 4829,11290 L 5383,11290 5383,12220 4829,12220 4829,11290 Z M 4833,11297 L 5379,11297 5379,12213 4833,12213 4833,11297 Z"/>
             <path fill="rgb(81,81,81)" stroke="none" d="M 4833,11297 L 5379,11297 5379,12213 4833,12213 4833,11297 Z M 4837,11303 L 5375,11303 5375,12207 4837,12207 4837,11303 Z"/>
             <path fill="rgb(82,82,82)" stroke="none" d="M 4837,11303 L 5375,11303 5375,12207 4837,12207 4837,11303 Z M 4840,11310 L 5372,11310 5372,12200 4840,12200 4840,11310 Z"/>
             <path fill="rgb(83,83,83)" stroke="none" d="M 4840,11310 L 5372,11310 5372,12200 4840,12200 4840,11310 Z M 4844,11316 L 5368,11316 5368,12194 4844,12194 4844,11316 Z"/>
             <path fill="rgb(84,84,84)" stroke="none" d="M 4844,11316 L 5368,11316 5368,12194 4844,12194 4844,11316 Z M 4848,11322 L 5364,11322 5364,12188 4848,12188 4848,11322 Z"/>
             <path fill="rgb(85,85,85)" stroke="none" d="M 4848,11322 L 5364,11322 5364,12188 4848,12188 4848,11322 Z M 4852,11329 L 5360,11329 5360,12181 4852,12181 4852,11329 Z"/>
             <path fill="rgb(86,86,86)" stroke="none" d="M 4852,11329 L 5360,11329 5360,12181 4852,12181 4852,11329 Z M 4855,11335 L 5356,11335 5356,12175 4855,12175 4855,11335 Z"/>
             <path fill="rgb(87,87,87)" stroke="none" d="M 4855,11335 L 5356,11335 5356,12175 4855,12175 4855,11335 Z M 4858,11341 L 5353,11341 5353,12169 4858,12169 4858,11341 Z"/>
             <path fill="rgb(88,88,88)" stroke="none" d="M 4858,11341 L 5353,11341 5353,12169 4858,12169 4858,11341 Z M 4862,11347 L 5349,11347 5349,12162 4862,12162 4862,11347 Z"/>
             <path fill="rgb(89,89,89)" stroke="none" d="M 4862,11347 L 5349,11347 5349,12162 4862,12162 4862,11347 Z M 4866,11353 L 5345,11353 5345,12156 4866,12156 4866,11353 Z"/>
             <path fill="rgb(90,90,90)" stroke="none" d="M 4866,11353 L 5345,11353 5345,12156 4866,12156 4866,11353 Z M 4870,11360 L 5341,11360 5341,12149 4870,12149 4870,11360 Z"/>
             <path fill="rgb(91,91,91)" stroke="none" d="M 4870,11360 L 5341,11360 5341,12149 4870,12149 4870,11360 Z M 4874,11366 L 5337,11366 5337,12143 4874,12143 4874,11366 Z"/>
             <path fill="rgb(92,92,92)" stroke="none" d="M 4874,11366 L 5337,11366 5337,12143 4874,12143 4874,11366 Z M 4877,11372 L 5334,11372 5334,12137 4877,12137 4877,11372 Z"/>
             <path fill="rgb(93,93,93)" stroke="none" d="M 4877,11372 L 5334,11372 5334,12137 4877,12137 4877,11372 Z M 4881,11379 L 5330,11379 5330,12130 4881,12130 4881,11379 Z"/>
             <path fill="rgb(94,94,94)" stroke="none" d="M 4881,11379 L 5330,11379 5330,12130 4881,12130 4881,11379 Z M 4885,11385 L 5326,11385 5326,12124 4885,12124 4885,11385 Z"/>
             <path fill="rgb(95,95,95)" stroke="none" d="M 4885,11385 L 5326,11385 5326,12124 4885,12124 4885,11385 Z M 4889,11391 L 5322,11391 5322,12118 4889,12118 4889,11391 Z"/>
             <path fill="rgb(96,96,96)" stroke="none" d="M 4889,11391 L 5322,11391 5322,12118 4889,12118 4889,11391 Z M 4893,11398 L 5318,11398 5318,12111 4893,12111 4893,11398 Z"/>
             <path fill="rgb(97,97,97)" stroke="none" d="M 4893,11398 L 5318,11398 5318,12111 4893,12111 4893,11398 Z M 4897,11404 L 5314,11404 5314,12105 4897,12105 4897,11404 Z"/>
             <path fill="rgb(98,98,98)" stroke="none" d="M 4897,11404 L 5314,11404 5314,12105 4897,12105 4897,11404 Z M 4900,11411 L 5311,11411 5311,12098 4900,12098 4900,11411 Z"/>
             <path fill="rgb(99,99,99)" stroke="none" d="M 4900,11411 L 5311,11411 5311,12098 4900,12098 4900,11411 Z M 4904,11417 L 5307,11417 5307,12092 4904,12092 4904,11417 Z"/>
             <path fill="rgb(100,100,100)" stroke="none" d="M 4904,11417 L 5307,11417 5307,12092 4904,12092 4904,11417 Z M 4908,11423 L 5303,11423 5303,12086 4908,12086 4908,11423 Z"/>
             <path fill="rgb(101,101,101)" stroke="none" d="M 4908,11423 L 5303,11423 5303,12086 4908,12086 4908,11423 Z M 4912,11430 L 5299,11430 5299,12079 4912,12079 4912,11430 Z"/>
             <path fill="rgb(102,102,102)" stroke="none" d="M 4912,11430 L 5299,11430 5299,12079 4912,12079 4912,11430 Z M 4916,11436 L 5295,11436 5295,12073 4916,12073 4916,11436 Z"/>
             <path fill="rgb(103,103,103)" stroke="none" d="M 4916,11436 L 5295,11436 5295,12073 4916,12073 4916,11436 Z M 4919,11443 L 5292,11443 5292,12066 4919,12066 4919,11443 Z"/>
             <path fill="rgb(104,104,104)" stroke="none" d="M 4919,11443 L 5292,11443 5292,12066 4919,12066 4919,11443 Z M 4923,11449 L 5288,11449 5288,12060 4923,12060 4923,11449 Z"/>
             <path fill="rgb(105,105,105)" stroke="none" d="M 4923,11449 L 5288,11449 5288,12060 4923,12060 4923,11449 Z M 4927,11455 L 5284,11455 5284,12054 4927,12054 4927,11455 Z"/>
             <path fill="rgb(106,106,106)" stroke="none" d="M 4927,11455 L 5284,11455 5284,12054 4927,12054 4927,11455 Z M 4931,11462 L 5280,11462 5280,12047 4931,12047 4931,11462 Z"/>
             <path fill="rgb(107,107,107)" stroke="none" d="M 4931,11462 L 5280,11462 5280,12047 4931,12047 4931,11462 Z M 4935,11468 L 5276,11468 5276,12041 4935,12041 4935,11468 Z"/>
             <path fill="rgb(108,108,108)" stroke="none" d="M 4935,11468 L 5276,11468 5276,12041 4935,12041 4935,11468 Z M 4938,11474 L 5273,11474 5273,12035 4938,12035 4938,11474 Z"/>
             <path fill="rgb(109,109,109)" stroke="none" d="M 4938,11474 L 5273,11474 5273,12035 4938,12035 4938,11474 Z M 4942,11481 L 5269,11481 5269,12028 4942,12028 4942,11481 Z"/>
             <path fill="rgb(110,110,110)" stroke="none" d="M 4942,11481 L 5269,11481 5269,12028 4942,12028 4942,11481 Z M 4946,11487 L 5265,11487 5265,12022 4946,12022 4946,11487 Z"/>
             <path fill="rgb(111,111,111)" stroke="none" d="M 4946,11487 L 5265,11487 5265,12022 4946,12022 4946,11487 Z M 4950,11494 L 5261,11494 5261,12015 4950,12015 4950,11494 Z"/>
             <path fill="rgb(112,112,112)" stroke="none" d="M 4950,11494 L 5261,11494 5261,12015 4950,12015 4950,11494 Z M 4954,11500 L 5257,11500 5257,12009 4954,12009 4954,11500 Z"/>
             <path fill="rgb(113,113,113)" stroke="none" d="M 4954,11500 L 5257,11500 5257,12009 4954,12009 4954,11500 Z M 4957,11506 L 5254,11506 5254,12003 4957,12003 4957,11506 Z"/>
             <path fill="rgb(114,114,114)" stroke="none" d="M 4957,11506 L 5254,11506 5254,12003 4957,12003 4957,11506 Z M 4961,11513 L 5250,11513 5250,11996 4961,11996 4961,11513 Z"/>
             <path fill="rgb(115,115,115)" stroke="none" d="M 4961,11513 L 5250,11513 5250,11996 4961,11996 4961,11513 Z M 4965,11519 L 5246,11519 5246,11990 4965,11990 4965,11519 Z"/>
             <path fill="rgb(116,116,116)" stroke="none" d="M 4965,11519 L 5246,11519 5246,11990 4965,11990 4965,11519 Z M 4969,11525 L 5242,11525 5242,11984 4969,11984 4969,11525 Z"/>
             <path fill="rgb(117,117,117)" stroke="none" d="M 4969,11525 L 5242,11525 5242,11984 4969,11984 4969,11525 Z M 4973,11532 L 5238,11532 5238,11977 4973,11977 4973,11532 Z"/>
             <path fill="rgb(118,118,118)" stroke="none" d="M 4973,11532 L 5238,11532 5238,11977 4973,11977 4973,11532 Z M 4977,11538 L 5235,11538 5235,11971 4977,11971 4977,11538 Z"/>
             <path fill="rgb(119,119,119)" stroke="none" d="M 4977,11538 L 5235,11538 5235,11971 4977,11971 4977,11538 Z M 4980,11545 L 5231,11545 5231,11964 4980,11964 4980,11545 Z"/>
             <path fill="rgb(120,120,120)" stroke="none" d="M 4980,11545 L 5231,11545 5231,11964 4980,11964 4980,11545 Z M 4984,11551 L 5227,11551 5227,11958 4984,11958 4984,11551 Z"/>
             <path fill="rgb(121,121,121)" stroke="none" d="M 4984,11551 L 5227,11551 5227,11958 4984,11958 4984,11551 Z M 4988,11557 L 5223,11557 5223,11952 4988,11952 4988,11557 Z"/>
             <path fill="rgb(122,122,122)" stroke="none" d="M 4988,11557 L 5223,11557 5223,11952 4988,11952 4988,11557 Z M 4992,11564 L 5219,11564 5219,11945 4992,11945 4992,11564 Z"/>
             <path fill="rgb(123,123,123)" stroke="none" d="M 4992,11564 L 5219,11564 5219,11945 4992,11945 4992,11564 Z M 4996,11570 L 5215,11570 5215,11939 4996,11939 4996,11570 Z"/>
             <path fill="rgb(124,124,124)" stroke="none" d="M 4996,11570 L 5215,11570 5215,11939 4996,11939 4996,11570 Z M 4999,11576 L 5212,11576 5212,11933 4999,11933 4999,11576 Z"/>
             <path fill="rgb(125,125,125)" stroke="none" d="M 4999,11576 L 5212,11576 5212,11933 4999,11933 4999,11576 Z M 5003,11583 L 5208,11583 5208,11926 5003,11926 5003,11583 Z"/>
             <path fill="rgb(126,126,126)" stroke="none" d="M 5003,11583 L 5208,11583 5208,11926 5003,11926 5003,11583 Z M 5007,11589 L 5204,11589 5204,11920 5007,11920 5007,11589 Z"/>
             <path fill="rgb(127,127,127)" stroke="none" d="M 5007,11589 L 5204,11589 5204,11920 5007,11920 5007,11589 Z M 5011,11596 L 5200,11596 5200,11913 5011,11913 5011,11596 Z"/>
             <path fill="rgb(128,128,128)" stroke="none" d="M 5011,11596 L 5200,11596 5200,11913 5011,11913 5011,11596 Z M 5015,11602 L 5196,11602 5196,11907 5015,11907 5015,11602 Z"/>
             <path fill="rgb(129,129,129)" stroke="none" d="M 5015,11602 L 5196,11602 5196,11907 5015,11907 5015,11602 Z M 5018,11608 L 5193,11608 5193,11901 5018,11901 5018,11608 Z"/>
             <path fill="rgb(130,130,130)" stroke="none" d="M 5018,11608 L 5193,11608 5193,11901 5018,11901 5018,11608 Z M 5022,11615 L 5189,11615 5189,11894 5022,11894 5022,11615 Z"/>
             <path fill="rgb(131,131,131)" stroke="none" d="M 5022,11615 L 5189,11615 5189,11894 5022,11894 5022,11615 Z M 5026,11621 L 5185,11621 5185,11888 5026,11888 5026,11621 Z"/>
             <path fill="rgb(132,132,132)" stroke="none" d="M 5026,11621 L 5185,11621 5185,11888 5026,11888 5026,11621 Z M 5030,11627 L 5181,11627 5181,11882 5030,11882 5030,11627 Z"/>
             <path fill="rgb(133,133,133)" stroke="none" d="M 5030,11627 L 5181,11627 5181,11882 5030,11882 5030,11627 Z M 5034,11634 L 5177,11634 5177,11875 5034,11875 5034,11634 Z"/>
             <path fill="rgb(134,134,134)" stroke="none" d="M 5034,11634 L 5177,11634 5177,11875 5034,11875 5034,11634 Z M 5037,11640 L 5174,11640 5174,11869 5037,11869 5037,11640 Z"/>
             <path fill="rgb(135,135,135)" stroke="none" d="M 5037,11640 L 5174,11640 5174,11869 5037,11869 5037,11640 Z M 5041,11647 L 5170,11647 5170,11862 5041,11862 5041,11647 Z"/>
             <path fill="rgb(136,136,136)" stroke="none" d="M 5041,11647 L 5170,11647 5170,11862 5041,11862 5041,11647 Z M 5045,11653 L 5166,11653 5166,11856 5045,11856 5045,11653 Z"/>
             <path fill="rgb(137,137,137)" stroke="none" d="M 5045,11653 L 5166,11653 5166,11856 5045,11856 5045,11653 Z M 5049,11659 L 5162,11659 5162,11850 5049,11850 5049,11659 Z"/>
             <path fill="rgb(138,138,138)" stroke="none" d="M 5049,11659 L 5162,11659 5162,11850 5049,11850 5049,11659 Z M 5053,11666 L 5158,11666 5158,11843 5053,11843 5053,11666 Z"/>
             <path fill="rgb(139,139,139)" stroke="none" d="M 5053,11666 L 5158,11666 5158,11843 5053,11843 5053,11666 Z M 5056,11672 L 5155,11672 5155,11837 5056,11837 5056,11672 Z"/>
             <path fill="rgb(140,140,140)" stroke="none" d="M 5056,11672 L 5155,11672 5155,11837 5056,11837 5056,11672 Z M 5060,11678 L 5151,11678 5151,11831 5060,11831 5060,11678 Z"/>
             <path fill="rgb(141,141,141)" stroke="none" d="M 5060,11678 L 5151,11678 5151,11831 5060,11831 5060,11678 Z M 5064,11685 L 5147,11685 5147,11824 5064,11824 5064,11685 Z"/>
             <path fill="rgb(142,142,142)" stroke="none" d="M 5064,11685 L 5147,11685 5147,11824 5064,11824 5064,11685 Z M 5068,11691 L 5143,11691 5143,11818 5068,11818 5068,11691 Z"/>
             <path fill="rgb(143,143,143)" stroke="none" d="M 5068,11691 L 5143,11691 5143,11818 5068,11818 5068,11691 Z M 5072,11698 L 5139,11698 5139,11811 5072,11811 5072,11698 Z"/>
             <path fill="rgb(144,144,144)" stroke="none" d="M 5072,11698 L 5139,11698 5139,11811 5072,11811 5072,11698 Z M 5076,11704 L 5135,11704 5135,11805 5076,11805 5076,11704 Z"/>
             <path fill="rgb(145,145,145)" stroke="none" d="M 5076,11704 L 5135,11704 5135,11805 5076,11805 5076,11704 Z M 5079,11710 L 5132,11710 5132,11799 5079,11799 5079,11710 Z"/>
             <path fill="rgb(146,146,146)" stroke="none" d="M 5079,11710 L 5132,11710 5132,11799 5079,11799 5079,11710 Z M 5083,11717 L 5128,11717 5128,11792 5083,11792 5083,11717 Z"/>
             <path fill="rgb(147,147,147)" stroke="none" d="M 5083,11717 L 5128,11717 5128,11792 5083,11792 5083,11717 Z M 5087,11723 L 5124,11723 5124,11786 5087,11786 5087,11723 Z"/>
             <path fill="rgb(148,148,148)" stroke="none" d="M 5087,11723 L 5124,11723 5124,11786 5087,11786 5087,11723 Z M 5091,11729 L 5120,11729 5120,11780 5091,11780 5091,11729 Z"/>
             <path fill="rgb(149,149,149)" stroke="none" d="M 5091,11729 L 5120,11729 5120,11780 5091,11780 5091,11729 Z M 5095,11736 L 5116,11736 5116,11773 5095,11773 5095,11736 Z"/>
             <path fill="rgb(150,150,150)" stroke="none" d="M 5095,11736 L 5116,11736 5116,11773 5095,11773 5095,11736 Z M 5098,11742 L 5113,11742 5113,11767 5098,11767 5098,11742 Z"/>
             <path fill="rgb(151,151,151)" stroke="none" d="M 5098,11742 L 5113,11742 5113,11767 5098,11767 5098,11742 Z M 5102,11749 L 5109,11749 5109,11760 5102,11760 5102,11749 Z"/>
             <path fill="rgb(153,153,153)" stroke="none" d="M 5102,11749 L 5109,11749 5109,11760 5102,11760 5102,11749 Z"/>
            </g>
           </pattern>
          </defs>
          <path style="fill:url(#pattern1)" d="M 5648,12217 L 5648,11366 4874,11769 4874,12664 5648,12217 Z"/>
         </g>
         <path fill="none" stroke="rgb(178,178,178)" stroke-width="40" stroke-linejoin="round" d="M 5648,12217 L 5648,11366 4874,11769 4874,12664 5648,12217 Z"/>
        </g>
       </g>
       <g class="com.sun.star.drawing.PolyPolygonShape">
        <g id="id5">
         <rect class="BoundingBox" stroke="none" fill="none" x="5163" y="11928" width="583" height="354"/>
         <g>
          <defs>
           <linearGradient id="gradient1" x1="5454" y1="11948" x2="5454" y2="12261" gradientUnits="userSpaceOnUse">
            <stop offset="0.1" style="stop-color:rgb(51,51,51)"/>
            <stop offset="1" style="stop-color:rgb(153,153,153)"/>
           </linearGradient>
          </defs>
          <path style="fill:url(#gradient1)" d="M 5570,12261 L 5725,12172 5338,11948 5183,12038 5570,12261 Z"/>
         </g>
         <path fill="none" stroke="rgb(178,178,178)" stroke-width="40" stroke-linejoin="round" d="M 5570,12261 L 5725,12172 5338,11948 5183,12038 5570,12261 Z"/>
        </g>
       </g>
       <g class="com.sun.star.drawing.PolyPolygonShape">
        <g id="id6">
         <rect class="BoundingBox" stroke="none" fill="none" x="5705" y="11302" width="196" height="1250"/>
         <g>
          <defs>
           <pattern id="pattern2" x="5725" y="11322" width="156" height="1210" patternUnits="userSpaceOnUse">
            <g transform="translate(-5725,-11322)">
             <path fill="rgb(51,51,51)" stroke="none" d="M 5724,11321 L 5881,11321 5881,12532 5724,12532 5724,11321 Z M 5693,11084 L 5848,11084 5848,12283 5693,12283 5693,11084 Z"/>
             <path fill="rgb(52,52,52)" stroke="none" d="M 5693,11084 L 5848,11084 5848,12283 5693,12283 5693,11084 Z M 5694,11090 L 5847,11090 5847,12277 5694,12277 5694,11090 Z"/>
             <path fill="rgb(53,53,53)" stroke="none" d="M 5694,11090 L 5847,11090 5847,12277 5694,12277 5694,11090 Z M 5695,11096 L 5846,11096 5846,12271 5695,12271 5695,11096 Z"/>
             <path fill="rgb(54,54,54)" stroke="none" d="M 5695,11096 L 5846,11096 5846,12271 5695,12271 5695,11096 Z M 5696,11102 L 5845,11102 5845,12265 5696,12265 5696,11102 Z"/>
             <path fill="rgb(55,55,55)" stroke="none" d="M 5696,11102 L 5845,11102 5845,12265 5696,12265 5696,11102 Z M 5696,11108 L 5845,11108 5845,12259 5696,12259 5696,11108 Z"/>
             <path fill="rgb(56,56,56)" stroke="none" d="M 5696,11108 L 5845,11108 5845,12259 5696,12259 5696,11108 Z M 5697,11114 L 5844,11114 5844,12253 5697,12253 5697,11114 Z"/>
             <path fill="rgb(57,57,57)" stroke="none" d="M 5697,11114 L 5844,11114 5844,12253 5697,12253 5697,11114 Z M 5698,11120 L 5843,11120 5843,12247 5698,12247 5698,11120 Z"/>
             <path fill="rgb(58,58,58)" stroke="none" d="M 5698,11120 L 5843,11120 5843,12247 5698,12247 5698,11120 Z M 5699,11126 L 5842,11126 5842,12241 5699,12241 5699,11126 Z"/>
             <path fill="rgb(59,59,59)" stroke="none" d="M 5699,11126 L 5842,11126 5842,12241 5699,12241 5699,11126 Z M 5699,11132 L 5842,11132 5842,12235 5699,12235 5699,11132 Z"/>
             <path fill="rgb(60,60,60)" stroke="none" d="M 5699,11132 L 5842,11132 5842,12235 5699,12235 5699,11132 Z M 5700,11138 L 5841,11138 5841,12229 5700,12229 5700,11138 Z"/>
             <path fill="rgb(61,61,61)" stroke="none" d="M 5700,11138 L 5841,11138 5841,12229 5700,12229 5700,11138 Z M 5701,11144 L 5840,11144 5840,12223 5701,12223 5701,11144 Z"/>
             <path fill="rgb(62,62,62)" stroke="none" d="M 5701,11144 L 5840,11144 5840,12223 5701,12223 5701,11144 Z M 5702,11150 L 5839,11150 5839,12217 5702,12217 5702,11150 Z"/>
             <path fill="rgb(63,63,63)" stroke="none" d="M 5702,11150 L 5839,11150 5839,12217 5702,12217 5702,11150 Z M 5703,11156 L 5838,11156 5838,12211 5703,12211 5703,11156 Z"/>
             <path fill="rgb(64,64,64)" stroke="none" d="M 5703,11156 L 5838,11156 5838,12211 5703,12211 5703,11156 Z M 5703,11162 L 5838,11162 5838,12205 5703,12205 5703,11162 Z"/>
             <path fill="rgb(65,65,65)" stroke="none" d="M 5703,11162 L 5838,11162 5838,12205 5703,12205 5703,11162 Z M 5704,11168 L 5837,11168 5837,12199 5704,12199 5704,11168 Z"/>
             <path fill="rgb(66,66,66)" stroke="none" d="M 5704,11168 L 5837,11168 5837,12199 5704,12199 5704,11168 Z M 5705,11174 L 5836,11174 5836,12193 5705,12193 5705,11174 Z"/>
             <path fill="rgb(67,67,67)" stroke="none" d="M 5705,11174 L 5836,11174 5836,12193 5705,12193 5705,11174 Z M 5705,11179 L 5835,11179 5835,12187 5705,12187 5705,11179 Z"/>
             <path fill="rgb(68,68,68)" stroke="none" d="M 5705,11179 L 5835,11179 5835,12187 5705,12187 5705,11179 Z M 5705,11185 L 5835,11185 5835,12182 5705,12182 5705,11185 Z"/>
             <path fill="rgb(69,69,69)" stroke="none" d="M 5705,11185 L 5835,11185 5835,12182 5705,12182 5705,11185 Z M 5706,11191 L 5834,11191 5834,12176 5706,12176 5706,11191 Z"/>
             <path fill="rgb(70,70,70)" stroke="none" d="M 5706,11191 L 5834,11191 5834,12176 5706,12176 5706,11191 Z M 5707,11197 L 5833,11197 5833,12170 5707,12170 5707,11197 Z"/>
             <path fill="rgb(71,71,71)" stroke="none" d="M 5707,11197 L 5833,11197 5833,12170 5707,12170 5707,11197 Z M 5708,11203 L 5832,11203 5832,12164 5708,12164 5708,11203 Z"/>
             <path fill="rgb(72,72,72)" stroke="none" d="M 5708,11203 L 5832,11203 5832,12164 5708,12164 5708,11203 Z M 5709,11209 L 5831,11209 5831,12158 5709,12158 5709,11209 Z"/>
             <path fill="rgb(73,73,73)" stroke="none" d="M 5709,11209 L 5831,11209 5831,12158 5709,12158 5709,11209 Z M 5709,11215 L 5831,11215 5831,12152 5709,12152 5709,11215 Z"/>
             <path fill="rgb(74,74,74)" stroke="none" d="M 5709,11215 L 5831,11215 5831,12152 5709,12152 5709,11215 Z M 5710,11221 L 5830,11221 5830,12146 5710,12146 5710,11221 Z"/>
             <path fill="rgb(75,75,75)" stroke="none" d="M 5710,11221 L 5830,11221 5830,12146 5710,12146 5710,11221 Z M 5711,11227 L 5829,11227 5829,12140 5711,12140 5711,11227 Z"/>
             <path fill="rgb(76,76,76)" stroke="none" d="M 5711,11227 L 5829,11227 5829,12140 5711,12140 5711,11227 Z M 5712,11233 L 5828,11233 5828,12134 5712,12134 5712,11233 Z"/>
             <path fill="rgb(77,77,77)" stroke="none" d="M 5712,11233 L 5828,11233 5828,12134 5712,12134 5712,11233 Z M 5712,11239 L 5828,11239 5828,12128 5712,12128 5712,11239 Z"/>
             <path fill="rgb(78,78,78)" stroke="none" d="M 5712,11239 L 5828,11239 5828,12128 5712,12128 5712,11239 Z M 5713,11245 L 5827,11245 5827,12122 5713,12122 5713,11245 Z"/>
             <path fill="rgb(79,79,79)" stroke="none" d="M 5713,11245 L 5827,11245 5827,12122 5713,12122 5713,11245 Z M 5714,11251 L 5826,11251 5826,12116 5714,12116 5714,11251 Z"/>
             <path fill="rgb(80,80,80)" stroke="none" d="M 5714,11251 L 5826,11251 5826,12116 5714,12116 5714,11251 Z M 5715,11257 L 5825,11257 5825,12110 5715,12110 5715,11257 Z"/>
             <path fill="rgb(81,81,81)" stroke="none" d="M 5715,11257 L 5825,11257 5825,12110 5715,12110 5715,11257 Z M 5716,11263 L 5824,11263 5824,12104 5716,12104 5716,11263 Z"/>
             <path fill="rgb(82,82,82)" stroke="none" d="M 5716,11263 L 5824,11263 5824,12104 5716,12104 5716,11263 Z M 5716,11269 L 5824,11269 5824,12098 5716,12098 5716,11269 Z"/>
             <path fill="rgb(83,83,83)" stroke="none" d="M 5716,11269 L 5824,11269 5824,12098 5716,12098 5716,11269 Z M 5717,11275 L 5823,11275 5823,12092 5717,12092 5717,11275 Z"/>
             <path fill="rgb(84,84,84)" stroke="none" d="M 5717,11275 L 5823,11275 5823,12092 5717,12092 5717,11275 Z M 5718,11280 L 5822,11280 5822,12086 5718,12086 5718,11280 Z"/>
             <path fill="rgb(85,85,85)" stroke="none" d="M 5718,11280 L 5822,11280 5822,12086 5718,12086 5718,11280 Z M 5719,11286 L 5821,11286 5821,12081 5719,12081 5719,11286 Z"/>
             <path fill="rgb(86,86,86)" stroke="none" d="M 5719,11286 L 5821,11286 5821,12081 5719,12081 5719,11286 Z M 5719,11292 L 5821,11292 5821,12075 5719,12075 5719,11292 Z"/>
             <path fill="rgb(87,87,87)" stroke="none" d="M 5719,11292 L 5821,11292 5821,12075 5719,12075 5719,11292 Z M 5720,11298 L 5820,11298 5820,12069 5720,12069 5720,11298 Z"/>
             <path fill="rgb(88,88,88)" stroke="none" d="M 5720,11298 L 5820,11298 5820,12069 5720,12069 5720,11298 Z M 5721,11303 L 5819,11303 5819,12063 5721,12063 5721,11303 Z"/>
             <path fill="rgb(89,89,89)" stroke="none" d="M 5721,11303 L 5819,11303 5819,12063 5721,12063 5721,11303 Z M 5722,11309 L 5818,11309 5818,12057 5722,12057 5722,11309 Z"/>
             <path fill="rgb(90,90,90)" stroke="none" d="M 5722,11309 L 5818,11309 5818,12057 5722,12057 5722,11309 Z M 5722,11315 L 5818,11315 5818,12051 5722,12051 5722,11315 Z"/>
             <path fill="rgb(91,91,91)" stroke="none" d="M 5722,11315 L 5818,11315 5818,12051 5722,12051 5722,11315 Z M 5723,11321 L 5817,11321 5817,12045 5723,12045 5723,11321 Z"/>
             <path fill="rgb(92,92,92)" stroke="none" d="M 5723,11321 L 5817,11321 5817,12045 5723,12045 5723,11321 Z M 5724,11327 L 5816,11327 5816,12039 5724,12039 5724,11327 Z"/>
             <path fill="rgb(93,93,93)" stroke="none" d="M 5724,11327 L 5816,11327 5816,12039 5724,12039 5724,11327 Z M 5725,11333 L 5815,11333 5815,12033 5725,12033 5725,11333 Z"/>
             <path fill="rgb(94,94,94)" stroke="none" d="M 5725,11333 L 5815,11333 5815,12033 5725,12033 5725,11333 Z M 5726,11339 L 5814,11339 5814,12027 5726,12027 5726,11339 Z"/>
             <path fill="rgb(95,95,95)" stroke="none" d="M 5726,11339 L 5814,11339 5814,12027 5726,12027 5726,11339 Z M 5726,11345 L 5814,11345 5814,12021 5726,12021 5726,11345 Z"/>
             <path fill="rgb(96,96,96)" stroke="none" d="M 5726,11345 L 5814,11345 5814,12021 5726,12021 5726,11345 Z M 5727,11351 L 5813,11351 5813,12015 5727,12015 5727,11351 Z"/>
             <path fill="rgb(97,97,97)" stroke="none" d="M 5727,11351 L 5813,11351 5813,12015 5727,12015 5727,11351 Z M 5728,11357 L 5812,11357 5812,12009 5728,12009 5728,11357 Z"/>
             <path fill="rgb(98,98,98)" stroke="none" d="M 5728,11357 L 5812,11357 5812,12009 5728,12009 5728,11357 Z M 5729,11363 L 5811,11363 5811,12003 5729,12003 5729,11363 Z"/>
             <path fill="rgb(99,99,99)" stroke="none" d="M 5729,11363 L 5811,11363 5811,12003 5729,12003 5729,11363 Z M 5729,11369 L 5811,11369 5811,11997 5729,11997 5729,11369 Z"/>
             <path fill="rgb(100,100,100)" stroke="none" d="M 5729,11369 L 5811,11369 5811,11997 5729,11997 5729,11369 Z M 5730,11375 L 5810,11375 5810,11991 5730,11991 5730,11375 Z"/>
             <path fill="rgb(101,101,101)" stroke="none" d="M 5730,11375 L 5810,11375 5810,11991 5730,11991 5730,11375 Z M 5731,11380 L 5809,11380 5809,11985 5731,11985 5731,11380 Z"/>
             <path fill="rgb(102,102,102)" stroke="none" d="M 5731,11380 L 5809,11380 5809,11985 5731,11985 5731,11380 Z M 5732,11386 L 5808,11386 5808,11980 5732,11980 5732,11386 Z"/>
             <path fill="rgb(103,103,103)" stroke="none" d="M 5732,11386 L 5808,11386 5808,11980 5732,11980 5732,11386 Z M 5733,11392 L 5807,11392 5807,11974 5733,11974 5733,11392 Z"/>
             <path fill="rgb(104,104,104)" stroke="none" d="M 5733,11392 L 5807,11392 5807,11974 5733,11974 5733,11392 Z M 5733,11398 L 5807,11398 5807,11968 5733,11968 5733,11398 Z"/>
             <path fill="rgb(105,105,105)" stroke="none" d="M 5733,11398 L 5807,11398 5807,11968 5733,11968 5733,11398 Z M 5734,11404 L 5806,11404 5806,11962 5734,11962 5734,11404 Z"/>
             <path fill="rgb(106,106,106)" stroke="none" d="M 5734,11404 L 5806,11404 5806,11962 5734,11962 5734,11404 Z M 5735,11410 L 5805,11410 5805,11956 5735,11956 5735,11410 Z"/>
             <path fill="rgb(107,107,107)" stroke="none" d="M 5735,11410 L 5805,11410 5805,11956 5735,11956 5735,11410 Z M 5736,11416 L 5804,11416 5804,11950 5736,11950 5736,11416 Z"/>
             <path fill="rgb(108,108,108)" stroke="none" d="M 5736,11416 L 5804,11416 5804,11950 5736,11950 5736,11416 Z M 5736,11422 L 5804,11422 5804,11944 5736,11944 5736,11422 Z"/>
             <path fill="rgb(109,109,109)" stroke="none" d="M 5736,11422 L 5804,11422 5804,11944 5736,11944 5736,11422 Z M 5737,11428 L 5803,11428 5803,11938 5737,11938 5737,11428 Z"/>
             <path fill="rgb(110,110,110)" stroke="none" d="M 5737,11428 L 5803,11428 5803,11938 5737,11938 5737,11428 Z M 5738,11434 L 5802,11434 5802,11932 5738,11932 5738,11434 Z"/>
             <path fill="rgb(111,111,111)" stroke="none" d="M 5738,11434 L 5802,11434 5802,11932 5738,11932 5738,11434 Z M 5739,11440 L 5801,11440 5801,11926 5739,11926 5739,11440 Z"/>
             <path fill="rgb(112,112,112)" stroke="none" d="M 5739,11440 L 5801,11440 5801,11926 5739,11926 5739,11440 Z M 5740,11446 L 5800,11446 5800,11920 5740,11920 5740,11446 Z"/>
             <path fill="rgb(113,113,113)" stroke="none" d="M 5740,11446 L 5800,11446 5800,11920 5740,11920 5740,11446 Z M 5740,11452 L 5800,11452 5800,11914 5740,11914 5740,11452 Z"/>
             <path fill="rgb(114,114,114)" stroke="none" d="M 5740,11452 L 5800,11452 5800,11914 5740,11914 5740,11452 Z M 5741,11458 L 5799,11458 5799,11908 5741,11908 5741,11458 Z"/>
             <path fill="rgb(115,115,115)" stroke="none" d="M 5741,11458 L 5799,11458 5799,11908 5741,11908 5741,11458 Z M 5742,11464 L 5798,11464 5798,11902 5742,11902 5742,11464 Z"/>
             <path fill="rgb(116,116,116)" stroke="none" d="M 5742,11464 L 5798,11464 5798,11902 5742,11902 5742,11464 Z M 5743,11470 L 5797,11470 5797,11896 5743,11896 5743,11470 Z"/>
             <path fill="rgb(117,117,117)" stroke="none" d="M 5743,11470 L 5797,11470 5797,11896 5743,11896 5743,11470 Z M 5743,11476 L 5797,11476 5797,11890 5743,11890 5743,11476 Z"/>
             <path fill="rgb(118,118,118)" stroke="none" d="M 5743,11476 L 5797,11476 5797,11890 5743,11890 5743,11476 Z M 5744,11481 L 5796,11481 5796,11884 5744,11884 5744,11481 Z"/>
             <path fill="rgb(119,119,119)" stroke="none" d="M 5744,11481 L 5796,11481 5796,11884 5744,11884 5744,11481 Z M 5745,11487 L 5795,11487 5795,11879 5745,11879 5745,11487 Z"/>
             <path fill="rgb(120,120,120)" stroke="none" d="M 5745,11487 L 5795,11487 5795,11879 5745,11879 5745,11487 Z M 5746,11493 L 5794,11493 5794,11873 5746,11873 5746,11493 Z"/>
             <path fill="rgb(121,121,121)" stroke="none" d="M 5746,11493 L 5794,11493 5794,11873 5746,11873 5746,11493 Z M 5746,11499 L 5794,11499 5794,11867 5746,11867 5746,11499 Z"/>
             <path fill="rgb(122,122,122)" stroke="none" d="M 5746,11499 L 5794,11499 5794,11867 5746,11867 5746,11499 Z M 5747,11505 L 5793,11505 5793,11861 5747,11861 5747,11505 Z"/>
             <path fill="rgb(123,123,123)" stroke="none" d="M 5747,11505 L 5793,11505 5793,11861 5747,11861 5747,11505 Z M 5748,11511 L 5792,11511 5792,11855 5748,11855 5748,11511 Z"/>
             <path fill="rgb(124,124,124)" stroke="none" d="M 5748,11511 L 5792,11511 5792,11855 5748,11855 5748,11511 Z M 5749,11517 L 5791,11517 5791,11849 5749,11849 5749,11517 Z"/>
             <path fill="rgb(125,125,125)" stroke="none" d="M 5749,11517 L 5791,11517 5791,11849 5749,11849 5749,11517 Z M 5750,11523 L 5790,11523 5790,11843 5750,11843 5750,11523 Z"/>
             <path fill="rgb(126,126,126)" stroke="none" d="M 5750,11523 L 5790,11523 5790,11843 5750,11843 5750,11523 Z M 5750,11529 L 5790,11529 5790,11837 5750,11837 5750,11529 Z"/>
             <path fill="rgb(127,127,127)" stroke="none" d="M 5750,11529 L 5790,11529 5790,11837 5750,11837 5750,11529 Z M 5751,11535 L 5789,11535 5789,11831 5751,11831 5751,11535 Z"/>
             <path fill="rgb(128,128,128)" stroke="none" d="M 5751,11535 L 5789,11535 5789,11831 5751,11831 5751,11535 Z M 5752,11541 L 5788,11541 5788,11825 5752,11825 5752,11541 Z"/>
             <path fill="rgb(129,129,129)" stroke="none" d="M 5752,11541 L 5788,11541 5788,11825 5752,11825 5752,11541 Z M 5753,11547 L 5787,11547 5787,11819 5753,11819 5753,11547 Z"/>
             <path fill="rgb(130,130,130)" stroke="none" d="M 5753,11547 L 5787,11547 5787,11819 5753,11819 5753,11547 Z M 5753,11553 L 5787,11553 5787,11813 5753,11813 5753,11553 Z"/>
             <path fill="rgb(131,131,131)" stroke="none" d="M 5753,11553 L 5787,11553 5787,11813 5753,11813 5753,11553 Z M 5754,11559 L 5786,11559 5786,11807 5754,11807 5754,11559 Z"/>
             <path fill="rgb(132,132,132)" stroke="none" d="M 5754,11559 L 5786,11559 5786,11807 5754,11807 5754,11559 Z M 5755,11565 L 5785,11565 5785,11801 5755,11801 5755,11565 Z"/>
             <path fill="rgb(133,133,133)" stroke="none" d="M 5755,11565 L 5785,11565 5785,11801 5755,11801 5755,11565 Z M 5756,11571 L 5784,11571 5784,11795 5756,11795 5756,11571 Z"/>
             <path fill="rgb(134,134,134)" stroke="none" d="M 5756,11571 L 5784,11571 5784,11795 5756,11795 5756,11571 Z M 5757,11577 L 5783,11577 5783,11789 5757,11789 5757,11577 Z"/>
             <path fill="rgb(135,135,135)" stroke="none" d="M 5757,11577 L 5783,11577 5783,11789 5757,11789 5757,11577 Z M 5757,11582 L 5783,11582 5783,11783 5757,11783 5757,11582 Z"/>
             <path fill="rgb(136,136,136)" stroke="none" d="M 5757,11582 L 5783,11582 5783,11783 5757,11783 5757,11582 Z M 5758,11588 L 5782,11588 5782,11778 5758,11778 5758,11588 Z"/>
             <path fill="rgb(137,137,137)" stroke="none" d="M 5758,11588 L 5782,11588 5782,11778 5758,11778 5758,11588 Z M 5759,11594 L 5781,11594 5781,11772 5759,11772 5759,11594 Z"/>
             <path fill="rgb(138,138,138)" stroke="none" d="M 5759,11594 L 5781,11594 5781,11772 5759,11772 5759,11594 Z M 5760,11600 L 5780,11600 5780,11766 5760,11766 5760,11600 Z"/>
             <path fill="rgb(139,139,139)" stroke="none" d="M 5760,11600 L 5780,11600 5780,11766 5760,11766 5760,11600 Z M 5760,11606 L 5780,11606 5780,11760 5760,11760 5760,11606 Z"/>
             <path fill="rgb(140,140,140)" stroke="none" d="M 5760,11606 L 5780,11606 5780,11760 5760,11760 5760,11606 Z M 5761,11612 L 5779,11612 5779,11754 5761,11754 5761,11612 Z"/>
             <path fill="rgb(141,141,141)" stroke="none" d="M 5761,11612 L 5779,11612 5779,11754 5761,11754 5761,11612 Z M 5762,11618 L 5778,11618 5778,11748 5762,11748 5762,11618 Z"/>
             <path fill="rgb(142,142,142)" stroke="none" d="M 5762,11618 L 5778,11618 5778,11748 5762,11748 5762,11618 Z M 5763,11624 L 5777,11624 5777,11742 5763,11742 5763,11624 Z"/>
             <path fill="rgb(143,143,143)" stroke="none" d="M 5763,11624 L 5777,11624 5777,11742 5763,11742 5763,11624 Z M 5764,11630 L 5776,11630 5776,11736 5764,11736 5764,11630 Z"/>
             <path fill="rgb(144,144,144)" stroke="none" d="M 5764,11630 L 5776,11630 5776,11736 5764,11736 5764,11630 Z M 5764,11636 L 5776,11636 5776,11730 5764,11730 5764,11636 Z"/>
             <path fill="rgb(145,145,145)" stroke="none" d="M 5764,11636 L 5776,11636 5776,11730 5764,11730 5764,11636 Z M 5765,11642 L 5775,11642 5775,11724 5765,11724 5765,11642 Z"/>
             <path fill="rgb(146,146,146)" stroke="none" d="M 5765,11642 L 5775,11642 5775,11724 5765,11724 5765,11642 Z M 5766,11648 L 5774,11648 5774,11718 5766,11718 5766,11648 Z"/>
             <path fill="rgb(147,147,147)" stroke="none" d="M 5766,11648 L 5774,11648 5774,11718 5766,11718 5766,11648 Z M 5767,11654 L 5773,11654 5773,11712 5767,11712 5767,11654 Z"/>
             <path fill="rgb(148,148,148)" stroke="none" d="M 5767,11654 L 5773,11654 5773,11712 5767,11712 5767,11654 Z M 5767,11660 L 5773,11660 5773,11706 5767,11706 5767,11660 Z"/>
             <path fill="rgb(149,149,149)" stroke="none" d="M 5767,11660 L 5773,11660 5773,11706 5767,11706 5767,11660 Z M 5768,11666 L 5772,11666 5772,11700 5768,11700 5768,11666 Z"/>
             <path fill="rgb(150,150,150)" stroke="none" d="M 5768,11666 L 5772,11666 5772,11700 5768,11700 5768,11666 Z M 5769,11672 L 5771,11672 5771,11694 5769,11694 5769,11672 Z"/>
             <path fill="rgb(153,153,153)" stroke="none" d="M 5769,11672 L 5771,11672 5771,11694 5769,11694 5769,11672 Z"/>
            </g>
           </pattern>
          </defs>
          <path style="fill:url(#pattern2)" d="M 5880,12441 L 5880,11322 5725,11412 5725,12531 5880,12441 Z"/>
         </g>
         <path fill="none" stroke="rgb(178,178,178)" stroke-width="40" stroke-linejoin="round" d="M 5880,12441 L 5880,11322 5725,11412 5725,12531 5880,12441 Z"/>
        </g>
       </g>
       <g class="com.sun.star.drawing.PolyPolygonShape">
        <g id="id7">
         <rect class="BoundingBox" stroke="none" fill="none" x="5163" y="11302" width="583" height="1250"/>
         <g>
          <defs>
           <linearGradient id="gradient2" x1="5182" y1="11926" x2="5727" y2="11926" gradientUnits="userSpaceOnUse">
            <stop offset="0.1" style="stop-color:rgb(51,51,51)"/>
            <stop offset="1" style="stop-color:rgb(153,153,153)"/>
           </linearGradient>
          </defs>
          <path style="fill:url(#gradient2)" d="M 5725,12531 L 5725,11412 5570,11322 5570,12262 5183,12038 5183,12217 5725,12531 Z"/>
         </g>
         <path fill="none" stroke="rgb(178,178,178)" stroke-width="40" stroke-linejoin="round" d="M 5725,12531 L 5725,11412 5570,11322 5570,12262 5183,12038 5183,12217 5725,12531 Z"/>
        </g>
       </g>
       <g class="com.sun.star.drawing.PolyPolygonShape">
        <g id="id8">
         <rect class="BoundingBox" stroke="none" fill="none" x="6403" y="10630" width="815" height="1384"/>
         <g>
          <defs>
           <pattern id="pattern3" x="6423" y="10650" width="775" height="1344" patternUnits="userSpaceOnUse">
            <g transform="translate(-6423,-10650)">
             <path fill="rgb(51,51,51)" stroke="none" d="M 6422,10649 L 7198,10649 7198,11994 6422,11994 6422,10649 Z M 6271,10386 L 7039,10386 7039,11717 6271,11717 6271,10386 Z"/>
             <path fill="rgb(52,52,52)" stroke="none" d="M 6271,10386 L 7039,10386 7039,11717 6271,11717 6271,10386 Z M 6275,10393 L 7035,10393 7035,11710 6275,11710 6275,10393 Z"/>
             <path fill="rgb(53,53,53)" stroke="none" d="M 6275,10393 L 7035,10393 7035,11710 6275,11710 6275,10393 Z M 6279,10399 L 7031,10399 7031,11704 6279,11704 6279,10399 Z"/>
             <path fill="rgb(54,54,54)" stroke="none" d="M 6279,10399 L 7031,10399 7031,11704 6279,11704 6279,10399 Z M 6283,10406 L 7027,10406 7027,11697 6283,11697 6283,10406 Z"/>
             <path fill="rgb(55,55,55)" stroke="none" d="M 6283,10406 L 7027,10406 7027,11697 6283,11697 6283,10406 Z M 6287,10412 L 7023,10412 7023,11691 6287,11691 6287,10412 Z"/>
             <path fill="rgb(56,56,56)" stroke="none" d="M 6287,10412 L 7023,10412 7023,11691 6287,11691 6287,10412 Z M 6290,10419 L 7020,10419 7020,11684 6290,11684 6290,10419 Z"/>
             <path fill="rgb(57,57,57)" stroke="none" d="M 6290,10419 L 7020,10419 7020,11684 6290,11684 6290,10419 Z M 6294,10426 L 7016,10426 7016,11677 6294,11677 6294,10426 Z"/>
             <path fill="rgb(58,58,58)" stroke="none" d="M 6294,10426 L 7016,10426 7016,11677 6294,11677 6294,10426 Z M 6298,10432 L 7012,10432 7012,11671 6298,11671 6298,10432 Z"/>
             <path fill="rgb(59,59,59)" stroke="none" d="M 6298,10432 L 7012,10432 7012,11671 6298,11671 6298,10432 Z M 6302,10439 L 7008,10439 7008,11664 6302,11664 6302,10439 Z"/>
             <path fill="rgb(60,60,60)" stroke="none" d="M 6302,10439 L 7008,10439 7008,11664 6302,11664 6302,10439 Z M 6306,10445 L 7004,10445 7004,11658 6306,11658 6306,10445 Z"/>
             <path fill="rgb(61,61,61)" stroke="none" d="M 6306,10445 L 7004,10445 7004,11658 6306,11658 6306,10445 Z M 6309,10452 L 7001,10452 7001,11651 6309,11651 6309,10452 Z"/>
             <path fill="rgb(62,62,62)" stroke="none" d="M 6309,10452 L 7001,10452 7001,11651 6309,11651 6309,10452 Z M 6313,10459 L 6997,10459 6997,11644 6313,11644 6313,10459 Z"/>
             <path fill="rgb(63,63,63)" stroke="none" d="M 6313,10459 L 6997,10459 6997,11644 6313,11644 6313,10459 Z M 6317,10465 L 6993,10465 6993,11638 6317,11638 6317,10465 Z"/>
             <path fill="rgb(64,64,64)" stroke="none" d="M 6317,10465 L 6993,10465 6993,11638 6317,11638 6317,10465 Z M 6321,10472 L 6989,10472 6989,11631 6321,11631 6321,10472 Z"/>
             <path fill="rgb(65,65,65)" stroke="none" d="M 6321,10472 L 6989,10472 6989,11631 6321,11631 6321,10472 Z M 6325,10478 L 6985,10478 6985,11625 6325,11625 6325,10478 Z"/>
             <path fill="rgb(66,66,66)" stroke="none" d="M 6325,10478 L 6985,10478 6985,11625 6325,11625 6325,10478 Z M 6328,10485 L 6982,10485 6982,11618 6328,11618 6328,10485 Z"/>
             <path fill="rgb(67,67,67)" stroke="none" d="M 6328,10485 L 6982,10485 6982,11618 6328,11618 6328,10485 Z M 6332,10492 L 6978,10492 6978,11611 6332,11611 6332,10492 Z"/>
             <path fill="rgb(68,68,68)" stroke="none" d="M 6332,10492 L 6978,10492 6978,11611 6332,11611 6332,10492 Z M 6336,10498 L 6974,10498 6974,11605 6336,11605 6336,10498 Z"/>
             <path fill="rgb(69,69,69)" stroke="none" d="M 6336,10498 L 6974,10498 6974,11605 6336,11605 6336,10498 Z M 6340,10505 L 6970,10505 6970,11598 6340,11598 6340,10505 Z"/>
             <path fill="rgb(70,70,70)" stroke="none" d="M 6340,10505 L 6970,10505 6970,11598 6340,11598 6340,10505 Z M 6344,10511 L 6966,10511 6966,11592 6344,11592 6344,10511 Z"/>
             <path fill="rgb(71,71,71)" stroke="none" d="M 6344,10511 L 6966,10511 6966,11592 6344,11592 6344,10511 Z M 6347,10518 L 6963,10518 6963,11585 6347,11585 6347,10518 Z"/>
             <path fill="rgb(72,72,72)" stroke="none" d="M 6347,10518 L 6963,10518 6963,11585 6347,11585 6347,10518 Z M 6351,10525 L 6959,10525 6959,11578 6351,11578 6351,10525 Z"/>
             <path fill="rgb(73,73,73)" stroke="none" d="M 6351,10525 L 6959,10525 6959,11578 6351,11578 6351,10525 Z M 6355,10531 L 6955,10531 6955,11572 6355,11572 6355,10531 Z"/>
             <path fill="rgb(74,74,74)" stroke="none" d="M 6355,10531 L 6955,10531 6955,11572 6355,11572 6355,10531 Z M 6359,10538 L 6951,10538 6951,11565 6359,11565 6359,10538 Z"/>
             <path fill="rgb(75,75,75)" stroke="none" d="M 6359,10538 L 6951,10538 6951,11565 6359,11565 6359,10538 Z M 6363,10544 L 6947,10544 6947,11559 6363,11559 6363,10544 Z"/>
             <path fill="rgb(76,76,76)" stroke="none" d="M 6363,10544 L 6947,10544 6947,11559 6363,11559 6363,10544 Z M 6367,10551 L 6943,10551 6943,11552 6367,11552 6367,10551 Z"/>
             <path fill="rgb(77,77,77)" stroke="none" d="M 6367,10551 L 6943,10551 6943,11552 6367,11552 6367,10551 Z M 6370,10558 L 6940,10558 6940,11545 6370,11545 6370,10558 Z"/>
             <path fill="rgb(78,78,78)" stroke="none" d="M 6370,10558 L 6940,10558 6940,11545 6370,11545 6370,10558 Z M 6374,10564 L 6936,10564 6936,11539 6374,11539 6374,10564 Z"/>
             <path fill="rgb(79,79,79)" stroke="none" d="M 6374,10564 L 6936,10564 6936,11539 6374,11539 6374,10564 Z M 6378,10571 L 6932,10571 6932,11532 6378,11532 6378,10571 Z"/>
             <path fill="rgb(80,80,80)" stroke="none" d="M 6378,10571 L 6932,10571 6932,11532 6378,11532 6378,10571 Z M 6382,10577 L 6928,10577 6928,11526 6382,11526 6382,10577 Z"/>
             <path fill="rgb(81,81,81)" stroke="none" d="M 6382,10577 L 6928,10577 6928,11526 6382,11526 6382,10577 Z M 6386,10584 L 6924,10584 6924,11519 6386,11519 6386,10584 Z"/>
             <path fill="rgb(82,82,82)" stroke="none" d="M 6386,10584 L 6924,10584 6924,11519 6386,11519 6386,10584 Z M 6389,10591 L 6921,10591 6921,11512 6389,11512 6389,10591 Z"/>
             <path fill="rgb(83,83,83)" stroke="none" d="M 6389,10591 L 6921,10591 6921,11512 6389,11512 6389,10591 Z M 6393,10597 L 6917,10597 6917,11506 6393,11506 6393,10597 Z"/>
             <path fill="rgb(84,84,84)" stroke="none" d="M 6393,10597 L 6917,10597 6917,11506 6393,11506 6393,10597 Z M 6397,10604 L 6913,10604 6913,11499 6397,11499 6397,10604 Z"/>
             <path fill="rgb(85,85,85)" stroke="none" d="M 6397,10604 L 6913,10604 6913,11499 6397,11499 6397,10604 Z M 6401,10610 L 6909,10610 6909,11493 6401,11493 6401,10610 Z"/>
             <path fill="rgb(86,86,86)" stroke="none" d="M 6401,10610 L 6909,10610 6909,11493 6401,11493 6401,10610 Z M 6404,10617 L 6905,10617 6905,11486 6404,11486 6404,10617 Z"/>
             <path fill="rgb(87,87,87)" stroke="none" d="M 6404,10617 L 6905,10617 6905,11486 6404,11486 6404,10617 Z M 6407,10624 L 6902,10624 6902,11479 6407,11479 6407,10624 Z"/>
             <path fill="rgb(88,88,88)" stroke="none" d="M 6407,10624 L 6902,10624 6902,11479 6407,11479 6407,10624 Z M 6411,10630 L 6898,10630 6898,11473 6411,11473 6411,10630 Z"/>
             <path fill="rgb(89,89,89)" stroke="none" d="M 6411,10630 L 6898,10630 6898,11473 6411,11473 6411,10630 Z M 6415,10636 L 6894,10636 6894,11466 6415,11466 6415,10636 Z"/>
             <path fill="rgb(90,90,90)" stroke="none" d="M 6415,10636 L 6894,10636 6894,11466 6415,11466 6415,10636 Z M 6419,10642 L 6890,10642 6890,11460 6419,11460 6419,10642 Z"/>
             <path fill="rgb(91,91,91)" stroke="none" d="M 6419,10642 L 6890,10642 6890,11460 6419,11460 6419,10642 Z M 6423,10649 L 6886,10649 6886,11453 6423,11453 6423,10649 Z"/>
             <path fill="rgb(92,92,92)" stroke="none" d="M 6423,10649 L 6886,10649 6886,11453 6423,11453 6423,10649 Z M 6426,10656 L 6883,10656 6883,11446 6426,11446 6426,10656 Z"/>
             <path fill="rgb(93,93,93)" stroke="none" d="M 6426,10656 L 6883,10656 6883,11446 6426,11446 6426,10656 Z M 6430,10662 L 6879,10662 6879,11440 6430,11440 6430,10662 Z"/>
             <path fill="rgb(94,94,94)" stroke="none" d="M 6430,10662 L 6879,10662 6879,11440 6430,11440 6430,10662 Z M 6434,10669 L 6875,10669 6875,11433 6434,11433 6434,10669 Z"/>
             <path fill="rgb(95,95,95)" stroke="none" d="M 6434,10669 L 6875,10669 6875,11433 6434,11433 6434,10669 Z M 6438,10675 L 6871,10675 6871,11427 6438,11427 6438,10675 Z"/>
             <path fill="rgb(96,96,96)" stroke="none" d="M 6438,10675 L 6871,10675 6871,11427 6438,11427 6438,10675 Z M 6442,10682 L 6867,10682 6867,11420 6442,11420 6442,10682 Z"/>
             <path fill="rgb(97,97,97)" stroke="none" d="M 6442,10682 L 6867,10682 6867,11420 6442,11420 6442,10682 Z M 6446,10689 L 6863,10689 6863,11413 6446,11413 6446,10689 Z"/>
             <path fill="rgb(98,98,98)" stroke="none" d="M 6446,10689 L 6863,10689 6863,11413 6446,11413 6446,10689 Z M 6449,10695 L 6860,10695 6860,11407 6449,11407 6449,10695 Z"/>
             <path fill="rgb(99,99,99)" stroke="none" d="M 6449,10695 L 6860,10695 6860,11407 6449,11407 6449,10695 Z M 6453,10702 L 6856,10702 6856,11400 6453,11400 6453,10702 Z"/>
             <path fill="rgb(100,100,100)" stroke="none" d="M 6453,10702 L 6856,10702 6856,11400 6453,11400 6453,10702 Z M 6457,10708 L 6852,10708 6852,11394 6457,11394 6457,10708 Z"/>
             <path fill="rgb(101,101,101)" stroke="none" d="M 6457,10708 L 6852,10708 6852,11394 6457,11394 6457,10708 Z M 6461,10715 L 6848,10715 6848,11387 6461,11387 6461,10715 Z"/>
             <path fill="rgb(102,102,102)" stroke="none" d="M 6461,10715 L 6848,10715 6848,11387 6461,11387 6461,10715 Z M 6465,10722 L 6844,10722 6844,11380 6465,11380 6465,10722 Z"/>
             <path fill="rgb(103,103,103)" stroke="none" d="M 6465,10722 L 6844,10722 6844,11380 6465,11380 6465,10722 Z M 6468,10728 L 6841,10728 6841,11374 6468,11374 6468,10728 Z"/>
             <path fill="rgb(104,104,104)" stroke="none" d="M 6468,10728 L 6841,10728 6841,11374 6468,11374 6468,10728 Z M 6472,10735 L 6837,10735 6837,11367 6472,11367 6472,10735 Z"/>
             <path fill="rgb(105,105,105)" stroke="none" d="M 6472,10735 L 6837,10735 6837,11367 6472,11367 6472,10735 Z M 6476,10741 L 6833,10741 6833,11361 6476,11361 6476,10741 Z"/>
             <path fill="rgb(106,106,106)" stroke="none" d="M 6476,10741 L 6833,10741 6833,11361 6476,11361 6476,10741 Z M 6480,10748 L 6829,10748 6829,11354 6480,11354 6480,10748 Z"/>
             <path fill="rgb(107,107,107)" stroke="none" d="M 6480,10748 L 6829,10748 6829,11354 6480,11354 6480,10748 Z M 6484,10755 L 6825,10755 6825,11347 6484,11347 6484,10755 Z"/>
             <path fill="rgb(108,108,108)" stroke="none" d="M 6484,10755 L 6825,10755 6825,11347 6484,11347 6484,10755 Z M 6487,10761 L 6822,10761 6822,11341 6487,11341 6487,10761 Z"/>
             <path fill="rgb(109,109,109)" stroke="none" d="M 6487,10761 L 6822,10761 6822,11341 6487,11341 6487,10761 Z M 6491,10768 L 6818,10768 6818,11334 6491,11334 6491,10768 Z"/>
             <path fill="rgb(110,110,110)" stroke="none" d="M 6491,10768 L 6818,10768 6818,11334 6491,11334 6491,10768 Z M 6495,10774 L 6814,10774 6814,11328 6495,11328 6495,10774 Z"/>
             <path fill="rgb(111,111,111)" stroke="none" d="M 6495,10774 L 6814,10774 6814,11328 6495,11328 6495,10774 Z M 6499,10781 L 6810,10781 6810,11321 6499,11321 6499,10781 Z"/>
             <path fill="rgb(112,112,112)" stroke="none" d="M 6499,10781 L 6810,10781 6810,11321 6499,11321 6499,10781 Z M 6503,10788 L 6806,10788 6806,11314 6503,11314 6503,10788 Z"/>
             <path fill="rgb(113,113,113)" stroke="none" d="M 6503,10788 L 6806,10788 6806,11314 6503,11314 6503,10788 Z M 6506,10794 L 6803,10794 6803,11308 6506,11308 6506,10794 Z"/>
             <path fill="rgb(114,114,114)" stroke="none" d="M 6506,10794 L 6803,10794 6803,11308 6506,11308 6506,10794 Z M 6510,10801 L 6799,10801 6799,11301 6510,11301 6510,10801 Z"/>
             <path fill="rgb(115,115,115)" stroke="none" d="M 6510,10801 L 6799,10801 6799,11301 6510,11301 6510,10801 Z M 6514,10807 L 6795,10807 6795,11295 6514,11295 6514,10807 Z"/>
             <path fill="rgb(116,116,116)" stroke="none" d="M 6514,10807 L 6795,10807 6795,11295 6514,11295 6514,10807 Z M 6518,10814 L 6791,10814 6791,11288 6518,11288 6518,10814 Z"/>
             <path fill="rgb(117,117,117)" stroke="none" d="M 6518,10814 L 6791,10814 6791,11288 6518,11288 6518,10814 Z M 6522,10821 L 6787,10821 6787,11281 6522,11281 6522,10821 Z"/>
             <path fill="rgb(118,118,118)" stroke="none" d="M 6522,10821 L 6787,10821 6787,11281 6522,11281 6522,10821 Z M 6526,10827 L 6784,10827 6784,11275 6526,11275 6526,10827 Z"/>
             <path fill="rgb(119,119,119)" stroke="none" d="M 6526,10827 L 6784,10827 6784,11275 6526,11275 6526,10827 Z M 6529,10834 L 6780,10834 6780,11268 6529,11268 6529,10834 Z"/>
             <path fill="rgb(120,120,120)" stroke="none" d="M 6529,10834 L 6780,10834 6780,11268 6529,11268 6529,10834 Z M 6533,10840 L 6776,10840 6776,11262 6533,11262 6533,10840 Z"/>
             <path fill="rgb(121,121,121)" stroke="none" d="M 6533,10840 L 6776,10840 6776,11262 6533,11262 6533,10840 Z M 6537,10847 L 6772,10847 6772,11255 6537,11255 6537,10847 Z"/>
             <path fill="rgb(122,122,122)" stroke="none" d="M 6537,10847 L 6772,10847 6772,11255 6537,11255 6537,10847 Z M 6541,10854 L 6768,10854 6768,11248 6541,11248 6541,10854 Z"/>
             <path fill="rgb(123,123,123)" stroke="none" d="M 6541,10854 L 6768,10854 6768,11248 6541,11248 6541,10854 Z M 6545,10860 L 6764,10860 6764,11242 6545,11242 6545,10860 Z"/>
             <path fill="rgb(124,124,124)" stroke="none" d="M 6545,10860 L 6764,10860 6764,11242 6545,11242 6545,10860 Z M 6548,10867 L 6761,10867 6761,11235 6548,11235 6548,10867 Z"/>
             <path fill="rgb(125,125,125)" stroke="none" d="M 6548,10867 L 6761,10867 6761,11235 6548,11235 6548,10867 Z M 6552,10873 L 6757,10873 6757,11229 6552,11229 6552,10873 Z"/>
             <path fill="rgb(126,126,126)" stroke="none" d="M 6552,10873 L 6757,10873 6757,11229 6552,11229 6552,10873 Z M 6556,10880 L 6753,10880 6753,11222 6556,11222 6556,10880 Z"/>
             <path fill="rgb(127,127,127)" stroke="none" d="M 6556,10880 L 6753,10880 6753,11222 6556,11222 6556,10880 Z M 6560,10887 L 6749,10887 6749,11215 6560,11215 6560,10887 Z"/>
             <path fill="rgb(128,128,128)" stroke="none" d="M 6560,10887 L 6749,10887 6749,11215 6560,11215 6560,10887 Z M 6564,10893 L 6745,10893 6745,11209 6564,11209 6564,10893 Z"/>
             <path fill="rgb(129,129,129)" stroke="none" d="M 6564,10893 L 6745,10893 6745,11209 6564,11209 6564,10893 Z M 6567,10900 L 6742,10900 6742,11202 6567,11202 6567,10900 Z"/>
             <path fill="rgb(130,130,130)" stroke="none" d="M 6567,10900 L 6742,10900 6742,11202 6567,11202 6567,10900 Z M 6571,10906 L 6738,10906 6738,11196 6571,11196 6571,10906 Z"/>
             <path fill="rgb(131,131,131)" stroke="none" d="M 6571,10906 L 6738,10906 6738,11196 6571,11196 6571,10906 Z M 6575,10913 L 6734,10913 6734,11189 6575,11189 6575,10913 Z"/>
             <path fill="rgb(132,132,132)" stroke="none" d="M 6575,10913 L 6734,10913 6734,11189 6575,11189 6575,10913 Z M 6579,10920 L 6730,10920 6730,11182 6579,11182 6579,10920 Z"/>
             <path fill="rgb(133,133,133)" stroke="none" d="M 6579,10920 L 6730,10920 6730,11182 6579,11182 6579,10920 Z M 6583,10926 L 6726,10926 6726,11176 6583,11176 6583,10926 Z"/>
             <path fill="rgb(134,134,134)" stroke="none" d="M 6583,10926 L 6726,10926 6726,11176 6583,11176 6583,10926 Z M 6586,10933 L 6723,10933 6723,11169 6586,11169 6586,10933 Z"/>
             <path fill="rgb(135,135,135)" stroke="none" d="M 6586,10933 L 6723,10933 6723,11169 6586,11169 6586,10933 Z M 6590,10939 L 6719,10939 6719,11163 6590,11163 6590,10939 Z"/>
             <path fill="rgb(136,136,136)" stroke="none" d="M 6590,10939 L 6719,10939 6719,11163 6590,11163 6590,10939 Z M 6594,10946 L 6715,10946 6715,11156 6594,11156 6594,10946 Z"/>
             <path fill="rgb(137,137,137)" stroke="none" d="M 6594,10946 L 6715,10946 6715,11156 6594,11156 6594,10946 Z M 6598,10953 L 6711,10953 6711,11149 6598,11149 6598,10953 Z"/>
             <path fill="rgb(138,138,138)" stroke="none" d="M 6598,10953 L 6711,10953 6711,11149 6598,11149 6598,10953 Z M 6602,10959 L 6707,10959 6707,11143 6602,11143 6602,10959 Z"/>
             <path fill="rgb(139,139,139)" stroke="none" d="M 6602,10959 L 6707,10959 6707,11143 6602,11143 6602,10959 Z M 6605,10966 L 6704,10966 6704,11136 6605,11136 6605,10966 Z"/>
             <path fill="rgb(140,140,140)" stroke="none" d="M 6605,10966 L 6704,10966 6704,11136 6605,11136 6605,10966 Z M 6609,10972 L 6700,10972 6700,11130 6609,11130 6609,10972 Z"/>
             <path fill="rgb(141,141,141)" stroke="none" d="M 6609,10972 L 6700,10972 6700,11130 6609,11130 6609,10972 Z M 6613,10979 L 6696,10979 6696,11123 6613,11123 6613,10979 Z"/>
             <path fill="rgb(142,142,142)" stroke="none" d="M 6613,10979 L 6696,10979 6696,11123 6613,11123 6613,10979 Z M 6617,10986 L 6692,10986 6692,11116 6617,11116 6617,10986 Z"/>
             <path fill="rgb(143,143,143)" stroke="none" d="M 6617,10986 L 6692,10986 6692,11116 6617,11116 6617,10986 Z M 6621,10992 L 6688,10992 6688,11110 6621,11110 6621,10992 Z"/>
             <path fill="rgb(144,144,144)" stroke="none" d="M 6621,10992 L 6688,10992 6688,11110 6621,11110 6621,10992 Z M 6625,10999 L 6684,10999 6684,11103 6625,11103 6625,10999 Z"/>
             <path fill="rgb(145,145,145)" stroke="none" d="M 6625,10999 L 6684,10999 6684,11103 6625,11103 6625,10999 Z M 6628,11005 L 6681,11005 6681,11097 6628,11097 6628,11005 Z"/>
             <path fill="rgb(146,146,146)" stroke="none" d="M 6628,11005 L 6681,11005 6681,11097 6628,11097 6628,11005 Z M 6632,11012 L 6677,11012 6677,11090 6632,11090 6632,11012 Z"/>
             <path fill="rgb(147,147,147)" stroke="none" d="M 6632,11012 L 6677,11012 6677,11090 6632,11090 6632,11012 Z M 6636,11019 L 6673,11019 6673,11083 6636,11083 6636,11019 Z"/>
             <path fill="rgb(148,148,148)" stroke="none" d="M 6636,11019 L 6673,11019 6673,11083 6636,11083 6636,11019 Z M 6640,11025 L 6669,11025 6669,11077 6640,11077 6640,11025 Z"/>
             <path fill="rgb(149,149,149)" stroke="none" d="M 6640,11025 L 6669,11025 6669,11077 6640,11077 6640,11025 Z M 6644,11032 L 6665,11032 6665,11070 6644,11070 6644,11032 Z"/>
             <path fill="rgb(150,150,150)" stroke="none" d="M 6644,11032 L 6665,11032 6665,11070 6644,11070 6644,11032 Z M 6647,11038 L 6662,11038 6662,11064 6647,11064 6647,11038 Z"/>
             <path fill="rgb(151,151,151)" stroke="none" d="M 6647,11038 L 6662,11038 6662,11064 6647,11064 6647,11038 Z M 6651,11045 L 6658,11045 6658,11057 6651,11057 6651,11045 Z"/>
             <path fill="rgb(153,153,153)" stroke="none" d="M 6651,11045 L 6658,11045 6658,11057 6651,11057 6651,11045 Z"/>
            </g>
           </pattern>
          </defs>
          <path style="fill:url(#pattern3)" d="M 7197,11545 L 7197,10650 6423,11098 6423,11993 7197,11545 Z"/>
         </g>
         <path fill="none" stroke="rgb(178,178,178)" stroke-width="40" stroke-linejoin="round" d="M 7197,11545 L 7197,10650 6423,11098 6423,11993 7197,11545 Z"/>
        </g>
       </g>
       <g class="com.sun.star.drawing.PolyPolygonShape">
        <g id="id9">
         <rect class="BoundingBox" stroke="none" fill="none" x="4852" y="10183" width="1591" height="1832"/>
         <g>
          <defs>
           <linearGradient id="gradient3" x1="4872" y1="11098" x2="6423" y2="11098" gradientUnits="userSpaceOnUse">
            <stop offset="0.1" style="stop-color:rgb(51,51,51)"/>
            <stop offset="1" style="stop-color:rgb(153,153,153)"/>
           </linearGradient>
          </defs>
          <path style="fill:url(#gradient3)" d="M 6422,11994 L 6422,11098 4873,10203 4873,11098 6422,11994 Z"/>
         </g>
         <path fill="none" stroke="rgb(178,178,178)" stroke-width="40" stroke-linejoin="round" d="M 6422,11994 L 6422,11098 4873,10203 4873,11098 6422,11994 Z"/>
        </g>
       </g>
       <g class="com.sun.star.drawing.LineShape">
        <g id="id10">
         <rect class="BoundingBox" stroke="none" fill="none" x="6577" y="11660" width="196" height="131"/>
         <path fill="none" stroke="rgb(127,127,127)" stroke-width="40" stroke-linejoin="round" d="M 6752,11770 L 6597,11680"/>
        </g>
       </g>
       <g class="com.sun.star.drawing.ClosedBezierShape">
        <g id="id11">
         <rect class="BoundingBox" stroke="none" fill="none" x="6500" y="10909" width="661" height="828"/>
         <g>
          <defs>
           <linearGradient id="gradient4" x1="6519" y1="11322" x2="7141" y2="11322" gradientUnits="userSpaceOnUse">
            <stop offset="0.1" style="stop-color:rgb(51,51,51)"/>
            <stop offset="1" style="stop-color:rgb(153,153,153)"/>
           </linearGradient>
          </defs>
          <path style="fill:url(#gradient4)" d="M 6830,10964 L 6801,10983 6772,11005 6744,11032 6716,11061 6689,11092 6664,11126 6617,11199 6577,11276 6561,11315 6547,11354 6535,11393 6527,11430 6522,11466 6520,11501 6522,11533 6527,11564 6535,11592 6547,11617 6561,11640 6577,11660 6596,11677 6617,11691 6640,11702 6664,11710 6689,11714 6716,11715 6744,11712 6772,11705 6801,11695 6830,11680 6859,11661 6888,11639 6916,11613 6944,11584 6971,11552 6996,11518 7043,11445 7083,11368 7099,11329 7113,11290 7125,11251 7133,11214 7138,11177 7140,11143 7138,11110 7133,11080 7125,11052 7113,11027 7099,11004 7083,10984 7064,10967 7043,10953 7020,10942 6996,10934 6971,10930 6944,10929 6916,10932 6888,10939 6859,10949 6830,10964 Z"/>
         </g>
         <path fill="none" stroke="rgb(178,178,178)" stroke-width="40" stroke-linejoin="round" d="M 6830,10964 C 6675,11054 6520,11322 6520,11501 6520,11680 6675,11770 6830,11680 6985,11591 7140,11322 7140,11143 7140,10964 6985,10875 6830,10964 Z"/>
        </g>
       </g>
       <g class="com.sun.star.drawing.ClosedBezierShape">
        <g id="id12">
         <rect class="BoundingBox" stroke="none" fill="none" x="6712" y="11008" width="621" height="827"/>
         <g>
          <defs>
           <pattern id="pattern4" x="6732" y="11028" width="581" height="787" patternUnits="userSpaceOnUse">
            <g transform="translate(-6732,-11028)">
             <path fill="rgb(147,212,240)" stroke="none" d="M 6731,11027 L 7313,11027 7313,11815 6731,11815 6731,11027 Z M 6618,10874 L 7192,10874 7192,11652 6618,11652 6618,10874 Z"/>
             <path fill="rgb(148,212,240)" stroke="none" d="M 6618,10874 L 7192,10874 7192,11652 6618,11652 6618,10874 Z M 6621,10879 L 7189,10879 7189,11647 6621,11647 6621,10879 Z"/>
             <path fill="rgb(149,212,240)" stroke="none" d="M 6621,10879 L 7189,10879 7189,11647 6621,11647 6621,10879 Z M 6625,10883 L 7185,10883 7185,11643 6625,11643 6625,10883 Z"/>
             <path fill="rgb(150,213,240)" stroke="none" d="M 6625,10883 L 7185,10883 7185,11643 6625,11643 6625,10883 Z M 6628,10888 L 7182,10888 7182,11638 6628,11638 6628,10888 Z"/>
             <path fill="rgb(151,213,240)" stroke="none" d="M 6628,10888 L 7182,10888 7182,11638 6628,11638 6628,10888 Z M 6631,10892 L 7179,10892 7179,11634 6631,11634 6631,10892 Z"/>
             <path fill="rgb(152,213,240)" stroke="none" d="M 6631,10892 L 7179,10892 7179,11634 6631,11634 6631,10892 Z M 6635,10897 L 7175,10897 7175,11629 6635,11629 6635,10897 Z"/>
             <path fill="rgb(153,214,240)" stroke="none" d="M 6635,10897 L 7175,10897 7175,11629 6635,11629 6635,10897 Z M 6638,10902 L 7172,10902 7172,11624 6638,11624 6638,10902 Z"/>
             <path fill="rgb(154,214,240)" stroke="none" d="M 6638,10902 L 7172,10902 7172,11624 6638,11624 6638,10902 Z M 6642,10906 L 7168,10906 7168,11620 6642,11620 6642,10906 Z"/>
             <path fill="rgb(155,215,241)" stroke="none" d="M 6642,10906 L 7168,10906 7168,11620 6642,11620 6642,10906 Z M 6645,10911 L 7165,10911 7165,11615 6645,11615 6645,10911 Z"/>
             <path fill="rgb(156,215,241)" stroke="none" d="M 6645,10911 L 7165,10911 7165,11615 6645,11615 6645,10911 Z M 6648,10915 L 7162,10915 7162,11611 6648,11611 6648,10915 Z"/>
             <path fill="rgb(157,215,241)" stroke="none" d="M 6648,10915 L 7162,10915 7162,11611 6648,11611 6648,10915 Z M 6652,10920 L 7158,10920 7158,11606 6652,11606 6652,10920 Z"/>
             <path fill="rgb(158,216,241)" stroke="none" d="M 6652,10920 L 7158,10920 7158,11606 6652,11606 6652,10920 Z M 6655,10925 L 7155,10925 7155,11601 6655,11601 6655,10925 Z"/>
             <path fill="rgb(159,216,241)" stroke="none" d="M 6655,10925 L 7155,10925 7155,11601 6655,11601 6655,10925 Z M 6659,10929 L 7151,10929 7151,11597 6659,11597 6659,10929 Z"/>
             <path fill="rgb(160,217,241)" stroke="none" d="M 6659,10929 L 7151,10929 7151,11597 6659,11597 6659,10929 Z M 6662,10934 L 7148,10934 7148,11592 6662,11592 6662,10934 Z"/>
             <path fill="rgb(161,217,241)" stroke="none" d="M 6662,10934 L 7148,10934 7148,11592 6662,11592 6662,10934 Z M 6665,10938 L 7145,10938 7145,11588 6665,11588 6665,10938 Z"/>
             <path fill="rgb(162,217,242)" stroke="none" d="M 6665,10938 L 7145,10938 7145,11588 6665,11588 6665,10938 Z M 6669,10943 L 7141,10943 7141,11583 6669,11583 6669,10943 Z"/>
             <path fill="rgb(163,218,242)" stroke="none" d="M 6669,10943 L 7141,10943 7141,11583 6669,11583 6669,10943 Z M 6672,10947 L 7138,10947 7138,11579 6672,11579 6672,10947 Z"/>
             <path fill="rgb(164,218,242)" stroke="none" d="M 6672,10947 L 7138,10947 7138,11579 6672,11579 6672,10947 Z M 6676,10952 L 7134,10952 7134,11574 6676,11574 6676,10952 Z"/>
             <path fill="rgb(165,219,242)" stroke="none" d="M 6676,10952 L 7134,10952 7134,11574 6676,11574 6676,10952 Z M 6679,10957 L 7131,10957 7131,11569 6679,11569 6679,10957 Z"/>
             <path fill="rgb(166,219,242)" stroke="none" d="M 6679,10957 L 7131,10957 7131,11569 6679,11569 6679,10957 Z M 6682,10961 L 7128,10961 7128,11565 6682,11565 6682,10961 Z"/>
             <path fill="rgb(167,219,242)" stroke="none" d="M 6682,10961 L 7128,10961 7128,11565 6682,11565 6682,10961 Z M 6686,10966 L 7124,10966 7124,11560 6686,11560 6686,10966 Z"/>
             <path fill="rgb(168,220,242)" stroke="none" d="M 6686,10966 L 7124,10966 7124,11560 6686,11560 6686,10966 Z M 6689,10970 L 7121,10970 7121,11556 6689,11556 6689,10970 Z"/>
             <path fill="rgb(169,220,243)" stroke="none" d="M 6689,10970 L 7121,10970 7121,11556 6689,11556 6689,10970 Z M 6692,10975 L 7118,10975 7118,11551 6692,11551 6692,10975 Z"/>
             <path fill="rgb(170,221,243)" stroke="none" d="M 6692,10975 L 7118,10975 7118,11551 6692,11551 6692,10975 Z M 6696,10980 L 7114,10980 7114,11546 6696,11546 6696,10980 Z"/>
             <path fill="rgb(171,221,243)" stroke="none" d="M 6696,10980 L 7114,10980 7114,11546 6696,11546 6696,10980 Z M 6699,10984 L 7111,10984 7111,11542 6699,11542 6699,10984 Z"/>
             <path fill="rgb(172,221,243)" stroke="none" d="M 6699,10984 L 7111,10984 7111,11542 6699,11542 6699,10984 Z M 6703,10989 L 7107,10989 7107,11537 6703,11537 6703,10989 Z"/>
             <path fill="rgb(173,222,243)" stroke="none" d="M 6703,10989 L 7107,10989 7107,11537 6703,11537 6703,10989 Z M 6706,10993 L 7104,10993 7104,11533 6706,11533 6706,10993 Z"/>
             <path fill="rgb(174,222,243)" stroke="none" d="M 6706,10993 L 7104,10993 7104,11533 6706,11533 6706,10993 Z M 6709,10998 L 7101,10998 7101,11528 6709,11528 6709,10998 Z"/>
             <path fill="rgb(175,223,243)" stroke="none" d="M 6709,10998 L 7101,10998 7101,11528 6709,11528 6709,10998 Z M 6712,11003 L 7097,11003 7097,11523 6712,11523 6712,11003 Z"/>
             <path fill="rgb(176,223,244)" stroke="none" d="M 6712,11003 L 7097,11003 7097,11523 6712,11523 6712,11003 Z M 6715,11007 L 7094,11007 7094,11519 6715,11519 6715,11007 Z"/>
             <path fill="rgb(177,223,244)" stroke="none" d="M 6715,11007 L 7094,11007 7094,11519 6715,11519 6715,11007 Z M 6719,11011 L 7090,11011 7090,11514 6719,11514 6719,11011 Z"/>
             <path fill="rgb(178,224,244)" stroke="none" d="M 6719,11011 L 7090,11011 7090,11514 6719,11514 6719,11011 Z M 6722,11015 L 7087,11015 7087,11510 6722,11510 6722,11015 Z"/>
             <path fill="rgb(179,224,244)" stroke="none" d="M 6722,11015 L 7087,11015 7087,11510 6722,11510 6722,11015 Z M 6725,11020 L 7084,11020 7084,11505 6725,11505 6725,11020 Z"/>
             <path fill="rgb(180,225,244)" stroke="none" d="M 6725,11020 L 7084,11020 7084,11505 6725,11505 6725,11020 Z M 6729,11024 L 7080,11024 7080,11501 6729,11501 6729,11024 Z"/>
             <path fill="rgb(181,225,244)" stroke="none" d="M 6729,11024 L 7080,11024 7080,11501 6729,11501 6729,11024 Z M 6732,11029 L 7077,11029 7077,11496 6732,11496 6732,11029 Z"/>
             <path fill="rgb(182,225,244)" stroke="none" d="M 6732,11029 L 7077,11029 7077,11496 6732,11496 6732,11029 Z M 6736,11034 L 7073,11034 7073,11491 6736,11491 6736,11034 Z"/>
             <path fill="rgb(183,226,245)" stroke="none" d="M 6736,11034 L 7073,11034 7073,11491 6736,11491 6736,11034 Z M 6739,11038 L 7070,11038 7070,11487 6739,11487 6739,11038 Z"/>
             <path fill="rgb(184,226,245)" stroke="none" d="M 6739,11038 L 7070,11038 7070,11487 6739,11487 6739,11038 Z M 6742,11043 L 7067,11043 7067,11482 6742,11482 6742,11043 Z"/>
             <path fill="rgb(185,227,245)" stroke="none" d="M 6742,11043 L 7067,11043 7067,11482 6742,11482 6742,11043 Z M 6746,11047 L 7063,11047 7063,11478 6746,11478 6746,11047 Z"/>
             <path fill="rgb(186,227,245)" stroke="none" d="M 6746,11047 L 7063,11047 7063,11478 6746,11478 6746,11047 Z M 6749,11052 L 7060,11052 7060,11473 6749,11473 6749,11052 Z"/>
             <path fill="rgb(187,227,245)" stroke="none" d="M 6749,11052 L 7060,11052 7060,11473 6749,11473 6749,11052 Z M 6752,11057 L 7057,11057 7057,11468 6752,11468 6752,11057 Z"/>
             <path fill="rgb(188,228,245)" stroke="none" d="M 6752,11057 L 7057,11057 7057,11468 6752,11468 6752,11057 Z M 6756,11061 L 7053,11061 7053,11464 6756,11464 6756,11061 Z"/>
             <path fill="rgb(189,228,245)" stroke="none" d="M 6756,11061 L 7053,11061 7053,11464 6756,11464 6756,11061 Z M 6759,11066 L 7050,11066 7050,11459 6759,11459 6759,11066 Z"/>
             <path fill="rgb(190,229,246)" stroke="none" d="M 6759,11066 L 7050,11066 7050,11459 6759,11459 6759,11066 Z M 6763,11070 L 7046,11070 7046,11455 6763,11455 6763,11070 Z"/>
             <path fill="rgb(191,229,246)" stroke="none" d="M 6763,11070 L 7046,11070 7046,11455 6763,11455 6763,11070 Z M 6766,11075 L 7043,11075 7043,11450 6766,11450 6766,11075 Z"/>
             <path fill="rgb(192,229,246)" stroke="none" d="M 6766,11075 L 7043,11075 7043,11450 6766,11450 6766,11075 Z M 6769,11080 L 7040,11080 7040,11445 6769,11445 6769,11080 Z"/>
             <path fill="rgb(193,230,246)" stroke="none" d="M 6769,11080 L 7040,11080 7040,11445 6769,11445 6769,11080 Z M 6773,11084 L 7036,11084 7036,11441 6773,11441 6773,11084 Z"/>
             <path fill="rgb(194,230,246)" stroke="none" d="M 6773,11084 L 7036,11084 7036,11441 6773,11441 6773,11084 Z M 6776,11089 L 7033,11089 7033,11436 6776,11436 6776,11089 Z"/>
             <path fill="rgb(195,230,246)" stroke="none" d="M 6776,11089 L 7033,11089 7033,11436 6776,11436 6776,11089 Z M 6780,11093 L 7029,11093 7029,11432 6780,11432 6780,11093 Z"/>
             <path fill="rgb(196,231,246)" stroke="none" d="M 6780,11093 L 7029,11093 7029,11432 6780,11432 6780,11093 Z M 6783,11098 L 7026,11098 7026,11427 6783,11427 6783,11098 Z"/>
             <path fill="rgb(197,231,246)" stroke="none" d="M 6783,11098 L 7026,11098 7026,11427 6783,11427 6783,11098 Z M 6786,11102 L 7023,11102 7023,11423 6786,11423 6786,11102 Z"/>
             <path fill="rgb(198,232,247)" stroke="none" d="M 6786,11102 L 7023,11102 7023,11423 6786,11423 6786,11102 Z M 6790,11107 L 7019,11107 7019,11418 6790,11418 6790,11107 Z"/>
             <path fill="rgb(199,232,247)" stroke="none" d="M 6790,11107 L 7019,11107 7019,11418 6790,11418 6790,11107 Z M 6793,11112 L 7016,11112 7016,11413 6793,11413 6793,11112 Z"/>
             <path fill="rgb(200,232,247)" stroke="none" d="M 6793,11112 L 7016,11112 7016,11413 6793,11413 6793,11112 Z M 6797,11116 L 7012,11116 7012,11409 6797,11409 6797,11116 Z"/>
             <path fill="rgb(201,233,247)" stroke="none" d="M 6797,11116 L 7012,11116 7012,11409 6797,11409 6797,11116 Z M 6800,11121 L 7009,11121 7009,11404 6800,11404 6800,11121 Z"/>
             <path fill="rgb(202,233,247)" stroke="none" d="M 6800,11121 L 7009,11121 7009,11404 6800,11404 6800,11121 Z M 6803,11125 L 7006,11125 7006,11400 6803,11400 6803,11125 Z"/>
             <path fill="rgb(203,234,247)" stroke="none" d="M 6803,11125 L 7006,11125 7006,11400 6803,11400 6803,11125 Z M 6807,11130 L 7002,11130 7002,11395 6807,11395 6807,11130 Z"/>
             <path fill="rgb(204,234,247)" stroke="none" d="M 6807,11130 L 7002,11130 7002,11395 6807,11395 6807,11130 Z M 6810,11135 L 6999,11135 6999,11390 6810,11390 6810,11135 Z"/>
             <path fill="rgb(205,234,248)" stroke="none" d="M 6810,11135 L 6999,11135 6999,11390 6810,11390 6810,11135 Z M 6813,11139 L 6996,11139 6996,11386 6813,11386 6813,11139 Z"/>
             <path fill="rgb(206,235,248)" stroke="none" d="M 6813,11139 L 6996,11139 6996,11386 6813,11386 6813,11139 Z M 6817,11144 L 6992,11144 6992,11381 6817,11381 6817,11144 Z"/>
             <path fill="rgb(207,235,248)" stroke="none" d="M 6817,11144 L 6992,11144 6992,11381 6817,11381 6817,11144 Z M 6820,11148 L 6989,11148 6989,11377 6820,11377 6820,11148 Z"/>
             <path fill="rgb(208,236,248)" stroke="none" d="M 6820,11148 L 6989,11148 6989,11377 6820,11377 6820,11148 Z M 6824,11153 L 6985,11153 6985,11372 6824,11372 6824,11153 Z"/>
             <path fill="rgb(209,236,248)" stroke="none" d="M 6824,11153 L 6985,11153 6985,11372 6824,11372 6824,11153 Z M 6827,11157 L 6982,11157 6982,11368 6827,11368 6827,11157 Z"/>
             <path fill="rgb(210,236,248)" stroke="none" d="M 6827,11157 L 6982,11157 6982,11368 6827,11368 6827,11157 Z M 6830,11162 L 6979,11162 6979,11363 6830,11363 6830,11162 Z"/>
             <path fill="rgb(211,237,248)" stroke="none" d="M 6830,11162 L 6979,11162 6979,11363 6830,11363 6830,11162 Z M 6834,11167 L 6975,11167 6975,11358 6834,11358 6834,11167 Z"/>
             <path fill="rgb(212,237,249)" stroke="none" d="M 6834,11167 L 6975,11167 6975,11358 6834,11358 6834,11167 Z M 6837,11171 L 6972,11171 6972,11354 6837,11354 6837,11171 Z"/>
             <path fill="rgb(213,238,249)" stroke="none" d="M 6837,11171 L 6972,11171 6972,11354 6837,11354 6837,11171 Z M 6841,11176 L 6968,11176 6968,11349 6841,11349 6841,11176 Z"/>
             <path fill="rgb(214,238,249)" stroke="none" d="M 6841,11176 L 6968,11176 6968,11349 6841,11349 6841,11176 Z M 6844,11180 L 6965,11180 6965,11345 6844,11345 6844,11180 Z"/>
             <path fill="rgb(215,238,249)" stroke="none" d="M 6844,11180 L 6965,11180 6965,11345 6844,11345 6844,11180 Z M 6847,11185 L 6962,11185 6962,11340 6847,11340 6847,11185 Z"/>
             <path fill="rgb(216,239,249)" stroke="none" d="M 6847,11185 L 6962,11185 6962,11340 6847,11340 6847,11185 Z M 6851,11190 L 6958,11190 6958,11335 6851,11335 6851,11190 Z"/>
             <path fill="rgb(217,239,249)" stroke="none" d="M 6851,11190 L 6958,11190 6958,11335 6851,11335 6851,11190 Z M 6854,11194 L 6955,11194 6955,11331 6854,11331 6854,11194 Z"/>
             <path fill="rgb(218,240,249)" stroke="none" d="M 6854,11194 L 6955,11194 6955,11331 6854,11331 6854,11194 Z M 6858,11199 L 6951,11199 6951,11326 6858,11326 6858,11199 Z"/>
             <path fill="rgb(219,240,250)" stroke="none" d="M 6858,11199 L 6951,11199 6951,11326 6858,11326 6858,11199 Z M 6861,11203 L 6948,11203 6948,11322 6861,11322 6861,11203 Z"/>
             <path fill="rgb(220,240,250)" stroke="none" d="M 6861,11203 L 6948,11203 6948,11322 6861,11322 6861,11203 Z M 6864,11208 L 6945,11208 6945,11317 6864,11317 6864,11208 Z"/>
             <path fill="rgb(221,241,250)" stroke="none" d="M 6864,11208 L 6945,11208 6945,11317 6864,11317 6864,11208 Z M 6868,11213 L 6941,11213 6941,11312 6868,11312 6868,11213 Z"/>
             <path fill="rgb(222,241,250)" stroke="none" d="M 6868,11213 L 6941,11213 6941,11312 6868,11312 6868,11213 Z M 6871,11217 L 6938,11217 6938,11308 6871,11308 6871,11217 Z"/>
             <path fill="rgb(223,242,250)" stroke="none" d="M 6871,11217 L 6938,11217 6938,11308 6871,11308 6871,11217 Z M 6874,11222 L 6935,11222 6935,11303 6874,11303 6874,11222 Z"/>
             <path fill="rgb(224,242,250)" stroke="none" d="M 6874,11222 L 6935,11222 6935,11303 6874,11303 6874,11222 Z M 6878,11226 L 6931,11226 6931,11299 6878,11299 6878,11226 Z"/>
             <path fill="rgb(225,242,250)" stroke="none" d="M 6878,11226 L 6931,11226 6931,11299 6878,11299 6878,11226 Z M 6881,11231 L 6928,11231 6928,11294 6881,11294 6881,11231 Z"/>
             <path fill="rgb(226,243,251)" stroke="none" d="M 6881,11231 L 6928,11231 6928,11294 6881,11294 6881,11231 Z M 6885,11235 L 6924,11235 6924,11290 6885,11290 6885,11235 Z"/>
             <path fill="rgb(227,243,251)" stroke="none" d="M 6885,11235 L 6924,11235 6924,11290 6885,11290 6885,11235 Z M 6888,11240 L 6921,11240 6921,11285 6888,11285 6888,11240 Z"/>
             <path fill="rgb(228,244,251)" stroke="none" d="M 6888,11240 L 6921,11240 6921,11285 6888,11285 6888,11240 Z M 6891,11245 L 6918,11245 6918,11280 6891,11280 6891,11245 Z"/>
             <path fill="rgb(229,244,251)" stroke="none" d="M 6891,11245 L 6918,11245 6918,11280 6891,11280 6891,11245 Z M 6895,11249 L 6914,11249 6914,11276 6895,11276 6895,11249 Z"/>
             <path fill="rgb(230,244,251)" stroke="none" d="M 6895,11249 L 6914,11249 6914,11276 6895,11276 6895,11249 Z M 6898,11254 L 6911,11254 6911,11271 6898,11271 6898,11254 Z"/>
             <path fill="rgb(231,245,251)" stroke="none" d="M 6898,11254 L 6911,11254 6911,11271 6898,11271 6898,11254 Z M 6902,11258 L 6907,11258 6907,11267 6902,11267 6902,11258 Z"/>
             <path fill="rgb(233,246,252)" stroke="none" d="M 6902,11258 L 6907,11258 6907,11267 6902,11267 6902,11258 Z"/>
            </g>
           </pattern>
          </defs>
          <path style="fill:url(#pattern4)" d="M 7042,11063 L 7013,11082 6984,11104 6956,11130 6928,11159 6901,11191 6876,11225 6829,11298 6789,11375 6773,11414 6759,11453 6747,11491 6739,11529 6734,11565 6732,11600 6734,11632 6739,11663 6747,11690 6759,11716 6773,11739 6789,11759 6808,11776 6829,11790 6852,11801 6876,11808 6901,11813 6928,11814 6956,11811 6984,11804 7013,11793 7042,11779 7071,11760 7098,11737 7124,11711 7150,11683 7173,11651 7196,11617 7216,11582 7235,11545 7267,11469 7292,11391 7300,11353 7307,11315 7311,11279 7312,11245 7311,11212 7307,11182 7300,11154 7292,11128 7281,11105 7267,11085 7252,11067 7235,11053 7226,11047 7216,11042 7206,11037 7196,11034 7185,11031 7173,11029 7150,11028 7124,11031 7098,11037 7071,11048 7042,11063 Z"/>
         </g>
         <path fill="none" stroke="rgb(178,178,178)" stroke-width="40" stroke-linejoin="round" d="M 7042,11063 C 6887,11152 6732,11421 6732,11600 6732,11779 6887,11868 7042,11779 7197,11689 7312,11424 7312,11245 7312,11066 7197,10973 7042,11063 Z"/>
        </g>
       </g>
       <g class="com.sun.star.drawing.LineShape">
        <g id="id13">
         <rect class="BoundingBox" stroke="none" fill="none" x="6965" y="10899" width="273" height="175"/>
         <path fill="none" stroke="rgb(178,178,178)" stroke-width="40" stroke-linejoin="round" d="M 7217,11053 L 6985,10919"/>
        </g>
       </g>
       <g class="com.sun.star.drawing.PolyPolygonShape">
        <g id="id14">
         <rect class="BoundingBox" stroke="none" fill="none" x="4854" y="9735" width="2364" height="1384"/>
         <g>
          <defs>
           <linearGradient id="gradient5" x1="6035" y1="9755" x2="6035" y2="11098" gradientUnits="userSpaceOnUse">
            <stop offset="0.1" style="stop-color:rgb(51,51,51)"/>
            <stop offset="1" style="stop-color:rgb(153,153,153)"/>
           </linearGradient>
          </defs>
          <path style="fill:url(#gradient5)" d="M 6423,11098 L 7197,10650 5648,9755 4874,10203 6423,11098 Z"/>
         </g>
         <path fill="none" stroke="rgb(178,178,178)" stroke-width="40" stroke-linejoin="round" d="M 6423,11098 L 7197,10650 5648,9755 4874,10203 6423,11098 Z"/>
        </g>
       </g>
       <g class="com.sun.star.drawing.ClosedBezierShape">
        <g id="id15">
         <rect class="BoundingBox" stroke="none" fill="none" x="4853" y="9735" width="2479" height="2952"/>
         <path fill="none" stroke="rgb(0,0,0)" stroke-width="40" stroke-linejoin="round" d="M 7196,10650 L 5647,9755 4873,10203 4873,11098 5492,11456 4873,11769 4873,12665 5415,12351 5725,12530 5880,12441 5880,11680 6422,11993 C 6422,11993 6680,11844 6809,11769 7119,11948 7506,11187 7196,11053 L 7196,10650 Z"/>
        </g>
       </g>
      </g>
     </g>
    </g>
   </g>
  </g>
 </g>
</svg>