<?xml version="1.0" encoding="UTF-8"?>
<!DOCTYPE svg PUBLIC "-//W3C//DTD SVG 1.1//EN" "http://www.w3.org/Graphics/SVG/1.1/DTD/svg11.dtd">
<svg version="1.2" width="87.5mm" height="93.72mm" viewBox="-207 9413 8750 9372" preserveAspectRatio="xMidYMid" fill-rule="evenodd" stroke-width="28.222" stroke-linejoin="round" xmlns="http://www.w3.org/2000/svg" xmlns:ooo="http://xml.openoffice.org/svg/export" xmlns:xlink="http://www.w3.org/1999/xlink" xmlns:presentation="http://sun.com/xmlns/staroffice/presentation" xmlns:smil="http://www.w3.org/2001/SMIL20/" xmlns:anim="urn:oasis:names:tc:opendocument:xmlns:animation:1.0" xml:space="preserve">
 <defs class="ClipPathGroup">
  <clipPath id="presentation_clip_path" clipPathUnits="userSpaceOnUse">
   <rect x="-207" y="9413" width="8750" height="9372"/>
  </clipPath>
 </defs>
 <defs class="TextShapeIndex">
  <g ooo:slide="id1" ooo:id-list="id3 id4 id5 id6 id7 id8 id9"/>
 </defs>
 <defs class="EmbeddedBulletChars">
  <g id="bullet-char-template(57356)" transform="scale(0.00048828125,-0.00048828125)">
   <path d="M 580,1141 L 1163,571 580,0 -4,571 580,1141 Z"/>
  </g>
  <g id="bullet-char-template(57354)" transform="scale(0.00048828125,-0.00048828125)">
   <path d="M 8,1128 L 1137,1128 1137,0 8,0 8,1128 Z"/>
  </g>
  <g id="bullet-char-template(10146)" transform="scale(0.00048828125,-0.00048828125)">
   <path d="M 174,0 L 602,739 174,1481 1456,739 174,0 Z M 1358,739 L 309,1346 659,739 1358,739 Z"/>
  </g>
  <g id="bullet-char-template(10132)" transform="scale(0.00048828125,-0.00048828125)">
   <path d="M 2015,739 L 1276,0 717,0 1260,543 174,543 174,936 1260,936 717,1481 1274,1481 2015,739 Z"/>
  </g>
  <g id="bullet-char-template(10007)" transform="scale(0.00048828125,-0.00048828125)">
   <path d="M 0,-2 C -7,14 -16,27 -25,37 L 356,567 C 262,823 215,952 215,954 215,979 228,992 255,992 264,992 276,990 289,987 310,991 331,999 354,1012 L 381,999 492,748 772,1049 836,1024 860,1049 C 881,1039 901,1025 922,1006 886,937 835,863 770,784 769,783 710,716 594,584 L 774,223 C 774,196 753,168 711,139 L 727,119 C 717,90 699,76 672,76 641,76 570,178 457,381 L 164,-76 C 142,-110 111,-127 72,-127 30,-127 9,-110 8,-76 1,-67 -2,-52 -2,-32 -2,-23 -1,-13 0,-2 Z"/>
  </g>
  <g id="bullet-char-template(10004)" transform="scale(0.00048828125,-0.00048828125)">
   <path d="M 285,-33 C 182,-33 111,30 74,156 52,228 41,333 41,471 41,549 55,616 82,672 116,743 169,778 240,778 293,778 328,747 346,684 L 369,508 C 377,444 397,411 428,410 L 1163,1116 C 1174,1127 1196,1133 1229,1133 1271,1133 1292,1118 1292,1087 L 1292,965 C 1292,929 1282,901 1262,881 L 442,47 C 390,-6 338,-33 285,-33 Z"/>
  </g>
  <g id="bullet-char-template(9679)" transform="scale(0.00048828125,-0.00048828125)">
   <path d="M 813,0 C 632,0 489,54 383,161 276,268 223,411 223,592 223,773 276,916 383,1023 489,1130 632,1184 813,1184 992,1184 1136,1130 1245,1023 1353,916 1407,772 1407,592 1407,412 1353,268 1245,161 1136,54 992,0 813,0 Z"/>
  </g>
  <g id="bullet-char-template(8226)" transform="scale(0.00048828125,-0.00048828125)">
   <path d="M 346,457 C 273,457 209,483 155,535 101,586 74,649 74,723 74,796 101,859 155,911 209,963 273,989 346,989 419,989 480,963 531,910 582,859 608,796 608,723 608,648 583,586 532,535 482,483 420,457 346,457 Z"/>
  </g>
  <g id="bullet-char-template(8211)" transform="scale(0.00048828125,-0.00048828125)">
   <path d="M -4,459 L 1135,459 1135,606 -4,606 -4,459 Z"/>
  </g>
 </defs>
 <defs class="TextEmbeddedBitmaps"/>
 <g class="SlideGroup">
  <g>
   <g id="id1" class="Slide" clip-path="url(#presentation_clip_path)">
    <g class="Page">
     <g class="Group">
      <g class="com.sun.star.drawing.ClosedBezierShape">
       <g id="id3">
        <rect class="BoundingBox" stroke="none" fill="none" x="6936" y="17773" width="1608" height="994"/>
        <path fill="rgb(221,221,221)" stroke="none" d="M 6962,18765 C 7354,18765 8385,18600 8527,18187 8670,17774 7777,17774 7385,17774 7385,18022 6813,17939 6962,18765 Z"/>
        <path fill="none" stroke="rgb(221,221,221)" d="M 6962,18765 C 7354,18765 8385,18600 8527,18187 8670,17774 7777,17774 7385,17774 7385,18022 6813,17939 6962,18765 Z"/>
       </g>
      </g>
      <g class="Group">
       <g class="com.sun.star.drawing.PolyPolygonShape">
        <g id="id4">
         <rect class="BoundingBox" stroke="none" fill="none" x="-207" y="9661" width="7184" height="9125"/>
         <g>
          <defs>
           <linearGradient id="gradient1" x1="-189" y1="14223" x2="6957" y2="14223" gradientUnits="userSpaceOnUse">
            <stop offset="0.1" style="stop-color:rgb(179,179,179)"/>
            <stop offset="1" style="stop-color:rgb(229,229,229)"/>
           </linearGradient>
          </defs>
          <path style="fill:url(#gradient1)" d="M -187,14636 L -187,9681 6956,13810 6956,18765 -187,14636 Z"/>
         </g>
         <path fill="none" stroke="rgb(255,255,255)" stroke-width="40" stroke-linejoin="round" d="M -187,14636 L -187,9681 6956,13810 6956,18765 -187,14636 Z"/>
        </g>
       </g>
       <g class="com.sun.star.drawing.PolyPolygonShape">
        <g id="id5">
         <rect class="BoundingBox" stroke="none" fill="none" x="79" y="10156" width="6613" height="7804"/>
         <g>
          <defs>
           <linearGradient id="gradient2" x1="98" y1="14057" x2="6673" y2="14057" gradientUnits="userSpaceOnUse">
            <stop offset="0.1" style="stop-color:rgb(147,212,240)"/>
            <stop offset="1" style="stop-color:rgb(233,246,252)"/>
           </linearGradient>
          </defs>
          <path style="fill:url(#gradient2)" d="M 99,14140 L 99,10176 6671,14057 6671,17939 99,14140 Z"/>
         </g>
         <path fill="none" stroke="rgb(127,127,127)" stroke-width="40" stroke-linejoin="round" d="M 99,14140 L 99,10176 6671,14057 6671,17939 99,14140 Z"/>
        </g>
       </g>
       <g class="com.sun.star.drawing.PolyPolygonShape">
        <g id="id6">
         <rect class="BoundingBox" stroke="none" fill="none" x="-208" y="9413" width="7614" height="4418"/>
         <g>
          <defs>
           <linearGradient id="gradient3" x1="3599" y1="9433" x2="3599" y2="13810" gradientUnits="userSpaceOnUse">
            <stop offset="0.1" style="stop-color:rgb(179,179,179)"/>
            <stop offset="1" style="stop-color:rgb(229,229,229)"/>
           </linearGradient>
          </defs>
          <path style="fill:url(#gradient3)" d="M 6956,13810 L -187,9681 242,9433 7385,13562 6956,13810 Z"/>
         </g>
         <path fill="none" stroke="rgb(255,255,255)" stroke-width="40" stroke-linejoin="round" d="M 6956,13810 L -187,9681 242,9433 7385,13562 6956,13810 Z"/>
        </g>
       </g>
       <g class="com.sun.star.drawing.PolyPolygonShape">
        <g id="id7">
         <rect class="BoundingBox" stroke="none" fill="none" x="6936" y="13541" width="470" height="5245"/>
         <g>
          <defs>
           <pattern id="pattern1" x="6956" y="13562" width="430" height="5204" patternUnits="userSpaceOnUse">
            <g transform="translate(-6956,-13562)">
             <path fill="rgb(179,179,179)" stroke="none" d="M 6955,13561 L 7386,13561 7386,18766 6955,18766 6955,13561 Z M 6873,12572 L 7294,12572 7294,17671 6873,17671 6873,12572 Z"/>
             <path fill="rgb(180,180,180)" stroke="none" d="M 6873,12572 L 7294,12572 7294,17671 6873,17671 6873,12572 Z M 6877,12624 L 7290,12624 7290,17619 6877,17619 6877,12624 Z"/>
             <path fill="rgb(181,181,181)" stroke="none" d="M 6877,12624 L 7290,12624 7290,17619 6877,17619 6877,12624 Z M 6881,12676 L 7286,12676 7286,17567 6881,17567 6881,12676 Z"/>
             <path fill="rgb(182,182,182)" stroke="none" d="M 6881,12676 L 7286,12676 7286,17567 6881,17567 6881,12676 Z M 6886,12728 L 7281,12728 7281,17515 6886,17515 6886,12728 Z"/>
             <path fill="rgb(183,183,183)" stroke="none" d="M 6886,12728 L 7281,12728 7281,17515 6886,17515 6886,12728 Z M 6890,12780 L 7277,12780 7277,17463 6890,17463 6890,12780 Z"/>
             <path fill="rgb(184,184,184)" stroke="none" d="M 6890,12780 L 7277,12780 7277,17463 6890,17463 6890,12780 Z M 6894,12832 L 7273,12832 7273,17411 6894,17411 6894,12832 Z"/>
             <path fill="rgb(185,185,185)" stroke="none" d="M 6894,12832 L 7273,12832 7273,17411 6894,17411 6894,12832 Z M 6899,12884 L 7268,12884 7268,17359 6899,17359 6899,12884 Z"/>
             <path fill="rgb(186,186,186)" stroke="none" d="M 6899,12884 L 7268,12884 7268,17359 6899,17359 6899,12884 Z M 6903,12936 L 7264,12936 7264,17307 6903,17307 6903,12936 Z"/>
             <path fill="rgb(187,187,187)" stroke="none" d="M 6903,12936 L 7264,12936 7264,17307 6903,17307 6903,12936 Z M 6907,12988 L 7260,12988 7260,17255 6907,17255 6907,12988 Z"/>
             <path fill="rgb(188,188,188)" stroke="none" d="M 6907,12988 L 7260,12988 7260,17255 6907,17255 6907,12988 Z M 6912,13040 L 7255,13040 7255,17203 6912,17203 6912,13040 Z"/>
             <path fill="rgb(189,189,189)" stroke="none" d="M 6912,13040 L 7255,13040 7255,17203 6912,17203 6912,13040 Z M 6916,13092 L 7251,13092 7251,17151 6916,17151 6916,13092 Z"/>
             <path fill="rgb(190,190,190)" stroke="none" d="M 6916,13092 L 7251,13092 7251,17151 6916,17151 6916,13092 Z M 6920,13144 L 7247,13144 7247,17099 6920,17099 6920,13144 Z"/>
             <path fill="rgb(191,191,191)" stroke="none" d="M 6920,13144 L 7247,13144 7247,17099 6920,17099 6920,13144 Z M 6925,13196 L 7242,13196 7242,17047 6925,17047 6925,13196 Z"/>
             <path fill="rgb(192,192,192)" stroke="none" d="M 6925,13196 L 7242,13196 7242,17047 6925,17047 6925,13196 Z M 6929,13248 L 7238,13248 7238,16995 6929,16995 6929,13248 Z"/>
             <path fill="rgb(193,193,193)" stroke="none" d="M 6929,13248 L 7238,13248 7238,16995 6929,16995 6929,13248 Z M 6933,13300 L 7234,13300 7234,16943 6933,16943 6933,13300 Z"/>
             <path fill="rgb(194,194,194)" stroke="none" d="M 6933,13300 L 7234,13300 7234,16943 6933,16943 6933,13300 Z M 6937,13352 L 7229,13352 7229,16891 6937,16891 6937,13352 Z"/>
             <path fill="rgb(195,195,195)" stroke="none" d="M 6937,13352 L 7229,13352 7229,16891 6937,16891 6937,13352 Z M 6941,13405 L 7225,13405 7225,16838 6941,16838 6941,13405 Z"/>
             <path fill="rgb(196,196,196)" stroke="none" d="M 6941,13405 L 7225,13405 7225,16838 6941,16838 6941,13405 Z M 6945,13457 L 7221,13457 7221,16786 6945,16786 6945,13457 Z"/>
             <path fill="rgb(197,197,197)" stroke="none" d="M 6945,13457 L 7221,13457 7221,16786 6945,16786 6945,13457 Z M 6950,13509 L 7216,13509 7216,16734 6950,16734 6950,13509 Z"/>
             <path fill="rgb(198,198,198)" stroke="none" d="M 6950,13509 L 7216,13509 7216,16734 6950,16734 6950,13509 Z M 6954,13560 L 7212,13560 7212,16682 6954,16682 6954,13560 Z"/>
             <path fill="rgb(199,199,199)" stroke="none" d="M 6954,13560 L 7212,13560 7212,16682 6954,16682 6954,13560 Z M 6958,13612 L 7208,13612 7208,16630 6958,16630 6958,13612 Z"/>
             <path fill="rgb(200,200,200)" stroke="none" d="M 6958,13612 L 7208,13612 7208,16630 6958,16630 6958,13612 Z M 6963,13664 L 7203,13664 7203,16578 6963,16578 6963,13664 Z"/>
             <path fill="rgb(201,201,201)" stroke="none" d="M 6963,13664 L 7203,13664 7203,16578 6963,16578 6963,13664 Z M 6967,13716 L 7199,13716 7199,16526 6967,16526 6967,13716 Z"/>
             <path fill="rgb(202,202,202)" stroke="none" d="M 6967,13716 L 7199,13716 7199,16526 6967,16526 6967,13716 Z M 6971,13768 L 7195,13768 7195,16474 6971,16474 6971,13768 Z"/>
             <path fill="rgb(203,203,203)" stroke="none" d="M 6971,13768 L 7195,13768 7195,16474 6971,16474 6971,13768 Z M 6976,13820 L 7191,13820 7191,16422 6976,16422 6976,13820 Z"/>
             <path fill="rgb(204,204,204)" stroke="none" d="M 6976,13820 L 7191,13820 7191,16422 6976,16422 6976,13820 Z M 6980,13872 L 7186,13872 7186,16370 6980,16370 6980,13872 Z"/>
             <path fill="rgb(205,205,205)" stroke="none" d="M 6980,13872 L 7186,13872 7186,16370 6980,16370 6980,13872 Z M 6984,13924 L 7182,13924 7182,16318 6984,16318 6984,13924 Z"/>
             <path fill="rgb(206,206,206)" stroke="none" d="M 6984,13924 L 7182,13924 7182,16318 6984,16318 6984,13924 Z M 6988,13976 L 7178,13976 7178,16266 6988,16266 6988,13976 Z"/>
             <path fill="rgb(207,207,207)" stroke="none" d="M 6988,13976 L 7178,13976 7178,16266 6988,16266 6988,13976 Z M 6993,14028 L 7173,14028 7173,16214 6993,16214 6993,14028 Z"/>
             <path fill="rgb(208,208,208)" stroke="none" d="M 6993,14028 L 7173,14028 7173,16214 6993,16214 6993,14028 Z M 6997,14080 L 7169,14080 7169,16162 6997,16162 6997,14080 Z"/>
             <path fill="rgb(209,209,209)" stroke="none" d="M 6997,14080 L 7169,14080 7169,16162 6997,16162 6997,14080 Z M 7001,14132 L 7165,14132 7165,16110 7001,16110 7001,14132 Z"/>
             <path fill="rgb(210,210,210)" stroke="none" d="M 7001,14132 L 7165,14132 7165,16110 7001,16110 7001,14132 Z M 7006,14184 L 7160,14184 7160,16058 7006,16058 7006,14184 Z"/>
             <path fill="rgb(211,211,211)" stroke="none" d="M 7006,14184 L 7160,14184 7160,16058 7006,16058 7006,14184 Z M 7010,14236 L 7156,14236 7156,16006 7010,16006 7010,14236 Z"/>
             <path fill="rgb(212,212,212)" stroke="none" d="M 7010,14236 L 7156,14236 7156,16006 7010,16006 7010,14236 Z M 7014,14289 L 7152,14289 7152,15953 7014,15953 7014,14289 Z"/>
             <path fill="rgb(213,213,213)" stroke="none" d="M 7014,14289 L 7152,14289 7152,15953 7014,15953 7014,14289 Z M 7019,14341 L 7147,14341 7147,15901 7019,15901 7019,14341 Z"/>
             <path fill="rgb(214,214,214)" stroke="none" d="M 7019,14341 L 7147,14341 7147,15901 7019,15901 7019,14341 Z M 7023,14393 L 7143,14393 7143,15849 7023,15849 7023,14393 Z"/>
             <path fill="rgb(215,215,215)" stroke="none" d="M 7023,14393 L 7143,14393 7143,15849 7023,15849 7023,14393 Z M 7027,14445 L 7139,14445 7139,15797 7027,15797 7027,14445 Z"/>
             <path fill="rgb(216,216,216)" stroke="none" d="M 7027,14445 L 7139,14445 7139,15797 7027,15797 7027,14445 Z M 7032,14497 L 7134,14497 7134,15745 7032,15745 7032,14497 Z"/>
             <path fill="rgb(217,217,217)" stroke="none" d="M 7032,14497 L 7134,14497 7134,15745 7032,15745 7032,14497 Z M 7036,14549 L 7130,14549 7130,15693 7036,15693 7036,14549 Z"/>
             <path fill="rgb(218,218,218)" stroke="none" d="M 7036,14549 L 7130,14549 7130,15693 7036,15693 7036,14549 Z M 7040,14601 L 7126,14601 7126,15641 7040,15641 7040,14601 Z"/>
             <path fill="rgb(219,219,219)" stroke="none" d="M 7040,14601 L 7126,14601 7126,15641 7040,15641 7040,14601 Z M 7045,14653 L 7121,14653 7121,15589 7045,15589 7045,14653 Z"/>
             <path fill="rgb(220,220,220)" stroke="none" d="M 7045,14653 L 7121,14653 7121,15589 7045,15589 7045,14653 Z M 7049,14705 L 7117,14705 7117,15537 7049,15537 7049,14705 Z"/>
             <path fill="rgb(221,221,221)" stroke="none" d="M 7049,14705 L 7117,14705 7117,15537 7049,15537 7049,14705 Z M 7053,14757 L 7113,14757 7113,15485 7053,15485 7053,14757 Z"/>
             <path fill="rgb(222,222,222)" stroke="none" d="M 7053,14757 L 7113,14757 7113,15485 7053,15485 7053,14757 Z M 7058,14809 L 7108,14809 7108,15433 7058,15433 7058,14809 Z"/>
             <path fill="rgb(223,223,223)" stroke="none" d="M 7058,14809 L 7108,14809 7108,15433 7058,15433 7058,14809 Z M 7062,14861 L 7104,14861 7104,15381 7062,15381 7062,14861 Z"/>
             <path fill="rgb(224,224,224)" stroke="none" d="M 7062,14861 L 7104,14861 7104,15381 7062,15381 7062,14861 Z M 7066,14913 L 7100,14913 7100,15329 7066,15329 7066,14913 Z"/>
             <path fill="rgb(225,225,225)" stroke="none" d="M 7066,14913 L 7100,14913 7100,15329 7066,15329 7066,14913 Z M 7071,14965 L 7095,14965 7095,15277 7071,15277 7071,14965 Z"/>
             <path fill="rgb(226,226,226)" stroke="none" d="M 7071,14965 L 7095,14965 7095,15277 7071,15277 7071,14965 Z M 7075,15017 L 7091,15017 7091,15225 7075,15225 7075,15017 Z"/>
             <path fill="rgb(227,227,227)" stroke="none" d="M 7075,15017 L 7091,15017 7091,15225 7075,15225 7075,15017 Z M 7079,15069 L 7087,15069 7087,15173 7079,15173 7079,15069 Z"/>
             <path fill="rgb(229,229,229)" stroke="none" d="M 7079,15069 L 7087,15069 7087,15173 7079,15173 7079,15069 Z"/>
            </g>
           </pattern>
          </defs>
          <path style="fill:url(#pattern1)" d="M 6956,18765 L 6956,13810 7385,13562 7385,18517 6956,18765 Z"/>
         </g>
         <path fill="none" stroke="rgb(255,255,255)" stroke-width="40" stroke-linejoin="round" d="M 6956,18765 L 6956,13810 7385,13562 7385,18517 6956,18765 Z"/>
        </g>
       </g>
       <g class="com.sun.star.drawing.PolyPolygonShape">
        <g id="id8">
         <rect class="BoundingBox" stroke="none" fill="none" x="-208" y="9413" width="7614" height="9373"/>
         <path fill="none" stroke="rgb(0,0,0)" stroke-width="40" stroke-linejoin="round" d="M 242,9433 L 7385,13562 7385,18517 6956,18765 -187,14636 -187,9681 242,9433 Z"/>
        </g>
       </g>
       <g class="com.sun.star.drawing.PolyPolygonShape">
        <g id="id9">
         <rect class="BoundingBox" stroke="none" fill="none" x="3222" y="16185" width="327" height="371"/>
         <path fill="rgb(116,203,128)" stroke="none" d="M 3242,16370 L 3242,16205 3528,16370 3528,16535 3242,16370 Z"/>
         <path fill="none" stroke="rgb(127,127,127)" stroke-width="40" stroke-linejoin="round" d="M 3242,16370 L 3242,16205 3528,16370 3528,16535 3242,16370 Z"/>
        </g>
       </g>
      </g>
     </g>
    </g>
   </g>
  </g>
 </g>
</svg>